%TF.GenerationSoftware,KiCad,Pcbnew,(6.0.2-0)*%
%TF.CreationDate,2022-02-22T08:10:08+00:00*%
%TF.ProjectId,EnvMon2,456e764d-6f6e-4322-9e6b-696361645f70,4*%
%TF.SameCoordinates,Original*%
%TF.FileFunction,Paste,Top*%
%TF.FilePolarity,Positive*%
%FSLAX46Y46*%
G04 Gerber Fmt 4.6, Leading zero omitted, Abs format (unit mm)*
G04 Created by KiCad (PCBNEW (6.0.2-0)) date 2022-02-22 08:10:08*
%MOMM*%
%LPD*%
G01*
G04 APERTURE LIST*
G04 Aperture macros list*
%AMRoundRect*
0 Rectangle with rounded corners*
0 $1 Rounding radius*
0 $2 $3 $4 $5 $6 $7 $8 $9 X,Y pos of 4 corners*
0 Add a 4 corners polygon primitive as box body*
4,1,4,$2,$3,$4,$5,$6,$7,$8,$9,$2,$3,0*
0 Add four circle primitives for the rounded corners*
1,1,$1+$1,$2,$3*
1,1,$1+$1,$4,$5*
1,1,$1+$1,$6,$7*
1,1,$1+$1,$8,$9*
0 Add four rect primitives between the rounded corners*
20,1,$1+$1,$2,$3,$4,$5,0*
20,1,$1+$1,$4,$5,$6,$7,0*
20,1,$1+$1,$6,$7,$8,$9,0*
20,1,$1+$1,$8,$9,$2,$3,0*%
G04 Aperture macros list end*
%ADD10C,0.010000*%
%ADD11RoundRect,0.250000X-0.255000X-0.255000X0.255000X-0.255000X0.255000X0.255000X-0.255000X0.255000X0*%
%ADD12RoundRect,0.021250X-0.350000X-0.091250X0.350000X-0.091250X0.350000X0.091250X-0.350000X0.091250X0*%
%ADD13RoundRect,0.050000X-0.062500X-0.321250X0.062500X-0.321250X0.062500X0.321250X-0.062500X0.321250X0*%
%ADD14R,1.350000X0.720000*%
%ADD15R,0.720000X1.350000*%
%ADD16R,1.560000X1.560000*%
%ADD17RoundRect,0.160000X-0.267500X0.200000X-0.267500X-0.200000X0.267500X-0.200000X0.267500X0.200000X0*%
%ADD18RoundRect,0.188750X-0.250000X-0.238750X0.250000X-0.238750X0.250000X0.238750X-0.250000X0.238750X0*%
%ADD19RoundRect,0.160000X0.200000X0.267500X-0.200000X0.267500X-0.200000X-0.267500X0.200000X-0.267500X0*%
%ADD20R,0.450000X0.765000*%
%ADD21RoundRect,0.250000X-0.350000X-0.250000X0.350000X-0.250000X0.350000X0.250000X-0.350000X0.250000X0*%
%ADD22R,0.540000X0.990000*%
%ADD23RoundRect,0.180000X0.247500X-0.225000X0.247500X0.225000X-0.247500X0.225000X-0.247500X-0.225000X0*%
%ADD24RoundRect,0.178125X-0.463125X-0.609375X0.463125X-0.609375X0.463125X0.609375X-0.463125X0.609375X0*%
%ADD25RoundRect,0.200000X-0.452500X0.250000X-0.452500X-0.250000X0.452500X-0.250000X0.452500X0.250000X0*%
%ADD26RoundRect,0.187500X-0.375000X-0.600000X0.375000X-0.600000X0.375000X0.600000X-0.375000X0.600000X0*%
%ADD27RoundRect,0.180000X0.225000X0.247500X-0.225000X0.247500X-0.225000X-0.247500X0.225000X-0.247500X0*%
%ADD28RoundRect,0.160000X-0.200000X-0.267500X0.200000X-0.267500X0.200000X0.267500X-0.200000X0.267500X0*%
%ADD29RoundRect,0.232500X-0.232500X-0.232500X0.232500X-0.232500X0.232500X0.232500X-0.232500X0.232500X0*%
%ADD30R,0.420000X0.798000*%
%ADD31RoundRect,0.060000X-0.075000X-0.453000X0.075000X-0.453000X0.075000X0.453000X-0.075000X0.453000X0*%
%ADD32R,0.360000X0.720000*%
%ADD33R,0.720000X0.360000*%
%ADD34R,1.305000X1.305000*%
%ADD35R,0.630000X0.630000*%
%ADD36RoundRect,0.188750X0.250000X0.238750X-0.250000X0.238750X-0.250000X-0.238750X0.250000X-0.238750X0*%
G04 APERTURE END LIST*
D10*
%TO.C,U5*%
X137781750Y-82025000D02*
X139231750Y-82025000D01*
X139231750Y-82025000D02*
X139231750Y-81175000D01*
X139231750Y-81175000D02*
X138631750Y-80575000D01*
X138631750Y-80575000D02*
X137781750Y-80575000D01*
X137781750Y-80575000D02*
X137781750Y-82025000D01*
G36*
X139231750Y-81175000D02*
G01*
X139231750Y-82025000D01*
X137781750Y-82025000D01*
X137781750Y-80575000D01*
X138631750Y-80575000D01*
X139231750Y-81175000D01*
G37*
X139231750Y-81175000D02*
X139231750Y-82025000D01*
X137781750Y-82025000D01*
X137781750Y-80575000D01*
X138631750Y-80575000D01*
X139231750Y-81175000D01*
%TD*%
D11*
%TO.C,U3*%
X134875000Y-97375000D03*
X133625000Y-97375000D03*
X133625000Y-98625000D03*
X134875000Y-98625000D03*
D12*
X132312500Y-97000000D03*
X132312500Y-97500000D03*
X132312500Y-98000000D03*
X132312500Y-98500000D03*
X132312500Y-99000000D03*
D13*
X133250000Y-99937500D03*
X133750000Y-99937500D03*
X134250000Y-99937500D03*
X134750000Y-99937500D03*
X135250000Y-99937500D03*
D12*
X136187500Y-99000000D03*
X136187500Y-98500000D03*
X136187500Y-98000000D03*
X136187500Y-97500000D03*
X136187500Y-97000000D03*
D13*
X135250000Y-96062500D03*
X134750000Y-96062500D03*
X134250000Y-96062500D03*
X133750000Y-96062500D03*
X133250000Y-96062500D03*
%TD*%
D14*
%TO.C,U2*%
X116500000Y-79500000D03*
X116500000Y-80750000D03*
X116500000Y-82000000D03*
X116500000Y-83250000D03*
X116500000Y-84500000D03*
D15*
X118000000Y-86000000D03*
X119250000Y-86000000D03*
X120500000Y-86000000D03*
X121750000Y-86000000D03*
X123000000Y-86000000D03*
D14*
X124500000Y-84500000D03*
X124500000Y-83250000D03*
X124500000Y-82000000D03*
X124500000Y-80750000D03*
X124500000Y-79500000D03*
D15*
X123000000Y-78000000D03*
X121750000Y-78000000D03*
X120500000Y-78000000D03*
X119250000Y-78000000D03*
X118000000Y-78000000D03*
D16*
X121700000Y-80800000D03*
X121700000Y-83200000D03*
X119300000Y-80800000D03*
X119300000Y-83200000D03*
%TD*%
D17*
%TO.C,R6*%
X129000000Y-82775000D03*
X129000000Y-84425000D03*
%TD*%
D18*
%TO.C,R4*%
X137837500Y-105500000D03*
X139662500Y-105500000D03*
%TD*%
D19*
%TO.C,R1*%
X147075000Y-96250000D03*
X145425000Y-96250000D03*
%TD*%
D20*
%TO.C,D3*%
X126750000Y-84475000D03*
X126750000Y-82725000D03*
X127750000Y-82725000D03*
X127750000Y-84475000D03*
%TD*%
D19*
%TO.C,R2*%
X144075000Y-96250000D03*
X142425000Y-96250000D03*
%TD*%
D21*
%TO.C,U1*%
X147700000Y-99800000D03*
D22*
X143250000Y-98400000D03*
D21*
X144700000Y-100950000D03*
D22*
X143250000Y-101100000D03*
D21*
X147700000Y-98650000D03*
X144700000Y-99800000D03*
X144700000Y-98650000D03*
X147700000Y-100950000D03*
D23*
X140200000Y-100775000D03*
X140200000Y-99225000D03*
D24*
X143097500Y-102920000D03*
D22*
X141350000Y-101100000D03*
D25*
X141450000Y-102350000D03*
D22*
X142300000Y-101100000D03*
D25*
X141450000Y-104250000D03*
D24*
X146062500Y-102920000D03*
D22*
X142300000Y-98400000D03*
D25*
X147700000Y-104250000D03*
X147700000Y-102350000D03*
D22*
X141350000Y-98400000D03*
%TD*%
D26*
%TO.C,D2*%
X126850000Y-107000000D03*
X129650000Y-107000000D03*
%TD*%
D17*
%TO.C,R5*%
X130250000Y-82775000D03*
X130250000Y-84425000D03*
%TD*%
D27*
%TO.C,C4*%
X131775000Y-103750000D03*
X130225000Y-103750000D03*
%TD*%
D28*
%TO.C,R8*%
X130175000Y-102500000D03*
X131825000Y-102500000D03*
%TD*%
D18*
%TO.C,R10*%
X131587500Y-91000000D03*
X133412500Y-91000000D03*
%TD*%
D28*
%TO.C,R7*%
X127925000Y-85600000D03*
X129575000Y-85600000D03*
%TD*%
D29*
%TO.C,J1*%
X137965000Y-109315000D03*
X135665000Y-111615000D03*
X136815000Y-110465000D03*
X136815000Y-109315000D03*
X137965000Y-111615000D03*
X137965000Y-110465000D03*
X135665000Y-110465000D03*
X134515000Y-111615000D03*
X136815000Y-111615000D03*
X135665000Y-109315000D03*
X134515000Y-109315000D03*
X134515000Y-110465000D03*
D30*
X133050000Y-106890000D03*
X133850000Y-106890000D03*
D31*
X135000000Y-106890000D03*
X136000000Y-106890000D03*
X136500000Y-106890000D03*
X137500000Y-106890000D03*
D30*
X139450000Y-106890000D03*
X138650000Y-106890000D03*
D31*
X138000000Y-106890000D03*
X137000000Y-106890000D03*
X135500000Y-106890000D03*
X134500000Y-106890000D03*
%TD*%
D19*
%TO.C,R9*%
X131825000Y-101250000D03*
X130175000Y-101250000D03*
%TD*%
D32*
%TO.C,U5*%
X140556750Y-77350000D03*
X139756750Y-77350000D03*
X138956750Y-77350000D03*
X138156750Y-77350000D03*
X137356750Y-77350000D03*
X136556750Y-77350000D03*
X135756750Y-77350000D03*
X134956750Y-77350000D03*
X134156750Y-77350000D03*
X133356750Y-77350000D03*
X132556750Y-77350000D03*
D33*
X131656750Y-78450000D03*
X131656750Y-79250000D03*
X131656750Y-80050000D03*
X131656750Y-80850000D03*
X131656750Y-81650000D03*
X131656750Y-82450000D03*
X131656750Y-83250000D03*
X131656750Y-84050000D03*
X131656750Y-84850000D03*
X131656750Y-85650000D03*
X131656750Y-86450000D03*
X131656750Y-87250000D03*
X131656750Y-88050000D03*
D32*
X132556750Y-89150000D03*
X133356750Y-89150000D03*
X134156750Y-89150000D03*
X134956750Y-89150000D03*
X135756750Y-89150000D03*
X136556750Y-89150000D03*
X137356750Y-89150000D03*
X138156750Y-89150000D03*
X138956750Y-89150000D03*
X139756750Y-89150000D03*
X140556750Y-89150000D03*
D33*
X141456750Y-88050000D03*
X141456750Y-87250000D03*
X141456750Y-86450000D03*
X141456750Y-85650000D03*
X141456750Y-84850000D03*
X141456750Y-84050000D03*
X141456750Y-83250000D03*
X141456750Y-82450000D03*
X141456750Y-81650000D03*
X141456750Y-80850000D03*
X141456750Y-80050000D03*
X141456750Y-79250000D03*
X141456750Y-78450000D03*
D34*
X136556750Y-83250000D03*
D35*
X141506750Y-89200000D03*
X131606750Y-89200000D03*
X131606750Y-77300000D03*
X141506750Y-77300000D03*
D34*
X136556750Y-81300000D03*
X134606750Y-81300000D03*
X134606750Y-83250000D03*
X134606750Y-85200000D03*
X136556750Y-85200000D03*
X138506750Y-85200000D03*
X138506750Y-83250000D03*
%TD*%
D36*
%TO.C,R3*%
X134662500Y-105500000D03*
X132837500Y-105500000D03*
%TD*%
M02*
