%TF.GenerationSoftware,KiCad,Pcbnew,(5.1.9-0-10_14)*%
%TF.CreationDate,2021-04-21T10:23:56+01:00*%
%TF.ProjectId,EnvMon,456e764d-6f6e-42e6-9b69-6361645f7063,2*%
%TF.SameCoordinates,Original*%
%TF.FileFunction,Copper,L1,Top*%
%TF.FilePolarity,Positive*%
%FSLAX46Y46*%
G04 Gerber Fmt 4.6, Leading zero omitted, Abs format (unit mm)*
G04 Created by KiCad (PCBNEW (5.1.9-0-10_14)) date 2021-04-21 10:23:56*
%MOMM*%
%LPD*%
G01*
G04 APERTURE LIST*
%TA.AperFunction,NonConductor*%
%ADD10C,0.300000*%
%TD*%
%TA.AperFunction,EtchedComponent*%
%ADD11C,0.200000*%
%TD*%
%TA.AperFunction,SMDPad,CuDef*%
%ADD12C,1.700000*%
%TD*%
%TA.AperFunction,ComponentPad*%
%ADD13R,1.524000X1.524000*%
%TD*%
%TA.AperFunction,SMDPad,CuDef*%
%ADD14R,0.200000X0.200000*%
%TD*%
%TA.AperFunction,SMDPad,CuDef*%
%ADD15C,0.500000*%
%TD*%
%TA.AperFunction,ComponentPad*%
%ADD16C,1.524000*%
%TD*%
%TA.AperFunction,SMDPad,CuDef*%
%ADD17R,2.100000X2.100000*%
%TD*%
%TA.AperFunction,SMDPad,CuDef*%
%ADD18R,0.300000X1.000000*%
%TD*%
%TA.AperFunction,SMDPad,CuDef*%
%ADD19R,1.000000X0.300000*%
%TD*%
%TA.AperFunction,ComponentPad*%
%ADD20C,2.000000*%
%TD*%
%TA.AperFunction,ComponentPad*%
%ADD21R,2.000000X2.000000*%
%TD*%
%TA.AperFunction,ComponentPad*%
%ADD22C,1.700000*%
%TD*%
%TA.AperFunction,ComponentPad*%
%ADD23C,5.000000*%
%TD*%
%TA.AperFunction,SMDPad,CuDef*%
%ADD24R,2.000000X0.900000*%
%TD*%
%TA.AperFunction,SMDPad,CuDef*%
%ADD25R,0.900000X2.000000*%
%TD*%
%TA.AperFunction,SMDPad,CuDef*%
%ADD26R,5.000000X5.000000*%
%TD*%
%TA.AperFunction,ComponentPad*%
%ADD27O,1.700000X1.850000*%
%TD*%
%TA.AperFunction,SMDPad,CuDef*%
%ADD28R,8.340000X5.490000*%
%TD*%
%TA.AperFunction,SMDPad,CuDef*%
%ADD29R,0.600000X1.140000*%
%TD*%
%TA.AperFunction,SMDPad,CuDef*%
%ADD30R,0.300000X1.140000*%
%TD*%
%TA.AperFunction,ComponentPad*%
%ADD31C,0.600000*%
%TD*%
%TA.AperFunction,ViaPad*%
%ADD32C,0.800000*%
%TD*%
%TA.AperFunction,Conductor*%
%ADD33C,0.250000*%
%TD*%
%TA.AperFunction,Conductor*%
%ADD34C,0.254000*%
%TD*%
%TA.AperFunction,Conductor*%
%ADD35C,0.100000*%
%TD*%
G04 APERTURE END LIST*
D10*
X131878571Y-89585714D02*
X132878571Y-89300000D01*
X132164285Y-89014285D01*
X132878571Y-88728571D01*
X131878571Y-88442857D01*
X131878571Y-88014285D02*
X132878571Y-87728571D01*
X132164285Y-87442857D01*
X132878571Y-87157142D01*
X131878571Y-86871428D01*
X131878571Y-86442857D02*
X132878571Y-86157142D01*
X132164285Y-85871428D01*
X132878571Y-85585714D01*
X131878571Y-85300000D01*
X132735714Y-84728571D02*
X132807142Y-84657142D01*
X132878571Y-84728571D01*
X132807142Y-84800000D01*
X132735714Y-84728571D01*
X132878571Y-84728571D01*
X132878571Y-84014285D02*
X131878571Y-84014285D01*
X132021428Y-84014285D02*
X131950000Y-83942857D01*
X131878571Y-83800000D01*
X131878571Y-83585714D01*
X131950000Y-83442857D01*
X132092857Y-83371428D01*
X132878571Y-83371428D01*
X132092857Y-83371428D02*
X131950000Y-83300000D01*
X131878571Y-83157142D01*
X131878571Y-82942857D01*
X131950000Y-82800000D01*
X132092857Y-82728571D01*
X132878571Y-82728571D01*
X132807142Y-81442857D02*
X132878571Y-81585714D01*
X132878571Y-81871428D01*
X132807142Y-82014285D01*
X132664285Y-82085714D01*
X132092857Y-82085714D01*
X131950000Y-82014285D01*
X131878571Y-81871428D01*
X131878571Y-81585714D01*
X131950000Y-81442857D01*
X132092857Y-81371428D01*
X132235714Y-81371428D01*
X132378571Y-82085714D01*
X132735714Y-80728571D02*
X132807142Y-80657142D01*
X132878571Y-80728571D01*
X132807142Y-80800000D01*
X132735714Y-80728571D01*
X132878571Y-80728571D01*
X131878571Y-79371428D02*
X132878571Y-79371428D01*
X131878571Y-80014285D02*
X132664285Y-80014285D01*
X132807142Y-79942857D01*
X132878571Y-79800000D01*
X132878571Y-79585714D01*
X132807142Y-79442857D01*
X132735714Y-79371428D01*
X132878571Y-78657142D02*
X131378571Y-78657142D01*
X132307142Y-78514285D02*
X132878571Y-78085714D01*
X131878571Y-78085714D02*
X132450000Y-78657142D01*
D11*
%TO.C,~1*%
X131767650Y-75835880D02*
X127650000Y-72894700D01*
X131767650Y-72894700D02*
X132287579Y-73110062D01*
X127650000Y-72894700D02*
X131767650Y-72894700D01*
X132502940Y-73629994D02*
X132287579Y-74149926D01*
X132287579Y-73110062D02*
X132502940Y-73629994D01*
X132287579Y-74149926D02*
X131767650Y-74365288D01*
X129708820Y-72894710D02*
X131767650Y-71130000D01*
X129709000Y-72894700D02*
X129709000Y-74365300D01*
X127650000Y-71130000D02*
X129708820Y-72894710D01*
%TD*%
D12*
%TO.P,M1,1*%
%TO.N,Net-(M1-Pad1)*%
X94990000Y-83430000D03*
%TO.P,M1,4*%
%TO.N,+3V3*%
X102610000Y-83430000D03*
D13*
%TO.P,M1,3*%
%TO.N,GND*%
X100070000Y-83430000D03*
D12*
%TO.P,M1,2*%
%TO.N,Net-(J1-PadA4)*%
X97530000Y-83430000D03*
%TD*%
D14*
%TO.P,U1,~*%
%TO.N,N/C*%
X97725000Y-86200000D03*
X101725000Y-90200000D03*
X97725000Y-90200000D03*
X101725000Y-86200000D03*
D15*
X97725000Y-86200000D03*
D16*
%TO.P,U1,17*%
%TO.N,GND*%
X99725000Y-88200000D03*
D17*
X99725000Y-88200000D03*
D18*
%TO.P,U1,16*%
%TO.N,Net-(U1-Pad16)*%
X98750000Y-86150000D03*
%TO.P,U1,15*%
%TO.N,Net-(U1-Pad15)*%
X99400000Y-86150000D03*
%TO.P,U1,14*%
%TO.N,CBUS3*%
X100050000Y-86150000D03*
%TO.P,U1,13*%
%TO.N,GND*%
X100700000Y-86150000D03*
D19*
%TO.P,U1,12*%
%TO.N,CBUS0*%
X101775000Y-87225000D03*
%TO.P,U1,11*%
%TO.N,CBUS1*%
X101775000Y-87875000D03*
%TO.P,U1,10*%
%TO.N,+3V3*%
X101775000Y-88525000D03*
%TO.P,U1,9*%
X101775000Y-89175000D03*
D18*
%TO.P,U1,8*%
X100700000Y-90250000D03*
%TO.P,U1,7*%
%TO.N,Net-(J1-PadA7)*%
X100050000Y-90250000D03*
%TO.P,U1,6*%
%TO.N,Net-(J1-PadA6)*%
X99400000Y-90250000D03*
%TO.P,U1,5*%
%TO.N,CBUS2*%
X98750000Y-90250000D03*
D19*
%TO.P,U1,4*%
%TO.N,GND*%
X97675000Y-89175000D03*
%TO.P,U1,3*%
X97675000Y-88525000D03*
%TO.P,U1,2*%
%TO.N,Net-(U1-Pad2)*%
X97675000Y-87875000D03*
%TO.P,U1,1*%
%TO.N,+3V3*%
X97675000Y-87225000D03*
%TD*%
D20*
%TO.P,J2,2*%
%TO.N,Net-(J1-PadA4)*%
X108740000Y-96000000D03*
D21*
%TO.P,J2,1*%
%TO.N,GND*%
X106200000Y-96000000D03*
%TD*%
D22*
%TO.P,M3,4*%
%TO.N,CO2-SDA*%
X104220000Y-70800000D03*
%TO.P,M3,3*%
%TO.N,CO2-SCL*%
X101680000Y-70800000D03*
%TO.P,M3,2*%
%TO.N,GND*%
X99140000Y-70800000D03*
%TO.P,M3,1*%
%TO.N,+3V3*%
X96600000Y-70800000D03*
%TD*%
D23*
%TO.P,M2,S*%
%TO.N,GND*%
X92500000Y-65500000D03*
X92500000Y-97500000D03*
X132000000Y-97500000D03*
X132000000Y-65500000D03*
D22*
%TO.P,M2,7*%
%TO.N,OLED-RST*%
X92500000Y-89120000D03*
%TO.P,M2,6*%
%TO.N,OLED-DC*%
X92500000Y-86580000D03*
%TO.P,M2,5*%
%TO.N,OLED-CS0*%
X92500000Y-84040000D03*
%TO.P,M2,4*%
%TO.N,OLED-SCLK*%
X92500000Y-81500000D03*
%TO.P,M2,3*%
%TO.N,OLED-MOSI*%
X92500000Y-78960000D03*
%TO.P,M2,2*%
%TO.N,GND*%
X92500000Y-76420000D03*
%TO.P,M2,1*%
%TO.N,+3V3*%
X92500000Y-73880000D03*
%TD*%
D24*
%TO.P,U2,38*%
%TO.N,GND*%
X123750000Y-70745000D03*
%TO.P,U2,37*%
%TO.N,OLED-MOSI*%
X123750000Y-72015000D03*
%TO.P,U2,36*%
%TO.N,IO7*%
X123750000Y-73285000D03*
%TO.P,U2,35*%
%TO.N,Net-(U1-Pad2)*%
X123750000Y-74555000D03*
%TO.P,U2,34*%
%TO.N,Net-(U1-Pad15)*%
X123750000Y-75825000D03*
%TO.P,U2,33*%
%TO.N,OLED-DC*%
X123750000Y-77095000D03*
%TO.P,U2,32*%
%TO.N,Net-(U2-Pad32)*%
X123750000Y-78365000D03*
%TO.P,U2,31*%
%TO.N,OLED-RST*%
X123750000Y-79635000D03*
%TO.P,U2,30*%
%TO.N,OLED-SCLK*%
X123750000Y-80905000D03*
%TO.P,U2,29*%
%TO.N,OLED-CS0*%
X123750000Y-82175000D03*
%TO.P,U2,28*%
%TO.N,IO3*%
X123750000Y-83445000D03*
%TO.P,U2,27*%
%TO.N,IO2*%
X123750000Y-84715000D03*
%TO.P,U2,26*%
%TO.N,IO1*%
X123750000Y-85985000D03*
%TO.P,U2,25*%
%TO.N,CBUS0*%
X123750000Y-87255000D03*
D25*
%TO.P,U2,24*%
%TO.N,CBUS1*%
X120965000Y-88255000D03*
%TO.P,U2,23*%
%TO.N,Net-(U2-Pad23)*%
X119695000Y-88255000D03*
%TO.P,U2,22*%
%TO.N,Net-(U2-Pad22)*%
X118425000Y-88255000D03*
%TO.P,U2,21*%
%TO.N,Net-(U2-Pad21)*%
X117155000Y-88255000D03*
%TO.P,U2,20*%
%TO.N,Net-(U2-Pad20)*%
X115885000Y-88255000D03*
%TO.P,U2,19*%
%TO.N,Net-(U2-Pad19)*%
X114615000Y-88255000D03*
%TO.P,U2,18*%
%TO.N,Net-(U2-Pad18)*%
X113345000Y-88255000D03*
%TO.P,U2,17*%
%TO.N,Net-(U2-Pad17)*%
X112075000Y-88255000D03*
%TO.P,U2,16*%
%TO.N,IO5*%
X110805000Y-88255000D03*
%TO.P,U2,15*%
%TO.N,GND*%
X109535000Y-88255000D03*
D24*
%TO.P,U2,14*%
%TO.N,IO4*%
X106750000Y-87255000D03*
%TO.P,U2,13*%
%TO.N,Net-(U2-Pad13)*%
X106750000Y-85985000D03*
%TO.P,U2,12*%
%TO.N,IO6*%
X106750000Y-84715000D03*
%TO.P,U2,11*%
%TO.N,CO2-SCL*%
X106750000Y-83445000D03*
%TO.P,U2,10*%
%TO.N,CO2-SDA*%
X106750000Y-82175000D03*
%TO.P,U2,9*%
%TO.N,CBUS3*%
X106750000Y-80905000D03*
%TO.P,U2,8*%
%TO.N,CBUS2*%
X106750000Y-79635000D03*
%TO.P,U2,7*%
%TO.N,Net-(U2-Pad7)*%
X106750000Y-78365000D03*
%TO.P,U2,6*%
%TO.N,Net-(U2-Pad6)*%
X106750000Y-77095000D03*
%TO.P,U2,5*%
%TO.N,Net-(U2-Pad5)*%
X106750000Y-75825000D03*
%TO.P,U2,4*%
%TO.N,Net-(U2-Pad4)*%
X106750000Y-74555000D03*
%TO.P,U2,3*%
%TO.N,Net-(U1-Pad16)*%
X106750000Y-73285000D03*
%TO.P,U2,2*%
%TO.N,+3V3*%
X106750000Y-72015000D03*
%TO.P,U2,1*%
%TO.N,GND*%
X106750000Y-70745000D03*
D26*
%TO.P,U2,39*%
X114250000Y-78245000D03*
%TD*%
D27*
%TO.P,J3,8*%
%TO.N,IO7*%
X126550000Y-93150000D03*
%TO.P,J3,7*%
%TO.N,IO6*%
X124050000Y-93150000D03*
%TO.P,J3,6*%
%TO.N,IO5*%
X121550000Y-93150000D03*
%TO.P,J3,5*%
%TO.N,IO4*%
X119050000Y-93150000D03*
%TO.P,J3,4*%
%TO.N,IO3*%
X116550000Y-93150000D03*
%TO.P,J3,3*%
%TO.N,IO2*%
X114050000Y-93150000D03*
%TO.P,J3,2*%
%TO.N,IO1*%
X111550000Y-93150000D03*
%TO.P,J3,1*%
%TO.N,GND*%
%TA.AperFunction,ComponentPad*%
G36*
G01*
X108200000Y-93825000D02*
X108200000Y-92475000D01*
G75*
G02*
X108450000Y-92225000I250000J0D01*
G01*
X109650000Y-92225000D01*
G75*
G02*
X109900000Y-92475000I0J-250000D01*
G01*
X109900000Y-93825000D01*
G75*
G02*
X109650000Y-94075000I-250000J0D01*
G01*
X108450000Y-94075000D01*
G75*
G02*
X108200000Y-93825000I0J250000D01*
G01*
G37*
%TD.AperFunction*%
%TD*%
D28*
%TO.P,J1,S1*%
%TO.N,GND*%
X99750000Y-97250000D03*
D29*
%TO.P,J1,A12*%
X102950000Y-93135000D03*
%TO.P,J1,A4*%
%TO.N,Net-(J1-PadA4)*%
X97350000Y-93135000D03*
%TO.P,J1,B12*%
%TO.N,GND*%
X96550000Y-93135000D03*
%TO.P,J1,B4*%
%TO.N,Net-(J1-PadA4)*%
X102150000Y-93135000D03*
D22*
%TO.P,J1,S1*%
%TO.N,GND*%
X104075000Y-97905000D03*
X95425000Y-97905000D03*
D20*
X104075000Y-93725000D03*
X95425000Y-93725000D03*
D30*
%TO.P,J1,A7*%
%TO.N,Net-(J1-PadA7)*%
X100000000Y-93135000D03*
%TO.P,J1,A6*%
%TO.N,Net-(J1-PadA6)*%
X99500000Y-93135000D03*
%TO.P,J1,B6*%
X100500000Y-93135000D03*
%TO.P,J1,B7*%
%TO.N,Net-(J1-PadA7)*%
X99000000Y-93135000D03*
%TO.P,J1,A8*%
%TO.N,Net-(J1-PadA8)*%
X101000000Y-93135000D03*
%TO.P,J1,A5*%
%TO.N,Net-(J1-PadA5)*%
X98500000Y-93135000D03*
%TO.P,J1,B5*%
%TO.N,Net-(J1-PadB5)*%
X101500000Y-93135000D03*
%TO.P,J1,B8*%
%TO.N,Net-(J1-PadB8)*%
X98000000Y-93135000D03*
D29*
%TO.P,J1,A9*%
%TO.N,Net-(J1-PadA4)*%
X102150000Y-93135000D03*
%TO.P,J1,B9*%
X97350000Y-93135000D03*
%TO.P,J1,B1*%
%TO.N,GND*%
X102950000Y-93135000D03*
D31*
%TO.P,J1,S1*%
X102640000Y-94205000D03*
X96860000Y-94205000D03*
D29*
%TO.P,J1,A1*%
X96550000Y-93135000D03*
%TD*%
D32*
%TO.N,Net-(J1-PadA7)*%
X98573635Y-91533696D03*
X100603076Y-91514989D03*
%TO.N,Net-(J1-PadA6)*%
X99596302Y-91496293D03*
X103300000Y-90800000D03*
%TO.N,Net-(J1-PadA5)*%
X95800009Y-91540326D03*
%TO.N,Net-(J1-PadB5)*%
X103978141Y-91674989D03*
%TO.N,Net-(U1-Pad16)*%
X109762660Y-73762660D03*
X98300592Y-85001208D03*
%TO.N,Net-(U1-Pad15)*%
X120650155Y-75574979D03*
X103498095Y-84937910D03*
%TO.N,Net-(U1-Pad2)*%
X121339855Y-74475010D03*
X96308437Y-87803052D03*
%TO.N,+3V3*%
X105000000Y-72400000D03*
X96300000Y-86800000D03*
X104077727Y-88826032D03*
X104745612Y-91033886D03*
%TO.N,OLED-RST*%
X119003892Y-81521428D03*
%TO.N,OLED-DC*%
X120300000Y-77500000D03*
%TO.N,OLED-CS0*%
X120461390Y-81053482D03*
%TO.N,OLED-SCLK*%
X120011379Y-79673314D03*
%TO.N,OLED-MOSI*%
X117457863Y-79018618D03*
%TO.N,IO6*%
X107486764Y-90922384D03*
%TO.N,IO5*%
X110500000Y-90750000D03*
%TO.N,IO4*%
X106645627Y-91463228D03*
%TO.N,CBUS3*%
X108350004Y-85024677D03*
X103618183Y-85983429D03*
%TO.N,CBUS0*%
X122915014Y-88000000D03*
X103676016Y-86981767D03*
%TO.N,CBUS1*%
X120754897Y-89820369D03*
X104199981Y-87833521D03*
%TO.N,CBUS2*%
X105470622Y-90308995D03*
X95812660Y-90512660D03*
%TD*%
D33*
%TO.N,Net-(J1-PadA4)*%
X102150000Y-93790002D02*
X102150000Y-93135000D01*
X97589999Y-94030001D02*
X101910001Y-94030001D01*
X101910001Y-94030001D02*
X102150000Y-93790002D01*
X97350000Y-93790002D02*
X97589999Y-94030001D01*
X97350000Y-93135000D02*
X97350000Y-93790002D01*
X97274999Y-92239999D02*
X97350000Y-92315000D01*
X95431997Y-92304999D02*
X95924999Y-92304999D01*
X95924999Y-92304999D02*
X95989999Y-92239999D01*
X97350000Y-92315000D02*
X97350000Y-93135000D01*
X95989999Y-92239999D02*
X97274999Y-92239999D01*
X95074999Y-91948001D02*
X95431997Y-92304999D01*
X106134499Y-93394499D02*
X108740000Y-96000000D01*
X102150000Y-93135000D02*
X102150000Y-92559233D01*
X102469232Y-92240000D02*
X103407887Y-92240000D01*
X105705501Y-93394499D02*
X106134499Y-93394499D01*
X103407887Y-92240000D02*
X103567886Y-92399999D01*
X103567886Y-92399999D02*
X104711001Y-92399999D01*
X102150000Y-92559233D02*
X102469232Y-92240000D01*
X104711001Y-92399999D02*
X105705501Y-93394499D01*
X95074999Y-90125001D02*
X95174999Y-90125001D01*
X95074999Y-90125001D02*
X95074999Y-91948001D01*
X95530000Y-89770000D02*
X95530000Y-85430000D01*
X95174999Y-90125001D02*
X95530000Y-89770000D01*
X97530000Y-83430000D02*
X95530000Y-85430000D01*
%TO.N,Net-(J1-PadA7)*%
X99000000Y-91960061D02*
X99000000Y-93135000D01*
X98573635Y-91533696D02*
X99000000Y-91960061D01*
X100000000Y-93135000D02*
X100000000Y-92118065D01*
X100603076Y-91430072D02*
X100603076Y-91514989D01*
X100000000Y-92118065D02*
X100603076Y-91514989D01*
X100050000Y-90876996D02*
X100603076Y-91430072D01*
X100050000Y-90250000D02*
X100050000Y-90876996D01*
%TO.N,Net-(J1-PadA6)*%
X99400000Y-91299991D02*
X99596302Y-91496293D01*
X99500000Y-93135000D02*
X99500000Y-91592595D01*
X99500000Y-91592595D02*
X99596302Y-91496293D01*
X99400000Y-90250000D02*
X99400000Y-91299991D01*
X100500000Y-92315000D02*
X100500000Y-93135000D01*
X100575001Y-92239999D02*
X100500000Y-92315000D01*
X100996411Y-92239999D02*
X100575001Y-92239999D01*
X101968205Y-91268205D02*
X102831795Y-91268205D01*
X101968205Y-91268205D02*
X100996411Y-92239999D01*
X102831795Y-91268205D02*
X103300000Y-90800000D01*
%TO.N,Net-(J1-PadA5)*%
X97384819Y-91540326D02*
X95800009Y-91540326D01*
X98410001Y-92239999D02*
X98084492Y-92239999D01*
X98500000Y-92329998D02*
X98410001Y-92239999D01*
X98500000Y-93135000D02*
X98500000Y-92329998D01*
X98084492Y-92239999D02*
X97384819Y-91540326D01*
%TO.N,Net-(J1-PadB5)*%
X101500000Y-93135000D02*
X101500000Y-92372821D01*
X101500000Y-92372821D02*
X102154605Y-91718216D01*
X102154605Y-91718216D02*
X103934914Y-91718216D01*
X103934914Y-91718216D02*
X103978141Y-91674989D01*
%TO.N,Net-(U1-Pad16)*%
X109285000Y-73285000D02*
X109762660Y-73762660D01*
X106750000Y-73285000D02*
X109285000Y-73285000D01*
X98750000Y-85450616D02*
X98300592Y-85001208D01*
X98750000Y-86150000D02*
X98750000Y-85450616D01*
%TO.N,Net-(U1-Pad15)*%
X120900176Y-75825000D02*
X120650155Y-75574979D01*
X123750000Y-75825000D02*
X120900176Y-75825000D01*
X99400000Y-86150000D02*
X99400000Y-85200000D01*
X99782999Y-84817001D02*
X101817001Y-84817001D01*
X99400000Y-85200000D02*
X99782999Y-84817001D01*
X101937910Y-84937910D02*
X103498095Y-84937910D01*
X101817001Y-84817001D02*
X101937910Y-84937910D01*
%TO.N,Net-(U1-Pad2)*%
X121419845Y-74555000D02*
X121339855Y-74475010D01*
X123750000Y-74555000D02*
X121419845Y-74555000D01*
X97775000Y-87875000D02*
X96380385Y-87875000D01*
X96380385Y-87875000D02*
X96308437Y-87803052D01*
%TO.N,GND*%
X100700000Y-87500000D02*
X99725000Y-88475000D01*
X100700000Y-86525000D02*
X100700000Y-87500000D01*
X98950000Y-97250000D02*
X95425000Y-93725000D01*
X99750000Y-97250000D02*
X98950000Y-97250000D01*
X96080000Y-97250000D02*
X95425000Y-97905000D01*
X99750000Y-97250000D02*
X96080000Y-97250000D01*
X100550000Y-97250000D02*
X104075000Y-93725000D01*
X99750000Y-97250000D02*
X100550000Y-97250000D01*
X99750000Y-97250000D02*
X103250000Y-97250000D01*
X103905000Y-97905000D02*
X104075000Y-97905000D01*
X103250000Y-97250000D02*
X103905000Y-97905000D01*
X99750000Y-97095000D02*
X102640000Y-94205000D01*
X99750000Y-97095000D02*
X96860000Y-94205000D01*
X99750000Y-97250000D02*
X99750000Y-97095000D01*
X103485000Y-93135000D02*
X104075000Y-93725000D01*
X102950000Y-93135000D02*
X103485000Y-93135000D01*
X96015000Y-93135000D02*
X95425000Y-93725000D01*
X96550000Y-93135000D02*
X96015000Y-93135000D01*
X92905000Y-97905000D02*
X92500000Y-97500000D01*
X95425000Y-97905000D02*
X92905000Y-97905000D01*
X95425000Y-93725000D02*
X95425000Y-92925000D01*
X130535533Y-70500000D02*
X123750000Y-70500000D01*
X132000000Y-69035533D02*
X130535533Y-70500000D01*
X132000000Y-65500000D02*
X132000000Y-69035533D01*
X98750000Y-89175000D02*
X99725000Y-88200000D01*
X97775000Y-89175000D02*
X98750000Y-89175000D01*
X99400000Y-88525000D02*
X99725000Y-88200000D01*
X97775000Y-88525000D02*
X99400000Y-88525000D01*
%TO.N,+3V3*%
X95580000Y-70800000D02*
X96600000Y-70800000D01*
X92500000Y-73880000D02*
X95580000Y-70800000D01*
X105385000Y-72015000D02*
X105000000Y-72400000D01*
X106750000Y-72015000D02*
X105385000Y-72015000D01*
X97675000Y-87225000D02*
X96925000Y-87225000D01*
X96500000Y-86800000D02*
X96925000Y-87225000D01*
X96300000Y-86800000D02*
X96500000Y-86800000D01*
X103728759Y-89175000D02*
X104077727Y-88826032D01*
X101675000Y-88525000D02*
X103776695Y-88525000D01*
X103776695Y-88525000D02*
X104077727Y-88826032D01*
X101775000Y-89175000D02*
X103728759Y-89175000D01*
X104924983Y-84542902D02*
X104924983Y-88544461D01*
X104643412Y-88826032D02*
X104077727Y-88826032D01*
X102610000Y-83430000D02*
X103812081Y-83430000D01*
X104924983Y-88544461D02*
X104643412Y-88826032D01*
X103812081Y-83430000D02*
X104924983Y-84542902D01*
X102610000Y-81990000D02*
X102610000Y-83430000D01*
X103700000Y-73500000D02*
X103700000Y-80900000D01*
X103700000Y-80900000D02*
X102610000Y-81990000D01*
X102400000Y-72200000D02*
X103700000Y-73500000D01*
X98800998Y-72200000D02*
X102400000Y-72200000D01*
X97400998Y-70800000D02*
X98800998Y-72200000D01*
X96600000Y-70800000D02*
X97400998Y-70800000D01*
X104745612Y-89493917D02*
X104745612Y-91033886D01*
X104077727Y-88826032D02*
X104745612Y-89493917D01*
X101425000Y-89175000D02*
X101775000Y-89175000D01*
X100700000Y-89900000D02*
X101425000Y-89175000D01*
X100700000Y-90250000D02*
X100700000Y-89900000D01*
%TO.N,OLED-RST*%
X121729108Y-78619108D02*
X119992581Y-78619108D01*
X122745000Y-79635000D02*
X121729108Y-78619108D01*
X119003892Y-79607797D02*
X119003892Y-81521428D01*
X123750000Y-79635000D02*
X122745000Y-79635000D01*
X119992581Y-78619108D02*
X119003892Y-79607797D01*
%TO.N,OLED-DC*%
X123750000Y-77095000D02*
X120705000Y-77095000D01*
X120300000Y-77500000D02*
X120705000Y-77095000D01*
%TO.N,OLED-CS0*%
X123750000Y-82175000D02*
X121582908Y-82175000D01*
X121582908Y-82175000D02*
X120461390Y-81053482D01*
%TO.N,OLED-SCLK*%
X122225000Y-79975000D02*
X121523315Y-79273315D01*
X122500000Y-80905000D02*
X122225000Y-80630000D01*
X120411378Y-79273315D02*
X120011379Y-79673314D01*
X123750000Y-80905000D02*
X122500000Y-80905000D01*
X121523315Y-79273315D02*
X120411378Y-79273315D01*
X122225000Y-80630000D02*
X122225000Y-79975000D01*
%TO.N,OLED-MOSI*%
X118681382Y-79018618D02*
X117457863Y-79018618D01*
X119500000Y-78200000D02*
X118681382Y-79018618D01*
X119900000Y-76800000D02*
X119500000Y-77200000D01*
X122485000Y-72015000D02*
X122270000Y-72230000D01*
X121750000Y-73750000D02*
X120650000Y-73750000D01*
X122270000Y-73230000D02*
X121750000Y-73750000D01*
X119500000Y-77200000D02*
X119500000Y-78200000D01*
X122270000Y-72230000D02*
X122270000Y-73230000D01*
X119900000Y-74500000D02*
X119900000Y-76800000D01*
X120650000Y-73750000D02*
X119900000Y-74500000D01*
X123750000Y-72015000D02*
X122485000Y-72015000D01*
%TO.N,CO2-SDA*%
X105500000Y-82175000D02*
X104850009Y-81525009D01*
X106750000Y-82175000D02*
X105500000Y-82175000D01*
X104850009Y-81525009D02*
X104850009Y-73377187D01*
X104850009Y-73377187D02*
X104220000Y-72747178D01*
X104220000Y-72747178D02*
X104220000Y-70800000D01*
%TO.N,CO2-SCL*%
X105500000Y-83445000D02*
X104319999Y-82264999D01*
X104319999Y-82264999D02*
X104319999Y-73483589D01*
X106750000Y-83445000D02*
X105500000Y-83445000D01*
X104319999Y-73483589D02*
X101680000Y-70843590D01*
X101680000Y-70843590D02*
X101680000Y-70800000D01*
%TO.N,IO7*%
X126875045Y-92824955D02*
X126550000Y-93150000D01*
X125000000Y-73285000D02*
X125200000Y-73485000D01*
X123750000Y-73285000D02*
X125000000Y-73285000D01*
X125200000Y-84763587D02*
X125525012Y-85088599D01*
X125525012Y-85088599D02*
X125525012Y-88774988D01*
X125200000Y-73485000D02*
X125200000Y-84763587D01*
X125525012Y-88774988D02*
X124700000Y-89600000D01*
X124700000Y-89600000D02*
X123900000Y-89600000D01*
X123900000Y-89600000D02*
X123100000Y-90400000D01*
X123100000Y-90400000D02*
X123100000Y-91200000D01*
X123100000Y-91200000D02*
X123400000Y-91500000D01*
X124900000Y-91500000D02*
X126550000Y-93150000D01*
X123400000Y-91500000D02*
X124900000Y-91500000D01*
%TO.N,IO6*%
X106195624Y-90792541D02*
X105920625Y-91067540D01*
X105500000Y-84715000D02*
X105424999Y-84790001D01*
X106195624Y-89960993D02*
X106195624Y-90792541D01*
X105920625Y-91067540D02*
X105920625Y-92242401D01*
X105424999Y-84790001D02*
X105424999Y-89190368D01*
X106750000Y-84715000D02*
X105500000Y-84715000D01*
X107486764Y-91647410D02*
X107486764Y-90922384D01*
X105920625Y-92242401D02*
X106058197Y-92379973D01*
X106058197Y-92379973D02*
X106754201Y-92379973D01*
X106754201Y-92379973D02*
X107486764Y-91647410D01*
X105424999Y-89190368D02*
X106195624Y-89960993D01*
%TO.N,IO5*%
X110805000Y-90445000D02*
X110500000Y-90750000D01*
X110805000Y-88255000D02*
X110805000Y-90445000D01*
%TO.N,IO4*%
X119050000Y-93150000D02*
X119813284Y-93150000D01*
X106750000Y-91358855D02*
X106645627Y-91463228D01*
X106750000Y-87255000D02*
X106750000Y-91358855D01*
%TO.N,IO3*%
X121740001Y-89850033D02*
X121479899Y-90110135D01*
X110374990Y-93711705D02*
X111063295Y-94400010D01*
X121740001Y-84204999D02*
X121740001Y-89850033D01*
X112506631Y-90456654D02*
X110374990Y-92588295D01*
X123750000Y-83445000D02*
X122500000Y-83445000D01*
X122500000Y-83445000D02*
X121740001Y-84204999D01*
X121479899Y-90110135D02*
X121479899Y-90168371D01*
X121479899Y-90168371D02*
X121102899Y-90545371D01*
X121102899Y-90545371D02*
X120406895Y-90545371D01*
X115299990Y-94400010D02*
X116550000Y-93150000D01*
X111063295Y-94400010D02*
X115299990Y-94400010D01*
X110374990Y-92588295D02*
X110374990Y-93711705D01*
X120318178Y-90456654D02*
X112506631Y-90456654D01*
X120406895Y-90545371D02*
X120318178Y-90456654D01*
%TO.N,IO2*%
X122379921Y-90541171D02*
X122379921Y-90482935D01*
X114050000Y-93150000D02*
X115300010Y-91899990D01*
X122379921Y-90482935D02*
X124809388Y-88053468D01*
X125075001Y-88053468D02*
X125075001Y-85274998D01*
X124809388Y-88053468D02*
X125075001Y-88053468D01*
X115300010Y-91899990D02*
X121021102Y-91899990D01*
X125075001Y-85274998D02*
X124270003Y-84470000D01*
X121021102Y-91899990D02*
X122379921Y-90541171D01*
X124270003Y-84470000D02*
X123750000Y-84470000D01*
%TO.N,IO1*%
X122190012Y-90036433D02*
X121929910Y-90296535D01*
X122500000Y-85985000D02*
X122190012Y-86294988D01*
X113250021Y-91449979D02*
X111550000Y-93150000D01*
X121929910Y-90354771D02*
X120834702Y-91449979D01*
X123750000Y-85985000D02*
X122500000Y-85985000D01*
X120834702Y-91449979D02*
X113250021Y-91449979D01*
X121929910Y-90296535D02*
X121929910Y-90354771D01*
X122190012Y-86294988D02*
X122190012Y-90036433D01*
%TO.N,CBUS3*%
X108095000Y-84769673D02*
X108350004Y-85024677D01*
X108095000Y-81000000D02*
X108095000Y-84769673D01*
X108000000Y-80905000D02*
X108095000Y-81000000D01*
X106750000Y-80905000D02*
X108000000Y-80905000D01*
X102574999Y-85474999D02*
X103083429Y-85983429D01*
X100075001Y-85324999D02*
X101688589Y-85324999D01*
X103083429Y-85983429D02*
X103618183Y-85983429D01*
X100050000Y-85350000D02*
X100075001Y-85324999D01*
X101838589Y-85474999D02*
X102574999Y-85474999D01*
X101688589Y-85324999D02*
X101838589Y-85474999D01*
X100050000Y-86150000D02*
X100050000Y-85350000D01*
%TO.N,CBUS0*%
X123750000Y-87255000D02*
X123660014Y-87255000D01*
X123660014Y-87255000D02*
X122915014Y-88000000D01*
X103432783Y-87225000D02*
X103676016Y-86981767D01*
X101675000Y-87225000D02*
X103432783Y-87225000D01*
%TO.N,CBUS1*%
X120965000Y-88010000D02*
X120965000Y-89035000D01*
X120965000Y-88255000D02*
X120965000Y-89035000D01*
X120965000Y-88255000D02*
X120965000Y-89610266D01*
X120965000Y-89610266D02*
X120754897Y-89820369D01*
X104158502Y-87875000D02*
X104199981Y-87833521D01*
X101675000Y-87875000D02*
X104158502Y-87875000D01*
%TO.N,CBUS2*%
X105470622Y-92523209D02*
X105470622Y-90308995D01*
X109100000Y-84701671D02*
X109100000Y-85300000D01*
X108211820Y-91899990D02*
X107186797Y-92925013D01*
X109100000Y-85300000D02*
X108211820Y-86188180D01*
X108000000Y-79635000D02*
X108582500Y-80217500D01*
X107186797Y-92925013D02*
X105872426Y-92925013D01*
X108582500Y-84184171D02*
X109100000Y-84701671D01*
X105872426Y-92925013D02*
X105470622Y-92523209D01*
X108211820Y-86188180D02*
X108211820Y-91899990D01*
X108582500Y-80217500D02*
X108582500Y-84184171D01*
X106750000Y-79635000D02*
X108000000Y-79635000D01*
X98750000Y-90250000D02*
X98750000Y-90808695D01*
X98225635Y-90808695D02*
X98117165Y-90917165D01*
X98750000Y-90808695D02*
X98225635Y-90808695D01*
X98117165Y-90917165D02*
X98225634Y-90808695D01*
X98117165Y-90917165D02*
X98034329Y-91000000D01*
X96300000Y-91000000D02*
X95812660Y-90512660D01*
X98034329Y-91000000D02*
X96300000Y-91000000D01*
%TD*%
D34*
%TO.N,GND*%
X130252627Y-68121118D02*
X130797557Y-68411649D01*
X131388696Y-68590287D01*
X132003328Y-68650168D01*
X132617831Y-68588990D01*
X133208592Y-68409103D01*
X133747373Y-68121118D01*
X133840000Y-67980931D01*
X133840000Y-77015000D01*
X130410000Y-77015000D01*
X130410000Y-90585000D01*
X133840001Y-90585000D01*
X133840001Y-95019070D01*
X133747373Y-94878882D01*
X133202443Y-94588351D01*
X132611304Y-94409713D01*
X131996672Y-94349832D01*
X131382169Y-94411010D01*
X130791408Y-94590897D01*
X130252627Y-94878882D01*
X129976457Y-95296852D01*
X132000000Y-97320395D01*
X132014143Y-97306253D01*
X132193748Y-97485858D01*
X132179605Y-97500000D01*
X132193748Y-97514143D01*
X132014143Y-97693748D01*
X132000000Y-97679605D01*
X131985858Y-97693748D01*
X131806253Y-97514143D01*
X131820395Y-97500000D01*
X129796852Y-95476457D01*
X129378882Y-95752627D01*
X129088351Y-96297557D01*
X128909713Y-96888696D01*
X128849832Y-97503328D01*
X128911010Y-98117831D01*
X129090897Y-98708592D01*
X129378882Y-99247373D01*
X129519069Y-99340000D01*
X104557254Y-99340000D01*
X104557216Y-99309601D01*
X104708747Y-99255919D01*
X104846157Y-99182472D01*
X104923792Y-98933397D01*
X104556287Y-98565892D01*
X104555838Y-98206233D01*
X105103397Y-98753792D01*
X105352472Y-98676157D01*
X105478371Y-98412117D01*
X105550339Y-98128589D01*
X105565611Y-97836469D01*
X105536608Y-97636624D01*
X105914250Y-97635000D01*
X106073000Y-97476250D01*
X106073000Y-96127000D01*
X104723750Y-96127000D01*
X104565000Y-96285750D01*
X104564091Y-96497054D01*
X104555586Y-96494895D01*
X104557094Y-95288269D01*
X104563159Y-95286174D01*
X104565000Y-95714250D01*
X104723750Y-95873000D01*
X106073000Y-95873000D01*
X106073000Y-95853000D01*
X106327000Y-95853000D01*
X106327000Y-95873000D01*
X106347000Y-95873000D01*
X106347000Y-96127000D01*
X106327000Y-96127000D01*
X106327000Y-97476250D01*
X106485750Y-97635000D01*
X107200000Y-97638072D01*
X107324482Y-97625812D01*
X107444180Y-97589502D01*
X107554494Y-97530537D01*
X107651185Y-97451185D01*
X107730537Y-97354494D01*
X107755191Y-97308370D01*
X107965537Y-97448918D01*
X108263088Y-97572168D01*
X108578967Y-97635000D01*
X108901033Y-97635000D01*
X109216912Y-97572168D01*
X109514463Y-97448918D01*
X109782252Y-97269987D01*
X110009987Y-97042252D01*
X110188918Y-96774463D01*
X110312168Y-96476912D01*
X110375000Y-96161033D01*
X110375000Y-95838967D01*
X110312168Y-95523088D01*
X110188918Y-95225537D01*
X110009987Y-94957748D01*
X109782252Y-94730013D01*
X109755722Y-94712286D01*
X109900000Y-94713072D01*
X110024482Y-94700812D01*
X110144180Y-94664502D01*
X110215085Y-94626602D01*
X110499496Y-94911012D01*
X110523294Y-94940011D01*
X110639019Y-95034984D01*
X110771048Y-95105556D01*
X110914309Y-95149013D01*
X111025962Y-95160010D01*
X111025971Y-95160010D01*
X111063294Y-95163686D01*
X111100617Y-95160010D01*
X115262668Y-95160010D01*
X115299990Y-95163686D01*
X115337312Y-95160010D01*
X115337323Y-95160010D01*
X115448976Y-95149013D01*
X115592237Y-95105556D01*
X115724266Y-95034984D01*
X115839991Y-94940011D01*
X115863794Y-94911007D01*
X116126460Y-94648341D01*
X116258890Y-94688513D01*
X116550000Y-94717185D01*
X116841111Y-94688513D01*
X117121034Y-94603599D01*
X117379014Y-94465706D01*
X117605134Y-94280134D01*
X117790706Y-94054013D01*
X117800000Y-94036626D01*
X117809294Y-94054014D01*
X117994866Y-94280134D01*
X118220987Y-94465706D01*
X118478967Y-94603599D01*
X118758890Y-94688513D01*
X119050000Y-94717185D01*
X119341111Y-94688513D01*
X119621034Y-94603599D01*
X119879014Y-94465706D01*
X120105134Y-94280134D01*
X120290706Y-94054013D01*
X120300000Y-94036626D01*
X120309294Y-94054014D01*
X120494866Y-94280134D01*
X120720987Y-94465706D01*
X120978967Y-94603599D01*
X121258890Y-94688513D01*
X121550000Y-94717185D01*
X121841111Y-94688513D01*
X122121034Y-94603599D01*
X122379014Y-94465706D01*
X122605134Y-94280134D01*
X122790706Y-94054013D01*
X122800000Y-94036626D01*
X122809294Y-94054014D01*
X122994866Y-94280134D01*
X123220987Y-94465706D01*
X123478967Y-94603599D01*
X123758890Y-94688513D01*
X124050000Y-94717185D01*
X124341111Y-94688513D01*
X124621034Y-94603599D01*
X124879014Y-94465706D01*
X125105134Y-94280134D01*
X125290706Y-94054013D01*
X125300000Y-94036626D01*
X125309294Y-94054014D01*
X125494866Y-94280134D01*
X125720987Y-94465706D01*
X125978967Y-94603599D01*
X126258890Y-94688513D01*
X126550000Y-94717185D01*
X126841111Y-94688513D01*
X127121034Y-94603599D01*
X127379014Y-94465706D01*
X127605134Y-94280134D01*
X127790706Y-94054013D01*
X127928599Y-93796033D01*
X128013513Y-93516110D01*
X128035000Y-93297949D01*
X128035000Y-93002050D01*
X128013513Y-92783889D01*
X127928599Y-92503966D01*
X127790706Y-92245986D01*
X127605134Y-92019866D01*
X127379013Y-91834294D01*
X127121033Y-91696401D01*
X126841110Y-91611487D01*
X126550000Y-91582815D01*
X126258889Y-91611487D01*
X126126461Y-91651659D01*
X125463803Y-90989002D01*
X125440001Y-90959999D01*
X125324276Y-90865026D01*
X125192247Y-90794454D01*
X125048986Y-90750997D01*
X124937333Y-90740000D01*
X124937322Y-90740000D01*
X124900000Y-90736324D01*
X124862678Y-90740000D01*
X123860000Y-90740000D01*
X123860000Y-90714801D01*
X124214802Y-90360000D01*
X124662678Y-90360000D01*
X124700000Y-90363676D01*
X124737322Y-90360000D01*
X124737333Y-90360000D01*
X124848986Y-90349003D01*
X124992247Y-90305546D01*
X125124276Y-90234974D01*
X125240001Y-90140001D01*
X125263803Y-90110998D01*
X126036014Y-89338787D01*
X126065013Y-89314989D01*
X126159986Y-89199264D01*
X126230558Y-89067235D01*
X126274015Y-88923974D01*
X126285012Y-88812321D01*
X126285012Y-88812312D01*
X126288688Y-88774989D01*
X126285012Y-88737666D01*
X126285012Y-85125921D01*
X126288688Y-85088598D01*
X126285012Y-85051275D01*
X126285012Y-85051266D01*
X126274015Y-84939613D01*
X126230558Y-84796352D01*
X126159986Y-84664323D01*
X126065013Y-84548598D01*
X126036015Y-84524800D01*
X125960000Y-84448785D01*
X125960000Y-73522325D01*
X125963676Y-73485000D01*
X125960000Y-73447675D01*
X125960000Y-73447667D01*
X125949003Y-73336014D01*
X125905546Y-73192753D01*
X125834974Y-73060724D01*
X125740001Y-72944999D01*
X125710998Y-72921197D01*
X125684501Y-72894700D01*
X126911444Y-72894700D01*
X126917417Y-72955343D01*
X126921493Y-73016117D01*
X126924502Y-73027277D01*
X126925635Y-73038785D01*
X126943327Y-73097108D01*
X126959179Y-73155909D01*
X126964306Y-73166265D01*
X126967663Y-73177333D01*
X126996393Y-73231082D01*
X127023412Y-73285663D01*
X127030462Y-73294822D01*
X127035913Y-73305020D01*
X127074573Y-73352128D01*
X127111725Y-73400392D01*
X127120426Y-73407999D01*
X127127762Y-73416938D01*
X127174868Y-73455597D01*
X127193410Y-73471808D01*
X127202752Y-73478481D01*
X127239680Y-73508787D01*
X127261535Y-73520469D01*
X129262842Y-74949974D01*
X129298681Y-74979387D01*
X129319891Y-74990724D01*
X131369819Y-76454959D01*
X131463868Y-76509067D01*
X131601037Y-76555397D01*
X131744610Y-76574076D01*
X131889067Y-76564387D01*
X132028859Y-76526702D01*
X132158613Y-76462468D01*
X132273342Y-76374155D01*
X132368637Y-76265157D01*
X132440837Y-76139662D01*
X132487167Y-76002492D01*
X132505846Y-75858919D01*
X132496157Y-75714462D01*
X132458472Y-75574670D01*
X132394238Y-75444916D01*
X132305925Y-75330187D01*
X132224240Y-75258771D01*
X131964897Y-75073526D01*
X132015566Y-75058156D01*
X132535499Y-74842792D01*
X132570214Y-74832261D01*
X132609424Y-74811303D01*
X132697898Y-74764012D01*
X132697900Y-74764011D01*
X132737323Y-74731657D01*
X132809817Y-74672164D01*
X132901666Y-74560245D01*
X132969915Y-74432558D01*
X132980446Y-74397842D01*
X133168176Y-73944621D01*
X133185276Y-73912629D01*
X133195807Y-73877913D01*
X133195809Y-73877908D01*
X133227305Y-73774077D01*
X133237450Y-73671073D01*
X133241496Y-73629996D01*
X133240420Y-73619065D01*
X133235905Y-73573228D01*
X133227305Y-73485911D01*
X133226601Y-73483588D01*
X133206382Y-73416937D01*
X133195809Y-73382080D01*
X133195807Y-73382075D01*
X133185276Y-73347359D01*
X133168175Y-73315366D01*
X132980446Y-72862146D01*
X132969915Y-72827430D01*
X132901666Y-72699743D01*
X132809817Y-72587824D01*
X132734485Y-72526002D01*
X132697900Y-72495977D01*
X132668956Y-72480506D01*
X132602208Y-72444828D01*
X132602206Y-72444827D01*
X132570214Y-72427727D01*
X132535499Y-72417196D01*
X132082282Y-72229467D01*
X132050283Y-72212363D01*
X131911735Y-72170335D01*
X131803755Y-72159700D01*
X131803752Y-72159700D01*
X131767650Y-72156144D01*
X131731545Y-72159700D01*
X131695727Y-72159700D01*
X132273394Y-71664558D01*
X132348457Y-71586211D01*
X132426299Y-71464135D01*
X132478830Y-71329218D01*
X132504030Y-71186646D01*
X132500932Y-71041897D01*
X132469653Y-70900533D01*
X132411398Y-70767988D01*
X132328403Y-70649355D01*
X132223859Y-70549193D01*
X132101783Y-70471351D01*
X131966866Y-70418820D01*
X131824294Y-70393620D01*
X131679545Y-70396718D01*
X131538181Y-70427997D01*
X131405637Y-70486252D01*
X131316731Y-70548450D01*
X129708821Y-71926658D01*
X128100919Y-70548451D01*
X128012014Y-70486253D01*
X127879469Y-70427997D01*
X127738105Y-70396718D01*
X127593357Y-70393620D01*
X127450785Y-70418819D01*
X127315868Y-70471350D01*
X127193792Y-70549192D01*
X127089248Y-70649354D01*
X127006253Y-70767986D01*
X126947997Y-70900531D01*
X126916718Y-71041895D01*
X126913620Y-71186643D01*
X126938819Y-71329215D01*
X126991350Y-71464132D01*
X127069192Y-71586208D01*
X127144255Y-71664555D01*
X127721922Y-72159700D01*
X127697605Y-72159700D01*
X127673039Y-72156504D01*
X127625389Y-72159700D01*
X127613895Y-72159700D01*
X127589357Y-72162117D01*
X127528583Y-72166193D01*
X127517423Y-72169202D01*
X127505915Y-72170335D01*
X127447592Y-72188027D01*
X127388791Y-72203879D01*
X127378435Y-72209006D01*
X127367367Y-72212363D01*
X127313618Y-72241093D01*
X127259037Y-72268112D01*
X127249878Y-72275162D01*
X127239680Y-72280613D01*
X127192572Y-72319273D01*
X127144308Y-72356425D01*
X127136701Y-72365126D01*
X127127762Y-72372462D01*
X127089100Y-72419572D01*
X127049013Y-72465423D01*
X127043250Y-72475439D01*
X127035913Y-72484380D01*
X127007179Y-72538138D01*
X126976813Y-72590919D01*
X126973116Y-72601866D01*
X126967663Y-72612067D01*
X126949971Y-72670391D01*
X126930483Y-72728088D01*
X126928992Y-72739549D01*
X126925635Y-72750615D01*
X126919661Y-72811266D01*
X126911804Y-72871661D01*
X126912577Y-72883192D01*
X126911444Y-72894700D01*
X125684501Y-72894700D01*
X125563804Y-72774003D01*
X125540001Y-72744999D01*
X125424276Y-72650026D01*
X125366770Y-72619288D01*
X125375812Y-72589482D01*
X125388072Y-72465000D01*
X125388072Y-71565000D01*
X125375812Y-71440518D01*
X125357454Y-71380000D01*
X125375812Y-71319482D01*
X125388072Y-71195000D01*
X125385000Y-71030750D01*
X125226250Y-70872000D01*
X123877000Y-70872000D01*
X123877000Y-70892000D01*
X123623000Y-70892000D01*
X123623000Y-70872000D01*
X122273750Y-70872000D01*
X122115000Y-71030750D01*
X122111928Y-71195000D01*
X122124188Y-71319482D01*
X122131137Y-71342389D01*
X122060724Y-71380026D01*
X121944999Y-71474999D01*
X121921196Y-71504003D01*
X121759003Y-71666196D01*
X121729999Y-71689999D01*
X121688779Y-71740226D01*
X121635026Y-71805724D01*
X121579426Y-71909744D01*
X121564454Y-71937754D01*
X121520997Y-72081015D01*
X121510000Y-72192668D01*
X121510000Y-72192678D01*
X121506324Y-72230000D01*
X121510000Y-72267323D01*
X121510001Y-72915198D01*
X121435199Y-72990000D01*
X120687322Y-72990000D01*
X120649999Y-72986324D01*
X120612676Y-72990000D01*
X120612667Y-72990000D01*
X120501014Y-73000997D01*
X120357753Y-73044454D01*
X120225724Y-73115026D01*
X120109999Y-73209999D01*
X120086201Y-73238998D01*
X119389002Y-73936197D01*
X119359999Y-73959999D01*
X119317192Y-74012160D01*
X119265026Y-74075724D01*
X119212348Y-74174277D01*
X119194454Y-74207754D01*
X119150997Y-74351015D01*
X119140000Y-74462668D01*
X119140000Y-74462678D01*
X119136324Y-74500000D01*
X119140000Y-74537323D01*
X119140001Y-76485198D01*
X118989002Y-76636197D01*
X118959999Y-76659999D01*
X118905682Y-76726185D01*
X118865026Y-76775724D01*
X118852050Y-76800001D01*
X118794454Y-76907754D01*
X118750997Y-77051015D01*
X118740000Y-77162668D01*
X118740000Y-77162678D01*
X118736324Y-77200000D01*
X118740000Y-77237323D01*
X118740001Y-77885198D01*
X118366581Y-78258618D01*
X118161574Y-78258618D01*
X118117637Y-78214681D01*
X117948119Y-78101413D01*
X117759761Y-78023392D01*
X117559802Y-77983618D01*
X117360632Y-77983618D01*
X117385000Y-77959250D01*
X117388072Y-75745000D01*
X117375812Y-75620518D01*
X117339502Y-75500820D01*
X117280537Y-75390506D01*
X117201185Y-75293815D01*
X117104494Y-75214463D01*
X116994180Y-75155498D01*
X116874482Y-75119188D01*
X116750000Y-75106928D01*
X114535750Y-75110000D01*
X114377000Y-75268750D01*
X114377000Y-78118000D01*
X114397000Y-78118000D01*
X114397000Y-78372000D01*
X114377000Y-78372000D01*
X114377000Y-81221250D01*
X114535750Y-81380000D01*
X116750000Y-81383072D01*
X116874482Y-81370812D01*
X116994180Y-81334502D01*
X117104494Y-81275537D01*
X117201185Y-81196185D01*
X117280537Y-81099494D01*
X117339502Y-80989180D01*
X117375812Y-80869482D01*
X117388072Y-80745000D01*
X117387113Y-80053618D01*
X117559802Y-80053618D01*
X117759761Y-80013844D01*
X117948119Y-79935823D01*
X118117637Y-79822555D01*
X118161574Y-79778618D01*
X118243892Y-79778618D01*
X118243893Y-80817716D01*
X118199955Y-80861654D01*
X118086687Y-81031172D01*
X118008666Y-81219530D01*
X117968892Y-81419489D01*
X117968892Y-81623367D01*
X118008666Y-81823326D01*
X118086687Y-82011684D01*
X118199955Y-82181202D01*
X118344118Y-82325365D01*
X118513636Y-82438633D01*
X118701994Y-82516654D01*
X118901953Y-82556428D01*
X119105831Y-82556428D01*
X119305790Y-82516654D01*
X119494148Y-82438633D01*
X119663666Y-82325365D01*
X119807829Y-82181202D01*
X119921097Y-82011684D01*
X119945244Y-81953388D01*
X119971134Y-81970687D01*
X120159492Y-82048708D01*
X120359451Y-82088482D01*
X120421589Y-82088482D01*
X121019109Y-82686003D01*
X121042907Y-82715001D01*
X121071905Y-82738799D01*
X121158631Y-82809974D01*
X121263824Y-82866201D01*
X121290661Y-82880546D01*
X121433922Y-82924003D01*
X121545575Y-82935000D01*
X121545585Y-82935000D01*
X121582908Y-82938676D01*
X121620231Y-82935000D01*
X121935198Y-82935000D01*
X121229003Y-83641196D01*
X121200000Y-83664998D01*
X121144872Y-83732173D01*
X121105027Y-83780723D01*
X121060964Y-83863158D01*
X121034455Y-83912753D01*
X120990998Y-84056014D01*
X120980001Y-84167667D01*
X120980001Y-84167677D01*
X120976325Y-84204999D01*
X120980001Y-84242322D01*
X120980001Y-86616928D01*
X120515000Y-86616928D01*
X120390518Y-86629188D01*
X120330000Y-86647546D01*
X120269482Y-86629188D01*
X120145000Y-86616928D01*
X119245000Y-86616928D01*
X119120518Y-86629188D01*
X119060000Y-86647546D01*
X118999482Y-86629188D01*
X118875000Y-86616928D01*
X117975000Y-86616928D01*
X117850518Y-86629188D01*
X117790000Y-86647546D01*
X117729482Y-86629188D01*
X117605000Y-86616928D01*
X116705000Y-86616928D01*
X116580518Y-86629188D01*
X116520000Y-86647546D01*
X116459482Y-86629188D01*
X116335000Y-86616928D01*
X115435000Y-86616928D01*
X115310518Y-86629188D01*
X115250000Y-86647546D01*
X115189482Y-86629188D01*
X115065000Y-86616928D01*
X114165000Y-86616928D01*
X114040518Y-86629188D01*
X113980000Y-86647546D01*
X113919482Y-86629188D01*
X113795000Y-86616928D01*
X112895000Y-86616928D01*
X112770518Y-86629188D01*
X112710000Y-86647546D01*
X112649482Y-86629188D01*
X112525000Y-86616928D01*
X111625000Y-86616928D01*
X111500518Y-86629188D01*
X111440000Y-86647546D01*
X111379482Y-86629188D01*
X111255000Y-86616928D01*
X110355000Y-86616928D01*
X110230518Y-86629188D01*
X110170000Y-86647546D01*
X110109482Y-86629188D01*
X109985000Y-86616928D01*
X109820750Y-86620000D01*
X109662000Y-86778750D01*
X109662000Y-88128000D01*
X109682000Y-88128000D01*
X109682000Y-88382000D01*
X109662000Y-88382000D01*
X109662000Y-89731250D01*
X109820750Y-89890000D01*
X109921315Y-89891881D01*
X109840226Y-89946063D01*
X109696063Y-90090226D01*
X109582795Y-90259744D01*
X109504774Y-90448102D01*
X109465000Y-90648061D01*
X109465000Y-90851939D01*
X109504774Y-91051898D01*
X109582795Y-91240256D01*
X109696063Y-91409774D01*
X109840226Y-91553937D01*
X109889685Y-91586984D01*
X109335750Y-91590000D01*
X109177000Y-91748750D01*
X109177000Y-93023000D01*
X109197000Y-93023000D01*
X109197000Y-93277000D01*
X109177000Y-93277000D01*
X109177000Y-93297000D01*
X108923000Y-93297000D01*
X108923000Y-93277000D01*
X108903000Y-93277000D01*
X108903000Y-93023000D01*
X108923000Y-93023000D01*
X108923000Y-92173664D01*
X108960823Y-92048976D01*
X108971820Y-91937323D01*
X108971820Y-91937314D01*
X108975496Y-91899991D01*
X108971820Y-91862668D01*
X108971820Y-89881925D01*
X109085000Y-89893072D01*
X109249250Y-89890000D01*
X109408000Y-89731250D01*
X109408000Y-88382000D01*
X109388000Y-88382000D01*
X109388000Y-88128000D01*
X109408000Y-88128000D01*
X109408000Y-86778750D01*
X109249250Y-86620000D01*
X109085000Y-86616928D01*
X108971820Y-86628075D01*
X108971820Y-86502981D01*
X109611003Y-85863799D01*
X109640001Y-85840001D01*
X109734974Y-85724276D01*
X109805546Y-85592247D01*
X109849003Y-85448986D01*
X109860000Y-85337333D01*
X109860000Y-85337324D01*
X109863676Y-85300001D01*
X109860000Y-85262678D01*
X109860000Y-84739004D01*
X109863677Y-84701671D01*
X109849003Y-84552685D01*
X109805546Y-84409424D01*
X109734974Y-84277395D01*
X109663799Y-84190668D01*
X109640001Y-84161670D01*
X109611003Y-84137873D01*
X109342500Y-83869370D01*
X109342500Y-80745000D01*
X111111928Y-80745000D01*
X111124188Y-80869482D01*
X111160498Y-80989180D01*
X111219463Y-81099494D01*
X111298815Y-81196185D01*
X111395506Y-81275537D01*
X111505820Y-81334502D01*
X111625518Y-81370812D01*
X111750000Y-81383072D01*
X113964250Y-81380000D01*
X114123000Y-81221250D01*
X114123000Y-78372000D01*
X111273750Y-78372000D01*
X111115000Y-78530750D01*
X111111928Y-80745000D01*
X109342500Y-80745000D01*
X109342500Y-80254822D01*
X109346176Y-80217499D01*
X109342500Y-80180176D01*
X109342500Y-80180167D01*
X109331503Y-80068514D01*
X109288046Y-79925253D01*
X109217474Y-79793224D01*
X109187567Y-79756782D01*
X109146299Y-79706496D01*
X109146295Y-79706492D01*
X109122501Y-79677499D01*
X109093509Y-79653706D01*
X108563803Y-79124002D01*
X108540001Y-79094999D01*
X108424276Y-79000026D01*
X108366770Y-78969288D01*
X108375812Y-78939482D01*
X108388072Y-78815000D01*
X108388072Y-77915000D01*
X108375812Y-77790518D01*
X108357454Y-77730000D01*
X108375812Y-77669482D01*
X108388072Y-77545000D01*
X108388072Y-76645000D01*
X108375812Y-76520518D01*
X108357454Y-76460000D01*
X108375812Y-76399482D01*
X108388072Y-76275000D01*
X108388072Y-75745000D01*
X111111928Y-75745000D01*
X111115000Y-77959250D01*
X111273750Y-78118000D01*
X114123000Y-78118000D01*
X114123000Y-75268750D01*
X113964250Y-75110000D01*
X111750000Y-75106928D01*
X111625518Y-75119188D01*
X111505820Y-75155498D01*
X111395506Y-75214463D01*
X111298815Y-75293815D01*
X111219463Y-75390506D01*
X111160498Y-75500820D01*
X111124188Y-75620518D01*
X111111928Y-75745000D01*
X108388072Y-75745000D01*
X108388072Y-75375000D01*
X108375812Y-75250518D01*
X108357454Y-75190000D01*
X108375812Y-75129482D01*
X108388072Y-75005000D01*
X108388072Y-74105000D01*
X108382163Y-74045000D01*
X108763544Y-74045000D01*
X108767434Y-74064558D01*
X108845455Y-74252916D01*
X108958723Y-74422434D01*
X109102886Y-74566597D01*
X109272404Y-74679865D01*
X109460762Y-74757886D01*
X109660721Y-74797660D01*
X109864599Y-74797660D01*
X110064558Y-74757886D01*
X110252916Y-74679865D01*
X110422434Y-74566597D01*
X110566597Y-74422434D01*
X110679865Y-74252916D01*
X110757886Y-74064558D01*
X110797660Y-73864599D01*
X110797660Y-73660721D01*
X110757886Y-73460762D01*
X110679865Y-73272404D01*
X110566597Y-73102886D01*
X110422434Y-72958723D01*
X110252916Y-72845455D01*
X110064558Y-72767434D01*
X109864599Y-72727660D01*
X109803873Y-72727660D01*
X109709276Y-72650026D01*
X109577247Y-72579454D01*
X109433986Y-72535997D01*
X109322333Y-72525000D01*
X109322322Y-72525000D01*
X109285000Y-72521324D01*
X109247678Y-72525000D01*
X108382163Y-72525000D01*
X108388072Y-72465000D01*
X108388072Y-71565000D01*
X108375812Y-71440518D01*
X108357454Y-71380000D01*
X108375812Y-71319482D01*
X108388072Y-71195000D01*
X108385000Y-71030750D01*
X108226250Y-70872000D01*
X106877000Y-70872000D01*
X106877000Y-70892000D01*
X106623000Y-70892000D01*
X106623000Y-70872000D01*
X106603000Y-70872000D01*
X106603000Y-70618000D01*
X106623000Y-70618000D01*
X106623000Y-70598000D01*
X106877000Y-70598000D01*
X106877000Y-70618000D01*
X108226250Y-70618000D01*
X108385000Y-70459250D01*
X108388072Y-70295000D01*
X108375812Y-70170518D01*
X108339502Y-70050820D01*
X108280537Y-69940506D01*
X108201185Y-69843815D01*
X108104494Y-69764463D01*
X108096144Y-69760000D01*
X122403856Y-69760000D01*
X122395506Y-69764463D01*
X122298815Y-69843815D01*
X122219463Y-69940506D01*
X122160498Y-70050820D01*
X122124188Y-70170518D01*
X122111928Y-70295000D01*
X122115000Y-70459250D01*
X122273750Y-70618000D01*
X123623000Y-70618000D01*
X123623000Y-70598000D01*
X123877000Y-70598000D01*
X123877000Y-70618000D01*
X125226250Y-70618000D01*
X125385000Y-70459250D01*
X125388072Y-70295000D01*
X125375812Y-70170518D01*
X125339502Y-70050820D01*
X125280537Y-69940506D01*
X125201185Y-69843815D01*
X125104494Y-69764463D01*
X125096144Y-69760000D01*
X129217581Y-69760000D01*
X129250000Y-69763193D01*
X129282419Y-69760000D01*
X129379383Y-69750450D01*
X129503793Y-69712710D01*
X129618450Y-69651425D01*
X129718948Y-69568948D01*
X129801425Y-69468450D01*
X129862710Y-69353793D01*
X129900450Y-69229383D01*
X129913193Y-69100000D01*
X129910000Y-69067581D01*
X129910000Y-67769608D01*
X129976458Y-67703150D01*
X130252627Y-68121118D01*
%TA.AperFunction,Conductor*%
D35*
G36*
X130252627Y-68121118D02*
G01*
X130797557Y-68411649D01*
X131388696Y-68590287D01*
X132003328Y-68650168D01*
X132617831Y-68588990D01*
X133208592Y-68409103D01*
X133747373Y-68121118D01*
X133840000Y-67980931D01*
X133840000Y-77015000D01*
X130410000Y-77015000D01*
X130410000Y-90585000D01*
X133840001Y-90585000D01*
X133840001Y-95019070D01*
X133747373Y-94878882D01*
X133202443Y-94588351D01*
X132611304Y-94409713D01*
X131996672Y-94349832D01*
X131382169Y-94411010D01*
X130791408Y-94590897D01*
X130252627Y-94878882D01*
X129976457Y-95296852D01*
X132000000Y-97320395D01*
X132014143Y-97306253D01*
X132193748Y-97485858D01*
X132179605Y-97500000D01*
X132193748Y-97514143D01*
X132014143Y-97693748D01*
X132000000Y-97679605D01*
X131985858Y-97693748D01*
X131806253Y-97514143D01*
X131820395Y-97500000D01*
X129796852Y-95476457D01*
X129378882Y-95752627D01*
X129088351Y-96297557D01*
X128909713Y-96888696D01*
X128849832Y-97503328D01*
X128911010Y-98117831D01*
X129090897Y-98708592D01*
X129378882Y-99247373D01*
X129519069Y-99340000D01*
X104557254Y-99340000D01*
X104557216Y-99309601D01*
X104708747Y-99255919D01*
X104846157Y-99182472D01*
X104923792Y-98933397D01*
X104556287Y-98565892D01*
X104555838Y-98206233D01*
X105103397Y-98753792D01*
X105352472Y-98676157D01*
X105478371Y-98412117D01*
X105550339Y-98128589D01*
X105565611Y-97836469D01*
X105536608Y-97636624D01*
X105914250Y-97635000D01*
X106073000Y-97476250D01*
X106073000Y-96127000D01*
X104723750Y-96127000D01*
X104565000Y-96285750D01*
X104564091Y-96497054D01*
X104555586Y-96494895D01*
X104557094Y-95288269D01*
X104563159Y-95286174D01*
X104565000Y-95714250D01*
X104723750Y-95873000D01*
X106073000Y-95873000D01*
X106073000Y-95853000D01*
X106327000Y-95853000D01*
X106327000Y-95873000D01*
X106347000Y-95873000D01*
X106347000Y-96127000D01*
X106327000Y-96127000D01*
X106327000Y-97476250D01*
X106485750Y-97635000D01*
X107200000Y-97638072D01*
X107324482Y-97625812D01*
X107444180Y-97589502D01*
X107554494Y-97530537D01*
X107651185Y-97451185D01*
X107730537Y-97354494D01*
X107755191Y-97308370D01*
X107965537Y-97448918D01*
X108263088Y-97572168D01*
X108578967Y-97635000D01*
X108901033Y-97635000D01*
X109216912Y-97572168D01*
X109514463Y-97448918D01*
X109782252Y-97269987D01*
X110009987Y-97042252D01*
X110188918Y-96774463D01*
X110312168Y-96476912D01*
X110375000Y-96161033D01*
X110375000Y-95838967D01*
X110312168Y-95523088D01*
X110188918Y-95225537D01*
X110009987Y-94957748D01*
X109782252Y-94730013D01*
X109755722Y-94712286D01*
X109900000Y-94713072D01*
X110024482Y-94700812D01*
X110144180Y-94664502D01*
X110215085Y-94626602D01*
X110499496Y-94911012D01*
X110523294Y-94940011D01*
X110639019Y-95034984D01*
X110771048Y-95105556D01*
X110914309Y-95149013D01*
X111025962Y-95160010D01*
X111025971Y-95160010D01*
X111063294Y-95163686D01*
X111100617Y-95160010D01*
X115262668Y-95160010D01*
X115299990Y-95163686D01*
X115337312Y-95160010D01*
X115337323Y-95160010D01*
X115448976Y-95149013D01*
X115592237Y-95105556D01*
X115724266Y-95034984D01*
X115839991Y-94940011D01*
X115863794Y-94911007D01*
X116126460Y-94648341D01*
X116258890Y-94688513D01*
X116550000Y-94717185D01*
X116841111Y-94688513D01*
X117121034Y-94603599D01*
X117379014Y-94465706D01*
X117605134Y-94280134D01*
X117790706Y-94054013D01*
X117800000Y-94036626D01*
X117809294Y-94054014D01*
X117994866Y-94280134D01*
X118220987Y-94465706D01*
X118478967Y-94603599D01*
X118758890Y-94688513D01*
X119050000Y-94717185D01*
X119341111Y-94688513D01*
X119621034Y-94603599D01*
X119879014Y-94465706D01*
X120105134Y-94280134D01*
X120290706Y-94054013D01*
X120300000Y-94036626D01*
X120309294Y-94054014D01*
X120494866Y-94280134D01*
X120720987Y-94465706D01*
X120978967Y-94603599D01*
X121258890Y-94688513D01*
X121550000Y-94717185D01*
X121841111Y-94688513D01*
X122121034Y-94603599D01*
X122379014Y-94465706D01*
X122605134Y-94280134D01*
X122790706Y-94054013D01*
X122800000Y-94036626D01*
X122809294Y-94054014D01*
X122994866Y-94280134D01*
X123220987Y-94465706D01*
X123478967Y-94603599D01*
X123758890Y-94688513D01*
X124050000Y-94717185D01*
X124341111Y-94688513D01*
X124621034Y-94603599D01*
X124879014Y-94465706D01*
X125105134Y-94280134D01*
X125290706Y-94054013D01*
X125300000Y-94036626D01*
X125309294Y-94054014D01*
X125494866Y-94280134D01*
X125720987Y-94465706D01*
X125978967Y-94603599D01*
X126258890Y-94688513D01*
X126550000Y-94717185D01*
X126841111Y-94688513D01*
X127121034Y-94603599D01*
X127379014Y-94465706D01*
X127605134Y-94280134D01*
X127790706Y-94054013D01*
X127928599Y-93796033D01*
X128013513Y-93516110D01*
X128035000Y-93297949D01*
X128035000Y-93002050D01*
X128013513Y-92783889D01*
X127928599Y-92503966D01*
X127790706Y-92245986D01*
X127605134Y-92019866D01*
X127379013Y-91834294D01*
X127121033Y-91696401D01*
X126841110Y-91611487D01*
X126550000Y-91582815D01*
X126258889Y-91611487D01*
X126126461Y-91651659D01*
X125463803Y-90989002D01*
X125440001Y-90959999D01*
X125324276Y-90865026D01*
X125192247Y-90794454D01*
X125048986Y-90750997D01*
X124937333Y-90740000D01*
X124937322Y-90740000D01*
X124900000Y-90736324D01*
X124862678Y-90740000D01*
X123860000Y-90740000D01*
X123860000Y-90714801D01*
X124214802Y-90360000D01*
X124662678Y-90360000D01*
X124700000Y-90363676D01*
X124737322Y-90360000D01*
X124737333Y-90360000D01*
X124848986Y-90349003D01*
X124992247Y-90305546D01*
X125124276Y-90234974D01*
X125240001Y-90140001D01*
X125263803Y-90110998D01*
X126036014Y-89338787D01*
X126065013Y-89314989D01*
X126159986Y-89199264D01*
X126230558Y-89067235D01*
X126274015Y-88923974D01*
X126285012Y-88812321D01*
X126285012Y-88812312D01*
X126288688Y-88774989D01*
X126285012Y-88737666D01*
X126285012Y-85125921D01*
X126288688Y-85088598D01*
X126285012Y-85051275D01*
X126285012Y-85051266D01*
X126274015Y-84939613D01*
X126230558Y-84796352D01*
X126159986Y-84664323D01*
X126065013Y-84548598D01*
X126036015Y-84524800D01*
X125960000Y-84448785D01*
X125960000Y-73522325D01*
X125963676Y-73485000D01*
X125960000Y-73447675D01*
X125960000Y-73447667D01*
X125949003Y-73336014D01*
X125905546Y-73192753D01*
X125834974Y-73060724D01*
X125740001Y-72944999D01*
X125710998Y-72921197D01*
X125684501Y-72894700D01*
X126911444Y-72894700D01*
X126917417Y-72955343D01*
X126921493Y-73016117D01*
X126924502Y-73027277D01*
X126925635Y-73038785D01*
X126943327Y-73097108D01*
X126959179Y-73155909D01*
X126964306Y-73166265D01*
X126967663Y-73177333D01*
X126996393Y-73231082D01*
X127023412Y-73285663D01*
X127030462Y-73294822D01*
X127035913Y-73305020D01*
X127074573Y-73352128D01*
X127111725Y-73400392D01*
X127120426Y-73407999D01*
X127127762Y-73416938D01*
X127174868Y-73455597D01*
X127193410Y-73471808D01*
X127202752Y-73478481D01*
X127239680Y-73508787D01*
X127261535Y-73520469D01*
X129262842Y-74949974D01*
X129298681Y-74979387D01*
X129319891Y-74990724D01*
X131369819Y-76454959D01*
X131463868Y-76509067D01*
X131601037Y-76555397D01*
X131744610Y-76574076D01*
X131889067Y-76564387D01*
X132028859Y-76526702D01*
X132158613Y-76462468D01*
X132273342Y-76374155D01*
X132368637Y-76265157D01*
X132440837Y-76139662D01*
X132487167Y-76002492D01*
X132505846Y-75858919D01*
X132496157Y-75714462D01*
X132458472Y-75574670D01*
X132394238Y-75444916D01*
X132305925Y-75330187D01*
X132224240Y-75258771D01*
X131964897Y-75073526D01*
X132015566Y-75058156D01*
X132535499Y-74842792D01*
X132570214Y-74832261D01*
X132609424Y-74811303D01*
X132697898Y-74764012D01*
X132697900Y-74764011D01*
X132737323Y-74731657D01*
X132809817Y-74672164D01*
X132901666Y-74560245D01*
X132969915Y-74432558D01*
X132980446Y-74397842D01*
X133168176Y-73944621D01*
X133185276Y-73912629D01*
X133195807Y-73877913D01*
X133195809Y-73877908D01*
X133227305Y-73774077D01*
X133237450Y-73671073D01*
X133241496Y-73629996D01*
X133240420Y-73619065D01*
X133235905Y-73573228D01*
X133227305Y-73485911D01*
X133226601Y-73483588D01*
X133206382Y-73416937D01*
X133195809Y-73382080D01*
X133195807Y-73382075D01*
X133185276Y-73347359D01*
X133168175Y-73315366D01*
X132980446Y-72862146D01*
X132969915Y-72827430D01*
X132901666Y-72699743D01*
X132809817Y-72587824D01*
X132734485Y-72526002D01*
X132697900Y-72495977D01*
X132668956Y-72480506D01*
X132602208Y-72444828D01*
X132602206Y-72444827D01*
X132570214Y-72427727D01*
X132535499Y-72417196D01*
X132082282Y-72229467D01*
X132050283Y-72212363D01*
X131911735Y-72170335D01*
X131803755Y-72159700D01*
X131803752Y-72159700D01*
X131767650Y-72156144D01*
X131731545Y-72159700D01*
X131695727Y-72159700D01*
X132273394Y-71664558D01*
X132348457Y-71586211D01*
X132426299Y-71464135D01*
X132478830Y-71329218D01*
X132504030Y-71186646D01*
X132500932Y-71041897D01*
X132469653Y-70900533D01*
X132411398Y-70767988D01*
X132328403Y-70649355D01*
X132223859Y-70549193D01*
X132101783Y-70471351D01*
X131966866Y-70418820D01*
X131824294Y-70393620D01*
X131679545Y-70396718D01*
X131538181Y-70427997D01*
X131405637Y-70486252D01*
X131316731Y-70548450D01*
X129708821Y-71926658D01*
X128100919Y-70548451D01*
X128012014Y-70486253D01*
X127879469Y-70427997D01*
X127738105Y-70396718D01*
X127593357Y-70393620D01*
X127450785Y-70418819D01*
X127315868Y-70471350D01*
X127193792Y-70549192D01*
X127089248Y-70649354D01*
X127006253Y-70767986D01*
X126947997Y-70900531D01*
X126916718Y-71041895D01*
X126913620Y-71186643D01*
X126938819Y-71329215D01*
X126991350Y-71464132D01*
X127069192Y-71586208D01*
X127144255Y-71664555D01*
X127721922Y-72159700D01*
X127697605Y-72159700D01*
X127673039Y-72156504D01*
X127625389Y-72159700D01*
X127613895Y-72159700D01*
X127589357Y-72162117D01*
X127528583Y-72166193D01*
X127517423Y-72169202D01*
X127505915Y-72170335D01*
X127447592Y-72188027D01*
X127388791Y-72203879D01*
X127378435Y-72209006D01*
X127367367Y-72212363D01*
X127313618Y-72241093D01*
X127259037Y-72268112D01*
X127249878Y-72275162D01*
X127239680Y-72280613D01*
X127192572Y-72319273D01*
X127144308Y-72356425D01*
X127136701Y-72365126D01*
X127127762Y-72372462D01*
X127089100Y-72419572D01*
X127049013Y-72465423D01*
X127043250Y-72475439D01*
X127035913Y-72484380D01*
X127007179Y-72538138D01*
X126976813Y-72590919D01*
X126973116Y-72601866D01*
X126967663Y-72612067D01*
X126949971Y-72670391D01*
X126930483Y-72728088D01*
X126928992Y-72739549D01*
X126925635Y-72750615D01*
X126919661Y-72811266D01*
X126911804Y-72871661D01*
X126912577Y-72883192D01*
X126911444Y-72894700D01*
X125684501Y-72894700D01*
X125563804Y-72774003D01*
X125540001Y-72744999D01*
X125424276Y-72650026D01*
X125366770Y-72619288D01*
X125375812Y-72589482D01*
X125388072Y-72465000D01*
X125388072Y-71565000D01*
X125375812Y-71440518D01*
X125357454Y-71380000D01*
X125375812Y-71319482D01*
X125388072Y-71195000D01*
X125385000Y-71030750D01*
X125226250Y-70872000D01*
X123877000Y-70872000D01*
X123877000Y-70892000D01*
X123623000Y-70892000D01*
X123623000Y-70872000D01*
X122273750Y-70872000D01*
X122115000Y-71030750D01*
X122111928Y-71195000D01*
X122124188Y-71319482D01*
X122131137Y-71342389D01*
X122060724Y-71380026D01*
X121944999Y-71474999D01*
X121921196Y-71504003D01*
X121759003Y-71666196D01*
X121729999Y-71689999D01*
X121688779Y-71740226D01*
X121635026Y-71805724D01*
X121579426Y-71909744D01*
X121564454Y-71937754D01*
X121520997Y-72081015D01*
X121510000Y-72192668D01*
X121510000Y-72192678D01*
X121506324Y-72230000D01*
X121510000Y-72267323D01*
X121510001Y-72915198D01*
X121435199Y-72990000D01*
X120687322Y-72990000D01*
X120649999Y-72986324D01*
X120612676Y-72990000D01*
X120612667Y-72990000D01*
X120501014Y-73000997D01*
X120357753Y-73044454D01*
X120225724Y-73115026D01*
X120109999Y-73209999D01*
X120086201Y-73238998D01*
X119389002Y-73936197D01*
X119359999Y-73959999D01*
X119317192Y-74012160D01*
X119265026Y-74075724D01*
X119212348Y-74174277D01*
X119194454Y-74207754D01*
X119150997Y-74351015D01*
X119140000Y-74462668D01*
X119140000Y-74462678D01*
X119136324Y-74500000D01*
X119140000Y-74537323D01*
X119140001Y-76485198D01*
X118989002Y-76636197D01*
X118959999Y-76659999D01*
X118905682Y-76726185D01*
X118865026Y-76775724D01*
X118852050Y-76800001D01*
X118794454Y-76907754D01*
X118750997Y-77051015D01*
X118740000Y-77162668D01*
X118740000Y-77162678D01*
X118736324Y-77200000D01*
X118740000Y-77237323D01*
X118740001Y-77885198D01*
X118366581Y-78258618D01*
X118161574Y-78258618D01*
X118117637Y-78214681D01*
X117948119Y-78101413D01*
X117759761Y-78023392D01*
X117559802Y-77983618D01*
X117360632Y-77983618D01*
X117385000Y-77959250D01*
X117388072Y-75745000D01*
X117375812Y-75620518D01*
X117339502Y-75500820D01*
X117280537Y-75390506D01*
X117201185Y-75293815D01*
X117104494Y-75214463D01*
X116994180Y-75155498D01*
X116874482Y-75119188D01*
X116750000Y-75106928D01*
X114535750Y-75110000D01*
X114377000Y-75268750D01*
X114377000Y-78118000D01*
X114397000Y-78118000D01*
X114397000Y-78372000D01*
X114377000Y-78372000D01*
X114377000Y-81221250D01*
X114535750Y-81380000D01*
X116750000Y-81383072D01*
X116874482Y-81370812D01*
X116994180Y-81334502D01*
X117104494Y-81275537D01*
X117201185Y-81196185D01*
X117280537Y-81099494D01*
X117339502Y-80989180D01*
X117375812Y-80869482D01*
X117388072Y-80745000D01*
X117387113Y-80053618D01*
X117559802Y-80053618D01*
X117759761Y-80013844D01*
X117948119Y-79935823D01*
X118117637Y-79822555D01*
X118161574Y-79778618D01*
X118243892Y-79778618D01*
X118243893Y-80817716D01*
X118199955Y-80861654D01*
X118086687Y-81031172D01*
X118008666Y-81219530D01*
X117968892Y-81419489D01*
X117968892Y-81623367D01*
X118008666Y-81823326D01*
X118086687Y-82011684D01*
X118199955Y-82181202D01*
X118344118Y-82325365D01*
X118513636Y-82438633D01*
X118701994Y-82516654D01*
X118901953Y-82556428D01*
X119105831Y-82556428D01*
X119305790Y-82516654D01*
X119494148Y-82438633D01*
X119663666Y-82325365D01*
X119807829Y-82181202D01*
X119921097Y-82011684D01*
X119945244Y-81953388D01*
X119971134Y-81970687D01*
X120159492Y-82048708D01*
X120359451Y-82088482D01*
X120421589Y-82088482D01*
X121019109Y-82686003D01*
X121042907Y-82715001D01*
X121071905Y-82738799D01*
X121158631Y-82809974D01*
X121263824Y-82866201D01*
X121290661Y-82880546D01*
X121433922Y-82924003D01*
X121545575Y-82935000D01*
X121545585Y-82935000D01*
X121582908Y-82938676D01*
X121620231Y-82935000D01*
X121935198Y-82935000D01*
X121229003Y-83641196D01*
X121200000Y-83664998D01*
X121144872Y-83732173D01*
X121105027Y-83780723D01*
X121060964Y-83863158D01*
X121034455Y-83912753D01*
X120990998Y-84056014D01*
X120980001Y-84167667D01*
X120980001Y-84167677D01*
X120976325Y-84204999D01*
X120980001Y-84242322D01*
X120980001Y-86616928D01*
X120515000Y-86616928D01*
X120390518Y-86629188D01*
X120330000Y-86647546D01*
X120269482Y-86629188D01*
X120145000Y-86616928D01*
X119245000Y-86616928D01*
X119120518Y-86629188D01*
X119060000Y-86647546D01*
X118999482Y-86629188D01*
X118875000Y-86616928D01*
X117975000Y-86616928D01*
X117850518Y-86629188D01*
X117790000Y-86647546D01*
X117729482Y-86629188D01*
X117605000Y-86616928D01*
X116705000Y-86616928D01*
X116580518Y-86629188D01*
X116520000Y-86647546D01*
X116459482Y-86629188D01*
X116335000Y-86616928D01*
X115435000Y-86616928D01*
X115310518Y-86629188D01*
X115250000Y-86647546D01*
X115189482Y-86629188D01*
X115065000Y-86616928D01*
X114165000Y-86616928D01*
X114040518Y-86629188D01*
X113980000Y-86647546D01*
X113919482Y-86629188D01*
X113795000Y-86616928D01*
X112895000Y-86616928D01*
X112770518Y-86629188D01*
X112710000Y-86647546D01*
X112649482Y-86629188D01*
X112525000Y-86616928D01*
X111625000Y-86616928D01*
X111500518Y-86629188D01*
X111440000Y-86647546D01*
X111379482Y-86629188D01*
X111255000Y-86616928D01*
X110355000Y-86616928D01*
X110230518Y-86629188D01*
X110170000Y-86647546D01*
X110109482Y-86629188D01*
X109985000Y-86616928D01*
X109820750Y-86620000D01*
X109662000Y-86778750D01*
X109662000Y-88128000D01*
X109682000Y-88128000D01*
X109682000Y-88382000D01*
X109662000Y-88382000D01*
X109662000Y-89731250D01*
X109820750Y-89890000D01*
X109921315Y-89891881D01*
X109840226Y-89946063D01*
X109696063Y-90090226D01*
X109582795Y-90259744D01*
X109504774Y-90448102D01*
X109465000Y-90648061D01*
X109465000Y-90851939D01*
X109504774Y-91051898D01*
X109582795Y-91240256D01*
X109696063Y-91409774D01*
X109840226Y-91553937D01*
X109889685Y-91586984D01*
X109335750Y-91590000D01*
X109177000Y-91748750D01*
X109177000Y-93023000D01*
X109197000Y-93023000D01*
X109197000Y-93277000D01*
X109177000Y-93277000D01*
X109177000Y-93297000D01*
X108923000Y-93297000D01*
X108923000Y-93277000D01*
X108903000Y-93277000D01*
X108903000Y-93023000D01*
X108923000Y-93023000D01*
X108923000Y-92173664D01*
X108960823Y-92048976D01*
X108971820Y-91937323D01*
X108971820Y-91937314D01*
X108975496Y-91899991D01*
X108971820Y-91862668D01*
X108971820Y-89881925D01*
X109085000Y-89893072D01*
X109249250Y-89890000D01*
X109408000Y-89731250D01*
X109408000Y-88382000D01*
X109388000Y-88382000D01*
X109388000Y-88128000D01*
X109408000Y-88128000D01*
X109408000Y-86778750D01*
X109249250Y-86620000D01*
X109085000Y-86616928D01*
X108971820Y-86628075D01*
X108971820Y-86502981D01*
X109611003Y-85863799D01*
X109640001Y-85840001D01*
X109734974Y-85724276D01*
X109805546Y-85592247D01*
X109849003Y-85448986D01*
X109860000Y-85337333D01*
X109860000Y-85337324D01*
X109863676Y-85300001D01*
X109860000Y-85262678D01*
X109860000Y-84739004D01*
X109863677Y-84701671D01*
X109849003Y-84552685D01*
X109805546Y-84409424D01*
X109734974Y-84277395D01*
X109663799Y-84190668D01*
X109640001Y-84161670D01*
X109611003Y-84137873D01*
X109342500Y-83869370D01*
X109342500Y-80745000D01*
X111111928Y-80745000D01*
X111124188Y-80869482D01*
X111160498Y-80989180D01*
X111219463Y-81099494D01*
X111298815Y-81196185D01*
X111395506Y-81275537D01*
X111505820Y-81334502D01*
X111625518Y-81370812D01*
X111750000Y-81383072D01*
X113964250Y-81380000D01*
X114123000Y-81221250D01*
X114123000Y-78372000D01*
X111273750Y-78372000D01*
X111115000Y-78530750D01*
X111111928Y-80745000D01*
X109342500Y-80745000D01*
X109342500Y-80254822D01*
X109346176Y-80217499D01*
X109342500Y-80180176D01*
X109342500Y-80180167D01*
X109331503Y-80068514D01*
X109288046Y-79925253D01*
X109217474Y-79793224D01*
X109187567Y-79756782D01*
X109146299Y-79706496D01*
X109146295Y-79706492D01*
X109122501Y-79677499D01*
X109093509Y-79653706D01*
X108563803Y-79124002D01*
X108540001Y-79094999D01*
X108424276Y-79000026D01*
X108366770Y-78969288D01*
X108375812Y-78939482D01*
X108388072Y-78815000D01*
X108388072Y-77915000D01*
X108375812Y-77790518D01*
X108357454Y-77730000D01*
X108375812Y-77669482D01*
X108388072Y-77545000D01*
X108388072Y-76645000D01*
X108375812Y-76520518D01*
X108357454Y-76460000D01*
X108375812Y-76399482D01*
X108388072Y-76275000D01*
X108388072Y-75745000D01*
X111111928Y-75745000D01*
X111115000Y-77959250D01*
X111273750Y-78118000D01*
X114123000Y-78118000D01*
X114123000Y-75268750D01*
X113964250Y-75110000D01*
X111750000Y-75106928D01*
X111625518Y-75119188D01*
X111505820Y-75155498D01*
X111395506Y-75214463D01*
X111298815Y-75293815D01*
X111219463Y-75390506D01*
X111160498Y-75500820D01*
X111124188Y-75620518D01*
X111111928Y-75745000D01*
X108388072Y-75745000D01*
X108388072Y-75375000D01*
X108375812Y-75250518D01*
X108357454Y-75190000D01*
X108375812Y-75129482D01*
X108388072Y-75005000D01*
X108388072Y-74105000D01*
X108382163Y-74045000D01*
X108763544Y-74045000D01*
X108767434Y-74064558D01*
X108845455Y-74252916D01*
X108958723Y-74422434D01*
X109102886Y-74566597D01*
X109272404Y-74679865D01*
X109460762Y-74757886D01*
X109660721Y-74797660D01*
X109864599Y-74797660D01*
X110064558Y-74757886D01*
X110252916Y-74679865D01*
X110422434Y-74566597D01*
X110566597Y-74422434D01*
X110679865Y-74252916D01*
X110757886Y-74064558D01*
X110797660Y-73864599D01*
X110797660Y-73660721D01*
X110757886Y-73460762D01*
X110679865Y-73272404D01*
X110566597Y-73102886D01*
X110422434Y-72958723D01*
X110252916Y-72845455D01*
X110064558Y-72767434D01*
X109864599Y-72727660D01*
X109803873Y-72727660D01*
X109709276Y-72650026D01*
X109577247Y-72579454D01*
X109433986Y-72535997D01*
X109322333Y-72525000D01*
X109322322Y-72525000D01*
X109285000Y-72521324D01*
X109247678Y-72525000D01*
X108382163Y-72525000D01*
X108388072Y-72465000D01*
X108388072Y-71565000D01*
X108375812Y-71440518D01*
X108357454Y-71380000D01*
X108375812Y-71319482D01*
X108388072Y-71195000D01*
X108385000Y-71030750D01*
X108226250Y-70872000D01*
X106877000Y-70872000D01*
X106877000Y-70892000D01*
X106623000Y-70892000D01*
X106623000Y-70872000D01*
X106603000Y-70872000D01*
X106603000Y-70618000D01*
X106623000Y-70618000D01*
X106623000Y-70598000D01*
X106877000Y-70598000D01*
X106877000Y-70618000D01*
X108226250Y-70618000D01*
X108385000Y-70459250D01*
X108388072Y-70295000D01*
X108375812Y-70170518D01*
X108339502Y-70050820D01*
X108280537Y-69940506D01*
X108201185Y-69843815D01*
X108104494Y-69764463D01*
X108096144Y-69760000D01*
X122403856Y-69760000D01*
X122395506Y-69764463D01*
X122298815Y-69843815D01*
X122219463Y-69940506D01*
X122160498Y-70050820D01*
X122124188Y-70170518D01*
X122111928Y-70295000D01*
X122115000Y-70459250D01*
X122273750Y-70618000D01*
X123623000Y-70618000D01*
X123623000Y-70598000D01*
X123877000Y-70598000D01*
X123877000Y-70618000D01*
X125226250Y-70618000D01*
X125385000Y-70459250D01*
X125388072Y-70295000D01*
X125375812Y-70170518D01*
X125339502Y-70050820D01*
X125280537Y-69940506D01*
X125201185Y-69843815D01*
X125104494Y-69764463D01*
X125096144Y-69760000D01*
X129217581Y-69760000D01*
X129250000Y-69763193D01*
X129282419Y-69760000D01*
X129379383Y-69750450D01*
X129503793Y-69712710D01*
X129618450Y-69651425D01*
X129718948Y-69568948D01*
X129801425Y-69468450D01*
X129862710Y-69353793D01*
X129900450Y-69229383D01*
X129913193Y-69100000D01*
X129910000Y-69067581D01*
X129910000Y-67769608D01*
X129976458Y-67703150D01*
X130252627Y-68121118D01*
G37*
%TD.AperFunction*%
D34*
X100590001Y-69067571D02*
X100586807Y-69100000D01*
X100599550Y-69229383D01*
X100637290Y-69353793D01*
X100698575Y-69468450D01*
X100781052Y-69568948D01*
X100811757Y-69594147D01*
X100733368Y-69646525D01*
X100526525Y-69853368D01*
X100410689Y-70026729D01*
X100168397Y-69951208D01*
X99319605Y-70800000D01*
X99333748Y-70814143D01*
X99154143Y-70993748D01*
X99140000Y-70979605D01*
X99125858Y-70993748D01*
X98946253Y-70814143D01*
X98960395Y-70800000D01*
X98111603Y-69951208D01*
X97869311Y-70026729D01*
X97753475Y-69853368D01*
X97671710Y-69771603D01*
X98291208Y-69771603D01*
X99140000Y-70620395D01*
X99988792Y-69771603D01*
X99911157Y-69522528D01*
X99647117Y-69396629D01*
X99363589Y-69324661D01*
X99071469Y-69309389D01*
X98781981Y-69351401D01*
X98506253Y-69449081D01*
X98368843Y-69522528D01*
X98291208Y-69771603D01*
X97671710Y-69771603D01*
X97546632Y-69646525D01*
X97303411Y-69484010D01*
X97033158Y-69372068D01*
X96746260Y-69315000D01*
X96453740Y-69315000D01*
X96166842Y-69372068D01*
X95896589Y-69484010D01*
X95653368Y-69646525D01*
X95446525Y-69853368D01*
X95284150Y-70096380D01*
X95155724Y-70165026D01*
X95039999Y-70259999D01*
X95016201Y-70288997D01*
X92866408Y-72438791D01*
X92646260Y-72395000D01*
X92353740Y-72395000D01*
X92066842Y-72452068D01*
X91796589Y-72564010D01*
X91553368Y-72726525D01*
X91346525Y-72933368D01*
X91184010Y-73176589D01*
X91072068Y-73446842D01*
X91015000Y-73733740D01*
X91015000Y-74026260D01*
X91072068Y-74313158D01*
X91184010Y-74583411D01*
X91346525Y-74826632D01*
X91553368Y-75033475D01*
X91726729Y-75149311D01*
X91651208Y-75391603D01*
X92500000Y-76240395D01*
X93348792Y-75391603D01*
X93273271Y-75149311D01*
X93446632Y-75033475D01*
X93653475Y-74826632D01*
X93815990Y-74583411D01*
X93927932Y-74313158D01*
X93985000Y-74026260D01*
X93985000Y-73733740D01*
X93941209Y-73513592D01*
X95577347Y-71877454D01*
X95653368Y-71953475D01*
X95896589Y-72115990D01*
X96166842Y-72227932D01*
X96453740Y-72285000D01*
X96746260Y-72285000D01*
X97033158Y-72227932D01*
X97303411Y-72115990D01*
X97506492Y-71980296D01*
X98237198Y-72711002D01*
X98260997Y-72740001D01*
X98289995Y-72763799D01*
X98376721Y-72834974D01*
X98480146Y-72890256D01*
X98508751Y-72905546D01*
X98652012Y-72949003D01*
X98763665Y-72960000D01*
X98763675Y-72960000D01*
X98800998Y-72963676D01*
X98838320Y-72960000D01*
X102085199Y-72960000D01*
X102940000Y-73814802D01*
X102940001Y-80585197D01*
X102099002Y-81426196D01*
X102069999Y-81449999D01*
X102027879Y-81501323D01*
X101975026Y-81565724D01*
X101930512Y-81649003D01*
X101904454Y-81697754D01*
X101860997Y-81841015D01*
X101850000Y-81952668D01*
X101850000Y-81952678D01*
X101846324Y-81990000D01*
X101850000Y-82027323D01*
X101850000Y-82151821D01*
X101663368Y-82276525D01*
X101456525Y-82483368D01*
X101444861Y-82500824D01*
X101421502Y-82423820D01*
X101362537Y-82313506D01*
X101283185Y-82216815D01*
X101186494Y-82137463D01*
X101076180Y-82078498D01*
X100956482Y-82042188D01*
X100832000Y-82029928D01*
X100355750Y-82033000D01*
X100197000Y-82191750D01*
X100197000Y-83303000D01*
X100217000Y-83303000D01*
X100217000Y-83557000D01*
X100197000Y-83557000D01*
X100197000Y-83577000D01*
X99943000Y-83577000D01*
X99943000Y-83557000D01*
X99923000Y-83557000D01*
X99923000Y-83303000D01*
X99943000Y-83303000D01*
X99943000Y-82191750D01*
X99784250Y-82033000D01*
X99308000Y-82029928D01*
X99183518Y-82042188D01*
X99063820Y-82078498D01*
X98953506Y-82137463D01*
X98856815Y-82216815D01*
X98777463Y-82313506D01*
X98718498Y-82423820D01*
X98695139Y-82500824D01*
X98683475Y-82483368D01*
X98476632Y-82276525D01*
X98233411Y-82114010D01*
X97963158Y-82002068D01*
X97676260Y-81945000D01*
X97383740Y-81945000D01*
X97096842Y-82002068D01*
X96826589Y-82114010D01*
X96583368Y-82276525D01*
X96376525Y-82483368D01*
X96260000Y-82657760D01*
X96143475Y-82483368D01*
X95936632Y-82276525D01*
X95693411Y-82114010D01*
X95423158Y-82002068D01*
X95136260Y-81945000D01*
X94843740Y-81945000D01*
X94556842Y-82002068D01*
X94286589Y-82114010D01*
X94043368Y-82276525D01*
X93836525Y-82483368D01*
X93674010Y-82726589D01*
X93562068Y-82996842D01*
X93561219Y-83001112D01*
X93446632Y-82886525D01*
X93272240Y-82770000D01*
X93446632Y-82653475D01*
X93653475Y-82446632D01*
X93815990Y-82203411D01*
X93927932Y-81933158D01*
X93985000Y-81646260D01*
X93985000Y-81353740D01*
X93927932Y-81066842D01*
X93815990Y-80796589D01*
X93653475Y-80553368D01*
X93446632Y-80346525D01*
X93272240Y-80230000D01*
X93446632Y-80113475D01*
X93653475Y-79906632D01*
X93815990Y-79663411D01*
X93927932Y-79393158D01*
X93985000Y-79106260D01*
X93985000Y-78813740D01*
X93927932Y-78526842D01*
X93815990Y-78256589D01*
X93653475Y-78013368D01*
X93446632Y-77806525D01*
X93273271Y-77690689D01*
X93348792Y-77448397D01*
X92500000Y-76599605D01*
X91651208Y-77448397D01*
X91726729Y-77690689D01*
X91553368Y-77806525D01*
X91346525Y-78013368D01*
X91184010Y-78256589D01*
X91072068Y-78526842D01*
X91015000Y-78813740D01*
X91015000Y-79106260D01*
X91072068Y-79393158D01*
X91184010Y-79663411D01*
X91346525Y-79906632D01*
X91553368Y-80113475D01*
X91727760Y-80230000D01*
X91553368Y-80346525D01*
X91346525Y-80553368D01*
X91184010Y-80796589D01*
X91072068Y-81066842D01*
X91015000Y-81353740D01*
X91015000Y-81646260D01*
X91072068Y-81933158D01*
X91184010Y-82203411D01*
X91346525Y-82446632D01*
X91553368Y-82653475D01*
X91727760Y-82770000D01*
X91553368Y-82886525D01*
X91346525Y-83093368D01*
X91184010Y-83336589D01*
X91072068Y-83606842D01*
X91015000Y-83893740D01*
X91015000Y-84186260D01*
X91072068Y-84473158D01*
X91184010Y-84743411D01*
X91346525Y-84986632D01*
X91553368Y-85193475D01*
X91727760Y-85310000D01*
X91553368Y-85426525D01*
X91346525Y-85633368D01*
X91184010Y-85876589D01*
X91072068Y-86146842D01*
X91015000Y-86433740D01*
X91015000Y-86726260D01*
X91072068Y-87013158D01*
X91184010Y-87283411D01*
X91346525Y-87526632D01*
X91553368Y-87733475D01*
X91727760Y-87850000D01*
X91553368Y-87966525D01*
X91346525Y-88173368D01*
X91184010Y-88416589D01*
X91072068Y-88686842D01*
X91015000Y-88973740D01*
X91015000Y-89266260D01*
X91072068Y-89553158D01*
X91184010Y-89823411D01*
X91346525Y-90066632D01*
X91553368Y-90273475D01*
X91796589Y-90435990D01*
X92066842Y-90547932D01*
X92353740Y-90605000D01*
X92646260Y-90605000D01*
X92933158Y-90547932D01*
X93203411Y-90435990D01*
X93446632Y-90273475D01*
X93653475Y-90066632D01*
X93815990Y-89823411D01*
X93927932Y-89553158D01*
X93985000Y-89266260D01*
X93985000Y-88973740D01*
X93927932Y-88686842D01*
X93815990Y-88416589D01*
X93653475Y-88173368D01*
X93446632Y-87966525D01*
X93272240Y-87850000D01*
X93446632Y-87733475D01*
X93653475Y-87526632D01*
X93815990Y-87283411D01*
X93927932Y-87013158D01*
X93985000Y-86726260D01*
X93985000Y-86433740D01*
X93927932Y-86146842D01*
X93815990Y-85876589D01*
X93653475Y-85633368D01*
X93446632Y-85426525D01*
X93272240Y-85310000D01*
X93446632Y-85193475D01*
X93653475Y-84986632D01*
X93815990Y-84743411D01*
X93927932Y-84473158D01*
X93928781Y-84468888D01*
X94043368Y-84583475D01*
X94286589Y-84745990D01*
X94556842Y-84857932D01*
X94843740Y-84915000D01*
X94969482Y-84915000D01*
X94966202Y-84918997D01*
X94966201Y-84918998D01*
X94895026Y-85005724D01*
X94824454Y-85137754D01*
X94799104Y-85221324D01*
X94780998Y-85281014D01*
X94778480Y-85306578D01*
X94766324Y-85430000D01*
X94770001Y-85467332D01*
X94770000Y-89426271D01*
X94650723Y-89490027D01*
X94534998Y-89585000D01*
X94440025Y-89700725D01*
X94369453Y-89832754D01*
X94325996Y-89976015D01*
X94311322Y-90125001D01*
X94314999Y-90162334D01*
X94315000Y-91910669D01*
X94311323Y-91948001D01*
X94315000Y-91985334D01*
X94325997Y-92096987D01*
X94335113Y-92127039D01*
X94369453Y-92240247D01*
X94440025Y-92372277D01*
X94511200Y-92459003D01*
X94514869Y-92463474D01*
X94469192Y-92589587D01*
X95425000Y-93545395D01*
X95439143Y-93531253D01*
X95611938Y-93704048D01*
X95611928Y-93705000D01*
X95613065Y-93716540D01*
X95604605Y-93725000D01*
X95614913Y-93735308D01*
X95615601Y-93742289D01*
X95481235Y-93876655D01*
X95455518Y-93879188D01*
X95335820Y-93915498D01*
X95225506Y-93974463D01*
X95128815Y-94053815D01*
X95049463Y-94150506D01*
X94990498Y-94260820D01*
X94956409Y-94373196D01*
X94469192Y-94860413D01*
X94564956Y-95124814D01*
X94854571Y-95265704D01*
X94942907Y-95288864D01*
X94943340Y-95635162D01*
X94703148Y-95476457D01*
X92679605Y-97500000D01*
X92693748Y-97514143D01*
X92514143Y-97693748D01*
X92500000Y-97679605D01*
X92485858Y-97693748D01*
X92306253Y-97514143D01*
X92320395Y-97500000D01*
X92306253Y-97485858D01*
X92485858Y-97306253D01*
X92500000Y-97320395D01*
X94523543Y-95296852D01*
X94247373Y-94878882D01*
X93702443Y-94588351D01*
X93111304Y-94409713D01*
X92496672Y-94349832D01*
X91882169Y-94411010D01*
X91291408Y-94590897D01*
X90752627Y-94878882D01*
X90660000Y-95019069D01*
X90660000Y-93787595D01*
X93783282Y-93787595D01*
X93827039Y-94106675D01*
X93932205Y-94411088D01*
X94025186Y-94585044D01*
X94289587Y-94680808D01*
X95245395Y-93725000D01*
X94289587Y-92769192D01*
X94025186Y-92864956D01*
X93884296Y-93154571D01*
X93802616Y-93466108D01*
X93783282Y-93787595D01*
X90660000Y-93787595D01*
X90660000Y-76488531D01*
X91009389Y-76488531D01*
X91051401Y-76778019D01*
X91149081Y-77053747D01*
X91222528Y-77191157D01*
X91471603Y-77268792D01*
X92320395Y-76420000D01*
X92679605Y-76420000D01*
X93528397Y-77268792D01*
X93777472Y-77191157D01*
X93903371Y-76927117D01*
X93975339Y-76643589D01*
X93990611Y-76351469D01*
X93948599Y-76061981D01*
X93850919Y-75786253D01*
X93777472Y-75648843D01*
X93528397Y-75571208D01*
X92679605Y-76420000D01*
X92320395Y-76420000D01*
X91471603Y-75571208D01*
X91222528Y-75648843D01*
X91096629Y-75912883D01*
X91024661Y-76196411D01*
X91009389Y-76488531D01*
X90660000Y-76488531D01*
X90660000Y-67980931D01*
X90752627Y-68121118D01*
X91297557Y-68411649D01*
X91888696Y-68590287D01*
X92503328Y-68650168D01*
X93117831Y-68588990D01*
X93708592Y-68409103D01*
X94247373Y-68121118D01*
X94523543Y-67703148D01*
X92500000Y-65679605D01*
X92485858Y-65693748D01*
X92306253Y-65514143D01*
X92320395Y-65500000D01*
X92306253Y-65485858D01*
X92485858Y-65306253D01*
X92500000Y-65320395D01*
X92514143Y-65306253D01*
X92693748Y-65485858D01*
X92679605Y-65500000D01*
X94703148Y-67523543D01*
X95121118Y-67247373D01*
X95411649Y-66702443D01*
X95590287Y-66111304D01*
X95650168Y-65496672D01*
X95588990Y-64882169D01*
X95409103Y-64291408D01*
X95121118Y-63752627D01*
X94980931Y-63660000D01*
X100590000Y-63660000D01*
X100590001Y-69067571D01*
%TA.AperFunction,Conductor*%
D35*
G36*
X100590001Y-69067571D02*
G01*
X100586807Y-69100000D01*
X100599550Y-69229383D01*
X100637290Y-69353793D01*
X100698575Y-69468450D01*
X100781052Y-69568948D01*
X100811757Y-69594147D01*
X100733368Y-69646525D01*
X100526525Y-69853368D01*
X100410689Y-70026729D01*
X100168397Y-69951208D01*
X99319605Y-70800000D01*
X99333748Y-70814143D01*
X99154143Y-70993748D01*
X99140000Y-70979605D01*
X99125858Y-70993748D01*
X98946253Y-70814143D01*
X98960395Y-70800000D01*
X98111603Y-69951208D01*
X97869311Y-70026729D01*
X97753475Y-69853368D01*
X97671710Y-69771603D01*
X98291208Y-69771603D01*
X99140000Y-70620395D01*
X99988792Y-69771603D01*
X99911157Y-69522528D01*
X99647117Y-69396629D01*
X99363589Y-69324661D01*
X99071469Y-69309389D01*
X98781981Y-69351401D01*
X98506253Y-69449081D01*
X98368843Y-69522528D01*
X98291208Y-69771603D01*
X97671710Y-69771603D01*
X97546632Y-69646525D01*
X97303411Y-69484010D01*
X97033158Y-69372068D01*
X96746260Y-69315000D01*
X96453740Y-69315000D01*
X96166842Y-69372068D01*
X95896589Y-69484010D01*
X95653368Y-69646525D01*
X95446525Y-69853368D01*
X95284150Y-70096380D01*
X95155724Y-70165026D01*
X95039999Y-70259999D01*
X95016201Y-70288997D01*
X92866408Y-72438791D01*
X92646260Y-72395000D01*
X92353740Y-72395000D01*
X92066842Y-72452068D01*
X91796589Y-72564010D01*
X91553368Y-72726525D01*
X91346525Y-72933368D01*
X91184010Y-73176589D01*
X91072068Y-73446842D01*
X91015000Y-73733740D01*
X91015000Y-74026260D01*
X91072068Y-74313158D01*
X91184010Y-74583411D01*
X91346525Y-74826632D01*
X91553368Y-75033475D01*
X91726729Y-75149311D01*
X91651208Y-75391603D01*
X92500000Y-76240395D01*
X93348792Y-75391603D01*
X93273271Y-75149311D01*
X93446632Y-75033475D01*
X93653475Y-74826632D01*
X93815990Y-74583411D01*
X93927932Y-74313158D01*
X93985000Y-74026260D01*
X93985000Y-73733740D01*
X93941209Y-73513592D01*
X95577347Y-71877454D01*
X95653368Y-71953475D01*
X95896589Y-72115990D01*
X96166842Y-72227932D01*
X96453740Y-72285000D01*
X96746260Y-72285000D01*
X97033158Y-72227932D01*
X97303411Y-72115990D01*
X97506492Y-71980296D01*
X98237198Y-72711002D01*
X98260997Y-72740001D01*
X98289995Y-72763799D01*
X98376721Y-72834974D01*
X98480146Y-72890256D01*
X98508751Y-72905546D01*
X98652012Y-72949003D01*
X98763665Y-72960000D01*
X98763675Y-72960000D01*
X98800998Y-72963676D01*
X98838320Y-72960000D01*
X102085199Y-72960000D01*
X102940000Y-73814802D01*
X102940001Y-80585197D01*
X102099002Y-81426196D01*
X102069999Y-81449999D01*
X102027879Y-81501323D01*
X101975026Y-81565724D01*
X101930512Y-81649003D01*
X101904454Y-81697754D01*
X101860997Y-81841015D01*
X101850000Y-81952668D01*
X101850000Y-81952678D01*
X101846324Y-81990000D01*
X101850000Y-82027323D01*
X101850000Y-82151821D01*
X101663368Y-82276525D01*
X101456525Y-82483368D01*
X101444861Y-82500824D01*
X101421502Y-82423820D01*
X101362537Y-82313506D01*
X101283185Y-82216815D01*
X101186494Y-82137463D01*
X101076180Y-82078498D01*
X100956482Y-82042188D01*
X100832000Y-82029928D01*
X100355750Y-82033000D01*
X100197000Y-82191750D01*
X100197000Y-83303000D01*
X100217000Y-83303000D01*
X100217000Y-83557000D01*
X100197000Y-83557000D01*
X100197000Y-83577000D01*
X99943000Y-83577000D01*
X99943000Y-83557000D01*
X99923000Y-83557000D01*
X99923000Y-83303000D01*
X99943000Y-83303000D01*
X99943000Y-82191750D01*
X99784250Y-82033000D01*
X99308000Y-82029928D01*
X99183518Y-82042188D01*
X99063820Y-82078498D01*
X98953506Y-82137463D01*
X98856815Y-82216815D01*
X98777463Y-82313506D01*
X98718498Y-82423820D01*
X98695139Y-82500824D01*
X98683475Y-82483368D01*
X98476632Y-82276525D01*
X98233411Y-82114010D01*
X97963158Y-82002068D01*
X97676260Y-81945000D01*
X97383740Y-81945000D01*
X97096842Y-82002068D01*
X96826589Y-82114010D01*
X96583368Y-82276525D01*
X96376525Y-82483368D01*
X96260000Y-82657760D01*
X96143475Y-82483368D01*
X95936632Y-82276525D01*
X95693411Y-82114010D01*
X95423158Y-82002068D01*
X95136260Y-81945000D01*
X94843740Y-81945000D01*
X94556842Y-82002068D01*
X94286589Y-82114010D01*
X94043368Y-82276525D01*
X93836525Y-82483368D01*
X93674010Y-82726589D01*
X93562068Y-82996842D01*
X93561219Y-83001112D01*
X93446632Y-82886525D01*
X93272240Y-82770000D01*
X93446632Y-82653475D01*
X93653475Y-82446632D01*
X93815990Y-82203411D01*
X93927932Y-81933158D01*
X93985000Y-81646260D01*
X93985000Y-81353740D01*
X93927932Y-81066842D01*
X93815990Y-80796589D01*
X93653475Y-80553368D01*
X93446632Y-80346525D01*
X93272240Y-80230000D01*
X93446632Y-80113475D01*
X93653475Y-79906632D01*
X93815990Y-79663411D01*
X93927932Y-79393158D01*
X93985000Y-79106260D01*
X93985000Y-78813740D01*
X93927932Y-78526842D01*
X93815990Y-78256589D01*
X93653475Y-78013368D01*
X93446632Y-77806525D01*
X93273271Y-77690689D01*
X93348792Y-77448397D01*
X92500000Y-76599605D01*
X91651208Y-77448397D01*
X91726729Y-77690689D01*
X91553368Y-77806525D01*
X91346525Y-78013368D01*
X91184010Y-78256589D01*
X91072068Y-78526842D01*
X91015000Y-78813740D01*
X91015000Y-79106260D01*
X91072068Y-79393158D01*
X91184010Y-79663411D01*
X91346525Y-79906632D01*
X91553368Y-80113475D01*
X91727760Y-80230000D01*
X91553368Y-80346525D01*
X91346525Y-80553368D01*
X91184010Y-80796589D01*
X91072068Y-81066842D01*
X91015000Y-81353740D01*
X91015000Y-81646260D01*
X91072068Y-81933158D01*
X91184010Y-82203411D01*
X91346525Y-82446632D01*
X91553368Y-82653475D01*
X91727760Y-82770000D01*
X91553368Y-82886525D01*
X91346525Y-83093368D01*
X91184010Y-83336589D01*
X91072068Y-83606842D01*
X91015000Y-83893740D01*
X91015000Y-84186260D01*
X91072068Y-84473158D01*
X91184010Y-84743411D01*
X91346525Y-84986632D01*
X91553368Y-85193475D01*
X91727760Y-85310000D01*
X91553368Y-85426525D01*
X91346525Y-85633368D01*
X91184010Y-85876589D01*
X91072068Y-86146842D01*
X91015000Y-86433740D01*
X91015000Y-86726260D01*
X91072068Y-87013158D01*
X91184010Y-87283411D01*
X91346525Y-87526632D01*
X91553368Y-87733475D01*
X91727760Y-87850000D01*
X91553368Y-87966525D01*
X91346525Y-88173368D01*
X91184010Y-88416589D01*
X91072068Y-88686842D01*
X91015000Y-88973740D01*
X91015000Y-89266260D01*
X91072068Y-89553158D01*
X91184010Y-89823411D01*
X91346525Y-90066632D01*
X91553368Y-90273475D01*
X91796589Y-90435990D01*
X92066842Y-90547932D01*
X92353740Y-90605000D01*
X92646260Y-90605000D01*
X92933158Y-90547932D01*
X93203411Y-90435990D01*
X93446632Y-90273475D01*
X93653475Y-90066632D01*
X93815990Y-89823411D01*
X93927932Y-89553158D01*
X93985000Y-89266260D01*
X93985000Y-88973740D01*
X93927932Y-88686842D01*
X93815990Y-88416589D01*
X93653475Y-88173368D01*
X93446632Y-87966525D01*
X93272240Y-87850000D01*
X93446632Y-87733475D01*
X93653475Y-87526632D01*
X93815990Y-87283411D01*
X93927932Y-87013158D01*
X93985000Y-86726260D01*
X93985000Y-86433740D01*
X93927932Y-86146842D01*
X93815990Y-85876589D01*
X93653475Y-85633368D01*
X93446632Y-85426525D01*
X93272240Y-85310000D01*
X93446632Y-85193475D01*
X93653475Y-84986632D01*
X93815990Y-84743411D01*
X93927932Y-84473158D01*
X93928781Y-84468888D01*
X94043368Y-84583475D01*
X94286589Y-84745990D01*
X94556842Y-84857932D01*
X94843740Y-84915000D01*
X94969482Y-84915000D01*
X94966202Y-84918997D01*
X94966201Y-84918998D01*
X94895026Y-85005724D01*
X94824454Y-85137754D01*
X94799104Y-85221324D01*
X94780998Y-85281014D01*
X94778480Y-85306578D01*
X94766324Y-85430000D01*
X94770001Y-85467332D01*
X94770000Y-89426271D01*
X94650723Y-89490027D01*
X94534998Y-89585000D01*
X94440025Y-89700725D01*
X94369453Y-89832754D01*
X94325996Y-89976015D01*
X94311322Y-90125001D01*
X94314999Y-90162334D01*
X94315000Y-91910669D01*
X94311323Y-91948001D01*
X94315000Y-91985334D01*
X94325997Y-92096987D01*
X94335113Y-92127039D01*
X94369453Y-92240247D01*
X94440025Y-92372277D01*
X94511200Y-92459003D01*
X94514869Y-92463474D01*
X94469192Y-92589587D01*
X95425000Y-93545395D01*
X95439143Y-93531253D01*
X95611938Y-93704048D01*
X95611928Y-93705000D01*
X95613065Y-93716540D01*
X95604605Y-93725000D01*
X95614913Y-93735308D01*
X95615601Y-93742289D01*
X95481235Y-93876655D01*
X95455518Y-93879188D01*
X95335820Y-93915498D01*
X95225506Y-93974463D01*
X95128815Y-94053815D01*
X95049463Y-94150506D01*
X94990498Y-94260820D01*
X94956409Y-94373196D01*
X94469192Y-94860413D01*
X94564956Y-95124814D01*
X94854571Y-95265704D01*
X94942907Y-95288864D01*
X94943340Y-95635162D01*
X94703148Y-95476457D01*
X92679605Y-97500000D01*
X92693748Y-97514143D01*
X92514143Y-97693748D01*
X92500000Y-97679605D01*
X92485858Y-97693748D01*
X92306253Y-97514143D01*
X92320395Y-97500000D01*
X92306253Y-97485858D01*
X92485858Y-97306253D01*
X92500000Y-97320395D01*
X94523543Y-95296852D01*
X94247373Y-94878882D01*
X93702443Y-94588351D01*
X93111304Y-94409713D01*
X92496672Y-94349832D01*
X91882169Y-94411010D01*
X91291408Y-94590897D01*
X90752627Y-94878882D01*
X90660000Y-95019069D01*
X90660000Y-93787595D01*
X93783282Y-93787595D01*
X93827039Y-94106675D01*
X93932205Y-94411088D01*
X94025186Y-94585044D01*
X94289587Y-94680808D01*
X95245395Y-93725000D01*
X94289587Y-92769192D01*
X94025186Y-92864956D01*
X93884296Y-93154571D01*
X93802616Y-93466108D01*
X93783282Y-93787595D01*
X90660000Y-93787595D01*
X90660000Y-76488531D01*
X91009389Y-76488531D01*
X91051401Y-76778019D01*
X91149081Y-77053747D01*
X91222528Y-77191157D01*
X91471603Y-77268792D01*
X92320395Y-76420000D01*
X92679605Y-76420000D01*
X93528397Y-77268792D01*
X93777472Y-77191157D01*
X93903371Y-76927117D01*
X93975339Y-76643589D01*
X93990611Y-76351469D01*
X93948599Y-76061981D01*
X93850919Y-75786253D01*
X93777472Y-75648843D01*
X93528397Y-75571208D01*
X92679605Y-76420000D01*
X92320395Y-76420000D01*
X91471603Y-75571208D01*
X91222528Y-75648843D01*
X91096629Y-75912883D01*
X91024661Y-76196411D01*
X91009389Y-76488531D01*
X90660000Y-76488531D01*
X90660000Y-67980931D01*
X90752627Y-68121118D01*
X91297557Y-68411649D01*
X91888696Y-68590287D01*
X92503328Y-68650168D01*
X93117831Y-68588990D01*
X93708592Y-68409103D01*
X94247373Y-68121118D01*
X94523543Y-67703148D01*
X92500000Y-65679605D01*
X92485858Y-65693748D01*
X92306253Y-65514143D01*
X92320395Y-65500000D01*
X92306253Y-65485858D01*
X92485858Y-65306253D01*
X92500000Y-65320395D01*
X92514143Y-65306253D01*
X92693748Y-65485858D01*
X92679605Y-65500000D01*
X94703148Y-67523543D01*
X95121118Y-67247373D01*
X95411649Y-66702443D01*
X95590287Y-66111304D01*
X95650168Y-65496672D01*
X95588990Y-64882169D01*
X95409103Y-64291408D01*
X95121118Y-63752627D01*
X94980931Y-63660000D01*
X100590000Y-63660000D01*
X100590001Y-69067571D01*
G37*
%TD.AperFunction*%
D34*
X99877000Y-97123000D02*
X102832315Y-97123000D01*
X102797528Y-97133843D01*
X102681586Y-97377000D01*
X99877000Y-97377000D01*
X99877000Y-97397000D01*
X99623000Y-97397000D01*
X99623000Y-97377000D01*
X99603000Y-97377000D01*
X99603000Y-97123000D01*
X99623000Y-97123000D01*
X99623000Y-97103000D01*
X99877000Y-97103000D01*
X99877000Y-97123000D01*
%TA.AperFunction,Conductor*%
D35*
G36*
X99877000Y-97123000D02*
G01*
X102832315Y-97123000D01*
X102797528Y-97133843D01*
X102681586Y-97377000D01*
X99877000Y-97377000D01*
X99877000Y-97397000D01*
X99623000Y-97397000D01*
X99623000Y-97377000D01*
X99603000Y-97377000D01*
X99603000Y-97123000D01*
X99623000Y-97123000D01*
X99623000Y-97103000D01*
X99877000Y-97103000D01*
X99877000Y-97123000D01*
G37*
%TD.AperFunction*%
D34*
X104268748Y-93710858D02*
X104254605Y-93725000D01*
X104268748Y-93739143D01*
X104109100Y-93898790D01*
X104044482Y-93879188D01*
X104018765Y-93876655D01*
X103884399Y-93742289D01*
X103885087Y-93735308D01*
X103895395Y-93725000D01*
X103886935Y-93716540D01*
X103888072Y-93705000D01*
X103888062Y-93704048D01*
X104060858Y-93531253D01*
X104075000Y-93545395D01*
X104089143Y-93531253D01*
X104268748Y-93710858D01*
%TA.AperFunction,Conductor*%
D35*
G36*
X104268748Y-93710858D02*
G01*
X104254605Y-93725000D01*
X104268748Y-93739143D01*
X104109100Y-93898790D01*
X104044482Y-93879188D01*
X104018765Y-93876655D01*
X103884399Y-93742289D01*
X103885087Y-93735308D01*
X103895395Y-93725000D01*
X103886935Y-93716540D01*
X103888072Y-93705000D01*
X103888062Y-93704048D01*
X104060858Y-93531253D01*
X104075000Y-93545395D01*
X104089143Y-93531253D01*
X104268748Y-93710858D01*
G37*
%TD.AperFunction*%
D34*
X97802000Y-89152000D02*
X97802750Y-89152000D01*
X97822000Y-89171250D01*
X97822000Y-89198000D01*
X97802000Y-89198000D01*
X97802000Y-89322000D01*
X97548000Y-89322000D01*
X97548000Y-89198000D01*
X97501250Y-89198000D01*
X97547250Y-89152000D01*
X97548000Y-89152000D01*
X97548000Y-89028000D01*
X97802000Y-89028000D01*
X97802000Y-89152000D01*
%TA.AperFunction,Conductor*%
D35*
G36*
X97802000Y-89152000D02*
G01*
X97802750Y-89152000D01*
X97822000Y-89171250D01*
X97822000Y-89198000D01*
X97802000Y-89198000D01*
X97802000Y-89322000D01*
X97548000Y-89322000D01*
X97548000Y-89198000D01*
X97501250Y-89198000D01*
X97547250Y-89152000D01*
X97548000Y-89152000D01*
X97548000Y-89028000D01*
X97802000Y-89028000D01*
X97802000Y-89152000D01*
G37*
%TD.AperFunction*%
D34*
X99872000Y-88139110D02*
X99872000Y-88260890D01*
X99785890Y-88347000D01*
X99664110Y-88347000D01*
X99578000Y-88260890D01*
X99578000Y-88139110D01*
X99664110Y-88053000D01*
X99785890Y-88053000D01*
X99872000Y-88139110D01*
%TA.AperFunction,Conductor*%
D35*
G36*
X99872000Y-88139110D02*
G01*
X99872000Y-88260890D01*
X99785890Y-88347000D01*
X99664110Y-88347000D01*
X99578000Y-88260890D01*
X99578000Y-88139110D01*
X99664110Y-88053000D01*
X99785890Y-88053000D01*
X99872000Y-88139110D01*
G37*
%TD.AperFunction*%
D34*
X132193748Y-65485858D02*
X132179605Y-65500000D01*
X132193748Y-65514143D01*
X132014143Y-65693748D01*
X132000000Y-65679605D01*
X131985858Y-65693748D01*
X131806253Y-65514143D01*
X131820395Y-65500000D01*
X131806253Y-65485858D01*
X131985858Y-65306253D01*
X132000000Y-65320395D01*
X132014143Y-65306253D01*
X132193748Y-65485858D01*
%TA.AperFunction,Conductor*%
D35*
G36*
X132193748Y-65485858D02*
G01*
X132179605Y-65500000D01*
X132193748Y-65514143D01*
X132014143Y-65693748D01*
X132000000Y-65679605D01*
X131985858Y-65693748D01*
X131806253Y-65514143D01*
X131820395Y-65500000D01*
X131806253Y-65485858D01*
X131985858Y-65306253D01*
X132000000Y-65320395D01*
X132014143Y-65306253D01*
X132193748Y-65485858D01*
G37*
%TD.AperFunction*%
%TD*%
M02*
