%TF.GenerationSoftware,KiCad,Pcbnew,(5.1.9-0-10_14)*%
%TF.CreationDate,2021-03-26T09:13:29+00:00*%
%TF.ProjectId,EnvMon,456e764d-6f6e-42e6-9b69-6361645f7063,2*%
%TF.SameCoordinates,Original*%
%TF.FileFunction,Copper,L1,Top*%
%TF.FilePolarity,Positive*%
%FSLAX46Y46*%
G04 Gerber Fmt 4.6, Leading zero omitted, Abs format (unit mm)*
G04 Created by KiCad (PCBNEW (5.1.9-0-10_14)) date 2021-03-26 09:13:29*
%MOMM*%
%LPD*%
G01*
G04 APERTURE LIST*
%TA.AperFunction,NonConductor*%
%ADD10C,0.300000*%
%TD*%
%TA.AperFunction,SMDPad,CuDef*%
%ADD11R,0.200000X0.200000*%
%TD*%
%TA.AperFunction,SMDPad,CuDef*%
%ADD12C,0.500000*%
%TD*%
%TA.AperFunction,ComponentPad*%
%ADD13C,1.524000*%
%TD*%
%TA.AperFunction,SMDPad,CuDef*%
%ADD14R,2.100000X2.100000*%
%TD*%
%TA.AperFunction,SMDPad,CuDef*%
%ADD15R,0.300000X1.000000*%
%TD*%
%TA.AperFunction,SMDPad,CuDef*%
%ADD16R,1.000000X0.300000*%
%TD*%
%TA.AperFunction,ComponentPad*%
%ADD17C,2.000000*%
%TD*%
%TA.AperFunction,ComponentPad*%
%ADD18R,2.000000X2.000000*%
%TD*%
%TA.AperFunction,ComponentPad*%
%ADD19C,1.700000*%
%TD*%
%TA.AperFunction,ComponentPad*%
%ADD20C,5.000000*%
%TD*%
%TA.AperFunction,SMDPad,CuDef*%
%ADD21R,2.000000X0.900000*%
%TD*%
%TA.AperFunction,SMDPad,CuDef*%
%ADD22R,0.900000X2.000000*%
%TD*%
%TA.AperFunction,SMDPad,CuDef*%
%ADD23R,5.000000X5.000000*%
%TD*%
%TA.AperFunction,SMDPad,CuDef*%
%ADD24C,1.700000*%
%TD*%
%TA.AperFunction,ComponentPad*%
%ADD25R,1.524000X1.524000*%
%TD*%
%TA.AperFunction,ComponentPad*%
%ADD26O,1.700000X1.850000*%
%TD*%
%TA.AperFunction,SMDPad,CuDef*%
%ADD27R,8.340000X5.490000*%
%TD*%
%TA.AperFunction,SMDPad,CuDef*%
%ADD28R,0.600000X1.140000*%
%TD*%
%TA.AperFunction,SMDPad,CuDef*%
%ADD29R,0.300000X1.140000*%
%TD*%
%TA.AperFunction,ComponentPad*%
%ADD30C,0.600000*%
%TD*%
%TA.AperFunction,ViaPad*%
%ADD31C,0.800000*%
%TD*%
%TA.AperFunction,Conductor*%
%ADD32C,0.250000*%
%TD*%
%TA.AperFunction,Conductor*%
%ADD33C,0.254000*%
%TD*%
%TA.AperFunction,Conductor*%
%ADD34C,0.100000*%
%TD*%
G04 APERTURE END LIST*
D10*
X131878571Y-87685714D02*
X132878571Y-87400000D01*
X132164285Y-87114285D01*
X132878571Y-86828571D01*
X131878571Y-86542857D01*
X131878571Y-86114285D02*
X132878571Y-85828571D01*
X132164285Y-85542857D01*
X132878571Y-85257142D01*
X131878571Y-84971428D01*
X131878571Y-84542857D02*
X132878571Y-84257142D01*
X132164285Y-83971428D01*
X132878571Y-83685714D01*
X131878571Y-83400000D01*
X132735714Y-82828571D02*
X132807142Y-82757142D01*
X132878571Y-82828571D01*
X132807142Y-82900000D01*
X132735714Y-82828571D01*
X132878571Y-82828571D01*
X132878571Y-82114285D02*
X131878571Y-82114285D01*
X132021428Y-82114285D02*
X131950000Y-82042857D01*
X131878571Y-81900000D01*
X131878571Y-81685714D01*
X131950000Y-81542857D01*
X132092857Y-81471428D01*
X132878571Y-81471428D01*
X132092857Y-81471428D02*
X131950000Y-81400000D01*
X131878571Y-81257142D01*
X131878571Y-81042857D01*
X131950000Y-80900000D01*
X132092857Y-80828571D01*
X132878571Y-80828571D01*
X132807142Y-79542857D02*
X132878571Y-79685714D01*
X132878571Y-79971428D01*
X132807142Y-80114285D01*
X132664285Y-80185714D01*
X132092857Y-80185714D01*
X131950000Y-80114285D01*
X131878571Y-79971428D01*
X131878571Y-79685714D01*
X131950000Y-79542857D01*
X132092857Y-79471428D01*
X132235714Y-79471428D01*
X132378571Y-80185714D01*
X132735714Y-78828571D02*
X132807142Y-78757142D01*
X132878571Y-78828571D01*
X132807142Y-78900000D01*
X132735714Y-78828571D01*
X132878571Y-78828571D01*
X131878571Y-77471428D02*
X132878571Y-77471428D01*
X131878571Y-78114285D02*
X132664285Y-78114285D01*
X132807142Y-78042857D01*
X132878571Y-77900000D01*
X132878571Y-77685714D01*
X132807142Y-77542857D01*
X132735714Y-77471428D01*
X132878571Y-76757142D02*
X131378571Y-76757142D01*
X132307142Y-76614285D02*
X132878571Y-76185714D01*
X131878571Y-76185714D02*
X132450000Y-76757142D01*
D11*
%TO.P,U1,~*%
%TO.N,N/C*%
X101725000Y-90200000D03*
X97725000Y-90200000D03*
X101725000Y-86200000D03*
D12*
X97725000Y-86200000D03*
D13*
%TO.P,U1,17*%
%TO.N,GND*%
X99725000Y-88200000D03*
D14*
X99725000Y-88200000D03*
D15*
%TO.P,U1,16*%
%TO.N,Net-(U1-Pad16)*%
X98750000Y-86150000D03*
%TO.P,U1,15*%
%TO.N,Net-(U1-Pad15)*%
X99400000Y-86150000D03*
%TO.P,U1,14*%
%TO.N,CBUS3*%
X100050000Y-86150000D03*
%TO.P,U1,13*%
%TO.N,GND*%
X100700000Y-86150000D03*
D16*
%TO.P,U1,12*%
%TO.N,CBUS0*%
X101775000Y-87225000D03*
%TO.P,U1,11*%
%TO.N,CBUS1*%
X101775000Y-87875000D03*
%TO.P,U1,10*%
%TO.N,+3V3*%
X101775000Y-88525000D03*
%TO.P,U1,9*%
X101775000Y-89175000D03*
D15*
%TO.P,U1,8*%
X100700000Y-90250000D03*
%TO.P,U1,7*%
%TO.N,Net-(J1-PadA7)*%
X100050000Y-90250000D03*
%TO.P,U1,6*%
%TO.N,Net-(J1-PadA6)*%
X99400000Y-90250000D03*
%TO.P,U1,5*%
%TO.N,CBUS2*%
X98750000Y-90250000D03*
D16*
%TO.P,U1,4*%
%TO.N,GND*%
X97675000Y-89175000D03*
%TO.P,U1,3*%
X97675000Y-88525000D03*
%TO.P,U1,2*%
%TO.N,Net-(U1-Pad2)*%
X97675000Y-87875000D03*
%TO.P,U1,1*%
%TO.N,+3V3*%
X97675000Y-87225000D03*
%TD*%
D17*
%TO.P,J2,2*%
%TO.N,Net-(J1-PadA4)*%
X108740000Y-96000000D03*
D18*
%TO.P,J2,1*%
%TO.N,GND*%
X106200000Y-96000000D03*
%TD*%
D19*
%TO.P,M3,4*%
%TO.N,CO2-SDA*%
X104220000Y-70800000D03*
%TO.P,M3,3*%
%TO.N,CO2-SCL*%
X101680000Y-70800000D03*
%TO.P,M3,2*%
%TO.N,GND*%
X99140000Y-70800000D03*
%TO.P,M3,1*%
%TO.N,+3V3*%
X96600000Y-70800000D03*
%TD*%
D20*
%TO.P,M2,S*%
%TO.N,GND*%
X92500000Y-65500000D03*
X92500000Y-97500000D03*
X132000000Y-97500000D03*
X132000000Y-65500000D03*
D19*
%TO.P,M2,7*%
%TO.N,OLED-RST*%
X92500000Y-89120000D03*
%TO.P,M2,6*%
%TO.N,OLED-DC*%
X92500000Y-86580000D03*
%TO.P,M2,5*%
%TO.N,OLED-CS0*%
X92500000Y-84040000D03*
%TO.P,M2,4*%
%TO.N,OLED-SCLK*%
X92500000Y-81500000D03*
%TO.P,M2,3*%
%TO.N,OLED-MOSI*%
X92500000Y-78960000D03*
%TO.P,M2,2*%
%TO.N,GND*%
X92500000Y-76420000D03*
%TO.P,M2,1*%
%TO.N,+3V3*%
X92500000Y-73880000D03*
%TD*%
D21*
%TO.P,U2,38*%
%TO.N,GND*%
X123750000Y-70745000D03*
%TO.P,U2,37*%
%TO.N,OLED-MOSI*%
X123750000Y-72015000D03*
%TO.P,U2,36*%
%TO.N,IO7*%
X123750000Y-73285000D03*
%TO.P,U2,35*%
%TO.N,Net-(U1-Pad2)*%
X123750000Y-74555000D03*
%TO.P,U2,34*%
%TO.N,Net-(U1-Pad15)*%
X123750000Y-75825000D03*
%TO.P,U2,33*%
%TO.N,OLED-DC*%
X123750000Y-77095000D03*
%TO.P,U2,32*%
%TO.N,Net-(U2-Pad32)*%
X123750000Y-78365000D03*
%TO.P,U2,31*%
%TO.N,OLED-RST*%
X123750000Y-79635000D03*
%TO.P,U2,30*%
%TO.N,OLED-SCLK*%
X123750000Y-80905000D03*
%TO.P,U2,29*%
%TO.N,OLED-CS0*%
X123750000Y-82175000D03*
%TO.P,U2,28*%
%TO.N,IO3*%
X123750000Y-83445000D03*
%TO.P,U2,27*%
%TO.N,IO2*%
X123750000Y-84715000D03*
%TO.P,U2,26*%
%TO.N,IO1*%
X123750000Y-85985000D03*
%TO.P,U2,25*%
%TO.N,CBUS0*%
X123750000Y-87255000D03*
D22*
%TO.P,U2,24*%
%TO.N,CBUS1*%
X120965000Y-88255000D03*
%TO.P,U2,23*%
%TO.N,Net-(U2-Pad23)*%
X119695000Y-88255000D03*
%TO.P,U2,22*%
%TO.N,Net-(U2-Pad22)*%
X118425000Y-88255000D03*
%TO.P,U2,21*%
%TO.N,Net-(U2-Pad21)*%
X117155000Y-88255000D03*
%TO.P,U2,20*%
%TO.N,Net-(U2-Pad20)*%
X115885000Y-88255000D03*
%TO.P,U2,19*%
%TO.N,Net-(U2-Pad19)*%
X114615000Y-88255000D03*
%TO.P,U2,18*%
%TO.N,Net-(U2-Pad18)*%
X113345000Y-88255000D03*
%TO.P,U2,17*%
%TO.N,Net-(U2-Pad17)*%
X112075000Y-88255000D03*
%TO.P,U2,16*%
%TO.N,IO5*%
X110805000Y-88255000D03*
%TO.P,U2,15*%
%TO.N,GND*%
X109535000Y-88255000D03*
D21*
%TO.P,U2,14*%
%TO.N,IO4*%
X106750000Y-87255000D03*
%TO.P,U2,13*%
%TO.N,Net-(U2-Pad13)*%
X106750000Y-85985000D03*
%TO.P,U2,12*%
%TO.N,IO6*%
X106750000Y-84715000D03*
%TO.P,U2,11*%
%TO.N,CO2-SCL*%
X106750000Y-83445000D03*
%TO.P,U2,10*%
%TO.N,CO2-SDA*%
X106750000Y-82175000D03*
%TO.P,U2,9*%
%TO.N,CBUS3*%
X106750000Y-80905000D03*
%TO.P,U2,8*%
%TO.N,CBUS2*%
X106750000Y-79635000D03*
%TO.P,U2,7*%
%TO.N,Net-(U2-Pad7)*%
X106750000Y-78365000D03*
%TO.P,U2,6*%
%TO.N,Net-(U2-Pad6)*%
X106750000Y-77095000D03*
%TO.P,U2,5*%
%TO.N,Net-(U2-Pad5)*%
X106750000Y-75825000D03*
%TO.P,U2,4*%
%TO.N,Net-(U2-Pad4)*%
X106750000Y-74555000D03*
%TO.P,U2,3*%
%TO.N,Net-(U1-Pad16)*%
X106750000Y-73285000D03*
%TO.P,U2,2*%
%TO.N,+3V3*%
X106750000Y-72015000D03*
%TO.P,U2,1*%
%TO.N,GND*%
X106750000Y-70745000D03*
D23*
%TO.P,U2,39*%
X114250000Y-78245000D03*
%TD*%
D24*
%TO.P,M1,1*%
%TO.N,Net-(M1-Pad1)*%
X94990000Y-83430000D03*
D19*
%TO.P,M1,4*%
%TO.N,+3V3*%
X102610000Y-83430000D03*
D25*
%TO.P,M1,3*%
%TO.N,GND*%
X100070000Y-83430000D03*
D19*
%TO.P,M1,2*%
%TO.N,Net-(J1-PadA4)*%
X97530000Y-83430000D03*
%TD*%
D26*
%TO.P,J3,8*%
%TO.N,IO7*%
X126550000Y-93150000D03*
%TO.P,J3,7*%
%TO.N,IO6*%
X124050000Y-93150000D03*
%TO.P,J3,6*%
%TO.N,IO5*%
X121550000Y-93150000D03*
%TO.P,J3,5*%
%TO.N,IO4*%
X119050000Y-93150000D03*
%TO.P,J3,4*%
%TO.N,IO3*%
X116550000Y-93150000D03*
%TO.P,J3,3*%
%TO.N,IO2*%
X114050000Y-93150000D03*
%TO.P,J3,2*%
%TO.N,IO1*%
X111550000Y-93150000D03*
%TO.P,J3,1*%
%TO.N,GND*%
%TA.AperFunction,ComponentPad*%
G36*
G01*
X108200000Y-93825000D02*
X108200000Y-92475000D01*
G75*
G02*
X108450000Y-92225000I250000J0D01*
G01*
X109650000Y-92225000D01*
G75*
G02*
X109900000Y-92475000I0J-250000D01*
G01*
X109900000Y-93825000D01*
G75*
G02*
X109650000Y-94075000I-250000J0D01*
G01*
X108450000Y-94075000D01*
G75*
G02*
X108200000Y-93825000I0J250000D01*
G01*
G37*
%TD.AperFunction*%
%TD*%
D27*
%TO.P,J1,S1*%
%TO.N,GND*%
X99750000Y-97250000D03*
D28*
%TO.P,J1,A12*%
X102950000Y-93135000D03*
%TO.P,J1,A4*%
%TO.N,Net-(J1-PadA4)*%
X97350000Y-93135000D03*
%TO.P,J1,B12*%
%TO.N,GND*%
X96550000Y-93135000D03*
%TO.P,J1,B4*%
%TO.N,Net-(J1-PadA4)*%
X102150000Y-93135000D03*
D19*
%TO.P,J1,S1*%
%TO.N,GND*%
X104075000Y-97905000D03*
X95425000Y-97905000D03*
D17*
X104075000Y-93725000D03*
X95425000Y-93725000D03*
D29*
%TO.P,J1,A7*%
%TO.N,Net-(J1-PadA7)*%
X100000000Y-93135000D03*
%TO.P,J1,A6*%
%TO.N,Net-(J1-PadA6)*%
X99500000Y-93135000D03*
%TO.P,J1,B6*%
X100500000Y-93135000D03*
%TO.P,J1,B7*%
%TO.N,Net-(J1-PadA7)*%
X99000000Y-93135000D03*
%TO.P,J1,A8*%
%TO.N,Net-(J1-PadA8)*%
X101000000Y-93135000D03*
%TO.P,J1,A5*%
%TO.N,Net-(J1-PadA5)*%
X98500000Y-93135000D03*
%TO.P,J1,B5*%
%TO.N,Net-(J1-PadB5)*%
X101500000Y-93135000D03*
%TO.P,J1,B8*%
%TO.N,Net-(J1-PadB8)*%
X98000000Y-93135000D03*
D28*
%TO.P,J1,A9*%
%TO.N,Net-(J1-PadA4)*%
X102150000Y-93135000D03*
%TO.P,J1,B9*%
X97350000Y-93135000D03*
%TO.P,J1,B1*%
%TO.N,GND*%
X102950000Y-93135000D03*
D30*
%TO.P,J1,S1*%
X102640000Y-94205000D03*
X96860000Y-94205000D03*
D28*
%TO.P,J1,A1*%
X96550000Y-93135000D03*
%TD*%
D31*
%TO.N,Net-(J1-PadA7)*%
X98002163Y-91475401D03*
X103090985Y-90984333D03*
%TO.N,Net-(J1-PadA6)*%
X99319496Y-91568550D03*
X100886391Y-91948121D03*
%TO.N,Net-(J1-PadA5)*%
X96500000Y-91400000D03*
%TO.N,Net-(J1-PadB5)*%
X103869360Y-91612151D03*
%TO.N,Net-(U1-Pad16)*%
X109762660Y-73762660D03*
X98300000Y-85400000D03*
%TO.N,Net-(U1-Pad15)*%
X120650155Y-75574979D03*
X103825938Y-84963422D03*
%TO.N,Net-(U1-Pad2)*%
X121339855Y-74475010D03*
X96308437Y-87803052D03*
%TO.N,+3V3*%
X105000000Y-72400000D03*
X104705951Y-91064303D03*
%TO.N,OLED-RST*%
X119003892Y-81521428D03*
%TO.N,OLED-DC*%
X120300000Y-77500000D03*
%TO.N,OLED-CS0*%
X120461390Y-81053482D03*
%TO.N,OLED-SCLK*%
X120011379Y-79673314D03*
%TO.N,OLED-MOSI*%
X117457863Y-79018618D03*
%TO.N,IO6*%
X107475010Y-90929961D03*
%TO.N,IO5*%
X110500000Y-90750000D03*
%TO.N,IO4*%
X106605964Y-91502890D03*
%TO.N,CBUS3*%
X109041496Y-84433185D03*
X103654388Y-85948610D03*
%TO.N,CBUS0*%
X122915014Y-88000000D03*
X103724058Y-86946192D03*
%TO.N,CBUS1*%
X120638817Y-89595803D03*
X103760726Y-87945532D03*
%TO.N,CBUS2*%
X97100000Y-90600000D03*
X105373993Y-90320164D03*
%TD*%
D32*
%TO.N,Net-(J1-PadA4)*%
X102150000Y-93790002D02*
X102150000Y-93135000D01*
X97589999Y-94030001D02*
X101910001Y-94030001D01*
X101910001Y-94030001D02*
X102150000Y-93790002D01*
X97350000Y-93790002D02*
X97589999Y-94030001D01*
X97350000Y-93135000D02*
X97350000Y-93790002D01*
X103458526Y-92239999D02*
X103575001Y-92356474D01*
X106986001Y-94674999D02*
X107414999Y-94674999D01*
X103575001Y-92356474D02*
X104667476Y-92356474D01*
X102150000Y-93135000D02*
X102150000Y-92479998D01*
X107414999Y-94674999D02*
X108740000Y-96000000D01*
X102389999Y-92239999D02*
X103458526Y-92239999D01*
X104667476Y-92356474D02*
X106986001Y-94674999D01*
X102150000Y-92479998D02*
X102389999Y-92239999D01*
X97530000Y-83430000D02*
X95513498Y-85446502D01*
X95513498Y-85446502D02*
X95513498Y-91486502D01*
X96915587Y-92125002D02*
X97350000Y-92559415D01*
X96151998Y-92125002D02*
X96915587Y-92125002D01*
X95513498Y-91486502D02*
X96151998Y-92125002D01*
X97350000Y-92559415D02*
X97350000Y-93135000D01*
%TO.N,Net-(J1-PadA7)*%
X100000000Y-92329998D02*
X100000000Y-93135000D01*
X100050000Y-92279998D02*
X100000000Y-92329998D01*
X100050000Y-91650000D02*
X100050000Y-92279998D01*
X100050000Y-90150000D02*
X100050000Y-90950000D01*
X100050000Y-90950000D02*
X100050000Y-91650000D01*
X100050000Y-90425000D02*
X100050000Y-90950000D01*
X99000000Y-93135000D02*
X99000000Y-92280455D01*
X99000000Y-92280455D02*
X98194946Y-91475401D01*
X98194946Y-91475401D02*
X98002163Y-91475401D01*
X102900299Y-91175019D02*
X103090985Y-90984333D01*
X100524981Y-91175019D02*
X102900299Y-91175019D01*
X100050000Y-91650000D02*
X100524981Y-91175019D01*
%TO.N,Net-(J1-PadA6)*%
X99400000Y-91488046D02*
X99319496Y-91568550D01*
X99500000Y-93135000D02*
X99500000Y-91749054D01*
X99500000Y-91749054D02*
X99319496Y-91568550D01*
X100500000Y-92315000D02*
X100866879Y-91948121D01*
X100500000Y-93135000D02*
X100500000Y-92315000D01*
X100866879Y-91948121D02*
X100886391Y-91948121D01*
X99400000Y-90150000D02*
X99400000Y-90800000D01*
X99400000Y-90800000D02*
X99400000Y-91488046D01*
X99400000Y-90425000D02*
X99400000Y-90800000D01*
%TO.N,Net-(J1-PadA5)*%
X98500000Y-93135000D02*
X98500000Y-92439876D01*
X98500000Y-92439876D02*
X98285126Y-92225002D01*
X98285126Y-92225002D02*
X97651998Y-92225002D01*
X97651998Y-92225002D02*
X96826996Y-91400000D01*
X96826996Y-91400000D02*
X96500000Y-91400000D01*
%TO.N,Net-(J1-PadB5)*%
X102147819Y-91725002D02*
X103756509Y-91725002D01*
X101500000Y-93135000D02*
X101500000Y-92372821D01*
X103756509Y-91725002D02*
X103869360Y-91612151D01*
X101500000Y-92372821D02*
X102147819Y-91725002D01*
%TO.N,Net-(U1-Pad16)*%
X109285000Y-73285000D02*
X109762660Y-73762660D01*
X106750000Y-73285000D02*
X109285000Y-73285000D01*
X98750000Y-86250000D02*
X98750000Y-85450000D01*
X98700000Y-85400000D02*
X98300000Y-85400000D01*
X98750000Y-85450000D02*
X98700000Y-85400000D01*
%TO.N,Net-(U1-Pad15)*%
X120900176Y-75825000D02*
X120650155Y-75574979D01*
X123750000Y-75825000D02*
X120900176Y-75825000D01*
X99582999Y-84517001D02*
X102088310Y-84517001D01*
X99400000Y-86525000D02*
X99400000Y-84700000D01*
X102534731Y-84963422D02*
X103825938Y-84963422D01*
X102088310Y-84517001D02*
X102534731Y-84963422D01*
X99400000Y-84700000D02*
X99582999Y-84517001D01*
%TO.N,Net-(U1-Pad2)*%
X121419845Y-74555000D02*
X121339855Y-74475010D01*
X123750000Y-74555000D02*
X121419845Y-74555000D01*
X97775000Y-87875000D02*
X96380385Y-87875000D01*
X96380385Y-87875000D02*
X96308437Y-87803052D01*
%TO.N,GND*%
X100700000Y-87500000D02*
X99725000Y-88475000D01*
X100700000Y-86525000D02*
X100700000Y-87500000D01*
X98950000Y-97250000D02*
X95425000Y-93725000D01*
X99750000Y-97250000D02*
X98950000Y-97250000D01*
X96080000Y-97250000D02*
X95425000Y-97905000D01*
X99750000Y-97250000D02*
X96080000Y-97250000D01*
X100550000Y-97250000D02*
X104075000Y-93725000D01*
X99750000Y-97250000D02*
X100550000Y-97250000D01*
X99750000Y-97250000D02*
X103250000Y-97250000D01*
X103905000Y-97905000D02*
X104075000Y-97905000D01*
X103250000Y-97250000D02*
X103905000Y-97905000D01*
X99750000Y-97095000D02*
X102640000Y-94205000D01*
X99750000Y-97095000D02*
X96860000Y-94205000D01*
X99750000Y-97250000D02*
X99750000Y-97095000D01*
X103485000Y-93135000D02*
X104075000Y-93725000D01*
X102950000Y-93135000D02*
X103485000Y-93135000D01*
X96015000Y-93135000D02*
X95425000Y-93725000D01*
X96550000Y-93135000D02*
X96015000Y-93135000D01*
X92905000Y-97905000D02*
X92500000Y-97500000D01*
X95425000Y-97905000D02*
X92905000Y-97905000D01*
X95425000Y-93725000D02*
X95425000Y-92925000D01*
X130535533Y-70500000D02*
X123750000Y-70500000D01*
X132000000Y-69035533D02*
X130535533Y-70500000D01*
X132000000Y-65500000D02*
X132000000Y-69035533D01*
X98750000Y-89175000D02*
X99725000Y-88200000D01*
X97775000Y-89175000D02*
X98750000Y-89175000D01*
X99400000Y-88525000D02*
X99725000Y-88200000D01*
X97775000Y-88525000D02*
X99400000Y-88525000D01*
X97675000Y-88525000D02*
X96375000Y-88525000D01*
X96375000Y-88525000D02*
X96300000Y-88600000D01*
X96300000Y-88600000D02*
X96300000Y-89000000D01*
X96475000Y-89175000D02*
X97675000Y-89175000D01*
X96300000Y-89000000D02*
X96475000Y-89175000D01*
%TO.N,+3V3*%
X95580000Y-70800000D02*
X96600000Y-70800000D01*
X92500000Y-73880000D02*
X95580000Y-70800000D01*
X105385000Y-72015000D02*
X105000000Y-72400000D01*
X106750000Y-72015000D02*
X105385000Y-72015000D01*
X92500000Y-73880000D02*
X94653004Y-73880000D01*
X94653004Y-73880000D02*
X98125002Y-77351998D01*
X98125002Y-77351998D02*
X98125002Y-79505002D01*
X98125002Y-79505002D02*
X99710000Y-81090000D01*
X99960000Y-81340000D02*
X100520000Y-81340000D01*
X99710000Y-81090000D02*
X99960000Y-81340000D01*
X103773004Y-90126996D02*
X103773004Y-89426996D01*
X100700000Y-90425000D02*
X100700000Y-90725009D01*
X101675000Y-89175000D02*
X103771008Y-89175000D01*
X103771008Y-89175000D02*
X103773004Y-89173004D01*
X103773004Y-89173004D02*
X103773004Y-89426996D01*
X103773004Y-88800000D02*
X103773004Y-89173004D01*
X100700000Y-90150000D02*
X100700000Y-90725009D01*
X103325000Y-88525000D02*
X103600000Y-88800000D01*
X103600000Y-88800000D02*
X103773004Y-88800000D01*
X101675000Y-88525000D02*
X103325000Y-88525000D01*
X104115581Y-84217227D02*
X103397227Y-84217227D01*
X104550939Y-88232668D02*
X104550939Y-84652585D01*
X103983607Y-88800000D02*
X104550939Y-88232668D01*
X103397227Y-84217227D02*
X102610000Y-83430000D01*
X104550939Y-84652585D02*
X104115581Y-84217227D01*
X103773004Y-88800000D02*
X103983607Y-88800000D01*
X101690000Y-82510000D02*
X102610000Y-83430000D01*
X100520000Y-81340000D02*
X101690000Y-82510000D01*
X100700000Y-90725009D02*
X102324989Y-90725009D01*
X102874999Y-90174999D02*
X103725001Y-90174999D01*
X103773004Y-90131356D02*
X104705951Y-91064303D01*
X103725001Y-90174999D02*
X103773004Y-90126996D01*
X103773004Y-90126996D02*
X103773004Y-90131356D01*
X102324989Y-90725009D02*
X102874999Y-90174999D01*
X97286502Y-84613498D02*
X98486502Y-84613498D01*
X96100000Y-86400000D02*
X96100000Y-85800000D01*
X98757001Y-82042999D02*
X99710000Y-81090000D01*
X97675000Y-87225000D02*
X96925000Y-87225000D01*
X96925000Y-87225000D02*
X96100000Y-86400000D01*
X98757001Y-84342999D02*
X98757001Y-82042999D01*
X98486502Y-84613498D02*
X98757001Y-84342999D01*
X96100000Y-85800000D02*
X97286502Y-84613498D01*
%TO.N,OLED-RST*%
X121729108Y-78619108D02*
X119992581Y-78619108D01*
X122745000Y-79635000D02*
X121729108Y-78619108D01*
X119003892Y-79607797D02*
X119003892Y-81521428D01*
X123750000Y-79635000D02*
X122745000Y-79635000D01*
X119992581Y-78619108D02*
X119003892Y-79607797D01*
%TO.N,OLED-DC*%
X123750000Y-77095000D02*
X120705000Y-77095000D01*
X120300000Y-77500000D02*
X120705000Y-77095000D01*
%TO.N,OLED-CS0*%
X123750000Y-82175000D02*
X121582908Y-82175000D01*
X121582908Y-82175000D02*
X120461390Y-81053482D01*
%TO.N,OLED-SCLK*%
X122225000Y-79975000D02*
X121523315Y-79273315D01*
X122500000Y-80905000D02*
X122225000Y-80630000D01*
X120411378Y-79273315D02*
X120011379Y-79673314D01*
X123750000Y-80905000D02*
X122500000Y-80905000D01*
X121523315Y-79273315D02*
X120411378Y-79273315D01*
X122225000Y-80630000D02*
X122225000Y-79975000D01*
%TO.N,OLED-MOSI*%
X117457863Y-74292137D02*
X118000000Y-73750000D01*
X118000000Y-73750000D02*
X121750000Y-73750000D01*
X121750000Y-73750000D02*
X122270000Y-73230000D01*
X117457863Y-79018618D02*
X117457863Y-74292137D01*
X122270000Y-73230000D02*
X122270000Y-72230000D01*
X122485000Y-72015000D02*
X122270000Y-72230000D01*
X123750000Y-72015000D02*
X122485000Y-72015000D01*
%TO.N,CO2-SDA*%
X106750000Y-82175000D02*
X105500000Y-82175000D01*
X104850009Y-73313599D02*
X104220000Y-72683590D01*
X105500000Y-82175000D02*
X104850009Y-81525009D01*
X104850009Y-81525009D02*
X104850009Y-73313599D01*
X104220000Y-72683590D02*
X104220000Y-70800000D01*
%TO.N,CO2-SCL*%
X105984998Y-83445000D02*
X106750000Y-83445000D01*
X104319999Y-81780001D02*
X104319999Y-73580001D01*
X104319999Y-81780001D02*
X105984998Y-83445000D01*
X101680000Y-70940002D02*
X101680000Y-70800000D01*
X104319999Y-73580001D02*
X101680000Y-70940002D01*
%TO.N,IO7*%
X126875045Y-92824955D02*
X126550000Y-93150000D01*
X125000000Y-73285000D02*
X125200000Y-73485000D01*
X123750000Y-73285000D02*
X125000000Y-73285000D01*
X125200000Y-84763587D02*
X125525012Y-85088599D01*
X125525012Y-85088599D02*
X125525012Y-88774988D01*
X125200000Y-73485000D02*
X125200000Y-84763587D01*
X125525012Y-88774988D02*
X124700000Y-89600000D01*
X124700000Y-89600000D02*
X123900000Y-89600000D01*
X123900000Y-89600000D02*
X123100000Y-90400000D01*
X123100000Y-90400000D02*
X123100000Y-91200000D01*
X123100000Y-91200000D02*
X123400000Y-91500000D01*
X124900000Y-91500000D02*
X126550000Y-93150000D01*
X123400000Y-91500000D02*
X124900000Y-91500000D01*
%TO.N,IO6*%
X105424999Y-89298166D02*
X106098995Y-89972162D01*
X107475010Y-91659164D02*
X107475010Y-90929961D01*
X105880964Y-91107201D02*
X105880964Y-92202740D01*
X106750000Y-84715000D02*
X105500000Y-84715000D01*
X105500000Y-84715000D02*
X105424999Y-84790001D01*
X105880964Y-92202740D02*
X106058197Y-92379973D01*
X106098995Y-89972162D02*
X106098995Y-90889170D01*
X106098995Y-90889170D02*
X105880964Y-91107201D01*
X106058197Y-92379973D02*
X106754201Y-92379973D01*
X105424999Y-84790001D02*
X105424999Y-89298166D01*
X106754201Y-92379973D02*
X107475010Y-91659164D01*
%TO.N,IO5*%
X110805000Y-90445000D02*
X110500000Y-90750000D01*
X110805000Y-88255000D02*
X110805000Y-90445000D01*
%TO.N,IO4*%
X119050000Y-93150000D02*
X119813284Y-93150000D01*
X106750000Y-91358854D02*
X106605964Y-91502890D01*
X106750000Y-87255000D02*
X106750000Y-91358854D01*
%TO.N,IO3*%
X123750000Y-83445000D02*
X122500000Y-83445000D01*
X122500000Y-83445000D02*
X121740001Y-84204999D01*
X121740001Y-89567621D02*
X120986818Y-90320804D01*
X121740001Y-84204999D02*
X121740001Y-89567621D01*
X120986818Y-90320804D02*
X112642481Y-90320804D01*
X110374990Y-92588295D02*
X110374990Y-93711705D01*
X112642481Y-90320804D02*
X110374990Y-92588295D01*
X110374990Y-93711705D02*
X111063295Y-94400010D01*
X115299990Y-94400010D02*
X116550000Y-93150000D01*
X111063295Y-94400010D02*
X115299990Y-94400010D01*
%TO.N,IO2*%
X114050000Y-93150000D02*
X115300010Y-91899990D01*
X115300010Y-91899990D02*
X120700010Y-91899990D01*
X120700010Y-91899990D02*
X123802510Y-88797490D01*
X123802510Y-88797490D02*
X124330979Y-88797490D01*
X124330979Y-88797490D02*
X125075001Y-88053468D01*
X125075001Y-88053468D02*
X125075001Y-85274998D01*
X125075001Y-85274998D02*
X124270003Y-84470000D01*
X124270003Y-84470000D02*
X123750000Y-84470000D01*
%TO.N,IO1*%
X123750000Y-85985000D02*
X122500000Y-85985000D01*
X122500000Y-85985000D02*
X122190013Y-86294987D01*
X113250021Y-91449979D02*
X111550000Y-93150000D01*
X122190013Y-89754020D02*
X120494054Y-91449979D01*
X120494054Y-91449979D02*
X113250021Y-91449979D01*
X122190013Y-86294987D02*
X122190013Y-89754020D01*
%TO.N,CBUS3*%
X106750000Y-80905000D02*
X107995000Y-80905000D01*
X108295000Y-81205000D02*
X108295000Y-83686689D01*
X107995000Y-80905000D02*
X108295000Y-81205000D01*
X108295000Y-83686689D02*
X109041496Y-84433185D01*
X100050000Y-85050000D02*
X100132989Y-84967011D01*
X101574566Y-84967011D02*
X102556165Y-85948610D01*
X100050000Y-86525000D02*
X100050000Y-85050000D01*
X100132989Y-84967011D02*
X101574566Y-84967011D01*
X102556165Y-85948610D02*
X103654388Y-85948610D01*
%TO.N,CBUS0*%
X123750000Y-87255000D02*
X123660014Y-87255000D01*
X123660014Y-87255000D02*
X122915014Y-88000000D01*
X101675000Y-87225000D02*
X103445250Y-87225000D01*
X103445250Y-87225000D02*
X103724058Y-86946192D01*
%TO.N,CBUS1*%
X120965000Y-88010000D02*
X120965000Y-89035000D01*
X120965000Y-88255000D02*
X120965000Y-89035000D01*
X120965000Y-89269620D02*
X120638817Y-89595803D01*
X120965000Y-88255000D02*
X120965000Y-89269620D01*
X101675000Y-87875000D02*
X103690194Y-87875000D01*
X103690194Y-87875000D02*
X103760726Y-87945532D01*
%TO.N,CBUS2*%
X98750000Y-90250000D02*
X98750000Y-90650000D01*
X98750000Y-90650000D02*
X98700000Y-90700000D01*
X98700000Y-90700000D02*
X97691035Y-90700000D01*
X97200000Y-90700000D02*
X97100000Y-90600000D01*
X97691035Y-90700000D02*
X97200000Y-90700000D01*
X106750000Y-79635000D02*
X108000000Y-79635000D01*
X108211820Y-91899990D02*
X107186797Y-92925013D01*
X109055000Y-80690000D02*
X109055000Y-83305000D01*
X105430953Y-92483540D02*
X105430953Y-90377124D01*
X108000000Y-79635000D02*
X109055000Y-80690000D01*
X108211820Y-86288180D02*
X108211820Y-91899990D01*
X109793763Y-84706237D02*
X108211820Y-86288180D01*
X105872426Y-92925013D02*
X105430953Y-92483540D01*
X105430953Y-90377124D02*
X105373993Y-90320164D01*
X107186797Y-92925013D02*
X105872426Y-92925013D01*
X109793763Y-84043763D02*
X109793763Y-84706237D01*
X109055000Y-83305000D02*
X109793763Y-84043763D01*
%TD*%
D33*
%TO.N,GND*%
X130252627Y-68121118D02*
X130797557Y-68411649D01*
X131388696Y-68590287D01*
X132003328Y-68650168D01*
X132617831Y-68588990D01*
X133208592Y-68409103D01*
X133747373Y-68121118D01*
X133840000Y-67980931D01*
X133840000Y-75115000D01*
X130410000Y-75115000D01*
X130410000Y-88685000D01*
X133840001Y-88685000D01*
X133840001Y-95019070D01*
X133747373Y-94878882D01*
X133202443Y-94588351D01*
X132611304Y-94409713D01*
X131996672Y-94349832D01*
X131382169Y-94411010D01*
X130791408Y-94590897D01*
X130252627Y-94878882D01*
X129976457Y-95296852D01*
X132000000Y-97320395D01*
X132014143Y-97306253D01*
X132193748Y-97485858D01*
X132179605Y-97500000D01*
X132193748Y-97514143D01*
X132014143Y-97693748D01*
X132000000Y-97679605D01*
X131985858Y-97693748D01*
X131806253Y-97514143D01*
X131820395Y-97500000D01*
X129796852Y-95476457D01*
X129378882Y-95752627D01*
X129088351Y-96297557D01*
X128909713Y-96888696D01*
X128849832Y-97503328D01*
X128911010Y-98117831D01*
X129090897Y-98708592D01*
X129378882Y-99247373D01*
X129519069Y-99340000D01*
X104557254Y-99340000D01*
X104557216Y-99309601D01*
X104708747Y-99255919D01*
X104846157Y-99182472D01*
X104923792Y-98933397D01*
X104556287Y-98565892D01*
X104555838Y-98206233D01*
X105103397Y-98753792D01*
X105352472Y-98676157D01*
X105478371Y-98412117D01*
X105550339Y-98128589D01*
X105565611Y-97836469D01*
X105536608Y-97636624D01*
X105914250Y-97635000D01*
X106073000Y-97476250D01*
X106073000Y-96127000D01*
X104723750Y-96127000D01*
X104565000Y-96285750D01*
X104564091Y-96497054D01*
X104555586Y-96494895D01*
X104557094Y-95288269D01*
X104563159Y-95286174D01*
X104565000Y-95714250D01*
X104723750Y-95873000D01*
X106073000Y-95873000D01*
X106073000Y-95853000D01*
X106327000Y-95853000D01*
X106327000Y-95873000D01*
X106347000Y-95873000D01*
X106347000Y-96127000D01*
X106327000Y-96127000D01*
X106327000Y-97476250D01*
X106485750Y-97635000D01*
X107200000Y-97638072D01*
X107324482Y-97625812D01*
X107444180Y-97589502D01*
X107554494Y-97530537D01*
X107651185Y-97451185D01*
X107730537Y-97354494D01*
X107755191Y-97308370D01*
X107965537Y-97448918D01*
X108263088Y-97572168D01*
X108578967Y-97635000D01*
X108901033Y-97635000D01*
X109216912Y-97572168D01*
X109514463Y-97448918D01*
X109782252Y-97269987D01*
X110009987Y-97042252D01*
X110188918Y-96774463D01*
X110312168Y-96476912D01*
X110375000Y-96161033D01*
X110375000Y-95838967D01*
X110312168Y-95523088D01*
X110188918Y-95225537D01*
X110009987Y-94957748D01*
X109782252Y-94730013D01*
X109755722Y-94712286D01*
X109900000Y-94713072D01*
X110024482Y-94700812D01*
X110144180Y-94664502D01*
X110215085Y-94626602D01*
X110499496Y-94911012D01*
X110523294Y-94940011D01*
X110639019Y-95034984D01*
X110771048Y-95105556D01*
X110914309Y-95149013D01*
X111025962Y-95160010D01*
X111025971Y-95160010D01*
X111063294Y-95163686D01*
X111100617Y-95160010D01*
X115262668Y-95160010D01*
X115299990Y-95163686D01*
X115337312Y-95160010D01*
X115337323Y-95160010D01*
X115448976Y-95149013D01*
X115592237Y-95105556D01*
X115724266Y-95034984D01*
X115839991Y-94940011D01*
X115863794Y-94911007D01*
X116126460Y-94648341D01*
X116258890Y-94688513D01*
X116550000Y-94717185D01*
X116841111Y-94688513D01*
X117121034Y-94603599D01*
X117379014Y-94465706D01*
X117605134Y-94280134D01*
X117790706Y-94054013D01*
X117800000Y-94036626D01*
X117809294Y-94054014D01*
X117994866Y-94280134D01*
X118220987Y-94465706D01*
X118478967Y-94603599D01*
X118758890Y-94688513D01*
X119050000Y-94717185D01*
X119341111Y-94688513D01*
X119621034Y-94603599D01*
X119879014Y-94465706D01*
X120105134Y-94280134D01*
X120290706Y-94054013D01*
X120300000Y-94036626D01*
X120309294Y-94054014D01*
X120494866Y-94280134D01*
X120720987Y-94465706D01*
X120978967Y-94603599D01*
X121258890Y-94688513D01*
X121550000Y-94717185D01*
X121841111Y-94688513D01*
X122121034Y-94603599D01*
X122379014Y-94465706D01*
X122605134Y-94280134D01*
X122790706Y-94054013D01*
X122800000Y-94036626D01*
X122809294Y-94054014D01*
X122994866Y-94280134D01*
X123220987Y-94465706D01*
X123478967Y-94603599D01*
X123758890Y-94688513D01*
X124050000Y-94717185D01*
X124341111Y-94688513D01*
X124621034Y-94603599D01*
X124879014Y-94465706D01*
X125105134Y-94280134D01*
X125290706Y-94054013D01*
X125300000Y-94036626D01*
X125309294Y-94054014D01*
X125494866Y-94280134D01*
X125720987Y-94465706D01*
X125978967Y-94603599D01*
X126258890Y-94688513D01*
X126550000Y-94717185D01*
X126841111Y-94688513D01*
X127121034Y-94603599D01*
X127379014Y-94465706D01*
X127605134Y-94280134D01*
X127790706Y-94054013D01*
X127928599Y-93796033D01*
X128013513Y-93516110D01*
X128035000Y-93297949D01*
X128035000Y-93002050D01*
X128013513Y-92783889D01*
X127928599Y-92503966D01*
X127790706Y-92245986D01*
X127605134Y-92019866D01*
X127379013Y-91834294D01*
X127121033Y-91696401D01*
X126841110Y-91611487D01*
X126550000Y-91582815D01*
X126258889Y-91611487D01*
X126126461Y-91651659D01*
X125463803Y-90989002D01*
X125440001Y-90959999D01*
X125324276Y-90865026D01*
X125192247Y-90794454D01*
X125048986Y-90750997D01*
X124937333Y-90740000D01*
X124937322Y-90740000D01*
X124900000Y-90736324D01*
X124862678Y-90740000D01*
X123860000Y-90740000D01*
X123860000Y-90714801D01*
X124214802Y-90360000D01*
X124662678Y-90360000D01*
X124700000Y-90363676D01*
X124737322Y-90360000D01*
X124737333Y-90360000D01*
X124848986Y-90349003D01*
X124992247Y-90305546D01*
X125124276Y-90234974D01*
X125240001Y-90140001D01*
X125263803Y-90110998D01*
X126036014Y-89338787D01*
X126065013Y-89314989D01*
X126159986Y-89199264D01*
X126230558Y-89067235D01*
X126274015Y-88923974D01*
X126285012Y-88812321D01*
X126285012Y-88812312D01*
X126288688Y-88774989D01*
X126285012Y-88737666D01*
X126285012Y-85125921D01*
X126288688Y-85088598D01*
X126285012Y-85051275D01*
X126285012Y-85051266D01*
X126274015Y-84939613D01*
X126230558Y-84796352D01*
X126159986Y-84664323D01*
X126065013Y-84548598D01*
X126036015Y-84524800D01*
X125960000Y-84448785D01*
X125960000Y-73522325D01*
X125963676Y-73485000D01*
X125960000Y-73447675D01*
X125960000Y-73447667D01*
X125949003Y-73336014D01*
X125905546Y-73192753D01*
X125834974Y-73060724D01*
X125740001Y-72944999D01*
X125710998Y-72921197D01*
X125563804Y-72774003D01*
X125540001Y-72744999D01*
X125424276Y-72650026D01*
X125366770Y-72619288D01*
X125375812Y-72589482D01*
X125388072Y-72465000D01*
X125388072Y-71565000D01*
X125375812Y-71440518D01*
X125357454Y-71380000D01*
X125375812Y-71319482D01*
X125388072Y-71195000D01*
X125385000Y-71030750D01*
X125226250Y-70872000D01*
X123877000Y-70872000D01*
X123877000Y-70892000D01*
X123623000Y-70892000D01*
X123623000Y-70872000D01*
X122273750Y-70872000D01*
X122115000Y-71030750D01*
X122111928Y-71195000D01*
X122124188Y-71319482D01*
X122131137Y-71342389D01*
X122060724Y-71380026D01*
X121944999Y-71474999D01*
X121921196Y-71504003D01*
X121758998Y-71666201D01*
X121730000Y-71689999D01*
X121706202Y-71718997D01*
X121706201Y-71718998D01*
X121635026Y-71805724D01*
X121564454Y-71937754D01*
X121552233Y-71978044D01*
X121522073Y-72077472D01*
X121520998Y-72081015D01*
X121506324Y-72230000D01*
X121510001Y-72267332D01*
X121510000Y-72915198D01*
X121435199Y-72990000D01*
X118037322Y-72990000D01*
X117999999Y-72986324D01*
X117962676Y-72990000D01*
X117962667Y-72990000D01*
X117851014Y-73000997D01*
X117707753Y-73044454D01*
X117575724Y-73115026D01*
X117569663Y-73120000D01*
X117488996Y-73186201D01*
X117488992Y-73186205D01*
X117459999Y-73209999D01*
X117436205Y-73238993D01*
X116946860Y-73728339D01*
X116917863Y-73752136D01*
X116894065Y-73781134D01*
X116894064Y-73781135D01*
X116822889Y-73867861D01*
X116752317Y-73999891D01*
X116728844Y-74077275D01*
X116708861Y-74143151D01*
X116704549Y-74186935D01*
X116694187Y-74292137D01*
X116697864Y-74329469D01*
X116697864Y-75107000D01*
X114535750Y-75110000D01*
X114377000Y-75268750D01*
X114377000Y-78118000D01*
X114397000Y-78118000D01*
X114397000Y-78372000D01*
X114377000Y-78372000D01*
X114377000Y-81221250D01*
X114535750Y-81380000D01*
X116750000Y-81383072D01*
X116874482Y-81370812D01*
X116994180Y-81334502D01*
X117104494Y-81275537D01*
X117201185Y-81196185D01*
X117280537Y-81099494D01*
X117339502Y-80989180D01*
X117375812Y-80869482D01*
X117388072Y-80745000D01*
X117387113Y-80053618D01*
X117559802Y-80053618D01*
X117759761Y-80013844D01*
X117948119Y-79935823D01*
X118117637Y-79822555D01*
X118243892Y-79696300D01*
X118243893Y-80817716D01*
X118199955Y-80861654D01*
X118086687Y-81031172D01*
X118008666Y-81219530D01*
X117968892Y-81419489D01*
X117968892Y-81623367D01*
X118008666Y-81823326D01*
X118086687Y-82011684D01*
X118199955Y-82181202D01*
X118344118Y-82325365D01*
X118513636Y-82438633D01*
X118701994Y-82516654D01*
X118901953Y-82556428D01*
X119105831Y-82556428D01*
X119305790Y-82516654D01*
X119494148Y-82438633D01*
X119663666Y-82325365D01*
X119807829Y-82181202D01*
X119921097Y-82011684D01*
X119945244Y-81953388D01*
X119971134Y-81970687D01*
X120159492Y-82048708D01*
X120359451Y-82088482D01*
X120421589Y-82088482D01*
X121019109Y-82686003D01*
X121042907Y-82715001D01*
X121071905Y-82738799D01*
X121158631Y-82809974D01*
X121263824Y-82866201D01*
X121290661Y-82880546D01*
X121433922Y-82924003D01*
X121545575Y-82935000D01*
X121545585Y-82935000D01*
X121582908Y-82938676D01*
X121620231Y-82935000D01*
X121935198Y-82935000D01*
X121229003Y-83641196D01*
X121200000Y-83664998D01*
X121151561Y-83724022D01*
X121105027Y-83780723D01*
X121044063Y-83894778D01*
X121034455Y-83912753D01*
X120990998Y-84056014D01*
X120980001Y-84167667D01*
X120980001Y-84167677D01*
X120976325Y-84204999D01*
X120980001Y-84242322D01*
X120980001Y-86616928D01*
X120515000Y-86616928D01*
X120390518Y-86629188D01*
X120330000Y-86647546D01*
X120269482Y-86629188D01*
X120145000Y-86616928D01*
X119245000Y-86616928D01*
X119120518Y-86629188D01*
X119060000Y-86647546D01*
X118999482Y-86629188D01*
X118875000Y-86616928D01*
X117975000Y-86616928D01*
X117850518Y-86629188D01*
X117790000Y-86647546D01*
X117729482Y-86629188D01*
X117605000Y-86616928D01*
X116705000Y-86616928D01*
X116580518Y-86629188D01*
X116520000Y-86647546D01*
X116459482Y-86629188D01*
X116335000Y-86616928D01*
X115435000Y-86616928D01*
X115310518Y-86629188D01*
X115250000Y-86647546D01*
X115189482Y-86629188D01*
X115065000Y-86616928D01*
X114165000Y-86616928D01*
X114040518Y-86629188D01*
X113980000Y-86647546D01*
X113919482Y-86629188D01*
X113795000Y-86616928D01*
X112895000Y-86616928D01*
X112770518Y-86629188D01*
X112710000Y-86647546D01*
X112649482Y-86629188D01*
X112525000Y-86616928D01*
X111625000Y-86616928D01*
X111500518Y-86629188D01*
X111440000Y-86647546D01*
X111379482Y-86629188D01*
X111255000Y-86616928D01*
X110355000Y-86616928D01*
X110230518Y-86629188D01*
X110170000Y-86647546D01*
X110109482Y-86629188D01*
X109985000Y-86616928D01*
X109820750Y-86620000D01*
X109662000Y-86778750D01*
X109662000Y-88128000D01*
X109682000Y-88128000D01*
X109682000Y-88382000D01*
X109662000Y-88382000D01*
X109662000Y-89731250D01*
X109820750Y-89890000D01*
X109921315Y-89891881D01*
X109840226Y-89946063D01*
X109696063Y-90090226D01*
X109582795Y-90259744D01*
X109504774Y-90448102D01*
X109465000Y-90648061D01*
X109465000Y-90851939D01*
X109504774Y-91051898D01*
X109582795Y-91240256D01*
X109696063Y-91409774D01*
X109840226Y-91553937D01*
X109889685Y-91586984D01*
X109335750Y-91590000D01*
X109177000Y-91748750D01*
X109177000Y-93023000D01*
X109197000Y-93023000D01*
X109197000Y-93277000D01*
X109177000Y-93277000D01*
X109177000Y-93297000D01*
X108923000Y-93297000D01*
X108923000Y-93277000D01*
X108903000Y-93277000D01*
X108903000Y-93023000D01*
X108923000Y-93023000D01*
X108923000Y-92173664D01*
X108960823Y-92048976D01*
X108971820Y-91937323D01*
X108971820Y-91937314D01*
X108975496Y-91899991D01*
X108971820Y-91862668D01*
X108971820Y-89881925D01*
X109085000Y-89893072D01*
X109249250Y-89890000D01*
X109408000Y-89731250D01*
X109408000Y-88382000D01*
X109388000Y-88382000D01*
X109388000Y-88128000D01*
X109408000Y-88128000D01*
X109408000Y-86778750D01*
X109249250Y-86620000D01*
X109085000Y-86616928D01*
X108971820Y-86628075D01*
X108971820Y-86602981D01*
X110304766Y-85270036D01*
X110333764Y-85246238D01*
X110428737Y-85130513D01*
X110499309Y-84998484D01*
X110542766Y-84855223D01*
X110553763Y-84743570D01*
X110553763Y-84743561D01*
X110557439Y-84706238D01*
X110553763Y-84668915D01*
X110553763Y-84081088D01*
X110557439Y-84043763D01*
X110553763Y-84006438D01*
X110553763Y-84006430D01*
X110542766Y-83894777D01*
X110499309Y-83751516D01*
X110428737Y-83619487D01*
X110333764Y-83503762D01*
X110304767Y-83479965D01*
X109815000Y-82990199D01*
X109815000Y-80745000D01*
X111111928Y-80745000D01*
X111124188Y-80869482D01*
X111160498Y-80989180D01*
X111219463Y-81099494D01*
X111298815Y-81196185D01*
X111395506Y-81275537D01*
X111505820Y-81334502D01*
X111625518Y-81370812D01*
X111750000Y-81383072D01*
X113964250Y-81380000D01*
X114123000Y-81221250D01*
X114123000Y-78372000D01*
X111273750Y-78372000D01*
X111115000Y-78530750D01*
X111111928Y-80745000D01*
X109815000Y-80745000D01*
X109815000Y-80727322D01*
X109818676Y-80689999D01*
X109815000Y-80652676D01*
X109815000Y-80652667D01*
X109804003Y-80541014D01*
X109760546Y-80397753D01*
X109689974Y-80265724D01*
X109595001Y-80149999D01*
X109566004Y-80126202D01*
X108563804Y-79124002D01*
X108540001Y-79094999D01*
X108424276Y-79000026D01*
X108366770Y-78969288D01*
X108375812Y-78939482D01*
X108388072Y-78815000D01*
X108388072Y-77915000D01*
X108375812Y-77790518D01*
X108357454Y-77730000D01*
X108375812Y-77669482D01*
X108388072Y-77545000D01*
X108388072Y-76645000D01*
X108375812Y-76520518D01*
X108357454Y-76460000D01*
X108375812Y-76399482D01*
X108388072Y-76275000D01*
X108388072Y-75745000D01*
X111111928Y-75745000D01*
X111115000Y-77959250D01*
X111273750Y-78118000D01*
X114123000Y-78118000D01*
X114123000Y-75268750D01*
X113964250Y-75110000D01*
X111750000Y-75106928D01*
X111625518Y-75119188D01*
X111505820Y-75155498D01*
X111395506Y-75214463D01*
X111298815Y-75293815D01*
X111219463Y-75390506D01*
X111160498Y-75500820D01*
X111124188Y-75620518D01*
X111111928Y-75745000D01*
X108388072Y-75745000D01*
X108388072Y-75375000D01*
X108375812Y-75250518D01*
X108357454Y-75190000D01*
X108375812Y-75129482D01*
X108388072Y-75005000D01*
X108388072Y-74105000D01*
X108382163Y-74045000D01*
X108763544Y-74045000D01*
X108767434Y-74064558D01*
X108845455Y-74252916D01*
X108958723Y-74422434D01*
X109102886Y-74566597D01*
X109272404Y-74679865D01*
X109460762Y-74757886D01*
X109660721Y-74797660D01*
X109864599Y-74797660D01*
X110064558Y-74757886D01*
X110252916Y-74679865D01*
X110422434Y-74566597D01*
X110566597Y-74422434D01*
X110679865Y-74252916D01*
X110757886Y-74064558D01*
X110797660Y-73864599D01*
X110797660Y-73660721D01*
X110757886Y-73460762D01*
X110679865Y-73272404D01*
X110566597Y-73102886D01*
X110422434Y-72958723D01*
X110252916Y-72845455D01*
X110064558Y-72767434D01*
X109864599Y-72727660D01*
X109803873Y-72727660D01*
X109709276Y-72650026D01*
X109577247Y-72579454D01*
X109433986Y-72535997D01*
X109322333Y-72525000D01*
X109322322Y-72525000D01*
X109285000Y-72521324D01*
X109247678Y-72525000D01*
X108382163Y-72525000D01*
X108388072Y-72465000D01*
X108388072Y-71565000D01*
X108375812Y-71440518D01*
X108357454Y-71380000D01*
X108375812Y-71319482D01*
X108388072Y-71195000D01*
X108385000Y-71030750D01*
X108226250Y-70872000D01*
X106877000Y-70872000D01*
X106877000Y-70892000D01*
X106623000Y-70892000D01*
X106623000Y-70872000D01*
X106603000Y-70872000D01*
X106603000Y-70618000D01*
X106623000Y-70618000D01*
X106623000Y-70598000D01*
X106877000Y-70598000D01*
X106877000Y-70618000D01*
X108226250Y-70618000D01*
X108385000Y-70459250D01*
X108388072Y-70295000D01*
X108375812Y-70170518D01*
X108339502Y-70050820D01*
X108280537Y-69940506D01*
X108201185Y-69843815D01*
X108104494Y-69764463D01*
X108096144Y-69760000D01*
X122403856Y-69760000D01*
X122395506Y-69764463D01*
X122298815Y-69843815D01*
X122219463Y-69940506D01*
X122160498Y-70050820D01*
X122124188Y-70170518D01*
X122111928Y-70295000D01*
X122115000Y-70459250D01*
X122273750Y-70618000D01*
X123623000Y-70618000D01*
X123623000Y-70598000D01*
X123877000Y-70598000D01*
X123877000Y-70618000D01*
X125226250Y-70618000D01*
X125385000Y-70459250D01*
X125388072Y-70295000D01*
X125375812Y-70170518D01*
X125339502Y-70050820D01*
X125280537Y-69940506D01*
X125201185Y-69843815D01*
X125104494Y-69764463D01*
X125096144Y-69760000D01*
X129217581Y-69760000D01*
X129250000Y-69763193D01*
X129282419Y-69760000D01*
X129379383Y-69750450D01*
X129503793Y-69712710D01*
X129618450Y-69651425D01*
X129718948Y-69568948D01*
X129801425Y-69468450D01*
X129862710Y-69353793D01*
X129900450Y-69229383D01*
X129913193Y-69100000D01*
X129910000Y-69067581D01*
X129910000Y-67769608D01*
X129976458Y-67703150D01*
X130252627Y-68121118D01*
%TA.AperFunction,Conductor*%
D34*
G36*
X130252627Y-68121118D02*
G01*
X130797557Y-68411649D01*
X131388696Y-68590287D01*
X132003328Y-68650168D01*
X132617831Y-68588990D01*
X133208592Y-68409103D01*
X133747373Y-68121118D01*
X133840000Y-67980931D01*
X133840000Y-75115000D01*
X130410000Y-75115000D01*
X130410000Y-88685000D01*
X133840001Y-88685000D01*
X133840001Y-95019070D01*
X133747373Y-94878882D01*
X133202443Y-94588351D01*
X132611304Y-94409713D01*
X131996672Y-94349832D01*
X131382169Y-94411010D01*
X130791408Y-94590897D01*
X130252627Y-94878882D01*
X129976457Y-95296852D01*
X132000000Y-97320395D01*
X132014143Y-97306253D01*
X132193748Y-97485858D01*
X132179605Y-97500000D01*
X132193748Y-97514143D01*
X132014143Y-97693748D01*
X132000000Y-97679605D01*
X131985858Y-97693748D01*
X131806253Y-97514143D01*
X131820395Y-97500000D01*
X129796852Y-95476457D01*
X129378882Y-95752627D01*
X129088351Y-96297557D01*
X128909713Y-96888696D01*
X128849832Y-97503328D01*
X128911010Y-98117831D01*
X129090897Y-98708592D01*
X129378882Y-99247373D01*
X129519069Y-99340000D01*
X104557254Y-99340000D01*
X104557216Y-99309601D01*
X104708747Y-99255919D01*
X104846157Y-99182472D01*
X104923792Y-98933397D01*
X104556287Y-98565892D01*
X104555838Y-98206233D01*
X105103397Y-98753792D01*
X105352472Y-98676157D01*
X105478371Y-98412117D01*
X105550339Y-98128589D01*
X105565611Y-97836469D01*
X105536608Y-97636624D01*
X105914250Y-97635000D01*
X106073000Y-97476250D01*
X106073000Y-96127000D01*
X104723750Y-96127000D01*
X104565000Y-96285750D01*
X104564091Y-96497054D01*
X104555586Y-96494895D01*
X104557094Y-95288269D01*
X104563159Y-95286174D01*
X104565000Y-95714250D01*
X104723750Y-95873000D01*
X106073000Y-95873000D01*
X106073000Y-95853000D01*
X106327000Y-95853000D01*
X106327000Y-95873000D01*
X106347000Y-95873000D01*
X106347000Y-96127000D01*
X106327000Y-96127000D01*
X106327000Y-97476250D01*
X106485750Y-97635000D01*
X107200000Y-97638072D01*
X107324482Y-97625812D01*
X107444180Y-97589502D01*
X107554494Y-97530537D01*
X107651185Y-97451185D01*
X107730537Y-97354494D01*
X107755191Y-97308370D01*
X107965537Y-97448918D01*
X108263088Y-97572168D01*
X108578967Y-97635000D01*
X108901033Y-97635000D01*
X109216912Y-97572168D01*
X109514463Y-97448918D01*
X109782252Y-97269987D01*
X110009987Y-97042252D01*
X110188918Y-96774463D01*
X110312168Y-96476912D01*
X110375000Y-96161033D01*
X110375000Y-95838967D01*
X110312168Y-95523088D01*
X110188918Y-95225537D01*
X110009987Y-94957748D01*
X109782252Y-94730013D01*
X109755722Y-94712286D01*
X109900000Y-94713072D01*
X110024482Y-94700812D01*
X110144180Y-94664502D01*
X110215085Y-94626602D01*
X110499496Y-94911012D01*
X110523294Y-94940011D01*
X110639019Y-95034984D01*
X110771048Y-95105556D01*
X110914309Y-95149013D01*
X111025962Y-95160010D01*
X111025971Y-95160010D01*
X111063294Y-95163686D01*
X111100617Y-95160010D01*
X115262668Y-95160010D01*
X115299990Y-95163686D01*
X115337312Y-95160010D01*
X115337323Y-95160010D01*
X115448976Y-95149013D01*
X115592237Y-95105556D01*
X115724266Y-95034984D01*
X115839991Y-94940011D01*
X115863794Y-94911007D01*
X116126460Y-94648341D01*
X116258890Y-94688513D01*
X116550000Y-94717185D01*
X116841111Y-94688513D01*
X117121034Y-94603599D01*
X117379014Y-94465706D01*
X117605134Y-94280134D01*
X117790706Y-94054013D01*
X117800000Y-94036626D01*
X117809294Y-94054014D01*
X117994866Y-94280134D01*
X118220987Y-94465706D01*
X118478967Y-94603599D01*
X118758890Y-94688513D01*
X119050000Y-94717185D01*
X119341111Y-94688513D01*
X119621034Y-94603599D01*
X119879014Y-94465706D01*
X120105134Y-94280134D01*
X120290706Y-94054013D01*
X120300000Y-94036626D01*
X120309294Y-94054014D01*
X120494866Y-94280134D01*
X120720987Y-94465706D01*
X120978967Y-94603599D01*
X121258890Y-94688513D01*
X121550000Y-94717185D01*
X121841111Y-94688513D01*
X122121034Y-94603599D01*
X122379014Y-94465706D01*
X122605134Y-94280134D01*
X122790706Y-94054013D01*
X122800000Y-94036626D01*
X122809294Y-94054014D01*
X122994866Y-94280134D01*
X123220987Y-94465706D01*
X123478967Y-94603599D01*
X123758890Y-94688513D01*
X124050000Y-94717185D01*
X124341111Y-94688513D01*
X124621034Y-94603599D01*
X124879014Y-94465706D01*
X125105134Y-94280134D01*
X125290706Y-94054013D01*
X125300000Y-94036626D01*
X125309294Y-94054014D01*
X125494866Y-94280134D01*
X125720987Y-94465706D01*
X125978967Y-94603599D01*
X126258890Y-94688513D01*
X126550000Y-94717185D01*
X126841111Y-94688513D01*
X127121034Y-94603599D01*
X127379014Y-94465706D01*
X127605134Y-94280134D01*
X127790706Y-94054013D01*
X127928599Y-93796033D01*
X128013513Y-93516110D01*
X128035000Y-93297949D01*
X128035000Y-93002050D01*
X128013513Y-92783889D01*
X127928599Y-92503966D01*
X127790706Y-92245986D01*
X127605134Y-92019866D01*
X127379013Y-91834294D01*
X127121033Y-91696401D01*
X126841110Y-91611487D01*
X126550000Y-91582815D01*
X126258889Y-91611487D01*
X126126461Y-91651659D01*
X125463803Y-90989002D01*
X125440001Y-90959999D01*
X125324276Y-90865026D01*
X125192247Y-90794454D01*
X125048986Y-90750997D01*
X124937333Y-90740000D01*
X124937322Y-90740000D01*
X124900000Y-90736324D01*
X124862678Y-90740000D01*
X123860000Y-90740000D01*
X123860000Y-90714801D01*
X124214802Y-90360000D01*
X124662678Y-90360000D01*
X124700000Y-90363676D01*
X124737322Y-90360000D01*
X124737333Y-90360000D01*
X124848986Y-90349003D01*
X124992247Y-90305546D01*
X125124276Y-90234974D01*
X125240001Y-90140001D01*
X125263803Y-90110998D01*
X126036014Y-89338787D01*
X126065013Y-89314989D01*
X126159986Y-89199264D01*
X126230558Y-89067235D01*
X126274015Y-88923974D01*
X126285012Y-88812321D01*
X126285012Y-88812312D01*
X126288688Y-88774989D01*
X126285012Y-88737666D01*
X126285012Y-85125921D01*
X126288688Y-85088598D01*
X126285012Y-85051275D01*
X126285012Y-85051266D01*
X126274015Y-84939613D01*
X126230558Y-84796352D01*
X126159986Y-84664323D01*
X126065013Y-84548598D01*
X126036015Y-84524800D01*
X125960000Y-84448785D01*
X125960000Y-73522325D01*
X125963676Y-73485000D01*
X125960000Y-73447675D01*
X125960000Y-73447667D01*
X125949003Y-73336014D01*
X125905546Y-73192753D01*
X125834974Y-73060724D01*
X125740001Y-72944999D01*
X125710998Y-72921197D01*
X125563804Y-72774003D01*
X125540001Y-72744999D01*
X125424276Y-72650026D01*
X125366770Y-72619288D01*
X125375812Y-72589482D01*
X125388072Y-72465000D01*
X125388072Y-71565000D01*
X125375812Y-71440518D01*
X125357454Y-71380000D01*
X125375812Y-71319482D01*
X125388072Y-71195000D01*
X125385000Y-71030750D01*
X125226250Y-70872000D01*
X123877000Y-70872000D01*
X123877000Y-70892000D01*
X123623000Y-70892000D01*
X123623000Y-70872000D01*
X122273750Y-70872000D01*
X122115000Y-71030750D01*
X122111928Y-71195000D01*
X122124188Y-71319482D01*
X122131137Y-71342389D01*
X122060724Y-71380026D01*
X121944999Y-71474999D01*
X121921196Y-71504003D01*
X121758998Y-71666201D01*
X121730000Y-71689999D01*
X121706202Y-71718997D01*
X121706201Y-71718998D01*
X121635026Y-71805724D01*
X121564454Y-71937754D01*
X121552233Y-71978044D01*
X121522073Y-72077472D01*
X121520998Y-72081015D01*
X121506324Y-72230000D01*
X121510001Y-72267332D01*
X121510000Y-72915198D01*
X121435199Y-72990000D01*
X118037322Y-72990000D01*
X117999999Y-72986324D01*
X117962676Y-72990000D01*
X117962667Y-72990000D01*
X117851014Y-73000997D01*
X117707753Y-73044454D01*
X117575724Y-73115026D01*
X117569663Y-73120000D01*
X117488996Y-73186201D01*
X117488992Y-73186205D01*
X117459999Y-73209999D01*
X117436205Y-73238993D01*
X116946860Y-73728339D01*
X116917863Y-73752136D01*
X116894065Y-73781134D01*
X116894064Y-73781135D01*
X116822889Y-73867861D01*
X116752317Y-73999891D01*
X116728844Y-74077275D01*
X116708861Y-74143151D01*
X116704549Y-74186935D01*
X116694187Y-74292137D01*
X116697864Y-74329469D01*
X116697864Y-75107000D01*
X114535750Y-75110000D01*
X114377000Y-75268750D01*
X114377000Y-78118000D01*
X114397000Y-78118000D01*
X114397000Y-78372000D01*
X114377000Y-78372000D01*
X114377000Y-81221250D01*
X114535750Y-81380000D01*
X116750000Y-81383072D01*
X116874482Y-81370812D01*
X116994180Y-81334502D01*
X117104494Y-81275537D01*
X117201185Y-81196185D01*
X117280537Y-81099494D01*
X117339502Y-80989180D01*
X117375812Y-80869482D01*
X117388072Y-80745000D01*
X117387113Y-80053618D01*
X117559802Y-80053618D01*
X117759761Y-80013844D01*
X117948119Y-79935823D01*
X118117637Y-79822555D01*
X118243892Y-79696300D01*
X118243893Y-80817716D01*
X118199955Y-80861654D01*
X118086687Y-81031172D01*
X118008666Y-81219530D01*
X117968892Y-81419489D01*
X117968892Y-81623367D01*
X118008666Y-81823326D01*
X118086687Y-82011684D01*
X118199955Y-82181202D01*
X118344118Y-82325365D01*
X118513636Y-82438633D01*
X118701994Y-82516654D01*
X118901953Y-82556428D01*
X119105831Y-82556428D01*
X119305790Y-82516654D01*
X119494148Y-82438633D01*
X119663666Y-82325365D01*
X119807829Y-82181202D01*
X119921097Y-82011684D01*
X119945244Y-81953388D01*
X119971134Y-81970687D01*
X120159492Y-82048708D01*
X120359451Y-82088482D01*
X120421589Y-82088482D01*
X121019109Y-82686003D01*
X121042907Y-82715001D01*
X121071905Y-82738799D01*
X121158631Y-82809974D01*
X121263824Y-82866201D01*
X121290661Y-82880546D01*
X121433922Y-82924003D01*
X121545575Y-82935000D01*
X121545585Y-82935000D01*
X121582908Y-82938676D01*
X121620231Y-82935000D01*
X121935198Y-82935000D01*
X121229003Y-83641196D01*
X121200000Y-83664998D01*
X121151561Y-83724022D01*
X121105027Y-83780723D01*
X121044063Y-83894778D01*
X121034455Y-83912753D01*
X120990998Y-84056014D01*
X120980001Y-84167667D01*
X120980001Y-84167677D01*
X120976325Y-84204999D01*
X120980001Y-84242322D01*
X120980001Y-86616928D01*
X120515000Y-86616928D01*
X120390518Y-86629188D01*
X120330000Y-86647546D01*
X120269482Y-86629188D01*
X120145000Y-86616928D01*
X119245000Y-86616928D01*
X119120518Y-86629188D01*
X119060000Y-86647546D01*
X118999482Y-86629188D01*
X118875000Y-86616928D01*
X117975000Y-86616928D01*
X117850518Y-86629188D01*
X117790000Y-86647546D01*
X117729482Y-86629188D01*
X117605000Y-86616928D01*
X116705000Y-86616928D01*
X116580518Y-86629188D01*
X116520000Y-86647546D01*
X116459482Y-86629188D01*
X116335000Y-86616928D01*
X115435000Y-86616928D01*
X115310518Y-86629188D01*
X115250000Y-86647546D01*
X115189482Y-86629188D01*
X115065000Y-86616928D01*
X114165000Y-86616928D01*
X114040518Y-86629188D01*
X113980000Y-86647546D01*
X113919482Y-86629188D01*
X113795000Y-86616928D01*
X112895000Y-86616928D01*
X112770518Y-86629188D01*
X112710000Y-86647546D01*
X112649482Y-86629188D01*
X112525000Y-86616928D01*
X111625000Y-86616928D01*
X111500518Y-86629188D01*
X111440000Y-86647546D01*
X111379482Y-86629188D01*
X111255000Y-86616928D01*
X110355000Y-86616928D01*
X110230518Y-86629188D01*
X110170000Y-86647546D01*
X110109482Y-86629188D01*
X109985000Y-86616928D01*
X109820750Y-86620000D01*
X109662000Y-86778750D01*
X109662000Y-88128000D01*
X109682000Y-88128000D01*
X109682000Y-88382000D01*
X109662000Y-88382000D01*
X109662000Y-89731250D01*
X109820750Y-89890000D01*
X109921315Y-89891881D01*
X109840226Y-89946063D01*
X109696063Y-90090226D01*
X109582795Y-90259744D01*
X109504774Y-90448102D01*
X109465000Y-90648061D01*
X109465000Y-90851939D01*
X109504774Y-91051898D01*
X109582795Y-91240256D01*
X109696063Y-91409774D01*
X109840226Y-91553937D01*
X109889685Y-91586984D01*
X109335750Y-91590000D01*
X109177000Y-91748750D01*
X109177000Y-93023000D01*
X109197000Y-93023000D01*
X109197000Y-93277000D01*
X109177000Y-93277000D01*
X109177000Y-93297000D01*
X108923000Y-93297000D01*
X108923000Y-93277000D01*
X108903000Y-93277000D01*
X108903000Y-93023000D01*
X108923000Y-93023000D01*
X108923000Y-92173664D01*
X108960823Y-92048976D01*
X108971820Y-91937323D01*
X108971820Y-91937314D01*
X108975496Y-91899991D01*
X108971820Y-91862668D01*
X108971820Y-89881925D01*
X109085000Y-89893072D01*
X109249250Y-89890000D01*
X109408000Y-89731250D01*
X109408000Y-88382000D01*
X109388000Y-88382000D01*
X109388000Y-88128000D01*
X109408000Y-88128000D01*
X109408000Y-86778750D01*
X109249250Y-86620000D01*
X109085000Y-86616928D01*
X108971820Y-86628075D01*
X108971820Y-86602981D01*
X110304766Y-85270036D01*
X110333764Y-85246238D01*
X110428737Y-85130513D01*
X110499309Y-84998484D01*
X110542766Y-84855223D01*
X110553763Y-84743570D01*
X110553763Y-84743561D01*
X110557439Y-84706238D01*
X110553763Y-84668915D01*
X110553763Y-84081088D01*
X110557439Y-84043763D01*
X110553763Y-84006438D01*
X110553763Y-84006430D01*
X110542766Y-83894777D01*
X110499309Y-83751516D01*
X110428737Y-83619487D01*
X110333764Y-83503762D01*
X110304767Y-83479965D01*
X109815000Y-82990199D01*
X109815000Y-80745000D01*
X111111928Y-80745000D01*
X111124188Y-80869482D01*
X111160498Y-80989180D01*
X111219463Y-81099494D01*
X111298815Y-81196185D01*
X111395506Y-81275537D01*
X111505820Y-81334502D01*
X111625518Y-81370812D01*
X111750000Y-81383072D01*
X113964250Y-81380000D01*
X114123000Y-81221250D01*
X114123000Y-78372000D01*
X111273750Y-78372000D01*
X111115000Y-78530750D01*
X111111928Y-80745000D01*
X109815000Y-80745000D01*
X109815000Y-80727322D01*
X109818676Y-80689999D01*
X109815000Y-80652676D01*
X109815000Y-80652667D01*
X109804003Y-80541014D01*
X109760546Y-80397753D01*
X109689974Y-80265724D01*
X109595001Y-80149999D01*
X109566004Y-80126202D01*
X108563804Y-79124002D01*
X108540001Y-79094999D01*
X108424276Y-79000026D01*
X108366770Y-78969288D01*
X108375812Y-78939482D01*
X108388072Y-78815000D01*
X108388072Y-77915000D01*
X108375812Y-77790518D01*
X108357454Y-77730000D01*
X108375812Y-77669482D01*
X108388072Y-77545000D01*
X108388072Y-76645000D01*
X108375812Y-76520518D01*
X108357454Y-76460000D01*
X108375812Y-76399482D01*
X108388072Y-76275000D01*
X108388072Y-75745000D01*
X111111928Y-75745000D01*
X111115000Y-77959250D01*
X111273750Y-78118000D01*
X114123000Y-78118000D01*
X114123000Y-75268750D01*
X113964250Y-75110000D01*
X111750000Y-75106928D01*
X111625518Y-75119188D01*
X111505820Y-75155498D01*
X111395506Y-75214463D01*
X111298815Y-75293815D01*
X111219463Y-75390506D01*
X111160498Y-75500820D01*
X111124188Y-75620518D01*
X111111928Y-75745000D01*
X108388072Y-75745000D01*
X108388072Y-75375000D01*
X108375812Y-75250518D01*
X108357454Y-75190000D01*
X108375812Y-75129482D01*
X108388072Y-75005000D01*
X108388072Y-74105000D01*
X108382163Y-74045000D01*
X108763544Y-74045000D01*
X108767434Y-74064558D01*
X108845455Y-74252916D01*
X108958723Y-74422434D01*
X109102886Y-74566597D01*
X109272404Y-74679865D01*
X109460762Y-74757886D01*
X109660721Y-74797660D01*
X109864599Y-74797660D01*
X110064558Y-74757886D01*
X110252916Y-74679865D01*
X110422434Y-74566597D01*
X110566597Y-74422434D01*
X110679865Y-74252916D01*
X110757886Y-74064558D01*
X110797660Y-73864599D01*
X110797660Y-73660721D01*
X110757886Y-73460762D01*
X110679865Y-73272404D01*
X110566597Y-73102886D01*
X110422434Y-72958723D01*
X110252916Y-72845455D01*
X110064558Y-72767434D01*
X109864599Y-72727660D01*
X109803873Y-72727660D01*
X109709276Y-72650026D01*
X109577247Y-72579454D01*
X109433986Y-72535997D01*
X109322333Y-72525000D01*
X109322322Y-72525000D01*
X109285000Y-72521324D01*
X109247678Y-72525000D01*
X108382163Y-72525000D01*
X108388072Y-72465000D01*
X108388072Y-71565000D01*
X108375812Y-71440518D01*
X108357454Y-71380000D01*
X108375812Y-71319482D01*
X108388072Y-71195000D01*
X108385000Y-71030750D01*
X108226250Y-70872000D01*
X106877000Y-70872000D01*
X106877000Y-70892000D01*
X106623000Y-70892000D01*
X106623000Y-70872000D01*
X106603000Y-70872000D01*
X106603000Y-70618000D01*
X106623000Y-70618000D01*
X106623000Y-70598000D01*
X106877000Y-70598000D01*
X106877000Y-70618000D01*
X108226250Y-70618000D01*
X108385000Y-70459250D01*
X108388072Y-70295000D01*
X108375812Y-70170518D01*
X108339502Y-70050820D01*
X108280537Y-69940506D01*
X108201185Y-69843815D01*
X108104494Y-69764463D01*
X108096144Y-69760000D01*
X122403856Y-69760000D01*
X122395506Y-69764463D01*
X122298815Y-69843815D01*
X122219463Y-69940506D01*
X122160498Y-70050820D01*
X122124188Y-70170518D01*
X122111928Y-70295000D01*
X122115000Y-70459250D01*
X122273750Y-70618000D01*
X123623000Y-70618000D01*
X123623000Y-70598000D01*
X123877000Y-70598000D01*
X123877000Y-70618000D01*
X125226250Y-70618000D01*
X125385000Y-70459250D01*
X125388072Y-70295000D01*
X125375812Y-70170518D01*
X125339502Y-70050820D01*
X125280537Y-69940506D01*
X125201185Y-69843815D01*
X125104494Y-69764463D01*
X125096144Y-69760000D01*
X129217581Y-69760000D01*
X129250000Y-69763193D01*
X129282419Y-69760000D01*
X129379383Y-69750450D01*
X129503793Y-69712710D01*
X129618450Y-69651425D01*
X129718948Y-69568948D01*
X129801425Y-69468450D01*
X129862710Y-69353793D01*
X129900450Y-69229383D01*
X129913193Y-69100000D01*
X129910000Y-69067581D01*
X129910000Y-67769608D01*
X129976458Y-67703150D01*
X130252627Y-68121118D01*
G37*
%TD.AperFunction*%
D33*
X100590001Y-69067571D02*
X100586807Y-69100000D01*
X100599550Y-69229383D01*
X100637290Y-69353793D01*
X100698575Y-69468450D01*
X100781052Y-69568948D01*
X100811757Y-69594147D01*
X100733368Y-69646525D01*
X100526525Y-69853368D01*
X100410689Y-70026729D01*
X100168397Y-69951208D01*
X99319605Y-70800000D01*
X100168397Y-71648792D01*
X100410689Y-71573271D01*
X100526525Y-71746632D01*
X100733368Y-71953475D01*
X100976589Y-72115990D01*
X101246842Y-72227932D01*
X101533740Y-72285000D01*
X101826260Y-72285000D01*
X101929634Y-72264437D01*
X103560000Y-73894805D01*
X103559999Y-81742679D01*
X103556323Y-81780001D01*
X103559999Y-81817323D01*
X103559999Y-81817333D01*
X103570996Y-81928986D01*
X103612258Y-82065010D01*
X103614453Y-82072247D01*
X103685025Y-82204277D01*
X103706591Y-82230555D01*
X103779998Y-82320002D01*
X103809002Y-82343805D01*
X105111928Y-83646732D01*
X105111928Y-83895000D01*
X105124188Y-84019482D01*
X105133230Y-84049288D01*
X105075724Y-84080026D01*
X105063496Y-84090061D01*
X105061936Y-84088781D01*
X104679385Y-83706230D01*
X104655582Y-83677226D01*
X104539857Y-83582253D01*
X104407828Y-83511681D01*
X104264567Y-83468224D01*
X104152914Y-83457227D01*
X104152903Y-83457227D01*
X104115581Y-83453551D01*
X104095000Y-83455578D01*
X104095000Y-83283740D01*
X104037932Y-82996842D01*
X103925990Y-82726589D01*
X103763475Y-82483368D01*
X103556632Y-82276525D01*
X103313411Y-82114010D01*
X103043158Y-82002068D01*
X102756260Y-81945000D01*
X102463740Y-81945000D01*
X102243592Y-81988790D01*
X101083804Y-80829003D01*
X101060001Y-80799999D01*
X100944276Y-80705026D01*
X100812247Y-80634454D01*
X100668986Y-80590997D01*
X100557333Y-80580000D01*
X100557322Y-80580000D01*
X100520000Y-80576324D01*
X100482678Y-80580000D01*
X100274801Y-80580000D01*
X100273803Y-80579002D01*
X100273799Y-80578997D01*
X100250001Y-80549999D01*
X100221003Y-80526201D01*
X98885002Y-79190201D01*
X98885002Y-77389323D01*
X98888678Y-77351998D01*
X98885002Y-77314673D01*
X98885002Y-77314665D01*
X98874005Y-77203012D01*
X98830548Y-77059751D01*
X98759976Y-76927722D01*
X98665003Y-76811997D01*
X98636006Y-76788200D01*
X95216808Y-73369003D01*
X95193005Y-73339999D01*
X95077280Y-73245026D01*
X94945251Y-73174454D01*
X94801990Y-73130997D01*
X94690337Y-73120000D01*
X94690326Y-73120000D01*
X94653004Y-73116324D01*
X94615682Y-73120000D01*
X94334801Y-73120000D01*
X95577347Y-71877454D01*
X95653368Y-71953475D01*
X95896589Y-72115990D01*
X96166842Y-72227932D01*
X96453740Y-72285000D01*
X96746260Y-72285000D01*
X97033158Y-72227932D01*
X97303411Y-72115990D01*
X97546632Y-71953475D01*
X97671710Y-71828397D01*
X98291208Y-71828397D01*
X98368843Y-72077472D01*
X98632883Y-72203371D01*
X98916411Y-72275339D01*
X99208531Y-72290611D01*
X99498019Y-72248599D01*
X99773747Y-72150919D01*
X99911157Y-72077472D01*
X99988792Y-71828397D01*
X99140000Y-70979605D01*
X98291208Y-71828397D01*
X97671710Y-71828397D01*
X97753475Y-71746632D01*
X97869311Y-71573271D01*
X98111603Y-71648792D01*
X98960395Y-70800000D01*
X98111603Y-69951208D01*
X97869311Y-70026729D01*
X97753475Y-69853368D01*
X97671710Y-69771603D01*
X98291208Y-69771603D01*
X99140000Y-70620395D01*
X99988792Y-69771603D01*
X99911157Y-69522528D01*
X99647117Y-69396629D01*
X99363589Y-69324661D01*
X99071469Y-69309389D01*
X98781981Y-69351401D01*
X98506253Y-69449081D01*
X98368843Y-69522528D01*
X98291208Y-69771603D01*
X97671710Y-69771603D01*
X97546632Y-69646525D01*
X97303411Y-69484010D01*
X97033158Y-69372068D01*
X96746260Y-69315000D01*
X96453740Y-69315000D01*
X96166842Y-69372068D01*
X95896589Y-69484010D01*
X95653368Y-69646525D01*
X95446525Y-69853368D01*
X95284150Y-70096380D01*
X95155724Y-70165026D01*
X95039999Y-70259999D01*
X95016201Y-70288997D01*
X92866408Y-72438791D01*
X92646260Y-72395000D01*
X92353740Y-72395000D01*
X92066842Y-72452068D01*
X91796589Y-72564010D01*
X91553368Y-72726525D01*
X91346525Y-72933368D01*
X91184010Y-73176589D01*
X91072068Y-73446842D01*
X91015000Y-73733740D01*
X91015000Y-74026260D01*
X91072068Y-74313158D01*
X91184010Y-74583411D01*
X91346525Y-74826632D01*
X91553368Y-75033475D01*
X91726729Y-75149311D01*
X91651208Y-75391603D01*
X92500000Y-76240395D01*
X93348792Y-75391603D01*
X93273271Y-75149311D01*
X93446632Y-75033475D01*
X93653475Y-74826632D01*
X93778178Y-74640000D01*
X94338203Y-74640000D01*
X97365002Y-77666800D01*
X97365003Y-79467670D01*
X97361326Y-79505002D01*
X97365003Y-79542335D01*
X97376000Y-79653988D01*
X97383403Y-79678392D01*
X97419456Y-79797248D01*
X97490028Y-79929278D01*
X97543987Y-79995026D01*
X97585002Y-80045003D01*
X97614000Y-80068801D01*
X98635198Y-81090000D01*
X98245999Y-81479200D01*
X98217001Y-81502998D01*
X98193203Y-81531996D01*
X98193202Y-81531997D01*
X98122027Y-81618723D01*
X98051455Y-81750753D01*
X98031259Y-81817333D01*
X98012250Y-81880001D01*
X98007999Y-81894014D01*
X97996016Y-82015678D01*
X97963158Y-82002068D01*
X97676260Y-81945000D01*
X97383740Y-81945000D01*
X97096842Y-82002068D01*
X96826589Y-82114010D01*
X96583368Y-82276525D01*
X96376525Y-82483368D01*
X96260000Y-82657760D01*
X96143475Y-82483368D01*
X95936632Y-82276525D01*
X95693411Y-82114010D01*
X95423158Y-82002068D01*
X95136260Y-81945000D01*
X94843740Y-81945000D01*
X94556842Y-82002068D01*
X94286589Y-82114010D01*
X94043368Y-82276525D01*
X93836525Y-82483368D01*
X93674010Y-82726589D01*
X93562068Y-82996842D01*
X93561219Y-83001112D01*
X93446632Y-82886525D01*
X93272240Y-82770000D01*
X93446632Y-82653475D01*
X93653475Y-82446632D01*
X93815990Y-82203411D01*
X93927932Y-81933158D01*
X93985000Y-81646260D01*
X93985000Y-81353740D01*
X93927932Y-81066842D01*
X93815990Y-80796589D01*
X93653475Y-80553368D01*
X93446632Y-80346525D01*
X93272240Y-80230000D01*
X93446632Y-80113475D01*
X93653475Y-79906632D01*
X93815990Y-79663411D01*
X93927932Y-79393158D01*
X93985000Y-79106260D01*
X93985000Y-78813740D01*
X93927932Y-78526842D01*
X93815990Y-78256589D01*
X93653475Y-78013368D01*
X93446632Y-77806525D01*
X93273271Y-77690689D01*
X93348792Y-77448397D01*
X92500000Y-76599605D01*
X91651208Y-77448397D01*
X91726729Y-77690689D01*
X91553368Y-77806525D01*
X91346525Y-78013368D01*
X91184010Y-78256589D01*
X91072068Y-78526842D01*
X91015000Y-78813740D01*
X91015000Y-79106260D01*
X91072068Y-79393158D01*
X91184010Y-79663411D01*
X91346525Y-79906632D01*
X91553368Y-80113475D01*
X91727760Y-80230000D01*
X91553368Y-80346525D01*
X91346525Y-80553368D01*
X91184010Y-80796589D01*
X91072068Y-81066842D01*
X91015000Y-81353740D01*
X91015000Y-81646260D01*
X91072068Y-81933158D01*
X91184010Y-82203411D01*
X91346525Y-82446632D01*
X91553368Y-82653475D01*
X91727760Y-82770000D01*
X91553368Y-82886525D01*
X91346525Y-83093368D01*
X91184010Y-83336589D01*
X91072068Y-83606842D01*
X91015000Y-83893740D01*
X91015000Y-84186260D01*
X91072068Y-84473158D01*
X91184010Y-84743411D01*
X91346525Y-84986632D01*
X91553368Y-85193475D01*
X91727760Y-85310000D01*
X91553368Y-85426525D01*
X91346525Y-85633368D01*
X91184010Y-85876589D01*
X91072068Y-86146842D01*
X91015000Y-86433740D01*
X91015000Y-86726260D01*
X91072068Y-87013158D01*
X91184010Y-87283411D01*
X91346525Y-87526632D01*
X91553368Y-87733475D01*
X91727760Y-87850000D01*
X91553368Y-87966525D01*
X91346525Y-88173368D01*
X91184010Y-88416589D01*
X91072068Y-88686842D01*
X91015000Y-88973740D01*
X91015000Y-89266260D01*
X91072068Y-89553158D01*
X91184010Y-89823411D01*
X91346525Y-90066632D01*
X91553368Y-90273475D01*
X91796589Y-90435990D01*
X92066842Y-90547932D01*
X92353740Y-90605000D01*
X92646260Y-90605000D01*
X92933158Y-90547932D01*
X93203411Y-90435990D01*
X93446632Y-90273475D01*
X93653475Y-90066632D01*
X93815990Y-89823411D01*
X93927932Y-89553158D01*
X93985000Y-89266260D01*
X93985000Y-88973740D01*
X93927932Y-88686842D01*
X93815990Y-88416589D01*
X93653475Y-88173368D01*
X93446632Y-87966525D01*
X93272240Y-87850000D01*
X93446632Y-87733475D01*
X93653475Y-87526632D01*
X93815990Y-87283411D01*
X93927932Y-87013158D01*
X93985000Y-86726260D01*
X93985000Y-86433740D01*
X93927932Y-86146842D01*
X93815990Y-85876589D01*
X93653475Y-85633368D01*
X93446632Y-85426525D01*
X93272240Y-85310000D01*
X93446632Y-85193475D01*
X93653475Y-84986632D01*
X93815990Y-84743411D01*
X93927932Y-84473158D01*
X93928781Y-84468888D01*
X94043368Y-84583475D01*
X94286589Y-84745990D01*
X94556842Y-84857932D01*
X94843740Y-84915000D01*
X94966522Y-84915000D01*
X94934515Y-84954001D01*
X94878524Y-85022226D01*
X94816250Y-85138731D01*
X94807952Y-85154256D01*
X94764495Y-85297517D01*
X94753498Y-85409170D01*
X94753498Y-85409180D01*
X94749822Y-85446502D01*
X94753498Y-85483825D01*
X94753499Y-91449170D01*
X94749822Y-91486502D01*
X94753499Y-91523835D01*
X94764496Y-91635488D01*
X94772762Y-91662739D01*
X94807952Y-91778748D01*
X94878524Y-91910778D01*
X94946682Y-91993828D01*
X94973498Y-92026503D01*
X95002496Y-92050301D01*
X95074903Y-92122709D01*
X95043325Y-92127039D01*
X94738912Y-92232205D01*
X94564956Y-92325186D01*
X94469192Y-92589587D01*
X95425000Y-93545395D01*
X95439143Y-93531253D01*
X95611938Y-93704048D01*
X95611928Y-93705000D01*
X95613065Y-93716540D01*
X95604605Y-93725000D01*
X95614913Y-93735308D01*
X95615601Y-93742289D01*
X95481235Y-93876655D01*
X95455518Y-93879188D01*
X95335820Y-93915498D01*
X95225506Y-93974463D01*
X95128815Y-94053815D01*
X95049463Y-94150506D01*
X94990498Y-94260820D01*
X94956409Y-94373196D01*
X94469192Y-94860413D01*
X94564956Y-95124814D01*
X94854571Y-95265704D01*
X94942907Y-95288864D01*
X94943340Y-95635162D01*
X94703148Y-95476457D01*
X92679605Y-97500000D01*
X92693748Y-97514143D01*
X92514143Y-97693748D01*
X92500000Y-97679605D01*
X92485858Y-97693748D01*
X92306253Y-97514143D01*
X92320395Y-97500000D01*
X92306253Y-97485858D01*
X92485858Y-97306253D01*
X92500000Y-97320395D01*
X94523543Y-95296852D01*
X94247373Y-94878882D01*
X93702443Y-94588351D01*
X93111304Y-94409713D01*
X92496672Y-94349832D01*
X91882169Y-94411010D01*
X91291408Y-94590897D01*
X90752627Y-94878882D01*
X90660000Y-95019069D01*
X90660000Y-93787595D01*
X93783282Y-93787595D01*
X93827039Y-94106675D01*
X93932205Y-94411088D01*
X94025186Y-94585044D01*
X94289587Y-94680808D01*
X95245395Y-93725000D01*
X94289587Y-92769192D01*
X94025186Y-92864956D01*
X93884296Y-93154571D01*
X93802616Y-93466108D01*
X93783282Y-93787595D01*
X90660000Y-93787595D01*
X90660000Y-76488531D01*
X91009389Y-76488531D01*
X91051401Y-76778019D01*
X91149081Y-77053747D01*
X91222528Y-77191157D01*
X91471603Y-77268792D01*
X92320395Y-76420000D01*
X92679605Y-76420000D01*
X93528397Y-77268792D01*
X93777472Y-77191157D01*
X93903371Y-76927117D01*
X93975339Y-76643589D01*
X93990611Y-76351469D01*
X93948599Y-76061981D01*
X93850919Y-75786253D01*
X93777472Y-75648843D01*
X93528397Y-75571208D01*
X92679605Y-76420000D01*
X92320395Y-76420000D01*
X91471603Y-75571208D01*
X91222528Y-75648843D01*
X91096629Y-75912883D01*
X91024661Y-76196411D01*
X91009389Y-76488531D01*
X90660000Y-76488531D01*
X90660000Y-67980931D01*
X90752627Y-68121118D01*
X91297557Y-68411649D01*
X91888696Y-68590287D01*
X92503328Y-68650168D01*
X93117831Y-68588990D01*
X93708592Y-68409103D01*
X94247373Y-68121118D01*
X94523543Y-67703148D01*
X92500000Y-65679605D01*
X92485858Y-65693748D01*
X92306253Y-65514143D01*
X92320395Y-65500000D01*
X92306253Y-65485858D01*
X92485858Y-65306253D01*
X92500000Y-65320395D01*
X92514143Y-65306253D01*
X92693748Y-65485858D01*
X92679605Y-65500000D01*
X94703148Y-67523543D01*
X95121118Y-67247373D01*
X95411649Y-66702443D01*
X95590287Y-66111304D01*
X95650168Y-65496672D01*
X95588990Y-64882169D01*
X95409103Y-64291408D01*
X95121118Y-63752627D01*
X94980931Y-63660000D01*
X100590000Y-63660000D01*
X100590001Y-69067571D01*
%TA.AperFunction,Conductor*%
D34*
G36*
X100590001Y-69067571D02*
G01*
X100586807Y-69100000D01*
X100599550Y-69229383D01*
X100637290Y-69353793D01*
X100698575Y-69468450D01*
X100781052Y-69568948D01*
X100811757Y-69594147D01*
X100733368Y-69646525D01*
X100526525Y-69853368D01*
X100410689Y-70026729D01*
X100168397Y-69951208D01*
X99319605Y-70800000D01*
X100168397Y-71648792D01*
X100410689Y-71573271D01*
X100526525Y-71746632D01*
X100733368Y-71953475D01*
X100976589Y-72115990D01*
X101246842Y-72227932D01*
X101533740Y-72285000D01*
X101826260Y-72285000D01*
X101929634Y-72264437D01*
X103560000Y-73894805D01*
X103559999Y-81742679D01*
X103556323Y-81780001D01*
X103559999Y-81817323D01*
X103559999Y-81817333D01*
X103570996Y-81928986D01*
X103612258Y-82065010D01*
X103614453Y-82072247D01*
X103685025Y-82204277D01*
X103706591Y-82230555D01*
X103779998Y-82320002D01*
X103809002Y-82343805D01*
X105111928Y-83646732D01*
X105111928Y-83895000D01*
X105124188Y-84019482D01*
X105133230Y-84049288D01*
X105075724Y-84080026D01*
X105063496Y-84090061D01*
X105061936Y-84088781D01*
X104679385Y-83706230D01*
X104655582Y-83677226D01*
X104539857Y-83582253D01*
X104407828Y-83511681D01*
X104264567Y-83468224D01*
X104152914Y-83457227D01*
X104152903Y-83457227D01*
X104115581Y-83453551D01*
X104095000Y-83455578D01*
X104095000Y-83283740D01*
X104037932Y-82996842D01*
X103925990Y-82726589D01*
X103763475Y-82483368D01*
X103556632Y-82276525D01*
X103313411Y-82114010D01*
X103043158Y-82002068D01*
X102756260Y-81945000D01*
X102463740Y-81945000D01*
X102243592Y-81988790D01*
X101083804Y-80829003D01*
X101060001Y-80799999D01*
X100944276Y-80705026D01*
X100812247Y-80634454D01*
X100668986Y-80590997D01*
X100557333Y-80580000D01*
X100557322Y-80580000D01*
X100520000Y-80576324D01*
X100482678Y-80580000D01*
X100274801Y-80580000D01*
X100273803Y-80579002D01*
X100273799Y-80578997D01*
X100250001Y-80549999D01*
X100221003Y-80526201D01*
X98885002Y-79190201D01*
X98885002Y-77389323D01*
X98888678Y-77351998D01*
X98885002Y-77314673D01*
X98885002Y-77314665D01*
X98874005Y-77203012D01*
X98830548Y-77059751D01*
X98759976Y-76927722D01*
X98665003Y-76811997D01*
X98636006Y-76788200D01*
X95216808Y-73369003D01*
X95193005Y-73339999D01*
X95077280Y-73245026D01*
X94945251Y-73174454D01*
X94801990Y-73130997D01*
X94690337Y-73120000D01*
X94690326Y-73120000D01*
X94653004Y-73116324D01*
X94615682Y-73120000D01*
X94334801Y-73120000D01*
X95577347Y-71877454D01*
X95653368Y-71953475D01*
X95896589Y-72115990D01*
X96166842Y-72227932D01*
X96453740Y-72285000D01*
X96746260Y-72285000D01*
X97033158Y-72227932D01*
X97303411Y-72115990D01*
X97546632Y-71953475D01*
X97671710Y-71828397D01*
X98291208Y-71828397D01*
X98368843Y-72077472D01*
X98632883Y-72203371D01*
X98916411Y-72275339D01*
X99208531Y-72290611D01*
X99498019Y-72248599D01*
X99773747Y-72150919D01*
X99911157Y-72077472D01*
X99988792Y-71828397D01*
X99140000Y-70979605D01*
X98291208Y-71828397D01*
X97671710Y-71828397D01*
X97753475Y-71746632D01*
X97869311Y-71573271D01*
X98111603Y-71648792D01*
X98960395Y-70800000D01*
X98111603Y-69951208D01*
X97869311Y-70026729D01*
X97753475Y-69853368D01*
X97671710Y-69771603D01*
X98291208Y-69771603D01*
X99140000Y-70620395D01*
X99988792Y-69771603D01*
X99911157Y-69522528D01*
X99647117Y-69396629D01*
X99363589Y-69324661D01*
X99071469Y-69309389D01*
X98781981Y-69351401D01*
X98506253Y-69449081D01*
X98368843Y-69522528D01*
X98291208Y-69771603D01*
X97671710Y-69771603D01*
X97546632Y-69646525D01*
X97303411Y-69484010D01*
X97033158Y-69372068D01*
X96746260Y-69315000D01*
X96453740Y-69315000D01*
X96166842Y-69372068D01*
X95896589Y-69484010D01*
X95653368Y-69646525D01*
X95446525Y-69853368D01*
X95284150Y-70096380D01*
X95155724Y-70165026D01*
X95039999Y-70259999D01*
X95016201Y-70288997D01*
X92866408Y-72438791D01*
X92646260Y-72395000D01*
X92353740Y-72395000D01*
X92066842Y-72452068D01*
X91796589Y-72564010D01*
X91553368Y-72726525D01*
X91346525Y-72933368D01*
X91184010Y-73176589D01*
X91072068Y-73446842D01*
X91015000Y-73733740D01*
X91015000Y-74026260D01*
X91072068Y-74313158D01*
X91184010Y-74583411D01*
X91346525Y-74826632D01*
X91553368Y-75033475D01*
X91726729Y-75149311D01*
X91651208Y-75391603D01*
X92500000Y-76240395D01*
X93348792Y-75391603D01*
X93273271Y-75149311D01*
X93446632Y-75033475D01*
X93653475Y-74826632D01*
X93778178Y-74640000D01*
X94338203Y-74640000D01*
X97365002Y-77666800D01*
X97365003Y-79467670D01*
X97361326Y-79505002D01*
X97365003Y-79542335D01*
X97376000Y-79653988D01*
X97383403Y-79678392D01*
X97419456Y-79797248D01*
X97490028Y-79929278D01*
X97543987Y-79995026D01*
X97585002Y-80045003D01*
X97614000Y-80068801D01*
X98635198Y-81090000D01*
X98245999Y-81479200D01*
X98217001Y-81502998D01*
X98193203Y-81531996D01*
X98193202Y-81531997D01*
X98122027Y-81618723D01*
X98051455Y-81750753D01*
X98031259Y-81817333D01*
X98012250Y-81880001D01*
X98007999Y-81894014D01*
X97996016Y-82015678D01*
X97963158Y-82002068D01*
X97676260Y-81945000D01*
X97383740Y-81945000D01*
X97096842Y-82002068D01*
X96826589Y-82114010D01*
X96583368Y-82276525D01*
X96376525Y-82483368D01*
X96260000Y-82657760D01*
X96143475Y-82483368D01*
X95936632Y-82276525D01*
X95693411Y-82114010D01*
X95423158Y-82002068D01*
X95136260Y-81945000D01*
X94843740Y-81945000D01*
X94556842Y-82002068D01*
X94286589Y-82114010D01*
X94043368Y-82276525D01*
X93836525Y-82483368D01*
X93674010Y-82726589D01*
X93562068Y-82996842D01*
X93561219Y-83001112D01*
X93446632Y-82886525D01*
X93272240Y-82770000D01*
X93446632Y-82653475D01*
X93653475Y-82446632D01*
X93815990Y-82203411D01*
X93927932Y-81933158D01*
X93985000Y-81646260D01*
X93985000Y-81353740D01*
X93927932Y-81066842D01*
X93815990Y-80796589D01*
X93653475Y-80553368D01*
X93446632Y-80346525D01*
X93272240Y-80230000D01*
X93446632Y-80113475D01*
X93653475Y-79906632D01*
X93815990Y-79663411D01*
X93927932Y-79393158D01*
X93985000Y-79106260D01*
X93985000Y-78813740D01*
X93927932Y-78526842D01*
X93815990Y-78256589D01*
X93653475Y-78013368D01*
X93446632Y-77806525D01*
X93273271Y-77690689D01*
X93348792Y-77448397D01*
X92500000Y-76599605D01*
X91651208Y-77448397D01*
X91726729Y-77690689D01*
X91553368Y-77806525D01*
X91346525Y-78013368D01*
X91184010Y-78256589D01*
X91072068Y-78526842D01*
X91015000Y-78813740D01*
X91015000Y-79106260D01*
X91072068Y-79393158D01*
X91184010Y-79663411D01*
X91346525Y-79906632D01*
X91553368Y-80113475D01*
X91727760Y-80230000D01*
X91553368Y-80346525D01*
X91346525Y-80553368D01*
X91184010Y-80796589D01*
X91072068Y-81066842D01*
X91015000Y-81353740D01*
X91015000Y-81646260D01*
X91072068Y-81933158D01*
X91184010Y-82203411D01*
X91346525Y-82446632D01*
X91553368Y-82653475D01*
X91727760Y-82770000D01*
X91553368Y-82886525D01*
X91346525Y-83093368D01*
X91184010Y-83336589D01*
X91072068Y-83606842D01*
X91015000Y-83893740D01*
X91015000Y-84186260D01*
X91072068Y-84473158D01*
X91184010Y-84743411D01*
X91346525Y-84986632D01*
X91553368Y-85193475D01*
X91727760Y-85310000D01*
X91553368Y-85426525D01*
X91346525Y-85633368D01*
X91184010Y-85876589D01*
X91072068Y-86146842D01*
X91015000Y-86433740D01*
X91015000Y-86726260D01*
X91072068Y-87013158D01*
X91184010Y-87283411D01*
X91346525Y-87526632D01*
X91553368Y-87733475D01*
X91727760Y-87850000D01*
X91553368Y-87966525D01*
X91346525Y-88173368D01*
X91184010Y-88416589D01*
X91072068Y-88686842D01*
X91015000Y-88973740D01*
X91015000Y-89266260D01*
X91072068Y-89553158D01*
X91184010Y-89823411D01*
X91346525Y-90066632D01*
X91553368Y-90273475D01*
X91796589Y-90435990D01*
X92066842Y-90547932D01*
X92353740Y-90605000D01*
X92646260Y-90605000D01*
X92933158Y-90547932D01*
X93203411Y-90435990D01*
X93446632Y-90273475D01*
X93653475Y-90066632D01*
X93815990Y-89823411D01*
X93927932Y-89553158D01*
X93985000Y-89266260D01*
X93985000Y-88973740D01*
X93927932Y-88686842D01*
X93815990Y-88416589D01*
X93653475Y-88173368D01*
X93446632Y-87966525D01*
X93272240Y-87850000D01*
X93446632Y-87733475D01*
X93653475Y-87526632D01*
X93815990Y-87283411D01*
X93927932Y-87013158D01*
X93985000Y-86726260D01*
X93985000Y-86433740D01*
X93927932Y-86146842D01*
X93815990Y-85876589D01*
X93653475Y-85633368D01*
X93446632Y-85426525D01*
X93272240Y-85310000D01*
X93446632Y-85193475D01*
X93653475Y-84986632D01*
X93815990Y-84743411D01*
X93927932Y-84473158D01*
X93928781Y-84468888D01*
X94043368Y-84583475D01*
X94286589Y-84745990D01*
X94556842Y-84857932D01*
X94843740Y-84915000D01*
X94966522Y-84915000D01*
X94934515Y-84954001D01*
X94878524Y-85022226D01*
X94816250Y-85138731D01*
X94807952Y-85154256D01*
X94764495Y-85297517D01*
X94753498Y-85409170D01*
X94753498Y-85409180D01*
X94749822Y-85446502D01*
X94753498Y-85483825D01*
X94753499Y-91449170D01*
X94749822Y-91486502D01*
X94753499Y-91523835D01*
X94764496Y-91635488D01*
X94772762Y-91662739D01*
X94807952Y-91778748D01*
X94878524Y-91910778D01*
X94946682Y-91993828D01*
X94973498Y-92026503D01*
X95002496Y-92050301D01*
X95074903Y-92122709D01*
X95043325Y-92127039D01*
X94738912Y-92232205D01*
X94564956Y-92325186D01*
X94469192Y-92589587D01*
X95425000Y-93545395D01*
X95439143Y-93531253D01*
X95611938Y-93704048D01*
X95611928Y-93705000D01*
X95613065Y-93716540D01*
X95604605Y-93725000D01*
X95614913Y-93735308D01*
X95615601Y-93742289D01*
X95481235Y-93876655D01*
X95455518Y-93879188D01*
X95335820Y-93915498D01*
X95225506Y-93974463D01*
X95128815Y-94053815D01*
X95049463Y-94150506D01*
X94990498Y-94260820D01*
X94956409Y-94373196D01*
X94469192Y-94860413D01*
X94564956Y-95124814D01*
X94854571Y-95265704D01*
X94942907Y-95288864D01*
X94943340Y-95635162D01*
X94703148Y-95476457D01*
X92679605Y-97500000D01*
X92693748Y-97514143D01*
X92514143Y-97693748D01*
X92500000Y-97679605D01*
X92485858Y-97693748D01*
X92306253Y-97514143D01*
X92320395Y-97500000D01*
X92306253Y-97485858D01*
X92485858Y-97306253D01*
X92500000Y-97320395D01*
X94523543Y-95296852D01*
X94247373Y-94878882D01*
X93702443Y-94588351D01*
X93111304Y-94409713D01*
X92496672Y-94349832D01*
X91882169Y-94411010D01*
X91291408Y-94590897D01*
X90752627Y-94878882D01*
X90660000Y-95019069D01*
X90660000Y-93787595D01*
X93783282Y-93787595D01*
X93827039Y-94106675D01*
X93932205Y-94411088D01*
X94025186Y-94585044D01*
X94289587Y-94680808D01*
X95245395Y-93725000D01*
X94289587Y-92769192D01*
X94025186Y-92864956D01*
X93884296Y-93154571D01*
X93802616Y-93466108D01*
X93783282Y-93787595D01*
X90660000Y-93787595D01*
X90660000Y-76488531D01*
X91009389Y-76488531D01*
X91051401Y-76778019D01*
X91149081Y-77053747D01*
X91222528Y-77191157D01*
X91471603Y-77268792D01*
X92320395Y-76420000D01*
X92679605Y-76420000D01*
X93528397Y-77268792D01*
X93777472Y-77191157D01*
X93903371Y-76927117D01*
X93975339Y-76643589D01*
X93990611Y-76351469D01*
X93948599Y-76061981D01*
X93850919Y-75786253D01*
X93777472Y-75648843D01*
X93528397Y-75571208D01*
X92679605Y-76420000D01*
X92320395Y-76420000D01*
X91471603Y-75571208D01*
X91222528Y-75648843D01*
X91096629Y-75912883D01*
X91024661Y-76196411D01*
X91009389Y-76488531D01*
X90660000Y-76488531D01*
X90660000Y-67980931D01*
X90752627Y-68121118D01*
X91297557Y-68411649D01*
X91888696Y-68590287D01*
X92503328Y-68650168D01*
X93117831Y-68588990D01*
X93708592Y-68409103D01*
X94247373Y-68121118D01*
X94523543Y-67703148D01*
X92500000Y-65679605D01*
X92485858Y-65693748D01*
X92306253Y-65514143D01*
X92320395Y-65500000D01*
X92306253Y-65485858D01*
X92485858Y-65306253D01*
X92500000Y-65320395D01*
X92514143Y-65306253D01*
X92693748Y-65485858D01*
X92679605Y-65500000D01*
X94703148Y-67523543D01*
X95121118Y-67247373D01*
X95411649Y-66702443D01*
X95590287Y-66111304D01*
X95650168Y-65496672D01*
X95588990Y-64882169D01*
X95409103Y-64291408D01*
X95121118Y-63752627D01*
X94980931Y-63660000D01*
X100590000Y-63660000D01*
X100590001Y-69067571D01*
G37*
%TD.AperFunction*%
D33*
X99877000Y-97123000D02*
X102832315Y-97123000D01*
X102797528Y-97133843D01*
X102681586Y-97377000D01*
X99877000Y-97377000D01*
X99877000Y-97397000D01*
X99623000Y-97397000D01*
X99623000Y-97377000D01*
X99603000Y-97377000D01*
X99603000Y-97123000D01*
X99623000Y-97123000D01*
X99623000Y-97103000D01*
X99877000Y-97103000D01*
X99877000Y-97123000D01*
%TA.AperFunction,Conductor*%
D34*
G36*
X99877000Y-97123000D02*
G01*
X102832315Y-97123000D01*
X102797528Y-97133843D01*
X102681586Y-97377000D01*
X99877000Y-97377000D01*
X99877000Y-97397000D01*
X99623000Y-97397000D01*
X99623000Y-97377000D01*
X99603000Y-97377000D01*
X99603000Y-97123000D01*
X99623000Y-97123000D01*
X99623000Y-97103000D01*
X99877000Y-97103000D01*
X99877000Y-97123000D01*
G37*
%TD.AperFunction*%
D33*
X104268748Y-93710858D02*
X104254605Y-93725000D01*
X104268748Y-93739143D01*
X104109100Y-93898790D01*
X104044482Y-93879188D01*
X104018765Y-93876655D01*
X103884399Y-93742289D01*
X103885087Y-93735308D01*
X103895395Y-93725000D01*
X103886935Y-93716540D01*
X103888072Y-93705000D01*
X103888062Y-93704048D01*
X104060858Y-93531253D01*
X104075000Y-93545395D01*
X104089143Y-93531253D01*
X104268748Y-93710858D01*
%TA.AperFunction,Conductor*%
D34*
G36*
X104268748Y-93710858D02*
G01*
X104254605Y-93725000D01*
X104268748Y-93739143D01*
X104109100Y-93898790D01*
X104044482Y-93879188D01*
X104018765Y-93876655D01*
X103884399Y-93742289D01*
X103885087Y-93735308D01*
X103895395Y-93725000D01*
X103886935Y-93716540D01*
X103888072Y-93705000D01*
X103888062Y-93704048D01*
X104060858Y-93531253D01*
X104075000Y-93545395D01*
X104089143Y-93531253D01*
X104268748Y-93710858D01*
G37*
%TD.AperFunction*%
D33*
X96551723Y-88811609D02*
X96564188Y-88850000D01*
X96551723Y-88888391D01*
X96540000Y-88993250D01*
X96698750Y-89152000D01*
X96754392Y-89152000D01*
X96812717Y-89198000D01*
X96698750Y-89198000D01*
X96540000Y-89356750D01*
X96551723Y-89461609D01*
X96590350Y-89580579D01*
X96640446Y-89670078D01*
X96609744Y-89682795D01*
X96440226Y-89796063D01*
X96296063Y-89940226D01*
X96273498Y-89973997D01*
X96273498Y-88838052D01*
X96410376Y-88838052D01*
X96551540Y-88809973D01*
X96551723Y-88811609D01*
%TA.AperFunction,Conductor*%
D34*
G36*
X96551723Y-88811609D02*
G01*
X96564188Y-88850000D01*
X96551723Y-88888391D01*
X96540000Y-88993250D01*
X96698750Y-89152000D01*
X96754392Y-89152000D01*
X96812717Y-89198000D01*
X96698750Y-89198000D01*
X96540000Y-89356750D01*
X96551723Y-89461609D01*
X96590350Y-89580579D01*
X96640446Y-89670078D01*
X96609744Y-89682795D01*
X96440226Y-89796063D01*
X96296063Y-89940226D01*
X96273498Y-89973997D01*
X96273498Y-88838052D01*
X96410376Y-88838052D01*
X96551540Y-88809973D01*
X96551723Y-88811609D01*
G37*
%TD.AperFunction*%
D33*
X97802000Y-89152000D02*
X97802750Y-89152000D01*
X97822000Y-89171250D01*
X97822000Y-89198000D01*
X97802000Y-89198000D01*
X97802000Y-89322000D01*
X97548000Y-89322000D01*
X97548000Y-89198000D01*
X97501250Y-89198000D01*
X97547250Y-89152000D01*
X97548000Y-89152000D01*
X97548000Y-89028000D01*
X97802000Y-89028000D01*
X97802000Y-89152000D01*
%TA.AperFunction,Conductor*%
D34*
G36*
X97802000Y-89152000D02*
G01*
X97802750Y-89152000D01*
X97822000Y-89171250D01*
X97822000Y-89198000D01*
X97802000Y-89198000D01*
X97802000Y-89322000D01*
X97548000Y-89322000D01*
X97548000Y-89198000D01*
X97501250Y-89198000D01*
X97547250Y-89152000D01*
X97548000Y-89152000D01*
X97548000Y-89028000D01*
X97802000Y-89028000D01*
X97802000Y-89152000D01*
G37*
%TD.AperFunction*%
D33*
X99872000Y-88139110D02*
X99872000Y-88260890D01*
X99785890Y-88347000D01*
X99664110Y-88347000D01*
X99578000Y-88260890D01*
X99578000Y-88139110D01*
X99664110Y-88053000D01*
X99785890Y-88053000D01*
X99872000Y-88139110D01*
%TA.AperFunction,Conductor*%
D34*
G36*
X99872000Y-88139110D02*
G01*
X99872000Y-88260890D01*
X99785890Y-88347000D01*
X99664110Y-88347000D01*
X99578000Y-88260890D01*
X99578000Y-88139110D01*
X99664110Y-88053000D01*
X99785890Y-88053000D01*
X99872000Y-88139110D01*
G37*
%TD.AperFunction*%
D33*
X100197000Y-83303000D02*
X100217000Y-83303000D01*
X100217000Y-83557000D01*
X100197000Y-83557000D01*
X100197000Y-83577000D01*
X99943000Y-83577000D01*
X99943000Y-83557000D01*
X99923000Y-83557000D01*
X99923000Y-83303000D01*
X99943000Y-83303000D01*
X99943000Y-83283000D01*
X100197000Y-83283000D01*
X100197000Y-83303000D01*
%TA.AperFunction,Conductor*%
D34*
G36*
X100197000Y-83303000D02*
G01*
X100217000Y-83303000D01*
X100217000Y-83557000D01*
X100197000Y-83557000D01*
X100197000Y-83577000D01*
X99943000Y-83577000D01*
X99943000Y-83557000D01*
X99923000Y-83557000D01*
X99923000Y-83303000D01*
X99943000Y-83303000D01*
X99943000Y-83283000D01*
X100197000Y-83283000D01*
X100197000Y-83303000D01*
G37*
%TD.AperFunction*%
D33*
X132193748Y-65485858D02*
X132179605Y-65500000D01*
X132193748Y-65514143D01*
X132014143Y-65693748D01*
X132000000Y-65679605D01*
X131985858Y-65693748D01*
X131806253Y-65514143D01*
X131820395Y-65500000D01*
X131806253Y-65485858D01*
X131985858Y-65306253D01*
X132000000Y-65320395D01*
X132014143Y-65306253D01*
X132193748Y-65485858D01*
%TA.AperFunction,Conductor*%
D34*
G36*
X132193748Y-65485858D02*
G01*
X132179605Y-65500000D01*
X132193748Y-65514143D01*
X132014143Y-65693748D01*
X132000000Y-65679605D01*
X131985858Y-65693748D01*
X131806253Y-65514143D01*
X131820395Y-65500000D01*
X131806253Y-65485858D01*
X131985858Y-65306253D01*
X132000000Y-65320395D01*
X132014143Y-65306253D01*
X132193748Y-65485858D01*
G37*
%TD.AperFunction*%
%TD*%
M02*
