%TF.GenerationSoftware,KiCad,Pcbnew,(5.1.9-0-10_14)*%
%TF.CreationDate,2021-08-26T08:28:37+01:00*%
%TF.ProjectId,EnvMon,456e764d-6f6e-42e6-9b69-6361645f7063,4*%
%TF.SameCoordinates,Original*%
%TF.FileFunction,Paste,Bot*%
%TF.FilePolarity,Positive*%
%FSLAX46Y46*%
G04 Gerber Fmt 4.6, Leading zero omitted, Abs format (unit mm)*
G04 Created by KiCad (PCBNEW (5.1.9-0-10_14)) date 2021-08-26 08:28:37*
%MOMM*%
%LPD*%
G01*
G04 APERTURE LIST*
G04 APERTURE END LIST*
%TO.C,R12*%
G36*
G01*
X125987500Y-97915000D02*
X127112500Y-97915000D01*
G75*
G02*
X127337500Y-98140000I0J-225000D01*
G01*
X127337500Y-98860000D01*
G75*
G02*
X127112500Y-99085000I-225000J0D01*
G01*
X125987500Y-99085000D01*
G75*
G02*
X125762500Y-98860000I0J225000D01*
G01*
X125762500Y-98140000D01*
G75*
G02*
X125987500Y-97915000I225000J0D01*
G01*
G37*
G36*
G01*
X125987500Y-94815000D02*
X127112500Y-94815000D01*
G75*
G02*
X127337500Y-95040000I0J-225000D01*
G01*
X127337500Y-95760000D01*
G75*
G02*
X127112500Y-95985000I-225000J0D01*
G01*
X125987500Y-95985000D01*
G75*
G02*
X125762500Y-95760000I0J225000D01*
G01*
X125762500Y-95040000D01*
G75*
G02*
X125987500Y-94815000I225000J0D01*
G01*
G37*
%TD*%
%TO.C,R11*%
G36*
G01*
X123487500Y-97915000D02*
X124612500Y-97915000D01*
G75*
G02*
X124837500Y-98140000I0J-225000D01*
G01*
X124837500Y-98860000D01*
G75*
G02*
X124612500Y-99085000I-225000J0D01*
G01*
X123487500Y-99085000D01*
G75*
G02*
X123262500Y-98860000I0J225000D01*
G01*
X123262500Y-98140000D01*
G75*
G02*
X123487500Y-97915000I225000J0D01*
G01*
G37*
G36*
G01*
X123487500Y-94815000D02*
X124612500Y-94815000D01*
G75*
G02*
X124837500Y-95040000I0J-225000D01*
G01*
X124837500Y-95760000D01*
G75*
G02*
X124612500Y-95985000I-225000J0D01*
G01*
X123487500Y-95985000D01*
G75*
G02*
X123262500Y-95760000I0J225000D01*
G01*
X123262500Y-95040000D01*
G75*
G02*
X123487500Y-94815000I225000J0D01*
G01*
G37*
%TD*%
%TO.C,R10*%
G36*
G01*
X120987500Y-97915000D02*
X122112500Y-97915000D01*
G75*
G02*
X122337500Y-98140000I0J-225000D01*
G01*
X122337500Y-98860000D01*
G75*
G02*
X122112500Y-99085000I-225000J0D01*
G01*
X120987500Y-99085000D01*
G75*
G02*
X120762500Y-98860000I0J225000D01*
G01*
X120762500Y-98140000D01*
G75*
G02*
X120987500Y-97915000I225000J0D01*
G01*
G37*
G36*
G01*
X120987500Y-94815000D02*
X122112500Y-94815000D01*
G75*
G02*
X122337500Y-95040000I0J-225000D01*
G01*
X122337500Y-95760000D01*
G75*
G02*
X122112500Y-95985000I-225000J0D01*
G01*
X120987500Y-95985000D01*
G75*
G02*
X120762500Y-95760000I0J225000D01*
G01*
X120762500Y-95040000D01*
G75*
G02*
X120987500Y-94815000I225000J0D01*
G01*
G37*
%TD*%
%TO.C,R9*%
G36*
G01*
X118487500Y-97915000D02*
X119612500Y-97915000D01*
G75*
G02*
X119837500Y-98140000I0J-225000D01*
G01*
X119837500Y-98860000D01*
G75*
G02*
X119612500Y-99085000I-225000J0D01*
G01*
X118487500Y-99085000D01*
G75*
G02*
X118262500Y-98860000I0J225000D01*
G01*
X118262500Y-98140000D01*
G75*
G02*
X118487500Y-97915000I225000J0D01*
G01*
G37*
G36*
G01*
X118487500Y-94815000D02*
X119612500Y-94815000D01*
G75*
G02*
X119837500Y-95040000I0J-225000D01*
G01*
X119837500Y-95760000D01*
G75*
G02*
X119612500Y-95985000I-225000J0D01*
G01*
X118487500Y-95985000D01*
G75*
G02*
X118262500Y-95760000I0J225000D01*
G01*
X118262500Y-95040000D01*
G75*
G02*
X118487500Y-94815000I225000J0D01*
G01*
G37*
%TD*%
%TO.C,R8*%
G36*
G01*
X115987500Y-97915000D02*
X117112500Y-97915000D01*
G75*
G02*
X117337500Y-98140000I0J-225000D01*
G01*
X117337500Y-98860000D01*
G75*
G02*
X117112500Y-99085000I-225000J0D01*
G01*
X115987500Y-99085000D01*
G75*
G02*
X115762500Y-98860000I0J225000D01*
G01*
X115762500Y-98140000D01*
G75*
G02*
X115987500Y-97915000I225000J0D01*
G01*
G37*
G36*
G01*
X115987500Y-94815000D02*
X117112500Y-94815000D01*
G75*
G02*
X117337500Y-95040000I0J-225000D01*
G01*
X117337500Y-95760000D01*
G75*
G02*
X117112500Y-95985000I-225000J0D01*
G01*
X115987500Y-95985000D01*
G75*
G02*
X115762500Y-95760000I0J225000D01*
G01*
X115762500Y-95040000D01*
G75*
G02*
X115987500Y-94815000I225000J0D01*
G01*
G37*
%TD*%
%TO.C,R7*%
G36*
G01*
X113487500Y-97915000D02*
X114612500Y-97915000D01*
G75*
G02*
X114837500Y-98140000I0J-225000D01*
G01*
X114837500Y-98860000D01*
G75*
G02*
X114612500Y-99085000I-225000J0D01*
G01*
X113487500Y-99085000D01*
G75*
G02*
X113262500Y-98860000I0J225000D01*
G01*
X113262500Y-98140000D01*
G75*
G02*
X113487500Y-97915000I225000J0D01*
G01*
G37*
G36*
G01*
X113487500Y-94815000D02*
X114612500Y-94815000D01*
G75*
G02*
X114837500Y-95040000I0J-225000D01*
G01*
X114837500Y-95760000D01*
G75*
G02*
X114612500Y-95985000I-225000J0D01*
G01*
X113487500Y-95985000D01*
G75*
G02*
X113262500Y-95760000I0J225000D01*
G01*
X113262500Y-95040000D01*
G75*
G02*
X113487500Y-94815000I225000J0D01*
G01*
G37*
%TD*%
%TO.C,R6*%
G36*
G01*
X110987500Y-97915000D02*
X112112500Y-97915000D01*
G75*
G02*
X112337500Y-98140000I0J-225000D01*
G01*
X112337500Y-98860000D01*
G75*
G02*
X112112500Y-99085000I-225000J0D01*
G01*
X110987500Y-99085000D01*
G75*
G02*
X110762500Y-98860000I0J225000D01*
G01*
X110762500Y-98140000D01*
G75*
G02*
X110987500Y-97915000I225000J0D01*
G01*
G37*
G36*
G01*
X110987500Y-94815000D02*
X112112500Y-94815000D01*
G75*
G02*
X112337500Y-95040000I0J-225000D01*
G01*
X112337500Y-95760000D01*
G75*
G02*
X112112500Y-95985000I-225000J0D01*
G01*
X110987500Y-95985000D01*
G75*
G02*
X110762500Y-95760000I0J225000D01*
G01*
X110762500Y-95040000D01*
G75*
G02*
X110987500Y-94815000I225000J0D01*
G01*
G37*
%TD*%
M02*
