M48
; DRILL file {KiCad (5.1.9-0-10_14)} date Thursday, March 11, 2021 at 10:49:57 AM
; FORMAT={-:-/ absolute / inch / decimal}
; #@! TF.CreationDate,2021-03-11T10:49:57+00:00
; #@! TF.GenerationSoftware,Kicad,Pcbnew,(5.1.9-0-10_14)
; #@! TF.FileFunction,Plated,1,2,PTH
FMAT,2
INCH
T1C0.0157
T2C0.0236
T3C0.0335
T4C0.0394
T5C0.0472
T6C0.0591
T7C0.1220
%
G90
G05
T1
X3.8105Y-3.4641
X3.8189Y-2.9724
X3.8268Y-3.5014
X3.8287Y-3.5531
X3.8347Y-3.6054
X3.8739Y-3.6023
X3.8878Y-3.376
X3.9133Y-3.6003
X3.9173Y-2.9626
X3.9744Y-3.6181
X4.0091Y-3.5817
X4.0265Y-3.6207
X4.0351Y-3.448
X4.0453Y-3.4055
X4.065Y-3.4744
X4.0809Y-3.3819
X4.1312Y-3.5722
X4.1852Y-3.6101
X4.2317Y-3.6064
X4.294Y-3.3252
X4.3209Y-2.9035
X4.3307Y-3.878
X4.3504Y-3.5728
X4.6243Y-3.111
X4.6752Y-2.9429
X4.6852Y-3.2095
X4.7343Y-3.1201
X4.7441Y-3.5236
X4.75Y-2.9754
X4.7518Y-3.2041
X4.7736Y-2.9232
X4.8425Y-3.4646
T2
X3.8134Y-3.7089
X4.0409Y-3.7089
T3
X4.2933Y-3.6673
X4.3917Y-3.6673
X4.4902Y-3.6673
X4.5886Y-3.6673
X4.687Y-3.6673
X4.7854Y-3.6673
X4.8839Y-3.6673
X4.9823Y-3.6673
T4
X3.6106Y-3.6122
X3.6417Y-2.9087
X3.6417Y-3.0087
X3.6417Y-3.1087
X3.6417Y-3.2087
X3.6417Y-3.3087
X3.6417Y-3.4087
X3.6417Y-3.5087
X3.6811Y-2.8051
X3.7106Y-3.6122
X3.7811Y-2.8051
X3.8378Y-3.3161
X3.8811Y-2.8051
X3.9378Y-3.3161
X3.9811Y-2.8051
X4.0378Y-3.3161
T5
X3.7569Y-3.8545
X4.0974Y-3.8545
T6
X3.7569Y-3.69
X4.0974Y-3.69
T7
X3.6417Y-2.5787
X3.6417Y-3.8386
X5.1969Y-2.5787
X5.1969Y-3.8386
T0
M30
