M48
; DRILL file {KiCad (6.0.2-0)} date Monday, 21 February 2022 at 17:48:20
; FORMAT={-:-/ absolute / inch / decimal}
; #@! TF.CreationDate,2022-02-21T17:48:20+00:00
; #@! TF.GenerationSoftware,Kicad,Pcbnew,(6.0.2-0)
; #@! TF.FileFunction,Plated,1,2,PTH
FMAT,2
INCH
; #@! TA.AperFunction,Plated,PTH,ViaDrill
T1C0.0157
; #@! TA.AperFunction,Plated,PTH,ComponentDrill
T2C0.0236
; #@! TA.AperFunction,Plated,PTH,ComponentDrill
T3C0.0295
; #@! TA.AperFunction,Plated,PTH,ComponentDrill
T4C0.0335
; #@! TA.AperFunction,Plated,PTH,ComponentDrill
T5C0.0394
; #@! TA.AperFunction,Plated,PTH,ComponentDrill
T6C0.0492
; #@! TA.AperFunction,Plated,PTH,ComponentDrill
T7C0.1220
%
G90
G05
T1
X4.5669Y-4.0157
X4.685Y-3.9764
X4.7953Y-4.0433
X4.9879Y-4.1613
X5.2067Y-3.7795
X5.2165Y-3.4646
X5.2264Y-3.9862
X5.3248Y-4.1043
X5.3543Y-4.0748
X5.3642Y-3.7894
X5.3642Y-3.937
X5.3839Y-4.1043
X5.4232Y-4.1043
X5.4331Y-3.878
X5.4724Y-3.0807
X5.5217Y-4.0256
X5.689Y-4.0551
X5.8268Y-3.7894
T2
X5.2504Y-4.2504
X5.478Y-4.2504
T3
X4.6457Y-3.0791
X4.6457Y-3.1291
X4.6457Y-3.1791
T4
X5.6496Y-4.2185
X5.748Y-4.2185
T5
X5.0492Y-3.4402
X5.0492Y-3.5402
X5.0492Y-3.6402
X5.0492Y-3.7402
X5.0492Y-3.8402
X5.0492Y-3.9402
X5.0492Y-4.0402
X5.1941Y-4.3953
X5.5343Y-4.3953
T6
X5.1941Y-4.2311
X5.5343Y-4.2311
T7
X5.0492Y-3.1102
X5.0492Y-4.3701
X6.6043Y-3.1102
X6.6043Y-4.3701
T0
M30
