%TF.GenerationSoftware,KiCad,Pcbnew,(6.0.2-0)*%
%TF.CreationDate,2022-03-08T08:06:14+00:00*%
%TF.ProjectId,EnvMon2,456e764d-6f6e-4322-9e6b-696361645f70,4*%
%TF.SameCoordinates,Original*%
%TF.FileFunction,Paste,Top*%
%TF.FilePolarity,Positive*%
%FSLAX46Y46*%
G04 Gerber Fmt 4.6, Leading zero omitted, Abs format (unit mm)*
G04 Created by KiCad (PCBNEW (6.0.2-0)) date 2022-03-08 08:06:14*
%MOMM*%
%LPD*%
G01*
G04 APERTURE LIST*
G04 Aperture macros list*
%AMRoundRect*
0 Rectangle with rounded corners*
0 $1 Rounding radius*
0 $2 $3 $4 $5 $6 $7 $8 $9 X,Y pos of 4 corners*
0 Add a 4 corners polygon primitive as box body*
4,1,4,$2,$3,$4,$5,$6,$7,$8,$9,$2,$3,0*
0 Add four circle primitives for the rounded corners*
1,1,$1+$1,$2,$3*
1,1,$1+$1,$4,$5*
1,1,$1+$1,$6,$7*
1,1,$1+$1,$8,$9*
0 Add four rect primitives between the rounded corners*
20,1,$1+$1,$2,$3,$4,$5,0*
20,1,$1+$1,$4,$5,$6,$7,0*
20,1,$1+$1,$6,$7,$8,$9,0*
20,1,$1+$1,$8,$9,$2,$3,0*%
%AMFreePoly0*
4,1,6,0.652500,-0.652500,-0.652500,-0.652500,-0.652500,0.100470,-0.100470,0.652500,0.652500,0.652500,0.652500,-0.652500,0.652500,-0.652500,$1*%
G04 Aperture macros list end*
%ADD10RoundRect,0.160000X-0.200000X-0.267500X0.200000X-0.267500X0.200000X0.267500X-0.200000X0.267500X0*%
%ADD11RoundRect,0.160000X0.200000X0.267500X-0.200000X0.267500X-0.200000X-0.267500X0.200000X-0.267500X0*%
%ADD12RoundRect,0.160000X-0.267500X0.200000X-0.267500X-0.200000X0.267500X-0.200000X0.267500X0.200000X0*%
%ADD13R,1.560000X1.560000*%
%ADD14R,1.350000X0.720000*%
%ADD15R,0.720000X1.350000*%
%ADD16RoundRect,0.232500X-0.232500X-0.232500X0.232500X-0.232500X0.232500X0.232500X-0.232500X0.232500X0*%
%ADD17R,0.420000X0.798000*%
%ADD18RoundRect,0.060000X-0.075000X-0.453000X0.075000X-0.453000X0.075000X0.453000X-0.075000X0.453000X0*%
%ADD19RoundRect,0.160000X0.267500X-0.200000X0.267500X0.200000X-0.267500X0.200000X-0.267500X-0.200000X0*%
%ADD20RoundRect,0.250000X0.250000X-0.350000X0.250000X0.350000X-0.250000X0.350000X-0.250000X-0.350000X0*%
%ADD21R,0.990000X0.540000*%
%ADD22RoundRect,0.178125X0.609375X-0.463125X0.609375X0.463125X-0.609375X0.463125X-0.609375X-0.463125X0*%
%ADD23RoundRect,0.180000X0.225000X0.247500X-0.225000X0.247500X-0.225000X-0.247500X0.225000X-0.247500X0*%
%ADD24RoundRect,0.200000X-0.250000X-0.452500X0.250000X-0.452500X0.250000X0.452500X-0.250000X0.452500X0*%
%ADD25R,0.765000X0.450000*%
%ADD26R,0.720000X0.360000*%
%ADD27R,0.360000X0.720000*%
%ADD28R,1.305000X1.305000*%
%ADD29FreePoly0,0.000000*%
%ADD30R,0.630000X0.630000*%
%ADD31RoundRect,0.186000X-0.189000X-0.189000X0.189000X-0.189000X0.189000X0.189000X-0.189000X0.189000X0*%
%ADD32RoundRect,0.027500X-0.287500X-0.085000X0.287500X-0.085000X0.287500X0.085000X-0.287500X0.085000X0*%
%ADD33RoundRect,0.050000X-0.062500X-0.265000X0.062500X-0.265000X0.062500X0.265000X-0.062500X0.265000X0*%
%ADD34RoundRect,0.187500X0.600000X-0.375000X0.600000X0.375000X-0.600000X0.375000X-0.600000X-0.375000X0*%
G04 APERTURE END LIST*
D10*
%TO.C,R4*%
X123775000Y-91800000D03*
X125425000Y-91800000D03*
%TD*%
D11*
%TO.C,R3*%
X120625000Y-91800000D03*
X118975000Y-91800000D03*
%TD*%
D12*
%TO.C,R12*%
X119600000Y-67375000D03*
X119600000Y-69025000D03*
%TD*%
D10*
%TO.C,R1*%
X130600000Y-86750000D03*
X132250000Y-86750000D03*
%TD*%
D13*
%TO.C,U2*%
X106700000Y-56300000D03*
X106700000Y-58700000D03*
X104300000Y-58700000D03*
X104300000Y-56300000D03*
D14*
X101500000Y-60000000D03*
X101500000Y-58750000D03*
X101500000Y-57500000D03*
X101500000Y-56250000D03*
X101500000Y-55000000D03*
D15*
X103000000Y-53500000D03*
X104250000Y-53500000D03*
X105500000Y-53500000D03*
X106750000Y-53500000D03*
X108000000Y-53500000D03*
D14*
X109500000Y-55000000D03*
X109500000Y-56250000D03*
X109500000Y-57500000D03*
X109500000Y-58750000D03*
X109500000Y-60000000D03*
D15*
X108000000Y-61500000D03*
X106750000Y-61500000D03*
X105500000Y-61500000D03*
X104250000Y-61500000D03*
X103000000Y-61500000D03*
%TD*%
D16*
%TO.C,J1*%
X122815000Y-97865000D03*
X121665000Y-96715000D03*
X123965000Y-96715000D03*
X120515000Y-96715000D03*
X122815000Y-95565000D03*
X123965000Y-95565000D03*
X122815000Y-96715000D03*
X120515000Y-95565000D03*
X121665000Y-95565000D03*
X121665000Y-97865000D03*
X120515000Y-97865000D03*
X123965000Y-97865000D03*
D17*
X119050000Y-93140000D03*
X119850000Y-93140000D03*
D18*
X121000000Y-93140000D03*
X122000000Y-93140000D03*
X122500000Y-93140000D03*
X123500000Y-93140000D03*
D17*
X125450000Y-93140000D03*
X124650000Y-93140000D03*
D18*
X124000000Y-93140000D03*
X123000000Y-93140000D03*
X121500000Y-93140000D03*
X120500000Y-93140000D03*
%TD*%
D10*
%TO.C,R2*%
X130600000Y-88000000D03*
X132250000Y-88000000D03*
%TD*%
D19*
%TO.C,R10*%
X126650480Y-89524520D03*
X126650480Y-87874520D03*
%TD*%
D20*
%TO.C,U1*%
X133400000Y-77300000D03*
D21*
X133550000Y-81750000D03*
X130850000Y-81750000D03*
D20*
X131100000Y-80300000D03*
D22*
X135370000Y-81902500D03*
D23*
X131675000Y-84800000D03*
D20*
X133400000Y-80300000D03*
X132250000Y-80300000D03*
X131100000Y-77300000D03*
X132250000Y-77300000D03*
D23*
X133225000Y-84800000D03*
D21*
X133550000Y-83650000D03*
X133550000Y-82700000D03*
D24*
X134800000Y-83550000D03*
D21*
X130850000Y-82700000D03*
D22*
X135370000Y-78937500D03*
D24*
X136700000Y-83550000D03*
X136700000Y-77300000D03*
X134800000Y-77300000D03*
D21*
X130850000Y-83650000D03*
%TD*%
D11*
%TO.C,R7*%
X137825000Y-68600000D03*
X136175000Y-68600000D03*
%TD*%
D19*
%TO.C,R6*%
X121600000Y-90025000D03*
X121600000Y-88375000D03*
%TD*%
D11*
%TO.C,R8*%
X136175000Y-66200000D03*
X137825000Y-66200000D03*
%TD*%
D19*
%TO.C,R5*%
X122800000Y-88375000D03*
X122800000Y-90025000D03*
%TD*%
D25*
%TO.C,D3*%
X136125000Y-65100000D03*
X137875000Y-65100000D03*
X137875000Y-64100000D03*
X136125000Y-64100000D03*
%TD*%
D12*
%TO.C,R11*%
X125450480Y-87874520D03*
X125450480Y-89524520D03*
%TD*%
D26*
%TO.C,U4*%
X122100000Y-64693250D03*
X122100000Y-65493250D03*
X122100000Y-66293250D03*
X122100000Y-67093250D03*
X122100000Y-67893250D03*
X122100000Y-68693250D03*
X122100000Y-69493250D03*
X122100000Y-70293250D03*
X122100000Y-71093250D03*
X122100000Y-71893250D03*
X122100000Y-72693250D03*
D27*
X123200000Y-73593250D03*
X124000000Y-73593250D03*
X124800000Y-73593250D03*
X125600000Y-73593250D03*
X126400000Y-73593250D03*
X127200000Y-73593250D03*
X128000000Y-73593250D03*
X128800000Y-73593250D03*
X129600000Y-73593250D03*
X130400000Y-73593250D03*
X131200000Y-73593250D03*
X132000000Y-73593250D03*
X132800000Y-73593250D03*
D26*
X133900000Y-72693250D03*
X133900000Y-71893250D03*
X133900000Y-71093250D03*
X133900000Y-70293250D03*
X133900000Y-69493250D03*
X133900000Y-68693250D03*
X133900000Y-67893250D03*
X133900000Y-67093250D03*
X133900000Y-66293250D03*
X133900000Y-65493250D03*
X133900000Y-64693250D03*
D27*
X132800000Y-63793250D03*
X132000000Y-63793250D03*
X131200000Y-63793250D03*
X130400000Y-63793250D03*
X129600000Y-63793250D03*
X128800000Y-63793250D03*
X128000000Y-63793250D03*
X127200000Y-63793250D03*
X126400000Y-63793250D03*
X125600000Y-63793250D03*
X124800000Y-63793250D03*
X124000000Y-63793250D03*
X123200000Y-63793250D03*
D28*
X128000000Y-70668250D03*
D29*
X126025000Y-66718250D03*
D28*
X128000000Y-68693250D03*
X128000000Y-66718250D03*
X126025000Y-68693250D03*
X129975000Y-68693250D03*
X126025000Y-70668250D03*
X129975000Y-70668250D03*
X129975000Y-66718250D03*
D30*
X133950000Y-63743250D03*
X133950000Y-73643250D03*
X122050000Y-73643250D03*
X122050000Y-63743250D03*
%TD*%
D12*
%TO.C,C4*%
X127850480Y-87924520D03*
X127850480Y-89474520D03*
%TD*%
D10*
%TO.C,R13*%
X110575000Y-91000000D03*
X112225000Y-91000000D03*
%TD*%
D11*
%TO.C,R9*%
X137825000Y-67400000D03*
X136175000Y-67400000D03*
%TD*%
D31*
%TO.C,U3*%
X122500000Y-84300000D03*
X121500000Y-85300000D03*
X121500000Y-84300000D03*
X122500000Y-85300000D03*
D32*
X120100000Y-83800000D03*
X120100000Y-84300000D03*
X120100000Y-84800000D03*
X120100000Y-85300000D03*
X120100000Y-85800000D03*
D33*
X121000000Y-86700000D03*
X121500000Y-86700000D03*
X122000000Y-86700000D03*
X122500000Y-86700000D03*
X123000000Y-86700000D03*
D32*
X123900000Y-85800000D03*
X123900000Y-85300000D03*
X123900000Y-84800000D03*
X123900000Y-84300000D03*
X123900000Y-83800000D03*
D33*
X123000000Y-82900000D03*
X122500000Y-82900000D03*
X122000000Y-82900000D03*
X121500000Y-82900000D03*
X121000000Y-82900000D03*
%TD*%
D34*
%TO.C,D2*%
X130000000Y-95650000D03*
X130000000Y-92850000D03*
%TD*%
M02*
