%TF.GenerationSoftware,KiCad,Pcbnew,(5.1.9-0-10_14)*%
%TF.CreationDate,2021-03-10T14:45:40+00:00*%
%TF.ProjectId,EnvMon,456e764d-6f6e-42e6-9b69-6361645f7063,rev?*%
%TF.SameCoordinates,Original*%
%TF.FileFunction,Legend,Top*%
%TF.FilePolarity,Positive*%
%FSLAX46Y46*%
G04 Gerber Fmt 4.6, Leading zero omitted, Abs format (unit mm)*
G04 Created by KiCad (PCBNEW (5.1.9-0-10_14)) date 2021-03-10 14:45:40*
%MOMM*%
%LPD*%
G01*
G04 APERTURE LIST*
%ADD10C,0.120000*%
%ADD11C,0.150000*%
G04 APERTURE END LIST*
D10*
%TO.C,M2*%
X134500000Y-63000000D02*
X90000000Y-63000000D01*
X90000000Y-63000000D02*
X90000000Y-100000000D01*
X90000000Y-100000000D02*
X134500000Y-100000000D01*
X134500000Y-100000000D02*
X134500000Y-63000000D01*
X129000000Y-63000000D02*
X129000000Y-92210000D01*
X129000000Y-92210000D02*
X95500000Y-92210000D01*
X95500000Y-92210000D02*
X95500000Y-63000000D01*
X132500000Y-90500000D02*
X126500000Y-90500000D01*
X126500000Y-90500000D02*
X126500000Y-72500000D01*
X126500000Y-72500000D02*
X132500000Y-72500000D01*
X132500000Y-72500000D02*
X132500000Y-90500000D01*
X130500000Y-90500000D02*
X132500000Y-88500000D01*
X129000000Y-90500000D02*
X132500000Y-87000000D01*
X127500000Y-90500000D02*
X132500000Y-85500000D01*
X126500000Y-90000000D02*
X132500000Y-84000000D01*
X126500000Y-88500000D02*
X132500000Y-82500000D01*
X126500000Y-87000000D02*
X132500000Y-81000000D01*
X126500000Y-85500000D02*
X132500000Y-79500000D01*
X126500000Y-84000000D02*
X132500000Y-78000000D01*
X126500000Y-82500000D02*
X132500000Y-76500000D01*
X126500000Y-81000000D02*
X132500000Y-75000000D01*
X126500000Y-79500000D02*
X132500000Y-73500000D01*
X126500000Y-78000000D02*
X132000000Y-72500000D01*
X126500000Y-76500000D02*
X130500000Y-72500000D01*
X126500000Y-75000000D02*
X129000000Y-72500000D01*
X126500000Y-73500000D02*
X127500000Y-72500000D01*
%TO.C,U2*%
X106130000Y-87855000D02*
X106130000Y-88635000D01*
X106130000Y-88635000D02*
X107130000Y-88635000D01*
X124370000Y-87855000D02*
X124370000Y-88635000D01*
X124370000Y-88635000D02*
X123370000Y-88635000D01*
X106130000Y-62890000D02*
X124370000Y-62890000D01*
X124370000Y-62890000D02*
X124370000Y-69310000D01*
X106130000Y-62890000D02*
X106130000Y-69310000D01*
X106130000Y-69310000D02*
X105750000Y-69310000D01*
%TO.C,U1*%
X101110000Y-86365000D02*
X101835000Y-86365000D01*
X101835000Y-86365000D02*
X101835000Y-87090000D01*
X98340000Y-90585000D02*
X97615000Y-90585000D01*
X97615000Y-90585000D02*
X97615000Y-89860000D01*
X101110000Y-90585000D02*
X101835000Y-90585000D01*
X101835000Y-90585000D02*
X101835000Y-89860000D01*
X98340000Y-86365000D02*
X97615000Y-86365000D01*
%TO.C,M1*%
X103830000Y-85500000D02*
X93670000Y-85500000D01*
X103830000Y-72800000D02*
X103830000Y-85500000D01*
X93670000Y-72800000D02*
X103830000Y-72800000D01*
X93670000Y-85500000D02*
X93670000Y-72800000D01*
%TO.C,J3*%
X106190000Y-91440000D02*
X108600000Y-91440000D01*
X106190000Y-93850000D02*
X106190000Y-91440000D01*
X129110000Y-91740000D02*
X106490000Y-91740000D01*
X129110000Y-99860000D02*
X129110000Y-91740000D01*
X106490000Y-99860000D02*
X129110000Y-99860000D01*
X106490000Y-91740000D02*
X106490000Y-99860000D01*
%TO.C,J1*%
X95280000Y-100485000D02*
X95280000Y-93135000D01*
X95280000Y-93135000D02*
X104220000Y-93135000D01*
X104220000Y-93135000D02*
X104220000Y-100485000D01*
X95280000Y-100485000D02*
X104220000Y-100485000D01*
%TO.C,J2*%
D11*
X96242380Y-92083333D02*
X96956666Y-92083333D01*
X97099523Y-92130952D01*
X97194761Y-92226190D01*
X97242380Y-92369047D01*
X97242380Y-92464285D01*
X96337619Y-91654761D02*
X96290000Y-91607142D01*
X96242380Y-91511904D01*
X96242380Y-91273809D01*
X96290000Y-91178571D01*
X96337619Y-91130952D01*
X96432857Y-91083333D01*
X96528095Y-91083333D01*
X96670952Y-91130952D01*
X97242380Y-91702380D01*
X97242380Y-91083333D01*
%TO.C,M2*%
X91452380Y-82309523D02*
X90452380Y-82309523D01*
X91166666Y-81976190D01*
X90452380Y-81642857D01*
X91452380Y-81642857D01*
X90547619Y-81214285D02*
X90500000Y-81166666D01*
X90452380Y-81071428D01*
X90452380Y-80833333D01*
X90500000Y-80738095D01*
X90547619Y-80690476D01*
X90642857Y-80642857D01*
X90738095Y-80642857D01*
X90880952Y-80690476D01*
X91452380Y-81261904D01*
X91452380Y-80642857D01*
%TO.C,M3*%
X90440476Y-69952380D02*
X90440476Y-68952380D01*
X90773809Y-69666666D01*
X91107142Y-68952380D01*
X91107142Y-69952380D01*
X91488095Y-68952380D02*
X92107142Y-68952380D01*
X91773809Y-69333333D01*
X91916666Y-69333333D01*
X92011904Y-69380952D01*
X92059523Y-69428571D01*
X92107142Y-69523809D01*
X92107142Y-69761904D01*
X92059523Y-69857142D01*
X92011904Y-69904761D01*
X91916666Y-69952380D01*
X91630952Y-69952380D01*
X91535714Y-69904761D01*
X91488095Y-69857142D01*
%TO.C,U2*%
X104092380Y-87946904D02*
X104901904Y-87946904D01*
X104997142Y-87899285D01*
X105044761Y-87851666D01*
X105092380Y-87756428D01*
X105092380Y-87565952D01*
X105044761Y-87470714D01*
X104997142Y-87423095D01*
X104901904Y-87375476D01*
X104092380Y-87375476D01*
X104187619Y-86946904D02*
X104140000Y-86899285D01*
X104092380Y-86804047D01*
X104092380Y-86565952D01*
X104140000Y-86470714D01*
X104187619Y-86423095D01*
X104282857Y-86375476D01*
X104378095Y-86375476D01*
X104520952Y-86423095D01*
X105092380Y-86994523D01*
X105092380Y-86375476D01*
%TO.C,U1*%
X95452380Y-89261904D02*
X96261904Y-89261904D01*
X96357142Y-89214285D01*
X96404761Y-89166666D01*
X96452380Y-89071428D01*
X96452380Y-88880952D01*
X96404761Y-88785714D01*
X96357142Y-88738095D01*
X96261904Y-88690476D01*
X95452380Y-88690476D01*
X96452380Y-87690476D02*
X96452380Y-88261904D01*
X96452380Y-87976190D02*
X95452380Y-87976190D01*
X95595238Y-88071428D01*
X95690476Y-88166666D01*
X95738095Y-88261904D01*
%TO.C,M1*%
X102190476Y-72452380D02*
X102190476Y-71452380D01*
X102523809Y-72166666D01*
X102857142Y-71452380D01*
X102857142Y-72452380D01*
X103857142Y-72452380D02*
X103285714Y-72452380D01*
X103571428Y-72452380D02*
X103571428Y-71452380D01*
X103476190Y-71595238D01*
X103380952Y-71690476D01*
X103285714Y-71738095D01*
%TO.C,J3*%
X117466666Y-90102380D02*
X117466666Y-90816666D01*
X117419047Y-90959523D01*
X117323809Y-91054761D01*
X117180952Y-91102380D01*
X117085714Y-91102380D01*
X117847619Y-90102380D02*
X118466666Y-90102380D01*
X118133333Y-90483333D01*
X118276190Y-90483333D01*
X118371428Y-90530952D01*
X118419047Y-90578571D01*
X118466666Y-90673809D01*
X118466666Y-90911904D01*
X118419047Y-91007142D01*
X118371428Y-91054761D01*
X118276190Y-91102380D01*
X117990476Y-91102380D01*
X117895238Y-91054761D01*
X117847619Y-91007142D01*
%TO.C,J1*%
X103916666Y-91202380D02*
X103916666Y-91916666D01*
X103869047Y-92059523D01*
X103773809Y-92154761D01*
X103630952Y-92202380D01*
X103535714Y-92202380D01*
X104916666Y-92202380D02*
X104345238Y-92202380D01*
X104630952Y-92202380D02*
X104630952Y-91202380D01*
X104535714Y-91345238D01*
X104440476Y-91440476D01*
X104345238Y-91488095D01*
%TD*%
M02*
