%TF.GenerationSoftware,KiCad,Pcbnew,(5.1.9-0-10_14)*%
%TF.CreationDate,2021-04-22T10:05:04+01:00*%
%TF.ProjectId,EnvMon,456e764d-6f6e-42e6-9b69-6361645f7063,2*%
%TF.SameCoordinates,Original*%
%TF.FileFunction,Paste,Top*%
%TF.FilePolarity,Positive*%
%FSLAX46Y46*%
G04 Gerber Fmt 4.6, Leading zero omitted, Abs format (unit mm)*
G04 Created by KiCad (PCBNEW (5.1.9-0-10_14)) date 2021-04-22 10:05:04*
%MOMM*%
%LPD*%
G01*
G04 APERTURE LIST*
%ADD10C,1.700000*%
%ADD11R,2.000000X0.900000*%
%ADD12R,0.900000X2.000000*%
%ADD13R,5.000000X5.000000*%
%ADD14R,0.600000X1.140000*%
%ADD15R,0.300000X1.140000*%
G04 APERTURE END LIST*
%TO.C,U1*%
G36*
G01*
X100095000Y-89005000D02*
X100095000Y-88495000D01*
G75*
G02*
X100345000Y-88245000I250000J0D01*
G01*
X100855000Y-88245000D01*
G75*
G02*
X101105000Y-88495000I0J-250000D01*
G01*
X101105000Y-89005000D01*
G75*
G02*
X100855000Y-89255000I-250000J0D01*
G01*
X100345000Y-89255000D01*
G75*
G02*
X100095000Y-89005000I0J250000D01*
G01*
G37*
G36*
G01*
X100095000Y-87755000D02*
X100095000Y-87245000D01*
G75*
G02*
X100345000Y-86995000I250000J0D01*
G01*
X100855000Y-86995000D01*
G75*
G02*
X101105000Y-87245000I0J-250000D01*
G01*
X101105000Y-87755000D01*
G75*
G02*
X100855000Y-88005000I-250000J0D01*
G01*
X100345000Y-88005000D01*
G75*
G02*
X100095000Y-87755000I0J250000D01*
G01*
G37*
G36*
G01*
X98845000Y-89005000D02*
X98845000Y-88495000D01*
G75*
G02*
X99095000Y-88245000I250000J0D01*
G01*
X99605000Y-88245000D01*
G75*
G02*
X99855000Y-88495000I0J-250000D01*
G01*
X99855000Y-89005000D01*
G75*
G02*
X99605000Y-89255000I-250000J0D01*
G01*
X99095000Y-89255000D01*
G75*
G02*
X98845000Y-89005000I0J250000D01*
G01*
G37*
G36*
G01*
X98845000Y-87755000D02*
X98845000Y-87245000D01*
G75*
G02*
X99095000Y-86995000I250000J0D01*
G01*
X99605000Y-86995000D01*
G75*
G02*
X99855000Y-87245000I0J-250000D01*
G01*
X99855000Y-87755000D01*
G75*
G02*
X99605000Y-88005000I-250000J0D01*
G01*
X99095000Y-88005000D01*
G75*
G02*
X98845000Y-87755000I0J250000D01*
G01*
G37*
G36*
G01*
X98850000Y-86537500D02*
X98850000Y-85662500D01*
G75*
G02*
X98912500Y-85600000I62500J0D01*
G01*
X99037500Y-85600000D01*
G75*
G02*
X99100000Y-85662500I0J-62500D01*
G01*
X99100000Y-86537500D01*
G75*
G02*
X99037500Y-86600000I-62500J0D01*
G01*
X98912500Y-86600000D01*
G75*
G02*
X98850000Y-86537500I0J62500D01*
G01*
G37*
G36*
G01*
X99350000Y-86537500D02*
X99350000Y-85662500D01*
G75*
G02*
X99412500Y-85600000I62500J0D01*
G01*
X99537500Y-85600000D01*
G75*
G02*
X99600000Y-85662500I0J-62500D01*
G01*
X99600000Y-86537500D01*
G75*
G02*
X99537500Y-86600000I-62500J0D01*
G01*
X99412500Y-86600000D01*
G75*
G02*
X99350000Y-86537500I0J62500D01*
G01*
G37*
G36*
G01*
X99850000Y-86537500D02*
X99850000Y-85662500D01*
G75*
G02*
X99912500Y-85600000I62500J0D01*
G01*
X100037500Y-85600000D01*
G75*
G02*
X100100000Y-85662500I0J-62500D01*
G01*
X100100000Y-86537500D01*
G75*
G02*
X100037500Y-86600000I-62500J0D01*
G01*
X99912500Y-86600000D01*
G75*
G02*
X99850000Y-86537500I0J62500D01*
G01*
G37*
G36*
G01*
X100350000Y-86537500D02*
X100350000Y-85662500D01*
G75*
G02*
X100412500Y-85600000I62500J0D01*
G01*
X100537500Y-85600000D01*
G75*
G02*
X100600000Y-85662500I0J-62500D01*
G01*
X100600000Y-86537500D01*
G75*
G02*
X100537500Y-86600000I-62500J0D01*
G01*
X100412500Y-86600000D01*
G75*
G02*
X100350000Y-86537500I0J62500D01*
G01*
G37*
G36*
G01*
X100850000Y-86537500D02*
X100850000Y-85662500D01*
G75*
G02*
X100912500Y-85600000I62500J0D01*
G01*
X101037500Y-85600000D01*
G75*
G02*
X101100000Y-85662500I0J-62500D01*
G01*
X101100000Y-86537500D01*
G75*
G02*
X101037500Y-86600000I-62500J0D01*
G01*
X100912500Y-86600000D01*
G75*
G02*
X100850000Y-86537500I0J62500D01*
G01*
G37*
G36*
G01*
X101500000Y-87187500D02*
X101500000Y-87062500D01*
G75*
G02*
X101562500Y-87000000I62500J0D01*
G01*
X102437500Y-87000000D01*
G75*
G02*
X102500000Y-87062500I0J-62500D01*
G01*
X102500000Y-87187500D01*
G75*
G02*
X102437500Y-87250000I-62500J0D01*
G01*
X101562500Y-87250000D01*
G75*
G02*
X101500000Y-87187500I0J62500D01*
G01*
G37*
G36*
G01*
X101500000Y-87687500D02*
X101500000Y-87562500D01*
G75*
G02*
X101562500Y-87500000I62500J0D01*
G01*
X102437500Y-87500000D01*
G75*
G02*
X102500000Y-87562500I0J-62500D01*
G01*
X102500000Y-87687500D01*
G75*
G02*
X102437500Y-87750000I-62500J0D01*
G01*
X101562500Y-87750000D01*
G75*
G02*
X101500000Y-87687500I0J62500D01*
G01*
G37*
G36*
G01*
X101500000Y-88187500D02*
X101500000Y-88062500D01*
G75*
G02*
X101562500Y-88000000I62500J0D01*
G01*
X102437500Y-88000000D01*
G75*
G02*
X102500000Y-88062500I0J-62500D01*
G01*
X102500000Y-88187500D01*
G75*
G02*
X102437500Y-88250000I-62500J0D01*
G01*
X101562500Y-88250000D01*
G75*
G02*
X101500000Y-88187500I0J62500D01*
G01*
G37*
G36*
G01*
X101500000Y-88687500D02*
X101500000Y-88562500D01*
G75*
G02*
X101562500Y-88500000I62500J0D01*
G01*
X102437500Y-88500000D01*
G75*
G02*
X102500000Y-88562500I0J-62500D01*
G01*
X102500000Y-88687500D01*
G75*
G02*
X102437500Y-88750000I-62500J0D01*
G01*
X101562500Y-88750000D01*
G75*
G02*
X101500000Y-88687500I0J62500D01*
G01*
G37*
G36*
G01*
X101500000Y-89187500D02*
X101500000Y-89062500D01*
G75*
G02*
X101562500Y-89000000I62500J0D01*
G01*
X102437500Y-89000000D01*
G75*
G02*
X102500000Y-89062500I0J-62500D01*
G01*
X102500000Y-89187500D01*
G75*
G02*
X102437500Y-89250000I-62500J0D01*
G01*
X101562500Y-89250000D01*
G75*
G02*
X101500000Y-89187500I0J62500D01*
G01*
G37*
G36*
G01*
X100850000Y-90587500D02*
X100850000Y-89712500D01*
G75*
G02*
X100912500Y-89650000I62500J0D01*
G01*
X101037500Y-89650000D01*
G75*
G02*
X101100000Y-89712500I0J-62500D01*
G01*
X101100000Y-90587500D01*
G75*
G02*
X101037500Y-90650000I-62500J0D01*
G01*
X100912500Y-90650000D01*
G75*
G02*
X100850000Y-90587500I0J62500D01*
G01*
G37*
G36*
G01*
X100350000Y-90587500D02*
X100350000Y-89712500D01*
G75*
G02*
X100412500Y-89650000I62500J0D01*
G01*
X100537500Y-89650000D01*
G75*
G02*
X100600000Y-89712500I0J-62500D01*
G01*
X100600000Y-90587500D01*
G75*
G02*
X100537500Y-90650000I-62500J0D01*
G01*
X100412500Y-90650000D01*
G75*
G02*
X100350000Y-90587500I0J62500D01*
G01*
G37*
G36*
G01*
X99850000Y-90587500D02*
X99850000Y-89712500D01*
G75*
G02*
X99912500Y-89650000I62500J0D01*
G01*
X100037500Y-89650000D01*
G75*
G02*
X100100000Y-89712500I0J-62500D01*
G01*
X100100000Y-90587500D01*
G75*
G02*
X100037500Y-90650000I-62500J0D01*
G01*
X99912500Y-90650000D01*
G75*
G02*
X99850000Y-90587500I0J62500D01*
G01*
G37*
G36*
G01*
X99350000Y-90587500D02*
X99350000Y-89712500D01*
G75*
G02*
X99412500Y-89650000I62500J0D01*
G01*
X99537500Y-89650000D01*
G75*
G02*
X99600000Y-89712500I0J-62500D01*
G01*
X99600000Y-90587500D01*
G75*
G02*
X99537500Y-90650000I-62500J0D01*
G01*
X99412500Y-90650000D01*
G75*
G02*
X99350000Y-90587500I0J62500D01*
G01*
G37*
G36*
G01*
X98850000Y-90587500D02*
X98850000Y-89712500D01*
G75*
G02*
X98912500Y-89650000I62500J0D01*
G01*
X99037500Y-89650000D01*
G75*
G02*
X99100000Y-89712500I0J-62500D01*
G01*
X99100000Y-90587500D01*
G75*
G02*
X99037500Y-90650000I-62500J0D01*
G01*
X98912500Y-90650000D01*
G75*
G02*
X98850000Y-90587500I0J62500D01*
G01*
G37*
G36*
G01*
X97450000Y-89187500D02*
X97450000Y-89062500D01*
G75*
G02*
X97512500Y-89000000I62500J0D01*
G01*
X98387500Y-89000000D01*
G75*
G02*
X98450000Y-89062500I0J-62500D01*
G01*
X98450000Y-89187500D01*
G75*
G02*
X98387500Y-89250000I-62500J0D01*
G01*
X97512500Y-89250000D01*
G75*
G02*
X97450000Y-89187500I0J62500D01*
G01*
G37*
G36*
G01*
X97450000Y-88687500D02*
X97450000Y-88562500D01*
G75*
G02*
X97512500Y-88500000I62500J0D01*
G01*
X98387500Y-88500000D01*
G75*
G02*
X98450000Y-88562500I0J-62500D01*
G01*
X98450000Y-88687500D01*
G75*
G02*
X98387500Y-88750000I-62500J0D01*
G01*
X97512500Y-88750000D01*
G75*
G02*
X97450000Y-88687500I0J62500D01*
G01*
G37*
G36*
G01*
X97450000Y-88187500D02*
X97450000Y-88062500D01*
G75*
G02*
X97512500Y-88000000I62500J0D01*
G01*
X98387500Y-88000000D01*
G75*
G02*
X98450000Y-88062500I0J-62500D01*
G01*
X98450000Y-88187500D01*
G75*
G02*
X98387500Y-88250000I-62500J0D01*
G01*
X97512500Y-88250000D01*
G75*
G02*
X97450000Y-88187500I0J62500D01*
G01*
G37*
G36*
G01*
X97450000Y-87687500D02*
X97450000Y-87562500D01*
G75*
G02*
X97512500Y-87500000I62500J0D01*
G01*
X98387500Y-87500000D01*
G75*
G02*
X98450000Y-87562500I0J-62500D01*
G01*
X98450000Y-87687500D01*
G75*
G02*
X98387500Y-87750000I-62500J0D01*
G01*
X97512500Y-87750000D01*
G75*
G02*
X97450000Y-87687500I0J62500D01*
G01*
G37*
G36*
G01*
X97450000Y-87187500D02*
X97450000Y-87062500D01*
G75*
G02*
X97512500Y-87000000I62500J0D01*
G01*
X98387500Y-87000000D01*
G75*
G02*
X98450000Y-87062500I0J-62500D01*
G01*
X98450000Y-87187500D01*
G75*
G02*
X98387500Y-87250000I-62500J0D01*
G01*
X97512500Y-87250000D01*
G75*
G02*
X97450000Y-87187500I0J62500D01*
G01*
G37*
%TD*%
D10*
%TO.C,M1*%
X94990000Y-83430000D03*
X102610000Y-83430000D03*
X97530000Y-83430000D03*
%TD*%
D11*
%TO.C,U2*%
X123750000Y-70745000D03*
X123750000Y-72015000D03*
X123750000Y-73285000D03*
X123750000Y-74555000D03*
X123750000Y-75825000D03*
X123750000Y-77095000D03*
X123750000Y-78365000D03*
X123750000Y-79635000D03*
X123750000Y-80905000D03*
X123750000Y-82175000D03*
X123750000Y-83445000D03*
X123750000Y-84715000D03*
X123750000Y-85985000D03*
X123750000Y-87255000D03*
D12*
X120965000Y-88255000D03*
X119695000Y-88255000D03*
X118425000Y-88255000D03*
X117155000Y-88255000D03*
X115885000Y-88255000D03*
X114615000Y-88255000D03*
X113345000Y-88255000D03*
X112075000Y-88255000D03*
X110805000Y-88255000D03*
X109535000Y-88255000D03*
D11*
X106750000Y-87255000D03*
X106750000Y-85985000D03*
X106750000Y-84715000D03*
X106750000Y-83445000D03*
X106750000Y-82175000D03*
X106750000Y-80905000D03*
X106750000Y-79635000D03*
X106750000Y-78365000D03*
X106750000Y-77095000D03*
X106750000Y-75825000D03*
X106750000Y-74555000D03*
X106750000Y-73285000D03*
X106750000Y-72015000D03*
X106750000Y-70745000D03*
D13*
X114250000Y-78245000D03*
%TD*%
D14*
%TO.C,J1*%
X102950000Y-93135000D03*
X97350000Y-93135000D03*
X96550000Y-93135000D03*
X102150000Y-93135000D03*
D15*
X100000000Y-93135000D03*
X99500000Y-93135000D03*
X100500000Y-93135000D03*
X99000000Y-93135000D03*
X101000000Y-93135000D03*
X98500000Y-93135000D03*
X101500000Y-93135000D03*
X98000000Y-93135000D03*
D14*
X102150000Y-93135000D03*
X97350000Y-93135000D03*
X102950000Y-93135000D03*
X96550000Y-93135000D03*
%TD*%
M02*
