M48
; DRILL file {KiCad (6.0.5-0)} date Thursday, 06 October 2022 at 12:36:54
; FORMAT={-:-/ absolute / inch / decimal}
; #@! TF.CreationDate,2022-10-06T12:36:54+01:00
; #@! TF.GenerationSoftware,Kicad,Pcbnew,(6.0.5-0)
; #@! TF.FileFunction,Plated,1,2,PTH
FMAT,2
INCH
; #@! TA.AperFunction,Plated,PTH,ViaDrill
T1C0.0157
; #@! TA.AperFunction,Plated,PTH,ComponentDrill
T2C0.0236
; #@! TA.AperFunction,Plated,PTH,ComponentDrill
T3C0.0335
; #@! TA.AperFunction,Plated,PTH,ComponentDrill
T4C0.0394
; #@! TA.AperFunction,Plated,PTH,ComponentDrill
T5C0.0433
; #@! TA.AperFunction,Plated,PTH,ComponentDrill
T6C0.0492
%
G90
G05
T1
X3.4646Y-3.5433
X3.4646Y-3.8976
X3.5Y-3.5787
X3.6417Y-3.7205
X3.937Y-2.6969
X3.937Y-2.7362
X3.937Y-3.1791
X3.937Y-3.2185
X3.937Y-3.7598
X3.937Y-3.7992
X4.2087Y-2.7047
X4.2441Y-2.7362
X4.2756Y-2.7717
X4.6457Y-2.8425
X4.6535Y-3.0157
X4.7165Y-3.5748
X4.7244Y-3.4449
X4.7765Y-3.2455
X4.8425Y-3.1693
X4.8819Y-3.1693
X4.8839Y-3.435
X4.9055Y-3.5748
X4.9409Y-3.1693
X4.9606Y-2.8839
X4.9918Y-2.7594
X4.9921Y-2.8031
X4.9921Y-3.3386
X5.0Y-2.9134
X5.0945Y-3.4646
X5.0984Y-3.4154
X5.1477Y-2.9924
X5.1732Y-2.937
X5.2854Y-3.435
X5.3248Y-3.189
X5.5354Y-2.7953
T2
X4.6992Y-3.7091
X4.9268Y-3.7091
T3
X4.2815Y-3.5768
X4.3799Y-3.5768
X4.4783Y-3.5768
X5.187Y-3.5768
X5.2854Y-3.5768
T4
X4.0354Y-2.9087
X4.0354Y-3.0087
X4.0354Y-3.1087
X4.0354Y-3.2087
X4.0354Y-3.3087
X4.0354Y-3.4087
X4.0354Y-3.5087
X4.6429Y-3.8539
X4.9831Y-3.8539
X5.5787Y-2.989
X5.5787Y-3.089
X5.5787Y-3.189
X5.5787Y-3.289
X5.5787Y-3.389
T5
X3.5138Y-2.5689
X3.5138Y-2.7461
X3.5138Y-2.8642
X3.5138Y-3.0413
X3.5157Y-3.1594
X3.5157Y-3.3366
X3.7697Y-2.5689
X3.7697Y-2.7461
X3.7697Y-2.8642
X3.7697Y-3.0413
X3.7717Y-3.1594
X3.7717Y-3.3366
T6
X4.6429Y-3.6898
X4.9831Y-3.6898
T0
M30
