M48
; DRILL file {KiCad (6.0.2-0)} date Sunday, 10 April 2022 at 10:20:31
; FORMAT={-:-/ absolute / inch / decimal}
; #@! TF.CreationDate,2022-04-10T10:20:31+01:00
; #@! TF.GenerationSoftware,Kicad,Pcbnew,(6.0.2-0)
; #@! TF.FileFunction,Plated,1,2,PTH
FMAT,2
INCH
; #@! TA.AperFunction,Plated,PTH,ViaDrill
T1C0.0157
; #@! TA.AperFunction,Plated,PTH,ComponentDrill
T2C0.0236
; #@! TA.AperFunction,Plated,PTH,ComponentDrill
T3C0.0335
; #@! TA.AperFunction,Plated,PTH,ComponentDrill
T4C0.0394
; #@! TA.AperFunction,Plated,PTH,ComponentDrill
T5C0.0433
; #@! TA.AperFunction,Plated,PTH,ComponentDrill
T6C0.0492
%
G90
G05
T1
X3.4547Y-2.5197
X3.4843Y-2.8504
X3.5039Y-2.5591
X3.6417Y-2.6969
X3.8091Y-2.5295
X4.5276Y-2.7165
X4.6358Y-2.8248
X4.6358Y-2.8642
X4.6358Y-2.9035
X4.6358Y-2.9429
X4.6457Y-3.2776
X4.685Y-3.3169
X4.7165Y-3.5748
X4.8327Y-3.061
X4.8327Y-3.1791
X4.8839Y-3.435
X4.9055Y-3.5748
X4.9606Y-2.815
X4.9606Y-2.8839
X5.0Y-2.815
X5.0Y-2.9134
X5.0Y-3.248
X5.0984Y-3.4154
X5.1083Y-2.7165
X5.3248Y-3.1693
X5.3937Y-2.7461
T2
X4.6992Y-3.7091
X4.9268Y-3.7091
T3
X4.2421Y-3.6772
X4.3406Y-3.6772
X4.439Y-3.6772
X5.2815Y-3.6772
X5.3799Y-3.6772
T4
X4.0354Y-2.9087
X4.0354Y-3.0087
X4.0354Y-3.1087
X4.0354Y-3.2087
X4.0354Y-3.3087
X4.0354Y-3.4087
X4.0354Y-3.5087
X4.6429Y-3.8539
X4.9831Y-3.8539
T5
X3.5138Y-3.0807
X3.5138Y-3.2579
X3.5138Y-3.376
X3.5138Y-3.5531
X3.5157Y-3.6713
X3.5157Y-3.8484
X3.7697Y-3.0807
X3.7697Y-3.2579
X3.7697Y-3.376
X3.7697Y-3.5531
X3.7717Y-3.6713
X3.7717Y-3.8484
T6
X4.6429Y-3.6898
X4.9831Y-3.6898
T0
M30
