%TF.GenerationSoftware,KiCad,Pcbnew,(5.1.9-0-10_14)*%
%TF.CreationDate,2021-05-20T09:38:49+01:00*%
%TF.ProjectId,EnvMon,456e764d-6f6e-42e6-9b69-6361645f7063,2*%
%TF.SameCoordinates,Original*%
%TF.FileFunction,Paste,Bot*%
%TF.FilePolarity,Positive*%
%FSLAX46Y46*%
G04 Gerber Fmt 4.6, Leading zero omitted, Abs format (unit mm)*
G04 Created by KiCad (PCBNEW (5.1.9-0-10_14)) date 2021-05-20 09:38:49*
%MOMM*%
%LPD*%
G01*
G04 APERTURE LIST*
%ADD10C,2.000000*%
G04 APERTURE END LIST*
%TO.C,R2*%
G36*
G01*
X98147499Y-97299999D02*
X98622499Y-97299999D01*
G75*
G02*
X98859999Y-97537499I0J-237500D01*
G01*
X98859999Y-98037499D01*
G75*
G02*
X98622499Y-98274999I-237500J0D01*
G01*
X98147499Y-98274999D01*
G75*
G02*
X97909999Y-98037499I0J237500D01*
G01*
X97909999Y-97537499D01*
G75*
G02*
X98147499Y-97299999I237500J0D01*
G01*
G37*
G36*
G01*
X98147499Y-95474999D02*
X98622499Y-95474999D01*
G75*
G02*
X98859999Y-95712499I0J-237500D01*
G01*
X98859999Y-96212499D01*
G75*
G02*
X98622499Y-96449999I-237500J0D01*
G01*
X98147499Y-96449999D01*
G75*
G02*
X97909999Y-96212499I0J237500D01*
G01*
X97909999Y-95712499D01*
G75*
G02*
X98147499Y-95474999I237500J0D01*
G01*
G37*
%TD*%
%TO.C,R1*%
G36*
G01*
X100657499Y-97299999D02*
X101132499Y-97299999D01*
G75*
G02*
X101369999Y-97537499I0J-237500D01*
G01*
X101369999Y-98037499D01*
G75*
G02*
X101132499Y-98274999I-237500J0D01*
G01*
X100657499Y-98274999D01*
G75*
G02*
X100419999Y-98037499I0J237500D01*
G01*
X100419999Y-97537499D01*
G75*
G02*
X100657499Y-97299999I237500J0D01*
G01*
G37*
G36*
G01*
X100657499Y-95474999D02*
X101132499Y-95474999D01*
G75*
G02*
X101369999Y-95712499I0J-237500D01*
G01*
X101369999Y-96212499D01*
G75*
G02*
X101132499Y-96449999I-237500J0D01*
G01*
X100657499Y-96449999D01*
G75*
G02*
X100419999Y-96212499I0J237500D01*
G01*
X100419999Y-95712499D01*
G75*
G02*
X100657499Y-95474999I237500J0D01*
G01*
G37*
%TD*%
D10*
%TO.C,M3*%
X129200000Y-79700000D03*
X129200000Y-88200000D03*
%TD*%
%TO.C,R9*%
G36*
G01*
X125925000Y-97850000D02*
X127175000Y-97850000D01*
G75*
G02*
X127425000Y-98100000I0J-250000D01*
G01*
X127425000Y-98900000D01*
G75*
G02*
X127175000Y-99150000I-250000J0D01*
G01*
X125925000Y-99150000D01*
G75*
G02*
X125675000Y-98900000I0J250000D01*
G01*
X125675000Y-98100000D01*
G75*
G02*
X125925000Y-97850000I250000J0D01*
G01*
G37*
G36*
G01*
X125925000Y-94750000D02*
X127175000Y-94750000D01*
G75*
G02*
X127425000Y-95000000I0J-250000D01*
G01*
X127425000Y-95800000D01*
G75*
G02*
X127175000Y-96050000I-250000J0D01*
G01*
X125925000Y-96050000D01*
G75*
G02*
X125675000Y-95800000I0J250000D01*
G01*
X125675000Y-95000000D01*
G75*
G02*
X125925000Y-94750000I250000J0D01*
G01*
G37*
%TD*%
%TO.C,R8*%
G36*
G01*
X123425000Y-97850000D02*
X124675000Y-97850000D01*
G75*
G02*
X124925000Y-98100000I0J-250000D01*
G01*
X124925000Y-98900000D01*
G75*
G02*
X124675000Y-99150000I-250000J0D01*
G01*
X123425000Y-99150000D01*
G75*
G02*
X123175000Y-98900000I0J250000D01*
G01*
X123175000Y-98100000D01*
G75*
G02*
X123425000Y-97850000I250000J0D01*
G01*
G37*
G36*
G01*
X123425000Y-94750000D02*
X124675000Y-94750000D01*
G75*
G02*
X124925000Y-95000000I0J-250000D01*
G01*
X124925000Y-95800000D01*
G75*
G02*
X124675000Y-96050000I-250000J0D01*
G01*
X123425000Y-96050000D01*
G75*
G02*
X123175000Y-95800000I0J250000D01*
G01*
X123175000Y-95000000D01*
G75*
G02*
X123425000Y-94750000I250000J0D01*
G01*
G37*
%TD*%
%TO.C,R7*%
G36*
G01*
X120925000Y-97850000D02*
X122175000Y-97850000D01*
G75*
G02*
X122425000Y-98100000I0J-250000D01*
G01*
X122425000Y-98900000D01*
G75*
G02*
X122175000Y-99150000I-250000J0D01*
G01*
X120925000Y-99150000D01*
G75*
G02*
X120675000Y-98900000I0J250000D01*
G01*
X120675000Y-98100000D01*
G75*
G02*
X120925000Y-97850000I250000J0D01*
G01*
G37*
G36*
G01*
X120925000Y-94750000D02*
X122175000Y-94750000D01*
G75*
G02*
X122425000Y-95000000I0J-250000D01*
G01*
X122425000Y-95800000D01*
G75*
G02*
X122175000Y-96050000I-250000J0D01*
G01*
X120925000Y-96050000D01*
G75*
G02*
X120675000Y-95800000I0J250000D01*
G01*
X120675000Y-95000000D01*
G75*
G02*
X120925000Y-94750000I250000J0D01*
G01*
G37*
%TD*%
%TO.C,R6*%
G36*
G01*
X118425000Y-97850000D02*
X119675000Y-97850000D01*
G75*
G02*
X119925000Y-98100000I0J-250000D01*
G01*
X119925000Y-98900000D01*
G75*
G02*
X119675000Y-99150000I-250000J0D01*
G01*
X118425000Y-99150000D01*
G75*
G02*
X118175000Y-98900000I0J250000D01*
G01*
X118175000Y-98100000D01*
G75*
G02*
X118425000Y-97850000I250000J0D01*
G01*
G37*
G36*
G01*
X118425000Y-94750000D02*
X119675000Y-94750000D01*
G75*
G02*
X119925000Y-95000000I0J-250000D01*
G01*
X119925000Y-95800000D01*
G75*
G02*
X119675000Y-96050000I-250000J0D01*
G01*
X118425000Y-96050000D01*
G75*
G02*
X118175000Y-95800000I0J250000D01*
G01*
X118175000Y-95000000D01*
G75*
G02*
X118425000Y-94750000I250000J0D01*
G01*
G37*
%TD*%
%TO.C,R5*%
G36*
G01*
X115925000Y-97850000D02*
X117175000Y-97850000D01*
G75*
G02*
X117425000Y-98100000I0J-250000D01*
G01*
X117425000Y-98900000D01*
G75*
G02*
X117175000Y-99150000I-250000J0D01*
G01*
X115925000Y-99150000D01*
G75*
G02*
X115675000Y-98900000I0J250000D01*
G01*
X115675000Y-98100000D01*
G75*
G02*
X115925000Y-97850000I250000J0D01*
G01*
G37*
G36*
G01*
X115925000Y-94750000D02*
X117175000Y-94750000D01*
G75*
G02*
X117425000Y-95000000I0J-250000D01*
G01*
X117425000Y-95800000D01*
G75*
G02*
X117175000Y-96050000I-250000J0D01*
G01*
X115925000Y-96050000D01*
G75*
G02*
X115675000Y-95800000I0J250000D01*
G01*
X115675000Y-95000000D01*
G75*
G02*
X115925000Y-94750000I250000J0D01*
G01*
G37*
%TD*%
%TO.C,R4*%
G36*
G01*
X113425000Y-97850000D02*
X114675000Y-97850000D01*
G75*
G02*
X114925000Y-98100000I0J-250000D01*
G01*
X114925000Y-98900000D01*
G75*
G02*
X114675000Y-99150000I-250000J0D01*
G01*
X113425000Y-99150000D01*
G75*
G02*
X113175000Y-98900000I0J250000D01*
G01*
X113175000Y-98100000D01*
G75*
G02*
X113425000Y-97850000I250000J0D01*
G01*
G37*
G36*
G01*
X113425000Y-94750000D02*
X114675000Y-94750000D01*
G75*
G02*
X114925000Y-95000000I0J-250000D01*
G01*
X114925000Y-95800000D01*
G75*
G02*
X114675000Y-96050000I-250000J0D01*
G01*
X113425000Y-96050000D01*
G75*
G02*
X113175000Y-95800000I0J250000D01*
G01*
X113175000Y-95000000D01*
G75*
G02*
X113425000Y-94750000I250000J0D01*
G01*
G37*
%TD*%
%TO.C,R3*%
G36*
G01*
X110925000Y-97850000D02*
X112175000Y-97850000D01*
G75*
G02*
X112425000Y-98100000I0J-250000D01*
G01*
X112425000Y-98900000D01*
G75*
G02*
X112175000Y-99150000I-250000J0D01*
G01*
X110925000Y-99150000D01*
G75*
G02*
X110675000Y-98900000I0J250000D01*
G01*
X110675000Y-98100000D01*
G75*
G02*
X110925000Y-97850000I250000J0D01*
G01*
G37*
G36*
G01*
X110925000Y-94750000D02*
X112175000Y-94750000D01*
G75*
G02*
X112425000Y-95000000I0J-250000D01*
G01*
X112425000Y-95800000D01*
G75*
G02*
X112175000Y-96050000I-250000J0D01*
G01*
X110925000Y-96050000D01*
G75*
G02*
X110675000Y-95800000I0J250000D01*
G01*
X110675000Y-95000000D01*
G75*
G02*
X110925000Y-94750000I250000J0D01*
G01*
G37*
%TD*%
M02*
