%TF.GenerationSoftware,KiCad,Pcbnew,(6.0.9-0)*%
%TF.CreationDate,2023-01-05T14:27:19+00:00*%
%TF.ProjectId,EnvMon2,456e764d-6f6e-4322-9e6b-696361645f70,4*%
%TF.SameCoordinates,Original*%
%TF.FileFunction,Legend,Bot*%
%TF.FilePolarity,Positive*%
%FSLAX46Y46*%
G04 Gerber Fmt 4.6, Leading zero omitted, Abs format (unit mm)*
G04 Created by KiCad (PCBNEW (6.0.9-0)) date 2023-01-05 14:27:19*
%MOMM*%
%LPD*%
G01*
G04 APERTURE LIST*
%ADD10C,0.150000*%
%ADD11C,0.300000*%
%ADD12C,0.100000*%
G04 APERTURE END LIST*
D10*
X133761904Y-94897380D02*
X133761904Y-93897380D01*
X133523809Y-93897380D01*
X133380952Y-93945000D01*
X133285714Y-94040238D01*
X133238095Y-94135476D01*
X133190476Y-94325952D01*
X133190476Y-94468809D01*
X133238095Y-94659285D01*
X133285714Y-94754523D01*
X133380952Y-94849761D01*
X133523809Y-94897380D01*
X133761904Y-94897380D01*
X132190476Y-94802142D02*
X132238095Y-94849761D01*
X132380952Y-94897380D01*
X132476190Y-94897380D01*
X132619047Y-94849761D01*
X132714285Y-94754523D01*
X132761904Y-94659285D01*
X132809523Y-94468809D01*
X132809523Y-94325952D01*
X132761904Y-94135476D01*
X132714285Y-94040238D01*
X132619047Y-93945000D01*
X132476190Y-93897380D01*
X132380952Y-93897380D01*
X132238095Y-93945000D01*
X132190476Y-93992619D01*
X135238095Y-95840714D02*
X135238095Y-96507380D01*
X135476190Y-95459761D02*
X135714285Y-96174047D01*
X135095238Y-96174047D01*
X134857142Y-95507380D02*
X134523809Y-96507380D01*
X134190476Y-95507380D01*
X133857142Y-96126428D02*
X133095238Y-96126428D01*
X132190476Y-95507380D02*
X132380952Y-95507380D01*
X132476190Y-95555000D01*
X132523809Y-95602619D01*
X132619047Y-95745476D01*
X132666666Y-95935952D01*
X132666666Y-96316904D01*
X132619047Y-96412142D01*
X132571428Y-96459761D01*
X132476190Y-96507380D01*
X132285714Y-96507380D01*
X132190476Y-96459761D01*
X132142857Y-96412142D01*
X132095238Y-96316904D01*
X132095238Y-96078809D01*
X132142857Y-95983571D01*
X132190476Y-95935952D01*
X132285714Y-95888333D01*
X132476190Y-95888333D01*
X132571428Y-95935952D01*
X132619047Y-95983571D01*
X132666666Y-96078809D01*
X131476190Y-95507380D02*
X131380952Y-95507380D01*
X131285714Y-95555000D01*
X131238095Y-95602619D01*
X131190476Y-95697857D01*
X131142857Y-95888333D01*
X131142857Y-96126428D01*
X131190476Y-96316904D01*
X131238095Y-96412142D01*
X131285714Y-96459761D01*
X131380952Y-96507380D01*
X131476190Y-96507380D01*
X131571428Y-96459761D01*
X131619047Y-96412142D01*
X131666666Y-96316904D01*
X131714285Y-96126428D01*
X131714285Y-95888333D01*
X131666666Y-95697857D01*
X131619047Y-95602619D01*
X131571428Y-95555000D01*
X131476190Y-95507380D01*
X130857142Y-95507380D02*
X130523809Y-96507380D01*
X130190476Y-95507380D01*
X92642857Y-75339285D02*
X93071428Y-75339285D01*
X92857142Y-75339285D02*
X92857142Y-74589285D01*
X92928571Y-74696428D01*
X93000000Y-74767857D01*
X93071428Y-74803571D01*
X92392857Y-74589285D02*
X91928571Y-74589285D01*
X92178571Y-74875000D01*
X92071428Y-74875000D01*
X92000000Y-74910714D01*
X91964285Y-74946428D01*
X91928571Y-75017857D01*
X91928571Y-75196428D01*
X91964285Y-75267857D01*
X92000000Y-75303571D01*
X92071428Y-75339285D01*
X92285714Y-75339285D01*
X92357142Y-75303571D01*
X92392857Y-75267857D01*
X100427285Y-80926857D02*
X100427285Y-81391142D01*
X100713000Y-81141142D01*
X100713000Y-81248285D01*
X100748714Y-81319714D01*
X100784428Y-81355428D01*
X100855857Y-81391142D01*
X101034428Y-81391142D01*
X101105857Y-81355428D01*
X101141571Y-81319714D01*
X101177285Y-81248285D01*
X101177285Y-81034000D01*
X101141571Y-80962571D01*
X101105857Y-80926857D01*
X100427285Y-81641142D02*
X100427285Y-82105428D01*
X100713000Y-81855428D01*
X100713000Y-81962571D01*
X100748714Y-82034000D01*
X100784428Y-82069714D01*
X100855857Y-82105428D01*
X101034428Y-82105428D01*
X101105857Y-82069714D01*
X101141571Y-82034000D01*
X101177285Y-81962571D01*
X101177285Y-81748285D01*
X101141571Y-81676857D01*
X101105857Y-81641142D01*
X100748714Y-76096857D02*
X100748714Y-76811142D01*
X100963000Y-76239714D02*
X100963000Y-76668285D01*
X100427285Y-76454000D02*
X100748714Y-76454000D01*
X101177285Y-76525428D02*
X101177285Y-76382571D01*
X94178571Y-96096071D02*
X94071428Y-96131785D01*
X93892857Y-96131785D01*
X93821428Y-96096071D01*
X93785714Y-96060357D01*
X93750000Y-95988928D01*
X93750000Y-95917500D01*
X93785714Y-95846071D01*
X93821428Y-95810357D01*
X93892857Y-95774642D01*
X94035714Y-95738928D01*
X94107142Y-95703214D01*
X94142857Y-95667500D01*
X94178571Y-95596071D01*
X94178571Y-95524642D01*
X94142857Y-95453214D01*
X94107142Y-95417500D01*
X94035714Y-95381785D01*
X93857142Y-95381785D01*
X93750000Y-95417500D01*
X93000000Y-96060357D02*
X93035714Y-96096071D01*
X93142857Y-96131785D01*
X93214285Y-96131785D01*
X93321428Y-96096071D01*
X93392857Y-96024642D01*
X93428571Y-95953214D01*
X93464285Y-95810357D01*
X93464285Y-95703214D01*
X93428571Y-95560357D01*
X93392857Y-95488928D01*
X93321428Y-95417500D01*
X93214285Y-95381785D01*
X93142857Y-95381785D01*
X93035714Y-95417500D01*
X93000000Y-95453214D01*
X92678571Y-96131785D02*
X92678571Y-95381785D01*
X92500000Y-95381785D01*
X92392857Y-95417500D01*
X92321428Y-95488928D01*
X92285714Y-95560357D01*
X92250000Y-95703214D01*
X92250000Y-95810357D01*
X92285714Y-95953214D01*
X92321428Y-96024642D01*
X92392857Y-96096071D01*
X92500000Y-96131785D01*
X92678571Y-96131785D01*
X91607142Y-95631785D02*
X91607142Y-96131785D01*
X91785714Y-95346071D02*
X91964285Y-95881785D01*
X91500000Y-95881785D01*
X90821428Y-96131785D02*
X91250000Y-96131785D01*
X91035714Y-96131785D02*
X91035714Y-95381785D01*
X91107142Y-95488928D01*
X91178571Y-95560357D01*
X91250000Y-95596071D01*
X94571428Y-97303571D02*
X94464285Y-97339285D01*
X94285714Y-97339285D01*
X94214285Y-97303571D01*
X94178571Y-97267857D01*
X94142857Y-97196428D01*
X94142857Y-97125000D01*
X94178571Y-97053571D01*
X94214285Y-97017857D01*
X94285714Y-96982142D01*
X94428571Y-96946428D01*
X94500000Y-96910714D01*
X94535714Y-96875000D01*
X94571428Y-96803571D01*
X94571428Y-96732142D01*
X94535714Y-96660714D01*
X94500000Y-96625000D01*
X94428571Y-96589285D01*
X94250000Y-96589285D01*
X94142857Y-96625000D01*
X93392857Y-97267857D02*
X93428571Y-97303571D01*
X93535714Y-97339285D01*
X93607142Y-97339285D01*
X93714285Y-97303571D01*
X93785714Y-97232142D01*
X93821428Y-97160714D01*
X93857142Y-97017857D01*
X93857142Y-96910714D01*
X93821428Y-96767857D01*
X93785714Y-96696428D01*
X93714285Y-96625000D01*
X93607142Y-96589285D01*
X93535714Y-96589285D01*
X93428571Y-96625000D01*
X93392857Y-96660714D01*
X92714285Y-97339285D02*
X93071428Y-97339285D01*
X93071428Y-96589285D01*
X92464285Y-97267857D02*
X92428571Y-97303571D01*
X92464285Y-97339285D01*
X92500000Y-97303571D01*
X92464285Y-97267857D01*
X92464285Y-97339285D01*
X92464285Y-96875000D02*
X92428571Y-96910714D01*
X92464285Y-96946428D01*
X92500000Y-96910714D01*
X92464285Y-96875000D01*
X92464285Y-96946428D01*
X91571428Y-96660714D02*
X91535714Y-96625000D01*
X91464285Y-96589285D01*
X91285714Y-96589285D01*
X91214285Y-96625000D01*
X91178571Y-96660714D01*
X91142857Y-96732142D01*
X91142857Y-96803571D01*
X91178571Y-96910714D01*
X91607142Y-97339285D01*
X91142857Y-97339285D01*
X90428571Y-97339285D02*
X90857142Y-97339285D01*
X90642857Y-97339285D02*
X90642857Y-96589285D01*
X90714285Y-96696428D01*
X90785714Y-96767857D01*
X90857142Y-96803571D01*
X94589285Y-98511071D02*
X94482142Y-98546785D01*
X94303571Y-98546785D01*
X94232142Y-98511071D01*
X94196428Y-98475357D01*
X94160714Y-98403928D01*
X94160714Y-98332500D01*
X94196428Y-98261071D01*
X94232142Y-98225357D01*
X94303571Y-98189642D01*
X94446428Y-98153928D01*
X94517857Y-98118214D01*
X94553571Y-98082500D01*
X94589285Y-98011071D01*
X94589285Y-97939642D01*
X94553571Y-97868214D01*
X94517857Y-97832500D01*
X94446428Y-97796785D01*
X94267857Y-97796785D01*
X94160714Y-97832500D01*
X93839285Y-98546785D02*
X93839285Y-97796785D01*
X93660714Y-97796785D01*
X93553571Y-97832500D01*
X93482142Y-97903928D01*
X93446428Y-97975357D01*
X93410714Y-98118214D01*
X93410714Y-98225357D01*
X93446428Y-98368214D01*
X93482142Y-98439642D01*
X93553571Y-98511071D01*
X93660714Y-98546785D01*
X93839285Y-98546785D01*
X93125000Y-98332500D02*
X92767857Y-98332500D01*
X93196428Y-98546785D02*
X92946428Y-97796785D01*
X92696428Y-98546785D01*
X92446428Y-98475357D02*
X92410714Y-98511071D01*
X92446428Y-98546785D01*
X92482142Y-98511071D01*
X92446428Y-98475357D01*
X92446428Y-98546785D01*
X92446428Y-98082500D02*
X92410714Y-98118214D01*
X92446428Y-98153928D01*
X92482142Y-98118214D01*
X92446428Y-98082500D01*
X92446428Y-98153928D01*
X91553571Y-97868214D02*
X91517857Y-97832500D01*
X91446428Y-97796785D01*
X91267857Y-97796785D01*
X91196428Y-97832500D01*
X91160714Y-97868214D01*
X91125000Y-97939642D01*
X91125000Y-98011071D01*
X91160714Y-98118214D01*
X91589285Y-98546785D01*
X91125000Y-98546785D01*
X90839285Y-97868214D02*
X90803571Y-97832500D01*
X90732142Y-97796785D01*
X90553571Y-97796785D01*
X90482142Y-97832500D01*
X90446428Y-97868214D01*
X90410714Y-97939642D01*
X90410714Y-98011071D01*
X90446428Y-98118214D01*
X90875000Y-98546785D01*
X90410714Y-98546785D01*
X138123571Y-75952380D02*
X138123571Y-76285714D01*
X138647380Y-76428571D02*
X138647380Y-75952380D01*
X137647380Y-75952380D01*
X137647380Y-76428571D01*
X137980714Y-76857142D02*
X138647380Y-76857142D01*
X138075952Y-76857142D02*
X138028333Y-76904761D01*
X137980714Y-77000000D01*
X137980714Y-77142857D01*
X138028333Y-77238095D01*
X138123571Y-77285714D01*
X138647380Y-77285714D01*
X137980714Y-77666666D02*
X138647380Y-77904761D01*
X137980714Y-78142857D01*
X138647380Y-78523809D02*
X137980714Y-78523809D01*
X137647380Y-78523809D02*
X137695000Y-78476190D01*
X137742619Y-78523809D01*
X137695000Y-78571428D01*
X137647380Y-78523809D01*
X137742619Y-78523809D01*
X138647380Y-79000000D02*
X137980714Y-79000000D01*
X138171190Y-79000000D02*
X138075952Y-79047619D01*
X138028333Y-79095238D01*
X137980714Y-79190476D01*
X137980714Y-79285714D01*
X138647380Y-79761904D02*
X138599761Y-79666666D01*
X138552142Y-79619047D01*
X138456904Y-79571428D01*
X138171190Y-79571428D01*
X138075952Y-79619047D01*
X138028333Y-79666666D01*
X137980714Y-79761904D01*
X137980714Y-79904761D01*
X138028333Y-80000000D01*
X138075952Y-80047619D01*
X138171190Y-80095238D01*
X138456904Y-80095238D01*
X138552142Y-80047619D01*
X138599761Y-80000000D01*
X138647380Y-79904761D01*
X138647380Y-79761904D01*
X137980714Y-80523809D02*
X138647380Y-80523809D01*
X138075952Y-80523809D02*
X138028333Y-80571428D01*
X137980714Y-80666666D01*
X137980714Y-80809523D01*
X138028333Y-80904761D01*
X138123571Y-80952380D01*
X138647380Y-80952380D01*
X138647380Y-81428571D02*
X137980714Y-81428571D01*
X138075952Y-81428571D02*
X138028333Y-81476190D01*
X137980714Y-81571428D01*
X137980714Y-81714285D01*
X138028333Y-81809523D01*
X138123571Y-81857142D01*
X138647380Y-81857142D01*
X138123571Y-81857142D02*
X138028333Y-81904761D01*
X137980714Y-82000000D01*
X137980714Y-82142857D01*
X138028333Y-82238095D01*
X138123571Y-82285714D01*
X138647380Y-82285714D01*
X138599761Y-83142857D02*
X138647380Y-83047619D01*
X138647380Y-82857142D01*
X138599761Y-82761904D01*
X138504523Y-82714285D01*
X138123571Y-82714285D01*
X138028333Y-82761904D01*
X137980714Y-82857142D01*
X137980714Y-83047619D01*
X138028333Y-83142857D01*
X138123571Y-83190476D01*
X138218809Y-83190476D01*
X138314047Y-82714285D01*
X137980714Y-83619047D02*
X138647380Y-83619047D01*
X138075952Y-83619047D02*
X138028333Y-83666666D01*
X137980714Y-83761904D01*
X137980714Y-83904761D01*
X138028333Y-84000000D01*
X138123571Y-84047619D01*
X138647380Y-84047619D01*
X137980714Y-84380952D02*
X137980714Y-84761904D01*
X137647380Y-84523809D02*
X138504523Y-84523809D01*
X138599761Y-84571428D01*
X138647380Y-84666666D01*
X138647380Y-84761904D01*
X138647380Y-85523809D02*
X138123571Y-85523809D01*
X138028333Y-85476190D01*
X137980714Y-85380952D01*
X137980714Y-85190476D01*
X138028333Y-85095238D01*
X138599761Y-85523809D02*
X138647380Y-85428571D01*
X138647380Y-85190476D01*
X138599761Y-85095238D01*
X138504523Y-85047619D01*
X138409285Y-85047619D01*
X138314047Y-85095238D01*
X138266428Y-85190476D01*
X138266428Y-85428571D01*
X138218809Y-85523809D01*
X138647380Y-86142857D02*
X138599761Y-86047619D01*
X138504523Y-86000000D01*
X137647380Y-86000000D01*
X140257380Y-78476190D02*
X139257380Y-78476190D01*
X139971666Y-78809523D01*
X139257380Y-79142857D01*
X140257380Y-79142857D01*
X140257380Y-79761904D02*
X140209761Y-79666666D01*
X140162142Y-79619047D01*
X140066904Y-79571428D01*
X139781190Y-79571428D01*
X139685952Y-79619047D01*
X139638333Y-79666666D01*
X139590714Y-79761904D01*
X139590714Y-79904761D01*
X139638333Y-80000000D01*
X139685952Y-80047619D01*
X139781190Y-80095238D01*
X140066904Y-80095238D01*
X140162142Y-80047619D01*
X140209761Y-80000000D01*
X140257380Y-79904761D01*
X140257380Y-79761904D01*
X139590714Y-80523809D02*
X140257380Y-80523809D01*
X139685952Y-80523809D02*
X139638333Y-80571428D01*
X139590714Y-80666666D01*
X139590714Y-80809523D01*
X139638333Y-80904761D01*
X139733571Y-80952380D01*
X140257380Y-80952380D01*
X140257380Y-81428571D02*
X139590714Y-81428571D01*
X139257380Y-81428571D02*
X139305000Y-81380952D01*
X139352619Y-81428571D01*
X139305000Y-81476190D01*
X139257380Y-81428571D01*
X139352619Y-81428571D01*
X139590714Y-81761904D02*
X139590714Y-82142857D01*
X139257380Y-81904761D02*
X140114523Y-81904761D01*
X140209761Y-81952380D01*
X140257380Y-82047619D01*
X140257380Y-82142857D01*
X140257380Y-82619047D02*
X140209761Y-82523809D01*
X140162142Y-82476190D01*
X140066904Y-82428571D01*
X139781190Y-82428571D01*
X139685952Y-82476190D01*
X139638333Y-82523809D01*
X139590714Y-82619047D01*
X139590714Y-82761904D01*
X139638333Y-82857142D01*
X139685952Y-82904761D01*
X139781190Y-82952380D01*
X140066904Y-82952380D01*
X140162142Y-82904761D01*
X140209761Y-82857142D01*
X140257380Y-82761904D01*
X140257380Y-82619047D01*
X140257380Y-83380952D02*
X139590714Y-83380952D01*
X139781190Y-83380952D02*
X139685952Y-83428571D01*
X139638333Y-83476190D01*
X139590714Y-83571428D01*
X139590714Y-83666666D01*
X100427285Y-73128285D02*
X100427285Y-73592571D01*
X100713000Y-73342571D01*
X100713000Y-73449714D01*
X100748714Y-73521142D01*
X100784428Y-73556857D01*
X100855857Y-73592571D01*
X101034428Y-73592571D01*
X101105857Y-73556857D01*
X101141571Y-73521142D01*
X101177285Y-73449714D01*
X101177285Y-73235428D01*
X101141571Y-73164000D01*
X101105857Y-73128285D01*
X101105857Y-73914000D02*
X101141571Y-73949714D01*
X101177285Y-73914000D01*
X101141571Y-73878285D01*
X101105857Y-73914000D01*
X101177285Y-73914000D01*
X100427285Y-74199714D02*
X100427285Y-74664000D01*
X100713000Y-74414000D01*
X100713000Y-74521142D01*
X100748714Y-74592571D01*
X100784428Y-74628285D01*
X100855857Y-74664000D01*
X101034428Y-74664000D01*
X101105857Y-74628285D01*
X101141571Y-74592571D01*
X101177285Y-74521142D01*
X101177285Y-74306857D01*
X101141571Y-74235428D01*
X101105857Y-74199714D01*
D11*
X93690476Y-92964285D02*
X93785714Y-93059523D01*
X94071428Y-93154761D01*
X94261904Y-93154761D01*
X94547619Y-93059523D01*
X94738095Y-92869047D01*
X94833333Y-92678571D01*
X94928571Y-92297619D01*
X94928571Y-92011904D01*
X94833333Y-91630952D01*
X94738095Y-91440476D01*
X94547619Y-91250000D01*
X94261904Y-91154761D01*
X94071428Y-91154761D01*
X93785714Y-91250000D01*
X93690476Y-91345238D01*
X92452380Y-91154761D02*
X92071428Y-91154761D01*
X91880952Y-91250000D01*
X91690476Y-91440476D01*
X91595238Y-91821428D01*
X91595238Y-92488095D01*
X91690476Y-92869047D01*
X91880952Y-93059523D01*
X92071428Y-93154761D01*
X92452380Y-93154761D01*
X92642857Y-93059523D01*
X92833333Y-92869047D01*
X92928571Y-92488095D01*
X92928571Y-91821428D01*
X92833333Y-91440476D01*
X92642857Y-91250000D01*
X92452380Y-91154761D01*
X90833333Y-92488095D02*
X90642857Y-92392857D01*
X90357142Y-92392857D01*
X90166666Y-92488095D01*
X90071428Y-92678571D01*
X90071428Y-92869047D01*
X90166666Y-93059523D01*
X90833333Y-93726190D01*
X90071428Y-93726190D01*
D10*
X117457142Y-81547619D02*
X117409523Y-81500000D01*
X117314285Y-81452380D01*
X117076190Y-81452380D01*
X116980952Y-81500000D01*
X116933333Y-81547619D01*
X116885714Y-81642857D01*
X116885714Y-81738095D01*
X116933333Y-81880952D01*
X117504761Y-82452380D01*
X116885714Y-82452380D01*
X116266666Y-81452380D02*
X116171428Y-81452380D01*
X116076190Y-81500000D01*
X116028571Y-81547619D01*
X115980952Y-81642857D01*
X115933333Y-81833333D01*
X115933333Y-82071428D01*
X115980952Y-82261904D01*
X116028571Y-82357142D01*
X116076190Y-82404761D01*
X116171428Y-82452380D01*
X116266666Y-82452380D01*
X116361904Y-82404761D01*
X116409523Y-82357142D01*
X116457142Y-82261904D01*
X116504761Y-82071428D01*
X116504761Y-81833333D01*
X116457142Y-81642857D01*
X116409523Y-81547619D01*
X116361904Y-81500000D01*
X116266666Y-81452380D01*
X115552380Y-81547619D02*
X115504761Y-81500000D01*
X115409523Y-81452380D01*
X115171428Y-81452380D01*
X115076190Y-81500000D01*
X115028571Y-81547619D01*
X114980952Y-81642857D01*
X114980952Y-81738095D01*
X115028571Y-81880952D01*
X115600000Y-82452380D01*
X114980952Y-82452380D01*
X114600000Y-81547619D02*
X114552380Y-81500000D01*
X114457142Y-81452380D01*
X114219047Y-81452380D01*
X114123809Y-81500000D01*
X114076190Y-81547619D01*
X114028571Y-81642857D01*
X114028571Y-81738095D01*
X114076190Y-81880952D01*
X114647619Y-82452380D01*
X114028571Y-82452380D01*
X113600000Y-82071428D02*
X112838095Y-82071428D01*
X111838095Y-82452380D02*
X112409523Y-82452380D01*
X112123809Y-82452380D02*
X112123809Y-81452380D01*
X112219047Y-81595238D01*
X112314285Y-81690476D01*
X112409523Y-81738095D01*
X111457142Y-81547619D02*
X111409523Y-81500000D01*
X111314285Y-81452380D01*
X111076190Y-81452380D01*
X110980952Y-81500000D01*
X110933333Y-81547619D01*
X110885714Y-81642857D01*
X110885714Y-81738095D01*
X110933333Y-81880952D01*
X111504761Y-82452380D01*
X110885714Y-82452380D01*
X110457142Y-82071428D02*
X109695238Y-82071428D01*
X108695238Y-82452380D02*
X109266666Y-82452380D01*
X108980952Y-82452380D02*
X108980952Y-81452380D01*
X109076190Y-81595238D01*
X109171428Y-81690476D01*
X109266666Y-81738095D01*
X107838095Y-81785714D02*
X107838095Y-82452380D01*
X108076190Y-81404761D02*
X108314285Y-82119047D01*
X107695238Y-82119047D01*
X100498714Y-83502571D02*
X100463000Y-83538285D01*
X100427285Y-83609714D01*
X100427285Y-83788285D01*
X100463000Y-83859714D01*
X100498714Y-83895428D01*
X100570142Y-83931142D01*
X100641571Y-83931142D01*
X100748714Y-83895428D01*
X101177285Y-83466857D01*
X101177285Y-83931142D01*
X100427285Y-84609714D02*
X100427285Y-84252571D01*
X100784428Y-84216857D01*
X100748714Y-84252571D01*
X100713000Y-84324000D01*
X100713000Y-84502571D01*
X100748714Y-84574000D01*
X100784428Y-84609714D01*
X100855857Y-84645428D01*
X101034428Y-84645428D01*
X101105857Y-84609714D01*
X101141571Y-84574000D01*
X101177285Y-84502571D01*
X101177285Y-84324000D01*
X101141571Y-84252571D01*
X101105857Y-84216857D01*
X114392857Y-96452380D02*
X114392857Y-95452380D01*
X114154761Y-95452380D01*
X114011904Y-95500000D01*
X113916666Y-95595238D01*
X113869047Y-95690476D01*
X113821428Y-95880952D01*
X113821428Y-96023809D01*
X113869047Y-96214285D01*
X113916666Y-96309523D01*
X114011904Y-96404761D01*
X114154761Y-96452380D01*
X114392857Y-96452380D01*
X113440476Y-96404761D02*
X113297619Y-96452380D01*
X113059523Y-96452380D01*
X112964285Y-96404761D01*
X112916666Y-96357142D01*
X112869047Y-96261904D01*
X112869047Y-96166666D01*
X112916666Y-96071428D01*
X112964285Y-96023809D01*
X113059523Y-95976190D01*
X113250000Y-95928571D01*
X113345238Y-95880952D01*
X113392857Y-95833333D01*
X113440476Y-95738095D01*
X113440476Y-95642857D01*
X113392857Y-95547619D01*
X113345238Y-95500000D01*
X113250000Y-95452380D01*
X113011904Y-95452380D01*
X112869047Y-95500000D01*
X111916666Y-96452380D02*
X112488095Y-96452380D01*
X112202380Y-96452380D02*
X112202380Y-95452380D01*
X112297619Y-95595238D01*
X112392857Y-95690476D01*
X112488095Y-95738095D01*
X111345238Y-95880952D02*
X111440476Y-95833333D01*
X111488095Y-95785714D01*
X111535714Y-95690476D01*
X111535714Y-95642857D01*
X111488095Y-95547619D01*
X111440476Y-95500000D01*
X111345238Y-95452380D01*
X111154761Y-95452380D01*
X111059523Y-95500000D01*
X111011904Y-95547619D01*
X110964285Y-95642857D01*
X110964285Y-95690476D01*
X111011904Y-95785714D01*
X111059523Y-95833333D01*
X111154761Y-95880952D01*
X111345238Y-95880952D01*
X111440476Y-95928571D01*
X111488095Y-95976190D01*
X111535714Y-96071428D01*
X111535714Y-96261904D01*
X111488095Y-96357142D01*
X111440476Y-96404761D01*
X111345238Y-96452380D01*
X111154761Y-96452380D01*
X111059523Y-96404761D01*
X111011904Y-96357142D01*
X110964285Y-96261904D01*
X110964285Y-96071428D01*
X111011904Y-95976190D01*
X111059523Y-95928571D01*
X111154761Y-95880952D01*
X110202380Y-95928571D02*
X110059523Y-95976190D01*
X110011904Y-96023809D01*
X109964285Y-96119047D01*
X109964285Y-96261904D01*
X110011904Y-96357142D01*
X110059523Y-96404761D01*
X110154761Y-96452380D01*
X110535714Y-96452380D01*
X110535714Y-95452380D01*
X110202380Y-95452380D01*
X110107142Y-95500000D01*
X110059523Y-95547619D01*
X110011904Y-95642857D01*
X110011904Y-95738095D01*
X110059523Y-95833333D01*
X110107142Y-95880952D01*
X110202380Y-95928571D01*
X110535714Y-95928571D01*
X109583333Y-95547619D02*
X109535714Y-95500000D01*
X109440476Y-95452380D01*
X109202380Y-95452380D01*
X109107142Y-95500000D01*
X109059523Y-95547619D01*
X109011904Y-95642857D01*
X109011904Y-95738095D01*
X109059523Y-95880952D01*
X109630952Y-96452380D01*
X109011904Y-96452380D01*
X108392857Y-95452380D02*
X108297619Y-95452380D01*
X108202380Y-95500000D01*
X108154761Y-95547619D01*
X108107142Y-95642857D01*
X108059523Y-95833333D01*
X108059523Y-96071428D01*
X108107142Y-96261904D01*
X108154761Y-96357142D01*
X108202380Y-96404761D01*
X108297619Y-96452380D01*
X108392857Y-96452380D01*
X108488095Y-96404761D01*
X108535714Y-96357142D01*
X108583333Y-96261904D01*
X108630952Y-96071428D01*
X108630952Y-95833333D01*
X108583333Y-95642857D01*
X108535714Y-95547619D01*
X108488095Y-95500000D01*
X108392857Y-95452380D01*
X111392857Y-93339285D02*
X111821428Y-93339285D01*
X111607142Y-93339285D02*
X111607142Y-92589285D01*
X111678571Y-92696428D01*
X111750000Y-92767857D01*
X111821428Y-92803571D01*
X110750000Y-92839285D02*
X110750000Y-93339285D01*
X110928571Y-92553571D02*
X111107142Y-93089285D01*
X110642857Y-93089285D01*
X100427285Y-78386857D02*
X100427285Y-78851142D01*
X100713000Y-78601142D01*
X100713000Y-78708285D01*
X100748714Y-78779714D01*
X100784428Y-78815428D01*
X100855857Y-78851142D01*
X101034428Y-78851142D01*
X101105857Y-78815428D01*
X101141571Y-78779714D01*
X101177285Y-78708285D01*
X101177285Y-78494000D01*
X101141571Y-78422571D01*
X101105857Y-78386857D01*
X100498714Y-79136857D02*
X100463000Y-79172571D01*
X100427285Y-79244000D01*
X100427285Y-79422571D01*
X100463000Y-79494000D01*
X100498714Y-79529714D01*
X100570142Y-79565428D01*
X100641571Y-79565428D01*
X100748714Y-79529714D01*
X101177285Y-79101142D01*
X101177285Y-79565428D01*
X92642857Y-82839285D02*
X93071428Y-82839285D01*
X92857142Y-82839285D02*
X92857142Y-82089285D01*
X92928571Y-82196428D01*
X93000000Y-82267857D01*
X93071428Y-82303571D01*
X91964285Y-82089285D02*
X92321428Y-82089285D01*
X92357142Y-82446428D01*
X92321428Y-82410714D01*
X92250000Y-82375000D01*
X92071428Y-82375000D01*
X92000000Y-82410714D01*
X91964285Y-82446428D01*
X91928571Y-82517857D01*
X91928571Y-82696428D01*
X91964285Y-82767857D01*
X92000000Y-82803571D01*
X92071428Y-82839285D01*
X92250000Y-82839285D01*
X92321428Y-82803571D01*
X92357142Y-82767857D01*
X100498714Y-86042571D02*
X100463000Y-86078285D01*
X100427285Y-86149714D01*
X100427285Y-86328285D01*
X100463000Y-86399714D01*
X100498714Y-86435428D01*
X100570142Y-86471142D01*
X100641571Y-86471142D01*
X100748714Y-86435428D01*
X101177285Y-86006857D01*
X101177285Y-86471142D01*
X100427285Y-87114000D02*
X100427285Y-86971142D01*
X100463000Y-86899714D01*
X100498714Y-86864000D01*
X100605857Y-86792571D01*
X100748714Y-86756857D01*
X101034428Y-86756857D01*
X101105857Y-86792571D01*
X101141571Y-86828285D01*
X101177285Y-86899714D01*
X101177285Y-87042571D01*
X101141571Y-87114000D01*
X101105857Y-87149714D01*
X101034428Y-87185428D01*
X100855857Y-87185428D01*
X100784428Y-87149714D01*
X100748714Y-87114000D01*
X100713000Y-87042571D01*
X100713000Y-86899714D01*
X100748714Y-86828285D01*
X100784428Y-86792571D01*
X100855857Y-86756857D01*
X92357142Y-67339285D02*
X92357142Y-67839285D01*
X92535714Y-67053571D02*
X92714285Y-67589285D01*
X92250000Y-67589285D01*
X100498714Y-88582571D02*
X100463000Y-88618285D01*
X100427285Y-88689714D01*
X100427285Y-88868285D01*
X100463000Y-88939714D01*
X100498714Y-88975428D01*
X100570142Y-89011142D01*
X100641571Y-89011142D01*
X100748714Y-88975428D01*
X101177285Y-88546857D01*
X101177285Y-89011142D01*
X100427285Y-89261142D02*
X100427285Y-89761142D01*
X101177285Y-89439714D01*
X142660714Y-69839285D02*
X143017857Y-69839285D01*
X143017857Y-69089285D01*
X142410714Y-69446428D02*
X142160714Y-69446428D01*
X142053571Y-69839285D02*
X142410714Y-69839285D01*
X142410714Y-69089285D01*
X142053571Y-69089285D01*
X141732142Y-69839285D02*
X141732142Y-69089285D01*
X141553571Y-69089285D01*
X141446428Y-69125000D01*
X141375000Y-69196428D01*
X141339285Y-69267857D01*
X141303571Y-69410714D01*
X141303571Y-69517857D01*
X141339285Y-69660714D01*
X141375000Y-69732142D01*
X141446428Y-69803571D01*
X141553571Y-69839285D01*
X141732142Y-69839285D01*
X140982142Y-69767857D02*
X140946428Y-69803571D01*
X140982142Y-69839285D01*
X141017857Y-69803571D01*
X140982142Y-69767857D01*
X140982142Y-69839285D01*
X140982142Y-69375000D02*
X140946428Y-69410714D01*
X140982142Y-69446428D01*
X141017857Y-69410714D01*
X140982142Y-69375000D01*
X140982142Y-69446428D01*
X140125000Y-69089285D02*
X139625000Y-69089285D01*
X139946428Y-69839285D01*
X138803571Y-69053571D02*
X139446428Y-70017857D01*
X138160714Y-69839285D02*
X138589285Y-69839285D01*
X138375000Y-69839285D02*
X138375000Y-69089285D01*
X138446428Y-69196428D01*
X138517857Y-69267857D01*
X138589285Y-69303571D01*
X137803571Y-69839285D02*
X137660714Y-69839285D01*
X137589285Y-69803571D01*
X137553571Y-69767857D01*
X137482142Y-69660714D01*
X137446428Y-69517857D01*
X137446428Y-69232142D01*
X137482142Y-69160714D01*
X137517857Y-69125000D01*
X137589285Y-69089285D01*
X137732142Y-69089285D01*
X137803571Y-69125000D01*
X137839285Y-69160714D01*
X137875000Y-69232142D01*
X137875000Y-69410714D01*
X137839285Y-69482142D01*
X137803571Y-69517857D01*
X137732142Y-69553571D01*
X137589285Y-69553571D01*
X137517857Y-69517857D01*
X137482142Y-69482142D01*
X137446428Y-69410714D01*
X136589285Y-69053571D02*
X137232142Y-70017857D01*
X136232142Y-69410714D02*
X136303571Y-69375000D01*
X136339285Y-69339285D01*
X136375000Y-69267857D01*
X136375000Y-69232142D01*
X136339285Y-69160714D01*
X136303571Y-69125000D01*
X136232142Y-69089285D01*
X136089285Y-69089285D01*
X136017857Y-69125000D01*
X135982142Y-69160714D01*
X135946428Y-69232142D01*
X135946428Y-69267857D01*
X135982142Y-69339285D01*
X136017857Y-69375000D01*
X136089285Y-69410714D01*
X136232142Y-69410714D01*
X136303571Y-69446428D01*
X136339285Y-69482142D01*
X136375000Y-69553571D01*
X136375000Y-69696428D01*
X136339285Y-69767857D01*
X136303571Y-69803571D01*
X136232142Y-69839285D01*
X136089285Y-69839285D01*
X136017857Y-69803571D01*
X135982142Y-69767857D01*
X135946428Y-69696428D01*
X135946428Y-69553571D01*
X135982142Y-69482142D01*
X136017857Y-69446428D01*
X136089285Y-69410714D01*
D12*
%TO.C,Logo1*%
X112687142Y-78235714D02*
X112563333Y-78669047D01*
X112439523Y-78359523D01*
X112315714Y-78669047D01*
X112191904Y-78235714D01*
X112006190Y-78235714D02*
X111882380Y-78669047D01*
X111758571Y-78359523D01*
X111634761Y-78669047D01*
X111510952Y-78235714D01*
X111325238Y-78235714D02*
X111201428Y-78669047D01*
X111077619Y-78359523D01*
X110953809Y-78669047D01*
X110830000Y-78235714D01*
X110582380Y-78607142D02*
X110551428Y-78638095D01*
X110582380Y-78669047D01*
X110613333Y-78638095D01*
X110582380Y-78607142D01*
X110582380Y-78669047D01*
X110272857Y-78669047D02*
X110272857Y-78235714D01*
X110272857Y-78297619D02*
X110241904Y-78266666D01*
X110180000Y-78235714D01*
X110087142Y-78235714D01*
X110025238Y-78266666D01*
X109994285Y-78328571D01*
X109994285Y-78669047D01*
X109994285Y-78328571D02*
X109963333Y-78266666D01*
X109901428Y-78235714D01*
X109808571Y-78235714D01*
X109746666Y-78266666D01*
X109715714Y-78328571D01*
X109715714Y-78669047D01*
X109158571Y-78638095D02*
X109220476Y-78669047D01*
X109344285Y-78669047D01*
X109406190Y-78638095D01*
X109437142Y-78576190D01*
X109437142Y-78328571D01*
X109406190Y-78266666D01*
X109344285Y-78235714D01*
X109220476Y-78235714D01*
X109158571Y-78266666D01*
X109127619Y-78328571D01*
X109127619Y-78390476D01*
X109437142Y-78452380D01*
X108849047Y-78607142D02*
X108818095Y-78638095D01*
X108849047Y-78669047D01*
X108880000Y-78638095D01*
X108849047Y-78607142D01*
X108849047Y-78669047D01*
X108260952Y-78235714D02*
X108260952Y-78669047D01*
X108539523Y-78235714D02*
X108539523Y-78576190D01*
X108508571Y-78638095D01*
X108446666Y-78669047D01*
X108353809Y-78669047D01*
X108291904Y-78638095D01*
X108260952Y-78607142D01*
X107951428Y-78669047D02*
X107951428Y-78019047D01*
X107889523Y-78421428D02*
X107703809Y-78669047D01*
X107703809Y-78235714D02*
X107951428Y-78483333D01*
%TD*%
M02*
