%TF.GenerationSoftware,KiCad,Pcbnew,(6.0.2-0)*%
%TF.CreationDate,2022-02-23T18:41:48+00:00*%
%TF.ProjectId,EnvMon2,456e764d-6f6e-4322-9e6b-696361645f70,4*%
%TF.SameCoordinates,Original*%
%TF.FileFunction,Copper,L2,Bot*%
%TF.FilePolarity,Positive*%
%FSLAX46Y46*%
G04 Gerber Fmt 4.6, Leading zero omitted, Abs format (unit mm)*
G04 Created by KiCad (PCBNEW (6.0.2-0)) date 2022-02-23 18:41:48*
%MOMM*%
%LPD*%
G01*
G04 APERTURE LIST*
G04 Aperture macros list*
%AMRoundRect*
0 Rectangle with rounded corners*
0 $1 Rounding radius*
0 $2 $3 $4 $5 $6 $7 $8 $9 X,Y pos of 4 corners*
0 Add a 4 corners polygon primitive as box body*
4,1,4,$2,$3,$4,$5,$6,$7,$8,$9,$2,$3,0*
0 Add four circle primitives for the rounded corners*
1,1,$1+$1,$2,$3*
1,1,$1+$1,$4,$5*
1,1,$1+$1,$6,$7*
1,1,$1+$1,$8,$9*
0 Add four rect primitives between the rounded corners*
20,1,$1+$1,$2,$3,$4,$5,0*
20,1,$1+$1,$4,$5,$6,$7,0*
20,1,$1+$1,$6,$7,$8,$9,0*
20,1,$1+$1,$8,$9,$2,$3,0*%
G04 Aperture macros list end*
%ADD10C,0.100000*%
%TA.AperFunction,NonConductor*%
%ADD11C,0.100000*%
%TD*%
%TA.AperFunction,EtchedComponent*%
%ADD12C,0.080000*%
%TD*%
%TA.AperFunction,EtchedComponent*%
%ADD13C,0.250000*%
%TD*%
%TA.AperFunction,ComponentPad*%
%ADD14C,5.000000*%
%TD*%
%TA.AperFunction,ComponentPad*%
%ADD15C,1.700000*%
%TD*%
%TA.AperFunction,ComponentPad*%
%ADD16R,1.050000X1.500000*%
%TD*%
%TA.AperFunction,ComponentPad*%
%ADD17O,1.050000X1.500000*%
%TD*%
%TA.AperFunction,ComponentPad*%
%ADD18RoundRect,0.250000X-0.600000X-0.675000X0.600000X-0.675000X0.600000X0.675000X-0.600000X0.675000X0*%
%TD*%
%TA.AperFunction,ComponentPad*%
%ADD19O,1.700000X1.850000*%
%TD*%
%TA.AperFunction,ComponentPad*%
%ADD20C,1.250000*%
%TD*%
%TA.AperFunction,ComponentPad*%
%ADD21C,1.500000*%
%TD*%
%TA.AperFunction,ComponentPad*%
%ADD22C,0.600000*%
%TD*%
%TA.AperFunction,SMDPad,CuDef*%
%ADD23R,0.200000X0.600000*%
%TD*%
%TA.AperFunction,SMDPad,CuDef*%
%ADD24R,0.200000X0.400000*%
%TD*%
%TA.AperFunction,SMDPad,CuDef*%
%ADD25R,0.200000X0.200000*%
%TD*%
%TA.AperFunction,SMDPad,CuDef*%
%ADD26R,0.600000X0.200000*%
%TD*%
%TA.AperFunction,SMDPad,CuDef*%
%ADD27R,0.200000X1.200000*%
%TD*%
%TA.AperFunction,SMDPad,CuDef*%
%ADD28R,0.400000X0.200000*%
%TD*%
%TA.AperFunction,SMDPad,CuDef*%
%ADD29R,0.200000X0.800000*%
%TD*%
%TA.AperFunction,SMDPad,CuDef*%
%ADD30R,0.800000X0.200000*%
%TD*%
%TA.AperFunction,SMDPad,CuDef*%
%ADD31R,1.400000X0.200000*%
%TD*%
%TA.AperFunction,SMDPad,CuDef*%
%ADD32R,1.000000X0.200000*%
%TD*%
%TA.AperFunction,SMDPad,CuDef*%
%ADD33R,0.600000X0.600000*%
%TD*%
%TA.AperFunction,SMDPad,CuDef*%
%ADD34R,0.600000X0.400000*%
%TD*%
%TA.AperFunction,SMDPad,CuDef*%
%ADD35R,0.400000X0.400000*%
%TD*%
%TA.AperFunction,ViaPad*%
%ADD36C,0.800000*%
%TD*%
%TA.AperFunction,Conductor*%
%ADD37C,0.250000*%
%TD*%
G04 APERTURE END LIST*
D10*
%TO.C,U6*%
D11*
X138678571Y-106673809D02*
X138654761Y-106650000D01*
X138607142Y-106626190D01*
X138488095Y-106626190D01*
X138440476Y-106650000D01*
X138416666Y-106673809D01*
X138392857Y-106721428D01*
X138392857Y-106769047D01*
X138416666Y-106840476D01*
X138702380Y-107126190D01*
X138392857Y-107126190D01*
X138083333Y-106626190D02*
X138035714Y-106626190D01*
X137988095Y-106650000D01*
X137964285Y-106673809D01*
X137940476Y-106721428D01*
X137916666Y-106816666D01*
X137916666Y-106935714D01*
X137940476Y-107030952D01*
X137964285Y-107078571D01*
X137988095Y-107102380D01*
X138035714Y-107126190D01*
X138083333Y-107126190D01*
X138130952Y-107102380D01*
X138154761Y-107078571D01*
X138178571Y-107030952D01*
X138202380Y-106935714D01*
X138202380Y-106816666D01*
X138178571Y-106721428D01*
X138154761Y-106673809D01*
X138130952Y-106650000D01*
X138083333Y-106626190D01*
X137726190Y-106673809D02*
X137702380Y-106650000D01*
X137654761Y-106626190D01*
X137535714Y-106626190D01*
X137488095Y-106650000D01*
X137464285Y-106673809D01*
X137440476Y-106721428D01*
X137440476Y-106769047D01*
X137464285Y-106840476D01*
X137750000Y-107126190D01*
X137440476Y-107126190D01*
X137250000Y-106673809D02*
X137226190Y-106650000D01*
X137178571Y-106626190D01*
X137059523Y-106626190D01*
X137011904Y-106650000D01*
X136988095Y-106673809D01*
X136964285Y-106721428D01*
X136964285Y-106769047D01*
X136988095Y-106840476D01*
X137273809Y-107126190D01*
X136964285Y-107126190D01*
X136750000Y-106935714D02*
X136369047Y-106935714D01*
X136035714Y-106626190D02*
X135988095Y-106626190D01*
X135940476Y-106650000D01*
X135916666Y-106673809D01*
X135892857Y-106721428D01*
X135869047Y-106816666D01*
X135869047Y-106935714D01*
X135892857Y-107030952D01*
X135916666Y-107078571D01*
X135940476Y-107102380D01*
X135988095Y-107126190D01*
X136035714Y-107126190D01*
X136083333Y-107102380D01*
X136107142Y-107078571D01*
X136130952Y-107030952D01*
X136154761Y-106935714D01*
X136154761Y-106816666D01*
X136130952Y-106721428D01*
X136107142Y-106673809D01*
X136083333Y-106650000D01*
X136035714Y-106626190D01*
X135678571Y-106673809D02*
X135654761Y-106650000D01*
X135607142Y-106626190D01*
X135488095Y-106626190D01*
X135440476Y-106650000D01*
X135416666Y-106673809D01*
X135392857Y-106721428D01*
X135392857Y-106769047D01*
X135416666Y-106840476D01*
X135702380Y-107126190D01*
X135392857Y-107126190D01*
X135178571Y-106935714D02*
X134797619Y-106935714D01*
X134583333Y-106673809D02*
X134559523Y-106650000D01*
X134511904Y-106626190D01*
X134392857Y-106626190D01*
X134345238Y-106650000D01*
X134321428Y-106673809D01*
X134297619Y-106721428D01*
X134297619Y-106769047D01*
X134321428Y-106840476D01*
X134607142Y-107126190D01*
X134297619Y-107126190D01*
X134130952Y-106626190D02*
X133821428Y-106626190D01*
X133988095Y-106816666D01*
X133916666Y-106816666D01*
X133869047Y-106840476D01*
X133845238Y-106864285D01*
X133821428Y-106911904D01*
X133821428Y-107030952D01*
X133845238Y-107078571D01*
X133869047Y-107102380D01*
X133916666Y-107126190D01*
X134059523Y-107126190D01*
X134107142Y-107102380D01*
X134130952Y-107078571D01*
D12*
%TO.C,Logo1*%
X119450000Y-82275000D02*
X119450000Y-82575000D01*
X119450000Y-82435000D02*
X119350000Y-82435000D01*
D13*
X118600000Y-80325000D02*
X120100000Y-80325000D01*
X118600000Y-78225000D02*
X118600000Y-82425000D01*
D12*
X119450000Y-82275000D02*
X119350000Y-82275000D01*
X119350000Y-82435000D02*
X119250000Y-82575000D01*
D13*
X118600000Y-78225000D02*
X121600000Y-82425000D01*
X118600000Y-80325000D02*
X116800000Y-82425000D01*
X116800000Y-78325000D02*
X118600000Y-80325000D01*
X118600000Y-82425000D02*
G75*
G03*
X120100000Y-82425000I750000J0D01*
G01*
D12*
X119350000Y-82275000D02*
G75*
G03*
X119350000Y-82435000I0J-80000D01*
G01*
X119670000Y-82435000D02*
G75*
G03*
X119670000Y-82435000I-300000J0D01*
G01*
%TD*%
D14*
%TO.P,M1,*%
%TO.N,*%
X168000000Y-79000000D03*
X168000000Y-111000000D03*
D15*
%TO.P,M1,1,Vcc*%
%TO.N,+3V3*%
X128500000Y-87380000D03*
%TO.P,M1,2,GND*%
%TO.N,GND*%
X128500000Y-89920000D03*
%TO.P,M1,3,DIN*%
%TO.N,OLED-MOSI*%
X128500000Y-92460000D03*
%TO.P,M1,4,CLK*%
%TO.N,OLED-SCLK*%
X128500000Y-95000000D03*
%TO.P,M1,5,CS*%
%TO.N,OLED-CS0*%
X128500000Y-97540000D03*
%TO.P,M1,6,DC*%
%TO.N,OLED-DC*%
X128500000Y-100080000D03*
%TO.P,M1,7,RST*%
%TO.N,OLED-RST*%
X128500000Y-102620000D03*
D14*
%TO.P,M1,S,SCREWS*%
%TO.N,GND*%
X128500000Y-79000000D03*
X128500000Y-111000000D03*
%TD*%
D16*
%TO.P,U4,1,GND*%
%TO.N,GND*%
X120770000Y-110640000D03*
D17*
%TO.P,U4,2,DQ*%
%TO.N,TEMP*%
X119500000Y-110640000D03*
%TO.P,U4,3,VDD*%
%TO.N,+3V3*%
X118230000Y-110640000D03*
%TD*%
D18*
%TO.P,J2,1,GND*%
%TO.N,GND*%
X143500000Y-107150000D03*
D19*
%TO.P,J2,2,DC*%
%TO.N,DC*%
X146000000Y-107150000D03*
%TD*%
D18*
%TO.P,J3,1,Pin_1*%
%TO.N,GND*%
X118000000Y-89500000D03*
D19*
%TO.P,J3,2,Pin_2*%
%TO.N,TEMP*%
X120500000Y-89500000D03*
%TO.P,J3,3,Pin_3*%
%TO.N,+3V3*%
X123000000Y-89500000D03*
%TD*%
D20*
%TO.P,J1,S1,SHIELD*%
%TO.N,GND*%
X140570000Y-111640000D03*
D21*
X140570000Y-107470000D03*
X131930000Y-107470000D03*
D22*
X139140000Y-107960000D03*
X133360000Y-107960000D03*
D20*
X131930000Y-111640000D03*
%TD*%
D23*
%TO.P,U6,*%
%TO.N,*%
X135850000Y-110300000D03*
D24*
X137650000Y-112400000D03*
X135650000Y-110800000D03*
D23*
X135850000Y-109100000D03*
D25*
X136450000Y-109500000D03*
D26*
X137250000Y-111900000D03*
D25*
X137250000Y-110700000D03*
X135250000Y-110700000D03*
D27*
X138250000Y-109200000D03*
D25*
X136250000Y-109300000D03*
D28*
X137350000Y-111500000D03*
D25*
X137850000Y-111500000D03*
D27*
X137050000Y-109200000D03*
D24*
X136050000Y-110600000D03*
D25*
X136250000Y-108900000D03*
D24*
X138250000Y-110200000D03*
X136650000Y-109000000D03*
D25*
X135450000Y-110500000D03*
X136250000Y-111900000D03*
D29*
X137450000Y-110600000D03*
D25*
X137450000Y-112100000D03*
X135050000Y-110900000D03*
D26*
X137650000Y-110100000D03*
D25*
X136050000Y-109900000D03*
D23*
X134650000Y-110500000D03*
D25*
X138050000Y-111900000D03*
D30*
X136350000Y-108700000D03*
X134550000Y-110100000D03*
D28*
X136950000Y-110500000D03*
D25*
X136050000Y-112500000D03*
X135250000Y-110300000D03*
D31*
X134850000Y-111300000D03*
D28*
X136950000Y-112100000D03*
D25*
X135450000Y-110900000D03*
D23*
X134850000Y-110700000D03*
D31*
X137650000Y-108500000D03*
D25*
X136050000Y-111300000D03*
D27*
X134250000Y-112000000D03*
D32*
X137650000Y-109700000D03*
D25*
X134250000Y-110500000D03*
D28*
X137750000Y-110500000D03*
X135950000Y-111100000D03*
D25*
X136250000Y-110900000D03*
D26*
X136650000Y-110100000D03*
D25*
X137650000Y-110700000D03*
D31*
X134850000Y-108500000D03*
D25*
X136050000Y-111700000D03*
D27*
X135450000Y-112000000D03*
D33*
X134850000Y-109100000D03*
X134850000Y-111900000D03*
D25*
X135450000Y-110100000D03*
D27*
X135450000Y-109200000D03*
D25*
X136250000Y-111500000D03*
D24*
X136050000Y-109200000D03*
D25*
X135850000Y-109700000D03*
D24*
X137250000Y-112400000D03*
D29*
X135850000Y-112200000D03*
D25*
X137050000Y-112500000D03*
D28*
X136550000Y-110300000D03*
D23*
X136650000Y-111700000D03*
D27*
X134250000Y-109200000D03*
D32*
X134850000Y-109700000D03*
X134850000Y-112500000D03*
D23*
X136450000Y-111500000D03*
D28*
X137950000Y-112500000D03*
D33*
X137650000Y-109100000D03*
D25*
X136650000Y-109700000D03*
D29*
X136250000Y-110000000D03*
D26*
X136050000Y-108500000D03*
D23*
X138050000Y-111300000D03*
D29*
X137650000Y-111600000D03*
D25*
X136450000Y-109100000D03*
D24*
X138250000Y-111400000D03*
D34*
X136650000Y-110800000D03*
D25*
X136050000Y-112100000D03*
D24*
X137050000Y-111000000D03*
D35*
X136550000Y-112400000D03*
D25*
X136850000Y-111700000D03*
%TD*%
D36*
%TO.N,VBUS*%
X138750000Y-104750970D03*
X133750000Y-104750970D03*
%TO.N,CO2-SCL*%
X133500000Y-80000000D03*
%TO.N,Net-(R10-Pad2)*%
X132750000Y-101250000D03*
X137250000Y-96250000D03*
%TO.N,TEMP*%
X132759306Y-88034806D03*
X133250000Y-92000000D03*
%TO.N,GND*%
X144500000Y-103000000D03*
X130250000Y-98500000D03*
X130250000Y-86750000D03*
%TO.N,+3V3*%
X138000000Y-98500000D03*
X126000000Y-83600000D03*
X132250000Y-96000000D03*
X148000000Y-96250000D03*
X139000000Y-78250000D03*
%TO.N,OLED-RST*%
X140250000Y-91250000D03*
%TO.N,OLED-DC*%
X139500000Y-90500000D03*
%TO.N,CO2-SDA*%
X124500000Y-86000000D03*
X133257248Y-81750000D03*
%TO.N,CO2-SCL*%
X121750000Y-87500000D03*
%TO.N,DC*%
X140250000Y-102250000D03*
X126693825Y-105698092D03*
%TO.N,O*%
X137500000Y-90500000D03*
X131000000Y-97000000D03*
%TO.N,EN*%
X133250000Y-94500000D03*
X135243252Y-78261000D03*
%TO.N,BOOT*%
X134262299Y-94512299D03*
X136000000Y-87250000D03*
%TD*%
D37*
%TO.N,VBUS*%
X138750000Y-104750970D02*
X133750000Y-104750970D01*
%TO.N,DC*%
X138922183Y-102800000D02*
G75*
G03*
X140250000Y-102250000I-4J1877826D01*
G01*
X138922183Y-102800000D02*
X134265685Y-102800000D01*
X133300000Y-103200000D02*
G75*
G02*
X134265685Y-102800000I965687J-965689D01*
G01*
X126693825Y-105698092D02*
G75*
G02*
X127891917Y-104500000I1198092J0D01*
G01*
X130161523Y-104499999D02*
G75*
G03*
X133299999Y-103199999I1J4438473D01*
G01*
X130161523Y-104500000D02*
X127891917Y-104500000D01*
%TO.N,CO2-SCL*%
X132500000Y-83250000D02*
X132500000Y-81500000D01*
X132500000Y-81500000D02*
G75*
G02*
X132853554Y-80646446I1207111J-2D01*
G01*
X133500000Y-80000000D02*
X132853554Y-80646446D01*
%TO.N,BOOT*%
X135700000Y-87974264D02*
G75*
G02*
X136000000Y-87250000I1024263J0D01*
G01*
X134586591Y-94188007D02*
G75*
G03*
X135700000Y-91500000I-2688011J2688009D01*
G01*
X135700000Y-87974264D02*
X135700000Y-91500000D01*
X134262299Y-94512299D02*
X134586591Y-94188007D01*
%TO.N,Net-(R10-Pad2)*%
X136500000Y-101250000D02*
X132750000Y-101250000D01*
X137250000Y-100500000D02*
X137250000Y-96250000D01*
X137250000Y-100500000D02*
G75*
G02*
X136500000Y-101250000I-750000J0D01*
G01*
%TO.N,TEMP*%
X119500000Y-110640000D02*
X119500000Y-110250000D01*
X122500000Y-91250000D02*
X120926777Y-89676777D01*
X126457106Y-86000000D02*
X130724500Y-86000000D01*
X123250000Y-86750000D02*
X124646447Y-86750000D01*
X132759306Y-88034806D02*
X132759306Y-91509306D01*
X123000000Y-107750000D02*
X123000000Y-92457106D01*
X120250000Y-109500000D02*
X121250000Y-109500000D01*
X123250000Y-86750000D02*
G75*
G03*
X122500000Y-87500000I0J-750000D01*
G01*
X126457106Y-86000001D02*
G75*
G03*
X125250001Y-86500001I1J-1707107D01*
G01*
X122500000Y-91250000D02*
G75*
G02*
X123000000Y-92457106I-1207108J-1207107D01*
G01*
X123000000Y-107750000D02*
G75*
G02*
X121250000Y-109500000I-1750000J0D01*
G01*
X125250000Y-86500000D02*
G75*
G02*
X124646447Y-86750000I-603553J603552D01*
G01*
X122500000Y-87500000D02*
G75*
G02*
X121749520Y-88250480I-750482J2D01*
G01*
X133250000Y-92000000D02*
G75*
G02*
X132759306Y-91509306I0J490694D01*
G01*
X120250000Y-109500000D02*
G75*
G03*
X119500000Y-110250000I0J-750000D01*
G01*
X132759306Y-88034806D02*
G75*
G03*
X130724500Y-86000000I-2034806J0D01*
G01*
X120500000Y-89500000D02*
G75*
G02*
X120926777Y-89676777I-1J-603555D01*
G01*
X121749520Y-88250480D02*
G75*
G03*
X120500000Y-89500000I0J-1249520D01*
G01*
%TO.N,+3V3*%
X126000000Y-83600000D02*
X127150000Y-83600000D01*
X134560660Y-102250000D02*
X137000000Y-102250000D01*
X130500000Y-88500000D02*
X130500000Y-94250000D01*
X128218990Y-104000000D02*
X130335787Y-104000000D01*
X133250000Y-77000000D02*
X138500000Y-77000000D01*
X126500000Y-88500000D02*
X126500000Y-102281010D01*
X138000000Y-101250000D02*
X138000000Y-98500000D01*
X128500000Y-87380000D02*
X127620000Y-87380000D01*
X132250000Y-78500000D02*
X132250000Y-78000000D01*
X128500000Y-87380000D02*
X129380000Y-87380000D01*
X138000000Y-98500000D02*
X144335787Y-98500000D01*
X139000000Y-77500000D02*
X139000000Y-78250000D01*
X146750000Y-97500000D02*
X148000000Y-96250000D01*
X132250000Y-78500000D02*
G75*
G02*
X127150000Y-83600000I-5099999J-1D01*
G01*
X133250000Y-77000000D02*
G75*
G03*
X132250000Y-78000000I-1J-999999D01*
G01*
X128218990Y-104000000D02*
G75*
G02*
X126500000Y-102281010I2J1718992D01*
G01*
X134560660Y-102250001D02*
G75*
G03*
X132750001Y-103000001I0J-2560659D01*
G01*
X132750000Y-103000000D02*
G75*
G02*
X130335787Y-104000000I-2414215J2414216D01*
G01*
X146750000Y-97500000D02*
G75*
G02*
X144335787Y-98500000I-2414215J2414216D01*
G01*
X126500000Y-88500000D02*
G75*
G02*
X127620000Y-87380000I1119999J1D01*
G01*
X139000000Y-77500000D02*
G75*
G03*
X138500000Y-77000000I-500001J-1D01*
G01*
X138000000Y-101250000D02*
G75*
G02*
X137000000Y-102250000I-999999J-1D01*
G01*
X130500000Y-88500000D02*
G75*
G03*
X129380000Y-87380000I-1119999J1D01*
G01*
X132250000Y-96000000D02*
G75*
G02*
X130500000Y-94250000I0J1750000D01*
G01*
%TO.N,OLED-RST*%
X140250000Y-91250000D02*
X129148701Y-102351299D01*
X128500000Y-102619999D02*
G75*
G03*
X129148700Y-102351298I0J917401D01*
G01*
%TO.N,OLED-DC*%
X138990416Y-91730243D02*
X138985330Y-91735330D01*
X132154335Y-98566325D02*
X138985330Y-91735330D01*
X132154335Y-98566325D02*
G75*
G02*
X128500000Y-100080000I-3654333J3654331D01*
G01*
X138990416Y-91730243D02*
G75*
G03*
X139500000Y-90500000I-1230234J1230240D01*
G01*
%TO.N,CO2-SDA*%
X133257248Y-81750000D02*
X133257248Y-82992752D01*
X130750000Y-85500000D02*
X125707106Y-85500000D01*
X124500000Y-86000000D02*
G75*
G02*
X125707106Y-85500000I1207107J-1207108D01*
G01*
X130750000Y-85500000D02*
G75*
G03*
X133257248Y-82992752I0J2507248D01*
G01*
%TO.N,CO2-SCL*%
X121926777Y-87073224D02*
X123000000Y-86000000D01*
X125414213Y-85000000D02*
X130750000Y-85000000D01*
X132500000Y-83250000D02*
G75*
G02*
X130750000Y-85000000I-1750000J0D01*
G01*
X125414213Y-85000000D02*
G75*
G03*
X123000000Y-86000000I2J-3414216D01*
G01*
X121926777Y-87073224D02*
G75*
G03*
X121750000Y-87500000I426774J-426776D01*
G01*
%TO.N,DC*%
X141701041Y-102851041D02*
X146000000Y-107150000D01*
X141701041Y-102851041D02*
G75*
G03*
X140250000Y-102250000I-1451038J-1451034D01*
G01*
%TO.N,O*%
X137250000Y-92750000D02*
X133530331Y-96469669D01*
X132250000Y-97000000D02*
X131000000Y-97000000D01*
X137500000Y-90500000D02*
X137500000Y-92146447D01*
X137250000Y-92750000D02*
G75*
G03*
X137500000Y-92146447I-603552J603553D01*
G01*
X132250000Y-97000000D02*
G75*
G03*
X133530331Y-96469669I-3J1810666D01*
G01*
%TO.N,EN*%
X133250000Y-94500000D02*
X134359369Y-93390631D01*
X135243252Y-91256748D02*
X135243252Y-78261000D01*
X135243252Y-91256748D02*
G75*
G02*
X134359369Y-93390631I-3017771J2D01*
G01*
%TD*%
%TA.AperFunction,Conductor*%
%TO.N,GND*%
G36*
X126576394Y-76718907D02*
G01*
X126588207Y-76728996D01*
X128488914Y-78629704D01*
X128500797Y-78635758D01*
X128505828Y-78634962D01*
X130411794Y-76728996D01*
X130466311Y-76701219D01*
X130481798Y-76700000D01*
X132483530Y-76700000D01*
X132541721Y-76718907D01*
X132577685Y-76768407D01*
X132577685Y-76829593D01*
X132541721Y-76879093D01*
X132535278Y-76883398D01*
X132468481Y-76924331D01*
X132309831Y-77059831D01*
X132174331Y-77218481D01*
X132065318Y-77396375D01*
X132063830Y-77399968D01*
X131989484Y-77579456D01*
X131985476Y-77589131D01*
X131936770Y-77792005D01*
X131936466Y-77795870D01*
X131936465Y-77795875D01*
X131929199Y-77888208D01*
X131921754Y-77982812D01*
X131921517Y-77985821D01*
X131920983Y-77990016D01*
X131920983Y-77991469D01*
X131919479Y-78000000D01*
X131920983Y-78008529D01*
X131920983Y-78008530D01*
X131922996Y-78019946D01*
X131924500Y-78037137D01*
X131924500Y-78462863D01*
X131922996Y-78480054D01*
X131919479Y-78500000D01*
X131921621Y-78512145D01*
X131923031Y-78533657D01*
X131906520Y-78911809D01*
X131905767Y-78920413D01*
X131852529Y-79324799D01*
X131851029Y-79333305D01*
X131762749Y-79731510D01*
X131760514Y-79739851D01*
X131653254Y-80080040D01*
X131637863Y-80128853D01*
X131634912Y-80136962D01*
X131533685Y-80381345D01*
X131478820Y-80513800D01*
X131475170Y-80521627D01*
X131444339Y-80580854D01*
X131286832Y-80883421D01*
X131282526Y-80890881D01*
X131107921Y-81164956D01*
X131063361Y-81234901D01*
X131058407Y-81241975D01*
X130810107Y-81565565D01*
X130804568Y-81572166D01*
X130528995Y-81872903D01*
X130522903Y-81878995D01*
X130222166Y-82154568D01*
X130215565Y-82160107D01*
X129995739Y-82328786D01*
X129891975Y-82408407D01*
X129884902Y-82413360D01*
X129540881Y-82632526D01*
X129533421Y-82636832D01*
X129317217Y-82749381D01*
X129171627Y-82825170D01*
X129163800Y-82828820D01*
X128786962Y-82984912D01*
X128778860Y-82987860D01*
X128508892Y-83072981D01*
X128389852Y-83110514D01*
X128381510Y-83112749D01*
X127983305Y-83201029D01*
X127974799Y-83202529D01*
X127570413Y-83255767D01*
X127561809Y-83256520D01*
X127183657Y-83273031D01*
X127162147Y-83271621D01*
X127150000Y-83269479D01*
X127141471Y-83270983D01*
X127141470Y-83270983D01*
X127130054Y-83272996D01*
X127112863Y-83274500D01*
X126555970Y-83274500D01*
X126497779Y-83255593D01*
X126477428Y-83235767D01*
X126473045Y-83230054D01*
X126428282Y-83171718D01*
X126302841Y-83075464D01*
X126156762Y-83014956D01*
X126000000Y-82994318D01*
X125843238Y-83014956D01*
X125697159Y-83075464D01*
X125571718Y-83171718D01*
X125475464Y-83297159D01*
X125414956Y-83443238D01*
X125394318Y-83600000D01*
X125414956Y-83756762D01*
X125475464Y-83902841D01*
X125571718Y-84028282D01*
X125697159Y-84124536D01*
X125843238Y-84185044D01*
X126000000Y-84205682D01*
X126156762Y-84185044D01*
X126302841Y-84124536D01*
X126428282Y-84028282D01*
X126477429Y-83964233D01*
X126527852Y-83929577D01*
X126555970Y-83925500D01*
X127112863Y-83925500D01*
X127130054Y-83927004D01*
X127141470Y-83929017D01*
X127141471Y-83929017D01*
X127150000Y-83930521D01*
X127152830Y-83930022D01*
X127159168Y-83929760D01*
X127159169Y-83929760D01*
X127332556Y-83922588D01*
X127598417Y-83911592D01*
X127600450Y-83911339D01*
X127600457Y-83911338D01*
X128041754Y-83856331D01*
X128041765Y-83856329D01*
X128043772Y-83856079D01*
X128483020Y-83763978D01*
X128484984Y-83763393D01*
X128484997Y-83763390D01*
X128911191Y-83636506D01*
X128913163Y-83635919D01*
X129331262Y-83472777D01*
X129527313Y-83376933D01*
X129732627Y-83276562D01*
X129732635Y-83276558D01*
X129734461Y-83275665D01*
X130120005Y-83045931D01*
X130485261Y-82785143D01*
X130827733Y-82495083D01*
X131145083Y-82177733D01*
X131435143Y-81835261D01*
X131654185Y-81528474D01*
X131694748Y-81471662D01*
X131694749Y-81471661D01*
X131695931Y-81470005D01*
X131925665Y-81084461D01*
X132122777Y-80681262D01*
X132285919Y-80263163D01*
X132312361Y-80174345D01*
X132413390Y-79834997D01*
X132413393Y-79834984D01*
X132413978Y-79833020D01*
X132506079Y-79393772D01*
X132509006Y-79370296D01*
X132561338Y-78950457D01*
X132561339Y-78950450D01*
X132561592Y-78948417D01*
X132580022Y-78502830D01*
X132580521Y-78500000D01*
X132577004Y-78480054D01*
X132575500Y-78462863D01*
X132575500Y-78037137D01*
X132577004Y-78019946D01*
X132579017Y-78008530D01*
X132579017Y-78008529D01*
X132580521Y-78000000D01*
X132579017Y-77991469D01*
X132579017Y-77982812D01*
X132579506Y-77982812D01*
X132579057Y-77968430D01*
X132579397Y-77965419D01*
X132591162Y-77860991D01*
X132596096Y-77839379D01*
X132638613Y-77717873D01*
X132648231Y-77697900D01*
X132716718Y-77588903D01*
X132730540Y-77571570D01*
X132821570Y-77480540D01*
X132838903Y-77466718D01*
X132947900Y-77398231D01*
X132967873Y-77388613D01*
X133089379Y-77346096D01*
X133110991Y-77341162D01*
X133218433Y-77329057D01*
X133232812Y-77329506D01*
X133232812Y-77329017D01*
X133241469Y-77329017D01*
X133250000Y-77330521D01*
X133258529Y-77329017D01*
X133258530Y-77329017D01*
X133269946Y-77327004D01*
X133287137Y-77325500D01*
X138462862Y-77325500D01*
X138480054Y-77327004D01*
X138499999Y-77330521D01*
X138508314Y-77329055D01*
X138527242Y-77330920D01*
X138547461Y-77334941D01*
X138583150Y-77349722D01*
X138607020Y-77365672D01*
X138634328Y-77392980D01*
X138650278Y-77416850D01*
X138665059Y-77452539D01*
X138669080Y-77472758D01*
X138670945Y-77491686D01*
X138669479Y-77500001D01*
X138670983Y-77508529D01*
X138672996Y-77519947D01*
X138674500Y-77537138D01*
X138674500Y-77694030D01*
X138655593Y-77752221D01*
X138635768Y-77772571D01*
X138571718Y-77821718D01*
X138475464Y-77947159D01*
X138414956Y-78093238D01*
X138394318Y-78250000D01*
X138414956Y-78406762D01*
X138475464Y-78552841D01*
X138571718Y-78678282D01*
X138697159Y-78774536D01*
X138843238Y-78835044D01*
X139000000Y-78855682D01*
X139156762Y-78835044D01*
X139302841Y-78774536D01*
X139428282Y-78678282D01*
X139524536Y-78552841D01*
X139585044Y-78406762D01*
X139605682Y-78250000D01*
X139585044Y-78093238D01*
X139524536Y-77947159D01*
X139428282Y-77821718D01*
X139364233Y-77772571D01*
X139329577Y-77722148D01*
X139325500Y-77694030D01*
X139325500Y-77537136D01*
X139327004Y-77519945D01*
X139329017Y-77508529D01*
X139329017Y-77508528D01*
X139330521Y-77499999D01*
X139329017Y-77491471D01*
X139329017Y-77491467D01*
X139328850Y-77490520D01*
X139327822Y-77483029D01*
X139326811Y-77472758D01*
X139313555Y-77338173D01*
X139310519Y-77328162D01*
X139267765Y-77187223D01*
X139267764Y-77187220D01*
X139266352Y-77182566D01*
X139199395Y-77057297D01*
X139191991Y-77043446D01*
X139189699Y-77039158D01*
X139086541Y-76913459D01*
X139079424Y-76907618D01*
X139040322Y-76875528D01*
X139007335Y-76823997D01*
X139010937Y-76762917D01*
X139049752Y-76715620D01*
X139103127Y-76700000D01*
X141701000Y-76700000D01*
X141759191Y-76718907D01*
X141795155Y-76768407D01*
X141800000Y-76799000D01*
X141800000Y-94994123D01*
X141799955Y-95045449D01*
X141804781Y-95055498D01*
X141804781Y-95055500D01*
X141805185Y-95056341D01*
X141812463Y-95077183D01*
X141812670Y-95078093D01*
X141812672Y-95078096D01*
X141815150Y-95088962D01*
X141822097Y-95097680D01*
X141822520Y-95098211D01*
X141834334Y-95117046D01*
X141834625Y-95117653D01*
X141834628Y-95117657D01*
X141839453Y-95127705D01*
X141848893Y-95135254D01*
X141864484Y-95150872D01*
X141872015Y-95160323D01*
X141882058Y-95165167D01*
X141882663Y-95165459D01*
X141901478Y-95177308D01*
X141902005Y-95177730D01*
X141902010Y-95177732D01*
X141910715Y-95184694D01*
X141922405Y-95187382D01*
X141922492Y-95187402D01*
X141943318Y-95194715D01*
X141954202Y-95199965D01*
X141965347Y-95199975D01*
X141965348Y-95199975D01*
X141977213Y-95199985D01*
X141977211Y-95201730D01*
X141977277Y-95201724D01*
X141977277Y-95200000D01*
X141994123Y-95200000D01*
X142045160Y-95200045D01*
X142045449Y-95200045D01*
X142045537Y-95200003D01*
X142045561Y-95200000D01*
X148701000Y-95200000D01*
X148759191Y-95218907D01*
X148795155Y-95268407D01*
X148800000Y-95299000D01*
X148800000Y-96215544D01*
X148790177Y-96245777D01*
X148800000Y-96284456D01*
X148800000Y-113201000D01*
X148781093Y-113259191D01*
X148731593Y-113295155D01*
X148701000Y-113300000D01*
X139299000Y-113300000D01*
X139240809Y-113281093D01*
X139204845Y-113231593D01*
X139200000Y-113201000D01*
X139200000Y-112601582D01*
X139973457Y-112601582D01*
X139973464Y-112601627D01*
X139978987Y-112607842D01*
X140023286Y-112637442D01*
X140031234Y-112641758D01*
X140214216Y-112720372D01*
X140222809Y-112723164D01*
X140417055Y-112767119D01*
X140426013Y-112768298D01*
X140625018Y-112776117D01*
X140634045Y-112775643D01*
X140831133Y-112747067D01*
X140839924Y-112744956D01*
X141028510Y-112680940D01*
X141036768Y-112677262D01*
X141158524Y-112609077D01*
X141166725Y-112600205D01*
X141161823Y-112591033D01*
X140581086Y-112010296D01*
X140569203Y-112004242D01*
X140564172Y-112005038D01*
X139979511Y-112589699D01*
X139973457Y-112601582D01*
X139200000Y-112601582D01*
X139200000Y-111614742D01*
X139432833Y-111614742D01*
X139445858Y-111813474D01*
X139447271Y-111822395D01*
X139496294Y-112015421D01*
X139499314Y-112023949D01*
X139582689Y-112204803D01*
X139587210Y-112212634D01*
X139599256Y-112229679D01*
X139609943Y-112237659D01*
X139610692Y-112237669D01*
X139616823Y-112233967D01*
X140199704Y-111651086D01*
X140204946Y-111640797D01*
X140934242Y-111640797D01*
X140935038Y-111645828D01*
X141520329Y-112231119D01*
X141531091Y-112236602D01*
X141538591Y-112229392D01*
X141607262Y-112106768D01*
X141610940Y-112098510D01*
X141674956Y-111909924D01*
X141677067Y-111901133D01*
X141705875Y-111702450D01*
X141706372Y-111696626D01*
X141707778Y-111642914D01*
X141707588Y-111637101D01*
X141689216Y-111437160D01*
X141687569Y-111428276D01*
X141633510Y-111236599D01*
X141630269Y-111228156D01*
X141542189Y-111049547D01*
X141540929Y-111047491D01*
X141531639Y-111040925D01*
X141530193Y-111040944D01*
X141525098Y-111044112D01*
X140940296Y-111628914D01*
X140934242Y-111640797D01*
X140204946Y-111640797D01*
X140205758Y-111639203D01*
X140204962Y-111634172D01*
X139618305Y-111047515D01*
X139607948Y-111042238D01*
X139600073Y-111050011D01*
X139520870Y-111200551D01*
X139517416Y-111208891D01*
X139458358Y-111399088D01*
X139456477Y-111407938D01*
X139433069Y-111605710D01*
X139432833Y-111614742D01*
X139200000Y-111614742D01*
X139200000Y-110680763D01*
X139973793Y-110680763D01*
X139978489Y-110689279D01*
X140558914Y-111269704D01*
X140570797Y-111275758D01*
X140575828Y-111274962D01*
X141160133Y-110690657D01*
X141166011Y-110679119D01*
X141159918Y-110672441D01*
X141090413Y-110628586D01*
X141082359Y-110624483D01*
X140897380Y-110550684D01*
X140888722Y-110548119D01*
X140693392Y-110509265D01*
X140684399Y-110508320D01*
X140485265Y-110505713D01*
X140476247Y-110506423D01*
X140279974Y-110540149D01*
X140271247Y-110542487D01*
X140084400Y-110611419D01*
X140076238Y-110615312D01*
X139982050Y-110671348D01*
X139973793Y-110680763D01*
X139200000Y-110680763D01*
X139200000Y-108521996D01*
X139883044Y-108521996D01*
X139883142Y-108522618D01*
X139887969Y-108528171D01*
X139935052Y-108561139D01*
X139942522Y-108565451D01*
X140134175Y-108654821D01*
X140142268Y-108657767D01*
X140346539Y-108712501D01*
X140355027Y-108713997D01*
X140565691Y-108732428D01*
X140574309Y-108732428D01*
X140784973Y-108713997D01*
X140793461Y-108712501D01*
X140997732Y-108657767D01*
X141005825Y-108654821D01*
X141197478Y-108565451D01*
X141204948Y-108561139D01*
X141249144Y-108530192D01*
X141257170Y-108519541D01*
X141257182Y-108518909D01*
X141253394Y-108512605D01*
X140581086Y-107840296D01*
X140569203Y-107834242D01*
X140564172Y-107835038D01*
X139889098Y-108510113D01*
X139883044Y-108521996D01*
X139200000Y-108521996D01*
X139200000Y-107955267D01*
X139218907Y-107897076D01*
X139268407Y-107861112D01*
X139329593Y-107861112D01*
X139379093Y-107897076D01*
X139388724Y-107913427D01*
X139474553Y-108097486D01*
X139478857Y-108104940D01*
X139509808Y-108149145D01*
X139520458Y-108157170D01*
X139521090Y-108157181D01*
X139527396Y-108153393D01*
X140199704Y-107481086D01*
X140204946Y-107470797D01*
X140934242Y-107470797D01*
X140935038Y-107475828D01*
X141610113Y-108150902D01*
X141621996Y-108156956D01*
X141622618Y-108156858D01*
X141628171Y-108152031D01*
X141661143Y-108104940D01*
X141665447Y-108097486D01*
X141754820Y-107905828D01*
X141757769Y-107897726D01*
X141764450Y-107872792D01*
X142142001Y-107872792D01*
X142142267Y-107877922D01*
X142152409Y-107975673D01*
X142154682Y-107986200D01*
X142207086Y-108143277D01*
X142211933Y-108153624D01*
X142298891Y-108294145D01*
X142305987Y-108303098D01*
X142422939Y-108419847D01*
X142431904Y-108426927D01*
X142572580Y-108513641D01*
X142582934Y-108518469D01*
X142740110Y-108570602D01*
X142750621Y-108572855D01*
X142847112Y-108582741D01*
X142852170Y-108583000D01*
X143230320Y-108583000D01*
X143243005Y-108578878D01*
X143246000Y-108574757D01*
X143246000Y-107419680D01*
X143241878Y-107406995D01*
X143237757Y-107404000D01*
X142157681Y-107404000D01*
X142144996Y-107408122D01*
X142142001Y-107412243D01*
X142142001Y-107872792D01*
X141764450Y-107872792D01*
X141812501Y-107693461D01*
X141813997Y-107684973D01*
X141832428Y-107474309D01*
X141832428Y-107465691D01*
X141813997Y-107255027D01*
X141812501Y-107246539D01*
X141757769Y-107042274D01*
X141754820Y-107034172D01*
X141683077Y-106880320D01*
X142142000Y-106880320D01*
X142146122Y-106893005D01*
X142150243Y-106896000D01*
X143230320Y-106896000D01*
X143243005Y-106891878D01*
X143246000Y-106887757D01*
X143246000Y-105732681D01*
X143241878Y-105719996D01*
X143237757Y-105717001D01*
X142852208Y-105717001D01*
X142847078Y-105717267D01*
X142749327Y-105727409D01*
X142738800Y-105729682D01*
X142581723Y-105782086D01*
X142571376Y-105786933D01*
X142430855Y-105873891D01*
X142421902Y-105880987D01*
X142305153Y-105997939D01*
X142298073Y-106006904D01*
X142211359Y-106147580D01*
X142206531Y-106157934D01*
X142154398Y-106315110D01*
X142152145Y-106325621D01*
X142142259Y-106422112D01*
X142142000Y-106427171D01*
X142142000Y-106880320D01*
X141683077Y-106880320D01*
X141665447Y-106842514D01*
X141661143Y-106835060D01*
X141630192Y-106790855D01*
X141619542Y-106782830D01*
X141618910Y-106782819D01*
X141612604Y-106786607D01*
X140940296Y-107458914D01*
X140934242Y-107470797D01*
X140204946Y-107470797D01*
X140205758Y-107469203D01*
X140204962Y-107464172D01*
X139529887Y-106789098D01*
X139518004Y-106783044D01*
X139517382Y-106783142D01*
X139511829Y-106787969D01*
X139478857Y-106835060D01*
X139474553Y-106842514D01*
X139388724Y-107026573D01*
X139346996Y-107071321D01*
X139286935Y-107082995D01*
X139231482Y-107057137D01*
X139201819Y-107003623D01*
X139200000Y-106984733D01*
X139200000Y-106421090D01*
X139882819Y-106421090D01*
X139886607Y-106427396D01*
X140558914Y-107099704D01*
X140570797Y-107105758D01*
X140575828Y-107104962D01*
X141250902Y-106429887D01*
X141256956Y-106418004D01*
X141256858Y-106417382D01*
X141252031Y-106411829D01*
X141204948Y-106378861D01*
X141197478Y-106374549D01*
X141005825Y-106285179D01*
X140997732Y-106282233D01*
X140793461Y-106227499D01*
X140784973Y-106226003D01*
X140574309Y-106207572D01*
X140565691Y-106207572D01*
X140355027Y-106226003D01*
X140346539Y-106227499D01*
X140142274Y-106282231D01*
X140134172Y-106285180D01*
X139942514Y-106374553D01*
X139935060Y-106378857D01*
X139890855Y-106409808D01*
X139882830Y-106420458D01*
X139882819Y-106421090D01*
X139200000Y-106421090D01*
X139200000Y-106150000D01*
X133300000Y-106150000D01*
X133300000Y-106984733D01*
X133281093Y-107042924D01*
X133231593Y-107078888D01*
X133170407Y-107078888D01*
X133120907Y-107042924D01*
X133111276Y-107026573D01*
X133025447Y-106842514D01*
X133021143Y-106835060D01*
X132990192Y-106790855D01*
X132979542Y-106782830D01*
X132978910Y-106782819D01*
X132972604Y-106786607D01*
X132300296Y-107458914D01*
X132294242Y-107470797D01*
X132295038Y-107475828D01*
X132970113Y-108150902D01*
X132981996Y-108156956D01*
X132982618Y-108156858D01*
X132988171Y-108152031D01*
X133021143Y-108104940D01*
X133025447Y-108097486D01*
X133111276Y-107913427D01*
X133153004Y-107868679D01*
X133213065Y-107857005D01*
X133268518Y-107882863D01*
X133298181Y-107936377D01*
X133300000Y-107955267D01*
X133300000Y-113201000D01*
X133281093Y-113259191D01*
X133231593Y-113295155D01*
X133201000Y-113300000D01*
X130481797Y-113300000D01*
X130423606Y-113281093D01*
X130411793Y-113271004D01*
X128511086Y-111370296D01*
X128499203Y-111364242D01*
X128494172Y-111365038D01*
X126588207Y-113271004D01*
X126533690Y-113298781D01*
X126518203Y-113300000D01*
X126299000Y-113300000D01*
X126240809Y-113281093D01*
X126204845Y-113231593D01*
X126200000Y-113201000D01*
X126200000Y-112981797D01*
X126218907Y-112923606D01*
X126228996Y-112911793D01*
X128129704Y-111011086D01*
X128134946Y-111000797D01*
X128864242Y-111000797D01*
X128865038Y-111005828D01*
X130787994Y-112928783D01*
X130799877Y-112934837D01*
X130802748Y-112934383D01*
X130805503Y-112932187D01*
X130917135Y-112798676D01*
X130920535Y-112794099D01*
X131078421Y-112553740D01*
X131126172Y-112515484D01*
X131187289Y-112512602D01*
X131216167Y-112525777D01*
X131383289Y-112637444D01*
X131391233Y-112641757D01*
X131574216Y-112720372D01*
X131582809Y-112723164D01*
X131777055Y-112767119D01*
X131786013Y-112768298D01*
X131985018Y-112776117D01*
X131994045Y-112775643D01*
X132191133Y-112747067D01*
X132199924Y-112744956D01*
X132388510Y-112680940D01*
X132396768Y-112677262D01*
X132518524Y-112609077D01*
X132526725Y-112600205D01*
X132521823Y-112591033D01*
X131640794Y-111710004D01*
X131613017Y-111655487D01*
X131615344Y-111640797D01*
X132294242Y-111640797D01*
X132295038Y-111645828D01*
X132880329Y-112231119D01*
X132891091Y-112236602D01*
X132898591Y-112229392D01*
X132967262Y-112106768D01*
X132970940Y-112098510D01*
X133034956Y-111909924D01*
X133037067Y-111901133D01*
X133065875Y-111702450D01*
X133066372Y-111696626D01*
X133067778Y-111642914D01*
X133067588Y-111637101D01*
X133049216Y-111437160D01*
X133047569Y-111428276D01*
X132993510Y-111236599D01*
X132990269Y-111228156D01*
X132902189Y-111049547D01*
X132900929Y-111047491D01*
X132891639Y-111040925D01*
X132890193Y-111040944D01*
X132885098Y-111044112D01*
X132300296Y-111628914D01*
X132294242Y-111640797D01*
X131615344Y-111640797D01*
X131622588Y-111595055D01*
X131640794Y-111569996D01*
X132520133Y-110690657D01*
X132526011Y-110679119D01*
X132519918Y-110672441D01*
X132450413Y-110628586D01*
X132442359Y-110624483D01*
X132257380Y-110550684D01*
X132248722Y-110548119D01*
X132053392Y-110509265D01*
X132044399Y-110508320D01*
X131845265Y-110505713D01*
X131836247Y-110506423D01*
X131639974Y-110540149D01*
X131631247Y-110542487D01*
X131594632Y-110555995D01*
X131533494Y-110558397D01*
X131482620Y-110524405D01*
X131462840Y-110480134D01*
X131433980Y-110314770D01*
X131432678Y-110309218D01*
X131335777Y-109982086D01*
X131333846Y-109976723D01*
X131199983Y-109662888D01*
X131197459Y-109657802D01*
X131028407Y-109361421D01*
X131025311Y-109356654D01*
X130823319Y-109081676D01*
X130819696Y-109077296D01*
X130812172Y-109069199D01*
X130800517Y-109062713D01*
X130796258Y-109063228D01*
X130795344Y-109063867D01*
X128870296Y-110988914D01*
X128864242Y-111000797D01*
X128134946Y-111000797D01*
X128135758Y-110999203D01*
X128134962Y-110994172D01*
X126228996Y-109088207D01*
X126201219Y-109033690D01*
X126200000Y-109018203D01*
X126200000Y-108701596D01*
X126564376Y-108701596D01*
X126564487Y-108703945D01*
X126566912Y-108707701D01*
X128488914Y-110629704D01*
X128500797Y-110635758D01*
X128505828Y-110634962D01*
X130428800Y-108711990D01*
X130434854Y-108700107D01*
X130434356Y-108696963D01*
X130432471Y-108694571D01*
X130323894Y-108601837D01*
X130319341Y-108598381D01*
X130205668Y-108521996D01*
X131243044Y-108521996D01*
X131243142Y-108522618D01*
X131247969Y-108528171D01*
X131295052Y-108561139D01*
X131302522Y-108565451D01*
X131494175Y-108654821D01*
X131502268Y-108657767D01*
X131706539Y-108712501D01*
X131715027Y-108713997D01*
X131925691Y-108732428D01*
X131934309Y-108732428D01*
X132144973Y-108713997D01*
X132153461Y-108712501D01*
X132357732Y-108657767D01*
X132365825Y-108654821D01*
X132557478Y-108565451D01*
X132564948Y-108561139D01*
X132609144Y-108530192D01*
X132617170Y-108519541D01*
X132617182Y-108518909D01*
X132613394Y-108512605D01*
X131941086Y-107840296D01*
X131929203Y-107834242D01*
X131924172Y-107835038D01*
X131249098Y-108510113D01*
X131243044Y-108521996D01*
X130205668Y-108521996D01*
X130036159Y-108408091D01*
X130031256Y-108405191D01*
X129728073Y-108248707D01*
X129722870Y-108246390D01*
X129403711Y-108125790D01*
X129398266Y-108124083D01*
X129067368Y-108040968D01*
X129061769Y-108039900D01*
X128723502Y-107995366D01*
X128717824Y-107994949D01*
X128376667Y-107989590D01*
X128371000Y-107989827D01*
X128031486Y-108023715D01*
X128025853Y-108024607D01*
X127692506Y-108097289D01*
X127687019Y-108098821D01*
X127364232Y-108209336D01*
X127358955Y-108211489D01*
X127051002Y-108358375D01*
X127046010Y-108361119D01*
X126756992Y-108542420D01*
X126752335Y-108545730D01*
X126571700Y-108690446D01*
X126564376Y-108701596D01*
X126200000Y-108701596D01*
X126200000Y-107474309D01*
X130667572Y-107474309D01*
X130686003Y-107684973D01*
X130687499Y-107693461D01*
X130742231Y-107897726D01*
X130745180Y-107905828D01*
X130834553Y-108097486D01*
X130838857Y-108104940D01*
X130869808Y-108149145D01*
X130880458Y-108157170D01*
X130881090Y-108157181D01*
X130887396Y-108153393D01*
X131559704Y-107481086D01*
X131565758Y-107469203D01*
X131564962Y-107464172D01*
X130889887Y-106789098D01*
X130878004Y-106783044D01*
X130877382Y-106783142D01*
X130871829Y-106787969D01*
X130838857Y-106835060D01*
X130834553Y-106842514D01*
X130745180Y-107034172D01*
X130742231Y-107042274D01*
X130687499Y-107246539D01*
X130686003Y-107255027D01*
X130667572Y-107465691D01*
X130667572Y-107474309D01*
X126200000Y-107474309D01*
X126200000Y-106421090D01*
X131242819Y-106421090D01*
X131246607Y-106427396D01*
X131918914Y-107099704D01*
X131930797Y-107105758D01*
X131935828Y-107104962D01*
X132610902Y-106429887D01*
X132616956Y-106418004D01*
X132616858Y-106417382D01*
X132612031Y-106411829D01*
X132564948Y-106378861D01*
X132557478Y-106374549D01*
X132365825Y-106285179D01*
X132357732Y-106282233D01*
X132153461Y-106227499D01*
X132144973Y-106226003D01*
X131934309Y-106207572D01*
X131925691Y-106207572D01*
X131715027Y-106226003D01*
X131706539Y-106227499D01*
X131502274Y-106282231D01*
X131494172Y-106285180D01*
X131302514Y-106374553D01*
X131295060Y-106378857D01*
X131250855Y-106409808D01*
X131242830Y-106420458D01*
X131242819Y-106421090D01*
X126200000Y-106421090D01*
X126200000Y-106276833D01*
X126218907Y-106218642D01*
X126268407Y-106182678D01*
X126329593Y-106182678D01*
X126359267Y-106198291D01*
X126381748Y-106215541D01*
X126390984Y-106222628D01*
X126537063Y-106283136D01*
X126693825Y-106303774D01*
X126850587Y-106283136D01*
X126996666Y-106222628D01*
X127122107Y-106126374D01*
X127218361Y-106000933D01*
X127278869Y-105854854D01*
X127299507Y-105698092D01*
X127278869Y-105541330D01*
X127218361Y-105395251D01*
X127214415Y-105390109D01*
X127214413Y-105390105D01*
X127169261Y-105331263D01*
X127148837Y-105273587D01*
X127160484Y-105224343D01*
X127161778Y-105221921D01*
X127172569Y-105205768D01*
X127201044Y-105171071D01*
X127268718Y-105088610D01*
X127282439Y-105074890D01*
X127399596Y-104978743D01*
X127415732Y-104967961D01*
X127549390Y-104896519D01*
X127567320Y-104889092D01*
X127639837Y-104867094D01*
X127712355Y-104845097D01*
X127731385Y-104841311D01*
X127808612Y-104833705D01*
X127860125Y-104828631D01*
X127874723Y-104829188D01*
X127874723Y-104829017D01*
X127883389Y-104829017D01*
X127891917Y-104830521D01*
X127900446Y-104829017D01*
X127900447Y-104829017D01*
X127911863Y-104827004D01*
X127929054Y-104825500D01*
X130124386Y-104825500D01*
X130141577Y-104827004D01*
X130152993Y-104829017D01*
X130152994Y-104829017D01*
X130161523Y-104830521D01*
X130170052Y-104829017D01*
X130173470Y-104829017D01*
X130178045Y-104828526D01*
X130336084Y-104822316D01*
X130535589Y-104814478D01*
X130907348Y-104770477D01*
X131005417Y-104750970D01*
X133144318Y-104750970D01*
X133164956Y-104907732D01*
X133225464Y-105053811D01*
X133321718Y-105179252D01*
X133447159Y-105275506D01*
X133593238Y-105336014D01*
X133724431Y-105353286D01*
X133739184Y-105355228D01*
X133750000Y-105356652D01*
X133760817Y-105355228D01*
X133775569Y-105353286D01*
X133906762Y-105336014D01*
X134052841Y-105275506D01*
X134178282Y-105179252D01*
X134227429Y-105115203D01*
X134277852Y-105080547D01*
X134305970Y-105076470D01*
X138194030Y-105076470D01*
X138252221Y-105095377D01*
X138272571Y-105115202D01*
X138321718Y-105179252D01*
X138447159Y-105275506D01*
X138593238Y-105336014D01*
X138724431Y-105353286D01*
X138739184Y-105355228D01*
X138750000Y-105356652D01*
X138760817Y-105355228D01*
X138775569Y-105353286D01*
X138906762Y-105336014D01*
X139052841Y-105275506D01*
X139178282Y-105179252D01*
X139274536Y-105053811D01*
X139335044Y-104907732D01*
X139355682Y-104750970D01*
X139335044Y-104594208D01*
X139274536Y-104448129D01*
X139178282Y-104322688D01*
X139052841Y-104226434D01*
X138906762Y-104165926D01*
X138750000Y-104145288D01*
X138593238Y-104165926D01*
X138447159Y-104226434D01*
X138321718Y-104322688D01*
X138317764Y-104327841D01*
X138272572Y-104386737D01*
X138222148Y-104421393D01*
X138194030Y-104425470D01*
X134305970Y-104425470D01*
X134247779Y-104406563D01*
X134227428Y-104386737D01*
X134182236Y-104327841D01*
X134178282Y-104322688D01*
X134052841Y-104226434D01*
X133906762Y-104165926D01*
X133750000Y-104145288D01*
X133593238Y-104165926D01*
X133447159Y-104226434D01*
X133321718Y-104322688D01*
X133225464Y-104448129D01*
X133164956Y-104594208D01*
X133144318Y-104750970D01*
X131005417Y-104750970D01*
X131088811Y-104734382D01*
X131272606Y-104697824D01*
X131272617Y-104697821D01*
X131274509Y-104697445D01*
X131634809Y-104595830D01*
X131636618Y-104595162D01*
X131636626Y-104595160D01*
X131824162Y-104525973D01*
X131986024Y-104466259D01*
X132325992Y-104309532D01*
X132327689Y-104308581D01*
X132327702Y-104308575D01*
X132650908Y-104127571D01*
X132650919Y-104127564D01*
X132652614Y-104126615D01*
X132963879Y-103918634D01*
X133257865Y-103686874D01*
X133520621Y-103443985D01*
X133524200Y-103441100D01*
X133526616Y-103438684D01*
X133533714Y-103433714D01*
X133538684Y-103426616D01*
X133541042Y-103424258D01*
X133554760Y-103409156D01*
X133648356Y-103329218D01*
X133660924Y-103320087D01*
X133786805Y-103242947D01*
X133800647Y-103235894D01*
X133937051Y-103179394D01*
X133951825Y-103174593D01*
X134095390Y-103140126D01*
X134110733Y-103137696D01*
X134233444Y-103128038D01*
X134253836Y-103129017D01*
X134257154Y-103129017D01*
X134265685Y-103130521D01*
X134274214Y-103129017D01*
X134274215Y-103129017D01*
X134285631Y-103127004D01*
X134302822Y-103125500D01*
X138885047Y-103125500D01*
X138902238Y-103127004D01*
X138913654Y-103129017D01*
X138913655Y-103129017D01*
X138922184Y-103130521D01*
X138930713Y-103129017D01*
X138931459Y-103129017D01*
X138940938Y-103127919D01*
X139033164Y-103122739D01*
X139169265Y-103115096D01*
X139172011Y-103114629D01*
X139172015Y-103114629D01*
X139410506Y-103074107D01*
X139410514Y-103074105D01*
X139413240Y-103073642D01*
X139415900Y-103072876D01*
X139415903Y-103072875D01*
X139648364Y-103005905D01*
X139648370Y-103005903D01*
X139651039Y-103005134D01*
X139720664Y-102976294D01*
X139877102Y-102911495D01*
X139877109Y-102911492D01*
X139879672Y-102910430D01*
X140007403Y-102839836D01*
X140067479Y-102828236D01*
X140080752Y-102831713D01*
X140080975Y-102830881D01*
X140087240Y-102832560D01*
X140093238Y-102835044D01*
X140250000Y-102855682D01*
X140406762Y-102835044D01*
X140552841Y-102774536D01*
X140678282Y-102678282D01*
X140679488Y-102679854D01*
X140725897Y-102656208D01*
X140773205Y-102660243D01*
X140902248Y-102704047D01*
X140904593Y-102704843D01*
X140916556Y-102709798D01*
X141107475Y-102803950D01*
X141118685Y-102810422D01*
X141295685Y-102928690D01*
X141305958Y-102936573D01*
X141446263Y-103059617D01*
X141462080Y-103077261D01*
X141467327Y-103084754D01*
X141474422Y-103089722D01*
X141474424Y-103089724D01*
X141483917Y-103096371D01*
X141497136Y-103107462D01*
X143937670Y-105547996D01*
X143965447Y-105602513D01*
X143955876Y-105662945D01*
X143912611Y-105706210D01*
X143867666Y-105717000D01*
X143769680Y-105717000D01*
X143756995Y-105721122D01*
X143754000Y-105725243D01*
X143754000Y-108567319D01*
X143758122Y-108580004D01*
X143762243Y-108582999D01*
X144147792Y-108582999D01*
X144152922Y-108582733D01*
X144250673Y-108572591D01*
X144261200Y-108570318D01*
X144418277Y-108517914D01*
X144428624Y-108513067D01*
X144569145Y-108426109D01*
X144578098Y-108419013D01*
X144694847Y-108302061D01*
X144701927Y-108293096D01*
X144788641Y-108152420D01*
X144793469Y-108142066D01*
X144845602Y-107984890D01*
X144847855Y-107974379D01*
X144857741Y-107877888D01*
X144858000Y-107872830D01*
X144858000Y-107711995D01*
X144876907Y-107653804D01*
X144926407Y-107617840D01*
X144987593Y-107617840D01*
X145037093Y-107653804D01*
X145044410Y-107665515D01*
X145120782Y-107809151D01*
X145250989Y-107968800D01*
X145254717Y-107971884D01*
X145254718Y-107971885D01*
X145348893Y-108049793D01*
X145409725Y-108100118D01*
X145590945Y-108198103D01*
X145627233Y-108209336D01*
X145783125Y-108257593D01*
X145783129Y-108257594D01*
X145787746Y-108259023D01*
X145792554Y-108259528D01*
X145792557Y-108259529D01*
X145987815Y-108280051D01*
X145987817Y-108280051D01*
X145992631Y-108280557D01*
X146052646Y-108275095D01*
X146192978Y-108262325D01*
X146192983Y-108262324D01*
X146197797Y-108261886D01*
X146395428Y-108203720D01*
X146406173Y-108198103D01*
X146496459Y-108150902D01*
X146577998Y-108108274D01*
X146661710Y-108040968D01*
X146734780Y-107982219D01*
X146734783Y-107982217D01*
X146738553Y-107979185D01*
X146742586Y-107974379D01*
X146867859Y-107825085D01*
X146867860Y-107825083D01*
X146870976Y-107821370D01*
X146877694Y-107809151D01*
X146942056Y-107692076D01*
X146970224Y-107640838D01*
X146977520Y-107617840D01*
X147031052Y-107449083D01*
X147032516Y-107444468D01*
X147034136Y-107430030D01*
X147050191Y-107286892D01*
X147050191Y-107286890D01*
X147050500Y-107284136D01*
X147050500Y-107023159D01*
X147048585Y-107003623D01*
X147035952Y-106874780D01*
X147035951Y-106874776D01*
X147035480Y-106869970D01*
X147027191Y-106842514D01*
X146977333Y-106677380D01*
X146975935Y-106672749D01*
X146879218Y-106490849D01*
X146749011Y-106331200D01*
X146714835Y-106302927D01*
X146594002Y-106202965D01*
X146594000Y-106202964D01*
X146590275Y-106199882D01*
X146409055Y-106101897D01*
X146345855Y-106082333D01*
X146216875Y-106042407D01*
X146216871Y-106042406D01*
X146212254Y-106040977D01*
X146207446Y-106040472D01*
X146207443Y-106040471D01*
X146012185Y-106019949D01*
X146012183Y-106019949D01*
X146007369Y-106019443D01*
X145947354Y-106024905D01*
X145807022Y-106037675D01*
X145807017Y-106037676D01*
X145802203Y-106038114D01*
X145604572Y-106096280D01*
X145600288Y-106098519D01*
X145600287Y-106098520D01*
X145539018Y-106130551D01*
X145478689Y-106140755D01*
X145423147Y-106112821D01*
X141957463Y-102647137D01*
X141946372Y-102633918D01*
X141939727Y-102624428D01*
X141939725Y-102624426D01*
X141934755Y-102617328D01*
X141927656Y-102612357D01*
X141926285Y-102610986D01*
X141921562Y-102607244D01*
X141736807Y-102442137D01*
X141736801Y-102442133D01*
X141734734Y-102440285D01*
X141732472Y-102438680D01*
X141732467Y-102438676D01*
X141519207Y-102287360D01*
X141519202Y-102287357D01*
X141516943Y-102285754D01*
X141456838Y-102252535D01*
X141285660Y-102157927D01*
X141285652Y-102157923D01*
X141283220Y-102156579D01*
X141036503Y-102054386D01*
X141033841Y-102053619D01*
X141033835Y-102053617D01*
X140833721Y-101995965D01*
X140783039Y-101961687D01*
X140776586Y-101952108D01*
X140774536Y-101947159D01*
X140678282Y-101821718D01*
X140552841Y-101725464D01*
X140406762Y-101664956D01*
X140250000Y-101644318D01*
X140093238Y-101664956D01*
X139947159Y-101725464D01*
X139821718Y-101821718D01*
X139725464Y-101947159D01*
X139664956Y-102093238D01*
X139652195Y-102190169D01*
X139645147Y-102243703D01*
X139618806Y-102298928D01*
X139590782Y-102319570D01*
X139539405Y-102344907D01*
X139522049Y-102353466D01*
X139510084Y-102358422D01*
X139330100Y-102419518D01*
X139317592Y-102422870D01*
X139288737Y-102428610D01*
X139131155Y-102459955D01*
X139118330Y-102461643D01*
X139032706Y-102467255D01*
X138954850Y-102472358D01*
X138931191Y-102471067D01*
X138930714Y-102470983D01*
X138930712Y-102470983D01*
X138922182Y-102469479D01*
X138913653Y-102470983D01*
X138913652Y-102470983D01*
X138902236Y-102472996D01*
X138885045Y-102474500D01*
X137875611Y-102474500D01*
X137817420Y-102455593D01*
X137781456Y-102406093D01*
X137781456Y-102344907D01*
X137811316Y-102300220D01*
X137877489Y-102243703D01*
X137940169Y-102190169D01*
X138075669Y-102031519D01*
X138184682Y-101853625D01*
X138234032Y-101734484D01*
X138263037Y-101664460D01*
X138263039Y-101664455D01*
X138264524Y-101660869D01*
X138267879Y-101646897D01*
X138312324Y-101461768D01*
X138313230Y-101457995D01*
X138314899Y-101436798D01*
X138323777Y-101323974D01*
X138328484Y-101264172D01*
X138329017Y-101259984D01*
X138329017Y-101258531D01*
X138330521Y-101250000D01*
X138327004Y-101230054D01*
X138325500Y-101212863D01*
X138325500Y-99055970D01*
X138344407Y-98997779D01*
X138364233Y-98977428D01*
X138423129Y-98932236D01*
X138428282Y-98928282D01*
X138477429Y-98864233D01*
X138527852Y-98829577D01*
X138555970Y-98825500D01*
X144298650Y-98825500D01*
X144315841Y-98827004D01*
X144327257Y-98829017D01*
X144327258Y-98829017D01*
X144335787Y-98830521D01*
X144344316Y-98829017D01*
X144346717Y-98829017D01*
X144353262Y-98828300D01*
X144585060Y-98818180D01*
X144662035Y-98814819D01*
X144770243Y-98800573D01*
X144983662Y-98772476D01*
X144983674Y-98772474D01*
X144985800Y-98772194D01*
X145237117Y-98716479D01*
X145302503Y-98701983D01*
X145302506Y-98701982D01*
X145304618Y-98701514D01*
X145616063Y-98603315D01*
X145917764Y-98478347D01*
X146008221Y-98431258D01*
X146205516Y-98328553D01*
X146205520Y-98328551D01*
X146207425Y-98327559D01*
X146482842Y-98152099D01*
X146741918Y-97953302D01*
X146969788Y-97744498D01*
X146974925Y-97740376D01*
X146976619Y-97738682D01*
X146983714Y-97733714D01*
X146995331Y-97717123D01*
X147006423Y-97703903D01*
X147837033Y-96873293D01*
X147891550Y-96845516D01*
X147919955Y-96845144D01*
X148000000Y-96855682D01*
X148156762Y-96835044D01*
X148302841Y-96774536D01*
X148428282Y-96678282D01*
X148524536Y-96552841D01*
X148585044Y-96406762D01*
X148602847Y-96271534D01*
X148612203Y-96251918D01*
X148602847Y-96228466D01*
X148595175Y-96170193D01*
X148585044Y-96093238D01*
X148524536Y-95947159D01*
X148428282Y-95821718D01*
X148302841Y-95725464D01*
X148156762Y-95664956D01*
X148000000Y-95644318D01*
X147843238Y-95664956D01*
X147697159Y-95725464D01*
X147571718Y-95821718D01*
X147475464Y-95947159D01*
X147414956Y-96093238D01*
X147394318Y-96250000D01*
X147404856Y-96330042D01*
X147393706Y-96390201D01*
X147376707Y-96412967D01*
X146546097Y-97243577D01*
X146532877Y-97254669D01*
X146516286Y-97266286D01*
X146510029Y-97275223D01*
X146509692Y-97275704D01*
X146495079Y-97292275D01*
X146298839Y-97470136D01*
X146291357Y-97476277D01*
X146055682Y-97651067D01*
X146047616Y-97656456D01*
X145795970Y-97807286D01*
X145787402Y-97811866D01*
X145522183Y-97937305D01*
X145513207Y-97941023D01*
X145236970Y-98039863D01*
X145227673Y-98042683D01*
X144943079Y-98113970D01*
X144933550Y-98115865D01*
X144643352Y-98158912D01*
X144633684Y-98159865D01*
X144521245Y-98165389D01*
X144369156Y-98172861D01*
X144347107Y-98171475D01*
X144335787Y-98169479D01*
X144327258Y-98170983D01*
X144327257Y-98170983D01*
X144315841Y-98172996D01*
X144298650Y-98174500D01*
X138555970Y-98174500D01*
X138497779Y-98155593D01*
X138477428Y-98135767D01*
X138461964Y-98115613D01*
X138428282Y-98071718D01*
X138302841Y-97975464D01*
X138156762Y-97914956D01*
X138000000Y-97894318D01*
X137843238Y-97914956D01*
X137712385Y-97969157D01*
X137651389Y-97973958D01*
X137599220Y-97941989D01*
X137575805Y-97885461D01*
X137575500Y-97877693D01*
X137575500Y-96805970D01*
X137594407Y-96747779D01*
X137614233Y-96727428D01*
X137673129Y-96682236D01*
X137678282Y-96678282D01*
X137774536Y-96552841D01*
X137835044Y-96406762D01*
X137855682Y-96250000D01*
X137835044Y-96093238D01*
X137774536Y-95947159D01*
X137678282Y-95821718D01*
X137552841Y-95725464D01*
X137406762Y-95664956D01*
X137250000Y-95644318D01*
X137093238Y-95664956D01*
X136947159Y-95725464D01*
X136821718Y-95821718D01*
X136725464Y-95947159D01*
X136664956Y-96093238D01*
X136644318Y-96250000D01*
X136664956Y-96406762D01*
X136725464Y-96552841D01*
X136821718Y-96678282D01*
X136826871Y-96682236D01*
X136885767Y-96727428D01*
X136920423Y-96777852D01*
X136924500Y-96805970D01*
X136924500Y-100462863D01*
X136922996Y-100480054D01*
X136919479Y-100500000D01*
X136920983Y-100508529D01*
X136920983Y-100517193D01*
X136920054Y-100517193D01*
X136920365Y-100531414D01*
X136911737Y-100596947D01*
X136905048Y-100621910D01*
X136872615Y-100700210D01*
X136859697Y-100722586D01*
X136808095Y-100789835D01*
X136789835Y-100808095D01*
X136722586Y-100859697D01*
X136700210Y-100872615D01*
X136621910Y-100905048D01*
X136596947Y-100911737D01*
X136574961Y-100914632D01*
X136531412Y-100920365D01*
X136517193Y-100920054D01*
X136517193Y-100920983D01*
X136508529Y-100920983D01*
X136500000Y-100919479D01*
X136491471Y-100920983D01*
X136491470Y-100920983D01*
X136480054Y-100922996D01*
X136462863Y-100924500D01*
X133305970Y-100924500D01*
X133247779Y-100905593D01*
X133227428Y-100885767D01*
X133182236Y-100826871D01*
X133178282Y-100821718D01*
X133052841Y-100725464D01*
X132906762Y-100664956D01*
X132750000Y-100644318D01*
X132593238Y-100664956D01*
X132447159Y-100725464D01*
X132321718Y-100821718D01*
X132225464Y-100947159D01*
X132164956Y-101093238D01*
X132144318Y-101250000D01*
X132164956Y-101406762D01*
X132225464Y-101552841D01*
X132321718Y-101678282D01*
X132447159Y-101774536D01*
X132593238Y-101835044D01*
X132750000Y-101855682D01*
X132906762Y-101835044D01*
X133052841Y-101774536D01*
X133178282Y-101678282D01*
X133227429Y-101614233D01*
X133277852Y-101579577D01*
X133305970Y-101575500D01*
X136462863Y-101575500D01*
X136480054Y-101577004D01*
X136491470Y-101579017D01*
X136491471Y-101579017D01*
X136500000Y-101580521D01*
X136508530Y-101579017D01*
X136509377Y-101579017D01*
X136514577Y-101578333D01*
X136687472Y-101563206D01*
X136869248Y-101514500D01*
X137039804Y-101434968D01*
X137193959Y-101327028D01*
X137327028Y-101193959D01*
X137417924Y-101064145D01*
X137432486Y-101043349D01*
X137432487Y-101043347D01*
X137434968Y-101039804D01*
X137485776Y-100930846D01*
X137527504Y-100886098D01*
X137587565Y-100874423D01*
X137643018Y-100900281D01*
X137672681Y-100953795D01*
X137674500Y-100972685D01*
X137674500Y-101212863D01*
X137672996Y-101230054D01*
X137669479Y-101250000D01*
X137670983Y-101258531D01*
X137670983Y-101267188D01*
X137670494Y-101267188D01*
X137670943Y-101281570D01*
X137658838Y-101389007D01*
X137653904Y-101410621D01*
X137611387Y-101532127D01*
X137601769Y-101552100D01*
X137533282Y-101661097D01*
X137519460Y-101678430D01*
X137428430Y-101769460D01*
X137411097Y-101783282D01*
X137302100Y-101851769D01*
X137282127Y-101861387D01*
X137160621Y-101903904D01*
X137139009Y-101908838D01*
X137031567Y-101920943D01*
X137017188Y-101920494D01*
X137017188Y-101920983D01*
X137008531Y-101920983D01*
X137000000Y-101919479D01*
X136991471Y-101920983D01*
X136991470Y-101920983D01*
X136980054Y-101922996D01*
X136962863Y-101924500D01*
X134597797Y-101924500D01*
X134580606Y-101922996D01*
X134569190Y-101920983D01*
X134569189Y-101920983D01*
X134560660Y-101919479D01*
X134552130Y-101920983D01*
X134550683Y-101920983D01*
X134542341Y-101921920D01*
X134483347Y-101924818D01*
X134279860Y-101934814D01*
X134279851Y-101934815D01*
X134277426Y-101934934D01*
X133996919Y-101976544D01*
X133721842Y-102045447D01*
X133719552Y-102046266D01*
X133719550Y-102046267D01*
X133457131Y-102140162D01*
X133457125Y-102140164D01*
X133454843Y-102140981D01*
X133452648Y-102142019D01*
X133452646Y-102142020D01*
X133237655Y-102243703D01*
X133198493Y-102262225D01*
X133196407Y-102263476D01*
X133196402Y-102263478D01*
X133041478Y-102356336D01*
X132955262Y-102408012D01*
X132953315Y-102409456D01*
X132953309Y-102409460D01*
X132729447Y-102575488D01*
X132727492Y-102576938D01*
X132570948Y-102718822D01*
X132530975Y-102755051D01*
X132524407Y-102760293D01*
X132523384Y-102761316D01*
X132516286Y-102766286D01*
X132510510Y-102774536D01*
X132509692Y-102775704D01*
X132495079Y-102792275D01*
X132298839Y-102970136D01*
X132291357Y-102976277D01*
X132055682Y-103151067D01*
X132047616Y-103156456D01*
X131795970Y-103307286D01*
X131787402Y-103311866D01*
X131522183Y-103437305D01*
X131513207Y-103441023D01*
X131236970Y-103539863D01*
X131227673Y-103542683D01*
X130943079Y-103613970D01*
X130933550Y-103615865D01*
X130643352Y-103658912D01*
X130633684Y-103659865D01*
X130521245Y-103665389D01*
X130369156Y-103672861D01*
X130347107Y-103671475D01*
X130335787Y-103669479D01*
X130327258Y-103670983D01*
X130327257Y-103670983D01*
X130315841Y-103672996D01*
X130298650Y-103674500D01*
X129144186Y-103674500D01*
X129085995Y-103655593D01*
X129050031Y-103606093D01*
X129050031Y-103544907D01*
X129083236Y-103497487D01*
X129096927Y-103486791D01*
X129155409Y-103441100D01*
X129224135Y-103387406D01*
X129224139Y-103387402D01*
X129227951Y-103384424D01*
X129362564Y-103228472D01*
X129381231Y-103195613D01*
X129461934Y-103053550D01*
X129461935Y-103053547D01*
X129464323Y-103049344D01*
X129477882Y-103008586D01*
X129527824Y-102858454D01*
X129527824Y-102858452D01*
X129529351Y-102853863D01*
X129531622Y-102835891D01*
X129551532Y-102678282D01*
X129555171Y-102649474D01*
X129555583Y-102620000D01*
X129540928Y-102470537D01*
X129554067Y-102410781D01*
X129569452Y-102390874D01*
X140087033Y-91873293D01*
X140141550Y-91845516D01*
X140169955Y-91845144D01*
X140250000Y-91855682D01*
X140406762Y-91835044D01*
X140552841Y-91774536D01*
X140678282Y-91678282D01*
X140774536Y-91552841D01*
X140835044Y-91406762D01*
X140855682Y-91250000D01*
X140835044Y-91093238D01*
X140827389Y-91074756D01*
X140810589Y-91034199D01*
X140774536Y-90947159D01*
X140678282Y-90821718D01*
X140552841Y-90725464D01*
X140406762Y-90664956D01*
X140250000Y-90644318D01*
X140243566Y-90645165D01*
X140217596Y-90648584D01*
X140211717Y-90649358D01*
X140151556Y-90638208D01*
X140109439Y-90593825D01*
X140100642Y-90538283D01*
X140104835Y-90506434D01*
X140105682Y-90500000D01*
X140104638Y-90492066D01*
X140100189Y-90458274D01*
X140085044Y-90343238D01*
X140077686Y-90325473D01*
X140037057Y-90227388D01*
X140024536Y-90197159D01*
X139928282Y-90071718D01*
X139802841Y-89975464D01*
X139656762Y-89914956D01*
X139500000Y-89894318D01*
X139343238Y-89914956D01*
X139197159Y-89975464D01*
X139071718Y-90071718D01*
X138975464Y-90197159D01*
X138962943Y-90227388D01*
X138922315Y-90325473D01*
X138914956Y-90343238D01*
X138899811Y-90458274D01*
X138895363Y-90492066D01*
X138894318Y-90500000D01*
X138914956Y-90656762D01*
X138975464Y-90802841D01*
X138979415Y-90807990D01*
X139062707Y-90916539D01*
X139083131Y-90974215D01*
X139077911Y-91008627D01*
X139068927Y-91035094D01*
X139063972Y-91047059D01*
X139038025Y-91099674D01*
X138987887Y-91201343D01*
X138981412Y-91212558D01*
X138885838Y-91355593D01*
X138877955Y-91365866D01*
X138836831Y-91412759D01*
X138784730Y-91472169D01*
X138781839Y-91475465D01*
X138764192Y-91491285D01*
X138756703Y-91496529D01*
X138745081Y-91513126D01*
X138733993Y-91526341D01*
X137994576Y-92265758D01*
X137940059Y-92293535D01*
X137879627Y-92283964D01*
X137836362Y-92240699D01*
X137825877Y-92187988D01*
X137827665Y-92165266D01*
X137828860Y-92155866D01*
X137830521Y-92146447D01*
X137827004Y-92126501D01*
X137825500Y-92109310D01*
X137825500Y-91055970D01*
X137844407Y-90997779D01*
X137864233Y-90977428D01*
X137868421Y-90974215D01*
X137928282Y-90928282D01*
X138024536Y-90802841D01*
X138085044Y-90656762D01*
X138105682Y-90500000D01*
X138104638Y-90492066D01*
X138100189Y-90458274D01*
X138085044Y-90343238D01*
X138077686Y-90325473D01*
X138037057Y-90227388D01*
X138024536Y-90197159D01*
X137928282Y-90071718D01*
X137802841Y-89975464D01*
X137656762Y-89914956D01*
X137500000Y-89894318D01*
X137343238Y-89914956D01*
X137197159Y-89975464D01*
X137071718Y-90071718D01*
X136975464Y-90197159D01*
X136962943Y-90227388D01*
X136922315Y-90325473D01*
X136914956Y-90343238D01*
X136899811Y-90458274D01*
X136895363Y-90492066D01*
X136894318Y-90500000D01*
X136914956Y-90656762D01*
X136975464Y-90802841D01*
X137071718Y-90928282D01*
X137131580Y-90974215D01*
X137135767Y-90977428D01*
X137170423Y-91027852D01*
X137174500Y-91055970D01*
X137174500Y-92109310D01*
X137172996Y-92126501D01*
X137169479Y-92146447D01*
X137170983Y-92154975D01*
X137170983Y-92163641D01*
X137170812Y-92163641D01*
X137171369Y-92178238D01*
X137165310Y-92239758D01*
X137161524Y-92258794D01*
X137137134Y-92339196D01*
X137129710Y-92357119D01*
X137094427Y-92423129D01*
X137090104Y-92431217D01*
X137079322Y-92447353D01*
X137040098Y-92495147D01*
X137029384Y-92505073D01*
X137029506Y-92505195D01*
X137023386Y-92511315D01*
X137016287Y-92516286D01*
X137011317Y-92523384D01*
X137004674Y-92532871D01*
X136993582Y-92546091D01*
X135915330Y-93624344D01*
X135028478Y-94511196D01*
X134973961Y-94538973D01*
X134913529Y-94529402D01*
X134870264Y-94486137D01*
X134860321Y-94454115D01*
X134857405Y-94431968D01*
X134868554Y-94371807D01*
X134882568Y-94352161D01*
X135061538Y-94156851D01*
X135061546Y-94156842D01*
X135062997Y-94155258D01*
X135282376Y-93869357D01*
X135476003Y-93565424D01*
X135502263Y-93514980D01*
X135545920Y-93431115D01*
X135642403Y-93245772D01*
X135780311Y-92912833D01*
X135852382Y-92684252D01*
X135888028Y-92571198D01*
X135888029Y-92571193D01*
X135888676Y-92569142D01*
X135917347Y-92439817D01*
X135966205Y-92219435D01*
X135966206Y-92219430D01*
X135966675Y-92217314D01*
X136013713Y-91860027D01*
X136026301Y-91571718D01*
X136028791Y-91514691D01*
X136029018Y-91512619D01*
X136029018Y-91509494D01*
X136029074Y-91508208D01*
X136030521Y-91500000D01*
X136027004Y-91480054D01*
X136025500Y-91462863D01*
X136025500Y-88011401D01*
X136027004Y-87994210D01*
X136029017Y-87982794D01*
X136029017Y-87982793D01*
X136030521Y-87974264D01*
X136029017Y-87965736D01*
X136029017Y-87957070D01*
X136029188Y-87957070D01*
X136028631Y-87942473D01*
X136029966Y-87928917D01*
X136054485Y-87872860D01*
X136107271Y-87841920D01*
X136115561Y-87840468D01*
X136156762Y-87835044D01*
X136302841Y-87774536D01*
X136428282Y-87678282D01*
X136524536Y-87552841D01*
X136585044Y-87406762D01*
X136605682Y-87250000D01*
X136585044Y-87093238D01*
X136524536Y-86947159D01*
X136428282Y-86821718D01*
X136302841Y-86725464D01*
X136156762Y-86664956D01*
X136000000Y-86644318D01*
X135843238Y-86664956D01*
X135737926Y-86708578D01*
X135705638Y-86721952D01*
X135644641Y-86726753D01*
X135592472Y-86694783D01*
X135569057Y-86638256D01*
X135568752Y-86630488D01*
X135568752Y-78816970D01*
X135587659Y-78758779D01*
X135607485Y-78738428D01*
X135666381Y-78693236D01*
X135671534Y-78689282D01*
X135767788Y-78563841D01*
X135828296Y-78417762D01*
X135848934Y-78261000D01*
X135828296Y-78104238D01*
X135767788Y-77958159D01*
X135671534Y-77832718D01*
X135546093Y-77736464D01*
X135400014Y-77675956D01*
X135243252Y-77655318D01*
X135086490Y-77675956D01*
X134940411Y-77736464D01*
X134814970Y-77832718D01*
X134718716Y-77958159D01*
X134658208Y-78104238D01*
X134637570Y-78261000D01*
X134658208Y-78417762D01*
X134718716Y-78563841D01*
X134814970Y-78689282D01*
X134820123Y-78693236D01*
X134879019Y-78738428D01*
X134913675Y-78788852D01*
X134917752Y-78816970D01*
X134917752Y-91219611D01*
X134916248Y-91236802D01*
X134912731Y-91256748D01*
X134914235Y-91265278D01*
X134914548Y-91267053D01*
X134915896Y-91289795D01*
X134902612Y-91526341D01*
X134901135Y-91552635D01*
X134899893Y-91563663D01*
X134873338Y-91719952D01*
X134851183Y-91850347D01*
X134848713Y-91861170D01*
X134768210Y-92140605D01*
X134764544Y-92151081D01*
X134682761Y-92348524D01*
X134653260Y-92419744D01*
X134648446Y-92429740D01*
X134507778Y-92684259D01*
X134501879Y-92693649D01*
X134395250Y-92843928D01*
X134333601Y-92930814D01*
X134326682Y-92939491D01*
X134208142Y-93072138D01*
X134151258Y-93135791D01*
X134134226Y-93150917D01*
X134125655Y-93156918D01*
X134120685Y-93164016D01*
X134120683Y-93164018D01*
X134114038Y-93173508D01*
X134102947Y-93186727D01*
X133412967Y-93876707D01*
X133358450Y-93904484D01*
X133330045Y-93904856D01*
X133250000Y-93894318D01*
X133093238Y-93914956D01*
X132947159Y-93975464D01*
X132821718Y-94071718D01*
X132725464Y-94197159D01*
X132664956Y-94343238D01*
X132644318Y-94500000D01*
X132664956Y-94656762D01*
X132725464Y-94802841D01*
X132821718Y-94928282D01*
X132947159Y-95024536D01*
X133093238Y-95085044D01*
X133250000Y-95105682D01*
X133406762Y-95085044D01*
X133552841Y-95024536D01*
X133678282Y-94928282D01*
X133681297Y-94924352D01*
X133735234Y-94896871D01*
X133795666Y-94906442D01*
X133825264Y-94931059D01*
X133825479Y-94930844D01*
X133827821Y-94933186D01*
X133829263Y-94934385D01*
X133834017Y-94940581D01*
X133959458Y-95036835D01*
X134065251Y-95080656D01*
X134085304Y-95088962D01*
X134105537Y-95097343D01*
X134162445Y-95104835D01*
X134204114Y-95110321D01*
X134259339Y-95136662D01*
X134288534Y-95190433D01*
X134280548Y-95251095D01*
X134261196Y-95278478D01*
X133326428Y-96213246D01*
X133313208Y-96224338D01*
X133296617Y-96235955D01*
X133291651Y-96243047D01*
X133291649Y-96243049D01*
X133291372Y-96243445D01*
X133275556Y-96261088D01*
X133158978Y-96363325D01*
X133148721Y-96371195D01*
X133063284Y-96428282D01*
X132997972Y-96471922D01*
X132986758Y-96478396D01*
X132824168Y-96558577D01*
X132812210Y-96563531D01*
X132799816Y-96567738D01*
X132738638Y-96568539D01*
X132688671Y-96533227D01*
X132669002Y-96475289D01*
X132689452Y-96413725D01*
X132770585Y-96307990D01*
X132774536Y-96302841D01*
X132835044Y-96156762D01*
X132855682Y-96000000D01*
X132835044Y-95843238D01*
X132774536Y-95697159D01*
X132678282Y-95571718D01*
X132552841Y-95475464D01*
X132406762Y-95414956D01*
X132250000Y-95394318D01*
X132093238Y-95414956D01*
X131947159Y-95475464D01*
X131942010Y-95479415D01*
X131834905Y-95561599D01*
X131777229Y-95582023D01*
X131736753Y-95574521D01*
X131683415Y-95552428D01*
X131610486Y-95522219D01*
X131596645Y-95515166D01*
X131419344Y-95406516D01*
X131406776Y-95397385D01*
X131248651Y-95262334D01*
X131237666Y-95251349D01*
X131102615Y-95093224D01*
X131093484Y-95080656D01*
X130984834Y-94903355D01*
X130977781Y-94889514D01*
X130898202Y-94697395D01*
X130893401Y-94682620D01*
X130874138Y-94602380D01*
X130856617Y-94529402D01*
X130844857Y-94480416D01*
X130842427Y-94465073D01*
X130828037Y-94282246D01*
X130829017Y-94261858D01*
X130829017Y-94258528D01*
X130830521Y-94250000D01*
X130827004Y-94230054D01*
X130825500Y-94212863D01*
X130825500Y-88537137D01*
X130827004Y-88519946D01*
X130827687Y-88516070D01*
X130830521Y-88500000D01*
X130829526Y-88494356D01*
X130828617Y-88482806D01*
X130812424Y-88277045D01*
X130812423Y-88277040D01*
X130812119Y-88273175D01*
X130772820Y-88109483D01*
X130759911Y-88055712D01*
X130759910Y-88055709D01*
X130759004Y-88051935D01*
X130671933Y-87841727D01*
X130553051Y-87647729D01*
X130405284Y-87474716D01*
X130232271Y-87326949D01*
X130038273Y-87208067D01*
X129828065Y-87120996D01*
X129824291Y-87120090D01*
X129824288Y-87120089D01*
X129655784Y-87079635D01*
X129606825Y-87067881D01*
X129583358Y-87066034D01*
X129568075Y-87064831D01*
X129511547Y-87041416D01*
X129481069Y-86994751D01*
X129477336Y-86982387D01*
X129477333Y-86982381D01*
X129475935Y-86977749D01*
X129379218Y-86795849D01*
X129249011Y-86636200D01*
X129245282Y-86633115D01*
X129094006Y-86507968D01*
X129094002Y-86507966D01*
X129090275Y-86504882D01*
X129090451Y-86504669D01*
X129054270Y-86458360D01*
X129052135Y-86397212D01*
X129086349Y-86346487D01*
X129147300Y-86325500D01*
X130687363Y-86325500D01*
X130704554Y-86327004D01*
X130715970Y-86329017D01*
X130715971Y-86329017D01*
X130724500Y-86330521D01*
X130733030Y-86329017D01*
X130733797Y-86329017D01*
X130756961Y-86327822D01*
X130865880Y-86335612D01*
X130960705Y-86342393D01*
X130974681Y-86344404D01*
X131199148Y-86393234D01*
X131212695Y-86397211D01*
X131281827Y-86422996D01*
X131427940Y-86477494D01*
X131440780Y-86483357D01*
X131642417Y-86593459D01*
X131654285Y-86601086D01*
X131797876Y-86708578D01*
X131838185Y-86738753D01*
X131848860Y-86748002D01*
X132011304Y-86910446D01*
X132020553Y-86921121D01*
X132150683Y-87094952D01*
X132158218Y-87105018D01*
X132165847Y-87116889D01*
X132275949Y-87318526D01*
X132281812Y-87331366D01*
X132348021Y-87508879D01*
X132350641Y-87570008D01*
X132329852Y-87605625D01*
X132331024Y-87606524D01*
X132234770Y-87731965D01*
X132174262Y-87878044D01*
X132153624Y-88034806D01*
X132174262Y-88191568D01*
X132234770Y-88337647D01*
X132331024Y-88463088D01*
X132390246Y-88508530D01*
X132395073Y-88512234D01*
X132429729Y-88562658D01*
X132433806Y-88590776D01*
X132433806Y-91472169D01*
X132432302Y-91489360D01*
X132428785Y-91509306D01*
X132430560Y-91519370D01*
X132431584Y-91526836D01*
X132445616Y-91669308D01*
X132447028Y-91673962D01*
X132447028Y-91673963D01*
X132489984Y-91815568D01*
X132492287Y-91823161D01*
X132494581Y-91827452D01*
X132494581Y-91827453D01*
X132499091Y-91835891D01*
X132568076Y-91964953D01*
X132571158Y-91968708D01*
X132571159Y-91968710D01*
X132635455Y-92047055D01*
X132657080Y-92096938D01*
X132664956Y-92156762D01*
X132725464Y-92302841D01*
X132821718Y-92428282D01*
X132947159Y-92524536D01*
X133093238Y-92585044D01*
X133250000Y-92605682D01*
X133406762Y-92585044D01*
X133552841Y-92524536D01*
X133678282Y-92428282D01*
X133774536Y-92302841D01*
X133835044Y-92156762D01*
X133855682Y-92000000D01*
X133853990Y-91987144D01*
X133838288Y-91867879D01*
X133835044Y-91843238D01*
X133774536Y-91697159D01*
X133678282Y-91571718D01*
X133552841Y-91475464D01*
X133406762Y-91414956D01*
X133274352Y-91397524D01*
X133256434Y-91395165D01*
X133250000Y-91394318D01*
X133243566Y-91395165D01*
X133243565Y-91395165D01*
X133196727Y-91401331D01*
X133136567Y-91390181D01*
X133094450Y-91345798D01*
X133084806Y-91303178D01*
X133084806Y-88590776D01*
X133103713Y-88532585D01*
X133123539Y-88512234D01*
X133128367Y-88508530D01*
X133187588Y-88463088D01*
X133283842Y-88337647D01*
X133344350Y-88191568D01*
X133364988Y-88034806D01*
X133344350Y-87878044D01*
X133283842Y-87731965D01*
X133187588Y-87606524D01*
X133062147Y-87510270D01*
X133059744Y-87509275D01*
X133019902Y-87465027D01*
X133015826Y-87454212D01*
X132981246Y-87343238D01*
X132935458Y-87196300D01*
X132933528Y-87192010D01*
X132834950Y-86972981D01*
X132818267Y-86935912D01*
X132784704Y-86880392D01*
X132672090Y-86694106D01*
X132672088Y-86694103D01*
X132670544Y-86691549D01*
X132634205Y-86645165D01*
X132526717Y-86507968D01*
X132494443Y-86466773D01*
X132292533Y-86264863D01*
X132162207Y-86162759D01*
X132070111Y-86090606D01*
X132070108Y-86090604D01*
X132067757Y-86088762D01*
X131931571Y-86006434D01*
X131825955Y-85942587D01*
X131825953Y-85942586D01*
X131823394Y-85941039D01*
X131650036Y-85863017D01*
X131604732Y-85821893D01*
X131592252Y-85761994D01*
X131617363Y-85706199D01*
X131663260Y-85677608D01*
X131684402Y-85671517D01*
X131684403Y-85671517D01*
X131687071Y-85670748D01*
X131981020Y-85548991D01*
X131983452Y-85547647D01*
X131983460Y-85547643D01*
X132257055Y-85396431D01*
X132259487Y-85395087D01*
X132261746Y-85393484D01*
X132261751Y-85393481D01*
X132516705Y-85212582D01*
X132516710Y-85212578D01*
X132518972Y-85210973D01*
X132756211Y-84998963D01*
X132968221Y-84761724D01*
X132992288Y-84727806D01*
X133150729Y-84504503D01*
X133150732Y-84504498D01*
X133152335Y-84502239D01*
X133181865Y-84448809D01*
X133304891Y-84226212D01*
X133304895Y-84226204D01*
X133306239Y-84223772D01*
X133427996Y-83929823D01*
X133428809Y-83927004D01*
X133515307Y-83626760D01*
X133516076Y-83624091D01*
X133520169Y-83600000D01*
X133568904Y-83313169D01*
X133568904Y-83313165D01*
X133569371Y-83310419D01*
X133586950Y-82997395D01*
X133587769Y-82992752D01*
X133584252Y-82972806D01*
X133582748Y-82955615D01*
X133582748Y-82305970D01*
X133601655Y-82247779D01*
X133621481Y-82227428D01*
X133630672Y-82220376D01*
X133685530Y-82178282D01*
X133781784Y-82052841D01*
X133842292Y-81906762D01*
X133862930Y-81750000D01*
X133842292Y-81593238D01*
X133781784Y-81447159D01*
X133685530Y-81321718D01*
X133560089Y-81225464D01*
X133414010Y-81164956D01*
X133257248Y-81144318D01*
X133100486Y-81164956D01*
X133094489Y-81167440D01*
X133088685Y-81169844D01*
X133027688Y-81174643D01*
X132975519Y-81142673D01*
X132952106Y-81086144D01*
X132966390Y-81026652D01*
X132989799Y-80988452D01*
X132998930Y-80975883D01*
X133062715Y-80901201D01*
X133077808Y-80887492D01*
X133080169Y-80885131D01*
X133087268Y-80880160D01*
X133098885Y-80863569D01*
X133109977Y-80850349D01*
X133337033Y-80623293D01*
X133391550Y-80595516D01*
X133419955Y-80595144D01*
X133500000Y-80605682D01*
X133656762Y-80585044D01*
X133802841Y-80524536D01*
X133928282Y-80428282D01*
X134024536Y-80302841D01*
X134085044Y-80156762D01*
X134105682Y-80000000D01*
X134085044Y-79843238D01*
X134024536Y-79697159D01*
X133928282Y-79571718D01*
X133802841Y-79475464D01*
X133656762Y-79414956D01*
X133500000Y-79394318D01*
X133343238Y-79414956D01*
X133197159Y-79475464D01*
X133071718Y-79571718D01*
X132975464Y-79697159D01*
X132914956Y-79843238D01*
X132894318Y-80000000D01*
X132904856Y-80080042D01*
X132893706Y-80140201D01*
X132876707Y-80162967D01*
X132649651Y-80390023D01*
X132636431Y-80401115D01*
X132619840Y-80412732D01*
X132614872Y-80419827D01*
X132613821Y-80421327D01*
X132607159Y-80429815D01*
X132488600Y-80565006D01*
X132376984Y-80732052D01*
X132288126Y-80912238D01*
X132223547Y-81102481D01*
X132184352Y-81299525D01*
X132184141Y-81302749D01*
X132184140Y-81302754D01*
X132172590Y-81478966D01*
X132171299Y-81489674D01*
X132169479Y-81499999D01*
X132170983Y-81508528D01*
X132170983Y-81508529D01*
X132172996Y-81519945D01*
X132174500Y-81537136D01*
X132174500Y-83212863D01*
X132172996Y-83230054D01*
X132169479Y-83250000D01*
X132170983Y-83258528D01*
X132170983Y-83261858D01*
X132171963Y-83282243D01*
X132169529Y-83313169D01*
X132157573Y-83465073D01*
X132155143Y-83480416D01*
X132146870Y-83514878D01*
X132117811Y-83635919D01*
X132106599Y-83682620D01*
X132101798Y-83697395D01*
X132022219Y-83889514D01*
X132015166Y-83903355D01*
X131906516Y-84080656D01*
X131897385Y-84093224D01*
X131762334Y-84251349D01*
X131751349Y-84262334D01*
X131593224Y-84397385D01*
X131580656Y-84406516D01*
X131403355Y-84515166D01*
X131389514Y-84522219D01*
X131304624Y-84557382D01*
X131197391Y-84601799D01*
X131182625Y-84606597D01*
X131081518Y-84630871D01*
X130980416Y-84655143D01*
X130965073Y-84657573D01*
X130872828Y-84664833D01*
X130782243Y-84671963D01*
X130761858Y-84670983D01*
X130758528Y-84670983D01*
X130750000Y-84669479D01*
X130741471Y-84670983D01*
X130741470Y-84670983D01*
X130730054Y-84672996D01*
X130712863Y-84674500D01*
X125451350Y-84674500D01*
X125434159Y-84672996D01*
X125422743Y-84670983D01*
X125422742Y-84670983D01*
X125414213Y-84669479D01*
X125405684Y-84670983D01*
X125403283Y-84670983D01*
X125396738Y-84671700D01*
X125164940Y-84681820D01*
X125087965Y-84685181D01*
X124979757Y-84699427D01*
X124766338Y-84727524D01*
X124766326Y-84727526D01*
X124764200Y-84727806D01*
X124512883Y-84783521D01*
X124447497Y-84798017D01*
X124447494Y-84798018D01*
X124445382Y-84798486D01*
X124133937Y-84896685D01*
X123832236Y-85021653D01*
X123542575Y-85172441D01*
X123267158Y-85347901D01*
X123008082Y-85546698D01*
X123006502Y-85548146D01*
X122780212Y-85755502D01*
X122775075Y-85759624D01*
X122773381Y-85761318D01*
X122766286Y-85766286D01*
X122755049Y-85782335D01*
X122754671Y-85782874D01*
X122743579Y-85796094D01*
X121722872Y-86816803D01*
X121709652Y-86827895D01*
X121693064Y-86839510D01*
X121682975Y-86853918D01*
X121677166Y-86861421D01*
X121660963Y-86880392D01*
X121608793Y-86912361D01*
X121600368Y-86913923D01*
X121599676Y-86914108D01*
X121593238Y-86914956D01*
X121447159Y-86975464D01*
X121321718Y-87071718D01*
X121225464Y-87197159D01*
X121164956Y-87343238D01*
X121144318Y-87500000D01*
X121164956Y-87656762D01*
X121225464Y-87802841D01*
X121270197Y-87861139D01*
X121290620Y-87918811D01*
X121273243Y-87977477D01*
X121226251Y-88014161D01*
X121188151Y-88028372D01*
X121093562Y-88063652D01*
X121090462Y-88065345D01*
X121090457Y-88065347D01*
X121010982Y-88108744D01*
X120895825Y-88171624D01*
X120892996Y-88173742D01*
X120892991Y-88173745D01*
X120799606Y-88243653D01*
X120715467Y-88306639D01*
X120672235Y-88349871D01*
X120617718Y-88377648D01*
X120591884Y-88378325D01*
X120512187Y-88369949D01*
X120512183Y-88369949D01*
X120507369Y-88369443D01*
X120447354Y-88374905D01*
X120307022Y-88387675D01*
X120307017Y-88387676D01*
X120302203Y-88388114D01*
X120104572Y-88446280D01*
X120100288Y-88448519D01*
X120100287Y-88448520D01*
X120072356Y-88463122D01*
X119922002Y-88541726D01*
X119918231Y-88544758D01*
X119765220Y-88667781D01*
X119765217Y-88667783D01*
X119761447Y-88670815D01*
X119758333Y-88674526D01*
X119758332Y-88674527D01*
X119648286Y-88805675D01*
X119629024Y-88828630D01*
X119626690Y-88832876D01*
X119626685Y-88832883D01*
X119543753Y-88983737D01*
X119499151Y-89025622D01*
X119438448Y-89033290D01*
X119384831Y-89003814D01*
X119358780Y-88948452D01*
X119357999Y-88936044D01*
X119357999Y-88777208D01*
X119357733Y-88772078D01*
X119347591Y-88674327D01*
X119345318Y-88663800D01*
X119292914Y-88506723D01*
X119288067Y-88496376D01*
X119201109Y-88355855D01*
X119194013Y-88346902D01*
X119077061Y-88230153D01*
X119068096Y-88223073D01*
X118927420Y-88136359D01*
X118917066Y-88131531D01*
X118759890Y-88079398D01*
X118749379Y-88077145D01*
X118652888Y-88067259D01*
X118647830Y-88067000D01*
X118269680Y-88067000D01*
X118256995Y-88071122D01*
X118254000Y-88075243D01*
X118254000Y-89655000D01*
X118235093Y-89713191D01*
X118185593Y-89749155D01*
X118155000Y-89754000D01*
X116657681Y-89754000D01*
X116644996Y-89758122D01*
X116642001Y-89762243D01*
X116642001Y-90222792D01*
X116642267Y-90227922D01*
X116652409Y-90325673D01*
X116654682Y-90336200D01*
X116707086Y-90493277D01*
X116711933Y-90503624D01*
X116798891Y-90644145D01*
X116805987Y-90653098D01*
X116922939Y-90769847D01*
X116936420Y-90780494D01*
X116934822Y-90782517D01*
X116967671Y-90821205D01*
X116972294Y-90882215D01*
X116940174Y-90934291D01*
X116927826Y-90943235D01*
X116792476Y-91026177D01*
X116789516Y-91028705D01*
X116774839Y-91041240D01*
X116648847Y-91148847D01*
X116526177Y-91292476D01*
X116481495Y-91365391D01*
X116433023Y-91444490D01*
X116427485Y-91453527D01*
X116425998Y-91457118D01*
X116425995Y-91457123D01*
X116398676Y-91523079D01*
X116355203Y-91628033D01*
X116311109Y-91811698D01*
X116310805Y-91815563D01*
X116310804Y-91815568D01*
X116297690Y-91982194D01*
X116296756Y-91988249D01*
X116296766Y-91988250D01*
X116296125Y-91993818D01*
X116294858Y-91999284D01*
X116294857Y-92000000D01*
X116296100Y-92005449D01*
X116297521Y-92011679D01*
X116300000Y-92033696D01*
X116300000Y-107465778D01*
X116297443Y-107488130D01*
X116294858Y-107499284D01*
X116294857Y-107500000D01*
X116296098Y-107505443D01*
X116296702Y-107510840D01*
X116297610Y-107516788D01*
X116309316Y-107665518D01*
X116311109Y-107688302D01*
X116355203Y-107871967D01*
X116365873Y-107897726D01*
X116425995Y-108042877D01*
X116425998Y-108042882D01*
X116427485Y-108046473D01*
X116429517Y-108049788D01*
X116429519Y-108049793D01*
X116475044Y-108124083D01*
X116526177Y-108207524D01*
X116648847Y-108351153D01*
X116651814Y-108353687D01*
X116737568Y-108426927D01*
X116792476Y-108473823D01*
X116842140Y-108504257D01*
X116950207Y-108570481D01*
X116950212Y-108570483D01*
X116953527Y-108572515D01*
X116957118Y-108574002D01*
X116957123Y-108574005D01*
X117024317Y-108601837D01*
X117128033Y-108644797D01*
X117311698Y-108688891D01*
X117315563Y-108689195D01*
X117315568Y-108689196D01*
X117482194Y-108702310D01*
X117488249Y-108703244D01*
X117488250Y-108703234D01*
X117493818Y-108703875D01*
X117499284Y-108705142D01*
X117500000Y-108705143D01*
X117511678Y-108702479D01*
X117533696Y-108700000D01*
X121465778Y-108700000D01*
X121488130Y-108702557D01*
X121499284Y-108705142D01*
X121500000Y-108705143D01*
X121505443Y-108703902D01*
X121510840Y-108703298D01*
X121516787Y-108702390D01*
X121545796Y-108700107D01*
X121684432Y-108689196D01*
X121684437Y-108689195D01*
X121688302Y-108688891D01*
X121871967Y-108644797D01*
X121975683Y-108601837D01*
X122042877Y-108574005D01*
X122042882Y-108574002D01*
X122046473Y-108572515D01*
X122049788Y-108570483D01*
X122049793Y-108570481D01*
X122157860Y-108504257D01*
X122207524Y-108473823D01*
X122243308Y-108443261D01*
X122287092Y-108405866D01*
X122343620Y-108382451D01*
X122403115Y-108396735D01*
X122442851Y-108443261D01*
X122447652Y-108504257D01*
X122435800Y-108532870D01*
X122407606Y-108578878D01*
X122406516Y-108580657D01*
X122397385Y-108593224D01*
X122262334Y-108751349D01*
X122251349Y-108762334D01*
X122093224Y-108897385D01*
X122080656Y-108906516D01*
X121903355Y-109015166D01*
X121889514Y-109022219D01*
X121861821Y-109033690D01*
X121697391Y-109101799D01*
X121682625Y-109106597D01*
X121581518Y-109130871D01*
X121480416Y-109155143D01*
X121465073Y-109157573D01*
X121372828Y-109164833D01*
X121282243Y-109171963D01*
X121261858Y-109170983D01*
X121258528Y-109170983D01*
X121250000Y-109169479D01*
X121241471Y-109170983D01*
X121241470Y-109170983D01*
X121230054Y-109172996D01*
X121212863Y-109174500D01*
X120287137Y-109174500D01*
X120269946Y-109172996D01*
X120258530Y-109170983D01*
X120258529Y-109170983D01*
X120250000Y-109169479D01*
X120241470Y-109170983D01*
X120240623Y-109170983D01*
X120235423Y-109171667D01*
X120062528Y-109186794D01*
X119880752Y-109235500D01*
X119710196Y-109315032D01*
X119556041Y-109422972D01*
X119422972Y-109556041D01*
X119420493Y-109559582D01*
X119336223Y-109679932D01*
X119292523Y-109711357D01*
X119293767Y-109714280D01*
X119214443Y-109748033D01*
X119138098Y-109780518D01*
X119001842Y-109880791D01*
X118998119Y-109885173D01*
X118998117Y-109885175D01*
X118943203Y-109949813D01*
X118891118Y-109981919D01*
X118830109Y-109977278D01*
X118792518Y-109949741D01*
X118790367Y-109946460D01*
X118667550Y-109830115D01*
X118521262Y-109745144D01*
X118426797Y-109716533D01*
X118364855Y-109697772D01*
X118364852Y-109697772D01*
X118359350Y-109696105D01*
X118235369Y-109688414D01*
X118196239Y-109685986D01*
X118196238Y-109685986D01*
X118190499Y-109685630D01*
X118023767Y-109714280D01*
X118018472Y-109716533D01*
X117944443Y-109748033D01*
X117868098Y-109780518D01*
X117731842Y-109880791D01*
X117728119Y-109885173D01*
X117728117Y-109885175D01*
X117645927Y-109981919D01*
X117622308Y-110009720D01*
X117545373Y-110160389D01*
X117544006Y-110165974D01*
X117544006Y-110165975D01*
X117508955Y-110309218D01*
X117505162Y-110324717D01*
X117504500Y-110335388D01*
X117504500Y-110907363D01*
X117519152Y-111033037D01*
X117521114Y-111038443D01*
X117521115Y-111038446D01*
X117524407Y-111047515D01*
X117576875Y-111192061D01*
X117580028Y-111196870D01*
X117580030Y-111196874D01*
X117582441Y-111200551D01*
X117669633Y-111333540D01*
X117792450Y-111449885D01*
X117858788Y-111488417D01*
X117909173Y-111517683D01*
X117938738Y-111534856D01*
X118019694Y-111559376D01*
X118095145Y-111582228D01*
X118095148Y-111582228D01*
X118100650Y-111583895D01*
X118224631Y-111591586D01*
X118263761Y-111594014D01*
X118263762Y-111594014D01*
X118269501Y-111594370D01*
X118436233Y-111565720D01*
X118515048Y-111532184D01*
X118586612Y-111501733D01*
X118586613Y-111501733D01*
X118591902Y-111499482D01*
X118728158Y-111399209D01*
X118786797Y-111330187D01*
X118838882Y-111298081D01*
X118899891Y-111302722D01*
X118937482Y-111330259D01*
X118939633Y-111333540D01*
X119062450Y-111449885D01*
X119128788Y-111488417D01*
X119179173Y-111517683D01*
X119208738Y-111534856D01*
X119289694Y-111559376D01*
X119365145Y-111582228D01*
X119365148Y-111582228D01*
X119370650Y-111583895D01*
X119494631Y-111591586D01*
X119533761Y-111594014D01*
X119533762Y-111594014D01*
X119539501Y-111594370D01*
X119598390Y-111584251D01*
X119683834Y-111569569D01*
X119744387Y-111578349D01*
X119788214Y-111621043D01*
X119791326Y-111627983D01*
X119799059Y-111642108D01*
X119877863Y-111747256D01*
X119887744Y-111757137D01*
X119992892Y-111835941D01*
X120005145Y-111842649D01*
X120128978Y-111889072D01*
X120140967Y-111891923D01*
X120194252Y-111897711D01*
X120199586Y-111898000D01*
X120500320Y-111898000D01*
X120513005Y-111893878D01*
X120516000Y-111889757D01*
X120516000Y-111882319D01*
X121024000Y-111882319D01*
X121028122Y-111895004D01*
X121032243Y-111897999D01*
X121340411Y-111897999D01*
X121345751Y-111897710D01*
X121399035Y-111891922D01*
X121411020Y-111889073D01*
X121534855Y-111842649D01*
X121547108Y-111835941D01*
X121652256Y-111757137D01*
X121662137Y-111747256D01*
X121740941Y-111642108D01*
X121747649Y-111629855D01*
X121794072Y-111506022D01*
X121796923Y-111494033D01*
X121802711Y-111440748D01*
X121803000Y-111435414D01*
X121803000Y-110909680D01*
X121798878Y-110896995D01*
X121794757Y-110894000D01*
X121039680Y-110894000D01*
X121026995Y-110898122D01*
X121024000Y-110902243D01*
X121024000Y-111882319D01*
X120516000Y-111882319D01*
X120516000Y-110485000D01*
X120534907Y-110426809D01*
X120584407Y-110390845D01*
X120615000Y-110386000D01*
X121787319Y-110386000D01*
X121800004Y-110381878D01*
X121802999Y-110377757D01*
X121802999Y-109844589D01*
X121802710Y-109839262D01*
X121802372Y-109836147D01*
X121814883Y-109776254D01*
X121860208Y-109735153D01*
X121868960Y-109731710D01*
X122045964Y-109671626D01*
X122273167Y-109559582D01*
X122287064Y-109552729D01*
X122287070Y-109552726D01*
X122289977Y-109551292D01*
X122477451Y-109426026D01*
X122513491Y-109401945D01*
X122513493Y-109401943D01*
X122516195Y-109400138D01*
X122518634Y-109397999D01*
X122518638Y-109397996D01*
X122718302Y-109222895D01*
X122720749Y-109220749D01*
X122750527Y-109186794D01*
X122897996Y-109018638D01*
X122897999Y-109018634D01*
X122900138Y-109016195D01*
X123051292Y-108789977D01*
X123067420Y-108757274D01*
X123153362Y-108582999D01*
X123171626Y-108545964D01*
X123256865Y-108294857D01*
X123258036Y-108291407D01*
X123258037Y-108291405D01*
X123259080Y-108288331D01*
X123312159Y-108021488D01*
X123313899Y-107994949D01*
X123321959Y-107871967D01*
X123329617Y-107755127D01*
X123330521Y-107750000D01*
X123327004Y-107730054D01*
X123325500Y-107712863D01*
X123325500Y-92494243D01*
X123327004Y-92477052D01*
X123329017Y-92465636D01*
X123329017Y-92465635D01*
X123330521Y-92457106D01*
X123329017Y-92448578D01*
X123329017Y-92448571D01*
X123328872Y-92447749D01*
X123327524Y-92436111D01*
X123321647Y-92331462D01*
X123315902Y-92229168D01*
X123314249Y-92219435D01*
X123278127Y-92006838D01*
X123278127Y-92006836D01*
X123277661Y-92004096D01*
X123239632Y-91872095D01*
X123215230Y-91787393D01*
X123215229Y-91787390D01*
X123214460Y-91784721D01*
X123166654Y-91669308D01*
X123128159Y-91576372D01*
X123128156Y-91576365D01*
X123127094Y-91573802D01*
X123016663Y-91373990D01*
X122943755Y-91271236D01*
X122886157Y-91190060D01*
X122886153Y-91190055D01*
X122884553Y-91187800D01*
X122882711Y-91185739D01*
X122882700Y-91185725D01*
X122746440Y-91033251D01*
X122739159Y-91024063D01*
X122738683Y-91023383D01*
X122733714Y-91016286D01*
X122717126Y-91004671D01*
X122703906Y-90993579D01*
X122346846Y-90636519D01*
X122319069Y-90582002D01*
X122328640Y-90521570D01*
X122371905Y-90478305D01*
X122432337Y-90468734D01*
X122463936Y-90479430D01*
X122590945Y-90548103D01*
X122654145Y-90567667D01*
X122783125Y-90607593D01*
X122783129Y-90607594D01*
X122787746Y-90609023D01*
X122792554Y-90609528D01*
X122792557Y-90609529D01*
X122987815Y-90630051D01*
X122987817Y-90630051D01*
X122992631Y-90630557D01*
X123052646Y-90625095D01*
X123192978Y-90612325D01*
X123192983Y-90612324D01*
X123197797Y-90611886D01*
X123395428Y-90553720D01*
X123406173Y-90548103D01*
X123513360Y-90492066D01*
X123577998Y-90458274D01*
X123721075Y-90343238D01*
X123734780Y-90332219D01*
X123734783Y-90332217D01*
X123738553Y-90329185D01*
X123743303Y-90323524D01*
X123867859Y-90175085D01*
X123867860Y-90175083D01*
X123870976Y-90171370D01*
X123877694Y-90159151D01*
X123967889Y-89995085D01*
X123970224Y-89990838D01*
X123977520Y-89967840D01*
X124031052Y-89799083D01*
X124032516Y-89794468D01*
X124034136Y-89780030D01*
X124050191Y-89636892D01*
X124050191Y-89636890D01*
X124050500Y-89634136D01*
X124050500Y-89373159D01*
X124041346Y-89279798D01*
X124035952Y-89224780D01*
X124035951Y-89224776D01*
X124035480Y-89219970D01*
X124018955Y-89165235D01*
X124000125Y-89102869D01*
X123975935Y-89022749D01*
X123879218Y-88840849D01*
X123749011Y-88681200D01*
X123732790Y-88667781D01*
X123594002Y-88552965D01*
X123594000Y-88552964D01*
X123590275Y-88549882D01*
X123429815Y-88463122D01*
X123413309Y-88454197D01*
X123413308Y-88454197D01*
X123409055Y-88451897D01*
X123276806Y-88410959D01*
X123216875Y-88392407D01*
X123216871Y-88392406D01*
X123212254Y-88390977D01*
X123207446Y-88390472D01*
X123207443Y-88390471D01*
X123012185Y-88369949D01*
X123012183Y-88369949D01*
X123007369Y-88369443D01*
X122947354Y-88374905D01*
X122807022Y-88387675D01*
X122807017Y-88387676D01*
X122802203Y-88388114D01*
X122604572Y-88446280D01*
X122593828Y-88451897D01*
X122591875Y-88452918D01*
X122531547Y-88463122D01*
X122476742Y-88435918D01*
X122448395Y-88381695D01*
X122457332Y-88321166D01*
X122476004Y-88295180D01*
X122576916Y-88194268D01*
X122660259Y-88075243D01*
X122682423Y-88043590D01*
X122682424Y-88043588D01*
X122684905Y-88040045D01*
X122764472Y-87869413D01*
X122813201Y-87687556D01*
X122820369Y-87605625D01*
X122828337Y-87514559D01*
X122829017Y-87509389D01*
X122829017Y-87508532D01*
X122830521Y-87500001D01*
X122829017Y-87491472D01*
X122829017Y-87482809D01*
X122829946Y-87482809D01*
X122829635Y-87468589D01*
X122838263Y-87403054D01*
X122844952Y-87378090D01*
X122877385Y-87299790D01*
X122890303Y-87277414D01*
X122941905Y-87210165D01*
X122960165Y-87191905D01*
X123027414Y-87140303D01*
X123049790Y-87127385D01*
X123128090Y-87094952D01*
X123153053Y-87088263D01*
X123175039Y-87085368D01*
X123218588Y-87079635D01*
X123232807Y-87079946D01*
X123232807Y-87079017D01*
X123241471Y-87079017D01*
X123250000Y-87080521D01*
X123258529Y-87079017D01*
X123258530Y-87079017D01*
X123269946Y-87077004D01*
X123287137Y-87075500D01*
X124609310Y-87075500D01*
X124626501Y-87077004D01*
X124637917Y-87079017D01*
X124637918Y-87079017D01*
X124646447Y-87080521D01*
X124655866Y-87078860D01*
X124665256Y-87077666D01*
X124754895Y-87070611D01*
X124827591Y-87064890D01*
X124827595Y-87064889D01*
X124831462Y-87064585D01*
X124852597Y-87059511D01*
X125008144Y-87022168D01*
X125008147Y-87022167D01*
X125011921Y-87021261D01*
X125183381Y-86950239D01*
X125341620Y-86853270D01*
X125468379Y-86745007D01*
X125475890Y-86739192D01*
X125476617Y-86738683D01*
X125483714Y-86733714D01*
X125488958Y-86726225D01*
X125504773Y-86708582D01*
X125611169Y-86615275D01*
X125621426Y-86607405D01*
X125760913Y-86514203D01*
X125772118Y-86507734D01*
X125915971Y-86436794D01*
X125922572Y-86433539D01*
X125934535Y-86428584D01*
X126016441Y-86400780D01*
X126093378Y-86374663D01*
X126105878Y-86371313D01*
X126270416Y-86338585D01*
X126283241Y-86336897D01*
X126403459Y-86329017D01*
X126424438Y-86327642D01*
X126448105Y-86328934D01*
X126448576Y-86329017D01*
X126448577Y-86329017D01*
X126457106Y-86330521D01*
X126465635Y-86329017D01*
X126465636Y-86329017D01*
X126477052Y-86327004D01*
X126494243Y-86325500D01*
X127853838Y-86325500D01*
X127912029Y-86344407D01*
X127947993Y-86393907D01*
X127947993Y-86455093D01*
X127915873Y-86501654D01*
X127846894Y-86557114D01*
X127765220Y-86622781D01*
X127765217Y-86622783D01*
X127761447Y-86625815D01*
X127758333Y-86629526D01*
X127758332Y-86629527D01*
X127658920Y-86748002D01*
X127629024Y-86783630D01*
X127626689Y-86787878D01*
X127626688Y-86787879D01*
X127619955Y-86800126D01*
X127529776Y-86964162D01*
X127526822Y-86973476D01*
X127519683Y-86995980D01*
X127484065Y-87045730D01*
X127433085Y-87064740D01*
X127425242Y-87065357D01*
X127393175Y-87067881D01*
X127344216Y-87079635D01*
X127175712Y-87120089D01*
X127175709Y-87120090D01*
X127171935Y-87120996D01*
X126961727Y-87208067D01*
X126767729Y-87326949D01*
X126594716Y-87474716D01*
X126446949Y-87647729D01*
X126328067Y-87841727D01*
X126240996Y-88051935D01*
X126240090Y-88055709D01*
X126240089Y-88055712D01*
X126227180Y-88109483D01*
X126187881Y-88273175D01*
X126187577Y-88277040D01*
X126187576Y-88277045D01*
X126171383Y-88482806D01*
X126170474Y-88494356D01*
X126169479Y-88500000D01*
X126172313Y-88516070D01*
X126172996Y-88519946D01*
X126174500Y-88537137D01*
X126174500Y-91271236D01*
X126155593Y-91329427D01*
X126106093Y-91365391D01*
X126044907Y-91365391D01*
X125994404Y-91328020D01*
X125991968Y-91324540D01*
X125944499Y-91256748D01*
X125925244Y-91229248D01*
X125925242Y-91229246D01*
X125922765Y-91225708D01*
X125774292Y-91077235D01*
X125631752Y-90977428D01*
X125605837Y-90959282D01*
X125605835Y-90959281D01*
X125602292Y-90956800D01*
X125411992Y-90868061D01*
X125329001Y-90845824D01*
X125213351Y-90814835D01*
X125213349Y-90814835D01*
X125209174Y-90813716D01*
X125000000Y-90795416D01*
X124790826Y-90813716D01*
X124786651Y-90814835D01*
X124786649Y-90814835D01*
X124670999Y-90845824D01*
X124588008Y-90868061D01*
X124397708Y-90956800D01*
X124394165Y-90959281D01*
X124394163Y-90959282D01*
X124368248Y-90977428D01*
X124225708Y-91077235D01*
X124077235Y-91225708D01*
X123956800Y-91397708D01*
X123868061Y-91588008D01*
X123866943Y-91592181D01*
X123817416Y-91777019D01*
X123813716Y-91790826D01*
X123795810Y-91995498D01*
X123794857Y-91999642D01*
X123797317Y-92010514D01*
X123797317Y-92010515D01*
X123797559Y-92011583D01*
X123800000Y-92033432D01*
X123800000Y-111466040D01*
X123797482Y-111488227D01*
X123794857Y-111499642D01*
X123797318Y-111510517D01*
X123797298Y-111521664D01*
X123797137Y-111521664D01*
X123797924Y-111531669D01*
X123793838Y-111594014D01*
X123790098Y-111651086D01*
X123785026Y-111728469D01*
X123783337Y-111741302D01*
X123752168Y-111897999D01*
X123739933Y-111959511D01*
X123736581Y-111972020D01*
X123665067Y-112182691D01*
X123660111Y-112194653D01*
X123640724Y-112233967D01*
X123561716Y-112394180D01*
X123555247Y-112405386D01*
X123431635Y-112590385D01*
X123423767Y-112600639D01*
X123291003Y-112752027D01*
X123277070Y-112767914D01*
X123267915Y-112777069D01*
X123100639Y-112923767D01*
X123090385Y-112931635D01*
X122905386Y-113055247D01*
X122894180Y-113061716D01*
X122715697Y-113149734D01*
X122694654Y-113160111D01*
X122682692Y-113165067D01*
X122472016Y-113236582D01*
X122459516Y-113239932D01*
X122241302Y-113283337D01*
X122228477Y-113285025D01*
X122032181Y-113297891D01*
X122022372Y-113297101D01*
X122022372Y-113297375D01*
X122011222Y-113297355D01*
X122000358Y-113294857D01*
X121989486Y-113297317D01*
X121989484Y-113297317D01*
X121988417Y-113297559D01*
X121966568Y-113300000D01*
X117033960Y-113300000D01*
X117011773Y-113297482D01*
X117000358Y-113294857D01*
X116989483Y-113297318D01*
X116978336Y-113297298D01*
X116978336Y-113297137D01*
X116968331Y-113297924D01*
X116896241Y-113293199D01*
X116771525Y-113285025D01*
X116758698Y-113283337D01*
X116540484Y-113239932D01*
X116527984Y-113236582D01*
X116317308Y-113165067D01*
X116305346Y-113160111D01*
X116284304Y-113149734D01*
X116105820Y-113061716D01*
X116094614Y-113055247D01*
X115909615Y-112931635D01*
X115899361Y-112923767D01*
X115732085Y-112777069D01*
X115722930Y-112767914D01*
X115708997Y-112752027D01*
X115576233Y-112600639D01*
X115568365Y-112590385D01*
X115444753Y-112405386D01*
X115438284Y-112394180D01*
X115359276Y-112233967D01*
X115339889Y-112194653D01*
X115334933Y-112182691D01*
X115263419Y-111972020D01*
X115260067Y-111959511D01*
X115247832Y-111897999D01*
X115216663Y-111741302D01*
X115214974Y-111728470D01*
X115209903Y-111651086D01*
X115202109Y-111532181D01*
X115202899Y-111522372D01*
X115202625Y-111522372D01*
X115202645Y-111511222D01*
X115205143Y-111500358D01*
X115202683Y-111489486D01*
X115202683Y-111489484D01*
X115202441Y-111488417D01*
X115200000Y-111466568D01*
X115200000Y-89230320D01*
X116642000Y-89230320D01*
X116646122Y-89243005D01*
X116650243Y-89246000D01*
X117730320Y-89246000D01*
X117743005Y-89241878D01*
X117746000Y-89237757D01*
X117746000Y-88082681D01*
X117741878Y-88069996D01*
X117737757Y-88067001D01*
X117352208Y-88067001D01*
X117347078Y-88067267D01*
X117249327Y-88077409D01*
X117238800Y-88079682D01*
X117081723Y-88132086D01*
X117071376Y-88136933D01*
X116930855Y-88223891D01*
X116921902Y-88230987D01*
X116805153Y-88347939D01*
X116798073Y-88356904D01*
X116711359Y-88497580D01*
X116706531Y-88507934D01*
X116654398Y-88665110D01*
X116652145Y-88675621D01*
X116642259Y-88772112D01*
X116642000Y-88777171D01*
X116642000Y-89230320D01*
X115200000Y-89230320D01*
X115200000Y-82421537D01*
X116470004Y-82421537D01*
X116488721Y-82534611D01*
X116544983Y-82634464D01*
X116551557Y-82640099D01*
X116625426Y-82703416D01*
X116625428Y-82703417D01*
X116632003Y-82709053D01*
X116739286Y-82749381D01*
X116747945Y-82749472D01*
X116747946Y-82749472D01*
X116794103Y-82749956D01*
X116853892Y-82750584D01*
X116862058Y-82747709D01*
X116862061Y-82747708D01*
X116928387Y-82724352D01*
X116961999Y-82712516D01*
X117028252Y-82658097D01*
X117614967Y-81973596D01*
X118100834Y-81406752D01*
X118153059Y-81374875D01*
X118214047Y-81379783D01*
X118260503Y-81419602D01*
X118275000Y-81471180D01*
X118275000Y-82387903D01*
X118273496Y-82405093D01*
X118269986Y-82425000D01*
X118270848Y-82429889D01*
X118276756Y-82493646D01*
X118283720Y-82568797D01*
X118288777Y-82623377D01*
X118343298Y-82814998D01*
X118345338Y-82819095D01*
X118345340Y-82819100D01*
X118427903Y-82984909D01*
X118432101Y-82993339D01*
X118471817Y-83045931D01*
X118522276Y-83112749D01*
X118552162Y-83152325D01*
X118555536Y-83155401D01*
X118555538Y-83155403D01*
X118684571Y-83273031D01*
X118699393Y-83286543D01*
X118703284Y-83288952D01*
X118703285Y-83288953D01*
X118733456Y-83307634D01*
X118868779Y-83391423D01*
X119054552Y-83463392D01*
X119059055Y-83464234D01*
X119059056Y-83464234D01*
X119245880Y-83499158D01*
X119245885Y-83499158D01*
X119250387Y-83500000D01*
X119449613Y-83500000D01*
X119454115Y-83499158D01*
X119454120Y-83499158D01*
X119640944Y-83464234D01*
X119640945Y-83464234D01*
X119645448Y-83463392D01*
X119831221Y-83391423D01*
X119966544Y-83307634D01*
X119996715Y-83288953D01*
X119996716Y-83288952D01*
X120000607Y-83286543D01*
X120015429Y-83273031D01*
X120144462Y-83155403D01*
X120144464Y-83155401D01*
X120147838Y-83152325D01*
X120177725Y-83112749D01*
X120228183Y-83045931D01*
X120267899Y-82993339D01*
X120272097Y-82984909D01*
X120354660Y-82819100D01*
X120354662Y-82819095D01*
X120356702Y-82814998D01*
X120411223Y-82623377D01*
X120416281Y-82568797D01*
X120423244Y-82493646D01*
X120429152Y-82429889D01*
X120430014Y-82425000D01*
X120410112Y-82312129D01*
X120352805Y-82212871D01*
X120265007Y-82139199D01*
X120256869Y-82136237D01*
X120256867Y-82136236D01*
X120216397Y-82121507D01*
X120157306Y-82100000D01*
X120042694Y-82100000D01*
X119934993Y-82139199D01*
X119931623Y-82142027D01*
X119874121Y-82154251D01*
X119818224Y-82129367D01*
X119805924Y-82116060D01*
X119759087Y-82055020D01*
X119755133Y-82049867D01*
X119642330Y-81963311D01*
X119510968Y-81908899D01*
X119370000Y-81890340D01*
X119229032Y-81908899D01*
X119097670Y-81963311D01*
X119092521Y-81967262D01*
X119084266Y-81973596D01*
X119026589Y-81994019D01*
X118967924Y-81976640D01*
X118930678Y-81928098D01*
X118925000Y-81895053D01*
X118925000Y-80749000D01*
X118943907Y-80690809D01*
X118993407Y-80654845D01*
X119024000Y-80650000D01*
X119881801Y-80650000D01*
X119939992Y-80668907D01*
X119962361Y-80691457D01*
X120355588Y-81241975D01*
X121352065Y-82637042D01*
X121355146Y-82640066D01*
X121355148Y-82640068D01*
X121376670Y-82661190D01*
X121413256Y-82697096D01*
X121421140Y-82700683D01*
X121421142Y-82700684D01*
X121507767Y-82740091D01*
X121517581Y-82744556D01*
X121631847Y-82753474D01*
X121742271Y-82722772D01*
X121835534Y-82656155D01*
X121900390Y-82561657D01*
X121905419Y-82542158D01*
X121926850Y-82459064D01*
X121926850Y-82459062D01*
X121929013Y-82450676D01*
X121917953Y-82336598D01*
X121899859Y-82298728D01*
X121882855Y-82263137D01*
X121882852Y-82263131D01*
X121880991Y-82259237D01*
X121853233Y-82220376D01*
X121196783Y-81301346D01*
X126563694Y-81301346D01*
X126564321Y-81305310D01*
X126565292Y-81306582D01*
X126601687Y-81339698D01*
X126606112Y-81343281D01*
X126883182Y-81542377D01*
X126888000Y-81545434D01*
X127186117Y-81711363D01*
X127191234Y-81713837D01*
X127506461Y-81844409D01*
X127511836Y-81846280D01*
X127839974Y-81939753D01*
X127845517Y-81940992D01*
X128182235Y-81996132D01*
X128187893Y-81996726D01*
X128528697Y-82012798D01*
X128534402Y-82012739D01*
X128874794Y-81989533D01*
X128880452Y-81988818D01*
X129215915Y-81926644D01*
X129221458Y-81925282D01*
X129547548Y-81824963D01*
X129552894Y-81822976D01*
X129865313Y-81685834D01*
X129870380Y-81683252D01*
X130164964Y-81511110D01*
X130169696Y-81507966D01*
X130430777Y-81311941D01*
X130438446Y-81301030D01*
X130438422Y-81299512D01*
X130435309Y-81294520D01*
X128511086Y-79370296D01*
X128499203Y-79364242D01*
X128494172Y-79365038D01*
X126569748Y-81289463D01*
X126563694Y-81301346D01*
X121196783Y-81301346D01*
X120397526Y-80182385D01*
X120392351Y-80174345D01*
X120388763Y-80168130D01*
X120385801Y-80159993D01*
X120380233Y-80153357D01*
X120359584Y-80128748D01*
X120354863Y-80122656D01*
X119487398Y-78908205D01*
X125488464Y-78908205D01*
X125497394Y-79249270D01*
X125497872Y-79254965D01*
X125545943Y-79592725D01*
X125547074Y-79598333D01*
X125633651Y-79928342D01*
X125635406Y-79933744D01*
X125759349Y-80251644D01*
X125761715Y-80256812D01*
X125921368Y-80558343D01*
X125924324Y-80563223D01*
X126117562Y-80844385D01*
X126121068Y-80848906D01*
X126190345Y-80928319D01*
X126201791Y-80935170D01*
X126205239Y-80934862D01*
X126207361Y-80933428D01*
X128129704Y-79011086D01*
X128134946Y-79000797D01*
X128864242Y-79000797D01*
X128865038Y-79005828D01*
X130787994Y-80928783D01*
X130799877Y-80934837D01*
X130802748Y-80934383D01*
X130805503Y-80932187D01*
X130917135Y-80798676D01*
X130920535Y-80794099D01*
X131107855Y-80508929D01*
X131110697Y-80504008D01*
X131264009Y-80199183D01*
X131266263Y-80193973D01*
X131383515Y-79873565D01*
X131385163Y-79868108D01*
X131464813Y-79536343D01*
X131465821Y-79530743D01*
X131506887Y-79191385D01*
X131507221Y-79186987D01*
X131513028Y-79002214D01*
X131512971Y-78997793D01*
X131493293Y-78656529D01*
X131492639Y-78650875D01*
X131433980Y-78314767D01*
X131432678Y-78309218D01*
X131335777Y-77982086D01*
X131333846Y-77976723D01*
X131199983Y-77662888D01*
X131197459Y-77657802D01*
X131028407Y-77361421D01*
X131025311Y-77356654D01*
X130823319Y-77081676D01*
X130819696Y-77077296D01*
X130812172Y-77069199D01*
X130800517Y-77062713D01*
X130796258Y-77063228D01*
X130795344Y-77063867D01*
X128870296Y-78988914D01*
X128864242Y-79000797D01*
X128134946Y-79000797D01*
X128135758Y-78999203D01*
X128134962Y-78994172D01*
X126210648Y-77069859D01*
X126198765Y-77063805D01*
X126196715Y-77064129D01*
X126192902Y-77067267D01*
X126027552Y-77278145D01*
X126024305Y-77282818D01*
X125846038Y-77573723D01*
X125843343Y-77578749D01*
X125699697Y-77888208D01*
X125697594Y-77893520D01*
X125590465Y-78217450D01*
X125588994Y-78222940D01*
X125519805Y-78557042D01*
X125518972Y-78562681D01*
X125488642Y-78902517D01*
X125488464Y-78908205D01*
X119487398Y-78908205D01*
X118876381Y-78052782D01*
X118871205Y-78044740D01*
X118857137Y-78020373D01*
X118857135Y-78020371D01*
X118852805Y-78012871D01*
X118821567Y-77986659D01*
X118815859Y-77981478D01*
X118792928Y-77958973D01*
X118786744Y-77952904D01*
X118778857Y-77949316D01*
X118775330Y-77946895D01*
X118771641Y-77944765D01*
X118765007Y-77939199D01*
X118726669Y-77925245D01*
X118719537Y-77922330D01*
X118701107Y-77913946D01*
X118682418Y-77905444D01*
X118673785Y-77904770D01*
X118669640Y-77903701D01*
X118665442Y-77902961D01*
X118657306Y-77900000D01*
X118616524Y-77900000D01*
X118608821Y-77899700D01*
X118603158Y-77899258D01*
X118568153Y-77896526D01*
X118559806Y-77898847D01*
X118555565Y-77899258D01*
X118551357Y-77900000D01*
X118542694Y-77900000D01*
X118517883Y-77909030D01*
X118504375Y-77913946D01*
X118497038Y-77916297D01*
X118466079Y-77924905D01*
X118466073Y-77924908D01*
X118457729Y-77927228D01*
X118450681Y-77932263D01*
X118446825Y-77934105D01*
X118443133Y-77936236D01*
X118434993Y-77939199D01*
X118405254Y-77964154D01*
X118403746Y-77965419D01*
X118397665Y-77970131D01*
X118364466Y-77993845D01*
X118359566Y-78000985D01*
X118356572Y-78004035D01*
X118353829Y-78007304D01*
X118347195Y-78012871D01*
X118342865Y-78020371D01*
X118342864Y-78020372D01*
X118326799Y-78048198D01*
X118322687Y-78054719D01*
X118299610Y-78088343D01*
X118297447Y-78096730D01*
X118295682Y-78100610D01*
X118294220Y-78104626D01*
X118289888Y-78112129D01*
X118288384Y-78120658D01*
X118288383Y-78120661D01*
X118282805Y-78152300D01*
X118281175Y-78159821D01*
X118270987Y-78199323D01*
X118273277Y-78222940D01*
X118274538Y-78235950D01*
X118275000Y-78245503D01*
X118275000Y-79220075D01*
X118256093Y-79278266D01*
X118206593Y-79314230D01*
X118145407Y-79314230D01*
X118102414Y-79286302D01*
X117025440Y-78089663D01*
X117025438Y-78089661D01*
X117022548Y-78086450D01*
X116954998Y-78033650D01*
X116846002Y-77998208D01*
X116837345Y-77998508D01*
X116837343Y-77998508D01*
X116781780Y-78000436D01*
X116731458Y-78002182D01*
X116666341Y-78028475D01*
X116633213Y-78041851D01*
X116633212Y-78041852D01*
X116625182Y-78045094D01*
X116539991Y-78121765D01*
X116486160Y-78222950D01*
X116484953Y-78231523D01*
X116484953Y-78231524D01*
X116481710Y-78254566D01*
X116470185Y-78336443D01*
X116471983Y-78344911D01*
X116471983Y-78344914D01*
X116492189Y-78440082D01*
X116493989Y-78448558D01*
X116521473Y-78492562D01*
X116531444Y-78508527D01*
X116539407Y-78521277D01*
X116542300Y-78524492D01*
X116542302Y-78524494D01*
X118109295Y-80265599D01*
X118134169Y-80321500D01*
X118121434Y-80381345D01*
X118110876Y-80396252D01*
X116534736Y-82235083D01*
X116532536Y-82238803D01*
X116532533Y-82238807D01*
X116518144Y-82263137D01*
X116491090Y-82308880D01*
X116489497Y-82317392D01*
X116489496Y-82317394D01*
X116471968Y-82411042D01*
X116470004Y-82421537D01*
X115200000Y-82421537D01*
X115200000Y-76799000D01*
X115218907Y-76740809D01*
X115268407Y-76704845D01*
X115299000Y-76700000D01*
X126518203Y-76700000D01*
X126576394Y-76718907D01*
G37*
%TD.AperFunction*%
%TA.AperFunction,Conductor*%
G36*
X129589815Y-87737394D02*
G01*
X129674712Y-87763147D01*
X129692642Y-87770574D01*
X129812800Y-87834800D01*
X129828936Y-87845581D01*
X129934263Y-87932020D01*
X129947980Y-87945737D01*
X129978392Y-87982794D01*
X130034419Y-88051064D01*
X130045200Y-88067200D01*
X130109426Y-88187358D01*
X130116853Y-88205288D01*
X130147598Y-88306639D01*
X130156404Y-88335670D01*
X130160190Y-88354702D01*
X130163903Y-88392407D01*
X130171369Y-88468208D01*
X130170812Y-88482806D01*
X130170983Y-88482806D01*
X130170983Y-88491472D01*
X130169479Y-88500000D01*
X130170983Y-88508528D01*
X130170983Y-88508530D01*
X130172996Y-88519946D01*
X130174500Y-88537137D01*
X130174500Y-94212863D01*
X130172996Y-94230054D01*
X130169479Y-94250000D01*
X130170383Y-94255127D01*
X130175765Y-94337241D01*
X130187239Y-94512299D01*
X130187841Y-94521488D01*
X130240920Y-94788331D01*
X130241963Y-94791405D01*
X130241964Y-94791407D01*
X130250077Y-94815306D01*
X130328374Y-95045964D01*
X130363428Y-95117046D01*
X130438071Y-95268407D01*
X130448708Y-95289977D01*
X130599862Y-95516195D01*
X130602001Y-95518634D01*
X130602004Y-95518638D01*
X130758563Y-95697159D01*
X130779251Y-95720749D01*
X130983805Y-95900138D01*
X131210024Y-96051292D01*
X131212930Y-96052725D01*
X131212935Y-96052728D01*
X131337780Y-96114295D01*
X131454036Y-96171626D01*
X131664154Y-96242951D01*
X131713178Y-96279558D01*
X131719642Y-96291282D01*
X131719737Y-96291227D01*
X131722980Y-96296844D01*
X131725464Y-96302841D01*
X131821718Y-96428282D01*
X131883287Y-96475525D01*
X131911219Y-96496958D01*
X131945875Y-96547382D01*
X131944274Y-96608547D01*
X131907027Y-96657088D01*
X131850952Y-96674500D01*
X131555970Y-96674500D01*
X131497779Y-96655593D01*
X131477428Y-96635767D01*
X131432236Y-96576871D01*
X131428282Y-96571718D01*
X131302841Y-96475464D01*
X131156762Y-96414956D01*
X131000000Y-96394318D01*
X130843238Y-96414956D01*
X130697159Y-96475464D01*
X130571718Y-96571718D01*
X130475464Y-96697159D01*
X130414956Y-96843238D01*
X130394318Y-97000000D01*
X130414956Y-97156762D01*
X130475464Y-97302841D01*
X130571718Y-97428282D01*
X130697159Y-97524536D01*
X130843238Y-97585044D01*
X131000000Y-97605682D01*
X131156762Y-97585044D01*
X131302841Y-97524536D01*
X131428282Y-97428282D01*
X131477429Y-97364233D01*
X131527852Y-97329577D01*
X131555970Y-97325500D01*
X132212864Y-97325500D01*
X132230055Y-97327004D01*
X132241471Y-97329017D01*
X132241472Y-97329017D01*
X132250001Y-97330521D01*
X132258532Y-97329017D01*
X132258813Y-97329017D01*
X132269631Y-97327764D01*
X132489551Y-97315413D01*
X132492297Y-97314946D01*
X132492301Y-97314946D01*
X132625712Y-97292278D01*
X132726090Y-97275223D01*
X132727196Y-97274904D01*
X132787841Y-97280363D01*
X132833917Y-97320621D01*
X132847531Y-97380272D01*
X132823483Y-97436533D01*
X132818934Y-97441400D01*
X131950432Y-98309902D01*
X131937212Y-98320994D01*
X131920621Y-98332611D01*
X131913146Y-98343286D01*
X131899254Y-98359196D01*
X131660480Y-98579917D01*
X131647812Y-98591627D01*
X131641920Y-98596659D01*
X131349402Y-98827262D01*
X131343126Y-98831821D01*
X131033437Y-99038749D01*
X131026808Y-99042811D01*
X130701848Y-99224797D01*
X130694922Y-99228326D01*
X130356687Y-99384255D01*
X130349506Y-99387230D01*
X130000066Y-99516145D01*
X129992673Y-99518547D01*
X129634209Y-99619644D01*
X129626650Y-99621459D01*
X129535461Y-99639598D01*
X129474700Y-99632406D01*
X129428735Y-99588978D01*
X129390010Y-99516145D01*
X129379218Y-99495849D01*
X129249011Y-99336200D01*
X129090275Y-99204882D01*
X128909055Y-99106897D01*
X128845855Y-99087333D01*
X128716875Y-99047407D01*
X128716871Y-99047406D01*
X128712254Y-99045977D01*
X128707446Y-99045472D01*
X128707443Y-99045471D01*
X128512185Y-99024949D01*
X128512183Y-99024949D01*
X128507369Y-99024443D01*
X128447354Y-99029905D01*
X128307022Y-99042675D01*
X128307017Y-99042676D01*
X128302203Y-99043114D01*
X128104572Y-99101280D01*
X128100288Y-99103519D01*
X128100287Y-99103520D01*
X128089428Y-99109197D01*
X127922002Y-99196726D01*
X127918231Y-99199758D01*
X127765220Y-99322781D01*
X127765217Y-99322783D01*
X127761447Y-99325815D01*
X127758333Y-99329526D01*
X127758332Y-99329527D01*
X127709914Y-99387230D01*
X127629024Y-99483630D01*
X127626689Y-99487878D01*
X127626688Y-99487879D01*
X127619957Y-99500122D01*
X127529776Y-99664162D01*
X127467484Y-99860532D01*
X127466944Y-99865344D01*
X127466944Y-99865345D01*
X127452914Y-99990431D01*
X127444520Y-100065262D01*
X127444925Y-100070082D01*
X127460647Y-100257308D01*
X127461759Y-100270553D01*
X127463092Y-100275201D01*
X127463092Y-100275202D01*
X127472564Y-100308233D01*
X127518544Y-100468586D01*
X127612712Y-100651818D01*
X127740677Y-100813270D01*
X127744357Y-100816402D01*
X127744359Y-100816404D01*
X127806451Y-100869248D01*
X127897564Y-100946791D01*
X127901787Y-100949151D01*
X127901791Y-100949154D01*
X127945248Y-100973441D01*
X128077398Y-101047297D01*
X128081996Y-101048791D01*
X128268724Y-101109463D01*
X128268726Y-101109464D01*
X128273329Y-101110959D01*
X128477894Y-101135351D01*
X128482716Y-101134980D01*
X128482719Y-101134980D01*
X128550541Y-101129761D01*
X128683300Y-101119546D01*
X128881725Y-101064145D01*
X128886038Y-101061966D01*
X128886044Y-101061964D01*
X129061289Y-100973441D01*
X129061291Y-100973440D01*
X129065610Y-100971258D01*
X129093902Y-100949154D01*
X129224135Y-100847406D01*
X129224139Y-100847402D01*
X129227951Y-100844424D01*
X129243103Y-100826871D01*
X129327223Y-100729415D01*
X129362564Y-100688472D01*
X129381231Y-100655613D01*
X129461934Y-100513550D01*
X129461935Y-100513547D01*
X129464323Y-100509344D01*
X129513137Y-100362604D01*
X129549446Y-100313357D01*
X129587762Y-100296756D01*
X129781520Y-100258215D01*
X129781527Y-100258213D01*
X129783424Y-100257836D01*
X130198898Y-100140660D01*
X130200708Y-100139992D01*
X130200715Y-100139990D01*
X130571915Y-100003047D01*
X130603898Y-99991248D01*
X130925176Y-99843137D01*
X130985937Y-99835945D01*
X131039321Y-99865842D01*
X131064937Y-99921407D01*
X131053000Y-99981417D01*
X131036627Y-100003047D01*
X129265898Y-101773776D01*
X129211381Y-101801553D01*
X129150949Y-101791982D01*
X129132789Y-101780052D01*
X129094008Y-101747969D01*
X129094000Y-101747964D01*
X129090275Y-101744882D01*
X128940888Y-101664109D01*
X128913309Y-101649197D01*
X128913308Y-101649197D01*
X128909055Y-101646897D01*
X128803535Y-101614233D01*
X128716875Y-101587407D01*
X128716871Y-101587406D01*
X128712254Y-101585977D01*
X128707446Y-101585472D01*
X128707443Y-101585471D01*
X128512185Y-101564949D01*
X128512183Y-101564949D01*
X128507369Y-101564443D01*
X128447354Y-101569905D01*
X128307022Y-101582675D01*
X128307017Y-101582676D01*
X128302203Y-101583114D01*
X128104572Y-101641280D01*
X128100288Y-101643519D01*
X128100287Y-101643520D01*
X128043651Y-101673129D01*
X127922002Y-101736726D01*
X127918231Y-101739758D01*
X127765220Y-101862781D01*
X127765217Y-101862783D01*
X127761447Y-101865815D01*
X127758333Y-101869526D01*
X127758332Y-101869527D01*
X127662935Y-101983217D01*
X127629024Y-102023630D01*
X127529776Y-102204162D01*
X127528313Y-102208775D01*
X127528311Y-102208779D01*
X127499305Y-102300220D01*
X127467484Y-102400532D01*
X127466944Y-102405344D01*
X127466944Y-102405345D01*
X127447860Y-102575488D01*
X127444520Y-102605262D01*
X127448233Y-102649474D01*
X127458833Y-102775704D01*
X127461759Y-102810553D01*
X127463092Y-102815201D01*
X127463092Y-102815202D01*
X127497895Y-102936573D01*
X127518544Y-103008586D01*
X127612712Y-103191818D01*
X127740677Y-103353270D01*
X127795943Y-103400305D01*
X127828001Y-103452416D01*
X127823307Y-103513421D01*
X127783652Y-103560016D01*
X127724182Y-103574403D01*
X127693891Y-103567159D01*
X127593554Y-103525598D01*
X127579713Y-103518545D01*
X127406562Y-103412438D01*
X127393994Y-103403307D01*
X127239569Y-103271416D01*
X127228584Y-103260431D01*
X127096693Y-103106006D01*
X127087562Y-103093438D01*
X126981455Y-102920287D01*
X126974402Y-102906446D01*
X126920791Y-102777019D01*
X126896684Y-102718818D01*
X126891884Y-102704047D01*
X126885699Y-102678282D01*
X126844475Y-102506574D01*
X126842045Y-102491231D01*
X126828037Y-102313256D01*
X126829017Y-102292868D01*
X126829017Y-102289538D01*
X126830521Y-102281010D01*
X126827004Y-102261064D01*
X126825500Y-102243873D01*
X126825500Y-97525262D01*
X127444520Y-97525262D01*
X127461759Y-97730553D01*
X127463092Y-97735201D01*
X127463092Y-97735202D01*
X127514636Y-97914956D01*
X127518544Y-97928586D01*
X127612712Y-98111818D01*
X127740677Y-98273270D01*
X127744357Y-98276402D01*
X127744359Y-98276404D01*
X127818740Y-98339707D01*
X127897564Y-98406791D01*
X127901787Y-98409151D01*
X127901791Y-98409154D01*
X127941342Y-98431258D01*
X128077398Y-98507297D01*
X128081996Y-98508791D01*
X128268724Y-98569463D01*
X128268726Y-98569464D01*
X128273329Y-98570959D01*
X128477894Y-98595351D01*
X128482716Y-98594980D01*
X128482719Y-98594980D01*
X128550541Y-98589761D01*
X128683300Y-98579546D01*
X128881725Y-98524145D01*
X128886038Y-98521966D01*
X128886044Y-98521964D01*
X129061289Y-98433441D01*
X129061291Y-98433440D01*
X129065610Y-98431258D01*
X129167077Y-98351984D01*
X129224135Y-98307406D01*
X129224139Y-98307402D01*
X129227951Y-98304424D01*
X129362564Y-98148472D01*
X129364957Y-98144260D01*
X129461934Y-97973550D01*
X129461935Y-97973547D01*
X129464323Y-97969344D01*
X129469660Y-97953302D01*
X129527824Y-97778454D01*
X129527824Y-97778452D01*
X129529351Y-97773863D01*
X129533582Y-97740376D01*
X129554823Y-97572228D01*
X129555171Y-97569474D01*
X129555583Y-97540000D01*
X129554067Y-97524536D01*
X129535952Y-97339780D01*
X129535951Y-97339776D01*
X129535480Y-97334970D01*
X129533305Y-97327764D01*
X129477333Y-97142380D01*
X129475935Y-97137749D01*
X129379218Y-96955849D01*
X129249011Y-96796200D01*
X129123067Y-96692010D01*
X129094002Y-96667965D01*
X129094000Y-96667964D01*
X129090275Y-96664882D01*
X128909055Y-96566897D01*
X128772209Y-96524536D01*
X128716875Y-96507407D01*
X128716871Y-96507406D01*
X128712254Y-96505977D01*
X128707446Y-96505472D01*
X128707443Y-96505471D01*
X128512185Y-96484949D01*
X128512183Y-96484949D01*
X128507369Y-96484443D01*
X128447354Y-96489905D01*
X128307022Y-96502675D01*
X128307017Y-96502676D01*
X128302203Y-96503114D01*
X128104572Y-96561280D01*
X128100288Y-96563519D01*
X128100287Y-96563520D01*
X128092219Y-96567738D01*
X127922002Y-96656726D01*
X127918231Y-96659758D01*
X127765220Y-96782781D01*
X127765217Y-96782783D01*
X127761447Y-96785815D01*
X127758333Y-96789526D01*
X127758332Y-96789527D01*
X127707863Y-96849674D01*
X127629024Y-96943630D01*
X127626689Y-96947878D01*
X127626688Y-96947879D01*
X127619955Y-96960126D01*
X127529776Y-97124162D01*
X127528313Y-97128775D01*
X127528311Y-97128779D01*
X127491895Y-97243577D01*
X127467484Y-97320532D01*
X127466944Y-97325344D01*
X127466944Y-97325345D01*
X127450013Y-97476294D01*
X127444520Y-97525262D01*
X126825500Y-97525262D01*
X126825500Y-94985262D01*
X127444520Y-94985262D01*
X127451949Y-95073735D01*
X127460647Y-95177308D01*
X127461759Y-95190553D01*
X127463092Y-95195201D01*
X127463092Y-95195202D01*
X127492856Y-95299000D01*
X127518544Y-95388586D01*
X127520759Y-95392896D01*
X127527759Y-95406516D01*
X127612712Y-95571818D01*
X127740677Y-95733270D01*
X127744357Y-95736402D01*
X127744359Y-95736404D01*
X127839957Y-95817764D01*
X127897564Y-95866791D01*
X127901787Y-95869151D01*
X127901791Y-95869154D01*
X127957231Y-95900138D01*
X128077398Y-95967297D01*
X128081996Y-95968791D01*
X128268724Y-96029463D01*
X128268726Y-96029464D01*
X128273329Y-96030959D01*
X128477894Y-96055351D01*
X128482716Y-96054980D01*
X128482719Y-96054980D01*
X128554065Y-96049490D01*
X128683300Y-96039546D01*
X128881725Y-95984145D01*
X128886038Y-95981966D01*
X128886044Y-95981964D01*
X129061289Y-95893441D01*
X129061291Y-95893440D01*
X129065610Y-95891258D01*
X129100943Y-95863653D01*
X129224135Y-95767406D01*
X129224139Y-95767402D01*
X129227951Y-95764424D01*
X129263724Y-95722981D01*
X129290457Y-95692010D01*
X129362564Y-95608472D01*
X129381851Y-95574521D01*
X129461934Y-95433550D01*
X129461935Y-95433547D01*
X129464323Y-95429344D01*
X129469110Y-95414956D01*
X129527824Y-95238454D01*
X129527824Y-95238452D01*
X129529351Y-95233863D01*
X129531241Y-95218907D01*
X129554823Y-95032228D01*
X129555171Y-95029474D01*
X129555583Y-95000000D01*
X129548939Y-94932236D01*
X129535952Y-94799780D01*
X129535951Y-94799776D01*
X129535480Y-94794970D01*
X129475935Y-94597749D01*
X129379218Y-94415849D01*
X129249011Y-94256200D01*
X129245282Y-94253115D01*
X129094002Y-94127965D01*
X129094000Y-94127964D01*
X129090275Y-94124882D01*
X128909055Y-94026897D01*
X128845855Y-94007333D01*
X128716875Y-93967407D01*
X128716871Y-93967406D01*
X128712254Y-93965977D01*
X128707446Y-93965472D01*
X128707443Y-93965471D01*
X128512185Y-93944949D01*
X128512183Y-93944949D01*
X128507369Y-93944443D01*
X128447354Y-93949905D01*
X128307022Y-93962675D01*
X128307017Y-93962676D01*
X128302203Y-93963114D01*
X128104572Y-94021280D01*
X128100288Y-94023519D01*
X128100287Y-94023520D01*
X128089428Y-94029197D01*
X127922002Y-94116726D01*
X127918231Y-94119758D01*
X127765220Y-94242781D01*
X127765217Y-94242783D01*
X127761447Y-94245815D01*
X127758333Y-94249526D01*
X127758332Y-94249527D01*
X127674299Y-94349674D01*
X127629024Y-94403630D01*
X127626689Y-94407878D01*
X127626688Y-94407879D01*
X127619955Y-94420126D01*
X127529776Y-94584162D01*
X127528313Y-94588775D01*
X127528311Y-94588779D01*
X127490243Y-94708785D01*
X127467484Y-94780532D01*
X127466944Y-94785344D01*
X127466944Y-94785345D01*
X127447965Y-94954551D01*
X127444520Y-94985262D01*
X126825500Y-94985262D01*
X126825500Y-92445262D01*
X127444520Y-92445262D01*
X127461759Y-92650553D01*
X127518544Y-92848586D01*
X127612712Y-93031818D01*
X127740677Y-93193270D01*
X127744357Y-93196402D01*
X127744359Y-93196404D01*
X127800014Y-93243770D01*
X127897564Y-93326791D01*
X127901787Y-93329151D01*
X127901791Y-93329154D01*
X127941342Y-93351258D01*
X128077398Y-93427297D01*
X128081996Y-93428791D01*
X128268724Y-93489463D01*
X128268726Y-93489464D01*
X128273329Y-93490959D01*
X128477894Y-93515351D01*
X128482716Y-93514980D01*
X128482719Y-93514980D01*
X128550541Y-93509761D01*
X128683300Y-93499546D01*
X128881725Y-93444145D01*
X128886038Y-93441966D01*
X128886044Y-93441964D01*
X129061289Y-93353441D01*
X129061291Y-93353440D01*
X129065610Y-93351258D01*
X129069427Y-93348276D01*
X129224135Y-93227406D01*
X129224139Y-93227402D01*
X129227951Y-93224424D01*
X129362564Y-93068472D01*
X129381231Y-93035613D01*
X129461934Y-92893550D01*
X129461935Y-92893547D01*
X129464323Y-92889344D01*
X129477882Y-92848586D01*
X129527824Y-92698454D01*
X129527824Y-92698452D01*
X129529351Y-92693863D01*
X129555171Y-92489474D01*
X129555226Y-92485581D01*
X129555544Y-92462776D01*
X129555583Y-92460000D01*
X129554611Y-92450082D01*
X129535952Y-92259780D01*
X129535951Y-92259776D01*
X129535480Y-92254970D01*
X129531172Y-92240699D01*
X129496693Y-92126501D01*
X129475935Y-92057749D01*
X129379218Y-91875849D01*
X129249011Y-91716200D01*
X129232790Y-91702781D01*
X129094002Y-91587965D01*
X129094000Y-91587964D01*
X129090275Y-91584882D01*
X128917679Y-91491560D01*
X128913309Y-91489197D01*
X128913308Y-91489197D01*
X128909055Y-91486897D01*
X128790529Y-91450207D01*
X128772061Y-91444490D01*
X128722063Y-91409220D01*
X128702346Y-91351299D01*
X128720439Y-91292850D01*
X128769432Y-91256199D01*
X128780752Y-91253081D01*
X128787202Y-91251710D01*
X128993304Y-91189876D01*
X129000852Y-91186918D01*
X129194090Y-91092252D01*
X129201045Y-91088105D01*
X129251229Y-91052309D01*
X129259163Y-91041587D01*
X129259170Y-91040724D01*
X129255554Y-91034764D01*
X128511086Y-90290296D01*
X128499203Y-90284242D01*
X128494172Y-90285038D01*
X127745011Y-91034199D01*
X127739387Y-91045238D01*
X127746207Y-91052462D01*
X127907713Y-91146838D01*
X127915008Y-91150334D01*
X128116038Y-91227099D01*
X128123808Y-91229357D01*
X128227991Y-91250553D01*
X128281244Y-91280682D01*
X128306618Y-91336359D01*
X128294419Y-91396316D01*
X128249309Y-91437652D01*
X128236206Y-91442538D01*
X128104572Y-91481280D01*
X128100288Y-91483519D01*
X128100287Y-91483520D01*
X128068764Y-91500000D01*
X127922002Y-91576726D01*
X127918231Y-91579758D01*
X127765220Y-91702781D01*
X127765217Y-91702783D01*
X127761447Y-91705815D01*
X127758333Y-91709526D01*
X127758332Y-91709527D01*
X127633855Y-91857873D01*
X127629024Y-91863630D01*
X127626689Y-91867878D01*
X127626688Y-91867879D01*
X127619955Y-91880126D01*
X127529776Y-92044162D01*
X127528313Y-92048775D01*
X127528311Y-92048779D01*
X127497488Y-92145947D01*
X127467484Y-92240532D01*
X127466944Y-92245344D01*
X127466944Y-92245345D01*
X127445131Y-92439817D01*
X127444520Y-92445262D01*
X126825500Y-92445262D01*
X126825500Y-89890759D01*
X127137987Y-89890759D01*
X127150374Y-90105596D01*
X127151499Y-90113602D01*
X127198807Y-90323524D01*
X127201231Y-90331258D01*
X127282183Y-90530620D01*
X127285840Y-90537860D01*
X127367732Y-90671496D01*
X127377419Y-90679769D01*
X127385605Y-90675185D01*
X128129704Y-89931086D01*
X128134946Y-89920797D01*
X128864242Y-89920797D01*
X128865038Y-89925828D01*
X129612200Y-90672990D01*
X129624083Y-90679044D01*
X129625028Y-90678895D01*
X129630201Y-90674453D01*
X129665649Y-90625121D01*
X129669822Y-90618176D01*
X129765164Y-90425268D01*
X129768144Y-90417744D01*
X129830700Y-90211847D01*
X129832410Y-90203935D01*
X129860682Y-89989184D01*
X129861092Y-89983920D01*
X129862589Y-89922641D01*
X129862438Y-89917371D01*
X129844690Y-89701489D01*
X129843368Y-89693504D01*
X129790946Y-89484809D01*
X129788333Y-89477133D01*
X129702530Y-89279798D01*
X129698710Y-89272672D01*
X129631740Y-89169153D01*
X129621549Y-89160871D01*
X129613975Y-89165235D01*
X128870296Y-89908914D01*
X128864242Y-89920797D01*
X128134946Y-89920797D01*
X128135758Y-89919203D01*
X128134962Y-89914172D01*
X127388123Y-89167333D01*
X127376240Y-89161279D01*
X127375941Y-89161326D01*
X127370015Y-89166542D01*
X127317466Y-89243575D01*
X127313468Y-89250613D01*
X127222871Y-89445790D01*
X127220073Y-89453394D01*
X127162570Y-89660740D01*
X127161049Y-89668714D01*
X127138185Y-89882668D01*
X127137987Y-89890759D01*
X126825500Y-89890759D01*
X126825500Y-88537137D01*
X126827004Y-88519946D01*
X126829017Y-88508530D01*
X126829017Y-88508528D01*
X126830521Y-88500000D01*
X126829017Y-88491472D01*
X126829017Y-88482806D01*
X126829188Y-88482806D01*
X126828631Y-88468208D01*
X126836097Y-88392407D01*
X126839810Y-88354702D01*
X126843596Y-88335670D01*
X126852403Y-88306639D01*
X126883147Y-88205288D01*
X126890574Y-88187358D01*
X126954800Y-88067200D01*
X126965581Y-88051064D01*
X127021608Y-87982794D01*
X127052020Y-87945737D01*
X127065737Y-87932020D01*
X127171064Y-87845581D01*
X127187200Y-87834800D01*
X127307358Y-87770574D01*
X127325288Y-87763147D01*
X127363241Y-87751634D01*
X127411025Y-87737139D01*
X127472197Y-87738340D01*
X127520982Y-87775269D01*
X127527814Y-87786624D01*
X127609589Y-87945741D01*
X127612712Y-87951818D01*
X127740677Y-88113270D01*
X127744357Y-88116402D01*
X127744359Y-88116404D01*
X127848798Y-88205288D01*
X127897564Y-88246791D01*
X127901787Y-88249151D01*
X127901791Y-88249154D01*
X128018702Y-88314493D01*
X128077398Y-88347297D01*
X128231944Y-88397512D01*
X128281444Y-88433476D01*
X128300351Y-88491667D01*
X128281444Y-88549858D01*
X128231944Y-88585822D01*
X128216327Y-88589528D01*
X128188226Y-88593828D01*
X128180341Y-88595707D01*
X127975807Y-88662558D01*
X127968350Y-88665693D01*
X127777482Y-88765053D01*
X127770623Y-88769372D01*
X127747726Y-88786564D01*
X127740058Y-88797475D01*
X127740082Y-88798994D01*
X127743193Y-88803983D01*
X128488914Y-89549704D01*
X128500797Y-89555758D01*
X128505828Y-89554962D01*
X129255115Y-88805675D01*
X129261169Y-88793792D01*
X129260830Y-88791652D01*
X129257796Y-88787951D01*
X129257268Y-88787534D01*
X129250527Y-88783055D01*
X129062141Y-88679060D01*
X129054749Y-88675738D01*
X128851920Y-88603912D01*
X128844081Y-88601841D01*
X128774589Y-88589463D01*
X128720616Y-88560644D01*
X128693890Y-88505605D01*
X128704619Y-88445367D01*
X128748706Y-88402941D01*
X128765327Y-88396644D01*
X128813259Y-88383261D01*
X128881725Y-88364145D01*
X128886038Y-88361966D01*
X128886044Y-88361964D01*
X129061289Y-88273441D01*
X129061291Y-88273440D01*
X129065610Y-88271258D01*
X129117155Y-88230987D01*
X129224135Y-88147406D01*
X129224139Y-88147402D01*
X129227951Y-88144424D01*
X129234913Y-88136359D01*
X129298737Y-88062417D01*
X129362564Y-87988472D01*
X129368810Y-87977477D01*
X129461934Y-87813550D01*
X129461935Y-87813547D01*
X129464323Y-87809344D01*
X129467138Y-87800880D01*
X129503447Y-87751634D01*
X129561769Y-87733133D01*
X129589815Y-87737394D01*
G37*
%TD.AperFunction*%
%TD*%
M02*
