%TF.GenerationSoftware,KiCad,Pcbnew,(5.1.9-0-10_14)*%
%TF.CreationDate,2021-08-04T18:12:55+01:00*%
%TF.ProjectId,EnvMon,456e764d-6f6e-42e6-9b69-6361645f7063,4*%
%TF.SameCoordinates,Original*%
%TF.FileFunction,Soldermask,Top*%
%TF.FilePolarity,Negative*%
%FSLAX46Y46*%
G04 Gerber Fmt 4.6, Leading zero omitted, Abs format (unit mm)*
G04 Created by KiCad (PCBNEW (5.1.9-0-10_14)) date 2021-08-04 18:12:55*
%MOMM*%
%LPD*%
G01*
G04 APERTURE LIST*
%ADD10R,2.000000X0.900000*%
%ADD11R,0.900000X2.000000*%
%ADD12R,5.000000X5.000000*%
%ADD13C,5.000000*%
%ADD14C,1.700000*%
%ADD15O,1.700000X1.850000*%
%ADD16R,0.850000X0.500000*%
%ADD17C,0.350000*%
%ADD18C,0.100000*%
%ADD19R,0.600000X1.100000*%
%ADD20R,1.425000X3.700000*%
%ADD21C,2.000000*%
%ADD22R,2.000000X2.000000*%
%ADD23R,5.000000X5.490000*%
%ADD24R,0.600000X1.140000*%
%ADD25C,1.250000*%
%ADD26C,1.500000*%
%ADD27R,0.300000X1.140000*%
%ADD28C,0.800000*%
G04 APERTURE END LIST*
D10*
%TO.C,U2*%
X123750000Y-70745000D03*
X123750000Y-72015000D03*
X123750000Y-73285000D03*
X123750000Y-74555000D03*
X123750000Y-75825000D03*
X123750000Y-77095000D03*
X123750000Y-78365000D03*
X123750000Y-79635000D03*
X123750000Y-80905000D03*
X123750000Y-82175000D03*
X123750000Y-83445000D03*
X123750000Y-84715000D03*
X123750000Y-85985000D03*
X123750000Y-87255000D03*
D11*
X120965000Y-88255000D03*
X119695000Y-88255000D03*
X118425000Y-88255000D03*
X117155000Y-88255000D03*
X115885000Y-88255000D03*
X114615000Y-88255000D03*
X113345000Y-88255000D03*
X112075000Y-88255000D03*
X110805000Y-88255000D03*
X109535000Y-88255000D03*
D10*
X106750000Y-87255000D03*
X106750000Y-85985000D03*
X106750000Y-84715000D03*
X106750000Y-83445000D03*
X106750000Y-82175000D03*
X106750000Y-80905000D03*
X106750000Y-79635000D03*
X106750000Y-78365000D03*
X106750000Y-77095000D03*
X106750000Y-75825000D03*
X106750000Y-74555000D03*
X106750000Y-73285000D03*
X106750000Y-72015000D03*
X106750000Y-70745000D03*
D12*
X114250000Y-78245000D03*
%TD*%
D13*
%TO.C,M2*%
X92500000Y-65500000D03*
X92500000Y-97500000D03*
X132000000Y-97500000D03*
X132000000Y-65500000D03*
D14*
X92500000Y-89120000D03*
X92500000Y-86580000D03*
X92500000Y-84040000D03*
X92500000Y-81500000D03*
X92500000Y-78960000D03*
X92500000Y-76420000D03*
X92500000Y-73880000D03*
%TD*%
D15*
%TO.C,J3*%
X126550000Y-93150000D03*
X124050000Y-93150000D03*
X121550000Y-93150000D03*
X119050000Y-93150000D03*
X116550000Y-93150000D03*
X114050000Y-93150000D03*
X111550000Y-93150000D03*
G36*
G01*
X108200000Y-93825000D02*
X108200000Y-92475000D01*
G75*
G02*
X108450000Y-92225000I250000J0D01*
G01*
X109650000Y-92225000D01*
G75*
G02*
X109900000Y-92475000I0J-250000D01*
G01*
X109900000Y-93825000D01*
G75*
G02*
X109650000Y-94075000I-250000J0D01*
G01*
X108450000Y-94075000D01*
G75*
G02*
X108200000Y-93825000I0J250000D01*
G01*
G37*
%TD*%
%TO.C,R5*%
G36*
G01*
X98775000Y-67425000D02*
X98775000Y-67975000D01*
G75*
G02*
X98575000Y-68175000I-200000J0D01*
G01*
X98175000Y-68175000D01*
G75*
G02*
X97975000Y-67975000I0J200000D01*
G01*
X97975000Y-67425000D01*
G75*
G02*
X98175000Y-67225000I200000J0D01*
G01*
X98575000Y-67225000D01*
G75*
G02*
X98775000Y-67425000I0J-200000D01*
G01*
G37*
G36*
G01*
X100425000Y-67425000D02*
X100425000Y-67975000D01*
G75*
G02*
X100225000Y-68175000I-200000J0D01*
G01*
X99825000Y-68175000D01*
G75*
G02*
X99625000Y-67975000I0J200000D01*
G01*
X99625000Y-67425000D01*
G75*
G02*
X99825000Y-67225000I200000J0D01*
G01*
X100225000Y-67225000D01*
G75*
G02*
X100425000Y-67425000I0J-200000D01*
G01*
G37*
%TD*%
%TO.C,R4*%
G36*
G01*
X98775000Y-66225000D02*
X98775000Y-66775000D01*
G75*
G02*
X98575000Y-66975000I-200000J0D01*
G01*
X98175000Y-66975000D01*
G75*
G02*
X97975000Y-66775000I0J200000D01*
G01*
X97975000Y-66225000D01*
G75*
G02*
X98175000Y-66025000I200000J0D01*
G01*
X98575000Y-66025000D01*
G75*
G02*
X98775000Y-66225000I0J-200000D01*
G01*
G37*
G36*
G01*
X100425000Y-66225000D02*
X100425000Y-66775000D01*
G75*
G02*
X100225000Y-66975000I-200000J0D01*
G01*
X99825000Y-66975000D01*
G75*
G02*
X99625000Y-66775000I0J200000D01*
G01*
X99625000Y-66225000D01*
G75*
G02*
X99825000Y-66025000I200000J0D01*
G01*
X100225000Y-66025000D01*
G75*
G02*
X100425000Y-66225000I0J-200000D01*
G01*
G37*
%TD*%
%TO.C,R3*%
G36*
G01*
X98775000Y-68625000D02*
X98775000Y-69175000D01*
G75*
G02*
X98575000Y-69375000I-200000J0D01*
G01*
X98175000Y-69375000D01*
G75*
G02*
X97975000Y-69175000I0J200000D01*
G01*
X97975000Y-68625000D01*
G75*
G02*
X98175000Y-68425000I200000J0D01*
G01*
X98575000Y-68425000D01*
G75*
G02*
X98775000Y-68625000I0J-200000D01*
G01*
G37*
G36*
G01*
X100425000Y-68625000D02*
X100425000Y-69175000D01*
G75*
G02*
X100225000Y-69375000I-200000J0D01*
G01*
X99825000Y-69375000D01*
G75*
G02*
X99625000Y-69175000I0J200000D01*
G01*
X99625000Y-68625000D01*
G75*
G02*
X99825000Y-68425000I200000J0D01*
G01*
X100225000Y-68425000D01*
G75*
G02*
X100425000Y-68625000I0J-200000D01*
G01*
G37*
%TD*%
D16*
%TO.C,D1*%
X98325000Y-65200000D03*
X100075000Y-65200000D03*
X100075000Y-64200000D03*
X98325000Y-64200000D03*
%TD*%
D17*
%TO.C,U1*%
X99975000Y-88125000D03*
D18*
G36*
X100975000Y-89125000D02*
G01*
X98975000Y-89125000D01*
X98975000Y-87375000D01*
X99225000Y-87125000D01*
X100975000Y-87125000D01*
X100975000Y-89125000D01*
G37*
G36*
G01*
X98850000Y-86512500D02*
X98850000Y-85937500D01*
G75*
G02*
X98912500Y-85875000I62500J0D01*
G01*
X99037500Y-85875000D01*
G75*
G02*
X99100000Y-85937500I0J-62500D01*
G01*
X99100000Y-86512500D01*
G75*
G02*
X99037500Y-86575000I-62500J0D01*
G01*
X98912500Y-86575000D01*
G75*
G02*
X98850000Y-86512500I0J62500D01*
G01*
G37*
G36*
G01*
X99350000Y-86512500D02*
X99350000Y-85937500D01*
G75*
G02*
X99412500Y-85875000I62500J0D01*
G01*
X99537500Y-85875000D01*
G75*
G02*
X99600000Y-85937500I0J-62500D01*
G01*
X99600000Y-86512500D01*
G75*
G02*
X99537500Y-86575000I-62500J0D01*
G01*
X99412500Y-86575000D01*
G75*
G02*
X99350000Y-86512500I0J62500D01*
G01*
G37*
G36*
G01*
X99850000Y-86512500D02*
X99850000Y-85937500D01*
G75*
G02*
X99912500Y-85875000I62500J0D01*
G01*
X100037500Y-85875000D01*
G75*
G02*
X100100000Y-85937500I0J-62500D01*
G01*
X100100000Y-86512500D01*
G75*
G02*
X100037500Y-86575000I-62500J0D01*
G01*
X99912500Y-86575000D01*
G75*
G02*
X99850000Y-86512500I0J62500D01*
G01*
G37*
G36*
G01*
X100350000Y-86512500D02*
X100350000Y-85937500D01*
G75*
G02*
X100412500Y-85875000I62500J0D01*
G01*
X100537500Y-85875000D01*
G75*
G02*
X100600000Y-85937500I0J-62500D01*
G01*
X100600000Y-86512500D01*
G75*
G02*
X100537500Y-86575000I-62500J0D01*
G01*
X100412500Y-86575000D01*
G75*
G02*
X100350000Y-86512500I0J62500D01*
G01*
G37*
G36*
G01*
X100850000Y-86512500D02*
X100850000Y-85937500D01*
G75*
G02*
X100912500Y-85875000I62500J0D01*
G01*
X101037500Y-85875000D01*
G75*
G02*
X101100000Y-85937500I0J-62500D01*
G01*
X101100000Y-86512500D01*
G75*
G02*
X101037500Y-86575000I-62500J0D01*
G01*
X100912500Y-86575000D01*
G75*
G02*
X100850000Y-86512500I0J62500D01*
G01*
G37*
G36*
G01*
X101525000Y-87187500D02*
X101525000Y-87062500D01*
G75*
G02*
X101587500Y-87000000I62500J0D01*
G01*
X102162500Y-87000000D01*
G75*
G02*
X102225000Y-87062500I0J-62500D01*
G01*
X102225000Y-87187500D01*
G75*
G02*
X102162500Y-87250000I-62500J0D01*
G01*
X101587500Y-87250000D01*
G75*
G02*
X101525000Y-87187500I0J62500D01*
G01*
G37*
G36*
G01*
X101525000Y-87687500D02*
X101525000Y-87562500D01*
G75*
G02*
X101587500Y-87500000I62500J0D01*
G01*
X102162500Y-87500000D01*
G75*
G02*
X102225000Y-87562500I0J-62500D01*
G01*
X102225000Y-87687500D01*
G75*
G02*
X102162500Y-87750000I-62500J0D01*
G01*
X101587500Y-87750000D01*
G75*
G02*
X101525000Y-87687500I0J62500D01*
G01*
G37*
G36*
G01*
X101525000Y-88187500D02*
X101525000Y-88062500D01*
G75*
G02*
X101587500Y-88000000I62500J0D01*
G01*
X102162500Y-88000000D01*
G75*
G02*
X102225000Y-88062500I0J-62500D01*
G01*
X102225000Y-88187500D01*
G75*
G02*
X102162500Y-88250000I-62500J0D01*
G01*
X101587500Y-88250000D01*
G75*
G02*
X101525000Y-88187500I0J62500D01*
G01*
G37*
G36*
G01*
X101525000Y-88687500D02*
X101525000Y-88562500D01*
G75*
G02*
X101587500Y-88500000I62500J0D01*
G01*
X102162500Y-88500000D01*
G75*
G02*
X102225000Y-88562500I0J-62500D01*
G01*
X102225000Y-88687500D01*
G75*
G02*
X102162500Y-88750000I-62500J0D01*
G01*
X101587500Y-88750000D01*
G75*
G02*
X101525000Y-88687500I0J62500D01*
G01*
G37*
G36*
G01*
X101525000Y-89187500D02*
X101525000Y-89062500D01*
G75*
G02*
X101587500Y-89000000I62500J0D01*
G01*
X102162500Y-89000000D01*
G75*
G02*
X102225000Y-89062500I0J-62500D01*
G01*
X102225000Y-89187500D01*
G75*
G02*
X102162500Y-89250000I-62500J0D01*
G01*
X101587500Y-89250000D01*
G75*
G02*
X101525000Y-89187500I0J62500D01*
G01*
G37*
G36*
G01*
X100850000Y-90312500D02*
X100850000Y-89737500D01*
G75*
G02*
X100912500Y-89675000I62500J0D01*
G01*
X101037500Y-89675000D01*
G75*
G02*
X101100000Y-89737500I0J-62500D01*
G01*
X101100000Y-90312500D01*
G75*
G02*
X101037500Y-90375000I-62500J0D01*
G01*
X100912500Y-90375000D01*
G75*
G02*
X100850000Y-90312500I0J62500D01*
G01*
G37*
G36*
G01*
X100350000Y-90312500D02*
X100350000Y-89737500D01*
G75*
G02*
X100412500Y-89675000I62500J0D01*
G01*
X100537500Y-89675000D01*
G75*
G02*
X100600000Y-89737500I0J-62500D01*
G01*
X100600000Y-90312500D01*
G75*
G02*
X100537500Y-90375000I-62500J0D01*
G01*
X100412500Y-90375000D01*
G75*
G02*
X100350000Y-90312500I0J62500D01*
G01*
G37*
G36*
G01*
X99850000Y-90312500D02*
X99850000Y-89737500D01*
G75*
G02*
X99912500Y-89675000I62500J0D01*
G01*
X100037500Y-89675000D01*
G75*
G02*
X100100000Y-89737500I0J-62500D01*
G01*
X100100000Y-90312500D01*
G75*
G02*
X100037500Y-90375000I-62500J0D01*
G01*
X99912500Y-90375000D01*
G75*
G02*
X99850000Y-90312500I0J62500D01*
G01*
G37*
G36*
G01*
X99350000Y-90312500D02*
X99350000Y-89737500D01*
G75*
G02*
X99412500Y-89675000I62500J0D01*
G01*
X99537500Y-89675000D01*
G75*
G02*
X99600000Y-89737500I0J-62500D01*
G01*
X99600000Y-90312500D01*
G75*
G02*
X99537500Y-90375000I-62500J0D01*
G01*
X99412500Y-90375000D01*
G75*
G02*
X99350000Y-90312500I0J62500D01*
G01*
G37*
G36*
G01*
X98850000Y-90312500D02*
X98850000Y-89737500D01*
G75*
G02*
X98912500Y-89675000I62500J0D01*
G01*
X99037500Y-89675000D01*
G75*
G02*
X99100000Y-89737500I0J-62500D01*
G01*
X99100000Y-90312500D01*
G75*
G02*
X99037500Y-90375000I-62500J0D01*
G01*
X98912500Y-90375000D01*
G75*
G02*
X98850000Y-90312500I0J62500D01*
G01*
G37*
G36*
G01*
X97725000Y-89187500D02*
X97725000Y-89062500D01*
G75*
G02*
X97787500Y-89000000I62500J0D01*
G01*
X98362500Y-89000000D01*
G75*
G02*
X98425000Y-89062500I0J-62500D01*
G01*
X98425000Y-89187500D01*
G75*
G02*
X98362500Y-89250000I-62500J0D01*
G01*
X97787500Y-89250000D01*
G75*
G02*
X97725000Y-89187500I0J62500D01*
G01*
G37*
G36*
G01*
X97725000Y-88687500D02*
X97725000Y-88562500D01*
G75*
G02*
X97787500Y-88500000I62500J0D01*
G01*
X98362500Y-88500000D01*
G75*
G02*
X98425000Y-88562500I0J-62500D01*
G01*
X98425000Y-88687500D01*
G75*
G02*
X98362500Y-88750000I-62500J0D01*
G01*
X97787500Y-88750000D01*
G75*
G02*
X97725000Y-88687500I0J62500D01*
G01*
G37*
G36*
G01*
X97725000Y-88187500D02*
X97725000Y-88062500D01*
G75*
G02*
X97787500Y-88000000I62500J0D01*
G01*
X98362500Y-88000000D01*
G75*
G02*
X98425000Y-88062500I0J-62500D01*
G01*
X98425000Y-88187500D01*
G75*
G02*
X98362500Y-88250000I-62500J0D01*
G01*
X97787500Y-88250000D01*
G75*
G02*
X97725000Y-88187500I0J62500D01*
G01*
G37*
G36*
G01*
X97725000Y-87687500D02*
X97725000Y-87562500D01*
G75*
G02*
X97787500Y-87500000I62500J0D01*
G01*
X98362500Y-87500000D01*
G75*
G02*
X98425000Y-87562500I0J-62500D01*
G01*
X98425000Y-87687500D01*
G75*
G02*
X98362500Y-87750000I-62500J0D01*
G01*
X97787500Y-87750000D01*
G75*
G02*
X97725000Y-87687500I0J62500D01*
G01*
G37*
G36*
G01*
X97725000Y-87187500D02*
X97725000Y-87062500D01*
G75*
G02*
X97787500Y-87000000I62500J0D01*
G01*
X98362500Y-87000000D01*
G75*
G02*
X98425000Y-87062500I0J-62500D01*
G01*
X98425000Y-87187500D01*
G75*
G02*
X98362500Y-87250000I-62500J0D01*
G01*
X97787500Y-87250000D01*
G75*
G02*
X97725000Y-87187500I0J62500D01*
G01*
G37*
%TD*%
D19*
%TO.C,Reg1*%
X98375000Y-77150000D03*
X96475000Y-77150000D03*
X97425000Y-77150000D03*
X96475000Y-79850000D03*
X97425000Y-79850000D03*
X98375000Y-79850000D03*
G36*
G01*
X102350000Y-80600000D02*
X103300000Y-80600000D01*
G75*
G02*
X103550000Y-80850000I0J-250000D01*
G01*
X103550000Y-81350000D01*
G75*
G02*
X103300000Y-81600000I-250000J0D01*
G01*
X102350000Y-81600000D01*
G75*
G02*
X102100000Y-81350000I0J250000D01*
G01*
X102100000Y-80850000D01*
G75*
G02*
X102350000Y-80600000I250000J0D01*
G01*
G37*
G36*
G01*
X102350000Y-82500000D02*
X103300000Y-82500000D01*
G75*
G02*
X103550000Y-82750000I0J-250000D01*
G01*
X103550000Y-83250000D01*
G75*
G02*
X103300000Y-83500000I-250000J0D01*
G01*
X102350000Y-83500000D01*
G75*
G02*
X102100000Y-83250000I0J250000D01*
G01*
X102100000Y-82750000D01*
G75*
G02*
X102350000Y-82500000I250000J0D01*
G01*
G37*
G36*
G01*
X96100000Y-82500000D02*
X97050000Y-82500000D01*
G75*
G02*
X97300000Y-82750000I0J-250000D01*
G01*
X97300000Y-83250000D01*
G75*
G02*
X97050000Y-83500000I-250000J0D01*
G01*
X96100000Y-83500000D01*
G75*
G02*
X95850000Y-83250000I0J250000D01*
G01*
X95850000Y-82750000D01*
G75*
G02*
X96100000Y-82500000I250000J0D01*
G01*
G37*
G36*
G01*
X96100000Y-80600000D02*
X97050000Y-80600000D01*
G75*
G02*
X97300000Y-80850000I0J-250000D01*
G01*
X97300000Y-81350000D01*
G75*
G02*
X97050000Y-81600000I-250000J0D01*
G01*
X96100000Y-81600000D01*
G75*
G02*
X95850000Y-81350000I0J250000D01*
G01*
X95850000Y-80850000D01*
G75*
G02*
X96100000Y-80600000I250000J0D01*
G01*
G37*
G36*
G01*
X95575000Y-78175000D02*
X95075000Y-78175000D01*
G75*
G02*
X94850000Y-77950000I0J225000D01*
G01*
X94850000Y-77500000D01*
G75*
G02*
X95075000Y-77275000I225000J0D01*
G01*
X95575000Y-77275000D01*
G75*
G02*
X95800000Y-77500000I0J-225000D01*
G01*
X95800000Y-77950000D01*
G75*
G02*
X95575000Y-78175000I-225000J0D01*
G01*
G37*
G36*
G01*
X95575000Y-79725000D02*
X95075000Y-79725000D01*
G75*
G02*
X94850000Y-79500000I0J225000D01*
G01*
X94850000Y-79050000D01*
G75*
G02*
X95075000Y-78825000I225000J0D01*
G01*
X95575000Y-78825000D01*
G75*
G02*
X95800000Y-79050000I0J-225000D01*
G01*
X95800000Y-79500000D01*
G75*
G02*
X95575000Y-79725000I-225000J0D01*
G01*
G37*
G36*
G01*
X97500000Y-82295627D02*
X97500000Y-81044373D01*
G75*
G02*
X97749373Y-80795000I249373J0D01*
G01*
X98675627Y-80795000D01*
G75*
G02*
X98925000Y-81044373I0J-249373D01*
G01*
X98925000Y-82295627D01*
G75*
G02*
X98675627Y-82545000I-249373J0D01*
G01*
X97749373Y-82545000D01*
G75*
G02*
X97500000Y-82295627I0J249373D01*
G01*
G37*
G36*
G01*
X100475000Y-82295627D02*
X100475000Y-81044373D01*
G75*
G02*
X100724373Y-80795000I249373J0D01*
G01*
X101650627Y-80795000D01*
G75*
G02*
X101900000Y-81044373I0J-249373D01*
G01*
X101900000Y-82295627D01*
G75*
G02*
X101650627Y-82545000I-249373J0D01*
G01*
X100724373Y-82545000D01*
G75*
G02*
X100475000Y-82295627I0J249373D01*
G01*
G37*
D20*
X102825000Y-78550000D03*
X99825000Y-78550000D03*
%TD*%
%TO.C,R2*%
G36*
G01*
X91562500Y-92925000D02*
X92037500Y-92925000D01*
G75*
G02*
X92275000Y-93162500I0J-237500D01*
G01*
X92275000Y-93662500D01*
G75*
G02*
X92037500Y-93900000I-237500J0D01*
G01*
X91562500Y-93900000D01*
G75*
G02*
X91325000Y-93662500I0J237500D01*
G01*
X91325000Y-93162500D01*
G75*
G02*
X91562500Y-92925000I237500J0D01*
G01*
G37*
G36*
G01*
X91562500Y-91100000D02*
X92037500Y-91100000D01*
G75*
G02*
X92275000Y-91337500I0J-237500D01*
G01*
X92275000Y-91837500D01*
G75*
G02*
X92037500Y-92075000I-237500J0D01*
G01*
X91562500Y-92075000D01*
G75*
G02*
X91325000Y-91837500I0J237500D01*
G01*
X91325000Y-91337500D01*
G75*
G02*
X91562500Y-91100000I237500J0D01*
G01*
G37*
%TD*%
%TO.C,R1*%
G36*
G01*
X93062500Y-92925000D02*
X93537500Y-92925000D01*
G75*
G02*
X93775000Y-93162500I0J-237500D01*
G01*
X93775000Y-93662500D01*
G75*
G02*
X93537500Y-93900000I-237500J0D01*
G01*
X93062500Y-93900000D01*
G75*
G02*
X92825000Y-93662500I0J237500D01*
G01*
X92825000Y-93162500D01*
G75*
G02*
X93062500Y-92925000I237500J0D01*
G01*
G37*
G36*
G01*
X93062500Y-91100000D02*
X93537500Y-91100000D01*
G75*
G02*
X93775000Y-91337500I0J-237500D01*
G01*
X93775000Y-91837500D01*
G75*
G02*
X93537500Y-92075000I-237500J0D01*
G01*
X93062500Y-92075000D01*
G75*
G02*
X92825000Y-91837500I0J237500D01*
G01*
X92825000Y-91337500D01*
G75*
G02*
X93062500Y-91100000I237500J0D01*
G01*
G37*
%TD*%
D21*
%TO.C,J2*%
X108740000Y-96000000D03*
D22*
X106200000Y-96000000D03*
%TD*%
D14*
%TO.C,M1*%
X104220000Y-70800000D03*
X101680000Y-70800000D03*
X99140000Y-70800000D03*
X96600000Y-70800000D03*
%TD*%
D23*
%TO.C,J1*%
X99750000Y-97250000D03*
D24*
X97350000Y-93135000D03*
X102150000Y-93135000D03*
D25*
X104070000Y-97885000D03*
X95430000Y-97885000D03*
D26*
X104070000Y-93715000D03*
X95430000Y-93715000D03*
D27*
X100000000Y-93135000D03*
X99500000Y-93135000D03*
X100500000Y-93135000D03*
X99000000Y-93135000D03*
X101000000Y-93135000D03*
X98500000Y-93135000D03*
X101500000Y-93135000D03*
X98000000Y-93135000D03*
D24*
X102950000Y-93135000D03*
D28*
X102640000Y-94205000D03*
X96860000Y-94205000D03*
D24*
X96550000Y-93135000D03*
%TD*%
M02*
