%TF.GenerationSoftware,KiCad,Pcbnew,(5.1.9-0-10_14)*%
%TF.CreationDate,2021-05-23T12:17:58+01:00*%
%TF.ProjectId,EnvMon,456e764d-6f6e-42e6-9b69-6361645f7063,2*%
%TF.SameCoordinates,Original*%
%TF.FileFunction,Soldermask,Bot*%
%TF.FilePolarity,Negative*%
%FSLAX46Y46*%
G04 Gerber Fmt 4.6, Leading zero omitted, Abs format (unit mm)*
G04 Created by KiCad (PCBNEW (5.1.9-0-10_14)) date 2021-05-23 12:17:58*
%MOMM*%
%LPD*%
G01*
G04 APERTURE LIST*
%ADD10C,5.500000*%
%ADD11C,0.350000*%
%ADD12C,2.000000*%
%ADD13R,2.000000X2.000000*%
%ADD14C,1.700000*%
%ADD15C,5.000000*%
%ADD16O,1.700000X1.850000*%
G04 APERTURE END LIST*
%TO.C,R2*%
G36*
G01*
X98147499Y-97299999D02*
X98622499Y-97299999D01*
G75*
G02*
X98859999Y-97537499I0J-237500D01*
G01*
X98859999Y-98037499D01*
G75*
G02*
X98622499Y-98274999I-237500J0D01*
G01*
X98147499Y-98274999D01*
G75*
G02*
X97909999Y-98037499I0J237500D01*
G01*
X97909999Y-97537499D01*
G75*
G02*
X98147499Y-97299999I237500J0D01*
G01*
G37*
G36*
G01*
X98147499Y-95474999D02*
X98622499Y-95474999D01*
G75*
G02*
X98859999Y-95712499I0J-237500D01*
G01*
X98859999Y-96212499D01*
G75*
G02*
X98622499Y-96449999I-237500J0D01*
G01*
X98147499Y-96449999D01*
G75*
G02*
X97909999Y-96212499I0J237500D01*
G01*
X97909999Y-95712499D01*
G75*
G02*
X98147499Y-95474999I237500J0D01*
G01*
G37*
%TD*%
%TO.C,R1*%
G36*
G01*
X100657499Y-97299999D02*
X101132499Y-97299999D01*
G75*
G02*
X101369999Y-97537499I0J-237500D01*
G01*
X101369999Y-98037499D01*
G75*
G02*
X101132499Y-98274999I-237500J0D01*
G01*
X100657499Y-98274999D01*
G75*
G02*
X100419999Y-98037499I0J237500D01*
G01*
X100419999Y-97537499D01*
G75*
G02*
X100657499Y-97299999I237500J0D01*
G01*
G37*
G36*
G01*
X100657499Y-95474999D02*
X101132499Y-95474999D01*
G75*
G02*
X101369999Y-95712499I0J-237500D01*
G01*
X101369999Y-96212499D01*
G75*
G02*
X101132499Y-96449999I-237500J0D01*
G01*
X100657499Y-96449999D01*
G75*
G02*
X100419999Y-96212499I0J237500D01*
G01*
X100419999Y-95712499D01*
G75*
G02*
X100657499Y-95474999I237500J0D01*
G01*
G37*
%TD*%
D10*
%TO.C,Logo3*%
X126200000Y-83800000D03*
%TD*%
D11*
%TO.C,U1*%
X99975000Y-88125000D03*
%TD*%
D12*
%TO.C,J2*%
X108740000Y-96000000D03*
D13*
X106200000Y-96000000D03*
%TD*%
D12*
%TO.C,M3*%
X129200000Y-79700000D03*
X129200000Y-88200000D03*
D14*
X104220000Y-70800000D03*
X101680000Y-70800000D03*
X99140000Y-70800000D03*
X96600000Y-70800000D03*
%TD*%
D15*
%TO.C,M2*%
X92500000Y-65500000D03*
X92500000Y-97500000D03*
X132000000Y-97500000D03*
X132000000Y-65500000D03*
D14*
X92500000Y-89120000D03*
X92500000Y-86580000D03*
X92500000Y-84040000D03*
X92500000Y-81500000D03*
X92500000Y-78960000D03*
X92500000Y-76420000D03*
X92500000Y-73880000D03*
%TD*%
%TO.C,R9*%
G36*
G01*
X125925000Y-97850000D02*
X127175000Y-97850000D01*
G75*
G02*
X127425000Y-98100000I0J-250000D01*
G01*
X127425000Y-98900000D01*
G75*
G02*
X127175000Y-99150000I-250000J0D01*
G01*
X125925000Y-99150000D01*
G75*
G02*
X125675000Y-98900000I0J250000D01*
G01*
X125675000Y-98100000D01*
G75*
G02*
X125925000Y-97850000I250000J0D01*
G01*
G37*
G36*
G01*
X125925000Y-94750000D02*
X127175000Y-94750000D01*
G75*
G02*
X127425000Y-95000000I0J-250000D01*
G01*
X127425000Y-95800000D01*
G75*
G02*
X127175000Y-96050000I-250000J0D01*
G01*
X125925000Y-96050000D01*
G75*
G02*
X125675000Y-95800000I0J250000D01*
G01*
X125675000Y-95000000D01*
G75*
G02*
X125925000Y-94750000I250000J0D01*
G01*
G37*
%TD*%
%TO.C,R8*%
G36*
G01*
X123425000Y-97850000D02*
X124675000Y-97850000D01*
G75*
G02*
X124925000Y-98100000I0J-250000D01*
G01*
X124925000Y-98900000D01*
G75*
G02*
X124675000Y-99150000I-250000J0D01*
G01*
X123425000Y-99150000D01*
G75*
G02*
X123175000Y-98900000I0J250000D01*
G01*
X123175000Y-98100000D01*
G75*
G02*
X123425000Y-97850000I250000J0D01*
G01*
G37*
G36*
G01*
X123425000Y-94750000D02*
X124675000Y-94750000D01*
G75*
G02*
X124925000Y-95000000I0J-250000D01*
G01*
X124925000Y-95800000D01*
G75*
G02*
X124675000Y-96050000I-250000J0D01*
G01*
X123425000Y-96050000D01*
G75*
G02*
X123175000Y-95800000I0J250000D01*
G01*
X123175000Y-95000000D01*
G75*
G02*
X123425000Y-94750000I250000J0D01*
G01*
G37*
%TD*%
%TO.C,R7*%
G36*
G01*
X120925000Y-97850000D02*
X122175000Y-97850000D01*
G75*
G02*
X122425000Y-98100000I0J-250000D01*
G01*
X122425000Y-98900000D01*
G75*
G02*
X122175000Y-99150000I-250000J0D01*
G01*
X120925000Y-99150000D01*
G75*
G02*
X120675000Y-98900000I0J250000D01*
G01*
X120675000Y-98100000D01*
G75*
G02*
X120925000Y-97850000I250000J0D01*
G01*
G37*
G36*
G01*
X120925000Y-94750000D02*
X122175000Y-94750000D01*
G75*
G02*
X122425000Y-95000000I0J-250000D01*
G01*
X122425000Y-95800000D01*
G75*
G02*
X122175000Y-96050000I-250000J0D01*
G01*
X120925000Y-96050000D01*
G75*
G02*
X120675000Y-95800000I0J250000D01*
G01*
X120675000Y-95000000D01*
G75*
G02*
X120925000Y-94750000I250000J0D01*
G01*
G37*
%TD*%
%TO.C,R6*%
G36*
G01*
X118425000Y-97850000D02*
X119675000Y-97850000D01*
G75*
G02*
X119925000Y-98100000I0J-250000D01*
G01*
X119925000Y-98900000D01*
G75*
G02*
X119675000Y-99150000I-250000J0D01*
G01*
X118425000Y-99150000D01*
G75*
G02*
X118175000Y-98900000I0J250000D01*
G01*
X118175000Y-98100000D01*
G75*
G02*
X118425000Y-97850000I250000J0D01*
G01*
G37*
G36*
G01*
X118425000Y-94750000D02*
X119675000Y-94750000D01*
G75*
G02*
X119925000Y-95000000I0J-250000D01*
G01*
X119925000Y-95800000D01*
G75*
G02*
X119675000Y-96050000I-250000J0D01*
G01*
X118425000Y-96050000D01*
G75*
G02*
X118175000Y-95800000I0J250000D01*
G01*
X118175000Y-95000000D01*
G75*
G02*
X118425000Y-94750000I250000J0D01*
G01*
G37*
%TD*%
%TO.C,R5*%
G36*
G01*
X115925000Y-97850000D02*
X117175000Y-97850000D01*
G75*
G02*
X117425000Y-98100000I0J-250000D01*
G01*
X117425000Y-98900000D01*
G75*
G02*
X117175000Y-99150000I-250000J0D01*
G01*
X115925000Y-99150000D01*
G75*
G02*
X115675000Y-98900000I0J250000D01*
G01*
X115675000Y-98100000D01*
G75*
G02*
X115925000Y-97850000I250000J0D01*
G01*
G37*
G36*
G01*
X115925000Y-94750000D02*
X117175000Y-94750000D01*
G75*
G02*
X117425000Y-95000000I0J-250000D01*
G01*
X117425000Y-95800000D01*
G75*
G02*
X117175000Y-96050000I-250000J0D01*
G01*
X115925000Y-96050000D01*
G75*
G02*
X115675000Y-95800000I0J250000D01*
G01*
X115675000Y-95000000D01*
G75*
G02*
X115925000Y-94750000I250000J0D01*
G01*
G37*
%TD*%
%TO.C,R4*%
G36*
G01*
X113425000Y-97850000D02*
X114675000Y-97850000D01*
G75*
G02*
X114925000Y-98100000I0J-250000D01*
G01*
X114925000Y-98900000D01*
G75*
G02*
X114675000Y-99150000I-250000J0D01*
G01*
X113425000Y-99150000D01*
G75*
G02*
X113175000Y-98900000I0J250000D01*
G01*
X113175000Y-98100000D01*
G75*
G02*
X113425000Y-97850000I250000J0D01*
G01*
G37*
G36*
G01*
X113425000Y-94750000D02*
X114675000Y-94750000D01*
G75*
G02*
X114925000Y-95000000I0J-250000D01*
G01*
X114925000Y-95800000D01*
G75*
G02*
X114675000Y-96050000I-250000J0D01*
G01*
X113425000Y-96050000D01*
G75*
G02*
X113175000Y-95800000I0J250000D01*
G01*
X113175000Y-95000000D01*
G75*
G02*
X113425000Y-94750000I250000J0D01*
G01*
G37*
%TD*%
%TO.C,R3*%
G36*
G01*
X110925000Y-97850000D02*
X112175000Y-97850000D01*
G75*
G02*
X112425000Y-98100000I0J-250000D01*
G01*
X112425000Y-98900000D01*
G75*
G02*
X112175000Y-99150000I-250000J0D01*
G01*
X110925000Y-99150000D01*
G75*
G02*
X110675000Y-98900000I0J250000D01*
G01*
X110675000Y-98100000D01*
G75*
G02*
X110925000Y-97850000I250000J0D01*
G01*
G37*
G36*
G01*
X110925000Y-94750000D02*
X112175000Y-94750000D01*
G75*
G02*
X112425000Y-95000000I0J-250000D01*
G01*
X112425000Y-95800000D01*
G75*
G02*
X112175000Y-96050000I-250000J0D01*
G01*
X110925000Y-96050000D01*
G75*
G02*
X110675000Y-95800000I0J250000D01*
G01*
X110675000Y-95000000D01*
G75*
G02*
X110925000Y-94750000I250000J0D01*
G01*
G37*
%TD*%
D16*
%TO.C,J3*%
X126550000Y-93150000D03*
X124050000Y-93150000D03*
X121550000Y-93150000D03*
X119050000Y-93150000D03*
X116550000Y-93150000D03*
X114050000Y-93150000D03*
X111550000Y-93150000D03*
G36*
G01*
X108200000Y-93825000D02*
X108200000Y-92475000D01*
G75*
G02*
X108450000Y-92225000I250000J0D01*
G01*
X109650000Y-92225000D01*
G75*
G02*
X109900000Y-92475000I0J-250000D01*
G01*
X109900000Y-93825000D01*
G75*
G02*
X109650000Y-94075000I-250000J0D01*
G01*
X108450000Y-94075000D01*
G75*
G02*
X108200000Y-93825000I0J250000D01*
G01*
G37*
%TD*%
D14*
%TO.C,J1*%
X104075000Y-97905000D03*
X95425000Y-97905000D03*
D12*
X104075000Y-93725000D03*
X95425000Y-93725000D03*
%TD*%
M02*
