%TF.GenerationSoftware,KiCad,Pcbnew,(6.0.2-0)*%
%TF.CreationDate,2022-02-21T17:48:17+00:00*%
%TF.ProjectId,EnvMon2,456e764d-6f6e-4322-9e6b-696361645f70,4*%
%TF.SameCoordinates,Original*%
%TF.FileFunction,Copper,L1,Top*%
%TF.FilePolarity,Positive*%
%FSLAX46Y46*%
G04 Gerber Fmt 4.6, Leading zero omitted, Abs format (unit mm)*
G04 Created by KiCad (PCBNEW (6.0.2-0)) date 2022-02-21 17:48:17*
%MOMM*%
%LPD*%
G01*
G04 APERTURE LIST*
G04 Aperture macros list*
%AMRoundRect*
0 Rectangle with rounded corners*
0 $1 Rounding radius*
0 $2 $3 $4 $5 $6 $7 $8 $9 X,Y pos of 4 corners*
0 Add a 4 corners polygon primitive as box body*
4,1,4,$2,$3,$4,$5,$6,$7,$8,$9,$2,$3,0*
0 Add four circle primitives for the rounded corners*
1,1,$1+$1,$2,$3*
1,1,$1+$1,$4,$5*
1,1,$1+$1,$6,$7*
1,1,$1+$1,$8,$9*
0 Add four rect primitives between the rounded corners*
20,1,$1+$1,$2,$3,$4,$5,0*
20,1,$1+$1,$4,$5,$6,$7,0*
20,1,$1+$1,$6,$7,$8,$9,0*
20,1,$1+$1,$8,$9,$2,$3,0*%
%AMFreePoly0*
4,1,43,1.102950,0.110584,1.224483,0.068057,1.333507,-0.000447,1.424553,-0.091493,1.493057,-0.200517,1.535584,-0.322050,1.550000,-0.450000,1.533253,-0.512500,1.487500,-0.558253,1.425000,-0.575000,1.362500,-0.558253,1.316747,-0.512500,1.300000,-0.450000,1.302546,-0.440498,1.287946,-0.348318,1.241208,-0.256589,1.168411,-0.183792,1.076682,-0.137054,0.984502,-0.122454,0.975000,-0.125000,
-0.975000,-0.125000,-0.984502,-0.122454,-1.076682,-0.137054,-1.168411,-0.183792,-1.241208,-0.256589,-1.287946,-0.348318,-1.302546,-0.440498,-1.300000,-0.450000,-1.316747,-0.512500,-1.362500,-0.558253,-1.425000,-0.575000,-1.487500,-0.558253,-1.533253,-0.512500,-1.550000,-0.450000,-1.535584,-0.322050,-1.493057,-0.200517,-1.424553,-0.091493,-1.333507,-0.000447,-1.224483,0.068057,-1.102950,0.110584,
-0.975000,0.125000,0.975000,0.125000,1.102950,0.110584,1.102950,0.110584,$1*%
%AMFreePoly1*
4,1,24,1.812500,0.558253,1.858253,0.512500,1.875000,0.450000,1.860584,0.322050,1.818057,0.200517,1.749553,0.091493,1.658507,0.000447,1.549483,-0.068057,1.427950,-0.110584,1.300000,-0.125000,-1.300000,-0.125000,-1.300000,0.125000,1.300000,0.125000,1.309502,0.122454,1.401682,0.137054,1.493411,0.183792,1.566208,0.256589,1.612946,0.348318,1.627546,0.440498,1.625000,0.450000,
1.641747,0.512500,1.687500,0.558253,1.750000,0.575000,1.812500,0.558253,1.812500,0.558253,$1*%
%AMFreePoly2*
4,1,37,1.095671,1.230970,1.176777,1.176777,1.230970,1.095671,1.250000,1.000000,1.234611,0.804457,1.188821,0.613729,1.113759,0.432512,1.011272,0.265269,0.883885,0.116117,0.734733,-0.011271,0.567490,-0.113758,0.386273,-0.188820,0.195545,-0.234610,0.000002,-0.250000,-0.095669,-0.230970,-0.176775,-0.176777,-0.230968,-0.095671,-0.249998,0.000000,-0.230968,0.095671,-0.176775,0.176777,
-0.095669,0.230970,0.000002,0.250000,0.012204,0.247573,0.147027,0.260852,0.288403,0.303738,0.418695,0.373381,0.532897,0.467104,0.626620,0.581306,0.696263,0.711599,0.739148,0.852974,0.752427,0.987798,0.750000,1.000000,0.769030,1.095671,0.823223,1.176777,0.904329,1.230970,1.000000,1.250000,1.095671,1.230970,1.095671,1.230970,$1*%
%AMFreePoly3*
4,1,72,4.686563,7.086550,4.817878,7.046716,4.938899,6.982029,5.044975,6.894975,5.132029,6.788899,5.196716,6.667878,5.236550,6.536563,5.250000,6.400000,5.250000,1.600000,5.230970,1.504329,5.176777,1.423223,5.112500,1.380275,5.112500,0.250000,6.600000,0.250000,6.695671,0.230970,6.776777,0.176777,6.830970,0.095671,6.850000,0.000000,6.830970,-0.095671,6.776777,-0.176777,
6.695671,-0.230970,6.600000,-0.250000,0.000000,-0.250000,-0.095671,-0.230970,-0.176777,-0.176777,-0.230970,-0.095671,-0.250000,0.000000,-0.230970,0.095671,-0.176777,0.176777,-0.095671,0.230970,0.000000,0.250000,4.612500,0.250000,4.612500,1.600000,4.631530,1.695671,4.685723,1.776777,4.750000,1.819725,4.750000,6.400000,4.751388,6.406978,4.742582,6.462574,4.713820,6.519022,
4.669022,6.563820,4.612574,6.592582,4.556978,6.601388,4.550000,6.600000,1.550000,6.600000,1.543022,6.601388,1.487426,6.592582,1.430978,6.563820,1.386180,6.519022,1.357418,6.462574,1.348612,6.406978,1.350000,6.400000,1.350000,5.900000,1.330970,5.804329,1.276777,5.723223,1.195671,5.669030,1.100000,5.650000,1.004329,5.669030,0.923223,5.723223,0.869030,5.804329,
0.850000,5.900000,0.850000,6.400000,0.863450,6.536563,0.903284,6.667878,0.967971,6.788899,1.055025,6.894975,1.161101,6.982029,1.282122,7.046716,1.413437,7.086550,1.550000,7.100000,4.550000,7.100000,4.686563,7.086550,4.686563,7.086550,$1*%
%AMFreePoly4*
4,1,136,3.383385,4.221938,3.559722,4.168447,3.722236,4.081581,3.864680,3.964680,3.981581,3.822236,4.068447,3.659722,4.121938,3.483385,4.125213,3.450138,4.182769,3.539508,4.186818,3.554319,4.232803,3.599839,4.295387,3.616268,4.357802,3.599205,4.403322,3.553220,4.419751,3.490636,4.402688,3.428221,4.402685,3.428218,4.172864,3.069999,4.056927,2.918726,3.981581,2.777764,
3.864680,2.635320,3.750000,2.541204,3.750000,0.022998,4.066621,-0.229499,4.408387,-0.546611,4.440740,-0.602647,4.440740,-0.667351,4.408387,-0.723387,4.352351,-0.755740,4.287647,-0.755740,4.231611,-0.723387,4.223834,-0.709917,3.889556,-0.400914,3.520256,-0.109781,3.483169,-0.085000,2.500000,-0.085000,2.500000,-1.185000,3.750000,-1.185000,3.750000,-2.745000,-3.750000,-2.745000,
-3.750000,-1.185000,-2.500000,-1.185000,-2.500000,-0.085000,-3.483168,-0.085000,-3.520257,-0.109782,-3.889557,-0.400914,-4.223835,-0.709917,-4.231612,-0.723388,-4.287648,-0.755741,-4.352352,-0.755741,-4.408388,-0.723388,-4.440741,-0.667352,-4.440741,-0.602648,-4.408388,-0.546612,-4.066622,-0.229500,-3.750000,0.022998,-3.750000,2.541204,-3.864680,2.635320,-3.981581,2.777764,-4.057059,2.918973,
-4.182136,3.083248,-4.410822,3.442198,-4.427688,3.504666,-4.411060,3.567198,-4.365394,3.613038,-4.302926,3.629904,-4.240394,3.613276,-4.194554,3.567610,-4.190552,3.552787,-4.125171,3.450557,-4.121938,3.483385,-4.068447,3.659722,-3.981581,3.822236,-3.864680,3.964680,-3.722236,4.081581,-3.559722,4.168447,-3.383385,4.221938,-3.200000,4.240000,-3.137500,4.223253,-3.091747,4.177500,
-3.075000,4.115000,-3.091747,4.052500,-3.137500,4.006747,-3.200000,3.990000,-3.211471,3.993074,-3.354511,3.976957,-3.501274,3.925602,-3.632930,3.842877,-3.742877,3.732930,-3.825602,3.601274,-3.876957,3.454511,-3.894366,3.300000,-3.876957,3.145489,-3.839657,3.038894,-3.713800,2.875371,-3.594054,2.745000,-2.998152,2.745000,-3.015000,3.045000,-2.998253,3.107500,-2.952500,3.153253,
-2.890000,3.170000,-2.827500,3.153253,-2.781747,3.107500,-2.765000,3.045000,-2.768849,3.030634,-2.752213,2.745000,2.752213,2.745000,2.768849,3.030634,2.765000,3.045000,2.781747,3.107500,2.827500,3.153253,2.890000,3.170000,2.952500,3.153253,2.998253,3.107500,3.015000,3.045000,2.998152,2.745000,3.594234,2.745000,3.703871,2.863608,3.839648,3.038866,3.876957,3.145489,
3.894366,3.300000,3.876957,3.454511,3.825602,3.601274,3.742877,3.732930,3.632930,3.842877,3.501274,3.925602,3.354511,3.976957,3.211471,3.993074,3.200000,3.990000,3.137500,4.006747,3.091747,4.052500,3.075000,4.115000,3.091747,4.177500,3.137500,4.223253,3.200000,4.240000,3.383385,4.221938,3.383385,4.221938,$1*%
%AMFreePoly5*
4,1,18,-0.124998,0.730000,0.725000,0.730000,0.728536,0.728536,0.730000,0.725000,0.730000,-0.725000,0.728536,-0.728536,0.725000,-0.730000,-0.725000,-0.730000,-0.728536,-0.728536,-0.730000,-0.725000,-0.730000,0.124998,-0.730001,0.125000,-0.728536,0.128536,-0.128536,0.728535,-0.128536,0.728536,-0.126768,0.729268,-0.125000,0.730001,-0.124998,0.730000,-0.124998,0.730000,$1*%
G04 Aperture macros list end*
%TA.AperFunction,ComponentPad*%
%ADD10C,1.700000*%
%TD*%
%TA.AperFunction,ComponentPad*%
%ADD11C,5.000000*%
%TD*%
%TA.AperFunction,ComponentPad*%
%ADD12RoundRect,0.250000X-0.600000X-0.675000X0.600000X-0.675000X0.600000X0.675000X-0.600000X0.675000X0*%
%TD*%
%TA.AperFunction,ComponentPad*%
%ADD13O,1.700000X1.850000*%
%TD*%
%TA.AperFunction,SMDPad,CuDef*%
%ADD14RoundRect,0.062500X-0.350000X-0.062500X0.350000X-0.062500X0.350000X0.062500X-0.350000X0.062500X0*%
%TD*%
%TA.AperFunction,SMDPad,CuDef*%
%ADD15RoundRect,0.062500X-0.062500X-0.350000X0.062500X-0.350000X0.062500X0.350000X-0.062500X0.350000X0*%
%TD*%
%TA.AperFunction,SMDPad,CuDef*%
%ADD16R,2.500000X2.500000*%
%TD*%
%TA.AperFunction,SMDPad,CuDef*%
%ADD17R,1.500000X0.800000*%
%TD*%
%TA.AperFunction,SMDPad,CuDef*%
%ADD18R,0.800000X1.500000*%
%TD*%
%TA.AperFunction,SMDPad,CuDef*%
%ADD19R,2.400000X2.400000*%
%TD*%
%TA.AperFunction,SMDPad,CuDef*%
%ADD20RoundRect,0.200000X-0.275000X0.200000X-0.275000X-0.200000X0.275000X-0.200000X0.275000X0.200000X0*%
%TD*%
%TA.AperFunction,SMDPad,CuDef*%
%ADD21RoundRect,0.237500X-0.250000X-0.237500X0.250000X-0.237500X0.250000X0.237500X-0.250000X0.237500X0*%
%TD*%
%TA.AperFunction,SMDPad,CuDef*%
%ADD22RoundRect,0.200000X0.200000X0.275000X-0.200000X0.275000X-0.200000X-0.275000X0.200000X-0.275000X0*%
%TD*%
%TA.AperFunction,SMDPad,CuDef*%
%ADD23R,0.500000X0.850000*%
%TD*%
%TA.AperFunction,SMDPad,CuDef*%
%ADD24FreePoly0,0.000000*%
%TD*%
%TA.AperFunction,SMDPad,CuDef*%
%ADD25R,0.600000X1.100000*%
%TD*%
%TA.AperFunction,SMDPad,CuDef*%
%ADD26R,1.425000X3.700000*%
%TD*%
%TA.AperFunction,SMDPad,CuDef*%
%ADD27RoundRect,0.225000X0.250000X-0.225000X0.250000X0.225000X-0.250000X0.225000X-0.250000X-0.225000X0*%
%TD*%
%TA.AperFunction,SMDPad,CuDef*%
%ADD28R,2.000000X0.500000*%
%TD*%
%TA.AperFunction,SMDPad,CuDef*%
%ADD29R,0.500000X2.000000*%
%TD*%
%TA.AperFunction,SMDPad,CuDef*%
%ADD30RoundRect,0.249375X-0.463125X-0.625625X0.463125X-0.625625X0.463125X0.625625X-0.463125X0.625625X0*%
%TD*%
%TA.AperFunction,SMDPad,CuDef*%
%ADD31FreePoly1,0.000000*%
%TD*%
%TA.AperFunction,SMDPad,CuDef*%
%ADD32RoundRect,0.250000X-0.475000X0.250000X-0.475000X-0.250000X0.475000X-0.250000X0.475000X0.250000X0*%
%TD*%
%TA.AperFunction,SMDPad,CuDef*%
%ADD33FreePoly2,0.000000*%
%TD*%
%TA.AperFunction,SMDPad,CuDef*%
%ADD34FreePoly3,0.000000*%
%TD*%
%TA.AperFunction,SMDPad,CuDef*%
%ADD35R,0.500000X4.000000*%
%TD*%
%TA.AperFunction,SMDPad,CuDef*%
%ADD36RoundRect,0.250000X-0.375000X-0.625000X0.375000X-0.625000X0.375000X0.625000X-0.375000X0.625000X0*%
%TD*%
%TA.AperFunction,SMDPad,CuDef*%
%ADD37RoundRect,0.225000X0.225000X0.250000X-0.225000X0.250000X-0.225000X-0.250000X0.225000X-0.250000X0*%
%TD*%
%TA.AperFunction,SMDPad,CuDef*%
%ADD38RoundRect,0.200000X-0.200000X-0.275000X0.200000X-0.275000X0.200000X0.275000X-0.200000X0.275000X0*%
%TD*%
%TA.AperFunction,ComponentPad*%
%ADD39R,1.500000X1.050000*%
%TD*%
%TA.AperFunction,ComponentPad*%
%ADD40O,1.500000X1.050000*%
%TD*%
%TA.AperFunction,SMDPad,CuDef*%
%ADD41RoundRect,0.237500X-0.237500X0.250000X-0.237500X-0.250000X0.237500X-0.250000X0.237500X0.250000X0*%
%TD*%
%TA.AperFunction,SMDPad,CuDef*%
%ADD42R,0.600000X1.140000*%
%TD*%
%TA.AperFunction,SMDPad,CuDef*%
%ADD43RoundRect,0.075000X-0.075000X-0.495000X0.075000X-0.495000X0.075000X0.495000X-0.075000X0.495000X0*%
%TD*%
%TA.AperFunction,ComponentPad*%
%ADD44C,1.250000*%
%TD*%
%TA.AperFunction,ComponentPad*%
%ADD45C,1.500000*%
%TD*%
%TA.AperFunction,SMDPad,CuDef*%
%ADD46R,5.000000X5.490000*%
%TD*%
%TA.AperFunction,ComponentPad*%
%ADD47C,0.600000*%
%TD*%
%TA.AperFunction,SMDPad,CuDef*%
%ADD48FreePoly4,0.000000*%
%TD*%
%TA.AperFunction,SMDPad,CuDef*%
%ADD49R,0.400000X0.800000*%
%TD*%
%TA.AperFunction,SMDPad,CuDef*%
%ADD50R,0.800000X0.400000*%
%TD*%
%TA.AperFunction,SMDPad,CuDef*%
%ADD51R,1.450000X1.450000*%
%TD*%
%TA.AperFunction,SMDPad,CuDef*%
%ADD52R,0.700000X0.700000*%
%TD*%
%TA.AperFunction,SMDPad,CuDef*%
%ADD53FreePoly5,270.000000*%
%TD*%
%TA.AperFunction,SMDPad,CuDef*%
%ADD54RoundRect,0.237500X0.250000X0.237500X-0.250000X0.237500X-0.250000X-0.237500X0.250000X-0.237500X0*%
%TD*%
%TA.AperFunction,ViaPad*%
%ADD55C,0.800000*%
%TD*%
%TA.AperFunction,Conductor*%
%ADD56C,0.250000*%
%TD*%
%TA.AperFunction,Conductor*%
%ADD57C,0.500000*%
%TD*%
%TA.AperFunction,Conductor*%
%ADD58C,0.200000*%
%TD*%
G04 APERTURE END LIST*
D10*
%TO.P,M1,1,Vcc*%
%TO.N,+3V3*%
X128250000Y-87380000D03*
%TO.P,M1,2,GND*%
%TO.N,GND*%
X128250000Y-89920000D03*
%TO.P,M1,3,DIN*%
%TO.N,OLED-MOSI*%
X128250000Y-92460000D03*
%TO.P,M1,4,CLK*%
%TO.N,OLED-SCLK*%
X128250000Y-95000000D03*
%TO.P,M1,5,CS*%
%TO.N,OLED-CS0*%
X128250000Y-97540000D03*
%TO.P,M1,6,DC*%
%TO.N,OLED-DC*%
X128250000Y-100080000D03*
%TO.P,M1,7,RST*%
%TO.N,OLED-RST*%
X128250000Y-102620000D03*
D11*
%TO.P,M1,*%
%TO.N,*%
X167750000Y-111000000D03*
%TO.P,M1,S,SCREWS*%
%TO.N,GND*%
X128250000Y-79000000D03*
%TO.P,M1,*%
%TO.N,*%
X167750000Y-79000000D03*
%TO.P,M1,S,SCREWS*%
%TO.N,GND*%
X128250000Y-111000000D03*
%TD*%
D12*
%TO.P,J2,1,Pin_1*%
%TO.N,GND*%
X143500000Y-107150000D03*
D13*
%TO.P,J2,2,Pin_2*%
%TO.N,DC*%
X146000000Y-107150000D03*
%TD*%
D14*
%TO.P,U3,1,RXD*%
%TO.N,RX*%
X132312500Y-97000000D03*
%TO.P,U3,2,~{RI}*%
%TO.N,GND*%
X132312500Y-97500000D03*
%TO.P,U3,3,GND*%
X132312500Y-98000000D03*
%TO.P,U3,4,~{DSR}*%
X132312500Y-98500000D03*
%TO.P,U3,5,~{DCD}*%
X132312500Y-99000000D03*
D15*
%TO.P,U3,6,~{CTS}*%
X133250000Y-99937500D03*
%TO.P,U3,7,CBUS2*%
%TO.N,unconnected-(U3-Pad7)*%
X133750000Y-99937500D03*
%TO.P,U3,8,USBDP*%
%TO.N,D+*%
X134250000Y-99937500D03*
%TO.P,U3,9,USBDM*%
%TO.N,D-*%
X134750000Y-99937500D03*
%TO.P,U3,10,3V3OUT*%
%TO.N,+3V3*%
X135250000Y-99937500D03*
D14*
%TO.P,U3,11,~{RESET}*%
X136187500Y-99000000D03*
%TO.P,U3,12,VCC*%
X136187500Y-98500000D03*
%TO.P,U3,13,GND*%
%TO.N,GND*%
X136187500Y-98000000D03*
%TO.P,U3,14,CBUS1*%
%TO.N,unconnected-(U3-Pad14)*%
X136187500Y-97500000D03*
%TO.P,U3,15,CBUS0*%
%TO.N,unconnected-(U3-Pad15)*%
X136187500Y-97000000D03*
D15*
%TO.P,U3,16,CBUS3*%
%TO.N,Net-(R8-Pad2)*%
X135250000Y-96062500D03*
%TO.P,U3,17,TXD*%
%TO.N,TX*%
X134750000Y-96062500D03*
%TO.P,U3,18,~{DTR}*%
%TO.N,unconnected-(U3-Pad18)*%
X134250000Y-96062500D03*
%TO.P,U3,19,~{RTS}*%
%TO.N,EN*%
X133750000Y-96062500D03*
%TO.P,U3,20,VCCIO*%
%TO.N,+3V3*%
X133250000Y-96062500D03*
D16*
%TO.P,U3,21,GND*%
%TO.N,GND*%
X134250000Y-98000000D03*
%TD*%
D17*
%TO.P,U2,1,DNC*%
%TO.N,unconnected-(U2-Pad1)*%
X124500000Y-110500000D03*
%TO.P,U2,2,DNC*%
%TO.N,unconnected-(U2-Pad2)*%
X124500000Y-109250000D03*
%TO.P,U2,3*%
%TO.N,N/C*%
X124500000Y-108000000D03*
%TO.P,U2,4,DNC*%
%TO.N,unconnected-(U2-Pad4)*%
X124500000Y-106750000D03*
%TO.P,U2,5,DNC*%
%TO.N,unconnected-(U2-Pad5)*%
X124500000Y-105500000D03*
D18*
%TO.P,U2,6,GND*%
%TO.N,GND*%
X123000000Y-104000000D03*
%TO.P,U2,7,VDD*%
%TO.N,+3V3*%
X121750000Y-104000000D03*
%TO.P,U2,8,DNC*%
%TO.N,unconnected-(U2-Pad8)*%
X120500000Y-104000000D03*
%TO.P,U2,9,SCL*%
%TO.N,CO2-SCL*%
X119250000Y-104000000D03*
%TO.P,U2,10,SDA*%
%TO.N,CO2-SDA*%
X118000000Y-104000000D03*
D17*
%TO.P,U2,11,DNC*%
%TO.N,unconnected-(U2-Pad11)*%
X116500000Y-105500000D03*
%TO.P,U2,12,DNC*%
%TO.N,unconnected-(U2-Pad12)*%
X116500000Y-106750000D03*
%TO.P,U2,13,DNC*%
%TO.N,unconnected-(U2-Pad13)*%
X116500000Y-108000000D03*
%TO.P,U2,14,DNC*%
%TO.N,unconnected-(U2-Pad14)*%
X116500000Y-109250000D03*
%TO.P,U2,15,DNC*%
%TO.N,unconnected-(U2-Pad15)*%
X116500000Y-110500000D03*
D18*
%TO.P,U2,16,DNC*%
%TO.N,unconnected-(U2-Pad16)*%
X118000000Y-112000000D03*
%TO.P,U2,17,DNC*%
%TO.N,unconnected-(U2-Pad17)*%
X119250000Y-112000000D03*
%TO.P,U2,18,DNC*%
%TO.N,unconnected-(U2-Pad18)*%
X120500000Y-112000000D03*
%TO.P,U2,19,VDDH*%
%TO.N,unconnected-(U2-Pad19)*%
X121750000Y-112000000D03*
%TO.P,U2,20,GND*%
%TO.N,GND*%
X123000000Y-112000000D03*
D19*
%TO.P,U2,21,GND*%
X119300000Y-109200000D03*
X119300000Y-106800000D03*
X121700000Y-109200000D03*
X121700000Y-106800000D03*
%TD*%
D20*
%TO.P,R6,1*%
%TO.N,Net-(D3-Pad3)*%
X129000000Y-82675000D03*
%TO.P,R6,2*%
%TO.N,G*%
X129000000Y-84325000D03*
%TD*%
D21*
%TO.P,R4,1*%
%TO.N,Net-(J1-PadB5)*%
X137837500Y-105500000D03*
%TO.P,R4,2*%
%TO.N,GND*%
X139662500Y-105500000D03*
%TD*%
D22*
%TO.P,R1,1*%
%TO.N,+3V3*%
X147075000Y-96250000D03*
%TO.P,R1,2*%
%TO.N,Net-(R1-Pad2)*%
X145425000Y-96250000D03*
%TD*%
D23*
%TO.P,D3,1,A*%
%TO.N,+3V3*%
X126750000Y-84375000D03*
%TO.P,D3,2,RK*%
%TO.N,Net-(D3-Pad2)*%
X126750000Y-82625000D03*
%TO.P,D3,3,GK*%
%TO.N,Net-(D3-Pad3)*%
X127750000Y-82625000D03*
%TO.P,D3,4,BK*%
%TO.N,Net-(D3-Pad4)*%
X127750000Y-84375000D03*
%TD*%
D22*
%TO.P,R2,1*%
%TO.N,GND*%
X144075000Y-96250000D03*
%TO.P,R2,2*%
%TO.N,Net-(R1-Pad2)*%
X142425000Y-96250000D03*
%TD*%
D24*
%TO.P,U1,*%
%TO.N,*%
X141825000Y-100200000D03*
D25*
X143250000Y-98400000D03*
X143250000Y-101100000D03*
D26*
X144700000Y-99800000D03*
D27*
X140200000Y-100775000D03*
X140200000Y-99225000D03*
D28*
X144200000Y-101100000D03*
D29*
X143250000Y-102050000D03*
D30*
X143097500Y-102920000D03*
D31*
X141500000Y-99300000D03*
D25*
%TO.P,U1,1,SHDN*%
%TO.N,DC*%
X141350000Y-101100000D03*
D32*
%TO.P,U1,2,VIN*%
X141450000Y-102350000D03*
D33*
X141240000Y-102300000D03*
D25*
X142300000Y-101100000D03*
D32*
%TO.P,U1,3,GND*%
%TO.N,GND*%
X141450000Y-104250000D03*
D34*
X141200000Y-104250000D03*
D30*
X146062500Y-102920000D03*
D25*
X142300000Y-98400000D03*
D32*
X147700000Y-104250000D03*
D26*
%TO.P,U1,4,VOUT*%
%TO.N,+3V3*%
X147700000Y-99800000D03*
D32*
X147700000Y-102350000D03*
D35*
X147700000Y-100550000D03*
D25*
%TO.P,U1,5,FB*%
%TO.N,Net-(R1-Pad2)*%
X141350000Y-98400000D03*
%TD*%
D36*
%TO.P,D2,1,K*%
%TO.N,DC*%
X126850000Y-107000000D03*
%TO.P,D2,2,A*%
%TO.N,VBUS*%
X129650000Y-107000000D03*
%TD*%
D20*
%TO.P,R5,1*%
%TO.N,Net-(D3-Pad2)*%
X130250000Y-82675000D03*
%TO.P,R5,2*%
%TO.N,R*%
X130250000Y-84325000D03*
%TD*%
D37*
%TO.P,C4,1*%
%TO.N,GND*%
X131775000Y-103750000D03*
%TO.P,C4,2*%
%TO.N,VBUS*%
X130225000Y-103750000D03*
%TD*%
D38*
%TO.P,R8,1*%
%TO.N,VBUS*%
X130175000Y-102500000D03*
%TO.P,R8,2*%
%TO.N,Net-(R8-Pad2)*%
X131825000Y-102500000D03*
%TD*%
D39*
%TO.P,U4,1,GND*%
%TO.N,GND*%
X118000000Y-80750000D03*
D40*
%TO.P,U4,2,DQ*%
%TO.N,TEMP*%
X118000000Y-79480000D03*
%TO.P,U4,3,VDD*%
%TO.N,+3V3*%
X118000000Y-78210000D03*
%TD*%
D41*
%TO.P,R10,1*%
%TO.N,+3V3*%
X121000000Y-78087500D03*
%TO.P,R10,2*%
%TO.N,TEMP*%
X121000000Y-79912500D03*
%TD*%
D38*
%TO.P,R7,1*%
%TO.N,Net-(D3-Pad4)*%
X127925000Y-85500000D03*
%TO.P,R7,2*%
%TO.N,B*%
X129575000Y-85500000D03*
%TD*%
D42*
%TO.P,J1,A1,GND*%
%TO.N,GND*%
X133050000Y-106890000D03*
%TO.P,J1,A4,VBUS*%
%TO.N,VBUS*%
X133850000Y-106890000D03*
D43*
%TO.P,J1,A5,CC1*%
%TO.N,Net-(J1-PadA5)*%
X135000000Y-106890000D03*
%TO.P,J1,A6,D+*%
%TO.N,D+*%
X136000000Y-106890000D03*
%TO.P,J1,A7,D-*%
%TO.N,D-*%
X136500000Y-106890000D03*
%TO.P,J1,A8,SBU1*%
%TO.N,unconnected-(J1-PadA8)*%
X137500000Y-106890000D03*
D42*
%TO.P,J1,A9,VBUS*%
%TO.N,VBUS*%
X138650000Y-106890000D03*
%TO.P,J1,A12,GND*%
%TO.N,GND*%
X139450000Y-106890000D03*
%TO.P,J1,B1,GND*%
X139450000Y-106890000D03*
%TO.P,J1,B4,VBUS*%
%TO.N,VBUS*%
X138650000Y-106890000D03*
D43*
%TO.P,J1,B5,CC2*%
%TO.N,Net-(J1-PadB5)*%
X138000000Y-106890000D03*
%TO.P,J1,B6,D+*%
%TO.N,D+*%
X137000000Y-106890000D03*
%TO.P,J1,B7,D-*%
%TO.N,D-*%
X135500000Y-106890000D03*
%TO.P,J1,B8,SBU2*%
%TO.N,unconnected-(J1-PadB8)*%
X134500000Y-106890000D03*
D42*
%TO.P,J1,B9,VBUS*%
%TO.N,VBUS*%
X133850000Y-106890000D03*
%TO.P,J1,B12,GND*%
%TO.N,GND*%
X133050000Y-106890000D03*
D44*
%TO.P,J1,S1,SHIELD*%
X140570000Y-111640000D03*
D45*
X140570000Y-107470000D03*
X131930000Y-107470000D03*
D46*
X136250000Y-111005000D03*
D47*
X139140000Y-107960000D03*
X133360000Y-107960000D03*
D44*
X131930000Y-111640000D03*
D48*
X136250000Y-111005000D03*
%TD*%
D22*
%TO.P,R9,1*%
%TO.N,Net-(R8-Pad2)*%
X131825000Y-101250000D03*
%TO.P,R9,2*%
%TO.N,GND*%
X130175000Y-101250000D03*
%TD*%
D49*
%TO.P,U5,1,GND*%
%TO.N,GND*%
X140556750Y-77350000D03*
%TO.P,U5,2,GND*%
X139756750Y-77350000D03*
%TO.P,U5,3,3V3*%
%TO.N,+3V3*%
X138956750Y-77350000D03*
%TO.P,U5,4,I36*%
%TO.N,unconnected-(U5-Pad4)*%
X138156750Y-77350000D03*
%TO.P,U5,5,I37*%
%TO.N,unconnected-(U5-Pad5)*%
X137356750Y-77350000D03*
%TO.P,U5,6,I38*%
%TO.N,unconnected-(U5-Pad6)*%
X136556750Y-77350000D03*
%TO.P,U5,7,I39*%
%TO.N,unconnected-(U5-Pad7)*%
X135756750Y-77350000D03*
%TO.P,U5,8,EN*%
%TO.N,unconnected-(U5-Pad8)*%
X134956750Y-77350000D03*
%TO.P,U5,9,I34*%
%TO.N,unconnected-(U5-Pad9)*%
X134156750Y-77350000D03*
%TO.P,U5,10,I35*%
%TO.N,unconnected-(U5-Pad10)*%
X133356750Y-77350000D03*
%TO.P,U5,11,GND*%
%TO.N,GND*%
X132556750Y-77350000D03*
D50*
%TO.P,U5,12,IO32*%
%TO.N,unconnected-(U5-Pad12)*%
X131656750Y-78450000D03*
%TO.P,U5,13,IO33*%
%TO.N,unconnected-(U5-Pad13)*%
X131656750Y-79250000D03*
%TO.P,U5,14,GND*%
%TO.N,GND*%
X131656750Y-80050000D03*
%TO.P,U5,15,IO25*%
%TO.N,unconnected-(U5-Pad15)*%
X131656750Y-80850000D03*
%TO.P,U5,16,IO26*%
%TO.N,unconnected-(U5-Pad16)*%
X131656750Y-81650000D03*
%TO.P,U5,17,IO27*%
%TO.N,unconnected-(U5-Pad17)*%
X131656750Y-82450000D03*
%TO.P,U5,18,IO14*%
%TO.N,unconnected-(U5-Pad18)*%
X131656750Y-83250000D03*
%TO.P,U5,19,IO12*%
%TO.N,unconnected-(U5-Pad19)*%
X131656750Y-84050000D03*
%TO.P,U5,20,IO13*%
%TO.N,unconnected-(U5-Pad20)*%
X131656750Y-84850000D03*
%TO.P,U5,21,IO15*%
%TO.N,unconnected-(U5-Pad21)*%
X131656750Y-85650000D03*
%TO.P,U5,22,IO2*%
%TO.N,unconnected-(U5-Pad22)*%
X131656750Y-86450000D03*
%TO.P,U5,23,IO0*%
%TO.N,unconnected-(U5-Pad23)*%
X131656750Y-87250000D03*
%TO.P,U5,24,IO4*%
%TO.N,TEMP*%
X131656750Y-88050000D03*
D49*
%TO.P,U5,25,NC*%
%TO.N,unconnected-(U5-Pad25)*%
X132556750Y-89150000D03*
%TO.P,U5,26,IO20*%
%TO.N,unconnected-(U5-Pad26)*%
X133356750Y-89150000D03*
%TO.P,U5,27,IO7*%
%TO.N,unconnected-(U5-Pad27)*%
X134156750Y-89150000D03*
%TO.P,U5,28,IO8*%
%TO.N,unconnected-(U5-Pad28)*%
X134956750Y-89150000D03*
%TO.P,U5,29,IO5*%
%TO.N,unconnected-(U5-Pad29)*%
X135756750Y-89150000D03*
%TO.P,U5,30,RXD0*%
%TO.N,unconnected-(U5-Pad30)*%
X136556750Y-89150000D03*
%TO.P,U5,31,TXD0*%
%TO.N,unconnected-(U5-Pad31)*%
X137356750Y-89150000D03*
%TO.P,U5,32,NC*%
%TO.N,unconnected-(U5-Pad32)*%
X138156750Y-89150000D03*
%TO.P,U5,33,IO19*%
%TO.N,unconnected-(U5-Pad33)*%
X138956750Y-89150000D03*
%TO.P,U5,34,IO22*%
%TO.N,unconnected-(U5-Pad34)*%
X139756750Y-89150000D03*
%TO.P,U5,35,IO21*%
%TO.N,unconnected-(U5-Pad35)*%
X140556750Y-89150000D03*
D50*
%TO.P,U5,36,GND*%
%TO.N,GND*%
X141456750Y-88050000D03*
%TO.P,U5,37,GND*%
X141456750Y-87250000D03*
%TO.P,U5,38,GND*%
X141456750Y-86450000D03*
%TO.P,U5,39,GND*%
X141456750Y-85650000D03*
%TO.P,U5,40,GND*%
X141456750Y-84850000D03*
%TO.P,U5,41,GND*%
X141456750Y-84050000D03*
%TO.P,U5,42,GND*%
X141456750Y-83250000D03*
%TO.P,U5,43,GND*%
X141456750Y-82450000D03*
%TO.P,U5,44,GND*%
X141456750Y-81650000D03*
%TO.P,U5,45,GND*%
X141456750Y-80850000D03*
%TO.P,U5,46,GND*%
X141456750Y-80050000D03*
%TO.P,U5,47,GND*%
X141456750Y-79250000D03*
%TO.P,U5,48,GND*%
X141456750Y-78450000D03*
D51*
%TO.P,U5,49,GND*%
X136556750Y-83250000D03*
D52*
%TO.P,U5,50,GND*%
X141506750Y-89200000D03*
%TO.P,U5,51,GND*%
X131606750Y-89200000D03*
%TO.P,U5,52,GND*%
X131606750Y-77300000D03*
%TO.P,U5,53,GND*%
X141506750Y-77300000D03*
D51*
%TO.P,U5,54,GND*%
X136556750Y-81300000D03*
%TO.P,U5,55,GND*%
X134606750Y-81300000D03*
%TO.P,U5,56,GND*%
X134606750Y-83250000D03*
%TO.P,U5,57,GND*%
X134606750Y-85200000D03*
%TO.P,U5,58,GND*%
X136556750Y-85200000D03*
%TO.P,U5,59,GND*%
X138506750Y-85200000D03*
%TO.P,U5,60,GND*%
X138506750Y-83250000D03*
D53*
%TO.P,U5,61,GND*%
X138506750Y-81300000D03*
%TD*%
D54*
%TO.P,R3,1*%
%TO.N,Net-(J1-PadA5)*%
X134662500Y-105500000D03*
%TO.P,R3,2*%
%TO.N,GND*%
X132837500Y-105500000D03*
%TD*%
D55*
%TO.N,TEMP*%
X132500000Y-88000000D03*
X119000000Y-101000000D03*
%TO.N,GND*%
X116000000Y-102000000D03*
%TO.N,+3V3*%
X121800000Y-102700000D03*
X139000000Y-78250000D03*
X138000000Y-98500000D03*
X148000000Y-96250000D03*
%TO.N,GND*%
X144500000Y-103000000D03*
%TO.N,D+*%
X137750000Y-104250000D03*
X136000000Y-103500000D03*
%TO.N,D-*%
X136750000Y-104250000D03*
X135250000Y-104250000D03*
%TO.N,DC*%
X126693825Y-105698092D03*
X140250000Y-102250000D03*
%TO.N,Net-(R8-Pad2)*%
X136250000Y-96250000D03*
X132750000Y-101250000D03*
%TO.N,+3V3*%
X132250000Y-96000000D03*
X136250000Y-100000000D03*
%TD*%
D56*
%TO.N,TEMP*%
X117000000Y-100250000D02*
X118250000Y-100250000D01*
X131656750Y-88050000D02*
X132450000Y-88050000D01*
%TO.N,DC*%
X126850000Y-107000000D02*
X126693825Y-106843825D01*
%TO.N,TEMP*%
X132500000Y-88000000D02*
G75*
G02*
X132450000Y-88050000I-50001J1D01*
G01*
%TO.N,DC*%
X126693825Y-106843825D02*
X126693825Y-105698092D01*
%TO.N,TEMP*%
X118250000Y-100250000D02*
G75*
G02*
X119000000Y-101000000I0J-750000D01*
G01*
X122000000Y-90750000D02*
X120500000Y-90750000D01*
X115250000Y-92500000D02*
G75*
G02*
X117000000Y-90750000I1750000J0D01*
G01*
X117000000Y-88250000D02*
X119250000Y-88250000D01*
X122000000Y-90750000D02*
G75*
G03*
X123250000Y-89500000I-2J1250002D01*
G01*
X120500000Y-90750000D02*
X117000000Y-90750000D01*
X120000000Y-94250000D02*
X122000000Y-94250000D01*
X119250000Y-96750000D02*
X117000000Y-96750000D01*
X122000000Y-84750000D02*
X121750000Y-84750000D01*
X117000000Y-88250000D02*
G75*
G02*
X115250000Y-86500000I0J1750000D01*
G01*
X123250000Y-95500000D02*
G75*
G03*
X122000000Y-94250000I-1250002J-2D01*
G01*
X122000000Y-96750000D02*
X119250000Y-96750000D01*
X121750000Y-84750000D02*
X117000000Y-84750000D01*
X117000000Y-94250000D02*
G75*
G02*
X115250000Y-92500000I0J1750000D01*
G01*
X119250000Y-88250000D02*
X122000000Y-88250000D01*
X122000000Y-96750000D02*
G75*
G03*
X123250000Y-95500000I-2J1250002D01*
G01*
X115250000Y-86500000D02*
G75*
G02*
X117000000Y-84750000I1750000J0D01*
G01*
X123250000Y-89500000D02*
G75*
G03*
X122000000Y-88250000I-1250002J-2D01*
G01*
X117000000Y-94250000D02*
X120000000Y-94250000D01*
X122000000Y-84750000D02*
G75*
G03*
X123250000Y-83500000I-2J1250002D01*
G01*
X115250000Y-98500000D02*
G75*
G02*
X117000000Y-96750000I1750000J0D01*
G01*
X117000000Y-100250000D02*
G75*
G02*
X115250000Y-98500000I0J1750000D01*
G01*
%TO.N,+3V3*%
X123750000Y-80750000D02*
G75*
G03*
X121087500Y-78087500I-2662499J1D01*
G01*
X122000000Y-85250000D02*
G75*
G03*
X123750000Y-83500000I0J1750000D01*
G01*
X121800000Y-101550000D02*
G75*
G03*
X120000000Y-99750000I-1800001J-1D01*
G01*
X123750000Y-95500000D02*
G75*
G03*
X122000000Y-93750000I-1750000J0D01*
G01*
X115750000Y-92500000D02*
G75*
G02*
X117000000Y-91250000I1250002J-2D01*
G01*
X117000000Y-87750000D02*
G75*
G02*
X115750000Y-86500000I2J1250002D01*
G01*
X117000000Y-99750000D02*
X120000000Y-99750000D01*
X122000000Y-91250000D02*
G75*
G03*
X123750000Y-89500000I0J1750000D01*
G01*
X117000000Y-93750000D02*
G75*
G02*
X115750000Y-92500000I2J1250002D01*
G01*
X122000000Y-97250000D02*
G75*
G03*
X123750000Y-95500000I0J1750000D01*
G01*
X115750000Y-86500000D02*
G75*
G02*
X117000000Y-85250000I1250002J-2D01*
G01*
X123750000Y-89500000D02*
G75*
G03*
X122000000Y-87750000I-1750000J0D01*
G01*
X121800000Y-101550000D02*
X121800000Y-102700000D01*
X115750000Y-98500000D02*
G75*
G02*
X117000000Y-97250000I1250002J-2D01*
G01*
X117000000Y-99750000D02*
G75*
G02*
X115750000Y-98500000I2J1250002D01*
G01*
X121000000Y-78087500D02*
X121087500Y-78087500D01*
X123750000Y-80750000D02*
X123750000Y-83500000D01*
X122000000Y-85250000D02*
X117000000Y-85250000D01*
X117000000Y-87750000D02*
X122000000Y-87750000D01*
X122000000Y-91250000D02*
X117000000Y-91250000D01*
X117000000Y-93750000D02*
X122000000Y-93750000D01*
X122000000Y-97250000D02*
X117000000Y-97250000D01*
%TO.N,TEMP*%
X123250000Y-83250000D02*
X123250000Y-83500000D01*
X123250000Y-82162500D02*
G75*
G03*
X121000000Y-79912500I-2250001J-1D01*
G01*
X123250000Y-82162500D02*
X123250000Y-83250000D01*
%TO.N,+3V3*%
X121800000Y-102700000D02*
X121800000Y-103950000D01*
X121800000Y-103950000D02*
X121750000Y-104000000D01*
%TO.N,TEMP*%
X118000000Y-79480000D02*
X120567500Y-79480000D01*
X120567500Y-79480000D02*
X121000000Y-79912500D01*
%TO.N,+3V3*%
X118000000Y-78210000D02*
X120877500Y-78210000D01*
X120877500Y-78210000D02*
X121000000Y-78087500D01*
%TO.N,GND*%
X138506750Y-83250000D02*
X138506750Y-81300000D01*
X136556750Y-81300000D02*
X138506750Y-81300000D01*
%TO.N,+3V3*%
X138956750Y-77350000D02*
X138956750Y-78206750D01*
X138956750Y-78206750D02*
X139000000Y-78250000D01*
X126750000Y-84375000D02*
X126750000Y-85880000D01*
X126750000Y-85880000D02*
X128250000Y-87380000D01*
X128250000Y-87380000D02*
X130000000Y-89130000D01*
X130000000Y-89130000D02*
X130000000Y-95500000D01*
X130500000Y-96000000D02*
X132250000Y-96000000D01*
X130000000Y-95500000D02*
X130500000Y-96000000D01*
%TO.N,GND*%
X123000000Y-104000000D02*
X123000000Y-105500000D01*
X123000000Y-105500000D02*
X121700000Y-106800000D01*
X123000000Y-112000000D02*
X127250000Y-112000000D01*
X127250000Y-112000000D02*
X128250000Y-111000000D01*
X132312500Y-98000000D02*
X130175000Y-100137500D01*
X130175000Y-100137500D02*
X130175000Y-101250000D01*
%TO.N,+3V3*%
X136187500Y-98500000D02*
X138000000Y-98500000D01*
X148000000Y-96250000D02*
X147075000Y-96250000D01*
%TO.N,GND*%
X133250000Y-99937500D02*
X133250000Y-100397328D01*
X133250000Y-100397328D02*
X133750000Y-100897328D01*
X133750000Y-100897328D02*
X133750000Y-103000000D01*
X133750000Y-103000000D02*
X133000000Y-103750000D01*
X133000000Y-103750000D02*
X131775000Y-103750000D01*
%TO.N,Net-(R1-Pad2)*%
X141350000Y-98400000D02*
X141350000Y-96650000D01*
X141350000Y-96650000D02*
X141750000Y-96250000D01*
X141750000Y-96250000D02*
X142425000Y-96250000D01*
X145425000Y-96250000D02*
X145425000Y-95925000D01*
X145425000Y-95925000D02*
X144950480Y-95450480D01*
X144950480Y-95450480D02*
X143224520Y-95450480D01*
X143224520Y-95450480D02*
X142425000Y-96250000D01*
%TO.N,Net-(D3-Pad4)*%
X127750000Y-84375000D02*
X127750000Y-85325000D01*
X127750000Y-85325000D02*
X127925000Y-85500000D01*
%TO.N,Net-(D3-Pad2)*%
X126750000Y-82625000D02*
X126750000Y-82800000D01*
X126750000Y-82800000D02*
X127349520Y-83399520D01*
X129525480Y-83399520D02*
X130250000Y-82675000D01*
X127349520Y-83399520D02*
X129525480Y-83399520D01*
%TO.N,Net-(D3-Pad3)*%
X127750000Y-82625000D02*
X128950000Y-82625000D01*
X128950000Y-82625000D02*
X129000000Y-82675000D01*
%TO.N,VBUS*%
X133850000Y-106890000D02*
X133850000Y-107375006D01*
X134374994Y-107900000D02*
X138125006Y-107900000D01*
X133850000Y-107375006D02*
X134374994Y-107900000D01*
X138125006Y-107900000D02*
X138650000Y-107375006D01*
X138650000Y-107375006D02*
X138650000Y-106890000D01*
D57*
%TO.N,GND*%
X146062500Y-102920000D02*
X144580000Y-102920000D01*
X144580000Y-102920000D02*
X144500000Y-103000000D01*
D58*
%TO.N,D-*%
X136500000Y-106890000D02*
X136500000Y-104500000D01*
X136500000Y-104500000D02*
X136750000Y-104250000D01*
X136699501Y-104199501D02*
X136699501Y-102311474D01*
X136699501Y-104199501D02*
X136750000Y-104250000D01*
X136699501Y-102311474D02*
X134750000Y-100361973D01*
X134750000Y-100361973D02*
X134750000Y-99937500D01*
%TO.N,D+*%
X137000000Y-105000000D02*
X137750000Y-104250000D01*
X137000000Y-106890000D02*
X137000000Y-105000000D01*
%TO.N,D-*%
X135500000Y-106890000D02*
X135500000Y-104500000D01*
X135500000Y-104500000D02*
X135250000Y-104250000D01*
%TO.N,D+*%
X136000000Y-106890000D02*
X136000000Y-103500000D01*
X136000000Y-103500000D02*
X134250000Y-101750000D01*
X134250000Y-101750000D02*
X134250000Y-99937500D01*
D56*
%TO.N,DC*%
X141350000Y-102250000D02*
X141450000Y-102350000D01*
X140250000Y-102250000D02*
X141350000Y-102250000D01*
X141350000Y-101100000D02*
X142300000Y-101100000D01*
%TO.N,GND*%
X144075000Y-96500000D02*
X143650978Y-96500000D01*
X143650978Y-96500000D02*
X142300000Y-97850978D01*
X142300000Y-97850978D02*
X142300000Y-98400000D01*
%TO.N,+3V3*%
X147075000Y-96500000D02*
X147700000Y-97125000D01*
X147700000Y-97125000D02*
X147700000Y-99800000D01*
%TO.N,GND*%
X139450000Y-106890000D02*
X139450000Y-105712500D01*
X139450000Y-105712500D02*
X139662500Y-105500000D01*
%TO.N,Net-(J1-PadB5)*%
X138000000Y-106890000D02*
X138000000Y-105662500D01*
X138000000Y-105662500D02*
X137837500Y-105500000D01*
%TO.N,Net-(J1-PadA5)*%
X135000000Y-106890000D02*
X135000000Y-105837500D01*
X135000000Y-105837500D02*
X134662500Y-105500000D01*
%TO.N,VBUS*%
X133850000Y-106890000D02*
X133850000Y-105100000D01*
X130225000Y-103750000D02*
X130225000Y-104725000D01*
X130225000Y-104725000D02*
X130225000Y-106425000D01*
X133850000Y-105100000D02*
X133450480Y-104700480D01*
X133450480Y-104700480D02*
X130249520Y-104700480D01*
X130249520Y-104700480D02*
X130225000Y-104725000D01*
X130225000Y-106425000D02*
X129650000Y-107000000D01*
X130175000Y-102500000D02*
X130175000Y-103700000D01*
X130175000Y-103700000D02*
X130225000Y-103750000D01*
%TO.N,Net-(R8-Pad2)*%
X131825000Y-101250000D02*
X131825000Y-102500000D01*
X136062500Y-96062500D02*
X136250000Y-96250000D01*
X135250000Y-96062500D02*
X136062500Y-96062500D01*
X132750000Y-101250000D02*
X131825000Y-101250000D01*
%TO.N,+3V3*%
X135461522Y-99937500D02*
X135824511Y-99574511D01*
X135824511Y-99574511D02*
X136250000Y-100000000D01*
X135824511Y-99574511D02*
X136187500Y-99211522D01*
X132250000Y-96000000D02*
X133187500Y-96000000D01*
X133187500Y-96000000D02*
X133250000Y-96062500D01*
X136187500Y-98500000D02*
X136187500Y-99000000D01*
X135250000Y-99937500D02*
X135461522Y-99937500D01*
X136187500Y-99211522D02*
X136187500Y-99000000D01*
%TO.N,GND*%
X133250000Y-99937500D02*
X133250000Y-99000000D01*
X133250000Y-99000000D02*
X134250000Y-98000000D01*
X132312500Y-97500000D02*
X133750000Y-97500000D01*
X133750000Y-97500000D02*
X134250000Y-98000000D01*
X132312500Y-98000000D02*
X134250000Y-98000000D01*
X132312500Y-98500000D02*
X133750000Y-98500000D01*
X132312500Y-99000000D02*
X133250000Y-99000000D01*
X136187500Y-98000000D02*
X134250000Y-98000000D01*
%TD*%
%TA.AperFunction,Conductor*%
%TO.N,GND*%
G36*
X115373431Y-99793070D02*
G01*
X115529251Y-99970749D01*
X115733805Y-100150138D01*
X115960024Y-100301292D01*
X115962930Y-100302725D01*
X115962935Y-100302728D01*
X116077510Y-100359230D01*
X116204036Y-100421626D01*
X116461669Y-100509080D01*
X116728512Y-100562159D01*
X116731734Y-100562370D01*
X116731740Y-100562371D01*
X116859903Y-100570771D01*
X116994873Y-100579617D01*
X117000000Y-100580521D01*
X117008529Y-100579017D01*
X117008530Y-100579017D01*
X117019946Y-100577004D01*
X117037137Y-100575500D01*
X118212863Y-100575500D01*
X118230054Y-100577004D01*
X118241470Y-100579017D01*
X118241471Y-100579017D01*
X118250000Y-100580521D01*
X118258529Y-100579017D01*
X118267193Y-100579017D01*
X118267193Y-100579946D01*
X118281412Y-100579635D01*
X118322497Y-100585044D01*
X118346947Y-100588263D01*
X118371909Y-100594952D01*
X118404970Y-100608646D01*
X118451496Y-100648382D01*
X118465780Y-100707877D01*
X118458549Y-100737994D01*
X118414956Y-100843238D01*
X118394318Y-101000000D01*
X118414956Y-101156762D01*
X118475464Y-101302841D01*
X118571718Y-101428282D01*
X118697159Y-101524536D01*
X118843238Y-101585044D01*
X119000000Y-101605682D01*
X119156762Y-101585044D01*
X119302841Y-101524536D01*
X119428282Y-101428282D01*
X119524536Y-101302841D01*
X119585044Y-101156762D01*
X119605682Y-101000000D01*
X119585044Y-100843238D01*
X119524536Y-100697159D01*
X119428282Y-100571718D01*
X119302841Y-100475464D01*
X119178531Y-100423973D01*
X119135321Y-100389293D01*
X119079507Y-100309581D01*
X119079505Y-100309579D01*
X119077028Y-100306041D01*
X119015491Y-100244504D01*
X118987714Y-100189987D01*
X118997285Y-100129555D01*
X119040550Y-100086290D01*
X119085495Y-100075500D01*
X119962863Y-100075500D01*
X119980054Y-100077004D01*
X119991470Y-100079017D01*
X119991471Y-100079017D01*
X120000000Y-100080521D01*
X120008530Y-100079017D01*
X120009297Y-100079017D01*
X120032461Y-100077822D01*
X120101732Y-100082776D01*
X120202788Y-100090003D01*
X120216764Y-100092014D01*
X120408494Y-100133723D01*
X120422042Y-100137700D01*
X120473149Y-100156762D01*
X120605895Y-100206274D01*
X120618743Y-100212142D01*
X120790961Y-100306179D01*
X120802840Y-100313813D01*
X120948869Y-100423129D01*
X120959920Y-100431402D01*
X120970595Y-100440651D01*
X121109349Y-100579405D01*
X121118598Y-100590080D01*
X121236187Y-100747160D01*
X121243821Y-100759039D01*
X121337858Y-100931257D01*
X121343726Y-100944105D01*
X121361298Y-100991216D01*
X121411358Y-101125431D01*
X121412299Y-101127955D01*
X121416277Y-101141506D01*
X121452495Y-101307990D01*
X121457986Y-101333233D01*
X121459997Y-101347212D01*
X121463795Y-101400326D01*
X121472178Y-101517539D01*
X121470983Y-101540703D01*
X121470983Y-101541470D01*
X121469479Y-101550000D01*
X121470983Y-101558529D01*
X121470983Y-101558530D01*
X121472996Y-101569946D01*
X121474500Y-101587137D01*
X121474500Y-102144030D01*
X121455593Y-102202221D01*
X121435768Y-102222571D01*
X121371718Y-102271718D01*
X121275464Y-102397159D01*
X121214956Y-102543238D01*
X121194318Y-102700000D01*
X121214956Y-102856762D01*
X121217440Y-102862760D01*
X121217441Y-102862762D01*
X121262482Y-102971502D01*
X121267283Y-103032498D01*
X121235313Y-103084667D01*
X121226020Y-103091702D01*
X121205448Y-103105448D01*
X121200029Y-103113558D01*
X121195004Y-103118583D01*
X121140487Y-103146360D01*
X121080055Y-103136789D01*
X121054996Y-103118583D01*
X121049971Y-103113558D01*
X121044552Y-103105448D01*
X120978231Y-103061133D01*
X120968668Y-103059231D01*
X120968666Y-103059230D01*
X120945995Y-103054721D01*
X120919748Y-103049500D01*
X120080252Y-103049500D01*
X120054005Y-103054721D01*
X120031334Y-103059230D01*
X120031332Y-103059231D01*
X120021769Y-103061133D01*
X119955448Y-103105448D01*
X119950029Y-103113558D01*
X119945004Y-103118583D01*
X119890487Y-103146360D01*
X119830055Y-103136789D01*
X119804996Y-103118583D01*
X119799971Y-103113558D01*
X119794552Y-103105448D01*
X119728231Y-103061133D01*
X119718668Y-103059231D01*
X119718666Y-103059230D01*
X119695995Y-103054721D01*
X119669748Y-103049500D01*
X118830252Y-103049500D01*
X118804005Y-103054721D01*
X118781334Y-103059230D01*
X118781332Y-103059231D01*
X118771769Y-103061133D01*
X118705448Y-103105448D01*
X118700029Y-103113558D01*
X118695004Y-103118583D01*
X118640487Y-103146360D01*
X118580055Y-103136789D01*
X118554996Y-103118583D01*
X118549971Y-103113558D01*
X118544552Y-103105448D01*
X118478231Y-103061133D01*
X118468668Y-103059231D01*
X118468666Y-103059230D01*
X118445995Y-103054721D01*
X118419748Y-103049500D01*
X117580252Y-103049500D01*
X117554005Y-103054721D01*
X117531334Y-103059230D01*
X117531332Y-103059231D01*
X117521769Y-103061133D01*
X117455448Y-103105448D01*
X117411133Y-103171769D01*
X117409231Y-103181332D01*
X117409230Y-103181334D01*
X117408002Y-103187508D01*
X117399500Y-103230252D01*
X117399500Y-104769748D01*
X117400448Y-104774512D01*
X117400448Y-104774516D01*
X117402812Y-104786402D01*
X117395619Y-104847163D01*
X117354086Y-104892092D01*
X117294076Y-104904028D01*
X117286402Y-104902812D01*
X117274516Y-104900448D01*
X117274512Y-104900448D01*
X117269748Y-104899500D01*
X115730252Y-104899500D01*
X115704005Y-104904721D01*
X115681334Y-104909230D01*
X115681332Y-104909231D01*
X115671769Y-104911133D01*
X115605448Y-104955448D01*
X115561133Y-105021769D01*
X115559231Y-105031332D01*
X115559230Y-105031334D01*
X115555661Y-105049278D01*
X115549500Y-105080252D01*
X115549500Y-105919748D01*
X115561133Y-105978231D01*
X115605448Y-106044552D01*
X115613558Y-106049971D01*
X115618583Y-106054996D01*
X115646360Y-106109513D01*
X115636789Y-106169945D01*
X115618583Y-106195004D01*
X115613558Y-106200029D01*
X115605448Y-106205448D01*
X115561133Y-106271769D01*
X115559231Y-106281332D01*
X115559230Y-106281334D01*
X115558465Y-106285180D01*
X115549500Y-106330252D01*
X115549500Y-107169748D01*
X115561133Y-107228231D01*
X115605448Y-107294552D01*
X115613558Y-107299971D01*
X115618583Y-107304996D01*
X115646360Y-107359513D01*
X115636789Y-107419945D01*
X115618583Y-107445004D01*
X115613558Y-107450029D01*
X115605448Y-107455448D01*
X115561133Y-107521769D01*
X115559231Y-107531332D01*
X115559230Y-107531334D01*
X115554721Y-107554005D01*
X115549500Y-107580252D01*
X115549500Y-108419748D01*
X115561133Y-108478231D01*
X115605448Y-108544552D01*
X115613558Y-108549971D01*
X115618583Y-108554996D01*
X115646360Y-108609513D01*
X115636789Y-108669945D01*
X115618583Y-108695004D01*
X115613558Y-108700029D01*
X115605448Y-108705448D01*
X115561133Y-108771769D01*
X115549500Y-108830252D01*
X115549500Y-109669748D01*
X115561133Y-109728231D01*
X115605448Y-109794552D01*
X115613558Y-109799971D01*
X115618583Y-109804996D01*
X115646360Y-109859513D01*
X115636789Y-109919945D01*
X115618583Y-109945004D01*
X115613558Y-109950029D01*
X115605448Y-109955448D01*
X115561133Y-110021769D01*
X115549500Y-110080252D01*
X115549500Y-110919748D01*
X115561133Y-110978231D01*
X115605448Y-111044552D01*
X115671769Y-111088867D01*
X115681332Y-111090769D01*
X115681334Y-111090770D01*
X115704005Y-111095279D01*
X115730252Y-111100500D01*
X117269748Y-111100500D01*
X117274512Y-111099552D01*
X117274516Y-111099552D01*
X117286402Y-111097188D01*
X117347163Y-111104381D01*
X117392092Y-111145914D01*
X117404028Y-111205924D01*
X117402812Y-111213598D01*
X117400448Y-111225484D01*
X117399500Y-111230252D01*
X117399500Y-112769748D01*
X117411133Y-112828231D01*
X117455448Y-112894552D01*
X117521769Y-112938867D01*
X117531332Y-112940769D01*
X117531334Y-112940770D01*
X117554005Y-112945279D01*
X117580252Y-112950500D01*
X118419748Y-112950500D01*
X118445995Y-112945279D01*
X118468666Y-112940770D01*
X118468668Y-112940769D01*
X118478231Y-112938867D01*
X118544552Y-112894552D01*
X118549971Y-112886442D01*
X118554996Y-112881417D01*
X118609513Y-112853640D01*
X118669945Y-112863211D01*
X118695004Y-112881417D01*
X118700029Y-112886442D01*
X118705448Y-112894552D01*
X118771769Y-112938867D01*
X118781332Y-112940769D01*
X118781334Y-112940770D01*
X118804005Y-112945279D01*
X118830252Y-112950500D01*
X119669748Y-112950500D01*
X119695995Y-112945279D01*
X119718666Y-112940770D01*
X119718668Y-112940769D01*
X119728231Y-112938867D01*
X119794552Y-112894552D01*
X119799971Y-112886442D01*
X119804996Y-112881417D01*
X119859513Y-112853640D01*
X119919945Y-112863211D01*
X119945004Y-112881417D01*
X119950029Y-112886442D01*
X119955448Y-112894552D01*
X120021769Y-112938867D01*
X120031332Y-112940769D01*
X120031334Y-112940770D01*
X120054005Y-112945279D01*
X120080252Y-112950500D01*
X120919748Y-112950500D01*
X120945995Y-112945279D01*
X120968666Y-112940770D01*
X120968668Y-112940769D01*
X120978231Y-112938867D01*
X121044552Y-112894552D01*
X121049971Y-112886442D01*
X121054996Y-112881417D01*
X121109513Y-112853640D01*
X121169945Y-112863211D01*
X121195004Y-112881417D01*
X121200029Y-112886442D01*
X121205448Y-112894552D01*
X121271769Y-112938867D01*
X121281332Y-112940769D01*
X121281334Y-112940770D01*
X121304005Y-112945279D01*
X121330252Y-112950500D01*
X122067139Y-112950500D01*
X122125330Y-112969407D01*
X122149414Y-112996772D01*
X122149828Y-112996462D01*
X122153771Y-113001723D01*
X122153975Y-113001955D01*
X122154057Y-113002105D01*
X122232863Y-113107256D01*
X122242744Y-113117137D01*
X122248938Y-113121779D01*
X122284164Y-113171807D01*
X122283257Y-113232986D01*
X122246563Y-113281947D01*
X122189566Y-113300000D01*
X115299000Y-113300000D01*
X115240809Y-113281093D01*
X115204845Y-113231593D01*
X115200000Y-113201000D01*
X115200000Y-99858346D01*
X115218907Y-99800155D01*
X115268407Y-99764191D01*
X115329593Y-99764191D01*
X115373431Y-99793070D01*
G37*
%TD.AperFunction*%
%TA.AperFunction,Conductor*%
G36*
X132463941Y-77064907D02*
G01*
X132499905Y-77114407D01*
X132501450Y-77124164D01*
X132508872Y-77147005D01*
X132512993Y-77150000D01*
X132657750Y-77150000D01*
X132715941Y-77168907D01*
X132751905Y-77218407D01*
X132756750Y-77249000D01*
X132756750Y-78242319D01*
X132760872Y-78255004D01*
X132764993Y-78257999D01*
X132802161Y-78257999D01*
X132807501Y-78257710D01*
X132860785Y-78251922D01*
X132872770Y-78249073D01*
X132996605Y-78202649D01*
X133008858Y-78195941D01*
X133114006Y-78117137D01*
X133123887Y-78107256D01*
X133202693Y-78002105D01*
X133202775Y-78001955D01*
X133202878Y-78001858D01*
X133206922Y-77996462D01*
X133207859Y-77997164D01*
X133247305Y-77959995D01*
X133289611Y-77950500D01*
X133576498Y-77950500D01*
X133602745Y-77945279D01*
X133625416Y-77940770D01*
X133625418Y-77940769D01*
X133634981Y-77938867D01*
X133701302Y-77894552D01*
X133703520Y-77897871D01*
X133741263Y-77878640D01*
X133801695Y-77888211D01*
X133811618Y-77895420D01*
X133812198Y-77894552D01*
X133878519Y-77938867D01*
X133888082Y-77940769D01*
X133888084Y-77940770D01*
X133910755Y-77945279D01*
X133937002Y-77950500D01*
X134376498Y-77950500D01*
X134402745Y-77945279D01*
X134425416Y-77940770D01*
X134425418Y-77940769D01*
X134434981Y-77938867D01*
X134501302Y-77894552D01*
X134503520Y-77897871D01*
X134541263Y-77878640D01*
X134601695Y-77888211D01*
X134611618Y-77895420D01*
X134612198Y-77894552D01*
X134678519Y-77938867D01*
X134688082Y-77940769D01*
X134688084Y-77940770D01*
X134710755Y-77945279D01*
X134737002Y-77950500D01*
X135176498Y-77950500D01*
X135202745Y-77945279D01*
X135225416Y-77940770D01*
X135225418Y-77940769D01*
X135234981Y-77938867D01*
X135301302Y-77894552D01*
X135303520Y-77897871D01*
X135341263Y-77878640D01*
X135401695Y-77888211D01*
X135411618Y-77895420D01*
X135412198Y-77894552D01*
X135478519Y-77938867D01*
X135488082Y-77940769D01*
X135488084Y-77940770D01*
X135510755Y-77945279D01*
X135537002Y-77950500D01*
X135976498Y-77950500D01*
X136002745Y-77945279D01*
X136025416Y-77940770D01*
X136025418Y-77940769D01*
X136034981Y-77938867D01*
X136101302Y-77894552D01*
X136103520Y-77897871D01*
X136141263Y-77878640D01*
X136201695Y-77888211D01*
X136211618Y-77895420D01*
X136212198Y-77894552D01*
X136278519Y-77938867D01*
X136288082Y-77940769D01*
X136288084Y-77940770D01*
X136310755Y-77945279D01*
X136337002Y-77950500D01*
X136776498Y-77950500D01*
X136802745Y-77945279D01*
X136825416Y-77940770D01*
X136825418Y-77940769D01*
X136834981Y-77938867D01*
X136901302Y-77894552D01*
X136903520Y-77897871D01*
X136941263Y-77878640D01*
X137001695Y-77888211D01*
X137011618Y-77895420D01*
X137012198Y-77894552D01*
X137078519Y-77938867D01*
X137088082Y-77940769D01*
X137088084Y-77940770D01*
X137110755Y-77945279D01*
X137137002Y-77950500D01*
X137576498Y-77950500D01*
X137602745Y-77945279D01*
X137625416Y-77940770D01*
X137625418Y-77940769D01*
X137634981Y-77938867D01*
X137701302Y-77894552D01*
X137703520Y-77897871D01*
X137741263Y-77878640D01*
X137801695Y-77888211D01*
X137811618Y-77895420D01*
X137812198Y-77894552D01*
X137878519Y-77938867D01*
X137888082Y-77940769D01*
X137888084Y-77940770D01*
X137910755Y-77945279D01*
X137937002Y-77950500D01*
X138325916Y-77950500D01*
X138384107Y-77969407D01*
X138420071Y-78018907D01*
X138420071Y-78080093D01*
X138417457Y-78087176D01*
X138417440Y-78087241D01*
X138414956Y-78093238D01*
X138394318Y-78250000D01*
X138414956Y-78406762D01*
X138475464Y-78552841D01*
X138571718Y-78678282D01*
X138697159Y-78774536D01*
X138843238Y-78835044D01*
X139000000Y-78855682D01*
X139156762Y-78835044D01*
X139302841Y-78774536D01*
X139428282Y-78678282D01*
X139524536Y-78552841D01*
X139585044Y-78406762D01*
X139605682Y-78250000D01*
X139604671Y-78242319D01*
X139956750Y-78242319D01*
X139960872Y-78255004D01*
X139964993Y-78257999D01*
X140002161Y-78257999D01*
X140007501Y-78257710D01*
X140060785Y-78251922D01*
X140072770Y-78249073D01*
X140121998Y-78230618D01*
X140183123Y-78227895D01*
X140191502Y-78230618D01*
X140240728Y-78249072D01*
X140252717Y-78251923D01*
X140306002Y-78257711D01*
X140311336Y-78258000D01*
X140341070Y-78258000D01*
X140353755Y-78253878D01*
X140356750Y-78249757D01*
X140356750Y-78234320D01*
X140756750Y-78234320D01*
X140760872Y-78247005D01*
X140764993Y-78250000D01*
X141241070Y-78250000D01*
X141253755Y-78245878D01*
X141256750Y-78241757D01*
X141256750Y-78210946D01*
X141252750Y-78185689D01*
X141252750Y-77569680D01*
X141248628Y-77556995D01*
X141244507Y-77554000D01*
X140772430Y-77554000D01*
X140759745Y-77558122D01*
X140756750Y-77562243D01*
X140756750Y-78234320D01*
X140356750Y-78234320D01*
X140356750Y-77565680D01*
X140352628Y-77552995D01*
X140348507Y-77550000D01*
X139972430Y-77550000D01*
X139959745Y-77554122D01*
X139956750Y-77558243D01*
X139956750Y-78242319D01*
X139604671Y-78242319D01*
X139585044Y-78093238D01*
X139564286Y-78043124D01*
X139556750Y-78005238D01*
X139556750Y-77249000D01*
X139575657Y-77190809D01*
X139625157Y-77154845D01*
X139655750Y-77150000D01*
X140593070Y-77150000D01*
X140605755Y-77145878D01*
X140608842Y-77141630D01*
X140609969Y-77134514D01*
X140612050Y-77134844D01*
X140627657Y-77086809D01*
X140677157Y-77050845D01*
X140707750Y-77046000D01*
X141661750Y-77046000D01*
X141719941Y-77064907D01*
X141755905Y-77114407D01*
X141760750Y-77145000D01*
X141760750Y-78099000D01*
X141741843Y-78157191D01*
X141692343Y-78193155D01*
X141682586Y-78194700D01*
X141659745Y-78202122D01*
X141656750Y-78206243D01*
X141656750Y-88286320D01*
X141660872Y-88299005D01*
X141665120Y-88302092D01*
X141672236Y-88303219D01*
X141671906Y-88305300D01*
X141719941Y-88320907D01*
X141755905Y-88370407D01*
X141760750Y-88401000D01*
X141760750Y-90042319D01*
X141767041Y-90061682D01*
X141795155Y-90100377D01*
X141800000Y-90130970D01*
X141800000Y-94994123D01*
X141799955Y-95045449D01*
X141804781Y-95055498D01*
X141804781Y-95055500D01*
X141805185Y-95056341D01*
X141812463Y-95077183D01*
X141812670Y-95078093D01*
X141812672Y-95078096D01*
X141815150Y-95088962D01*
X141822097Y-95097680D01*
X141822520Y-95098211D01*
X141834334Y-95117046D01*
X141834625Y-95117653D01*
X141834628Y-95117657D01*
X141839453Y-95127705D01*
X141848893Y-95135254D01*
X141864484Y-95150872D01*
X141872015Y-95160323D01*
X141882058Y-95165167D01*
X141882663Y-95165459D01*
X141901478Y-95177308D01*
X141902005Y-95177730D01*
X141902010Y-95177732D01*
X141910715Y-95184694D01*
X141922405Y-95187382D01*
X141922492Y-95187402D01*
X141943318Y-95194715D01*
X141954202Y-95199965D01*
X141965347Y-95199975D01*
X141965348Y-95199975D01*
X141977213Y-95199985D01*
X141977211Y-95201730D01*
X141977277Y-95201724D01*
X141977277Y-95200000D01*
X141994123Y-95200000D01*
X142045160Y-95200045D01*
X142045449Y-95200045D01*
X142045537Y-95200003D01*
X142045561Y-95200000D01*
X142775666Y-95200000D01*
X142833857Y-95218907D01*
X142869821Y-95268407D01*
X142869821Y-95329593D01*
X142845670Y-95369004D01*
X142669170Y-95545504D01*
X142614653Y-95573281D01*
X142599166Y-95574500D01*
X142232220Y-95574501D01*
X142193482Y-95574501D01*
X142189639Y-95575110D01*
X142189634Y-95575110D01*
X142152783Y-95580947D01*
X142099696Y-95589354D01*
X142069937Y-95604517D01*
X141993597Y-95643414D01*
X141993595Y-95643415D01*
X141986658Y-95646950D01*
X141896950Y-95736658D01*
X141893415Y-95743595D01*
X141893414Y-95743597D01*
X141870905Y-95787774D01*
X141839354Y-95849696D01*
X141838510Y-95855023D01*
X141803260Y-95903541D01*
X141745069Y-95922448D01*
X141736440Y-95922071D01*
X141729822Y-95921492D01*
X141721193Y-95920737D01*
X141683657Y-95930795D01*
X141675231Y-95932663D01*
X141666038Y-95934284D01*
X141636955Y-95939412D01*
X141629450Y-95943745D01*
X141623973Y-95945738D01*
X141618682Y-95948205D01*
X141610316Y-95950447D01*
X141578484Y-95972736D01*
X141571206Y-95977372D01*
X141545044Y-95992476D01*
X141545042Y-95992477D01*
X141537545Y-95996806D01*
X141512569Y-96026571D01*
X141506735Y-96032938D01*
X141132949Y-96406725D01*
X141126581Y-96412561D01*
X141096806Y-96437545D01*
X141092477Y-96445044D01*
X141077373Y-96471205D01*
X141072732Y-96478489D01*
X141050446Y-96510316D01*
X141048204Y-96518684D01*
X141045738Y-96523971D01*
X141043742Y-96529456D01*
X141039412Y-96536955D01*
X141037909Y-96545481D01*
X141037908Y-96545483D01*
X141032666Y-96575216D01*
X141030796Y-96583650D01*
X141020736Y-96621193D01*
X141021491Y-96629822D01*
X141024123Y-96659905D01*
X141024500Y-96668534D01*
X141024500Y-97575201D01*
X141005593Y-97633392D01*
X140971297Y-97660427D01*
X140971769Y-97661133D01*
X140905448Y-97705448D01*
X140861133Y-97771769D01*
X140849500Y-97830252D01*
X140849500Y-98564958D01*
X140830593Y-98623149D01*
X140781093Y-98659113D01*
X140719907Y-98659113D01*
X140703568Y-98650789D01*
X140703220Y-98651472D01*
X140590066Y-98593817D01*
X140590065Y-98593817D01*
X140583126Y-98590281D01*
X140575432Y-98589062D01*
X140575431Y-98589062D01*
X140487334Y-98575109D01*
X140487332Y-98575109D01*
X140483488Y-98574500D01*
X139916512Y-98574500D01*
X139912668Y-98575109D01*
X139912666Y-98575109D01*
X139824569Y-98589062D01*
X139824568Y-98589062D01*
X139816874Y-98590281D01*
X139809935Y-98593817D01*
X139809934Y-98593817D01*
X139703719Y-98647936D01*
X139703717Y-98647937D01*
X139696780Y-98651472D01*
X139601472Y-98746780D01*
X139597937Y-98753717D01*
X139597936Y-98753719D01*
X139550500Y-98846818D01*
X139540281Y-98866874D01*
X139524500Y-98966512D01*
X139524500Y-99483488D01*
X139525109Y-99487332D01*
X139525109Y-99487334D01*
X139537107Y-99563084D01*
X139540281Y-99583126D01*
X139543817Y-99590065D01*
X139543817Y-99590066D01*
X139597934Y-99696276D01*
X139601472Y-99703220D01*
X139696780Y-99798528D01*
X139703717Y-99802063D01*
X139703719Y-99802064D01*
X139798321Y-99850266D01*
X139816874Y-99859719D01*
X139824568Y-99860938D01*
X139824569Y-99860938D01*
X139912666Y-99874891D01*
X139912668Y-99874891D01*
X139916512Y-99875500D01*
X140284389Y-99875500D01*
X140342580Y-99894407D01*
X140378544Y-99943907D01*
X140378544Y-100005093D01*
X140348285Y-100048774D01*
X140348910Y-100049473D01*
X140346839Y-100051324D01*
X140344673Y-100053051D01*
X140302220Y-100095504D01*
X140247703Y-100123281D01*
X140232216Y-100124500D01*
X139916512Y-100124500D01*
X139912668Y-100125109D01*
X139912666Y-100125109D01*
X139824569Y-100139062D01*
X139824568Y-100139062D01*
X139816874Y-100140281D01*
X139809935Y-100143817D01*
X139809934Y-100143817D01*
X139703719Y-100197936D01*
X139703717Y-100197937D01*
X139696780Y-100201472D01*
X139601472Y-100296780D01*
X139597937Y-100303717D01*
X139597936Y-100303719D01*
X139543817Y-100409934D01*
X139540281Y-100416874D01*
X139539062Y-100424568D01*
X139539062Y-100424569D01*
X139529882Y-100482529D01*
X139524500Y-100516512D01*
X139524500Y-101033488D01*
X139525109Y-101037332D01*
X139525109Y-101037334D01*
X139529562Y-101065446D01*
X139540281Y-101133126D01*
X139543817Y-101140065D01*
X139543817Y-101140066D01*
X139591850Y-101234335D01*
X139601472Y-101253220D01*
X139696780Y-101348528D01*
X139703717Y-101352063D01*
X139703719Y-101352064D01*
X139807612Y-101405000D01*
X139816874Y-101409719D01*
X139824568Y-101410938D01*
X139824569Y-101410938D01*
X139912666Y-101424891D01*
X139912668Y-101424891D01*
X139916512Y-101425500D01*
X140483488Y-101425500D01*
X140487332Y-101424891D01*
X140487334Y-101424891D01*
X140575431Y-101410938D01*
X140575432Y-101410938D01*
X140583126Y-101409719D01*
X140593444Y-101404462D01*
X140703220Y-101348528D01*
X140704476Y-101350994D01*
X140750513Y-101336042D01*
X140808701Y-101354957D01*
X140844659Y-101404462D01*
X140849500Y-101435042D01*
X140849500Y-101596413D01*
X140830593Y-101654604D01*
X140783301Y-101689821D01*
X140773241Y-101693354D01*
X140761816Y-101697366D01*
X140755865Y-101701761D01*
X140755864Y-101701762D01*
X140696632Y-101745512D01*
X140638592Y-101764876D01*
X140577548Y-101744422D01*
X140564596Y-101734484D01*
X140552841Y-101725464D01*
X140406762Y-101664956D01*
X140250000Y-101644318D01*
X140093238Y-101664956D01*
X139947159Y-101725464D01*
X139821718Y-101821718D01*
X139725464Y-101947159D01*
X139664956Y-102093238D01*
X139644318Y-102250000D01*
X139664956Y-102406762D01*
X139725464Y-102552841D01*
X139821718Y-102678282D01*
X139947159Y-102774536D01*
X140093238Y-102835044D01*
X140250000Y-102855682D01*
X140406762Y-102835044D01*
X140474411Y-102807023D01*
X140535407Y-102802222D01*
X140587576Y-102834191D01*
X140591918Y-102839655D01*
X140652850Y-102922150D01*
X140658807Y-102926550D01*
X140715500Y-102968424D01*
X140761816Y-103002634D01*
X140889631Y-103047519D01*
X140895640Y-103048087D01*
X140901532Y-103049380D01*
X140901039Y-103051628D01*
X140948234Y-103072059D01*
X140979373Y-103124729D01*
X140973606Y-103185642D01*
X140933137Y-103231532D01*
X140892972Y-103244782D01*
X140818834Y-103252474D01*
X140651054Y-103308450D01*
X140646167Y-103311474D01*
X140646163Y-103311476D01*
X140598620Y-103340897D01*
X140500652Y-103401522D01*
X140375695Y-103526697D01*
X140372677Y-103531593D01*
X140290471Y-103664956D01*
X140282885Y-103677262D01*
X140281075Y-103682718D01*
X140281074Y-103682721D01*
X140228905Y-103840006D01*
X140228904Y-103840011D01*
X140227203Y-103845139D01*
X140216500Y-103949600D01*
X140216500Y-104440727D01*
X140197593Y-104498918D01*
X140148093Y-104534882D01*
X140086333Y-104534693D01*
X140069840Y-104529222D01*
X140059326Y-104526969D01*
X139964556Y-104517259D01*
X139959499Y-104517000D01*
X139932180Y-104517000D01*
X139919495Y-104521122D01*
X139916500Y-104525243D01*
X139916500Y-105230320D01*
X139920622Y-105243005D01*
X139924743Y-105246000D01*
X140642320Y-105246000D01*
X140677577Y-105234545D01*
X140690560Y-105225112D01*
X140752316Y-105225302D01*
X140815003Y-105246094D01*
X140815007Y-105246095D01*
X140820139Y-105247797D01*
X140924600Y-105258500D01*
X141975400Y-105258500D01*
X142081166Y-105247526D01*
X142248946Y-105191550D01*
X142253833Y-105188526D01*
X142253837Y-105188524D01*
X142394459Y-105101504D01*
X142394462Y-105101501D01*
X142399348Y-105098478D01*
X142454944Y-105042785D01*
X142509435Y-105014961D01*
X142525007Y-105013729D01*
X145989788Y-105013729D01*
X146003876Y-105014737D01*
X146011895Y-105015890D01*
X146011898Y-105015890D01*
X146016710Y-105016582D01*
X146021563Y-105016322D01*
X146021565Y-105016322D01*
X146078151Y-105013289D01*
X146087124Y-105013754D01*
X146087124Y-105013729D01*
X146625015Y-105013729D01*
X146683206Y-105032636D01*
X146694957Y-105042664D01*
X146732611Y-105080252D01*
X146751697Y-105099305D01*
X146800833Y-105129593D01*
X146897367Y-105189098D01*
X146897369Y-105189099D01*
X146902262Y-105192115D01*
X146907718Y-105193925D01*
X146907721Y-105193926D01*
X147065006Y-105246095D01*
X147065011Y-105246096D01*
X147070139Y-105247797D01*
X147174600Y-105258500D01*
X148225400Y-105258500D01*
X148331166Y-105247526D01*
X148498946Y-105191550D01*
X148503833Y-105188526D01*
X148503837Y-105188524D01*
X148644458Y-105101504D01*
X148648905Y-105098752D01*
X148708336Y-105084209D01*
X148764966Y-105107377D01*
X148797163Y-105159406D01*
X148800000Y-105182937D01*
X148800000Y-113201000D01*
X148781093Y-113259191D01*
X148731593Y-113295155D01*
X148701000Y-113300000D01*
X130231797Y-113300000D01*
X130173606Y-113281093D01*
X130161793Y-113271004D01*
X128261086Y-111370296D01*
X128249203Y-111364242D01*
X128244172Y-111365038D01*
X126338207Y-113271004D01*
X126283690Y-113298781D01*
X126268203Y-113300000D01*
X123810434Y-113300000D01*
X123752243Y-113281093D01*
X123716279Y-113231593D01*
X123716279Y-113170407D01*
X123751062Y-113121779D01*
X123757256Y-113117137D01*
X123767137Y-113107256D01*
X123845941Y-113002108D01*
X123852649Y-112989855D01*
X123899072Y-112866022D01*
X123901923Y-112854033D01*
X123907711Y-112800748D01*
X123908000Y-112795414D01*
X123908000Y-112269680D01*
X123903878Y-112256995D01*
X123899757Y-112254000D01*
X122845000Y-112254000D01*
X122786809Y-112235093D01*
X122750845Y-112185593D01*
X122746000Y-112155000D01*
X122746000Y-111845000D01*
X122764907Y-111786809D01*
X122814407Y-111750845D01*
X122845000Y-111746000D01*
X123892319Y-111746000D01*
X123905004Y-111741878D01*
X123907999Y-111737757D01*
X123907999Y-111201912D01*
X123908800Y-111201912D01*
X123923737Y-111145738D01*
X123971214Y-111107143D01*
X124006868Y-111100500D01*
X125147057Y-111100500D01*
X125205248Y-111119407D01*
X125241212Y-111168907D01*
X125246023Y-111196909D01*
X125247394Y-111249270D01*
X125247872Y-111254965D01*
X125295943Y-111592725D01*
X125297074Y-111598333D01*
X125383651Y-111928342D01*
X125385406Y-111933744D01*
X125509349Y-112251644D01*
X125511715Y-112256812D01*
X125671368Y-112558343D01*
X125674324Y-112563223D01*
X125867562Y-112844385D01*
X125871068Y-112848906D01*
X125940345Y-112928319D01*
X125951791Y-112935170D01*
X125955239Y-112934862D01*
X125957361Y-112933428D01*
X127879704Y-111011086D01*
X127884946Y-111000797D01*
X128614242Y-111000797D01*
X128615038Y-111005828D01*
X130537994Y-112928783D01*
X130549877Y-112934837D01*
X130552748Y-112934383D01*
X130555503Y-112932187D01*
X130667135Y-112798676D01*
X130670535Y-112794099D01*
X130796994Y-112601582D01*
X131333457Y-112601582D01*
X131333464Y-112601627D01*
X131338987Y-112607842D01*
X131383286Y-112637442D01*
X131391234Y-112641758D01*
X131574216Y-112720372D01*
X131582809Y-112723164D01*
X131777055Y-112767119D01*
X131786013Y-112768298D01*
X131985018Y-112776117D01*
X131994045Y-112775643D01*
X132191133Y-112747067D01*
X132199924Y-112744956D01*
X132388510Y-112680940D01*
X132396768Y-112677262D01*
X132518524Y-112609077D01*
X132525452Y-112601582D01*
X139973457Y-112601582D01*
X139973464Y-112601627D01*
X139978987Y-112607842D01*
X140023286Y-112637442D01*
X140031234Y-112641758D01*
X140214216Y-112720372D01*
X140222809Y-112723164D01*
X140417055Y-112767119D01*
X140426013Y-112768298D01*
X140625018Y-112776117D01*
X140634045Y-112775643D01*
X140831133Y-112747067D01*
X140839924Y-112744956D01*
X141028510Y-112680940D01*
X141036768Y-112677262D01*
X141158524Y-112609077D01*
X141166725Y-112600205D01*
X141161823Y-112591033D01*
X140581086Y-112010296D01*
X140569203Y-112004242D01*
X140564172Y-112005038D01*
X139979511Y-112589699D01*
X139973457Y-112601582D01*
X132525452Y-112601582D01*
X132526725Y-112600205D01*
X132521823Y-112591033D01*
X131941086Y-112010296D01*
X131929203Y-112004242D01*
X131924172Y-112005038D01*
X131339511Y-112589699D01*
X131333457Y-112601582D01*
X130796994Y-112601582D01*
X130857855Y-112508929D01*
X130860697Y-112504008D01*
X130945491Y-112335415D01*
X130951865Y-112293764D01*
X130950771Y-112286973D01*
X130978588Y-112232202D01*
X131569993Y-111640797D01*
X132294242Y-111640797D01*
X132295038Y-111645828D01*
X132880329Y-112231119D01*
X132891091Y-112236602D01*
X132898591Y-112229392D01*
X132967262Y-112106768D01*
X132970940Y-112098510D01*
X133034956Y-111909924D01*
X133037067Y-111901133D01*
X133065875Y-111702450D01*
X133066372Y-111696626D01*
X133067778Y-111642914D01*
X133067588Y-111637101D01*
X133065533Y-111614742D01*
X139432833Y-111614742D01*
X139445858Y-111813474D01*
X139447271Y-111822395D01*
X139496294Y-112015421D01*
X139499314Y-112023949D01*
X139582689Y-112204803D01*
X139587210Y-112212634D01*
X139599256Y-112229679D01*
X139609943Y-112237659D01*
X139610692Y-112237669D01*
X139616823Y-112233967D01*
X140199704Y-111651086D01*
X140204946Y-111640797D01*
X140934242Y-111640797D01*
X140935038Y-111645828D01*
X141520329Y-112231119D01*
X141531091Y-112236602D01*
X141538591Y-112229392D01*
X141607262Y-112106768D01*
X141610940Y-112098510D01*
X141674956Y-111909924D01*
X141677067Y-111901133D01*
X141705875Y-111702450D01*
X141706372Y-111696626D01*
X141707778Y-111642914D01*
X141707588Y-111637101D01*
X141689216Y-111437160D01*
X141687569Y-111428276D01*
X141633510Y-111236599D01*
X141630269Y-111228156D01*
X141542189Y-111049547D01*
X141540929Y-111047491D01*
X141531639Y-111040925D01*
X141530193Y-111040944D01*
X141525098Y-111044112D01*
X140940296Y-111628914D01*
X140934242Y-111640797D01*
X140204946Y-111640797D01*
X140205758Y-111639203D01*
X140204962Y-111634172D01*
X139618305Y-111047515D01*
X139607948Y-111042238D01*
X139600073Y-111050011D01*
X139520870Y-111200551D01*
X139517416Y-111208891D01*
X139458358Y-111399088D01*
X139456477Y-111407938D01*
X139433069Y-111605710D01*
X139432833Y-111614742D01*
X133065533Y-111614742D01*
X133049216Y-111437160D01*
X133047569Y-111428276D01*
X132993510Y-111236599D01*
X132990269Y-111228156D01*
X132902189Y-111049547D01*
X132900929Y-111047491D01*
X132891639Y-111040925D01*
X132890193Y-111040944D01*
X132885098Y-111044112D01*
X132300296Y-111628914D01*
X132294242Y-111640797D01*
X131569993Y-111640797D01*
X132520133Y-110690657D01*
X132525173Y-110680763D01*
X139973793Y-110680763D01*
X139978489Y-110689279D01*
X140558914Y-111269704D01*
X140570797Y-111275758D01*
X140575828Y-111274962D01*
X141160133Y-110690657D01*
X141166011Y-110679119D01*
X141159918Y-110672441D01*
X141090413Y-110628586D01*
X141082359Y-110624483D01*
X140897380Y-110550684D01*
X140888722Y-110548119D01*
X140693392Y-110509265D01*
X140684399Y-110508320D01*
X140485265Y-110505713D01*
X140476247Y-110506423D01*
X140279974Y-110540149D01*
X140271247Y-110542487D01*
X140084400Y-110611419D01*
X140076238Y-110615312D01*
X139982050Y-110671348D01*
X139973793Y-110680763D01*
X132525173Y-110680763D01*
X132526011Y-110679119D01*
X132519918Y-110672441D01*
X132450413Y-110628586D01*
X132442359Y-110624483D01*
X132257380Y-110550684D01*
X132248722Y-110548119D01*
X132053392Y-110509265D01*
X132044399Y-110508320D01*
X131845265Y-110505713D01*
X131836247Y-110506423D01*
X131639974Y-110540149D01*
X131631247Y-110542487D01*
X131444400Y-110611419D01*
X131436237Y-110615312D01*
X131378675Y-110649558D01*
X131318998Y-110663062D01*
X131262781Y-110638909D01*
X131230531Y-110581498D01*
X131183980Y-110314767D01*
X131182678Y-110309218D01*
X131085777Y-109982086D01*
X131083846Y-109976723D01*
X130949983Y-109662888D01*
X130947459Y-109657802D01*
X130778407Y-109361421D01*
X130775311Y-109356654D01*
X130573319Y-109081676D01*
X130569696Y-109077296D01*
X130562172Y-109069199D01*
X130550517Y-109062713D01*
X130546258Y-109063228D01*
X130545344Y-109063867D01*
X128620296Y-110988914D01*
X128614242Y-111000797D01*
X127884946Y-111000797D01*
X127885758Y-110999203D01*
X127884962Y-110994172D01*
X125960648Y-109069859D01*
X125948765Y-109063805D01*
X125946715Y-109064129D01*
X125942902Y-109067267D01*
X125777552Y-109278145D01*
X125774311Y-109282811D01*
X125633911Y-109511921D01*
X125587385Y-109551657D01*
X125526389Y-109556458D01*
X125474220Y-109524488D01*
X125450805Y-109467960D01*
X125450500Y-109460193D01*
X125450500Y-108830252D01*
X125438867Y-108771769D01*
X125394552Y-108705448D01*
X125386442Y-108700029D01*
X125381417Y-108695004D01*
X125353640Y-108640487D01*
X125363211Y-108580055D01*
X125381417Y-108554996D01*
X125386442Y-108549971D01*
X125394552Y-108544552D01*
X125438867Y-108478231D01*
X125450500Y-108419748D01*
X125450500Y-107678834D01*
X126024500Y-107678834D01*
X126024718Y-107681135D01*
X126024718Y-107681145D01*
X126026913Y-107704361D01*
X126027481Y-107710369D01*
X126072366Y-107838184D01*
X126152850Y-107947150D01*
X126158807Y-107951550D01*
X126210630Y-107989827D01*
X126261816Y-108027634D01*
X126389631Y-108072519D01*
X126395638Y-108073087D01*
X126395639Y-108073087D01*
X126418855Y-108075282D01*
X126418865Y-108075282D01*
X126421166Y-108075500D01*
X126956544Y-108075500D01*
X127014735Y-108094407D01*
X127050699Y-108143907D01*
X127050699Y-108205093D01*
X127014735Y-108254593D01*
X126999165Y-108263856D01*
X126801002Y-108358375D01*
X126796010Y-108361119D01*
X126506992Y-108542420D01*
X126502335Y-108545730D01*
X126321700Y-108690446D01*
X126314376Y-108701596D01*
X126314487Y-108703945D01*
X126316912Y-108707701D01*
X128238914Y-110629704D01*
X128250797Y-110635758D01*
X128255828Y-110634962D01*
X130178800Y-108711990D01*
X130184854Y-108700107D01*
X130184356Y-108696963D01*
X130182471Y-108694571D01*
X130073894Y-108601837D01*
X130069341Y-108598381D01*
X129955668Y-108521996D01*
X131243044Y-108521996D01*
X131243142Y-108522618D01*
X131247969Y-108528171D01*
X131295052Y-108561139D01*
X131302522Y-108565451D01*
X131494175Y-108654821D01*
X131502268Y-108657767D01*
X131706539Y-108712501D01*
X131715027Y-108713997D01*
X131925691Y-108732428D01*
X131934309Y-108732428D01*
X132144973Y-108713997D01*
X132153461Y-108712501D01*
X132357732Y-108657767D01*
X132365825Y-108654821D01*
X132557478Y-108565451D01*
X132564948Y-108561139D01*
X132609144Y-108530192D01*
X132615320Y-108521996D01*
X139883044Y-108521996D01*
X139883142Y-108522618D01*
X139887969Y-108528171D01*
X139935052Y-108561139D01*
X139942522Y-108565451D01*
X140134175Y-108654821D01*
X140142268Y-108657767D01*
X140346539Y-108712501D01*
X140355027Y-108713997D01*
X140565691Y-108732428D01*
X140574309Y-108732428D01*
X140784973Y-108713997D01*
X140793461Y-108712501D01*
X140997732Y-108657767D01*
X141005825Y-108654821D01*
X141197478Y-108565451D01*
X141204948Y-108561139D01*
X141249144Y-108530192D01*
X141257170Y-108519541D01*
X141257182Y-108518909D01*
X141253394Y-108512605D01*
X140581086Y-107840296D01*
X140569203Y-107834242D01*
X140564172Y-107835038D01*
X139889098Y-108510113D01*
X139883044Y-108521996D01*
X132615320Y-108521996D01*
X132617170Y-108519541D01*
X132617182Y-108518909D01*
X132613394Y-108512605D01*
X131941086Y-107840296D01*
X131929203Y-107834242D01*
X131924172Y-107835038D01*
X131249098Y-108510113D01*
X131243044Y-108521996D01*
X129955668Y-108521996D01*
X129786159Y-108408091D01*
X129781256Y-108405191D01*
X129504744Y-108262473D01*
X129461706Y-108218983D01*
X129452451Y-108158501D01*
X129480514Y-108104131D01*
X129535175Y-108076639D01*
X129550150Y-108075500D01*
X130078834Y-108075500D01*
X130081135Y-108075282D01*
X130081145Y-108075282D01*
X130104361Y-108073087D01*
X130104362Y-108073087D01*
X130110369Y-108072519D01*
X130238184Y-108027634D01*
X130289371Y-107989827D01*
X130341193Y-107951550D01*
X130347150Y-107947150D01*
X130427634Y-107838184D01*
X130472519Y-107710369D01*
X130473087Y-107704361D01*
X130475282Y-107681145D01*
X130475282Y-107681135D01*
X130475500Y-107678834D01*
X130475500Y-107546385D01*
X130494407Y-107488194D01*
X130519126Y-107470235D01*
X130519095Y-107470208D01*
X130629838Y-107470208D01*
X130654593Y-107488194D01*
X130673123Y-107537757D01*
X130686003Y-107684973D01*
X130687499Y-107693461D01*
X130742231Y-107897726D01*
X130745180Y-107905828D01*
X130834553Y-108097486D01*
X130838857Y-108104940D01*
X130869808Y-108149145D01*
X130880458Y-108157170D01*
X130881090Y-108157181D01*
X130887396Y-108153393D01*
X131559704Y-107481086D01*
X131565758Y-107469203D01*
X131564962Y-107464172D01*
X130889887Y-106789098D01*
X130878004Y-106783044D01*
X130877382Y-106783142D01*
X130871829Y-106787969D01*
X130838857Y-106835060D01*
X130834553Y-106842514D01*
X130745180Y-107034172D01*
X130742231Y-107042274D01*
X130687499Y-107246539D01*
X130686003Y-107255027D01*
X130673123Y-107402243D01*
X130649216Y-107458565D01*
X130629838Y-107470208D01*
X130519095Y-107470208D01*
X130489640Y-107444604D01*
X130475500Y-107393615D01*
X130475500Y-106668648D01*
X130488763Y-106619148D01*
X130497627Y-106603795D01*
X130502268Y-106596511D01*
X130509597Y-106586044D01*
X130524554Y-106564684D01*
X130526796Y-106556316D01*
X130529262Y-106551029D01*
X130531258Y-106545544D01*
X130535588Y-106538045D01*
X130542334Y-106499783D01*
X130544204Y-106491349D01*
X130552022Y-106462174D01*
X130554264Y-106453807D01*
X130551402Y-106421090D01*
X131242819Y-106421090D01*
X131246607Y-106427396D01*
X131918914Y-107099704D01*
X131930797Y-107105758D01*
X131935828Y-107104962D01*
X132190912Y-106849877D01*
X132202000Y-106828115D01*
X132202000Y-106735000D01*
X132220907Y-106676809D01*
X132270407Y-106640845D01*
X132301000Y-106636000D01*
X132389109Y-106636000D01*
X132412336Y-106628453D01*
X132572414Y-106468375D01*
X132583500Y-106446617D01*
X132583500Y-105769680D01*
X132579378Y-105756995D01*
X132575257Y-105754000D01*
X131857680Y-105754000D01*
X131844995Y-105758122D01*
X131842000Y-105762243D01*
X131842000Y-105784463D01*
X131842265Y-105789590D01*
X131852227Y-105885598D01*
X131854503Y-105896133D01*
X131905982Y-106050435D01*
X131910831Y-106060786D01*
X131913167Y-106064562D01*
X131927709Y-106123994D01*
X131904539Y-106180623D01*
X131852509Y-106212818D01*
X131837610Y-106215278D01*
X131715026Y-106226003D01*
X131706539Y-106227499D01*
X131502274Y-106282231D01*
X131494172Y-106285180D01*
X131302514Y-106374553D01*
X131295060Y-106378857D01*
X131250855Y-106409808D01*
X131242830Y-106420458D01*
X131242819Y-106421090D01*
X130551402Y-106421090D01*
X130550877Y-106415091D01*
X130550500Y-106406463D01*
X130550500Y-105124980D01*
X130569407Y-105066789D01*
X130618907Y-105030825D01*
X130649500Y-105025980D01*
X131751497Y-105025980D01*
X131809688Y-105044887D01*
X131845652Y-105094387D01*
X131849981Y-105135070D01*
X131842259Y-105210442D01*
X131842000Y-105215501D01*
X131842000Y-105230320D01*
X131846122Y-105243005D01*
X131850243Y-105246000D01*
X132992500Y-105246000D01*
X133050691Y-105264907D01*
X133086655Y-105314407D01*
X133091500Y-105345000D01*
X133091500Y-105756320D01*
X133095622Y-105769005D01*
X133099743Y-105772000D01*
X133205000Y-105772000D01*
X133263191Y-105790907D01*
X133299155Y-105840407D01*
X133304000Y-105871000D01*
X133304000Y-107045000D01*
X133285093Y-107103191D01*
X133235593Y-107139155D01*
X133205000Y-107144000D01*
X132630891Y-107144000D01*
X132607664Y-107151547D01*
X132300299Y-107458911D01*
X132294242Y-107470798D01*
X132295038Y-107475828D01*
X132970113Y-108150902D01*
X132981996Y-108156956D01*
X132982618Y-108156858D01*
X132988171Y-108152031D01*
X133021141Y-108104944D01*
X133025445Y-108097489D01*
X133059172Y-108025160D01*
X133100901Y-107980412D01*
X133148897Y-107967999D01*
X133395411Y-107967999D01*
X133400751Y-107967710D01*
X133454035Y-107961922D01*
X133466020Y-107959073D01*
X133589855Y-107912649D01*
X133602108Y-107905941D01*
X133712904Y-107822904D01*
X133714363Y-107824851D01*
X133759066Y-107802086D01*
X133819496Y-107811671D01*
X133844535Y-107829867D01*
X134131725Y-108117057D01*
X134137559Y-108123424D01*
X134162539Y-108153194D01*
X134196199Y-108172627D01*
X134203483Y-108177268D01*
X134235310Y-108199554D01*
X134243678Y-108201796D01*
X134248965Y-108204262D01*
X134254450Y-108206258D01*
X134261949Y-108210588D01*
X134270475Y-108212091D01*
X134270477Y-108212092D01*
X134300210Y-108217334D01*
X134308644Y-108219204D01*
X134346187Y-108229264D01*
X134384902Y-108225877D01*
X134393531Y-108225500D01*
X138106472Y-108225500D01*
X138115101Y-108225877D01*
X138153813Y-108229264D01*
X138191356Y-108219204D01*
X138199790Y-108217334D01*
X138229523Y-108212092D01*
X138229525Y-108212091D01*
X138238051Y-108210588D01*
X138245550Y-108206258D01*
X138251035Y-108204262D01*
X138256322Y-108201796D01*
X138264690Y-108199554D01*
X138296517Y-108177268D01*
X138303801Y-108172627D01*
X138337461Y-108153194D01*
X138362437Y-108123429D01*
X138368272Y-108117061D01*
X138655467Y-107829867D01*
X138709983Y-107802090D01*
X138770415Y-107811661D01*
X138786671Y-107823471D01*
X138787096Y-107822904D01*
X138897892Y-107905941D01*
X138910145Y-107912649D01*
X139033978Y-107959072D01*
X139045967Y-107961923D01*
X139099252Y-107967711D01*
X139104586Y-107968000D01*
X139351102Y-107968000D01*
X139409293Y-107986907D01*
X139440826Y-108025160D01*
X139474553Y-108097486D01*
X139478857Y-108104940D01*
X139509808Y-108149145D01*
X139520458Y-108157170D01*
X139521090Y-108157181D01*
X139527396Y-108153393D01*
X140199704Y-107481086D01*
X140204946Y-107470797D01*
X140934242Y-107470797D01*
X140935038Y-107475828D01*
X141610113Y-108150902D01*
X141621996Y-108156956D01*
X141622618Y-108156858D01*
X141628171Y-108152031D01*
X141661143Y-108104940D01*
X141665447Y-108097486D01*
X141754820Y-107905828D01*
X141757769Y-107897726D01*
X141764450Y-107872792D01*
X142142001Y-107872792D01*
X142142267Y-107877922D01*
X142152409Y-107975673D01*
X142154682Y-107986200D01*
X142207086Y-108143277D01*
X142211933Y-108153624D01*
X142298891Y-108294145D01*
X142305987Y-108303098D01*
X142422939Y-108419847D01*
X142431904Y-108426927D01*
X142572580Y-108513641D01*
X142582934Y-108518469D01*
X142740110Y-108570602D01*
X142750621Y-108572855D01*
X142847112Y-108582741D01*
X142852170Y-108583000D01*
X143230320Y-108583000D01*
X143243005Y-108578878D01*
X143246000Y-108574757D01*
X143246000Y-108567319D01*
X143754000Y-108567319D01*
X143758122Y-108580004D01*
X143762243Y-108582999D01*
X144147792Y-108582999D01*
X144152922Y-108582733D01*
X144250673Y-108572591D01*
X144261200Y-108570318D01*
X144418277Y-108517914D01*
X144428624Y-108513067D01*
X144569145Y-108426109D01*
X144578098Y-108419013D01*
X144694847Y-108302061D01*
X144701927Y-108293096D01*
X144788641Y-108152420D01*
X144793469Y-108142066D01*
X144845602Y-107984890D01*
X144847855Y-107974379D01*
X144857741Y-107877888D01*
X144858000Y-107872830D01*
X144858000Y-107711995D01*
X144876907Y-107653804D01*
X144926407Y-107617840D01*
X144987593Y-107617840D01*
X145037093Y-107653804D01*
X145044410Y-107665515D01*
X145120782Y-107809151D01*
X145250989Y-107968800D01*
X145254717Y-107971884D01*
X145254718Y-107971885D01*
X145402822Y-108094407D01*
X145409725Y-108100118D01*
X145489546Y-108143277D01*
X145584439Y-108194585D01*
X145590945Y-108198103D01*
X145631278Y-108210588D01*
X145783125Y-108257593D01*
X145783129Y-108257594D01*
X145787746Y-108259023D01*
X145792554Y-108259528D01*
X145792557Y-108259529D01*
X145987815Y-108280051D01*
X145987817Y-108280051D01*
X145992631Y-108280557D01*
X146052646Y-108275095D01*
X146192978Y-108262325D01*
X146192983Y-108262324D01*
X146197797Y-108261886D01*
X146395428Y-108203720D01*
X146406173Y-108198103D01*
X146491694Y-108153393D01*
X146577998Y-108108274D01*
X146621762Y-108073087D01*
X146734780Y-107982219D01*
X146734783Y-107982217D01*
X146738553Y-107979185D01*
X146742586Y-107974379D01*
X146867859Y-107825085D01*
X146867860Y-107825083D01*
X146870976Y-107821370D01*
X146877694Y-107809151D01*
X146948065Y-107681145D01*
X146970224Y-107640838D01*
X146977520Y-107617840D01*
X147031052Y-107449083D01*
X147032516Y-107444468D01*
X147034136Y-107430030D01*
X147050191Y-107286892D01*
X147050191Y-107286890D01*
X147050500Y-107284136D01*
X147050500Y-107023159D01*
X147049785Y-107015864D01*
X147035952Y-106874780D01*
X147035951Y-106874776D01*
X147035480Y-106869970D01*
X147028345Y-106846336D01*
X146994730Y-106735000D01*
X146975935Y-106672749D01*
X146879218Y-106490849D01*
X146749011Y-106331200D01*
X146742267Y-106325621D01*
X146594002Y-106202965D01*
X146594000Y-106202964D01*
X146590275Y-106199882D01*
X146409055Y-106101897D01*
X146306242Y-106070071D01*
X146216875Y-106042407D01*
X146216871Y-106042406D01*
X146212254Y-106040977D01*
X146207446Y-106040472D01*
X146207443Y-106040471D01*
X146012185Y-106019949D01*
X146012183Y-106019949D01*
X146007369Y-106019443D01*
X145947354Y-106024905D01*
X145807022Y-106037675D01*
X145807017Y-106037676D01*
X145802203Y-106038114D01*
X145604572Y-106096280D01*
X145600288Y-106098519D01*
X145600287Y-106098520D01*
X145558349Y-106120445D01*
X145422002Y-106191726D01*
X145418231Y-106194758D01*
X145265220Y-106317781D01*
X145265217Y-106317783D01*
X145261447Y-106320815D01*
X145258333Y-106324526D01*
X145258332Y-106324527D01*
X145140599Y-106464836D01*
X145129024Y-106478630D01*
X145126690Y-106482876D01*
X145126685Y-106482883D01*
X145043753Y-106633737D01*
X144999151Y-106675622D01*
X144938448Y-106683290D01*
X144884831Y-106653814D01*
X144858780Y-106598452D01*
X144857999Y-106586044D01*
X144857999Y-106427208D01*
X144857733Y-106422078D01*
X144847591Y-106324327D01*
X144845318Y-106313800D01*
X144792914Y-106156723D01*
X144788067Y-106146376D01*
X144701109Y-106005855D01*
X144694013Y-105996902D01*
X144577061Y-105880153D01*
X144568096Y-105873073D01*
X144427420Y-105786359D01*
X144417066Y-105781531D01*
X144259890Y-105729398D01*
X144249379Y-105727145D01*
X144152888Y-105717259D01*
X144147830Y-105717000D01*
X143769680Y-105717000D01*
X143756995Y-105721122D01*
X143754000Y-105725243D01*
X143754000Y-108567319D01*
X143246000Y-108567319D01*
X143246000Y-107419680D01*
X143241878Y-107406995D01*
X143237757Y-107404000D01*
X142157681Y-107404000D01*
X142144996Y-107408122D01*
X142142001Y-107412243D01*
X142142001Y-107872792D01*
X141764450Y-107872792D01*
X141812501Y-107693461D01*
X141813997Y-107684973D01*
X141832428Y-107474309D01*
X141832428Y-107465691D01*
X141813997Y-107255027D01*
X141812501Y-107246539D01*
X141757769Y-107042274D01*
X141754820Y-107034172D01*
X141683077Y-106880320D01*
X142142000Y-106880320D01*
X142146122Y-106893005D01*
X142150243Y-106896000D01*
X143230320Y-106896000D01*
X143243005Y-106891878D01*
X143246000Y-106887757D01*
X143246000Y-105732681D01*
X143241878Y-105719996D01*
X143237757Y-105717001D01*
X142852208Y-105717001D01*
X142847078Y-105717267D01*
X142749327Y-105727409D01*
X142738800Y-105729682D01*
X142581723Y-105782086D01*
X142571376Y-105786933D01*
X142430855Y-105873891D01*
X142421902Y-105880987D01*
X142305153Y-105997939D01*
X142298073Y-106006904D01*
X142211359Y-106147580D01*
X142206531Y-106157934D01*
X142154398Y-106315110D01*
X142152145Y-106325621D01*
X142142259Y-106422112D01*
X142142000Y-106427171D01*
X142142000Y-106880320D01*
X141683077Y-106880320D01*
X141665447Y-106842514D01*
X141661143Y-106835060D01*
X141630192Y-106790855D01*
X141619542Y-106782830D01*
X141618910Y-106782819D01*
X141612604Y-106786607D01*
X140940296Y-107458914D01*
X140934242Y-107470797D01*
X140204946Y-107470797D01*
X140205758Y-107469203D01*
X140204962Y-107464172D01*
X139895877Y-107155088D01*
X139874115Y-107144000D01*
X139249500Y-107144000D01*
X139191309Y-107125093D01*
X139155345Y-107075593D01*
X139150500Y-107045000D01*
X139150500Y-106717617D01*
X139169407Y-106659426D01*
X139176997Y-106653912D01*
X139196000Y-106627757D01*
X139196000Y-106441609D01*
X139916500Y-106441609D01*
X139924047Y-106464836D01*
X140084125Y-106624914D01*
X140105883Y-106636000D01*
X140199000Y-106636000D01*
X140257191Y-106654907D01*
X140293155Y-106704407D01*
X140298000Y-106735000D01*
X140298000Y-106823109D01*
X140305547Y-106846336D01*
X140558911Y-107099701D01*
X140570798Y-107105758D01*
X140575828Y-107104962D01*
X141250902Y-106429887D01*
X141256956Y-106418004D01*
X141256858Y-106417382D01*
X141252031Y-106411829D01*
X141204948Y-106378861D01*
X141197478Y-106374549D01*
X141005825Y-106285179D01*
X140997732Y-106282233D01*
X140793461Y-106227499D01*
X140784973Y-106226003D01*
X140662243Y-106215265D01*
X140605922Y-106191358D01*
X140574409Y-106138912D01*
X140579742Y-106077959D01*
X140586596Y-106064694D01*
X140589735Y-106059602D01*
X140594563Y-106049248D01*
X140645778Y-105894840D01*
X140648031Y-105884326D01*
X140657741Y-105789556D01*
X140658000Y-105784499D01*
X140658000Y-105769680D01*
X140653878Y-105756995D01*
X140649757Y-105754000D01*
X139932180Y-105754000D01*
X139919495Y-105758122D01*
X139916500Y-105762243D01*
X139916500Y-106441609D01*
X139196000Y-106441609D01*
X139196000Y-105871000D01*
X139214907Y-105812809D01*
X139264407Y-105776845D01*
X139295000Y-105772000D01*
X139392820Y-105772000D01*
X139405505Y-105767878D01*
X139408500Y-105763757D01*
X139408500Y-104532680D01*
X139404378Y-104519995D01*
X139400257Y-104517000D01*
X139365537Y-104517000D01*
X139360410Y-104517265D01*
X139264402Y-104527227D01*
X139253867Y-104529503D01*
X139099565Y-104580982D01*
X139089216Y-104585830D01*
X138951172Y-104671253D01*
X138942219Y-104678349D01*
X138827529Y-104793239D01*
X138820449Y-104802204D01*
X138735265Y-104940398D01*
X138730437Y-104950752D01*
X138681758Y-105097515D01*
X138645492Y-105146795D01*
X138587187Y-105165346D01*
X138529113Y-105146084D01*
X138494384Y-105099150D01*
X138481414Y-105062215D01*
X138481412Y-105062211D01*
X138478961Y-105055232D01*
X138400711Y-104949289D01*
X138294768Y-104871039D01*
X138213484Y-104842494D01*
X138164846Y-104805374D01*
X138147314Y-104746753D01*
X138167588Y-104689024D01*
X138174332Y-104681313D01*
X138178282Y-104678282D01*
X138274536Y-104552841D01*
X138335044Y-104406762D01*
X138355682Y-104250000D01*
X138335044Y-104093238D01*
X138274536Y-103947159D01*
X138178282Y-103821718D01*
X138052841Y-103725464D01*
X137906762Y-103664956D01*
X137750000Y-103644318D01*
X137593238Y-103664956D01*
X137447159Y-103725464D01*
X137321718Y-103821718D01*
X137319148Y-103825067D01*
X137265487Y-103852408D01*
X137205055Y-103842837D01*
X137181174Y-103825487D01*
X137178282Y-103821718D01*
X137052841Y-103725464D01*
X137048878Y-103723823D01*
X137008559Y-103679042D01*
X137000001Y-103638777D01*
X137000001Y-102364987D01*
X137000304Y-102360858D01*
X137001927Y-102356132D01*
X137000071Y-102306697D01*
X137000001Y-102302983D01*
X137000001Y-102283526D01*
X136999176Y-102279096D01*
X136998840Y-102273910D01*
X136998070Y-102253399D01*
X136998070Y-102253398D01*
X136997727Y-102244266D01*
X136994121Y-102235872D01*
X136994120Y-102235869D01*
X136993184Y-102233691D01*
X136986818Y-102212740D01*
X136984710Y-102201421D01*
X136970733Y-102178745D01*
X136964049Y-102165878D01*
X136956294Y-102147827D01*
X136956293Y-102147825D01*
X136953537Y-102141411D01*
X136949524Y-102136525D01*
X136945158Y-102132159D01*
X136930886Y-102114103D01*
X136930765Y-102113906D01*
X136930764Y-102113905D01*
X136925969Y-102106126D01*
X136902745Y-102088466D01*
X136892666Y-102079667D01*
X135460326Y-100647327D01*
X135432549Y-100592810D01*
X135442120Y-100532378D01*
X135475328Y-100495009D01*
X135502112Y-100477112D01*
X135560240Y-100390117D01*
X135565413Y-100364109D01*
X135595309Y-100310726D01*
X135650874Y-100285110D01*
X135710884Y-100297047D01*
X135741053Y-100323157D01*
X135821718Y-100428282D01*
X135947159Y-100524536D01*
X136061066Y-100571718D01*
X136082319Y-100580521D01*
X136093238Y-100585044D01*
X136250000Y-100605682D01*
X136406762Y-100585044D01*
X136417682Y-100580521D01*
X136438934Y-100571718D01*
X136552841Y-100524536D01*
X136678282Y-100428282D01*
X136774536Y-100302841D01*
X136835044Y-100156762D01*
X136855682Y-100000000D01*
X136835044Y-99843238D01*
X136774536Y-99697159D01*
X136678282Y-99571718D01*
X136573157Y-99491053D01*
X136538501Y-99440629D01*
X136540102Y-99379464D01*
X136577350Y-99330923D01*
X136614110Y-99315413D01*
X136630556Y-99312142D01*
X136630557Y-99312141D01*
X136640117Y-99310240D01*
X136727112Y-99252112D01*
X136785240Y-99165117D01*
X136800500Y-99088401D01*
X136800499Y-98924501D01*
X136819406Y-98866310D01*
X136868906Y-98830346D01*
X136899499Y-98825500D01*
X137444030Y-98825500D01*
X137502221Y-98844407D01*
X137522571Y-98864232D01*
X137571718Y-98928282D01*
X137697159Y-99024536D01*
X137843238Y-99085044D01*
X138000000Y-99105682D01*
X138156762Y-99085044D01*
X138302841Y-99024536D01*
X138428282Y-98928282D01*
X138524536Y-98802841D01*
X138585044Y-98656762D01*
X138605682Y-98500000D01*
X138585044Y-98343238D01*
X138524536Y-98197159D01*
X138428282Y-98071718D01*
X138302841Y-97975464D01*
X138156762Y-97914956D01*
X138000000Y-97894318D01*
X137843238Y-97914956D01*
X137697159Y-97975464D01*
X137571718Y-98071718D01*
X137524509Y-98133243D01*
X137522572Y-98135767D01*
X137472148Y-98170423D01*
X137444030Y-98174500D01*
X137189314Y-98174500D01*
X137131123Y-98155593D01*
X137121166Y-98147311D01*
X137098915Y-98126195D01*
X137093634Y-98125000D01*
X136063680Y-98125000D01*
X136050993Y-98129122D01*
X136047673Y-98133692D01*
X135998173Y-98169656D01*
X135967581Y-98174501D01*
X135811600Y-98174501D01*
X135806834Y-98175449D01*
X135744444Y-98187858D01*
X135744443Y-98187859D01*
X135734883Y-98189760D01*
X135682934Y-98224471D01*
X135663710Y-98237316D01*
X135608709Y-98254000D01*
X132551000Y-98254000D01*
X132492809Y-98235093D01*
X132456845Y-98185593D01*
X132452000Y-98155000D01*
X132452000Y-98140680D01*
X132447878Y-98127995D01*
X132446669Y-98127116D01*
X132440495Y-98129122D01*
X132437500Y-98133243D01*
X132437500Y-98859320D01*
X132441622Y-98872005D01*
X132445743Y-98875000D01*
X133174000Y-98875000D01*
X133232191Y-98893907D01*
X133268155Y-98943407D01*
X133269082Y-98949262D01*
X133277122Y-98974005D01*
X133281370Y-98977092D01*
X133288486Y-98978219D01*
X133288059Y-98980918D01*
X133334191Y-98995907D01*
X133370155Y-99045407D01*
X133375000Y-99076000D01*
X133375000Y-99963500D01*
X133356093Y-100021691D01*
X133306593Y-100057655D01*
X133276000Y-100062500D01*
X132632680Y-100062500D01*
X132619995Y-100066622D01*
X132617000Y-100070743D01*
X132617000Y-100321653D01*
X132617423Y-100328107D01*
X132630837Y-100429999D01*
X132634167Y-100442424D01*
X132670172Y-100529349D01*
X132674973Y-100590345D01*
X132643003Y-100642514D01*
X132604330Y-100662861D01*
X132599672Y-100664109D01*
X132593238Y-100664956D01*
X132587244Y-100667439D01*
X132587243Y-100667439D01*
X132539529Y-100687203D01*
X132447159Y-100725464D01*
X132445165Y-100726994D01*
X132386960Y-100739366D01*
X132327304Y-100710912D01*
X132263342Y-100646950D01*
X132256405Y-100643415D01*
X132256403Y-100643414D01*
X132157244Y-100592890D01*
X132157243Y-100592890D01*
X132150304Y-100589354D01*
X132142610Y-100588135D01*
X132142609Y-100588135D01*
X132060365Y-100575109D01*
X132060363Y-100575109D01*
X132056519Y-100574500D01*
X131825030Y-100574500D01*
X131593482Y-100574501D01*
X131589639Y-100575110D01*
X131589634Y-100575110D01*
X131555470Y-100580521D01*
X131499696Y-100589354D01*
X131443177Y-100618152D01*
X131393597Y-100643414D01*
X131393595Y-100643415D01*
X131386658Y-100646950D01*
X131296950Y-100736658D01*
X131293415Y-100743596D01*
X131293412Y-100743600D01*
X131249407Y-100829964D01*
X131206143Y-100873228D01*
X131145710Y-100882799D01*
X131091194Y-100855021D01*
X131066728Y-100814623D01*
X131026798Y-100687203D01*
X131021921Y-100676403D01*
X130939333Y-100540035D01*
X130932024Y-100530712D01*
X130819288Y-100417976D01*
X130809965Y-100410667D01*
X130673597Y-100328079D01*
X130662797Y-100323202D01*
X130509979Y-100275313D01*
X130499743Y-100273263D01*
X130441794Y-100267938D01*
X130431995Y-100271122D01*
X130429000Y-100275243D01*
X130429000Y-101405000D01*
X130410093Y-101463191D01*
X130360593Y-101499155D01*
X130330000Y-101504000D01*
X129282681Y-101504000D01*
X129269996Y-101508122D01*
X129267001Y-101512243D01*
X129267001Y-101579327D01*
X129267208Y-101583837D01*
X129273263Y-101649744D01*
X129275312Y-101659978D01*
X129323202Y-101812797D01*
X129328079Y-101823597D01*
X129410667Y-101959965D01*
X129417976Y-101969288D01*
X129530711Y-102082023D01*
X129539568Y-102088968D01*
X129573693Y-102139753D01*
X129576261Y-102182359D01*
X129575233Y-102188851D01*
X129574500Y-102193481D01*
X129574501Y-102806518D01*
X129575110Y-102810361D01*
X129575110Y-102810366D01*
X129579019Y-102835044D01*
X129589354Y-102900304D01*
X129602300Y-102925711D01*
X129643414Y-103006402D01*
X129646950Y-103013342D01*
X129695926Y-103062318D01*
X129723703Y-103116835D01*
X129714132Y-103177267D01*
X129695926Y-103202326D01*
X129651472Y-103246780D01*
X129647937Y-103253717D01*
X129647936Y-103253719D01*
X129595616Y-103356404D01*
X129590281Y-103366874D01*
X129589062Y-103374568D01*
X129589062Y-103374569D01*
X129583266Y-103411165D01*
X129574500Y-103466512D01*
X129574500Y-104033488D01*
X129575109Y-104037332D01*
X129575109Y-104037334D01*
X129583014Y-104087241D01*
X129590281Y-104133126D01*
X129593817Y-104140065D01*
X129593817Y-104140066D01*
X129642236Y-104235093D01*
X129651472Y-104253220D01*
X129746780Y-104348528D01*
X129753717Y-104352063D01*
X129753719Y-104352064D01*
X129791308Y-104371216D01*
X129845446Y-104398801D01*
X129888710Y-104442065D01*
X129899500Y-104487010D01*
X129899500Y-104669114D01*
X129898178Y-104679149D01*
X129898733Y-104679198D01*
X129897978Y-104687826D01*
X129895736Y-104696193D01*
X129896491Y-104704822D01*
X129899123Y-104734905D01*
X129899500Y-104743534D01*
X129899500Y-105825500D01*
X129880593Y-105883691D01*
X129831093Y-105919655D01*
X129800500Y-105924500D01*
X129221166Y-105924500D01*
X129218865Y-105924718D01*
X129218855Y-105924718D01*
X129195639Y-105926913D01*
X129195638Y-105926913D01*
X129189631Y-105927481D01*
X129061816Y-105972366D01*
X129055865Y-105976761D01*
X129055864Y-105976762D01*
X128958807Y-106048450D01*
X128952850Y-106052850D01*
X128948450Y-106058807D01*
X128900097Y-106124272D01*
X128872366Y-106161816D01*
X128827481Y-106289631D01*
X128824500Y-106321166D01*
X128824500Y-107678834D01*
X128824718Y-107681135D01*
X128824718Y-107681145D01*
X128826913Y-107704361D01*
X128827481Y-107710369D01*
X128872366Y-107838184D01*
X128876761Y-107844135D01*
X128876762Y-107844136D01*
X128905533Y-107883088D01*
X128924897Y-107941128D01*
X128906448Y-107999465D01*
X128857232Y-108035817D01*
X128812978Y-108040059D01*
X128473502Y-107995366D01*
X128467824Y-107994949D01*
X128126667Y-107989590D01*
X128121000Y-107989827D01*
X127781486Y-108023715D01*
X127775853Y-108024607D01*
X127692054Y-108042879D01*
X127631172Y-108036803D01*
X127585488Y-107996101D01*
X127572453Y-107936320D01*
X127591331Y-107887334D01*
X127623238Y-107844136D01*
X127623239Y-107844135D01*
X127627634Y-107838184D01*
X127672519Y-107710369D01*
X127673087Y-107704361D01*
X127675282Y-107681145D01*
X127675282Y-107681135D01*
X127675500Y-107678834D01*
X127675500Y-106321166D01*
X127672519Y-106289631D01*
X127627634Y-106161816D01*
X127599904Y-106124272D01*
X127551550Y-106058807D01*
X127547150Y-106052850D01*
X127541193Y-106048450D01*
X127444136Y-105976762D01*
X127444135Y-105976761D01*
X127438184Y-105972366D01*
X127346964Y-105940332D01*
X127298326Y-105903213D01*
X127280794Y-105844593D01*
X127281614Y-105834003D01*
X127282734Y-105825500D01*
X127299507Y-105698092D01*
X127278869Y-105541330D01*
X127218361Y-105395251D01*
X127122107Y-105269810D01*
X126996666Y-105173556D01*
X126850587Y-105113048D01*
X126693825Y-105092410D01*
X126537063Y-105113048D01*
X126390984Y-105173556D01*
X126265543Y-105269810D01*
X126169289Y-105395251D01*
X126108781Y-105541330D01*
X126088143Y-105698092D01*
X126108781Y-105854854D01*
X126111265Y-105860852D01*
X126111266Y-105860854D01*
X126155747Y-105968242D01*
X126160548Y-106029238D01*
X126143916Y-106064945D01*
X126095029Y-106131133D01*
X126072366Y-106161816D01*
X126027481Y-106289631D01*
X126024500Y-106321166D01*
X126024500Y-107678834D01*
X125450500Y-107678834D01*
X125450500Y-107580252D01*
X125445279Y-107554005D01*
X125440770Y-107531334D01*
X125440769Y-107531332D01*
X125438867Y-107521769D01*
X125394552Y-107455448D01*
X125386442Y-107450029D01*
X125381417Y-107445004D01*
X125353640Y-107390487D01*
X125363211Y-107330055D01*
X125381417Y-107304996D01*
X125386442Y-107299971D01*
X125394552Y-107294552D01*
X125438867Y-107228231D01*
X125450500Y-107169748D01*
X125450500Y-106330252D01*
X125441535Y-106285180D01*
X125440770Y-106281334D01*
X125440769Y-106281332D01*
X125438867Y-106271769D01*
X125394552Y-106205448D01*
X125386442Y-106200029D01*
X125381417Y-106195004D01*
X125353640Y-106140487D01*
X125363211Y-106080055D01*
X125381417Y-106054996D01*
X125386442Y-106049971D01*
X125394552Y-106044552D01*
X125438867Y-105978231D01*
X125450500Y-105919748D01*
X125450500Y-105080252D01*
X125444339Y-105049278D01*
X125440770Y-105031334D01*
X125440769Y-105031332D01*
X125438867Y-105021769D01*
X125394552Y-104955448D01*
X125328231Y-104911133D01*
X125318668Y-104909231D01*
X125318666Y-104909230D01*
X125295995Y-104904721D01*
X125269748Y-104899500D01*
X124006869Y-104899500D01*
X123948678Y-104880593D01*
X123912714Y-104831093D01*
X123908402Y-104798089D01*
X123908000Y-104798089D01*
X123908000Y-104269680D01*
X123903878Y-104256995D01*
X123899757Y-104254000D01*
X122845000Y-104254000D01*
X122786809Y-104235093D01*
X122750845Y-104185593D01*
X122746000Y-104155000D01*
X122746000Y-103730320D01*
X123254000Y-103730320D01*
X123258122Y-103743005D01*
X123262243Y-103746000D01*
X123892319Y-103746000D01*
X123905004Y-103741878D01*
X123907999Y-103737757D01*
X123907999Y-103204584D01*
X123907710Y-103199249D01*
X123901922Y-103145965D01*
X123899073Y-103133980D01*
X123852649Y-103010145D01*
X123845941Y-102997892D01*
X123767137Y-102892744D01*
X123757256Y-102882863D01*
X123652108Y-102804059D01*
X123639855Y-102797351D01*
X123516022Y-102750928D01*
X123504033Y-102748077D01*
X123450748Y-102742289D01*
X123445414Y-102742000D01*
X123269680Y-102742000D01*
X123256995Y-102746122D01*
X123254000Y-102750243D01*
X123254000Y-103730320D01*
X122746000Y-103730320D01*
X122746000Y-102757681D01*
X122741878Y-102744996D01*
X122737757Y-102742001D01*
X122554589Y-102742001D01*
X122549250Y-102742290D01*
X122509406Y-102746618D01*
X122449514Y-102734105D01*
X122408416Y-102688778D01*
X122400563Y-102661119D01*
X122399604Y-102653834D01*
X122385044Y-102543238D01*
X122324536Y-102397159D01*
X122228282Y-102271718D01*
X122164233Y-102222571D01*
X122129577Y-102172148D01*
X122125500Y-102144030D01*
X122125500Y-101587137D01*
X122127004Y-101569946D01*
X122129017Y-101558530D01*
X122129017Y-101558529D01*
X122130521Y-101550000D01*
X122129789Y-101545848D01*
X122121066Y-101412759D01*
X122112050Y-101275199D01*
X122112049Y-101275193D01*
X122111838Y-101271971D01*
X122057481Y-100998700D01*
X121979257Y-100768261D01*
X121968962Y-100737933D01*
X121968961Y-100737930D01*
X121967919Y-100734861D01*
X121844687Y-100484970D01*
X121689891Y-100253301D01*
X121506180Y-100043820D01*
X121311891Y-99873432D01*
X121280607Y-99820849D01*
X121286206Y-99759920D01*
X121326548Y-99713919D01*
X121377166Y-99700000D01*
X121966040Y-99700000D01*
X121988227Y-99702518D01*
X121999642Y-99705143D01*
X122010517Y-99702682D01*
X122021664Y-99702702D01*
X122021664Y-99702863D01*
X122031669Y-99702076D01*
X122103759Y-99706801D01*
X122228475Y-99714975D01*
X122241302Y-99716663D01*
X122459516Y-99760068D01*
X122472016Y-99763418D01*
X122585863Y-99802064D01*
X122682691Y-99834933D01*
X122694653Y-99839889D01*
X122727156Y-99855917D01*
X122894180Y-99938284D01*
X122905386Y-99944753D01*
X123090385Y-100068365D01*
X123100639Y-100076233D01*
X123249724Y-100206978D01*
X123267914Y-100222930D01*
X123277069Y-100232085D01*
X123423767Y-100399361D01*
X123431635Y-100409615D01*
X123555247Y-100594614D01*
X123561716Y-100605820D01*
X123660111Y-100805346D01*
X123665067Y-100817308D01*
X123727719Y-101001873D01*
X123736581Y-101027980D01*
X123739932Y-101040484D01*
X123782248Y-101253220D01*
X123783336Y-101258691D01*
X123785025Y-101271523D01*
X123797891Y-101467816D01*
X123797101Y-101477628D01*
X123797375Y-101477628D01*
X123797355Y-101488778D01*
X123794857Y-101499642D01*
X123797317Y-101510514D01*
X123797317Y-101510516D01*
X123797559Y-101511583D01*
X123800000Y-101533432D01*
X123800000Y-101966040D01*
X123797482Y-101988227D01*
X123794857Y-101999642D01*
X123795717Y-102003444D01*
X123796654Y-102014157D01*
X123796654Y-102014158D01*
X123803156Y-102088470D01*
X123813716Y-102209174D01*
X123814835Y-102213349D01*
X123814835Y-102213351D01*
X123834862Y-102288091D01*
X123868061Y-102411992D01*
X123956800Y-102602292D01*
X123959281Y-102605835D01*
X123959282Y-102605837D01*
X123967269Y-102617244D01*
X124077235Y-102774292D01*
X124225708Y-102922765D01*
X124333001Y-102997892D01*
X124382647Y-103032654D01*
X124397708Y-103043200D01*
X124588008Y-103131939D01*
X124640354Y-103145965D01*
X124786649Y-103185165D01*
X124786651Y-103185165D01*
X124790826Y-103186284D01*
X125000000Y-103204584D01*
X125209174Y-103186284D01*
X125213349Y-103185165D01*
X125213351Y-103185165D01*
X125359646Y-103145965D01*
X125411992Y-103131939D01*
X125602292Y-103043200D01*
X125617354Y-103032654D01*
X125666999Y-102997892D01*
X125774292Y-102922765D01*
X125922765Y-102774292D01*
X126032731Y-102617244D01*
X126040718Y-102605837D01*
X126040719Y-102605835D01*
X126041120Y-102605262D01*
X127194520Y-102605262D01*
X127194925Y-102610082D01*
X127211214Y-102804059D01*
X127211759Y-102810553D01*
X127213092Y-102815201D01*
X127213092Y-102815202D01*
X127266897Y-103002841D01*
X127268544Y-103008586D01*
X127362712Y-103191818D01*
X127490677Y-103353270D01*
X127494357Y-103356402D01*
X127494359Y-103356404D01*
X127566575Y-103417864D01*
X127647564Y-103486791D01*
X127651787Y-103489151D01*
X127651791Y-103489154D01*
X127739698Y-103538283D01*
X127827398Y-103587297D01*
X127831996Y-103588791D01*
X128018724Y-103649463D01*
X128018726Y-103649464D01*
X128023329Y-103650959D01*
X128227894Y-103675351D01*
X128232716Y-103674980D01*
X128232719Y-103674980D01*
X128300541Y-103669761D01*
X128433300Y-103659546D01*
X128631725Y-103604145D01*
X128636038Y-103601966D01*
X128636044Y-103601964D01*
X128811289Y-103513441D01*
X128811291Y-103513440D01*
X128815610Y-103511258D01*
X128819427Y-103508276D01*
X128974135Y-103387406D01*
X128974139Y-103387402D01*
X128977951Y-103384424D01*
X128998768Y-103360308D01*
X129090611Y-103253905D01*
X129112564Y-103228472D01*
X129114957Y-103224260D01*
X129211934Y-103053550D01*
X129211935Y-103053547D01*
X129214323Y-103049344D01*
X129217193Y-103040718D01*
X129277824Y-102858454D01*
X129277824Y-102858452D01*
X129279351Y-102853863D01*
X129281622Y-102835891D01*
X129304823Y-102652228D01*
X129305171Y-102649474D01*
X129305583Y-102620000D01*
X129304611Y-102610082D01*
X129285952Y-102419780D01*
X129285951Y-102419776D01*
X129285480Y-102414970D01*
X129283059Y-102406949D01*
X129242229Y-102271718D01*
X129225935Y-102217749D01*
X129129218Y-102035849D01*
X128999011Y-101876200D01*
X128990800Y-101869407D01*
X128844002Y-101747965D01*
X128844000Y-101747964D01*
X128840275Y-101744882D01*
X128665356Y-101650304D01*
X128663309Y-101649197D01*
X128663308Y-101649197D01*
X128659055Y-101646897D01*
X128525911Y-101605682D01*
X128466875Y-101587407D01*
X128466871Y-101587406D01*
X128462254Y-101585977D01*
X128457446Y-101585472D01*
X128457443Y-101585471D01*
X128262185Y-101564949D01*
X128262183Y-101564949D01*
X128257369Y-101564443D01*
X128197354Y-101569905D01*
X128057022Y-101582675D01*
X128057017Y-101582676D01*
X128052203Y-101583114D01*
X127854572Y-101641280D01*
X127850288Y-101643519D01*
X127850287Y-101643520D01*
X127810904Y-101664109D01*
X127672002Y-101736726D01*
X127668231Y-101739758D01*
X127515220Y-101862781D01*
X127515217Y-101862783D01*
X127511447Y-101865815D01*
X127508333Y-101869526D01*
X127508332Y-101869527D01*
X127386035Y-102015275D01*
X127379024Y-102023630D01*
X127376689Y-102027878D01*
X127376688Y-102027879D01*
X127369955Y-102040126D01*
X127279776Y-102204162D01*
X127278313Y-102208775D01*
X127278311Y-102208779D01*
X127254600Y-102283526D01*
X127217484Y-102400532D01*
X127216944Y-102405344D01*
X127216944Y-102405345D01*
X127202150Y-102537241D01*
X127194520Y-102605262D01*
X126041120Y-102605262D01*
X126043200Y-102602292D01*
X126131939Y-102411992D01*
X126165138Y-102288091D01*
X126185165Y-102213351D01*
X126185165Y-102213349D01*
X126186284Y-102209174D01*
X126204145Y-102005017D01*
X126204480Y-102005046D01*
X126204411Y-102003870D01*
X126205142Y-102000716D01*
X126205143Y-102000000D01*
X126202479Y-101988321D01*
X126200000Y-101966304D01*
X126200000Y-100065262D01*
X127194520Y-100065262D01*
X127199546Y-100125109D01*
X127210537Y-100255996D01*
X127211759Y-100270553D01*
X127213092Y-100275201D01*
X127213092Y-100275202D01*
X127260534Y-100440651D01*
X127268544Y-100468586D01*
X127362712Y-100651818D01*
X127490677Y-100813270D01*
X127494357Y-100816402D01*
X127494359Y-100816404D01*
X127572373Y-100882799D01*
X127647564Y-100946791D01*
X127651787Y-100949151D01*
X127651791Y-100949154D01*
X127730254Y-100993005D01*
X127827398Y-101047297D01*
X127831996Y-101048791D01*
X128018724Y-101109463D01*
X128018726Y-101109464D01*
X128023329Y-101110959D01*
X128227894Y-101135351D01*
X128232716Y-101134980D01*
X128232719Y-101134980D01*
X128300541Y-101129761D01*
X128433300Y-101119546D01*
X128631725Y-101064145D01*
X128636038Y-101061966D01*
X128636044Y-101061964D01*
X128811289Y-100973441D01*
X128811291Y-100973440D01*
X128815610Y-100971258D01*
X128843902Y-100949154D01*
X128974135Y-100847406D01*
X128974139Y-100847402D01*
X128977951Y-100844424D01*
X128981755Y-100840018D01*
X129057016Y-100752825D01*
X129112564Y-100688472D01*
X129123914Y-100668492D01*
X129169096Y-100627235D01*
X129229900Y-100620414D01*
X129283101Y-100650635D01*
X129308377Y-100706356D01*
X129304464Y-100746996D01*
X129275313Y-100840018D01*
X129273263Y-100850257D01*
X129267207Y-100916163D01*
X129267000Y-100920672D01*
X129267000Y-100980320D01*
X129271122Y-100993005D01*
X129275243Y-100996000D01*
X129905320Y-100996000D01*
X129918005Y-100991878D01*
X129921000Y-100987757D01*
X129921000Y-100282681D01*
X129916878Y-100269996D01*
X129913391Y-100267462D01*
X129850256Y-100273263D01*
X129840022Y-100275312D01*
X129687203Y-100323202D01*
X129676403Y-100328079D01*
X129540035Y-100410667D01*
X129530712Y-100417976D01*
X129417976Y-100530712D01*
X129410666Y-100540035D01*
X129409607Y-100541784D01*
X129408641Y-100542618D01*
X129406985Y-100544730D01*
X129406570Y-100544405D01*
X129363289Y-100581764D01*
X129302319Y-100586883D01*
X129249983Y-100555187D01*
X129226273Y-100498782D01*
X129230987Y-100459250D01*
X129277824Y-100318454D01*
X129277824Y-100318452D01*
X129279351Y-100313863D01*
X129280633Y-100303719D01*
X129300724Y-100144673D01*
X129305171Y-100109474D01*
X129305583Y-100080000D01*
X129305284Y-100076949D01*
X129285952Y-99879780D01*
X129285951Y-99879776D01*
X129285480Y-99874970D01*
X129283862Y-99869609D01*
X129235979Y-99711015D01*
X129225935Y-99677749D01*
X129129218Y-99495849D01*
X128999011Y-99336200D01*
X128969930Y-99312142D01*
X128844002Y-99207965D01*
X128844000Y-99207964D01*
X128840275Y-99204882D01*
X128712819Y-99135967D01*
X131396749Y-99135967D01*
X131405837Y-99204999D01*
X131409167Y-99217424D01*
X131461685Y-99344215D01*
X131468120Y-99355361D01*
X131551660Y-99464233D01*
X131560767Y-99473340D01*
X131669640Y-99556880D01*
X131680784Y-99563314D01*
X131807573Y-99615832D01*
X131820006Y-99619163D01*
X131921893Y-99632577D01*
X131928347Y-99633000D01*
X132171820Y-99633000D01*
X132184505Y-99628878D01*
X132187500Y-99624757D01*
X132187500Y-99617320D01*
X132437500Y-99617320D01*
X132441622Y-99630005D01*
X132445743Y-99633000D01*
X132518000Y-99633000D01*
X132576191Y-99651907D01*
X132612155Y-99701407D01*
X132617000Y-99732000D01*
X132617000Y-99796820D01*
X132621122Y-99809505D01*
X132625243Y-99812500D01*
X133109320Y-99812500D01*
X133122005Y-99808378D01*
X133125000Y-99804257D01*
X133125000Y-99140680D01*
X133120878Y-99127995D01*
X133116757Y-99125000D01*
X132453180Y-99125000D01*
X132440495Y-99129122D01*
X132437500Y-99133243D01*
X132437500Y-99617320D01*
X132187500Y-99617320D01*
X132187500Y-99140680D01*
X132183378Y-99127995D01*
X132179257Y-99125000D01*
X131410985Y-99125000D01*
X131398300Y-99129122D01*
X131397244Y-99130574D01*
X131396749Y-99135967D01*
X128712819Y-99135967D01*
X128659055Y-99106897D01*
X128595855Y-99087333D01*
X128466875Y-99047407D01*
X128466871Y-99047406D01*
X128462254Y-99045977D01*
X128457446Y-99045472D01*
X128457443Y-99045471D01*
X128262185Y-99024949D01*
X128262183Y-99024949D01*
X128257369Y-99024443D01*
X128215745Y-99028231D01*
X128057022Y-99042675D01*
X128057017Y-99042676D01*
X128052203Y-99043114D01*
X127854572Y-99101280D01*
X127850288Y-99103519D01*
X127850287Y-99103520D01*
X127798538Y-99130574D01*
X127672002Y-99196726D01*
X127668231Y-99199758D01*
X127515220Y-99322781D01*
X127515217Y-99322783D01*
X127511447Y-99325815D01*
X127508333Y-99329526D01*
X127508332Y-99329527D01*
X127411443Y-99444995D01*
X127379024Y-99483630D01*
X127376689Y-99487878D01*
X127376688Y-99487879D01*
X127369955Y-99500126D01*
X127279776Y-99664162D01*
X127278313Y-99668775D01*
X127278311Y-99668779D01*
X127237153Y-99798528D01*
X127217484Y-99860532D01*
X127216944Y-99865344D01*
X127216944Y-99865345D01*
X127195890Y-100053051D01*
X127194520Y-100065262D01*
X126200000Y-100065262D01*
X126200000Y-98635967D01*
X131396749Y-98635967D01*
X131405837Y-98704999D01*
X131410846Y-98723691D01*
X131407935Y-98724471D01*
X131411776Y-98773079D01*
X131410736Y-98776280D01*
X131410846Y-98776309D01*
X131405837Y-98795001D01*
X131397352Y-98859455D01*
X131399782Y-98872569D01*
X131401085Y-98873805D01*
X131406366Y-98875000D01*
X132171820Y-98875000D01*
X132184505Y-98870878D01*
X132187500Y-98866757D01*
X132187500Y-98640680D01*
X132183378Y-98627995D01*
X132179257Y-98625000D01*
X131410985Y-98625000D01*
X131398300Y-98629122D01*
X131397244Y-98630574D01*
X131396749Y-98635967D01*
X126200000Y-98635967D01*
X126200000Y-97525262D01*
X127194520Y-97525262D01*
X127197944Y-97566039D01*
X127211183Y-97723691D01*
X127211759Y-97730553D01*
X127213092Y-97735201D01*
X127213092Y-97735202D01*
X127264636Y-97914956D01*
X127268544Y-97928586D01*
X127362712Y-98111818D01*
X127490677Y-98273270D01*
X127494357Y-98276402D01*
X127494359Y-98276404D01*
X127591944Y-98359455D01*
X127647564Y-98406791D01*
X127651787Y-98409151D01*
X127651791Y-98409154D01*
X127691342Y-98431258D01*
X127827398Y-98507297D01*
X127831996Y-98508791D01*
X128018724Y-98569463D01*
X128018726Y-98569464D01*
X128023329Y-98570959D01*
X128227894Y-98595351D01*
X128232716Y-98594980D01*
X128232719Y-98594980D01*
X128300541Y-98589761D01*
X128433300Y-98579546D01*
X128631725Y-98524145D01*
X128636038Y-98521966D01*
X128636044Y-98521964D01*
X128811289Y-98433441D01*
X128811291Y-98433440D01*
X128815610Y-98431258D01*
X128850943Y-98403653D01*
X128974135Y-98307406D01*
X128974139Y-98307402D01*
X128977951Y-98304424D01*
X129021476Y-98254000D01*
X129047637Y-98223691D01*
X129112564Y-98148472D01*
X129114957Y-98144260D01*
X129119668Y-98135967D01*
X131396749Y-98135967D01*
X131405837Y-98204999D01*
X131410846Y-98223691D01*
X131407935Y-98224471D01*
X131411776Y-98273079D01*
X131410736Y-98276280D01*
X131410846Y-98276309D01*
X131405837Y-98295001D01*
X131397352Y-98359455D01*
X131399782Y-98372569D01*
X131401085Y-98373805D01*
X131406366Y-98375000D01*
X132171820Y-98375000D01*
X132184505Y-98370878D01*
X132187500Y-98366757D01*
X132187500Y-98140680D01*
X132183378Y-98127995D01*
X132179257Y-98125000D01*
X131410985Y-98125000D01*
X131398300Y-98129122D01*
X131397244Y-98130574D01*
X131396749Y-98135967D01*
X129119668Y-98135967D01*
X129211934Y-97973550D01*
X129211935Y-97973547D01*
X129214323Y-97969344D01*
X129215870Y-97964696D01*
X129277824Y-97778454D01*
X129277824Y-97778452D01*
X129279351Y-97773863D01*
X129282231Y-97751070D01*
X129296771Y-97635967D01*
X131396749Y-97635967D01*
X131405837Y-97704999D01*
X131410846Y-97723691D01*
X131407935Y-97724471D01*
X131411776Y-97773079D01*
X131410736Y-97776280D01*
X131410846Y-97776309D01*
X131405837Y-97795001D01*
X131397352Y-97859455D01*
X131399782Y-97872569D01*
X131401085Y-97873805D01*
X131406366Y-97875000D01*
X132171820Y-97875000D01*
X132184505Y-97870878D01*
X132187500Y-97866757D01*
X132187500Y-97640680D01*
X132183378Y-97627995D01*
X132179257Y-97625000D01*
X131410985Y-97625000D01*
X131398300Y-97629122D01*
X131397244Y-97630574D01*
X131396749Y-97635967D01*
X129296771Y-97635967D01*
X129302780Y-97588400D01*
X129305171Y-97569474D01*
X129305253Y-97563648D01*
X129305544Y-97542776D01*
X129305583Y-97540000D01*
X129304611Y-97530082D01*
X129285952Y-97339780D01*
X129285951Y-97339776D01*
X129285480Y-97334970D01*
X129260464Y-97252112D01*
X129231311Y-97155554D01*
X129225935Y-97137749D01*
X129129218Y-96955849D01*
X128999011Y-96796200D01*
X128965948Y-96768848D01*
X128844002Y-96667965D01*
X128844000Y-96667964D01*
X128840275Y-96664882D01*
X128674441Y-96575216D01*
X128663309Y-96569197D01*
X128663308Y-96569197D01*
X128659055Y-96566897D01*
X128594281Y-96546846D01*
X128466875Y-96507407D01*
X128466871Y-96507406D01*
X128462254Y-96505977D01*
X128457446Y-96505472D01*
X128457443Y-96505471D01*
X128262185Y-96484949D01*
X128262183Y-96484949D01*
X128257369Y-96484443D01*
X128197354Y-96489905D01*
X128057022Y-96502675D01*
X128057017Y-96502676D01*
X128052203Y-96503114D01*
X127854572Y-96561280D01*
X127850288Y-96563519D01*
X127850287Y-96563520D01*
X127809116Y-96585044D01*
X127672002Y-96656726D01*
X127665192Y-96662201D01*
X127515220Y-96782781D01*
X127515217Y-96782783D01*
X127511447Y-96785815D01*
X127508333Y-96789526D01*
X127508332Y-96789527D01*
X127394588Y-96925082D01*
X127379024Y-96943630D01*
X127376689Y-96947878D01*
X127376688Y-96947879D01*
X127371551Y-96957223D01*
X127279776Y-97124162D01*
X127278313Y-97128775D01*
X127278311Y-97128779D01*
X127239858Y-97250000D01*
X127217484Y-97320532D01*
X127216944Y-97325344D01*
X127216944Y-97325345D01*
X127200075Y-97475740D01*
X127194520Y-97525262D01*
X126200000Y-97525262D01*
X126200000Y-94985262D01*
X127194520Y-94985262D01*
X127201949Y-95073735D01*
X127210647Y-95177308D01*
X127211759Y-95190553D01*
X127213092Y-95195201D01*
X127213092Y-95195202D01*
X127261831Y-95365174D01*
X127268544Y-95388586D01*
X127362712Y-95571818D01*
X127490677Y-95733270D01*
X127494357Y-95736402D01*
X127494359Y-95736404D01*
X127554719Y-95787774D01*
X127647564Y-95866791D01*
X127651787Y-95869151D01*
X127651791Y-95869154D01*
X127691342Y-95891258D01*
X127827398Y-95967297D01*
X127831996Y-95968791D01*
X128018724Y-96029463D01*
X128018726Y-96029464D01*
X128023329Y-96030959D01*
X128227894Y-96055351D01*
X128232716Y-96054980D01*
X128232719Y-96054980D01*
X128300541Y-96049761D01*
X128433300Y-96039546D01*
X128631725Y-95984145D01*
X128636038Y-95981966D01*
X128636044Y-95981964D01*
X128811289Y-95893441D01*
X128811291Y-95893440D01*
X128815610Y-95891258D01*
X128858958Y-95857391D01*
X128974135Y-95767406D01*
X128974139Y-95767402D01*
X128977951Y-95764424D01*
X128992807Y-95747214D01*
X129055092Y-95675054D01*
X129112564Y-95608472D01*
X129123425Y-95589354D01*
X129211934Y-95433550D01*
X129211935Y-95433547D01*
X129214323Y-95429344D01*
X129219110Y-95414956D01*
X129277824Y-95238454D01*
X129277824Y-95238452D01*
X129279351Y-95233863D01*
X129281241Y-95218907D01*
X129304823Y-95032228D01*
X129305171Y-95029474D01*
X129305583Y-95000000D01*
X129303667Y-94980454D01*
X129285952Y-94799780D01*
X129285951Y-94799776D01*
X129285480Y-94794970D01*
X129225935Y-94597749D01*
X129129218Y-94415849D01*
X128999011Y-94256200D01*
X128840275Y-94124882D01*
X128659055Y-94026897D01*
X128595855Y-94007333D01*
X128466875Y-93967407D01*
X128466871Y-93967406D01*
X128462254Y-93965977D01*
X128457446Y-93965472D01*
X128457443Y-93965471D01*
X128262185Y-93944949D01*
X128262183Y-93944949D01*
X128257369Y-93944443D01*
X128197354Y-93949905D01*
X128057022Y-93962675D01*
X128057017Y-93962676D01*
X128052203Y-93963114D01*
X127854572Y-94021280D01*
X127850288Y-94023519D01*
X127850287Y-94023520D01*
X127839428Y-94029197D01*
X127672002Y-94116726D01*
X127668231Y-94119758D01*
X127515220Y-94242781D01*
X127515217Y-94242783D01*
X127511447Y-94245815D01*
X127508333Y-94249526D01*
X127508332Y-94249527D01*
X127499585Y-94259952D01*
X127379024Y-94403630D01*
X127376689Y-94407878D01*
X127376688Y-94407879D01*
X127369955Y-94420126D01*
X127279776Y-94584162D01*
X127278313Y-94588775D01*
X127278311Y-94588779D01*
X127224413Y-94758689D01*
X127217484Y-94780532D01*
X127216944Y-94785344D01*
X127216944Y-94785345D01*
X127197965Y-94954551D01*
X127194520Y-94985262D01*
X126200000Y-94985262D01*
X126200000Y-92445262D01*
X127194520Y-92445262D01*
X127211759Y-92650553D01*
X127268544Y-92848586D01*
X127362712Y-93031818D01*
X127490677Y-93193270D01*
X127494357Y-93196402D01*
X127494359Y-93196404D01*
X127534817Y-93230836D01*
X127647564Y-93326791D01*
X127651787Y-93329151D01*
X127651791Y-93329154D01*
X127691342Y-93351258D01*
X127827398Y-93427297D01*
X127831996Y-93428791D01*
X128018724Y-93489463D01*
X128018726Y-93489464D01*
X128023329Y-93490959D01*
X128227894Y-93515351D01*
X128232716Y-93514980D01*
X128232719Y-93514980D01*
X128300541Y-93509761D01*
X128433300Y-93499546D01*
X128631725Y-93444145D01*
X128636038Y-93441966D01*
X128636044Y-93441964D01*
X128811289Y-93353441D01*
X128811291Y-93353440D01*
X128815610Y-93351258D01*
X128881218Y-93300000D01*
X128974135Y-93227406D01*
X128974139Y-93227402D01*
X128977951Y-93224424D01*
X129112564Y-93068472D01*
X129131406Y-93035304D01*
X129211934Y-92893550D01*
X129211935Y-92893547D01*
X129214323Y-92889344D01*
X129227882Y-92848586D01*
X129277824Y-92698454D01*
X129277824Y-92698452D01*
X129279351Y-92693863D01*
X129305171Y-92489474D01*
X129305583Y-92460000D01*
X129285480Y-92254970D01*
X129225935Y-92057749D01*
X129129218Y-91875849D01*
X128999011Y-91716200D01*
X128986458Y-91705815D01*
X128844002Y-91587965D01*
X128844000Y-91587964D01*
X128840275Y-91584882D01*
X128659055Y-91486897D01*
X128605038Y-91470176D01*
X128522061Y-91444490D01*
X128472063Y-91409220D01*
X128452346Y-91351299D01*
X128470439Y-91292850D01*
X128519432Y-91256199D01*
X128530752Y-91253081D01*
X128537202Y-91251710D01*
X128743304Y-91189876D01*
X128750852Y-91186918D01*
X128944090Y-91092252D01*
X128951045Y-91088105D01*
X129001229Y-91052309D01*
X129009163Y-91041587D01*
X129009170Y-91040724D01*
X129005554Y-91034764D01*
X128261086Y-90290296D01*
X128249203Y-90284242D01*
X128244172Y-90285038D01*
X127495011Y-91034199D01*
X127489387Y-91045238D01*
X127496207Y-91052462D01*
X127657713Y-91146838D01*
X127665008Y-91150334D01*
X127866038Y-91227099D01*
X127873808Y-91229357D01*
X127977991Y-91250553D01*
X128031244Y-91280682D01*
X128056618Y-91336359D01*
X128044419Y-91396316D01*
X127999309Y-91437652D01*
X127986206Y-91442538D01*
X127854572Y-91481280D01*
X127850288Y-91483519D01*
X127850287Y-91483520D01*
X127839428Y-91489197D01*
X127672002Y-91576726D01*
X127668231Y-91579758D01*
X127515220Y-91702781D01*
X127515217Y-91702783D01*
X127511447Y-91705815D01*
X127508333Y-91709526D01*
X127508332Y-91709527D01*
X127458291Y-91769164D01*
X127379024Y-91863630D01*
X127376689Y-91867878D01*
X127376688Y-91867879D01*
X127369955Y-91880126D01*
X127279776Y-92044162D01*
X127217484Y-92240532D01*
X127216944Y-92245344D01*
X127216944Y-92245345D01*
X127215865Y-92254970D01*
X127194520Y-92445262D01*
X126200000Y-92445262D01*
X126200000Y-89890759D01*
X126887987Y-89890759D01*
X126900374Y-90105596D01*
X126901499Y-90113602D01*
X126948807Y-90323524D01*
X126951231Y-90331258D01*
X127032183Y-90530620D01*
X127035840Y-90537860D01*
X127117732Y-90671496D01*
X127127419Y-90679769D01*
X127135605Y-90675185D01*
X127879704Y-89931086D01*
X127885758Y-89919203D01*
X127884962Y-89914172D01*
X127138123Y-89167333D01*
X127126240Y-89161279D01*
X127125941Y-89161326D01*
X127120015Y-89166542D01*
X127067466Y-89243575D01*
X127063468Y-89250613D01*
X126972871Y-89445790D01*
X126970073Y-89453394D01*
X126912570Y-89660740D01*
X126911049Y-89668714D01*
X126888185Y-89882668D01*
X126887987Y-89890759D01*
X126200000Y-89890759D01*
X126200000Y-85025421D01*
X126218907Y-84967230D01*
X126268407Y-84931266D01*
X126329593Y-84931266D01*
X126354235Y-84946367D01*
X126355448Y-84944552D01*
X126380502Y-84961293D01*
X126418381Y-85009344D01*
X126424500Y-85043608D01*
X126424500Y-85861466D01*
X126424123Y-85870095D01*
X126420736Y-85908807D01*
X126422978Y-85917174D01*
X126430796Y-85946349D01*
X126432666Y-85954783D01*
X126439412Y-85993045D01*
X126443742Y-86000544D01*
X126445738Y-86006029D01*
X126448204Y-86011316D01*
X126450446Y-86019684D01*
X126471013Y-86049056D01*
X126472732Y-86051511D01*
X126477371Y-86058792D01*
X126496806Y-86092455D01*
X126513647Y-86106586D01*
X126526571Y-86117431D01*
X126532939Y-86123265D01*
X127260959Y-86851286D01*
X127288736Y-86905803D01*
X127281962Y-86960185D01*
X127279776Y-86964162D01*
X127217484Y-87160532D01*
X127216944Y-87165344D01*
X127216944Y-87165345D01*
X127195558Y-87356010D01*
X127194520Y-87365262D01*
X127194925Y-87370082D01*
X127203566Y-87472981D01*
X127211759Y-87570553D01*
X127213092Y-87575201D01*
X127213092Y-87575202D01*
X127249782Y-87703154D01*
X127268544Y-87768586D01*
X127362712Y-87951818D01*
X127490677Y-88113270D01*
X127494357Y-88116402D01*
X127494359Y-88116404D01*
X127607017Y-88212283D01*
X127647564Y-88246791D01*
X127651787Y-88249151D01*
X127651791Y-88249154D01*
X127763832Y-88311771D01*
X127827398Y-88347297D01*
X127981944Y-88397512D01*
X128031444Y-88433476D01*
X128050351Y-88491667D01*
X128031444Y-88549858D01*
X127981944Y-88585822D01*
X127966327Y-88589528D01*
X127938226Y-88593828D01*
X127930341Y-88595707D01*
X127725807Y-88662558D01*
X127718350Y-88665693D01*
X127527482Y-88765053D01*
X127520623Y-88769372D01*
X127497726Y-88786564D01*
X127490058Y-88797475D01*
X127490082Y-88798994D01*
X127493193Y-88803983D01*
X129362200Y-90672990D01*
X129374083Y-90679044D01*
X129375028Y-90678895D01*
X129380201Y-90674453D01*
X129415649Y-90625121D01*
X129419822Y-90618176D01*
X129486748Y-90482763D01*
X129529481Y-90438973D01*
X129589791Y-90428664D01*
X129644643Y-90455774D01*
X129673085Y-90509947D01*
X129674500Y-90526627D01*
X129674500Y-95481466D01*
X129674123Y-95490095D01*
X129670736Y-95528807D01*
X129672978Y-95537174D01*
X129680796Y-95566349D01*
X129682666Y-95574783D01*
X129689412Y-95613045D01*
X129693742Y-95620544D01*
X129695738Y-95626029D01*
X129698204Y-95631316D01*
X129700446Y-95639684D01*
X129720689Y-95668593D01*
X129722732Y-95671511D01*
X129727371Y-95678792D01*
X129746806Y-95712455D01*
X129763717Y-95726645D01*
X129776571Y-95737431D01*
X129782939Y-95743265D01*
X130256731Y-96217057D01*
X130262565Y-96223424D01*
X130287545Y-96253194D01*
X130319312Y-96271534D01*
X130321205Y-96272627D01*
X130328489Y-96277268D01*
X130360316Y-96299554D01*
X130368684Y-96301796D01*
X130373971Y-96304262D01*
X130379456Y-96306258D01*
X130386955Y-96310588D01*
X130395481Y-96312091D01*
X130395483Y-96312092D01*
X130425216Y-96317334D01*
X130433650Y-96319204D01*
X130471193Y-96329264D01*
X130509908Y-96325877D01*
X130518537Y-96325500D01*
X131694030Y-96325500D01*
X131752221Y-96344407D01*
X131772571Y-96364232D01*
X131821718Y-96428282D01*
X131877657Y-96471205D01*
X131926843Y-96508947D01*
X131961499Y-96559371D01*
X131959898Y-96620536D01*
X131922650Y-96669077D01*
X131885890Y-96684587D01*
X131869444Y-96687858D01*
X131869443Y-96687859D01*
X131859883Y-96689760D01*
X131772888Y-96747888D01*
X131714760Y-96834883D01*
X131710623Y-96855682D01*
X131704749Y-96885212D01*
X131674853Y-96938597D01*
X131667918Y-96944441D01*
X131560767Y-97026660D01*
X131551660Y-97035767D01*
X131468120Y-97144640D01*
X131461686Y-97155784D01*
X131409168Y-97282573D01*
X131405837Y-97295006D01*
X131397352Y-97359455D01*
X131399782Y-97372569D01*
X131401085Y-97373805D01*
X131406366Y-97375000D01*
X132171820Y-97375000D01*
X132184506Y-97370878D01*
X132186735Y-97367810D01*
X132236235Y-97331846D01*
X132266828Y-97327000D01*
X132338500Y-97327000D01*
X132396691Y-97345907D01*
X132432655Y-97395407D01*
X132437500Y-97426000D01*
X132437500Y-97859320D01*
X132441622Y-97872005D01*
X132442831Y-97872884D01*
X132449005Y-97870878D01*
X132452000Y-97866757D01*
X132452000Y-97845000D01*
X132470907Y-97786809D01*
X132520407Y-97750845D01*
X132551000Y-97746000D01*
X135608709Y-97746000D01*
X135663710Y-97762684D01*
X135673408Y-97769164D01*
X135734883Y-97810240D01*
X135811599Y-97825500D01*
X135965083Y-97825500D01*
X136023274Y-97844407D01*
X136033491Y-97858469D01*
X136056243Y-97875000D01*
X137089015Y-97875000D01*
X137101700Y-97870878D01*
X137102756Y-97869426D01*
X137103251Y-97864033D01*
X137094163Y-97795001D01*
X137090833Y-97782576D01*
X137038315Y-97655785D01*
X137031880Y-97644639D01*
X136948340Y-97535767D01*
X136939237Y-97526664D01*
X136832081Y-97444442D01*
X136797425Y-97394017D01*
X136795250Y-97385211D01*
X136792982Y-97373805D01*
X136785240Y-97334883D01*
X136765272Y-97304999D01*
X136748664Y-97246114D01*
X136765272Y-97195001D01*
X136785240Y-97165117D01*
X136800500Y-97088401D01*
X136800499Y-96911600D01*
X136798066Y-96899367D01*
X136787142Y-96844444D01*
X136787141Y-96844443D01*
X136785240Y-96834883D01*
X136727112Y-96747888D01*
X136726797Y-96747678D01*
X136701707Y-96698434D01*
X136711278Y-96638002D01*
X136720939Y-96622690D01*
X136774536Y-96552841D01*
X136835044Y-96406762D01*
X136855682Y-96250000D01*
X136835044Y-96093238D01*
X136774536Y-95947159D01*
X136678282Y-95821718D01*
X136552841Y-95725464D01*
X136422587Y-95671511D01*
X136412759Y-95667440D01*
X136406762Y-95664956D01*
X136250000Y-95644318D01*
X136093238Y-95664956D01*
X136087241Y-95667440D01*
X136077413Y-95671511D01*
X135947159Y-95725464D01*
X135946983Y-95725039D01*
X135902345Y-95737000D01*
X135666772Y-95737000D01*
X135608581Y-95718093D01*
X135572617Y-95668593D01*
X135569674Y-95657313D01*
X135562142Y-95619444D01*
X135562141Y-95619443D01*
X135560240Y-95609883D01*
X135502112Y-95522888D01*
X135415117Y-95464760D01*
X135338401Y-95449500D01*
X135333542Y-95449500D01*
X135250001Y-95449501D01*
X135161600Y-95449501D01*
X135156834Y-95450449D01*
X135094449Y-95462857D01*
X135094447Y-95462858D01*
X135084883Y-95464760D01*
X135054999Y-95484728D01*
X134996114Y-95501336D01*
X134945001Y-95484728D01*
X134915117Y-95464760D01*
X134838401Y-95449500D01*
X134833542Y-95449500D01*
X134750001Y-95449501D01*
X134661600Y-95449501D01*
X134656834Y-95450449D01*
X134594449Y-95462857D01*
X134594447Y-95462858D01*
X134584883Y-95464760D01*
X134554999Y-95484728D01*
X134496114Y-95501336D01*
X134445001Y-95484728D01*
X134415117Y-95464760D01*
X134338401Y-95449500D01*
X134333542Y-95449500D01*
X134250001Y-95449501D01*
X134161600Y-95449501D01*
X134156834Y-95450449D01*
X134094449Y-95462857D01*
X134094447Y-95462858D01*
X134084883Y-95464760D01*
X134054999Y-95484728D01*
X133996114Y-95501336D01*
X133945001Y-95484728D01*
X133915117Y-95464760D01*
X133838401Y-95449500D01*
X133833542Y-95449500D01*
X133750001Y-95449501D01*
X133661600Y-95449501D01*
X133656834Y-95450449D01*
X133594449Y-95462857D01*
X133594447Y-95462858D01*
X133584883Y-95464760D01*
X133554999Y-95484728D01*
X133496114Y-95501336D01*
X133445001Y-95484728D01*
X133415117Y-95464760D01*
X133338401Y-95449500D01*
X133333542Y-95449500D01*
X133250001Y-95449501D01*
X133161600Y-95449501D01*
X133156834Y-95450449D01*
X133094444Y-95462858D01*
X133094443Y-95462859D01*
X133084883Y-95464760D01*
X132997888Y-95522888D01*
X132939760Y-95609883D01*
X132938667Y-95615376D01*
X132900632Y-95659911D01*
X132848904Y-95674500D01*
X132805970Y-95674500D01*
X132747779Y-95655593D01*
X132727428Y-95635767D01*
X132691815Y-95589354D01*
X132678282Y-95571718D01*
X132552841Y-95475464D01*
X132406762Y-95414956D01*
X132250000Y-95394318D01*
X132093238Y-95414956D01*
X131947159Y-95475464D01*
X131821718Y-95571718D01*
X131808186Y-95589354D01*
X131772572Y-95635767D01*
X131722148Y-95670423D01*
X131694030Y-95674500D01*
X130675834Y-95674500D01*
X130617643Y-95655593D01*
X130605830Y-95645504D01*
X130354496Y-95394170D01*
X130326719Y-95339653D01*
X130325500Y-95324166D01*
X130325500Y-89595411D01*
X130748751Y-89595411D01*
X130749040Y-89600751D01*
X130754828Y-89654035D01*
X130757677Y-89666020D01*
X130804101Y-89789855D01*
X130810809Y-89802108D01*
X130889613Y-89907256D01*
X130899494Y-89917137D01*
X131004642Y-89995941D01*
X131016895Y-90002649D01*
X131140728Y-90049072D01*
X131152717Y-90051923D01*
X131206002Y-90057711D01*
X131211336Y-90058000D01*
X131337070Y-90058000D01*
X131349755Y-90053878D01*
X131352750Y-90049757D01*
X131352750Y-89469680D01*
X131348628Y-89456995D01*
X131344507Y-89454000D01*
X130764431Y-89454000D01*
X130751746Y-89458122D01*
X130748751Y-89462243D01*
X130748751Y-89595411D01*
X130325500Y-89595411D01*
X130325500Y-89148534D01*
X130325877Y-89139905D01*
X130328509Y-89109822D01*
X130329264Y-89101193D01*
X130319204Y-89063650D01*
X130317334Y-89055216D01*
X130312092Y-89025483D01*
X130312091Y-89025481D01*
X130310588Y-89016955D01*
X130306258Y-89009456D01*
X130304262Y-89003971D01*
X130301796Y-88998684D01*
X130299554Y-88990316D01*
X130277268Y-88958489D01*
X130272627Y-88951205D01*
X130257523Y-88925044D01*
X130253194Y-88917545D01*
X130223429Y-88892569D01*
X130217061Y-88886735D01*
X129238923Y-87908597D01*
X129211146Y-87854080D01*
X129214988Y-87807344D01*
X129215906Y-87804586D01*
X129279351Y-87613863D01*
X129281511Y-87596770D01*
X129304823Y-87412228D01*
X129305171Y-87409474D01*
X129305583Y-87380000D01*
X129285480Y-87174970D01*
X129225935Y-86977749D01*
X129129218Y-86795849D01*
X128999011Y-86636200D01*
X128995282Y-86633115D01*
X128844002Y-86507965D01*
X128844000Y-86507964D01*
X128840275Y-86504882D01*
X128699708Y-86428878D01*
X128663309Y-86409197D01*
X128663308Y-86409197D01*
X128659055Y-86406897D01*
X128594371Y-86386874D01*
X128466875Y-86347407D01*
X128466871Y-86347406D01*
X128462254Y-86345977D01*
X128457446Y-86345472D01*
X128457443Y-86345471D01*
X128359335Y-86335160D01*
X128317404Y-86330753D01*
X128261508Y-86305866D01*
X128230915Y-86252878D01*
X128237311Y-86192028D01*
X128282807Y-86144086D01*
X128356398Y-86106589D01*
X128356402Y-86106586D01*
X128363342Y-86103050D01*
X128453050Y-86013342D01*
X128456777Y-86006029D01*
X128507110Y-85907244D01*
X128507110Y-85907243D01*
X128510646Y-85900304D01*
X128516798Y-85861466D01*
X128524891Y-85810365D01*
X128524891Y-85810363D01*
X128525500Y-85806519D01*
X128525499Y-85193482D01*
X128510646Y-85099696D01*
X128485266Y-85049885D01*
X128475695Y-84989453D01*
X128503472Y-84934936D01*
X128557989Y-84907159D01*
X128599218Y-84910403D01*
X128599696Y-84910646D01*
X128658632Y-84919980D01*
X128689635Y-84924891D01*
X128689637Y-84924891D01*
X128693481Y-84925500D01*
X128701740Y-84925500D01*
X128916559Y-84925499D01*
X128974748Y-84944406D01*
X129010712Y-84993906D01*
X129010713Y-85055091D01*
X129004768Y-85069444D01*
X128992890Y-85092755D01*
X128992889Y-85092758D01*
X128989354Y-85099696D01*
X128988135Y-85107390D01*
X128988135Y-85107391D01*
X128980143Y-85157852D01*
X128974500Y-85193481D01*
X128974501Y-85806518D01*
X128989354Y-85900304D01*
X129012815Y-85946349D01*
X129043224Y-86006029D01*
X129046950Y-86013342D01*
X129136658Y-86103050D01*
X129143595Y-86106585D01*
X129143597Y-86106586D01*
X129197357Y-86133978D01*
X129249696Y-86160646D01*
X129257390Y-86161865D01*
X129257391Y-86161865D01*
X129339635Y-86174891D01*
X129339637Y-86174891D01*
X129343481Y-86175500D01*
X129574970Y-86175500D01*
X129806518Y-86175499D01*
X129810361Y-86174890D01*
X129810366Y-86174890D01*
X129847217Y-86169053D01*
X129900304Y-86160646D01*
X129985118Y-86117431D01*
X130006403Y-86106586D01*
X130006405Y-86106585D01*
X130013342Y-86103050D01*
X130103050Y-86013342D01*
X130106777Y-86006029D01*
X130157110Y-85907244D01*
X130157110Y-85907243D01*
X130160646Y-85900304D01*
X130166798Y-85861466D01*
X130174891Y-85810365D01*
X130174891Y-85810363D01*
X130175500Y-85806519D01*
X130175499Y-85193482D01*
X130160646Y-85099696D01*
X130157111Y-85092758D01*
X130157110Y-85092755D01*
X130145233Y-85069446D01*
X130135661Y-85009014D01*
X130163438Y-84954497D01*
X130217954Y-84926719D01*
X130233442Y-84925500D01*
X130546265Y-84925499D01*
X130556518Y-84925499D01*
X130560361Y-84924890D01*
X130560366Y-84924890D01*
X130597217Y-84919053D01*
X130650304Y-84910646D01*
X130730761Y-84869651D01*
X130756403Y-84856586D01*
X130756405Y-84856585D01*
X130763342Y-84853050D01*
X130853050Y-84763342D01*
X130858816Y-84752027D01*
X130869040Y-84731960D01*
X130912305Y-84688695D01*
X130972737Y-84679124D01*
X131027254Y-84706902D01*
X131055031Y-84761418D01*
X131056250Y-84776905D01*
X131056250Y-85069748D01*
X131057198Y-85074512D01*
X131063738Y-85107391D01*
X131067883Y-85128231D01*
X131108912Y-85189634D01*
X131112198Y-85194552D01*
X131108879Y-85196770D01*
X131128110Y-85234513D01*
X131118539Y-85294945D01*
X131111330Y-85304868D01*
X131112198Y-85305448D01*
X131067883Y-85371769D01*
X131056250Y-85430252D01*
X131056250Y-85869748D01*
X131057198Y-85874512D01*
X131065684Y-85917174D01*
X131067883Y-85928231D01*
X131105493Y-85984517D01*
X131112198Y-85994552D01*
X131108879Y-85996770D01*
X131128110Y-86034513D01*
X131118539Y-86094945D01*
X131111330Y-86104868D01*
X131112198Y-86105448D01*
X131067883Y-86171769D01*
X131065981Y-86181332D01*
X131065980Y-86181334D01*
X131063853Y-86192028D01*
X131056250Y-86230252D01*
X131056250Y-86669748D01*
X131067883Y-86728231D01*
X131107669Y-86787774D01*
X131112198Y-86794552D01*
X131108879Y-86796770D01*
X131128110Y-86834513D01*
X131118539Y-86894945D01*
X131111330Y-86904868D01*
X131112198Y-86905448D01*
X131067883Y-86971769D01*
X131056250Y-87030252D01*
X131056250Y-87469748D01*
X131067883Y-87528231D01*
X131094299Y-87567764D01*
X131112198Y-87594552D01*
X131108879Y-87596770D01*
X131128110Y-87634513D01*
X131118539Y-87694945D01*
X131111330Y-87704868D01*
X131112198Y-87705448D01*
X131067883Y-87771769D01*
X131056250Y-87830252D01*
X131056250Y-88269748D01*
X131061100Y-88294130D01*
X131053909Y-88354889D01*
X131011542Y-88400282D01*
X131004642Y-88404059D01*
X130899494Y-88482863D01*
X130889613Y-88492744D01*
X130810809Y-88597892D01*
X130804101Y-88610145D01*
X130757678Y-88733978D01*
X130754827Y-88745967D01*
X130749039Y-88799252D01*
X130748750Y-88804586D01*
X130748750Y-88930320D01*
X130752872Y-88943005D01*
X130756993Y-88946000D01*
X131761750Y-88946000D01*
X131819941Y-88964907D01*
X131855905Y-89014407D01*
X131860750Y-89045000D01*
X131860750Y-90042319D01*
X131864872Y-90055004D01*
X131868993Y-90057999D01*
X132002161Y-90057999D01*
X132007501Y-90057710D01*
X132060785Y-90051922D01*
X132072770Y-90049073D01*
X132196605Y-90002649D01*
X132208858Y-89995941D01*
X132314006Y-89917137D01*
X132323887Y-89907256D01*
X132402693Y-89802105D01*
X132402775Y-89801955D01*
X132402878Y-89801858D01*
X132406922Y-89796462D01*
X132407859Y-89797164D01*
X132447305Y-89759995D01*
X132489611Y-89750500D01*
X132776498Y-89750500D01*
X132802745Y-89745279D01*
X132825416Y-89740770D01*
X132825418Y-89740769D01*
X132834981Y-89738867D01*
X132901302Y-89694552D01*
X132903520Y-89697871D01*
X132941263Y-89678640D01*
X133001695Y-89688211D01*
X133011618Y-89695420D01*
X133012198Y-89694552D01*
X133078519Y-89738867D01*
X133088082Y-89740769D01*
X133088084Y-89740770D01*
X133110755Y-89745279D01*
X133137002Y-89750500D01*
X133576498Y-89750500D01*
X133602745Y-89745279D01*
X133625416Y-89740770D01*
X133625418Y-89740769D01*
X133634981Y-89738867D01*
X133701302Y-89694552D01*
X133703520Y-89697871D01*
X133741263Y-89678640D01*
X133801695Y-89688211D01*
X133811618Y-89695420D01*
X133812198Y-89694552D01*
X133878519Y-89738867D01*
X133888082Y-89740769D01*
X133888084Y-89740770D01*
X133910755Y-89745279D01*
X133937002Y-89750500D01*
X134376498Y-89750500D01*
X134402745Y-89745279D01*
X134425416Y-89740770D01*
X134425418Y-89740769D01*
X134434981Y-89738867D01*
X134501302Y-89694552D01*
X134503520Y-89697871D01*
X134541263Y-89678640D01*
X134601695Y-89688211D01*
X134611618Y-89695420D01*
X134612198Y-89694552D01*
X134678519Y-89738867D01*
X134688082Y-89740769D01*
X134688084Y-89740770D01*
X134710755Y-89745279D01*
X134737002Y-89750500D01*
X135176498Y-89750500D01*
X135202745Y-89745279D01*
X135225416Y-89740770D01*
X135225418Y-89740769D01*
X135234981Y-89738867D01*
X135301302Y-89694552D01*
X135303520Y-89697871D01*
X135341263Y-89678640D01*
X135401695Y-89688211D01*
X135411618Y-89695420D01*
X135412198Y-89694552D01*
X135478519Y-89738867D01*
X135488082Y-89740769D01*
X135488084Y-89740770D01*
X135510755Y-89745279D01*
X135537002Y-89750500D01*
X135976498Y-89750500D01*
X136002745Y-89745279D01*
X136025416Y-89740770D01*
X136025418Y-89740769D01*
X136034981Y-89738867D01*
X136101302Y-89694552D01*
X136103520Y-89697871D01*
X136141263Y-89678640D01*
X136201695Y-89688211D01*
X136211618Y-89695420D01*
X136212198Y-89694552D01*
X136278519Y-89738867D01*
X136288082Y-89740769D01*
X136288084Y-89740770D01*
X136310755Y-89745279D01*
X136337002Y-89750500D01*
X136776498Y-89750500D01*
X136802745Y-89745279D01*
X136825416Y-89740770D01*
X136825418Y-89740769D01*
X136834981Y-89738867D01*
X136901302Y-89694552D01*
X136903520Y-89697871D01*
X136941263Y-89678640D01*
X137001695Y-89688211D01*
X137011618Y-89695420D01*
X137012198Y-89694552D01*
X137078519Y-89738867D01*
X137088082Y-89740769D01*
X137088084Y-89740770D01*
X137110755Y-89745279D01*
X137137002Y-89750500D01*
X137576498Y-89750500D01*
X137602745Y-89745279D01*
X137625416Y-89740770D01*
X137625418Y-89740769D01*
X137634981Y-89738867D01*
X137701302Y-89694552D01*
X137703520Y-89697871D01*
X137741263Y-89678640D01*
X137801695Y-89688211D01*
X137811618Y-89695420D01*
X137812198Y-89694552D01*
X137878519Y-89738867D01*
X137888082Y-89740769D01*
X137888084Y-89740770D01*
X137910755Y-89745279D01*
X137937002Y-89750500D01*
X138376498Y-89750500D01*
X138402745Y-89745279D01*
X138425416Y-89740770D01*
X138425418Y-89740769D01*
X138434981Y-89738867D01*
X138501302Y-89694552D01*
X138503520Y-89697871D01*
X138541263Y-89678640D01*
X138601695Y-89688211D01*
X138611618Y-89695420D01*
X138612198Y-89694552D01*
X138678519Y-89738867D01*
X138688082Y-89740769D01*
X138688084Y-89740770D01*
X138710755Y-89745279D01*
X138737002Y-89750500D01*
X139176498Y-89750500D01*
X139202745Y-89745279D01*
X139225416Y-89740770D01*
X139225418Y-89740769D01*
X139234981Y-89738867D01*
X139301302Y-89694552D01*
X139303520Y-89697871D01*
X139341263Y-89678640D01*
X139401695Y-89688211D01*
X139411618Y-89695420D01*
X139412198Y-89694552D01*
X139478519Y-89738867D01*
X139488082Y-89740769D01*
X139488084Y-89740770D01*
X139510755Y-89745279D01*
X139537002Y-89750500D01*
X139976498Y-89750500D01*
X140002745Y-89745279D01*
X140025416Y-89740770D01*
X140025418Y-89740769D01*
X140034981Y-89738867D01*
X140101302Y-89694552D01*
X140103520Y-89697871D01*
X140141263Y-89678640D01*
X140201695Y-89688211D01*
X140211618Y-89695420D01*
X140212198Y-89694552D01*
X140278519Y-89738867D01*
X140288082Y-89740769D01*
X140288084Y-89740770D01*
X140310755Y-89745279D01*
X140337002Y-89750500D01*
X140623889Y-89750500D01*
X140682080Y-89769407D01*
X140706164Y-89796772D01*
X140706578Y-89796462D01*
X140710521Y-89801723D01*
X140710725Y-89801955D01*
X140710807Y-89802105D01*
X140789613Y-89907256D01*
X140799494Y-89917137D01*
X140904642Y-89995941D01*
X140916895Y-90002649D01*
X141040728Y-90049072D01*
X141052717Y-90051923D01*
X141106002Y-90057711D01*
X141111336Y-90058000D01*
X141237070Y-90058000D01*
X141249755Y-90053878D01*
X141252750Y-90049757D01*
X141252750Y-88327257D01*
X141253969Y-88311771D01*
X141256750Y-88294211D01*
X141256750Y-88265680D01*
X141252628Y-88252995D01*
X141248507Y-88250000D01*
X140564431Y-88250000D01*
X140551746Y-88254122D01*
X140548751Y-88258243D01*
X140548751Y-88295411D01*
X140549040Y-88300751D01*
X140554828Y-88354035D01*
X140557676Y-88366017D01*
X140576320Y-88415747D01*
X140579043Y-88476872D01*
X140545318Y-88527924D01*
X140483620Y-88549500D01*
X140337002Y-88549500D01*
X140310755Y-88554721D01*
X140288084Y-88559230D01*
X140288082Y-88559231D01*
X140278519Y-88561133D01*
X140212198Y-88605448D01*
X140209980Y-88602129D01*
X140172237Y-88621360D01*
X140111805Y-88611789D01*
X140101882Y-88604580D01*
X140101302Y-88605448D01*
X140034981Y-88561133D01*
X140025418Y-88559231D01*
X140025416Y-88559230D01*
X140002745Y-88554721D01*
X139976498Y-88549500D01*
X139537002Y-88549500D01*
X139510755Y-88554721D01*
X139488084Y-88559230D01*
X139488082Y-88559231D01*
X139478519Y-88561133D01*
X139412198Y-88605448D01*
X139409980Y-88602129D01*
X139372237Y-88621360D01*
X139311805Y-88611789D01*
X139301882Y-88604580D01*
X139301302Y-88605448D01*
X139234981Y-88561133D01*
X139225418Y-88559231D01*
X139225416Y-88559230D01*
X139202745Y-88554721D01*
X139176498Y-88549500D01*
X138737002Y-88549500D01*
X138710755Y-88554721D01*
X138688084Y-88559230D01*
X138688082Y-88559231D01*
X138678519Y-88561133D01*
X138612198Y-88605448D01*
X138609980Y-88602129D01*
X138572237Y-88621360D01*
X138511805Y-88611789D01*
X138501882Y-88604580D01*
X138501302Y-88605448D01*
X138434981Y-88561133D01*
X138425418Y-88559231D01*
X138425416Y-88559230D01*
X138402745Y-88554721D01*
X138376498Y-88549500D01*
X137937002Y-88549500D01*
X137910755Y-88554721D01*
X137888084Y-88559230D01*
X137888082Y-88559231D01*
X137878519Y-88561133D01*
X137812198Y-88605448D01*
X137809980Y-88602129D01*
X137772237Y-88621360D01*
X137711805Y-88611789D01*
X137701882Y-88604580D01*
X137701302Y-88605448D01*
X137634981Y-88561133D01*
X137625418Y-88559231D01*
X137625416Y-88559230D01*
X137602745Y-88554721D01*
X137576498Y-88549500D01*
X137137002Y-88549500D01*
X137110755Y-88554721D01*
X137088084Y-88559230D01*
X137088082Y-88559231D01*
X137078519Y-88561133D01*
X137012198Y-88605448D01*
X137009980Y-88602129D01*
X136972237Y-88621360D01*
X136911805Y-88611789D01*
X136901882Y-88604580D01*
X136901302Y-88605448D01*
X136834981Y-88561133D01*
X136825418Y-88559231D01*
X136825416Y-88559230D01*
X136802745Y-88554721D01*
X136776498Y-88549500D01*
X136337002Y-88549500D01*
X136310755Y-88554721D01*
X136288084Y-88559230D01*
X136288082Y-88559231D01*
X136278519Y-88561133D01*
X136212198Y-88605448D01*
X136209980Y-88602129D01*
X136172237Y-88621360D01*
X136111805Y-88611789D01*
X136101882Y-88604580D01*
X136101302Y-88605448D01*
X136034981Y-88561133D01*
X136025418Y-88559231D01*
X136025416Y-88559230D01*
X136002745Y-88554721D01*
X135976498Y-88549500D01*
X135537002Y-88549500D01*
X135510755Y-88554721D01*
X135488084Y-88559230D01*
X135488082Y-88559231D01*
X135478519Y-88561133D01*
X135412198Y-88605448D01*
X135409980Y-88602129D01*
X135372237Y-88621360D01*
X135311805Y-88611789D01*
X135301882Y-88604580D01*
X135301302Y-88605448D01*
X135234981Y-88561133D01*
X135225418Y-88559231D01*
X135225416Y-88559230D01*
X135202745Y-88554721D01*
X135176498Y-88549500D01*
X134737002Y-88549500D01*
X134710755Y-88554721D01*
X134688084Y-88559230D01*
X134688082Y-88559231D01*
X134678519Y-88561133D01*
X134612198Y-88605448D01*
X134609980Y-88602129D01*
X134572237Y-88621360D01*
X134511805Y-88611789D01*
X134501882Y-88604580D01*
X134501302Y-88605448D01*
X134434981Y-88561133D01*
X134425418Y-88559231D01*
X134425416Y-88559230D01*
X134402745Y-88554721D01*
X134376498Y-88549500D01*
X133937002Y-88549500D01*
X133910755Y-88554721D01*
X133888084Y-88559230D01*
X133888082Y-88559231D01*
X133878519Y-88561133D01*
X133812198Y-88605448D01*
X133809980Y-88602129D01*
X133772237Y-88621360D01*
X133711805Y-88611789D01*
X133701882Y-88604580D01*
X133701302Y-88605448D01*
X133634981Y-88561133D01*
X133625418Y-88559231D01*
X133625416Y-88559230D01*
X133602745Y-88554721D01*
X133576498Y-88549500D01*
X133137002Y-88549500D01*
X133110755Y-88554721D01*
X133088084Y-88559230D01*
X133088082Y-88559231D01*
X133078519Y-88561133D01*
X133057537Y-88575153D01*
X132998649Y-88591762D01*
X132941245Y-88570585D01*
X132907252Y-88519711D01*
X132909654Y-88458573D01*
X132928793Y-88428674D01*
X132928282Y-88428282D01*
X133005801Y-88327257D01*
X133024536Y-88302841D01*
X133085044Y-88156762D01*
X133105682Y-88000000D01*
X133085044Y-87843238D01*
X133081350Y-87834320D01*
X140548750Y-87834320D01*
X140552872Y-87847005D01*
X140556993Y-87850000D01*
X141241070Y-87850000D01*
X141253755Y-87845878D01*
X141256750Y-87841757D01*
X141256750Y-87465680D01*
X141252628Y-87452995D01*
X141248507Y-87450000D01*
X140564431Y-87450000D01*
X140551746Y-87454122D01*
X140548751Y-87458243D01*
X140548751Y-87495411D01*
X140549040Y-87500751D01*
X140554828Y-87554035D01*
X140557677Y-87566020D01*
X140576132Y-87615248D01*
X140578855Y-87676373D01*
X140576132Y-87684752D01*
X140557678Y-87733978D01*
X140554827Y-87745967D01*
X140549039Y-87799252D01*
X140548750Y-87804586D01*
X140548750Y-87834320D01*
X133081350Y-87834320D01*
X133024536Y-87697159D01*
X132928282Y-87571718D01*
X132802841Y-87475464D01*
X132656762Y-87414956D01*
X132500000Y-87394318D01*
X132369171Y-87411542D01*
X132309011Y-87400392D01*
X132266894Y-87356010D01*
X132257250Y-87313389D01*
X132257250Y-87034320D01*
X140548750Y-87034320D01*
X140552872Y-87047005D01*
X140556993Y-87050000D01*
X141241070Y-87050000D01*
X141253755Y-87045878D01*
X141256750Y-87041757D01*
X141256750Y-86665680D01*
X141252628Y-86652995D01*
X141248507Y-86650000D01*
X140564431Y-86650000D01*
X140551746Y-86654122D01*
X140548751Y-86658243D01*
X140548751Y-86695411D01*
X140549040Y-86700751D01*
X140554828Y-86754035D01*
X140557677Y-86766020D01*
X140576132Y-86815248D01*
X140578855Y-86876373D01*
X140576132Y-86884752D01*
X140557678Y-86933978D01*
X140554827Y-86945967D01*
X140549039Y-86999252D01*
X140548750Y-87004586D01*
X140548750Y-87034320D01*
X132257250Y-87034320D01*
X132257250Y-87030252D01*
X132245617Y-86971769D01*
X132201302Y-86905448D01*
X132204621Y-86903230D01*
X132185390Y-86865487D01*
X132194961Y-86805055D01*
X132202170Y-86795132D01*
X132201302Y-86794552D01*
X132205831Y-86787774D01*
X132245617Y-86728231D01*
X132257250Y-86669748D01*
X132257250Y-86230252D01*
X132249647Y-86192028D01*
X132247520Y-86181334D01*
X132247519Y-86181332D01*
X132245617Y-86171769D01*
X132201302Y-86105448D01*
X132204621Y-86103230D01*
X132185390Y-86065487D01*
X132194961Y-86005055D01*
X132202170Y-85995132D01*
X132201302Y-85994552D01*
X132208007Y-85984517D01*
X132217433Y-85970411D01*
X133373751Y-85970411D01*
X133374040Y-85975751D01*
X133379828Y-86029035D01*
X133382677Y-86041020D01*
X133429101Y-86164855D01*
X133435809Y-86177108D01*
X133514613Y-86282256D01*
X133524494Y-86292137D01*
X133629642Y-86370941D01*
X133641895Y-86377649D01*
X133765728Y-86424072D01*
X133777717Y-86426923D01*
X133831002Y-86432711D01*
X133836336Y-86433000D01*
X134337070Y-86433000D01*
X134349755Y-86428878D01*
X134352750Y-86424757D01*
X134352750Y-86417319D01*
X134860750Y-86417319D01*
X134864872Y-86430004D01*
X134868993Y-86432999D01*
X135377161Y-86432999D01*
X135382501Y-86432710D01*
X135435785Y-86426922D01*
X135447770Y-86424073D01*
X135546998Y-86386874D01*
X135608123Y-86384151D01*
X135616502Y-86386874D01*
X135715728Y-86424072D01*
X135727717Y-86426923D01*
X135781002Y-86432711D01*
X135786336Y-86433000D01*
X136287070Y-86433000D01*
X136299755Y-86428878D01*
X136302750Y-86424757D01*
X136302750Y-86417319D01*
X136810750Y-86417319D01*
X136814872Y-86430004D01*
X136818993Y-86432999D01*
X137327161Y-86432999D01*
X137332501Y-86432710D01*
X137385785Y-86426922D01*
X137397770Y-86424073D01*
X137496998Y-86386874D01*
X137558123Y-86384151D01*
X137566502Y-86386874D01*
X137665728Y-86424072D01*
X137677717Y-86426923D01*
X137731002Y-86432711D01*
X137736336Y-86433000D01*
X138237070Y-86433000D01*
X138249755Y-86428878D01*
X138252750Y-86424757D01*
X138252750Y-86417319D01*
X138760750Y-86417319D01*
X138764872Y-86430004D01*
X138768993Y-86432999D01*
X139277161Y-86432999D01*
X139282501Y-86432710D01*
X139335785Y-86426922D01*
X139347770Y-86424073D01*
X139471605Y-86377649D01*
X139483858Y-86370941D01*
X139589006Y-86292137D01*
X139598887Y-86282256D01*
X139634813Y-86234320D01*
X140548750Y-86234320D01*
X140552872Y-86247005D01*
X140556993Y-86250000D01*
X141241070Y-86250000D01*
X141253755Y-86245878D01*
X141256750Y-86241757D01*
X141256750Y-85865680D01*
X141252628Y-85852995D01*
X141248507Y-85850000D01*
X140564431Y-85850000D01*
X140551746Y-85854122D01*
X140548751Y-85858243D01*
X140548751Y-85895411D01*
X140549040Y-85900751D01*
X140554828Y-85954035D01*
X140557677Y-85966020D01*
X140576132Y-86015248D01*
X140578855Y-86076373D01*
X140576132Y-86084752D01*
X140557678Y-86133978D01*
X140554827Y-86145967D01*
X140549039Y-86199252D01*
X140548750Y-86204586D01*
X140548750Y-86234320D01*
X139634813Y-86234320D01*
X139677691Y-86177108D01*
X139684399Y-86164855D01*
X139730822Y-86041022D01*
X139733673Y-86029033D01*
X139739461Y-85975748D01*
X139739750Y-85970414D01*
X139739750Y-85469680D01*
X139735628Y-85456995D01*
X139731507Y-85454000D01*
X138776430Y-85454000D01*
X138763745Y-85458122D01*
X138760750Y-85462243D01*
X138760750Y-86417319D01*
X138252750Y-86417319D01*
X138252750Y-85469680D01*
X138248628Y-85456995D01*
X138244507Y-85454000D01*
X136826430Y-85454000D01*
X136813745Y-85458122D01*
X136810750Y-85462243D01*
X136810750Y-86417319D01*
X136302750Y-86417319D01*
X136302750Y-85469680D01*
X136298628Y-85456995D01*
X136294507Y-85454000D01*
X134876430Y-85454000D01*
X134863745Y-85458122D01*
X134860750Y-85462243D01*
X134860750Y-86417319D01*
X134352750Y-86417319D01*
X134352750Y-85469680D01*
X134348628Y-85456995D01*
X134344507Y-85454000D01*
X133389431Y-85454000D01*
X133376746Y-85458122D01*
X133373751Y-85462243D01*
X133373751Y-85970411D01*
X132217433Y-85970411D01*
X132245617Y-85928231D01*
X132247817Y-85917174D01*
X132256302Y-85874512D01*
X132257250Y-85869748D01*
X132257250Y-85434320D01*
X140548750Y-85434320D01*
X140552872Y-85447005D01*
X140556993Y-85450000D01*
X141241070Y-85450000D01*
X141253755Y-85445878D01*
X141256750Y-85441757D01*
X141256750Y-85065680D01*
X141252628Y-85052995D01*
X141248507Y-85050000D01*
X140564431Y-85050000D01*
X140551746Y-85054122D01*
X140548751Y-85058243D01*
X140548751Y-85095411D01*
X140549040Y-85100751D01*
X140554828Y-85154035D01*
X140557677Y-85166020D01*
X140576132Y-85215248D01*
X140578855Y-85276373D01*
X140576132Y-85284752D01*
X140557678Y-85333978D01*
X140554827Y-85345967D01*
X140549039Y-85399252D01*
X140548750Y-85404586D01*
X140548750Y-85434320D01*
X132257250Y-85434320D01*
X132257250Y-85430252D01*
X132245617Y-85371769D01*
X132201302Y-85305448D01*
X132204621Y-85303230D01*
X132185390Y-85265487D01*
X132194961Y-85205055D01*
X132202170Y-85195132D01*
X132201302Y-85194552D01*
X132204588Y-85189634D01*
X132245617Y-85128231D01*
X132249763Y-85107391D01*
X132256302Y-85074512D01*
X132257250Y-85069748D01*
X132257250Y-84930320D01*
X133373750Y-84930320D01*
X133377872Y-84943005D01*
X133381993Y-84946000D01*
X134337070Y-84946000D01*
X134349755Y-84941878D01*
X134352750Y-84937757D01*
X134352750Y-84930320D01*
X134860750Y-84930320D01*
X134864872Y-84943005D01*
X134868993Y-84946000D01*
X136287070Y-84946000D01*
X136299755Y-84941878D01*
X136302750Y-84937757D01*
X136302750Y-84930320D01*
X136810750Y-84930320D01*
X136814872Y-84943005D01*
X136818993Y-84946000D01*
X138237070Y-84946000D01*
X138249755Y-84941878D01*
X138252750Y-84937757D01*
X138252750Y-84930320D01*
X138760750Y-84930320D01*
X138764872Y-84943005D01*
X138768993Y-84946000D01*
X139724069Y-84946000D01*
X139736754Y-84941878D01*
X139739749Y-84937757D01*
X139739749Y-84634320D01*
X140548750Y-84634320D01*
X140552872Y-84647005D01*
X140556993Y-84650000D01*
X141241070Y-84650000D01*
X141253755Y-84645878D01*
X141256750Y-84641757D01*
X141256750Y-84265680D01*
X141252628Y-84252995D01*
X141248507Y-84250000D01*
X140564431Y-84250000D01*
X140551746Y-84254122D01*
X140548751Y-84258243D01*
X140548751Y-84295411D01*
X140549040Y-84300751D01*
X140554828Y-84354035D01*
X140557677Y-84366020D01*
X140576132Y-84415248D01*
X140578855Y-84476373D01*
X140576132Y-84484752D01*
X140557678Y-84533978D01*
X140554827Y-84545967D01*
X140549039Y-84599252D01*
X140548750Y-84604586D01*
X140548750Y-84634320D01*
X139739749Y-84634320D01*
X139739749Y-84429589D01*
X139739460Y-84424249D01*
X139733672Y-84370965D01*
X139730823Y-84358980D01*
X139693624Y-84259752D01*
X139690901Y-84198627D01*
X139693624Y-84190248D01*
X139730822Y-84091022D01*
X139733673Y-84079033D01*
X139739461Y-84025748D01*
X139739750Y-84020414D01*
X139739750Y-83834320D01*
X140548750Y-83834320D01*
X140552872Y-83847005D01*
X140556993Y-83850000D01*
X141241070Y-83850000D01*
X141253755Y-83845878D01*
X141256750Y-83841757D01*
X141256750Y-83465680D01*
X141252628Y-83452995D01*
X141248507Y-83450000D01*
X140564431Y-83450000D01*
X140551746Y-83454122D01*
X140548751Y-83458243D01*
X140548751Y-83495411D01*
X140549040Y-83500751D01*
X140554828Y-83554035D01*
X140557677Y-83566020D01*
X140576132Y-83615248D01*
X140578855Y-83676373D01*
X140576132Y-83684752D01*
X140557678Y-83733978D01*
X140554827Y-83745967D01*
X140549039Y-83799252D01*
X140548750Y-83804586D01*
X140548750Y-83834320D01*
X139739750Y-83834320D01*
X139739750Y-83519680D01*
X139735628Y-83506995D01*
X139731507Y-83504000D01*
X138776430Y-83504000D01*
X138763745Y-83508122D01*
X138760750Y-83512243D01*
X138760750Y-84930320D01*
X138252750Y-84930320D01*
X138252750Y-83519680D01*
X138248628Y-83506995D01*
X138244507Y-83504000D01*
X136826430Y-83504000D01*
X136813745Y-83508122D01*
X136810750Y-83512243D01*
X136810750Y-84930320D01*
X136302750Y-84930320D01*
X136302750Y-83519680D01*
X136298628Y-83506995D01*
X136294507Y-83504000D01*
X134876430Y-83504000D01*
X134863745Y-83508122D01*
X134860750Y-83512243D01*
X134860750Y-84930320D01*
X134352750Y-84930320D01*
X134352750Y-83519680D01*
X134348628Y-83506995D01*
X134344507Y-83504000D01*
X133389431Y-83504000D01*
X133376746Y-83508122D01*
X133373751Y-83512243D01*
X133373751Y-84020411D01*
X133374040Y-84025751D01*
X133379828Y-84079035D01*
X133382677Y-84091020D01*
X133419876Y-84190248D01*
X133422599Y-84251373D01*
X133419876Y-84259752D01*
X133382678Y-84358978D01*
X133379827Y-84370967D01*
X133374039Y-84424252D01*
X133373750Y-84429586D01*
X133373750Y-84930320D01*
X132257250Y-84930320D01*
X132257250Y-84630252D01*
X132245617Y-84571769D01*
X132201302Y-84505448D01*
X132204621Y-84503230D01*
X132185390Y-84465487D01*
X132194961Y-84405055D01*
X132202170Y-84395132D01*
X132201302Y-84394552D01*
X132217061Y-84370967D01*
X132245617Y-84328231D01*
X132248420Y-84314142D01*
X132252255Y-84294858D01*
X132257250Y-84269748D01*
X132257250Y-83830252D01*
X132249925Y-83793427D01*
X132247520Y-83781334D01*
X132247519Y-83781332D01*
X132245617Y-83771769D01*
X132201302Y-83705448D01*
X132204621Y-83703230D01*
X132185390Y-83665487D01*
X132194961Y-83605055D01*
X132202170Y-83595132D01*
X132201302Y-83594552D01*
X132210693Y-83580497D01*
X132245617Y-83528231D01*
X132248798Y-83512243D01*
X132256302Y-83474512D01*
X132257250Y-83469748D01*
X132257250Y-83034320D01*
X140548750Y-83034320D01*
X140552872Y-83047005D01*
X140556993Y-83050000D01*
X141241070Y-83050000D01*
X141253755Y-83045878D01*
X141256750Y-83041757D01*
X141256750Y-82665680D01*
X141252628Y-82652995D01*
X141248507Y-82650000D01*
X140564431Y-82650000D01*
X140551746Y-82654122D01*
X140548751Y-82658243D01*
X140548751Y-82695411D01*
X140549040Y-82700751D01*
X140554828Y-82754035D01*
X140557677Y-82766020D01*
X140576132Y-82815248D01*
X140578855Y-82876373D01*
X140576132Y-82884752D01*
X140557678Y-82933978D01*
X140554827Y-82945967D01*
X140549039Y-82999252D01*
X140548750Y-83004586D01*
X140548750Y-83034320D01*
X132257250Y-83034320D01*
X132257250Y-83030252D01*
X132249617Y-82991878D01*
X132247520Y-82981334D01*
X132247519Y-82981332D01*
X132247318Y-82980320D01*
X133373750Y-82980320D01*
X133377872Y-82993005D01*
X133381993Y-82996000D01*
X134337070Y-82996000D01*
X134349755Y-82991878D01*
X134352750Y-82987757D01*
X134352750Y-82980320D01*
X134860750Y-82980320D01*
X134864872Y-82993005D01*
X134868993Y-82996000D01*
X136287070Y-82996000D01*
X136299755Y-82991878D01*
X136302750Y-82987757D01*
X136302750Y-82980320D01*
X136810750Y-82980320D01*
X136814872Y-82993005D01*
X136818993Y-82996000D01*
X139724069Y-82996000D01*
X139736754Y-82991878D01*
X139739749Y-82987757D01*
X139739749Y-82479589D01*
X139739460Y-82474249D01*
X139733672Y-82420965D01*
X139730823Y-82408980D01*
X139697331Y-82319641D01*
X139694608Y-82258516D01*
X139704887Y-82234377D01*
X139704921Y-82234320D01*
X140548750Y-82234320D01*
X140552872Y-82247005D01*
X140556993Y-82250000D01*
X141241070Y-82250000D01*
X141253755Y-82245878D01*
X141256750Y-82241757D01*
X141256750Y-81865680D01*
X141252628Y-81852995D01*
X141248507Y-81850000D01*
X140564431Y-81850000D01*
X140551746Y-81854122D01*
X140548751Y-81858243D01*
X140548751Y-81895407D01*
X140549040Y-81900751D01*
X140554828Y-81954035D01*
X140557677Y-81966020D01*
X140576132Y-82015248D01*
X140578855Y-82076373D01*
X140576132Y-82084752D01*
X140557678Y-82133978D01*
X140554827Y-82145967D01*
X140549039Y-82199252D01*
X140548750Y-82204586D01*
X140548750Y-82234320D01*
X139704921Y-82234320D01*
X139708401Y-82228454D01*
X139708401Y-82228453D01*
X139710204Y-82225415D01*
X139711377Y-82222583D01*
X139711398Y-82222533D01*
X139711810Y-82221538D01*
X139716135Y-82206810D01*
X139740972Y-82122219D01*
X139742717Y-82116276D01*
X139745021Y-82051983D01*
X139749327Y-82039504D01*
X139746853Y-82039112D01*
X139749245Y-82024005D01*
X139750479Y-82024005D01*
X139750479Y-81434320D01*
X140548750Y-81434320D01*
X140552872Y-81447005D01*
X140556993Y-81450000D01*
X141241070Y-81450000D01*
X141253755Y-81445878D01*
X141256750Y-81441757D01*
X141256750Y-81065680D01*
X141252628Y-81052995D01*
X141248507Y-81050000D01*
X140564431Y-81050000D01*
X140551746Y-81054122D01*
X140548751Y-81058243D01*
X140548751Y-81095411D01*
X140549040Y-81100751D01*
X140554828Y-81154035D01*
X140557677Y-81166020D01*
X140576132Y-81215248D01*
X140578855Y-81276373D01*
X140576132Y-81284752D01*
X140557678Y-81333978D01*
X140554827Y-81345967D01*
X140549039Y-81399252D01*
X140548750Y-81404586D01*
X140548750Y-81434320D01*
X139750479Y-81434320D01*
X139750479Y-81175995D01*
X139748753Y-81175995D01*
X139746524Y-81160081D01*
X139747701Y-81127228D01*
X139747700Y-81127223D01*
X139747954Y-81120147D01*
X139711810Y-80978462D01*
X139711398Y-80977467D01*
X139711377Y-80977417D01*
X139710204Y-80974585D01*
X139657529Y-80878130D01*
X139613783Y-80831155D01*
X139607991Y-80819269D01*
X139605960Y-80820745D01*
X139596971Y-80808372D01*
X139597843Y-80807500D01*
X139424663Y-80634320D01*
X140548750Y-80634320D01*
X140552872Y-80647005D01*
X140556993Y-80650000D01*
X141241070Y-80650000D01*
X141253755Y-80645878D01*
X141256750Y-80641757D01*
X141256750Y-80265680D01*
X141252628Y-80252995D01*
X141248507Y-80250000D01*
X140564431Y-80250000D01*
X140551746Y-80254122D01*
X140548751Y-80258243D01*
X140548751Y-80295411D01*
X140549040Y-80300751D01*
X140554828Y-80354035D01*
X140557677Y-80366020D01*
X140576132Y-80415248D01*
X140578855Y-80476373D01*
X140576132Y-80484752D01*
X140557678Y-80533978D01*
X140554827Y-80545967D01*
X140549039Y-80599252D01*
X140548750Y-80604586D01*
X140548750Y-80634320D01*
X139424663Y-80634320D01*
X138999250Y-80208907D01*
X138998025Y-80210132D01*
X138985196Y-80200458D01*
X138962702Y-80176304D01*
X138957877Y-80171123D01*
X138832115Y-80096525D01*
X138831120Y-80096113D01*
X138828338Y-80094961D01*
X138825788Y-80094212D01*
X138728972Y-80065779D01*
X138728970Y-80065779D01*
X138723026Y-80064033D01*
X138716833Y-80063811D01*
X138707806Y-80063488D01*
X138658733Y-80061729D01*
X138646254Y-80057423D01*
X138645862Y-80059897D01*
X138630755Y-80057505D01*
X138630755Y-80056271D01*
X137782745Y-80056271D01*
X137782745Y-80057997D01*
X137766831Y-80060226D01*
X137733978Y-80059049D01*
X137733973Y-80059050D01*
X137726897Y-80058796D01*
X137585212Y-80094940D01*
X137584217Y-80095352D01*
X137584167Y-80095373D01*
X137581335Y-80096546D01*
X137579017Y-80097812D01*
X137579006Y-80097817D01*
X137568769Y-80103407D01*
X137508634Y-80114701D01*
X137486571Y-80109217D01*
X137397772Y-80075928D01*
X137385783Y-80073077D01*
X137332498Y-80067289D01*
X137327164Y-80067000D01*
X136826430Y-80067000D01*
X136813745Y-80071122D01*
X136810750Y-80075243D01*
X136810750Y-82980320D01*
X136302750Y-82980320D01*
X136302750Y-81569680D01*
X136298628Y-81556995D01*
X136294507Y-81554000D01*
X134876430Y-81554000D01*
X134863745Y-81558122D01*
X134860750Y-81562243D01*
X134860750Y-82980320D01*
X134352750Y-82980320D01*
X134352750Y-81569680D01*
X134348628Y-81556995D01*
X134344507Y-81554000D01*
X133389431Y-81554000D01*
X133376746Y-81558122D01*
X133373751Y-81562243D01*
X133373751Y-82070411D01*
X133374040Y-82075751D01*
X133379828Y-82129035D01*
X133382677Y-82141020D01*
X133419876Y-82240248D01*
X133422599Y-82301373D01*
X133419876Y-82309752D01*
X133382678Y-82408978D01*
X133379827Y-82420967D01*
X133374039Y-82474252D01*
X133373750Y-82479586D01*
X133373750Y-82980320D01*
X132247318Y-82980320D01*
X132245617Y-82971769D01*
X132201302Y-82905448D01*
X132204621Y-82903230D01*
X132185390Y-82865487D01*
X132194961Y-82805055D01*
X132202170Y-82795132D01*
X132201302Y-82794552D01*
X132218266Y-82769164D01*
X132245617Y-82728231D01*
X132250210Y-82705143D01*
X132256302Y-82674512D01*
X132257250Y-82669748D01*
X132257250Y-82230252D01*
X132251084Y-82199252D01*
X132247520Y-82181334D01*
X132247519Y-82181332D01*
X132245617Y-82171769D01*
X132201302Y-82105448D01*
X132204621Y-82103230D01*
X132185390Y-82065487D01*
X132194961Y-82005055D01*
X132202170Y-81995132D01*
X132201302Y-81994552D01*
X132214648Y-81974579D01*
X132245617Y-81928231D01*
X132257250Y-81869748D01*
X132257250Y-81430252D01*
X132252029Y-81404005D01*
X132247520Y-81381334D01*
X132247519Y-81381332D01*
X132245617Y-81371769D01*
X132201302Y-81305448D01*
X132204621Y-81303230D01*
X132185390Y-81265487D01*
X132194961Y-81205055D01*
X132202170Y-81195132D01*
X132201302Y-81194552D01*
X132209227Y-81182691D01*
X132245617Y-81128231D01*
X132257250Y-81069748D01*
X132257250Y-81030320D01*
X133373750Y-81030320D01*
X133377872Y-81043005D01*
X133381993Y-81046000D01*
X134337070Y-81046000D01*
X134349755Y-81041878D01*
X134352750Y-81037757D01*
X134352750Y-81030320D01*
X134860750Y-81030320D01*
X134864872Y-81043005D01*
X134868993Y-81046000D01*
X136287070Y-81046000D01*
X136299755Y-81041878D01*
X136302750Y-81037757D01*
X136302750Y-80082681D01*
X136298628Y-80069996D01*
X136294507Y-80067001D01*
X135786339Y-80067001D01*
X135780999Y-80067290D01*
X135727715Y-80073078D01*
X135715730Y-80075927D01*
X135616502Y-80113126D01*
X135555377Y-80115849D01*
X135546998Y-80113126D01*
X135447772Y-80075928D01*
X135435783Y-80073077D01*
X135382498Y-80067289D01*
X135377164Y-80067000D01*
X134876430Y-80067000D01*
X134863745Y-80071122D01*
X134860750Y-80075243D01*
X134860750Y-81030320D01*
X134352750Y-81030320D01*
X134352750Y-80082681D01*
X134348628Y-80069996D01*
X134344507Y-80067001D01*
X133836339Y-80067001D01*
X133830999Y-80067290D01*
X133777715Y-80073078D01*
X133765730Y-80075927D01*
X133641895Y-80122351D01*
X133629642Y-80129059D01*
X133524494Y-80207863D01*
X133514613Y-80217744D01*
X133435809Y-80322892D01*
X133429101Y-80335145D01*
X133382678Y-80458978D01*
X133379827Y-80470967D01*
X133374039Y-80524252D01*
X133373750Y-80529586D01*
X133373750Y-81030320D01*
X132257250Y-81030320D01*
X132257250Y-80782861D01*
X132276157Y-80724670D01*
X132303522Y-80700586D01*
X132303212Y-80700172D01*
X132308473Y-80696229D01*
X132308705Y-80696025D01*
X132308855Y-80695943D01*
X132414006Y-80617137D01*
X132423887Y-80607256D01*
X132502691Y-80502108D01*
X132509399Y-80489855D01*
X132555822Y-80366022D01*
X132558673Y-80354033D01*
X132564461Y-80300748D01*
X132564750Y-80295414D01*
X132564750Y-80265680D01*
X132560628Y-80252995D01*
X132556507Y-80250000D01*
X131555750Y-80250000D01*
X131497559Y-80231093D01*
X131461595Y-80181593D01*
X131456750Y-80151000D01*
X131456750Y-79949000D01*
X131475657Y-79890809D01*
X131525157Y-79854845D01*
X131555750Y-79850000D01*
X132549069Y-79850000D01*
X132561754Y-79845878D01*
X132564749Y-79841757D01*
X132564749Y-79834320D01*
X140548750Y-79834320D01*
X140552872Y-79847005D01*
X140556993Y-79850000D01*
X141241070Y-79850000D01*
X141253755Y-79845878D01*
X141256750Y-79841757D01*
X141256750Y-79465680D01*
X141252628Y-79452995D01*
X141248507Y-79450000D01*
X140564431Y-79450000D01*
X140551746Y-79454122D01*
X140548751Y-79458243D01*
X140548751Y-79495411D01*
X140549040Y-79500751D01*
X140554828Y-79554035D01*
X140557677Y-79566020D01*
X140576132Y-79615248D01*
X140578855Y-79676373D01*
X140576132Y-79684752D01*
X140557678Y-79733978D01*
X140554827Y-79745967D01*
X140549039Y-79799252D01*
X140548750Y-79804586D01*
X140548750Y-79834320D01*
X132564749Y-79834320D01*
X132564749Y-79804589D01*
X132564460Y-79799249D01*
X132558672Y-79745965D01*
X132555823Y-79733980D01*
X132509399Y-79610145D01*
X132502691Y-79597892D01*
X132423887Y-79492744D01*
X132414006Y-79482863D01*
X132308855Y-79404057D01*
X132308705Y-79403975D01*
X132308608Y-79403872D01*
X132303212Y-79399828D01*
X132303914Y-79398891D01*
X132266745Y-79359445D01*
X132257250Y-79317139D01*
X132257250Y-79034320D01*
X140548750Y-79034320D01*
X140552872Y-79047005D01*
X140556993Y-79050000D01*
X141241070Y-79050000D01*
X141253755Y-79045878D01*
X141256750Y-79041757D01*
X141256750Y-78665680D01*
X141252628Y-78652995D01*
X141248507Y-78650000D01*
X140564431Y-78650000D01*
X140551746Y-78654122D01*
X140548751Y-78658243D01*
X140548751Y-78695411D01*
X140549040Y-78700751D01*
X140554828Y-78754035D01*
X140557677Y-78766020D01*
X140576132Y-78815248D01*
X140578855Y-78876373D01*
X140576132Y-78884752D01*
X140557678Y-78933978D01*
X140554827Y-78945967D01*
X140549039Y-78999252D01*
X140548750Y-79004586D01*
X140548750Y-79034320D01*
X132257250Y-79034320D01*
X132257250Y-79030252D01*
X132250642Y-78997032D01*
X132247520Y-78981334D01*
X132247519Y-78981332D01*
X132245617Y-78971769D01*
X132201302Y-78905448D01*
X132204621Y-78903230D01*
X132185390Y-78865487D01*
X132194961Y-78805055D01*
X132202170Y-78795132D01*
X132201302Y-78794552D01*
X132215590Y-78773169D01*
X132245617Y-78728231D01*
X132257250Y-78669748D01*
X132257250Y-78357000D01*
X132276157Y-78298809D01*
X132325657Y-78262845D01*
X132326634Y-78262690D01*
X132353755Y-78253878D01*
X132356750Y-78249757D01*
X132356750Y-77569680D01*
X132352628Y-77556995D01*
X132348507Y-77554000D01*
X131451750Y-77554000D01*
X131393559Y-77535093D01*
X131357595Y-77485593D01*
X131352750Y-77455000D01*
X131352750Y-77145000D01*
X131371657Y-77086809D01*
X131421157Y-77050845D01*
X131451750Y-77046000D01*
X132405750Y-77046000D01*
X132463941Y-77064907D01*
G37*
%TD.AperFunction*%
%TA.AperFunction,Conductor*%
G36*
X133883546Y-100592817D02*
G01*
X133932088Y-100630064D01*
X133949500Y-100686139D01*
X133949500Y-101696492D01*
X133949197Y-101700617D01*
X133947575Y-101705342D01*
X133948237Y-101722981D01*
X133949430Y-101754761D01*
X133949500Y-101758474D01*
X133949500Y-101777948D01*
X133950325Y-101782378D01*
X133950661Y-101787571D01*
X133951774Y-101817208D01*
X133955380Y-101825602D01*
X133955381Y-101825605D01*
X133956317Y-101827783D01*
X133962683Y-101848734D01*
X133964791Y-101860053D01*
X133973588Y-101874324D01*
X133978768Y-101882728D01*
X133985451Y-101895595D01*
X133995964Y-101920063D01*
X133999978Y-101924949D01*
X134004342Y-101929313D01*
X134018613Y-101947368D01*
X134023532Y-101955348D01*
X134046769Y-101973018D01*
X134056839Y-101981810D01*
X135380820Y-103305791D01*
X135408597Y-103360308D01*
X135408969Y-103388714D01*
X135394318Y-103500000D01*
X135395165Y-103506434D01*
X135399358Y-103538283D01*
X135388208Y-103598444D01*
X135343825Y-103640561D01*
X135288283Y-103649358D01*
X135256434Y-103645165D01*
X135250000Y-103644318D01*
X135093238Y-103664956D01*
X134947159Y-103725464D01*
X134821718Y-103821718D01*
X134725464Y-103947159D01*
X134664956Y-104093238D01*
X134644318Y-104250000D01*
X134664956Y-104406762D01*
X134725464Y-104552841D01*
X134729415Y-104557990D01*
X134811705Y-104665233D01*
X134832129Y-104722909D01*
X134814751Y-104781574D01*
X134766210Y-104818822D01*
X134733163Y-104824500D01*
X134366181Y-104824501D01*
X134360168Y-104824501D01*
X134329500Y-104827399D01*
X134323816Y-104829395D01*
X134323812Y-104829396D01*
X134212214Y-104868587D01*
X134205232Y-104871039D01*
X134199278Y-104875437D01*
X134192741Y-104878898D01*
X134191446Y-104876452D01*
X134145187Y-104891887D01*
X134086848Y-104873440D01*
X134080769Y-104868728D01*
X134073429Y-104862569D01*
X134067061Y-104856735D01*
X133693749Y-104483423D01*
X133687914Y-104477055D01*
X133662935Y-104447286D01*
X133629272Y-104427851D01*
X133621991Y-104423212D01*
X133610100Y-104414886D01*
X133590164Y-104400926D01*
X133581796Y-104398684D01*
X133576509Y-104396218D01*
X133571024Y-104394222D01*
X133563525Y-104389892D01*
X133554999Y-104388389D01*
X133554997Y-104388388D01*
X133525264Y-104383146D01*
X133516829Y-104381276D01*
X133487654Y-104373458D01*
X133479287Y-104371216D01*
X133470658Y-104371971D01*
X133440575Y-104374603D01*
X133431946Y-104374980D01*
X132785060Y-104374980D01*
X132726869Y-104356073D01*
X132690905Y-104306573D01*
X132691094Y-104244812D01*
X132720956Y-104154783D01*
X132723208Y-104144277D01*
X132732741Y-104051229D01*
X132733000Y-104046171D01*
X132733000Y-104019680D01*
X132728878Y-104006995D01*
X132724757Y-104004000D01*
X131620000Y-104004000D01*
X131561809Y-103985093D01*
X131525845Y-103935593D01*
X131521000Y-103905000D01*
X131521000Y-103595000D01*
X131539907Y-103536809D01*
X131589407Y-103500845D01*
X131620000Y-103496000D01*
X132717320Y-103496000D01*
X132730005Y-103491878D01*
X132733000Y-103487757D01*
X132733000Y-103453865D01*
X132732735Y-103448738D01*
X132722953Y-103354475D01*
X132720680Y-103343946D01*
X132670121Y-103192400D01*
X132665274Y-103182053D01*
X132581384Y-103046488D01*
X132574289Y-103037537D01*
X132461463Y-102924908D01*
X132458324Y-102922429D01*
X132424375Y-102871526D01*
X132421900Y-102829248D01*
X132424891Y-102810365D01*
X132424891Y-102810363D01*
X132425500Y-102806519D01*
X132425499Y-102193482D01*
X132423738Y-102182359D01*
X132416506Y-102136696D01*
X132410646Y-102099696D01*
X132371888Y-102023630D01*
X132356586Y-101993597D01*
X132356585Y-101993595D01*
X132353050Y-101986658D01*
X132311396Y-101945004D01*
X132283619Y-101890487D01*
X132293190Y-101830055D01*
X132311396Y-101804996D01*
X132327304Y-101789088D01*
X132381821Y-101761311D01*
X132445242Y-101773065D01*
X132447159Y-101774536D01*
X132453156Y-101777020D01*
X132581194Y-101830055D01*
X132593238Y-101835044D01*
X132750000Y-101855682D01*
X132906762Y-101835044D01*
X132918807Y-101830055D01*
X132938934Y-101821718D01*
X133052841Y-101774536D01*
X133178282Y-101678282D01*
X133274536Y-101552841D01*
X133335044Y-101406762D01*
X133355682Y-101250000D01*
X133335044Y-101093238D01*
X133332559Y-101087238D01*
X133292786Y-100991216D01*
X133287985Y-100930220D01*
X133319955Y-100878051D01*
X133371328Y-100855178D01*
X133454999Y-100844163D01*
X133467424Y-100840833D01*
X133594215Y-100788315D01*
X133605361Y-100781880D01*
X133714233Y-100698340D01*
X133723340Y-100689233D01*
X133771958Y-100625872D01*
X133822382Y-100591216D01*
X133883546Y-100592817D01*
G37*
%TD.AperFunction*%
%TA.AperFunction,Conductor*%
G36*
X121913191Y-106564907D02*
G01*
X121949155Y-106614407D01*
X121954000Y-106645000D01*
X121954000Y-109355000D01*
X121935093Y-109413191D01*
X121885593Y-109449155D01*
X121855000Y-109454000D01*
X119145000Y-109454000D01*
X119086809Y-109435093D01*
X119050845Y-109385593D01*
X119046000Y-109355000D01*
X119046000Y-108930320D01*
X119554000Y-108930320D01*
X119558122Y-108943005D01*
X119562243Y-108946000D01*
X121430320Y-108946000D01*
X121443005Y-108941878D01*
X121446000Y-108937757D01*
X121446000Y-107069680D01*
X121441878Y-107056995D01*
X121437757Y-107054000D01*
X119569680Y-107054000D01*
X119556995Y-107058122D01*
X119554000Y-107062243D01*
X119554000Y-108930320D01*
X119046000Y-108930320D01*
X119046000Y-106645000D01*
X119064907Y-106586809D01*
X119114407Y-106550845D01*
X119145000Y-106546000D01*
X121855000Y-106546000D01*
X121913191Y-106564907D01*
G37*
%TD.AperFunction*%
%TA.AperFunction,Conductor*%
G36*
X144869149Y-101869407D02*
G01*
X144905113Y-101918907D01*
X144904924Y-101980667D01*
X144853897Y-102134508D01*
X144853896Y-102134513D01*
X144852195Y-102139641D01*
X144841500Y-102244023D01*
X144841501Y-102862762D01*
X144841501Y-103387271D01*
X144822594Y-103445462D01*
X144773094Y-103481426D01*
X144742501Y-103486271D01*
X144109500Y-103486271D01*
X144051309Y-103467364D01*
X144015345Y-103417864D01*
X144010500Y-103387271D01*
X144010499Y-102242955D01*
X144010499Y-102240628D01*
X144007522Y-102209125D01*
X144005098Y-102202221D01*
X143965151Y-102088470D01*
X143965151Y-102088469D01*
X143962699Y-102081488D01*
X143923103Y-102027879D01*
X143908655Y-102008318D01*
X143889291Y-101950277D01*
X143907741Y-101891940D01*
X143956957Y-101855589D01*
X143988288Y-101850500D01*
X144810958Y-101850500D01*
X144869149Y-101869407D01*
G37*
%TD.AperFunction*%
%TA.AperFunction,Conductor*%
G36*
X121988227Y-76702518D02*
G01*
X121999642Y-76705143D01*
X122010517Y-76702682D01*
X122021664Y-76702702D01*
X122021664Y-76702863D01*
X122031669Y-76702076D01*
X122103759Y-76706801D01*
X122228475Y-76714975D01*
X122241302Y-76716663D01*
X122459516Y-76760068D01*
X122472016Y-76763418D01*
X122679872Y-76833976D01*
X122682691Y-76834933D01*
X122694653Y-76839889D01*
X122759300Y-76871769D01*
X122894180Y-76938284D01*
X122905386Y-76944753D01*
X123090385Y-77068365D01*
X123100639Y-77076233D01*
X123267914Y-77222930D01*
X123277069Y-77232085D01*
X123423767Y-77399361D01*
X123431635Y-77409615D01*
X123555247Y-77594614D01*
X123561716Y-77605820D01*
X123660111Y-77805346D01*
X123665067Y-77817308D01*
X123733110Y-78017754D01*
X123736581Y-78027980D01*
X123739932Y-78040484D01*
X123783199Y-78258000D01*
X123783336Y-78258691D01*
X123785025Y-78271523D01*
X123793889Y-78406762D01*
X123797891Y-78467816D01*
X123797101Y-78477628D01*
X123797375Y-78477628D01*
X123797355Y-78488778D01*
X123794857Y-78499642D01*
X123797317Y-78510514D01*
X123797317Y-78510516D01*
X123797559Y-78511583D01*
X123800000Y-78533432D01*
X123800000Y-79106462D01*
X123781093Y-79164653D01*
X123731593Y-79200617D01*
X123670407Y-79200617D01*
X123617972Y-79160381D01*
X123613165Y-79152978D01*
X123533465Y-79030252D01*
X123509575Y-78993464D01*
X123509573Y-78993461D01*
X123508161Y-78991287D01*
X123311065Y-78747893D01*
X123089607Y-78526435D01*
X122846213Y-78329339D01*
X122757197Y-78271531D01*
X122585729Y-78160178D01*
X122585723Y-78160175D01*
X122583551Y-78158764D01*
X122304497Y-78016579D01*
X122012110Y-77904343D01*
X121743697Y-77832421D01*
X121692384Y-77799098D01*
X121673009Y-77758817D01*
X121672601Y-77754500D01*
X121628961Y-77630232D01*
X121550711Y-77524289D01*
X121444768Y-77446039D01*
X121320500Y-77402399D01*
X121314496Y-77401831D01*
X121314494Y-77401831D01*
X121292144Y-77399718D01*
X121292134Y-77399718D01*
X121289833Y-77399500D01*
X121000125Y-77399500D01*
X120710168Y-77399501D01*
X120679500Y-77402399D01*
X120673816Y-77404395D01*
X120673812Y-77404396D01*
X120562214Y-77443587D01*
X120555232Y-77446039D01*
X120449289Y-77524289D01*
X120371039Y-77630232D01*
X120327399Y-77754500D01*
X120326831Y-77760504D01*
X120326831Y-77760506D01*
X120325958Y-77769748D01*
X120324500Y-77785167D01*
X120324500Y-77787489D01*
X120324390Y-77789827D01*
X120323114Y-77789767D01*
X120305593Y-77843691D01*
X120256093Y-77879655D01*
X120225500Y-77884500D01*
X118936334Y-77884500D01*
X118878143Y-77865593D01*
X118856598Y-77844179D01*
X118762618Y-77716474D01*
X118762617Y-77716473D01*
X118759209Y-77711842D01*
X118754827Y-77708119D01*
X118754825Y-77708117D01*
X118634666Y-77606034D01*
X118634665Y-77606033D01*
X118630280Y-77602308D01*
X118479611Y-77525373D01*
X118457204Y-77519890D01*
X118319563Y-77486209D01*
X118319560Y-77486208D01*
X118315283Y-77485162D01*
X118310885Y-77484889D01*
X118310884Y-77484889D01*
X118306128Y-77484594D01*
X118306126Y-77484594D01*
X118304612Y-77484500D01*
X117732637Y-77484500D01*
X117606963Y-77499152D01*
X117601557Y-77501114D01*
X117601554Y-77501115D01*
X117521303Y-77530245D01*
X117447939Y-77556875D01*
X117443130Y-77560028D01*
X117443126Y-77560030D01*
X117428408Y-77569680D01*
X117306460Y-77649633D01*
X117190115Y-77772450D01*
X117148735Y-77843691D01*
X117117265Y-77897871D01*
X117105144Y-77918738D01*
X117098471Y-77940770D01*
X117065540Y-78049500D01*
X117056105Y-78080650D01*
X117051357Y-78157191D01*
X117046076Y-78242319D01*
X117045630Y-78249501D01*
X117074280Y-78416233D01*
X117076533Y-78421528D01*
X117137525Y-78564867D01*
X117140518Y-78571902D01*
X117192532Y-78642581D01*
X117221715Y-78682236D01*
X117240791Y-78708158D01*
X117245173Y-78711881D01*
X117245175Y-78711883D01*
X117309813Y-78766797D01*
X117341919Y-78818882D01*
X117337278Y-78879891D01*
X117309741Y-78917482D01*
X117306460Y-78919633D01*
X117190115Y-79042450D01*
X117105144Y-79188738D01*
X117098330Y-79211236D01*
X117057850Y-79344890D01*
X117056105Y-79350650D01*
X117045630Y-79519501D01*
X117046604Y-79525169D01*
X117070431Y-79663834D01*
X117061651Y-79724387D01*
X117018957Y-79768214D01*
X117012017Y-79771326D01*
X116997892Y-79779059D01*
X116892744Y-79857863D01*
X116882863Y-79867744D01*
X116804059Y-79972892D01*
X116797351Y-79985145D01*
X116750928Y-80108978D01*
X116748077Y-80120967D01*
X116742289Y-80174252D01*
X116742000Y-80179586D01*
X116742000Y-80480320D01*
X116746122Y-80493005D01*
X116750243Y-80496000D01*
X119242319Y-80496000D01*
X119255004Y-80491878D01*
X119257999Y-80487757D01*
X119257999Y-80179589D01*
X119257710Y-80174249D01*
X119251922Y-80120965D01*
X119249073Y-80108980D01*
X119202649Y-79985145D01*
X119195940Y-79972891D01*
X119189182Y-79963874D01*
X119169412Y-79905971D01*
X119187453Y-79847505D01*
X119236413Y-79810810D01*
X119268401Y-79805500D01*
X120225500Y-79805500D01*
X120283691Y-79824407D01*
X120319655Y-79873907D01*
X120324500Y-79904500D01*
X120324501Y-80058796D01*
X120324501Y-80214832D01*
X120327399Y-80245500D01*
X120329395Y-80251184D01*
X120329396Y-80251188D01*
X120346802Y-80300751D01*
X120371039Y-80369768D01*
X120449289Y-80475711D01*
X120555232Y-80553961D01*
X120679500Y-80597601D01*
X120685504Y-80598169D01*
X120685506Y-80598169D01*
X120707856Y-80600282D01*
X120707866Y-80600282D01*
X120710167Y-80600500D01*
X120999875Y-80600500D01*
X121289832Y-80600499D01*
X121320500Y-80597601D01*
X121326184Y-80595605D01*
X121326188Y-80595604D01*
X121437786Y-80556413D01*
X121444768Y-80553961D01*
X121550711Y-80475711D01*
X121598848Y-80410538D01*
X121648628Y-80374964D01*
X121710303Y-80375610D01*
X121730342Y-80382412D01*
X121742284Y-80387359D01*
X121956444Y-80492971D01*
X121967637Y-80499434D01*
X122075894Y-80571769D01*
X122166167Y-80632088D01*
X122176440Y-80639971D01*
X122355948Y-80797395D01*
X122365105Y-80806552D01*
X122522529Y-80986060D01*
X122530412Y-80996333D01*
X122663066Y-81194863D01*
X122669529Y-81206056D01*
X122775142Y-81420218D01*
X122780091Y-81432167D01*
X122781090Y-81435110D01*
X122856837Y-81658255D01*
X122860189Y-81670763D01*
X122906383Y-81902990D01*
X122906771Y-81904941D01*
X122908460Y-81917775D01*
X122913879Y-82000448D01*
X122922358Y-82129833D01*
X122921067Y-82153491D01*
X122919479Y-82162500D01*
X122920983Y-82171029D01*
X122920983Y-82171030D01*
X122922996Y-82182446D01*
X122924500Y-82199637D01*
X122924500Y-82492235D01*
X122905593Y-82550426D01*
X122856093Y-82586390D01*
X122794907Y-82586390D01*
X122768716Y-82573331D01*
X122750815Y-82560796D01*
X122602292Y-82456800D01*
X122411992Y-82368061D01*
X122329001Y-82345824D01*
X122213351Y-82314835D01*
X122213349Y-82314835D01*
X122209174Y-82313716D01*
X122005017Y-82295855D01*
X122005046Y-82295520D01*
X122003870Y-82295589D01*
X122000716Y-82294858D01*
X122000000Y-82294857D01*
X121994551Y-82296100D01*
X121988321Y-82297521D01*
X121966304Y-82300000D01*
X117033960Y-82300000D01*
X117011773Y-82297482D01*
X117000358Y-82294857D01*
X116989483Y-82297318D01*
X116978336Y-82297298D01*
X116978336Y-82297137D01*
X116968331Y-82297924D01*
X116896241Y-82293199D01*
X116771525Y-82285025D01*
X116758698Y-82283337D01*
X116540484Y-82239932D01*
X116527984Y-82236582D01*
X116317308Y-82165067D01*
X116305346Y-82160111D01*
X116284304Y-82149734D01*
X116163314Y-82090069D01*
X116105820Y-82061716D01*
X116094614Y-82055247D01*
X115909615Y-81931635D01*
X115899361Y-81923767D01*
X115732085Y-81777069D01*
X115722930Y-81767914D01*
X115687618Y-81727649D01*
X115576233Y-81600639D01*
X115568365Y-81590385D01*
X115444753Y-81405386D01*
X115438284Y-81394180D01*
X115401905Y-81320411D01*
X116742001Y-81320411D01*
X116742290Y-81325751D01*
X116748078Y-81379035D01*
X116750927Y-81391020D01*
X116797351Y-81514855D01*
X116804059Y-81527108D01*
X116882863Y-81632256D01*
X116892744Y-81642137D01*
X116997892Y-81720941D01*
X117010145Y-81727649D01*
X117133978Y-81774072D01*
X117145967Y-81776923D01*
X117199252Y-81782711D01*
X117204586Y-81783000D01*
X117730320Y-81783000D01*
X117743005Y-81778878D01*
X117746000Y-81774757D01*
X117746000Y-81767319D01*
X118254000Y-81767319D01*
X118258122Y-81780004D01*
X118262243Y-81782999D01*
X118795411Y-81782999D01*
X118800751Y-81782710D01*
X118854035Y-81776922D01*
X118866020Y-81774073D01*
X118989855Y-81727649D01*
X119002108Y-81720941D01*
X119107256Y-81642137D01*
X119117137Y-81632256D01*
X119195941Y-81527108D01*
X119202649Y-81514855D01*
X119249072Y-81391022D01*
X119251923Y-81379033D01*
X119257711Y-81325748D01*
X119258000Y-81320414D01*
X119258000Y-81019680D01*
X119253878Y-81006995D01*
X119249757Y-81004000D01*
X118269680Y-81004000D01*
X118256995Y-81008122D01*
X118254000Y-81012243D01*
X118254000Y-81767319D01*
X117746000Y-81767319D01*
X117746000Y-81019680D01*
X117741878Y-81006995D01*
X117737757Y-81004000D01*
X116757681Y-81004000D01*
X116744996Y-81008122D01*
X116742001Y-81012243D01*
X116742001Y-81320411D01*
X115401905Y-81320411D01*
X115342649Y-81200250D01*
X115339889Y-81194653D01*
X115334933Y-81182691D01*
X115327258Y-81160081D01*
X115263418Y-80972016D01*
X115260067Y-80959511D01*
X115253955Y-80928783D01*
X115216663Y-80741302D01*
X115214974Y-80728470D01*
X115213147Y-80700586D01*
X115202109Y-80532181D01*
X115202899Y-80522372D01*
X115202625Y-80522372D01*
X115202645Y-80511222D01*
X115205143Y-80500358D01*
X115202683Y-80489486D01*
X115202683Y-80489484D01*
X115202441Y-80488417D01*
X115200000Y-80466568D01*
X115200000Y-78533960D01*
X115202518Y-78511773D01*
X115202562Y-78511583D01*
X115205143Y-78500358D01*
X115202682Y-78489483D01*
X115202702Y-78478336D01*
X115202863Y-78478336D01*
X115202076Y-78468331D01*
X115206801Y-78396241D01*
X115214975Y-78271525D01*
X115216664Y-78258691D01*
X115216802Y-78258000D01*
X115260068Y-78040484D01*
X115263419Y-78027980D01*
X115266891Y-78017754D01*
X115334933Y-77817308D01*
X115339889Y-77805346D01*
X115438284Y-77605820D01*
X115444753Y-77594614D01*
X115568365Y-77409615D01*
X115576233Y-77399361D01*
X115722931Y-77232085D01*
X115732086Y-77222930D01*
X115899361Y-77076233D01*
X115909615Y-77068365D01*
X116094614Y-76944753D01*
X116105820Y-76938284D01*
X116240700Y-76871769D01*
X116305347Y-76839889D01*
X116317309Y-76834933D01*
X116320128Y-76833976D01*
X116527984Y-76763418D01*
X116540484Y-76760068D01*
X116758698Y-76716663D01*
X116771523Y-76714975D01*
X116967819Y-76702109D01*
X116977628Y-76702899D01*
X116977628Y-76702625D01*
X116988778Y-76702645D01*
X116999642Y-76705143D01*
X117010514Y-76702683D01*
X117010516Y-76702683D01*
X117011583Y-76702441D01*
X117033432Y-76700000D01*
X121966040Y-76700000D01*
X121988227Y-76702518D01*
G37*
%TD.AperFunction*%
%TA.AperFunction,Conductor*%
G36*
X130723254Y-76718907D02*
G01*
X130759218Y-76768407D01*
X130757897Y-76827654D01*
X130759113Y-76827943D01*
X130757764Y-76833616D01*
X130757761Y-76833756D01*
X130757678Y-76833976D01*
X130754827Y-76845967D01*
X130749039Y-76899252D01*
X130748750Y-76904586D01*
X130748750Y-77018752D01*
X130729843Y-77076943D01*
X130680343Y-77112907D01*
X130619157Y-77112907D01*
X130573467Y-77081855D01*
X130569691Y-77077290D01*
X130562172Y-77069199D01*
X130550517Y-77062713D01*
X130546258Y-77063228D01*
X130545344Y-77063867D01*
X128620296Y-78988914D01*
X128614242Y-79000797D01*
X128615038Y-79005828D01*
X130537994Y-80928783D01*
X130549877Y-80934837D01*
X130552748Y-80934383D01*
X130555503Y-80932187D01*
X130667135Y-80798676D01*
X130670535Y-80794099D01*
X130766132Y-80648566D01*
X130813883Y-80610310D01*
X130875000Y-80607428D01*
X130908250Y-80623698D01*
X131004649Y-80695945D01*
X131004795Y-80696025D01*
X131004890Y-80696125D01*
X131010289Y-80700172D01*
X131009586Y-80701110D01*
X131046755Y-80740555D01*
X131056250Y-80782861D01*
X131056250Y-81069748D01*
X131067883Y-81128231D01*
X131104273Y-81182691D01*
X131112198Y-81194552D01*
X131108879Y-81196770D01*
X131128110Y-81234513D01*
X131118539Y-81294945D01*
X131111330Y-81304868D01*
X131112198Y-81305448D01*
X131067883Y-81371769D01*
X131065981Y-81381332D01*
X131065980Y-81381334D01*
X131061471Y-81404005D01*
X131056250Y-81430252D01*
X131056250Y-81869748D01*
X131067883Y-81928231D01*
X131098852Y-81974579D01*
X131112198Y-81994552D01*
X131108879Y-81996770D01*
X131128110Y-82034513D01*
X131118539Y-82094945D01*
X131111330Y-82104868D01*
X131112198Y-82105448D01*
X131067883Y-82171769D01*
X131065981Y-82181332D01*
X131065980Y-82181334D01*
X131057215Y-82225402D01*
X131056250Y-82230252D01*
X131056250Y-82234217D01*
X131031847Y-82290012D01*
X130979061Y-82320953D01*
X130918170Y-82314958D01*
X130869632Y-82269200D01*
X130856588Y-82243600D01*
X130856585Y-82243596D01*
X130853050Y-82236658D01*
X130763342Y-82146950D01*
X130756405Y-82143415D01*
X130756403Y-82143414D01*
X130657244Y-82092890D01*
X130657243Y-82092890D01*
X130650304Y-82089354D01*
X130642610Y-82088135D01*
X130642609Y-82088135D01*
X130560365Y-82075109D01*
X130560363Y-82075109D01*
X130556519Y-82074500D01*
X130250040Y-82074500D01*
X129943482Y-82074501D01*
X129939639Y-82075110D01*
X129939634Y-82075110D01*
X129909435Y-82079893D01*
X129849696Y-82089354D01*
X129796859Y-82116276D01*
X129743597Y-82143414D01*
X129743595Y-82143415D01*
X129736658Y-82146950D01*
X129695004Y-82188604D01*
X129640487Y-82216381D01*
X129580055Y-82206810D01*
X129554996Y-82188604D01*
X129513342Y-82146950D01*
X129506405Y-82143415D01*
X129506403Y-82143414D01*
X129407244Y-82092890D01*
X129407243Y-82092890D01*
X129400304Y-82089354D01*
X129392610Y-82088135D01*
X129392609Y-82088135D01*
X129310365Y-82075109D01*
X129310363Y-82075109D01*
X129306519Y-82074500D01*
X129144907Y-82074500D01*
X129086716Y-82055593D01*
X129050752Y-82006093D01*
X129050752Y-81944907D01*
X129086716Y-81895407D01*
X129115797Y-81880876D01*
X129297564Y-81824957D01*
X129302894Y-81822976D01*
X129615313Y-81685834D01*
X129620380Y-81683252D01*
X129914964Y-81511110D01*
X129919696Y-81507966D01*
X130180777Y-81311941D01*
X130188446Y-81301030D01*
X130188422Y-81299512D01*
X130185309Y-81294520D01*
X127960794Y-79070004D01*
X127933017Y-79015487D01*
X127942588Y-78955055D01*
X127960794Y-78929996D01*
X130161794Y-76728996D01*
X130216311Y-76701219D01*
X130231798Y-76700000D01*
X130665063Y-76700000D01*
X130723254Y-76718907D01*
G37*
%TD.AperFunction*%
%TD*%
M02*
