%TF.GenerationSoftware,KiCad,Pcbnew,(5.1.9-0-10_14)*%
%TF.CreationDate,2021-05-26T10:13:11+01:00*%
%TF.ProjectId,EnvMon,456e764d-6f6e-42e6-9b69-6361645f7063,3*%
%TF.SameCoordinates,Original*%
%TF.FileFunction,Legend,Top*%
%TF.FilePolarity,Positive*%
%FSLAX46Y46*%
G04 Gerber Fmt 4.6, Leading zero omitted, Abs format (unit mm)*
G04 Created by KiCad (PCBNEW (5.1.9-0-10_14)) date 2021-05-26 10:13:11*
%MOMM*%
%LPD*%
G01*
G04 APERTURE LIST*
%ADD10C,0.120000*%
%ADD11C,0.080000*%
%ADD12C,0.150000*%
%ADD13C,0.100000*%
G04 APERTURE END LIST*
D10*
%TO.C,R10*%
X131859420Y-90990000D02*
X132140580Y-90990000D01*
X131859420Y-92010000D02*
X132140580Y-92010000D01*
%TO.C,D1*%
X132800000Y-92265000D02*
X130515000Y-92265000D01*
X130515000Y-92265000D02*
X130515000Y-93735000D01*
X130515000Y-93735000D02*
X132800000Y-93735000D01*
%TO.C,Reg1*%
X103625000Y-83500000D02*
X94625000Y-83500000D01*
X103625000Y-75500000D02*
X103625000Y-83500000D01*
X94625000Y-75500000D02*
X103625000Y-75500000D01*
X94625000Y-83500000D02*
X94625000Y-75500000D01*
%TO.C,U2*%
X106130000Y-69555000D02*
X105750000Y-69555000D01*
X106130000Y-63135000D02*
X106130000Y-69555000D01*
X124370000Y-63135000D02*
X124370000Y-69555000D01*
X106130000Y-63135000D02*
X124370000Y-63135000D01*
X124370000Y-88880000D02*
X123370000Y-88880000D01*
X124370000Y-88100000D02*
X124370000Y-88880000D01*
X106130000Y-88880000D02*
X107130000Y-88880000D01*
X106130000Y-88100000D02*
X106130000Y-88880000D01*
%TO.C,U1*%
X101360000Y-86015000D02*
X102085000Y-86015000D01*
X102085000Y-86015000D02*
X102085000Y-86740000D01*
X98590000Y-90235000D02*
X97865000Y-90235000D01*
X97865000Y-90235000D02*
X97865000Y-89510000D01*
X101360000Y-90235000D02*
X102085000Y-90235000D01*
X102085000Y-90235000D02*
X102085000Y-89510000D01*
X98590000Y-86015000D02*
X97865000Y-86015000D01*
%TO.C,M2*%
X134500000Y-63000000D02*
X90000000Y-63000000D01*
X90000000Y-63000000D02*
X90000000Y-100000000D01*
X90000000Y-100000000D02*
X134500000Y-100000000D01*
X134500000Y-100000000D02*
X134500000Y-63000000D01*
X129000000Y-63000000D02*
X129000000Y-92210000D01*
X129000000Y-92210000D02*
X95500000Y-92210000D01*
X95500000Y-92210000D02*
X95500000Y-63000000D01*
X132500000Y-90500000D02*
X126500000Y-90500000D01*
X126500000Y-90500000D02*
X126500000Y-72500000D01*
X126500000Y-72500000D02*
X132500000Y-72500000D01*
X132500000Y-72500000D02*
X132500000Y-90500000D01*
X130500000Y-90500000D02*
X132500000Y-88500000D01*
X129000000Y-90500000D02*
X132500000Y-87000000D01*
X127500000Y-90500000D02*
X132500000Y-85500000D01*
X126500000Y-90000000D02*
X132500000Y-84000000D01*
X126500000Y-88500000D02*
X132500000Y-82500000D01*
X126500000Y-87000000D02*
X132500000Y-81000000D01*
X126500000Y-85500000D02*
X132500000Y-79500000D01*
X126500000Y-84000000D02*
X132500000Y-78000000D01*
X126500000Y-82500000D02*
X132500000Y-76500000D01*
X126500000Y-81000000D02*
X132500000Y-75000000D01*
X126500000Y-79500000D02*
X132500000Y-73500000D01*
X126500000Y-78000000D02*
X132000000Y-72500000D01*
X126500000Y-76500000D02*
X130500000Y-72500000D01*
X126500000Y-75000000D02*
X129000000Y-72500000D01*
X126500000Y-73500000D02*
X127500000Y-72500000D01*
%TO.C,J3*%
X106490000Y-91740000D02*
X106490000Y-99860000D01*
X106490000Y-99860000D02*
X129110000Y-99860000D01*
X129110000Y-99860000D02*
X129110000Y-91740000D01*
X129110000Y-91740000D02*
X106490000Y-91740000D01*
X106190000Y-93850000D02*
X106190000Y-91440000D01*
X106190000Y-91440000D02*
X108600000Y-91440000D01*
%TO.C,J1*%
X95280000Y-100485000D02*
X95280000Y-93135000D01*
X95280000Y-93135000D02*
X104220000Y-93135000D01*
X104220000Y-93135000D02*
X104220000Y-100485000D01*
X95280000Y-100485000D02*
X104220000Y-100485000D01*
%TO.C,R10*%
D11*
X130626190Y-91821428D02*
X130388095Y-91988095D01*
X130626190Y-92107142D02*
X130126190Y-92107142D01*
X130126190Y-91916666D01*
X130150000Y-91869047D01*
X130173809Y-91845238D01*
X130221428Y-91821428D01*
X130292857Y-91821428D01*
X130340476Y-91845238D01*
X130364285Y-91869047D01*
X130388095Y-91916666D01*
X130388095Y-92107142D01*
X130626190Y-91345238D02*
X130626190Y-91630952D01*
X130626190Y-91488095D02*
X130126190Y-91488095D01*
X130197619Y-91535714D01*
X130245238Y-91583333D01*
X130269047Y-91630952D01*
X130126190Y-91035714D02*
X130126190Y-90988095D01*
X130150000Y-90940476D01*
X130173809Y-90916666D01*
X130221428Y-90892857D01*
X130316666Y-90869047D01*
X130435714Y-90869047D01*
X130530952Y-90892857D01*
X130578571Y-90916666D01*
X130602380Y-90940476D01*
X130626190Y-90988095D01*
X130626190Y-91035714D01*
X130602380Y-91083333D01*
X130578571Y-91107142D01*
X130530952Y-91130952D01*
X130435714Y-91154761D01*
X130316666Y-91154761D01*
X130221428Y-91130952D01*
X130173809Y-91107142D01*
X130150000Y-91083333D01*
X130126190Y-91035714D01*
%TO.C,D1*%
D12*
X131261904Y-92022380D02*
X131261904Y-91022380D01*
X131500000Y-91022380D01*
X131642857Y-91070000D01*
X131738095Y-91165238D01*
X131785714Y-91260476D01*
X131833333Y-91450952D01*
X131833333Y-91593809D01*
X131785714Y-91784285D01*
X131738095Y-91879523D01*
X131642857Y-91974761D01*
X131500000Y-92022380D01*
X131261904Y-92022380D01*
X132785714Y-92022380D02*
X132214285Y-92022380D01*
X132500000Y-92022380D02*
X132500000Y-91022380D01*
X132404761Y-91165238D01*
X132309523Y-91260476D01*
X132214285Y-91308095D01*
%TO.C,Reg1*%
D13*
X95194761Y-76226190D02*
X95028095Y-75988095D01*
X94909047Y-76226190D02*
X94909047Y-75726190D01*
X95099523Y-75726190D01*
X95147142Y-75750000D01*
X95170952Y-75773809D01*
X95194761Y-75821428D01*
X95194761Y-75892857D01*
X95170952Y-75940476D01*
X95147142Y-75964285D01*
X95099523Y-75988095D01*
X94909047Y-75988095D01*
X95599523Y-76202380D02*
X95551904Y-76226190D01*
X95456666Y-76226190D01*
X95409047Y-76202380D01*
X95385238Y-76154761D01*
X95385238Y-75964285D01*
X95409047Y-75916666D01*
X95456666Y-75892857D01*
X95551904Y-75892857D01*
X95599523Y-75916666D01*
X95623333Y-75964285D01*
X95623333Y-76011904D01*
X95385238Y-76059523D01*
X96051904Y-75892857D02*
X96051904Y-76297619D01*
X96028095Y-76345238D01*
X96004285Y-76369047D01*
X95956666Y-76392857D01*
X95885238Y-76392857D01*
X95837619Y-76369047D01*
X96051904Y-76202380D02*
X96004285Y-76226190D01*
X95909047Y-76226190D01*
X95861428Y-76202380D01*
X95837619Y-76178571D01*
X95813809Y-76130952D01*
X95813809Y-75988095D01*
X95837619Y-75940476D01*
X95861428Y-75916666D01*
X95909047Y-75892857D01*
X96004285Y-75892857D01*
X96051904Y-75916666D01*
X96551904Y-76226190D02*
X96266190Y-76226190D01*
X96409047Y-76226190D02*
X96409047Y-75726190D01*
X96361428Y-75797619D01*
X96313809Y-75845238D01*
X96266190Y-75869047D01*
%TO.C,U2*%
D12*
X104092380Y-88191904D02*
X104901904Y-88191904D01*
X104997142Y-88144285D01*
X105044761Y-88096666D01*
X105092380Y-88001428D01*
X105092380Y-87810952D01*
X105044761Y-87715714D01*
X104997142Y-87668095D01*
X104901904Y-87620476D01*
X104092380Y-87620476D01*
X104187619Y-87191904D02*
X104140000Y-87144285D01*
X104092380Y-87049047D01*
X104092380Y-86810952D01*
X104140000Y-86715714D01*
X104187619Y-86668095D01*
X104282857Y-86620476D01*
X104378095Y-86620476D01*
X104520952Y-86668095D01*
X105092380Y-87239523D01*
X105092380Y-86620476D01*
%TO.C,U1*%
X99213095Y-84277380D02*
X99213095Y-85086904D01*
X99260714Y-85182142D01*
X99308333Y-85229761D01*
X99403571Y-85277380D01*
X99594047Y-85277380D01*
X99689285Y-85229761D01*
X99736904Y-85182142D01*
X99784523Y-85086904D01*
X99784523Y-84277380D01*
X100784523Y-85277380D02*
X100213095Y-85277380D01*
X100498809Y-85277380D02*
X100498809Y-84277380D01*
X100403571Y-84420238D01*
X100308333Y-84515476D01*
X100213095Y-84563095D01*
%TO.C,M3*%
X95640476Y-69102380D02*
X95640476Y-68102380D01*
X95973809Y-68816666D01*
X96307142Y-68102380D01*
X96307142Y-69102380D01*
X96688095Y-68102380D02*
X97307142Y-68102380D01*
X96973809Y-68483333D01*
X97116666Y-68483333D01*
X97211904Y-68530952D01*
X97259523Y-68578571D01*
X97307142Y-68673809D01*
X97307142Y-68911904D01*
X97259523Y-69007142D01*
X97211904Y-69054761D01*
X97116666Y-69102380D01*
X96830952Y-69102380D01*
X96735714Y-69054761D01*
X96688095Y-69007142D01*
%TO.C,M2*%
X91452380Y-82309523D02*
X90452380Y-82309523D01*
X91166666Y-81976190D01*
X90452380Y-81642857D01*
X91452380Y-81642857D01*
X90547619Y-81214285D02*
X90500000Y-81166666D01*
X90452380Y-81071428D01*
X90452380Y-80833333D01*
X90500000Y-80738095D01*
X90547619Y-80690476D01*
X90642857Y-80642857D01*
X90738095Y-80642857D01*
X90880952Y-80690476D01*
X91452380Y-81261904D01*
X91452380Y-80642857D01*
%TO.C,J3*%
X117466666Y-90102380D02*
X117466666Y-90816666D01*
X117419047Y-90959523D01*
X117323809Y-91054761D01*
X117180952Y-91102380D01*
X117085714Y-91102380D01*
X117847619Y-90102380D02*
X118466666Y-90102380D01*
X118133333Y-90483333D01*
X118276190Y-90483333D01*
X118371428Y-90530952D01*
X118419047Y-90578571D01*
X118466666Y-90673809D01*
X118466666Y-90911904D01*
X118419047Y-91007142D01*
X118371428Y-91054761D01*
X118276190Y-91102380D01*
X117990476Y-91102380D01*
X117895238Y-91054761D01*
X117847619Y-91007142D01*
%TO.C,J1*%
X103916666Y-91202380D02*
X103916666Y-91916666D01*
X103869047Y-92059523D01*
X103773809Y-92154761D01*
X103630952Y-92202380D01*
X103535714Y-92202380D01*
X104916666Y-92202380D02*
X104345238Y-92202380D01*
X104630952Y-92202380D02*
X104630952Y-91202380D01*
X104535714Y-91345238D01*
X104440476Y-91440476D01*
X104345238Y-91488095D01*
%TD*%
M02*
