%TF.GenerationSoftware,KiCad,Pcbnew,(5.1.9-0-10_14)*%
%TF.CreationDate,2021-05-26T10:13:11+01:00*%
%TF.ProjectId,EnvMon,456e764d-6f6e-42e6-9b69-6361645f7063,3*%
%TF.SameCoordinates,Original*%
%TF.FileFunction,Copper,L1,Top*%
%TF.FilePolarity,Positive*%
%FSLAX46Y46*%
G04 Gerber Fmt 4.6, Leading zero omitted, Abs format (unit mm)*
G04 Created by KiCad (PCBNEW (5.1.9-0-10_14)) date 2021-05-26 10:13:11*
%MOMM*%
%LPD*%
G01*
G04 APERTURE LIST*
%TA.AperFunction,NonConductor*%
%ADD10C,0.300000*%
%TD*%
%TA.AperFunction,EtchedComponent*%
%ADD11C,0.500000*%
%TD*%
%TA.AperFunction,EtchedComponent*%
%ADD12C,0.250000*%
%TD*%
%TA.AperFunction,SMDPad,CuDef*%
%ADD13C,0.100000*%
%TD*%
%TA.AperFunction,SMDPad,CuDef*%
%ADD14R,0.500000X4.000000*%
%TD*%
%TA.AperFunction,SMDPad,CuDef*%
%ADD15R,0.600000X1.100000*%
%TD*%
%TA.AperFunction,SMDPad,CuDef*%
%ADD16R,1.425000X3.700000*%
%TD*%
%TA.AperFunction,SMDPad,CuDef*%
%ADD17R,2.000000X0.900000*%
%TD*%
%TA.AperFunction,SMDPad,CuDef*%
%ADD18R,0.900000X2.000000*%
%TD*%
%TA.AperFunction,SMDPad,CuDef*%
%ADD19R,5.000000X5.000000*%
%TD*%
%TA.AperFunction,ComponentPad*%
%ADD20C,0.350000*%
%TD*%
%TA.AperFunction,SMDPad,CuDef*%
%ADD21R,0.200000X0.200000*%
%TD*%
%TA.AperFunction,SMDPad,CuDef*%
%ADD22C,0.500000*%
%TD*%
%TA.AperFunction,ComponentPad*%
%ADD23C,2.000000*%
%TD*%
%TA.AperFunction,ComponentPad*%
%ADD24R,2.000000X2.000000*%
%TD*%
%TA.AperFunction,ComponentPad*%
%ADD25C,1.700000*%
%TD*%
%TA.AperFunction,ComponentPad*%
%ADD26C,5.000000*%
%TD*%
%TA.AperFunction,ComponentPad*%
%ADD27O,1.700000X1.850000*%
%TD*%
%TA.AperFunction,SMDPad,CuDef*%
%ADD28R,0.200000X0.500000*%
%TD*%
%TA.AperFunction,SMDPad,CuDef*%
%ADD29R,0.600000X1.140000*%
%TD*%
%TA.AperFunction,SMDPad,CuDef*%
%ADD30R,0.300000X1.140000*%
%TD*%
%TA.AperFunction,ComponentPad*%
%ADD31C,0.600000*%
%TD*%
%TA.AperFunction,ViaPad*%
%ADD32C,0.800000*%
%TD*%
%TA.AperFunction,Conductor*%
%ADD33C,0.250000*%
%TD*%
%TA.AperFunction,Conductor*%
%ADD34C,0.500000*%
%TD*%
%TA.AperFunction,Conductor*%
%ADD35C,0.254000*%
%TD*%
%TA.AperFunction,Conductor*%
%ADD36C,0.100000*%
%TD*%
G04 APERTURE END LIST*
D10*
X131878571Y-89585714D02*
X132878571Y-89300000D01*
X132164285Y-89014285D01*
X132878571Y-88728571D01*
X131878571Y-88442857D01*
X131878571Y-88014285D02*
X132878571Y-87728571D01*
X132164285Y-87442857D01*
X132878571Y-87157142D01*
X131878571Y-86871428D01*
X131878571Y-86442857D02*
X132878571Y-86157142D01*
X132164285Y-85871428D01*
X132878571Y-85585714D01*
X131878571Y-85300000D01*
X132735714Y-84728571D02*
X132807142Y-84657142D01*
X132878571Y-84728571D01*
X132807142Y-84800000D01*
X132735714Y-84728571D01*
X132878571Y-84728571D01*
X132878571Y-84014285D02*
X131878571Y-84014285D01*
X132021428Y-84014285D02*
X131950000Y-83942857D01*
X131878571Y-83800000D01*
X131878571Y-83585714D01*
X131950000Y-83442857D01*
X132092857Y-83371428D01*
X132878571Y-83371428D01*
X132092857Y-83371428D02*
X131950000Y-83300000D01*
X131878571Y-83157142D01*
X131878571Y-82942857D01*
X131950000Y-82800000D01*
X132092857Y-82728571D01*
X132878571Y-82728571D01*
X132807142Y-81442857D02*
X132878571Y-81585714D01*
X132878571Y-81871428D01*
X132807142Y-82014285D01*
X132664285Y-82085714D01*
X132092857Y-82085714D01*
X131950000Y-82014285D01*
X131878571Y-81871428D01*
X131878571Y-81585714D01*
X131950000Y-81442857D01*
X132092857Y-81371428D01*
X132235714Y-81371428D01*
X132378571Y-82085714D01*
X132735714Y-80728571D02*
X132807142Y-80657142D01*
X132878571Y-80728571D01*
X132807142Y-80800000D01*
X132735714Y-80728571D01*
X132878571Y-80728571D01*
X131878571Y-79371428D02*
X132878571Y-79371428D01*
X131878571Y-80014285D02*
X132664285Y-80014285D01*
X132807142Y-79942857D01*
X132878571Y-79800000D01*
X132878571Y-79585714D01*
X132807142Y-79442857D01*
X132735714Y-79371428D01*
X132878571Y-78657142D02*
X131378571Y-78657142D01*
X132307142Y-78514285D02*
X132878571Y-78085714D01*
X131878571Y-78085714D02*
X132450000Y-78657142D01*
D11*
%TO.C,Reg1*%
X98375000Y-81050000D02*
X98375000Y-79850000D01*
X98375000Y-79850000D02*
X99875000Y-79850000D01*
D12*
X95525000Y-78950000D02*
X98025000Y-78950000D01*
X95425000Y-78050000D02*
X98025000Y-78050000D01*
X97495000Y-75580000D02*
X101115000Y-75580043D01*
X98025000Y-78950000D02*
G75*
G02*
X98375000Y-79300000I0J-350000D01*
G01*
X98375000Y-77700000D02*
G75*
G02*
X98025000Y-78050000I-350000J0D01*
G01*
X96475000Y-76600000D02*
G75*
G02*
X97495000Y-75580000I1020000J0D01*
G01*
X101115000Y-75580043D02*
G75*
G02*
X102235000Y-76700000I0J-1120000D01*
G01*
%TO.C,Logo2*%
X129500000Y-73200000D02*
X131600000Y-71400000D01*
X127500000Y-71400000D02*
X129500000Y-73200000D01*
X127400000Y-73200000D02*
X131600000Y-76200000D01*
X127400000Y-73200000D02*
X131600000Y-73200000D01*
X129500000Y-73200000D02*
X129500000Y-74700000D01*
X131600000Y-73200000D02*
G75*
G02*
X131600000Y-74700000I0J-750000D01*
G01*
%TD*%
%TO.P,R10,2*%
%TO.N,Net-(D1-Pad2)*%
%TA.AperFunction,SMDPad,CuDef*%
G36*
G01*
X132425000Y-91775000D02*
X132425000Y-91225000D01*
G75*
G02*
X132625000Y-91025000I200000J0D01*
G01*
X133025000Y-91025000D01*
G75*
G02*
X133225000Y-91225000I0J-200000D01*
G01*
X133225000Y-91775000D01*
G75*
G02*
X133025000Y-91975000I-200000J0D01*
G01*
X132625000Y-91975000D01*
G75*
G02*
X132425000Y-91775000I0J200000D01*
G01*
G37*
%TD.AperFunction*%
%TO.P,R10,1*%
%TO.N,+3V3*%
%TA.AperFunction,SMDPad,CuDef*%
G36*
G01*
X130775000Y-91775000D02*
X130775000Y-91225000D01*
G75*
G02*
X130975000Y-91025000I200000J0D01*
G01*
X131375000Y-91025000D01*
G75*
G02*
X131575000Y-91225000I0J-200000D01*
G01*
X131575000Y-91775000D01*
G75*
G02*
X131375000Y-91975000I-200000J0D01*
G01*
X130975000Y-91975000D01*
G75*
G02*
X130775000Y-91775000I0J200000D01*
G01*
G37*
%TD.AperFunction*%
%TD*%
%TO.P,D1,2*%
%TO.N,Net-(D1-Pad2)*%
%TA.AperFunction,SMDPad,CuDef*%
G36*
G01*
X132350000Y-93256250D02*
X132350000Y-92743750D01*
G75*
G02*
X132568750Y-92525000I218750J0D01*
G01*
X133006250Y-92525000D01*
G75*
G02*
X133225000Y-92743750I0J-218750D01*
G01*
X133225000Y-93256250D01*
G75*
G02*
X133006250Y-93475000I-218750J0D01*
G01*
X132568750Y-93475000D01*
G75*
G02*
X132350000Y-93256250I0J218750D01*
G01*
G37*
%TD.AperFunction*%
%TO.P,D1,1*%
%TO.N,Net-(D1-Pad1)*%
%TA.AperFunction,SMDPad,CuDef*%
G36*
G01*
X130775000Y-93256250D02*
X130775000Y-92743750D01*
G75*
G02*
X130993750Y-92525000I218750J0D01*
G01*
X131431250Y-92525000D01*
G75*
G02*
X131650000Y-92743750I0J-218750D01*
G01*
X131650000Y-93256250D01*
G75*
G02*
X131431250Y-93475000I-218750J0D01*
G01*
X130993750Y-93475000D01*
G75*
G02*
X130775000Y-93256250I0J218750D01*
G01*
G37*
%TD.AperFunction*%
%TD*%
%TA.AperFunction,SMDPad,CuDef*%
D13*
%TO.P,Reg1,2*%
%TO.N,Net-(J1-PadA4)*%
G36*
X97378956Y-79800389D02*
G01*
X97403247Y-79802943D01*
X97427173Y-79807854D01*
X97450506Y-79815076D01*
X97473022Y-79824542D01*
X97494508Y-79836159D01*
X97514756Y-79849818D01*
X97533576Y-79865387D01*
X97550787Y-79882717D01*
X97566224Y-79901646D01*
X97579740Y-79921990D01*
X97591207Y-79943556D01*
X97600515Y-79966137D01*
X97607574Y-79989520D01*
X97612318Y-80013480D01*
X97614702Y-80037788D01*
X97614702Y-80062213D01*
X97609929Y-80159776D01*
X97609929Y-80159795D01*
X97609927Y-80159817D01*
X97609734Y-80163282D01*
X97608566Y-80173698D01*
X97607545Y-80184103D01*
X97593273Y-80280754D01*
X97592739Y-80284204D01*
X97590564Y-80294436D01*
X97588529Y-80304715D01*
X97564893Y-80399513D01*
X97564025Y-80402894D01*
X97560863Y-80412859D01*
X97557834Y-80422894D01*
X97525061Y-80514932D01*
X97523867Y-80518213D01*
X97519739Y-80527844D01*
X97515754Y-80537513D01*
X97474156Y-80625915D01*
X97472647Y-80629064D01*
X97467589Y-80638264D01*
X97462687Y-80647484D01*
X97412660Y-80731404D01*
X97410852Y-80734390D01*
X97404914Y-80743062D01*
X97399143Y-80751748D01*
X97341176Y-80830371D01*
X97341169Y-80830382D01*
X97341160Y-80830393D01*
X97339076Y-80833181D01*
X97332341Y-80841207D01*
X97325731Y-80849311D01*
X97260365Y-80921908D01*
X97260357Y-80921917D01*
X97260347Y-80921927D01*
X97258005Y-80924494D01*
X97250494Y-80931849D01*
X97243146Y-80939248D01*
X97171010Y-81005117D01*
X97171001Y-81005126D01*
X97170990Y-81005135D01*
X97168405Y-81007463D01*
X97160263Y-81014009D01*
X97152181Y-81020695D01*
X97073950Y-81079220D01*
X97071140Y-81081292D01*
X97062368Y-81087032D01*
X97053700Y-81092879D01*
X96970140Y-81143484D01*
X96970131Y-81143490D01*
X96970120Y-81143496D01*
X96967132Y-81145278D01*
X96957842Y-81150134D01*
X96948645Y-81155107D01*
X96860553Y-81197313D01*
X96860537Y-81197322D01*
X96860517Y-81197330D01*
X96857378Y-81198808D01*
X96847671Y-81202730D01*
X96838020Y-81206786D01*
X96746219Y-81240198D01*
X96746213Y-81240201D01*
X96746205Y-81240203D01*
X96742923Y-81241373D01*
X96732875Y-81244330D01*
X96722880Y-81247424D01*
X96628251Y-81271721D01*
X96624864Y-81272566D01*
X96614553Y-81274533D01*
X96604325Y-81276632D01*
X96507775Y-81291579D01*
X96504322Y-81292089D01*
X96493875Y-81293040D01*
X96483484Y-81294132D01*
X96385937Y-81299586D01*
X96382450Y-81299757D01*
X96377646Y-81299723D01*
X96372840Y-81299975D01*
X96365859Y-81299999D01*
X96362368Y-81299987D01*
X96337987Y-81298536D01*
X96313863Y-81294714D01*
X96290228Y-81288556D01*
X96267306Y-81280121D01*
X96245316Y-81269490D01*
X96224468Y-81256762D01*
X96204962Y-81242062D01*
X96186984Y-81225529D01*
X96170706Y-81207320D01*
X96156281Y-81187609D01*
X96143848Y-81166585D01*
X96133527Y-81144448D01*
X96125416Y-81121409D01*
X96119590Y-81097689D01*
X96116108Y-81073514D01*
X96115001Y-81049114D01*
X96116282Y-81024723D01*
X96119935Y-81000573D01*
X96125927Y-80976894D01*
X96134202Y-80953914D01*
X96144681Y-80931851D01*
X96157262Y-80910915D01*
X96171825Y-80891307D01*
X96188232Y-80873214D01*
X96206328Y-80856808D01*
X96225937Y-80842247D01*
X96246874Y-80829668D01*
X96268938Y-80819192D01*
X96291920Y-80810920D01*
X96315598Y-80804929D01*
X96339749Y-80801278D01*
X96364141Y-80800001D01*
X96364580Y-80799999D01*
X96443362Y-80795595D01*
X96515744Y-80784389D01*
X96586700Y-80766171D01*
X96655527Y-80741119D01*
X96721585Y-80709469D01*
X96784224Y-80671534D01*
X96842879Y-80627653D01*
X96896968Y-80578264D01*
X96945975Y-80523835D01*
X96989445Y-80464873D01*
X97026944Y-80401969D01*
X97058133Y-80335689D01*
X97082703Y-80266687D01*
X97100424Y-80195613D01*
X97111123Y-80123155D01*
X97115299Y-80037786D01*
X97115493Y-80034301D01*
X97118216Y-80010029D01*
X97123294Y-79986137D01*
X97130680Y-79962856D01*
X97140302Y-79940406D01*
X97152068Y-79919003D01*
X97165869Y-79898849D01*
X97181568Y-79880139D01*
X97199019Y-79863050D01*
X97218054Y-79847745D01*
X97238492Y-79834371D01*
X97260138Y-79823055D01*
X97282784Y-79813905D01*
X97306216Y-79807010D01*
X97330208Y-79802432D01*
X97354532Y-79800219D01*
X97378956Y-79800389D01*
G37*
%TD.AperFunction*%
%TA.AperFunction,SMDPad,CuDef*%
%TO.P,Reg1,3*%
%TO.N,GND*%
G36*
X100878491Y-75900024D02*
G01*
X100882858Y-75900299D01*
X100887214Y-75900299D01*
X100931107Y-75902446D01*
X100931121Y-75902446D01*
X100931137Y-75902448D01*
X100934613Y-75902641D01*
X100945056Y-75903813D01*
X100955430Y-75904830D01*
X100998919Y-75911251D01*
X100998925Y-75911252D01*
X100998932Y-75911253D01*
X101002374Y-75911785D01*
X101012668Y-75913973D01*
X101022885Y-75915996D01*
X101065528Y-75926628D01*
X101065543Y-75926631D01*
X101065559Y-75926636D01*
X101068926Y-75927500D01*
X101078902Y-75930665D01*
X101088925Y-75933691D01*
X101130343Y-75948439D01*
X101130349Y-75948441D01*
X101130353Y-75948443D01*
X101133624Y-75949633D01*
X101143236Y-75953753D01*
X101152931Y-75957749D01*
X101192712Y-75976469D01*
X101195860Y-75977978D01*
X101205028Y-75983018D01*
X101214269Y-75987932D01*
X101252033Y-76010443D01*
X101255019Y-76012251D01*
X101263676Y-76018178D01*
X101272382Y-76023963D01*
X101307751Y-76050039D01*
X101307768Y-76050051D01*
X101307786Y-76050066D01*
X101310565Y-76052144D01*
X101318575Y-76058865D01*
X101326696Y-76065489D01*
X101359368Y-76094907D01*
X101361946Y-76097261D01*
X101369260Y-76104730D01*
X101376698Y-76112116D01*
X101406333Y-76144571D01*
X101406345Y-76144583D01*
X101406357Y-76144598D01*
X101408680Y-76147176D01*
X101415243Y-76155339D01*
X101421914Y-76163403D01*
X101448250Y-76198607D01*
X101450322Y-76201417D01*
X101456058Y-76210184D01*
X101461908Y-76218856D01*
X101484683Y-76256462D01*
X101486471Y-76259461D01*
X101491307Y-76268712D01*
X101496302Y-76277950D01*
X101515298Y-76317600D01*
X101516784Y-76320758D01*
X101520704Y-76330461D01*
X101524761Y-76340111D01*
X101539791Y-76381406D01*
X101539798Y-76381424D01*
X101539805Y-76381445D01*
X101540969Y-76384713D01*
X101543932Y-76394782D01*
X101547020Y-76404757D01*
X101557951Y-76447328D01*
X101557955Y-76447342D01*
X101557958Y-76447359D01*
X101558799Y-76450728D01*
X101560761Y-76461014D01*
X101562866Y-76471268D01*
X101569592Y-76514716D01*
X101570102Y-76518169D01*
X101571053Y-76528620D01*
X101572145Y-76539008D01*
X101574599Y-76582904D01*
X101574770Y-76586391D01*
X101574736Y-76591199D01*
X101574987Y-76595983D01*
X101574998Y-76599125D01*
X101574996Y-76599909D01*
X101575000Y-76600000D01*
X101575000Y-81400000D01*
X101574976Y-81403491D01*
X101573442Y-81427867D01*
X101569537Y-81451978D01*
X101563298Y-81475592D01*
X101554784Y-81498485D01*
X101544077Y-81520438D01*
X101531278Y-81541242D01*
X101516511Y-81560697D01*
X101499916Y-81578618D01*
X101481651Y-81594834D01*
X101461891Y-81609191D01*
X101440824Y-81621551D01*
X101437500Y-81623087D01*
X101437500Y-82750000D01*
X102925000Y-82750000D01*
X102928491Y-82750024D01*
X102952867Y-82751558D01*
X102976978Y-82755463D01*
X103000592Y-82761702D01*
X103023485Y-82770216D01*
X103045438Y-82780923D01*
X103066242Y-82793722D01*
X103085697Y-82808489D01*
X103103618Y-82825084D01*
X103119834Y-82843349D01*
X103134191Y-82863109D01*
X103146551Y-82884176D01*
X103156796Y-82906348D01*
X103164828Y-82929415D01*
X103170572Y-82953155D01*
X103173971Y-82977342D01*
X103174994Y-83001745D01*
X103173630Y-83026132D01*
X103169894Y-83050269D01*
X103163820Y-83073927D01*
X103155466Y-83096879D01*
X103144912Y-83118906D01*
X103132259Y-83139798D01*
X103117628Y-83159356D01*
X103101159Y-83177393D01*
X103083007Y-83193736D01*
X103063348Y-83208230D01*
X103042368Y-83220737D01*
X103020268Y-83231137D01*
X102997258Y-83239330D01*
X102973559Y-83245239D01*
X102949396Y-83248807D01*
X102925000Y-83250000D01*
X96325000Y-83250000D01*
X96321509Y-83249976D01*
X96297133Y-83248442D01*
X96273022Y-83244537D01*
X96249408Y-83238298D01*
X96226515Y-83229784D01*
X96204562Y-83219077D01*
X96183758Y-83206278D01*
X96164303Y-83191511D01*
X96146382Y-83174916D01*
X96130166Y-83156651D01*
X96115809Y-83136891D01*
X96103449Y-83115824D01*
X96093204Y-83093652D01*
X96085172Y-83070585D01*
X96079428Y-83046845D01*
X96076029Y-83022658D01*
X96075006Y-82998255D01*
X96076370Y-82973868D01*
X96080106Y-82949731D01*
X96086180Y-82926073D01*
X96094534Y-82903121D01*
X96105088Y-82881094D01*
X96117741Y-82860202D01*
X96132372Y-82840644D01*
X96148841Y-82822607D01*
X96166993Y-82806264D01*
X96186652Y-82791770D01*
X96207632Y-82779263D01*
X96229732Y-82768863D01*
X96252742Y-82760670D01*
X96276441Y-82754761D01*
X96300604Y-82751193D01*
X96325000Y-82750000D01*
X100937500Y-82750000D01*
X100937500Y-81400000D01*
X100937524Y-81396509D01*
X100939058Y-81372133D01*
X100942963Y-81348022D01*
X100949202Y-81324408D01*
X100957716Y-81301515D01*
X100968423Y-81279562D01*
X100981222Y-81258758D01*
X100995989Y-81239303D01*
X101012584Y-81221382D01*
X101030849Y-81205166D01*
X101050609Y-81190809D01*
X101071676Y-81178449D01*
X101075000Y-81176913D01*
X101075000Y-76604033D01*
X101073608Y-76579127D01*
X101070622Y-76559842D01*
X101065772Y-76540954D01*
X101059095Y-76522608D01*
X101050664Y-76505013D01*
X101040560Y-76488329D01*
X101028874Y-76472708D01*
X101015715Y-76458297D01*
X101001212Y-76445239D01*
X100985516Y-76433666D01*
X100968757Y-76423676D01*
X100951099Y-76415367D01*
X100932720Y-76408822D01*
X100913793Y-76404103D01*
X100894485Y-76401252D01*
X100868899Y-76400000D01*
X97879033Y-76400000D01*
X97854127Y-76401392D01*
X97834842Y-76404378D01*
X97815954Y-76409228D01*
X97797608Y-76415905D01*
X97780013Y-76424336D01*
X97763329Y-76434440D01*
X97747708Y-76446126D01*
X97733297Y-76459285D01*
X97720239Y-76473788D01*
X97708666Y-76489484D01*
X97698676Y-76506243D01*
X97690367Y-76523901D01*
X97683822Y-76542280D01*
X97679103Y-76561207D01*
X97676252Y-76580515D01*
X97675000Y-76606101D01*
X97675000Y-77100000D01*
X97674976Y-77103491D01*
X97673442Y-77127867D01*
X97669537Y-77151978D01*
X97663298Y-77175592D01*
X97654784Y-77198485D01*
X97644077Y-77220438D01*
X97631278Y-77241242D01*
X97616511Y-77260697D01*
X97599916Y-77278618D01*
X97581651Y-77294834D01*
X97561891Y-77309191D01*
X97540824Y-77321551D01*
X97518652Y-77331796D01*
X97495585Y-77339828D01*
X97471845Y-77345572D01*
X97447658Y-77348971D01*
X97423255Y-77349994D01*
X97398868Y-77348630D01*
X97374731Y-77344894D01*
X97351073Y-77338820D01*
X97328121Y-77330466D01*
X97306094Y-77319912D01*
X97285202Y-77307259D01*
X97265644Y-77292628D01*
X97247607Y-77276159D01*
X97231264Y-77258007D01*
X97216770Y-77238348D01*
X97204263Y-77217368D01*
X97193863Y-77195268D01*
X97185670Y-77172258D01*
X97179761Y-77148559D01*
X97176193Y-77124396D01*
X97175000Y-77100000D01*
X97175000Y-76600000D01*
X97175024Y-76596509D01*
X97175299Y-76592142D01*
X97175299Y-76587786D01*
X97177446Y-76543893D01*
X97177446Y-76543879D01*
X97177448Y-76543863D01*
X97177641Y-76540387D01*
X97178813Y-76529944D01*
X97179830Y-76519570D01*
X97186252Y-76476077D01*
X97186785Y-76472626D01*
X97188973Y-76462332D01*
X97190996Y-76452115D01*
X97201628Y-76409472D01*
X97201631Y-76409457D01*
X97201636Y-76409441D01*
X97202500Y-76406074D01*
X97205665Y-76396098D01*
X97208691Y-76386075D01*
X97223439Y-76344657D01*
X97224633Y-76341376D01*
X97228753Y-76331764D01*
X97232749Y-76322069D01*
X97251469Y-76282288D01*
X97252978Y-76279140D01*
X97258018Y-76269972D01*
X97262932Y-76260731D01*
X97285443Y-76222967D01*
X97287251Y-76219981D01*
X97293178Y-76211324D01*
X97298963Y-76202618D01*
X97325039Y-76167249D01*
X97325051Y-76167232D01*
X97325066Y-76167214D01*
X97327144Y-76164435D01*
X97333865Y-76156425D01*
X97340489Y-76148304D01*
X97369907Y-76115632D01*
X97372261Y-76113054D01*
X97379730Y-76105740D01*
X97387116Y-76098302D01*
X97419571Y-76068667D01*
X97419583Y-76068655D01*
X97419598Y-76068643D01*
X97422176Y-76066320D01*
X97430339Y-76059757D01*
X97438403Y-76053086D01*
X97473607Y-76026750D01*
X97476417Y-76024678D01*
X97485184Y-76018942D01*
X97493856Y-76013092D01*
X97531462Y-75990317D01*
X97534461Y-75988529D01*
X97543712Y-75983693D01*
X97552950Y-75978698D01*
X97592600Y-75959702D01*
X97595758Y-75958216D01*
X97605461Y-75954296D01*
X97615111Y-75950239D01*
X97656406Y-75935209D01*
X97656424Y-75935202D01*
X97656445Y-75935195D01*
X97659713Y-75934031D01*
X97669782Y-75931068D01*
X97679757Y-75927980D01*
X97722328Y-75917049D01*
X97722342Y-75917045D01*
X97722359Y-75917042D01*
X97725728Y-75916201D01*
X97736014Y-75914239D01*
X97746268Y-75912134D01*
X97789716Y-75905408D01*
X97793169Y-75904898D01*
X97803620Y-75903947D01*
X97814008Y-75902855D01*
X97857904Y-75900401D01*
X97861391Y-75900230D01*
X97866199Y-75900264D01*
X97870983Y-75900013D01*
X97874125Y-75900002D01*
X97874909Y-75900004D01*
X97875000Y-75900000D01*
X100875000Y-75900000D01*
X100878491Y-75900024D01*
G37*
%TD.AperFunction*%
D14*
%TO.P,Reg1,4*%
%TO.N,+3V3*%
X102825000Y-79300000D03*
D15*
%TO.P,Reg1,~*%
%TO.N,N/C*%
X98375000Y-77150000D03*
X96475000Y-77150000D03*
%TO.P,Reg1,3*%
%TO.N,GND*%
X97425000Y-77150000D03*
%TO.P,Reg1,1*%
%TO.N,Net-(J1-PadA4)*%
X96475000Y-79850000D03*
%TO.P,Reg1,2*%
X97425000Y-79850000D03*
%TO.P,Reg1,~*%
%TO.N,N/C*%
X98375000Y-79850000D03*
%TO.P,Reg1,4*%
%TO.N,+3V3*%
%TA.AperFunction,SMDPad,CuDef*%
G36*
G01*
X102350000Y-80600000D02*
X103300000Y-80600000D01*
G75*
G02*
X103550000Y-80850000I0J-250000D01*
G01*
X103550000Y-81350000D01*
G75*
G02*
X103300000Y-81600000I-250000J0D01*
G01*
X102350000Y-81600000D01*
G75*
G02*
X102100000Y-81350000I0J250000D01*
G01*
X102100000Y-80850000D01*
G75*
G02*
X102350000Y-80600000I250000J0D01*
G01*
G37*
%TD.AperFunction*%
%TO.P,Reg1,3*%
%TO.N,GND*%
%TA.AperFunction,SMDPad,CuDef*%
G36*
G01*
X102350000Y-82500000D02*
X103300000Y-82500000D01*
G75*
G02*
X103550000Y-82750000I0J-250000D01*
G01*
X103550000Y-83250000D01*
G75*
G02*
X103300000Y-83500000I-250000J0D01*
G01*
X102350000Y-83500000D01*
G75*
G02*
X102100000Y-83250000I0J250000D01*
G01*
X102100000Y-82750000D01*
G75*
G02*
X102350000Y-82500000I250000J0D01*
G01*
G37*
%TD.AperFunction*%
%TA.AperFunction,SMDPad,CuDef*%
G36*
G01*
X96100000Y-82500000D02*
X97050000Y-82500000D01*
G75*
G02*
X97300000Y-82750000I0J-250000D01*
G01*
X97300000Y-83250000D01*
G75*
G02*
X97050000Y-83500000I-250000J0D01*
G01*
X96100000Y-83500000D01*
G75*
G02*
X95850000Y-83250000I0J250000D01*
G01*
X95850000Y-82750000D01*
G75*
G02*
X96100000Y-82500000I250000J0D01*
G01*
G37*
%TD.AperFunction*%
%TO.P,Reg1,2*%
%TO.N,Net-(J1-PadA4)*%
%TA.AperFunction,SMDPad,CuDef*%
G36*
G01*
X96100000Y-80600000D02*
X97050000Y-80600000D01*
G75*
G02*
X97300000Y-80850000I0J-250000D01*
G01*
X97300000Y-81350000D01*
G75*
G02*
X97050000Y-81600000I-250000J0D01*
G01*
X96100000Y-81600000D01*
G75*
G02*
X95850000Y-81350000I0J250000D01*
G01*
X95850000Y-80850000D01*
G75*
G02*
X96100000Y-80600000I250000J0D01*
G01*
G37*
%TD.AperFunction*%
%TO.P,Reg1,~*%
%TO.N,N/C*%
%TA.AperFunction,SMDPad,CuDef*%
G36*
G01*
X95575000Y-78175000D02*
X95075000Y-78175000D01*
G75*
G02*
X94850000Y-77950000I0J225000D01*
G01*
X94850000Y-77500000D01*
G75*
G02*
X95075000Y-77275000I225000J0D01*
G01*
X95575000Y-77275000D01*
G75*
G02*
X95800000Y-77500000I0J-225000D01*
G01*
X95800000Y-77950000D01*
G75*
G02*
X95575000Y-78175000I-225000J0D01*
G01*
G37*
%TD.AperFunction*%
%TA.AperFunction,SMDPad,CuDef*%
G36*
G01*
X95575000Y-79725000D02*
X95075000Y-79725000D01*
G75*
G02*
X94850000Y-79500000I0J225000D01*
G01*
X94850000Y-79050000D01*
G75*
G02*
X95075000Y-78825000I225000J0D01*
G01*
X95575000Y-78825000D01*
G75*
G02*
X95800000Y-79050000I0J-225000D01*
G01*
X95800000Y-79500000D01*
G75*
G02*
X95575000Y-79725000I-225000J0D01*
G01*
G37*
%TD.AperFunction*%
%TA.AperFunction,SMDPad,CuDef*%
G36*
G01*
X97500000Y-82295626D02*
X97500000Y-81044374D01*
G75*
G02*
X97749374Y-80795000I249374J0D01*
G01*
X98675626Y-80795000D01*
G75*
G02*
X98925000Y-81044374I0J-249374D01*
G01*
X98925000Y-82295626D01*
G75*
G02*
X98675626Y-82545000I-249374J0D01*
G01*
X97749374Y-82545000D01*
G75*
G02*
X97500000Y-82295626I0J249374D01*
G01*
G37*
%TD.AperFunction*%
%TO.P,Reg1,3*%
%TO.N,GND*%
%TA.AperFunction,SMDPad,CuDef*%
G36*
G01*
X100475000Y-82295626D02*
X100475000Y-81044374D01*
G75*
G02*
X100724374Y-80795000I249374J0D01*
G01*
X101650626Y-80795000D01*
G75*
G02*
X101900000Y-81044374I0J-249374D01*
G01*
X101900000Y-82295626D01*
G75*
G02*
X101650626Y-82545000I-249374J0D01*
G01*
X100724374Y-82545000D01*
G75*
G02*
X100475000Y-82295626I0J249374D01*
G01*
G37*
%TD.AperFunction*%
D16*
%TO.P,Reg1,4*%
%TO.N,+3V3*%
X102825000Y-78550000D03*
%TO.P,Reg1,~*%
%TO.N,N/C*%
X99825000Y-78550000D03*
%TD*%
D17*
%TO.P,U2,38*%
%TO.N,GND*%
X123750000Y-70745000D03*
%TO.P,U2,37*%
%TO.N,OLED-MOSI*%
X123750000Y-72015000D03*
%TO.P,U2,36*%
%TO.N,IO7*%
X123750000Y-73285000D03*
%TO.P,U2,35*%
%TO.N,Net-(U1-Pad1)*%
X123750000Y-74555000D03*
%TO.P,U2,34*%
%TO.N,Net-(U1-Pad17)*%
X123750000Y-75825000D03*
%TO.P,U2,33*%
%TO.N,OLED-DC*%
X123750000Y-77095000D03*
%TO.P,U2,32*%
%TO.N,Net-(U2-Pad32)*%
X123750000Y-78365000D03*
%TO.P,U2,31*%
%TO.N,OLED-RST*%
X123750000Y-79635000D03*
%TO.P,U2,30*%
%TO.N,OLED-SCLK*%
X123750000Y-80905000D03*
%TO.P,U2,29*%
%TO.N,OLED-CS0*%
X123750000Y-82175000D03*
%TO.P,U2,28*%
%TO.N,IO3*%
X123750000Y-83445000D03*
%TO.P,U2,27*%
%TO.N,IO2*%
X123750000Y-84715000D03*
%TO.P,U2,26*%
%TO.N,IO1*%
X123750000Y-85985000D03*
%TO.P,U2,25*%
%TO.N,Net-(U1-Pad18)*%
X123750000Y-87255000D03*
D18*
%TO.P,U2,24*%
%TO.N,Net-(D1-Pad1)*%
X120965000Y-88255000D03*
%TO.P,U2,23*%
%TO.N,Net-(U2-Pad23)*%
X119695000Y-88255000D03*
%TO.P,U2,22*%
%TO.N,Net-(U2-Pad22)*%
X118425000Y-88255000D03*
%TO.P,U2,21*%
%TO.N,Net-(U2-Pad21)*%
X117155000Y-88255000D03*
%TO.P,U2,20*%
%TO.N,Net-(U2-Pad20)*%
X115885000Y-88255000D03*
%TO.P,U2,19*%
%TO.N,Net-(U2-Pad19)*%
X114615000Y-88255000D03*
%TO.P,U2,18*%
%TO.N,Net-(U2-Pad18)*%
X113345000Y-88255000D03*
%TO.P,U2,17*%
%TO.N,Net-(U2-Pad17)*%
X112075000Y-88255000D03*
%TO.P,U2,16*%
%TO.N,IO5*%
X110805000Y-88255000D03*
%TO.P,U2,15*%
%TO.N,GND*%
X109535000Y-88255000D03*
D17*
%TO.P,U2,14*%
%TO.N,Net-(U2-Pad14)*%
X106750000Y-87255000D03*
%TO.P,U2,13*%
%TO.N,IO4*%
X106750000Y-85985000D03*
%TO.P,U2,12*%
%TO.N,IO6*%
X106750000Y-84715000D03*
%TO.P,U2,11*%
%TO.N,CO2-SCL*%
X106750000Y-83445000D03*
%TO.P,U2,10*%
%TO.N,CO2-SDA*%
X106750000Y-82175000D03*
%TO.P,U2,9*%
%TO.N,Net-(U2-Pad9)*%
X106750000Y-80905000D03*
%TO.P,U2,8*%
%TO.N,Net-(U2-Pad8)*%
X106750000Y-79635000D03*
%TO.P,U2,7*%
%TO.N,Net-(U2-Pad7)*%
X106750000Y-78365000D03*
%TO.P,U2,6*%
%TO.N,Net-(U2-Pad6)*%
X106750000Y-77095000D03*
%TO.P,U2,5*%
%TO.N,Net-(U2-Pad5)*%
X106750000Y-75825000D03*
%TO.P,U2,4*%
%TO.N,Net-(U2-Pad4)*%
X106750000Y-74555000D03*
%TO.P,U2,3*%
%TO.N,Net-(U1-Pad19)*%
X106750000Y-73285000D03*
%TO.P,U2,2*%
%TO.N,+3V3*%
X106750000Y-72015000D03*
%TO.P,U2,1*%
%TO.N,GND*%
X106750000Y-70745000D03*
D19*
%TO.P,U2,39*%
X114250000Y-78245000D03*
%TD*%
D20*
%TO.P,U1,21*%
%TO.N,GND*%
X99975000Y-88125000D03*
D21*
%TO.P,U1,~*%
%TO.N,N/C*%
X97975000Y-86125000D03*
X101975000Y-90125000D03*
X97975000Y-90125000D03*
X101975000Y-86125000D03*
D22*
X97975000Y-86125000D03*
%TA.AperFunction,SMDPad,CuDef*%
D13*
%TO.P,U1,21*%
%TO.N,GND*%
G36*
X100975000Y-89125000D02*
G01*
X98975000Y-89125000D01*
X98975000Y-87375000D01*
X99225000Y-87125000D01*
X100975000Y-87125000D01*
X100975000Y-89125000D01*
G37*
%TD.AperFunction*%
%TO.P,U1,20*%
%TO.N,+3V3*%
%TA.AperFunction,SMDPad,CuDef*%
G36*
G01*
X98850000Y-86562500D02*
X98850000Y-85687500D01*
G75*
G02*
X98912500Y-85625000I62500J0D01*
G01*
X99037500Y-85625000D01*
G75*
G02*
X99100000Y-85687500I0J-62500D01*
G01*
X99100000Y-86562500D01*
G75*
G02*
X99037500Y-86625000I-62500J0D01*
G01*
X98912500Y-86625000D01*
G75*
G02*
X98850000Y-86562500I0J62500D01*
G01*
G37*
%TD.AperFunction*%
%TO.P,U1,19*%
%TO.N,Net-(U1-Pad19)*%
%TA.AperFunction,SMDPad,CuDef*%
G36*
G01*
X99350000Y-86562500D02*
X99350000Y-85687500D01*
G75*
G02*
X99412500Y-85625000I62500J0D01*
G01*
X99537500Y-85625000D01*
G75*
G02*
X99600000Y-85687500I0J-62500D01*
G01*
X99600000Y-86562500D01*
G75*
G02*
X99537500Y-86625000I-62500J0D01*
G01*
X99412500Y-86625000D01*
G75*
G02*
X99350000Y-86562500I0J62500D01*
G01*
G37*
%TD.AperFunction*%
%TO.P,U1,18*%
%TO.N,Net-(U1-Pad18)*%
%TA.AperFunction,SMDPad,CuDef*%
G36*
G01*
X99850000Y-86562500D02*
X99850000Y-85687500D01*
G75*
G02*
X99912500Y-85625000I62500J0D01*
G01*
X100037500Y-85625000D01*
G75*
G02*
X100100000Y-85687500I0J-62500D01*
G01*
X100100000Y-86562500D01*
G75*
G02*
X100037500Y-86625000I-62500J0D01*
G01*
X99912500Y-86625000D01*
G75*
G02*
X99850000Y-86562500I0J62500D01*
G01*
G37*
%TD.AperFunction*%
%TO.P,U1,17*%
%TO.N,Net-(U1-Pad17)*%
%TA.AperFunction,SMDPad,CuDef*%
G36*
G01*
X100350000Y-86562500D02*
X100350000Y-85687500D01*
G75*
G02*
X100412500Y-85625000I62500J0D01*
G01*
X100537500Y-85625000D01*
G75*
G02*
X100600000Y-85687500I0J-62500D01*
G01*
X100600000Y-86562500D01*
G75*
G02*
X100537500Y-86625000I-62500J0D01*
G01*
X100412500Y-86625000D01*
G75*
G02*
X100350000Y-86562500I0J62500D01*
G01*
G37*
%TD.AperFunction*%
%TO.P,U1,16*%
%TO.N,Net-(U1-Pad16)*%
%TA.AperFunction,SMDPad,CuDef*%
G36*
G01*
X100850000Y-86562500D02*
X100850000Y-85687500D01*
G75*
G02*
X100912500Y-85625000I62500J0D01*
G01*
X101037500Y-85625000D01*
G75*
G02*
X101100000Y-85687500I0J-62500D01*
G01*
X101100000Y-86562500D01*
G75*
G02*
X101037500Y-86625000I-62500J0D01*
G01*
X100912500Y-86625000D01*
G75*
G02*
X100850000Y-86562500I0J62500D01*
G01*
G37*
%TD.AperFunction*%
%TO.P,U1,15*%
%TO.N,Net-(U1-Pad15)*%
%TA.AperFunction,SMDPad,CuDef*%
G36*
G01*
X101475000Y-87187500D02*
X101475000Y-87062500D01*
G75*
G02*
X101537500Y-87000000I62500J0D01*
G01*
X102412500Y-87000000D01*
G75*
G02*
X102475000Y-87062500I0J-62500D01*
G01*
X102475000Y-87187500D01*
G75*
G02*
X102412500Y-87250000I-62500J0D01*
G01*
X101537500Y-87250000D01*
G75*
G02*
X101475000Y-87187500I0J62500D01*
G01*
G37*
%TD.AperFunction*%
%TO.P,U1,14*%
%TO.N,Net-(U1-Pad14)*%
%TA.AperFunction,SMDPad,CuDef*%
G36*
G01*
X101475000Y-87687500D02*
X101475000Y-87562500D01*
G75*
G02*
X101537500Y-87500000I62500J0D01*
G01*
X102412500Y-87500000D01*
G75*
G02*
X102475000Y-87562500I0J-62500D01*
G01*
X102475000Y-87687500D01*
G75*
G02*
X102412500Y-87750000I-62500J0D01*
G01*
X101537500Y-87750000D01*
G75*
G02*
X101475000Y-87687500I0J62500D01*
G01*
G37*
%TD.AperFunction*%
%TO.P,U1,13*%
%TO.N,GND*%
%TA.AperFunction,SMDPad,CuDef*%
G36*
G01*
X101475000Y-88187500D02*
X101475000Y-88062500D01*
G75*
G02*
X101537500Y-88000000I62500J0D01*
G01*
X102412500Y-88000000D01*
G75*
G02*
X102475000Y-88062500I0J-62500D01*
G01*
X102475000Y-88187500D01*
G75*
G02*
X102412500Y-88250000I-62500J0D01*
G01*
X101537500Y-88250000D01*
G75*
G02*
X101475000Y-88187500I0J62500D01*
G01*
G37*
%TD.AperFunction*%
%TO.P,U1,12*%
%TO.N,+3V3*%
%TA.AperFunction,SMDPad,CuDef*%
G36*
G01*
X101475000Y-88687500D02*
X101475000Y-88562500D01*
G75*
G02*
X101537500Y-88500000I62500J0D01*
G01*
X102412500Y-88500000D01*
G75*
G02*
X102475000Y-88562500I0J-62500D01*
G01*
X102475000Y-88687500D01*
G75*
G02*
X102412500Y-88750000I-62500J0D01*
G01*
X101537500Y-88750000D01*
G75*
G02*
X101475000Y-88687500I0J62500D01*
G01*
G37*
%TD.AperFunction*%
%TO.P,U1,11*%
%TA.AperFunction,SMDPad,CuDef*%
G36*
G01*
X101475000Y-89187500D02*
X101475000Y-89062500D01*
G75*
G02*
X101537500Y-89000000I62500J0D01*
G01*
X102412500Y-89000000D01*
G75*
G02*
X102475000Y-89062500I0J-62500D01*
G01*
X102475000Y-89187500D01*
G75*
G02*
X102412500Y-89250000I-62500J0D01*
G01*
X101537500Y-89250000D01*
G75*
G02*
X101475000Y-89187500I0J62500D01*
G01*
G37*
%TD.AperFunction*%
%TO.P,U1,10*%
%TA.AperFunction,SMDPad,CuDef*%
G36*
G01*
X100850000Y-90562500D02*
X100850000Y-89687500D01*
G75*
G02*
X100912500Y-89625000I62500J0D01*
G01*
X101037500Y-89625000D01*
G75*
G02*
X101100000Y-89687500I0J-62500D01*
G01*
X101100000Y-90562500D01*
G75*
G02*
X101037500Y-90625000I-62500J0D01*
G01*
X100912500Y-90625000D01*
G75*
G02*
X100850000Y-90562500I0J62500D01*
G01*
G37*
%TD.AperFunction*%
%TO.P,U1,9*%
%TO.N,Net-(J1-PadA7)*%
%TA.AperFunction,SMDPad,CuDef*%
G36*
G01*
X100350000Y-90562500D02*
X100350000Y-89687500D01*
G75*
G02*
X100412500Y-89625000I62500J0D01*
G01*
X100537500Y-89625000D01*
G75*
G02*
X100600000Y-89687500I0J-62500D01*
G01*
X100600000Y-90562500D01*
G75*
G02*
X100537500Y-90625000I-62500J0D01*
G01*
X100412500Y-90625000D01*
G75*
G02*
X100350000Y-90562500I0J62500D01*
G01*
G37*
%TD.AperFunction*%
%TO.P,U1,8*%
%TO.N,Net-(J1-PadA6)*%
%TA.AperFunction,SMDPad,CuDef*%
G36*
G01*
X99850000Y-90562500D02*
X99850000Y-89687500D01*
G75*
G02*
X99912500Y-89625000I62500J0D01*
G01*
X100037500Y-89625000D01*
G75*
G02*
X100100000Y-89687500I0J-62500D01*
G01*
X100100000Y-90562500D01*
G75*
G02*
X100037500Y-90625000I-62500J0D01*
G01*
X99912500Y-90625000D01*
G75*
G02*
X99850000Y-90562500I0J62500D01*
G01*
G37*
%TD.AperFunction*%
%TO.P,U1,7*%
%TO.N,Net-(U1-Pad7)*%
%TA.AperFunction,SMDPad,CuDef*%
G36*
G01*
X99350000Y-90562500D02*
X99350000Y-89687500D01*
G75*
G02*
X99412500Y-89625000I62500J0D01*
G01*
X99537500Y-89625000D01*
G75*
G02*
X99600000Y-89687500I0J-62500D01*
G01*
X99600000Y-90562500D01*
G75*
G02*
X99537500Y-90625000I-62500J0D01*
G01*
X99412500Y-90625000D01*
G75*
G02*
X99350000Y-90562500I0J62500D01*
G01*
G37*
%TD.AperFunction*%
%TO.P,U1,6*%
%TO.N,GND*%
%TA.AperFunction,SMDPad,CuDef*%
G36*
G01*
X98850000Y-90562500D02*
X98850000Y-89687500D01*
G75*
G02*
X98912500Y-89625000I62500J0D01*
G01*
X99037500Y-89625000D01*
G75*
G02*
X99100000Y-89687500I0J-62500D01*
G01*
X99100000Y-90562500D01*
G75*
G02*
X99037500Y-90625000I-62500J0D01*
G01*
X98912500Y-90625000D01*
G75*
G02*
X98850000Y-90562500I0J62500D01*
G01*
G37*
%TD.AperFunction*%
%TO.P,U1,5*%
%TA.AperFunction,SMDPad,CuDef*%
G36*
G01*
X97475000Y-89187500D02*
X97475000Y-89062500D01*
G75*
G02*
X97537500Y-89000000I62500J0D01*
G01*
X98412500Y-89000000D01*
G75*
G02*
X98475000Y-89062500I0J-62500D01*
G01*
X98475000Y-89187500D01*
G75*
G02*
X98412500Y-89250000I-62500J0D01*
G01*
X97537500Y-89250000D01*
G75*
G02*
X97475000Y-89187500I0J62500D01*
G01*
G37*
%TD.AperFunction*%
%TO.P,U1,4*%
%TA.AperFunction,SMDPad,CuDef*%
G36*
G01*
X97475000Y-88687500D02*
X97475000Y-88562500D01*
G75*
G02*
X97537500Y-88500000I62500J0D01*
G01*
X98412500Y-88500000D01*
G75*
G02*
X98475000Y-88562500I0J-62500D01*
G01*
X98475000Y-88687500D01*
G75*
G02*
X98412500Y-88750000I-62500J0D01*
G01*
X97537500Y-88750000D01*
G75*
G02*
X97475000Y-88687500I0J62500D01*
G01*
G37*
%TD.AperFunction*%
%TO.P,U1,3*%
%TA.AperFunction,SMDPad,CuDef*%
G36*
G01*
X97475000Y-88187500D02*
X97475000Y-88062500D01*
G75*
G02*
X97537500Y-88000000I62500J0D01*
G01*
X98412500Y-88000000D01*
G75*
G02*
X98475000Y-88062500I0J-62500D01*
G01*
X98475000Y-88187500D01*
G75*
G02*
X98412500Y-88250000I-62500J0D01*
G01*
X97537500Y-88250000D01*
G75*
G02*
X97475000Y-88187500I0J62500D01*
G01*
G37*
%TD.AperFunction*%
%TO.P,U1,2*%
%TA.AperFunction,SMDPad,CuDef*%
G36*
G01*
X97475000Y-87687500D02*
X97475000Y-87562500D01*
G75*
G02*
X97537500Y-87500000I62500J0D01*
G01*
X98412500Y-87500000D01*
G75*
G02*
X98475000Y-87562500I0J-62500D01*
G01*
X98475000Y-87687500D01*
G75*
G02*
X98412500Y-87750000I-62500J0D01*
G01*
X97537500Y-87750000D01*
G75*
G02*
X97475000Y-87687500I0J62500D01*
G01*
G37*
%TD.AperFunction*%
%TO.P,U1,1*%
%TO.N,Net-(U1-Pad1)*%
%TA.AperFunction,SMDPad,CuDef*%
G36*
G01*
X97475000Y-87187500D02*
X97475000Y-87062500D01*
G75*
G02*
X97537500Y-87000000I62500J0D01*
G01*
X98412500Y-87000000D01*
G75*
G02*
X98475000Y-87062500I0J-62500D01*
G01*
X98475000Y-87187500D01*
G75*
G02*
X98412500Y-87250000I-62500J0D01*
G01*
X97537500Y-87250000D01*
G75*
G02*
X97475000Y-87187500I0J62500D01*
G01*
G37*
%TD.AperFunction*%
%TD*%
D23*
%TO.P,J2,2*%
%TO.N,Net-(J1-PadA4)*%
X108740000Y-96000000D03*
D24*
%TO.P,J2,1*%
%TO.N,GND*%
X106200000Y-96000000D03*
%TD*%
D25*
%TO.P,M3,4*%
%TO.N,CO2-SDA*%
X104220000Y-70800000D03*
%TO.P,M3,3*%
%TO.N,CO2-SCL*%
X101680000Y-70800000D03*
%TO.P,M3,2*%
%TO.N,GND*%
X99140000Y-70800000D03*
%TO.P,M3,1*%
%TO.N,+3V3*%
X96600000Y-70800000D03*
%TD*%
D26*
%TO.P,M2,S*%
%TO.N,GND*%
X92500000Y-65500000D03*
X92500000Y-97500000D03*
X132000000Y-97500000D03*
X132000000Y-65500000D03*
D25*
%TO.P,M2,7*%
%TO.N,OLED-RST*%
X92500000Y-89120000D03*
%TO.P,M2,6*%
%TO.N,OLED-DC*%
X92500000Y-86580000D03*
%TO.P,M2,5*%
%TO.N,OLED-CS0*%
X92500000Y-84040000D03*
%TO.P,M2,4*%
%TO.N,OLED-SCLK*%
X92500000Y-81500000D03*
%TO.P,M2,3*%
%TO.N,OLED-MOSI*%
X92500000Y-78960000D03*
%TO.P,M2,2*%
%TO.N,GND*%
X92500000Y-76420000D03*
%TO.P,M2,1*%
%TO.N,+3V3*%
X92500000Y-73880000D03*
%TD*%
D27*
%TO.P,J3,8*%
%TO.N,IO7*%
X126550000Y-93150000D03*
%TO.P,J3,7*%
%TO.N,IO6*%
X124050000Y-93150000D03*
%TO.P,J3,6*%
%TO.N,IO5*%
X121550000Y-93150000D03*
%TO.P,J3,5*%
%TO.N,IO4*%
X119050000Y-93150000D03*
%TO.P,J3,4*%
%TO.N,IO3*%
X116550000Y-93150000D03*
%TO.P,J3,3*%
%TO.N,IO2*%
X114050000Y-93150000D03*
%TO.P,J3,2*%
%TO.N,IO1*%
X111550000Y-93150000D03*
%TO.P,J3,1*%
%TO.N,GND*%
%TA.AperFunction,ComponentPad*%
G36*
G01*
X108200000Y-93825000D02*
X108200000Y-92475000D01*
G75*
G02*
X108450000Y-92225000I250000J0D01*
G01*
X109650000Y-92225000D01*
G75*
G02*
X109900000Y-92475000I0J-250000D01*
G01*
X109900000Y-93825000D01*
G75*
G02*
X109650000Y-94075000I-250000J0D01*
G01*
X108450000Y-94075000D01*
G75*
G02*
X108200000Y-93825000I0J250000D01*
G01*
G37*
%TD.AperFunction*%
%TD*%
D28*
%TO.P,J1,S1*%
%TO.N,GND*%
X103770000Y-94575000D03*
%TA.AperFunction,SMDPad,CuDef*%
D13*
G36*
X96563064Y-93010684D02*
G01*
X96575132Y-93012553D01*
X96586960Y-93015589D01*
X96598437Y-93019766D01*
X96609450Y-93025043D01*
X96619897Y-93031369D01*
X96629675Y-93038684D01*
X96638694Y-93046919D01*
X96646866Y-93055995D01*
X96654114Y-93065824D01*
X96660366Y-93076314D01*
X96665567Y-93087364D01*
X96669664Y-93098868D01*
X96672619Y-93110718D01*
X96674403Y-93122800D01*
X96675000Y-93134998D01*
X96674403Y-93147195D01*
X96672620Y-93159277D01*
X96669665Y-93171127D01*
X96665569Y-93182631D01*
X96660369Y-93193682D01*
X96654116Y-93204172D01*
X96646869Y-93214002D01*
X96638697Y-93223077D01*
X96629680Y-93231312D01*
X96619901Y-93238628D01*
X96609455Y-93244954D01*
X96598442Y-93250232D01*
X96586966Y-93254409D01*
X96575137Y-93257446D01*
X96563068Y-93259315D01*
X96550875Y-93259997D01*
X96538790Y-93260082D01*
X96439663Y-93266318D01*
X96344201Y-93281779D01*
X96250694Y-93306485D01*
X96160058Y-93340193D01*
X96073139Y-93382585D01*
X95990766Y-93433261D01*
X95913735Y-93491731D01*
X95842779Y-93557437D01*
X95778569Y-93629760D01*
X95721731Y-93707991D01*
X95672792Y-93791404D01*
X95632228Y-93879191D01*
X95600423Y-93970523D01*
X95577682Y-94064522D01*
X95571153Y-94110977D01*
X95576323Y-94193150D01*
X95626832Y-94505000D01*
X96751371Y-94505000D01*
X96735529Y-94253200D01*
X96735431Y-94251458D01*
X96735431Y-94248835D01*
X96735285Y-94246225D01*
X96735003Y-94205874D01*
X96735003Y-94204129D01*
X96735685Y-94191934D01*
X96737553Y-94179866D01*
X96740590Y-94168038D01*
X96744767Y-94156561D01*
X96750044Y-94145548D01*
X96756370Y-94135102D01*
X96763685Y-94125323D01*
X96771920Y-94116304D01*
X96780996Y-94108133D01*
X96790826Y-94100885D01*
X96801315Y-94094632D01*
X96812365Y-94089432D01*
X96823870Y-94085336D01*
X96835719Y-94082381D01*
X96847801Y-94080596D01*
X96859999Y-94080000D01*
X96872197Y-94080597D01*
X96884279Y-94082380D01*
X96896129Y-94085335D01*
X96907633Y-94089431D01*
X96918683Y-94094631D01*
X96929173Y-94100884D01*
X96939003Y-94108132D01*
X96948078Y-94116303D01*
X96956314Y-94125321D01*
X96963629Y-94135100D01*
X96969955Y-94145546D01*
X96975232Y-94156560D01*
X96979410Y-94168036D01*
X96982446Y-94179865D01*
X96984315Y-94191933D01*
X96984997Y-94204126D01*
X96985255Y-94240993D01*
X97001865Y-94505000D01*
X102497196Y-94505000D01*
X102501655Y-94474804D01*
X102515149Y-94198894D01*
X102515246Y-94197151D01*
X102516608Y-94185014D01*
X102519148Y-94173069D01*
X102522840Y-94161429D01*
X102527651Y-94150203D01*
X102533534Y-94139502D01*
X102540434Y-94129425D01*
X102548283Y-94120070D01*
X102557009Y-94111525D01*
X102566527Y-94103873D01*
X102576746Y-94097185D01*
X102587569Y-94091528D01*
X102598892Y-94086953D01*
X102610607Y-94083505D01*
X102622603Y-94081216D01*
X102634766Y-94080109D01*
X102646978Y-94080195D01*
X102659123Y-94081472D01*
X102671087Y-94083927D01*
X102682753Y-94087538D01*
X102694010Y-94092271D01*
X102704753Y-94098080D01*
X102714878Y-94104908D01*
X102724288Y-94112693D01*
X102732893Y-94121359D01*
X102740612Y-94130822D01*
X102747370Y-94140995D01*
X102753103Y-94151778D01*
X102757757Y-94163069D01*
X102761287Y-94174760D01*
X102763659Y-94186740D01*
X102764850Y-94198894D01*
X102764851Y-94211106D01*
X102751058Y-94493121D01*
X102750961Y-94494864D01*
X102750371Y-94500118D01*
X102749893Y-94505000D01*
X103875145Y-94505000D01*
X103929806Y-94134837D01*
X103930481Y-94121039D01*
X103919634Y-94050967D01*
X103895581Y-93957290D01*
X103862506Y-93866416D01*
X103820721Y-93779204D01*
X103770625Y-93696485D01*
X103712696Y-93619049D01*
X103647483Y-93547633D01*
X103575612Y-93482918D01*
X103497771Y-93425530D01*
X103414700Y-93376010D01*
X103327197Y-93334835D01*
X103236101Y-93302398D01*
X103142261Y-93279001D01*
X103046594Y-93264873D01*
X102943894Y-93259851D01*
X102942152Y-93259754D01*
X102930015Y-93258392D01*
X102918070Y-93255853D01*
X102906429Y-93252161D01*
X102895204Y-93247350D01*
X102884502Y-93241466D01*
X102874425Y-93234566D01*
X102865071Y-93226717D01*
X102856526Y-93217991D01*
X102848873Y-93208473D01*
X102842186Y-93198254D01*
X102836528Y-93187432D01*
X102831953Y-93176109D01*
X102828505Y-93164394D01*
X102826216Y-93152397D01*
X102825109Y-93140235D01*
X102825195Y-93128022D01*
X102826472Y-93115877D01*
X102828927Y-93103914D01*
X102832538Y-93092247D01*
X102837271Y-93080990D01*
X102843079Y-93070247D01*
X102849908Y-93060123D01*
X102857693Y-93050713D01*
X102866359Y-93042108D01*
X102875822Y-93034389D01*
X102885994Y-93027630D01*
X102896777Y-93021897D01*
X102908068Y-93017243D01*
X102919759Y-93013713D01*
X102931739Y-93011341D01*
X102943893Y-93010150D01*
X102956106Y-93010149D01*
X103064911Y-93015470D01*
X103066653Y-93015567D01*
X103071897Y-93016155D01*
X103077066Y-93016662D01*
X103184832Y-93032576D01*
X103186557Y-93032843D01*
X103191689Y-93033934D01*
X103196812Y-93034948D01*
X103302511Y-93061302D01*
X103304201Y-93061736D01*
X103309207Y-93063324D01*
X103314201Y-93064832D01*
X103416824Y-93101374D01*
X103418464Y-93101970D01*
X103423288Y-93104038D01*
X103428115Y-93106027D01*
X103526682Y-93152409D01*
X103528256Y-93153163D01*
X103532834Y-93155680D01*
X103537467Y-93158143D01*
X103631037Y-93213923D01*
X103632530Y-93214827D01*
X103636849Y-93217784D01*
X103641209Y-93220681D01*
X103728890Y-93285325D01*
X103730288Y-93286371D01*
X103734310Y-93289746D01*
X103738355Y-93293044D01*
X103819309Y-93365936D01*
X103820598Y-93367113D01*
X103824280Y-93370873D01*
X103827974Y-93374541D01*
X103901428Y-93454984D01*
X103902596Y-93456280D01*
X103905908Y-93460400D01*
X103909213Y-93464394D01*
X103974468Y-93551622D01*
X103975504Y-93553026D01*
X103978375Y-93557414D01*
X103981298Y-93561747D01*
X104014121Y-93615944D01*
X104022568Y-93611529D01*
X104033891Y-93606953D01*
X104045607Y-93603506D01*
X104057603Y-93601217D01*
X104069765Y-93600110D01*
X104081978Y-93600195D01*
X104094123Y-93601472D01*
X104106086Y-93603927D01*
X104117753Y-93607539D01*
X104129010Y-93612271D01*
X104139753Y-93618080D01*
X104149878Y-93624909D01*
X104159288Y-93632694D01*
X104167893Y-93641359D01*
X104175612Y-93650823D01*
X104182370Y-93660995D01*
X104188103Y-93671778D01*
X104192757Y-93683069D01*
X104196287Y-93694760D01*
X104198659Y-93706740D01*
X104199850Y-93718894D01*
X104199851Y-93731107D01*
X104181424Y-94107891D01*
X104182420Y-94114327D01*
X104182676Y-94116053D01*
X104183153Y-94121303D01*
X104183697Y-94126473D01*
X104189778Y-94235238D01*
X104189864Y-94236981D01*
X104189827Y-94242257D01*
X104189863Y-94247450D01*
X104185301Y-94356290D01*
X104185216Y-94358033D01*
X104184669Y-94363232D01*
X104184194Y-94368452D01*
X104169033Y-94476327D01*
X104168779Y-94478053D01*
X104167717Y-94483226D01*
X104166745Y-94488323D01*
X104141130Y-94594203D01*
X104140708Y-94595897D01*
X104139156Y-94600911D01*
X104137682Y-94605920D01*
X104101857Y-94708794D01*
X104101272Y-94710438D01*
X104099238Y-94715277D01*
X104097282Y-94720118D01*
X104065824Y-94788199D01*
X104011694Y-95005303D01*
X104011260Y-95006993D01*
X104009676Y-95011988D01*
X104008164Y-95016994D01*
X103920000Y-95264587D01*
X103920000Y-97655000D01*
X104500000Y-97655000D01*
X104500000Y-98155000D01*
X103920000Y-98155000D01*
X103920000Y-99995000D01*
X95580000Y-99995000D01*
X95580000Y-98155000D01*
X95000000Y-98155000D01*
X95000000Y-97655000D01*
X95580000Y-97655000D01*
X95580000Y-95263766D01*
X95510290Y-95076322D01*
X95509693Y-95074682D01*
X95508181Y-95069675D01*
X95506597Y-95064681D01*
X95432550Y-94784421D01*
X95409394Y-94736091D01*
X95408651Y-94734512D01*
X95406687Y-94729651D01*
X95404662Y-94724833D01*
X95367403Y-94622466D01*
X95366818Y-94620822D01*
X95365339Y-94615796D01*
X95363792Y-94610800D01*
X95336701Y-94505288D01*
X95336279Y-94503595D01*
X95335294Y-94498433D01*
X95334245Y-94493325D01*
X95317580Y-94385673D01*
X95317324Y-94383946D01*
X95316847Y-94378704D01*
X95316303Y-94373527D01*
X95310222Y-94264762D01*
X95310136Y-94263019D01*
X95310173Y-94257743D01*
X95310137Y-94252549D01*
X95314699Y-94143710D01*
X95314784Y-94141967D01*
X95315333Y-94136747D01*
X95315806Y-94131548D01*
X95320053Y-94101330D01*
X95300669Y-93793235D01*
X95300571Y-93791492D01*
X95300571Y-93788869D01*
X95300425Y-93786259D01*
X95300003Y-93725874D01*
X95300003Y-93724128D01*
X95300685Y-93711934D01*
X95302553Y-93699866D01*
X95305590Y-93688038D01*
X95309767Y-93676561D01*
X95315044Y-93665548D01*
X95321370Y-93655101D01*
X95328685Y-93645323D01*
X95336920Y-93636304D01*
X95345996Y-93628133D01*
X95355826Y-93620885D01*
X95366315Y-93614632D01*
X95377365Y-93609432D01*
X95388870Y-93605336D01*
X95400720Y-93602381D01*
X95412801Y-93600596D01*
X95424999Y-93600000D01*
X95437197Y-93600597D01*
X95449279Y-93602380D01*
X95461129Y-93605335D01*
X95472633Y-93609431D01*
X95483683Y-93614631D01*
X95485884Y-93615943D01*
X95509194Y-93576213D01*
X95510087Y-93574714D01*
X95513025Y-93570358D01*
X95515881Y-93565994D01*
X95579911Y-93477864D01*
X95580946Y-93476459D01*
X95584294Y-93472412D01*
X95587563Y-93468346D01*
X95659888Y-93386884D01*
X95661056Y-93385587D01*
X95664801Y-93381868D01*
X95668433Y-93378159D01*
X95748362Y-93304144D01*
X95749650Y-93302967D01*
X95753728Y-93299641D01*
X95757717Y-93296294D01*
X95844487Y-93230432D01*
X95845884Y-93229386D01*
X95850278Y-93226467D01*
X95854564Y-93223532D01*
X95947347Y-93166452D01*
X95948840Y-93165548D01*
X95953504Y-93163068D01*
X95958049Y-93160569D01*
X96055950Y-93112819D01*
X96055958Y-93112815D01*
X96055967Y-93112811D01*
X96057532Y-93112061D01*
X96062359Y-93110072D01*
X96067183Y-93108004D01*
X96169286Y-93070032D01*
X96170926Y-93069435D01*
X96175933Y-93067923D01*
X96180927Y-93066339D01*
X96286247Y-93038512D01*
X96287937Y-93038078D01*
X96293090Y-93037058D01*
X96298194Y-93035973D01*
X96405727Y-93018557D01*
X96407452Y-93018290D01*
X96412676Y-93017778D01*
X96417863Y-93017196D01*
X96526583Y-93010356D01*
X96528326Y-93010258D01*
X96530947Y-93010258D01*
X96533557Y-93010112D01*
X96549124Y-93010003D01*
X96550869Y-93010003D01*
X96563064Y-93010684D01*
G37*
%TD.AperFunction*%
D29*
%TO.P,J1,A12*%
X102950000Y-93135000D03*
%TO.P,J1,A4*%
%TO.N,Net-(J1-PadA4)*%
X97350000Y-93135000D03*
%TO.P,J1,B12*%
%TO.N,GND*%
X96550000Y-93135000D03*
%TO.P,J1,B4*%
%TO.N,Net-(J1-PadA4)*%
X102150000Y-93135000D03*
D25*
%TO.P,J1,S1*%
%TO.N,GND*%
X104075000Y-97905000D03*
X95425000Y-97905000D03*
D23*
X104075000Y-93725000D03*
X95425000Y-93725000D03*
D30*
%TO.P,J1,A7*%
%TO.N,Net-(J1-PadA7)*%
X100000000Y-93135000D03*
%TO.P,J1,A6*%
%TO.N,Net-(J1-PadA6)*%
X99500000Y-93135000D03*
%TO.P,J1,B6*%
X100500000Y-93135000D03*
%TO.P,J1,B7*%
%TO.N,Net-(J1-PadA7)*%
X99000000Y-93135000D03*
%TO.P,J1,A8*%
%TO.N,Net-(J1-PadA8)*%
X101000000Y-93135000D03*
%TO.P,J1,A5*%
%TO.N,Net-(J1-PadA5)*%
X98500000Y-93135000D03*
%TO.P,J1,B5*%
%TO.N,Net-(J1-PadB5)*%
X101500000Y-93135000D03*
%TO.P,J1,B8*%
%TO.N,Net-(J1-PadB8)*%
X98000000Y-93135000D03*
D29*
%TO.P,J1,A9*%
%TO.N,Net-(J1-PadA4)*%
X102150000Y-93135000D03*
%TO.P,J1,B9*%
X97350000Y-93135000D03*
%TO.P,J1,B1*%
%TO.N,GND*%
X102950000Y-93135000D03*
D31*
%TO.P,J1,S1*%
X102640000Y-94205000D03*
X96860000Y-94205000D03*
D29*
%TO.P,J1,A1*%
X96550000Y-93135000D03*
%TD*%
D32*
%TO.N,Net-(J1-PadA7)*%
X98573635Y-91533696D03*
X100603076Y-91514989D03*
%TO.N,Net-(J1-PadA6)*%
X99596302Y-91496293D03*
X103300000Y-90800000D03*
%TO.N,Net-(J1-PadA5)*%
X95800009Y-91540326D03*
%TO.N,Net-(J1-PadB5)*%
X103978141Y-91674989D03*
%TO.N,GND*%
X99575000Y-81700000D03*
%TO.N,+3V3*%
X105000000Y-72400000D03*
X104745612Y-91033886D03*
X104077727Y-88826032D03*
X96450010Y-86665976D03*
X127500000Y-91000000D03*
%TO.N,OLED-RST*%
X119003892Y-81521428D03*
%TO.N,OLED-DC*%
X120300000Y-77500000D03*
%TO.N,OLED-CS0*%
X120461390Y-81053482D03*
%TO.N,OLED-SCLK*%
X120011379Y-79673314D03*
%TO.N,OLED-MOSI*%
X117457863Y-79018618D03*
%TO.N,IO6*%
X107115605Y-90359075D03*
%TO.N,IO5*%
X110500000Y-90750000D03*
%TO.N,IO4*%
X106645627Y-91463228D03*
%TO.N,Net-(U1-Pad19)*%
X109762660Y-73762660D03*
X98774868Y-85025452D03*
%TO.N,Net-(U1-Pad18)*%
X122915014Y-88000000D03*
X103676016Y-86981767D03*
%TO.N,Net-(U1-Pad17)*%
X120650155Y-75574979D03*
X103674990Y-85861051D03*
%TO.N,Net-(U1-Pad1)*%
X121339855Y-74475010D03*
X96550010Y-87752954D03*
%TO.N,Net-(U2-Pad8)*%
X105470622Y-90308995D03*
X95812660Y-90512660D03*
%TO.N,Net-(D1-Pad1)*%
X120000000Y-90000000D03*
X128500000Y-90500000D03*
%TD*%
D33*
%TO.N,Net-(J1-PadA4)*%
X102150000Y-93790002D02*
X102150000Y-93135000D01*
X97589999Y-94030001D02*
X101910001Y-94030001D01*
X101910001Y-94030001D02*
X102150000Y-93790002D01*
X97350000Y-93790002D02*
X97589999Y-94030001D01*
X97350000Y-93135000D02*
X97350000Y-93790002D01*
X106134499Y-93394499D02*
X108740000Y-96000000D01*
X102150000Y-93135000D02*
X102150000Y-92559233D01*
X102469232Y-92240000D02*
X103407887Y-92240000D01*
X105705501Y-93394499D02*
X106134499Y-93394499D01*
X103407887Y-92240000D02*
X103567886Y-92399999D01*
X103567886Y-92399999D02*
X104711001Y-92399999D01*
X102150000Y-92559233D02*
X102469232Y-92240000D01*
X104711001Y-92399999D02*
X105705501Y-93394499D01*
X97274999Y-92239999D02*
X97350000Y-92315000D01*
X95989999Y-92239999D02*
X97274999Y-92239999D01*
X95431997Y-92304999D02*
X95924999Y-92304999D01*
X95924999Y-92304999D02*
X95989999Y-92239999D01*
X97350000Y-92315000D02*
X97350000Y-93135000D01*
X96325000Y-81100000D02*
X94774990Y-82650010D01*
X94774990Y-82650010D02*
X94774990Y-91647992D01*
X94774990Y-91647992D02*
X95431997Y-92304999D01*
X96475000Y-79850000D02*
X97425000Y-79850000D01*
%TO.N,Net-(J1-PadA7)*%
X99000000Y-91960061D02*
X99000000Y-93135000D01*
X98573635Y-91533696D02*
X99000000Y-91960061D01*
X100000000Y-93135000D02*
X100000000Y-92118065D01*
X100603076Y-91430072D02*
X100603076Y-91514989D01*
X100000000Y-92118065D02*
X100603076Y-91514989D01*
X100475000Y-91386913D02*
X100603076Y-91514989D01*
X100475000Y-90150000D02*
X100475000Y-91386913D01*
%TO.N,Net-(J1-PadA6)*%
X99500000Y-93135000D02*
X99500000Y-91592595D01*
X99500000Y-91592595D02*
X99596302Y-91496293D01*
X100500000Y-92315000D02*
X100500000Y-93135000D01*
X100575001Y-92239999D02*
X100500000Y-92315000D01*
X100996411Y-92239999D02*
X100575001Y-92239999D01*
X101968205Y-91268205D02*
X102831795Y-91268205D01*
X101968205Y-91268205D02*
X100996411Y-92239999D01*
X102831795Y-91268205D02*
X103300000Y-90800000D01*
X99975000Y-91117595D02*
X99596302Y-91496293D01*
X99975000Y-90150000D02*
X99975000Y-91117595D01*
%TO.N,Net-(J1-PadA5)*%
X97384819Y-91540326D02*
X95800009Y-91540326D01*
X98410001Y-92239999D02*
X98084492Y-92239999D01*
X98500000Y-92329998D02*
X98410001Y-92239999D01*
X98500000Y-93135000D02*
X98500000Y-92329998D01*
X98084492Y-92239999D02*
X97384819Y-91540326D01*
%TO.N,Net-(J1-PadB5)*%
X101500000Y-93135000D02*
X101500000Y-92372821D01*
X101500000Y-92372821D02*
X102154605Y-91718216D01*
X102154605Y-91718216D02*
X103934914Y-91718216D01*
X103934914Y-91718216D02*
X103978141Y-91674989D01*
%TO.N,GND*%
X103485000Y-93135000D02*
X104075000Y-93725000D01*
X102950000Y-93135000D02*
X103485000Y-93135000D01*
X96015000Y-93135000D02*
X95425000Y-93725000D01*
X96550000Y-93135000D02*
X96015000Y-93135000D01*
X92905000Y-97905000D02*
X92500000Y-97500000D01*
X95425000Y-97905000D02*
X92905000Y-97905000D01*
X95425000Y-93725000D02*
X95425000Y-92925000D01*
X130535533Y-70500000D02*
X123750000Y-70500000D01*
X132000000Y-69035533D02*
X130535533Y-70500000D01*
X132000000Y-65500000D02*
X132000000Y-69035533D01*
X102000000Y-88125000D02*
X99975000Y-88125000D01*
X97950000Y-88125000D02*
X99975000Y-88125000D01*
X99475000Y-87625000D02*
X99975000Y-88125000D01*
X97950000Y-87625000D02*
X99475000Y-87625000D01*
X99475000Y-88625000D02*
X99975000Y-88125000D01*
X97950000Y-88625000D02*
X99475000Y-88625000D01*
X97950000Y-89125000D02*
X98975000Y-89125000D01*
X98975000Y-89125000D02*
X99975000Y-88125000D01*
X98975000Y-90150000D02*
X98975000Y-89125000D01*
D34*
X101012500Y-81700000D02*
X101062500Y-81650000D01*
X99575000Y-81700000D02*
X101012500Y-81700000D01*
D33*
X99140000Y-70800000D02*
X99975000Y-70800000D01*
X95650000Y-84775000D02*
X95650000Y-88975000D01*
X95650000Y-84775000D02*
X96975000Y-84775000D01*
X96975000Y-84775000D02*
X97750000Y-84000000D01*
X97750000Y-84000000D02*
X101600000Y-84000000D01*
X95800000Y-89125000D02*
X95650000Y-88975000D01*
X97975000Y-89125000D02*
X95800000Y-89125000D01*
X109535000Y-92665000D02*
X109050000Y-93150000D01*
X109535000Y-88255000D02*
X109535000Y-92665000D01*
X109050000Y-93150000D02*
X111000000Y-95100000D01*
X111000000Y-95100000D02*
X111000000Y-97500000D01*
X111000000Y-97500000D02*
X110000000Y-98500000D01*
X110000000Y-98500000D02*
X106500000Y-98500000D01*
X106200000Y-98200000D02*
X106200000Y-96000000D01*
X106500000Y-98500000D02*
X106200000Y-98200000D01*
%TO.N,+3V3*%
X95580000Y-70800000D02*
X96600000Y-70800000D01*
X92500000Y-73880000D02*
X95580000Y-70800000D01*
X105385000Y-72015000D02*
X105000000Y-72400000D01*
X106750000Y-72015000D02*
X105385000Y-72015000D01*
X104745612Y-89493917D02*
X104745612Y-91033886D01*
X104077727Y-88826032D02*
X104745612Y-89493917D01*
X102000000Y-89125000D02*
X100975000Y-90150000D01*
X103876695Y-88625000D02*
X104077727Y-88826032D01*
X102000000Y-88625000D02*
X103876695Y-88625000D01*
X103778759Y-89125000D02*
X104077727Y-88826032D01*
X102000000Y-89125000D02*
X103778759Y-89125000D01*
X104950011Y-87953748D02*
X104077727Y-88826032D01*
X104950011Y-85050011D02*
X104950011Y-87953748D01*
X103875010Y-83975010D02*
X104950011Y-85050011D01*
X103875010Y-82150010D02*
X103875010Y-83975010D01*
X102825000Y-81100000D02*
X103875010Y-82150010D01*
X98251001Y-85549999D02*
X97565987Y-85549999D01*
X97565987Y-85549999D02*
X96450010Y-86665976D01*
X98801002Y-86100000D02*
X98251001Y-85549999D01*
X98975000Y-86100000D02*
X98801002Y-86100000D01*
X102825000Y-75769316D02*
X102130684Y-75075000D01*
X102825000Y-79300000D02*
X102825000Y-75769316D01*
X102130684Y-75075000D02*
X94850000Y-75075000D01*
X93655000Y-73880000D02*
X92500000Y-73880000D01*
X94850000Y-75075000D02*
X93655000Y-73880000D01*
X129175000Y-89500000D02*
X131175000Y-91500000D01*
X128000000Y-89500000D02*
X127500000Y-90000000D01*
X127500000Y-91000000D02*
X127500000Y-90000000D01*
X128000000Y-89500000D02*
X129175000Y-89500000D01*
%TO.N,OLED-RST*%
X121729108Y-78619108D02*
X119992581Y-78619108D01*
X122745000Y-79635000D02*
X121729108Y-78619108D01*
X119003892Y-79607797D02*
X119003892Y-81521428D01*
X123750000Y-79635000D02*
X122745000Y-79635000D01*
X119992581Y-78619108D02*
X119003892Y-79607797D01*
%TO.N,OLED-DC*%
X123750000Y-77095000D02*
X120705000Y-77095000D01*
X120300000Y-77500000D02*
X120705000Y-77095000D01*
%TO.N,OLED-CS0*%
X123750000Y-82175000D02*
X121582908Y-82175000D01*
X121582908Y-82175000D02*
X120461390Y-81053482D01*
%TO.N,OLED-SCLK*%
X122225000Y-79975000D02*
X121523315Y-79273315D01*
X122500000Y-80905000D02*
X122225000Y-80630000D01*
X120411378Y-79273315D02*
X120011379Y-79673314D01*
X123750000Y-80905000D02*
X122500000Y-80905000D01*
X121523315Y-79273315D02*
X120411378Y-79273315D01*
X122225000Y-80630000D02*
X122225000Y-79975000D01*
%TO.N,OLED-MOSI*%
X118681382Y-79018618D02*
X117457863Y-79018618D01*
X119500000Y-78200000D02*
X118681382Y-79018618D01*
X119900000Y-76800000D02*
X119500000Y-77200000D01*
X122485000Y-72015000D02*
X122270000Y-72230000D01*
X121750000Y-73750000D02*
X120650000Y-73750000D01*
X122270000Y-73230000D02*
X121750000Y-73750000D01*
X119500000Y-77200000D02*
X119500000Y-78200000D01*
X122270000Y-72230000D02*
X122270000Y-73230000D01*
X119900000Y-74500000D02*
X119900000Y-76800000D01*
X120650000Y-73750000D02*
X119900000Y-74500000D01*
X123750000Y-72015000D02*
X122485000Y-72015000D01*
%TO.N,CO2-SDA*%
X106750000Y-82175000D02*
X105500000Y-82175000D01*
X105500000Y-82175000D02*
X105375033Y-82050033D01*
X105375033Y-82050033D02*
X105375033Y-73902211D01*
X105375033Y-73902211D02*
X104220000Y-72747178D01*
X104220000Y-72747178D02*
X104220000Y-70800000D01*
%TO.N,CO2-SCL*%
X105500000Y-83445000D02*
X104925022Y-82870022D01*
X104925022Y-82870022D02*
X104925022Y-74088612D01*
X104925022Y-74088612D02*
X101680000Y-70843590D01*
X106750000Y-83445000D02*
X105500000Y-83445000D01*
X101680000Y-70843590D02*
X101680000Y-70800000D01*
%TO.N,IO7*%
X126875045Y-92824955D02*
X126550000Y-93150000D01*
X125000000Y-73285000D02*
X125200000Y-73485000D01*
X123750000Y-73285000D02*
X125000000Y-73285000D01*
X125200000Y-84763587D02*
X125525012Y-85088599D01*
X125525012Y-85088599D02*
X125525012Y-88774988D01*
X125200000Y-73485000D02*
X125200000Y-84763587D01*
X125525012Y-88774988D02*
X124700000Y-89600000D01*
X124700000Y-89600000D02*
X123900000Y-89600000D01*
X123900000Y-89600000D02*
X123100000Y-90400000D01*
X123100000Y-90400000D02*
X123100000Y-91200000D01*
X123100000Y-91200000D02*
X123400000Y-91500000D01*
X124900000Y-91500000D02*
X126550000Y-93150000D01*
X123400000Y-91500000D02*
X124900000Y-91500000D01*
%TO.N,IO6*%
X105424999Y-84790001D02*
X105424999Y-88668469D01*
X105424999Y-88668469D02*
X107115605Y-90359075D01*
X106750000Y-84715000D02*
X105500000Y-84715000D01*
X105500000Y-84715000D02*
X105424999Y-84790001D01*
%TO.N,IO5*%
X110805000Y-90445000D02*
X110500000Y-90750000D01*
X110805000Y-88255000D02*
X110805000Y-90445000D01*
%TO.N,IO4*%
X119050000Y-93150000D02*
X119813284Y-93150000D01*
X106750000Y-91358855D02*
X106645627Y-91463228D01*
X107536772Y-91463228D02*
X106645627Y-91463228D01*
X108075001Y-90924999D02*
X107536772Y-91463228D01*
X108000000Y-85985000D02*
X108075001Y-86060001D01*
X108075001Y-86060001D02*
X108075001Y-90924999D01*
X106750000Y-85985000D02*
X108000000Y-85985000D01*
%TO.N,IO3*%
X122500000Y-83445000D02*
X123750000Y-83445000D01*
X121740001Y-84204999D02*
X122500000Y-83445000D01*
X111981643Y-90981643D02*
X120518357Y-90981643D01*
X110374990Y-93711705D02*
X110374990Y-92588295D01*
X111063295Y-94400010D02*
X110374990Y-93711705D01*
X110374990Y-92588295D02*
X111981643Y-90981643D01*
X115299990Y-94400010D02*
X111063295Y-94400010D01*
X121740001Y-89759999D02*
X121740001Y-84204999D01*
X120518357Y-90981643D02*
X121740001Y-89759999D01*
X116550000Y-93150000D02*
X115299990Y-94400010D01*
%TO.N,IO2*%
X122379921Y-90541171D02*
X122379921Y-90482935D01*
X114050000Y-93150000D02*
X115300010Y-91899990D01*
X122379921Y-90482935D02*
X124809388Y-88053468D01*
X125075001Y-88053468D02*
X125075001Y-85274998D01*
X124809388Y-88053468D02*
X125075001Y-88053468D01*
X115300010Y-91899990D02*
X121021102Y-91899990D01*
X125075001Y-85274998D02*
X124270003Y-84470000D01*
X121021102Y-91899990D02*
X122379921Y-90541171D01*
X124270003Y-84470000D02*
X123750000Y-84470000D01*
%TO.N,IO1*%
X122190012Y-90036433D02*
X121929910Y-90296535D01*
X122500000Y-85985000D02*
X122190012Y-86294988D01*
X113250021Y-91449979D02*
X111550000Y-93150000D01*
X121929910Y-90354771D02*
X120834702Y-91449979D01*
X123750000Y-85985000D02*
X122500000Y-85985000D01*
X120834702Y-91449979D02*
X113250021Y-91449979D01*
X121929910Y-90296535D02*
X121929910Y-90354771D01*
X122190012Y-86294988D02*
X122190012Y-90036433D01*
%TO.N,Net-(U1-Pad19)*%
X109285000Y-73285000D02*
X109762660Y-73762660D01*
X106750000Y-73285000D02*
X109285000Y-73285000D01*
X99475000Y-86100000D02*
X99475000Y-85159899D01*
X99475000Y-85159899D02*
X99340553Y-85025452D01*
X99340553Y-85025452D02*
X98774868Y-85025452D01*
%TO.N,Net-(U1-Pad18)*%
X123750000Y-87255000D02*
X123660014Y-87255000D01*
X123660014Y-87255000D02*
X122915014Y-88000000D01*
X99975000Y-86100000D02*
X99975000Y-85425000D01*
X102116986Y-85119988D02*
X104119988Y-85119988D01*
X101813999Y-84817001D02*
X102116986Y-85119988D01*
X100573566Y-84817001D02*
X101813999Y-84817001D01*
X99975000Y-85425000D02*
X100074979Y-85325020D01*
X100074979Y-85315588D02*
X100573566Y-84817001D01*
X100074979Y-85325020D02*
X100074979Y-85315588D01*
X104119988Y-85119988D02*
X104500000Y-85500000D01*
X104500000Y-86157783D02*
X103676016Y-86981767D01*
X104500000Y-85500000D02*
X104500000Y-86157783D01*
%TO.N,Net-(U1-Pad17)*%
X120900176Y-75825000D02*
X120650155Y-75574979D01*
X123750000Y-75825000D02*
X120900176Y-75825000D01*
X100475000Y-85551978D02*
X100751988Y-85274990D01*
X101930586Y-85569999D02*
X103383938Y-85569999D01*
X101635577Y-85274990D02*
X101930586Y-85569999D01*
X100475000Y-86100000D02*
X100475000Y-85551978D01*
X100751988Y-85274990D02*
X101635577Y-85274990D01*
X103383938Y-85569999D02*
X103674990Y-85861051D01*
%TO.N,Net-(U1-Pad1)*%
X123750000Y-74555000D02*
X121419845Y-74555000D01*
X121419845Y-74555000D02*
X121339855Y-74475010D01*
X97950000Y-87125000D02*
X97177964Y-87125000D01*
X97177964Y-87125000D02*
X96550010Y-87752954D01*
%TO.N,Net-(D1-Pad1)*%
X120965000Y-88010000D02*
X120965000Y-89035000D01*
X120965000Y-88255000D02*
X120965000Y-89035000D01*
%TO.N,Net-(U2-Pad8)*%
X98225635Y-90808695D02*
X98117165Y-90917165D01*
X98117165Y-90917165D02*
X98225634Y-90808695D01*
X98117165Y-90917165D02*
X98034329Y-91000000D01*
X96300000Y-91000000D02*
X95812660Y-90512660D01*
X98034329Y-91000000D02*
X96300000Y-91000000D01*
X105470622Y-92523209D02*
X105470622Y-90308995D01*
X106750000Y-79635000D02*
X108000000Y-79635000D01*
X107113201Y-92523209D02*
X105470622Y-92523209D01*
X108568205Y-80203205D02*
X108000000Y-79635000D01*
X108568205Y-91068205D02*
X108568205Y-80203205D01*
X108568205Y-91068205D02*
X107113201Y-92523209D01*
%TO.N,Net-(D1-Pad2)*%
X132787500Y-91537500D02*
X132825000Y-91500000D01*
X132787500Y-93000000D02*
X132787500Y-91537500D01*
%TO.N,Net-(D1-Pad1)*%
X120965000Y-89035000D02*
X120000000Y-90000000D01*
X131000000Y-93000000D02*
X131212500Y-93000000D01*
X128500000Y-90500000D02*
X131000000Y-93000000D01*
%TD*%
D35*
%TO.N,GND*%
X100590001Y-69067571D02*
X100586807Y-69100000D01*
X100599550Y-69229383D01*
X100637290Y-69353793D01*
X100698575Y-69468450D01*
X100781052Y-69568948D01*
X100811757Y-69594147D01*
X100733368Y-69646525D01*
X100526525Y-69853368D01*
X100410689Y-70026729D01*
X100168397Y-69951208D01*
X99319605Y-70800000D01*
X100168397Y-71648792D01*
X100410689Y-71573271D01*
X100526525Y-71746632D01*
X100733368Y-71953475D01*
X100976589Y-72115990D01*
X101246842Y-72227932D01*
X101533740Y-72285000D01*
X101826260Y-72285000D01*
X102010050Y-72248442D01*
X104165023Y-74403415D01*
X104165023Y-76592888D01*
X104163312Y-76575518D01*
X104127002Y-76455820D01*
X104068037Y-76345506D01*
X103988685Y-76248815D01*
X103891994Y-76169463D01*
X103781680Y-76110498D01*
X103661982Y-76074188D01*
X103585000Y-76066606D01*
X103585000Y-75806638D01*
X103588676Y-75769315D01*
X103585000Y-75731992D01*
X103585000Y-75731983D01*
X103574003Y-75620330D01*
X103530546Y-75477069D01*
X103515544Y-75449003D01*
X103459974Y-75345039D01*
X103388799Y-75258313D01*
X103365001Y-75229315D01*
X103336002Y-75205517D01*
X102694487Y-74564002D01*
X102670685Y-74534999D01*
X102554960Y-74440026D01*
X102422931Y-74369454D01*
X102279670Y-74325997D01*
X102168017Y-74315000D01*
X102168006Y-74315000D01*
X102130684Y-74311324D01*
X102093362Y-74315000D01*
X95164802Y-74315000D01*
X94218804Y-73369003D01*
X94195001Y-73339999D01*
X94150952Y-73303849D01*
X95577347Y-71877454D01*
X95653368Y-71953475D01*
X95896589Y-72115990D01*
X96166842Y-72227932D01*
X96453740Y-72285000D01*
X96746260Y-72285000D01*
X97033158Y-72227932D01*
X97303411Y-72115990D01*
X97546632Y-71953475D01*
X97671710Y-71828397D01*
X98291208Y-71828397D01*
X98368843Y-72077472D01*
X98632883Y-72203371D01*
X98916411Y-72275339D01*
X99208531Y-72290611D01*
X99498019Y-72248599D01*
X99773747Y-72150919D01*
X99911157Y-72077472D01*
X99988792Y-71828397D01*
X99140000Y-70979605D01*
X98291208Y-71828397D01*
X97671710Y-71828397D01*
X97753475Y-71746632D01*
X97869311Y-71573271D01*
X98111603Y-71648792D01*
X98960395Y-70800000D01*
X98111603Y-69951208D01*
X97869311Y-70026729D01*
X97753475Y-69853368D01*
X97671710Y-69771603D01*
X98291208Y-69771603D01*
X99140000Y-70620395D01*
X99988792Y-69771603D01*
X99911157Y-69522528D01*
X99647117Y-69396629D01*
X99363589Y-69324661D01*
X99071469Y-69309389D01*
X98781981Y-69351401D01*
X98506253Y-69449081D01*
X98368843Y-69522528D01*
X98291208Y-69771603D01*
X97671710Y-69771603D01*
X97546632Y-69646525D01*
X97303411Y-69484010D01*
X97033158Y-69372068D01*
X96746260Y-69315000D01*
X96453740Y-69315000D01*
X96166842Y-69372068D01*
X95896589Y-69484010D01*
X95653368Y-69646525D01*
X95446525Y-69853368D01*
X95284150Y-70096380D01*
X95155724Y-70165026D01*
X95039999Y-70259999D01*
X95016201Y-70288997D01*
X92866408Y-72438791D01*
X92646260Y-72395000D01*
X92353740Y-72395000D01*
X92066842Y-72452068D01*
X91796589Y-72564010D01*
X91553368Y-72726525D01*
X91346525Y-72933368D01*
X91184010Y-73176589D01*
X91072068Y-73446842D01*
X91015000Y-73733740D01*
X91015000Y-74026260D01*
X91072068Y-74313158D01*
X91184010Y-74583411D01*
X91346525Y-74826632D01*
X91553368Y-75033475D01*
X91726729Y-75149311D01*
X91651208Y-75391603D01*
X92500000Y-76240395D01*
X93348792Y-75391603D01*
X93273271Y-75149311D01*
X93446632Y-75033475D01*
X93590153Y-74889954D01*
X94286200Y-75586002D01*
X94309999Y-75615001D01*
X94425724Y-75709974D01*
X94557753Y-75780546D01*
X94701014Y-75824003D01*
X94812667Y-75835000D01*
X94812676Y-75835000D01*
X94849999Y-75838676D01*
X94887322Y-75835000D01*
X95891297Y-75835000D01*
X95880923Y-75854510D01*
X95854681Y-75918177D01*
X95827537Y-75981509D01*
X95824400Y-75991645D01*
X95794449Y-76090847D01*
X95723815Y-76148815D01*
X95644463Y-76245506D01*
X95585498Y-76355820D01*
X95549188Y-76475518D01*
X95536928Y-76600000D01*
X95536928Y-76636928D01*
X95075000Y-76636928D01*
X94906623Y-76653512D01*
X94744717Y-76702625D01*
X94595503Y-76782382D01*
X94464716Y-76889716D01*
X94357382Y-77020503D01*
X94277625Y-77169717D01*
X94228512Y-77331623D01*
X94211928Y-77500000D01*
X94211928Y-77950000D01*
X94228512Y-78118377D01*
X94277625Y-78280283D01*
X94357382Y-78429497D01*
X94415242Y-78500000D01*
X94357382Y-78570503D01*
X94277625Y-78719717D01*
X94228512Y-78881623D01*
X94211928Y-79050000D01*
X94211928Y-79500000D01*
X94228512Y-79668377D01*
X94277625Y-79830283D01*
X94357382Y-79979497D01*
X94464716Y-80110284D01*
X94595503Y-80217618D01*
X94744717Y-80297375D01*
X94906623Y-80346488D01*
X95075000Y-80363072D01*
X95358143Y-80363072D01*
X95279528Y-80510150D01*
X95228992Y-80676746D01*
X95211928Y-80850000D01*
X95211928Y-81138270D01*
X94263993Y-82086206D01*
X94234989Y-82110009D01*
X94185369Y-82170472D01*
X94140016Y-82225734D01*
X94087499Y-82323986D01*
X94069444Y-82357764D01*
X94025987Y-82501025D01*
X94014990Y-82612678D01*
X94014990Y-82612688D01*
X94011314Y-82650010D01*
X94014990Y-82687332D01*
X94014991Y-91610660D01*
X94011314Y-91647992D01*
X94014991Y-91685325D01*
X94025988Y-91796978D01*
X94037514Y-91834974D01*
X94069444Y-91940238D01*
X94140016Y-92072268D01*
X94208789Y-92156067D01*
X94234990Y-92187993D01*
X94263988Y-92211791D01*
X94515082Y-92462886D01*
X94469192Y-92589587D01*
X95425000Y-93545395D01*
X95439143Y-93531253D01*
X95611938Y-93704048D01*
X95611928Y-93705000D01*
X95613065Y-93716540D01*
X95604605Y-93725000D01*
X95614913Y-93735308D01*
X95624188Y-93829482D01*
X95660498Y-93949180D01*
X95719463Y-94059494D01*
X95798815Y-94156185D01*
X95895506Y-94235537D01*
X96005820Y-94294502D01*
X96125518Y-94330812D01*
X96219692Y-94340087D01*
X96560413Y-94680808D01*
X96824814Y-94585044D01*
X96905134Y-94419937D01*
X97026195Y-94540998D01*
X97049998Y-94570002D01*
X97165723Y-94664975D01*
X97297752Y-94735547D01*
X97441013Y-94779004D01*
X97552666Y-94790001D01*
X97552676Y-94790001D01*
X97589999Y-94793677D01*
X97627322Y-94790001D01*
X101872679Y-94790001D01*
X101910001Y-94793677D01*
X101947323Y-94790001D01*
X101947334Y-94790001D01*
X102058987Y-94779004D01*
X102202248Y-94735547D01*
X102334277Y-94664975D01*
X102450002Y-94570002D01*
X102473805Y-94540998D01*
X102589697Y-94425106D01*
X102675186Y-94585044D01*
X102939587Y-94680808D01*
X103035000Y-94585395D01*
X103035000Y-94702002D01*
X103189748Y-94702002D01*
X103035000Y-94856750D01*
X103038590Y-94916965D01*
X103068664Y-95038380D01*
X103121847Y-95151595D01*
X103196095Y-95252259D01*
X103288555Y-95336503D01*
X103395674Y-95401091D01*
X103513335Y-95443540D01*
X103611250Y-95460000D01*
X103743027Y-95328223D01*
X103816108Y-95347384D01*
X103816136Y-95347386D01*
X103928750Y-95460000D01*
X104026665Y-95443540D01*
X104144326Y-95401091D01*
X104220098Y-95355404D01*
X104456675Y-95322961D01*
X104563159Y-95286174D01*
X104565000Y-95714250D01*
X104723750Y-95873000D01*
X106073000Y-95873000D01*
X106073000Y-95853000D01*
X106327000Y-95853000D01*
X106327000Y-95873000D01*
X106347000Y-95873000D01*
X106347000Y-96127000D01*
X106327000Y-96127000D01*
X106327000Y-97476250D01*
X106485750Y-97635000D01*
X107200000Y-97638072D01*
X107324482Y-97625812D01*
X107444180Y-97589502D01*
X107554494Y-97530537D01*
X107651185Y-97451185D01*
X107730537Y-97354494D01*
X107755191Y-97308370D01*
X107965537Y-97448918D01*
X108263088Y-97572168D01*
X108578967Y-97635000D01*
X108901033Y-97635000D01*
X109216912Y-97572168D01*
X109514463Y-97448918D01*
X109782252Y-97269987D01*
X110009987Y-97042252D01*
X110188918Y-96774463D01*
X110312168Y-96476912D01*
X110375000Y-96161033D01*
X110375000Y-95838967D01*
X110312168Y-95523088D01*
X110188918Y-95225537D01*
X110009987Y-94957748D01*
X109782252Y-94730013D01*
X109755722Y-94712286D01*
X109900000Y-94713072D01*
X110024482Y-94700812D01*
X110144180Y-94664502D01*
X110215085Y-94626602D01*
X110499496Y-94911012D01*
X110523294Y-94940011D01*
X110639019Y-95034984D01*
X110771048Y-95105556D01*
X110914309Y-95149013D01*
X111025962Y-95160010D01*
X111025971Y-95160010D01*
X111063294Y-95163686D01*
X111100617Y-95160010D01*
X115262668Y-95160010D01*
X115299990Y-95163686D01*
X115337312Y-95160010D01*
X115337323Y-95160010D01*
X115448976Y-95149013D01*
X115592237Y-95105556D01*
X115724266Y-95034984D01*
X115839991Y-94940011D01*
X115863794Y-94911007D01*
X116126460Y-94648341D01*
X116258890Y-94688513D01*
X116550000Y-94717185D01*
X116841111Y-94688513D01*
X117121034Y-94603599D01*
X117379014Y-94465706D01*
X117605134Y-94280134D01*
X117790706Y-94054013D01*
X117800000Y-94036626D01*
X117809294Y-94054014D01*
X117994866Y-94280134D01*
X118220987Y-94465706D01*
X118478967Y-94603599D01*
X118758890Y-94688513D01*
X119050000Y-94717185D01*
X119341111Y-94688513D01*
X119621034Y-94603599D01*
X119879014Y-94465706D01*
X120105134Y-94280134D01*
X120290706Y-94054013D01*
X120300000Y-94036626D01*
X120309294Y-94054014D01*
X120494866Y-94280134D01*
X120720987Y-94465706D01*
X120978967Y-94603599D01*
X121258890Y-94688513D01*
X121550000Y-94717185D01*
X121841111Y-94688513D01*
X122121034Y-94603599D01*
X122379014Y-94465706D01*
X122605134Y-94280134D01*
X122790706Y-94054013D01*
X122800000Y-94036626D01*
X122809294Y-94054014D01*
X122994866Y-94280134D01*
X123220987Y-94465706D01*
X123478967Y-94603599D01*
X123758890Y-94688513D01*
X124050000Y-94717185D01*
X124341111Y-94688513D01*
X124621034Y-94603599D01*
X124879014Y-94465706D01*
X125105134Y-94280134D01*
X125290706Y-94054013D01*
X125300000Y-94036626D01*
X125309294Y-94054014D01*
X125494866Y-94280134D01*
X125720987Y-94465706D01*
X125978967Y-94603599D01*
X126258890Y-94688513D01*
X126550000Y-94717185D01*
X126841111Y-94688513D01*
X127121034Y-94603599D01*
X127379014Y-94465706D01*
X127605134Y-94280134D01*
X127790706Y-94054013D01*
X127928599Y-93796033D01*
X128013513Y-93516110D01*
X128035000Y-93297949D01*
X128035000Y-93002050D01*
X128013513Y-92783889D01*
X127928599Y-92503966D01*
X127790706Y-92245986D01*
X127615363Y-92032330D01*
X127801898Y-91995226D01*
X127990256Y-91917205D01*
X128159774Y-91803937D01*
X128303937Y-91659774D01*
X128388570Y-91533112D01*
X128398061Y-91535000D01*
X128460199Y-91535000D01*
X130136928Y-93211730D01*
X130136928Y-93256250D01*
X130153392Y-93423408D01*
X130202150Y-93584142D01*
X130281329Y-93732275D01*
X130387885Y-93862115D01*
X130517725Y-93968671D01*
X130665858Y-94047850D01*
X130826592Y-94096608D01*
X130993750Y-94113072D01*
X131431250Y-94113072D01*
X131598408Y-94096608D01*
X131759142Y-94047850D01*
X131907275Y-93968671D01*
X132000000Y-93892574D01*
X132092725Y-93968671D01*
X132240858Y-94047850D01*
X132401592Y-94096608D01*
X132568750Y-94113072D01*
X133006250Y-94113072D01*
X133173408Y-94096608D01*
X133334142Y-94047850D01*
X133482275Y-93968671D01*
X133612115Y-93862115D01*
X133718671Y-93732275D01*
X133797850Y-93584142D01*
X133840001Y-93445189D01*
X133840001Y-95019070D01*
X133747373Y-94878882D01*
X133202443Y-94588351D01*
X132611304Y-94409713D01*
X131996672Y-94349832D01*
X131382169Y-94411010D01*
X130791408Y-94590897D01*
X130252627Y-94878882D01*
X129976457Y-95296852D01*
X132000000Y-97320395D01*
X132014143Y-97306253D01*
X132193748Y-97485858D01*
X132179605Y-97500000D01*
X132193748Y-97514143D01*
X132014143Y-97693748D01*
X132000000Y-97679605D01*
X131985858Y-97693748D01*
X131806253Y-97514143D01*
X131820395Y-97500000D01*
X129796852Y-95476457D01*
X129378882Y-95752627D01*
X129088351Y-96297557D01*
X128909713Y-96888696D01*
X128849832Y-97503328D01*
X128911010Y-98117831D01*
X129090897Y-98708592D01*
X129378882Y-99247373D01*
X129519069Y-99340000D01*
X104471406Y-99340000D01*
X104708747Y-99255919D01*
X104846157Y-99182472D01*
X104923792Y-98933397D01*
X104075000Y-98084605D01*
X103226208Y-98933397D01*
X103303843Y-99182472D01*
X103567883Y-99308371D01*
X103692490Y-99340000D01*
X95821406Y-99340000D01*
X96058747Y-99255919D01*
X96196157Y-99182472D01*
X96273792Y-98933397D01*
X95558126Y-98217731D01*
X95590287Y-98111304D01*
X95609873Y-97910268D01*
X96453397Y-98753792D01*
X96702472Y-98676157D01*
X96828371Y-98412117D01*
X96900339Y-98128589D01*
X96908445Y-97973531D01*
X102584389Y-97973531D01*
X102626401Y-98263019D01*
X102724081Y-98538747D01*
X102797528Y-98676157D01*
X103046603Y-98753792D01*
X103895395Y-97905000D01*
X103046603Y-97056208D01*
X102797528Y-97133843D01*
X102671629Y-97397883D01*
X102599661Y-97681411D01*
X102584389Y-97973531D01*
X96908445Y-97973531D01*
X96915611Y-97836469D01*
X96873599Y-97546981D01*
X96775919Y-97271253D01*
X96702472Y-97133843D01*
X96453397Y-97056208D01*
X95611010Y-97898595D01*
X95649784Y-97500611D01*
X96273792Y-96876603D01*
X103226208Y-96876603D01*
X104075000Y-97725395D01*
X104089143Y-97711253D01*
X104268748Y-97890858D01*
X104254605Y-97905000D01*
X105103397Y-98753792D01*
X105352472Y-98676157D01*
X105478371Y-98412117D01*
X105550339Y-98128589D01*
X105565611Y-97836469D01*
X105536608Y-97636624D01*
X105914250Y-97635000D01*
X106073000Y-97476250D01*
X106073000Y-96127000D01*
X104723750Y-96127000D01*
X104565000Y-96285750D01*
X104564091Y-96497054D01*
X104298589Y-96429661D01*
X104006469Y-96414389D01*
X103716981Y-96456401D01*
X103441253Y-96554081D01*
X103303843Y-96627528D01*
X103226208Y-96876603D01*
X96273792Y-96876603D01*
X96196157Y-96627528D01*
X95932117Y-96501629D01*
X95648589Y-96429661D01*
X95448008Y-96419175D01*
X95409103Y-96291408D01*
X95121118Y-95752627D01*
X94703148Y-95476457D01*
X92679605Y-97500000D01*
X92693748Y-97514143D01*
X92514143Y-97693748D01*
X92500000Y-97679605D01*
X92485858Y-97693748D01*
X92306253Y-97514143D01*
X92320395Y-97500000D01*
X92306253Y-97485858D01*
X92485858Y-97306253D01*
X92500000Y-97320395D01*
X94523543Y-95296852D01*
X94247373Y-94878882D01*
X94212732Y-94860413D01*
X94469192Y-94860413D01*
X94564956Y-95124814D01*
X94854571Y-95265704D01*
X95166108Y-95347384D01*
X95487595Y-95366718D01*
X95806675Y-95322961D01*
X96111088Y-95217795D01*
X96285044Y-95124814D01*
X96380808Y-94860413D01*
X95425000Y-93904605D01*
X94469192Y-94860413D01*
X94212732Y-94860413D01*
X93702443Y-94588351D01*
X93111304Y-94409713D01*
X92496672Y-94349832D01*
X91882169Y-94411010D01*
X91291408Y-94590897D01*
X90752627Y-94878882D01*
X90660000Y-95019069D01*
X90660000Y-93787595D01*
X93783282Y-93787595D01*
X93827039Y-94106675D01*
X93932205Y-94411088D01*
X94025186Y-94585044D01*
X94289587Y-94680808D01*
X95245395Y-93725000D01*
X94289587Y-92769192D01*
X94025186Y-92864956D01*
X93884296Y-93154571D01*
X93802616Y-93466108D01*
X93783282Y-93787595D01*
X90660000Y-93787595D01*
X90660000Y-78813740D01*
X91015000Y-78813740D01*
X91015000Y-79106260D01*
X91072068Y-79393158D01*
X91184010Y-79663411D01*
X91346525Y-79906632D01*
X91553368Y-80113475D01*
X91727760Y-80230000D01*
X91553368Y-80346525D01*
X91346525Y-80553368D01*
X91184010Y-80796589D01*
X91072068Y-81066842D01*
X91015000Y-81353740D01*
X91015000Y-81646260D01*
X91072068Y-81933158D01*
X91184010Y-82203411D01*
X91346525Y-82446632D01*
X91553368Y-82653475D01*
X91727760Y-82770000D01*
X91553368Y-82886525D01*
X91346525Y-83093368D01*
X91184010Y-83336589D01*
X91072068Y-83606842D01*
X91015000Y-83893740D01*
X91015000Y-84186260D01*
X91072068Y-84473158D01*
X91184010Y-84743411D01*
X91346525Y-84986632D01*
X91553368Y-85193475D01*
X91727760Y-85310000D01*
X91553368Y-85426525D01*
X91346525Y-85633368D01*
X91184010Y-85876589D01*
X91072068Y-86146842D01*
X91015000Y-86433740D01*
X91015000Y-86726260D01*
X91072068Y-87013158D01*
X91184010Y-87283411D01*
X91346525Y-87526632D01*
X91553368Y-87733475D01*
X91727760Y-87850000D01*
X91553368Y-87966525D01*
X91346525Y-88173368D01*
X91184010Y-88416589D01*
X91072068Y-88686842D01*
X91015000Y-88973740D01*
X91015000Y-89266260D01*
X91072068Y-89553158D01*
X91184010Y-89823411D01*
X91346525Y-90066632D01*
X91553368Y-90273475D01*
X91796589Y-90435990D01*
X92066842Y-90547932D01*
X92353740Y-90605000D01*
X92646260Y-90605000D01*
X92933158Y-90547932D01*
X93203411Y-90435990D01*
X93446632Y-90273475D01*
X93653475Y-90066632D01*
X93815990Y-89823411D01*
X93927932Y-89553158D01*
X93985000Y-89266260D01*
X93985000Y-88973740D01*
X93927932Y-88686842D01*
X93815990Y-88416589D01*
X93653475Y-88173368D01*
X93446632Y-87966525D01*
X93272240Y-87850000D01*
X93446632Y-87733475D01*
X93653475Y-87526632D01*
X93815990Y-87283411D01*
X93927932Y-87013158D01*
X93985000Y-86726260D01*
X93985000Y-86433740D01*
X93927932Y-86146842D01*
X93815990Y-85876589D01*
X93653475Y-85633368D01*
X93446632Y-85426525D01*
X93272240Y-85310000D01*
X93446632Y-85193475D01*
X93653475Y-84986632D01*
X93815990Y-84743411D01*
X93927932Y-84473158D01*
X93985000Y-84186260D01*
X93985000Y-83893740D01*
X93927932Y-83606842D01*
X93815990Y-83336589D01*
X93653475Y-83093368D01*
X93446632Y-82886525D01*
X93272240Y-82770000D01*
X93446632Y-82653475D01*
X93653475Y-82446632D01*
X93815990Y-82203411D01*
X93927932Y-81933158D01*
X93985000Y-81646260D01*
X93985000Y-81353740D01*
X93927932Y-81066842D01*
X93815990Y-80796589D01*
X93653475Y-80553368D01*
X93446632Y-80346525D01*
X93272240Y-80230000D01*
X93446632Y-80113475D01*
X93653475Y-79906632D01*
X93815990Y-79663411D01*
X93927932Y-79393158D01*
X93985000Y-79106260D01*
X93985000Y-78813740D01*
X93927932Y-78526842D01*
X93815990Y-78256589D01*
X93653475Y-78013368D01*
X93446632Y-77806525D01*
X93273271Y-77690689D01*
X93348792Y-77448397D01*
X92500000Y-76599605D01*
X91651208Y-77448397D01*
X91726729Y-77690689D01*
X91553368Y-77806525D01*
X91346525Y-78013368D01*
X91184010Y-78256589D01*
X91072068Y-78526842D01*
X91015000Y-78813740D01*
X90660000Y-78813740D01*
X90660000Y-76488531D01*
X91009389Y-76488531D01*
X91051401Y-76778019D01*
X91149081Y-77053747D01*
X91222528Y-77191157D01*
X91471603Y-77268792D01*
X92320395Y-76420000D01*
X92679605Y-76420000D01*
X93528397Y-77268792D01*
X93777472Y-77191157D01*
X93903371Y-76927117D01*
X93975339Y-76643589D01*
X93990611Y-76351469D01*
X93948599Y-76061981D01*
X93850919Y-75786253D01*
X93777472Y-75648843D01*
X93528397Y-75571208D01*
X92679605Y-76420000D01*
X92320395Y-76420000D01*
X91471603Y-75571208D01*
X91222528Y-75648843D01*
X91096629Y-75912883D01*
X91024661Y-76196411D01*
X91009389Y-76488531D01*
X90660000Y-76488531D01*
X90660000Y-67980931D01*
X90752627Y-68121118D01*
X91297557Y-68411649D01*
X91888696Y-68590287D01*
X92503328Y-68650168D01*
X93117831Y-68588990D01*
X93708592Y-68409103D01*
X94247373Y-68121118D01*
X94523543Y-67703148D01*
X92500000Y-65679605D01*
X92485858Y-65693748D01*
X92306253Y-65514143D01*
X92320395Y-65500000D01*
X92306253Y-65485858D01*
X92485858Y-65306253D01*
X92500000Y-65320395D01*
X92514143Y-65306253D01*
X92693748Y-65485858D01*
X92679605Y-65500000D01*
X94703148Y-67523543D01*
X95121118Y-67247373D01*
X95411649Y-66702443D01*
X95590287Y-66111304D01*
X95650168Y-65496672D01*
X95588990Y-64882169D01*
X95409103Y-64291408D01*
X95121118Y-63752627D01*
X94980931Y-63660000D01*
X100590000Y-63660000D01*
X100590001Y-69067571D01*
%TA.AperFunction,Conductor*%
D36*
G36*
X100590001Y-69067571D02*
G01*
X100586807Y-69100000D01*
X100599550Y-69229383D01*
X100637290Y-69353793D01*
X100698575Y-69468450D01*
X100781052Y-69568948D01*
X100811757Y-69594147D01*
X100733368Y-69646525D01*
X100526525Y-69853368D01*
X100410689Y-70026729D01*
X100168397Y-69951208D01*
X99319605Y-70800000D01*
X100168397Y-71648792D01*
X100410689Y-71573271D01*
X100526525Y-71746632D01*
X100733368Y-71953475D01*
X100976589Y-72115990D01*
X101246842Y-72227932D01*
X101533740Y-72285000D01*
X101826260Y-72285000D01*
X102010050Y-72248442D01*
X104165023Y-74403415D01*
X104165023Y-76592888D01*
X104163312Y-76575518D01*
X104127002Y-76455820D01*
X104068037Y-76345506D01*
X103988685Y-76248815D01*
X103891994Y-76169463D01*
X103781680Y-76110498D01*
X103661982Y-76074188D01*
X103585000Y-76066606D01*
X103585000Y-75806638D01*
X103588676Y-75769315D01*
X103585000Y-75731992D01*
X103585000Y-75731983D01*
X103574003Y-75620330D01*
X103530546Y-75477069D01*
X103515544Y-75449003D01*
X103459974Y-75345039D01*
X103388799Y-75258313D01*
X103365001Y-75229315D01*
X103336002Y-75205517D01*
X102694487Y-74564002D01*
X102670685Y-74534999D01*
X102554960Y-74440026D01*
X102422931Y-74369454D01*
X102279670Y-74325997D01*
X102168017Y-74315000D01*
X102168006Y-74315000D01*
X102130684Y-74311324D01*
X102093362Y-74315000D01*
X95164802Y-74315000D01*
X94218804Y-73369003D01*
X94195001Y-73339999D01*
X94150952Y-73303849D01*
X95577347Y-71877454D01*
X95653368Y-71953475D01*
X95896589Y-72115990D01*
X96166842Y-72227932D01*
X96453740Y-72285000D01*
X96746260Y-72285000D01*
X97033158Y-72227932D01*
X97303411Y-72115990D01*
X97546632Y-71953475D01*
X97671710Y-71828397D01*
X98291208Y-71828397D01*
X98368843Y-72077472D01*
X98632883Y-72203371D01*
X98916411Y-72275339D01*
X99208531Y-72290611D01*
X99498019Y-72248599D01*
X99773747Y-72150919D01*
X99911157Y-72077472D01*
X99988792Y-71828397D01*
X99140000Y-70979605D01*
X98291208Y-71828397D01*
X97671710Y-71828397D01*
X97753475Y-71746632D01*
X97869311Y-71573271D01*
X98111603Y-71648792D01*
X98960395Y-70800000D01*
X98111603Y-69951208D01*
X97869311Y-70026729D01*
X97753475Y-69853368D01*
X97671710Y-69771603D01*
X98291208Y-69771603D01*
X99140000Y-70620395D01*
X99988792Y-69771603D01*
X99911157Y-69522528D01*
X99647117Y-69396629D01*
X99363589Y-69324661D01*
X99071469Y-69309389D01*
X98781981Y-69351401D01*
X98506253Y-69449081D01*
X98368843Y-69522528D01*
X98291208Y-69771603D01*
X97671710Y-69771603D01*
X97546632Y-69646525D01*
X97303411Y-69484010D01*
X97033158Y-69372068D01*
X96746260Y-69315000D01*
X96453740Y-69315000D01*
X96166842Y-69372068D01*
X95896589Y-69484010D01*
X95653368Y-69646525D01*
X95446525Y-69853368D01*
X95284150Y-70096380D01*
X95155724Y-70165026D01*
X95039999Y-70259999D01*
X95016201Y-70288997D01*
X92866408Y-72438791D01*
X92646260Y-72395000D01*
X92353740Y-72395000D01*
X92066842Y-72452068D01*
X91796589Y-72564010D01*
X91553368Y-72726525D01*
X91346525Y-72933368D01*
X91184010Y-73176589D01*
X91072068Y-73446842D01*
X91015000Y-73733740D01*
X91015000Y-74026260D01*
X91072068Y-74313158D01*
X91184010Y-74583411D01*
X91346525Y-74826632D01*
X91553368Y-75033475D01*
X91726729Y-75149311D01*
X91651208Y-75391603D01*
X92500000Y-76240395D01*
X93348792Y-75391603D01*
X93273271Y-75149311D01*
X93446632Y-75033475D01*
X93590153Y-74889954D01*
X94286200Y-75586002D01*
X94309999Y-75615001D01*
X94425724Y-75709974D01*
X94557753Y-75780546D01*
X94701014Y-75824003D01*
X94812667Y-75835000D01*
X94812676Y-75835000D01*
X94849999Y-75838676D01*
X94887322Y-75835000D01*
X95891297Y-75835000D01*
X95880923Y-75854510D01*
X95854681Y-75918177D01*
X95827537Y-75981509D01*
X95824400Y-75991645D01*
X95794449Y-76090847D01*
X95723815Y-76148815D01*
X95644463Y-76245506D01*
X95585498Y-76355820D01*
X95549188Y-76475518D01*
X95536928Y-76600000D01*
X95536928Y-76636928D01*
X95075000Y-76636928D01*
X94906623Y-76653512D01*
X94744717Y-76702625D01*
X94595503Y-76782382D01*
X94464716Y-76889716D01*
X94357382Y-77020503D01*
X94277625Y-77169717D01*
X94228512Y-77331623D01*
X94211928Y-77500000D01*
X94211928Y-77950000D01*
X94228512Y-78118377D01*
X94277625Y-78280283D01*
X94357382Y-78429497D01*
X94415242Y-78500000D01*
X94357382Y-78570503D01*
X94277625Y-78719717D01*
X94228512Y-78881623D01*
X94211928Y-79050000D01*
X94211928Y-79500000D01*
X94228512Y-79668377D01*
X94277625Y-79830283D01*
X94357382Y-79979497D01*
X94464716Y-80110284D01*
X94595503Y-80217618D01*
X94744717Y-80297375D01*
X94906623Y-80346488D01*
X95075000Y-80363072D01*
X95358143Y-80363072D01*
X95279528Y-80510150D01*
X95228992Y-80676746D01*
X95211928Y-80850000D01*
X95211928Y-81138270D01*
X94263993Y-82086206D01*
X94234989Y-82110009D01*
X94185369Y-82170472D01*
X94140016Y-82225734D01*
X94087499Y-82323986D01*
X94069444Y-82357764D01*
X94025987Y-82501025D01*
X94014990Y-82612678D01*
X94014990Y-82612688D01*
X94011314Y-82650010D01*
X94014990Y-82687332D01*
X94014991Y-91610660D01*
X94011314Y-91647992D01*
X94014991Y-91685325D01*
X94025988Y-91796978D01*
X94037514Y-91834974D01*
X94069444Y-91940238D01*
X94140016Y-92072268D01*
X94208789Y-92156067D01*
X94234990Y-92187993D01*
X94263988Y-92211791D01*
X94515082Y-92462886D01*
X94469192Y-92589587D01*
X95425000Y-93545395D01*
X95439143Y-93531253D01*
X95611938Y-93704048D01*
X95611928Y-93705000D01*
X95613065Y-93716540D01*
X95604605Y-93725000D01*
X95614913Y-93735308D01*
X95624188Y-93829482D01*
X95660498Y-93949180D01*
X95719463Y-94059494D01*
X95798815Y-94156185D01*
X95895506Y-94235537D01*
X96005820Y-94294502D01*
X96125518Y-94330812D01*
X96219692Y-94340087D01*
X96560413Y-94680808D01*
X96824814Y-94585044D01*
X96905134Y-94419937D01*
X97026195Y-94540998D01*
X97049998Y-94570002D01*
X97165723Y-94664975D01*
X97297752Y-94735547D01*
X97441013Y-94779004D01*
X97552666Y-94790001D01*
X97552676Y-94790001D01*
X97589999Y-94793677D01*
X97627322Y-94790001D01*
X101872679Y-94790001D01*
X101910001Y-94793677D01*
X101947323Y-94790001D01*
X101947334Y-94790001D01*
X102058987Y-94779004D01*
X102202248Y-94735547D01*
X102334277Y-94664975D01*
X102450002Y-94570002D01*
X102473805Y-94540998D01*
X102589697Y-94425106D01*
X102675186Y-94585044D01*
X102939587Y-94680808D01*
X103035000Y-94585395D01*
X103035000Y-94702002D01*
X103189748Y-94702002D01*
X103035000Y-94856750D01*
X103038590Y-94916965D01*
X103068664Y-95038380D01*
X103121847Y-95151595D01*
X103196095Y-95252259D01*
X103288555Y-95336503D01*
X103395674Y-95401091D01*
X103513335Y-95443540D01*
X103611250Y-95460000D01*
X103743027Y-95328223D01*
X103816108Y-95347384D01*
X103816136Y-95347386D01*
X103928750Y-95460000D01*
X104026665Y-95443540D01*
X104144326Y-95401091D01*
X104220098Y-95355404D01*
X104456675Y-95322961D01*
X104563159Y-95286174D01*
X104565000Y-95714250D01*
X104723750Y-95873000D01*
X106073000Y-95873000D01*
X106073000Y-95853000D01*
X106327000Y-95853000D01*
X106327000Y-95873000D01*
X106347000Y-95873000D01*
X106347000Y-96127000D01*
X106327000Y-96127000D01*
X106327000Y-97476250D01*
X106485750Y-97635000D01*
X107200000Y-97638072D01*
X107324482Y-97625812D01*
X107444180Y-97589502D01*
X107554494Y-97530537D01*
X107651185Y-97451185D01*
X107730537Y-97354494D01*
X107755191Y-97308370D01*
X107965537Y-97448918D01*
X108263088Y-97572168D01*
X108578967Y-97635000D01*
X108901033Y-97635000D01*
X109216912Y-97572168D01*
X109514463Y-97448918D01*
X109782252Y-97269987D01*
X110009987Y-97042252D01*
X110188918Y-96774463D01*
X110312168Y-96476912D01*
X110375000Y-96161033D01*
X110375000Y-95838967D01*
X110312168Y-95523088D01*
X110188918Y-95225537D01*
X110009987Y-94957748D01*
X109782252Y-94730013D01*
X109755722Y-94712286D01*
X109900000Y-94713072D01*
X110024482Y-94700812D01*
X110144180Y-94664502D01*
X110215085Y-94626602D01*
X110499496Y-94911012D01*
X110523294Y-94940011D01*
X110639019Y-95034984D01*
X110771048Y-95105556D01*
X110914309Y-95149013D01*
X111025962Y-95160010D01*
X111025971Y-95160010D01*
X111063294Y-95163686D01*
X111100617Y-95160010D01*
X115262668Y-95160010D01*
X115299990Y-95163686D01*
X115337312Y-95160010D01*
X115337323Y-95160010D01*
X115448976Y-95149013D01*
X115592237Y-95105556D01*
X115724266Y-95034984D01*
X115839991Y-94940011D01*
X115863794Y-94911007D01*
X116126460Y-94648341D01*
X116258890Y-94688513D01*
X116550000Y-94717185D01*
X116841111Y-94688513D01*
X117121034Y-94603599D01*
X117379014Y-94465706D01*
X117605134Y-94280134D01*
X117790706Y-94054013D01*
X117800000Y-94036626D01*
X117809294Y-94054014D01*
X117994866Y-94280134D01*
X118220987Y-94465706D01*
X118478967Y-94603599D01*
X118758890Y-94688513D01*
X119050000Y-94717185D01*
X119341111Y-94688513D01*
X119621034Y-94603599D01*
X119879014Y-94465706D01*
X120105134Y-94280134D01*
X120290706Y-94054013D01*
X120300000Y-94036626D01*
X120309294Y-94054014D01*
X120494866Y-94280134D01*
X120720987Y-94465706D01*
X120978967Y-94603599D01*
X121258890Y-94688513D01*
X121550000Y-94717185D01*
X121841111Y-94688513D01*
X122121034Y-94603599D01*
X122379014Y-94465706D01*
X122605134Y-94280134D01*
X122790706Y-94054013D01*
X122800000Y-94036626D01*
X122809294Y-94054014D01*
X122994866Y-94280134D01*
X123220987Y-94465706D01*
X123478967Y-94603599D01*
X123758890Y-94688513D01*
X124050000Y-94717185D01*
X124341111Y-94688513D01*
X124621034Y-94603599D01*
X124879014Y-94465706D01*
X125105134Y-94280134D01*
X125290706Y-94054013D01*
X125300000Y-94036626D01*
X125309294Y-94054014D01*
X125494866Y-94280134D01*
X125720987Y-94465706D01*
X125978967Y-94603599D01*
X126258890Y-94688513D01*
X126550000Y-94717185D01*
X126841111Y-94688513D01*
X127121034Y-94603599D01*
X127379014Y-94465706D01*
X127605134Y-94280134D01*
X127790706Y-94054013D01*
X127928599Y-93796033D01*
X128013513Y-93516110D01*
X128035000Y-93297949D01*
X128035000Y-93002050D01*
X128013513Y-92783889D01*
X127928599Y-92503966D01*
X127790706Y-92245986D01*
X127615363Y-92032330D01*
X127801898Y-91995226D01*
X127990256Y-91917205D01*
X128159774Y-91803937D01*
X128303937Y-91659774D01*
X128388570Y-91533112D01*
X128398061Y-91535000D01*
X128460199Y-91535000D01*
X130136928Y-93211730D01*
X130136928Y-93256250D01*
X130153392Y-93423408D01*
X130202150Y-93584142D01*
X130281329Y-93732275D01*
X130387885Y-93862115D01*
X130517725Y-93968671D01*
X130665858Y-94047850D01*
X130826592Y-94096608D01*
X130993750Y-94113072D01*
X131431250Y-94113072D01*
X131598408Y-94096608D01*
X131759142Y-94047850D01*
X131907275Y-93968671D01*
X132000000Y-93892574D01*
X132092725Y-93968671D01*
X132240858Y-94047850D01*
X132401592Y-94096608D01*
X132568750Y-94113072D01*
X133006250Y-94113072D01*
X133173408Y-94096608D01*
X133334142Y-94047850D01*
X133482275Y-93968671D01*
X133612115Y-93862115D01*
X133718671Y-93732275D01*
X133797850Y-93584142D01*
X133840001Y-93445189D01*
X133840001Y-95019070D01*
X133747373Y-94878882D01*
X133202443Y-94588351D01*
X132611304Y-94409713D01*
X131996672Y-94349832D01*
X131382169Y-94411010D01*
X130791408Y-94590897D01*
X130252627Y-94878882D01*
X129976457Y-95296852D01*
X132000000Y-97320395D01*
X132014143Y-97306253D01*
X132193748Y-97485858D01*
X132179605Y-97500000D01*
X132193748Y-97514143D01*
X132014143Y-97693748D01*
X132000000Y-97679605D01*
X131985858Y-97693748D01*
X131806253Y-97514143D01*
X131820395Y-97500000D01*
X129796852Y-95476457D01*
X129378882Y-95752627D01*
X129088351Y-96297557D01*
X128909713Y-96888696D01*
X128849832Y-97503328D01*
X128911010Y-98117831D01*
X129090897Y-98708592D01*
X129378882Y-99247373D01*
X129519069Y-99340000D01*
X104471406Y-99340000D01*
X104708747Y-99255919D01*
X104846157Y-99182472D01*
X104923792Y-98933397D01*
X104075000Y-98084605D01*
X103226208Y-98933397D01*
X103303843Y-99182472D01*
X103567883Y-99308371D01*
X103692490Y-99340000D01*
X95821406Y-99340000D01*
X96058747Y-99255919D01*
X96196157Y-99182472D01*
X96273792Y-98933397D01*
X95558126Y-98217731D01*
X95590287Y-98111304D01*
X95609873Y-97910268D01*
X96453397Y-98753792D01*
X96702472Y-98676157D01*
X96828371Y-98412117D01*
X96900339Y-98128589D01*
X96908445Y-97973531D01*
X102584389Y-97973531D01*
X102626401Y-98263019D01*
X102724081Y-98538747D01*
X102797528Y-98676157D01*
X103046603Y-98753792D01*
X103895395Y-97905000D01*
X103046603Y-97056208D01*
X102797528Y-97133843D01*
X102671629Y-97397883D01*
X102599661Y-97681411D01*
X102584389Y-97973531D01*
X96908445Y-97973531D01*
X96915611Y-97836469D01*
X96873599Y-97546981D01*
X96775919Y-97271253D01*
X96702472Y-97133843D01*
X96453397Y-97056208D01*
X95611010Y-97898595D01*
X95649784Y-97500611D01*
X96273792Y-96876603D01*
X103226208Y-96876603D01*
X104075000Y-97725395D01*
X104089143Y-97711253D01*
X104268748Y-97890858D01*
X104254605Y-97905000D01*
X105103397Y-98753792D01*
X105352472Y-98676157D01*
X105478371Y-98412117D01*
X105550339Y-98128589D01*
X105565611Y-97836469D01*
X105536608Y-97636624D01*
X105914250Y-97635000D01*
X106073000Y-97476250D01*
X106073000Y-96127000D01*
X104723750Y-96127000D01*
X104565000Y-96285750D01*
X104564091Y-96497054D01*
X104298589Y-96429661D01*
X104006469Y-96414389D01*
X103716981Y-96456401D01*
X103441253Y-96554081D01*
X103303843Y-96627528D01*
X103226208Y-96876603D01*
X96273792Y-96876603D01*
X96196157Y-96627528D01*
X95932117Y-96501629D01*
X95648589Y-96429661D01*
X95448008Y-96419175D01*
X95409103Y-96291408D01*
X95121118Y-95752627D01*
X94703148Y-95476457D01*
X92679605Y-97500000D01*
X92693748Y-97514143D01*
X92514143Y-97693748D01*
X92500000Y-97679605D01*
X92485858Y-97693748D01*
X92306253Y-97514143D01*
X92320395Y-97500000D01*
X92306253Y-97485858D01*
X92485858Y-97306253D01*
X92500000Y-97320395D01*
X94523543Y-95296852D01*
X94247373Y-94878882D01*
X94212732Y-94860413D01*
X94469192Y-94860413D01*
X94564956Y-95124814D01*
X94854571Y-95265704D01*
X95166108Y-95347384D01*
X95487595Y-95366718D01*
X95806675Y-95322961D01*
X96111088Y-95217795D01*
X96285044Y-95124814D01*
X96380808Y-94860413D01*
X95425000Y-93904605D01*
X94469192Y-94860413D01*
X94212732Y-94860413D01*
X93702443Y-94588351D01*
X93111304Y-94409713D01*
X92496672Y-94349832D01*
X91882169Y-94411010D01*
X91291408Y-94590897D01*
X90752627Y-94878882D01*
X90660000Y-95019069D01*
X90660000Y-93787595D01*
X93783282Y-93787595D01*
X93827039Y-94106675D01*
X93932205Y-94411088D01*
X94025186Y-94585044D01*
X94289587Y-94680808D01*
X95245395Y-93725000D01*
X94289587Y-92769192D01*
X94025186Y-92864956D01*
X93884296Y-93154571D01*
X93802616Y-93466108D01*
X93783282Y-93787595D01*
X90660000Y-93787595D01*
X90660000Y-78813740D01*
X91015000Y-78813740D01*
X91015000Y-79106260D01*
X91072068Y-79393158D01*
X91184010Y-79663411D01*
X91346525Y-79906632D01*
X91553368Y-80113475D01*
X91727760Y-80230000D01*
X91553368Y-80346525D01*
X91346525Y-80553368D01*
X91184010Y-80796589D01*
X91072068Y-81066842D01*
X91015000Y-81353740D01*
X91015000Y-81646260D01*
X91072068Y-81933158D01*
X91184010Y-82203411D01*
X91346525Y-82446632D01*
X91553368Y-82653475D01*
X91727760Y-82770000D01*
X91553368Y-82886525D01*
X91346525Y-83093368D01*
X91184010Y-83336589D01*
X91072068Y-83606842D01*
X91015000Y-83893740D01*
X91015000Y-84186260D01*
X91072068Y-84473158D01*
X91184010Y-84743411D01*
X91346525Y-84986632D01*
X91553368Y-85193475D01*
X91727760Y-85310000D01*
X91553368Y-85426525D01*
X91346525Y-85633368D01*
X91184010Y-85876589D01*
X91072068Y-86146842D01*
X91015000Y-86433740D01*
X91015000Y-86726260D01*
X91072068Y-87013158D01*
X91184010Y-87283411D01*
X91346525Y-87526632D01*
X91553368Y-87733475D01*
X91727760Y-87850000D01*
X91553368Y-87966525D01*
X91346525Y-88173368D01*
X91184010Y-88416589D01*
X91072068Y-88686842D01*
X91015000Y-88973740D01*
X91015000Y-89266260D01*
X91072068Y-89553158D01*
X91184010Y-89823411D01*
X91346525Y-90066632D01*
X91553368Y-90273475D01*
X91796589Y-90435990D01*
X92066842Y-90547932D01*
X92353740Y-90605000D01*
X92646260Y-90605000D01*
X92933158Y-90547932D01*
X93203411Y-90435990D01*
X93446632Y-90273475D01*
X93653475Y-90066632D01*
X93815990Y-89823411D01*
X93927932Y-89553158D01*
X93985000Y-89266260D01*
X93985000Y-88973740D01*
X93927932Y-88686842D01*
X93815990Y-88416589D01*
X93653475Y-88173368D01*
X93446632Y-87966525D01*
X93272240Y-87850000D01*
X93446632Y-87733475D01*
X93653475Y-87526632D01*
X93815990Y-87283411D01*
X93927932Y-87013158D01*
X93985000Y-86726260D01*
X93985000Y-86433740D01*
X93927932Y-86146842D01*
X93815990Y-85876589D01*
X93653475Y-85633368D01*
X93446632Y-85426525D01*
X93272240Y-85310000D01*
X93446632Y-85193475D01*
X93653475Y-84986632D01*
X93815990Y-84743411D01*
X93927932Y-84473158D01*
X93985000Y-84186260D01*
X93985000Y-83893740D01*
X93927932Y-83606842D01*
X93815990Y-83336589D01*
X93653475Y-83093368D01*
X93446632Y-82886525D01*
X93272240Y-82770000D01*
X93446632Y-82653475D01*
X93653475Y-82446632D01*
X93815990Y-82203411D01*
X93927932Y-81933158D01*
X93985000Y-81646260D01*
X93985000Y-81353740D01*
X93927932Y-81066842D01*
X93815990Y-80796589D01*
X93653475Y-80553368D01*
X93446632Y-80346525D01*
X93272240Y-80230000D01*
X93446632Y-80113475D01*
X93653475Y-79906632D01*
X93815990Y-79663411D01*
X93927932Y-79393158D01*
X93985000Y-79106260D01*
X93985000Y-78813740D01*
X93927932Y-78526842D01*
X93815990Y-78256589D01*
X93653475Y-78013368D01*
X93446632Y-77806525D01*
X93273271Y-77690689D01*
X93348792Y-77448397D01*
X92500000Y-76599605D01*
X91651208Y-77448397D01*
X91726729Y-77690689D01*
X91553368Y-77806525D01*
X91346525Y-78013368D01*
X91184010Y-78256589D01*
X91072068Y-78526842D01*
X91015000Y-78813740D01*
X90660000Y-78813740D01*
X90660000Y-76488531D01*
X91009389Y-76488531D01*
X91051401Y-76778019D01*
X91149081Y-77053747D01*
X91222528Y-77191157D01*
X91471603Y-77268792D01*
X92320395Y-76420000D01*
X92679605Y-76420000D01*
X93528397Y-77268792D01*
X93777472Y-77191157D01*
X93903371Y-76927117D01*
X93975339Y-76643589D01*
X93990611Y-76351469D01*
X93948599Y-76061981D01*
X93850919Y-75786253D01*
X93777472Y-75648843D01*
X93528397Y-75571208D01*
X92679605Y-76420000D01*
X92320395Y-76420000D01*
X91471603Y-75571208D01*
X91222528Y-75648843D01*
X91096629Y-75912883D01*
X91024661Y-76196411D01*
X91009389Y-76488531D01*
X90660000Y-76488531D01*
X90660000Y-67980931D01*
X90752627Y-68121118D01*
X91297557Y-68411649D01*
X91888696Y-68590287D01*
X92503328Y-68650168D01*
X93117831Y-68588990D01*
X93708592Y-68409103D01*
X94247373Y-68121118D01*
X94523543Y-67703148D01*
X92500000Y-65679605D01*
X92485858Y-65693748D01*
X92306253Y-65514143D01*
X92320395Y-65500000D01*
X92306253Y-65485858D01*
X92485858Y-65306253D01*
X92500000Y-65320395D01*
X92514143Y-65306253D01*
X92693748Y-65485858D01*
X92679605Y-65500000D01*
X94703148Y-67523543D01*
X95121118Y-67247373D01*
X95411649Y-66702443D01*
X95590287Y-66111304D01*
X95650168Y-65496672D01*
X95588990Y-64882169D01*
X95409103Y-64291408D01*
X95121118Y-63752627D01*
X94980931Y-63660000D01*
X100590000Y-63660000D01*
X100590001Y-69067571D01*
G37*
%TD.AperFunction*%
D35*
X104268748Y-93710858D02*
X104254605Y-93725000D01*
X104268748Y-93739143D01*
X104215853Y-93792037D01*
X104144326Y-93748909D01*
X104026665Y-93706460D01*
X103928750Y-93690000D01*
X103897002Y-93721749D01*
X103897002Y-93695108D01*
X104060858Y-93531253D01*
X104075000Y-93545395D01*
X104089143Y-93531253D01*
X104268748Y-93710858D01*
%TA.AperFunction,Conductor*%
D36*
G36*
X104268748Y-93710858D02*
G01*
X104254605Y-93725000D01*
X104268748Y-93739143D01*
X104215853Y-93792037D01*
X104144326Y-93748909D01*
X104026665Y-93706460D01*
X103928750Y-93690000D01*
X103897002Y-93721749D01*
X103897002Y-93695108D01*
X104060858Y-93531253D01*
X104075000Y-93545395D01*
X104089143Y-93531253D01*
X104268748Y-93710858D01*
G37*
%TD.AperFunction*%
D35*
X109177000Y-93023000D02*
X109197000Y-93023000D01*
X109197000Y-93277000D01*
X109177000Y-93277000D01*
X109177000Y-93297000D01*
X108923000Y-93297000D01*
X108923000Y-93277000D01*
X107723750Y-93277000D01*
X107565000Y-93435750D01*
X107563496Y-93748695D01*
X107100428Y-93285627D01*
X107113201Y-93286885D01*
X107150523Y-93283209D01*
X107150534Y-93283209D01*
X107262187Y-93272212D01*
X107405448Y-93228755D01*
X107537477Y-93158183D01*
X107653202Y-93063210D01*
X107677004Y-93034207D01*
X107705981Y-93005231D01*
X107723750Y-93023000D01*
X108923000Y-93023000D01*
X108923000Y-93003000D01*
X109177000Y-93003000D01*
X109177000Y-93023000D01*
%TA.AperFunction,Conductor*%
D36*
G36*
X109177000Y-93023000D02*
G01*
X109197000Y-93023000D01*
X109197000Y-93277000D01*
X109177000Y-93277000D01*
X109177000Y-93297000D01*
X108923000Y-93297000D01*
X108923000Y-93277000D01*
X107723750Y-93277000D01*
X107565000Y-93435750D01*
X107563496Y-93748695D01*
X107100428Y-93285627D01*
X107113201Y-93286885D01*
X107150523Y-93283209D01*
X107150534Y-93283209D01*
X107262187Y-93272212D01*
X107405448Y-93228755D01*
X107537477Y-93158183D01*
X107653202Y-93063210D01*
X107677004Y-93034207D01*
X107705981Y-93005231D01*
X107723750Y-93023000D01*
X108923000Y-93023000D01*
X108923000Y-93003000D01*
X109177000Y-93003000D01*
X109177000Y-93023000D01*
G37*
%TD.AperFunction*%
D35*
X130252627Y-68121118D02*
X130797557Y-68411649D01*
X131388696Y-68590287D01*
X132003328Y-68650168D01*
X132617831Y-68588990D01*
X133208592Y-68409103D01*
X133747373Y-68121118D01*
X133840000Y-67980931D01*
X133840000Y-77015000D01*
X130410000Y-77015000D01*
X130410000Y-89660199D01*
X129738804Y-88989003D01*
X129715001Y-88959999D01*
X129599276Y-88865026D01*
X129467247Y-88794454D01*
X129323986Y-88750997D01*
X129212333Y-88740000D01*
X129212322Y-88740000D01*
X129175000Y-88736324D01*
X129137678Y-88740000D01*
X128037325Y-88740000D01*
X128000000Y-88736324D01*
X127962675Y-88740000D01*
X127962667Y-88740000D01*
X127851014Y-88750997D01*
X127707753Y-88794454D01*
X127575724Y-88865026D01*
X127459999Y-88959999D01*
X127436196Y-88989003D01*
X126988998Y-89436201D01*
X126960000Y-89459999D01*
X126936202Y-89488997D01*
X126936201Y-89488998D01*
X126865026Y-89575724D01*
X126794454Y-89707754D01*
X126764315Y-89807114D01*
X126750998Y-89851014D01*
X126747348Y-89888072D01*
X126736324Y-90000000D01*
X126740001Y-90037332D01*
X126740001Y-90296288D01*
X126696063Y-90340226D01*
X126582795Y-90509744D01*
X126504774Y-90698102D01*
X126465000Y-90898061D01*
X126465000Y-91101939D01*
X126504774Y-91301898D01*
X126582795Y-91490256D01*
X126651308Y-91592793D01*
X126550000Y-91582815D01*
X126258889Y-91611487D01*
X126126461Y-91651659D01*
X125463803Y-90989002D01*
X125440001Y-90959999D01*
X125324276Y-90865026D01*
X125192247Y-90794454D01*
X125048986Y-90750997D01*
X124937333Y-90740000D01*
X124937322Y-90740000D01*
X124900000Y-90736324D01*
X124862678Y-90740000D01*
X123860000Y-90740000D01*
X123860000Y-90714801D01*
X124214802Y-90360000D01*
X124662678Y-90360000D01*
X124700000Y-90363676D01*
X124737322Y-90360000D01*
X124737333Y-90360000D01*
X124848986Y-90349003D01*
X124992247Y-90305546D01*
X125124276Y-90234974D01*
X125240001Y-90140001D01*
X125263803Y-90110998D01*
X126036014Y-89338787D01*
X126065013Y-89314989D01*
X126159986Y-89199264D01*
X126230558Y-89067235D01*
X126274015Y-88923974D01*
X126285012Y-88812321D01*
X126285012Y-88812312D01*
X126288688Y-88774989D01*
X126285012Y-88737666D01*
X126285012Y-85125921D01*
X126288688Y-85088598D01*
X126285012Y-85051275D01*
X126285012Y-85051266D01*
X126274015Y-84939613D01*
X126230558Y-84796352D01*
X126159986Y-84664323D01*
X126065013Y-84548598D01*
X126036015Y-84524800D01*
X125960000Y-84448785D01*
X125960000Y-73522325D01*
X125963676Y-73485000D01*
X125960000Y-73447675D01*
X125960000Y-73447667D01*
X125949003Y-73336014D01*
X125907745Y-73200000D01*
X126636323Y-73200000D01*
X126642499Y-73262702D01*
X126646714Y-73325547D01*
X126649825Y-73337087D01*
X126650997Y-73348986D01*
X126669293Y-73409300D01*
X126685682Y-73470094D01*
X126690981Y-73480799D01*
X126694454Y-73492247D01*
X126724160Y-73547822D01*
X126752099Y-73604261D01*
X126759392Y-73613735D01*
X126765026Y-73624276D01*
X126804990Y-73672972D01*
X126843416Y-73722892D01*
X126852415Y-73730759D01*
X126859999Y-73740001D01*
X126908695Y-73779965D01*
X126927880Y-73796738D01*
X126937547Y-73803643D01*
X126975724Y-73834974D01*
X126998318Y-73847051D01*
X129037556Y-75303649D01*
X129075725Y-75334974D01*
X129098315Y-75347049D01*
X131188637Y-76840136D01*
X131285885Y-76896085D01*
X131427720Y-76943991D01*
X131576176Y-76963304D01*
X131725547Y-76953286D01*
X131870094Y-76914318D01*
X132004261Y-76847901D01*
X132122892Y-76756583D01*
X132221429Y-76643878D01*
X132296085Y-76514114D01*
X132343991Y-76372279D01*
X132363304Y-76223823D01*
X132353285Y-76074452D01*
X132314318Y-75929905D01*
X132247901Y-75795738D01*
X132156583Y-75677107D01*
X132072120Y-75603261D01*
X131841674Y-75438657D01*
X131908008Y-75424557D01*
X131975599Y-75411174D01*
X131985735Y-75408036D01*
X132125258Y-75363777D01*
X132188590Y-75336633D01*
X132252257Y-75310391D01*
X132261591Y-75305344D01*
X132389860Y-75234827D01*
X132446700Y-75195907D01*
X132504064Y-75157796D01*
X132512240Y-75151032D01*
X132624370Y-75056945D01*
X132672571Y-75007725D01*
X132721449Y-74959186D01*
X132728156Y-74950962D01*
X132819874Y-74836886D01*
X132857603Y-74779229D01*
X132896105Y-74722149D01*
X132901086Y-74712779D01*
X132901091Y-74712772D01*
X132901096Y-74712761D01*
X132968901Y-74583062D01*
X132994696Y-74519219D01*
X133021401Y-74455690D01*
X133024464Y-74445542D01*
X133024466Y-74445537D01*
X133024467Y-74445532D01*
X133065794Y-74305113D01*
X133078700Y-74237456D01*
X133092551Y-74169981D01*
X133093587Y-74159420D01*
X133106854Y-74013649D01*
X133106373Y-73944764D01*
X133106854Y-73875879D01*
X133105818Y-73865319D01*
X133090517Y-73719746D01*
X133076667Y-73652278D01*
X133063760Y-73584614D01*
X133060693Y-73574455D01*
X133017409Y-73434626D01*
X132990716Y-73371126D01*
X132964912Y-73307258D01*
X132959930Y-73297889D01*
X132890311Y-73169131D01*
X132851770Y-73111991D01*
X132814075Y-73054387D01*
X132807373Y-73046169D01*
X132807369Y-73046163D01*
X132807364Y-73046158D01*
X132714067Y-72933380D01*
X132665174Y-72884828D01*
X132616994Y-72835628D01*
X132608818Y-72828864D01*
X132495387Y-72736351D01*
X132437964Y-72698200D01*
X132381178Y-72659317D01*
X132371847Y-72654271D01*
X132371839Y-72654267D01*
X132242603Y-72585551D01*
X132178921Y-72559303D01*
X132115600Y-72532164D01*
X132105463Y-72529026D01*
X131965336Y-72486720D01*
X131897750Y-72473338D01*
X131830394Y-72459021D01*
X131819841Y-72457911D01*
X131674165Y-72443627D01*
X131674158Y-72443627D01*
X131637333Y-72440000D01*
X131554476Y-72440000D01*
X132122946Y-71952740D01*
X132200563Y-71871727D01*
X132281053Y-71745499D01*
X132335369Y-71605994D01*
X132361427Y-71458572D01*
X132358223Y-71308899D01*
X132325882Y-71162728D01*
X132265644Y-71025675D01*
X132179826Y-70903006D01*
X132071726Y-70799437D01*
X131945498Y-70718947D01*
X131805992Y-70664631D01*
X131658571Y-70638573D01*
X131508898Y-70641777D01*
X131362726Y-70674118D01*
X131225673Y-70734356D01*
X131133743Y-70798670D01*
X129512234Y-72188535D01*
X127980663Y-70810122D01*
X127890316Y-70743605D01*
X127754759Y-70680069D01*
X127609413Y-70644202D01*
X127459863Y-70637379D01*
X127311854Y-70659863D01*
X127171075Y-70710790D01*
X127042937Y-70788203D01*
X126932364Y-70889128D01*
X126843605Y-71009684D01*
X126780069Y-71145241D01*
X126744202Y-71290587D01*
X126737379Y-71440137D01*
X126759863Y-71588146D01*
X126810790Y-71728925D01*
X126888203Y-71857063D01*
X126963838Y-71939929D01*
X127519472Y-72440000D01*
X127449227Y-72440000D01*
X127423823Y-72436695D01*
X127374550Y-72440000D01*
X127362667Y-72440000D01*
X127337298Y-72442499D01*
X127274453Y-72446714D01*
X127262913Y-72449825D01*
X127251014Y-72450997D01*
X127190700Y-72469293D01*
X127129906Y-72485682D01*
X127119201Y-72490981D01*
X127107753Y-72494454D01*
X127052178Y-72524160D01*
X126995739Y-72552099D01*
X126986265Y-72559392D01*
X126975724Y-72565026D01*
X126927028Y-72604990D01*
X126877108Y-72643416D01*
X126869241Y-72652414D01*
X126859999Y-72659999D01*
X126820029Y-72708702D01*
X126778571Y-72756122D01*
X126772611Y-72766482D01*
X126765026Y-72775724D01*
X126735321Y-72831298D01*
X126703915Y-72885886D01*
X126700092Y-72897206D01*
X126694454Y-72907753D01*
X126676164Y-72968049D01*
X126656009Y-73027721D01*
X126654467Y-73039576D01*
X126650997Y-73051014D01*
X126644822Y-73113710D01*
X126636695Y-73176177D01*
X126637495Y-73188102D01*
X126636323Y-73200000D01*
X125907745Y-73200000D01*
X125905546Y-73192753D01*
X125834974Y-73060724D01*
X125740001Y-72944999D01*
X125710998Y-72921197D01*
X125563804Y-72774003D01*
X125540001Y-72744999D01*
X125424276Y-72650026D01*
X125366770Y-72619288D01*
X125375812Y-72589482D01*
X125388072Y-72465000D01*
X125388072Y-71565000D01*
X125375812Y-71440518D01*
X125357454Y-71380000D01*
X125375812Y-71319482D01*
X125388072Y-71195000D01*
X125385000Y-71030750D01*
X125226250Y-70872000D01*
X123877000Y-70872000D01*
X123877000Y-70892000D01*
X123623000Y-70892000D01*
X123623000Y-70872000D01*
X122273750Y-70872000D01*
X122115000Y-71030750D01*
X122111928Y-71195000D01*
X122124188Y-71319482D01*
X122131137Y-71342389D01*
X122060724Y-71380026D01*
X121944999Y-71474999D01*
X121921196Y-71504003D01*
X121759003Y-71666196D01*
X121729999Y-71689999D01*
X121698054Y-71728925D01*
X121635026Y-71805724D01*
X121590515Y-71888998D01*
X121564454Y-71937754D01*
X121520997Y-72081015D01*
X121510000Y-72192668D01*
X121510000Y-72192678D01*
X121506324Y-72230000D01*
X121510000Y-72267323D01*
X121510001Y-72915198D01*
X121435199Y-72990000D01*
X120687322Y-72990000D01*
X120649999Y-72986324D01*
X120612676Y-72990000D01*
X120612667Y-72990000D01*
X120501014Y-73000997D01*
X120357753Y-73044454D01*
X120225724Y-73115026D01*
X120109999Y-73209999D01*
X120086201Y-73238998D01*
X119389002Y-73936197D01*
X119359999Y-73959999D01*
X119307531Y-74023932D01*
X119265026Y-74075724D01*
X119212348Y-74174277D01*
X119194454Y-74207754D01*
X119150997Y-74351015D01*
X119140000Y-74462668D01*
X119140000Y-74462678D01*
X119136324Y-74500000D01*
X119140000Y-74537323D01*
X119140001Y-76485198D01*
X118989002Y-76636197D01*
X118959999Y-76659999D01*
X118918556Y-76710498D01*
X118865026Y-76775724D01*
X118808100Y-76882225D01*
X118794454Y-76907754D01*
X118750997Y-77051015D01*
X118740000Y-77162668D01*
X118740000Y-77162678D01*
X118736324Y-77200000D01*
X118740000Y-77237323D01*
X118740001Y-77885198D01*
X118366581Y-78258618D01*
X118161574Y-78258618D01*
X118117637Y-78214681D01*
X117948119Y-78101413D01*
X117759761Y-78023392D01*
X117559802Y-77983618D01*
X117355924Y-77983618D01*
X117155965Y-78023392D01*
X116967607Y-78101413D01*
X116798089Y-78214681D01*
X116653926Y-78358844D01*
X116540658Y-78528362D01*
X116462637Y-78716720D01*
X116422863Y-78916679D01*
X116422863Y-79120557D01*
X116462637Y-79320516D01*
X116540658Y-79508874D01*
X116653926Y-79678392D01*
X116798089Y-79822555D01*
X116967607Y-79935823D01*
X117155965Y-80013844D01*
X117355924Y-80053618D01*
X117559802Y-80053618D01*
X117759761Y-80013844D01*
X117948119Y-79935823D01*
X118117637Y-79822555D01*
X118161574Y-79778618D01*
X118243892Y-79778618D01*
X118243893Y-80817716D01*
X118199955Y-80861654D01*
X118086687Y-81031172D01*
X118008666Y-81219530D01*
X117968892Y-81419489D01*
X117968892Y-81623367D01*
X118008666Y-81823326D01*
X118086687Y-82011684D01*
X118199955Y-82181202D01*
X118344118Y-82325365D01*
X118513636Y-82438633D01*
X118701994Y-82516654D01*
X118901953Y-82556428D01*
X119105831Y-82556428D01*
X119305790Y-82516654D01*
X119494148Y-82438633D01*
X119663666Y-82325365D01*
X119807829Y-82181202D01*
X119921097Y-82011684D01*
X119945244Y-81953388D01*
X119971134Y-81970687D01*
X120159492Y-82048708D01*
X120359451Y-82088482D01*
X120421589Y-82088482D01*
X121019109Y-82686003D01*
X121042907Y-82715001D01*
X121071905Y-82738799D01*
X121158631Y-82809974D01*
X121269397Y-82869180D01*
X121290661Y-82880546D01*
X121433922Y-82924003D01*
X121545575Y-82935000D01*
X121545585Y-82935000D01*
X121582908Y-82938676D01*
X121620231Y-82935000D01*
X121935198Y-82935000D01*
X121228999Y-83641200D01*
X121200001Y-83664998D01*
X121176203Y-83693996D01*
X121176202Y-83693997D01*
X121105027Y-83780723D01*
X121034455Y-83912753D01*
X121012540Y-83985001D01*
X120990999Y-84056013D01*
X120984303Y-84123995D01*
X120976325Y-84204999D01*
X120980002Y-84242331D01*
X120980002Y-86616928D01*
X120515000Y-86616928D01*
X120390518Y-86629188D01*
X120330000Y-86647546D01*
X120269482Y-86629188D01*
X120145000Y-86616928D01*
X119245000Y-86616928D01*
X119120518Y-86629188D01*
X119060000Y-86647546D01*
X118999482Y-86629188D01*
X118875000Y-86616928D01*
X117975000Y-86616928D01*
X117850518Y-86629188D01*
X117790000Y-86647546D01*
X117729482Y-86629188D01*
X117605000Y-86616928D01*
X116705000Y-86616928D01*
X116580518Y-86629188D01*
X116520000Y-86647546D01*
X116459482Y-86629188D01*
X116335000Y-86616928D01*
X115435000Y-86616928D01*
X115310518Y-86629188D01*
X115250000Y-86647546D01*
X115189482Y-86629188D01*
X115065000Y-86616928D01*
X114165000Y-86616928D01*
X114040518Y-86629188D01*
X113980000Y-86647546D01*
X113919482Y-86629188D01*
X113795000Y-86616928D01*
X112895000Y-86616928D01*
X112770518Y-86629188D01*
X112710000Y-86647546D01*
X112649482Y-86629188D01*
X112525000Y-86616928D01*
X111625000Y-86616928D01*
X111500518Y-86629188D01*
X111440000Y-86647546D01*
X111379482Y-86629188D01*
X111255000Y-86616928D01*
X110355000Y-86616928D01*
X110230518Y-86629188D01*
X110170000Y-86647546D01*
X110109482Y-86629188D01*
X109985000Y-86616928D01*
X109820750Y-86620000D01*
X109662000Y-86778750D01*
X109662000Y-88128000D01*
X109682000Y-88128000D01*
X109682000Y-88382000D01*
X109662000Y-88382000D01*
X109662000Y-89731250D01*
X109820750Y-89890000D01*
X109921315Y-89891881D01*
X109840226Y-89946063D01*
X109696063Y-90090226D01*
X109582795Y-90259744D01*
X109504774Y-90448102D01*
X109465000Y-90648061D01*
X109465000Y-90851939D01*
X109504774Y-91051898D01*
X109582795Y-91240256D01*
X109696063Y-91409774D01*
X109840226Y-91553937D01*
X109889685Y-91586984D01*
X109335750Y-91590000D01*
X109177002Y-91748748D01*
X109177002Y-91590000D01*
X109123147Y-91590000D01*
X109132000Y-91579213D01*
X109132004Y-91579209D01*
X109197827Y-91499002D01*
X109203179Y-91492481D01*
X109273751Y-91360452D01*
X109317208Y-91217191D01*
X109328205Y-91105538D01*
X109328205Y-91105529D01*
X109331881Y-91068206D01*
X109328205Y-91030883D01*
X109328205Y-89811045D01*
X109408000Y-89731250D01*
X109408000Y-88382000D01*
X109388000Y-88382000D01*
X109388000Y-88128000D01*
X109408000Y-88128000D01*
X109408000Y-86778750D01*
X109328205Y-86698955D01*
X109328205Y-80240527D01*
X109331881Y-80203204D01*
X109328205Y-80165881D01*
X109328205Y-80165872D01*
X109317208Y-80054219D01*
X109273751Y-79910958D01*
X109203179Y-79778929D01*
X109108206Y-79663204D01*
X109079207Y-79639405D01*
X108563803Y-79124002D01*
X108540001Y-79094999D01*
X108424276Y-79000026D01*
X108366770Y-78969288D01*
X108375812Y-78939482D01*
X108388072Y-78815000D01*
X108388072Y-77915000D01*
X108375812Y-77790518D01*
X108357454Y-77730000D01*
X108375812Y-77669482D01*
X108388072Y-77545000D01*
X108388072Y-76645000D01*
X108375812Y-76520518D01*
X108357454Y-76460000D01*
X108375812Y-76399482D01*
X108388072Y-76275000D01*
X108388072Y-75375000D01*
X108375812Y-75250518D01*
X108357454Y-75190000D01*
X108375812Y-75129482D01*
X108388072Y-75005000D01*
X108388072Y-74105000D01*
X108382163Y-74045000D01*
X108763544Y-74045000D01*
X108767434Y-74064558D01*
X108845455Y-74252916D01*
X108958723Y-74422434D01*
X109102886Y-74566597D01*
X109272404Y-74679865D01*
X109460762Y-74757886D01*
X109660721Y-74797660D01*
X109864599Y-74797660D01*
X110064558Y-74757886D01*
X110252916Y-74679865D01*
X110422434Y-74566597D01*
X110566597Y-74422434D01*
X110679865Y-74252916D01*
X110757886Y-74064558D01*
X110797660Y-73864599D01*
X110797660Y-73660721D01*
X110757886Y-73460762D01*
X110679865Y-73272404D01*
X110566597Y-73102886D01*
X110422434Y-72958723D01*
X110252916Y-72845455D01*
X110064558Y-72767434D01*
X109864599Y-72727660D01*
X109803873Y-72727660D01*
X109709276Y-72650026D01*
X109577247Y-72579454D01*
X109433986Y-72535997D01*
X109322333Y-72525000D01*
X109322322Y-72525000D01*
X109285000Y-72521324D01*
X109247678Y-72525000D01*
X108382163Y-72525000D01*
X108388072Y-72465000D01*
X108388072Y-71565000D01*
X108375812Y-71440518D01*
X108357454Y-71380000D01*
X108375812Y-71319482D01*
X108388072Y-71195000D01*
X108385000Y-71030750D01*
X108226250Y-70872000D01*
X106877000Y-70872000D01*
X106877000Y-70892000D01*
X106623000Y-70892000D01*
X106623000Y-70872000D01*
X106603000Y-70872000D01*
X106603000Y-70618000D01*
X106623000Y-70618000D01*
X106623000Y-70598000D01*
X106877000Y-70598000D01*
X106877000Y-70618000D01*
X108226250Y-70618000D01*
X108385000Y-70459250D01*
X108388072Y-70295000D01*
X108375812Y-70170518D01*
X108339502Y-70050820D01*
X108280537Y-69940506D01*
X108201185Y-69843815D01*
X108104494Y-69764463D01*
X108096144Y-69760000D01*
X122403856Y-69760000D01*
X122395506Y-69764463D01*
X122298815Y-69843815D01*
X122219463Y-69940506D01*
X122160498Y-70050820D01*
X122124188Y-70170518D01*
X122111928Y-70295000D01*
X122115000Y-70459250D01*
X122273750Y-70618000D01*
X123623000Y-70618000D01*
X123623000Y-70598000D01*
X123877000Y-70598000D01*
X123877000Y-70618000D01*
X125226250Y-70618000D01*
X125385000Y-70459250D01*
X125388072Y-70295000D01*
X125375812Y-70170518D01*
X125339502Y-70050820D01*
X125280537Y-69940506D01*
X125201185Y-69843815D01*
X125104494Y-69764463D01*
X125096144Y-69760000D01*
X129217581Y-69760000D01*
X129250000Y-69763193D01*
X129282419Y-69760000D01*
X129379383Y-69750450D01*
X129503793Y-69712710D01*
X129618450Y-69651425D01*
X129718948Y-69568948D01*
X129801425Y-69468450D01*
X129862710Y-69353793D01*
X129900450Y-69229383D01*
X129913193Y-69100000D01*
X129910000Y-69067581D01*
X129910000Y-67769608D01*
X129976458Y-67703150D01*
X130252627Y-68121118D01*
%TA.AperFunction,Conductor*%
D36*
G36*
X130252627Y-68121118D02*
G01*
X130797557Y-68411649D01*
X131388696Y-68590287D01*
X132003328Y-68650168D01*
X132617831Y-68588990D01*
X133208592Y-68409103D01*
X133747373Y-68121118D01*
X133840000Y-67980931D01*
X133840000Y-77015000D01*
X130410000Y-77015000D01*
X130410000Y-89660199D01*
X129738804Y-88989003D01*
X129715001Y-88959999D01*
X129599276Y-88865026D01*
X129467247Y-88794454D01*
X129323986Y-88750997D01*
X129212333Y-88740000D01*
X129212322Y-88740000D01*
X129175000Y-88736324D01*
X129137678Y-88740000D01*
X128037325Y-88740000D01*
X128000000Y-88736324D01*
X127962675Y-88740000D01*
X127962667Y-88740000D01*
X127851014Y-88750997D01*
X127707753Y-88794454D01*
X127575724Y-88865026D01*
X127459999Y-88959999D01*
X127436196Y-88989003D01*
X126988998Y-89436201D01*
X126960000Y-89459999D01*
X126936202Y-89488997D01*
X126936201Y-89488998D01*
X126865026Y-89575724D01*
X126794454Y-89707754D01*
X126764315Y-89807114D01*
X126750998Y-89851014D01*
X126747348Y-89888072D01*
X126736324Y-90000000D01*
X126740001Y-90037332D01*
X126740001Y-90296288D01*
X126696063Y-90340226D01*
X126582795Y-90509744D01*
X126504774Y-90698102D01*
X126465000Y-90898061D01*
X126465000Y-91101939D01*
X126504774Y-91301898D01*
X126582795Y-91490256D01*
X126651308Y-91592793D01*
X126550000Y-91582815D01*
X126258889Y-91611487D01*
X126126461Y-91651659D01*
X125463803Y-90989002D01*
X125440001Y-90959999D01*
X125324276Y-90865026D01*
X125192247Y-90794454D01*
X125048986Y-90750997D01*
X124937333Y-90740000D01*
X124937322Y-90740000D01*
X124900000Y-90736324D01*
X124862678Y-90740000D01*
X123860000Y-90740000D01*
X123860000Y-90714801D01*
X124214802Y-90360000D01*
X124662678Y-90360000D01*
X124700000Y-90363676D01*
X124737322Y-90360000D01*
X124737333Y-90360000D01*
X124848986Y-90349003D01*
X124992247Y-90305546D01*
X125124276Y-90234974D01*
X125240001Y-90140001D01*
X125263803Y-90110998D01*
X126036014Y-89338787D01*
X126065013Y-89314989D01*
X126159986Y-89199264D01*
X126230558Y-89067235D01*
X126274015Y-88923974D01*
X126285012Y-88812321D01*
X126285012Y-88812312D01*
X126288688Y-88774989D01*
X126285012Y-88737666D01*
X126285012Y-85125921D01*
X126288688Y-85088598D01*
X126285012Y-85051275D01*
X126285012Y-85051266D01*
X126274015Y-84939613D01*
X126230558Y-84796352D01*
X126159986Y-84664323D01*
X126065013Y-84548598D01*
X126036015Y-84524800D01*
X125960000Y-84448785D01*
X125960000Y-73522325D01*
X125963676Y-73485000D01*
X125960000Y-73447675D01*
X125960000Y-73447667D01*
X125949003Y-73336014D01*
X125907745Y-73200000D01*
X126636323Y-73200000D01*
X126642499Y-73262702D01*
X126646714Y-73325547D01*
X126649825Y-73337087D01*
X126650997Y-73348986D01*
X126669293Y-73409300D01*
X126685682Y-73470094D01*
X126690981Y-73480799D01*
X126694454Y-73492247D01*
X126724160Y-73547822D01*
X126752099Y-73604261D01*
X126759392Y-73613735D01*
X126765026Y-73624276D01*
X126804990Y-73672972D01*
X126843416Y-73722892D01*
X126852415Y-73730759D01*
X126859999Y-73740001D01*
X126908695Y-73779965D01*
X126927880Y-73796738D01*
X126937547Y-73803643D01*
X126975724Y-73834974D01*
X126998318Y-73847051D01*
X129037556Y-75303649D01*
X129075725Y-75334974D01*
X129098315Y-75347049D01*
X131188637Y-76840136D01*
X131285885Y-76896085D01*
X131427720Y-76943991D01*
X131576176Y-76963304D01*
X131725547Y-76953286D01*
X131870094Y-76914318D01*
X132004261Y-76847901D01*
X132122892Y-76756583D01*
X132221429Y-76643878D01*
X132296085Y-76514114D01*
X132343991Y-76372279D01*
X132363304Y-76223823D01*
X132353285Y-76074452D01*
X132314318Y-75929905D01*
X132247901Y-75795738D01*
X132156583Y-75677107D01*
X132072120Y-75603261D01*
X131841674Y-75438657D01*
X131908008Y-75424557D01*
X131975599Y-75411174D01*
X131985735Y-75408036D01*
X132125258Y-75363777D01*
X132188590Y-75336633D01*
X132252257Y-75310391D01*
X132261591Y-75305344D01*
X132389860Y-75234827D01*
X132446700Y-75195907D01*
X132504064Y-75157796D01*
X132512240Y-75151032D01*
X132624370Y-75056945D01*
X132672571Y-75007725D01*
X132721449Y-74959186D01*
X132728156Y-74950962D01*
X132819874Y-74836886D01*
X132857603Y-74779229D01*
X132896105Y-74722149D01*
X132901086Y-74712779D01*
X132901091Y-74712772D01*
X132901096Y-74712761D01*
X132968901Y-74583062D01*
X132994696Y-74519219D01*
X133021401Y-74455690D01*
X133024464Y-74445542D01*
X133024466Y-74445537D01*
X133024467Y-74445532D01*
X133065794Y-74305113D01*
X133078700Y-74237456D01*
X133092551Y-74169981D01*
X133093587Y-74159420D01*
X133106854Y-74013649D01*
X133106373Y-73944764D01*
X133106854Y-73875879D01*
X133105818Y-73865319D01*
X133090517Y-73719746D01*
X133076667Y-73652278D01*
X133063760Y-73584614D01*
X133060693Y-73574455D01*
X133017409Y-73434626D01*
X132990716Y-73371126D01*
X132964912Y-73307258D01*
X132959930Y-73297889D01*
X132890311Y-73169131D01*
X132851770Y-73111991D01*
X132814075Y-73054387D01*
X132807373Y-73046169D01*
X132807369Y-73046163D01*
X132807364Y-73046158D01*
X132714067Y-72933380D01*
X132665174Y-72884828D01*
X132616994Y-72835628D01*
X132608818Y-72828864D01*
X132495387Y-72736351D01*
X132437964Y-72698200D01*
X132381178Y-72659317D01*
X132371847Y-72654271D01*
X132371839Y-72654267D01*
X132242603Y-72585551D01*
X132178921Y-72559303D01*
X132115600Y-72532164D01*
X132105463Y-72529026D01*
X131965336Y-72486720D01*
X131897750Y-72473338D01*
X131830394Y-72459021D01*
X131819841Y-72457911D01*
X131674165Y-72443627D01*
X131674158Y-72443627D01*
X131637333Y-72440000D01*
X131554476Y-72440000D01*
X132122946Y-71952740D01*
X132200563Y-71871727D01*
X132281053Y-71745499D01*
X132335369Y-71605994D01*
X132361427Y-71458572D01*
X132358223Y-71308899D01*
X132325882Y-71162728D01*
X132265644Y-71025675D01*
X132179826Y-70903006D01*
X132071726Y-70799437D01*
X131945498Y-70718947D01*
X131805992Y-70664631D01*
X131658571Y-70638573D01*
X131508898Y-70641777D01*
X131362726Y-70674118D01*
X131225673Y-70734356D01*
X131133743Y-70798670D01*
X129512234Y-72188535D01*
X127980663Y-70810122D01*
X127890316Y-70743605D01*
X127754759Y-70680069D01*
X127609413Y-70644202D01*
X127459863Y-70637379D01*
X127311854Y-70659863D01*
X127171075Y-70710790D01*
X127042937Y-70788203D01*
X126932364Y-70889128D01*
X126843605Y-71009684D01*
X126780069Y-71145241D01*
X126744202Y-71290587D01*
X126737379Y-71440137D01*
X126759863Y-71588146D01*
X126810790Y-71728925D01*
X126888203Y-71857063D01*
X126963838Y-71939929D01*
X127519472Y-72440000D01*
X127449227Y-72440000D01*
X127423823Y-72436695D01*
X127374550Y-72440000D01*
X127362667Y-72440000D01*
X127337298Y-72442499D01*
X127274453Y-72446714D01*
X127262913Y-72449825D01*
X127251014Y-72450997D01*
X127190700Y-72469293D01*
X127129906Y-72485682D01*
X127119201Y-72490981D01*
X127107753Y-72494454D01*
X127052178Y-72524160D01*
X126995739Y-72552099D01*
X126986265Y-72559392D01*
X126975724Y-72565026D01*
X126927028Y-72604990D01*
X126877108Y-72643416D01*
X126869241Y-72652414D01*
X126859999Y-72659999D01*
X126820029Y-72708702D01*
X126778571Y-72756122D01*
X126772611Y-72766482D01*
X126765026Y-72775724D01*
X126735321Y-72831298D01*
X126703915Y-72885886D01*
X126700092Y-72897206D01*
X126694454Y-72907753D01*
X126676164Y-72968049D01*
X126656009Y-73027721D01*
X126654467Y-73039576D01*
X126650997Y-73051014D01*
X126644822Y-73113710D01*
X126636695Y-73176177D01*
X126637495Y-73188102D01*
X126636323Y-73200000D01*
X125907745Y-73200000D01*
X125905546Y-73192753D01*
X125834974Y-73060724D01*
X125740001Y-72944999D01*
X125710998Y-72921197D01*
X125563804Y-72774003D01*
X125540001Y-72744999D01*
X125424276Y-72650026D01*
X125366770Y-72619288D01*
X125375812Y-72589482D01*
X125388072Y-72465000D01*
X125388072Y-71565000D01*
X125375812Y-71440518D01*
X125357454Y-71380000D01*
X125375812Y-71319482D01*
X125388072Y-71195000D01*
X125385000Y-71030750D01*
X125226250Y-70872000D01*
X123877000Y-70872000D01*
X123877000Y-70892000D01*
X123623000Y-70892000D01*
X123623000Y-70872000D01*
X122273750Y-70872000D01*
X122115000Y-71030750D01*
X122111928Y-71195000D01*
X122124188Y-71319482D01*
X122131137Y-71342389D01*
X122060724Y-71380026D01*
X121944999Y-71474999D01*
X121921196Y-71504003D01*
X121759003Y-71666196D01*
X121729999Y-71689999D01*
X121698054Y-71728925D01*
X121635026Y-71805724D01*
X121590515Y-71888998D01*
X121564454Y-71937754D01*
X121520997Y-72081015D01*
X121510000Y-72192668D01*
X121510000Y-72192678D01*
X121506324Y-72230000D01*
X121510000Y-72267323D01*
X121510001Y-72915198D01*
X121435199Y-72990000D01*
X120687322Y-72990000D01*
X120649999Y-72986324D01*
X120612676Y-72990000D01*
X120612667Y-72990000D01*
X120501014Y-73000997D01*
X120357753Y-73044454D01*
X120225724Y-73115026D01*
X120109999Y-73209999D01*
X120086201Y-73238998D01*
X119389002Y-73936197D01*
X119359999Y-73959999D01*
X119307531Y-74023932D01*
X119265026Y-74075724D01*
X119212348Y-74174277D01*
X119194454Y-74207754D01*
X119150997Y-74351015D01*
X119140000Y-74462668D01*
X119140000Y-74462678D01*
X119136324Y-74500000D01*
X119140000Y-74537323D01*
X119140001Y-76485198D01*
X118989002Y-76636197D01*
X118959999Y-76659999D01*
X118918556Y-76710498D01*
X118865026Y-76775724D01*
X118808100Y-76882225D01*
X118794454Y-76907754D01*
X118750997Y-77051015D01*
X118740000Y-77162668D01*
X118740000Y-77162678D01*
X118736324Y-77200000D01*
X118740000Y-77237323D01*
X118740001Y-77885198D01*
X118366581Y-78258618D01*
X118161574Y-78258618D01*
X118117637Y-78214681D01*
X117948119Y-78101413D01*
X117759761Y-78023392D01*
X117559802Y-77983618D01*
X117355924Y-77983618D01*
X117155965Y-78023392D01*
X116967607Y-78101413D01*
X116798089Y-78214681D01*
X116653926Y-78358844D01*
X116540658Y-78528362D01*
X116462637Y-78716720D01*
X116422863Y-78916679D01*
X116422863Y-79120557D01*
X116462637Y-79320516D01*
X116540658Y-79508874D01*
X116653926Y-79678392D01*
X116798089Y-79822555D01*
X116967607Y-79935823D01*
X117155965Y-80013844D01*
X117355924Y-80053618D01*
X117559802Y-80053618D01*
X117759761Y-80013844D01*
X117948119Y-79935823D01*
X118117637Y-79822555D01*
X118161574Y-79778618D01*
X118243892Y-79778618D01*
X118243893Y-80817716D01*
X118199955Y-80861654D01*
X118086687Y-81031172D01*
X118008666Y-81219530D01*
X117968892Y-81419489D01*
X117968892Y-81623367D01*
X118008666Y-81823326D01*
X118086687Y-82011684D01*
X118199955Y-82181202D01*
X118344118Y-82325365D01*
X118513636Y-82438633D01*
X118701994Y-82516654D01*
X118901953Y-82556428D01*
X119105831Y-82556428D01*
X119305790Y-82516654D01*
X119494148Y-82438633D01*
X119663666Y-82325365D01*
X119807829Y-82181202D01*
X119921097Y-82011684D01*
X119945244Y-81953388D01*
X119971134Y-81970687D01*
X120159492Y-82048708D01*
X120359451Y-82088482D01*
X120421589Y-82088482D01*
X121019109Y-82686003D01*
X121042907Y-82715001D01*
X121071905Y-82738799D01*
X121158631Y-82809974D01*
X121269397Y-82869180D01*
X121290661Y-82880546D01*
X121433922Y-82924003D01*
X121545575Y-82935000D01*
X121545585Y-82935000D01*
X121582908Y-82938676D01*
X121620231Y-82935000D01*
X121935198Y-82935000D01*
X121228999Y-83641200D01*
X121200001Y-83664998D01*
X121176203Y-83693996D01*
X121176202Y-83693997D01*
X121105027Y-83780723D01*
X121034455Y-83912753D01*
X121012540Y-83985001D01*
X120990999Y-84056013D01*
X120984303Y-84123995D01*
X120976325Y-84204999D01*
X120980002Y-84242331D01*
X120980002Y-86616928D01*
X120515000Y-86616928D01*
X120390518Y-86629188D01*
X120330000Y-86647546D01*
X120269482Y-86629188D01*
X120145000Y-86616928D01*
X119245000Y-86616928D01*
X119120518Y-86629188D01*
X119060000Y-86647546D01*
X118999482Y-86629188D01*
X118875000Y-86616928D01*
X117975000Y-86616928D01*
X117850518Y-86629188D01*
X117790000Y-86647546D01*
X117729482Y-86629188D01*
X117605000Y-86616928D01*
X116705000Y-86616928D01*
X116580518Y-86629188D01*
X116520000Y-86647546D01*
X116459482Y-86629188D01*
X116335000Y-86616928D01*
X115435000Y-86616928D01*
X115310518Y-86629188D01*
X115250000Y-86647546D01*
X115189482Y-86629188D01*
X115065000Y-86616928D01*
X114165000Y-86616928D01*
X114040518Y-86629188D01*
X113980000Y-86647546D01*
X113919482Y-86629188D01*
X113795000Y-86616928D01*
X112895000Y-86616928D01*
X112770518Y-86629188D01*
X112710000Y-86647546D01*
X112649482Y-86629188D01*
X112525000Y-86616928D01*
X111625000Y-86616928D01*
X111500518Y-86629188D01*
X111440000Y-86647546D01*
X111379482Y-86629188D01*
X111255000Y-86616928D01*
X110355000Y-86616928D01*
X110230518Y-86629188D01*
X110170000Y-86647546D01*
X110109482Y-86629188D01*
X109985000Y-86616928D01*
X109820750Y-86620000D01*
X109662000Y-86778750D01*
X109662000Y-88128000D01*
X109682000Y-88128000D01*
X109682000Y-88382000D01*
X109662000Y-88382000D01*
X109662000Y-89731250D01*
X109820750Y-89890000D01*
X109921315Y-89891881D01*
X109840226Y-89946063D01*
X109696063Y-90090226D01*
X109582795Y-90259744D01*
X109504774Y-90448102D01*
X109465000Y-90648061D01*
X109465000Y-90851939D01*
X109504774Y-91051898D01*
X109582795Y-91240256D01*
X109696063Y-91409774D01*
X109840226Y-91553937D01*
X109889685Y-91586984D01*
X109335750Y-91590000D01*
X109177002Y-91748748D01*
X109177002Y-91590000D01*
X109123147Y-91590000D01*
X109132000Y-91579213D01*
X109132004Y-91579209D01*
X109197827Y-91499002D01*
X109203179Y-91492481D01*
X109273751Y-91360452D01*
X109317208Y-91217191D01*
X109328205Y-91105538D01*
X109328205Y-91105529D01*
X109331881Y-91068206D01*
X109328205Y-91030883D01*
X109328205Y-89811045D01*
X109408000Y-89731250D01*
X109408000Y-88382000D01*
X109388000Y-88382000D01*
X109388000Y-88128000D01*
X109408000Y-88128000D01*
X109408000Y-86778750D01*
X109328205Y-86698955D01*
X109328205Y-80240527D01*
X109331881Y-80203204D01*
X109328205Y-80165881D01*
X109328205Y-80165872D01*
X109317208Y-80054219D01*
X109273751Y-79910958D01*
X109203179Y-79778929D01*
X109108206Y-79663204D01*
X109079207Y-79639405D01*
X108563803Y-79124002D01*
X108540001Y-79094999D01*
X108424276Y-79000026D01*
X108366770Y-78969288D01*
X108375812Y-78939482D01*
X108388072Y-78815000D01*
X108388072Y-77915000D01*
X108375812Y-77790518D01*
X108357454Y-77730000D01*
X108375812Y-77669482D01*
X108388072Y-77545000D01*
X108388072Y-76645000D01*
X108375812Y-76520518D01*
X108357454Y-76460000D01*
X108375812Y-76399482D01*
X108388072Y-76275000D01*
X108388072Y-75375000D01*
X108375812Y-75250518D01*
X108357454Y-75190000D01*
X108375812Y-75129482D01*
X108388072Y-75005000D01*
X108388072Y-74105000D01*
X108382163Y-74045000D01*
X108763544Y-74045000D01*
X108767434Y-74064558D01*
X108845455Y-74252916D01*
X108958723Y-74422434D01*
X109102886Y-74566597D01*
X109272404Y-74679865D01*
X109460762Y-74757886D01*
X109660721Y-74797660D01*
X109864599Y-74797660D01*
X110064558Y-74757886D01*
X110252916Y-74679865D01*
X110422434Y-74566597D01*
X110566597Y-74422434D01*
X110679865Y-74252916D01*
X110757886Y-74064558D01*
X110797660Y-73864599D01*
X110797660Y-73660721D01*
X110757886Y-73460762D01*
X110679865Y-73272404D01*
X110566597Y-73102886D01*
X110422434Y-72958723D01*
X110252916Y-72845455D01*
X110064558Y-72767434D01*
X109864599Y-72727660D01*
X109803873Y-72727660D01*
X109709276Y-72650026D01*
X109577247Y-72579454D01*
X109433986Y-72535997D01*
X109322333Y-72525000D01*
X109322322Y-72525000D01*
X109285000Y-72521324D01*
X109247678Y-72525000D01*
X108382163Y-72525000D01*
X108388072Y-72465000D01*
X108388072Y-71565000D01*
X108375812Y-71440518D01*
X108357454Y-71380000D01*
X108375812Y-71319482D01*
X108388072Y-71195000D01*
X108385000Y-71030750D01*
X108226250Y-70872000D01*
X106877000Y-70872000D01*
X106877000Y-70892000D01*
X106623000Y-70892000D01*
X106623000Y-70872000D01*
X106603000Y-70872000D01*
X106603000Y-70618000D01*
X106623000Y-70618000D01*
X106623000Y-70598000D01*
X106877000Y-70598000D01*
X106877000Y-70618000D01*
X108226250Y-70618000D01*
X108385000Y-70459250D01*
X108388072Y-70295000D01*
X108375812Y-70170518D01*
X108339502Y-70050820D01*
X108280537Y-69940506D01*
X108201185Y-69843815D01*
X108104494Y-69764463D01*
X108096144Y-69760000D01*
X122403856Y-69760000D01*
X122395506Y-69764463D01*
X122298815Y-69843815D01*
X122219463Y-69940506D01*
X122160498Y-70050820D01*
X122124188Y-70170518D01*
X122111928Y-70295000D01*
X122115000Y-70459250D01*
X122273750Y-70618000D01*
X123623000Y-70618000D01*
X123623000Y-70598000D01*
X123877000Y-70598000D01*
X123877000Y-70618000D01*
X125226250Y-70618000D01*
X125385000Y-70459250D01*
X125388072Y-70295000D01*
X125375812Y-70170518D01*
X125339502Y-70050820D01*
X125280537Y-69940506D01*
X125201185Y-69843815D01*
X125104494Y-69764463D01*
X125096144Y-69760000D01*
X129217581Y-69760000D01*
X129250000Y-69763193D01*
X129282419Y-69760000D01*
X129379383Y-69750450D01*
X129503793Y-69712710D01*
X129618450Y-69651425D01*
X129718948Y-69568948D01*
X129801425Y-69468450D01*
X129862710Y-69353793D01*
X129900450Y-69229383D01*
X129913193Y-69100000D01*
X129910000Y-69067581D01*
X129910000Y-67769608D01*
X129976458Y-67703150D01*
X130252627Y-68121118D01*
G37*
%TD.AperFunction*%
D35*
X95554784Y-88054852D02*
X95632805Y-88243210D01*
X95746073Y-88412728D01*
X95890236Y-88556891D01*
X96059754Y-88670159D01*
X96248112Y-88748180D01*
X96448071Y-88787954D01*
X96651949Y-88787954D01*
X96840000Y-88750549D01*
X96840000Y-88752002D01*
X96871748Y-88752002D01*
X96840000Y-88783750D01*
X96850471Y-88875000D01*
X96840000Y-88966250D01*
X96904252Y-89030502D01*
X96951891Y-89115367D01*
X96977943Y-89145807D01*
X96840000Y-89283750D01*
X96851891Y-89387371D01*
X96890663Y-89506294D01*
X96951891Y-89615367D01*
X97033223Y-89710400D01*
X97131531Y-89787740D01*
X97243038Y-89844415D01*
X97264387Y-89850413D01*
X97249188Y-89900518D01*
X97236928Y-90025000D01*
X97236928Y-90225000D01*
X97238405Y-90240000D01*
X96813702Y-90240000D01*
X96807886Y-90210762D01*
X96729865Y-90022404D01*
X96616597Y-89852886D01*
X96472434Y-89708723D01*
X96302916Y-89595455D01*
X96114558Y-89517434D01*
X95914599Y-89477660D01*
X95710721Y-89477660D01*
X95534990Y-89512615D01*
X95534990Y-87955340D01*
X95554784Y-88054852D01*
%TA.AperFunction,Conductor*%
D36*
G36*
X95554784Y-88054852D02*
G01*
X95632805Y-88243210D01*
X95746073Y-88412728D01*
X95890236Y-88556891D01*
X96059754Y-88670159D01*
X96248112Y-88748180D01*
X96448071Y-88787954D01*
X96651949Y-88787954D01*
X96840000Y-88750549D01*
X96840000Y-88752002D01*
X96871748Y-88752002D01*
X96840000Y-88783750D01*
X96850471Y-88875000D01*
X96840000Y-88966250D01*
X96904252Y-89030502D01*
X96951891Y-89115367D01*
X96977943Y-89145807D01*
X96840000Y-89283750D01*
X96851891Y-89387371D01*
X96890663Y-89506294D01*
X96951891Y-89615367D01*
X97033223Y-89710400D01*
X97131531Y-89787740D01*
X97243038Y-89844415D01*
X97264387Y-89850413D01*
X97249188Y-89900518D01*
X97236928Y-90025000D01*
X97236928Y-90225000D01*
X97238405Y-90240000D01*
X96813702Y-90240000D01*
X96807886Y-90210762D01*
X96729865Y-90022404D01*
X96616597Y-89852886D01*
X96472434Y-89708723D01*
X96302916Y-89595455D01*
X96114558Y-89517434D01*
X95914599Y-89477660D01*
X95710721Y-89477660D01*
X95534990Y-89512615D01*
X95534990Y-87955340D01*
X95554784Y-88054852D01*
G37*
%TD.AperFunction*%
D35*
X101856614Y-83988405D02*
X102010150Y-84070472D01*
X102176746Y-84121008D01*
X102350000Y-84138072D01*
X103130278Y-84138072D01*
X103135421Y-84155027D01*
X103169464Y-84267256D01*
X103219031Y-84359988D01*
X102431787Y-84359988D01*
X102377803Y-84306004D01*
X102354000Y-84277000D01*
X102238275Y-84182027D01*
X102106246Y-84111455D01*
X101962985Y-84067998D01*
X101851332Y-84057001D01*
X101851321Y-84057001D01*
X101813999Y-84053325D01*
X101776677Y-84057001D01*
X100610888Y-84057001D01*
X100573565Y-84053325D01*
X100536242Y-84057001D01*
X100536233Y-84057001D01*
X100424580Y-84067998D01*
X100281319Y-84111455D01*
X100149290Y-84182027D01*
X100033565Y-84277000D01*
X100009766Y-84305999D01*
X99852960Y-84462805D01*
X99764829Y-84390478D01*
X99632800Y-84319906D01*
X99489592Y-84276465D01*
X99434642Y-84221515D01*
X99265124Y-84108247D01*
X99076766Y-84030226D01*
X98876807Y-83990452D01*
X98672929Y-83990452D01*
X98472970Y-84030226D01*
X98284612Y-84108247D01*
X98115094Y-84221515D01*
X97970931Y-84365678D01*
X97857663Y-84535196D01*
X97779642Y-84723554D01*
X97766425Y-84789999D01*
X97603310Y-84789999D01*
X97565987Y-84786323D01*
X97528664Y-84789999D01*
X97528654Y-84789999D01*
X97417001Y-84800996D01*
X97273740Y-84844453D01*
X97141711Y-84915025D01*
X97025986Y-85009998D01*
X97002188Y-85038996D01*
X96410209Y-85630976D01*
X96348071Y-85630976D01*
X96148112Y-85670750D01*
X95959754Y-85748771D01*
X95790236Y-85862039D01*
X95646073Y-86006202D01*
X95534990Y-86172450D01*
X95534990Y-83929625D01*
X95606614Y-83988405D01*
X95760150Y-84070472D01*
X95926746Y-84121008D01*
X96100000Y-84138072D01*
X97050000Y-84138072D01*
X97223254Y-84121008D01*
X97389850Y-84070472D01*
X97543386Y-83988405D01*
X97665643Y-83888072D01*
X101734357Y-83888072D01*
X101856614Y-83988405D01*
%TA.AperFunction,Conductor*%
D36*
G36*
X101856614Y-83988405D02*
G01*
X102010150Y-84070472D01*
X102176746Y-84121008D01*
X102350000Y-84138072D01*
X103130278Y-84138072D01*
X103135421Y-84155027D01*
X103169464Y-84267256D01*
X103219031Y-84359988D01*
X102431787Y-84359988D01*
X102377803Y-84306004D01*
X102354000Y-84277000D01*
X102238275Y-84182027D01*
X102106246Y-84111455D01*
X101962985Y-84067998D01*
X101851332Y-84057001D01*
X101851321Y-84057001D01*
X101813999Y-84053325D01*
X101776677Y-84057001D01*
X100610888Y-84057001D01*
X100573565Y-84053325D01*
X100536242Y-84057001D01*
X100536233Y-84057001D01*
X100424580Y-84067998D01*
X100281319Y-84111455D01*
X100149290Y-84182027D01*
X100033565Y-84277000D01*
X100009766Y-84305999D01*
X99852960Y-84462805D01*
X99764829Y-84390478D01*
X99632800Y-84319906D01*
X99489592Y-84276465D01*
X99434642Y-84221515D01*
X99265124Y-84108247D01*
X99076766Y-84030226D01*
X98876807Y-83990452D01*
X98672929Y-83990452D01*
X98472970Y-84030226D01*
X98284612Y-84108247D01*
X98115094Y-84221515D01*
X97970931Y-84365678D01*
X97857663Y-84535196D01*
X97779642Y-84723554D01*
X97766425Y-84789999D01*
X97603310Y-84789999D01*
X97565987Y-84786323D01*
X97528664Y-84789999D01*
X97528654Y-84789999D01*
X97417001Y-84800996D01*
X97273740Y-84844453D01*
X97141711Y-84915025D01*
X97025986Y-85009998D01*
X97002188Y-85038996D01*
X96410209Y-85630976D01*
X96348071Y-85630976D01*
X96148112Y-85670750D01*
X95959754Y-85748771D01*
X95790236Y-85862039D01*
X95646073Y-86006202D01*
X95534990Y-86172450D01*
X95534990Y-83929625D01*
X95606614Y-83988405D01*
X95760150Y-84070472D01*
X95926746Y-84121008D01*
X96100000Y-84138072D01*
X97050000Y-84138072D01*
X97223254Y-84121008D01*
X97389850Y-84070472D01*
X97543386Y-83988405D01*
X97665643Y-83888072D01*
X101734357Y-83888072D01*
X101856614Y-83988405D01*
G37*
%TD.AperFunction*%
D35*
X99836928Y-81044374D02*
X99836928Y-82111928D01*
X99563072Y-82111928D01*
X99563072Y-81044374D01*
X99562451Y-81038072D01*
X99837549Y-81038072D01*
X99836928Y-81044374D01*
%TA.AperFunction,Conductor*%
D36*
G36*
X99836928Y-81044374D02*
G01*
X99836928Y-82111928D01*
X99563072Y-82111928D01*
X99563072Y-81044374D01*
X99562451Y-81038072D01*
X99837549Y-81038072D01*
X99836928Y-81044374D01*
G37*
%TD.AperFunction*%
D35*
X132193748Y-65485858D02*
X132179605Y-65500000D01*
X132193748Y-65514143D01*
X132014143Y-65693748D01*
X132000000Y-65679605D01*
X131985858Y-65693748D01*
X131806253Y-65514143D01*
X131820395Y-65500000D01*
X131806253Y-65485858D01*
X131985858Y-65306253D01*
X132000000Y-65320395D01*
X132014143Y-65306253D01*
X132193748Y-65485858D01*
%TA.AperFunction,Conductor*%
D36*
G36*
X132193748Y-65485858D02*
G01*
X132179605Y-65500000D01*
X132193748Y-65514143D01*
X132014143Y-65693748D01*
X132000000Y-65679605D01*
X131985858Y-65693748D01*
X131806253Y-65514143D01*
X131820395Y-65500000D01*
X131806253Y-65485858D01*
X131985858Y-65306253D01*
X132000000Y-65320395D01*
X132014143Y-65306253D01*
X132193748Y-65485858D01*
G37*
%TD.AperFunction*%
%TD*%
M02*
