%TF.GenerationSoftware,KiCad,Pcbnew,(5.1.9-0-10_14)*%
%TF.CreationDate,2021-05-02T13:29:14+01:00*%
%TF.ProjectId,EnvMon,456e764d-6f6e-42e6-9b69-6361645f7063,2*%
%TF.SameCoordinates,Original*%
%TF.FileFunction,Paste,Bot*%
%TF.FilePolarity,Positive*%
%FSLAX46Y46*%
G04 Gerber Fmt 4.6, Leading zero omitted, Abs format (unit mm)*
G04 Created by KiCad (PCBNEW (5.1.9-0-10_14)) date 2021-05-02 13:29:14*
%MOMM*%
%LPD*%
G01*
G04 APERTURE LIST*
%ADD10C,2.000000*%
G04 APERTURE END LIST*
D10*
%TO.C,M3*%
X129200000Y-79700000D03*
X129200000Y-88200000D03*
%TD*%
%TO.C,R9*%
G36*
G01*
X125924999Y-97850000D02*
X127175001Y-97850000D01*
G75*
G02*
X127425000Y-98099999I0J-249999D01*
G01*
X127425000Y-98900001D01*
G75*
G02*
X127175001Y-99150000I-249999J0D01*
G01*
X125924999Y-99150000D01*
G75*
G02*
X125675000Y-98900001I0J249999D01*
G01*
X125675000Y-98099999D01*
G75*
G02*
X125924999Y-97850000I249999J0D01*
G01*
G37*
G36*
G01*
X125924999Y-94750000D02*
X127175001Y-94750000D01*
G75*
G02*
X127425000Y-94999999I0J-249999D01*
G01*
X127425000Y-95800001D01*
G75*
G02*
X127175001Y-96050000I-249999J0D01*
G01*
X125924999Y-96050000D01*
G75*
G02*
X125675000Y-95800001I0J249999D01*
G01*
X125675000Y-94999999D01*
G75*
G02*
X125924999Y-94750000I249999J0D01*
G01*
G37*
%TD*%
%TO.C,R8*%
G36*
G01*
X123424999Y-97850000D02*
X124675001Y-97850000D01*
G75*
G02*
X124925000Y-98099999I0J-249999D01*
G01*
X124925000Y-98900001D01*
G75*
G02*
X124675001Y-99150000I-249999J0D01*
G01*
X123424999Y-99150000D01*
G75*
G02*
X123175000Y-98900001I0J249999D01*
G01*
X123175000Y-98099999D01*
G75*
G02*
X123424999Y-97850000I249999J0D01*
G01*
G37*
G36*
G01*
X123424999Y-94750000D02*
X124675001Y-94750000D01*
G75*
G02*
X124925000Y-94999999I0J-249999D01*
G01*
X124925000Y-95800001D01*
G75*
G02*
X124675001Y-96050000I-249999J0D01*
G01*
X123424999Y-96050000D01*
G75*
G02*
X123175000Y-95800001I0J249999D01*
G01*
X123175000Y-94999999D01*
G75*
G02*
X123424999Y-94750000I249999J0D01*
G01*
G37*
%TD*%
%TO.C,R7*%
G36*
G01*
X120924999Y-97850000D02*
X122175001Y-97850000D01*
G75*
G02*
X122425000Y-98099999I0J-249999D01*
G01*
X122425000Y-98900001D01*
G75*
G02*
X122175001Y-99150000I-249999J0D01*
G01*
X120924999Y-99150000D01*
G75*
G02*
X120675000Y-98900001I0J249999D01*
G01*
X120675000Y-98099999D01*
G75*
G02*
X120924999Y-97850000I249999J0D01*
G01*
G37*
G36*
G01*
X120924999Y-94750000D02*
X122175001Y-94750000D01*
G75*
G02*
X122425000Y-94999999I0J-249999D01*
G01*
X122425000Y-95800001D01*
G75*
G02*
X122175001Y-96050000I-249999J0D01*
G01*
X120924999Y-96050000D01*
G75*
G02*
X120675000Y-95800001I0J249999D01*
G01*
X120675000Y-94999999D01*
G75*
G02*
X120924999Y-94750000I249999J0D01*
G01*
G37*
%TD*%
%TO.C,R6*%
G36*
G01*
X118424999Y-97850000D02*
X119675001Y-97850000D01*
G75*
G02*
X119925000Y-98099999I0J-249999D01*
G01*
X119925000Y-98900001D01*
G75*
G02*
X119675001Y-99150000I-249999J0D01*
G01*
X118424999Y-99150000D01*
G75*
G02*
X118175000Y-98900001I0J249999D01*
G01*
X118175000Y-98099999D01*
G75*
G02*
X118424999Y-97850000I249999J0D01*
G01*
G37*
G36*
G01*
X118424999Y-94750000D02*
X119675001Y-94750000D01*
G75*
G02*
X119925000Y-94999999I0J-249999D01*
G01*
X119925000Y-95800001D01*
G75*
G02*
X119675001Y-96050000I-249999J0D01*
G01*
X118424999Y-96050000D01*
G75*
G02*
X118175000Y-95800001I0J249999D01*
G01*
X118175000Y-94999999D01*
G75*
G02*
X118424999Y-94750000I249999J0D01*
G01*
G37*
%TD*%
%TO.C,R5*%
G36*
G01*
X115924999Y-97850000D02*
X117175001Y-97850000D01*
G75*
G02*
X117425000Y-98099999I0J-249999D01*
G01*
X117425000Y-98900001D01*
G75*
G02*
X117175001Y-99150000I-249999J0D01*
G01*
X115924999Y-99150000D01*
G75*
G02*
X115675000Y-98900001I0J249999D01*
G01*
X115675000Y-98099999D01*
G75*
G02*
X115924999Y-97850000I249999J0D01*
G01*
G37*
G36*
G01*
X115924999Y-94750000D02*
X117175001Y-94750000D01*
G75*
G02*
X117425000Y-94999999I0J-249999D01*
G01*
X117425000Y-95800001D01*
G75*
G02*
X117175001Y-96050000I-249999J0D01*
G01*
X115924999Y-96050000D01*
G75*
G02*
X115675000Y-95800001I0J249999D01*
G01*
X115675000Y-94999999D01*
G75*
G02*
X115924999Y-94750000I249999J0D01*
G01*
G37*
%TD*%
%TO.C,R4*%
G36*
G01*
X113424999Y-97850000D02*
X114675001Y-97850000D01*
G75*
G02*
X114925000Y-98099999I0J-249999D01*
G01*
X114925000Y-98900001D01*
G75*
G02*
X114675001Y-99150000I-249999J0D01*
G01*
X113424999Y-99150000D01*
G75*
G02*
X113175000Y-98900001I0J249999D01*
G01*
X113175000Y-98099999D01*
G75*
G02*
X113424999Y-97850000I249999J0D01*
G01*
G37*
G36*
G01*
X113424999Y-94750000D02*
X114675001Y-94750000D01*
G75*
G02*
X114925000Y-94999999I0J-249999D01*
G01*
X114925000Y-95800001D01*
G75*
G02*
X114675001Y-96050000I-249999J0D01*
G01*
X113424999Y-96050000D01*
G75*
G02*
X113175000Y-95800001I0J249999D01*
G01*
X113175000Y-94999999D01*
G75*
G02*
X113424999Y-94750000I249999J0D01*
G01*
G37*
%TD*%
%TO.C,R3*%
G36*
G01*
X110924999Y-97850000D02*
X112175001Y-97850000D01*
G75*
G02*
X112425000Y-98099999I0J-249999D01*
G01*
X112425000Y-98900001D01*
G75*
G02*
X112175001Y-99150000I-249999J0D01*
G01*
X110924999Y-99150000D01*
G75*
G02*
X110675000Y-98900001I0J249999D01*
G01*
X110675000Y-98099999D01*
G75*
G02*
X110924999Y-97850000I249999J0D01*
G01*
G37*
G36*
G01*
X110924999Y-94750000D02*
X112175001Y-94750000D01*
G75*
G02*
X112425000Y-94999999I0J-249999D01*
G01*
X112425000Y-95800001D01*
G75*
G02*
X112175001Y-96050000I-249999J0D01*
G01*
X110924999Y-96050000D01*
G75*
G02*
X110675000Y-95800001I0J249999D01*
G01*
X110675000Y-94999999D01*
G75*
G02*
X110924999Y-94750000I249999J0D01*
G01*
G37*
%TD*%
%TO.C,R2*%
G36*
G01*
X97864999Y-97850000D02*
X99115001Y-97850000D01*
G75*
G02*
X99365000Y-98099999I0J-249999D01*
G01*
X99365000Y-98900001D01*
G75*
G02*
X99115001Y-99150000I-249999J0D01*
G01*
X97864999Y-99150000D01*
G75*
G02*
X97615000Y-98900001I0J249999D01*
G01*
X97615000Y-98099999D01*
G75*
G02*
X97864999Y-97850000I249999J0D01*
G01*
G37*
G36*
G01*
X97864999Y-94750000D02*
X99115001Y-94750000D01*
G75*
G02*
X99365000Y-94999999I0J-249999D01*
G01*
X99365000Y-95800001D01*
G75*
G02*
X99115001Y-96050000I-249999J0D01*
G01*
X97864999Y-96050000D01*
G75*
G02*
X97615000Y-95800001I0J249999D01*
G01*
X97615000Y-94999999D01*
G75*
G02*
X97864999Y-94750000I249999J0D01*
G01*
G37*
%TD*%
%TO.C,R1*%
G36*
G01*
X100404999Y-97850000D02*
X101655001Y-97850000D01*
G75*
G02*
X101905000Y-98099999I0J-249999D01*
G01*
X101905000Y-98900001D01*
G75*
G02*
X101655001Y-99150000I-249999J0D01*
G01*
X100404999Y-99150000D01*
G75*
G02*
X100155000Y-98900001I0J249999D01*
G01*
X100155000Y-98099999D01*
G75*
G02*
X100404999Y-97850000I249999J0D01*
G01*
G37*
G36*
G01*
X100404999Y-94750000D02*
X101655001Y-94750000D01*
G75*
G02*
X101905000Y-94999999I0J-249999D01*
G01*
X101905000Y-95800001D01*
G75*
G02*
X101655001Y-96050000I-249999J0D01*
G01*
X100404999Y-96050000D01*
G75*
G02*
X100155000Y-95800001I0J249999D01*
G01*
X100155000Y-94999999D01*
G75*
G02*
X100404999Y-94750000I249999J0D01*
G01*
G37*
%TD*%
M02*
