%TF.GenerationSoftware,KiCad,Pcbnew,(6.0.2-0)*%
%TF.CreationDate,2022-02-22T08:35:35+00:00*%
%TF.ProjectId,EnvMon2,456e764d-6f6e-4322-9e6b-696361645f70,4*%
%TF.SameCoordinates,Original*%
%TF.FileFunction,Soldermask,Bot*%
%TF.FilePolarity,Negative*%
%FSLAX46Y46*%
G04 Gerber Fmt 4.6, Leading zero omitted, Abs format (unit mm)*
G04 Created by KiCad (PCBNEW (6.0.2-0)) date 2022-02-22 08:35:35*
%MOMM*%
%LPD*%
G01*
G04 APERTURE LIST*
G04 Aperture macros list*
%AMRoundRect*
0 Rectangle with rounded corners*
0 $1 Rounding radius*
0 $2 $3 $4 $5 $6 $7 $8 $9 X,Y pos of 4 corners*
0 Add a 4 corners polygon primitive as box body*
4,1,4,$2,$3,$4,$5,$6,$7,$8,$9,$2,$3,0*
0 Add four circle primitives for the rounded corners*
1,1,$1+$1,$2,$3*
1,1,$1+$1,$4,$5*
1,1,$1+$1,$6,$7*
1,1,$1+$1,$8,$9*
0 Add four rect primitives between the rounded corners*
20,1,$1+$1,$2,$3,$4,$5,0*
20,1,$1+$1,$4,$5,$6,$7,0*
20,1,$1+$1,$6,$7,$8,$9,0*
20,1,$1+$1,$8,$9,$2,$3,0*%
G04 Aperture macros list end*
%ADD10C,0.450000*%
%ADD11C,5.000000*%
%ADD12C,1.700000*%
%ADD13R,1.050000X1.500000*%
%ADD14O,1.050000X1.500000*%
%ADD15RoundRect,0.250000X-0.600000X-0.675000X0.600000X-0.675000X0.600000X0.675000X-0.600000X0.675000X0*%
%ADD16O,1.700000X1.850000*%
%ADD17C,1.250000*%
%ADD18C,1.500000*%
G04 APERTURE END LIST*
%TO.C,U6*%
G36*
X139150000Y-113400000D02*
G01*
X133350000Y-113400000D01*
X133350000Y-107600000D01*
X139150000Y-107600000D01*
X139150000Y-113400000D01*
G37*
D10*
%TO.C,Logo1*%
X120000000Y-79400000D02*
X123000000Y-83600000D01*
X120000000Y-81500000D02*
X118200000Y-83600000D01*
X120000000Y-79400000D02*
X120000000Y-83600000D01*
X120000000Y-81500000D02*
X121500000Y-81500000D01*
X118200000Y-79500000D02*
X120000000Y-81500000D01*
X120000000Y-83600000D02*
G75*
G03*
X121500000Y-83600000I750000J0D01*
G01*
%TD*%
D11*
%TO.C,M1*%
X168000000Y-79000000D03*
X168000000Y-111000000D03*
D12*
X128500000Y-87380000D03*
X128500000Y-89920000D03*
X128500000Y-92460000D03*
X128500000Y-95000000D03*
X128500000Y-97540000D03*
X128500000Y-100080000D03*
X128500000Y-102620000D03*
D11*
X128500000Y-79000000D03*
X128500000Y-111000000D03*
%TD*%
D13*
%TO.C,U4*%
X120770000Y-110640000D03*
D14*
X119500000Y-110640000D03*
X118230000Y-110640000D03*
%TD*%
D15*
%TO.C,J2*%
X143500000Y-107150000D03*
D16*
X146000000Y-107150000D03*
%TD*%
D15*
%TO.C,J3*%
X118000000Y-89500000D03*
D16*
X120500000Y-89500000D03*
X123000000Y-89500000D03*
%TD*%
D17*
%TO.C,J1*%
X140570000Y-111640000D03*
D18*
X140570000Y-107470000D03*
X131930000Y-107470000D03*
D17*
X131930000Y-111640000D03*
%TD*%
M02*
