%TF.GenerationSoftware,KiCad,Pcbnew,(6.0.2-0)*%
%TF.CreationDate,2022-03-20T16:29:31+00:00*%
%TF.ProjectId,EnvMon,456e764d-6f6e-42e6-9b69-6361645f7063,4*%
%TF.SameCoordinates,Original*%
%TF.FileFunction,Copper,L1,Top*%
%TF.FilePolarity,Positive*%
%FSLAX46Y46*%
G04 Gerber Fmt 4.6, Leading zero omitted, Abs format (unit mm)*
G04 Created by KiCad (PCBNEW (6.0.2-0)) date 2022-03-20 16:29:31*
%MOMM*%
%LPD*%
G01*
G04 APERTURE LIST*
G04 Aperture macros list*
%AMRoundRect*
0 Rectangle with rounded corners*
0 $1 Rounding radius*
0 $2 $3 $4 $5 $6 $7 $8 $9 X,Y pos of 4 corners*
0 Add a 4 corners polygon primitive as box body*
4,1,4,$2,$3,$4,$5,$6,$7,$8,$9,$2,$3,0*
0 Add four circle primitives for the rounded corners*
1,1,$1+$1,$2,$3*
1,1,$1+$1,$4,$5*
1,1,$1+$1,$6,$7*
1,1,$1+$1,$8,$9*
0 Add four rect primitives between the rounded corners*
20,1,$1+$1,$2,$3,$4,$5,0*
20,1,$1+$1,$4,$5,$6,$7,0*
20,1,$1+$1,$6,$7,$8,$9,0*
20,1,$1+$1,$8,$9,$2,$3,0*%
%AMOutline5P*
0 Free polygon, 5 corners , with rotation*
0 The origin of the aperture is its center*
0 number of corners: always 5*
0 $1 to $10 corner X, Y*
0 $11 Rotation angle, in degrees counterclockwise*
0 create outline with 5 corners*
4,1,5,$1,$2,$3,$4,$5,$6,$7,$8,$9,$10,$1,$2,$11*%
%AMOutline6P*
0 Free polygon, 6 corners , with rotation*
0 The origin of the aperture is its center*
0 number of corners: always 6*
0 $1 to $12 corner X, Y*
0 $13 Rotation angle, in degrees counterclockwise*
0 create outline with 6 corners*
4,1,6,$1,$2,$3,$4,$5,$6,$7,$8,$9,$10,$11,$12,$1,$2,$13*%
%AMOutline7P*
0 Free polygon, 7 corners , with rotation*
0 The origin of the aperture is its center*
0 number of corners: always 7*
0 $1 to $14 corner X, Y*
0 $15 Rotation angle, in degrees counterclockwise*
0 create outline with 7 corners*
4,1,7,$1,$2,$3,$4,$5,$6,$7,$8,$9,$10,$11,$12,$13,$14,$1,$2,$15*%
%AMOutline8P*
0 Free polygon, 8 corners , with rotation*
0 The origin of the aperture is its center*
0 number of corners: always 8*
0 $1 to $16 corner X, Y*
0 $17 Rotation angle, in degrees counterclockwise*
0 create outline with 8 corners*
4,1,8,$1,$2,$3,$4,$5,$6,$7,$8,$9,$10,$11,$12,$13,$14,$15,$16,$1,$2,$17*%
%AMFreePoly0*
4,1,43,1.102950,0.110584,1.224483,0.068057,1.333507,-0.000447,1.424553,-0.091493,1.493057,-0.200517,1.535584,-0.322050,1.550000,-0.450000,1.533253,-0.512500,1.487500,-0.558253,1.425000,-0.575000,1.362500,-0.558253,1.316747,-0.512500,1.300000,-0.450000,1.302546,-0.440498,1.287946,-0.348318,1.241208,-0.256589,1.168411,-0.183792,1.076682,-0.137054,0.984502,-0.122454,0.975000,-0.125000,
-0.975000,-0.125000,-0.984502,-0.122454,-1.076682,-0.137054,-1.168411,-0.183792,-1.241208,-0.256589,-1.287946,-0.348318,-1.302546,-0.440498,-1.300000,-0.450000,-1.316747,-0.512500,-1.362500,-0.558253,-1.425000,-0.575000,-1.487500,-0.558253,-1.533253,-0.512500,-1.550000,-0.450000,-1.535584,-0.322050,-1.493057,-0.200517,-1.424553,-0.091493,-1.333507,-0.000447,-1.224483,0.068057,-1.102950,0.110584,
-0.975000,0.125000,0.975000,0.125000,1.102950,0.110584,1.102950,0.110584,$1*%
%AMFreePoly1*
4,1,24,1.812500,0.558253,1.858253,0.512500,1.875000,0.450000,1.860584,0.322050,1.818057,0.200517,1.749553,0.091493,1.658507,0.000447,1.549483,-0.068057,1.427950,-0.110584,1.300000,-0.125000,-1.300000,-0.125000,-1.300000,0.125000,1.300000,0.125000,1.309502,0.122454,1.401682,0.137054,1.493411,0.183792,1.566208,0.256589,1.612946,0.348318,1.627546,0.440498,1.625000,0.450000,
1.641747,0.512500,1.687500,0.558253,1.750000,0.575000,1.812500,0.558253,1.812500,0.558253,$1*%
%AMFreePoly2*
4,1,37,1.095671,1.230970,1.176777,1.176777,1.230970,1.095671,1.250000,1.000000,1.234611,0.804457,1.188821,0.613729,1.113759,0.432512,1.011272,0.265269,0.883885,0.116117,0.734733,-0.011271,0.567490,-0.113758,0.386273,-0.188820,0.195545,-0.234610,0.000002,-0.250000,-0.095669,-0.230970,-0.176775,-0.176777,-0.230968,-0.095671,-0.249998,0.000000,-0.230968,0.095671,-0.176775,0.176777,
-0.095669,0.230970,0.000002,0.250000,0.012204,0.247573,0.147027,0.260852,0.288403,0.303738,0.418695,0.373381,0.532897,0.467104,0.626620,0.581306,0.696263,0.711599,0.739148,0.852974,0.752427,0.987798,0.750000,1.000000,0.769030,1.095671,0.823223,1.176777,0.904329,1.230970,1.000000,1.250000,1.095671,1.230970,1.095671,1.230970,$1*%
%AMFreePoly3*
4,1,72,4.686553,7.086501,4.817859,7.046669,4.938871,6.981987,5.044939,6.894939,5.131987,6.788871,5.196669,6.667859,5.236501,6.536553,5.249950,6.400000,5.249950,1.600000,5.230924,1.504348,5.176741,1.423259,5.112450,1.380300,5.112450,0.249950,6.600000,0.249950,6.695652,0.230924,6.776741,0.176741,6.830924,0.095652,6.849950,0.000000,6.830924,-0.095652,6.776741,-0.176741,
6.695652,-0.230924,6.600000,-0.249950,0.000000,-0.249950,-0.095652,-0.230924,-0.176741,-0.176741,-0.230924,-0.095652,-0.249950,0.000000,-0.230924,0.095652,-0.176741,0.176741,-0.095652,0.230924,0.000000,0.249950,4.612550,0.249950,4.612550,1.600000,4.631576,1.695652,4.685759,1.776741,4.750050,1.819700,4.750050,6.400000,4.751438,6.406980,4.742631,6.462590,4.713862,6.519052,
4.669052,6.563862,4.612590,6.592631,4.556980,6.601438,4.550000,6.600050,1.550000,6.600050,1.543020,6.601438,1.487410,6.592631,1.430948,6.563862,1.386138,6.519052,1.357369,6.462590,1.348562,6.406980,1.349950,6.400000,1.349950,5.900000,1.330924,5.804348,1.276741,5.723259,1.195652,5.669076,1.100000,5.650050,1.004348,5.669076,0.923259,5.723259,0.869076,5.804348,
0.850050,5.900000,0.850050,6.400000,0.863499,6.536553,0.903331,6.667859,0.968013,6.788871,1.055061,6.894939,1.161129,6.981987,1.282141,7.046669,1.413447,7.086501,1.550000,7.099950,4.550000,7.099950,4.686553,7.086501,4.686553,7.086501,$1*%
G04 Aperture macros list end*
%ADD10C,0.080000*%
%TA.AperFunction,NonConductor*%
%ADD11C,0.080000*%
%TD*%
%ADD12C,0.300000*%
%TA.AperFunction,NonConductor*%
%ADD13C,0.300000*%
%TD*%
%TA.AperFunction,EtchedComponent*%
%ADD14C,0.080000*%
%TD*%
%TA.AperFunction,EtchedComponent*%
%ADD15C,0.250000*%
%TD*%
%TA.AperFunction,ComponentPad*%
%ADD16R,2.000000X2.000000*%
%TD*%
%TA.AperFunction,ComponentPad*%
%ADD17C,2.000000*%
%TD*%
%TA.AperFunction,SMDPad,CuDef*%
%ADD18RoundRect,0.250000X-0.625000X0.375000X-0.625000X-0.375000X0.625000X-0.375000X0.625000X0.375000X0*%
%TD*%
%TA.AperFunction,SMDPad,CuDef*%
%ADD19R,0.600000X1.140000*%
%TD*%
%TA.AperFunction,SMDPad,CuDef*%
%ADD20RoundRect,0.075000X-0.075000X-0.495000X0.075000X-0.495000X0.075000X0.495000X-0.075000X0.495000X0*%
%TD*%
%TA.AperFunction,ComponentPad*%
%ADD21C,0.670000*%
%TD*%
%TA.AperFunction,ComponentPad*%
%ADD22C,1.250000*%
%TD*%
%TA.AperFunction,ComponentPad*%
%ADD23C,1.500000*%
%TD*%
%TA.AperFunction,SMDPad,CuDef*%
%ADD24R,7.500000X5.250000*%
%TD*%
%TA.AperFunction,ComponentPad*%
%ADD25RoundRect,0.250000X-0.600000X-0.675000X0.600000X-0.675000X0.600000X0.675000X-0.600000X0.675000X0*%
%TD*%
%TA.AperFunction,ComponentPad*%
%ADD26O,1.700000X1.850000*%
%TD*%
%TA.AperFunction,ComponentPad*%
%ADD27C,1.700000*%
%TD*%
%TA.AperFunction,SMDPad,CuDef*%
%ADD28RoundRect,0.062500X-0.287500X-0.062500X0.287500X-0.062500X0.287500X0.062500X-0.287500X0.062500X0*%
%TD*%
%TA.AperFunction,SMDPad,CuDef*%
%ADD29RoundRect,0.062500X-0.062500X-0.287500X0.062500X-0.287500X0.062500X0.287500X-0.062500X0.287500X0*%
%TD*%
%TA.AperFunction,SMDPad,CuDef*%
%ADD30Outline5P,-1.000000X0.750000X-0.750000X1.000000X1.000000X1.000000X1.000000X-1.000000X-1.000000X-1.000000X0.000000*%
%TD*%
%TA.AperFunction,SMDPad,CuDef*%
%ADD31RoundRect,0.237500X-0.237500X0.250000X-0.237500X-0.250000X0.237500X-0.250000X0.237500X0.250000X0*%
%TD*%
%TA.AperFunction,SMDPad,CuDef*%
%ADD32R,0.850000X0.500000*%
%TD*%
%TA.AperFunction,SMDPad,CuDef*%
%ADD33RoundRect,0.200000X0.200000X0.275000X-0.200000X0.275000X-0.200000X-0.275000X0.200000X-0.275000X0*%
%TD*%
%TA.AperFunction,SMDPad,CuDef*%
%ADD34RoundRect,0.200000X0.275000X-0.200000X0.275000X0.200000X-0.275000X0.200000X-0.275000X-0.200000X0*%
%TD*%
%TA.AperFunction,SMDPad,CuDef*%
%ADD35RoundRect,0.225000X0.250000X-0.225000X0.250000X0.225000X-0.250000X0.225000X-0.250000X-0.225000X0*%
%TD*%
%TA.AperFunction,SMDPad,CuDef*%
%ADD36RoundRect,0.249375X-0.463125X-0.625625X0.463125X-0.625625X0.463125X0.625625X-0.463125X0.625625X0*%
%TD*%
%TA.AperFunction,SMDPad,CuDef*%
%ADD37FreePoly0,0.000000*%
%TD*%
%TA.AperFunction,SMDPad,CuDef*%
%ADD38R,2.000000X0.500000*%
%TD*%
%TA.AperFunction,SMDPad,CuDef*%
%ADD39R,1.425000X3.700000*%
%TD*%
%TA.AperFunction,SMDPad,CuDef*%
%ADD40FreePoly1,0.000000*%
%TD*%
%TA.AperFunction,SMDPad,CuDef*%
%ADD41R,0.600000X1.100000*%
%TD*%
%TA.AperFunction,SMDPad,CuDef*%
%ADD42R,0.500000X2.000000*%
%TD*%
%TA.AperFunction,SMDPad,CuDef*%
%ADD43RoundRect,0.250000X-0.475000X0.250000X-0.475000X-0.250000X0.475000X-0.250000X0.475000X0.250000X0*%
%TD*%
%TA.AperFunction,SMDPad,CuDef*%
%ADD44FreePoly2,0.000000*%
%TD*%
%TA.AperFunction,SMDPad,CuDef*%
%ADD45FreePoly3,0.000000*%
%TD*%
%TA.AperFunction,SMDPad,CuDef*%
%ADD46R,0.500000X4.000000*%
%TD*%
%TA.AperFunction,SMDPad,CuDef*%
%ADD47RoundRect,0.200000X-0.275000X0.200000X-0.275000X-0.200000X0.275000X-0.200000X0.275000X0.200000X0*%
%TD*%
%TA.AperFunction,SMDPad,CuDef*%
%ADD48R,2.000000X0.900000*%
%TD*%
%TA.AperFunction,SMDPad,CuDef*%
%ADD49R,0.900000X2.000000*%
%TD*%
%TA.AperFunction,SMDPad,CuDef*%
%ADD50R,5.000000X5.000000*%
%TD*%
%TA.AperFunction,ViaPad*%
%ADD51C,0.800000*%
%TD*%
%TA.AperFunction,Conductor*%
%ADD52C,0.250000*%
%TD*%
%TA.AperFunction,Conductor*%
%ADD53C,0.500000*%
%TD*%
G04 APERTURE END LIST*
D10*
D11*
X133373809Y-75028571D02*
X133350000Y-75004761D01*
X133326190Y-74957142D01*
X133326190Y-74838095D01*
X133350000Y-74790476D01*
X133373809Y-74766666D01*
X133421428Y-74742857D01*
X133469047Y-74742857D01*
X133540476Y-74766666D01*
X133826190Y-75052380D01*
X133826190Y-74742857D01*
X133326190Y-74433333D02*
X133326190Y-74385714D01*
X133350000Y-74338095D01*
X133373809Y-74314285D01*
X133421428Y-74290476D01*
X133516666Y-74266666D01*
X133635714Y-74266666D01*
X133730952Y-74290476D01*
X133778571Y-74314285D01*
X133802380Y-74338095D01*
X133826190Y-74385714D01*
X133826190Y-74433333D01*
X133802380Y-74480952D01*
X133778571Y-74504761D01*
X133730952Y-74528571D01*
X133635714Y-74552380D01*
X133516666Y-74552380D01*
X133421428Y-74528571D01*
X133373809Y-74504761D01*
X133350000Y-74480952D01*
X133326190Y-74433333D01*
X133373809Y-74076190D02*
X133350000Y-74052380D01*
X133326190Y-74004761D01*
X133326190Y-73885714D01*
X133350000Y-73838095D01*
X133373809Y-73814285D01*
X133421428Y-73790476D01*
X133469047Y-73790476D01*
X133540476Y-73814285D01*
X133826190Y-74100000D01*
X133826190Y-73790476D01*
X133373809Y-73600000D02*
X133350000Y-73576190D01*
X133326190Y-73528571D01*
X133326190Y-73409523D01*
X133350000Y-73361904D01*
X133373809Y-73338095D01*
X133421428Y-73314285D01*
X133469047Y-73314285D01*
X133540476Y-73338095D01*
X133826190Y-73623809D01*
X133826190Y-73314285D01*
X133635714Y-73100000D02*
X133635714Y-72719047D01*
X133326190Y-72385714D02*
X133326190Y-72338095D01*
X133350000Y-72290476D01*
X133373809Y-72266666D01*
X133421428Y-72242857D01*
X133516666Y-72219047D01*
X133635714Y-72219047D01*
X133730952Y-72242857D01*
X133778571Y-72266666D01*
X133802380Y-72290476D01*
X133826190Y-72338095D01*
X133826190Y-72385714D01*
X133802380Y-72433333D01*
X133778571Y-72457142D01*
X133730952Y-72480952D01*
X133635714Y-72504761D01*
X133516666Y-72504761D01*
X133421428Y-72480952D01*
X133373809Y-72457142D01*
X133350000Y-72433333D01*
X133326190Y-72385714D01*
X133326190Y-72052380D02*
X133326190Y-71742857D01*
X133516666Y-71909523D01*
X133516666Y-71838095D01*
X133540476Y-71790476D01*
X133564285Y-71766666D01*
X133611904Y-71742857D01*
X133730952Y-71742857D01*
X133778571Y-71766666D01*
X133802380Y-71790476D01*
X133826190Y-71838095D01*
X133826190Y-71980952D01*
X133802380Y-72028571D01*
X133778571Y-72052380D01*
X133635714Y-71528571D02*
X133635714Y-71147619D01*
X133373809Y-70933333D02*
X133350000Y-70909523D01*
X133326190Y-70861904D01*
X133326190Y-70742857D01*
X133350000Y-70695238D01*
X133373809Y-70671428D01*
X133421428Y-70647619D01*
X133469047Y-70647619D01*
X133540476Y-70671428D01*
X133826190Y-70957142D01*
X133826190Y-70647619D01*
X133326190Y-70338095D02*
X133326190Y-70290476D01*
X133350000Y-70242857D01*
X133373809Y-70219047D01*
X133421428Y-70195238D01*
X133516666Y-70171428D01*
X133635714Y-70171428D01*
X133730952Y-70195238D01*
X133778571Y-70219047D01*
X133802380Y-70242857D01*
X133826190Y-70290476D01*
X133826190Y-70338095D01*
X133802380Y-70385714D01*
X133778571Y-70409523D01*
X133730952Y-70433333D01*
X133635714Y-70457142D01*
X133516666Y-70457142D01*
X133421428Y-70433333D01*
X133373809Y-70409523D01*
X133350000Y-70385714D01*
X133326190Y-70338095D01*
D12*
D13*
X131878571Y-89585714D02*
X132878571Y-89300000D01*
X132164285Y-89014285D01*
X132878571Y-88728571D01*
X131878571Y-88442857D01*
X131878571Y-88014285D02*
X132878571Y-87728571D01*
X132164285Y-87442857D01*
X132878571Y-87157142D01*
X131878571Y-86871428D01*
X131878571Y-86442857D02*
X132878571Y-86157142D01*
X132164285Y-85871428D01*
X132878571Y-85585714D01*
X131878571Y-85300000D01*
X132735714Y-84728571D02*
X132807142Y-84657142D01*
X132878571Y-84728571D01*
X132807142Y-84800000D01*
X132735714Y-84728571D01*
X132878571Y-84728571D01*
X132878571Y-84014285D02*
X131878571Y-84014285D01*
X132021428Y-84014285D02*
X131950000Y-83942857D01*
X131878571Y-83800000D01*
X131878571Y-83585714D01*
X131950000Y-83442857D01*
X132092857Y-83371428D01*
X132878571Y-83371428D01*
X132092857Y-83371428D02*
X131950000Y-83300000D01*
X131878571Y-83157142D01*
X131878571Y-82942857D01*
X131950000Y-82800000D01*
X132092857Y-82728571D01*
X132878571Y-82728571D01*
X132807142Y-81442857D02*
X132878571Y-81585714D01*
X132878571Y-81871428D01*
X132807142Y-82014285D01*
X132664285Y-82085714D01*
X132092857Y-82085714D01*
X131950000Y-82014285D01*
X131878571Y-81871428D01*
X131878571Y-81585714D01*
X131950000Y-81442857D01*
X132092857Y-81371428D01*
X132235714Y-81371428D01*
X132378571Y-82085714D01*
X132735714Y-80728571D02*
X132807142Y-80657142D01*
X132878571Y-80728571D01*
X132807142Y-80800000D01*
X132735714Y-80728571D01*
X132878571Y-80728571D01*
X131878571Y-79371428D02*
X132878571Y-79371428D01*
X131878571Y-80014285D02*
X132664285Y-80014285D01*
X132807142Y-79942857D01*
X132878571Y-79800000D01*
X132878571Y-79585714D01*
X132807142Y-79442857D01*
X132735714Y-79371428D01*
X132878571Y-78657142D02*
X131378571Y-78657142D01*
X132307142Y-78514285D02*
X132878571Y-78085714D01*
X131878571Y-78085714D02*
X132450000Y-78657142D01*
D14*
%TO.C,Logo3*%
X131610000Y-74050000D02*
X131610000Y-73950000D01*
D15*
X127400000Y-73200000D02*
X131600000Y-73200000D01*
D14*
X131450000Y-74050000D02*
X131750000Y-74050000D01*
D15*
X127500000Y-71400000D02*
X129500000Y-73200000D01*
X129500000Y-73200000D02*
X131600000Y-71400000D01*
D14*
X131610000Y-73950000D02*
X131750000Y-73850000D01*
D15*
X129500000Y-73200000D02*
X129500000Y-74700000D01*
X127400000Y-73200000D02*
X131600000Y-76200000D01*
D14*
X131450000Y-74050000D02*
X131450000Y-73950000D01*
X131610000Y-73950000D02*
G75*
G03*
X131450000Y-73950000I-80000J0D01*
G01*
D15*
X131600000Y-74700000D02*
G75*
G03*
X131600000Y-73200000I0J750000D01*
G01*
D14*
X131910000Y-73970000D02*
G75*
G03*
X131910000Y-73970000I-300000J0D01*
G01*
%TD*%
D16*
%TO.P,J2,1,GND*%
%TO.N,GND*%
X106025000Y-98552000D03*
D17*
%TO.P,J2,2,DC*%
%TO.N,DC*%
X106025000Y-96012000D03*
%TD*%
D18*
%TO.P,D2,1,K*%
%TO.N,DC*%
X94900000Y-85800000D03*
%TO.P,D2,2,A*%
%TO.N,VBUS*%
X94900000Y-88600000D03*
%TD*%
D19*
%TO.P,J1,A1,GND*%
%TO.N,GND*%
X96550000Y-93135000D03*
%TO.P,J1,A4,VBUS*%
%TO.N,VBUS*%
X97350000Y-93135000D03*
D20*
%TO.P,J1,A5,CC1*%
%TO.N,Net-(J1-PadA5)*%
X98500000Y-93135000D03*
%TO.P,J1,A6,D+*%
%TO.N,Net-(J1-PadA6)*%
X99500000Y-93135000D03*
%TO.P,J1,A7,D-*%
%TO.N,Net-(J1-PadA7)*%
X100000000Y-93135000D03*
%TO.P,J1,A8,SBU1*%
%TO.N,unconnected-(J1-PadA8)*%
X101000000Y-93135000D03*
D19*
%TO.P,J1,A9,VBUS*%
%TO.N,VBUS*%
X102150000Y-93135000D03*
%TO.P,J1,A12,GND*%
%TO.N,GND*%
X102950000Y-93135000D03*
%TO.P,J1,B1,GND*%
X102950000Y-93135000D03*
%TO.P,J1,B4,VBUS*%
%TO.N,VBUS*%
X102150000Y-93135000D03*
D20*
%TO.P,J1,B5,CC2*%
%TO.N,Net-(J1-PadB5)*%
X101500000Y-93135000D03*
%TO.P,J1,B6,D+*%
%TO.N,Net-(J1-PadA6)*%
X100500000Y-93135000D03*
%TO.P,J1,B7,D-*%
%TO.N,Net-(J1-PadA7)*%
X99000000Y-93135000D03*
%TO.P,J1,B8,SBU2*%
%TO.N,unconnected-(J1-PadB8)*%
X98000000Y-93135000D03*
D19*
%TO.P,J1,B9,VBUS*%
%TO.N,VBUS*%
X97350000Y-93135000D03*
%TO.P,J1,B12,GND*%
%TO.N,GND*%
X96550000Y-93135000D03*
D21*
%TO.P,J1,S1,SHIELD*%
X102640000Y-94205000D03*
D22*
X104070000Y-97885000D03*
D23*
X95430000Y-93715000D03*
D24*
X99750000Y-97120000D03*
D23*
X104070000Y-93715000D03*
D21*
X96860000Y-94205000D03*
D22*
X95430000Y-97885000D03*
%TD*%
D25*
%TO.P,J3,1,Pin_1*%
%TO.N,GND*%
X109050000Y-93150000D03*
D26*
%TO.P,J3,2,Pin_2*%
%TO.N,IO1*%
X111550000Y-93150000D03*
%TO.P,J3,3,Pin_3*%
%TO.N,IO2*%
X114050000Y-93150000D03*
%TO.P,J3,4,Pin_4*%
%TO.N,IO3*%
X116550000Y-93150000D03*
%TO.P,J3,5,Pin_5*%
%TO.N,IO4*%
X119050000Y-93150000D03*
%TO.P,J3,6,Pin_6*%
%TO.N,IO5*%
X121550000Y-93150000D03*
%TO.P,J3,7,Pin_7*%
%TO.N,IO6*%
X124050000Y-93150000D03*
%TO.P,J3,8,Pin_8*%
%TO.N,IO7*%
X126550000Y-93150000D03*
%TD*%
D27*
%TO.P,M2,1,Vcc*%
%TO.N,+3V3*%
X92500000Y-73880000D03*
%TO.P,M2,2,GND*%
%TO.N,GND*%
X92500000Y-76420000D03*
%TO.P,M2,3,DIN*%
%TO.N,OLED-MOSI*%
X92500000Y-78960000D03*
%TO.P,M2,4,CLK*%
%TO.N,OLED-SCLK*%
X92500000Y-81500000D03*
%TO.P,M2,5,CS*%
%TO.N,OLED-CS0*%
X92500000Y-84040000D03*
%TO.P,M2,6,DC*%
%TO.N,OLED-DC*%
X92500000Y-86580000D03*
%TO.P,M2,7,RST*%
%TO.N,OLED-RST*%
X92500000Y-89120000D03*
%TD*%
D28*
%TO.P,U2,1,RXD*%
%TO.N,Net-(U2-Pad1)*%
X98075000Y-87125000D03*
%TO.P,U2,2,~{RI}*%
%TO.N,GND*%
X98075000Y-87625000D03*
%TO.P,U2,3,GND*%
X98075000Y-88125000D03*
%TO.P,U2,4,~{DSR}*%
X98075000Y-88625000D03*
%TO.P,U2,5,~{DCD}*%
X98075000Y-89125000D03*
D29*
%TO.P,U2,6,~{CTS}*%
X98975000Y-90025000D03*
%TO.P,U2,7,CBUS2*%
%TO.N,unconnected-(U2-Pad7)*%
X99475000Y-90025000D03*
%TO.P,U2,8,USBDP*%
%TO.N,Net-(J1-PadA6)*%
X99975000Y-90025000D03*
%TO.P,U2,9,USBDM*%
%TO.N,Net-(J1-PadA7)*%
X100475000Y-90025000D03*
%TO.P,U2,10,3V3OUT*%
%TO.N,+3V3*%
X100975000Y-90025000D03*
D28*
%TO.P,U2,11,~{RESET}*%
X101875000Y-89125000D03*
%TO.P,U2,12,VCC*%
X101875000Y-88625000D03*
%TO.P,U2,13,GND*%
%TO.N,GND*%
X101875000Y-88125000D03*
%TO.P,U2,14,CBUS1*%
%TO.N,unconnected-(U2-Pad14)*%
X101875000Y-87625000D03*
%TO.P,U2,15,CBUS0*%
%TO.N,unconnected-(U2-Pad15)*%
X101875000Y-87125000D03*
D29*
%TO.P,U2,16,CBUS3*%
%TO.N,unconnected-(U2-Pad16)*%
X100975000Y-86225000D03*
%TO.P,U2,17,TXD*%
%TO.N,Net-(U2-Pad17)*%
X100475000Y-86225000D03*
%TO.P,U2,18,~{DTR}*%
%TO.N,Net-(U2-Pad18)*%
X99975000Y-86225000D03*
%TO.P,U2,19,~{RTS}*%
%TO.N,Net-(U2-Pad19)*%
X99475000Y-86225000D03*
%TO.P,U2,20,VCCIO*%
%TO.N,+3V3*%
X98975000Y-86225000D03*
D30*
%TO.P,U2,21,GND*%
%TO.N,GND*%
X99975000Y-88125000D03*
%TD*%
D31*
%TO.P,R3,1*%
%TO.N,Net-(J1-PadB5)*%
X93300000Y-91587500D03*
%TO.P,R3,2*%
%TO.N,GND*%
X93300000Y-93412500D03*
%TD*%
%TO.P,R4,1*%
%TO.N,Net-(J1-PadA5)*%
X91800000Y-91587500D03*
%TO.P,R4,2*%
%TO.N,GND*%
X91800000Y-93412500D03*
%TD*%
D32*
%TO.P,D3,1,A*%
%TO.N,+3V3*%
X98325000Y-64200000D03*
%TO.P,D3,2,RK*%
%TO.N,Net-(D3-Pad2)*%
X100075000Y-64200000D03*
%TO.P,D3,3,GK*%
%TO.N,Net-(D3-Pad3)*%
X100075000Y-65200000D03*
%TO.P,D3,4,BK*%
%TO.N,Net-(D3-Pad4)*%
X98325000Y-65200000D03*
%TD*%
D33*
%TO.P,R5,1*%
%TO.N,Net-(D3-Pad2)*%
X100025000Y-68900000D03*
%TO.P,R5,2*%
%TO.N,R*%
X98375000Y-68900000D03*
%TD*%
%TO.P,R6,1*%
%TO.N,Net-(D3-Pad3)*%
X100025000Y-66500000D03*
%TO.P,R6,2*%
%TO.N,G*%
X98375000Y-66500000D03*
%TD*%
%TO.P,R7,1*%
%TO.N,Net-(D3-Pad4)*%
X100025000Y-67700000D03*
%TO.P,R7,2*%
%TO.N,B*%
X98375000Y-67700000D03*
%TD*%
D34*
%TO.P,C4,1*%
%TO.N,GND*%
X94900000Y-91775000D03*
%TO.P,C4,2*%
%TO.N,VBUS*%
X94900000Y-90225000D03*
%TD*%
D35*
%TO.P,U1,*%
%TO.N,*%
X95300000Y-79525000D03*
D36*
X98197500Y-81670000D03*
D37*
X96925000Y-78950000D03*
D38*
X99300000Y-79850000D03*
D39*
X99800000Y-78550000D03*
D40*
X96600000Y-78050000D03*
D41*
X98350000Y-79850000D03*
D35*
X95300000Y-77975000D03*
D42*
X98350000Y-80800000D03*
D41*
X98350000Y-77150000D03*
%TO.P,U1,1,SHDN*%
%TO.N,DC*%
X96450000Y-79850000D03*
D43*
%TO.P,U1,2,VIN*%
X96550000Y-81100000D03*
D41*
X97400000Y-79850000D03*
D44*
X96340000Y-81050000D03*
D43*
%TO.P,U1,3,GND*%
%TO.N,GND*%
X102800000Y-83000000D03*
X96550000Y-83000000D03*
D45*
X96300000Y-83000000D03*
D36*
X101162500Y-81670000D03*
D41*
X97400000Y-77150000D03*
D46*
%TO.P,U1,4,VOUT*%
%TO.N,+3V3*%
X102800000Y-79300000D03*
D43*
X102800000Y-81100000D03*
D39*
X102800000Y-78550000D03*
D41*
%TO.P,U1,5,FB*%
%TO.N,Net-(R1-Pad2)*%
X96450000Y-77150000D03*
%TD*%
D47*
%TO.P,R1,1*%
%TO.N,+3V3*%
X94900000Y-73975000D03*
%TO.P,R1,2*%
%TO.N,Net-(R1-Pad2)*%
X94900000Y-75625000D03*
%TD*%
%TO.P,R2,1*%
%TO.N,GND*%
X96200000Y-73975000D03*
%TO.P,R2,2*%
%TO.N,Net-(R1-Pad2)*%
X96200000Y-75625000D03*
%TD*%
D48*
%TO.P,U3,1,GND*%
%TO.N,GND*%
X106750000Y-70745000D03*
%TO.P,U3,2,VDD*%
%TO.N,+3V3*%
X106750000Y-72015000D03*
%TO.P,U3,3,EN*%
%TO.N,Net-(U2-Pad19)*%
X106750000Y-73285000D03*
%TO.P,U3,4,SENSOR_VP*%
%TO.N,unconnected-(U3-Pad4)*%
X106750000Y-74555000D03*
%TO.P,U3,5,SENSOR_VN*%
%TO.N,unconnected-(U3-Pad5)*%
X106750000Y-75825000D03*
%TO.P,U3,6,IO34*%
%TO.N,unconnected-(U3-Pad6)*%
X106750000Y-77095000D03*
%TO.P,U3,7,IO35*%
%TO.N,unconnected-(U3-Pad7)*%
X106750000Y-78365000D03*
%TO.P,U3,8,IO32*%
%TO.N,unconnected-(U3-Pad8)*%
X106750000Y-79635000D03*
%TO.P,U3,9,IO33*%
%TO.N,unconnected-(U3-Pad9)*%
X106750000Y-80905000D03*
%TO.P,U3,10,IO25*%
%TO.N,CO2-SDA*%
X106750000Y-82175000D03*
%TO.P,U3,11,IO26*%
%TO.N,CO2-SCL*%
X106750000Y-83445000D03*
%TO.P,U3,12,IO27*%
%TO.N,IO6*%
X106750000Y-84715000D03*
%TO.P,U3,13,IO14*%
%TO.N,IO4*%
X106750000Y-85985000D03*
%TO.P,U3,14,IO12*%
%TO.N,R*%
X106750000Y-87255000D03*
D49*
%TO.P,U3,15,GND*%
%TO.N,GND*%
X109535000Y-88255000D03*
%TO.P,U3,16,IO13*%
%TO.N,IO5*%
X110805000Y-88255000D03*
%TO.P,U3,17,SHD/SD2*%
%TO.N,unconnected-(U3-Pad17)*%
X112075000Y-88255000D03*
%TO.P,U3,18,SWP/SD3*%
%TO.N,unconnected-(U3-Pad18)*%
X113345000Y-88255000D03*
%TO.P,U3,19,SCS/CMD*%
%TO.N,unconnected-(U3-Pad19)*%
X114615000Y-88255000D03*
%TO.P,U3,20,SCK/CLK*%
%TO.N,unconnected-(U3-Pad20)*%
X115885000Y-88255000D03*
%TO.P,U3,21,SDO/SD0*%
%TO.N,unconnected-(U3-Pad21)*%
X117155000Y-88255000D03*
%TO.P,U3,22,SDI/SD1*%
%TO.N,unconnected-(U3-Pad22)*%
X118425000Y-88255000D03*
%TO.P,U3,23,IO15*%
%TO.N,B*%
X119695000Y-88255000D03*
%TO.P,U3,24,IO2*%
%TO.N,G*%
X120965000Y-88255000D03*
D48*
%TO.P,U3,25,IO0*%
%TO.N,Net-(U2-Pad18)*%
X123750000Y-87255000D03*
%TO.P,U3,26,IO4*%
%TO.N,IO1*%
X123750000Y-85985000D03*
%TO.P,U3,27,IO16*%
%TO.N,IO2*%
X123750000Y-84715000D03*
%TO.P,U3,28,IO17*%
%TO.N,IO3*%
X123750000Y-83445000D03*
%TO.P,U3,29,IO5*%
%TO.N,OLED-CS0*%
X123750000Y-82175000D03*
%TO.P,U3,30,IO18*%
%TO.N,OLED-SCLK*%
X123750000Y-80905000D03*
%TO.P,U3,31,IO19*%
%TO.N,OLED-RST*%
X123750000Y-79635000D03*
%TO.P,U3,32,NC*%
%TO.N,unconnected-(U3-Pad32)*%
X123750000Y-78365000D03*
%TO.P,U3,33,IO21*%
%TO.N,OLED-DC*%
X123750000Y-77095000D03*
%TO.P,U3,34,RXD0/IO3*%
%TO.N,Net-(U2-Pad17)*%
X123750000Y-75825000D03*
%TO.P,U3,35,TXD0/IO1*%
%TO.N,Net-(U2-Pad1)*%
X123750000Y-74555000D03*
%TO.P,U3,36,IO22*%
%TO.N,IO7*%
X123750000Y-73285000D03*
%TO.P,U3,37,IO23*%
%TO.N,OLED-MOSI*%
X123750000Y-72015000D03*
%TO.P,U3,38,GND*%
%TO.N,GND*%
X123750000Y-70745000D03*
D50*
%TO.P,U3,39,GND*%
X114250000Y-78245000D03*
%TD*%
D27*
%TO.P,M1,1,VDD*%
%TO.N,+3V3*%
X96600000Y-70800000D03*
%TO.P,M1,2,GND*%
%TO.N,GND*%
X99140000Y-70800000D03*
%TO.P,M1,3,TX/SCL*%
%TO.N,CO2-SCL*%
X101680000Y-70800000D03*
%TO.P,M1,4,RX/SDA*%
%TO.N,CO2-SDA*%
X104220000Y-70800000D03*
%TD*%
D51*
%TO.N,GND*%
X99822000Y-87376000D03*
%TO.N,DC*%
X94996000Y-87375500D03*
%TO.N,Net-(J1-PadA7)*%
X98257361Y-91299011D03*
X100341268Y-91642253D03*
%TO.N,Net-(J1-PadA6)*%
X99269935Y-91299011D03*
X101231556Y-91187948D03*
%TO.N,Net-(J1-PadA5)*%
X91800000Y-90500000D03*
X97254221Y-91299420D03*
%TO.N,Net-(J1-PadB5)*%
X93300000Y-90500000D03*
X102215212Y-91365221D03*
%TO.N,Net-(U2-Pad19)*%
X109001768Y-73300092D03*
X98757497Y-84825027D03*
%TO.N,Net-(U2-Pad18)*%
X103676016Y-86981767D03*
X124349991Y-88845089D03*
%TO.N,Net-(U2-Pad17)*%
X120650155Y-75574979D03*
X103674990Y-85861051D03*
%TO.N,GND*%
X104249974Y-81723400D03*
X99900000Y-84000000D03*
X99575000Y-81700000D03*
%TO.N,+3V3*%
X104342133Y-90988360D03*
X103821105Y-88455704D03*
X96450010Y-86665976D03*
X105153408Y-73817094D03*
%TO.N,OLED-RST*%
X119003892Y-81521428D03*
%TO.N,OLED-DC*%
X120300000Y-77500000D03*
%TO.N,OLED-CS0*%
X120461390Y-81053482D03*
%TO.N,OLED-SCLK*%
X120011379Y-79673314D03*
%TO.N,OLED-MOSI*%
X118250022Y-79018618D03*
%TO.N,IO6*%
X107800000Y-91200000D03*
%TO.N,IO5*%
X110384222Y-91371245D03*
%TO.N,IO4*%
X106645627Y-91463228D03*
%TO.N,R*%
X108739090Y-86005365D03*
X110443109Y-71617790D03*
X97400000Y-68900000D03*
X108367377Y-84529106D03*
%TO.N,G*%
X111227906Y-70998018D03*
X97400000Y-66500000D03*
%TO.N,B*%
X97400000Y-67700000D03*
X108900000Y-71100000D03*
%TO.N,Net-(U2-Pad1)*%
X96530839Y-87772125D03*
X121339855Y-74475010D03*
%TD*%
D52*
%TO.N,VBUS*%
X97759995Y-94030001D02*
G75*
G02*
X97350000Y-93620006I1J409996D01*
G01*
X102150000Y-93620006D02*
G75*
G02*
X101740005Y-94030001I-409996J1D01*
G01*
X97350000Y-93135000D02*
X97350000Y-93620006D01*
X97759995Y-94030001D02*
X101740005Y-94030001D01*
X102150000Y-93620006D02*
X102150000Y-93135000D01*
%TO.N,Net-(J1-PadA7)*%
X100505150Y-91389752D02*
X100341268Y-91553634D01*
X100341268Y-91789687D02*
X100341268Y-91642253D01*
X100475000Y-90025000D02*
X100475000Y-91225115D01*
%TO.N,DC*%
X94996000Y-85896000D02*
X94900000Y-85800000D01*
%TO.N,Net-(J1-PadB5)*%
X101757500Y-92057500D02*
G75*
G03*
X101500000Y-92679159I621659J-621660D01*
G01*
X101500000Y-93135000D02*
X101500000Y-92679159D01*
X102215212Y-91599788D02*
X102215212Y-91365221D01*
%TO.N,Net-(J1-PadA7)*%
X100133154Y-91997803D02*
G75*
G03*
X100000001Y-92400000I557490J-407704D01*
G01*
X100341268Y-91553634D02*
X100341268Y-91642253D01*
X100505150Y-91389752D02*
G75*
G02*
X100475000Y-91225115I477410J172507D01*
G01*
X100000000Y-93135000D02*
X100000000Y-92400000D01*
%TO.N,Net-(J1-PadA6)*%
X100803421Y-92241233D02*
X101490711Y-91553943D01*
%TO.N,Net-(J1-PadB5)*%
X101757500Y-92057500D02*
X102215212Y-91599788D01*
%TO.N,Net-(J1-PadA6)*%
X100758767Y-92241233D02*
X100803421Y-92241233D01*
X101490711Y-91447103D02*
X101231556Y-91187948D01*
X100500000Y-93135000D02*
X100500000Y-92500000D01*
X101490711Y-91553943D02*
X101490711Y-91447103D01*
%TO.N,Net-(J1-PadA7)*%
X100133153Y-91997802D02*
X100341268Y-91789687D01*
%TO.N,Net-(J1-PadA6)*%
X100500000Y-92500000D02*
X100758767Y-92241233D01*
%TO.N,DC*%
X94996000Y-87375500D02*
X94996000Y-85896000D01*
%TO.N,VBUS*%
X97350000Y-92750000D02*
X97350000Y-93135000D01*
X94900000Y-90225000D02*
X95625000Y-90225000D01*
X96200000Y-90800000D02*
X96200000Y-91600000D01*
X94900000Y-88600000D02*
X94900000Y-90225000D01*
X96600000Y-92000000D02*
G75*
G02*
X96200000Y-91600000I-1J399999D01*
G01*
X97350000Y-92750000D02*
G75*
G03*
X96600000Y-92000000I-750000J0D01*
G01*
X96200000Y-90800000D02*
G75*
G03*
X95625000Y-90225000I-575001J-1D01*
G01*
%TO.N,Net-(J1-PadA7)*%
X98257361Y-91342111D02*
X98635663Y-91720413D01*
X98257361Y-91299011D02*
X98257361Y-91342111D01*
X99000000Y-92600000D02*
G75*
G03*
X98635663Y-91720413I-1243923J0D01*
G01*
%TO.N,Net-(J1-PadA6)*%
X99572694Y-90996251D02*
X99269935Y-91299011D01*
X99500000Y-91854437D02*
X99500000Y-93135000D01*
X99572694Y-90996251D02*
G75*
G03*
X99975000Y-90025000I-971247J971250D01*
G01*
X99499999Y-91854437D02*
G75*
G03*
X99269934Y-91299012I-785488J1D01*
G01*
%TO.N,Net-(J1-PadA5)*%
X98500000Y-93135000D02*
X98500000Y-92650002D01*
X97245145Y-91308496D02*
X97254221Y-91299420D01*
X97245145Y-91459046D02*
X97245145Y-91308496D01*
X91800000Y-90500000D02*
X91800000Y-91587500D01*
X97824999Y-91975001D02*
G75*
G02*
X98500000Y-92650002I1J-675000D01*
G01*
X97245145Y-91459046D02*
G75*
G03*
X97824999Y-91975001I581541J69752D01*
G01*
%TO.N,Net-(J1-PadB5)*%
X93300000Y-90500000D02*
X93300000Y-91587500D01*
%TO.N,Net-(U2-Pad19)*%
X99475000Y-86225000D02*
X99475000Y-85542530D01*
X106750000Y-73285000D02*
X108986676Y-73285000D01*
X108986676Y-73285000D02*
X109001768Y-73300092D01*
X98757497Y-84825027D02*
G75*
G02*
X99475000Y-85542530I-1J-717504D01*
G01*
%TO.N,Net-(U2-Pad18)*%
X123750000Y-87255000D02*
X123750000Y-88245098D01*
X99975000Y-86225000D02*
X99975000Y-85925000D01*
X100900000Y-85000000D02*
X103852397Y-85000000D01*
X104492541Y-85640144D02*
X104492541Y-86165242D01*
X104492541Y-85640144D02*
G75*
G03*
X103852397Y-85000000I-640145J-1D01*
G01*
X103676016Y-86981767D02*
G75*
G03*
X104492541Y-86165242I-1J816526D01*
G01*
X100900000Y-85000000D02*
G75*
G03*
X99975000Y-85925000I-1J-924999D01*
G01*
X123750000Y-88245098D02*
G75*
G03*
X124349991Y-88845089I599990J-1D01*
G01*
%TO.N,Net-(U2-Pad17)*%
X100802672Y-85500000D02*
X103313939Y-85500000D01*
X123750000Y-75825000D02*
X120900176Y-75825000D01*
X100475000Y-86225000D02*
X100475000Y-85827672D01*
X100802672Y-85500000D02*
G75*
G03*
X100475000Y-85827672I0J-327672D01*
G01*
X103674990Y-85861051D02*
G75*
G03*
X103313939Y-85500000I-361050J1D01*
G01*
X120650155Y-75574979D02*
G75*
G03*
X120900176Y-75825000I250019J-2D01*
G01*
%TO.N,GND*%
X106750000Y-70745000D02*
X106750000Y-69962132D01*
X110000000Y-98500000D02*
X116500000Y-98500000D01*
X101875000Y-88125000D02*
X99975000Y-88125000D01*
D53*
X93300000Y-93412500D02*
X95127500Y-93412500D01*
D52*
X109535000Y-90565000D02*
X109300000Y-90800000D01*
X109300000Y-92900000D02*
X109050000Y-93150000D01*
D53*
X94900000Y-91775000D02*
X94900000Y-93185000D01*
D52*
X98075000Y-88125000D02*
X99975000Y-88125000D01*
X109535000Y-88255000D02*
X109535000Y-90565000D01*
X98075000Y-88625000D02*
X98767894Y-88625000D01*
X96550000Y-93135000D02*
X96015000Y-93135000D01*
X103485000Y-93135000D02*
X104075000Y-93725000D01*
X96015000Y-93135000D02*
X95425000Y-93725000D01*
X99611396Y-88488604D02*
X99975000Y-88125000D01*
X110000000Y-95500000D02*
X110000000Y-98500000D01*
D53*
X101012500Y-81700000D02*
X101062500Y-81650000D01*
D52*
X109300000Y-90800000D02*
X109300000Y-92900000D01*
X104249974Y-75909974D02*
X104249974Y-81723400D01*
X117874990Y-97125010D02*
X117874990Y-92025010D01*
X119300000Y-69900000D02*
X119550000Y-70150000D01*
X123750000Y-70745000D02*
X120986457Y-70745000D01*
X109100000Y-93270710D02*
X109100000Y-94600000D01*
X106900000Y-69600000D02*
X118575736Y-69600000D01*
X99140000Y-70800000D02*
X104249974Y-75909974D01*
X98075000Y-87625000D02*
X98767894Y-87625000D01*
X102950000Y-93135000D02*
X103485000Y-93135000D01*
D53*
X99575000Y-81700000D02*
X101012500Y-81700000D01*
D52*
X106800000Y-98500000D02*
X110000000Y-98500000D01*
X109100000Y-94600000D02*
G75*
G03*
X109500000Y-95000000I399999J-1D01*
G01*
X109100000Y-93270710D02*
G75*
G03*
X109050000Y-93150000I-170708J0D01*
G01*
X110000000Y-95500000D02*
G75*
G03*
X109500000Y-95000000I-500001J-1D01*
G01*
X99975000Y-88125000D02*
G75*
G02*
X98767894Y-88625000I-1207107J1207108D01*
G01*
X99611396Y-88488604D02*
G75*
G03*
X98975000Y-90025000I1536395J-1536395D01*
G01*
D53*
X95430000Y-93715000D02*
G75*
G02*
X94900000Y-93185000I-1J529999D01*
G01*
D52*
X117874990Y-97125010D02*
G75*
G02*
X116500000Y-98500000I-1374989J-1D01*
G01*
X119550000Y-70150000D02*
G75*
G03*
X120986457Y-70745000I1436457J1436456D01*
G01*
X99975000Y-88125000D02*
G75*
G03*
X98767894Y-87625000I-1207107J-1207108D01*
G01*
X118600000Y-91300000D02*
G75*
G03*
X117874990Y-92025010I2J-725012D01*
G01*
X119300000Y-69900000D02*
G75*
G03*
X118575736Y-69600000I-724264J-724263D01*
G01*
X106900000Y-69600000D02*
G75*
G03*
X106750000Y-69962132I362137J-362134D01*
G01*
D53*
X95430000Y-93715000D02*
G75*
G03*
X95127500Y-93412500I-302499J1D01*
G01*
D52*
X99611396Y-88488604D02*
G75*
G02*
X98075000Y-89125000I-1536395J1536395D01*
G01*
%TO.N,+3V3*%
X104300000Y-84400000D02*
X104525747Y-84625747D01*
X94900000Y-74500000D02*
X94900000Y-73975000D01*
X102800000Y-78550000D02*
X102800000Y-76300000D01*
X103875010Y-82824990D02*
X103875010Y-83373984D01*
X96800000Y-74900000D02*
X95300000Y-74900000D01*
X101900000Y-75400000D02*
X97300000Y-75400000D01*
X98975000Y-86225000D02*
X98975000Y-85775000D01*
X92500000Y-73880000D02*
X94805000Y-73880000D01*
X103821105Y-89121105D02*
X103821105Y-89978895D01*
X103821105Y-89978895D02*
X103821105Y-90467332D01*
X100975000Y-90025000D02*
X103775000Y-90025000D01*
X98325000Y-64200000D02*
X98150000Y-64200000D01*
X98749999Y-85549999D02*
X97565987Y-85549999D01*
X104950011Y-85650011D02*
X104950011Y-86749989D01*
X104542145Y-87734666D02*
X104488405Y-87788405D01*
X96600000Y-70800000D02*
X93500000Y-70800000D01*
X96600000Y-65750000D02*
X96600000Y-70800000D01*
X102825000Y-81100000D02*
X102825000Y-81371426D01*
X92500000Y-73880000D02*
X92500000Y-71800000D01*
X105153408Y-72646592D02*
X105153408Y-73817094D01*
X106750000Y-72015000D02*
X105785000Y-72015000D01*
X101875000Y-89125000D02*
X103817210Y-89125000D01*
X102825000Y-81371426D02*
X103589654Y-82136080D01*
X104488404Y-87788406D02*
X103821105Y-88455704D01*
X103821105Y-88455704D02*
X103821105Y-89121105D01*
X102000000Y-88625000D02*
X103651809Y-88625000D01*
X98749999Y-85549999D02*
G75*
G02*
X98975000Y-85775000I1J-225000D01*
G01*
X103875010Y-82824990D02*
G75*
G03*
X103589654Y-82136080I-974267J-1D01*
G01*
X96800000Y-74900000D02*
G75*
G02*
X97100000Y-75200000I0J-300000D01*
G01*
X96450010Y-86665976D02*
G75*
G02*
X97565987Y-85549999I1115977J0D01*
G01*
X104488404Y-87788406D02*
G75*
G02*
X104488405Y-87788405I1J0D01*
G01*
X105153408Y-72646592D02*
G75*
G02*
X105785000Y-72015000I631592J0D01*
G01*
X104300000Y-84400000D02*
G75*
G02*
X103875010Y-83373984I1026005J1026012D01*
G01*
X97100000Y-75200000D02*
G75*
G03*
X97300000Y-75400000I200001J1D01*
G01*
X94900000Y-74500000D02*
G75*
G03*
X95300000Y-74900000I399999J-1D01*
G01*
X104542145Y-87734666D02*
G75*
G03*
X104950011Y-86749989I-984681J984678D01*
G01*
X93500000Y-70800000D02*
G75*
G03*
X92500000Y-71800000I-1J-999999D01*
G01*
X104950010Y-85650011D02*
G75*
G03*
X104525746Y-84625748I-1448530J-1D01*
G01*
X103821105Y-89121105D02*
G75*
G02*
X103817210Y-89125000I-3896J1D01*
G01*
X94900000Y-73975000D02*
G75*
G03*
X94805000Y-73880000I-95000J0D01*
G01*
X103821105Y-89978895D02*
G75*
G02*
X103775000Y-90025000I-46106J1D01*
G01*
X104342133Y-90988360D02*
G75*
G02*
X103821105Y-90467332I1J521029D01*
G01*
X101900000Y-75400000D02*
G75*
G02*
X102800000Y-76300000I0J-900000D01*
G01*
X96600000Y-65750000D02*
G75*
G02*
X98150000Y-64200000I1549998J2D01*
G01*
%TO.N,OLED-RST*%
X122335000Y-79635000D02*
X123750000Y-79635000D01*
X119003892Y-81521428D02*
X119003892Y-79196108D01*
X119500000Y-78700000D02*
X121400000Y-78700000D01*
X122335000Y-79635000D02*
G75*
G02*
X122000000Y-79300000I-1J334999D01*
G01*
X122000000Y-79300000D02*
G75*
G03*
X121400000Y-78700000I-600000J0D01*
G01*
X119500000Y-78700000D02*
G75*
G03*
X119003892Y-79196108I1J-496109D01*
G01*
%TO.N,OLED-DC*%
X123750000Y-77095000D02*
X120705000Y-77095000D01*
X120300000Y-77500000D02*
G75*
G02*
X120705000Y-77095000I405001J-1D01*
G01*
%TO.N,OLED-CS0*%
X120461390Y-81053482D02*
X120461390Y-81761390D01*
X123750000Y-82175000D02*
X120875000Y-82175000D01*
X120875000Y-82175000D02*
G75*
G02*
X120461390Y-81761390I1J413611D01*
G01*
%TO.N,OLED-SCLK*%
X121600000Y-80400000D02*
X121600000Y-80300000D01*
X120011379Y-79673314D02*
X120973314Y-79673314D01*
X123750000Y-80905000D02*
X122105000Y-80905000D01*
X121600000Y-80400000D02*
G75*
G03*
X122105000Y-80905000I505000J0D01*
G01*
X121600000Y-80300000D02*
G75*
G03*
X120973314Y-79673314I-626686J0D01*
G01*
%TO.N,OLED-MOSI*%
X118250022Y-79018618D02*
X118250022Y-78749978D01*
X120250000Y-73750000D02*
X121750000Y-73750000D01*
X122270000Y-72430000D02*
X122270000Y-73230000D01*
X123750000Y-72015000D02*
X122685000Y-72015000D01*
X119500000Y-77500000D02*
X119500000Y-74500000D01*
X119500000Y-77500000D02*
G75*
G02*
X119000000Y-78000000I-500001J1D01*
G01*
X120250000Y-73750000D02*
G75*
G03*
X119500000Y-74500000I0J-750000D01*
G01*
X122270000Y-72430000D02*
G75*
G02*
X122685000Y-72015000I415001J-1D01*
G01*
X121750000Y-73750000D02*
G75*
G03*
X122270000Y-73230000I2J519998D01*
G01*
X119000000Y-78000000D02*
G75*
G03*
X118250022Y-78749978I-2J-749976D01*
G01*
%TO.N,CO2-SDA*%
X106750000Y-82175000D02*
X105724998Y-82175000D01*
X104681655Y-74418345D02*
X104831655Y-74568345D01*
X104220000Y-70800000D02*
X104220000Y-73303812D01*
X105424999Y-76000804D02*
X105424999Y-81875001D01*
X105424998Y-76000804D02*
G75*
G03*
X104831654Y-74568346I-2025797J2D01*
G01*
X105424999Y-81875001D02*
G75*
G03*
X105724998Y-82175000I300000J1D01*
G01*
X104681655Y-74418345D02*
G75*
G02*
X104220000Y-73303812I1114523J1114529D01*
G01*
%TO.N,CO2-SCL*%
X101680000Y-72053101D02*
X104319571Y-74692671D01*
X104974988Y-76274988D02*
X104974988Y-82919988D01*
X101680000Y-70800000D02*
X101680000Y-72053101D01*
X106750000Y-83445000D02*
X105500000Y-83445000D01*
X104974988Y-76274988D02*
G75*
G03*
X104319571Y-74692671I-2237741J-3D01*
G01*
X104974988Y-82919988D02*
G75*
G03*
X105500000Y-83445000I525010J-2D01*
G01*
%TO.N,IO7*%
X125525012Y-84843227D02*
X125525012Y-91225012D01*
X123750000Y-73285000D02*
X124700000Y-73285000D01*
X125157500Y-73742500D02*
X125157500Y-83955975D01*
X126550000Y-92250000D02*
X126550000Y-93150000D01*
X126000000Y-91700000D02*
G75*
G02*
X125525012Y-91225012I1J474989D01*
G01*
X125300000Y-84300000D02*
G75*
G02*
X125157500Y-83955975I344018J344023D01*
G01*
X125157500Y-73742500D02*
G75*
G03*
X124700000Y-73285000I-457501J-1D01*
G01*
X125525011Y-84843227D02*
G75*
G03*
X125299999Y-84300001I-768238J0D01*
G01*
X126550000Y-92250000D02*
G75*
G03*
X126000000Y-91700000I-549999J1D01*
G01*
%TO.N,IO6*%
X106750000Y-84715000D02*
X105734998Y-84715000D01*
X105424999Y-85024999D02*
X105424999Y-87924999D01*
X107800000Y-88700000D02*
X107800000Y-91200000D01*
X105750000Y-88250000D02*
X107350000Y-88250000D01*
X105750000Y-88250000D02*
G75*
G02*
X105424999Y-87924999I1J325002D01*
G01*
X105424999Y-85024999D02*
G75*
G02*
X105734998Y-84715000I310000J-1D01*
G01*
X107800000Y-88700000D02*
G75*
G03*
X107350000Y-88250000I-450000J0D01*
G01*
%TO.N,IO5*%
X110805000Y-88255000D02*
X110805000Y-90950467D01*
X110384222Y-91371245D02*
G75*
G03*
X110805000Y-90950467I0J420778D01*
G01*
%TO.N,IO4*%
X107712000Y-85985000D02*
X106750000Y-85985000D01*
X108958879Y-86877531D02*
X109225712Y-86610698D01*
X108788514Y-85254108D02*
X108854108Y-85254108D01*
X107107401Y-91925002D02*
X108187505Y-91925002D01*
X109463590Y-86036410D02*
X109463590Y-85863590D01*
X108525002Y-91587505D02*
X108525002Y-87925002D01*
X108198500Y-85498500D02*
X107712000Y-85985000D01*
X108958879Y-86877531D02*
G75*
G03*
X108525002Y-87925002I1047467J-1047470D01*
G01*
X109463590Y-86036410D02*
G75*
G02*
X109225712Y-86610698I-812158J-3D01*
G01*
X108525002Y-91587505D02*
G75*
G02*
X108187505Y-91925002I-337498J1D01*
G01*
X107107401Y-91925002D02*
G75*
G02*
X106645627Y-91463228I-2J461772D01*
G01*
X109463590Y-85863590D02*
G75*
G03*
X108854108Y-85254108I-609482J0D01*
G01*
X108198500Y-85498500D02*
G75*
G02*
X108788514Y-85254108I590013J-590010D01*
G01*
%TO.N,IO3*%
X111600000Y-90200000D02*
X111600000Y-90573412D01*
X111200010Y-94400010D02*
X115299990Y-94400010D01*
X110374990Y-93025010D02*
X110374990Y-93574990D01*
X121740001Y-84204999D02*
X121740001Y-89423589D01*
X111094294Y-91794294D02*
X110736613Y-92151975D01*
X121583589Y-89580001D02*
X112219999Y-89580001D01*
X123750000Y-83445000D02*
X122500000Y-83445000D01*
X111600000Y-90200000D02*
G75*
G02*
X112219999Y-89580001I620001J-2D01*
G01*
X111094294Y-91794294D02*
G75*
G03*
X111600000Y-90573412I-1220888J1220885D01*
G01*
X121583589Y-89580001D02*
G75*
G03*
X121740001Y-89423589I0J156412D01*
G01*
X116550000Y-93150000D02*
G75*
G02*
X115299990Y-94400010I-1250008J-2D01*
G01*
X121740001Y-84204999D02*
G75*
G02*
X122500000Y-83445000I760001J-2D01*
G01*
X111200010Y-94400010D02*
G75*
G02*
X110374990Y-93574990I1J825021D01*
G01*
X110374991Y-93025010D02*
G75*
G02*
X110736613Y-92151975I1234656J1D01*
G01*
%TO.N,IO2*%
X123750000Y-84715000D02*
X124515002Y-84715000D01*
X114050000Y-93075000D02*
X116644977Y-90480023D01*
X116644977Y-90480023D02*
X123892980Y-90480023D01*
X114050000Y-93150000D02*
X114050000Y-93075000D01*
X125075001Y-89298002D02*
X125075001Y-85274999D01*
X125075001Y-89298002D02*
G75*
G02*
X123892980Y-90480023I-1182021J0D01*
G01*
X125075001Y-85274999D02*
G75*
G03*
X124515002Y-84715000I-559999J0D01*
G01*
%TO.N,IO1*%
X111550000Y-93150000D02*
X111550000Y-93075000D01*
X123750000Y-85985000D02*
X122715000Y-85985000D01*
X114594988Y-90030012D02*
X121892051Y-90030012D01*
X122357903Y-89564160D02*
X122357903Y-86342097D01*
X111550000Y-93075000D02*
X114594988Y-90030012D01*
X122357903Y-86342097D02*
G75*
G02*
X122715000Y-85985000I357096J1D01*
G01*
X122357903Y-89564160D02*
G75*
G02*
X121892051Y-90030012I-465852J0D01*
G01*
%TO.N,R*%
X98375000Y-68900000D02*
X97400000Y-68900000D01*
X107489455Y-87255000D02*
X108739090Y-86005365D01*
X108174998Y-70751998D02*
X108174998Y-71125002D01*
X109639361Y-73687817D02*
X108646415Y-74680763D01*
X108403393Y-71676398D02*
X109639489Y-72912493D01*
X108099978Y-84261707D02*
X108367377Y-84529106D01*
X108974998Y-70374998D02*
X108551998Y-70374998D01*
X108099978Y-75999978D02*
X108099978Y-84261707D01*
X106750000Y-87255000D02*
X107489455Y-87255000D01*
X110443109Y-71617790D02*
X109359643Y-70534323D01*
X108974998Y-70374998D02*
G75*
G02*
X109359643Y-70534323I2J-543965D01*
G01*
X108403393Y-71676398D02*
G75*
G02*
X108174998Y-71125002I551400J551397D01*
G01*
X109799999Y-73300000D02*
G75*
G03*
X109639488Y-72912494I-548019J-1D01*
G01*
X108099979Y-75999978D02*
G75*
G02*
X108646416Y-74680764I1865646J2D01*
G01*
X108174998Y-70751998D02*
G75*
G02*
X108551998Y-70374998I377001J-1D01*
G01*
X109639361Y-73687817D02*
G75*
G03*
X109800000Y-73300000I-387821J387818D01*
G01*
%TO.N,G*%
X111227906Y-72372094D02*
X111227906Y-70998018D01*
X98375000Y-66500000D02*
X97400000Y-66500000D01*
X109494975Y-75105025D02*
X110520799Y-74079201D01*
X119900000Y-86200000D02*
X110900000Y-86200000D01*
X120965000Y-88255000D02*
X120965000Y-87265000D01*
X109550000Y-84050000D02*
X109934314Y-84434314D01*
X109000000Y-82722183D02*
X109000000Y-76300000D01*
X110500000Y-85800000D02*
G75*
G03*
X110900000Y-86200000I399999J-1D01*
G01*
X111227906Y-72372094D02*
G75*
G02*
X110520799Y-74079201I-2414211J-1D01*
G01*
X109494975Y-75105025D02*
G75*
G03*
X109000000Y-76300000I1194971J-1194974D01*
G01*
X119900000Y-86200000D02*
G75*
G02*
X120965000Y-87265000I1J-1064999D01*
G01*
X110499999Y-85800000D02*
G75*
G03*
X109934313Y-84434315I-1931370J0D01*
G01*
X109000000Y-82722183D02*
G75*
G03*
X109550000Y-84050000I1877821J2D01*
G01*
%TO.N,B*%
X119105000Y-86705000D02*
X110765027Y-86705000D01*
X119695000Y-88255000D02*
X119695000Y-87295000D01*
X109000000Y-74963590D02*
X110042903Y-73920687D01*
X98375000Y-67700000D02*
X97400000Y-67700000D01*
X109734315Y-71934314D02*
X108900000Y-71100000D01*
X109431795Y-84568205D02*
X109131795Y-84268205D01*
X108549989Y-82863602D02*
X108549989Y-76050011D01*
X109431795Y-84568205D02*
G75*
G02*
X110000000Y-85939973I-1371763J-1371766D01*
G01*
X119105000Y-86705000D02*
G75*
G02*
X119695000Y-87295000I0J-590000D01*
G01*
X110299999Y-73300000D02*
G75*
G02*
X110042902Y-73920686I-877776J-3D01*
G01*
X108549990Y-82863602D02*
G75*
G03*
X109131796Y-84268204I1986407J0D01*
G01*
X109734315Y-71934314D02*
G75*
G02*
X110300000Y-73300000I-1365690J-1365687D01*
G01*
X109000000Y-74963590D02*
G75*
G03*
X108549989Y-76050011I1086413J-1086419D01*
G01*
X110000000Y-85939973D02*
G75*
G03*
X110765027Y-86705000I765026J-1D01*
G01*
D53*
%TO.N,DC*%
X94900000Y-85800000D02*
X94900000Y-81800000D01*
D52*
X96450000Y-79850000D02*
X97400000Y-79850000D01*
D53*
X96550000Y-81100000D02*
X95600000Y-81100000D01*
X95600000Y-81100000D02*
G75*
G03*
X94900000Y-81800000I-1J-699999D01*
G01*
D52*
%TO.N,Net-(D3-Pad2)*%
X100825001Y-64775001D02*
X100825001Y-68099999D01*
X100075000Y-64200000D02*
X100250000Y-64200000D01*
X100825001Y-64775001D02*
G75*
G03*
X100250000Y-64200000I-575001J0D01*
G01*
X100025000Y-68900000D02*
G75*
G03*
X100825001Y-68099999I0J800001D01*
G01*
%TO.N,Net-(D3-Pad3)*%
X100075000Y-65200000D02*
X100075000Y-66450000D01*
X100075000Y-66450000D02*
X100025000Y-66500000D01*
%TO.N,Net-(U2-Pad1)*%
X123750000Y-74555000D02*
X121419845Y-74555000D01*
X96530839Y-87772125D02*
X96543663Y-87759301D01*
X121339855Y-74475010D02*
G75*
G03*
X121419845Y-74555000I79992J2D01*
G01*
X98075000Y-87125000D02*
G75*
G03*
X96543663Y-87759301I2J-2165641D01*
G01*
%TO.N,Net-(D3-Pad4)*%
X99625000Y-67700000D02*
X100025000Y-67700000D01*
X99100010Y-65975010D02*
X99100010Y-67175010D01*
X99625000Y-67700000D02*
G75*
G02*
X99100010Y-67175010I0J524990D01*
G01*
X99100010Y-65975010D02*
G75*
G03*
X98325000Y-65200000I-775009J1D01*
G01*
%TO.N,Net-(R1-Pad2)*%
X96450000Y-75875000D02*
X96450000Y-77150000D01*
X94900000Y-75625000D02*
X96200000Y-75625000D01*
X96450000Y-75875000D02*
G75*
G03*
X96200000Y-75625000I-249999J1D01*
G01*
%TD*%
%TA.AperFunction,Conductor*%
%TO.N,GND*%
G36*
X100938121Y-63274002D02*
G01*
X100984614Y-63327658D01*
X100996000Y-63380000D01*
X100996000Y-63859741D01*
X100975998Y-63927862D01*
X100922342Y-63974355D01*
X100852068Y-63984459D01*
X100787488Y-63954965D01*
X100749104Y-63895239D01*
X100746421Y-63884320D01*
X100742156Y-63862874D01*
X100742155Y-63862872D01*
X100739734Y-63850699D01*
X100732511Y-63839888D01*
X100690377Y-63776832D01*
X100683484Y-63766516D01*
X100599301Y-63710266D01*
X100525067Y-63695500D01*
X100075073Y-63695500D01*
X99624934Y-63695501D01*
X99589182Y-63702612D01*
X99562874Y-63707844D01*
X99562872Y-63707845D01*
X99550699Y-63710266D01*
X99540379Y-63717161D01*
X99540378Y-63717162D01*
X99484108Y-63754761D01*
X99466516Y-63766516D01*
X99410266Y-63850699D01*
X99395500Y-63924933D01*
X99395501Y-64475066D01*
X99410266Y-64549301D01*
X99464188Y-64630000D01*
X99485402Y-64697750D01*
X99464188Y-64770000D01*
X99410266Y-64850699D01*
X99395500Y-64924933D01*
X99395500Y-65108595D01*
X99375498Y-65176716D01*
X99321842Y-65223209D01*
X99251568Y-65233313D01*
X99186988Y-65203819D01*
X99180405Y-65197690D01*
X99069940Y-65087225D01*
X99058227Y-65079024D01*
X99013900Y-65023569D01*
X99004499Y-64975812D01*
X99004499Y-64924934D01*
X98997388Y-64889182D01*
X98992156Y-64862874D01*
X98992155Y-64862872D01*
X98989734Y-64850699D01*
X98935812Y-64770000D01*
X98914598Y-64702250D01*
X98935812Y-64630000D01*
X98989734Y-64549301D01*
X99004500Y-64475067D01*
X99004499Y-63924934D01*
X98996009Y-63882247D01*
X98992156Y-63862874D01*
X98992155Y-63862872D01*
X98989734Y-63850699D01*
X98982511Y-63839888D01*
X98940377Y-63776832D01*
X98933484Y-63766516D01*
X98849301Y-63710266D01*
X98775067Y-63695500D01*
X98325073Y-63695500D01*
X97874934Y-63695501D01*
X97839182Y-63702612D01*
X97812874Y-63707844D01*
X97812872Y-63707845D01*
X97800699Y-63710266D01*
X97790379Y-63717161D01*
X97790378Y-63717162D01*
X97734108Y-63754761D01*
X97716516Y-63766516D01*
X97660266Y-63850699D01*
X97656536Y-63848207D01*
X97627272Y-63884598D01*
X97595808Y-63900485D01*
X97410028Y-63963549D01*
X97388116Y-63974355D01*
X97186884Y-64073591D01*
X97186879Y-64073594D01*
X97183180Y-64075418D01*
X96972874Y-64215940D01*
X96782709Y-64382709D01*
X96615940Y-64572874D01*
X96475418Y-64783180D01*
X96473594Y-64786879D01*
X96473591Y-64786884D01*
X96436971Y-64861142D01*
X96363549Y-65010028D01*
X96362224Y-65013933D01*
X96362223Y-65013934D01*
X96299847Y-65197690D01*
X96282247Y-65249537D01*
X96281444Y-65253576D01*
X96281442Y-65253582D01*
X96233706Y-65493567D01*
X96232902Y-65497610D01*
X96232633Y-65501721D01*
X96232632Y-65501725D01*
X96221128Y-65677251D01*
X96216777Y-65743635D01*
X96215769Y-65750000D01*
X96218949Y-65770077D01*
X96220500Y-65789788D01*
X96220500Y-69674839D01*
X96200498Y-69742960D01*
X96146842Y-69789453D01*
X96138118Y-69793049D01*
X96122463Y-69798824D01*
X95948010Y-69902612D01*
X95943670Y-69906418D01*
X95943666Y-69906421D01*
X95799733Y-70032648D01*
X95795392Y-70036455D01*
X95791817Y-70040990D01*
X95791816Y-70040991D01*
X95785456Y-70049059D01*
X95669720Y-70195869D01*
X95667031Y-70200980D01*
X95667029Y-70200983D01*
X95586960Y-70353168D01*
X95537540Y-70404141D01*
X95475452Y-70420500D01*
X93539788Y-70420500D01*
X93520077Y-70418949D01*
X93500000Y-70415769D01*
X93494165Y-70416693D01*
X93283532Y-70433270D01*
X93278725Y-70434424D01*
X93278719Y-70434425D01*
X93146073Y-70466271D01*
X93072393Y-70483960D01*
X93067822Y-70485853D01*
X93067820Y-70485854D01*
X92876357Y-70565160D01*
X92876353Y-70565162D01*
X92871783Y-70567055D01*
X92686643Y-70680509D01*
X92521529Y-70821529D01*
X92380509Y-70986643D01*
X92267055Y-71171783D01*
X92265162Y-71176353D01*
X92265160Y-71176357D01*
X92191323Y-71354616D01*
X92183960Y-71372393D01*
X92182805Y-71377205D01*
X92138131Y-71563285D01*
X92133270Y-71583532D01*
X92125115Y-71687156D01*
X92121779Y-71729544D01*
X92121267Y-71733039D01*
X92120982Y-71733851D01*
X92120500Y-71739416D01*
X92120500Y-71742128D01*
X92120382Y-71744857D01*
X92120342Y-71744855D01*
X92120112Y-71750720D01*
X92116693Y-71794165D01*
X92115769Y-71800000D01*
X92117320Y-71809792D01*
X92118949Y-71820077D01*
X92120500Y-71839788D01*
X92120500Y-72754839D01*
X92100498Y-72822960D01*
X92046842Y-72869453D01*
X92038118Y-72873049D01*
X92022463Y-72878824D01*
X91848010Y-72982612D01*
X91843670Y-72986418D01*
X91843666Y-72986421D01*
X91744793Y-73073131D01*
X91695392Y-73116455D01*
X91569720Y-73275869D01*
X91567031Y-73280980D01*
X91567029Y-73280983D01*
X91534668Y-73342491D01*
X91475203Y-73455515D01*
X91415007Y-73649378D01*
X91391148Y-73850964D01*
X91404424Y-74053522D01*
X91405845Y-74059118D01*
X91405846Y-74059123D01*
X91433893Y-74169556D01*
X91454392Y-74250269D01*
X91456809Y-74255512D01*
X91512210Y-74375686D01*
X91539377Y-74434616D01*
X91542710Y-74439332D01*
X91640030Y-74577037D01*
X91656533Y-74600389D01*
X91660675Y-74604424D01*
X91710343Y-74652808D01*
X91801938Y-74742035D01*
X91970720Y-74854812D01*
X91976023Y-74857090D01*
X91976026Y-74857092D01*
X92072954Y-74898735D01*
X92127647Y-74944003D01*
X92149184Y-75011654D01*
X92130727Y-75080210D01*
X92078136Y-75127904D01*
X92062361Y-75134268D01*
X91976868Y-75162212D01*
X91967359Y-75166209D01*
X91778466Y-75264540D01*
X91769734Y-75270039D01*
X91749677Y-75285099D01*
X91741223Y-75296427D01*
X91747968Y-75308758D01*
X92487188Y-76047978D01*
X92501132Y-76055592D01*
X92502965Y-76055461D01*
X92509580Y-76051210D01*
X93253389Y-75307401D01*
X93260410Y-75294544D01*
X93253611Y-75285213D01*
X93249554Y-75282518D01*
X93063117Y-75179599D01*
X93053705Y-75175369D01*
X92939391Y-75134888D01*
X92881855Y-75093294D01*
X92855939Y-75027196D01*
X92869873Y-74957580D01*
X92919232Y-74906549D01*
X92940943Y-74896804D01*
X92951165Y-74893334D01*
X92967915Y-74883954D01*
X93025683Y-74851602D01*
X93128276Y-74794147D01*
X93152105Y-74774329D01*
X93279913Y-74668031D01*
X93284345Y-74664345D01*
X93345168Y-74591214D01*
X93410453Y-74512718D01*
X93410455Y-74512715D01*
X93414147Y-74508276D01*
X93513334Y-74331165D01*
X93513787Y-74331419D01*
X93557368Y-74280151D01*
X93626488Y-74259500D01*
X94083641Y-74259500D01*
X94151762Y-74279502D01*
X94198255Y-74333158D01*
X94202517Y-74343734D01*
X94218791Y-74390076D01*
X94299990Y-74500010D01*
X94409924Y-74581209D01*
X94418808Y-74584329D01*
X94418812Y-74584331D01*
X94461718Y-74599398D01*
X94519364Y-74640841D01*
X94540544Y-74681704D01*
X94576351Y-74799745D01*
X94579270Y-74805206D01*
X94579361Y-74805377D01*
X94579382Y-74805477D01*
X94581638Y-74810924D01*
X94580605Y-74811352D01*
X94593830Y-74874883D01*
X94568425Y-74941178D01*
X94509986Y-74983651D01*
X94464039Y-74999787D01*
X94409924Y-75018791D01*
X94299990Y-75099990D01*
X94218791Y-75209924D01*
X94173507Y-75338873D01*
X94172785Y-75346515D01*
X94172784Y-75346518D01*
X94171485Y-75360269D01*
X94170500Y-75370685D01*
X94170501Y-75879314D01*
X94170780Y-75882262D01*
X94170780Y-75882271D01*
X94172344Y-75898821D01*
X94173507Y-75911127D01*
X94218791Y-76040076D01*
X94299990Y-76150010D01*
X94409924Y-76231209D01*
X94538873Y-76276493D01*
X94546515Y-76277215D01*
X94546518Y-76277216D01*
X94561421Y-76278624D01*
X94570685Y-76279500D01*
X94899777Y-76279500D01*
X95229314Y-76279499D01*
X95232262Y-76279220D01*
X95232271Y-76279220D01*
X95253478Y-76277216D01*
X95253480Y-76277216D01*
X95261127Y-76276493D01*
X95390076Y-76231209D01*
X95397648Y-76225616D01*
X95397652Y-76225614D01*
X95453499Y-76184364D01*
X95475141Y-76168379D01*
X95541818Y-76143996D01*
X95611094Y-76159532D01*
X95624856Y-76168376D01*
X95646501Y-76184364D01*
X95702348Y-76225614D01*
X95702352Y-76225616D01*
X95709924Y-76231209D01*
X95838873Y-76276493D01*
X95846515Y-76277215D01*
X95846518Y-76277216D01*
X95861421Y-76278624D01*
X95870685Y-76279500D01*
X95887282Y-76279500D01*
X95955403Y-76299502D01*
X96001896Y-76353158D01*
X96012000Y-76423432D01*
X95992047Y-76475502D01*
X95968027Y-76511450D01*
X95968025Y-76511454D01*
X95961133Y-76521769D01*
X95958712Y-76533938D01*
X95958712Y-76533939D01*
X95953952Y-76557872D01*
X95949500Y-76580252D01*
X95949500Y-77270392D01*
X95929498Y-77338513D01*
X95875842Y-77385006D01*
X95805568Y-77395110D01*
X95766297Y-77382659D01*
X95683126Y-77340281D01*
X95673337Y-77338731D01*
X95673335Y-77338730D01*
X95643851Y-77334060D01*
X95583488Y-77324500D01*
X95016512Y-77324500D01*
X94956149Y-77334060D01*
X94926665Y-77338730D01*
X94926663Y-77338731D01*
X94916874Y-77340281D01*
X94796780Y-77401472D01*
X94701472Y-77496780D01*
X94640281Y-77616874D01*
X94638731Y-77626663D01*
X94638730Y-77626665D01*
X94637738Y-77632931D01*
X94624500Y-77716512D01*
X94624500Y-78233488D01*
X94633855Y-78292551D01*
X94638358Y-78320982D01*
X94640281Y-78333126D01*
X94701472Y-78453220D01*
X94796780Y-78548528D01*
X94916874Y-78609719D01*
X94926663Y-78611269D01*
X94926665Y-78611270D01*
X95016512Y-78625500D01*
X95016156Y-78627750D01*
X95073676Y-78649674D01*
X95115816Y-78706812D01*
X95120375Y-78777662D01*
X95085906Y-78839729D01*
X95023352Y-78873309D01*
X95016480Y-78874297D01*
X95016512Y-78874500D01*
X94926665Y-78888730D01*
X94926663Y-78888731D01*
X94916874Y-78890281D01*
X94796780Y-78951472D01*
X94701472Y-79046780D01*
X94640281Y-79166874D01*
X94638731Y-79176663D01*
X94638730Y-79176665D01*
X94635651Y-79196109D01*
X94624500Y-79266512D01*
X94624500Y-79783488D01*
X94640281Y-79883126D01*
X94701472Y-80003220D01*
X94796780Y-80098528D01*
X94916874Y-80159719D01*
X94926663Y-80161269D01*
X94926665Y-80161270D01*
X94956149Y-80165940D01*
X95016512Y-80175500D01*
X95583488Y-80175500D01*
X95643851Y-80165940D01*
X95673335Y-80161270D01*
X95673337Y-80161269D01*
X95683126Y-80159719D01*
X95766298Y-80117341D01*
X95836074Y-80104237D01*
X95901858Y-80130937D01*
X95942765Y-80188964D01*
X95949500Y-80229608D01*
X95949500Y-80327278D01*
X95929498Y-80395399D01*
X95878771Y-80439354D01*
X95879027Y-80439837D01*
X95876936Y-80440944D01*
X95875842Y-80441892D01*
X95872930Y-80443065D01*
X95870697Y-80444247D01*
X95861816Y-80447366D01*
X95854246Y-80452958D01*
X95854243Y-80452959D01*
X95760426Y-80522254D01*
X95752850Y-80527850D01*
X95742158Y-80542326D01*
X95685595Y-80585235D01*
X95622121Y-80591500D01*
X95622103Y-80591706D01*
X95621018Y-80591609D01*
X95619911Y-80591718D01*
X95617254Y-80591271D01*
X95617247Y-80591270D01*
X95612454Y-80590464D01*
X95606172Y-80590387D01*
X95604859Y-80590371D01*
X95604855Y-80590371D01*
X95600001Y-80590312D01*
X95581289Y-80592992D01*
X95573337Y-80593874D01*
X95410992Y-80606650D01*
X95406183Y-80607805D01*
X95406180Y-80607805D01*
X95339835Y-80623733D01*
X95226638Y-80650909D01*
X95222067Y-80652802D01*
X95222065Y-80652803D01*
X95056051Y-80721568D01*
X95056047Y-80721570D01*
X95051477Y-80723463D01*
X94889823Y-80822525D01*
X94745656Y-80945656D01*
X94622525Y-81089823D01*
X94523463Y-81251477D01*
X94521570Y-81256047D01*
X94521568Y-81256051D01*
X94452803Y-81422065D01*
X94450909Y-81426638D01*
X94438883Y-81476730D01*
X94407895Y-81605808D01*
X94406650Y-81610992D01*
X94406262Y-81615924D01*
X94395204Y-81756432D01*
X94393848Y-81767439D01*
X94390464Y-81787548D01*
X94390312Y-81800001D01*
X94393283Y-81820747D01*
X94394227Y-81827337D01*
X94395500Y-81845200D01*
X94395500Y-84794500D01*
X94375498Y-84862621D01*
X94321842Y-84909114D01*
X94269500Y-84920500D01*
X94227244Y-84920500D01*
X94223848Y-84920869D01*
X94223847Y-84920869D01*
X94173403Y-84926349D01*
X94173402Y-84926349D01*
X94165552Y-84927202D01*
X94158159Y-84929974D01*
X94158157Y-84929974D01*
X94156218Y-84930701D01*
X94030236Y-84977929D01*
X94023057Y-84983309D01*
X94023054Y-84983311D01*
X93957694Y-85032296D01*
X93914596Y-85064596D01*
X93909215Y-85071776D01*
X93833311Y-85173054D01*
X93833309Y-85173057D01*
X93827929Y-85180236D01*
X93800979Y-85252126D01*
X93782809Y-85300596D01*
X93777202Y-85315552D01*
X93770500Y-85377244D01*
X93770500Y-86118520D01*
X93750498Y-86186641D01*
X93696842Y-86233134D01*
X93626568Y-86243238D01*
X93561988Y-86213744D01*
X93531494Y-86174248D01*
X93448331Y-86005609D01*
X93445776Y-86000428D01*
X93324320Y-85837779D01*
X93175258Y-85699987D01*
X93170375Y-85696906D01*
X93170371Y-85696903D01*
X93008464Y-85594748D01*
X93003581Y-85591667D01*
X92815039Y-85516446D01*
X92809379Y-85515320D01*
X92809375Y-85515319D01*
X92621613Y-85477971D01*
X92621610Y-85477971D01*
X92615946Y-85476844D01*
X92610171Y-85476768D01*
X92610167Y-85476768D01*
X92508793Y-85475441D01*
X92412971Y-85474187D01*
X92407274Y-85475166D01*
X92407273Y-85475166D01*
X92240256Y-85503865D01*
X92212910Y-85508564D01*
X92022463Y-85578824D01*
X91848010Y-85682612D01*
X91843670Y-85686418D01*
X91843666Y-85686421D01*
X91714154Y-85800001D01*
X91695392Y-85816455D01*
X91691817Y-85820990D01*
X91691816Y-85820991D01*
X91680751Y-85835027D01*
X91569720Y-85975869D01*
X91567031Y-85980980D01*
X91567029Y-85980983D01*
X91531891Y-86047769D01*
X91475203Y-86155515D01*
X91415007Y-86349378D01*
X91391148Y-86550964D01*
X91404424Y-86753522D01*
X91405845Y-86759118D01*
X91405846Y-86759123D01*
X91441518Y-86899577D01*
X91454392Y-86950269D01*
X91456809Y-86955512D01*
X91494010Y-87036208D01*
X91539377Y-87134616D01*
X91549701Y-87149224D01*
X91593613Y-87211358D01*
X91656533Y-87300389D01*
X91801938Y-87442035D01*
X91970720Y-87554812D01*
X91976023Y-87557090D01*
X91976026Y-87557092D01*
X92151921Y-87632662D01*
X92157228Y-87634942D01*
X92226365Y-87650586D01*
X92349579Y-87678467D01*
X92349584Y-87678468D01*
X92355216Y-87679742D01*
X92360987Y-87679969D01*
X92360989Y-87679969D01*
X92420756Y-87682317D01*
X92558053Y-87687712D01*
X92658499Y-87673148D01*
X92753231Y-87659413D01*
X92753236Y-87659412D01*
X92758945Y-87658584D01*
X92764409Y-87656729D01*
X92764414Y-87656728D01*
X92945693Y-87595192D01*
X92945698Y-87595190D01*
X92951165Y-87593334D01*
X93128276Y-87494147D01*
X93134767Y-87488749D01*
X93279913Y-87368031D01*
X93284345Y-87364345D01*
X93356697Y-87277352D01*
X93410453Y-87212718D01*
X93410455Y-87212715D01*
X93414147Y-87208276D01*
X93513334Y-87031165D01*
X93515190Y-87025698D01*
X93515192Y-87025693D01*
X93576728Y-86844414D01*
X93576729Y-86844409D01*
X93578584Y-86838945D01*
X93579412Y-86833236D01*
X93579413Y-86833231D01*
X93602023Y-86677291D01*
X93607712Y-86638053D01*
X93609232Y-86580000D01*
X93602634Y-86508195D01*
X93616319Y-86438530D01*
X93665495Y-86387323D01*
X93734550Y-86370831D01*
X93801558Y-86394291D01*
X93828931Y-86421101D01*
X93914596Y-86535404D01*
X93921776Y-86540785D01*
X94023054Y-86616689D01*
X94023057Y-86616691D01*
X94030236Y-86622071D01*
X94085254Y-86642696D01*
X94158157Y-86670026D01*
X94158159Y-86670026D01*
X94165552Y-86672798D01*
X94173402Y-86673651D01*
X94173403Y-86673651D01*
X94191878Y-86675658D01*
X94227244Y-86679500D01*
X94462056Y-86679500D01*
X94530177Y-86699502D01*
X94576670Y-86753158D01*
X94586774Y-86823432D01*
X94557280Y-86888012D01*
X94544886Y-86900448D01*
X94511766Y-86929341D01*
X94511762Y-86929346D01*
X94506039Y-86934338D01*
X94414950Y-87063944D01*
X94391235Y-87124770D01*
X94367368Y-87185987D01*
X94357406Y-87211537D01*
X94356414Y-87219070D01*
X94356414Y-87219071D01*
X94345709Y-87300389D01*
X94336729Y-87368596D01*
X94343315Y-87428249D01*
X94353000Y-87515970D01*
X94354113Y-87526053D01*
X94356723Y-87533184D01*
X94356723Y-87533186D01*
X94363315Y-87551199D01*
X94367941Y-87622045D01*
X94333531Y-87684145D01*
X94271009Y-87717784D01*
X94244989Y-87720500D01*
X94227244Y-87720500D01*
X94223848Y-87720869D01*
X94223847Y-87720869D01*
X94173403Y-87726349D01*
X94173402Y-87726349D01*
X94165552Y-87727202D01*
X94158159Y-87729974D01*
X94158157Y-87729974D01*
X94127225Y-87741570D01*
X94030236Y-87777929D01*
X94023057Y-87783309D01*
X94023054Y-87783311D01*
X93959350Y-87831055D01*
X93914596Y-87864596D01*
X93909215Y-87871776D01*
X93833311Y-87973054D01*
X93833309Y-87973057D01*
X93827929Y-87980236D01*
X93796863Y-88063106D01*
X93784739Y-88095448D01*
X93777202Y-88115552D01*
X93776349Y-88123402D01*
X93776349Y-88123403D01*
X93771986Y-88163569D01*
X93770500Y-88177244D01*
X93770500Y-88658520D01*
X93750498Y-88726641D01*
X93696842Y-88773134D01*
X93626568Y-88783238D01*
X93561988Y-88753744D01*
X93531494Y-88714248D01*
X93448331Y-88545609D01*
X93445776Y-88540428D01*
X93324320Y-88377779D01*
X93175258Y-88239987D01*
X93170375Y-88236906D01*
X93170371Y-88236903D01*
X93008464Y-88134748D01*
X93003581Y-88131667D01*
X92815039Y-88056446D01*
X92809379Y-88055320D01*
X92809375Y-88055319D01*
X92621613Y-88017971D01*
X92621610Y-88017971D01*
X92615946Y-88016844D01*
X92610171Y-88016768D01*
X92610167Y-88016768D01*
X92508793Y-88015441D01*
X92412971Y-88014187D01*
X92407274Y-88015166D01*
X92407273Y-88015166D01*
X92218607Y-88047585D01*
X92212910Y-88048564D01*
X92022463Y-88118824D01*
X91848010Y-88222612D01*
X91843670Y-88226418D01*
X91843666Y-88226421D01*
X91711431Y-88342389D01*
X91695392Y-88356455D01*
X91569720Y-88515869D01*
X91567031Y-88520980D01*
X91567029Y-88520983D01*
X91554073Y-88545609D01*
X91475203Y-88695515D01*
X91447964Y-88783238D01*
X91417608Y-88881003D01*
X91415007Y-88889378D01*
X91391148Y-89090964D01*
X91404424Y-89293522D01*
X91405845Y-89299118D01*
X91405846Y-89299123D01*
X91451564Y-89479133D01*
X91454392Y-89490269D01*
X91456809Y-89495512D01*
X91493268Y-89574597D01*
X91539377Y-89674616D01*
X91542707Y-89679328D01*
X91542710Y-89679333D01*
X91571443Y-89719989D01*
X91594424Y-89787164D01*
X91577439Y-89856099D01*
X91526337Y-89904674D01*
X91429414Y-89954700D01*
X91423695Y-89959689D01*
X91420266Y-89962680D01*
X91310039Y-90058838D01*
X91218950Y-90188444D01*
X91191255Y-90259477D01*
X91165353Y-90325914D01*
X91161406Y-90336037D01*
X91160414Y-90343570D01*
X91160414Y-90343571D01*
X91141780Y-90485114D01*
X91140729Y-90493096D01*
X91146901Y-90548996D01*
X91157279Y-90643003D01*
X91157280Y-90643007D01*
X91158113Y-90650553D01*
X91160723Y-90657684D01*
X91160723Y-90657686D01*
X91200233Y-90765652D01*
X91212553Y-90799319D01*
X91216789Y-90805622D01*
X91216789Y-90805623D01*
X91229873Y-90825094D01*
X91251265Y-90892791D01*
X91232661Y-90961307D01*
X91216235Y-90982122D01*
X91211026Y-90986026D01*
X91126507Y-91098801D01*
X91123357Y-91107202D01*
X91123356Y-91107205D01*
X91108796Y-91146045D01*
X91077036Y-91230764D01*
X91070500Y-91290930D01*
X91070500Y-91884070D01*
X91077036Y-91944236D01*
X91079810Y-91951635D01*
X91123110Y-92067137D01*
X91126507Y-92076199D01*
X91211026Y-92188974D01*
X91218206Y-92194355D01*
X91218207Y-92194356D01*
X91300052Y-92255695D01*
X91342567Y-92312554D01*
X91347593Y-92383372D01*
X91313533Y-92445666D01*
X91264364Y-92476044D01*
X91251052Y-92480485D01*
X91237885Y-92486653D01*
X91102508Y-92570426D01*
X91091110Y-92579460D01*
X90978637Y-92692129D01*
X90969625Y-92703540D01*
X90886088Y-92839063D01*
X90879944Y-92852241D01*
X90829685Y-93003766D01*
X90826819Y-93017132D01*
X90817328Y-93109770D01*
X90817000Y-93116185D01*
X90817000Y-93140385D01*
X90821475Y-93155624D01*
X90822865Y-93156829D01*
X90830548Y-93158500D01*
X93428000Y-93158500D01*
X93496121Y-93178502D01*
X93542614Y-93232158D01*
X93554000Y-93284500D01*
X93554000Y-94389885D01*
X93558475Y-94405124D01*
X93559865Y-94406329D01*
X93567548Y-94408000D01*
X93583766Y-94408000D01*
X93590282Y-94407663D01*
X93684132Y-94397925D01*
X93697528Y-94395032D01*
X93848953Y-94344512D01*
X93862115Y-94338347D01*
X93997492Y-94254574D01*
X94008890Y-94245540D01*
X94072802Y-94181517D01*
X94135085Y-94147438D01*
X94205905Y-94152441D01*
X94262778Y-94194939D01*
X94276170Y-94217285D01*
X94334054Y-94341417D01*
X94339534Y-94350907D01*
X94368411Y-94392149D01*
X94378887Y-94400523D01*
X94392334Y-94393455D01*
X95057979Y-93727811D01*
X95065592Y-93713868D01*
X95065461Y-93712034D01*
X95061210Y-93705420D01*
X94391609Y-93035820D01*
X94376954Y-93027818D01*
X94309112Y-93013060D01*
X94258909Y-92962857D01*
X94249973Y-92942348D01*
X94219512Y-92851047D01*
X94213348Y-92837887D01*
X94199544Y-92815581D01*
X94180706Y-92747129D01*
X94201867Y-92679359D01*
X94256307Y-92633788D01*
X94326743Y-92624883D01*
X94344366Y-92629043D01*
X94488641Y-92674255D01*
X94501694Y-92676869D01*
X94565521Y-92682734D01*
X94571309Y-92683000D01*
X94608236Y-92683000D01*
X94651666Y-92670248D01*
X94722663Y-92670248D01*
X94776260Y-92702049D01*
X95417189Y-93342979D01*
X95431132Y-93350592D01*
X95432966Y-93350461D01*
X95439579Y-93346210D01*
X95689192Y-93096597D01*
X95702000Y-93073141D01*
X95702000Y-93007000D01*
X95722002Y-92938879D01*
X95775658Y-92892386D01*
X95828000Y-92881000D01*
X95886674Y-92881000D01*
X95912319Y-92873470D01*
X96079124Y-92706665D01*
X96141436Y-92672639D01*
X96212251Y-92677704D01*
X96257314Y-92706665D01*
X96283190Y-92732541D01*
X96293276Y-92738048D01*
X96296000Y-92730744D01*
X96296000Y-92491060D01*
X96316002Y-92422939D01*
X96369658Y-92376446D01*
X96445261Y-92367636D01*
X96447192Y-92368222D01*
X96453355Y-92368829D01*
X96580286Y-92381330D01*
X96587648Y-92382274D01*
X96600000Y-92384231D01*
X96600001Y-92384231D01*
X96604897Y-92383456D01*
X96607432Y-92383256D01*
X96633768Y-92383945D01*
X96677063Y-92389645D01*
X96679448Y-92389959D01*
X96711220Y-92398473D01*
X96719836Y-92402042D01*
X96775116Y-92446591D01*
X96797536Y-92513954D01*
X96797009Y-92530801D01*
X96796707Y-92533863D01*
X96795500Y-92539933D01*
X96795501Y-93116185D01*
X96795501Y-93263000D01*
X96775499Y-93331121D01*
X96721843Y-93377614D01*
X96669501Y-93389000D01*
X96133326Y-93389000D01*
X96107681Y-93396530D01*
X95802021Y-93702189D01*
X95794408Y-93716132D01*
X95794539Y-93717966D01*
X95798790Y-93724580D01*
X96468391Y-94394180D01*
X96480161Y-94400607D01*
X96492176Y-94391311D01*
X96520466Y-94350907D01*
X96525946Y-94341417D01*
X96551904Y-94285749D01*
X96598821Y-94232464D01*
X96666099Y-94212999D01*
X96894669Y-94212999D01*
X96901490Y-94212629D01*
X96952352Y-94207105D01*
X96967604Y-94203479D01*
X97077286Y-94162361D01*
X97148094Y-94157178D01*
X97201449Y-94182944D01*
X97319253Y-94279623D01*
X97324711Y-94282541D01*
X97324712Y-94282541D01*
X97450948Y-94350016D01*
X97450951Y-94350017D01*
X97456406Y-94352933D01*
X97462330Y-94354730D01*
X97596121Y-94395315D01*
X97605226Y-94398077D01*
X97676455Y-94405093D01*
X97687650Y-94406843D01*
X97693846Y-94409019D01*
X97699411Y-94409501D01*
X97715021Y-94409501D01*
X97727370Y-94410108D01*
X97741088Y-94411459D01*
X97748445Y-94412403D01*
X97750200Y-94412681D01*
X97750201Y-94412681D01*
X97759994Y-94414232D01*
X97780072Y-94411052D01*
X97799782Y-94409501D01*
X101700218Y-94409501D01*
X101719928Y-94411052D01*
X101740006Y-94414232D01*
X101749799Y-94412681D01*
X101749800Y-94412681D01*
X101751555Y-94412403D01*
X101758913Y-94411459D01*
X101779512Y-94409430D01*
X101894774Y-94398077D01*
X101903880Y-94395315D01*
X102037670Y-94354730D01*
X102043594Y-94352933D01*
X102049049Y-94350017D01*
X102049052Y-94350016D01*
X102175288Y-94282541D01*
X102175289Y-94282541D01*
X102180747Y-94279623D01*
X102298551Y-94182944D01*
X102363897Y-94155190D01*
X102422714Y-94162361D01*
X102532394Y-94203478D01*
X102547649Y-94207105D01*
X102598514Y-94212631D01*
X102605328Y-94213000D01*
X102833901Y-94213000D01*
X102902022Y-94233002D01*
X102948095Y-94285749D01*
X102974052Y-94341412D01*
X102979534Y-94350907D01*
X103008411Y-94392149D01*
X103018887Y-94400523D01*
X103032334Y-94393455D01*
X103697979Y-93727811D01*
X103704356Y-93716132D01*
X104434408Y-93716132D01*
X104434539Y-93717966D01*
X104438790Y-93724580D01*
X105108391Y-94394180D01*
X105120161Y-94400607D01*
X105132176Y-94391311D01*
X105160466Y-94350907D01*
X105165946Y-94341417D01*
X105254326Y-94151887D01*
X105258072Y-94141595D01*
X105312196Y-93939599D01*
X105314099Y-93928804D01*
X105319061Y-93872095D01*
X107692001Y-93872095D01*
X107692338Y-93878614D01*
X107702257Y-93974206D01*
X107705149Y-93987600D01*
X107756588Y-94141784D01*
X107762761Y-94154962D01*
X107848063Y-94292807D01*
X107857099Y-94304208D01*
X107971829Y-94418739D01*
X107983240Y-94427751D01*
X108121243Y-94512816D01*
X108134424Y-94518963D01*
X108288710Y-94570138D01*
X108302086Y-94573005D01*
X108396438Y-94582672D01*
X108402854Y-94583000D01*
X108777885Y-94583000D01*
X108793124Y-94578525D01*
X108794329Y-94577135D01*
X108796000Y-94569452D01*
X108796000Y-93422115D01*
X108791525Y-93406876D01*
X108790135Y-93405671D01*
X108782452Y-93404000D01*
X107710116Y-93404000D01*
X107694877Y-93408475D01*
X107693672Y-93409865D01*
X107692001Y-93417548D01*
X107692001Y-93872095D01*
X105319061Y-93872095D01*
X105332326Y-93720475D01*
X105332326Y-93709525D01*
X105314099Y-93501196D01*
X105312196Y-93490401D01*
X105258072Y-93288405D01*
X105254326Y-93278113D01*
X105165946Y-93088583D01*
X105160466Y-93079093D01*
X105131589Y-93037851D01*
X105121113Y-93029477D01*
X105107666Y-93036545D01*
X104442021Y-93702189D01*
X104434408Y-93716132D01*
X103704356Y-93716132D01*
X103705592Y-93713868D01*
X103705461Y-93712034D01*
X103701210Y-93705421D01*
X103397597Y-93401808D01*
X103374141Y-93389000D01*
X102830500Y-93389000D01*
X102762379Y-93368998D01*
X102715886Y-93315342D01*
X102704500Y-93263000D01*
X102704499Y-92727235D01*
X103204000Y-92727235D01*
X103207237Y-92738260D01*
X103214330Y-92735021D01*
X103242686Y-92706665D01*
X103304998Y-92672639D01*
X103375813Y-92677704D01*
X103420876Y-92706665D01*
X103582399Y-92868188D01*
X103605861Y-92881000D01*
X103672000Y-92881000D01*
X103740121Y-92901002D01*
X103786614Y-92954658D01*
X103798000Y-93007000D01*
X103798000Y-93065674D01*
X103805530Y-93091319D01*
X104057189Y-93342979D01*
X104071132Y-93350592D01*
X104072966Y-93350461D01*
X104079580Y-93346210D01*
X104749180Y-92676609D01*
X104755607Y-92664839D01*
X104746313Y-92652825D01*
X104705912Y-92624536D01*
X104696416Y-92619053D01*
X104506887Y-92530674D01*
X104496595Y-92526928D01*
X104294599Y-92472804D01*
X104283804Y-92470901D01*
X104075475Y-92452674D01*
X104064525Y-92452674D01*
X103855793Y-92470936D01*
X103786188Y-92456947D01*
X103735196Y-92407548D01*
X103726829Y-92389645D01*
X103703324Y-92326946D01*
X103694786Y-92311351D01*
X103618285Y-92209276D01*
X103605724Y-92196715D01*
X103503649Y-92120214D01*
X103488054Y-92111676D01*
X103367606Y-92066522D01*
X103352351Y-92062895D01*
X103301486Y-92057369D01*
X103294672Y-92057000D01*
X103222115Y-92057000D01*
X103206876Y-92061475D01*
X103205671Y-92062865D01*
X103204000Y-92070548D01*
X103204000Y-92727235D01*
X102704499Y-92727235D01*
X102704499Y-92546123D01*
X102704499Y-92539934D01*
X102698421Y-92509375D01*
X102696000Y-92484796D01*
X102696000Y-92075116D01*
X102691525Y-92059877D01*
X102665830Y-92037612D01*
X102666233Y-92037147D01*
X102653615Y-92030257D01*
X102619590Y-91967944D01*
X102624656Y-91897128D01*
X102660880Y-91845351D01*
X102694748Y-91816425D01*
X102694748Y-91816424D01*
X102700526Y-91811490D01*
X102792967Y-91682845D01*
X102852054Y-91535862D01*
X102874374Y-91379028D01*
X102874519Y-91365221D01*
X102855488Y-91207954D01*
X102799492Y-91059767D01*
X102753257Y-90992494D01*
X102714067Y-90935472D01*
X102714066Y-90935470D01*
X102709765Y-90929213D01*
X102703368Y-90923513D01*
X102672968Y-90896428D01*
X102591487Y-90823832D01*
X102584101Y-90819921D01*
X102538518Y-90795786D01*
X102451486Y-90749705D01*
X102297845Y-90711113D01*
X102290246Y-90711073D01*
X102290245Y-90711073D01*
X102224393Y-90710728D01*
X102139433Y-90710283D01*
X102132053Y-90712055D01*
X102132051Y-90712055D01*
X101992775Y-90745492D01*
X101992772Y-90745493D01*
X101985396Y-90747264D01*
X101978654Y-90750744D01*
X101978648Y-90750746D01*
X101890340Y-90796325D01*
X101820633Y-90809794D01*
X101754710Y-90783438D01*
X101735950Y-90763442D01*
X101735434Y-90763897D01*
X101730411Y-90758199D01*
X101726109Y-90751940D01*
X101607831Y-90646559D01*
X101598943Y-90641853D01*
X101597658Y-90640600D01*
X101594883Y-90638672D01*
X101595205Y-90638209D01*
X101548101Y-90592301D01*
X101532120Y-90523126D01*
X101556074Y-90456293D01*
X101612359Y-90413020D01*
X101657904Y-90404500D01*
X103316860Y-90404500D01*
X103384981Y-90424502D01*
X103431474Y-90478158D01*
X103442253Y-90518150D01*
X103454635Y-90643867D01*
X103506129Y-90813617D01*
X103509045Y-90819072D01*
X103509046Y-90819075D01*
X103565713Y-90925091D01*
X103589749Y-90970059D01*
X103593676Y-90974844D01*
X103672147Y-91070461D01*
X103694953Y-91124607D01*
X103697678Y-91123968D01*
X103699413Y-91131364D01*
X103700246Y-91138913D01*
X103702856Y-91146045D01*
X103735639Y-91235629D01*
X103754686Y-91287679D01*
X103758922Y-91293982D01*
X103758922Y-91293983D01*
X103825138Y-91392522D01*
X103843041Y-91419165D01*
X103848660Y-91424278D01*
X103848661Y-91424279D01*
X103954593Y-91520669D01*
X103960209Y-91525779D01*
X104099426Y-91601368D01*
X104252655Y-91641567D01*
X104336610Y-91642886D01*
X104403452Y-91643936D01*
X104403455Y-91643936D01*
X104411049Y-91644055D01*
X104565465Y-91608689D01*
X104647502Y-91567429D01*
X104700205Y-91540923D01*
X104700208Y-91540921D01*
X104706988Y-91537511D01*
X104712759Y-91532582D01*
X104712762Y-91532580D01*
X104821669Y-91439564D01*
X104821669Y-91439563D01*
X104827447Y-91434629D01*
X104919888Y-91305984D01*
X104978975Y-91159001D01*
X104991576Y-91070461D01*
X105000714Y-91006251D01*
X105000714Y-91006248D01*
X105001295Y-91002167D01*
X105001440Y-90988360D01*
X104982409Y-90831093D01*
X104926413Y-90682906D01*
X104912372Y-90662476D01*
X104840988Y-90558611D01*
X104840987Y-90558609D01*
X104836686Y-90552352D01*
X104815909Y-90533840D01*
X104777927Y-90500000D01*
X104718408Y-90446971D01*
X104578407Y-90372844D01*
X104424766Y-90334252D01*
X104417167Y-90334212D01*
X104417166Y-90334212D01*
X104325945Y-90333734D01*
X104257930Y-90313375D01*
X104211719Y-90259477D01*
X104200605Y-90207736D01*
X104200605Y-90018685D01*
X104202157Y-89998971D01*
X104203784Y-89988699D01*
X104205336Y-89978903D01*
X104203634Y-89968151D01*
X104202156Y-89958822D01*
X104200605Y-89939114D01*
X104200605Y-89160953D01*
X104202162Y-89141209D01*
X104203782Y-89131000D01*
X104203782Y-89130999D01*
X104205336Y-89121204D01*
X104202151Y-89101061D01*
X104200605Y-89081383D01*
X104200605Y-89050434D01*
X104220607Y-88982313D01*
X104244774Y-88954623D01*
X104300641Y-88906908D01*
X104306419Y-88901973D01*
X104398860Y-88773328D01*
X104457947Y-88626345D01*
X104480267Y-88469511D01*
X104480412Y-88455704D01*
X104474542Y-88407199D01*
X104486216Y-88337171D01*
X104510535Y-88302970D01*
X104782355Y-88031150D01*
X104797390Y-88018308D01*
X104805814Y-88012188D01*
X104805815Y-88012187D01*
X104813838Y-88006358D01*
X104819668Y-87998333D01*
X104821295Y-87996706D01*
X104823602Y-87993819D01*
X104834488Y-87981406D01*
X104894441Y-87943379D01*
X104965437Y-87943801D01*
X105024933Y-87982540D01*
X105054612Y-88052131D01*
X105055693Y-88063106D01*
X105057490Y-88069030D01*
X105093824Y-88188806D01*
X105095977Y-88195905D01*
X105161395Y-88318293D01*
X105249432Y-88425567D01*
X105356706Y-88513604D01*
X105479094Y-88579022D01*
X105485014Y-88580818D01*
X105485017Y-88580819D01*
X105605978Y-88617512D01*
X105605981Y-88617513D01*
X105611893Y-88619306D01*
X105638764Y-88621953D01*
X105662934Y-88624334D01*
X105676596Y-88626471D01*
X105683851Y-88629018D01*
X105689416Y-88629500D01*
X105709199Y-88629500D01*
X105721528Y-88630105D01*
X105724225Y-88630370D01*
X105731586Y-88631315D01*
X105740203Y-88632680D01*
X105740206Y-88632680D01*
X105749999Y-88634231D01*
X105770077Y-88631051D01*
X105789787Y-88629500D01*
X107294500Y-88629500D01*
X107362621Y-88649502D01*
X107409114Y-88703158D01*
X107420500Y-88755500D01*
X107420500Y-90605187D01*
X107400498Y-90673308D01*
X107377330Y-90700135D01*
X107310039Y-90758838D01*
X107218950Y-90888444D01*
X107217928Y-90891066D01*
X107169540Y-90940196D01*
X107100283Y-90955816D01*
X107033576Y-90931513D01*
X107029703Y-90928372D01*
X107027573Y-90926892D01*
X107021902Y-90921839D01*
X107014516Y-90917928D01*
X106911553Y-90863412D01*
X106881901Y-90847712D01*
X106728260Y-90809120D01*
X106720661Y-90809080D01*
X106720660Y-90809080D01*
X106654808Y-90808735D01*
X106569848Y-90808290D01*
X106562468Y-90810062D01*
X106562466Y-90810062D01*
X106423190Y-90843499D01*
X106423187Y-90843500D01*
X106415811Y-90845271D01*
X106275041Y-90917928D01*
X106155666Y-91022066D01*
X106064577Y-91151672D01*
X106045656Y-91200202D01*
X106010283Y-91290930D01*
X106007033Y-91299265D01*
X106006041Y-91306798D01*
X106006041Y-91306799D01*
X105988248Y-91441954D01*
X105986356Y-91456324D01*
X105994373Y-91528937D01*
X106002370Y-91601368D01*
X106003740Y-91613781D01*
X106006350Y-91620912D01*
X106006350Y-91620914D01*
X106047728Y-91733984D01*
X106058180Y-91762547D01*
X106062416Y-91768850D01*
X106062416Y-91768851D01*
X106094385Y-91816425D01*
X106146535Y-91894033D01*
X106152154Y-91899146D01*
X106152155Y-91899147D01*
X106249556Y-91987774D01*
X106263703Y-92000647D01*
X106402920Y-92076236D01*
X106481881Y-92096951D01*
X106556149Y-92116435D01*
X106555566Y-92118657D01*
X106607638Y-92141394D01*
X106637752Y-92166108D01*
X106783902Y-92244226D01*
X106942483Y-92292331D01*
X107026014Y-92300558D01*
X107035709Y-92302073D01*
X107041252Y-92304020D01*
X107046817Y-92304502D01*
X107059878Y-92304502D01*
X107072227Y-92305109D01*
X107092688Y-92307124D01*
X107097037Y-92307682D01*
X107097609Y-92307682D01*
X107107403Y-92309233D01*
X107127485Y-92306052D01*
X107147185Y-92304502D01*
X107566000Y-92304502D01*
X107634121Y-92324504D01*
X107680614Y-92378160D01*
X107692000Y-92430502D01*
X107692000Y-92877885D01*
X107696475Y-92893124D01*
X107697865Y-92894329D01*
X107705548Y-92896000D01*
X108777885Y-92896000D01*
X108793124Y-92891525D01*
X108794329Y-92890135D01*
X108796000Y-92882452D01*
X108796000Y-92001655D01*
X108810877Y-91942261D01*
X108853128Y-91863216D01*
X108894127Y-91728062D01*
X108894733Y-91721910D01*
X108894734Y-91721905D01*
X108899447Y-91674054D01*
X108901527Y-91660755D01*
X108904020Y-91653654D01*
X108904502Y-91648089D01*
X108904502Y-91628918D01*
X108905109Y-91616566D01*
X108905532Y-91612272D01*
X108906476Y-91604915D01*
X108907682Y-91597300D01*
X108909233Y-91587506D01*
X108906053Y-91567428D01*
X108904502Y-91547718D01*
X108904502Y-89888653D01*
X108924504Y-89820532D01*
X108978160Y-89774039D01*
X109037314Y-89762837D01*
X109040325Y-89763000D01*
X109262885Y-89763000D01*
X109278124Y-89758525D01*
X109279329Y-89757135D01*
X109281000Y-89749452D01*
X109281000Y-88127000D01*
X109301002Y-88058879D01*
X109354658Y-88012386D01*
X109407000Y-88001000D01*
X109663000Y-88001000D01*
X109731121Y-88021002D01*
X109777614Y-88074658D01*
X109789000Y-88127000D01*
X109789000Y-89744884D01*
X109793475Y-89760123D01*
X109794865Y-89761328D01*
X109802548Y-89762999D01*
X110029669Y-89762999D01*
X110036490Y-89762629D01*
X110087352Y-89757105D01*
X110102604Y-89753479D01*
X110223060Y-89708322D01*
X110238990Y-89699600D01*
X110308347Y-89684430D01*
X110374895Y-89709166D01*
X110417506Y-89765954D01*
X110425500Y-89810119D01*
X110425500Y-90591420D01*
X110405498Y-90659541D01*
X110351842Y-90706034D01*
X110314856Y-90716341D01*
X110308443Y-90716307D01*
X110301063Y-90718079D01*
X110301061Y-90718079D01*
X110161785Y-90751516D01*
X110161782Y-90751517D01*
X110154406Y-90753288D01*
X110013636Y-90825945D01*
X109894261Y-90930083D01*
X109803172Y-91059689D01*
X109786555Y-91102310D01*
X109750361Y-91195143D01*
X109745628Y-91207282D01*
X109744636Y-91214815D01*
X109744636Y-91214816D01*
X109729137Y-91332548D01*
X109724951Y-91364341D01*
X109742335Y-91521798D01*
X109744946Y-91528933D01*
X109744947Y-91528937D01*
X109751813Y-91547701D01*
X109756439Y-91618546D01*
X109722028Y-91680646D01*
X109659506Y-91714284D01*
X109633487Y-91717000D01*
X109322115Y-91717000D01*
X109306876Y-91721475D01*
X109305671Y-91722865D01*
X109304000Y-91730548D01*
X109304000Y-94564884D01*
X109308475Y-94580123D01*
X109309865Y-94581328D01*
X109317548Y-94582999D01*
X109697095Y-94582999D01*
X109703614Y-94582662D01*
X109799206Y-94572743D01*
X109812600Y-94569851D01*
X109966784Y-94518412D01*
X109979962Y-94512239D01*
X110117807Y-94426937D01*
X110129208Y-94417901D01*
X110144202Y-94402881D01*
X110206485Y-94368802D01*
X110277305Y-94373805D01*
X110329185Y-94410067D01*
X110345652Y-94429348D01*
X110349414Y-94432561D01*
X110442706Y-94512239D01*
X110489822Y-94552480D01*
X110651478Y-94651544D01*
X110656048Y-94653437D01*
X110656050Y-94653438D01*
X110822069Y-94722205D01*
X110826642Y-94724099D01*
X110890765Y-94739494D01*
X111006186Y-94767204D01*
X111006192Y-94767205D01*
X111010999Y-94768359D01*
X111068503Y-94772885D01*
X111125589Y-94777378D01*
X111131715Y-94778275D01*
X111133861Y-94779028D01*
X111139426Y-94779510D01*
X111147729Y-94779510D01*
X111157615Y-94779898D01*
X111182454Y-94781853D01*
X111189514Y-94782689D01*
X111190213Y-94782689D01*
X111200010Y-94784241D01*
X111209803Y-94782690D01*
X111209804Y-94782690D01*
X111220087Y-94781061D01*
X111239798Y-94779510D01*
X115260201Y-94779510D01*
X115279911Y-94781061D01*
X115299989Y-94784241D01*
X115306539Y-94783204D01*
X115320004Y-94782241D01*
X115352763Y-94779898D01*
X115532485Y-94767044D01*
X115595247Y-94753391D01*
X115755841Y-94718456D01*
X115755845Y-94718455D01*
X115760248Y-94717497D01*
X115764465Y-94715924D01*
X115764469Y-94715923D01*
X115974430Y-94637612D01*
X115978642Y-94636041D01*
X116183220Y-94524333D01*
X116369818Y-94384648D01*
X116386041Y-94368425D01*
X116448353Y-94334399D01*
X116483822Y-94333155D01*
X116483876Y-94332045D01*
X116489857Y-94332337D01*
X116495800Y-94333199D01*
X116706333Y-94323455D01*
X116712157Y-94322051D01*
X116712160Y-94322051D01*
X116905393Y-94275482D01*
X116905395Y-94275481D01*
X116911226Y-94274076D01*
X116916684Y-94271594D01*
X116916688Y-94271593D01*
X117045557Y-94212999D01*
X117103084Y-94186843D01*
X117248362Y-94083790D01*
X117270100Y-94068370D01*
X117270101Y-94068369D01*
X117274986Y-94064904D01*
X117394940Y-93939599D01*
X117416583Y-93916990D01*
X117420728Y-93912660D01*
X117477710Y-93824410D01*
X117531800Y-93740640D01*
X117531801Y-93740637D01*
X117535052Y-93735603D01*
X117613834Y-93540122D01*
X117643346Y-93389000D01*
X117653361Y-93337717D01*
X117653361Y-93337714D01*
X117654229Y-93333271D01*
X117654500Y-93327730D01*
X117654500Y-93277659D01*
X117945500Y-93277659D01*
X117960493Y-93434806D01*
X118019823Y-93637042D01*
X118022573Y-93642381D01*
X118113574Y-93819070D01*
X118116324Y-93824410D01*
X118120028Y-93829125D01*
X118242808Y-93985432D01*
X118242812Y-93985436D01*
X118246514Y-93990149D01*
X118251044Y-93994080D01*
X118251045Y-93994081D01*
X118401165Y-94124350D01*
X118401170Y-94124354D01*
X118405696Y-94128281D01*
X118588126Y-94233819D01*
X118787222Y-94302957D01*
X118793155Y-94303817D01*
X118793158Y-94303818D01*
X118989860Y-94332338D01*
X118989863Y-94332338D01*
X118995800Y-94333199D01*
X119206333Y-94323455D01*
X119212157Y-94322051D01*
X119212160Y-94322051D01*
X119405393Y-94275482D01*
X119405395Y-94275481D01*
X119411226Y-94274076D01*
X119416684Y-94271594D01*
X119416688Y-94271593D01*
X119545557Y-94212999D01*
X119603084Y-94186843D01*
X119748362Y-94083790D01*
X119770100Y-94068370D01*
X119770101Y-94068369D01*
X119774986Y-94064904D01*
X119894940Y-93939599D01*
X119916583Y-93916990D01*
X119920728Y-93912660D01*
X119977710Y-93824410D01*
X120031800Y-93740640D01*
X120031801Y-93740637D01*
X120035052Y-93735603D01*
X120113834Y-93540122D01*
X120143346Y-93389000D01*
X120153361Y-93337717D01*
X120153361Y-93337714D01*
X120154229Y-93333271D01*
X120154500Y-93327730D01*
X120154500Y-93277659D01*
X120445500Y-93277659D01*
X120460493Y-93434806D01*
X120519823Y-93637042D01*
X120522573Y-93642381D01*
X120613574Y-93819070D01*
X120616324Y-93824410D01*
X120620028Y-93829125D01*
X120742808Y-93985432D01*
X120742812Y-93985436D01*
X120746514Y-93990149D01*
X120751044Y-93994080D01*
X120751045Y-93994081D01*
X120901165Y-94124350D01*
X120901170Y-94124354D01*
X120905696Y-94128281D01*
X121088126Y-94233819D01*
X121287222Y-94302957D01*
X121293155Y-94303817D01*
X121293158Y-94303818D01*
X121489860Y-94332338D01*
X121489863Y-94332338D01*
X121495800Y-94333199D01*
X121706333Y-94323455D01*
X121712157Y-94322051D01*
X121712160Y-94322051D01*
X121905393Y-94275482D01*
X121905395Y-94275481D01*
X121911226Y-94274076D01*
X121916684Y-94271594D01*
X121916688Y-94271593D01*
X122045557Y-94212999D01*
X122103084Y-94186843D01*
X122248362Y-94083790D01*
X122270100Y-94068370D01*
X122270101Y-94068369D01*
X122274986Y-94064904D01*
X122394940Y-93939599D01*
X122416583Y-93916990D01*
X122420728Y-93912660D01*
X122477710Y-93824410D01*
X122531800Y-93740640D01*
X122531801Y-93740637D01*
X122535052Y-93735603D01*
X122613834Y-93540122D01*
X122643346Y-93389000D01*
X122653361Y-93337717D01*
X122653361Y-93337714D01*
X122654229Y-93333271D01*
X122654500Y-93327730D01*
X122654500Y-93277659D01*
X122945500Y-93277659D01*
X122960493Y-93434806D01*
X123019823Y-93637042D01*
X123022573Y-93642381D01*
X123113574Y-93819070D01*
X123116324Y-93824410D01*
X123120028Y-93829125D01*
X123242808Y-93985432D01*
X123242812Y-93985436D01*
X123246514Y-93990149D01*
X123251044Y-93994080D01*
X123251045Y-93994081D01*
X123401165Y-94124350D01*
X123401170Y-94124354D01*
X123405696Y-94128281D01*
X123588126Y-94233819D01*
X123787222Y-94302957D01*
X123793155Y-94303817D01*
X123793158Y-94303818D01*
X123989860Y-94332338D01*
X123989863Y-94332338D01*
X123995800Y-94333199D01*
X124206333Y-94323455D01*
X124212157Y-94322051D01*
X124212160Y-94322051D01*
X124405393Y-94275482D01*
X124405395Y-94275481D01*
X124411226Y-94274076D01*
X124416684Y-94271594D01*
X124416688Y-94271593D01*
X124545557Y-94212999D01*
X124603084Y-94186843D01*
X124748362Y-94083790D01*
X124770100Y-94068370D01*
X124770101Y-94068369D01*
X124774986Y-94064904D01*
X124894940Y-93939599D01*
X124916583Y-93916990D01*
X124920728Y-93912660D01*
X124977710Y-93824410D01*
X125031800Y-93740640D01*
X125031801Y-93740637D01*
X125035052Y-93735603D01*
X125113834Y-93540122D01*
X125143346Y-93389000D01*
X125153361Y-93337717D01*
X125153361Y-93337714D01*
X125154229Y-93333271D01*
X125154500Y-93327730D01*
X125154500Y-93022341D01*
X125139507Y-92865194D01*
X125124450Y-92813868D01*
X125081868Y-92668722D01*
X125080177Y-92662958D01*
X125028149Y-92561939D01*
X124986422Y-92480921D01*
X124986420Y-92480918D01*
X124983676Y-92475590D01*
X124918310Y-92392375D01*
X124857192Y-92314568D01*
X124857188Y-92314564D01*
X124853486Y-92309851D01*
X124848928Y-92305896D01*
X124698835Y-92175650D01*
X124698830Y-92175646D01*
X124694304Y-92171719D01*
X124511874Y-92066181D01*
X124312778Y-91997043D01*
X124306845Y-91996183D01*
X124306842Y-91996182D01*
X124110140Y-91967662D01*
X124110137Y-91967662D01*
X124104200Y-91966801D01*
X123893667Y-91976545D01*
X123887843Y-91977949D01*
X123887840Y-91977949D01*
X123694607Y-92024518D01*
X123694605Y-92024519D01*
X123688774Y-92025924D01*
X123683316Y-92028406D01*
X123683312Y-92028407D01*
X123604562Y-92064213D01*
X123496916Y-92113157D01*
X123325014Y-92235096D01*
X123317368Y-92243083D01*
X123197574Y-92368222D01*
X123179272Y-92387340D01*
X123176021Y-92392375D01*
X123076749Y-92546121D01*
X123064948Y-92564397D01*
X122986166Y-92759878D01*
X122968362Y-92851047D01*
X122947308Y-92958861D01*
X122945771Y-92966729D01*
X122945500Y-92972270D01*
X122945500Y-93277659D01*
X122654500Y-93277659D01*
X122654500Y-93022341D01*
X122639507Y-92865194D01*
X122624450Y-92813868D01*
X122581868Y-92668722D01*
X122580177Y-92662958D01*
X122528149Y-92561939D01*
X122486422Y-92480921D01*
X122486420Y-92480918D01*
X122483676Y-92475590D01*
X122418310Y-92392375D01*
X122357192Y-92314568D01*
X122357188Y-92314564D01*
X122353486Y-92309851D01*
X122348928Y-92305896D01*
X122198835Y-92175650D01*
X122198830Y-92175646D01*
X122194304Y-92171719D01*
X122011874Y-92066181D01*
X121812778Y-91997043D01*
X121806845Y-91996183D01*
X121806842Y-91996182D01*
X121610140Y-91967662D01*
X121610137Y-91967662D01*
X121604200Y-91966801D01*
X121393667Y-91976545D01*
X121387843Y-91977949D01*
X121387840Y-91977949D01*
X121194607Y-92024518D01*
X121194605Y-92024519D01*
X121188774Y-92025924D01*
X121183316Y-92028406D01*
X121183312Y-92028407D01*
X121104562Y-92064213D01*
X120996916Y-92113157D01*
X120825014Y-92235096D01*
X120817368Y-92243083D01*
X120697574Y-92368222D01*
X120679272Y-92387340D01*
X120676021Y-92392375D01*
X120576749Y-92546121D01*
X120564948Y-92564397D01*
X120486166Y-92759878D01*
X120468362Y-92851047D01*
X120447308Y-92958861D01*
X120445771Y-92966729D01*
X120445500Y-92972270D01*
X120445500Y-93277659D01*
X120154500Y-93277659D01*
X120154500Y-93022341D01*
X120139507Y-92865194D01*
X120124450Y-92813868D01*
X120081868Y-92668722D01*
X120080177Y-92662958D01*
X120028149Y-92561939D01*
X119986422Y-92480921D01*
X119986420Y-92480918D01*
X119983676Y-92475590D01*
X119918310Y-92392375D01*
X119857192Y-92314568D01*
X119857188Y-92314564D01*
X119853486Y-92309851D01*
X119848928Y-92305896D01*
X119698835Y-92175650D01*
X119698830Y-92175646D01*
X119694304Y-92171719D01*
X119511874Y-92066181D01*
X119312778Y-91997043D01*
X119306845Y-91996183D01*
X119306842Y-91996182D01*
X119110140Y-91967662D01*
X119110137Y-91967662D01*
X119104200Y-91966801D01*
X118893667Y-91976545D01*
X118887843Y-91977949D01*
X118887840Y-91977949D01*
X118694607Y-92024518D01*
X118694605Y-92024519D01*
X118688774Y-92025924D01*
X118683316Y-92028406D01*
X118683312Y-92028407D01*
X118604562Y-92064213D01*
X118496916Y-92113157D01*
X118325014Y-92235096D01*
X118317368Y-92243083D01*
X118197574Y-92368222D01*
X118179272Y-92387340D01*
X118176021Y-92392375D01*
X118076749Y-92546121D01*
X118064948Y-92564397D01*
X117986166Y-92759878D01*
X117968362Y-92851047D01*
X117947308Y-92958861D01*
X117945771Y-92966729D01*
X117945500Y-92972270D01*
X117945500Y-93277659D01*
X117654500Y-93277659D01*
X117654500Y-93022341D01*
X117639507Y-92865194D01*
X117624450Y-92813868D01*
X117581868Y-92668722D01*
X117580177Y-92662958D01*
X117528149Y-92561939D01*
X117486422Y-92480921D01*
X117486420Y-92480918D01*
X117483676Y-92475590D01*
X117418310Y-92392375D01*
X117357192Y-92314568D01*
X117357188Y-92314564D01*
X117353486Y-92309851D01*
X117348928Y-92305896D01*
X117198835Y-92175650D01*
X117198830Y-92175646D01*
X117194304Y-92171719D01*
X117011874Y-92066181D01*
X116812778Y-91997043D01*
X116806845Y-91996183D01*
X116806842Y-91996182D01*
X116610140Y-91967662D01*
X116610137Y-91967662D01*
X116604200Y-91966801D01*
X116393667Y-91976545D01*
X116387843Y-91977949D01*
X116387840Y-91977949D01*
X116194607Y-92024518D01*
X116194605Y-92024519D01*
X116188774Y-92025924D01*
X116183316Y-92028406D01*
X116183312Y-92028407D01*
X116104562Y-92064213D01*
X115996916Y-92113157D01*
X115825014Y-92235096D01*
X115817368Y-92243083D01*
X115697574Y-92368222D01*
X115679272Y-92387340D01*
X115676021Y-92392375D01*
X115576749Y-92546121D01*
X115564948Y-92564397D01*
X115486166Y-92759878D01*
X115468362Y-92851047D01*
X115447308Y-92958861D01*
X115445771Y-92966729D01*
X115445500Y-92972270D01*
X115445500Y-93277659D01*
X115460493Y-93434806D01*
X115519823Y-93637042D01*
X115559391Y-93713868D01*
X115607215Y-93806724D01*
X115620624Y-93876443D01*
X115594211Y-93942343D01*
X115531776Y-93984989D01*
X115481690Y-94000183D01*
X115457470Y-94005000D01*
X115357032Y-94014892D01*
X115338929Y-94016675D01*
X115334502Y-94017111D01*
X115319702Y-94016675D01*
X115319702Y-94017330D01*
X115309784Y-94017330D01*
X115299991Y-94015779D01*
X115279914Y-94018959D01*
X115260203Y-94020510D01*
X115082431Y-94020510D01*
X115014310Y-94000508D01*
X114967817Y-93946852D01*
X114957713Y-93876578D01*
X114976579Y-93826163D01*
X115031797Y-93740645D01*
X115031800Y-93740640D01*
X115035052Y-93735603D01*
X115113834Y-93540122D01*
X115143346Y-93389000D01*
X115153361Y-93337717D01*
X115153361Y-93337714D01*
X115154229Y-93333271D01*
X115154500Y-93327730D01*
X115154500Y-93022341D01*
X115139507Y-92865194D01*
X115082743Y-92671705D01*
X115082760Y-92600709D01*
X115114553Y-92547141D01*
X116765266Y-90896428D01*
X116827578Y-90862402D01*
X116854361Y-90859523D01*
X123853192Y-90859523D01*
X123872902Y-90861074D01*
X123892980Y-90864254D01*
X123901522Y-90862901D01*
X123904290Y-90862703D01*
X123905277Y-90862703D01*
X123906909Y-90862516D01*
X124115775Y-90847577D01*
X124219129Y-90825094D01*
X124329646Y-90801053D01*
X124329649Y-90801052D01*
X124334035Y-90800098D01*
X124338237Y-90798531D01*
X124338243Y-90798529D01*
X124539104Y-90723611D01*
X124543316Y-90722040D01*
X124547256Y-90719889D01*
X124547264Y-90719885D01*
X124735405Y-90617152D01*
X124739359Y-90614993D01*
X124791211Y-90576177D01*
X124914568Y-90483834D01*
X124914575Y-90483828D01*
X124918171Y-90481136D01*
X124930417Y-90468890D01*
X124992729Y-90434864D01*
X125063544Y-90439929D01*
X125120380Y-90482476D01*
X125145191Y-90548996D01*
X125145512Y-90557985D01*
X125145512Y-91185225D01*
X125143961Y-91204935D01*
X125140781Y-91225013D01*
X125142332Y-91234805D01*
X125142332Y-91235629D01*
X125142722Y-91238670D01*
X125157875Y-91392522D01*
X125206736Y-91553593D01*
X125209652Y-91559048D01*
X125209653Y-91559051D01*
X125253759Y-91641567D01*
X125286081Y-91702037D01*
X125392862Y-91832150D01*
X125522975Y-91938931D01*
X125528433Y-91941848D01*
X125528434Y-91941849D01*
X125665961Y-92015359D01*
X125665964Y-92015360D01*
X125671419Y-92018276D01*
X125710915Y-92030257D01*
X125755021Y-92043637D01*
X125814402Y-92082553D01*
X125843317Y-92147394D01*
X125832585Y-92217575D01*
X125809462Y-92251342D01*
X125697574Y-92368222D01*
X125679272Y-92387340D01*
X125676021Y-92392375D01*
X125576749Y-92546121D01*
X125564948Y-92564397D01*
X125486166Y-92759878D01*
X125468362Y-92851047D01*
X125447308Y-92958861D01*
X125445771Y-92966729D01*
X125445500Y-92972270D01*
X125445500Y-93277659D01*
X125460493Y-93434806D01*
X125519823Y-93637042D01*
X125522573Y-93642381D01*
X125613574Y-93819070D01*
X125616324Y-93824410D01*
X125620028Y-93829125D01*
X125742808Y-93985432D01*
X125742812Y-93985436D01*
X125746514Y-93990149D01*
X125751044Y-93994080D01*
X125751045Y-93994081D01*
X125901165Y-94124350D01*
X125901170Y-94124354D01*
X125905696Y-94128281D01*
X126088126Y-94233819D01*
X126287222Y-94302957D01*
X126293155Y-94303817D01*
X126293158Y-94303818D01*
X126489860Y-94332338D01*
X126489863Y-94332338D01*
X126495800Y-94333199D01*
X126706333Y-94323455D01*
X126712157Y-94322051D01*
X126712160Y-94322051D01*
X126905393Y-94275482D01*
X126905395Y-94275481D01*
X126911226Y-94274076D01*
X126916684Y-94271594D01*
X126916688Y-94271593D01*
X127045557Y-94212999D01*
X127103084Y-94186843D01*
X127248362Y-94083790D01*
X127270100Y-94068370D01*
X127270101Y-94068369D01*
X127274986Y-94064904D01*
X127394940Y-93939599D01*
X127416583Y-93916990D01*
X127420728Y-93912660D01*
X127477710Y-93824410D01*
X127531800Y-93740640D01*
X127531801Y-93740637D01*
X127535052Y-93735603D01*
X127613834Y-93540122D01*
X127643346Y-93389000D01*
X127653361Y-93337717D01*
X127653361Y-93337714D01*
X127654229Y-93333271D01*
X127654500Y-93327730D01*
X127654500Y-93022341D01*
X127639507Y-92865194D01*
X127624450Y-92813868D01*
X127581868Y-92668722D01*
X127580177Y-92662958D01*
X127528149Y-92561939D01*
X127486422Y-92480921D01*
X127486420Y-92480918D01*
X127483676Y-92475590D01*
X127418310Y-92392375D01*
X127357192Y-92314568D01*
X127357188Y-92314564D01*
X127353486Y-92309851D01*
X127348928Y-92305896D01*
X127198835Y-92175650D01*
X127198830Y-92175646D01*
X127194304Y-92171719D01*
X127043075Y-92084231D01*
X127017072Y-92069188D01*
X127017070Y-92069187D01*
X127011874Y-92066181D01*
X126993721Y-92059877D01*
X126965984Y-92050245D01*
X126908195Y-92009003D01*
X126885611Y-91963829D01*
X126878205Y-91936188D01*
X126878204Y-91936186D01*
X126876782Y-91930878D01*
X126869085Y-91914372D01*
X126810372Y-91788461D01*
X126810369Y-91788456D01*
X126808046Y-91783474D01*
X126788398Y-91755413D01*
X126717918Y-91654757D01*
X126717916Y-91654754D01*
X126714759Y-91650246D01*
X126599754Y-91535241D01*
X126595246Y-91532084D01*
X126595243Y-91532082D01*
X126471035Y-91445111D01*
X126471033Y-91445110D01*
X126466526Y-91441954D01*
X126461544Y-91439631D01*
X126461539Y-91439628D01*
X126324104Y-91375541D01*
X126324102Y-91375540D01*
X126319122Y-91373218D01*
X126313814Y-91371796D01*
X126313812Y-91371795D01*
X126167337Y-91332548D01*
X126167336Y-91332548D01*
X126162022Y-91331124D01*
X126156546Y-91330645D01*
X126156541Y-91330644D01*
X126084054Y-91324303D01*
X126021008Y-91318787D01*
X126012131Y-91317690D01*
X126011895Y-91317653D01*
X125947786Y-91287151D01*
X125910343Y-91226831D01*
X125907333Y-91212950D01*
X125906064Y-91204941D01*
X125904512Y-91185223D01*
X125904512Y-90204000D01*
X130513500Y-90204000D01*
X133886500Y-90204000D01*
X133886500Y-77396000D01*
X130513500Y-77396000D01*
X130513500Y-90204000D01*
X125904512Y-90204000D01*
X125904512Y-84883015D01*
X125906063Y-84863304D01*
X125907692Y-84853019D01*
X125909243Y-84843227D01*
X125907664Y-84833257D01*
X125906504Y-84823455D01*
X125893886Y-84663126D01*
X125892732Y-84658319D01*
X125892731Y-84658313D01*
X125861127Y-84526676D01*
X125851712Y-84487460D01*
X125835752Y-84448928D01*
X125815584Y-84400239D01*
X125782577Y-84320554D01*
X125688184Y-84166517D01*
X125684972Y-84162757D01*
X125684969Y-84162752D01*
X125583742Y-84044231D01*
X125577619Y-84036465D01*
X125574606Y-84032318D01*
X125574603Y-84032314D01*
X125571692Y-84028308D01*
X125571690Y-84028306D01*
X125570365Y-84027344D01*
X125541339Y-83962577D01*
X125541143Y-83959691D01*
X125541731Y-83955977D01*
X125538551Y-83935899D01*
X125537000Y-83916189D01*
X125537000Y-73782287D01*
X125538551Y-73762576D01*
X125540180Y-73752293D01*
X125540180Y-73752292D01*
X125541731Y-73742499D01*
X125540179Y-73732701D01*
X125540179Y-73732214D01*
X125539566Y-73727435D01*
X125539286Y-73724591D01*
X125524889Y-73578419D01*
X125477028Y-73420644D01*
X125472349Y-73411889D01*
X125423649Y-73320779D01*
X125399307Y-73275238D01*
X125294712Y-73147788D01*
X125167262Y-73043193D01*
X125071103Y-72991795D01*
X125020455Y-72942043D01*
X125004499Y-72880673D01*
X125004499Y-72809934D01*
X124993532Y-72754792D01*
X124992156Y-72747874D01*
X124992155Y-72747872D01*
X124989734Y-72735699D01*
X124979247Y-72720004D01*
X124958030Y-72652252D01*
X124979247Y-72579995D01*
X124982604Y-72574971D01*
X124989734Y-72564301D01*
X125004500Y-72490067D01*
X125004499Y-71702175D01*
X125024501Y-71634055D01*
X125054934Y-71601350D01*
X125105724Y-71563285D01*
X125118285Y-71550724D01*
X125194786Y-71448649D01*
X125203324Y-71433054D01*
X125248478Y-71312606D01*
X125252105Y-71297351D01*
X125257631Y-71246486D01*
X125258000Y-71239672D01*
X125258000Y-71017115D01*
X125253525Y-71001876D01*
X125252135Y-71000671D01*
X125244452Y-70999000D01*
X122260116Y-70999000D01*
X122244877Y-71003475D01*
X122243672Y-71004865D01*
X122242001Y-71012548D01*
X122242001Y-71239669D01*
X122242371Y-71246490D01*
X122247895Y-71297352D01*
X122251521Y-71312604D01*
X122296676Y-71433054D01*
X122305214Y-71448648D01*
X122368857Y-71533567D01*
X122393705Y-71600073D01*
X122378652Y-71669456D01*
X122327428Y-71720253D01*
X122241464Y-71766202D01*
X122120486Y-71865486D01*
X122021202Y-71986464D01*
X122018284Y-71991922D01*
X122018284Y-71991923D01*
X122007237Y-72012590D01*
X121947427Y-72124487D01*
X121901996Y-72274250D01*
X121901389Y-72280409D01*
X121901389Y-72280411D01*
X121894865Y-72346656D01*
X121893136Y-72357719D01*
X121890982Y-72363851D01*
X121890500Y-72369416D01*
X121890500Y-72384787D01*
X121889893Y-72397140D01*
X121888479Y-72411493D01*
X121887535Y-72418850D01*
X121885769Y-72429999D01*
X121887320Y-72439792D01*
X121887320Y-72439793D01*
X121888949Y-72450076D01*
X121890500Y-72469787D01*
X121890500Y-73190213D01*
X121888949Y-73209923D01*
X121885769Y-73230001D01*
X121886942Y-73237409D01*
X121884896Y-73258172D01*
X121884691Y-73259202D01*
X121865876Y-73304614D01*
X121863268Y-73308518D01*
X121828519Y-73343267D01*
X121824614Y-73345876D01*
X121779202Y-73364691D01*
X121778172Y-73364896D01*
X121757409Y-73366942D01*
X121750001Y-73365769D01*
X121729924Y-73368949D01*
X121710213Y-73370500D01*
X120289788Y-73370500D01*
X120270077Y-73368949D01*
X120250000Y-73365769D01*
X120244133Y-73366698D01*
X120237035Y-73367319D01*
X120237031Y-73367319D01*
X120158295Y-73374208D01*
X120053115Y-73383410D01*
X120047802Y-73384834D01*
X120047800Y-73384834D01*
X119867522Y-73433139D01*
X119867520Y-73433140D01*
X119862212Y-73434562D01*
X119857232Y-73436884D01*
X119857230Y-73436885D01*
X119688080Y-73515761D01*
X119688075Y-73515764D01*
X119683093Y-73518087D01*
X119678586Y-73521243D01*
X119678584Y-73521244D01*
X119525709Y-73628288D01*
X119525706Y-73628290D01*
X119521198Y-73631447D01*
X119381447Y-73771198D01*
X119378290Y-73775706D01*
X119378288Y-73775709D01*
X119271244Y-73928584D01*
X119268087Y-73933093D01*
X119265764Y-73938075D01*
X119265761Y-73938080D01*
X119186885Y-74107230D01*
X119184562Y-74112212D01*
X119183140Y-74117520D01*
X119183139Y-74117522D01*
X119175295Y-74146798D01*
X119133410Y-74303115D01*
X119130065Y-74341346D01*
X119122640Y-74426211D01*
X119121870Y-74431323D01*
X119120982Y-74433851D01*
X119120500Y-74439416D01*
X119120500Y-74445169D01*
X119120020Y-74456152D01*
X119117319Y-74487020D01*
X119117319Y-74487035D01*
X119116698Y-74494133D01*
X119115769Y-74500000D01*
X119118267Y-74515769D01*
X119118949Y-74520077D01*
X119120500Y-74539788D01*
X119120500Y-77460211D01*
X119118949Y-77479921D01*
X119115769Y-77499999D01*
X119114572Y-77499809D01*
X119097318Y-77558573D01*
X119043662Y-77605066D01*
X119001454Y-77615999D01*
X119000001Y-77615769D01*
X118999999Y-77615769D01*
X118995108Y-77616544D01*
X118992408Y-77616756D01*
X118989729Y-77617085D01*
X118980802Y-77617866D01*
X118803120Y-77633410D01*
X118723963Y-77654620D01*
X118617531Y-77683138D01*
X118617529Y-77683139D01*
X118612221Y-77684561D01*
X118607241Y-77686883D01*
X118607239Y-77686884D01*
X118438085Y-77765762D01*
X118438082Y-77765764D01*
X118433104Y-77768085D01*
X118271212Y-77881442D01*
X118131464Y-78021190D01*
X118018107Y-78183082D01*
X118015786Y-78188060D01*
X118015784Y-78188063D01*
X117952580Y-78323604D01*
X117934583Y-78362199D01*
X117933161Y-78367506D01*
X117933157Y-78367517D01*
X117922223Y-78408323D01*
X117885271Y-78468946D01*
X117880267Y-78472889D01*
X117879436Y-78473318D01*
X117760061Y-78577456D01*
X117668972Y-78707062D01*
X117658035Y-78735115D01*
X117626299Y-78816514D01*
X117611428Y-78854655D01*
X117610436Y-78862188D01*
X117610436Y-78862189D01*
X117592094Y-79001516D01*
X117590751Y-79011714D01*
X117595598Y-79055612D01*
X117606712Y-79156280D01*
X117608135Y-79169171D01*
X117610745Y-79176302D01*
X117610745Y-79176304D01*
X117656011Y-79299999D01*
X117662575Y-79317937D01*
X117666811Y-79324240D01*
X117666811Y-79324241D01*
X117734713Y-79425289D01*
X117750930Y-79449423D01*
X117756549Y-79454536D01*
X117756550Y-79454537D01*
X117862482Y-79550927D01*
X117868098Y-79556037D01*
X118007315Y-79631626D01*
X118160544Y-79671825D01*
X118244499Y-79673144D01*
X118311341Y-79674194D01*
X118311344Y-79674194D01*
X118318938Y-79674313D01*
X118470263Y-79639655D01*
X118541129Y-79643944D01*
X118598427Y-79685866D01*
X118623965Y-79752111D01*
X118624392Y-79762475D01*
X118624392Y-80926615D01*
X118604390Y-80994736D01*
X118581222Y-81021563D01*
X118513931Y-81080266D01*
X118422842Y-81209872D01*
X118410055Y-81242669D01*
X118382564Y-81313181D01*
X118365298Y-81357465D01*
X118364306Y-81364998D01*
X118364306Y-81364999D01*
X118346566Y-81499751D01*
X118344621Y-81514524D01*
X118349993Y-81563184D01*
X118360877Y-81661760D01*
X118362005Y-81671981D01*
X118364615Y-81679112D01*
X118364615Y-81679114D01*
X118412518Y-81810015D01*
X118416445Y-81820747D01*
X118420681Y-81827050D01*
X118420681Y-81827051D01*
X118476892Y-81910701D01*
X118504800Y-81952233D01*
X118510419Y-81957346D01*
X118510420Y-81957347D01*
X118560014Y-82002474D01*
X118621968Y-82058847D01*
X118761185Y-82134436D01*
X118914414Y-82174635D01*
X118998369Y-82175954D01*
X119065211Y-82177004D01*
X119065214Y-82177004D01*
X119072808Y-82177123D01*
X119227224Y-82141757D01*
X119297634Y-82106345D01*
X119361964Y-82073991D01*
X119361967Y-82073989D01*
X119368747Y-82070579D01*
X119374518Y-82065650D01*
X119374521Y-82065648D01*
X119483428Y-81972632D01*
X119483428Y-81972631D01*
X119489206Y-81967697D01*
X119581647Y-81839052D01*
X119640734Y-81692069D01*
X119651648Y-81615381D01*
X119662473Y-81539319D01*
X119662473Y-81539316D01*
X119663054Y-81535235D01*
X119663199Y-81521428D01*
X119655074Y-81454286D01*
X119666747Y-81384256D01*
X119714429Y-81331654D01*
X119782980Y-81313181D01*
X119850636Y-81334702D01*
X119884743Y-81368873D01*
X119890392Y-81377280D01*
X119949492Y-81465229D01*
X119962298Y-81484287D01*
X119967917Y-81489400D01*
X119967918Y-81489401D01*
X120040689Y-81555617D01*
X120077612Y-81616257D01*
X120081890Y-81648811D01*
X120081890Y-81721603D01*
X120080339Y-81741313D01*
X120077159Y-81761391D01*
X120078710Y-81771184D01*
X120078940Y-81772636D01*
X120079884Y-81779993D01*
X120093365Y-81916867D01*
X120138716Y-82066369D01*
X120141632Y-82071824D01*
X120141633Y-82071827D01*
X120197915Y-82177123D01*
X120212362Y-82204151D01*
X120311473Y-82324917D01*
X120432239Y-82424028D01*
X120437697Y-82426945D01*
X120437698Y-82426946D01*
X120564563Y-82494757D01*
X120564566Y-82494758D01*
X120570021Y-82497674D01*
X120575945Y-82499471D01*
X120713592Y-82541226D01*
X120713593Y-82541226D01*
X120719523Y-82543025D01*
X120791616Y-82550126D01*
X120802706Y-82551860D01*
X120808851Y-82554018D01*
X120814416Y-82554500D01*
X120829840Y-82554500D01*
X120842189Y-82555107D01*
X120851775Y-82556051D01*
X120856397Y-82556506D01*
X120863738Y-82557448D01*
X120874999Y-82559231D01*
X120895077Y-82556051D01*
X120914787Y-82554500D01*
X122373087Y-82554500D01*
X122441208Y-82574502D01*
X122487701Y-82628158D01*
X122496663Y-82655909D01*
X122510266Y-82724301D01*
X122519605Y-82738277D01*
X122520753Y-82739995D01*
X122541970Y-82807748D01*
X122520753Y-82880004D01*
X122510266Y-82895699D01*
X122495500Y-82969933D01*
X122492773Y-82969391D01*
X122470622Y-83024131D01*
X122412637Y-83065098D01*
X122382851Y-83071396D01*
X122347608Y-83074480D01*
X122301372Y-83078525D01*
X122214221Y-83101877D01*
X122114089Y-83128707D01*
X122114087Y-83128708D01*
X122108779Y-83130130D01*
X122103799Y-83132452D01*
X122103797Y-83132453D01*
X121933061Y-83212069D01*
X121933057Y-83212072D01*
X121928074Y-83214395D01*
X121923567Y-83217551D01*
X121923565Y-83217552D01*
X121769258Y-83325599D01*
X121769255Y-83325601D01*
X121764747Y-83328758D01*
X121623759Y-83469746D01*
X121620602Y-83474254D01*
X121620600Y-83474257D01*
X121513344Y-83627435D01*
X121509396Y-83633073D01*
X121507073Y-83638056D01*
X121507070Y-83638060D01*
X121430262Y-83802775D01*
X121425131Y-83813778D01*
X121423709Y-83819086D01*
X121423708Y-83819088D01*
X121414582Y-83853146D01*
X121373526Y-84006371D01*
X121362576Y-84131529D01*
X121361839Y-84136414D01*
X121360983Y-84138850D01*
X121360501Y-84144415D01*
X121360501Y-84149744D01*
X121360021Y-84160727D01*
X121357575Y-84188688D01*
X121356614Y-84199666D01*
X121355770Y-84204998D01*
X121357320Y-84214784D01*
X121357320Y-84214787D01*
X121358950Y-84225075D01*
X121360501Y-84244786D01*
X121360501Y-86436956D01*
X121340499Y-86505077D01*
X121286843Y-86551570D01*
X121216569Y-86561674D01*
X121151989Y-86532180D01*
X121127068Y-86502791D01*
X121079304Y-86424847D01*
X121072239Y-86413318D01*
X120924575Y-86240425D01*
X120751682Y-86092761D01*
X120557817Y-85973961D01*
X120553247Y-85972068D01*
X120553243Y-85972066D01*
X120352328Y-85888844D01*
X120352326Y-85888843D01*
X120347755Y-85886950D01*
X120232788Y-85859349D01*
X120131481Y-85835027D01*
X120131475Y-85835026D01*
X120126668Y-85833872D01*
X119994173Y-85823444D01*
X119968987Y-85821462D01*
X119966466Y-85821093D01*
X119966149Y-85820982D01*
X119965062Y-85820888D01*
X119965056Y-85820887D01*
X119963287Y-85820734D01*
X119963284Y-85820734D01*
X119960584Y-85820500D01*
X119957874Y-85820500D01*
X119957643Y-85820490D01*
X119953203Y-85820220D01*
X119927629Y-85818208D01*
X119903313Y-85816294D01*
X119900000Y-85815769D01*
X119879923Y-85818949D01*
X119860212Y-85820500D01*
X111003414Y-85820500D01*
X110935293Y-85800498D01*
X110888800Y-85746842D01*
X110877612Y-85701565D01*
X110877524Y-85699987D01*
X110868587Y-85540857D01*
X110825110Y-85284973D01*
X110753257Y-85035565D01*
X110737081Y-84996513D01*
X110655285Y-84799039D01*
X110655283Y-84799034D01*
X110653931Y-84795771D01*
X110528381Y-84568605D01*
X110416036Y-84410269D01*
X110380221Y-84359793D01*
X110380221Y-84359792D01*
X110378186Y-84356925D01*
X110216586Y-84176095D01*
X110213668Y-84172477D01*
X110211833Y-84170642D01*
X110206006Y-84162622D01*
X110189560Y-84150673D01*
X110174527Y-84137833D01*
X109846485Y-83809791D01*
X109833643Y-83794756D01*
X109827519Y-83786327D01*
X109821693Y-83778308D01*
X109813674Y-83772482D01*
X109809218Y-83768026D01*
X109795109Y-83755155D01*
X109694561Y-83640501D01*
X109684536Y-83627435D01*
X109584827Y-83478210D01*
X109576586Y-83463937D01*
X109497205Y-83302969D01*
X109490898Y-83287742D01*
X109462054Y-83202770D01*
X109433208Y-83117795D01*
X109428943Y-83101877D01*
X109393929Y-82925848D01*
X109391778Y-82909507D01*
X109381806Y-82757358D01*
X109382680Y-82738277D01*
X109382680Y-82731976D01*
X109384231Y-82722183D01*
X109381051Y-82702105D01*
X109379500Y-82682395D01*
X109379500Y-76339788D01*
X109381051Y-76320077D01*
X109382680Y-76309794D01*
X109382680Y-76309793D01*
X109384231Y-76300000D01*
X109382679Y-76290205D01*
X109382679Y-76280289D01*
X109382834Y-76280289D01*
X109382240Y-76265180D01*
X109394856Y-76104885D01*
X109397949Y-76085357D01*
X109400636Y-76074164D01*
X109441325Y-75904685D01*
X109447433Y-75885886D01*
X109448931Y-75882271D01*
X109513854Y-75725532D01*
X109518537Y-75714226D01*
X109527509Y-75696616D01*
X109624597Y-75538185D01*
X109636211Y-75522200D01*
X109662460Y-75491467D01*
X109740642Y-75399928D01*
X109751742Y-75389668D01*
X109751633Y-75389559D01*
X109758647Y-75382545D01*
X109766667Y-75376718D01*
X109778618Y-75360269D01*
X109791459Y-75345235D01*
X110761008Y-74375686D01*
X110776043Y-74362844D01*
X110784467Y-74356724D01*
X110784468Y-74356723D01*
X110792491Y-74350894D01*
X110798321Y-74342869D01*
X110799844Y-74341346D01*
X110804484Y-74335635D01*
X110902111Y-74227920D01*
X110975866Y-74146545D01*
X110982959Y-74136982D01*
X111137539Y-73928555D01*
X111139382Y-73926070D01*
X111140965Y-73923429D01*
X111140971Y-73923420D01*
X111278916Y-73693271D01*
X111280499Y-73690630D01*
X111281815Y-73687848D01*
X111396540Y-73445283D01*
X111396544Y-73445274D01*
X111397860Y-73442491D01*
X111448691Y-73300428D01*
X111489294Y-73186952D01*
X111489297Y-73186943D01*
X111490334Y-73184044D01*
X111493287Y-73172258D01*
X111556280Y-72920772D01*
X111557030Y-72917778D01*
X111597306Y-72646256D01*
X111597504Y-72642239D01*
X111609829Y-72391358D01*
X111610586Y-72384040D01*
X111610586Y-72381889D01*
X111612137Y-72372094D01*
X111608957Y-72352016D01*
X111607406Y-72332306D01*
X111607406Y-71592748D01*
X111627408Y-71524627D01*
X111651575Y-71496937D01*
X111707442Y-71449222D01*
X111713220Y-71444287D01*
X111805661Y-71315642D01*
X111864748Y-71168659D01*
X111878129Y-71074634D01*
X111886487Y-71015909D01*
X111886487Y-71015906D01*
X111887068Y-71011825D01*
X111887213Y-70998018D01*
X111868182Y-70840751D01*
X111812186Y-70692564D01*
X111722459Y-70562010D01*
X111622426Y-70472885D01*
X122242000Y-70472885D01*
X122246475Y-70488124D01*
X122247865Y-70489329D01*
X122255548Y-70491000D01*
X123477885Y-70491000D01*
X123493124Y-70486525D01*
X123494329Y-70485135D01*
X123496000Y-70477452D01*
X123496000Y-70472885D01*
X124004000Y-70472885D01*
X124008475Y-70488124D01*
X124009865Y-70489329D01*
X124017548Y-70491000D01*
X125239884Y-70491000D01*
X125255123Y-70486525D01*
X125256328Y-70485135D01*
X125257999Y-70477452D01*
X125257999Y-70250331D01*
X125257629Y-70243510D01*
X125252105Y-70192648D01*
X125248479Y-70177396D01*
X125203324Y-70056946D01*
X125194786Y-70041351D01*
X125118285Y-69939276D01*
X125105724Y-69926715D01*
X125003649Y-69850214D01*
X124988054Y-69841676D01*
X124867606Y-69796522D01*
X124852351Y-69792895D01*
X124801486Y-69787369D01*
X124794672Y-69787000D01*
X124022115Y-69787000D01*
X124006876Y-69791475D01*
X124005671Y-69792865D01*
X124004000Y-69800548D01*
X124004000Y-70472885D01*
X123496000Y-70472885D01*
X123496000Y-69805116D01*
X123491525Y-69789877D01*
X123490135Y-69788672D01*
X123482452Y-69787001D01*
X122705331Y-69787001D01*
X122698510Y-69787371D01*
X122647648Y-69792895D01*
X122632396Y-69796521D01*
X122511946Y-69841676D01*
X122496351Y-69850214D01*
X122394276Y-69926715D01*
X122381715Y-69939276D01*
X122305214Y-70041351D01*
X122296676Y-70056946D01*
X122251522Y-70177394D01*
X122247895Y-70192649D01*
X122242369Y-70243514D01*
X122242000Y-70250328D01*
X122242000Y-70472885D01*
X111622426Y-70472885D01*
X111604181Y-70456629D01*
X111596795Y-70452718D01*
X111533016Y-70418949D01*
X111464180Y-70382502D01*
X111310539Y-70343910D01*
X111302940Y-70343870D01*
X111302939Y-70343870D01*
X111237087Y-70343525D01*
X111152127Y-70343080D01*
X111144747Y-70344852D01*
X111144745Y-70344852D01*
X111005469Y-70378289D01*
X111005466Y-70378290D01*
X110998090Y-70380061D01*
X110857320Y-70452718D01*
X110737945Y-70556856D01*
X110646856Y-70686462D01*
X110628277Y-70734115D01*
X110594196Y-70821529D01*
X110589312Y-70834055D01*
X110588320Y-70841590D01*
X110586714Y-70853789D01*
X110557993Y-70918717D01*
X110498728Y-70957810D01*
X110461133Y-70963343D01*
X110403959Y-70963044D01*
X110376446Y-70962900D01*
X110308432Y-70942542D01*
X110288011Y-70925997D01*
X109656125Y-70294111D01*
X109643284Y-70279077D01*
X109637163Y-70270652D01*
X109631336Y-70262632D01*
X109616057Y-70251531D01*
X109608292Y-70245409D01*
X109523247Y-70172772D01*
X109523244Y-70172770D01*
X109519480Y-70169555D01*
X109395542Y-70093605D01*
X109390972Y-70091712D01*
X109390970Y-70091711D01*
X109265821Y-70039873D01*
X109265819Y-70039872D01*
X109261248Y-70037979D01*
X109119907Y-70004046D01*
X109089029Y-70001616D01*
X109055782Y-69999000D01*
X109045432Y-69997485D01*
X109041147Y-69995980D01*
X109035582Y-69995498D01*
X109016239Y-69995498D01*
X109006363Y-69995110D01*
X109003463Y-69994882D01*
X108993633Y-69993719D01*
X108974997Y-69990767D01*
X108965204Y-69992318D01*
X108965203Y-69992318D01*
X108957462Y-69993544D01*
X108955141Y-69993912D01*
X108954920Y-69993947D01*
X108935209Y-69995498D01*
X108591785Y-69995498D01*
X108572074Y-69993947D01*
X108551997Y-69990767D01*
X108542204Y-69992318D01*
X108542203Y-69992318D01*
X108537777Y-69993019D01*
X108530419Y-69993963D01*
X108509942Y-69995980D01*
X108403697Y-70006445D01*
X108397773Y-70008242D01*
X108296634Y-70038922D01*
X108225640Y-70039555D01*
X108165574Y-70001706D01*
X108159231Y-69993912D01*
X108118281Y-69939272D01*
X108105724Y-69926715D01*
X108003649Y-69850214D01*
X107988054Y-69841676D01*
X107867606Y-69796522D01*
X107852351Y-69792895D01*
X107801486Y-69787369D01*
X107794672Y-69787000D01*
X107022115Y-69787000D01*
X107006876Y-69791475D01*
X107005671Y-69792865D01*
X107004000Y-69800548D01*
X107004000Y-70873000D01*
X106983998Y-70941121D01*
X106930342Y-70987614D01*
X106878000Y-70999000D01*
X106622000Y-70999000D01*
X106553879Y-70978998D01*
X106507386Y-70925342D01*
X106496000Y-70873000D01*
X106496000Y-69805116D01*
X106491525Y-69789877D01*
X106490135Y-69788672D01*
X106482452Y-69787001D01*
X105705331Y-69787001D01*
X105698510Y-69787371D01*
X105647648Y-69792895D01*
X105632396Y-69796521D01*
X105511946Y-69841676D01*
X105496351Y-69850214D01*
X105394276Y-69926715D01*
X105381715Y-69939276D01*
X105305214Y-70041351D01*
X105296675Y-70056948D01*
X105293076Y-70066548D01*
X105250435Y-70123313D01*
X105183873Y-70148013D01*
X105114524Y-70132806D01*
X105074136Y-70097707D01*
X105047781Y-70062413D01*
X105047777Y-70062409D01*
X105044320Y-70057779D01*
X104895258Y-69919987D01*
X104890375Y-69916906D01*
X104890371Y-69916903D01*
X104728464Y-69814748D01*
X104723581Y-69811667D01*
X104535039Y-69736446D01*
X104529379Y-69735320D01*
X104529375Y-69735319D01*
X104341613Y-69697971D01*
X104341610Y-69697971D01*
X104335946Y-69696844D01*
X104330171Y-69696768D01*
X104330167Y-69696768D01*
X104228793Y-69695441D01*
X104132971Y-69694187D01*
X104127274Y-69695166D01*
X104127273Y-69695166D01*
X103938607Y-69727585D01*
X103932910Y-69728564D01*
X103742463Y-69798824D01*
X103568010Y-69902612D01*
X103563670Y-69906418D01*
X103563666Y-69906421D01*
X103419733Y-70032648D01*
X103415392Y-70036455D01*
X103411817Y-70040990D01*
X103411816Y-70040991D01*
X103405456Y-70049059D01*
X103289720Y-70195869D01*
X103287031Y-70200980D01*
X103287029Y-70200983D01*
X103261066Y-70250331D01*
X103195203Y-70375515D01*
X103135007Y-70569378D01*
X103111148Y-70770964D01*
X103124424Y-70973522D01*
X103125845Y-70979118D01*
X103125846Y-70979123D01*
X103166548Y-71139384D01*
X103174392Y-71170269D01*
X103176809Y-71175512D01*
X103232978Y-71297352D01*
X103259377Y-71354616D01*
X103275341Y-71377205D01*
X103360131Y-71497180D01*
X103376533Y-71520389D01*
X103521938Y-71662035D01*
X103690720Y-71774812D01*
X103696023Y-71777090D01*
X103696028Y-71777093D01*
X103764237Y-71806397D01*
X103818930Y-71851665D01*
X103840500Y-71922165D01*
X103840500Y-73264023D01*
X103838949Y-73283733D01*
X103835769Y-73303811D01*
X103836682Y-73309573D01*
X103839061Y-73345875D01*
X103840284Y-73364529D01*
X103824780Y-73433812D01*
X103774280Y-73483715D01*
X103704817Y-73498393D01*
X103638446Y-73473187D01*
X103625459Y-73461865D01*
X102149994Y-71986401D01*
X102115969Y-71924089D01*
X102121033Y-71853274D01*
X102163580Y-71796438D01*
X102177509Y-71787380D01*
X102308276Y-71714147D01*
X102322670Y-71702176D01*
X102451522Y-71595010D01*
X102464345Y-71584345D01*
X102497753Y-71544176D01*
X102590453Y-71432718D01*
X102590455Y-71432715D01*
X102594147Y-71428276D01*
X102658925Y-71312606D01*
X102690510Y-71256208D01*
X102690511Y-71256206D01*
X102693334Y-71251165D01*
X102695190Y-71245698D01*
X102695192Y-71245693D01*
X102756728Y-71064414D01*
X102756729Y-71064409D01*
X102758584Y-71058945D01*
X102759412Y-71053236D01*
X102759413Y-71053231D01*
X102787179Y-70861727D01*
X102787712Y-70858053D01*
X102789232Y-70800000D01*
X102777797Y-70675551D01*
X102771187Y-70603613D01*
X102771186Y-70603610D01*
X102770658Y-70597859D01*
X102769090Y-70592299D01*
X102717125Y-70408046D01*
X102717124Y-70408044D01*
X102715557Y-70402487D01*
X102706215Y-70383542D01*
X102628331Y-70225609D01*
X102625776Y-70220428D01*
X102621338Y-70214484D01*
X102560345Y-70132806D01*
X102504320Y-70057779D01*
X102355258Y-69919987D01*
X102350375Y-69916906D01*
X102350371Y-69916903D01*
X102188464Y-69814748D01*
X102183581Y-69811667D01*
X101995039Y-69736446D01*
X101989379Y-69735320D01*
X101989375Y-69735319D01*
X101801613Y-69697971D01*
X101801610Y-69697971D01*
X101795946Y-69696844D01*
X101790171Y-69696768D01*
X101790167Y-69696768D01*
X101688793Y-69695441D01*
X101592971Y-69694187D01*
X101587274Y-69695166D01*
X101587273Y-69695166D01*
X101398607Y-69727585D01*
X101392910Y-69728564D01*
X101202463Y-69798824D01*
X101028010Y-69902612D01*
X101023670Y-69906418D01*
X101023666Y-69906421D01*
X100879733Y-70032648D01*
X100875392Y-70036455D01*
X100871817Y-70040990D01*
X100871816Y-70040991D01*
X100865456Y-70049059D01*
X100749720Y-70195869D01*
X100747031Y-70200980D01*
X100747029Y-70200983D01*
X100657589Y-70370980D01*
X100608170Y-70421952D01*
X100539037Y-70438115D01*
X100472141Y-70414336D01*
X100432003Y-70359973D01*
X100429955Y-70360863D01*
X100342972Y-70160814D01*
X100338105Y-70151739D01*
X100273063Y-70051197D01*
X100262377Y-70041995D01*
X100252812Y-70046398D01*
X99512022Y-70787188D01*
X99504408Y-70801132D01*
X99504539Y-70802965D01*
X99508790Y-70809580D01*
X100250474Y-71551264D01*
X100262484Y-71557823D01*
X100274223Y-71548855D01*
X100305004Y-71506019D01*
X100310315Y-71497180D01*
X100404670Y-71306267D01*
X100408469Y-71296672D01*
X100425066Y-71242047D01*
X100464007Y-71182683D01*
X100528862Y-71153796D01*
X100599038Y-71164558D01*
X100652256Y-71211551D01*
X100660048Y-71225922D01*
X100719377Y-71354616D01*
X100735341Y-71377205D01*
X100820131Y-71497180D01*
X100836533Y-71520389D01*
X100981938Y-71662035D01*
X101150720Y-71774812D01*
X101156023Y-71777090D01*
X101156028Y-71777093D01*
X101224237Y-71806397D01*
X101278930Y-71851665D01*
X101300500Y-71922165D01*
X101300500Y-71999181D01*
X101297951Y-72023129D01*
X101297872Y-72024794D01*
X101295680Y-72034977D01*
X101296904Y-72045318D01*
X101299627Y-72068324D01*
X101299977Y-72074255D01*
X101300072Y-72074247D01*
X101300500Y-72079425D01*
X101300500Y-72084625D01*
X101301354Y-72089754D01*
X101301354Y-72089757D01*
X101303669Y-72103666D01*
X101304506Y-72109544D01*
X101306275Y-72124487D01*
X101310530Y-72160442D01*
X101314493Y-72168694D01*
X101315996Y-72177727D01*
X101320943Y-72186896D01*
X101320944Y-72186898D01*
X101340334Y-72222833D01*
X101343031Y-72228126D01*
X101361785Y-72267183D01*
X101361788Y-72267187D01*
X101365219Y-72274333D01*
X101368814Y-72278609D01*
X101370737Y-72280532D01*
X101372509Y-72282464D01*
X101372552Y-72282543D01*
X101372428Y-72282656D01*
X101372904Y-72283196D01*
X101375990Y-72288915D01*
X101383635Y-72295982D01*
X101415586Y-72325517D01*
X101419152Y-72328947D01*
X102721653Y-73631447D01*
X104023086Y-74932880D01*
X104035928Y-74947915D01*
X104047878Y-74964363D01*
X104055897Y-74970189D01*
X104060365Y-74974657D01*
X104074459Y-74987513D01*
X104206047Y-75137560D01*
X104216080Y-75150637D01*
X104341941Y-75339003D01*
X104350182Y-75353275D01*
X104450387Y-75556470D01*
X104456693Y-75571696D01*
X104529517Y-75786227D01*
X104533781Y-75802140D01*
X104577979Y-76024342D01*
X104580130Y-76040682D01*
X104593182Y-76239813D01*
X104592308Y-76258895D01*
X104592308Y-76265196D01*
X104590757Y-76274989D01*
X104592308Y-76284781D01*
X104593937Y-76295066D01*
X104595488Y-76314777D01*
X104595488Y-82880199D01*
X104593937Y-82899909D01*
X104590757Y-82919987D01*
X104591693Y-82925897D01*
X104608575Y-83097303D01*
X104660295Y-83267804D01*
X104744286Y-83424940D01*
X104857318Y-83562670D01*
X104995048Y-83675702D01*
X105152184Y-83759693D01*
X105322685Y-83811413D01*
X105384095Y-83817461D01*
X105449928Y-83844043D01*
X105490938Y-83901997D01*
X105494893Y-83920187D01*
X105495501Y-83920066D01*
X105505888Y-83972288D01*
X105510266Y-83994301D01*
X105520753Y-84009995D01*
X105541970Y-84077748D01*
X105520753Y-84150004D01*
X105510266Y-84165699D01*
X105495500Y-84239933D01*
X105495500Y-84295677D01*
X105475498Y-84363798D01*
X105428896Y-84406799D01*
X105395784Y-84424498D01*
X105350079Y-84448928D01*
X105245090Y-84535091D01*
X105215051Y-84571694D01*
X105193002Y-84598560D01*
X105134325Y-84638529D01*
X105063354Y-84640429D01*
X105002621Y-84603658D01*
X104990843Y-84588634D01*
X104954866Y-84534791D01*
X104952152Y-84531697D01*
X104952148Y-84531691D01*
X104877007Y-84446010D01*
X104839272Y-84402981D01*
X104839048Y-84402720D01*
X104838934Y-84402596D01*
X104838458Y-84402053D01*
X104838193Y-84401738D01*
X104838176Y-84401703D01*
X104837580Y-84401009D01*
X104836933Y-84400239D01*
X104836886Y-84400183D01*
X104837270Y-84399860D01*
X104836952Y-84399214D01*
X104836396Y-84399702D01*
X104823417Y-84384903D01*
X104806430Y-84365533D01*
X104805268Y-84364078D01*
X104804344Y-84363154D01*
X104802634Y-84361204D01*
X104797440Y-84354055D01*
X104780991Y-84342104D01*
X104765957Y-84329263D01*
X104596480Y-84159786D01*
X104583640Y-84144753D01*
X104578612Y-84137833D01*
X104571691Y-84128307D01*
X104563665Y-84122476D01*
X104556655Y-84115466D01*
X104556764Y-84115357D01*
X104545664Y-84105096D01*
X104465584Y-84011333D01*
X104453968Y-83995344D01*
X104376480Y-83868896D01*
X104367503Y-83851279D01*
X104327684Y-83755148D01*
X104310747Y-83714256D01*
X104304638Y-83695457D01*
X104299896Y-83675702D01*
X104270017Y-83551247D01*
X104266924Y-83531720D01*
X104257250Y-83408805D01*
X104257844Y-83393696D01*
X104257689Y-83393696D01*
X104257689Y-83383780D01*
X104259241Y-83373985D01*
X104256061Y-83353907D01*
X104254510Y-83334197D01*
X104254510Y-82864778D01*
X104256061Y-82845067D01*
X104257690Y-82834782D01*
X104259241Y-82824990D01*
X104257029Y-82811022D01*
X104255748Y-82799554D01*
X104246078Y-82652024D01*
X104246077Y-82652020D01*
X104245808Y-82647909D01*
X104241879Y-82628158D01*
X104211992Y-82477903D01*
X104211990Y-82477897D01*
X104211187Y-82473858D01*
X104154144Y-82305814D01*
X104152321Y-82302118D01*
X104152318Y-82302110D01*
X104088554Y-82172811D01*
X104075655Y-82146655D01*
X104068778Y-82136362D01*
X104021528Y-82065648D01*
X103977063Y-81999101D01*
X103974343Y-81995999D01*
X103974338Y-81995993D01*
X103909564Y-81922132D01*
X103905082Y-81916195D01*
X103904435Y-81914848D01*
X103900840Y-81910572D01*
X103892266Y-81901998D01*
X103886629Y-81895980D01*
X103876856Y-81884836D01*
X103869651Y-81875819D01*
X103867172Y-81872407D01*
X103861346Y-81864388D01*
X103844900Y-81852439D01*
X103829867Y-81839599D01*
X103699416Y-81709148D01*
X103665390Y-81646836D01*
X103670455Y-81576021D01*
X103674024Y-81568072D01*
X103677634Y-81563184D01*
X103722519Y-81435369D01*
X103725500Y-81403834D01*
X103725500Y-80796166D01*
X103722519Y-80764631D01*
X103692539Y-80679260D01*
X103688841Y-80608360D01*
X103706658Y-80567509D01*
X103706847Y-80567227D01*
X103723485Y-80542326D01*
X103745339Y-80509621D01*
X103745340Y-80509618D01*
X103752234Y-80499301D01*
X103767000Y-80425067D01*
X103766999Y-76674934D01*
X103756060Y-76619933D01*
X103754656Y-76612874D01*
X103754655Y-76612872D01*
X103752234Y-76600699D01*
X103731359Y-76569457D01*
X103702877Y-76526832D01*
X103695984Y-76516516D01*
X103611801Y-76460266D01*
X103537567Y-76445500D01*
X103308680Y-76445500D01*
X103240559Y-76425498D01*
X103194066Y-76371842D01*
X103182680Y-76319500D01*
X103182680Y-76309793D01*
X103184231Y-76300000D01*
X103182691Y-76290275D01*
X103182680Y-76290135D01*
X103182680Y-76288532D01*
X103182303Y-76285350D01*
X103182259Y-76284781D01*
X103167655Y-76099223D01*
X103135535Y-75965434D01*
X103121793Y-75908195D01*
X103121791Y-75908190D01*
X103120639Y-75903390D01*
X103118749Y-75898827D01*
X103118747Y-75898821D01*
X103045463Y-75721897D01*
X103045461Y-75721893D01*
X103043568Y-75717323D01*
X102938338Y-75545603D01*
X102935131Y-75541848D01*
X102935128Y-75541844D01*
X102810748Y-75396216D01*
X102807540Y-75392460D01*
X102789109Y-75376718D01*
X102658156Y-75264872D01*
X102658152Y-75264869D01*
X102654397Y-75261662D01*
X102482677Y-75156432D01*
X102478107Y-75154539D01*
X102478103Y-75154537D01*
X102301179Y-75081253D01*
X102301173Y-75081251D01*
X102296610Y-75079361D01*
X102291810Y-75078209D01*
X102291805Y-75078207D01*
X102203038Y-75056896D01*
X102100777Y-75032345D01*
X101972721Y-75022266D01*
X101967725Y-75021535D01*
X101966149Y-75020982D01*
X101960584Y-75020500D01*
X101955227Y-75020500D01*
X101945343Y-75020112D01*
X101930563Y-75018949D01*
X101914643Y-75017696D01*
X101911468Y-75017320D01*
X101909865Y-75017320D01*
X101909725Y-75017309D01*
X101900000Y-75015769D01*
X101879923Y-75018949D01*
X101860212Y-75020500D01*
X97546491Y-75020500D01*
X97478370Y-75000498D01*
X97431877Y-74946842D01*
X97427562Y-74936115D01*
X97418420Y-74909989D01*
X97416083Y-74903310D01*
X97411995Y-74896803D01*
X97338380Y-74779648D01*
X97338379Y-74779647D01*
X97334616Y-74773658D01*
X97226342Y-74665384D01*
X97170373Y-74630216D01*
X97123336Y-74577037D01*
X97112516Y-74506870D01*
X97122572Y-74471681D01*
X97127285Y-74461243D01*
X97174256Y-74311356D01*
X97176869Y-74298306D01*
X97181913Y-74243414D01*
X97178525Y-74231876D01*
X97177135Y-74230671D01*
X97169452Y-74229000D01*
X96072000Y-74229000D01*
X96003879Y-74208998D01*
X95957386Y-74155342D01*
X95946000Y-74103000D01*
X95946000Y-73702885D01*
X96454000Y-73702885D01*
X96458475Y-73718124D01*
X96459865Y-73719329D01*
X96467548Y-73721000D01*
X97164884Y-73721000D01*
X97180123Y-73716525D01*
X97181328Y-73715135D01*
X97182291Y-73710706D01*
X97176868Y-73651685D01*
X97174257Y-73638649D01*
X97127285Y-73488757D01*
X97121079Y-73475012D01*
X97040176Y-73341426D01*
X97030869Y-73329557D01*
X96920443Y-73219131D01*
X96908574Y-73209824D01*
X96774988Y-73128921D01*
X96761243Y-73122715D01*
X96611356Y-73075744D01*
X96598306Y-73073131D01*
X96534479Y-73067266D01*
X96528691Y-73067000D01*
X96472115Y-73067000D01*
X96456876Y-73071475D01*
X96455671Y-73072865D01*
X96454000Y-73080548D01*
X96454000Y-73702885D01*
X95946000Y-73702885D01*
X95946000Y-73085116D01*
X95941525Y-73069877D01*
X95940135Y-73068672D01*
X95932452Y-73067001D01*
X95871295Y-73067001D01*
X95865546Y-73067264D01*
X95801685Y-73073132D01*
X95788649Y-73075743D01*
X95638757Y-73122715D01*
X95625012Y-73128921D01*
X95491426Y-73209824D01*
X95479557Y-73219131D01*
X95401590Y-73297098D01*
X95339278Y-73331124D01*
X95275978Y-73327209D01*
X95275871Y-73327697D01*
X95272730Y-73327008D01*
X95270746Y-73326885D01*
X95268374Y-73326052D01*
X95261127Y-73323507D01*
X95253485Y-73322785D01*
X95253482Y-73322784D01*
X95238579Y-73321376D01*
X95229315Y-73320500D01*
X94900223Y-73320500D01*
X94570686Y-73320501D01*
X94567738Y-73320780D01*
X94567729Y-73320780D01*
X94546522Y-73322784D01*
X94546520Y-73322784D01*
X94538873Y-73323507D01*
X94409924Y-73368791D01*
X94299990Y-73449990D01*
X94294398Y-73457561D01*
X94288364Y-73463595D01*
X94226052Y-73497621D01*
X94199269Y-73500500D01*
X93622792Y-73500500D01*
X93554671Y-73480498D01*
X93509786Y-73430228D01*
X93448331Y-73305609D01*
X93445776Y-73300428D01*
X93324320Y-73137779D01*
X93175258Y-72999987D01*
X93170375Y-72996906D01*
X93170371Y-72996903D01*
X93013344Y-72897827D01*
X93003581Y-72891667D01*
X92958810Y-72873805D01*
X92902951Y-72829985D01*
X92879500Y-72756775D01*
X92879500Y-71924853D01*
X98379977Y-71924853D01*
X98385258Y-71931907D01*
X98546756Y-72026279D01*
X98556042Y-72030729D01*
X98755001Y-72106703D01*
X98764899Y-72109579D01*
X98973595Y-72152038D01*
X98983823Y-72153257D01*
X99196650Y-72161062D01*
X99206936Y-72160595D01*
X99418185Y-72133534D01*
X99428262Y-72131392D01*
X99632255Y-72070191D01*
X99641842Y-72066433D01*
X99833098Y-71972738D01*
X99841944Y-71967465D01*
X99889247Y-71933723D01*
X99897648Y-71923023D01*
X99890660Y-71909870D01*
X99152812Y-71172022D01*
X99138868Y-71164408D01*
X99137035Y-71164539D01*
X99130420Y-71168790D01*
X98386737Y-71912473D01*
X98379977Y-71924853D01*
X92879500Y-71924853D01*
X92879500Y-71839788D01*
X92881051Y-71820077D01*
X92882680Y-71809792D01*
X92884231Y-71800000D01*
X92882680Y-71790206D01*
X92882680Y-71780292D01*
X92883703Y-71780292D01*
X92883378Y-71765589D01*
X92893468Y-71676032D01*
X92899747Y-71648524D01*
X92936260Y-71544176D01*
X92948501Y-71518756D01*
X93007321Y-71425143D01*
X93024914Y-71403083D01*
X93103083Y-71324914D01*
X93125143Y-71307321D01*
X93126821Y-71306267D01*
X93218756Y-71248501D01*
X93244176Y-71236260D01*
X93348524Y-71199747D01*
X93376032Y-71193468D01*
X93465589Y-71183378D01*
X93480292Y-71183703D01*
X93480292Y-71182680D01*
X93490206Y-71182680D01*
X93500000Y-71184231D01*
X93520078Y-71181051D01*
X93539788Y-71179500D01*
X95477990Y-71179500D01*
X95546111Y-71199502D01*
X95592416Y-71252749D01*
X95639377Y-71354616D01*
X95655341Y-71377205D01*
X95740131Y-71497180D01*
X95756533Y-71520389D01*
X95901938Y-71662035D01*
X96070720Y-71774812D01*
X96076023Y-71777090D01*
X96076026Y-71777092D01*
X96251921Y-71852662D01*
X96257228Y-71854942D01*
X96319762Y-71869092D01*
X96449579Y-71898467D01*
X96449584Y-71898468D01*
X96455216Y-71899742D01*
X96460987Y-71899969D01*
X96460989Y-71899969D01*
X96520756Y-71902317D01*
X96658053Y-71907712D01*
X96758499Y-71893148D01*
X96853231Y-71879413D01*
X96853236Y-71879412D01*
X96858945Y-71878584D01*
X96864409Y-71876729D01*
X96864414Y-71876728D01*
X97045693Y-71815192D01*
X97045698Y-71815190D01*
X97051165Y-71813334D01*
X97087446Y-71793016D01*
X97183155Y-71739416D01*
X97228276Y-71714147D01*
X97242670Y-71702176D01*
X97371522Y-71595010D01*
X97384345Y-71584345D01*
X97417753Y-71544176D01*
X97510453Y-71432718D01*
X97510455Y-71432715D01*
X97514147Y-71428276D01*
X97578925Y-71312606D01*
X97610510Y-71256208D01*
X97610511Y-71256206D01*
X97613334Y-71251165D01*
X97615720Y-71244135D01*
X97616170Y-71243496D01*
X97617541Y-71240416D01*
X97618146Y-71240685D01*
X97656553Y-71186059D01*
X97722305Y-71159278D01*
X97792098Y-71172295D01*
X97843773Y-71220980D01*
X97851777Y-71237229D01*
X97921770Y-71409603D01*
X97926413Y-71418794D01*
X98006460Y-71549420D01*
X98016916Y-71558880D01*
X98025694Y-71555096D01*
X98767978Y-70812812D01*
X98775592Y-70798868D01*
X98775461Y-70797035D01*
X98771210Y-70790420D01*
X98029849Y-70049059D01*
X98018313Y-70042759D01*
X98006031Y-70052382D01*
X97958089Y-70122662D01*
X97953004Y-70131613D01*
X97863338Y-70324783D01*
X97859777Y-70334464D01*
X97855291Y-70350640D01*
X97817813Y-70410939D01*
X97753684Y-70441403D01*
X97683266Y-70432360D01*
X97628915Y-70386682D01*
X97620867Y-70372698D01*
X97548331Y-70225609D01*
X97545776Y-70220428D01*
X97541338Y-70214484D01*
X97480345Y-70132806D01*
X97424320Y-70057779D01*
X97275258Y-69919987D01*
X97270375Y-69916906D01*
X97270371Y-69916903D01*
X97108464Y-69814748D01*
X97103581Y-69811667D01*
X97058810Y-69793805D01*
X97002951Y-69749985D01*
X96979500Y-69676775D01*
X96979500Y-69627037D01*
X96999502Y-69558916D01*
X97053158Y-69512423D01*
X97123432Y-69502319D01*
X97151212Y-69509706D01*
X97157293Y-69513008D01*
X97310522Y-69553207D01*
X97394477Y-69554526D01*
X97461319Y-69555576D01*
X97461322Y-69555576D01*
X97468916Y-69555695D01*
X97623332Y-69520329D01*
X97707646Y-69477924D01*
X97777489Y-69465186D01*
X97843133Y-69492230D01*
X97846421Y-69495178D01*
X97849990Y-69500010D01*
X97857565Y-69505605D01*
X97857567Y-69505607D01*
X97879794Y-69522024D01*
X97959924Y-69581209D01*
X98088873Y-69626493D01*
X98096515Y-69627215D01*
X98096518Y-69627216D01*
X98111421Y-69628624D01*
X98120685Y-69629500D01*
X98280856Y-69629500D01*
X98348977Y-69649502D01*
X98374390Y-69676776D01*
X98375188Y-69675978D01*
X99127188Y-70427978D01*
X99141132Y-70435592D01*
X99142965Y-70435461D01*
X99149580Y-70431210D01*
X99906201Y-69674589D01*
X99907952Y-69676340D01*
X99939382Y-69644911D01*
X99999765Y-69629500D01*
X100272808Y-69629499D01*
X100279314Y-69629499D01*
X100282262Y-69629220D01*
X100282271Y-69629220D01*
X100303478Y-69627216D01*
X100303480Y-69627216D01*
X100311127Y-69626493D01*
X100440076Y-69581209D01*
X100550010Y-69500010D01*
X100631209Y-69390076D01*
X100676493Y-69261127D01*
X100679500Y-69229315D01*
X100679500Y-69150237D01*
X100699502Y-69082116D01*
X100723670Y-69054426D01*
X100785615Y-69001520D01*
X100850404Y-68972489D01*
X100920604Y-68983094D01*
X100973927Y-69029969D01*
X100992324Y-69093463D01*
X100991024Y-69100000D01*
X100996000Y-69125017D01*
X101010737Y-69199106D01*
X101017631Y-69209423D01*
X101017631Y-69209424D01*
X101030921Y-69229314D01*
X101066876Y-69283124D01*
X101150894Y-69339263D01*
X101250000Y-69358976D01*
X101262847Y-69356421D01*
X101287425Y-69354000D01*
X129212575Y-69354000D01*
X129237153Y-69356421D01*
X129250000Y-69358976D01*
X129349106Y-69339263D01*
X129433124Y-69283124D01*
X129489263Y-69199106D01*
X129504000Y-69125017D01*
X129508976Y-69100000D01*
X129506421Y-69087153D01*
X129504000Y-69062575D01*
X129504000Y-63380000D01*
X129524002Y-63311879D01*
X129577658Y-63265386D01*
X129630000Y-63254000D01*
X131505428Y-63254000D01*
X131573549Y-63274002D01*
X131620042Y-63327658D01*
X131630146Y-63397932D01*
X131600652Y-63462512D01*
X131540926Y-63500896D01*
X131531627Y-63503247D01*
X131433425Y-63524120D01*
X131429294Y-63525624D01*
X131429289Y-63525625D01*
X131311616Y-63568455D01*
X131163950Y-63622201D01*
X131160063Y-63624268D01*
X130914639Y-63754761D01*
X130914633Y-63754765D01*
X130910747Y-63756831D01*
X130907187Y-63759418D01*
X130907183Y-63759420D01*
X130682309Y-63922801D01*
X130678746Y-63925390D01*
X130675582Y-63928446D01*
X130675579Y-63928448D01*
X130475626Y-64121540D01*
X130475622Y-64121545D01*
X130472461Y-64124597D01*
X130469754Y-64128062D01*
X130469752Y-64128064D01*
X130386592Y-64234504D01*
X130295907Y-64350575D01*
X130293704Y-64354391D01*
X130165581Y-64576308D01*
X130152523Y-64598925D01*
X130045097Y-64864813D01*
X130044032Y-64869086D01*
X130044031Y-64869088D01*
X130011985Y-64997617D01*
X129975721Y-65143065D01*
X129975262Y-65147435D01*
X129975261Y-65147439D01*
X129969335Y-65203819D01*
X129945745Y-65428264D01*
X129945898Y-65432652D01*
X129945898Y-65432658D01*
X129954966Y-65692319D01*
X129955753Y-65714859D01*
X129956515Y-65719182D01*
X129956516Y-65719189D01*
X129984373Y-65877172D01*
X130005550Y-65997272D01*
X130006905Y-66001443D01*
X130006907Y-66001450D01*
X130009961Y-66010849D01*
X130094167Y-66270006D01*
X130219879Y-66527753D01*
X130380238Y-66765496D01*
X130572125Y-66978608D01*
X130791803Y-67162940D01*
X131034998Y-67314905D01*
X131296975Y-67431545D01*
X131572636Y-67510589D01*
X131576986Y-67511200D01*
X131576989Y-67511201D01*
X131681342Y-67525867D01*
X131856615Y-67550500D01*
X132071604Y-67550500D01*
X132073790Y-67550347D01*
X132073794Y-67550347D01*
X132281686Y-67535810D01*
X132281691Y-67535809D01*
X132286071Y-67535503D01*
X132290365Y-67534590D01*
X132290367Y-67534590D01*
X132408984Y-67509377D01*
X132566575Y-67475880D01*
X132570706Y-67474376D01*
X132570711Y-67474375D01*
X132719135Y-67420353D01*
X132836050Y-67377799D01*
X132954337Y-67314905D01*
X133085361Y-67245239D01*
X133085367Y-67245235D01*
X133089253Y-67243169D01*
X133092813Y-67240582D01*
X133092817Y-67240580D01*
X133317691Y-67077199D01*
X133317694Y-67077197D01*
X133321254Y-67074610D01*
X133347618Y-67049151D01*
X133524374Y-66878460D01*
X133524378Y-66878455D01*
X133527539Y-66875403D01*
X133610853Y-66768767D01*
X133701381Y-66652896D01*
X133704093Y-66649425D01*
X133743478Y-66581208D01*
X133845276Y-66404888D01*
X133845278Y-66404883D01*
X133847477Y-66401075D01*
X133954903Y-66135187D01*
X133997743Y-65963365D01*
X134033631Y-65902107D01*
X134096940Y-65869975D01*
X134167571Y-65877172D01*
X134223098Y-65921413D01*
X134246000Y-65993847D01*
X134246000Y-69656190D01*
X134225998Y-69724311D01*
X134172342Y-69770804D01*
X134120000Y-69782190D01*
X132883500Y-69782190D01*
X132883500Y-73462682D01*
X132863498Y-73530803D01*
X132809842Y-73577296D01*
X132739568Y-73587400D01*
X132674988Y-73557906D01*
X132643305Y-73515932D01*
X132583801Y-73388325D01*
X132583799Y-73388322D01*
X132581478Y-73383344D01*
X132468168Y-73221520D01*
X132328480Y-73081832D01*
X132323972Y-73078675D01*
X132323969Y-73078673D01*
X132228136Y-73011570D01*
X132166657Y-72968522D01*
X132161675Y-72966199D01*
X132161670Y-72966196D01*
X131992598Y-72887357D01*
X131992597Y-72887357D01*
X131987616Y-72885034D01*
X131982308Y-72883612D01*
X131982306Y-72883611D01*
X131802113Y-72835329D01*
X131802112Y-72835329D01*
X131796798Y-72833905D01*
X131791322Y-72833426D01*
X131791317Y-72833425D01*
X131709140Y-72826236D01*
X131673658Y-72823132D01*
X131668580Y-72822365D01*
X131666062Y-72821481D01*
X131660509Y-72821000D01*
X131654794Y-72821000D01*
X131643833Y-72820522D01*
X131605797Y-72817194D01*
X131600000Y-72816276D01*
X131588023Y-72818173D01*
X131579967Y-72819449D01*
X131560256Y-72821000D01*
X130865144Y-72821000D01*
X130797023Y-72800998D01*
X130750530Y-72747342D01*
X130740426Y-72677068D01*
X130769920Y-72612488D01*
X130783144Y-72599334D01*
X130790714Y-72592846D01*
X131870557Y-71667266D01*
X131898374Y-71634055D01*
X131924390Y-71602994D01*
X131924391Y-71602993D01*
X131931077Y-71595010D01*
X131955797Y-71530775D01*
X131972655Y-71486971D01*
X131972656Y-71486968D01*
X131976394Y-71477254D01*
X131979600Y-71391815D01*
X131980735Y-71361574D01*
X131980735Y-71361571D01*
X131981125Y-71351168D01*
X131970201Y-71314873D01*
X131952543Y-71256208D01*
X131944759Y-71230348D01*
X131938040Y-71220980D01*
X131877292Y-71136287D01*
X131877290Y-71136285D01*
X131871219Y-71127821D01*
X131768432Y-71054642D01*
X131647484Y-71018704D01*
X131637081Y-71019131D01*
X131637080Y-71019131D01*
X131595140Y-71020854D01*
X131521416Y-71023881D01*
X131511711Y-71027655D01*
X131511708Y-71027656D01*
X131411210Y-71066741D01*
X131411208Y-71066742D01*
X131403821Y-71069615D01*
X131399292Y-71072863D01*
X130504546Y-71839788D01*
X129590129Y-72623574D01*
X129525390Y-72652720D01*
X129455172Y-72642239D01*
X129423842Y-72621565D01*
X127730133Y-71097227D01*
X127725754Y-71094433D01*
X127725751Y-71094431D01*
X127663384Y-71054642D01*
X127650674Y-71046533D01*
X127528056Y-71016785D01*
X127517686Y-71017740D01*
X127517684Y-71017740D01*
X127457704Y-71023265D01*
X127402413Y-71028358D01*
X127350440Y-71051675D01*
X127296794Y-71075742D01*
X127296792Y-71075744D01*
X127287293Y-71080005D01*
X127195109Y-71166156D01*
X127190214Y-71175347D01*
X127190213Y-71175349D01*
X127140697Y-71268330D01*
X127135801Y-71277524D01*
X127115764Y-71402097D01*
X127117530Y-71412361D01*
X127121033Y-71432718D01*
X127137160Y-71526445D01*
X127142155Y-71535583D01*
X127142156Y-71535585D01*
X127179005Y-71602994D01*
X127197681Y-71637158D01*
X127201486Y-71641230D01*
X127203516Y-71643057D01*
X127203517Y-71643058D01*
X128268280Y-72601345D01*
X128305533Y-72661783D01*
X128304197Y-72732767D01*
X128264696Y-72791760D01*
X128199572Y-72820033D01*
X128183990Y-72821000D01*
X127431935Y-72821000D01*
X127416170Y-72820010D01*
X127395167Y-72817361D01*
X127395165Y-72817361D01*
X127384832Y-72816058D01*
X127374631Y-72818173D01*
X127332826Y-72826840D01*
X127327934Y-72827754D01*
X127293863Y-72833425D01*
X127275538Y-72836475D01*
X127268790Y-72840116D01*
X127261285Y-72841672D01*
X127223871Y-72863809D01*
X127215581Y-72868714D01*
X127211271Y-72871151D01*
X127164496Y-72896390D01*
X127159292Y-72902020D01*
X127152695Y-72905923D01*
X127121859Y-72942043D01*
X127118191Y-72946339D01*
X127114915Y-72950027D01*
X127078849Y-72989043D01*
X127075751Y-72996051D01*
X127070771Y-73001884D01*
X127066939Y-73011568D01*
X127066938Y-73011570D01*
X127051219Y-73051297D01*
X127049297Y-73055887D01*
X127032043Y-73094914D01*
X127032042Y-73094918D01*
X127027831Y-73104443D01*
X127027170Y-73112078D01*
X127024348Y-73119209D01*
X127023860Y-73129616D01*
X127023859Y-73129619D01*
X127021858Y-73172258D01*
X127021527Y-73177223D01*
X127020402Y-73190213D01*
X127016943Y-73230147D01*
X127018791Y-73237588D01*
X127018432Y-73245245D01*
X127021339Y-73255243D01*
X127033262Y-73296253D01*
X127034555Y-73301053D01*
X127044849Y-73342491D01*
X127044850Y-73342494D01*
X127047361Y-73352601D01*
X127051518Y-73359040D01*
X127053659Y-73366402D01*
X127059648Y-73374919D01*
X127059650Y-73374924D01*
X127084212Y-73409857D01*
X127086990Y-73413978D01*
X127110153Y-73449850D01*
X127110155Y-73449853D01*
X127115803Y-73458599D01*
X127121824Y-73463346D01*
X127126233Y-73469616D01*
X127130473Y-73473235D01*
X127132692Y-73474820D01*
X127169509Y-73501118D01*
X127174279Y-73504698D01*
X127195268Y-73521244D01*
X127214890Y-73536713D01*
X127222192Y-73539277D01*
X127228391Y-73543176D01*
X129253642Y-74989784D01*
X129265929Y-74999784D01*
X129289043Y-75021151D01*
X129298568Y-75025362D01*
X129298571Y-75025364D01*
X129299589Y-75025814D01*
X129321877Y-75038524D01*
X130830373Y-76116021D01*
X131405333Y-76526707D01*
X131410000Y-76528992D01*
X131410005Y-76528995D01*
X131468984Y-76557872D01*
X131489984Y-76568154D01*
X131615168Y-76583941D01*
X131738715Y-76558328D01*
X131747674Y-76553027D01*
X131747677Y-76553026D01*
X131838344Y-76499379D01*
X131847305Y-76494077D01*
X131929229Y-76398116D01*
X131952308Y-76339788D01*
X131971820Y-76290477D01*
X131971821Y-76290474D01*
X131975652Y-76280791D01*
X131979233Y-76204500D01*
X131981080Y-76165161D01*
X131981080Y-76165158D01*
X131981568Y-76154755D01*
X131946341Y-76033598D01*
X131930380Y-76010898D01*
X131890702Y-75954470D01*
X131873766Y-75930384D01*
X131869527Y-75926765D01*
X131836926Y-75903478D01*
X130878393Y-75218812D01*
X129931763Y-74542648D01*
X129887958Y-74486779D01*
X129879000Y-74440119D01*
X129879000Y-73705000D01*
X129899002Y-73636879D01*
X129952658Y-73590386D01*
X130005000Y-73579000D01*
X130940444Y-73579000D01*
X131008565Y-73599002D01*
X131055058Y-73652658D01*
X131065162Y-73722932D01*
X131056853Y-73753218D01*
X131031289Y-73814935D01*
X131010874Y-73970000D01*
X131031289Y-74125065D01*
X131091142Y-74269563D01*
X131122974Y-74311047D01*
X131180400Y-74385886D01*
X131186354Y-74393646D01*
X131192900Y-74398669D01*
X131192904Y-74398673D01*
X131207014Y-74409500D01*
X131248881Y-74466838D01*
X131253103Y-74537709D01*
X131242577Y-74566664D01*
X131235057Y-74581423D01*
X131233506Y-74591213D01*
X131233506Y-74591214D01*
X131225646Y-74640841D01*
X131216276Y-74700000D01*
X131217827Y-74709792D01*
X131231188Y-74794147D01*
X131235057Y-74818577D01*
X131289561Y-74925547D01*
X131374453Y-75010439D01*
X131481423Y-75064943D01*
X131491213Y-75066494D01*
X131491214Y-75066494D01*
X131542602Y-75074633D01*
X131572454Y-75079361D01*
X131590208Y-75082173D01*
X131600000Y-75083724D01*
X131605797Y-75082806D01*
X131796798Y-75066095D01*
X131914086Y-75034668D01*
X131982306Y-75016389D01*
X131982308Y-75016388D01*
X131987616Y-75014966D01*
X131994719Y-75011654D01*
X132161670Y-74933804D01*
X132161675Y-74933801D01*
X132166657Y-74931478D01*
X132276147Y-74854812D01*
X132323969Y-74821327D01*
X132323972Y-74821325D01*
X132328480Y-74818168D01*
X132468168Y-74678480D01*
X132473834Y-74670389D01*
X132542312Y-74572591D01*
X132581478Y-74516657D01*
X132583801Y-74511675D01*
X132583804Y-74511670D01*
X132639936Y-74391294D01*
X132643305Y-74384068D01*
X132690222Y-74330783D01*
X132758499Y-74311322D01*
X132826459Y-74331864D01*
X132872525Y-74385886D01*
X132883500Y-74437318D01*
X132883500Y-75417809D01*
X134120000Y-75417809D01*
X134188121Y-75437811D01*
X134234614Y-75491467D01*
X134246000Y-75543809D01*
X134246000Y-96989151D01*
X134225998Y-97057272D01*
X134172342Y-97103765D01*
X134102068Y-97113869D01*
X134037488Y-97084375D01*
X133999104Y-97024649D01*
X133995914Y-97011030D01*
X133995213Y-97007053D01*
X133995212Y-97007048D01*
X133994450Y-97002728D01*
X133993095Y-96998557D01*
X133993093Y-96998550D01*
X133935551Y-96821457D01*
X133905833Y-96729994D01*
X133780121Y-96472247D01*
X133619762Y-96234504D01*
X133616314Y-96230674D01*
X133520801Y-96124597D01*
X133427875Y-96021392D01*
X133208197Y-95837060D01*
X132965002Y-95685095D01*
X132703025Y-95568455D01*
X132427364Y-95489411D01*
X132423014Y-95488800D01*
X132423011Y-95488799D01*
X132318658Y-95474133D01*
X132143385Y-95449500D01*
X131928396Y-95449500D01*
X131926210Y-95449653D01*
X131926206Y-95449653D01*
X131718314Y-95464190D01*
X131718309Y-95464191D01*
X131713929Y-95464497D01*
X131709635Y-95465410D01*
X131709633Y-95465410D01*
X131599597Y-95488799D01*
X131433425Y-95524120D01*
X131429294Y-95525624D01*
X131429289Y-95525625D01*
X131311616Y-95568455D01*
X131163950Y-95622201D01*
X131160063Y-95624268D01*
X130914639Y-95754761D01*
X130914633Y-95754765D01*
X130910747Y-95756831D01*
X130907187Y-95759418D01*
X130907183Y-95759420D01*
X130796429Y-95839888D01*
X130678746Y-95925390D01*
X130675582Y-95928446D01*
X130675579Y-95928448D01*
X130475626Y-96121540D01*
X130475622Y-96121545D01*
X130472461Y-96124597D01*
X130469754Y-96128062D01*
X130469752Y-96128064D01*
X130386592Y-96234504D01*
X130295907Y-96350575D01*
X130293704Y-96354391D01*
X130227765Y-96468602D01*
X130152523Y-96598925D01*
X130045097Y-96864813D01*
X129975721Y-97143065D01*
X129975262Y-97147435D01*
X129975261Y-97147439D01*
X129957760Y-97313946D01*
X129945745Y-97428264D01*
X129945898Y-97432652D01*
X129945898Y-97432658D01*
X129953634Y-97654164D01*
X129955753Y-97714859D01*
X130005550Y-97997272D01*
X130006905Y-98001443D01*
X130006907Y-98001450D01*
X130028726Y-98068601D01*
X130094167Y-98270006D01*
X130096095Y-98273959D01*
X130096097Y-98273964D01*
X130129448Y-98342343D01*
X130219879Y-98527753D01*
X130380238Y-98765496D01*
X130572125Y-98978608D01*
X130791803Y-99162940D01*
X131034998Y-99314905D01*
X131296975Y-99431545D01*
X131301203Y-99432757D01*
X131301202Y-99432757D01*
X131531805Y-99498881D01*
X131591774Y-99536885D01*
X131621676Y-99601277D01*
X131612019Y-99671614D01*
X131565867Y-99725563D01*
X131497075Y-99746000D01*
X107657578Y-99746000D01*
X107589457Y-99725998D01*
X107542964Y-99672342D01*
X107532316Y-99606387D01*
X107532631Y-99603491D01*
X107533000Y-99596672D01*
X107533000Y-98824115D01*
X107528525Y-98808876D01*
X107527135Y-98807671D01*
X107519452Y-98806000D01*
X104825987Y-98806000D01*
X104799300Y-98813836D01*
X104798692Y-98814326D01*
X104733100Y-98841497D01*
X104659241Y-98826805D01*
X104621141Y-98806000D01*
X104603000Y-98806000D01*
X104534879Y-98785998D01*
X104488386Y-98732342D01*
X104477000Y-98680000D01*
X104477000Y-98669325D01*
X104469470Y-98643680D01*
X104082812Y-98257022D01*
X104068868Y-98249408D01*
X104067035Y-98249539D01*
X104060420Y-98253790D01*
X103481237Y-98832973D01*
X103475041Y-98844319D01*
X103484923Y-98856809D01*
X103522259Y-98881756D01*
X103532371Y-98887247D01*
X103713081Y-98964885D01*
X103724014Y-98968437D01*
X103915844Y-99011845D01*
X103927253Y-99013347D01*
X104123783Y-99021068D01*
X104135265Y-99020466D01*
X104329913Y-98992244D01*
X104341094Y-98989559D01*
X104350497Y-98986367D01*
X104421432Y-98983409D01*
X104482706Y-99019272D01*
X104514863Y-99082568D01*
X104517001Y-99105679D01*
X104517001Y-99596669D01*
X104517371Y-99603491D01*
X104517686Y-99606395D01*
X104505157Y-99676277D01*
X104456835Y-99728292D01*
X104392423Y-99746000D01*
X92994572Y-99746000D01*
X92926451Y-99725998D01*
X92879958Y-99672342D01*
X92869854Y-99602068D01*
X92899348Y-99537488D01*
X92959074Y-99499104D01*
X92968375Y-99496753D01*
X93066575Y-99475880D01*
X93070706Y-99474376D01*
X93070711Y-99474375D01*
X93219135Y-99420353D01*
X93336050Y-99377799D01*
X93454337Y-99314905D01*
X93585361Y-99245239D01*
X93585367Y-99245235D01*
X93589253Y-99243169D01*
X93592813Y-99240582D01*
X93592817Y-99240580D01*
X93817691Y-99077199D01*
X93817694Y-99077197D01*
X93821254Y-99074610D01*
X93824421Y-99071552D01*
X94024374Y-98878460D01*
X94024378Y-98878455D01*
X94027539Y-98875403D01*
X94042067Y-98856809D01*
X94051825Y-98844319D01*
X94835041Y-98844319D01*
X94844923Y-98856809D01*
X94882259Y-98881756D01*
X94892371Y-98887247D01*
X95073081Y-98964885D01*
X95084014Y-98968437D01*
X95275844Y-99011845D01*
X95287253Y-99013347D01*
X95483783Y-99021068D01*
X95495265Y-99020466D01*
X95689905Y-98992245D01*
X95701101Y-98989557D01*
X95887343Y-98926336D01*
X95897840Y-98921662D01*
X96016401Y-98855266D01*
X96026264Y-98845189D01*
X96023309Y-98837519D01*
X95442812Y-98257022D01*
X95428868Y-98249408D01*
X95427035Y-98249539D01*
X95420420Y-98253790D01*
X94841237Y-98832973D01*
X94835041Y-98844319D01*
X94051825Y-98844319D01*
X94201381Y-98652896D01*
X94204093Y-98649425D01*
X94272236Y-98531398D01*
X94280777Y-98516604D01*
X94332159Y-98467610D01*
X94401872Y-98454173D01*
X94468137Y-98480839D01*
X94468439Y-98481078D01*
X94481740Y-98474050D01*
X95057978Y-97897812D01*
X95064356Y-97886132D01*
X95794408Y-97886132D01*
X95794539Y-97887965D01*
X95798790Y-97894580D01*
X96378603Y-98474393D01*
X96390983Y-98481153D01*
X96397563Y-98476227D01*
X96466662Y-98352840D01*
X96471336Y-98342343D01*
X96534557Y-98156101D01*
X96537245Y-98144905D01*
X96565762Y-97948224D01*
X96566392Y-97940843D01*
X96567757Y-97888704D01*
X96567514Y-97881305D01*
X96565647Y-97860980D01*
X102932914Y-97860980D01*
X102945777Y-98057233D01*
X102947577Y-98068601D01*
X102995991Y-98259228D01*
X102999829Y-98270066D01*
X103082173Y-98448685D01*
X103087922Y-98458642D01*
X103097850Y-98472690D01*
X103108439Y-98481078D01*
X103121740Y-98474050D01*
X103697978Y-97897812D01*
X103705592Y-97883868D01*
X103705461Y-97882035D01*
X103701210Y-97875420D01*
X103120031Y-97294241D01*
X103107651Y-97287481D01*
X103101685Y-97291947D01*
X103021452Y-97444445D01*
X103017047Y-97455079D01*
X102958724Y-97642910D01*
X102956332Y-97654164D01*
X102933215Y-97849479D01*
X102932914Y-97860980D01*
X96565647Y-97860980D01*
X96549330Y-97683397D01*
X96547233Y-97672083D01*
X96493846Y-97482789D01*
X96489724Y-97472050D01*
X96402736Y-97295656D01*
X96401577Y-97293765D01*
X96392732Y-97287126D01*
X96380312Y-97293898D01*
X95802022Y-97872188D01*
X95794408Y-97886132D01*
X95064356Y-97886132D01*
X95065592Y-97883868D01*
X95065461Y-97882035D01*
X95061210Y-97875420D01*
X94581996Y-97396206D01*
X94547970Y-97333894D01*
X94545168Y-97311509D01*
X94544401Y-97289539D01*
X94544400Y-97289533D01*
X94544247Y-97285141D01*
X94494450Y-97002728D01*
X94493095Y-96998557D01*
X94493093Y-96998550D01*
X94469336Y-96925436D01*
X94834547Y-96925436D01*
X94838033Y-96933823D01*
X95417188Y-97512978D01*
X95431132Y-97520592D01*
X95432965Y-97520461D01*
X95439580Y-97516210D01*
X96018407Y-96937383D01*
X96024931Y-96925436D01*
X103474547Y-96925436D01*
X103478033Y-96933823D01*
X104829398Y-98285188D01*
X104852860Y-98298000D01*
X107514884Y-98298000D01*
X107530123Y-98293525D01*
X107531328Y-98292135D01*
X107532999Y-98284452D01*
X107532999Y-97507331D01*
X107532629Y-97500510D01*
X107527105Y-97449648D01*
X107523479Y-97434396D01*
X107478324Y-97313946D01*
X107469786Y-97298351D01*
X107393285Y-97196276D01*
X107380724Y-97183715D01*
X107278649Y-97107214D01*
X107263054Y-97098676D01*
X107142606Y-97053522D01*
X107127351Y-97049895D01*
X107076486Y-97044369D01*
X107066275Y-97043816D01*
X107066344Y-97042539D01*
X107003200Y-97023998D01*
X106956707Y-96970342D01*
X106946603Y-96900068D01*
X106976097Y-96835488D01*
X106982226Y-96828905D01*
X106989674Y-96821457D01*
X107013159Y-96787918D01*
X107112422Y-96646155D01*
X107112423Y-96646153D01*
X107115579Y-96641646D01*
X107117902Y-96636664D01*
X107117905Y-96636659D01*
X107164896Y-96535884D01*
X107208347Y-96442703D01*
X107265161Y-96230674D01*
X107284292Y-96012000D01*
X107265161Y-95793326D01*
X107208347Y-95581297D01*
X107164896Y-95488116D01*
X107117905Y-95387341D01*
X107117902Y-95387336D01*
X107115579Y-95382354D01*
X106989674Y-95202543D01*
X106834457Y-95047326D01*
X106829949Y-95044169D01*
X106829946Y-95044167D01*
X106659155Y-94924578D01*
X106659153Y-94924577D01*
X106654646Y-94921421D01*
X106649664Y-94919098D01*
X106649659Y-94919095D01*
X106548884Y-94872104D01*
X106455703Y-94828653D01*
X106243674Y-94771839D01*
X106025000Y-94752708D01*
X105806326Y-94771839D01*
X105594297Y-94828653D01*
X105501116Y-94872104D01*
X105400341Y-94919095D01*
X105400336Y-94919098D01*
X105395354Y-94921421D01*
X105390847Y-94924577D01*
X105390845Y-94924578D01*
X105220054Y-95044167D01*
X105220051Y-95044169D01*
X105215543Y-95047326D01*
X105060326Y-95202543D01*
X104934421Y-95382354D01*
X104932098Y-95387336D01*
X104932095Y-95387341D01*
X104885104Y-95488116D01*
X104841653Y-95581297D01*
X104784839Y-95793326D01*
X104765708Y-96012000D01*
X104784839Y-96230674D01*
X104841653Y-96442703D01*
X104885104Y-96535884D01*
X104932095Y-96636659D01*
X104932098Y-96636664D01*
X104934421Y-96641646D01*
X104937577Y-96646153D01*
X104937578Y-96646155D01*
X105036842Y-96787918D01*
X105060326Y-96821457D01*
X105067775Y-96828906D01*
X105101801Y-96891218D01*
X105096736Y-96962033D01*
X105054189Y-97018869D01*
X104987669Y-97043680D01*
X104983526Y-97043828D01*
X104973510Y-97044371D01*
X104922651Y-97049895D01*
X104918939Y-97050777D01*
X104915959Y-97050621D01*
X104914793Y-97050748D01*
X104914773Y-97050559D01*
X104848039Y-97047074D01*
X104804265Y-97020719D01*
X104766922Y-96986199D01*
X104757797Y-96979198D01*
X104591458Y-96874246D01*
X104581211Y-96869025D01*
X104398531Y-96796143D01*
X104387504Y-96792876D01*
X104194605Y-96754506D01*
X104183159Y-96753303D01*
X103986507Y-96750730D01*
X103975027Y-96751633D01*
X103781199Y-96784938D01*
X103770079Y-96787918D01*
X103585557Y-96855992D01*
X103575179Y-96860942D01*
X103484146Y-96915101D01*
X103474547Y-96925436D01*
X96024931Y-96925436D01*
X96025167Y-96925003D01*
X96019137Y-96916948D01*
X95951459Y-96874246D01*
X95941211Y-96869025D01*
X95758531Y-96796143D01*
X95747504Y-96792876D01*
X95554605Y-96754506D01*
X95543159Y-96753303D01*
X95346507Y-96750730D01*
X95335027Y-96751633D01*
X95141199Y-96784938D01*
X95130079Y-96787918D01*
X94945557Y-96855992D01*
X94935179Y-96860942D01*
X94844146Y-96915101D01*
X94834547Y-96925436D01*
X94469336Y-96925436D01*
X94435551Y-96821457D01*
X94405833Y-96729994D01*
X94280121Y-96472247D01*
X94119762Y-96234504D01*
X94116314Y-96230674D01*
X94020801Y-96124597D01*
X93927875Y-96021392D01*
X93708197Y-95837060D01*
X93465002Y-95685095D01*
X93203025Y-95568455D01*
X92927364Y-95489411D01*
X92923014Y-95488800D01*
X92923011Y-95488799D01*
X92818658Y-95474133D01*
X92643385Y-95449500D01*
X92428396Y-95449500D01*
X92426210Y-95449653D01*
X92426206Y-95449653D01*
X92218314Y-95464190D01*
X92218309Y-95464191D01*
X92213929Y-95464497D01*
X92209635Y-95465410D01*
X92209633Y-95465410D01*
X92099597Y-95488799D01*
X91933425Y-95524120D01*
X91929294Y-95525624D01*
X91929289Y-95525625D01*
X91811616Y-95568455D01*
X91663950Y-95622201D01*
X91660063Y-95624268D01*
X91414639Y-95754761D01*
X91414633Y-95754765D01*
X91410747Y-95756831D01*
X91407187Y-95759418D01*
X91407183Y-95759420D01*
X91296429Y-95839888D01*
X91178746Y-95925390D01*
X91175582Y-95928446D01*
X91175579Y-95928448D01*
X90975626Y-96121540D01*
X90975622Y-96121545D01*
X90972461Y-96124597D01*
X90969754Y-96128062D01*
X90969752Y-96128064D01*
X90886592Y-96234504D01*
X90795907Y-96350575D01*
X90793704Y-96354391D01*
X90727765Y-96468602D01*
X90652523Y-96598925D01*
X90545097Y-96864813D01*
X90544032Y-96869086D01*
X90544031Y-96869088D01*
X90502257Y-97036635D01*
X90466369Y-97097893D01*
X90403060Y-97130025D01*
X90332429Y-97122828D01*
X90276902Y-97078587D01*
X90254000Y-97006153D01*
X90254000Y-94765161D01*
X94744393Y-94765161D01*
X94753687Y-94777175D01*
X94794088Y-94805464D01*
X94803584Y-94810947D01*
X94993113Y-94899326D01*
X95003405Y-94903072D01*
X95205401Y-94957196D01*
X95216196Y-94959099D01*
X95424525Y-94977326D01*
X95435475Y-94977326D01*
X95643804Y-94959099D01*
X95654599Y-94957196D01*
X95856595Y-94903072D01*
X95866887Y-94899326D01*
X96056416Y-94810947D01*
X96065912Y-94805464D01*
X96107148Y-94776590D01*
X96115523Y-94766112D01*
X96115023Y-94765161D01*
X103384393Y-94765161D01*
X103393687Y-94777175D01*
X103434088Y-94805464D01*
X103443584Y-94810947D01*
X103633113Y-94899326D01*
X103643405Y-94903072D01*
X103845401Y-94957196D01*
X103856196Y-94959099D01*
X104064525Y-94977326D01*
X104075475Y-94977326D01*
X104283804Y-94959099D01*
X104294599Y-94957196D01*
X104496595Y-94903072D01*
X104506887Y-94899326D01*
X104696416Y-94810947D01*
X104705912Y-94805464D01*
X104747148Y-94776590D01*
X104755523Y-94766112D01*
X104748457Y-94752668D01*
X104082811Y-94087021D01*
X104068868Y-94079408D01*
X104067034Y-94079539D01*
X104060420Y-94083790D01*
X103390820Y-94753391D01*
X103384393Y-94765161D01*
X96115023Y-94765161D01*
X96108457Y-94752668D01*
X95442811Y-94087021D01*
X95428868Y-94079408D01*
X95427034Y-94079539D01*
X95420420Y-94083790D01*
X94750820Y-94753391D01*
X94744393Y-94765161D01*
X90254000Y-94765161D01*
X90254000Y-93708766D01*
X90817000Y-93708766D01*
X90817337Y-93715282D01*
X90827075Y-93809132D01*
X90829968Y-93822528D01*
X90880488Y-93973953D01*
X90886653Y-93987115D01*
X90970426Y-94122492D01*
X90979460Y-94133890D01*
X91092129Y-94246363D01*
X91103540Y-94255375D01*
X91239063Y-94338912D01*
X91252241Y-94345056D01*
X91403766Y-94395315D01*
X91417132Y-94398181D01*
X91509770Y-94407672D01*
X91516185Y-94408000D01*
X91527885Y-94408000D01*
X91543124Y-94403525D01*
X91544329Y-94402135D01*
X91546000Y-94394452D01*
X91546000Y-94389885D01*
X92054000Y-94389885D01*
X92058475Y-94405124D01*
X92059865Y-94406329D01*
X92067548Y-94408000D01*
X92083766Y-94408000D01*
X92090282Y-94407663D01*
X92184132Y-94397925D01*
X92197528Y-94395032D01*
X92348953Y-94344512D01*
X92362115Y-94338347D01*
X92483591Y-94263176D01*
X92552043Y-94244339D01*
X92616008Y-94263061D01*
X92739059Y-94338910D01*
X92752241Y-94345056D01*
X92903766Y-94395315D01*
X92917132Y-94398181D01*
X93009770Y-94407672D01*
X93016185Y-94408000D01*
X93027885Y-94408000D01*
X93043124Y-94403525D01*
X93044329Y-94402135D01*
X93046000Y-94394452D01*
X93046000Y-93684615D01*
X93041525Y-93669376D01*
X93040135Y-93668171D01*
X93032452Y-93666500D01*
X92072115Y-93666500D01*
X92056876Y-93670975D01*
X92055671Y-93672365D01*
X92054000Y-93680048D01*
X92054000Y-94389885D01*
X91546000Y-94389885D01*
X91546000Y-93684615D01*
X91541525Y-93669376D01*
X91540135Y-93668171D01*
X91532452Y-93666500D01*
X90835115Y-93666500D01*
X90819876Y-93670975D01*
X90818671Y-93672365D01*
X90817000Y-93680048D01*
X90817000Y-93708766D01*
X90254000Y-93708766D01*
X90254000Y-84010964D01*
X91391148Y-84010964D01*
X91404424Y-84213522D01*
X91405845Y-84219118D01*
X91405846Y-84219123D01*
X91441931Y-84361204D01*
X91454392Y-84410269D01*
X91456809Y-84415512D01*
X91492186Y-84492251D01*
X91539377Y-84594616D01*
X91555579Y-84617542D01*
X91652151Y-84754188D01*
X91656533Y-84760389D01*
X91660675Y-84764424D01*
X91725970Y-84828031D01*
X91801938Y-84902035D01*
X91806742Y-84905245D01*
X91874400Y-84950453D01*
X91970720Y-85014812D01*
X91976023Y-85017090D01*
X91976026Y-85017092D01*
X92138626Y-85086950D01*
X92157228Y-85094942D01*
X92223112Y-85109850D01*
X92349579Y-85138467D01*
X92349584Y-85138468D01*
X92355216Y-85139742D01*
X92360987Y-85139969D01*
X92360989Y-85139969D01*
X92420756Y-85142317D01*
X92558053Y-85147712D01*
X92658499Y-85133148D01*
X92753231Y-85119413D01*
X92753236Y-85119412D01*
X92758945Y-85118584D01*
X92764409Y-85116729D01*
X92764414Y-85116728D01*
X92945693Y-85055192D01*
X92945698Y-85055190D01*
X92951165Y-85053334D01*
X92976827Y-85038963D01*
X93046889Y-84999726D01*
X93128276Y-84954147D01*
X93161700Y-84926349D01*
X93279913Y-84828031D01*
X93284345Y-84824345D01*
X93414147Y-84668276D01*
X93500842Y-84513471D01*
X93510510Y-84496208D01*
X93510511Y-84496206D01*
X93513334Y-84491165D01*
X93515190Y-84485698D01*
X93515192Y-84485693D01*
X93576728Y-84304414D01*
X93576729Y-84304409D01*
X93578584Y-84298945D01*
X93579412Y-84293236D01*
X93579413Y-84293231D01*
X93606484Y-84106519D01*
X93607712Y-84098053D01*
X93609232Y-84040000D01*
X93595516Y-83890732D01*
X93591187Y-83843613D01*
X93591186Y-83843610D01*
X93590658Y-83837859D01*
X93586890Y-83824500D01*
X93537125Y-83648046D01*
X93537124Y-83648044D01*
X93535557Y-83642487D01*
X93528135Y-83627435D01*
X93448331Y-83465609D01*
X93445776Y-83460428D01*
X93324320Y-83297779D01*
X93175258Y-83159987D01*
X93170375Y-83156906D01*
X93170371Y-83156903D01*
X93008464Y-83054748D01*
X93003581Y-83051667D01*
X92815039Y-82976446D01*
X92809379Y-82975320D01*
X92809375Y-82975319D01*
X92621613Y-82937971D01*
X92621610Y-82937971D01*
X92615946Y-82936844D01*
X92610171Y-82936768D01*
X92610167Y-82936768D01*
X92508793Y-82935441D01*
X92412971Y-82934187D01*
X92407274Y-82935166D01*
X92407273Y-82935166D01*
X92218607Y-82967585D01*
X92212910Y-82968564D01*
X92022463Y-83038824D01*
X91848010Y-83142612D01*
X91843670Y-83146418D01*
X91843666Y-83146421D01*
X91699733Y-83272648D01*
X91695392Y-83276455D01*
X91569720Y-83435869D01*
X91567031Y-83440980D01*
X91567029Y-83440983D01*
X91551896Y-83469746D01*
X91475203Y-83615515D01*
X91427847Y-83768026D01*
X91422165Y-83786327D01*
X91415007Y-83809378D01*
X91391148Y-84010964D01*
X90254000Y-84010964D01*
X90254000Y-81470964D01*
X91391148Y-81470964D01*
X91404424Y-81673522D01*
X91405845Y-81679118D01*
X91405846Y-81679123D01*
X91452898Y-81864388D01*
X91454392Y-81870269D01*
X91456809Y-81875512D01*
X91492178Y-81952233D01*
X91539377Y-82054616D01*
X91553070Y-82073991D01*
X91624282Y-82174754D01*
X91656533Y-82220389D01*
X91801938Y-82362035D01*
X91970720Y-82474812D01*
X91976023Y-82477090D01*
X91976026Y-82477092D01*
X92063315Y-82514594D01*
X92157228Y-82554942D01*
X92230244Y-82571464D01*
X92349579Y-82598467D01*
X92349584Y-82598468D01*
X92355216Y-82599742D01*
X92360987Y-82599969D01*
X92360989Y-82599969D01*
X92420756Y-82602317D01*
X92558053Y-82607712D01*
X92658499Y-82593148D01*
X92753231Y-82579413D01*
X92753236Y-82579412D01*
X92758945Y-82578584D01*
X92764409Y-82576729D01*
X92764414Y-82576728D01*
X92945693Y-82515192D01*
X92945698Y-82515190D01*
X92951165Y-82513334D01*
X93128276Y-82414147D01*
X93190934Y-82362035D01*
X93279913Y-82288031D01*
X93284345Y-82284345D01*
X93374932Y-82175427D01*
X93410453Y-82132718D01*
X93410455Y-82132715D01*
X93414147Y-82128276D01*
X93513334Y-81951165D01*
X93515190Y-81945698D01*
X93515192Y-81945693D01*
X93576728Y-81764414D01*
X93576729Y-81764409D01*
X93578584Y-81758945D01*
X93579412Y-81753236D01*
X93579413Y-81753231D01*
X93600231Y-81609650D01*
X93607712Y-81558053D01*
X93609232Y-81500000D01*
X93596135Y-81357465D01*
X93591187Y-81303613D01*
X93591186Y-81303610D01*
X93590658Y-81297859D01*
X93586870Y-81284429D01*
X93537125Y-81108046D01*
X93537124Y-81108044D01*
X93535557Y-81102487D01*
X93530228Y-81091679D01*
X93448331Y-80925609D01*
X93445776Y-80920428D01*
X93324320Y-80757779D01*
X93175258Y-80619987D01*
X93170375Y-80616906D01*
X93170371Y-80616903D01*
X93008464Y-80514748D01*
X93003581Y-80511667D01*
X92815039Y-80436446D01*
X92809379Y-80435320D01*
X92809375Y-80435319D01*
X92621613Y-80397971D01*
X92621610Y-80397971D01*
X92615946Y-80396844D01*
X92610171Y-80396768D01*
X92610167Y-80396768D01*
X92508793Y-80395441D01*
X92412971Y-80394187D01*
X92407274Y-80395166D01*
X92407273Y-80395166D01*
X92238999Y-80424081D01*
X92212910Y-80428564D01*
X92022463Y-80498824D01*
X92017502Y-80501776D01*
X92017501Y-80501776D01*
X92006137Y-80508537D01*
X91848010Y-80602612D01*
X91843670Y-80606418D01*
X91843666Y-80606421D01*
X91760610Y-80679260D01*
X91695392Y-80736455D01*
X91691817Y-80740990D01*
X91691816Y-80740991D01*
X91681675Y-80753855D01*
X91569720Y-80895869D01*
X91567031Y-80900980D01*
X91567029Y-80900983D01*
X91536439Y-80959125D01*
X91475203Y-81075515D01*
X91415007Y-81269378D01*
X91391148Y-81470964D01*
X90254000Y-81470964D01*
X90254000Y-78930964D01*
X91391148Y-78930964D01*
X91396613Y-79014344D01*
X91402185Y-79099353D01*
X91404424Y-79133522D01*
X91405845Y-79139118D01*
X91405846Y-79139123D01*
X91444436Y-79291067D01*
X91454392Y-79330269D01*
X91456809Y-79335512D01*
X91494010Y-79416208D01*
X91539377Y-79514616D01*
X91542710Y-79519332D01*
X91650565Y-79671944D01*
X91656533Y-79680389D01*
X91801938Y-79822035D01*
X91806742Y-79825245D01*
X91861527Y-79861851D01*
X91970720Y-79934812D01*
X91976023Y-79937090D01*
X91976026Y-79937092D01*
X92149538Y-80011638D01*
X92157228Y-80014942D01*
X92230244Y-80031464D01*
X92349579Y-80058467D01*
X92349584Y-80058468D01*
X92355216Y-80059742D01*
X92360987Y-80059969D01*
X92360989Y-80059969D01*
X92420756Y-80062317D01*
X92558053Y-80067712D01*
X92660803Y-80052814D01*
X92753231Y-80039413D01*
X92753236Y-80039412D01*
X92758945Y-80038584D01*
X92764409Y-80036729D01*
X92764414Y-80036728D01*
X92945693Y-79975192D01*
X92945698Y-79975190D01*
X92951165Y-79973334D01*
X92969072Y-79963306D01*
X93096470Y-79891959D01*
X93128276Y-79874147D01*
X93143061Y-79861851D01*
X93279913Y-79748031D01*
X93284345Y-79744345D01*
X93367848Y-79643944D01*
X93410453Y-79592718D01*
X93410455Y-79592715D01*
X93414147Y-79588276D01*
X93473845Y-79481677D01*
X93510510Y-79416208D01*
X93510511Y-79416206D01*
X93513334Y-79411165D01*
X93515190Y-79405698D01*
X93515192Y-79405693D01*
X93576728Y-79224414D01*
X93576729Y-79224409D01*
X93578584Y-79218945D01*
X93579412Y-79213236D01*
X93579413Y-79213231D01*
X93598117Y-79084231D01*
X93607712Y-79018053D01*
X93609232Y-78960000D01*
X93592188Y-78774509D01*
X93591187Y-78763613D01*
X93591186Y-78763610D01*
X93590658Y-78757859D01*
X93589090Y-78752299D01*
X93537125Y-78568046D01*
X93537124Y-78568044D01*
X93535557Y-78562487D01*
X93530893Y-78553028D01*
X93448331Y-78385609D01*
X93445776Y-78380428D01*
X93441568Y-78374792D01*
X93331480Y-78227368D01*
X93324320Y-78217779D01*
X93175258Y-78079987D01*
X93170375Y-78076906D01*
X93170371Y-78076903D01*
X93008464Y-77974748D01*
X93003581Y-77971667D01*
X92931614Y-77942955D01*
X92875755Y-77899134D01*
X92852455Y-77832069D01*
X92869111Y-77763054D01*
X92920436Y-77714000D01*
X92942098Y-77705239D01*
X92992252Y-77690192D01*
X93001842Y-77686433D01*
X93193098Y-77592738D01*
X93201944Y-77587465D01*
X93249247Y-77553723D01*
X93257648Y-77543023D01*
X93250660Y-77529870D01*
X92512812Y-76792022D01*
X92498868Y-76784408D01*
X92497035Y-76784539D01*
X92490420Y-76788790D01*
X91746737Y-77532473D01*
X91739977Y-77544853D01*
X91745258Y-77551907D01*
X91906756Y-77646279D01*
X91916042Y-77650729D01*
X92065124Y-77707657D01*
X92121627Y-77750644D01*
X92145920Y-77817355D01*
X92130290Y-77886610D01*
X92079699Y-77936421D01*
X92063785Y-77943579D01*
X92022463Y-77958824D01*
X91848010Y-78062612D01*
X91843670Y-78066418D01*
X91843666Y-78066421D01*
X91718069Y-78176568D01*
X91695392Y-78196455D01*
X91691817Y-78200990D01*
X91691816Y-78200991D01*
X91665151Y-78234816D01*
X91569720Y-78355869D01*
X91567031Y-78360980D01*
X91567029Y-78360983D01*
X91542122Y-78408323D01*
X91475203Y-78535515D01*
X91415007Y-78729378D01*
X91391148Y-78930964D01*
X90254000Y-78930964D01*
X90254000Y-76391863D01*
X91138050Y-76391863D01*
X91150309Y-76604477D01*
X91151745Y-76614697D01*
X91198565Y-76822446D01*
X91201645Y-76832275D01*
X91281770Y-77029603D01*
X91286413Y-77038794D01*
X91366460Y-77169420D01*
X91376916Y-77178880D01*
X91385694Y-77175096D01*
X92127978Y-76432812D01*
X92134356Y-76421132D01*
X92864408Y-76421132D01*
X92864539Y-76422965D01*
X92868790Y-76429580D01*
X93610474Y-77171264D01*
X93622484Y-77177823D01*
X93634223Y-77168855D01*
X93665004Y-77126019D01*
X93670315Y-77117180D01*
X93764670Y-76926267D01*
X93768469Y-76916672D01*
X93830376Y-76712915D01*
X93832555Y-76702834D01*
X93860590Y-76489887D01*
X93861109Y-76483212D01*
X93862572Y-76423364D01*
X93862378Y-76416646D01*
X93844781Y-76202604D01*
X93843096Y-76192424D01*
X93791214Y-75985875D01*
X93787894Y-75976124D01*
X93702972Y-75780814D01*
X93698105Y-75771739D01*
X93633063Y-75671197D01*
X93622377Y-75661995D01*
X93612812Y-75666398D01*
X92872022Y-76407188D01*
X92864408Y-76421132D01*
X92134356Y-76421132D01*
X92135592Y-76418868D01*
X92135461Y-76417035D01*
X92131210Y-76410420D01*
X91389849Y-75669059D01*
X91378313Y-75662759D01*
X91366031Y-75672382D01*
X91318089Y-75742662D01*
X91313004Y-75751613D01*
X91223338Y-75944783D01*
X91219775Y-75954470D01*
X91162864Y-76159681D01*
X91160933Y-76169800D01*
X91138302Y-76381574D01*
X91138050Y-76391863D01*
X90254000Y-76391863D01*
X90254000Y-66010849D01*
X90274002Y-65942728D01*
X90327658Y-65896235D01*
X90397932Y-65886131D01*
X90462512Y-65915625D01*
X90500896Y-65975351D01*
X90504086Y-65988970D01*
X90504787Y-65992947D01*
X90504788Y-65992952D01*
X90505550Y-65997272D01*
X90506905Y-66001443D01*
X90506907Y-66001450D01*
X90509961Y-66010849D01*
X90594167Y-66270006D01*
X90719879Y-66527753D01*
X90880238Y-66765496D01*
X91072125Y-66978608D01*
X91291803Y-67162940D01*
X91534998Y-67314905D01*
X91796975Y-67431545D01*
X92072636Y-67510589D01*
X92076986Y-67511200D01*
X92076989Y-67511201D01*
X92181342Y-67525867D01*
X92356615Y-67550500D01*
X92571604Y-67550500D01*
X92573790Y-67550347D01*
X92573794Y-67550347D01*
X92781686Y-67535810D01*
X92781691Y-67535809D01*
X92786071Y-67535503D01*
X92790365Y-67534590D01*
X92790367Y-67534590D01*
X92908984Y-67509377D01*
X93066575Y-67475880D01*
X93070706Y-67474376D01*
X93070711Y-67474375D01*
X93219135Y-67420353D01*
X93336050Y-67377799D01*
X93454337Y-67314905D01*
X93585361Y-67245239D01*
X93585367Y-67245235D01*
X93589253Y-67243169D01*
X93592813Y-67240582D01*
X93592817Y-67240580D01*
X93817691Y-67077199D01*
X93817694Y-67077197D01*
X93821254Y-67074610D01*
X93847618Y-67049151D01*
X94024374Y-66878460D01*
X94024378Y-66878455D01*
X94027539Y-66875403D01*
X94110853Y-66768767D01*
X94201381Y-66652896D01*
X94204093Y-66649425D01*
X94243478Y-66581208D01*
X94345276Y-66404888D01*
X94345278Y-66404883D01*
X94347477Y-66401075D01*
X94454903Y-66135187D01*
X94524279Y-65856935D01*
X94529819Y-65804233D01*
X94553796Y-65576105D01*
X94553796Y-65576102D01*
X94554255Y-65571736D01*
X94553472Y-65549301D01*
X94544401Y-65289538D01*
X94544400Y-65289532D01*
X94544247Y-65285141D01*
X94538683Y-65253582D01*
X94507826Y-65078587D01*
X94494450Y-65002728D01*
X94493095Y-64998557D01*
X94493093Y-64998550D01*
X94445053Y-64850699D01*
X94405833Y-64729994D01*
X94392302Y-64702250D01*
X94317703Y-64549301D01*
X94280121Y-64472247D01*
X94119762Y-64234504D01*
X93927875Y-64021392D01*
X93708197Y-63837060D01*
X93481655Y-63695501D01*
X93468726Y-63687422D01*
X93465002Y-63685095D01*
X93203025Y-63568455D01*
X92968195Y-63501119D01*
X92908226Y-63463115D01*
X92878324Y-63398723D01*
X92887981Y-63328386D01*
X92934133Y-63274437D01*
X93002925Y-63254000D01*
X100870000Y-63254000D01*
X100938121Y-63274002D01*
G37*
%TD.AperFunction*%
%TA.AperFunction,Conductor*%
G36*
X101187119Y-83764028D02*
G01*
X101187119Y-83763679D01*
X101713795Y-83763679D01*
X101781916Y-83783681D01*
X101802813Y-83800506D01*
X101819798Y-83817461D01*
X101851697Y-83849305D01*
X101857927Y-83853145D01*
X101857928Y-83853146D01*
X101995090Y-83937694D01*
X102002262Y-83942115D01*
X102082005Y-83968564D01*
X102163611Y-83995632D01*
X102163613Y-83995632D01*
X102170139Y-83997797D01*
X102176975Y-83998497D01*
X102176978Y-83998498D01*
X102220031Y-84002909D01*
X102274600Y-84008500D01*
X103325400Y-84008500D01*
X103328646Y-84008163D01*
X103328650Y-84008163D01*
X103424308Y-83998238D01*
X103424312Y-83998237D01*
X103431166Y-83997526D01*
X103437702Y-83995345D01*
X103437704Y-83995345D01*
X103468043Y-83985223D01*
X103538993Y-83982639D01*
X103600077Y-84018823D01*
X103627232Y-84064246D01*
X103631219Y-84075992D01*
X103667590Y-84149744D01*
X103733619Y-84283638D01*
X103737349Y-84291202D01*
X103739643Y-84294635D01*
X103826415Y-84424498D01*
X103847630Y-84492251D01*
X103828847Y-84560718D01*
X103776030Y-84608161D01*
X103721650Y-84620500D01*
X100939788Y-84620500D01*
X100920077Y-84618949D01*
X100900000Y-84615769D01*
X100891253Y-84617154D01*
X100889156Y-84617319D01*
X100888204Y-84617319D01*
X100886321Y-84617542D01*
X100848738Y-84620500D01*
X100695300Y-84632576D01*
X100690493Y-84633730D01*
X100690487Y-84633731D01*
X100606129Y-84653984D01*
X100495641Y-84680510D01*
X100491070Y-84682403D01*
X100491068Y-84682404D01*
X100310512Y-84757192D01*
X100310508Y-84757194D01*
X100305938Y-84759087D01*
X100130863Y-84866373D01*
X99974726Y-84999726D01*
X99933808Y-85047635D01*
X99874360Y-85086442D01*
X99803365Y-85086950D01*
X99743367Y-85048994D01*
X99723805Y-85019054D01*
X99713487Y-84996926D01*
X99713481Y-84996915D01*
X99711158Y-84991934D01*
X99620612Y-84862621D01*
X99604218Y-84839208D01*
X99604216Y-84839205D01*
X99601059Y-84834697D01*
X99465330Y-84698968D01*
X99421352Y-84668175D01*
X99375758Y-84609501D01*
X99371916Y-84599332D01*
X99341777Y-84519573D01*
X99318492Y-84485693D01*
X99256352Y-84395278D01*
X99256351Y-84395276D01*
X99252050Y-84389019D01*
X99238702Y-84377126D01*
X99170469Y-84316334D01*
X99133772Y-84283638D01*
X99126386Y-84279727D01*
X99041662Y-84234868D01*
X98993771Y-84209511D01*
X98840130Y-84170919D01*
X98832531Y-84170879D01*
X98832530Y-84170879D01*
X98766678Y-84170534D01*
X98681718Y-84170089D01*
X98674338Y-84171861D01*
X98674336Y-84171861D01*
X98535060Y-84205298D01*
X98535057Y-84205299D01*
X98527681Y-84207070D01*
X98386911Y-84279727D01*
X98267536Y-84383865D01*
X98176447Y-84513471D01*
X98158026Y-84560718D01*
X98124826Y-84645873D01*
X98118903Y-84661064D01*
X98117911Y-84668597D01*
X98117911Y-84668598D01*
X98101169Y-84795771D01*
X98098226Y-84818123D01*
X98104655Y-84876351D01*
X98113556Y-84956972D01*
X98115610Y-84975580D01*
X98124985Y-85001199D01*
X98129612Y-85072043D01*
X98095202Y-85134144D01*
X98032680Y-85167783D01*
X98006659Y-85170499D01*
X97605775Y-85170499D01*
X97586064Y-85168948D01*
X97565987Y-85165768D01*
X97556194Y-85167319D01*
X97554428Y-85167319D01*
X97550113Y-85167814D01*
X97376439Y-85180236D01*
X97352615Y-85181940D01*
X97315260Y-85190066D01*
X97147983Y-85226454D01*
X97147976Y-85226456D01*
X97143586Y-85227411D01*
X97139371Y-85228983D01*
X97139368Y-85228984D01*
X96998345Y-85281583D01*
X96943157Y-85302167D01*
X96755406Y-85404687D01*
X96584156Y-85532883D01*
X96432894Y-85684145D01*
X96304698Y-85855395D01*
X96276733Y-85906610D01*
X96266088Y-85926104D01*
X96215885Y-85976307D01*
X96146511Y-85991398D01*
X96079991Y-85966587D01*
X96037444Y-85909752D01*
X96029500Y-85865719D01*
X96029500Y-85377244D01*
X96022798Y-85315552D01*
X96017192Y-85300596D01*
X95999021Y-85252126D01*
X95972071Y-85180236D01*
X95966691Y-85173057D01*
X95966689Y-85173054D01*
X95890785Y-85071776D01*
X95885404Y-85064596D01*
X95842306Y-85032296D01*
X95776946Y-84983311D01*
X95776943Y-84983309D01*
X95769764Y-84977929D01*
X95643782Y-84930701D01*
X95641843Y-84929974D01*
X95641841Y-84929974D01*
X95634448Y-84927202D01*
X95626598Y-84926349D01*
X95626597Y-84926349D01*
X95576153Y-84920869D01*
X95576152Y-84920869D01*
X95572756Y-84920500D01*
X95530500Y-84920500D01*
X95462379Y-84900498D01*
X95415886Y-84846842D01*
X95404500Y-84794500D01*
X95404500Y-83952552D01*
X95424502Y-83884431D01*
X95478158Y-83837938D01*
X95548432Y-83827834D01*
X95601012Y-83850416D01*
X95601697Y-83849305D01*
X95745090Y-83937694D01*
X95752262Y-83942115D01*
X95832005Y-83968564D01*
X95913611Y-83995632D01*
X95913613Y-83995632D01*
X95920139Y-83997797D01*
X95926975Y-83998497D01*
X95926978Y-83998498D01*
X95970031Y-84002909D01*
X96024600Y-84008500D01*
X97075400Y-84008500D01*
X97078646Y-84008163D01*
X97078650Y-84008163D01*
X97174308Y-83998238D01*
X97174312Y-83998237D01*
X97181166Y-83997526D01*
X97187702Y-83995345D01*
X97187704Y-83995345D01*
X97326295Y-83949107D01*
X97348946Y-83941550D01*
X97499348Y-83848478D01*
X97509870Y-83837938D01*
X97547082Y-83800661D01*
X97609365Y-83766582D01*
X97636255Y-83763679D01*
X101087859Y-83763679D01*
X101105790Y-83764961D01*
X101116710Y-83766531D01*
X101177641Y-83763265D01*
X101187119Y-83764028D01*
G37*
%TD.AperFunction*%
%TA.AperFunction,Conductor*%
G36*
X99941677Y-80620502D02*
G01*
X99988170Y-80674158D01*
X99998274Y-80744432D01*
X99993149Y-80766167D01*
X99974456Y-80822525D01*
X99952195Y-80889641D01*
X99951495Y-80896478D01*
X99951494Y-80896480D01*
X99948943Y-80921381D01*
X99941500Y-80994023D01*
X99941501Y-81614492D01*
X99941501Y-82110321D01*
X99921499Y-82178442D01*
X99867843Y-82224935D01*
X99815501Y-82236321D01*
X99236500Y-82236321D01*
X99168379Y-82216319D01*
X99121886Y-82162663D01*
X99110500Y-82110321D01*
X99110499Y-80993594D01*
X99110499Y-80990628D01*
X99107522Y-80959125D01*
X99062699Y-80831488D01*
X99040444Y-80801357D01*
X99016062Y-80734682D01*
X99031598Y-80665406D01*
X99082122Y-80615527D01*
X99141796Y-80600500D01*
X99873556Y-80600500D01*
X99941677Y-80620502D01*
G37*
%TD.AperFunction*%
%TD*%
M02*
