%TF.GenerationSoftware,KiCad,Pcbnew,(6.0.2-0)*%
%TF.CreationDate,2022-02-21T17:48:18+00:00*%
%TF.ProjectId,EnvMon2,456e764d-6f6e-4322-9e6b-696361645f70,4*%
%TF.SameCoordinates,Original*%
%TF.FileFunction,Profile,NP*%
%FSLAX46Y46*%
G04 Gerber Fmt 4.6, Leading zero omitted, Abs format (unit mm)*
G04 Created by KiCad (PCBNEW (6.0.2-0)) date 2022-02-21 17:48:18*
%MOMM*%
%LPD*%
G01*
G04 APERTURE LIST*
%TA.AperFunction,Profile*%
%ADD10C,0.050000*%
%TD*%
G04 APERTURE END LIST*
D10*
X124000000Y-102000000D02*
G75*
G03*
X126000000Y-102000000I1000000J0D01*
G01*
X124000000Y-101500000D02*
G75*
G03*
X122000000Y-99500000I-2000000J0D01*
G01*
X117000000Y-96500000D02*
G75*
G03*
X115000000Y-98500000I0J-2000000D01*
G01*
X122000000Y-97500000D02*
G75*
G03*
X122000000Y-93500000I0J2000000D01*
G01*
X117000000Y-90500000D02*
G75*
G03*
X117000000Y-94500000I0J-2000000D01*
G01*
X122000000Y-91500000D02*
G75*
G03*
X122000000Y-87500000I0J2000000D01*
G01*
X122000000Y-85500000D02*
G75*
G03*
X124000000Y-83500000I0J2000000D01*
G01*
X117000000Y-84500000D02*
G75*
G03*
X117000000Y-88500000I0J-2000000D01*
G01*
X124000000Y-78500000D02*
G75*
G03*
X122000000Y-76500000I-2000000J0D01*
G01*
X117000000Y-76500000D02*
G75*
G03*
X115000000Y-78500000I0J-2000000D01*
G01*
X115000000Y-80500000D02*
G75*
G03*
X117000000Y-82500000I2000000J0D01*
G01*
X117000000Y-97500000D02*
G75*
G03*
X117000000Y-99500000I0J-1000000D01*
G01*
X122000000Y-96500000D02*
G75*
G03*
X122000000Y-94500000I0J1000000D01*
G01*
X117000000Y-91500000D02*
G75*
G03*
X117000000Y-93500000I0J-1000000D01*
G01*
X122000000Y-90500000D02*
G75*
G03*
X122000000Y-88500000I0J1000000D01*
G01*
X117000000Y-85500000D02*
G75*
G03*
X117000000Y-87500000I0J-1000000D01*
G01*
X122000000Y-84500000D02*
G75*
G03*
X122000000Y-82500000I0J1000000D01*
G01*
X124000000Y-101500000D02*
X124000000Y-102000000D01*
X117000000Y-99500000D02*
X122000000Y-99500000D01*
X122000000Y-96500000D02*
X117000000Y-96500000D01*
X122000000Y-97500000D02*
X117000000Y-97500000D01*
X142000000Y-95000000D02*
X142000000Y-76500000D01*
X115000000Y-98500000D02*
X115000000Y-113500000D01*
X117000000Y-94500000D02*
X122000000Y-94500000D01*
X122000000Y-91500000D02*
X117000000Y-91500000D01*
X117000000Y-88500000D02*
X122000000Y-88500000D01*
X122000000Y-90500000D02*
X117000000Y-90500000D01*
X142000000Y-76500000D02*
X126000000Y-76500000D01*
X149000000Y-113500000D02*
X149000000Y-95000000D01*
X122000000Y-76500000D02*
X117000000Y-76500000D01*
X124000000Y-78500000D02*
X124000000Y-83500000D01*
X126000000Y-76500000D02*
X126000000Y-102000000D01*
X122000000Y-85500000D02*
X117000000Y-85500000D01*
X115000000Y-113500000D02*
X149000000Y-113500000D01*
X122000000Y-84500000D02*
X117000000Y-84500000D01*
X117000000Y-82500000D02*
X122000000Y-82500000D01*
X115000000Y-80500000D02*
X115000000Y-78500000D01*
X149000000Y-95000000D02*
X142000000Y-95000000D01*
X117000000Y-87500000D02*
X122000000Y-87500000D01*
X117000000Y-93500000D02*
X122000000Y-93500000D01*
M02*
