M48
; DRILL file {KiCad (6.0.5-0)} date Saturday, 21 May 2022 at 15:01:23
; FORMAT={-:-/ absolute / inch / decimal}
; #@! TF.CreationDate,2022-05-21T15:01:23+01:00
; #@! TF.GenerationSoftware,Kicad,Pcbnew,(6.0.5-0)
; #@! TF.FileFunction,Plated,1,2,PTH
FMAT,2
INCH
; #@! TA.AperFunction,Plated,PTH,ViaDrill
T1C0.0157
; #@! TA.AperFunction,Plated,PTH,ComponentDrill
T2C0.0236
; #@! TA.AperFunction,Plated,PTH,ComponentDrill
T3C0.0335
; #@! TA.AperFunction,Plated,PTH,ComponentDrill
T4C0.0394
; #@! TA.AperFunction,Plated,PTH,ComponentDrill
T5C0.0433
; #@! TA.AperFunction,Plated,PTH,ComponentDrill
T6C0.0492
%
G90
G05
T1
X3.4646Y-3.5433
X3.5Y-3.5787
X3.6417Y-3.7205
X3.7992Y-3.5512
X3.7992Y-3.878
X4.6457Y-2.8425
X4.6535Y-3.0157
X4.7165Y-3.5748
X4.7244Y-3.4449
X4.7765Y-3.2455
X4.8425Y-3.1496
X4.877Y-3.1693
X4.8839Y-3.435
X4.9055Y-3.5748
X4.9114Y-3.189
X4.9606Y-2.8839
X4.9918Y-2.7594
X4.9921Y-2.8031
X5.0Y-2.9134
X5.0394Y-3.3228
X5.0984Y-3.4154
X5.3248Y-3.189
T2
X4.6992Y-3.7091
X4.9268Y-3.7091
T3
X4.2421Y-3.6772
X4.3406Y-3.6772
X4.439Y-3.6772
X5.2815Y-3.6772
X5.3799Y-3.6772
T4
X4.0354Y-2.9087
X4.0354Y-3.0087
X4.0354Y-3.1087
X4.0354Y-3.2087
X4.0354Y-3.3087
X4.0354Y-3.4087
X4.0354Y-3.5087
X4.6429Y-3.8539
X4.9831Y-3.8539
T5
X3.5138Y-2.5689
X3.5138Y-2.7461
X3.5138Y-2.8642
X3.5138Y-3.0413
X3.5157Y-3.1594
X3.5157Y-3.3366
X3.7697Y-2.5689
X3.7697Y-2.7461
X3.7697Y-2.8642
X3.7697Y-3.0413
X3.7717Y-3.1594
X3.7717Y-3.3366
T6
X4.6429Y-3.6898
X4.9831Y-3.6898
T0
M30
