%TF.GenerationSoftware,KiCad,Pcbnew,(6.0.2-0)*%
%TF.CreationDate,2022-02-21T17:48:17+00:00*%
%TF.ProjectId,EnvMon2,456e764d-6f6e-4322-9e6b-696361645f70,4*%
%TF.SameCoordinates,Original*%
%TF.FileFunction,Copper,L2,Bot*%
%TF.FilePolarity,Positive*%
%FSLAX46Y46*%
G04 Gerber Fmt 4.6, Leading zero omitted, Abs format (unit mm)*
G04 Created by KiCad (PCBNEW (6.0.2-0)) date 2022-02-21 17:48:17*
%MOMM*%
%LPD*%
G01*
G04 APERTURE LIST*
G04 Aperture macros list*
%AMRoundRect*
0 Rectangle with rounded corners*
0 $1 Rounding radius*
0 $2 $3 $4 $5 $6 $7 $8 $9 X,Y pos of 4 corners*
0 Add a 4 corners polygon primitive as box body*
4,1,4,$2,$3,$4,$5,$6,$7,$8,$9,$2,$3,0*
0 Add four circle primitives for the rounded corners*
1,1,$1+$1,$2,$3*
1,1,$1+$1,$4,$5*
1,1,$1+$1,$6,$7*
1,1,$1+$1,$8,$9*
0 Add four rect primitives between the rounded corners*
20,1,$1+$1,$2,$3,$4,$5,0*
20,1,$1+$1,$4,$5,$6,$7,0*
20,1,$1+$1,$6,$7,$8,$9,0*
20,1,$1+$1,$8,$9,$2,$3,0*%
G04 Aperture macros list end*
%ADD10C,0.100000*%
%TA.AperFunction,NonConductor*%
%ADD11C,0.100000*%
%TD*%
%TA.AperFunction,EtchedComponent*%
%ADD12C,0.250000*%
%TD*%
%TA.AperFunction,EtchedComponent*%
%ADD13C,0.080000*%
%TD*%
%TA.AperFunction,ComponentPad*%
%ADD14C,1.700000*%
%TD*%
%TA.AperFunction,ComponentPad*%
%ADD15C,5.000000*%
%TD*%
%TA.AperFunction,ComponentPad*%
%ADD16RoundRect,0.250000X-0.600000X-0.675000X0.600000X-0.675000X0.600000X0.675000X-0.600000X0.675000X0*%
%TD*%
%TA.AperFunction,ComponentPad*%
%ADD17O,1.700000X1.850000*%
%TD*%
%TA.AperFunction,ComponentPad*%
%ADD18R,1.500000X1.050000*%
%TD*%
%TA.AperFunction,ComponentPad*%
%ADD19O,1.500000X1.050000*%
%TD*%
%TA.AperFunction,ComponentPad*%
%ADD20C,1.250000*%
%TD*%
%TA.AperFunction,ComponentPad*%
%ADD21C,1.500000*%
%TD*%
%TA.AperFunction,ComponentPad*%
%ADD22C,0.600000*%
%TD*%
%TA.AperFunction,SMDPad,CuDef*%
%ADD23R,0.200000X0.600000*%
%TD*%
%TA.AperFunction,SMDPad,CuDef*%
%ADD24R,0.200000X0.400000*%
%TD*%
%TA.AperFunction,SMDPad,CuDef*%
%ADD25R,0.200000X0.200000*%
%TD*%
%TA.AperFunction,SMDPad,CuDef*%
%ADD26R,0.600000X0.200000*%
%TD*%
%TA.AperFunction,SMDPad,CuDef*%
%ADD27R,0.200000X1.200000*%
%TD*%
%TA.AperFunction,SMDPad,CuDef*%
%ADD28R,0.400000X0.200000*%
%TD*%
%TA.AperFunction,SMDPad,CuDef*%
%ADD29R,0.200000X0.800000*%
%TD*%
%TA.AperFunction,SMDPad,CuDef*%
%ADD30R,0.800000X0.200000*%
%TD*%
%TA.AperFunction,SMDPad,CuDef*%
%ADD31R,1.400000X0.200000*%
%TD*%
%TA.AperFunction,SMDPad,CuDef*%
%ADD32R,1.000000X0.200000*%
%TD*%
%TA.AperFunction,SMDPad,CuDef*%
%ADD33R,0.600000X0.600000*%
%TD*%
%TA.AperFunction,SMDPad,CuDef*%
%ADD34R,0.600000X0.400000*%
%TD*%
%TA.AperFunction,SMDPad,CuDef*%
%ADD35R,0.400000X0.400000*%
%TD*%
%TA.AperFunction,ViaPad*%
%ADD36C,0.800000*%
%TD*%
%TA.AperFunction,Conductor*%
%ADD37C,0.250000*%
%TD*%
%TA.AperFunction,Conductor*%
%ADD38C,0.200000*%
%TD*%
G04 APERTURE END LIST*
D10*
%TO.C,U6*%
D11*
X138678571Y-106673809D02*
X138654761Y-106650000D01*
X138607142Y-106626190D01*
X138488095Y-106626190D01*
X138440476Y-106650000D01*
X138416666Y-106673809D01*
X138392857Y-106721428D01*
X138392857Y-106769047D01*
X138416666Y-106840476D01*
X138702380Y-107126190D01*
X138392857Y-107126190D01*
X138083333Y-106626190D02*
X138035714Y-106626190D01*
X137988095Y-106650000D01*
X137964285Y-106673809D01*
X137940476Y-106721428D01*
X137916666Y-106816666D01*
X137916666Y-106935714D01*
X137940476Y-107030952D01*
X137964285Y-107078571D01*
X137988095Y-107102380D01*
X138035714Y-107126190D01*
X138083333Y-107126190D01*
X138130952Y-107102380D01*
X138154761Y-107078571D01*
X138178571Y-107030952D01*
X138202380Y-106935714D01*
X138202380Y-106816666D01*
X138178571Y-106721428D01*
X138154761Y-106673809D01*
X138130952Y-106650000D01*
X138083333Y-106626190D01*
X137726190Y-106673809D02*
X137702380Y-106650000D01*
X137654761Y-106626190D01*
X137535714Y-106626190D01*
X137488095Y-106650000D01*
X137464285Y-106673809D01*
X137440476Y-106721428D01*
X137440476Y-106769047D01*
X137464285Y-106840476D01*
X137750000Y-107126190D01*
X137440476Y-107126190D01*
X137250000Y-106673809D02*
X137226190Y-106650000D01*
X137178571Y-106626190D01*
X137059523Y-106626190D01*
X137011904Y-106650000D01*
X136988095Y-106673809D01*
X136964285Y-106721428D01*
X136964285Y-106769047D01*
X136988095Y-106840476D01*
X137273809Y-107126190D01*
X136964285Y-107126190D01*
X136750000Y-106935714D02*
X136369047Y-106935714D01*
X136035714Y-106626190D02*
X135988095Y-106626190D01*
X135940476Y-106650000D01*
X135916666Y-106673809D01*
X135892857Y-106721428D01*
X135869047Y-106816666D01*
X135869047Y-106935714D01*
X135892857Y-107030952D01*
X135916666Y-107078571D01*
X135940476Y-107102380D01*
X135988095Y-107126190D01*
X136035714Y-107126190D01*
X136083333Y-107102380D01*
X136107142Y-107078571D01*
X136130952Y-107030952D01*
X136154761Y-106935714D01*
X136154761Y-106816666D01*
X136130952Y-106721428D01*
X136107142Y-106673809D01*
X136083333Y-106650000D01*
X136035714Y-106626190D01*
X135678571Y-106673809D02*
X135654761Y-106650000D01*
X135607142Y-106626190D01*
X135488095Y-106626190D01*
X135440476Y-106650000D01*
X135416666Y-106673809D01*
X135392857Y-106721428D01*
X135392857Y-106769047D01*
X135416666Y-106840476D01*
X135702380Y-107126190D01*
X135392857Y-107126190D01*
X135178571Y-106935714D02*
X134797619Y-106935714D01*
X134583333Y-106673809D02*
X134559523Y-106650000D01*
X134511904Y-106626190D01*
X134392857Y-106626190D01*
X134345238Y-106650000D01*
X134321428Y-106673809D01*
X134297619Y-106721428D01*
X134297619Y-106769047D01*
X134321428Y-106840476D01*
X134607142Y-107126190D01*
X134297619Y-107126190D01*
X133821428Y-107126190D02*
X134107142Y-107126190D01*
X133964285Y-107126190D02*
X133964285Y-106626190D01*
X134011904Y-106697619D01*
X134059523Y-106745238D01*
X134107142Y-106769047D01*
D12*
%TO.C,Logo1*%
X143375000Y-112900000D02*
X145375000Y-111100000D01*
D13*
X147325000Y-110250000D02*
X147625000Y-110250000D01*
X147485000Y-110350000D02*
X147625000Y-110450000D01*
D12*
X145375000Y-111100000D02*
X147475000Y-112900000D01*
X145375000Y-111100000D02*
X145375000Y-109600000D01*
X143275000Y-111100000D02*
X147475000Y-111100000D01*
X143275000Y-111100000D02*
X147475000Y-108100000D01*
D13*
X147325000Y-110250000D02*
X147325000Y-110350000D01*
X147485000Y-110250000D02*
X147485000Y-110350000D01*
D12*
X147475000Y-111100000D02*
G75*
G03*
X147475000Y-109600000I0J750000D01*
G01*
D13*
X147325000Y-110350000D02*
G75*
G03*
X147485000Y-110350000I80000J0D01*
G01*
X147785000Y-110330000D02*
G75*
G03*
X147785000Y-110330000I-300000J0D01*
G01*
%TD*%
D14*
%TO.P,M1,1,Vcc*%
%TO.N,+3V3*%
X128250000Y-87380000D03*
%TO.P,M1,2,GND*%
%TO.N,GND*%
X128250000Y-89920000D03*
%TO.P,M1,3,DIN*%
%TO.N,OLED-MOSI*%
X128250000Y-92460000D03*
%TO.P,M1,4,CLK*%
%TO.N,OLED-SCLK*%
X128250000Y-95000000D03*
%TO.P,M1,5,CS*%
%TO.N,OLED-CS0*%
X128250000Y-97540000D03*
%TO.P,M1,6,DC*%
%TO.N,OLED-DC*%
X128250000Y-100080000D03*
%TO.P,M1,7,RST*%
%TO.N,OLED-RST*%
X128250000Y-102620000D03*
D15*
%TO.P,M1,*%
%TO.N,*%
X167750000Y-111000000D03*
%TO.P,M1,S,SCREWS*%
%TO.N,GND*%
X128250000Y-79000000D03*
%TO.P,M1,*%
%TO.N,*%
X167750000Y-79000000D03*
%TO.P,M1,S,SCREWS*%
%TO.N,GND*%
X128250000Y-111000000D03*
%TD*%
D16*
%TO.P,J2,1,Pin_1*%
%TO.N,GND*%
X143500000Y-107150000D03*
D17*
%TO.P,J2,2,Pin_2*%
%TO.N,DC*%
X146000000Y-107150000D03*
%TD*%
D18*
%TO.P,U4,1,GND*%
%TO.N,GND*%
X118000000Y-80750000D03*
D19*
%TO.P,U4,2,DQ*%
%TO.N,TEMP*%
X118000000Y-79480000D03*
%TO.P,U4,3,VDD*%
%TO.N,+3V3*%
X118000000Y-78210000D03*
%TD*%
D20*
%TO.P,J1,S1,SHIELD*%
%TO.N,GND*%
X140570000Y-111640000D03*
D21*
X140570000Y-107470000D03*
X131930000Y-107470000D03*
D22*
X139140000Y-107960000D03*
X133360000Y-107960000D03*
D20*
X131930000Y-111640000D03*
%TD*%
D23*
%TO.P,U6,*%
%TO.N,*%
X135850000Y-110300000D03*
D24*
X137650000Y-112400000D03*
X135650000Y-110800000D03*
D23*
X135850000Y-109100000D03*
D25*
X136450000Y-109500000D03*
D26*
X137250000Y-111900000D03*
D25*
X137250000Y-110700000D03*
X135250000Y-110700000D03*
D27*
X138250000Y-109200000D03*
D25*
X136250000Y-109300000D03*
D28*
X137350000Y-111500000D03*
D25*
X137850000Y-111500000D03*
D27*
X137050000Y-109200000D03*
D24*
X136050000Y-110600000D03*
D25*
X136250000Y-108900000D03*
D24*
X138250000Y-110200000D03*
X136650000Y-109000000D03*
D25*
X135450000Y-110500000D03*
X136250000Y-111900000D03*
D29*
X137450000Y-110600000D03*
D25*
X137450000Y-112100000D03*
X135050000Y-110900000D03*
D26*
X137650000Y-110100000D03*
D25*
X136050000Y-109900000D03*
D23*
X134650000Y-110500000D03*
D25*
X138050000Y-111900000D03*
D30*
X136350000Y-108700000D03*
X134550000Y-110100000D03*
D28*
X136950000Y-110500000D03*
D25*
X136050000Y-112500000D03*
X135250000Y-110300000D03*
D31*
X134850000Y-111300000D03*
D28*
X136950000Y-112100000D03*
D25*
X135450000Y-110900000D03*
D23*
X134850000Y-110700000D03*
D31*
X137650000Y-108500000D03*
D25*
X136050000Y-111300000D03*
D27*
X134250000Y-112000000D03*
D32*
X137650000Y-109700000D03*
D25*
X134250000Y-110500000D03*
D28*
X137750000Y-110500000D03*
X135950000Y-111100000D03*
D25*
X136250000Y-110900000D03*
D26*
X136650000Y-110100000D03*
D25*
X137650000Y-110700000D03*
D31*
X134850000Y-108500000D03*
D25*
X136050000Y-111700000D03*
D27*
X135450000Y-112000000D03*
D33*
X134850000Y-109100000D03*
X134850000Y-111900000D03*
D25*
X135450000Y-110100000D03*
D27*
X135450000Y-109200000D03*
D25*
X136250000Y-111500000D03*
D24*
X136050000Y-109200000D03*
D25*
X135850000Y-109700000D03*
D24*
X137250000Y-112400000D03*
D29*
X135850000Y-112200000D03*
D25*
X137050000Y-112500000D03*
D28*
X136550000Y-110300000D03*
D23*
X136650000Y-111700000D03*
D27*
X134250000Y-109200000D03*
D32*
X134850000Y-109700000D03*
X134850000Y-112500000D03*
D23*
X136450000Y-111500000D03*
D28*
X137950000Y-112500000D03*
D33*
X137650000Y-109100000D03*
D25*
X136650000Y-109700000D03*
D29*
X136250000Y-110000000D03*
D26*
X136050000Y-108500000D03*
D23*
X138050000Y-111300000D03*
D29*
X137650000Y-111600000D03*
D25*
X136450000Y-109100000D03*
D24*
X138250000Y-111400000D03*
D34*
X136650000Y-110800000D03*
D25*
X136050000Y-112100000D03*
D24*
X137050000Y-111000000D03*
D35*
X136550000Y-112400000D03*
D25*
X136850000Y-111700000D03*
%TD*%
D36*
%TO.N,TEMP*%
X132500000Y-88000000D03*
X119000000Y-101000000D03*
%TO.N,GND*%
X116000000Y-102000000D03*
%TO.N,+3V3*%
X121800000Y-102700000D03*
X139000000Y-78250000D03*
X138000000Y-98500000D03*
X148000000Y-96250000D03*
%TO.N,GND*%
X144500000Y-103000000D03*
%TO.N,D+*%
X137750000Y-104250000D03*
X136000000Y-103500000D03*
%TO.N,D-*%
X136750000Y-104250000D03*
X135250000Y-104250000D03*
%TO.N,DC*%
X126693825Y-105698092D03*
X140250000Y-102250000D03*
%TO.N,Net-(R8-Pad2)*%
X136250000Y-96250000D03*
X132750000Y-101250000D03*
%TO.N,+3V3*%
X132250000Y-96000000D03*
X136250000Y-100000000D03*
%TD*%
D37*
%TO.N,+3V3*%
X121800000Y-102700000D02*
X123150489Y-104050489D01*
%TO.N,TEMP*%
X128500000Y-104500000D02*
G75*
G03*
X130500000Y-102500000I1J1999999D01*
G01*
X130500000Y-90000000D02*
G75*
G02*
X132500000Y-88000000I1999999J1D01*
G01*
%TO.N,+3V3*%
X126649511Y-104050489D02*
X127075489Y-103624511D01*
%TO.N,TEMP*%
X119000000Y-101000000D02*
G75*
G03*
X122500000Y-104500000I3499999J-1D01*
G01*
%TO.N,DC*%
X137326508Y-105698092D02*
X126693825Y-105698092D01*
%TO.N,+3V3*%
X127075489Y-103624511D02*
X127075489Y-88554511D01*
%TO.N,DC*%
X140250000Y-102774600D02*
X137326508Y-105698092D01*
%TO.N,TEMP*%
X130500000Y-90000000D02*
X130500000Y-92500000D01*
%TO.N,+3V3*%
X127075489Y-88554511D02*
X128250000Y-87380000D01*
%TO.N,TEMP*%
X130500000Y-92500000D02*
X130500000Y-102500000D01*
%TO.N,+3V3*%
X123150489Y-104050489D02*
X126649511Y-104050489D01*
%TO.N,DC*%
X140250000Y-102250000D02*
X140250000Y-102774600D01*
%TO.N,TEMP*%
X128500000Y-104500000D02*
X122500000Y-104500000D01*
%TO.N,+3V3*%
X139000000Y-78250000D02*
X129870000Y-87380000D01*
X129870000Y-87380000D02*
X128250000Y-87380000D01*
X138000000Y-98500000D02*
X145750000Y-98500000D01*
X145750000Y-98500000D02*
X148000000Y-96250000D01*
D38*
%TO.N,D+*%
X137750000Y-104250000D02*
X137750000Y-103500000D01*
X137750000Y-103500000D02*
X136000000Y-103500000D01*
%TO.N,D-*%
X135250000Y-104250000D02*
X136750000Y-104250000D01*
D37*
%TO.N,DC*%
X146000000Y-107150000D02*
X141100000Y-102250000D01*
X141100000Y-102250000D02*
X140250000Y-102250000D01*
%TO.N,Net-(R8-Pad2)*%
X136250000Y-96250000D02*
X137250000Y-97250000D01*
X137250000Y-97250000D02*
X137250000Y-100750000D01*
X137250000Y-100750000D02*
X136750000Y-101250000D01*
X136750000Y-101250000D02*
X132750000Y-101250000D01*
%TO.N,+3V3*%
X136250000Y-100000000D02*
X132250000Y-96000000D01*
%TD*%
%TA.AperFunction,Conductor*%
%TO.N,GND*%
G36*
X140982357Y-102594407D02*
G01*
X140994170Y-102604496D01*
X143937669Y-105547996D01*
X143965446Y-105602513D01*
X143955875Y-105662945D01*
X143912610Y-105706210D01*
X143867665Y-105717000D01*
X143769680Y-105717000D01*
X143756995Y-105721122D01*
X143754000Y-105725243D01*
X143754000Y-108567319D01*
X143758122Y-108580004D01*
X143762243Y-108582999D01*
X144147792Y-108582999D01*
X144152922Y-108582733D01*
X144250673Y-108572591D01*
X144261200Y-108570318D01*
X144418277Y-108517914D01*
X144428624Y-108513067D01*
X144569145Y-108426109D01*
X144578098Y-108419013D01*
X144694847Y-108302061D01*
X144701927Y-108293096D01*
X144788641Y-108152420D01*
X144793469Y-108142066D01*
X144845602Y-107984890D01*
X144847855Y-107974379D01*
X144857741Y-107877888D01*
X144858000Y-107872830D01*
X144858000Y-107711995D01*
X144876907Y-107653804D01*
X144926407Y-107617840D01*
X144987593Y-107617840D01*
X145037093Y-107653804D01*
X145044410Y-107665515D01*
X145120782Y-107809151D01*
X145250989Y-107968800D01*
X145254717Y-107971884D01*
X145254718Y-107971885D01*
X145381523Y-108076787D01*
X145409725Y-108100118D01*
X145590945Y-108198103D01*
X145627233Y-108209336D01*
X145783125Y-108257593D01*
X145783129Y-108257594D01*
X145787746Y-108259023D01*
X145792554Y-108259528D01*
X145792557Y-108259529D01*
X145987815Y-108280051D01*
X145987817Y-108280051D01*
X145992631Y-108280557D01*
X146052646Y-108275095D01*
X146192978Y-108262325D01*
X146192983Y-108262324D01*
X146197797Y-108261886D01*
X146395428Y-108203720D01*
X146406173Y-108198103D01*
X146484469Y-108157170D01*
X146530427Y-108133144D01*
X146590755Y-108122940D01*
X146645559Y-108150145D01*
X146673907Y-108204367D01*
X146664969Y-108264896D01*
X146633836Y-108301438D01*
X145232385Y-109302474D01*
X145224345Y-109307649D01*
X145218130Y-109311237D01*
X145209993Y-109314199D01*
X145203358Y-109319766D01*
X145203357Y-109319767D01*
X145178748Y-109340416D01*
X145172656Y-109345137D01*
X143102782Y-110823619D01*
X143094740Y-110828795D01*
X143070373Y-110842863D01*
X143070371Y-110842865D01*
X143062871Y-110847195D01*
X143057302Y-110853832D01*
X143036659Y-110878433D01*
X143031478Y-110884141D01*
X143002904Y-110913256D01*
X142999316Y-110921143D01*
X142996895Y-110924670D01*
X142994765Y-110928359D01*
X142989199Y-110934993D01*
X142986238Y-110943129D01*
X142975246Y-110973329D01*
X142972331Y-110980461D01*
X142955444Y-111017582D01*
X142954770Y-111026215D01*
X142953701Y-111030360D01*
X142952961Y-111034558D01*
X142950000Y-111042694D01*
X142950000Y-111083476D01*
X142949700Y-111091179D01*
X142946526Y-111131847D01*
X142948847Y-111140194D01*
X142949258Y-111144435D01*
X142950000Y-111148643D01*
X142950000Y-111157306D01*
X142952963Y-111165446D01*
X142963946Y-111195625D01*
X142966297Y-111202962D01*
X142974905Y-111233921D01*
X142974908Y-111233927D01*
X142977228Y-111242271D01*
X142982263Y-111249319D01*
X142984105Y-111253175D01*
X142986236Y-111256867D01*
X142989199Y-111265007D01*
X142994768Y-111271643D01*
X142994768Y-111271644D01*
X143015419Y-111296254D01*
X143020131Y-111302335D01*
X143043845Y-111335534D01*
X143050985Y-111340434D01*
X143054035Y-111343428D01*
X143057304Y-111346171D01*
X143062871Y-111352805D01*
X143070371Y-111357135D01*
X143070372Y-111357136D01*
X143098198Y-111373201D01*
X143104719Y-111377313D01*
X143138343Y-111400390D01*
X143146730Y-111402553D01*
X143150610Y-111404318D01*
X143154626Y-111405780D01*
X143162129Y-111410112D01*
X143170658Y-111411616D01*
X143170661Y-111411617D01*
X143196214Y-111416122D01*
X143202304Y-111417196D01*
X143209821Y-111418825D01*
X143249323Y-111429013D01*
X143285949Y-111425462D01*
X143295503Y-111425000D01*
X144270075Y-111425000D01*
X144328266Y-111443907D01*
X144364230Y-111493407D01*
X144364230Y-111554593D01*
X144336302Y-111597585D01*
X143883577Y-112005038D01*
X143145916Y-112668933D01*
X143136450Y-112677452D01*
X143083650Y-112745002D01*
X143048208Y-112853998D01*
X143052182Y-112968542D01*
X143095094Y-113074818D01*
X143100888Y-113081256D01*
X143100890Y-113081259D01*
X143149052Y-113134773D01*
X143173926Y-113190674D01*
X143161191Y-113250520D01*
X143115712Y-113291450D01*
X143075466Y-113300000D01*
X139299000Y-113300000D01*
X139240809Y-113281093D01*
X139204845Y-113231593D01*
X139200000Y-113201000D01*
X139200000Y-112601582D01*
X139973457Y-112601582D01*
X139973464Y-112601627D01*
X139978987Y-112607842D01*
X140023286Y-112637442D01*
X140031234Y-112641758D01*
X140214216Y-112720372D01*
X140222809Y-112723164D01*
X140417055Y-112767119D01*
X140426013Y-112768298D01*
X140625018Y-112776117D01*
X140634045Y-112775643D01*
X140831133Y-112747067D01*
X140839924Y-112744956D01*
X141028510Y-112680940D01*
X141036768Y-112677262D01*
X141158524Y-112609077D01*
X141166725Y-112600205D01*
X141161823Y-112591033D01*
X140581086Y-112010296D01*
X140569203Y-112004242D01*
X140564172Y-112005038D01*
X139979511Y-112589699D01*
X139973457Y-112601582D01*
X139200000Y-112601582D01*
X139200000Y-111614742D01*
X139432833Y-111614742D01*
X139445858Y-111813474D01*
X139447271Y-111822395D01*
X139496294Y-112015421D01*
X139499314Y-112023949D01*
X139582689Y-112204803D01*
X139587210Y-112212634D01*
X139599256Y-112229679D01*
X139609943Y-112237659D01*
X139610692Y-112237669D01*
X139616823Y-112233967D01*
X140199704Y-111651086D01*
X140204946Y-111640797D01*
X140934242Y-111640797D01*
X140935038Y-111645828D01*
X141520329Y-112231119D01*
X141531091Y-112236602D01*
X141538591Y-112229392D01*
X141607262Y-112106768D01*
X141610940Y-112098510D01*
X141674956Y-111909924D01*
X141677067Y-111901133D01*
X141705875Y-111702450D01*
X141706372Y-111696626D01*
X141707778Y-111642914D01*
X141707588Y-111637101D01*
X141689216Y-111437160D01*
X141687569Y-111428276D01*
X141633510Y-111236599D01*
X141630269Y-111228156D01*
X141542189Y-111049547D01*
X141540929Y-111047491D01*
X141531639Y-111040925D01*
X141530193Y-111040944D01*
X141525098Y-111044112D01*
X140940296Y-111628914D01*
X140934242Y-111640797D01*
X140204946Y-111640797D01*
X140205758Y-111639203D01*
X140204962Y-111634172D01*
X139618305Y-111047515D01*
X139607948Y-111042238D01*
X139600073Y-111050011D01*
X139520870Y-111200551D01*
X139517416Y-111208891D01*
X139458358Y-111399088D01*
X139456477Y-111407938D01*
X139433069Y-111605710D01*
X139432833Y-111614742D01*
X139200000Y-111614742D01*
X139200000Y-110680763D01*
X139973793Y-110680763D01*
X139978489Y-110689279D01*
X140558914Y-111269704D01*
X140570797Y-111275758D01*
X140575828Y-111274962D01*
X141160133Y-110690657D01*
X141166011Y-110679119D01*
X141159918Y-110672441D01*
X141090413Y-110628586D01*
X141082359Y-110624483D01*
X140897380Y-110550684D01*
X140888722Y-110548119D01*
X140693392Y-110509265D01*
X140684399Y-110508320D01*
X140485265Y-110505713D01*
X140476247Y-110506423D01*
X140279974Y-110540149D01*
X140271247Y-110542487D01*
X140084400Y-110611419D01*
X140076238Y-110615312D01*
X139982050Y-110671348D01*
X139973793Y-110680763D01*
X139200000Y-110680763D01*
X139200000Y-108521996D01*
X139883044Y-108521996D01*
X139883142Y-108522618D01*
X139887969Y-108528171D01*
X139935052Y-108561139D01*
X139942522Y-108565451D01*
X140134175Y-108654821D01*
X140142268Y-108657767D01*
X140346539Y-108712501D01*
X140355027Y-108713997D01*
X140565691Y-108732428D01*
X140574309Y-108732428D01*
X140784973Y-108713997D01*
X140793461Y-108712501D01*
X140997732Y-108657767D01*
X141005825Y-108654821D01*
X141197478Y-108565451D01*
X141204948Y-108561139D01*
X141249144Y-108530192D01*
X141257170Y-108519541D01*
X141257182Y-108518909D01*
X141253394Y-108512605D01*
X140581086Y-107840296D01*
X140569203Y-107834242D01*
X140564172Y-107835038D01*
X139889098Y-108510113D01*
X139883044Y-108521996D01*
X139200000Y-108521996D01*
X139200000Y-107955267D01*
X139218907Y-107897076D01*
X139268407Y-107861112D01*
X139329593Y-107861112D01*
X139379093Y-107897076D01*
X139388724Y-107913427D01*
X139474553Y-108097486D01*
X139478857Y-108104940D01*
X139509808Y-108149145D01*
X139520458Y-108157170D01*
X139521090Y-108157181D01*
X139527396Y-108153393D01*
X140199704Y-107481086D01*
X140204946Y-107470797D01*
X140934242Y-107470797D01*
X140935038Y-107475828D01*
X141610113Y-108150902D01*
X141621996Y-108156956D01*
X141622618Y-108156858D01*
X141628171Y-108152031D01*
X141661143Y-108104940D01*
X141665447Y-108097486D01*
X141754820Y-107905828D01*
X141757769Y-107897726D01*
X141764450Y-107872792D01*
X142142001Y-107872792D01*
X142142267Y-107877922D01*
X142152409Y-107975673D01*
X142154682Y-107986200D01*
X142207086Y-108143277D01*
X142211933Y-108153624D01*
X142298891Y-108294145D01*
X142305987Y-108303098D01*
X142422939Y-108419847D01*
X142431904Y-108426927D01*
X142572580Y-108513641D01*
X142582934Y-108518469D01*
X142740110Y-108570602D01*
X142750621Y-108572855D01*
X142847112Y-108582741D01*
X142852170Y-108583000D01*
X143230320Y-108583000D01*
X143243005Y-108578878D01*
X143246000Y-108574757D01*
X143246000Y-107419680D01*
X143241878Y-107406995D01*
X143237757Y-107404000D01*
X142157681Y-107404000D01*
X142144996Y-107408122D01*
X142142001Y-107412243D01*
X142142001Y-107872792D01*
X141764450Y-107872792D01*
X141812501Y-107693461D01*
X141813997Y-107684973D01*
X141832428Y-107474309D01*
X141832428Y-107465691D01*
X141813997Y-107255027D01*
X141812501Y-107246539D01*
X141757769Y-107042274D01*
X141754820Y-107034172D01*
X141683077Y-106880320D01*
X142142000Y-106880320D01*
X142146122Y-106893005D01*
X142150243Y-106896000D01*
X143230320Y-106896000D01*
X143243005Y-106891878D01*
X143246000Y-106887757D01*
X143246000Y-105732681D01*
X143241878Y-105719996D01*
X143237757Y-105717001D01*
X142852208Y-105717001D01*
X142847078Y-105717267D01*
X142749327Y-105727409D01*
X142738800Y-105729682D01*
X142581723Y-105782086D01*
X142571376Y-105786933D01*
X142430855Y-105873891D01*
X142421902Y-105880987D01*
X142305153Y-105997939D01*
X142298073Y-106006904D01*
X142211359Y-106147580D01*
X142206531Y-106157934D01*
X142154398Y-106315110D01*
X142152145Y-106325621D01*
X142142259Y-106422112D01*
X142142000Y-106427171D01*
X142142000Y-106880320D01*
X141683077Y-106880320D01*
X141665447Y-106842514D01*
X141661143Y-106835060D01*
X141630192Y-106790855D01*
X141619542Y-106782830D01*
X141618910Y-106782819D01*
X141612604Y-106786607D01*
X140940296Y-107458914D01*
X140934242Y-107470797D01*
X140204946Y-107470797D01*
X140205758Y-107469203D01*
X140204962Y-107464172D01*
X139529887Y-106789098D01*
X139518004Y-106783044D01*
X139517382Y-106783142D01*
X139511829Y-106787969D01*
X139478857Y-106835060D01*
X139474553Y-106842514D01*
X139388724Y-107026573D01*
X139346996Y-107071321D01*
X139286935Y-107082995D01*
X139231482Y-107057137D01*
X139201819Y-107003623D01*
X139200000Y-106984733D01*
X139200000Y-106421090D01*
X139882819Y-106421090D01*
X139886607Y-106427396D01*
X140558914Y-107099704D01*
X140570797Y-107105758D01*
X140575828Y-107104962D01*
X141250902Y-106429887D01*
X141256956Y-106418004D01*
X141256858Y-106417382D01*
X141252031Y-106411829D01*
X141204948Y-106378861D01*
X141197478Y-106374549D01*
X141005825Y-106285179D01*
X140997732Y-106282233D01*
X140793461Y-106227499D01*
X140784973Y-106226003D01*
X140574309Y-106207572D01*
X140565691Y-106207572D01*
X140355027Y-106226003D01*
X140346539Y-106227499D01*
X140142274Y-106282231D01*
X140134172Y-106285180D01*
X139942514Y-106374553D01*
X139935060Y-106378857D01*
X139890855Y-106409808D01*
X139882830Y-106420458D01*
X139882819Y-106421090D01*
X139200000Y-106421090D01*
X139200000Y-106150000D01*
X137564253Y-106150000D01*
X137506062Y-106131093D01*
X137470098Y-106081593D01*
X137470098Y-106020407D01*
X137506062Y-105970907D01*
X137514748Y-105965266D01*
X137538963Y-105951286D01*
X137563939Y-105921521D01*
X137569773Y-105915153D01*
X140467057Y-103017869D01*
X140473425Y-103012034D01*
X140503194Y-102987055D01*
X140522629Y-102953392D01*
X140527268Y-102946111D01*
X140528987Y-102943656D01*
X140549554Y-102914284D01*
X140551796Y-102905916D01*
X140554262Y-102900629D01*
X140556258Y-102895144D01*
X140560588Y-102887645D01*
X140567334Y-102849383D01*
X140569204Y-102840949D01*
X140577022Y-102811774D01*
X140579264Y-102803407D01*
X140578543Y-102795162D01*
X140602365Y-102739040D01*
X140616814Y-102725448D01*
X140673129Y-102682236D01*
X140678282Y-102678282D01*
X140727429Y-102614233D01*
X140777852Y-102579577D01*
X140805970Y-102575500D01*
X140924166Y-102575500D01*
X140982357Y-102594407D01*
G37*
%TD.AperFunction*%
%TA.AperFunction,Conductor*%
G36*
X121988227Y-76702518D02*
G01*
X121999642Y-76705143D01*
X122010517Y-76702682D01*
X122021664Y-76702702D01*
X122021664Y-76702863D01*
X122031669Y-76702076D01*
X122103759Y-76706801D01*
X122228475Y-76714975D01*
X122241302Y-76716663D01*
X122459516Y-76760068D01*
X122472016Y-76763418D01*
X122682691Y-76834933D01*
X122694653Y-76839889D01*
X122776954Y-76880475D01*
X122894180Y-76938284D01*
X122905386Y-76944753D01*
X123090385Y-77068365D01*
X123100639Y-77076233D01*
X123267914Y-77222930D01*
X123277069Y-77232085D01*
X123423767Y-77399361D01*
X123431635Y-77409615D01*
X123555247Y-77594614D01*
X123561716Y-77605820D01*
X123660111Y-77805346D01*
X123665067Y-77817308D01*
X123730287Y-78009438D01*
X123736581Y-78027980D01*
X123739932Y-78040484D01*
X123782887Y-78256432D01*
X123783336Y-78258691D01*
X123785025Y-78271523D01*
X123793889Y-78406762D01*
X123797891Y-78467816D01*
X123797101Y-78477628D01*
X123797375Y-78477628D01*
X123797355Y-78488778D01*
X123794857Y-78499642D01*
X123797317Y-78510514D01*
X123797317Y-78510516D01*
X123797559Y-78511583D01*
X123800000Y-78533432D01*
X123800000Y-83466040D01*
X123797482Y-83488227D01*
X123794857Y-83499642D01*
X123797318Y-83510517D01*
X123797298Y-83521664D01*
X123797137Y-83521664D01*
X123797924Y-83531669D01*
X123786017Y-83713351D01*
X123785026Y-83728469D01*
X123783337Y-83741302D01*
X123739933Y-83959511D01*
X123736582Y-83972016D01*
X123693691Y-84098367D01*
X123665067Y-84182691D01*
X123660111Y-84194654D01*
X123561716Y-84394180D01*
X123555247Y-84405386D01*
X123431635Y-84590385D01*
X123423767Y-84600639D01*
X123292010Y-84750878D01*
X123277070Y-84767914D01*
X123267915Y-84777069D01*
X123100639Y-84923767D01*
X123090385Y-84931635D01*
X122905386Y-85055247D01*
X122894180Y-85061716D01*
X122715697Y-85149734D01*
X122694654Y-85160111D01*
X122682692Y-85165067D01*
X122472016Y-85236582D01*
X122459516Y-85239932D01*
X122241302Y-85283337D01*
X122228477Y-85285025D01*
X122032181Y-85297891D01*
X122022372Y-85297101D01*
X122022372Y-85297375D01*
X122011222Y-85297355D01*
X122000358Y-85294857D01*
X121989486Y-85297317D01*
X121989484Y-85297317D01*
X121988417Y-85297559D01*
X121966568Y-85300000D01*
X117034222Y-85300000D01*
X117011870Y-85297443D01*
X117000716Y-85294858D01*
X117000000Y-85294857D01*
X116997385Y-85295454D01*
X116995972Y-85295163D01*
X116996025Y-85295764D01*
X116790826Y-85313716D01*
X116786651Y-85314835D01*
X116786649Y-85314835D01*
X116670999Y-85345824D01*
X116588008Y-85368061D01*
X116397708Y-85456800D01*
X116225708Y-85577235D01*
X116077235Y-85725708D01*
X116074756Y-85729249D01*
X115988255Y-85852786D01*
X115956800Y-85897708D01*
X115868061Y-86088008D01*
X115866943Y-86092181D01*
X115824417Y-86250891D01*
X115813716Y-86290826D01*
X115795416Y-86500000D01*
X115813716Y-86709174D01*
X115814835Y-86713349D01*
X115814835Y-86713351D01*
X115845824Y-86829001D01*
X115868061Y-86911992D01*
X115956800Y-87102292D01*
X115959281Y-87105835D01*
X115959282Y-87105837D01*
X115994348Y-87155917D01*
X116077235Y-87274292D01*
X116225708Y-87422765D01*
X116397708Y-87543200D01*
X116588008Y-87631939D01*
X116592692Y-87633194D01*
X116786649Y-87685165D01*
X116786651Y-87685165D01*
X116790826Y-87686284D01*
X116953011Y-87700473D01*
X116994983Y-87704145D01*
X116994954Y-87704480D01*
X116996130Y-87704411D01*
X116999284Y-87705142D01*
X117000000Y-87705143D01*
X117006419Y-87703679D01*
X117011679Y-87702479D01*
X117033696Y-87700000D01*
X121966040Y-87700000D01*
X121988227Y-87702518D01*
X121999642Y-87705143D01*
X122010517Y-87702682D01*
X122021663Y-87702702D01*
X122021662Y-87703015D01*
X122031612Y-87702261D01*
X122249112Y-87717816D01*
X122263088Y-87719827D01*
X122500200Y-87771408D01*
X122513747Y-87775385D01*
X122558098Y-87791927D01*
X122741113Y-87860188D01*
X122753962Y-87866056D01*
X122966938Y-87982351D01*
X122978820Y-87989987D01*
X123173077Y-88135405D01*
X123183753Y-88144655D01*
X123355345Y-88316247D01*
X123364595Y-88326923D01*
X123510013Y-88521180D01*
X123517649Y-88533062D01*
X123633944Y-88746038D01*
X123639812Y-88758887D01*
X123652033Y-88791652D01*
X123697946Y-88914749D01*
X123724614Y-88986250D01*
X123728592Y-88999800D01*
X123763632Y-89160871D01*
X123780173Y-89236909D01*
X123782184Y-89250888D01*
X123783742Y-89272672D01*
X123799495Y-89492938D01*
X123799495Y-89507061D01*
X123782320Y-89747214D01*
X123782184Y-89749109D01*
X123780173Y-89763088D01*
X123731292Y-89987790D01*
X123728593Y-90000197D01*
X123724614Y-90013750D01*
X123639812Y-90241113D01*
X123633944Y-90253962D01*
X123517649Y-90466938D01*
X123510013Y-90478820D01*
X123364595Y-90673077D01*
X123355345Y-90683753D01*
X123183753Y-90855345D01*
X123173077Y-90864595D01*
X122978820Y-91010013D01*
X122966938Y-91017649D01*
X122753962Y-91133944D01*
X122741113Y-91139812D01*
X122692746Y-91157852D01*
X122513747Y-91224615D01*
X122500200Y-91228592D01*
X122263088Y-91280173D01*
X122249112Y-91282184D01*
X122032127Y-91297702D01*
X122022372Y-91296946D01*
X122022371Y-91297374D01*
X122011221Y-91297355D01*
X122000358Y-91294857D01*
X121989486Y-91297317D01*
X121989485Y-91297317D01*
X121988417Y-91297559D01*
X121966568Y-91300000D01*
X117034222Y-91300000D01*
X117011870Y-91297443D01*
X117000716Y-91294858D01*
X117000000Y-91294857D01*
X116997385Y-91295454D01*
X116995972Y-91295163D01*
X116996025Y-91295764D01*
X116790826Y-91313716D01*
X116786651Y-91314835D01*
X116786649Y-91314835D01*
X116706321Y-91336359D01*
X116588008Y-91368061D01*
X116397708Y-91456800D01*
X116225708Y-91577235D01*
X116077235Y-91725708D01*
X116074756Y-91729249D01*
X115988255Y-91852786D01*
X115956800Y-91897708D01*
X115868061Y-92088008D01*
X115866943Y-92092181D01*
X115823324Y-92254970D01*
X115813716Y-92290826D01*
X115795416Y-92500000D01*
X115813716Y-92709174D01*
X115814835Y-92713349D01*
X115814835Y-92713351D01*
X115826308Y-92756167D01*
X115868061Y-92911992D01*
X115956800Y-93102292D01*
X115959281Y-93105835D01*
X115959282Y-93105837D01*
X115999103Y-93162708D01*
X116077235Y-93274292D01*
X116225708Y-93422765D01*
X116397708Y-93543200D01*
X116588008Y-93631939D01*
X116670999Y-93654176D01*
X116786649Y-93685165D01*
X116786651Y-93685165D01*
X116790826Y-93686284D01*
X116961504Y-93701216D01*
X116994983Y-93704145D01*
X116994954Y-93704480D01*
X116996130Y-93704411D01*
X116999284Y-93705142D01*
X117000000Y-93705143D01*
X117010701Y-93702702D01*
X117011679Y-93702479D01*
X117033696Y-93700000D01*
X121966040Y-93700000D01*
X121988227Y-93702518D01*
X121999642Y-93705143D01*
X122010517Y-93702682D01*
X122021663Y-93702702D01*
X122021662Y-93703015D01*
X122031612Y-93702261D01*
X122249112Y-93717816D01*
X122263088Y-93719827D01*
X122500200Y-93771408D01*
X122513747Y-93775385D01*
X122603110Y-93808716D01*
X122741113Y-93860188D01*
X122753962Y-93866056D01*
X122966938Y-93982351D01*
X122978820Y-93989987D01*
X123173077Y-94135405D01*
X123183753Y-94144655D01*
X123355345Y-94316247D01*
X123364595Y-94326923D01*
X123510013Y-94521180D01*
X123517649Y-94533062D01*
X123633944Y-94746038D01*
X123639812Y-94758887D01*
X123724614Y-94986250D01*
X123728592Y-94999800D01*
X123778466Y-95229060D01*
X123780173Y-95236909D01*
X123782184Y-95250888D01*
X123794947Y-95429344D01*
X123799495Y-95492938D01*
X123799495Y-95507061D01*
X123782320Y-95747214D01*
X123782184Y-95749109D01*
X123780173Y-95763088D01*
X123728636Y-96000000D01*
X123728593Y-96000197D01*
X123724615Y-96013747D01*
X123693053Y-96098367D01*
X123639812Y-96241113D01*
X123633944Y-96253962D01*
X123517649Y-96466938D01*
X123510013Y-96478820D01*
X123364595Y-96673077D01*
X123355345Y-96683753D01*
X123183753Y-96855345D01*
X123173077Y-96864595D01*
X122978820Y-97010013D01*
X122966938Y-97017649D01*
X122753962Y-97133944D01*
X122741113Y-97139812D01*
X122623576Y-97183651D01*
X122513747Y-97224615D01*
X122500200Y-97228592D01*
X122263088Y-97280173D01*
X122249112Y-97282184D01*
X122032127Y-97297702D01*
X122022372Y-97296946D01*
X122022371Y-97297374D01*
X122011221Y-97297355D01*
X122000358Y-97294857D01*
X121989486Y-97297317D01*
X121989485Y-97297317D01*
X121988417Y-97297559D01*
X121966568Y-97300000D01*
X117034222Y-97300000D01*
X117011870Y-97297443D01*
X117000716Y-97294858D01*
X117000000Y-97294857D01*
X116997385Y-97295454D01*
X116995972Y-97295163D01*
X116996025Y-97295764D01*
X116790826Y-97313716D01*
X116786651Y-97314835D01*
X116786649Y-97314835D01*
X116728777Y-97330342D01*
X116588008Y-97368061D01*
X116397708Y-97456800D01*
X116225708Y-97577235D01*
X116077235Y-97725708D01*
X116074756Y-97729249D01*
X115970815Y-97877693D01*
X115956800Y-97897708D01*
X115868061Y-98088008D01*
X115866943Y-98092181D01*
X115822327Y-98258691D01*
X115813716Y-98290826D01*
X115795416Y-98500000D01*
X115813716Y-98709174D01*
X115814835Y-98713349D01*
X115814835Y-98713351D01*
X115844987Y-98825877D01*
X115868061Y-98911992D01*
X115956800Y-99102292D01*
X115959281Y-99105835D01*
X115959282Y-99105837D01*
X115999103Y-99162708D01*
X116077235Y-99274292D01*
X116225708Y-99422765D01*
X116397708Y-99543200D01*
X116588008Y-99631939D01*
X116670999Y-99654176D01*
X116786649Y-99685165D01*
X116786651Y-99685165D01*
X116790826Y-99686284D01*
X116960601Y-99701137D01*
X116994983Y-99704145D01*
X116994954Y-99704480D01*
X116996130Y-99704411D01*
X116999284Y-99705142D01*
X117000000Y-99705143D01*
X117010701Y-99702702D01*
X117011679Y-99702479D01*
X117033696Y-99700000D01*
X121966040Y-99700000D01*
X121988227Y-99702518D01*
X121999642Y-99705143D01*
X122010517Y-99702682D01*
X122021664Y-99702702D01*
X122021664Y-99702863D01*
X122031669Y-99702076D01*
X122103759Y-99706801D01*
X122228475Y-99714975D01*
X122241302Y-99716663D01*
X122459516Y-99760068D01*
X122472016Y-99763418D01*
X122682691Y-99834933D01*
X122694653Y-99839889D01*
X122765791Y-99874970D01*
X122894180Y-99938284D01*
X122905386Y-99944753D01*
X123090385Y-100068365D01*
X123100639Y-100076233D01*
X123267914Y-100222930D01*
X123277069Y-100232085D01*
X123423767Y-100399361D01*
X123431635Y-100409615D01*
X123555247Y-100594614D01*
X123561716Y-100605820D01*
X123660111Y-100805346D01*
X123665067Y-100817308D01*
X123711181Y-100953154D01*
X123736581Y-101027980D01*
X123739932Y-101040484D01*
X123761781Y-101150326D01*
X123783336Y-101258691D01*
X123785025Y-101271523D01*
X123797891Y-101467816D01*
X123797101Y-101477628D01*
X123797375Y-101477628D01*
X123797355Y-101488778D01*
X123794857Y-101499642D01*
X123797317Y-101510514D01*
X123797317Y-101510516D01*
X123797559Y-101511583D01*
X123800000Y-101533432D01*
X123800000Y-101966040D01*
X123797482Y-101988227D01*
X123794857Y-101999642D01*
X123795717Y-102003444D01*
X123796654Y-102014157D01*
X123796654Y-102014158D01*
X123804136Y-102099674D01*
X123813716Y-102209174D01*
X123814835Y-102213349D01*
X123814835Y-102213351D01*
X123822931Y-102243566D01*
X123868061Y-102411992D01*
X123956800Y-102602292D01*
X124077235Y-102774292D01*
X124225708Y-102922765D01*
X124397708Y-103043200D01*
X124588008Y-103131939D01*
X124670999Y-103154176D01*
X124786649Y-103185165D01*
X124786651Y-103185165D01*
X124790826Y-103186284D01*
X125000000Y-103204584D01*
X125209174Y-103186284D01*
X125213349Y-103185165D01*
X125213351Y-103185165D01*
X125329001Y-103154176D01*
X125411992Y-103131939D01*
X125602292Y-103043200D01*
X125774292Y-102922765D01*
X125922765Y-102774292D01*
X126043200Y-102602292D01*
X126131939Y-102411992D01*
X126177069Y-102243566D01*
X126185165Y-102213351D01*
X126185165Y-102213349D01*
X126186284Y-102209174D01*
X126204145Y-102005017D01*
X126204480Y-102005046D01*
X126204411Y-102003870D01*
X126205142Y-102000716D01*
X126205143Y-102000000D01*
X126202479Y-101988321D01*
X126200000Y-101966304D01*
X126200000Y-81424151D01*
X126218907Y-81365960D01*
X126268407Y-81329996D01*
X126329593Y-81329996D01*
X126356771Y-81343755D01*
X126633182Y-81542377D01*
X126638000Y-81545434D01*
X126936117Y-81711363D01*
X126941234Y-81713837D01*
X127256461Y-81844409D01*
X127261836Y-81846280D01*
X127589974Y-81939753D01*
X127595517Y-81940992D01*
X127932235Y-81996132D01*
X127937893Y-81996726D01*
X128278697Y-82012798D01*
X128284402Y-82012739D01*
X128624794Y-81989533D01*
X128630452Y-81988818D01*
X128965915Y-81926644D01*
X128971458Y-81925282D01*
X129297548Y-81824963D01*
X129302894Y-81822976D01*
X129615313Y-81685834D01*
X129620380Y-81683252D01*
X129914964Y-81511110D01*
X129919696Y-81507966D01*
X130180777Y-81311941D01*
X130188446Y-81301030D01*
X130188422Y-81299512D01*
X130185309Y-81294520D01*
X127960794Y-79070004D01*
X127933017Y-79015487D01*
X127935344Y-79000797D01*
X128614242Y-79000797D01*
X128615038Y-79005828D01*
X130537994Y-80928783D01*
X130549877Y-80934837D01*
X130552748Y-80934383D01*
X130555503Y-80932187D01*
X130667135Y-80798676D01*
X130670535Y-80794099D01*
X130857855Y-80508929D01*
X130860697Y-80504008D01*
X131014009Y-80199183D01*
X131016263Y-80193973D01*
X131133515Y-79873565D01*
X131135163Y-79868108D01*
X131214813Y-79536343D01*
X131215821Y-79530743D01*
X131256887Y-79191385D01*
X131257221Y-79186987D01*
X131263028Y-79002214D01*
X131262971Y-78997793D01*
X131243293Y-78656529D01*
X131242639Y-78650875D01*
X131183980Y-78314767D01*
X131182678Y-78309218D01*
X131085777Y-77982086D01*
X131083846Y-77976723D01*
X130949983Y-77662888D01*
X130947459Y-77657802D01*
X130778407Y-77361421D01*
X130775311Y-77356654D01*
X130573319Y-77081676D01*
X130569696Y-77077296D01*
X130562172Y-77069199D01*
X130550517Y-77062713D01*
X130546258Y-77063228D01*
X130545344Y-77063867D01*
X128620296Y-78988914D01*
X128614242Y-79000797D01*
X127935344Y-79000797D01*
X127942588Y-78955055D01*
X127960794Y-78929996D01*
X130161794Y-76728996D01*
X130216311Y-76701219D01*
X130231798Y-76700000D01*
X141701000Y-76700000D01*
X141759191Y-76718907D01*
X141795155Y-76768407D01*
X141800000Y-76799000D01*
X141800000Y-94994123D01*
X141799955Y-95045449D01*
X141804781Y-95055498D01*
X141804781Y-95055500D01*
X141805185Y-95056341D01*
X141812463Y-95077183D01*
X141812670Y-95078093D01*
X141812672Y-95078096D01*
X141815150Y-95088962D01*
X141822097Y-95097680D01*
X141822520Y-95098211D01*
X141834334Y-95117046D01*
X141834625Y-95117653D01*
X141834628Y-95117657D01*
X141839453Y-95127705D01*
X141848893Y-95135254D01*
X141864484Y-95150872D01*
X141872015Y-95160323D01*
X141882058Y-95165167D01*
X141882663Y-95165459D01*
X141901478Y-95177308D01*
X141902005Y-95177730D01*
X141902010Y-95177732D01*
X141910715Y-95184694D01*
X141922405Y-95187382D01*
X141922492Y-95187402D01*
X141943318Y-95194715D01*
X141954202Y-95199965D01*
X141965347Y-95199975D01*
X141965348Y-95199975D01*
X141977213Y-95199985D01*
X141977211Y-95201730D01*
X141977277Y-95201724D01*
X141977277Y-95200000D01*
X141994123Y-95200000D01*
X142045160Y-95200045D01*
X142045449Y-95200045D01*
X142045537Y-95200003D01*
X142045561Y-95200000D01*
X148701000Y-95200000D01*
X148759191Y-95218907D01*
X148795155Y-95268407D01*
X148800000Y-95299000D01*
X148800000Y-96215544D01*
X148790177Y-96245777D01*
X148800000Y-96284456D01*
X148800000Y-113201000D01*
X148781093Y-113259191D01*
X148731593Y-113295155D01*
X148701000Y-113300000D01*
X147775441Y-113300000D01*
X147717250Y-113281093D01*
X147681286Y-113231593D01*
X147681286Y-113170407D01*
X147700274Y-113136572D01*
X147753414Y-113074575D01*
X147753415Y-113074574D01*
X147759052Y-113067997D01*
X147799381Y-112960714D01*
X147799653Y-112934837D01*
X147800492Y-112854768D01*
X147800583Y-112846108D01*
X147762516Y-112738001D01*
X147708097Y-112671747D01*
X146474924Y-111614742D01*
X146456752Y-111599166D01*
X146424875Y-111546941D01*
X146429783Y-111485953D01*
X146469602Y-111439497D01*
X146521180Y-111425000D01*
X147437903Y-111425000D01*
X147455093Y-111426504D01*
X147475000Y-111430014D01*
X147479889Y-111429152D01*
X147591305Y-111418828D01*
X147668826Y-111411645D01*
X147668829Y-111411644D01*
X147673377Y-111411223D01*
X147864998Y-111356702D01*
X147869095Y-111354662D01*
X147869100Y-111354660D01*
X148039243Y-111269939D01*
X148039247Y-111269937D01*
X148043339Y-111267899D01*
X148132522Y-111200551D01*
X148198680Y-111150591D01*
X148198683Y-111150589D01*
X148202325Y-111147838D01*
X148205428Y-111144435D01*
X148333460Y-111003989D01*
X148333460Y-111003988D01*
X148336543Y-111000607D01*
X148340528Y-110994172D01*
X148431532Y-110847195D01*
X148441423Y-110831221D01*
X148513392Y-110645448D01*
X148518947Y-110615734D01*
X148549158Y-110454120D01*
X148549158Y-110454115D01*
X148550000Y-110449613D01*
X148550000Y-110250387D01*
X148549158Y-110245885D01*
X148549158Y-110245880D01*
X148514234Y-110059056D01*
X148514234Y-110059055D01*
X148513392Y-110054552D01*
X148441423Y-109868779D01*
X148336543Y-109699393D01*
X148305594Y-109665443D01*
X148205403Y-109555538D01*
X148205401Y-109555536D01*
X148202325Y-109552162D01*
X148198683Y-109549411D01*
X148198680Y-109549409D01*
X148120901Y-109490673D01*
X148043339Y-109432101D01*
X148039247Y-109430063D01*
X148039243Y-109430061D01*
X147869100Y-109345340D01*
X147869095Y-109345338D01*
X147864998Y-109343298D01*
X147673377Y-109288777D01*
X147668829Y-109288356D01*
X147668826Y-109288355D01*
X147565079Y-109278742D01*
X147479889Y-109270848D01*
X147475000Y-109269986D01*
X147466470Y-109271490D01*
X147370658Y-109288384D01*
X147370657Y-109288384D01*
X147362129Y-109289888D01*
X147354628Y-109294218D01*
X147354627Y-109294219D01*
X147320021Y-109314199D01*
X147262871Y-109347195D01*
X147189199Y-109434993D01*
X147150000Y-109542694D01*
X147150000Y-109657306D01*
X147189199Y-109765007D01*
X147192027Y-109768377D01*
X147204251Y-109825879D01*
X147179367Y-109881776D01*
X147166061Y-109894075D01*
X147099867Y-109944867D01*
X147013311Y-110057670D01*
X146958899Y-110189032D01*
X146940340Y-110330000D01*
X146958899Y-110470968D01*
X147013311Y-110602330D01*
X147017262Y-110607479D01*
X147023596Y-110615734D01*
X147044019Y-110673411D01*
X147026640Y-110732076D01*
X146978098Y-110769322D01*
X146945053Y-110775000D01*
X145799000Y-110775000D01*
X145740809Y-110756093D01*
X145704845Y-110706593D01*
X145700000Y-110676000D01*
X145700000Y-109818199D01*
X145718907Y-109760008D01*
X145741457Y-109737639D01*
X147174555Y-108713997D01*
X147687042Y-108347935D01*
X147747096Y-108286744D01*
X147757036Y-108264896D01*
X147790968Y-108190306D01*
X147794556Y-108182419D01*
X147803474Y-108068153D01*
X147788123Y-108012941D01*
X147775092Y-107966073D01*
X147772772Y-107957729D01*
X147706155Y-107864466D01*
X147611657Y-107799610D01*
X147603272Y-107797447D01*
X147603271Y-107797447D01*
X147509064Y-107773150D01*
X147509062Y-107773150D01*
X147500676Y-107770987D01*
X147460367Y-107774895D01*
X147395217Y-107781211D01*
X147395215Y-107781212D01*
X147386598Y-107782047D01*
X147354366Y-107797447D01*
X147313137Y-107817145D01*
X147313131Y-107817148D01*
X147309237Y-107819009D01*
X147305721Y-107821520D01*
X147305720Y-107821521D01*
X147226806Y-107877888D01*
X146811210Y-108174743D01*
X146809895Y-108175682D01*
X146751553Y-108194119D01*
X146693517Y-108174743D01*
X146657954Y-108124954D01*
X146658447Y-108063771D01*
X146690318Y-108017968D01*
X146734774Y-107982225D01*
X146734783Y-107982216D01*
X146738553Y-107979185D01*
X146742586Y-107974379D01*
X146867859Y-107825085D01*
X146867860Y-107825083D01*
X146870976Y-107821370D01*
X146877694Y-107809151D01*
X146967889Y-107645085D01*
X146970224Y-107640838D01*
X146977520Y-107617840D01*
X147031052Y-107449083D01*
X147032516Y-107444468D01*
X147034136Y-107430030D01*
X147050191Y-107286892D01*
X147050191Y-107286890D01*
X147050500Y-107284136D01*
X147050500Y-107023159D01*
X147048585Y-107003623D01*
X147035952Y-106874780D01*
X147035951Y-106874776D01*
X147035480Y-106869970D01*
X147027191Y-106842514D01*
X146977333Y-106677380D01*
X146975935Y-106672749D01*
X146879218Y-106490849D01*
X146749011Y-106331200D01*
X146714835Y-106302927D01*
X146594002Y-106202965D01*
X146594000Y-106202964D01*
X146590275Y-106199882D01*
X146409055Y-106101897D01*
X146343463Y-106081593D01*
X146216875Y-106042407D01*
X146216871Y-106042406D01*
X146212254Y-106040977D01*
X146207446Y-106040472D01*
X146207443Y-106040471D01*
X146012185Y-106019949D01*
X146012183Y-106019949D01*
X146007369Y-106019443D01*
X145961778Y-106023592D01*
X145807022Y-106037675D01*
X145807017Y-106037676D01*
X145802203Y-106038114D01*
X145604572Y-106096280D01*
X145600288Y-106098519D01*
X145600287Y-106098520D01*
X145539018Y-106130551D01*
X145478689Y-106140755D01*
X145423147Y-106112821D01*
X141343269Y-102032943D01*
X141337434Y-102026575D01*
X141319369Y-102005046D01*
X141312455Y-101996806D01*
X141278792Y-101977371D01*
X141271511Y-101972732D01*
X141261954Y-101966040D01*
X141239684Y-101950446D01*
X141231316Y-101948204D01*
X141226029Y-101945738D01*
X141220544Y-101943742D01*
X141213045Y-101939412D01*
X141204519Y-101937909D01*
X141204517Y-101937908D01*
X141174784Y-101932666D01*
X141166349Y-101930796D01*
X141137174Y-101922978D01*
X141128807Y-101920736D01*
X141120178Y-101921491D01*
X141090095Y-101924123D01*
X141081466Y-101924500D01*
X140805970Y-101924500D01*
X140747779Y-101905593D01*
X140727428Y-101885767D01*
X140712119Y-101865815D01*
X140678282Y-101821718D01*
X140552841Y-101725464D01*
X140406762Y-101664956D01*
X140250000Y-101644318D01*
X140093238Y-101664956D01*
X139947159Y-101725464D01*
X139821718Y-101821718D01*
X139725464Y-101947159D01*
X139664956Y-102093238D01*
X139644318Y-102250000D01*
X139664956Y-102406762D01*
X139725464Y-102552841D01*
X139729415Y-102557990D01*
X139796771Y-102645770D01*
X139817195Y-102703445D01*
X139799818Y-102762111D01*
X139788233Y-102776041D01*
X138479643Y-104084631D01*
X138425126Y-104112408D01*
X138364694Y-104102837D01*
X138321429Y-104059572D01*
X138318175Y-104052513D01*
X138315026Y-104044911D01*
X138274536Y-103947159D01*
X138178282Y-103821718D01*
X138089232Y-103753387D01*
X138054577Y-103702963D01*
X138050500Y-103674846D01*
X138050500Y-103555727D01*
X138050973Y-103546065D01*
X138051704Y-103538609D01*
X138054246Y-103529832D01*
X138053281Y-103518681D01*
X138050869Y-103490840D01*
X138050500Y-103482298D01*
X138050500Y-103472052D01*
X138049663Y-103467557D01*
X138049035Y-103464183D01*
X138047731Y-103454605D01*
X138045376Y-103427410D01*
X138045375Y-103427408D01*
X138044587Y-103418304D01*
X138040573Y-103410091D01*
X138038999Y-103404417D01*
X138036883Y-103398932D01*
X138035209Y-103389947D01*
X138030415Y-103382170D01*
X138030414Y-103382167D01*
X138016087Y-103358925D01*
X138011425Y-103350463D01*
X137995425Y-103317731D01*
X137988726Y-103311517D01*
X137985222Y-103306798D01*
X137981266Y-103302435D01*
X137976468Y-103294652D01*
X137969192Y-103289119D01*
X137969191Y-103289118D01*
X137947472Y-103272602D01*
X137940070Y-103266380D01*
X137920060Y-103247818D01*
X137920054Y-103247814D01*
X137913354Y-103241599D01*
X137904860Y-103238210D01*
X137899889Y-103235068D01*
X137894638Y-103232427D01*
X137887359Y-103226892D01*
X137852350Y-103216754D01*
X137843231Y-103213624D01*
X137809378Y-103200117D01*
X137803085Y-103199500D01*
X137802129Y-103199500D01*
X137797748Y-103198771D01*
X137797707Y-103199188D01*
X137788609Y-103198296D01*
X137779832Y-103195754D01*
X137770731Y-103196542D01*
X137770729Y-103196542D01*
X137740840Y-103199131D01*
X137732298Y-103199500D01*
X136575154Y-103199500D01*
X136516963Y-103180593D01*
X136496612Y-103160768D01*
X136473088Y-103130111D01*
X136428282Y-103071718D01*
X136302841Y-102975464D01*
X136175615Y-102922765D01*
X136162759Y-102917440D01*
X136156762Y-102914956D01*
X136000000Y-102894318D01*
X135843238Y-102914956D01*
X135837241Y-102917440D01*
X135824385Y-102922765D01*
X135697159Y-102975464D01*
X135571718Y-103071718D01*
X135475464Y-103197159D01*
X135440090Y-103282560D01*
X135423218Y-103323293D01*
X135414956Y-103343238D01*
X135403875Y-103427410D01*
X135396649Y-103482298D01*
X135394318Y-103500000D01*
X135395165Y-103506434D01*
X135399358Y-103538283D01*
X135388208Y-103598444D01*
X135343825Y-103640561D01*
X135288283Y-103649358D01*
X135256434Y-103645165D01*
X135250000Y-103644318D01*
X135093238Y-103664956D01*
X134947159Y-103725464D01*
X134821718Y-103821718D01*
X134725464Y-103947159D01*
X134664956Y-104093238D01*
X134644318Y-104250000D01*
X134664956Y-104406762D01*
X134725464Y-104552841D01*
X134821718Y-104678282D01*
X134947159Y-104774536D01*
X135038148Y-104812225D01*
X135082319Y-104830521D01*
X135093238Y-104835044D01*
X135250000Y-104855682D01*
X135406762Y-104835044D01*
X135417682Y-104830521D01*
X135461852Y-104812225D01*
X135552841Y-104774536D01*
X135678282Y-104678282D01*
X135746613Y-104589232D01*
X135797037Y-104554577D01*
X135825154Y-104550500D01*
X136174846Y-104550500D01*
X136233037Y-104569407D01*
X136253387Y-104589231D01*
X136321718Y-104678282D01*
X136447159Y-104774536D01*
X136538148Y-104812225D01*
X136582319Y-104830521D01*
X136593238Y-104835044D01*
X136750000Y-104855682D01*
X136906762Y-104835044D01*
X136917682Y-104830521D01*
X136961852Y-104812225D01*
X137052841Y-104774536D01*
X137178282Y-104678282D01*
X137180852Y-104674933D01*
X137234513Y-104647592D01*
X137294945Y-104657163D01*
X137318826Y-104674513D01*
X137321718Y-104678282D01*
X137447159Y-104774536D01*
X137538148Y-104812225D01*
X137552513Y-104818175D01*
X137599038Y-104857912D01*
X137613322Y-104917406D01*
X137589907Y-104973934D01*
X137584631Y-104979643D01*
X137220678Y-105343596D01*
X137166161Y-105371373D01*
X137150674Y-105372592D01*
X127249795Y-105372592D01*
X127191604Y-105353685D01*
X127171253Y-105333859D01*
X127126061Y-105274963D01*
X127122107Y-105269810D01*
X126996666Y-105173556D01*
X126850587Y-105113048D01*
X126693825Y-105092410D01*
X126537063Y-105113048D01*
X126390984Y-105173556D01*
X126265543Y-105269810D01*
X126169289Y-105395251D01*
X126108781Y-105541330D01*
X126088143Y-105698092D01*
X126108781Y-105854854D01*
X126169289Y-106000933D01*
X126265543Y-106126374D01*
X126390984Y-106222628D01*
X126537063Y-106283136D01*
X126693825Y-106303774D01*
X126850587Y-106283136D01*
X126996666Y-106222628D01*
X127122107Y-106126374D01*
X127171254Y-106062325D01*
X127221677Y-106027669D01*
X127249795Y-106023592D01*
X131761124Y-106023592D01*
X131819315Y-106042499D01*
X131855279Y-106091999D01*
X131855279Y-106153185D01*
X131819315Y-106202685D01*
X131769752Y-106221215D01*
X131715027Y-106226003D01*
X131706539Y-106227499D01*
X131502274Y-106282231D01*
X131494172Y-106285180D01*
X131302514Y-106374553D01*
X131295060Y-106378857D01*
X131250855Y-106409808D01*
X131242830Y-106420458D01*
X131242819Y-106421090D01*
X131246607Y-106427396D01*
X131918914Y-107099704D01*
X131930797Y-107105758D01*
X131935828Y-107104962D01*
X132610902Y-106429887D01*
X132616956Y-106418004D01*
X132616858Y-106417382D01*
X132612031Y-106411829D01*
X132564948Y-106378861D01*
X132557478Y-106374549D01*
X132365825Y-106285179D01*
X132357732Y-106282233D01*
X132153461Y-106227499D01*
X132144973Y-106226003D01*
X132090248Y-106221215D01*
X132033926Y-106197308D01*
X132002413Y-106144862D01*
X132007746Y-106083910D01*
X132047887Y-106037732D01*
X132098876Y-106023592D01*
X133205341Y-106023592D01*
X133263532Y-106042499D01*
X133299496Y-106091999D01*
X133303122Y-106138079D01*
X133301234Y-106150000D01*
X133300000Y-106150000D01*
X133300000Y-106984733D01*
X133281093Y-107042924D01*
X133231593Y-107078888D01*
X133170407Y-107078888D01*
X133120907Y-107042924D01*
X133111276Y-107026573D01*
X133025447Y-106842514D01*
X133021143Y-106835060D01*
X132990192Y-106790855D01*
X132979542Y-106782830D01*
X132978910Y-106782819D01*
X132972604Y-106786607D01*
X132300296Y-107458914D01*
X132294242Y-107470797D01*
X132295038Y-107475828D01*
X132970113Y-108150902D01*
X132981996Y-108156956D01*
X132982618Y-108156858D01*
X132988171Y-108152031D01*
X133021143Y-108104940D01*
X133025447Y-108097486D01*
X133111276Y-107913427D01*
X133153004Y-107868679D01*
X133213065Y-107857005D01*
X133268518Y-107882863D01*
X133298181Y-107936377D01*
X133300000Y-107955267D01*
X133300000Y-113201000D01*
X133281093Y-113259191D01*
X133231593Y-113295155D01*
X133201000Y-113300000D01*
X130231797Y-113300000D01*
X130173606Y-113281093D01*
X130161793Y-113271004D01*
X128261086Y-111370296D01*
X128249203Y-111364242D01*
X128244172Y-111365038D01*
X126338207Y-113271004D01*
X126283690Y-113298781D01*
X126268203Y-113300000D01*
X115299000Y-113300000D01*
X115240809Y-113281093D01*
X115204845Y-113231593D01*
X115200000Y-113201000D01*
X115200000Y-110908205D01*
X125238464Y-110908205D01*
X125247394Y-111249270D01*
X125247872Y-111254965D01*
X125295943Y-111592725D01*
X125297074Y-111598333D01*
X125383651Y-111928342D01*
X125385406Y-111933744D01*
X125509349Y-112251644D01*
X125511715Y-112256812D01*
X125671368Y-112558343D01*
X125674324Y-112563223D01*
X125867562Y-112844385D01*
X125871068Y-112848906D01*
X125940345Y-112928319D01*
X125951791Y-112935170D01*
X125955239Y-112934862D01*
X125957361Y-112933428D01*
X127879704Y-111011086D01*
X127884946Y-111000797D01*
X128614242Y-111000797D01*
X128615038Y-111005828D01*
X130537994Y-112928783D01*
X130549877Y-112934837D01*
X130552748Y-112934383D01*
X130555503Y-112932187D01*
X130667135Y-112798676D01*
X130670535Y-112794099D01*
X130796994Y-112601582D01*
X131333457Y-112601582D01*
X131333464Y-112601627D01*
X131338987Y-112607842D01*
X131383286Y-112637442D01*
X131391234Y-112641758D01*
X131574216Y-112720372D01*
X131582809Y-112723164D01*
X131777055Y-112767119D01*
X131786013Y-112768298D01*
X131985018Y-112776117D01*
X131994045Y-112775643D01*
X132191133Y-112747067D01*
X132199924Y-112744956D01*
X132388510Y-112680940D01*
X132396768Y-112677262D01*
X132518524Y-112609077D01*
X132526725Y-112600205D01*
X132521823Y-112591033D01*
X131941086Y-112010296D01*
X131929203Y-112004242D01*
X131924172Y-112005038D01*
X131339511Y-112589699D01*
X131333457Y-112601582D01*
X130796994Y-112601582D01*
X130857855Y-112508929D01*
X130860697Y-112504008D01*
X130945491Y-112335415D01*
X130951865Y-112293764D01*
X130950771Y-112286973D01*
X130978588Y-112232202D01*
X131569993Y-111640797D01*
X132294242Y-111640797D01*
X132295038Y-111645828D01*
X132880329Y-112231119D01*
X132891091Y-112236602D01*
X132898591Y-112229392D01*
X132967262Y-112106768D01*
X132970940Y-112098510D01*
X133034956Y-111909924D01*
X133037067Y-111901133D01*
X133065875Y-111702450D01*
X133066372Y-111696626D01*
X133067778Y-111642914D01*
X133067588Y-111637101D01*
X133049216Y-111437160D01*
X133047569Y-111428276D01*
X132993510Y-111236599D01*
X132990269Y-111228156D01*
X132902189Y-111049547D01*
X132900929Y-111047491D01*
X132891639Y-111040925D01*
X132890193Y-111040944D01*
X132885098Y-111044112D01*
X132300296Y-111628914D01*
X132294242Y-111640797D01*
X131569993Y-111640797D01*
X132520133Y-110690657D01*
X132526011Y-110679119D01*
X132519918Y-110672441D01*
X132450413Y-110628586D01*
X132442359Y-110624483D01*
X132257380Y-110550684D01*
X132248722Y-110548119D01*
X132053392Y-110509265D01*
X132044399Y-110508320D01*
X131845265Y-110505713D01*
X131836247Y-110506423D01*
X131639974Y-110540149D01*
X131631247Y-110542487D01*
X131444400Y-110611419D01*
X131436237Y-110615312D01*
X131378675Y-110649558D01*
X131318998Y-110663062D01*
X131262781Y-110638909D01*
X131230531Y-110581498D01*
X131183980Y-110314767D01*
X131182678Y-110309218D01*
X131085777Y-109982086D01*
X131083846Y-109976723D01*
X130949983Y-109662888D01*
X130947459Y-109657802D01*
X130778407Y-109361421D01*
X130775311Y-109356654D01*
X130573319Y-109081676D01*
X130569696Y-109077296D01*
X130562172Y-109069199D01*
X130550517Y-109062713D01*
X130546258Y-109063228D01*
X130545344Y-109063867D01*
X128620296Y-110988914D01*
X128614242Y-111000797D01*
X127884946Y-111000797D01*
X127885758Y-110999203D01*
X127884962Y-110994172D01*
X125960648Y-109069859D01*
X125948765Y-109063805D01*
X125946715Y-109064129D01*
X125942902Y-109067267D01*
X125777552Y-109278145D01*
X125774305Y-109282818D01*
X125596038Y-109573723D01*
X125593343Y-109578749D01*
X125449697Y-109888208D01*
X125447594Y-109893520D01*
X125340465Y-110217450D01*
X125338994Y-110222940D01*
X125269805Y-110557042D01*
X125268972Y-110562681D01*
X125238642Y-110902517D01*
X125238464Y-110908205D01*
X115200000Y-110908205D01*
X115200000Y-108701596D01*
X126314376Y-108701596D01*
X126314487Y-108703945D01*
X126316912Y-108707701D01*
X128238914Y-110629704D01*
X128250797Y-110635758D01*
X128255828Y-110634962D01*
X130178800Y-108711990D01*
X130184854Y-108700107D01*
X130184356Y-108696963D01*
X130182471Y-108694571D01*
X130073894Y-108601837D01*
X130069341Y-108598381D01*
X129955668Y-108521996D01*
X131243044Y-108521996D01*
X131243142Y-108522618D01*
X131247969Y-108528171D01*
X131295052Y-108561139D01*
X131302522Y-108565451D01*
X131494175Y-108654821D01*
X131502268Y-108657767D01*
X131706539Y-108712501D01*
X131715027Y-108713997D01*
X131925691Y-108732428D01*
X131934309Y-108732428D01*
X132144973Y-108713997D01*
X132153461Y-108712501D01*
X132357732Y-108657767D01*
X132365825Y-108654821D01*
X132557478Y-108565451D01*
X132564948Y-108561139D01*
X132609144Y-108530192D01*
X132617170Y-108519541D01*
X132617182Y-108518909D01*
X132613394Y-108512605D01*
X131941086Y-107840296D01*
X131929203Y-107834242D01*
X131924172Y-107835038D01*
X131249098Y-108510113D01*
X131243044Y-108521996D01*
X129955668Y-108521996D01*
X129786159Y-108408091D01*
X129781256Y-108405191D01*
X129478073Y-108248707D01*
X129472870Y-108246390D01*
X129153711Y-108125790D01*
X129148266Y-108124083D01*
X128817368Y-108040968D01*
X128811769Y-108039900D01*
X128473502Y-107995366D01*
X128467824Y-107994949D01*
X128126667Y-107989590D01*
X128121000Y-107989827D01*
X127781486Y-108023715D01*
X127775853Y-108024607D01*
X127442506Y-108097289D01*
X127437019Y-108098821D01*
X127114232Y-108209336D01*
X127108955Y-108211489D01*
X126801002Y-108358375D01*
X126796010Y-108361119D01*
X126506992Y-108542420D01*
X126502335Y-108545730D01*
X126321700Y-108690446D01*
X126314376Y-108701596D01*
X115200000Y-108701596D01*
X115200000Y-107474309D01*
X130667572Y-107474309D01*
X130686003Y-107684973D01*
X130687499Y-107693461D01*
X130742231Y-107897726D01*
X130745180Y-107905828D01*
X130834553Y-108097486D01*
X130838857Y-108104940D01*
X130869808Y-108149145D01*
X130880458Y-108157170D01*
X130881090Y-108157181D01*
X130887396Y-108153393D01*
X131559704Y-107481086D01*
X131565758Y-107469203D01*
X131564962Y-107464172D01*
X130889887Y-106789098D01*
X130878004Y-106783044D01*
X130877382Y-106783142D01*
X130871829Y-106787969D01*
X130838857Y-106835060D01*
X130834553Y-106842514D01*
X130745180Y-107034172D01*
X130742231Y-107042274D01*
X130687499Y-107246539D01*
X130686003Y-107255027D01*
X130667572Y-107465691D01*
X130667572Y-107474309D01*
X115200000Y-107474309D01*
X115200000Y-101000000D01*
X118394318Y-101000000D01*
X118414956Y-101156762D01*
X118475464Y-101302841D01*
X118571718Y-101428282D01*
X118576871Y-101432236D01*
X118680372Y-101511655D01*
X118715028Y-101562079D01*
X118718034Y-101575671D01*
X118743480Y-101747218D01*
X118800590Y-101975213D01*
X118828652Y-102087241D01*
X118834809Y-102111823D01*
X118835627Y-102114109D01*
X118835629Y-102114115D01*
X118943614Y-102415911D01*
X118961436Y-102465721D01*
X118962474Y-102467916D01*
X118962475Y-102467918D01*
X119108824Y-102777346D01*
X119122141Y-102805503D01*
X119123392Y-102807590D01*
X119123394Y-102807594D01*
X119135892Y-102828446D01*
X119315376Y-103127898D01*
X119316827Y-103129854D01*
X119316828Y-103129856D01*
X119537824Y-103427834D01*
X119537831Y-103427842D01*
X119539282Y-103429799D01*
X119791700Y-103708300D01*
X120070201Y-103960718D01*
X120072158Y-103962169D01*
X120072166Y-103962176D01*
X120356901Y-104173350D01*
X120372102Y-104184624D01*
X120694497Y-104377859D01*
X121034279Y-104538564D01*
X121036561Y-104539381D01*
X121036567Y-104539383D01*
X121163547Y-104584817D01*
X121388177Y-104665191D01*
X121390538Y-104665782D01*
X121390540Y-104665783D01*
X121456224Y-104682236D01*
X121752782Y-104756520D01*
X122009359Y-104794579D01*
X122122162Y-104811312D01*
X122122164Y-104811312D01*
X122124583Y-104811671D01*
X122127012Y-104811790D01*
X122127019Y-104811791D01*
X122326824Y-104821607D01*
X122496800Y-104829957D01*
X122500000Y-104830521D01*
X122519945Y-104827004D01*
X122537137Y-104825500D01*
X128462863Y-104825500D01*
X128480054Y-104827004D01*
X128491470Y-104829017D01*
X128491471Y-104829017D01*
X128500000Y-104830521D01*
X128506647Y-104829349D01*
X128512136Y-104829017D01*
X128512210Y-104829017D01*
X128512289Y-104829008D01*
X128703509Y-104817441D01*
X128777830Y-104812946D01*
X128777832Y-104812946D01*
X128780820Y-104812765D01*
X128880539Y-104794491D01*
X129054606Y-104762592D01*
X129054610Y-104762591D01*
X129057546Y-104762053D01*
X129077208Y-104755926D01*
X129323286Y-104679245D01*
X129323291Y-104679243D01*
X129326141Y-104678355D01*
X129328860Y-104677131D01*
X129328866Y-104677129D01*
X129579956Y-104564122D01*
X129582689Y-104562892D01*
X129823450Y-104417348D01*
X130044911Y-104243844D01*
X130243844Y-104044911D01*
X130417348Y-103823450D01*
X130420784Y-103817767D01*
X130476869Y-103724989D01*
X130562892Y-103582689D01*
X130607465Y-103483653D01*
X130677129Y-103328866D01*
X130677131Y-103328860D01*
X130678355Y-103326141D01*
X130684170Y-103307482D01*
X130761164Y-103060399D01*
X130761164Y-103060398D01*
X130762053Y-103057546D01*
X130762786Y-103053550D01*
X130799379Y-102853863D01*
X130812765Y-102780820D01*
X130829008Y-102512289D01*
X130829017Y-102512210D01*
X130829017Y-102512136D01*
X130829349Y-102506647D01*
X130830521Y-102500000D01*
X130827004Y-102480054D01*
X130825500Y-102462863D01*
X130825500Y-96000000D01*
X131644318Y-96000000D01*
X131664956Y-96156762D01*
X131725464Y-96302841D01*
X131821718Y-96428282D01*
X131947159Y-96524536D01*
X132093238Y-96585044D01*
X132250000Y-96605682D01*
X132330042Y-96595144D01*
X132390201Y-96606294D01*
X132412967Y-96623293D01*
X135626706Y-99837033D01*
X135654483Y-99891550D01*
X135654855Y-99919958D01*
X135645165Y-99993565D01*
X135644318Y-100000000D01*
X135664956Y-100156762D01*
X135725464Y-100302841D01*
X135821718Y-100428282D01*
X135947159Y-100524536D01*
X136093238Y-100585044D01*
X136250000Y-100605682D01*
X136406762Y-100585044D01*
X136552841Y-100524536D01*
X136678282Y-100428282D01*
X136746959Y-100338780D01*
X136797382Y-100304125D01*
X136858547Y-100305726D01*
X136907088Y-100342973D01*
X136924500Y-100399048D01*
X136924500Y-100574166D01*
X136905593Y-100632357D01*
X136895504Y-100644170D01*
X136644170Y-100895504D01*
X136589653Y-100923281D01*
X136574166Y-100924500D01*
X133305970Y-100924500D01*
X133247779Y-100905593D01*
X133227428Y-100885767D01*
X133219783Y-100875803D01*
X133178282Y-100821718D01*
X133052841Y-100725464D01*
X132906762Y-100664956D01*
X132750000Y-100644318D01*
X132593238Y-100664956D01*
X132447159Y-100725464D01*
X132321718Y-100821718D01*
X132225464Y-100947159D01*
X132164956Y-101093238D01*
X132144318Y-101250000D01*
X132164956Y-101406762D01*
X132225464Y-101552841D01*
X132321718Y-101678282D01*
X132447159Y-101774536D01*
X132593238Y-101835044D01*
X132750000Y-101855682D01*
X132906762Y-101835044D01*
X133052841Y-101774536D01*
X133178282Y-101678282D01*
X133227429Y-101614233D01*
X133277852Y-101579577D01*
X133305970Y-101575500D01*
X136731466Y-101575500D01*
X136740095Y-101575877D01*
X136778807Y-101579264D01*
X136792216Y-101575671D01*
X136816349Y-101569204D01*
X136824784Y-101567334D01*
X136854517Y-101562092D01*
X136854519Y-101562091D01*
X136863045Y-101560588D01*
X136870544Y-101556258D01*
X136876029Y-101554262D01*
X136881316Y-101551796D01*
X136889684Y-101549554D01*
X136921511Y-101527268D01*
X136928795Y-101522627D01*
X136962455Y-101503194D01*
X136987431Y-101473429D01*
X136993265Y-101467061D01*
X137467057Y-100993269D01*
X137473425Y-100987434D01*
X137490101Y-100973441D01*
X137503194Y-100962455D01*
X137522629Y-100928792D01*
X137527268Y-100921511D01*
X137538414Y-100905593D01*
X137549554Y-100889684D01*
X137551796Y-100881316D01*
X137554262Y-100876029D01*
X137556258Y-100870544D01*
X137560588Y-100863045D01*
X137563346Y-100847406D01*
X137567334Y-100824784D01*
X137569204Y-100816349D01*
X137577022Y-100787174D01*
X137579264Y-100778807D01*
X137575877Y-100740091D01*
X137575500Y-100731463D01*
X137575500Y-99122307D01*
X137594407Y-99064116D01*
X137643907Y-99028152D01*
X137705093Y-99028152D01*
X137712381Y-99030841D01*
X137843238Y-99085044D01*
X138000000Y-99105682D01*
X138156762Y-99085044D01*
X138302841Y-99024536D01*
X138428282Y-98928282D01*
X138477429Y-98864233D01*
X138527852Y-98829577D01*
X138555970Y-98825500D01*
X145731466Y-98825500D01*
X145740095Y-98825877D01*
X145778807Y-98829264D01*
X145816350Y-98819204D01*
X145824784Y-98817334D01*
X145854517Y-98812092D01*
X145854519Y-98812091D01*
X145863045Y-98810588D01*
X145870544Y-98806258D01*
X145876029Y-98804262D01*
X145881316Y-98801796D01*
X145889684Y-98799554D01*
X145921511Y-98777268D01*
X145928795Y-98772627D01*
X145962455Y-98753194D01*
X145987431Y-98723429D01*
X145993265Y-98717061D01*
X147837033Y-96873293D01*
X147891550Y-96845516D01*
X147919955Y-96845144D01*
X148000000Y-96855682D01*
X148156762Y-96835044D01*
X148302841Y-96774536D01*
X148428282Y-96678282D01*
X148524536Y-96552841D01*
X148576130Y-96428282D01*
X148582560Y-96412759D01*
X148585044Y-96406762D01*
X148602847Y-96271534D01*
X148612203Y-96251918D01*
X148602847Y-96228466D01*
X148594224Y-96162967D01*
X148585044Y-96093238D01*
X148524536Y-95947159D01*
X148428282Y-95821718D01*
X148302841Y-95725464D01*
X148156762Y-95664956D01*
X148000000Y-95644318D01*
X147843238Y-95664956D01*
X147697159Y-95725464D01*
X147571718Y-95821718D01*
X147475464Y-95947159D01*
X147414956Y-96093238D01*
X147394318Y-96250000D01*
X147404856Y-96330042D01*
X147393706Y-96390201D01*
X147376707Y-96412967D01*
X145644170Y-98145504D01*
X145589653Y-98173281D01*
X145574166Y-98174500D01*
X138555970Y-98174500D01*
X138497779Y-98155593D01*
X138477428Y-98135767D01*
X138432236Y-98076871D01*
X138428282Y-98071718D01*
X138302841Y-97975464D01*
X138156762Y-97914956D01*
X138000000Y-97894318D01*
X137843238Y-97914956D01*
X137712385Y-97969157D01*
X137651389Y-97973958D01*
X137599220Y-97941989D01*
X137575805Y-97885461D01*
X137575500Y-97877693D01*
X137575500Y-97268534D01*
X137575877Y-97259905D01*
X137578509Y-97229822D01*
X137579264Y-97221193D01*
X137569204Y-97183650D01*
X137567334Y-97175216D01*
X137562092Y-97145483D01*
X137562091Y-97145481D01*
X137560588Y-97136955D01*
X137556258Y-97129456D01*
X137554262Y-97123971D01*
X137551796Y-97118684D01*
X137549554Y-97110316D01*
X137527268Y-97078489D01*
X137522627Y-97071205D01*
X137520982Y-97068356D01*
X137503194Y-97037545D01*
X137473429Y-97012569D01*
X137467061Y-97006735D01*
X136873293Y-96412967D01*
X136845516Y-96358450D01*
X136845144Y-96330045D01*
X136855682Y-96250000D01*
X136835044Y-96093238D01*
X136774536Y-95947159D01*
X136678282Y-95821718D01*
X136552841Y-95725464D01*
X136406762Y-95664956D01*
X136250000Y-95644318D01*
X136093238Y-95664956D01*
X135947159Y-95725464D01*
X135821718Y-95821718D01*
X135725464Y-95947159D01*
X135664956Y-96093238D01*
X135644318Y-96250000D01*
X135664956Y-96406762D01*
X135667440Y-96412759D01*
X135673870Y-96428282D01*
X135725464Y-96552841D01*
X135821718Y-96678282D01*
X135947159Y-96774536D01*
X136093238Y-96835044D01*
X136250000Y-96855682D01*
X136330042Y-96845144D01*
X136390201Y-96856294D01*
X136412967Y-96873293D01*
X136895504Y-97355830D01*
X136923281Y-97410347D01*
X136924500Y-97425834D01*
X136924500Y-99600952D01*
X136905593Y-99659143D01*
X136856093Y-99695107D01*
X136794907Y-99695107D01*
X136746958Y-99661219D01*
X136682236Y-99576871D01*
X136678282Y-99571718D01*
X136552841Y-99475464D01*
X136406762Y-99414956D01*
X136250000Y-99394318D01*
X136243566Y-99395165D01*
X136243565Y-99395165D01*
X136169958Y-99404855D01*
X136109798Y-99393705D01*
X136087033Y-99376706D01*
X132873293Y-96162967D01*
X132845516Y-96108450D01*
X132845144Y-96080045D01*
X132855682Y-96000000D01*
X132835044Y-95843238D01*
X132774536Y-95697159D01*
X132678282Y-95571718D01*
X132552841Y-95475464D01*
X132406762Y-95414956D01*
X132250000Y-95394318D01*
X132093238Y-95414956D01*
X131947159Y-95475464D01*
X131821718Y-95571718D01*
X131725464Y-95697159D01*
X131664956Y-95843238D01*
X131644318Y-96000000D01*
X130825500Y-96000000D01*
X130825500Y-90037137D01*
X130827004Y-90019946D01*
X130829017Y-90008530D01*
X130829017Y-90008529D01*
X130830521Y-90000000D01*
X130829017Y-89991470D01*
X130829017Y-89990703D01*
X130827822Y-89967538D01*
X130842039Y-89768757D01*
X130844049Y-89754776D01*
X130891825Y-89535155D01*
X130895805Y-89521602D01*
X130974347Y-89311021D01*
X130980215Y-89298172D01*
X131087928Y-89100912D01*
X131095564Y-89089030D01*
X131230251Y-88909107D01*
X131239501Y-88898431D01*
X131398431Y-88739501D01*
X131409107Y-88730251D01*
X131589030Y-88595564D01*
X131600912Y-88587928D01*
X131798172Y-88480215D01*
X131811021Y-88474347D01*
X131899178Y-88441466D01*
X131975711Y-88412921D01*
X132036838Y-88410301D01*
X132070458Y-88429924D01*
X132071718Y-88428282D01*
X132197159Y-88524536D01*
X132343238Y-88585044D01*
X132500000Y-88605682D01*
X132656762Y-88585044D01*
X132802841Y-88524536D01*
X132928282Y-88428282D01*
X133024536Y-88302841D01*
X133085044Y-88156762D01*
X133105682Y-88000000D01*
X133085044Y-87843238D01*
X133024536Y-87697159D01*
X132928282Y-87571718D01*
X132802841Y-87475464D01*
X132656762Y-87414956D01*
X132500000Y-87394318D01*
X132343238Y-87414956D01*
X132197159Y-87475464D01*
X132071718Y-87571718D01*
X131975464Y-87697159D01*
X131973831Y-87701102D01*
X131929060Y-87741414D01*
X131918247Y-87745490D01*
X131850462Y-87766613D01*
X131676714Y-87820755D01*
X131676709Y-87820757D01*
X131673859Y-87821645D01*
X131671140Y-87822869D01*
X131671134Y-87822871D01*
X131483804Y-87907182D01*
X131417311Y-87937108D01*
X131176550Y-88082652D01*
X130955089Y-88256156D01*
X130756156Y-88455089D01*
X130582652Y-88676550D01*
X130437108Y-88917311D01*
X130321645Y-89173859D01*
X130320757Y-89176709D01*
X130320755Y-89176714D01*
X130278903Y-89311021D01*
X130237947Y-89442454D01*
X130237409Y-89445390D01*
X130237408Y-89445394D01*
X130222226Y-89528239D01*
X130187235Y-89719180D01*
X130171475Y-89979742D01*
X130170993Y-89987705D01*
X130170983Y-89987790D01*
X130170983Y-89987864D01*
X130170651Y-89993353D01*
X130169479Y-90000000D01*
X130170983Y-90008529D01*
X130170983Y-90008530D01*
X130172996Y-90019946D01*
X130174500Y-90037137D01*
X130174500Y-102462863D01*
X130172996Y-102480054D01*
X130169479Y-102500000D01*
X130170983Y-102508530D01*
X130170983Y-102509297D01*
X130172178Y-102532462D01*
X130157961Y-102731243D01*
X130155951Y-102745224D01*
X130108175Y-102964845D01*
X130104195Y-102978398D01*
X130025653Y-103188979D01*
X130019785Y-103201828D01*
X129912072Y-103399088D01*
X129904436Y-103410970D01*
X129769749Y-103590893D01*
X129760499Y-103601569D01*
X129601569Y-103760499D01*
X129590893Y-103769749D01*
X129410970Y-103904436D01*
X129399088Y-103912072D01*
X129201828Y-104019785D01*
X129188979Y-104025653D01*
X128978398Y-104104195D01*
X128964845Y-104108175D01*
X128745224Y-104155951D01*
X128731243Y-104157961D01*
X128532462Y-104172178D01*
X128509297Y-104170983D01*
X128508530Y-104170983D01*
X128500000Y-104169479D01*
X128491471Y-104170983D01*
X128491470Y-104170983D01*
X128480054Y-104172996D01*
X128462863Y-104174500D01*
X127224834Y-104174500D01*
X127166643Y-104155593D01*
X127130679Y-104106093D01*
X127130679Y-104044907D01*
X127154830Y-104005496D01*
X127292546Y-103867780D01*
X127298914Y-103861945D01*
X127328683Y-103836966D01*
X127348118Y-103803303D01*
X127352757Y-103796022D01*
X127354476Y-103793567D01*
X127375043Y-103764195D01*
X127377285Y-103755827D01*
X127379751Y-103750540D01*
X127381747Y-103745055D01*
X127386077Y-103737556D01*
X127392823Y-103699294D01*
X127394693Y-103690860D01*
X127402511Y-103661685D01*
X127404753Y-103653318D01*
X127401366Y-103614602D01*
X127400989Y-103605974D01*
X127400989Y-103491195D01*
X127419896Y-103433004D01*
X127469396Y-103397040D01*
X127530582Y-103397040D01*
X127564153Y-103415803D01*
X127643876Y-103483653D01*
X127643881Y-103483656D01*
X127647564Y-103486791D01*
X127651787Y-103489151D01*
X127651791Y-103489154D01*
X127739698Y-103538283D01*
X127827398Y-103587297D01*
X127831996Y-103588791D01*
X128018724Y-103649463D01*
X128018726Y-103649464D01*
X128023329Y-103650959D01*
X128227894Y-103675351D01*
X128232716Y-103674980D01*
X128232719Y-103674980D01*
X128300541Y-103669761D01*
X128433300Y-103659546D01*
X128631725Y-103604145D01*
X128636038Y-103601966D01*
X128636044Y-103601964D01*
X128811289Y-103513441D01*
X128811291Y-103513440D01*
X128815610Y-103511258D01*
X128821229Y-103506868D01*
X128974135Y-103387406D01*
X128974139Y-103387402D01*
X128977951Y-103384424D01*
X128996976Y-103362384D01*
X129060515Y-103288772D01*
X129112564Y-103228472D01*
X129114957Y-103224260D01*
X129211934Y-103053550D01*
X129211935Y-103053547D01*
X129214323Y-103049344D01*
X129217193Y-103040718D01*
X129277824Y-102858454D01*
X129277824Y-102858452D01*
X129279351Y-102853863D01*
X129280983Y-102840949D01*
X129304823Y-102652228D01*
X129305171Y-102649474D01*
X129305583Y-102620000D01*
X129305018Y-102614233D01*
X129285952Y-102419780D01*
X129285951Y-102419776D01*
X129285480Y-102414970D01*
X129280103Y-102397159D01*
X129242229Y-102271718D01*
X129225935Y-102217749D01*
X129129218Y-102035849D01*
X128999011Y-101876200D01*
X128949262Y-101835044D01*
X128844002Y-101747965D01*
X128844000Y-101747964D01*
X128840275Y-101744882D01*
X128697049Y-101667440D01*
X128663309Y-101649197D01*
X128663308Y-101649197D01*
X128659055Y-101646897D01*
X128553535Y-101614233D01*
X128466875Y-101587407D01*
X128466871Y-101587406D01*
X128462254Y-101585977D01*
X128457446Y-101585472D01*
X128457443Y-101585471D01*
X128262185Y-101564949D01*
X128262183Y-101564949D01*
X128257369Y-101564443D01*
X128205053Y-101569204D01*
X128057022Y-101582675D01*
X128057017Y-101582676D01*
X128052203Y-101583114D01*
X127854572Y-101641280D01*
X127850288Y-101643519D01*
X127850287Y-101643520D01*
X127810904Y-101664109D01*
X127672002Y-101736726D01*
X127668231Y-101739758D01*
X127562023Y-101825151D01*
X127504825Y-101846878D01*
X127445780Y-101830836D01*
X127407441Y-101783151D01*
X127400989Y-101747996D01*
X127400989Y-100951195D01*
X127419896Y-100893004D01*
X127469396Y-100857040D01*
X127530582Y-100857040D01*
X127564153Y-100875803D01*
X127643876Y-100943653D01*
X127643881Y-100943656D01*
X127647564Y-100946791D01*
X127651787Y-100949151D01*
X127651791Y-100949154D01*
X127695248Y-100973441D01*
X127827398Y-101047297D01*
X127831996Y-101048791D01*
X128018724Y-101109463D01*
X128018726Y-101109464D01*
X128023329Y-101110959D01*
X128227894Y-101135351D01*
X128232716Y-101134980D01*
X128232719Y-101134980D01*
X128300541Y-101129761D01*
X128433300Y-101119546D01*
X128631725Y-101064145D01*
X128636038Y-101061966D01*
X128636044Y-101061964D01*
X128811289Y-100973441D01*
X128811291Y-100973440D01*
X128815610Y-100971258D01*
X128819753Y-100968021D01*
X128974135Y-100847406D01*
X128974139Y-100847402D01*
X128977951Y-100844424D01*
X128984152Y-100837241D01*
X129077223Y-100729415D01*
X129112564Y-100688472D01*
X129159517Y-100605820D01*
X129211934Y-100513550D01*
X129211935Y-100513547D01*
X129214323Y-100509344D01*
X129225594Y-100475464D01*
X129277824Y-100318454D01*
X129277824Y-100318452D01*
X129279351Y-100313863D01*
X129280744Y-100302841D01*
X129304823Y-100112228D01*
X129305171Y-100109474D01*
X129305583Y-100080000D01*
X129305313Y-100077244D01*
X129285952Y-99879780D01*
X129285951Y-99879776D01*
X129285480Y-99874970D01*
X129278022Y-99850266D01*
X129234026Y-99704548D01*
X129225935Y-99677749D01*
X129129218Y-99495849D01*
X128999011Y-99336200D01*
X128986458Y-99325815D01*
X128844002Y-99207965D01*
X128844000Y-99207964D01*
X128840275Y-99204882D01*
X128659055Y-99106897D01*
X128595855Y-99087333D01*
X128466875Y-99047407D01*
X128466871Y-99047406D01*
X128462254Y-99045977D01*
X128457446Y-99045472D01*
X128457443Y-99045471D01*
X128262185Y-99024949D01*
X128262183Y-99024949D01*
X128257369Y-99024443D01*
X128216613Y-99028152D01*
X128057022Y-99042675D01*
X128057017Y-99042676D01*
X128052203Y-99043114D01*
X127854572Y-99101280D01*
X127850288Y-99103519D01*
X127850287Y-99103520D01*
X127839428Y-99109197D01*
X127672002Y-99196726D01*
X127668231Y-99199758D01*
X127562023Y-99285151D01*
X127504825Y-99306878D01*
X127445780Y-99290836D01*
X127407441Y-99243151D01*
X127400989Y-99207996D01*
X127400989Y-98411195D01*
X127419896Y-98353004D01*
X127469396Y-98317040D01*
X127530582Y-98317040D01*
X127564153Y-98335803D01*
X127643876Y-98403653D01*
X127643881Y-98403656D01*
X127647564Y-98406791D01*
X127651787Y-98409151D01*
X127651791Y-98409154D01*
X127691342Y-98431258D01*
X127827398Y-98507297D01*
X127831996Y-98508791D01*
X128018724Y-98569463D01*
X128018726Y-98569464D01*
X128023329Y-98570959D01*
X128227894Y-98595351D01*
X128232716Y-98594980D01*
X128232719Y-98594980D01*
X128300541Y-98589761D01*
X128433300Y-98579546D01*
X128631725Y-98524145D01*
X128636038Y-98521966D01*
X128636044Y-98521964D01*
X128811289Y-98433441D01*
X128811291Y-98433440D01*
X128815610Y-98431258D01*
X128850943Y-98403653D01*
X128974135Y-98307406D01*
X128974139Y-98307402D01*
X128977951Y-98304424D01*
X128985968Y-98295137D01*
X129090097Y-98174500D01*
X129112564Y-98148472D01*
X129114957Y-98144260D01*
X129211934Y-97973550D01*
X129211935Y-97973547D01*
X129214323Y-97969344D01*
X129215870Y-97964696D01*
X129277824Y-97778454D01*
X129277824Y-97778452D01*
X129279351Y-97773863D01*
X129286474Y-97717482D01*
X129303805Y-97580289D01*
X129305171Y-97569474D01*
X129305583Y-97540000D01*
X129305279Y-97536896D01*
X129285952Y-97339780D01*
X129285951Y-97339776D01*
X129285480Y-97334970D01*
X129274548Y-97298760D01*
X129227333Y-97142380D01*
X129225935Y-97137749D01*
X129129218Y-96955849D01*
X128999011Y-96796200D01*
X128955334Y-96760067D01*
X128844002Y-96667965D01*
X128844000Y-96667964D01*
X128840275Y-96664882D01*
X128659055Y-96566897D01*
X128574484Y-96540718D01*
X128466875Y-96507407D01*
X128466871Y-96507406D01*
X128462254Y-96505977D01*
X128457446Y-96505472D01*
X128457443Y-96505471D01*
X128262185Y-96484949D01*
X128262183Y-96484949D01*
X128257369Y-96484443D01*
X128197354Y-96489905D01*
X128057022Y-96502675D01*
X128057017Y-96502676D01*
X128052203Y-96503114D01*
X127854572Y-96561280D01*
X127850288Y-96563519D01*
X127850287Y-96563520D01*
X127839428Y-96569197D01*
X127672002Y-96656726D01*
X127614915Y-96702625D01*
X127562023Y-96745151D01*
X127504825Y-96766878D01*
X127445780Y-96750836D01*
X127407441Y-96703151D01*
X127400989Y-96667996D01*
X127400989Y-95871195D01*
X127419896Y-95813004D01*
X127469396Y-95777040D01*
X127530582Y-95777040D01*
X127564153Y-95795803D01*
X127643876Y-95863653D01*
X127643881Y-95863656D01*
X127647564Y-95866791D01*
X127651787Y-95869151D01*
X127651791Y-95869154D01*
X127768702Y-95934493D01*
X127827398Y-95967297D01*
X127831996Y-95968791D01*
X128018724Y-96029463D01*
X128018726Y-96029464D01*
X128023329Y-96030959D01*
X128227894Y-96055351D01*
X128232716Y-96054980D01*
X128232719Y-96054980D01*
X128300541Y-96049761D01*
X128433300Y-96039546D01*
X128631725Y-95984145D01*
X128636038Y-95981966D01*
X128636044Y-95981964D01*
X128811289Y-95893441D01*
X128811291Y-95893440D01*
X128815610Y-95891258D01*
X128850943Y-95863653D01*
X128974135Y-95767406D01*
X128974139Y-95767402D01*
X128977951Y-95764424D01*
X128985079Y-95756167D01*
X129040457Y-95692010D01*
X129112564Y-95608472D01*
X129133443Y-95571718D01*
X129211934Y-95433550D01*
X129211935Y-95433547D01*
X129214323Y-95429344D01*
X129219110Y-95414956D01*
X129277824Y-95238454D01*
X129277824Y-95238452D01*
X129279351Y-95233863D01*
X129281241Y-95218907D01*
X129304823Y-95032228D01*
X129305171Y-95029474D01*
X129305583Y-95000000D01*
X129304235Y-94986250D01*
X129285952Y-94799780D01*
X129285951Y-94799776D01*
X129285480Y-94794970D01*
X129270707Y-94746038D01*
X129227333Y-94602380D01*
X129225935Y-94597749D01*
X129129218Y-94415849D01*
X128999011Y-94256200D01*
X128965640Y-94228593D01*
X128844002Y-94127965D01*
X128844000Y-94127964D01*
X128840275Y-94124882D01*
X128659055Y-94026897D01*
X128539818Y-93989987D01*
X128466875Y-93967407D01*
X128466871Y-93967406D01*
X128462254Y-93965977D01*
X128457446Y-93965472D01*
X128457443Y-93965471D01*
X128262185Y-93944949D01*
X128262183Y-93944949D01*
X128257369Y-93944443D01*
X128197354Y-93949905D01*
X128057022Y-93962675D01*
X128057017Y-93962676D01*
X128052203Y-93963114D01*
X127854572Y-94021280D01*
X127850288Y-94023519D01*
X127850287Y-94023520D01*
X127839428Y-94029197D01*
X127672002Y-94116726D01*
X127668231Y-94119758D01*
X127562023Y-94205151D01*
X127504825Y-94226878D01*
X127445780Y-94210836D01*
X127407441Y-94163151D01*
X127400989Y-94127996D01*
X127400989Y-93331195D01*
X127419896Y-93273004D01*
X127469396Y-93237040D01*
X127530582Y-93237040D01*
X127564153Y-93255803D01*
X127643876Y-93323653D01*
X127643881Y-93323656D01*
X127647564Y-93326791D01*
X127651787Y-93329151D01*
X127651791Y-93329154D01*
X127691342Y-93351258D01*
X127827398Y-93427297D01*
X127831996Y-93428791D01*
X128018724Y-93489463D01*
X128018726Y-93489464D01*
X128023329Y-93490959D01*
X128227894Y-93515351D01*
X128232716Y-93514980D01*
X128232719Y-93514980D01*
X128300541Y-93509761D01*
X128433300Y-93499546D01*
X128631725Y-93444145D01*
X128636038Y-93441966D01*
X128636044Y-93441964D01*
X128811289Y-93353441D01*
X128811291Y-93353440D01*
X128815610Y-93351258D01*
X128881218Y-93300000D01*
X128974135Y-93227406D01*
X128974139Y-93227402D01*
X128977951Y-93224424D01*
X129112564Y-93068472D01*
X129131406Y-93035304D01*
X129211934Y-92893550D01*
X129211935Y-92893547D01*
X129214323Y-92889344D01*
X129261604Y-92747214D01*
X129277824Y-92698454D01*
X129277824Y-92698452D01*
X129279351Y-92693863D01*
X129305171Y-92489474D01*
X129305583Y-92460000D01*
X129301306Y-92416377D01*
X129285952Y-92259780D01*
X129285951Y-92259776D01*
X129285480Y-92254970D01*
X129225935Y-92057749D01*
X129129218Y-91875849D01*
X128999011Y-91716200D01*
X128986458Y-91705815D01*
X128844002Y-91587965D01*
X128844000Y-91587964D01*
X128840275Y-91584882D01*
X128659055Y-91486897D01*
X128605038Y-91470176D01*
X128522061Y-91444490D01*
X128472063Y-91409220D01*
X128452346Y-91351299D01*
X128470439Y-91292850D01*
X128519432Y-91256199D01*
X128530752Y-91253081D01*
X128537202Y-91251710D01*
X128743304Y-91189876D01*
X128750852Y-91186918D01*
X128944090Y-91092252D01*
X128951045Y-91088105D01*
X129001229Y-91052309D01*
X129009163Y-91041587D01*
X129009170Y-91040724D01*
X129005554Y-91034764D01*
X127960794Y-89990004D01*
X127933017Y-89935487D01*
X127935344Y-89920797D01*
X128614242Y-89920797D01*
X128615038Y-89925828D01*
X129362200Y-90672990D01*
X129374083Y-90679044D01*
X129375028Y-90678895D01*
X129380201Y-90674453D01*
X129415649Y-90625121D01*
X129419822Y-90618176D01*
X129515164Y-90425268D01*
X129518144Y-90417744D01*
X129580700Y-90211847D01*
X129582410Y-90203935D01*
X129610682Y-89989184D01*
X129611092Y-89983920D01*
X129612589Y-89922641D01*
X129612438Y-89917371D01*
X129594690Y-89701489D01*
X129593368Y-89693504D01*
X129540946Y-89484809D01*
X129538333Y-89477133D01*
X129452530Y-89279798D01*
X129448710Y-89272672D01*
X129381740Y-89169153D01*
X129371549Y-89160871D01*
X129363975Y-89165235D01*
X128620296Y-89908914D01*
X128614242Y-89920797D01*
X127935344Y-89920797D01*
X127942588Y-89875055D01*
X127960794Y-89849996D01*
X129005115Y-88805675D01*
X129011169Y-88793792D01*
X129010830Y-88791652D01*
X129007796Y-88787951D01*
X129007268Y-88787534D01*
X129000527Y-88783055D01*
X128812141Y-88679060D01*
X128804749Y-88675738D01*
X128601920Y-88603912D01*
X128594081Y-88601841D01*
X128524589Y-88589463D01*
X128470616Y-88560644D01*
X128443890Y-88505605D01*
X128454619Y-88445367D01*
X128498706Y-88402941D01*
X128515327Y-88396644D01*
X128590282Y-88375716D01*
X128631725Y-88364145D01*
X128636038Y-88361966D01*
X128636044Y-88361964D01*
X128811289Y-88273441D01*
X128811291Y-88273440D01*
X128815610Y-88271258D01*
X128875312Y-88224614D01*
X128974135Y-88147406D01*
X128974139Y-88147402D01*
X128977951Y-88144424D01*
X128984068Y-88137338D01*
X129037313Y-88075651D01*
X129112564Y-87988472D01*
X129188191Y-87855345D01*
X129211934Y-87813550D01*
X129211935Y-87813547D01*
X129214323Y-87809344D01*
X129215848Y-87804760D01*
X129215851Y-87804753D01*
X129226329Y-87773252D01*
X129262637Y-87724004D01*
X129320268Y-87705500D01*
X129851466Y-87705500D01*
X129860095Y-87705877D01*
X129898807Y-87709264D01*
X129918825Y-87703900D01*
X129936349Y-87699204D01*
X129944784Y-87697334D01*
X129974517Y-87692092D01*
X129974519Y-87692091D01*
X129983045Y-87690588D01*
X129990544Y-87686258D01*
X129996029Y-87684262D01*
X130001316Y-87681796D01*
X130009684Y-87679554D01*
X130041511Y-87657268D01*
X130048795Y-87652627D01*
X130082455Y-87633194D01*
X130107431Y-87603429D01*
X130113265Y-87597061D01*
X138837033Y-78873293D01*
X138891550Y-78845516D01*
X138919955Y-78845144D01*
X139000000Y-78855682D01*
X139156762Y-78835044D01*
X139302841Y-78774536D01*
X139428282Y-78678282D01*
X139524536Y-78552841D01*
X139585044Y-78406762D01*
X139605682Y-78250000D01*
X139585044Y-78093238D01*
X139524536Y-77947159D01*
X139428282Y-77821718D01*
X139302841Y-77725464D01*
X139156762Y-77664956D01*
X139000000Y-77644318D01*
X138843238Y-77664956D01*
X138697159Y-77725464D01*
X138571718Y-77821718D01*
X138475464Y-77947159D01*
X138414956Y-78093238D01*
X138394318Y-78250000D01*
X138404856Y-78330042D01*
X138393706Y-78390201D01*
X138376707Y-78412967D01*
X129764170Y-87025504D01*
X129709653Y-87053281D01*
X129694166Y-87054500D01*
X129322631Y-87054500D01*
X129264440Y-87035593D01*
X129229665Y-86986659D01*
X129229179Y-86986859D01*
X129228312Y-86984756D01*
X129227857Y-86984116D01*
X129225935Y-86977749D01*
X129129218Y-86795849D01*
X128999011Y-86636200D01*
X128982790Y-86622781D01*
X128844002Y-86507965D01*
X128844000Y-86507964D01*
X128840275Y-86504882D01*
X128659055Y-86406897D01*
X128595855Y-86387333D01*
X128466875Y-86347407D01*
X128466871Y-86347406D01*
X128462254Y-86345977D01*
X128457446Y-86345472D01*
X128457443Y-86345471D01*
X128262185Y-86324949D01*
X128262183Y-86324949D01*
X128257369Y-86324443D01*
X128197354Y-86329905D01*
X128057022Y-86342675D01*
X128057017Y-86342676D01*
X128052203Y-86343114D01*
X127854572Y-86401280D01*
X127850288Y-86403519D01*
X127850287Y-86403520D01*
X127839428Y-86409197D01*
X127672002Y-86496726D01*
X127668231Y-86499758D01*
X127515220Y-86622781D01*
X127515217Y-86622783D01*
X127511447Y-86625815D01*
X127508333Y-86629526D01*
X127508332Y-86629527D01*
X127407991Y-86749109D01*
X127379024Y-86783630D01*
X127376689Y-86787878D01*
X127376688Y-86787879D01*
X127369955Y-86800126D01*
X127279776Y-86964162D01*
X127278313Y-86968775D01*
X127278311Y-86968779D01*
X127257117Y-87035593D01*
X127217484Y-87160532D01*
X127216944Y-87165344D01*
X127216944Y-87165345D01*
X127202344Y-87295512D01*
X127194520Y-87365262D01*
X127194925Y-87370082D01*
X127209616Y-87545030D01*
X127211759Y-87570553D01*
X127213092Y-87575201D01*
X127213092Y-87575202D01*
X127261922Y-87745491D01*
X127268544Y-87768586D01*
X127270759Y-87772896D01*
X127270761Y-87772901D01*
X127280539Y-87791927D01*
X127290322Y-87852325D01*
X127262491Y-87907182D01*
X126858439Y-88311235D01*
X126852071Y-88317070D01*
X126828932Y-88336486D01*
X126828929Y-88336489D01*
X126822295Y-88342056D01*
X126806717Y-88369039D01*
X126802862Y-88375716D01*
X126798221Y-88383000D01*
X126775935Y-88414827D01*
X126773693Y-88423195D01*
X126771227Y-88428482D01*
X126769231Y-88433967D01*
X126764901Y-88441466D01*
X126763398Y-88449992D01*
X126763397Y-88449994D01*
X126758155Y-88479727D01*
X126756285Y-88488161D01*
X126746225Y-88525704D01*
X126746980Y-88534333D01*
X126749612Y-88564416D01*
X126749989Y-88573045D01*
X126749989Y-103448677D01*
X126731082Y-103506868D01*
X126720993Y-103518681D01*
X126543681Y-103695993D01*
X126489164Y-103723770D01*
X126473677Y-103724989D01*
X123326323Y-103724989D01*
X123268132Y-103706082D01*
X123256319Y-103695993D01*
X122423293Y-102862967D01*
X122395516Y-102808450D01*
X122395144Y-102780045D01*
X122405682Y-102700000D01*
X122385044Y-102543238D01*
X122324536Y-102397159D01*
X122228282Y-102271718D01*
X122102841Y-102175464D01*
X121956762Y-102114956D01*
X121800000Y-102094318D01*
X121643238Y-102114956D01*
X121497159Y-102175464D01*
X121371718Y-102271718D01*
X121275464Y-102397159D01*
X121214956Y-102543238D01*
X121194318Y-102700000D01*
X121214956Y-102856762D01*
X121275464Y-103002841D01*
X121371718Y-103128282D01*
X121497159Y-103224536D01*
X121643238Y-103285044D01*
X121800000Y-103305682D01*
X121880042Y-103295144D01*
X121940201Y-103306294D01*
X121962967Y-103323293D01*
X122645170Y-104005496D01*
X122672947Y-104060013D01*
X122663376Y-104120445D01*
X122620111Y-104163710D01*
X122575166Y-104174500D01*
X122537137Y-104174500D01*
X122519946Y-104172996D01*
X122508530Y-104170983D01*
X122508529Y-104170983D01*
X122500000Y-104169479D01*
X122491471Y-104170983D01*
X122491465Y-104170983D01*
X122489151Y-104171391D01*
X122466781Y-104172759D01*
X122294108Y-104163710D01*
X122173350Y-104157381D01*
X122163059Y-104156300D01*
X121993567Y-104129455D01*
X121845113Y-104105942D01*
X121834977Y-104103788D01*
X121606459Y-104042557D01*
X121524026Y-104020469D01*
X121514182Y-104017270D01*
X121248237Y-103915183D01*
X121213665Y-103901912D01*
X121204199Y-103897698D01*
X120917367Y-103751550D01*
X120908393Y-103746368D01*
X120638429Y-103571052D01*
X120630045Y-103564961D01*
X120379883Y-103362384D01*
X120372182Y-103355451D01*
X120144549Y-103127818D01*
X120137616Y-103120117D01*
X119935039Y-102869955D01*
X119928948Y-102861571D01*
X119753632Y-102591607D01*
X119748450Y-102582633D01*
X119602302Y-102295801D01*
X119598088Y-102286335D01*
X119570072Y-102213351D01*
X119482730Y-101985818D01*
X119479530Y-101975971D01*
X119467927Y-101932666D01*
X119417592Y-101744815D01*
X119396212Y-101665023D01*
X119394058Y-101654887D01*
X119374979Y-101534427D01*
X119384550Y-101473995D01*
X119412491Y-101440400D01*
X119423126Y-101432239D01*
X119423129Y-101432236D01*
X119428282Y-101428282D01*
X119524536Y-101302841D01*
X119585044Y-101156762D01*
X119605682Y-101000000D01*
X119585044Y-100843238D01*
X119524536Y-100697159D01*
X119428282Y-100571718D01*
X119302841Y-100475464D01*
X119156762Y-100414956D01*
X119000000Y-100394318D01*
X118843238Y-100414956D01*
X118697159Y-100475464D01*
X118571718Y-100571718D01*
X118475464Y-100697159D01*
X118414956Y-100843238D01*
X118394318Y-101000000D01*
X115200000Y-101000000D01*
X115200000Y-98533960D01*
X115202518Y-98511773D01*
X115205143Y-98500358D01*
X115202682Y-98489483D01*
X115202702Y-98478336D01*
X115202863Y-98478336D01*
X115202076Y-98468331D01*
X115206801Y-98396241D01*
X115214975Y-98271525D01*
X115216664Y-98258691D01*
X115237172Y-98155593D01*
X115260068Y-98040484D01*
X115263419Y-98027980D01*
X115283324Y-97969344D01*
X115334933Y-97817308D01*
X115339889Y-97805346D01*
X115438284Y-97605820D01*
X115444753Y-97594614D01*
X115568365Y-97409615D01*
X115576233Y-97399361D01*
X115722931Y-97232085D01*
X115732086Y-97222930D01*
X115776875Y-97183651D01*
X115899361Y-97076233D01*
X115909615Y-97068365D01*
X116094614Y-96944753D01*
X116105820Y-96938284D01*
X116275038Y-96854835D01*
X116305347Y-96839889D01*
X116317309Y-96834933D01*
X116420359Y-96799952D01*
X116527984Y-96763418D01*
X116540484Y-96760068D01*
X116758698Y-96716663D01*
X116771523Y-96714975D01*
X116967819Y-96702109D01*
X116977628Y-96702899D01*
X116977628Y-96702625D01*
X116988778Y-96702645D01*
X116999642Y-96705143D01*
X117010514Y-96702683D01*
X117010516Y-96702683D01*
X117011583Y-96702441D01*
X117033432Y-96700000D01*
X121965778Y-96700000D01*
X121988130Y-96702557D01*
X121999284Y-96705142D01*
X122000000Y-96705143D01*
X122002615Y-96704546D01*
X122004028Y-96704837D01*
X122003975Y-96704236D01*
X122023167Y-96702557D01*
X122209174Y-96686284D01*
X122213349Y-96685165D01*
X122213351Y-96685165D01*
X122329001Y-96654176D01*
X122411992Y-96631939D01*
X122602292Y-96543200D01*
X122774292Y-96422765D01*
X122922765Y-96274292D01*
X123009566Y-96150326D01*
X123040718Y-96105837D01*
X123040719Y-96105835D01*
X123043200Y-96102292D01*
X123131939Y-95911992D01*
X123173692Y-95756167D01*
X123185165Y-95713351D01*
X123185165Y-95713349D01*
X123186284Y-95709174D01*
X123204584Y-95500000D01*
X123186284Y-95290826D01*
X123175584Y-95250891D01*
X123134673Y-95098211D01*
X123131939Y-95088008D01*
X123043200Y-94897708D01*
X123011746Y-94852786D01*
X122974795Y-94800015D01*
X122922765Y-94725708D01*
X122774292Y-94577235D01*
X122602292Y-94456800D01*
X122411992Y-94368061D01*
X122329001Y-94345824D01*
X122213351Y-94314835D01*
X122213349Y-94314835D01*
X122209174Y-94313716D01*
X122005017Y-94295855D01*
X122005046Y-94295520D01*
X122003870Y-94295589D01*
X122000716Y-94294858D01*
X122000000Y-94294857D01*
X121994551Y-94296100D01*
X121988321Y-94297521D01*
X121966304Y-94300000D01*
X117033960Y-94300000D01*
X117011773Y-94297482D01*
X117000358Y-94294857D01*
X116989483Y-94297318D01*
X116978337Y-94297298D01*
X116978338Y-94296985D01*
X116968388Y-94297739D01*
X116750888Y-94282184D01*
X116736912Y-94280173D01*
X116499800Y-94228592D01*
X116486253Y-94224615D01*
X116307254Y-94157852D01*
X116258887Y-94139812D01*
X116246038Y-94133944D01*
X116033062Y-94017649D01*
X116021180Y-94010013D01*
X115826923Y-93864595D01*
X115816247Y-93855345D01*
X115644655Y-93683753D01*
X115635405Y-93673077D01*
X115489987Y-93478820D01*
X115482351Y-93466938D01*
X115366056Y-93253962D01*
X115360188Y-93241113D01*
X115275386Y-93013750D01*
X115271407Y-93000197D01*
X115219827Y-92763088D01*
X115217816Y-92749109D01*
X115217681Y-92747214D01*
X115200505Y-92507061D01*
X115200505Y-92492938D01*
X115217524Y-92254970D01*
X115217816Y-92250888D01*
X115219827Y-92236909D01*
X115253072Y-92084089D01*
X115271408Y-91999800D01*
X115275386Y-91986250D01*
X115360188Y-91758887D01*
X115366056Y-91746038D01*
X115482351Y-91533062D01*
X115489987Y-91521180D01*
X115635405Y-91326923D01*
X115644655Y-91316247D01*
X115816247Y-91144655D01*
X115826923Y-91135405D01*
X116021180Y-90989987D01*
X116033062Y-90982351D01*
X116246038Y-90866056D01*
X116258887Y-90860188D01*
X116396890Y-90808716D01*
X116486253Y-90775385D01*
X116499800Y-90771408D01*
X116736912Y-90719827D01*
X116750888Y-90717816D01*
X116967873Y-90702298D01*
X116977628Y-90703054D01*
X116977629Y-90702626D01*
X116988779Y-90702645D01*
X116999642Y-90705143D01*
X117010514Y-90702683D01*
X117010515Y-90702683D01*
X117011583Y-90702441D01*
X117033432Y-90700000D01*
X121965778Y-90700000D01*
X121988130Y-90702557D01*
X121999284Y-90705142D01*
X122000000Y-90705143D01*
X122002615Y-90704546D01*
X122004028Y-90704837D01*
X122003975Y-90704236D01*
X122023167Y-90702557D01*
X122209174Y-90686284D01*
X122213349Y-90685165D01*
X122213351Y-90685165D01*
X122329001Y-90654176D01*
X122411992Y-90631939D01*
X122602292Y-90543200D01*
X122774292Y-90422765D01*
X122922765Y-90274292D01*
X123000897Y-90162708D01*
X123040718Y-90105837D01*
X123040719Y-90105835D01*
X123043200Y-90102292D01*
X123131939Y-89911992D01*
X123174065Y-89754776D01*
X123185165Y-89713351D01*
X123185165Y-89713349D01*
X123186284Y-89709174D01*
X123204584Y-89500000D01*
X123186284Y-89290826D01*
X123175584Y-89250891D01*
X123151463Y-89160871D01*
X123131939Y-89088008D01*
X123043200Y-88897708D01*
X123011746Y-88852786D01*
X122978758Y-88805675D01*
X122922765Y-88725708D01*
X122774292Y-88577235D01*
X122602292Y-88456800D01*
X122411992Y-88368061D01*
X122294153Y-88336486D01*
X122213351Y-88314835D01*
X122213349Y-88314835D01*
X122209174Y-88313716D01*
X122005017Y-88295855D01*
X122005046Y-88295520D01*
X122003870Y-88295589D01*
X122000716Y-88294858D01*
X122000000Y-88294857D01*
X121994551Y-88296100D01*
X121988321Y-88297521D01*
X121966304Y-88300000D01*
X117033960Y-88300000D01*
X117011773Y-88297482D01*
X117000358Y-88294857D01*
X116989483Y-88297318D01*
X116978337Y-88297298D01*
X116978338Y-88296985D01*
X116968388Y-88297739D01*
X116750888Y-88282184D01*
X116736912Y-88280173D01*
X116499800Y-88228592D01*
X116486253Y-88224615D01*
X116307254Y-88157852D01*
X116258887Y-88139812D01*
X116246038Y-88133944D01*
X116033062Y-88017649D01*
X116021180Y-88010013D01*
X115826923Y-87864595D01*
X115816247Y-87855345D01*
X115644655Y-87683753D01*
X115635405Y-87673077D01*
X115489987Y-87478820D01*
X115482351Y-87466938D01*
X115366056Y-87253962D01*
X115360188Y-87241113D01*
X115275386Y-87013750D01*
X115271407Y-87000197D01*
X115219827Y-86763088D01*
X115217816Y-86749109D01*
X115217681Y-86747214D01*
X115200505Y-86507061D01*
X115200505Y-86492938D01*
X115211252Y-86342675D01*
X115217816Y-86250888D01*
X115219827Y-86236909D01*
X115253072Y-86084089D01*
X115271408Y-85999800D01*
X115275386Y-85986250D01*
X115360188Y-85758887D01*
X115366056Y-85746038D01*
X115482351Y-85533062D01*
X115489987Y-85521180D01*
X115635405Y-85326923D01*
X115644655Y-85316247D01*
X115816247Y-85144655D01*
X115826923Y-85135405D01*
X116021180Y-84989987D01*
X116033062Y-84982351D01*
X116246038Y-84866056D01*
X116258887Y-84860188D01*
X116396890Y-84808716D01*
X116486253Y-84775385D01*
X116499800Y-84771408D01*
X116736912Y-84719827D01*
X116750888Y-84717816D01*
X116967873Y-84702298D01*
X116977628Y-84703054D01*
X116977629Y-84702626D01*
X116988779Y-84702645D01*
X116999642Y-84705143D01*
X117010514Y-84702683D01*
X117010515Y-84702683D01*
X117011583Y-84702441D01*
X117033432Y-84700000D01*
X121965778Y-84700000D01*
X121988130Y-84702557D01*
X121999284Y-84705142D01*
X122000000Y-84705143D01*
X122002615Y-84704546D01*
X122004028Y-84704837D01*
X122003975Y-84704236D01*
X122023167Y-84702557D01*
X122209174Y-84686284D01*
X122213349Y-84685165D01*
X122213351Y-84685165D01*
X122329001Y-84654176D01*
X122411992Y-84631939D01*
X122602292Y-84543200D01*
X122774292Y-84422765D01*
X122922765Y-84274292D01*
X123000897Y-84162708D01*
X123040718Y-84105837D01*
X123040719Y-84105835D01*
X123043200Y-84102292D01*
X123131939Y-83911992D01*
X123176091Y-83747214D01*
X123185165Y-83713351D01*
X123185165Y-83713349D01*
X123186284Y-83709174D01*
X123204584Y-83500000D01*
X123186284Y-83290826D01*
X123131939Y-83088008D01*
X123043200Y-82897708D01*
X123011746Y-82852786D01*
X122925244Y-82729249D01*
X122922765Y-82725708D01*
X122774292Y-82577235D01*
X122602292Y-82456800D01*
X122411992Y-82368061D01*
X122329001Y-82345824D01*
X122213351Y-82314835D01*
X122213349Y-82314835D01*
X122209174Y-82313716D01*
X122005017Y-82295855D01*
X122005046Y-82295520D01*
X122003870Y-82295589D01*
X122000716Y-82294858D01*
X122000000Y-82294857D01*
X121994551Y-82296100D01*
X121988321Y-82297521D01*
X121966304Y-82300000D01*
X117033960Y-82300000D01*
X117011773Y-82297482D01*
X117000358Y-82294857D01*
X116989483Y-82297318D01*
X116978336Y-82297298D01*
X116978336Y-82297137D01*
X116968331Y-82297924D01*
X116896241Y-82293199D01*
X116771525Y-82285025D01*
X116758698Y-82283337D01*
X116540484Y-82239932D01*
X116527984Y-82236582D01*
X116317308Y-82165067D01*
X116305346Y-82160111D01*
X116284304Y-82149734D01*
X116105820Y-82061716D01*
X116094614Y-82055247D01*
X115909615Y-81931635D01*
X115899361Y-81923767D01*
X115732085Y-81777069D01*
X115722930Y-81767914D01*
X115687618Y-81727649D01*
X115576233Y-81600639D01*
X115568365Y-81590385D01*
X115444753Y-81405386D01*
X115438284Y-81394180D01*
X115401905Y-81320411D01*
X116742001Y-81320411D01*
X116742290Y-81325751D01*
X116748078Y-81379035D01*
X116750927Y-81391020D01*
X116797351Y-81514855D01*
X116804059Y-81527108D01*
X116882863Y-81632256D01*
X116892744Y-81642137D01*
X116997892Y-81720941D01*
X117010145Y-81727649D01*
X117133978Y-81774072D01*
X117145967Y-81776923D01*
X117199252Y-81782711D01*
X117204586Y-81783000D01*
X117730320Y-81783000D01*
X117743005Y-81778878D01*
X117746000Y-81774757D01*
X117746000Y-81767319D01*
X118254000Y-81767319D01*
X118258122Y-81780004D01*
X118262243Y-81782999D01*
X118795411Y-81782999D01*
X118800751Y-81782710D01*
X118854035Y-81776922D01*
X118866020Y-81774073D01*
X118989855Y-81727649D01*
X119002108Y-81720941D01*
X119107256Y-81642137D01*
X119117137Y-81632256D01*
X119195941Y-81527108D01*
X119202649Y-81514855D01*
X119249072Y-81391022D01*
X119251923Y-81379033D01*
X119257711Y-81325748D01*
X119258000Y-81320414D01*
X119258000Y-81019680D01*
X119253878Y-81006995D01*
X119249757Y-81004000D01*
X118269680Y-81004000D01*
X118256995Y-81008122D01*
X118254000Y-81012243D01*
X118254000Y-81767319D01*
X117746000Y-81767319D01*
X117746000Y-81019680D01*
X117741878Y-81006995D01*
X117737757Y-81004000D01*
X116757681Y-81004000D01*
X116744996Y-81008122D01*
X116742001Y-81012243D01*
X116742001Y-81320411D01*
X115401905Y-81320411D01*
X115339889Y-81194654D01*
X115334933Y-81182691D01*
X115263419Y-80972020D01*
X115260067Y-80959511D01*
X115216664Y-80741309D01*
X115214974Y-80728470D01*
X115202109Y-80532184D01*
X115202899Y-80522372D01*
X115202625Y-80522372D01*
X115202645Y-80511222D01*
X115205143Y-80500358D01*
X115202683Y-80489486D01*
X115202683Y-80489484D01*
X115202441Y-80488417D01*
X115201536Y-80480320D01*
X116742000Y-80480320D01*
X116746122Y-80493005D01*
X116750243Y-80496000D01*
X119242319Y-80496000D01*
X119255004Y-80491878D01*
X119257999Y-80487757D01*
X119257999Y-80179589D01*
X119257710Y-80174249D01*
X119251922Y-80120965D01*
X119249073Y-80108980D01*
X119202649Y-79985145D01*
X119195941Y-79972892D01*
X119117137Y-79867744D01*
X119107256Y-79857863D01*
X119002108Y-79779059D01*
X118983672Y-79768966D01*
X118984467Y-79767513D01*
X118943297Y-79734708D01*
X118926995Y-79675734D01*
X118931147Y-79651439D01*
X118943895Y-79609350D01*
X118954370Y-79440499D01*
X118925720Y-79273767D01*
X118859482Y-79118098D01*
X118770948Y-78997793D01*
X118762618Y-78986474D01*
X118762617Y-78986473D01*
X118759209Y-78981842D01*
X118754827Y-78978119D01*
X118754825Y-78978117D01*
X118690187Y-78923203D01*
X118658081Y-78871118D01*
X118662722Y-78810109D01*
X118690259Y-78772518D01*
X118693540Y-78770367D01*
X118809885Y-78647550D01*
X118868379Y-78546846D01*
X118891967Y-78506236D01*
X118891967Y-78506235D01*
X118894856Y-78501262D01*
X118943895Y-78339350D01*
X118954370Y-78170499D01*
X118925720Y-78003767D01*
X118859482Y-77848098D01*
X118769234Y-77725464D01*
X118762618Y-77716474D01*
X118762617Y-77716473D01*
X118759209Y-77711842D01*
X118754827Y-77708119D01*
X118754825Y-77708117D01*
X118634666Y-77606034D01*
X118634665Y-77606033D01*
X118630280Y-77602308D01*
X118479611Y-77525373D01*
X118474025Y-77524006D01*
X118319563Y-77486209D01*
X118319560Y-77486208D01*
X118315283Y-77485162D01*
X118310885Y-77484889D01*
X118310884Y-77484889D01*
X118306128Y-77484594D01*
X118306126Y-77484594D01*
X118304612Y-77484500D01*
X117732637Y-77484500D01*
X117606963Y-77499152D01*
X117601557Y-77501114D01*
X117601554Y-77501115D01*
X117457861Y-77553274D01*
X117447939Y-77556875D01*
X117443130Y-77560028D01*
X117443126Y-77560030D01*
X117390391Y-77594605D01*
X117306460Y-77649633D01*
X117190115Y-77772450D01*
X117105144Y-77918738D01*
X117056105Y-78080650D01*
X117045630Y-78249501D01*
X117074280Y-78416233D01*
X117076533Y-78421528D01*
X117129857Y-78546846D01*
X117140518Y-78571902D01*
X117143925Y-78576531D01*
X117221715Y-78682236D01*
X117240791Y-78708158D01*
X117245173Y-78711881D01*
X117245175Y-78711883D01*
X117309813Y-78766797D01*
X117341919Y-78818882D01*
X117337278Y-78879891D01*
X117309741Y-78917482D01*
X117306460Y-78919633D01*
X117190115Y-79042450D01*
X117105144Y-79188738D01*
X117056105Y-79350650D01*
X117045630Y-79519501D01*
X117046604Y-79525169D01*
X117070431Y-79663834D01*
X117061651Y-79724387D01*
X117018957Y-79768214D01*
X117012017Y-79771326D01*
X116997892Y-79779059D01*
X116892744Y-79857863D01*
X116882863Y-79867744D01*
X116804059Y-79972892D01*
X116797351Y-79985145D01*
X116750928Y-80108978D01*
X116748077Y-80120967D01*
X116742289Y-80174252D01*
X116742000Y-80179586D01*
X116742000Y-80480320D01*
X115201536Y-80480320D01*
X115200000Y-80466568D01*
X115200000Y-78533960D01*
X115202518Y-78511773D01*
X115202562Y-78511583D01*
X115205143Y-78500358D01*
X115202682Y-78489483D01*
X115202702Y-78478336D01*
X115202863Y-78478336D01*
X115202076Y-78468331D01*
X115207967Y-78378446D01*
X115214975Y-78271525D01*
X115216664Y-78258691D01*
X115217114Y-78256432D01*
X115260068Y-78040484D01*
X115263419Y-78027980D01*
X115269714Y-78009438D01*
X115334933Y-77817308D01*
X115339889Y-77805346D01*
X115438284Y-77605820D01*
X115444753Y-77594614D01*
X115568365Y-77409615D01*
X115576233Y-77399361D01*
X115722931Y-77232085D01*
X115732086Y-77222930D01*
X115899361Y-77076233D01*
X115909615Y-77068365D01*
X116094614Y-76944753D01*
X116105820Y-76938284D01*
X116223046Y-76880475D01*
X116305347Y-76839889D01*
X116317309Y-76834933D01*
X116527984Y-76763418D01*
X116540484Y-76760068D01*
X116758698Y-76716663D01*
X116771523Y-76714975D01*
X116967819Y-76702109D01*
X116977628Y-76702899D01*
X116977628Y-76702625D01*
X116988778Y-76702645D01*
X116999642Y-76705143D01*
X117010514Y-76702683D01*
X117010516Y-76702683D01*
X117011583Y-76702441D01*
X117033432Y-76700000D01*
X121966040Y-76700000D01*
X121988227Y-76702518D01*
G37*
%TD.AperFunction*%
%TD*%
M02*
