%TF.GenerationSoftware,KiCad,Pcbnew,(5.1.9-0-10_14)*%
%TF.CreationDate,2021-03-11T12:02:00+00:00*%
%TF.ProjectId,EnvMon,456e764d-6f6e-42e6-9b69-6361645f7063,rev?*%
%TF.SameCoordinates,Original*%
%TF.FileFunction,Soldermask,Bot*%
%TF.FilePolarity,Negative*%
%FSLAX46Y46*%
G04 Gerber Fmt 4.6, Leading zero omitted, Abs format (unit mm)*
G04 Created by KiCad (PCBNEW (5.1.9-0-10_14)) date 2021-03-11 12:02:00*
%MOMM*%
%LPD*%
G01*
G04 APERTURE LIST*
%ADD10C,1.700000*%
%ADD11C,2.000000*%
%ADD12R,2.000000X2.000000*%
%ADD13C,5.000000*%
%ADD14R,1.524000X1.524000*%
%ADD15O,1.700000X1.850000*%
%ADD16C,0.600000*%
G04 APERTURE END LIST*
D10*
%TO.C,M3*%
X101120000Y-71250000D03*
X98580000Y-71250000D03*
X96040000Y-71250000D03*
X93500000Y-71250000D03*
%TD*%
D11*
%TO.C,J2*%
X91710000Y-91750000D03*
D12*
X94250000Y-91750000D03*
%TD*%
D13*
%TO.C,M2*%
X92500000Y-65500000D03*
X92500000Y-97500000D03*
X132000000Y-97500000D03*
X132000000Y-65500000D03*
D10*
X92500000Y-89120000D03*
X92500000Y-86580000D03*
X92500000Y-84040000D03*
X92500000Y-81500000D03*
X92500000Y-78960000D03*
X92500000Y-76420000D03*
X92500000Y-73880000D03*
%TD*%
%TO.C,R9*%
G36*
G01*
X125924999Y-97850000D02*
X127175001Y-97850000D01*
G75*
G02*
X127425000Y-98099999I0J-249999D01*
G01*
X127425000Y-98900001D01*
G75*
G02*
X127175001Y-99150000I-249999J0D01*
G01*
X125924999Y-99150000D01*
G75*
G02*
X125675000Y-98900001I0J249999D01*
G01*
X125675000Y-98099999D01*
G75*
G02*
X125924999Y-97850000I249999J0D01*
G01*
G37*
G36*
G01*
X125924999Y-94750000D02*
X127175001Y-94750000D01*
G75*
G02*
X127425000Y-94999999I0J-249999D01*
G01*
X127425000Y-95800001D01*
G75*
G02*
X127175001Y-96050000I-249999J0D01*
G01*
X125924999Y-96050000D01*
G75*
G02*
X125675000Y-95800001I0J249999D01*
G01*
X125675000Y-94999999D01*
G75*
G02*
X125924999Y-94750000I249999J0D01*
G01*
G37*
%TD*%
%TO.C,R8*%
G36*
G01*
X123424999Y-97850000D02*
X124675001Y-97850000D01*
G75*
G02*
X124925000Y-98099999I0J-249999D01*
G01*
X124925000Y-98900001D01*
G75*
G02*
X124675001Y-99150000I-249999J0D01*
G01*
X123424999Y-99150000D01*
G75*
G02*
X123175000Y-98900001I0J249999D01*
G01*
X123175000Y-98099999D01*
G75*
G02*
X123424999Y-97850000I249999J0D01*
G01*
G37*
G36*
G01*
X123424999Y-94750000D02*
X124675001Y-94750000D01*
G75*
G02*
X124925000Y-94999999I0J-249999D01*
G01*
X124925000Y-95800001D01*
G75*
G02*
X124675001Y-96050000I-249999J0D01*
G01*
X123424999Y-96050000D01*
G75*
G02*
X123175000Y-95800001I0J249999D01*
G01*
X123175000Y-94999999D01*
G75*
G02*
X123424999Y-94750000I249999J0D01*
G01*
G37*
%TD*%
%TO.C,R7*%
G36*
G01*
X120924999Y-97850000D02*
X122175001Y-97850000D01*
G75*
G02*
X122425000Y-98099999I0J-249999D01*
G01*
X122425000Y-98900001D01*
G75*
G02*
X122175001Y-99150000I-249999J0D01*
G01*
X120924999Y-99150000D01*
G75*
G02*
X120675000Y-98900001I0J249999D01*
G01*
X120675000Y-98099999D01*
G75*
G02*
X120924999Y-97850000I249999J0D01*
G01*
G37*
G36*
G01*
X120924999Y-94750000D02*
X122175001Y-94750000D01*
G75*
G02*
X122425000Y-94999999I0J-249999D01*
G01*
X122425000Y-95800001D01*
G75*
G02*
X122175001Y-96050000I-249999J0D01*
G01*
X120924999Y-96050000D01*
G75*
G02*
X120675000Y-95800001I0J249999D01*
G01*
X120675000Y-94999999D01*
G75*
G02*
X120924999Y-94750000I249999J0D01*
G01*
G37*
%TD*%
%TO.C,R6*%
G36*
G01*
X118424999Y-97850000D02*
X119675001Y-97850000D01*
G75*
G02*
X119925000Y-98099999I0J-249999D01*
G01*
X119925000Y-98900001D01*
G75*
G02*
X119675001Y-99150000I-249999J0D01*
G01*
X118424999Y-99150000D01*
G75*
G02*
X118175000Y-98900001I0J249999D01*
G01*
X118175000Y-98099999D01*
G75*
G02*
X118424999Y-97850000I249999J0D01*
G01*
G37*
G36*
G01*
X118424999Y-94750000D02*
X119675001Y-94750000D01*
G75*
G02*
X119925000Y-94999999I0J-249999D01*
G01*
X119925000Y-95800001D01*
G75*
G02*
X119675001Y-96050000I-249999J0D01*
G01*
X118424999Y-96050000D01*
G75*
G02*
X118175000Y-95800001I0J249999D01*
G01*
X118175000Y-94999999D01*
G75*
G02*
X118424999Y-94750000I249999J0D01*
G01*
G37*
%TD*%
%TO.C,R5*%
G36*
G01*
X115924999Y-97850000D02*
X117175001Y-97850000D01*
G75*
G02*
X117425000Y-98099999I0J-249999D01*
G01*
X117425000Y-98900001D01*
G75*
G02*
X117175001Y-99150000I-249999J0D01*
G01*
X115924999Y-99150000D01*
G75*
G02*
X115675000Y-98900001I0J249999D01*
G01*
X115675000Y-98099999D01*
G75*
G02*
X115924999Y-97850000I249999J0D01*
G01*
G37*
G36*
G01*
X115924999Y-94750000D02*
X117175001Y-94750000D01*
G75*
G02*
X117425000Y-94999999I0J-249999D01*
G01*
X117425000Y-95800001D01*
G75*
G02*
X117175001Y-96050000I-249999J0D01*
G01*
X115924999Y-96050000D01*
G75*
G02*
X115675000Y-95800001I0J249999D01*
G01*
X115675000Y-94999999D01*
G75*
G02*
X115924999Y-94750000I249999J0D01*
G01*
G37*
%TD*%
%TO.C,R4*%
G36*
G01*
X113424999Y-97850000D02*
X114675001Y-97850000D01*
G75*
G02*
X114925000Y-98099999I0J-249999D01*
G01*
X114925000Y-98900001D01*
G75*
G02*
X114675001Y-99150000I-249999J0D01*
G01*
X113424999Y-99150000D01*
G75*
G02*
X113175000Y-98900001I0J249999D01*
G01*
X113175000Y-98099999D01*
G75*
G02*
X113424999Y-97850000I249999J0D01*
G01*
G37*
G36*
G01*
X113424999Y-94750000D02*
X114675001Y-94750000D01*
G75*
G02*
X114925000Y-94999999I0J-249999D01*
G01*
X114925000Y-95800001D01*
G75*
G02*
X114675001Y-96050000I-249999J0D01*
G01*
X113424999Y-96050000D01*
G75*
G02*
X113175000Y-95800001I0J249999D01*
G01*
X113175000Y-94999999D01*
G75*
G02*
X113424999Y-94750000I249999J0D01*
G01*
G37*
%TD*%
%TO.C,R3*%
G36*
G01*
X110924999Y-97850000D02*
X112175001Y-97850000D01*
G75*
G02*
X112425000Y-98099999I0J-249999D01*
G01*
X112425000Y-98900001D01*
G75*
G02*
X112175001Y-99150000I-249999J0D01*
G01*
X110924999Y-99150000D01*
G75*
G02*
X110675000Y-98900001I0J249999D01*
G01*
X110675000Y-98099999D01*
G75*
G02*
X110924999Y-97850000I249999J0D01*
G01*
G37*
G36*
G01*
X110924999Y-94750000D02*
X112175001Y-94750000D01*
G75*
G02*
X112425000Y-94999999I0J-249999D01*
G01*
X112425000Y-95800001D01*
G75*
G02*
X112175001Y-96050000I-249999J0D01*
G01*
X110924999Y-96050000D01*
G75*
G02*
X110675000Y-95800001I0J249999D01*
G01*
X110675000Y-94999999D01*
G75*
G02*
X110924999Y-94750000I249999J0D01*
G01*
G37*
%TD*%
%TO.C,R2*%
G36*
G01*
X97864999Y-97850000D02*
X99115001Y-97850000D01*
G75*
G02*
X99365000Y-98099999I0J-249999D01*
G01*
X99365000Y-98900001D01*
G75*
G02*
X99115001Y-99150000I-249999J0D01*
G01*
X97864999Y-99150000D01*
G75*
G02*
X97615000Y-98900001I0J249999D01*
G01*
X97615000Y-98099999D01*
G75*
G02*
X97864999Y-97850000I249999J0D01*
G01*
G37*
G36*
G01*
X97864999Y-94750000D02*
X99115001Y-94750000D01*
G75*
G02*
X99365000Y-94999999I0J-249999D01*
G01*
X99365000Y-95800001D01*
G75*
G02*
X99115001Y-96050000I-249999J0D01*
G01*
X97864999Y-96050000D01*
G75*
G02*
X97615000Y-95800001I0J249999D01*
G01*
X97615000Y-94999999D01*
G75*
G02*
X97864999Y-94750000I249999J0D01*
G01*
G37*
%TD*%
%TO.C,R1*%
G36*
G01*
X100404999Y-97850000D02*
X101655001Y-97850000D01*
G75*
G02*
X101905000Y-98099999I0J-249999D01*
G01*
X101905000Y-98900001D01*
G75*
G02*
X101655001Y-99150000I-249999J0D01*
G01*
X100404999Y-99150000D01*
G75*
G02*
X100155000Y-98900001I0J249999D01*
G01*
X100155000Y-98099999D01*
G75*
G02*
X100404999Y-97850000I249999J0D01*
G01*
G37*
G36*
G01*
X100404999Y-94750000D02*
X101655001Y-94750000D01*
G75*
G02*
X101905000Y-94999999I0J-249999D01*
G01*
X101905000Y-95800001D01*
G75*
G02*
X101655001Y-96050000I-249999J0D01*
G01*
X100404999Y-96050000D01*
G75*
G02*
X100155000Y-95800001I0J249999D01*
G01*
X100155000Y-94999999D01*
G75*
G02*
X100404999Y-94750000I249999J0D01*
G01*
G37*
%TD*%
%TO.C,M1*%
X102560000Y-84230000D03*
D14*
X100020000Y-84230000D03*
D10*
X97480000Y-84230000D03*
%TD*%
D15*
%TO.C,J3*%
X126550000Y-93150000D03*
X124050000Y-93150000D03*
X121550000Y-93150000D03*
X119050000Y-93150000D03*
X116550000Y-93150000D03*
X114050000Y-93150000D03*
X111550000Y-93150000D03*
G36*
G01*
X108200000Y-93825000D02*
X108200000Y-92475000D01*
G75*
G02*
X108450000Y-92225000I250000J0D01*
G01*
X109650000Y-92225000D01*
G75*
G02*
X109900000Y-92475000I0J-250000D01*
G01*
X109900000Y-93825000D01*
G75*
G02*
X109650000Y-94075000I-250000J0D01*
G01*
X108450000Y-94075000D01*
G75*
G02*
X108200000Y-93825000I0J250000D01*
G01*
G37*
%TD*%
D10*
%TO.C,J1*%
X104075000Y-97905000D03*
X95425000Y-97905000D03*
D11*
X104075000Y-93725000D03*
X95425000Y-93725000D03*
D16*
X102640000Y-94205000D03*
X96860000Y-94205000D03*
%TD*%
M02*
