%TF.GenerationSoftware,KiCad,Pcbnew,(6.0.2-0)*%
%TF.CreationDate,2022-03-20T16:29:31+00:00*%
%TF.ProjectId,EnvMon,456e764d-6f6e-42e6-9b69-6361645f7063,4*%
%TF.SameCoordinates,Original*%
%TF.FileFunction,Copper,L2,Bot*%
%TF.FilePolarity,Positive*%
%FSLAX46Y46*%
G04 Gerber Fmt 4.6, Leading zero omitted, Abs format (unit mm)*
G04 Created by KiCad (PCBNEW (6.0.2-0)) date 2022-03-20 16:29:31*
%MOMM*%
%LPD*%
G01*
G04 APERTURE LIST*
G04 Aperture macros list*
%AMRoundRect*
0 Rectangle with rounded corners*
0 $1 Rounding radius*
0 $2 $3 $4 $5 $6 $7 $8 $9 X,Y pos of 4 corners*
0 Add a 4 corners polygon primitive as box body*
4,1,4,$2,$3,$4,$5,$6,$7,$8,$9,$2,$3,0*
0 Add four circle primitives for the rounded corners*
1,1,$1+$1,$2,$3*
1,1,$1+$1,$4,$5*
1,1,$1+$1,$6,$7*
1,1,$1+$1,$8,$9*
0 Add four rect primitives between the rounded corners*
20,1,$1+$1,$2,$3,$4,$5,0*
20,1,$1+$1,$4,$5,$6,$7,0*
20,1,$1+$1,$6,$7,$8,$9,0*
20,1,$1+$1,$8,$9,$2,$3,0*%
G04 Aperture macros list end*
%ADD10C,0.300000*%
%TA.AperFunction,NonConductor*%
%ADD11C,0.300000*%
%TD*%
%ADD12C,0.080000*%
%TA.AperFunction,NonConductor*%
%ADD13C,0.080000*%
%TD*%
%TA.AperFunction,EtchedComponent*%
%ADD14C,0.080000*%
%TD*%
%TA.AperFunction,EtchedComponent*%
%ADD15C,0.250000*%
%TD*%
%TA.AperFunction,EtchedComponent*%
%ADD16C,0.375000*%
%TD*%
%TA.AperFunction,EtchedComponent*%
%ADD17C,0.200000*%
%TD*%
%TA.AperFunction,ComponentPad*%
%ADD18R,2.000000X2.000000*%
%TD*%
%TA.AperFunction,ComponentPad*%
%ADD19C,2.000000*%
%TD*%
%TA.AperFunction,ComponentPad*%
%ADD20C,0.670000*%
%TD*%
%TA.AperFunction,ComponentPad*%
%ADD21C,1.250000*%
%TD*%
%TA.AperFunction,ComponentPad*%
%ADD22C,1.500000*%
%TD*%
%TA.AperFunction,ComponentPad*%
%ADD23RoundRect,0.250000X-0.600000X-0.675000X0.600000X-0.675000X0.600000X0.675000X-0.600000X0.675000X0*%
%TD*%
%TA.AperFunction,ComponentPad*%
%ADD24O,1.700000X1.850000*%
%TD*%
%TA.AperFunction,ComponentPad*%
%ADD25C,1.700000*%
%TD*%
%TA.AperFunction,SMDPad,CuDef*%
%ADD26C,2.000000*%
%TD*%
%TA.AperFunction,SMDPad,CuDef*%
%ADD27RoundRect,0.250000X-0.625000X0.400000X-0.625000X-0.400000X0.625000X-0.400000X0.625000X0.400000X0*%
%TD*%
%TA.AperFunction,ViaPad*%
%ADD28C,0.800000*%
%TD*%
%TA.AperFunction,Conductor*%
%ADD29C,0.250000*%
%TD*%
%TA.AperFunction,Conductor*%
%ADD30C,0.500000*%
%TD*%
G04 APERTURE END LIST*
D10*
D11*
X131878571Y-78014285D02*
X132878571Y-78300000D01*
X132164285Y-78585714D01*
X132878571Y-78871428D01*
X131878571Y-79157142D01*
X131878571Y-79585714D02*
X132878571Y-79871428D01*
X132164285Y-80157142D01*
X132878571Y-80442857D01*
X131878571Y-80728571D01*
X131878571Y-81157142D02*
X132878571Y-81442857D01*
X132164285Y-81728571D01*
X132878571Y-82014285D01*
X131878571Y-82300000D01*
X132735714Y-82871428D02*
X132807142Y-82942857D01*
X132878571Y-82871428D01*
X132807142Y-82800000D01*
X132735714Y-82871428D01*
X132878571Y-82871428D01*
X132878571Y-83585714D02*
X131878571Y-83585714D01*
X132021428Y-83585714D02*
X131950000Y-83657142D01*
X131878571Y-83800000D01*
X131878571Y-84014285D01*
X131950000Y-84157142D01*
X132092857Y-84228571D01*
X132878571Y-84228571D01*
X132092857Y-84228571D02*
X131950000Y-84300000D01*
X131878571Y-84442857D01*
X131878571Y-84657142D01*
X131950000Y-84800000D01*
X132092857Y-84871428D01*
X132878571Y-84871428D01*
X132807142Y-86157142D02*
X132878571Y-86014285D01*
X132878571Y-85728571D01*
X132807142Y-85585714D01*
X132664285Y-85514285D01*
X132092857Y-85514285D01*
X131950000Y-85585714D01*
X131878571Y-85728571D01*
X131878571Y-86014285D01*
X131950000Y-86157142D01*
X132092857Y-86228571D01*
X132235714Y-86228571D01*
X132378571Y-85514285D01*
X132735714Y-86871428D02*
X132807142Y-86942857D01*
X132878571Y-86871428D01*
X132807142Y-86800000D01*
X132735714Y-86871428D01*
X132878571Y-86871428D01*
X131878571Y-88228571D02*
X132878571Y-88228571D01*
X131878571Y-87585714D02*
X132664285Y-87585714D01*
X132807142Y-87657142D01*
X132878571Y-87800000D01*
X132878571Y-88014285D01*
X132807142Y-88157142D01*
X132735714Y-88228571D01*
X132878571Y-88942857D02*
X131378571Y-88942857D01*
X132307142Y-89085714D02*
X132878571Y-89514285D01*
X131878571Y-89514285D02*
X132450000Y-88942857D01*
D12*
D13*
X117428571Y-69773809D02*
X117404761Y-69750000D01*
X117357142Y-69726190D01*
X117238095Y-69726190D01*
X117190476Y-69750000D01*
X117166666Y-69773809D01*
X117142857Y-69821428D01*
X117142857Y-69869047D01*
X117166666Y-69940476D01*
X117452380Y-70226190D01*
X117142857Y-70226190D01*
X116833333Y-69726190D02*
X116785714Y-69726190D01*
X116738095Y-69750000D01*
X116714285Y-69773809D01*
X116690476Y-69821428D01*
X116666666Y-69916666D01*
X116666666Y-70035714D01*
X116690476Y-70130952D01*
X116714285Y-70178571D01*
X116738095Y-70202380D01*
X116785714Y-70226190D01*
X116833333Y-70226190D01*
X116880952Y-70202380D01*
X116904761Y-70178571D01*
X116928571Y-70130952D01*
X116952380Y-70035714D01*
X116952380Y-69916666D01*
X116928571Y-69821428D01*
X116904761Y-69773809D01*
X116880952Y-69750000D01*
X116833333Y-69726190D01*
X116476190Y-69773809D02*
X116452380Y-69750000D01*
X116404761Y-69726190D01*
X116285714Y-69726190D01*
X116238095Y-69750000D01*
X116214285Y-69773809D01*
X116190476Y-69821428D01*
X116190476Y-69869047D01*
X116214285Y-69940476D01*
X116500000Y-70226190D01*
X116190476Y-70226190D01*
X116000000Y-69773809D02*
X115976190Y-69750000D01*
X115928571Y-69726190D01*
X115809523Y-69726190D01*
X115761904Y-69750000D01*
X115738095Y-69773809D01*
X115714285Y-69821428D01*
X115714285Y-69869047D01*
X115738095Y-69940476D01*
X116023809Y-70226190D01*
X115714285Y-70226190D01*
X115500000Y-70035714D02*
X115119047Y-70035714D01*
X114785714Y-69726190D02*
X114738095Y-69726190D01*
X114690476Y-69750000D01*
X114666666Y-69773809D01*
X114642857Y-69821428D01*
X114619047Y-69916666D01*
X114619047Y-70035714D01*
X114642857Y-70130952D01*
X114666666Y-70178571D01*
X114690476Y-70202380D01*
X114738095Y-70226190D01*
X114785714Y-70226190D01*
X114833333Y-70202380D01*
X114857142Y-70178571D01*
X114880952Y-70130952D01*
X114904761Y-70035714D01*
X114904761Y-69916666D01*
X114880952Y-69821428D01*
X114857142Y-69773809D01*
X114833333Y-69750000D01*
X114785714Y-69726190D01*
X114452380Y-69726190D02*
X114142857Y-69726190D01*
X114309523Y-69916666D01*
X114238095Y-69916666D01*
X114190476Y-69940476D01*
X114166666Y-69964285D01*
X114142857Y-70011904D01*
X114142857Y-70130952D01*
X114166666Y-70178571D01*
X114190476Y-70202380D01*
X114238095Y-70226190D01*
X114380952Y-70226190D01*
X114428571Y-70202380D01*
X114452380Y-70178571D01*
X113928571Y-70035714D02*
X113547619Y-70035714D01*
X113333333Y-69773809D02*
X113309523Y-69750000D01*
X113261904Y-69726190D01*
X113142857Y-69726190D01*
X113095238Y-69750000D01*
X113071428Y-69773809D01*
X113047619Y-69821428D01*
X113047619Y-69869047D01*
X113071428Y-69940476D01*
X113357142Y-70226190D01*
X113047619Y-70226190D01*
X112738095Y-69726190D02*
X112690476Y-69726190D01*
X112642857Y-69750000D01*
X112619047Y-69773809D01*
X112595238Y-69821428D01*
X112571428Y-69916666D01*
X112571428Y-70035714D01*
X112595238Y-70130952D01*
X112619047Y-70178571D01*
X112642857Y-70202380D01*
X112690476Y-70226190D01*
X112738095Y-70226190D01*
X112785714Y-70202380D01*
X112809523Y-70178571D01*
X112833333Y-70130952D01*
X112857142Y-70035714D01*
X112857142Y-69916666D01*
X112833333Y-69821428D01*
X112809523Y-69773809D01*
X112785714Y-69750000D01*
X112738095Y-69726190D01*
D14*
%TO.C,Logo2*%
X131910000Y-72050000D02*
X131910000Y-72150000D01*
D15*
X127700000Y-72900000D02*
X131900000Y-72900000D01*
D14*
X131750000Y-72050000D02*
X132050000Y-72050000D01*
D15*
X127800000Y-74700000D02*
X129800000Y-72900000D01*
X129800000Y-72900000D02*
X131900000Y-74700000D01*
D14*
X131910000Y-72150000D02*
X132050000Y-72250000D01*
D15*
X129800000Y-72900000D02*
X129800000Y-71400000D01*
X127700000Y-72900000D02*
X131900000Y-69900000D01*
D14*
X131750000Y-72050000D02*
X131750000Y-72150000D01*
X131750000Y-72150000D02*
G75*
G03*
X131910000Y-72150000I80000J0D01*
G01*
D15*
X131900000Y-72900000D02*
G75*
G03*
X131900000Y-71400000I0J750000D01*
G01*
D14*
X132210000Y-72130000D02*
G75*
G03*
X132210000Y-72130000I-300000J0D01*
G01*
D16*
%TO.C,Logo1*%
X129537500Y-82600000D02*
G75*
G03*
X129537500Y-82600000I-937500J0D01*
G01*
D17*
X131000000Y-83800000D02*
G75*
G03*
X131000000Y-83800000I-2400000J0D01*
G01*
D16*
X129537500Y-85000000D02*
G75*
G03*
X129537500Y-85000000I-937500J0D01*
G01*
G36*
X129525000Y-84250000D02*
G01*
X127500000Y-84250000D01*
X127500000Y-83875000D01*
X129700000Y-83875000D01*
X129525000Y-84250000D01*
G37*
G36*
X129700000Y-83725000D02*
G01*
X127500000Y-83725000D01*
X127500000Y-83350000D01*
X129525000Y-83350000D01*
X129700000Y-83725000D01*
G37*
%TD*%
D18*
%TO.P,J2,1,GND*%
%TO.N,GND*%
X106025000Y-98552000D03*
D19*
%TO.P,J2,2,DC*%
%TO.N,DC*%
X106025000Y-96012000D03*
%TD*%
D20*
%TO.P,J1,S1,SHIELD*%
%TO.N,GND*%
X102640000Y-94205000D03*
D21*
X104070000Y-97885000D03*
D22*
X95430000Y-93715000D03*
X104070000Y-93715000D03*
D20*
X96860000Y-94205000D03*
D21*
X95430000Y-97885000D03*
%TD*%
D23*
%TO.P,J3,1,Pin_1*%
%TO.N,GND*%
X109050000Y-93150000D03*
D24*
%TO.P,J3,2,Pin_2*%
%TO.N,IO1*%
X111550000Y-93150000D03*
%TO.P,J3,3,Pin_3*%
%TO.N,IO2*%
X114050000Y-93150000D03*
%TO.P,J3,4,Pin_4*%
%TO.N,IO3*%
X116550000Y-93150000D03*
%TO.P,J3,5,Pin_5*%
%TO.N,IO4*%
X119050000Y-93150000D03*
%TO.P,J3,6,Pin_6*%
%TO.N,IO5*%
X121550000Y-93150000D03*
%TO.P,J3,7,Pin_7*%
%TO.N,IO6*%
X124050000Y-93150000D03*
%TO.P,J3,8,Pin_8*%
%TO.N,IO7*%
X126550000Y-93150000D03*
%TD*%
D25*
%TO.P,M2,1,Vcc*%
%TO.N,+3V3*%
X92500000Y-73880000D03*
%TO.P,M2,2,GND*%
%TO.N,GND*%
X92500000Y-76420000D03*
%TO.P,M2,3,DIN*%
%TO.N,OLED-MOSI*%
X92500000Y-78960000D03*
%TO.P,M2,4,CLK*%
%TO.N,OLED-SCLK*%
X92500000Y-81500000D03*
%TO.P,M2,5,CS*%
%TO.N,OLED-CS0*%
X92500000Y-84040000D03*
%TO.P,M2,6,DC*%
%TO.N,OLED-DC*%
X92500000Y-86580000D03*
%TO.P,M2,7,RST*%
%TO.N,OLED-RST*%
X92500000Y-89120000D03*
%TD*%
D26*
%TO.P,M1,*%
%TO.N,*%
X129200000Y-88200000D03*
X129200000Y-79700000D03*
D25*
%TO.P,M1,1,VDD*%
%TO.N,+3V3*%
X96600000Y-70800000D03*
%TO.P,M1,2,GND*%
%TO.N,GND*%
X99140000Y-70800000D03*
%TO.P,M1,3,TX/SCL*%
%TO.N,CO2-SCL*%
X101680000Y-70800000D03*
%TO.P,M1,4,RX/SDA*%
%TO.N,CO2-SDA*%
X104220000Y-70800000D03*
%TD*%
D27*
%TO.P,R8,1*%
%TO.N,IO1*%
X111550000Y-95400000D03*
%TO.P,R8,2*%
%TO.N,+3V3*%
X111550000Y-98500000D03*
%TD*%
%TO.P,R9,1*%
%TO.N,IO2*%
X114050000Y-95400000D03*
%TO.P,R9,2*%
%TO.N,+3V3*%
X114050000Y-98500000D03*
%TD*%
%TO.P,R10,1*%
%TO.N,IO3*%
X116550000Y-95400000D03*
%TO.P,R10,2*%
%TO.N,+3V3*%
X116550000Y-98500000D03*
%TD*%
%TO.P,R11,1*%
%TO.N,IO4*%
X119050000Y-95400000D03*
%TO.P,R11,2*%
%TO.N,+3V3*%
X119050000Y-98500000D03*
%TD*%
%TO.P,R12,1*%
%TO.N,IO5*%
X121550000Y-95400000D03*
%TO.P,R12,2*%
%TO.N,+3V3*%
X121550000Y-98500000D03*
%TD*%
%TO.P,R13,1*%
%TO.N,IO6*%
X124050000Y-95400000D03*
%TO.P,R13,2*%
%TO.N,+3V3*%
X124050000Y-98500000D03*
%TD*%
%TO.P,R14,1*%
%TO.N,IO7*%
X126550000Y-95400000D03*
%TO.P,R14,2*%
%TO.N,+3V3*%
X126550000Y-98500000D03*
%TD*%
D28*
%TO.N,GND*%
X99822000Y-87376000D03*
%TO.N,DC*%
X94996000Y-87375500D03*
%TO.N,Net-(J1-PadA7)*%
X98257361Y-91299011D03*
X100341268Y-91642253D03*
%TO.N,Net-(J1-PadA6)*%
X99269935Y-91299011D03*
X101231556Y-91187948D03*
%TO.N,Net-(J1-PadA5)*%
X91800000Y-90500000D03*
X97254221Y-91299420D03*
%TO.N,Net-(J1-PadB5)*%
X93300000Y-90500000D03*
X102215212Y-91365221D03*
%TO.N,Net-(U2-Pad19)*%
X109001768Y-73300092D03*
X98757497Y-84825027D03*
%TO.N,Net-(U2-Pad18)*%
X103676016Y-86981767D03*
X124349991Y-88845089D03*
%TO.N,Net-(U2-Pad17)*%
X120650155Y-75574979D03*
X103674990Y-85861051D03*
%TO.N,GND*%
X104249974Y-81723400D03*
X99900000Y-84000000D03*
X99575000Y-81700000D03*
%TO.N,+3V3*%
X104342133Y-90988360D03*
X103821105Y-88455704D03*
X96450010Y-86665976D03*
X105153408Y-73817094D03*
%TO.N,OLED-RST*%
X119003892Y-81521428D03*
%TO.N,OLED-DC*%
X120300000Y-77500000D03*
%TO.N,OLED-CS0*%
X120461390Y-81053482D03*
%TO.N,OLED-SCLK*%
X120011379Y-79673314D03*
%TO.N,OLED-MOSI*%
X118250022Y-79018618D03*
%TO.N,IO6*%
X107800000Y-91200000D03*
%TO.N,IO5*%
X110384222Y-91371245D03*
%TO.N,IO4*%
X106645627Y-91463228D03*
%TO.N,R*%
X108739090Y-86005365D03*
X110443109Y-71617790D03*
X97400000Y-68900000D03*
X108367377Y-84529106D03*
%TO.N,G*%
X111227906Y-70998018D03*
X97400000Y-66500000D03*
%TO.N,B*%
X97400000Y-67700000D03*
X108900000Y-71100000D03*
%TO.N,Net-(U2-Pad1)*%
X96530839Y-87772125D03*
X121339855Y-74475010D03*
%TD*%
D29*
%TO.N,DC*%
X94996000Y-87375500D02*
X94996000Y-88966521D01*
X95654901Y-89625422D02*
G75*
G02*
X94996000Y-88966521I1J658902D01*
G01*
X102231331Y-90300669D02*
X105533331Y-93602669D01*
X106025000Y-94789662D02*
G75*
G03*
X105533331Y-93602669I-1678665J-2D01*
G01*
X106025000Y-94789662D02*
X106025000Y-96012000D01*
X102231331Y-90300669D02*
G75*
G03*
X100601141Y-89625422I-1630191J-1630192D01*
G01*
X95654901Y-89625422D02*
X100601141Y-89625422D01*
%TO.N,Net-(J1-PadA6)*%
X99801575Y-90767371D02*
G75*
G03*
X99269935Y-91299011I1J-531641D01*
G01*
X101231556Y-91187948D02*
G75*
G03*
X100810979Y-90767371I-420576J1D01*
G01*
X99801575Y-90767371D02*
X100810979Y-90767371D01*
%TO.N,Net-(J1-PadB5)*%
X93500716Y-90299284D02*
X101149275Y-90299284D01*
X102215212Y-91365221D02*
G75*
G03*
X101149275Y-90299284I-1065938J-1D01*
G01*
X93300000Y-90500000D02*
X93500716Y-90299284D01*
%TO.N,Net-(J1-PadA7)*%
X100236014Y-92063465D02*
X100341268Y-91958211D01*
X98527955Y-92100000D02*
X100027735Y-92100000D01*
X100341268Y-91958211D02*
X100341268Y-91642253D01*
X98527955Y-92100000D02*
G75*
G02*
X98257361Y-91829406I-1J270593D01*
G01*
X98257361Y-91299011D02*
X98257361Y-91829406D01*
X100236014Y-92063465D02*
G75*
G02*
X100027735Y-92100000I-219458J639144D01*
G01*
%TO.N,Net-(J1-PadA5)*%
X92550000Y-91250000D02*
X97204801Y-91250000D01*
X97204801Y-91250000D02*
X97254221Y-91299420D01*
X92550000Y-91250000D02*
G75*
G02*
X91800000Y-90500000I0J750000D01*
G01*
%TO.N,Net-(U2-Pad19)*%
X109001768Y-77601768D02*
X109001768Y-73300092D01*
X104183295Y-85283295D02*
X106054992Y-87154992D01*
X120672800Y-76700000D02*
X119424264Y-76700000D01*
X121186400Y-87413534D02*
X121186400Y-77213600D01*
X115950055Y-78149945D02*
X109549945Y-78149945D01*
X116992893Y-77707107D02*
X116974319Y-77725681D01*
X99181010Y-85000452D02*
X103500452Y-85000452D01*
X107249967Y-87649967D02*
X120949967Y-87649967D01*
X116992893Y-77707107D02*
G75*
G02*
X119424264Y-76700000I2431372J-2431373D01*
G01*
X107249967Y-87649967D02*
G75*
G02*
X106054992Y-87154992I-1J1689946D01*
G01*
X109001768Y-77601768D02*
G75*
G03*
X109549945Y-78149945I548176J-1D01*
G01*
X121186400Y-87413534D02*
G75*
G02*
X120949967Y-87649967I-236434J1D01*
G01*
X120672800Y-76700000D02*
G75*
G02*
X121186400Y-77213600I0J-513600D01*
G01*
X115950055Y-78149944D02*
G75*
G03*
X116974318Y-77725680I-1J1448530D01*
G01*
X99181010Y-85000452D02*
G75*
G02*
X98757497Y-84825027I-3J598930D01*
G01*
X104183295Y-85283295D02*
G75*
G03*
X103500452Y-85000452I-682845J-682848D01*
G01*
%TO.N,Net-(U2-Pad18)*%
X106442235Y-88549989D02*
X124054891Y-88549989D01*
X103676016Y-86981767D02*
X104397124Y-87702876D01*
X106442235Y-88549989D02*
G75*
G02*
X104397124Y-87702876I3J2892229D01*
G01*
X124349991Y-88845089D02*
G75*
G03*
X124054891Y-88549989I-295101J-1D01*
G01*
%TO.N,Net-(U2-Pad17)*%
X121215840Y-75574979D02*
X120650155Y-75574979D01*
X121720430Y-87579526D02*
X121720430Y-76079569D01*
X107000022Y-88099978D02*
X121199978Y-88099978D01*
X103674990Y-85861051D02*
X105145926Y-87331986D01*
X107000022Y-88099978D02*
G75*
G02*
X105145926Y-87331986I1J2622089D01*
G01*
X121720430Y-87579526D02*
G75*
G02*
X121199978Y-88099978I-520452J0D01*
G01*
X121215840Y-75574979D02*
G75*
G02*
X121720430Y-76079569I0J-504590D01*
G01*
D30*
%TO.N,GND*%
X98800000Y-86800000D02*
X96900000Y-84900000D01*
D29*
X95905000Y-94205000D02*
X95425000Y-93725000D01*
D30*
X96900000Y-84375000D02*
X99575000Y-81700000D01*
D29*
X96860000Y-94205000D02*
X95905000Y-94205000D01*
D30*
X99400000Y-86800000D02*
X98800000Y-86800000D01*
D29*
X102640000Y-94205000D02*
X103595000Y-94205000D01*
X103595000Y-94205000D02*
X104075000Y-93725000D01*
D30*
X96900000Y-84900000D02*
X96900000Y-84375000D01*
D29*
%TO.N,+3V3*%
X96450010Y-86665976D02*
X96565976Y-86665976D01*
X105153408Y-73817094D02*
X97717094Y-73817094D01*
X111550000Y-98500000D02*
X114050000Y-98500000D01*
X97400000Y-87500000D02*
X97400000Y-88000000D01*
X119050000Y-98500000D02*
X121550000Y-98500000D01*
X121550000Y-98500000D02*
X124050000Y-98500000D01*
X110065001Y-95363999D02*
X110065001Y-98065001D01*
X104956864Y-91242990D02*
X108009773Y-94295899D01*
X124050000Y-98500000D02*
X126550000Y-98500000D01*
X96600000Y-72700000D02*
X96600000Y-70800000D01*
X110500000Y-98500000D02*
X111550000Y-98500000D01*
X116550000Y-98500000D02*
X119050000Y-98500000D01*
X114050000Y-98500000D02*
X116550000Y-98500000D01*
X98099520Y-88699520D02*
X103577289Y-88699520D01*
X108925001Y-94674999D02*
X109376001Y-94674999D01*
X110065001Y-95363999D02*
G75*
G03*
X109376001Y-94674999I-688999J1D01*
G01*
X103821105Y-88455704D02*
G75*
G02*
X103577289Y-88699520I-243816J0D01*
G01*
X108925001Y-94674998D02*
G75*
G02*
X108009774Y-94295898I-2J1294322D01*
G01*
X97400000Y-88000000D02*
G75*
G03*
X98099520Y-88699520I699521J1D01*
G01*
X97400000Y-87500000D02*
G75*
G03*
X96565976Y-86665976I-834024J0D01*
G01*
X96600000Y-72700000D02*
G75*
G03*
X97717094Y-73817094I1117093J-1D01*
G01*
X110500000Y-98500000D02*
G75*
G02*
X110065001Y-98065001I-1J434998D01*
G01*
X104956864Y-91242990D02*
G75*
G03*
X104342133Y-90988360I-614730J-614729D01*
G01*
%TO.N,OLED-RST*%
X117882464Y-80400000D02*
X94600000Y-80400000D01*
X93935000Y-81065000D02*
X93935000Y-88765000D01*
X92500000Y-89120000D02*
X93580000Y-89120000D01*
X117882464Y-80400000D02*
G75*
G02*
X119003892Y-81521428I-1J-1121429D01*
G01*
X93935000Y-88765000D02*
G75*
G02*
X93580000Y-89120000I-355000J0D01*
G01*
X93935000Y-81065000D02*
G75*
G02*
X94600000Y-80400000I665000J0D01*
G01*
%TO.N,OLED-DC*%
X118809478Y-77500000D02*
X120300000Y-77500000D01*
X90755001Y-84835001D02*
X90755001Y-76344999D01*
X95094868Y-78599956D02*
X116153950Y-78599956D01*
X91950001Y-75149999D02*
X92891009Y-75149999D01*
X93975000Y-76233990D02*
X93975000Y-77586092D01*
X93975000Y-76233990D02*
G75*
G03*
X92891009Y-75149999I-1083992J-1D01*
G01*
X118809478Y-77500000D02*
G75*
G03*
X117317852Y-78117852I-2J-2109472D01*
G01*
X90755001Y-84835001D02*
G75*
G03*
X92500000Y-86580000I1744998J-1D01*
G01*
X117317852Y-78117852D02*
G75*
G02*
X116153950Y-78599956I-1163899J1163895D01*
G01*
X94250000Y-78250000D02*
G75*
G02*
X93975000Y-77586092I663907J663908D01*
G01*
X91950001Y-75149999D02*
G75*
G03*
X90755001Y-76344999I-1J-1194999D01*
G01*
X95094868Y-78599956D02*
G75*
G02*
X94250000Y-78250000I-2J1194818D01*
G01*
%TO.N,OLED-CS0*%
X91324999Y-82864999D02*
X91324999Y-78395999D01*
X120736389Y-78972799D02*
X120736389Y-80778483D01*
X118242865Y-78213499D02*
X119977089Y-78213499D01*
X94844895Y-79049967D02*
X116223453Y-79049967D01*
X93438769Y-78138769D02*
X94000000Y-78700000D01*
X92125997Y-77595001D02*
G75*
G03*
X91324999Y-78395999I0J-800998D01*
G01*
X117585704Y-78485704D02*
G75*
G02*
X116223453Y-79049967I-1362247J1362242D01*
G01*
X120736389Y-78972799D02*
G75*
G03*
X119977089Y-78213499I-759301J-1D01*
G01*
X94844895Y-79049967D02*
G75*
G02*
X94000000Y-78700000I-4J1194852D01*
G01*
X93438769Y-78138769D02*
G75*
G03*
X92125997Y-77595001I-1312774J-1312776D01*
G01*
X118242865Y-78213500D02*
G75*
G03*
X117585705Y-78485705I-2J-929361D01*
G01*
X120461390Y-81053482D02*
G75*
G03*
X120736389Y-80778483I1J274998D01*
G01*
X91324999Y-82864999D02*
G75*
G03*
X92500000Y-84040000I1175002J1D01*
G01*
%TO.N,OLED-SCLK*%
X119734704Y-79949989D02*
X94050011Y-79949989D01*
X94050011Y-79949989D02*
G75*
G03*
X92500000Y-81500000I1J-1550012D01*
G01*
X119734704Y-79949989D02*
G75*
G03*
X120011379Y-79673314I1J276674D01*
G01*
%TO.N,OLED-MOSI*%
X93039978Y-79499978D02*
X117768662Y-79499978D01*
X93039978Y-79499978D02*
G75*
G02*
X92500000Y-78960000I0J539978D01*
G01*
X118250022Y-79018618D02*
G75*
G02*
X117768662Y-79499978I-481360J0D01*
G01*
%TO.N,IO7*%
X126550000Y-95400000D02*
X126550000Y-93150000D01*
%TO.N,IO6*%
X109117158Y-91200000D02*
X107800000Y-91200000D01*
X110576487Y-90646243D02*
X110353757Y-90646243D01*
X124050000Y-93150000D02*
X124050000Y-92150000D01*
X124050000Y-95400000D02*
X124050000Y-93150000D01*
X120096396Y-91449979D02*
X118232792Y-91449979D01*
X116956292Y-90921235D02*
X111240375Y-90921235D01*
X123700000Y-91800000D02*
X120941421Y-91800000D01*
X109670914Y-90929086D02*
X109600000Y-91000000D01*
X110843257Y-90756743D02*
G75*
G03*
X111240375Y-90921235I397119J397120D01*
G01*
X117750000Y-91250000D02*
G75*
G03*
X118232792Y-91449979I482793J482794D01*
G01*
X116956292Y-90921236D02*
G75*
G02*
X117749999Y-91250001I0J-1122471D01*
G01*
X109117158Y-91199999D02*
G75*
G03*
X109599999Y-90999999I1J682838D01*
G01*
X110576487Y-90646243D02*
G75*
G02*
X110843257Y-90756743I-2J-377273D01*
G01*
X109670914Y-90929086D02*
G75*
G02*
X110353757Y-90646243I682845J-682848D01*
G01*
X120700000Y-91700000D02*
G75*
G03*
X120941421Y-91800000I241421J241419D01*
G01*
X120096396Y-91449979D02*
G75*
G02*
X120700000Y-91700000I3J-853617D01*
G01*
X123700000Y-91800000D02*
G75*
G02*
X124050000Y-92150000I-1J-350001D01*
G01*
%TO.N,IO5*%
X121550000Y-95400000D02*
X121550000Y-93150000D01*
X118007652Y-91899990D02*
X119600010Y-91899990D01*
X110384222Y-91371245D02*
X116731150Y-91371245D01*
X120794951Y-92394951D02*
X121550000Y-93150000D01*
X120794951Y-92394951D02*
G75*
G03*
X119600010Y-91899990I-1194939J-1194936D01*
G01*
X117436563Y-91663437D02*
G75*
G03*
X116731150Y-91371245I-705414J-705413D01*
G01*
X118007652Y-91899990D02*
G75*
G02*
X117436563Y-91663437I0J807641D01*
G01*
%TO.N,IO4*%
X108148001Y-91925001D02*
X107107400Y-91925001D01*
X118286715Y-93150000D02*
X117318358Y-92181642D01*
X109700010Y-91899990D02*
X108208382Y-91899990D01*
X119050000Y-93150000D02*
X118286715Y-93150000D01*
X110535547Y-92225001D02*
X110381618Y-92225001D01*
X119050000Y-95400000D02*
X119050000Y-93150000D01*
X110094095Y-92105905D02*
X110021237Y-92033047D01*
X116638390Y-91899990D02*
X111320192Y-91899990D01*
X109700010Y-91899991D02*
G75*
G02*
X110021236Y-92033048I4J-454272D01*
G01*
X110881643Y-92081643D02*
G75*
G02*
X111320192Y-91899990I438549J-438548D01*
G01*
X116638390Y-91899991D02*
G75*
G02*
X117318357Y-92181643I0J-961619D01*
G01*
X108148001Y-91925001D02*
G75*
G02*
X108208382Y-91899990I60380J-60378D01*
G01*
X110535547Y-92225000D02*
G75*
G03*
X110881642Y-92081642I1J489450D01*
G01*
X106645627Y-91463228D02*
G75*
G03*
X107107400Y-91925001I461772J-1D01*
G01*
X110094095Y-92105905D02*
G75*
G03*
X110381618Y-92225001I287523J287524D01*
G01*
%TO.N,IO3*%
X116550000Y-95400000D02*
X116550000Y-93150000D01*
%TO.N,IO2*%
X114050000Y-95400000D02*
X114050000Y-93150000D01*
%TO.N,IO1*%
X111550000Y-95400000D02*
X111550000Y-93150000D01*
%TO.N,R*%
X109800000Y-72300000D02*
X109265685Y-72300000D01*
X97964999Y-72264999D02*
X97964999Y-69464999D01*
X108739090Y-85426500D02*
X108739090Y-86005365D01*
X110443109Y-71617790D02*
X110443109Y-71656891D01*
X98750011Y-73050011D02*
X107454999Y-73050011D01*
X109800000Y-72300000D02*
G75*
G03*
X110443109Y-71656891I1J643108D01*
G01*
X107454999Y-73050010D02*
G75*
G03*
X108300000Y-72700000I4J1195002D01*
G01*
X97964999Y-72264999D02*
G75*
G03*
X98750011Y-73050011I785013J1D01*
G01*
X97964999Y-69464999D02*
G75*
G03*
X97400000Y-68900000I-564998J1D01*
G01*
X108300000Y-72700000D02*
G75*
G02*
X109265685Y-72300000I965684J-965682D01*
G01*
X108739089Y-85426500D02*
G75*
G03*
X108367376Y-84529107I-1269101J2D01*
G01*
%TO.N,G*%
X97400000Y-66500000D02*
X100065377Y-69165377D01*
X101175001Y-69624999D02*
X109854887Y-69624999D01*
X111227906Y-70998018D02*
G75*
G03*
X109854887Y-69624999I-1373019J0D01*
G01*
X101175001Y-69624998D02*
G75*
G02*
X100065378Y-69165376I-1J1569241D01*
G01*
%TO.N,B*%
X100315001Y-71515001D02*
X100315001Y-70784999D01*
X108900000Y-71100000D02*
X107999253Y-72000747D01*
X99926799Y-69847797D02*
X98046997Y-67967995D01*
X106974988Y-72425012D02*
X101225012Y-72425012D01*
X106974988Y-72425012D02*
G75*
G03*
X107999253Y-72000747I-4J1448537D01*
G01*
X97400000Y-67700001D02*
G75*
G02*
X98046996Y-67967996I0J-914991D01*
G01*
X100315001Y-71515001D02*
G75*
G03*
X101225012Y-72425012I910011J0D01*
G01*
X99926799Y-69847797D02*
G75*
G02*
X100315001Y-70784999I-937208J-937205D01*
G01*
%TO.N,Net-(U2-Pad1)*%
X104341422Y-89158579D02*
X104400000Y-89100000D01*
X123810633Y-89570090D02*
X124529910Y-89570090D01*
X103741421Y-89300000D02*
X104000000Y-89300000D01*
X96500000Y-87802964D02*
X96500000Y-88600000D01*
X122232422Y-87532422D02*
X122232422Y-75367577D01*
X104641421Y-89000000D02*
X122434315Y-89000000D01*
X97049031Y-89149031D02*
X103376950Y-89149031D01*
X125200000Y-88900000D02*
X125200000Y-88726996D01*
X124436502Y-87963498D02*
X122663498Y-87963498D01*
X123810633Y-89570089D02*
G75*
G02*
X123400001Y-89399999I0J580722D01*
G01*
X96500000Y-87802964D02*
G75*
G02*
X96530839Y-87772125I30841J-2D01*
G01*
X97049031Y-89149031D02*
G75*
G02*
X96500000Y-88600000I-2J549029D01*
G01*
X124436502Y-87963498D02*
G75*
G02*
X125200000Y-88726996I1J-763497D01*
G01*
X103741421Y-89300000D02*
G75*
G02*
X103500000Y-89200000I0J341419D01*
G01*
X103500000Y-89200000D02*
G75*
G03*
X103376950Y-89149031I-123048J-123046D01*
G01*
X104641421Y-89000000D02*
G75*
G03*
X104400000Y-89100000I0J-341419D01*
G01*
X122232422Y-87532422D02*
G75*
G03*
X122663498Y-87963498I431075J-1D01*
G01*
X123400000Y-89400000D02*
G75*
G03*
X122434315Y-89000000I-965684J-965682D01*
G01*
X104341422Y-89158579D02*
G75*
G02*
X104000000Y-89300000I-341422J341424D01*
G01*
X125200000Y-88900000D02*
G75*
G02*
X124529910Y-89570090I-670091J1D01*
G01*
X121339855Y-74475010D02*
G75*
G02*
X122232422Y-75367577I-1J-892568D01*
G01*
%TD*%
%TA.AperFunction,Conductor*%
%TO.N,GND*%
G36*
X131573549Y-63274002D02*
G01*
X131620042Y-63327658D01*
X131630146Y-63397932D01*
X131600652Y-63462512D01*
X131540926Y-63500896D01*
X131531627Y-63503247D01*
X131433425Y-63524120D01*
X131429294Y-63525624D01*
X131429289Y-63525625D01*
X131311616Y-63568455D01*
X131163950Y-63622201D01*
X131160063Y-63624268D01*
X130914639Y-63754761D01*
X130914633Y-63754765D01*
X130910747Y-63756831D01*
X130907187Y-63759418D01*
X130907183Y-63759420D01*
X130796429Y-63839888D01*
X130678746Y-63925390D01*
X130675582Y-63928446D01*
X130675579Y-63928448D01*
X130475626Y-64121540D01*
X130475622Y-64121545D01*
X130472461Y-64124597D01*
X130469754Y-64128062D01*
X130469752Y-64128064D01*
X130386592Y-64234504D01*
X130295907Y-64350575D01*
X130293704Y-64354391D01*
X130227765Y-64468602D01*
X130152523Y-64598925D01*
X130045097Y-64864813D01*
X129975721Y-65143065D01*
X129945745Y-65428264D01*
X129945898Y-65432652D01*
X129945898Y-65432658D01*
X129950908Y-65576105D01*
X129955753Y-65714859D01*
X129956515Y-65719182D01*
X129956516Y-65719189D01*
X129980805Y-65856935D01*
X130005550Y-65997272D01*
X130006905Y-66001443D01*
X130006907Y-66001450D01*
X130027573Y-66065052D01*
X130094167Y-66270006D01*
X130096095Y-66273959D01*
X130096097Y-66273964D01*
X130129638Y-66342733D01*
X130219879Y-66527753D01*
X130380238Y-66765496D01*
X130383182Y-66768765D01*
X130383183Y-66768767D01*
X130422781Y-66812744D01*
X130572125Y-66978608D01*
X130791803Y-67162940D01*
X131034998Y-67314905D01*
X131296975Y-67431545D01*
X131572636Y-67510589D01*
X131576986Y-67511200D01*
X131576989Y-67511201D01*
X131681342Y-67525867D01*
X131856615Y-67550500D01*
X132071604Y-67550500D01*
X132073790Y-67550347D01*
X132073794Y-67550347D01*
X132281686Y-67535810D01*
X132281691Y-67535809D01*
X132286071Y-67535503D01*
X132290365Y-67534590D01*
X132290367Y-67534590D01*
X132408984Y-67509377D01*
X132566575Y-67475880D01*
X132570706Y-67474376D01*
X132570711Y-67474375D01*
X132823881Y-67382228D01*
X132836050Y-67377799D01*
X132954337Y-67314905D01*
X133085361Y-67245239D01*
X133085367Y-67245235D01*
X133089253Y-67243169D01*
X133092813Y-67240582D01*
X133092817Y-67240580D01*
X133317691Y-67077199D01*
X133317694Y-67077197D01*
X133321254Y-67074610D01*
X133328297Y-67067809D01*
X133524374Y-66878460D01*
X133524378Y-66878455D01*
X133527539Y-66875403D01*
X133610853Y-66768767D01*
X133701381Y-66652896D01*
X133704093Y-66649425D01*
X133763458Y-66546601D01*
X133845276Y-66404888D01*
X133845278Y-66404883D01*
X133847477Y-66401075D01*
X133954903Y-66135187D01*
X133997743Y-65963365D01*
X134033631Y-65902107D01*
X134096940Y-65869975D01*
X134167571Y-65877172D01*
X134223098Y-65921413D01*
X134246000Y-65993847D01*
X134246000Y-96989151D01*
X134225998Y-97057272D01*
X134172342Y-97103765D01*
X134102068Y-97113869D01*
X134037488Y-97084375D01*
X133999104Y-97024649D01*
X133995914Y-97011030D01*
X133995213Y-97007053D01*
X133995212Y-97007048D01*
X133994450Y-97002728D01*
X133993095Y-96998557D01*
X133993093Y-96998550D01*
X133935551Y-96821457D01*
X133905833Y-96729994D01*
X133780121Y-96472247D01*
X133619762Y-96234504D01*
X133616314Y-96230674D01*
X133520801Y-96124597D01*
X133427875Y-96021392D01*
X133208197Y-95837060D01*
X132965002Y-95685095D01*
X132703025Y-95568455D01*
X132427364Y-95489411D01*
X132423014Y-95488800D01*
X132423011Y-95488799D01*
X132318658Y-95474133D01*
X132143385Y-95449500D01*
X131928396Y-95449500D01*
X131926210Y-95449653D01*
X131926206Y-95449653D01*
X131718314Y-95464190D01*
X131718309Y-95464191D01*
X131713929Y-95464497D01*
X131709635Y-95465410D01*
X131709633Y-95465410D01*
X131599597Y-95488799D01*
X131433425Y-95524120D01*
X131429294Y-95525624D01*
X131429289Y-95525625D01*
X131311616Y-95568455D01*
X131163950Y-95622201D01*
X131160063Y-95624268D01*
X130914639Y-95754761D01*
X130914633Y-95754765D01*
X130910747Y-95756831D01*
X130907187Y-95759418D01*
X130907183Y-95759420D01*
X130682309Y-95922801D01*
X130678746Y-95925390D01*
X130675582Y-95928446D01*
X130675579Y-95928448D01*
X130475626Y-96121540D01*
X130475622Y-96121545D01*
X130472461Y-96124597D01*
X130469754Y-96128062D01*
X130469752Y-96128064D01*
X130386592Y-96234504D01*
X130295907Y-96350575D01*
X130293704Y-96354391D01*
X130227765Y-96468602D01*
X130152523Y-96598925D01*
X130045097Y-96864813D01*
X129975721Y-97143065D01*
X129975262Y-97147435D01*
X129975261Y-97147439D01*
X129957760Y-97313946D01*
X129945745Y-97428264D01*
X129945898Y-97432652D01*
X129945898Y-97432658D01*
X129954827Y-97688333D01*
X129955753Y-97714859D01*
X129956515Y-97719182D01*
X129956516Y-97719189D01*
X129979239Y-97848054D01*
X130005550Y-97997272D01*
X130006905Y-98001443D01*
X130006907Y-98001450D01*
X130045589Y-98120500D01*
X130094167Y-98270006D01*
X130096095Y-98273959D01*
X130096097Y-98273964D01*
X130146939Y-98378204D01*
X130219879Y-98527753D01*
X130380238Y-98765496D01*
X130572125Y-98978608D01*
X130791803Y-99162940D01*
X131034998Y-99314905D01*
X131296975Y-99431545D01*
X131301203Y-99432757D01*
X131301202Y-99432757D01*
X131531805Y-99498881D01*
X131591774Y-99536885D01*
X131621676Y-99601277D01*
X131612019Y-99671614D01*
X131565867Y-99725563D01*
X131497075Y-99746000D01*
X107657578Y-99746000D01*
X107589457Y-99725998D01*
X107542964Y-99672342D01*
X107532316Y-99606387D01*
X107532631Y-99603491D01*
X107533000Y-99596672D01*
X107533000Y-98824115D01*
X107528525Y-98808876D01*
X107527135Y-98807671D01*
X107519452Y-98806000D01*
X104825987Y-98806000D01*
X104799300Y-98813836D01*
X104798692Y-98814326D01*
X104733100Y-98841497D01*
X104659241Y-98826805D01*
X104621141Y-98806000D01*
X104603000Y-98806000D01*
X104534879Y-98785998D01*
X104488386Y-98732342D01*
X104477000Y-98680000D01*
X104477000Y-98669325D01*
X104469470Y-98643680D01*
X104082812Y-98257022D01*
X104068868Y-98249408D01*
X104067035Y-98249539D01*
X104060420Y-98253790D01*
X103481237Y-98832973D01*
X103475041Y-98844319D01*
X103484923Y-98856809D01*
X103522259Y-98881756D01*
X103532371Y-98887247D01*
X103713081Y-98964885D01*
X103724014Y-98968437D01*
X103915844Y-99011845D01*
X103927253Y-99013347D01*
X104123783Y-99021068D01*
X104135265Y-99020466D01*
X104329913Y-98992244D01*
X104341094Y-98989559D01*
X104350497Y-98986367D01*
X104421432Y-98983409D01*
X104482706Y-99019272D01*
X104514863Y-99082568D01*
X104517001Y-99105679D01*
X104517001Y-99596669D01*
X104517371Y-99603491D01*
X104517686Y-99606395D01*
X104505157Y-99676277D01*
X104456835Y-99728292D01*
X104392423Y-99746000D01*
X92994572Y-99746000D01*
X92926451Y-99725998D01*
X92879958Y-99672342D01*
X92869854Y-99602068D01*
X92899348Y-99537488D01*
X92959074Y-99499104D01*
X92968375Y-99496753D01*
X93066575Y-99475880D01*
X93070706Y-99474376D01*
X93070711Y-99474375D01*
X93219135Y-99420353D01*
X93336050Y-99377799D01*
X93454337Y-99314905D01*
X93585361Y-99245239D01*
X93585367Y-99245235D01*
X93589253Y-99243169D01*
X93592813Y-99240582D01*
X93592817Y-99240580D01*
X93817691Y-99077199D01*
X93817694Y-99077197D01*
X93821254Y-99074610D01*
X93824421Y-99071552D01*
X94024374Y-98878460D01*
X94024378Y-98878455D01*
X94027539Y-98875403D01*
X94042067Y-98856809D01*
X94051825Y-98844319D01*
X94835041Y-98844319D01*
X94844923Y-98856809D01*
X94882259Y-98881756D01*
X94892371Y-98887247D01*
X95073081Y-98964885D01*
X95084014Y-98968437D01*
X95275844Y-99011845D01*
X95287253Y-99013347D01*
X95483783Y-99021068D01*
X95495265Y-99020466D01*
X95689905Y-98992245D01*
X95701101Y-98989557D01*
X95887343Y-98926336D01*
X95897840Y-98921662D01*
X96016401Y-98855266D01*
X96026264Y-98845189D01*
X96023309Y-98837519D01*
X95442812Y-98257022D01*
X95428868Y-98249408D01*
X95427035Y-98249539D01*
X95420420Y-98253790D01*
X94841237Y-98832973D01*
X94835041Y-98844319D01*
X94051825Y-98844319D01*
X94201381Y-98652896D01*
X94204093Y-98649425D01*
X94207384Y-98643726D01*
X94280777Y-98516604D01*
X94332159Y-98467610D01*
X94401872Y-98454173D01*
X94468137Y-98480839D01*
X94468439Y-98481078D01*
X94481740Y-98474050D01*
X95057978Y-97897812D01*
X95064356Y-97886132D01*
X95794408Y-97886132D01*
X95794539Y-97887965D01*
X95798790Y-97894580D01*
X96378603Y-98474393D01*
X96390983Y-98481153D01*
X96397563Y-98476227D01*
X96466662Y-98352840D01*
X96471336Y-98342343D01*
X96534557Y-98156101D01*
X96537245Y-98144905D01*
X96565762Y-97948224D01*
X96566392Y-97940843D01*
X96567757Y-97888704D01*
X96567514Y-97881305D01*
X96565647Y-97860980D01*
X102932914Y-97860980D01*
X102945777Y-98057233D01*
X102947577Y-98068601D01*
X102995991Y-98259228D01*
X102999829Y-98270066D01*
X103082173Y-98448685D01*
X103087922Y-98458642D01*
X103097850Y-98472690D01*
X103108439Y-98481078D01*
X103121740Y-98474050D01*
X103697978Y-97897812D01*
X103705592Y-97883868D01*
X103705461Y-97882035D01*
X103701210Y-97875420D01*
X103120031Y-97294241D01*
X103107651Y-97287481D01*
X103101685Y-97291947D01*
X103021452Y-97444445D01*
X103017047Y-97455079D01*
X102958724Y-97642910D01*
X102956332Y-97654164D01*
X102933215Y-97849479D01*
X102932914Y-97860980D01*
X96565647Y-97860980D01*
X96549330Y-97683397D01*
X96547233Y-97672083D01*
X96493846Y-97482789D01*
X96489724Y-97472050D01*
X96402736Y-97295656D01*
X96401577Y-97293765D01*
X96392732Y-97287126D01*
X96380312Y-97293898D01*
X95802022Y-97872188D01*
X95794408Y-97886132D01*
X95064356Y-97886132D01*
X95065592Y-97883868D01*
X95065461Y-97882035D01*
X95061210Y-97875420D01*
X94581996Y-97396206D01*
X94547970Y-97333894D01*
X94545168Y-97311509D01*
X94544401Y-97289539D01*
X94544400Y-97289533D01*
X94544247Y-97285141D01*
X94494450Y-97002728D01*
X94493095Y-96998557D01*
X94493093Y-96998550D01*
X94469336Y-96925436D01*
X94834547Y-96925436D01*
X94838033Y-96933823D01*
X95417188Y-97512978D01*
X95431132Y-97520592D01*
X95432965Y-97520461D01*
X95439580Y-97516210D01*
X96018407Y-96937383D01*
X96025167Y-96925003D01*
X96019137Y-96916948D01*
X95951459Y-96874246D01*
X95941211Y-96869025D01*
X95758531Y-96796143D01*
X95747504Y-96792876D01*
X95554605Y-96754506D01*
X95543159Y-96753303D01*
X95346507Y-96750730D01*
X95335027Y-96751633D01*
X95141199Y-96784938D01*
X95130079Y-96787918D01*
X94945557Y-96855992D01*
X94935179Y-96860942D01*
X94844146Y-96915101D01*
X94834547Y-96925436D01*
X94469336Y-96925436D01*
X94435551Y-96821457D01*
X94405833Y-96729994D01*
X94280121Y-96472247D01*
X94119762Y-96234504D01*
X94116314Y-96230674D01*
X94020801Y-96124597D01*
X93927875Y-96021392D01*
X93708197Y-95837060D01*
X93465002Y-95685095D01*
X93203025Y-95568455D01*
X92927364Y-95489411D01*
X92923014Y-95488800D01*
X92923011Y-95488799D01*
X92818658Y-95474133D01*
X92643385Y-95449500D01*
X92428396Y-95449500D01*
X92426210Y-95449653D01*
X92426206Y-95449653D01*
X92218314Y-95464190D01*
X92218309Y-95464191D01*
X92213929Y-95464497D01*
X92209635Y-95465410D01*
X92209633Y-95465410D01*
X92099597Y-95488799D01*
X91933425Y-95524120D01*
X91929294Y-95525624D01*
X91929289Y-95525625D01*
X91811616Y-95568455D01*
X91663950Y-95622201D01*
X91660063Y-95624268D01*
X91414639Y-95754761D01*
X91414633Y-95754765D01*
X91410747Y-95756831D01*
X91407187Y-95759418D01*
X91407183Y-95759420D01*
X91182309Y-95922801D01*
X91178746Y-95925390D01*
X91175582Y-95928446D01*
X91175579Y-95928448D01*
X90975626Y-96121540D01*
X90975622Y-96121545D01*
X90972461Y-96124597D01*
X90969754Y-96128062D01*
X90969752Y-96128064D01*
X90886592Y-96234504D01*
X90795907Y-96350575D01*
X90793704Y-96354391D01*
X90727765Y-96468602D01*
X90652523Y-96598925D01*
X90545097Y-96864813D01*
X90544032Y-96869086D01*
X90544031Y-96869088D01*
X90502257Y-97036635D01*
X90466369Y-97097893D01*
X90403060Y-97130025D01*
X90332429Y-97122828D01*
X90276902Y-97078587D01*
X90254000Y-97006153D01*
X90254000Y-94765161D01*
X94744393Y-94765161D01*
X94753687Y-94777175D01*
X94794088Y-94805464D01*
X94803584Y-94810947D01*
X94993113Y-94899326D01*
X95003405Y-94903072D01*
X95205401Y-94957196D01*
X95216196Y-94959099D01*
X95424525Y-94977326D01*
X95435475Y-94977326D01*
X95643804Y-94959099D01*
X95654599Y-94957196D01*
X95856595Y-94903072D01*
X95866887Y-94899326D01*
X96056416Y-94810947D01*
X96065912Y-94805464D01*
X96107148Y-94776590D01*
X96115523Y-94766112D01*
X96115023Y-94765161D01*
X103384393Y-94765161D01*
X103393687Y-94777175D01*
X103434088Y-94805464D01*
X103443584Y-94810947D01*
X103633113Y-94899326D01*
X103643405Y-94903072D01*
X103845401Y-94957196D01*
X103856196Y-94959099D01*
X104064525Y-94977326D01*
X104075475Y-94977326D01*
X104283804Y-94959099D01*
X104294599Y-94957196D01*
X104496595Y-94903072D01*
X104506887Y-94899326D01*
X104696416Y-94810947D01*
X104705912Y-94805464D01*
X104747148Y-94776590D01*
X104755523Y-94766112D01*
X104748457Y-94752668D01*
X104082811Y-94087021D01*
X104068868Y-94079408D01*
X104067034Y-94079539D01*
X104060420Y-94083790D01*
X103390820Y-94753391D01*
X103384393Y-94765161D01*
X96115023Y-94765161D01*
X96108457Y-94752668D01*
X95442811Y-94087021D01*
X95428868Y-94079408D01*
X95427034Y-94079539D01*
X95420420Y-94083790D01*
X94750820Y-94753391D01*
X94744393Y-94765161D01*
X90254000Y-94765161D01*
X90254000Y-93720475D01*
X94167674Y-93720475D01*
X94185901Y-93928804D01*
X94187804Y-93939599D01*
X94241928Y-94141595D01*
X94245674Y-94151887D01*
X94334054Y-94341417D01*
X94339534Y-94350907D01*
X94368411Y-94392149D01*
X94378887Y-94400523D01*
X94392334Y-94393455D01*
X95057979Y-93727811D01*
X95064356Y-93716132D01*
X95794408Y-93716132D01*
X95794539Y-93717966D01*
X95798790Y-93724580D01*
X96468391Y-94394180D01*
X96480161Y-94400607D01*
X96492176Y-94391311D01*
X96520466Y-94350907D01*
X96525946Y-94341417D01*
X96614326Y-94151887D01*
X96618072Y-94141595D01*
X96672196Y-93939599D01*
X96674099Y-93928804D01*
X96692326Y-93720475D01*
X102807674Y-93720475D01*
X102825901Y-93928804D01*
X102827804Y-93939599D01*
X102881928Y-94141595D01*
X102885674Y-94151887D01*
X102974054Y-94341417D01*
X102979534Y-94350907D01*
X103008411Y-94392149D01*
X103018887Y-94400523D01*
X103032334Y-94393455D01*
X103697979Y-93727811D01*
X103705592Y-93713868D01*
X103705461Y-93712034D01*
X103701210Y-93705420D01*
X103031609Y-93035820D01*
X103019839Y-93029393D01*
X103007824Y-93038689D01*
X102979534Y-93079093D01*
X102974054Y-93088583D01*
X102885674Y-93278113D01*
X102881928Y-93288405D01*
X102827804Y-93490401D01*
X102825901Y-93501196D01*
X102807674Y-93709525D01*
X102807674Y-93720475D01*
X96692326Y-93720475D01*
X96692326Y-93709525D01*
X96674099Y-93501196D01*
X96672196Y-93490401D01*
X96618072Y-93288405D01*
X96614326Y-93278113D01*
X96525946Y-93088583D01*
X96520466Y-93079093D01*
X96491589Y-93037851D01*
X96481113Y-93029477D01*
X96467666Y-93036545D01*
X95802021Y-93702189D01*
X95794408Y-93716132D01*
X95064356Y-93716132D01*
X95065592Y-93713868D01*
X95065461Y-93712034D01*
X95061210Y-93705420D01*
X94391609Y-93035820D01*
X94379839Y-93029393D01*
X94367824Y-93038689D01*
X94339534Y-93079093D01*
X94334054Y-93088583D01*
X94245674Y-93278113D01*
X94241928Y-93288405D01*
X94187804Y-93490401D01*
X94185901Y-93501196D01*
X94167674Y-93709525D01*
X94167674Y-93720475D01*
X90254000Y-93720475D01*
X90254000Y-92663887D01*
X94744477Y-92663887D01*
X94751545Y-92677334D01*
X95417189Y-93342979D01*
X95431132Y-93350592D01*
X95432966Y-93350461D01*
X95439580Y-93346210D01*
X96109180Y-92676609D01*
X96115607Y-92664839D01*
X96106313Y-92652825D01*
X96065912Y-92624536D01*
X96056416Y-92619053D01*
X95866887Y-92530674D01*
X95856595Y-92526928D01*
X95654599Y-92472804D01*
X95643804Y-92470901D01*
X95435475Y-92452674D01*
X95424525Y-92452674D01*
X95216196Y-92470901D01*
X95205401Y-92472804D01*
X95003405Y-92526928D01*
X94993113Y-92530674D01*
X94803583Y-92619054D01*
X94794093Y-92624534D01*
X94752851Y-92653411D01*
X94744477Y-92663887D01*
X90254000Y-92663887D01*
X90254000Y-85590995D01*
X90274002Y-85522874D01*
X90327658Y-85476381D01*
X90397932Y-85466277D01*
X90462512Y-85495771D01*
X90499313Y-85550494D01*
X90533008Y-85649756D01*
X90656182Y-85899530D01*
X90658476Y-85902963D01*
X90807281Y-86125665D01*
X90810905Y-86131089D01*
X90994529Y-86340472D01*
X91203912Y-86524096D01*
X91207338Y-86526385D01*
X91207343Y-86526389D01*
X91346218Y-86619182D01*
X91391746Y-86673659D01*
X91401946Y-86715706D01*
X91404424Y-86753522D01*
X91405846Y-86759120D01*
X91405846Y-86759122D01*
X91431087Y-86858508D01*
X91454392Y-86950269D01*
X91456809Y-86955512D01*
X91496920Y-87042519D01*
X91539377Y-87134616D01*
X91564472Y-87170125D01*
X91633140Y-87267288D01*
X91656533Y-87300389D01*
X91660675Y-87304424D01*
X91752003Y-87393391D01*
X91801938Y-87442035D01*
X91970720Y-87554812D01*
X91976023Y-87557090D01*
X91976026Y-87557092D01*
X92127782Y-87622291D01*
X92157228Y-87634942D01*
X92212298Y-87647403D01*
X92349579Y-87678467D01*
X92349584Y-87678468D01*
X92355216Y-87679742D01*
X92360987Y-87679969D01*
X92360989Y-87679969D01*
X92420756Y-87682317D01*
X92558053Y-87687712D01*
X92658499Y-87673148D01*
X92753231Y-87659413D01*
X92753236Y-87659412D01*
X92758945Y-87658584D01*
X92764409Y-87656729D01*
X92764414Y-87656728D01*
X92945693Y-87595192D01*
X92945698Y-87595190D01*
X92951165Y-87593334D01*
X92967631Y-87584113D01*
X93064488Y-87529870D01*
X93128276Y-87494147D01*
X93160137Y-87467649D01*
X93279913Y-87368031D01*
X93284345Y-87364345D01*
X93332626Y-87306294D01*
X93391564Y-87266711D01*
X93462546Y-87265275D01*
X93523036Y-87302443D01*
X93553829Y-87366414D01*
X93555500Y-87386864D01*
X93555500Y-88308044D01*
X93535498Y-88376165D01*
X93481842Y-88422658D01*
X93411568Y-88432762D01*
X93346988Y-88403268D01*
X93328542Y-88383432D01*
X93327781Y-88382413D01*
X93327777Y-88382409D01*
X93324320Y-88377779D01*
X93195719Y-88258901D01*
X93179503Y-88243911D01*
X93175258Y-88239987D01*
X93170375Y-88236906D01*
X93170371Y-88236903D01*
X93008464Y-88134748D01*
X93003581Y-88131667D01*
X92815039Y-88056446D01*
X92809379Y-88055320D01*
X92809375Y-88055319D01*
X92621613Y-88017971D01*
X92621610Y-88017971D01*
X92615946Y-88016844D01*
X92610171Y-88016768D01*
X92610167Y-88016768D01*
X92508793Y-88015441D01*
X92412971Y-88014187D01*
X92407274Y-88015166D01*
X92407273Y-88015166D01*
X92218607Y-88047585D01*
X92212910Y-88048564D01*
X92022463Y-88118824D01*
X91848010Y-88222612D01*
X91843670Y-88226418D01*
X91843666Y-88226421D01*
X91736938Y-88320020D01*
X91695392Y-88356455D01*
X91691817Y-88360990D01*
X91691816Y-88360991D01*
X91662722Y-88397897D01*
X91569720Y-88515869D01*
X91567031Y-88520980D01*
X91567029Y-88520983D01*
X91525457Y-88599999D01*
X91475203Y-88695515D01*
X91450587Y-88774793D01*
X91417943Y-88879924D01*
X91415007Y-88889378D01*
X91391148Y-89090964D01*
X91404424Y-89293522D01*
X91405845Y-89299118D01*
X91405846Y-89299123D01*
X91444391Y-89450891D01*
X91454392Y-89490269D01*
X91456809Y-89495512D01*
X91492473Y-89572874D01*
X91539377Y-89674616D01*
X91542707Y-89679328D01*
X91542710Y-89679333D01*
X91571443Y-89719989D01*
X91594424Y-89787164D01*
X91577439Y-89856099D01*
X91526337Y-89904674D01*
X91429414Y-89954700D01*
X91310039Y-90058838D01*
X91218950Y-90188444D01*
X91203640Y-90227712D01*
X91166145Y-90323883D01*
X91161406Y-90336037D01*
X91160414Y-90343570D01*
X91160414Y-90343571D01*
X91143187Y-90474428D01*
X91140729Y-90493096D01*
X91146762Y-90547743D01*
X91155478Y-90626683D01*
X91158113Y-90650553D01*
X91160723Y-90657684D01*
X91160723Y-90657686D01*
X91205432Y-90779859D01*
X91212553Y-90799319D01*
X91216789Y-90805622D01*
X91216789Y-90805623D01*
X91292494Y-90918283D01*
X91300908Y-90930805D01*
X91306527Y-90935918D01*
X91306528Y-90935919D01*
X91412460Y-91032309D01*
X91418076Y-91037419D01*
X91449640Y-91054557D01*
X91550616Y-91109383D01*
X91550618Y-91109384D01*
X91557293Y-91113008D01*
X91564643Y-91114936D01*
X91564645Y-91114937D01*
X91565342Y-91115120D01*
X91565793Y-91115392D01*
X91571704Y-91117732D01*
X91571314Y-91118717D01*
X91626157Y-91151755D01*
X91636579Y-91164724D01*
X91662319Y-91201484D01*
X91681447Y-91228802D01*
X91821198Y-91368553D01*
X91825706Y-91371710D01*
X91825709Y-91371712D01*
X91970034Y-91472769D01*
X91983093Y-91481913D01*
X91988075Y-91484236D01*
X91988080Y-91484239D01*
X92137638Y-91553979D01*
X92162212Y-91565438D01*
X92167520Y-91566860D01*
X92167522Y-91566861D01*
X92236139Y-91585247D01*
X92353115Y-91616590D01*
X92476211Y-91627360D01*
X92481323Y-91628130D01*
X92483851Y-91629018D01*
X92489416Y-91629500D01*
X92495169Y-91629500D01*
X92506152Y-91629980D01*
X92537020Y-91632681D01*
X92537035Y-91632681D01*
X92544133Y-91633302D01*
X92550000Y-91634231D01*
X92570078Y-91631051D01*
X92589788Y-91629500D01*
X96620308Y-91629500D01*
X96688429Y-91649502D01*
X96724890Y-91685225D01*
X96730536Y-91693627D01*
X96755129Y-91730225D01*
X96760748Y-91735338D01*
X96760749Y-91735339D01*
X96849862Y-91816425D01*
X96872297Y-91836839D01*
X97011514Y-91912428D01*
X97164743Y-91952627D01*
X97248698Y-91953946D01*
X97315540Y-91954996D01*
X97315543Y-91954996D01*
X97323137Y-91955115D01*
X97477553Y-91919749D01*
X97577501Y-91869481D01*
X97612293Y-91851983D01*
X97612296Y-91851981D01*
X97619076Y-91848571D01*
X97624847Y-91843642D01*
X97624850Y-91843640D01*
X97672894Y-91802606D01*
X97737684Y-91773575D01*
X97807884Y-91784180D01*
X97861207Y-91831055D01*
X97879933Y-91884310D01*
X97887897Y-91954996D01*
X97890149Y-91974980D01*
X97892483Y-91981652D01*
X97892484Y-91981654D01*
X97911103Y-92034864D01*
X97938533Y-92113256D01*
X98016474Y-92237298D01*
X98120063Y-92340887D01*
X98126058Y-92344654D01*
X98238114Y-92415064D01*
X98238117Y-92415065D01*
X98244105Y-92418828D01*
X98250781Y-92421164D01*
X98375707Y-92464877D01*
X98375709Y-92464878D01*
X98382381Y-92467212D01*
X98389404Y-92468003D01*
X98389407Y-92468004D01*
X98437611Y-92473435D01*
X98450020Y-92475465D01*
X98454332Y-92476393D01*
X98461806Y-92479018D01*
X98467371Y-92479500D01*
X98484368Y-92479500D01*
X98498472Y-92480292D01*
X98510430Y-92481639D01*
X98511655Y-92481777D01*
X98517247Y-92482535D01*
X98527956Y-92484231D01*
X98537749Y-92482680D01*
X98537750Y-92482680D01*
X98548033Y-92481051D01*
X98567744Y-92479500D01*
X99992153Y-92479500D01*
X100009802Y-92480742D01*
X100024272Y-92482789D01*
X100024273Y-92482789D01*
X100034091Y-92484178D01*
X100058498Y-92479898D01*
X100071573Y-92478305D01*
X100144400Y-92473278D01*
X100223745Y-92459360D01*
X100250101Y-92454737D01*
X100250104Y-92454736D01*
X100253361Y-92454165D01*
X100306793Y-92438894D01*
X100326591Y-92434919D01*
X100343355Y-92432935D01*
X100352740Y-92428428D01*
X100354005Y-92428061D01*
X100360794Y-92426870D01*
X100369549Y-92422225D01*
X100369551Y-92422224D01*
X100404364Y-92403752D01*
X100408879Y-92401472D01*
X100450095Y-92381680D01*
X100450096Y-92381679D01*
X100457246Y-92378246D01*
X100461522Y-92374651D01*
X100463445Y-92372728D01*
X100464285Y-92371958D01*
X100466985Y-92370525D01*
X100505917Y-92330279D01*
X100507384Y-92328789D01*
X100568336Y-92267837D01*
X100600817Y-92244367D01*
X100601102Y-92244224D01*
X100626792Y-92231303D01*
X100699340Y-92194816D01*
X100699343Y-92194814D01*
X100706123Y-92191404D01*
X100711894Y-92186475D01*
X100711897Y-92186473D01*
X100820804Y-92093457D01*
X100820804Y-92093456D01*
X100826582Y-92088522D01*
X100919023Y-91959877D01*
X100934473Y-91921444D01*
X100942043Y-91902614D01*
X100986010Y-91846870D01*
X101053135Y-91823745D01*
X101090923Y-91827735D01*
X101134727Y-91839227D01*
X101134731Y-91839228D01*
X101142078Y-91841155D01*
X101226033Y-91842474D01*
X101292875Y-91843524D01*
X101292878Y-91843524D01*
X101300472Y-91843643D01*
X101454888Y-91808277D01*
X101461674Y-91804864D01*
X101461677Y-91804863D01*
X101557470Y-91756685D01*
X101627314Y-91743947D01*
X101692958Y-91770991D01*
X101709464Y-91786918D01*
X101711881Y-91789718D01*
X101716120Y-91796026D01*
X101833288Y-91902640D01*
X101972505Y-91978229D01*
X102125734Y-92018428D01*
X102209689Y-92019747D01*
X102276531Y-92020797D01*
X102276534Y-92020797D01*
X102284128Y-92020916D01*
X102438544Y-91985550D01*
X102508954Y-91950138D01*
X102573284Y-91917784D01*
X102573287Y-91917782D01*
X102580067Y-91914372D01*
X102585838Y-91909443D01*
X102585841Y-91909441D01*
X102694748Y-91816425D01*
X102694748Y-91816424D01*
X102700526Y-91811490D01*
X102792967Y-91682845D01*
X102795801Y-91675796D01*
X102795804Y-91675790D01*
X102803218Y-91657347D01*
X102847186Y-91601604D01*
X102914311Y-91578480D01*
X102983282Y-91595318D01*
X103009219Y-91615251D01*
X103707938Y-92313970D01*
X103741964Y-92376282D01*
X103736899Y-92447097D01*
X103694352Y-92503933D01*
X103651450Y-92524773D01*
X103643404Y-92526929D01*
X103633113Y-92530674D01*
X103443583Y-92619054D01*
X103434093Y-92624534D01*
X103392851Y-92653411D01*
X103384477Y-92663887D01*
X103391545Y-92677334D01*
X104070000Y-93355790D01*
X105108388Y-94394177D01*
X105120162Y-94400606D01*
X105132176Y-94391310D01*
X105160466Y-94350907D01*
X105165946Y-94341417D01*
X105250367Y-94160377D01*
X105297285Y-94107092D01*
X105365562Y-94087631D01*
X105433522Y-94108173D01*
X105471994Y-94147792D01*
X105498718Y-94191401D01*
X105507692Y-94209012D01*
X105566836Y-94351797D01*
X105578119Y-94379036D01*
X105584228Y-94397835D01*
X105593178Y-94435116D01*
X105627190Y-94576787D01*
X105630283Y-94596314D01*
X105639790Y-94717102D01*
X105625194Y-94786580D01*
X105575352Y-94837140D01*
X105567428Y-94841182D01*
X105400341Y-94919095D01*
X105400336Y-94919098D01*
X105395354Y-94921421D01*
X105390847Y-94924577D01*
X105390845Y-94924578D01*
X105220054Y-95044167D01*
X105220051Y-95044169D01*
X105215543Y-95047326D01*
X105060326Y-95202543D01*
X105057169Y-95207051D01*
X105057167Y-95207054D01*
X104947274Y-95363998D01*
X104934421Y-95382354D01*
X104932098Y-95387336D01*
X104932095Y-95387341D01*
X104885104Y-95488116D01*
X104841653Y-95581297D01*
X104784839Y-95793326D01*
X104765708Y-96012000D01*
X104784839Y-96230674D01*
X104841653Y-96442703D01*
X104885104Y-96535884D01*
X104932095Y-96636659D01*
X104932098Y-96636664D01*
X104934421Y-96641646D01*
X104937577Y-96646153D01*
X104937578Y-96646155D01*
X105036842Y-96787918D01*
X105060326Y-96821457D01*
X105067775Y-96828906D01*
X105101801Y-96891218D01*
X105096736Y-96962033D01*
X105054189Y-97018869D01*
X104987669Y-97043680D01*
X104983526Y-97043828D01*
X104973510Y-97044371D01*
X104922651Y-97049895D01*
X104918939Y-97050777D01*
X104915959Y-97050621D01*
X104914793Y-97050748D01*
X104914773Y-97050559D01*
X104848039Y-97047074D01*
X104804265Y-97020719D01*
X104766922Y-96986199D01*
X104757797Y-96979198D01*
X104591458Y-96874246D01*
X104581211Y-96869025D01*
X104398531Y-96796143D01*
X104387504Y-96792876D01*
X104194605Y-96754506D01*
X104183159Y-96753303D01*
X103986507Y-96750730D01*
X103975027Y-96751633D01*
X103781199Y-96784938D01*
X103770079Y-96787918D01*
X103585557Y-96855992D01*
X103575179Y-96860942D01*
X103484146Y-96915101D01*
X103474547Y-96925436D01*
X103478033Y-96933823D01*
X104829398Y-98285188D01*
X104852860Y-98298000D01*
X107514884Y-98298000D01*
X107530123Y-98293525D01*
X107531328Y-98292135D01*
X107532999Y-98284452D01*
X107532999Y-97507331D01*
X107532629Y-97500510D01*
X107527105Y-97449648D01*
X107523479Y-97434396D01*
X107478324Y-97313946D01*
X107469786Y-97298351D01*
X107393285Y-97196276D01*
X107380724Y-97183715D01*
X107278649Y-97107214D01*
X107263054Y-97098676D01*
X107142606Y-97053522D01*
X107127351Y-97049895D01*
X107076486Y-97044369D01*
X107066275Y-97043816D01*
X107066344Y-97042539D01*
X107003200Y-97023998D01*
X106956707Y-96970342D01*
X106946603Y-96900068D01*
X106976097Y-96835488D01*
X106982226Y-96828905D01*
X106989674Y-96821457D01*
X107013159Y-96787918D01*
X107112422Y-96646155D01*
X107112423Y-96646153D01*
X107115579Y-96641646D01*
X107117902Y-96636664D01*
X107117905Y-96636659D01*
X107164896Y-96535884D01*
X107208347Y-96442703D01*
X107265161Y-96230674D01*
X107284292Y-96012000D01*
X107265161Y-95793326D01*
X107208347Y-95581297D01*
X107164896Y-95488116D01*
X107117905Y-95387341D01*
X107117902Y-95387336D01*
X107115579Y-95382354D01*
X107102726Y-95363998D01*
X106992833Y-95207054D01*
X106992831Y-95207051D01*
X106989674Y-95202543D01*
X106834457Y-95047326D01*
X106829949Y-95044169D01*
X106829946Y-95044167D01*
X106659155Y-94924578D01*
X106659153Y-94924577D01*
X106654646Y-94921421D01*
X106649658Y-94919095D01*
X106649655Y-94919093D01*
X106477028Y-94838597D01*
X106423742Y-94791680D01*
X106404475Y-94731467D01*
X106403351Y-94711456D01*
X106394781Y-94558858D01*
X106356059Y-94330956D01*
X106348055Y-94303171D01*
X106293044Y-94112228D01*
X106292063Y-94108823D01*
X106283033Y-94087021D01*
X106204953Y-93898520D01*
X106204950Y-93898515D01*
X106203599Y-93895252D01*
X106198616Y-93886235D01*
X106115364Y-93735603D01*
X106091779Y-93692929D01*
X105958009Y-93504397D01*
X105955654Y-93501762D01*
X105955647Y-93501753D01*
X105849175Y-93382612D01*
X105846657Y-93379707D01*
X105846269Y-93379245D01*
X105846263Y-93379239D01*
X105844517Y-93377161D01*
X105842625Y-93375269D01*
X105841743Y-93374294D01*
X105817928Y-93347646D01*
X105811367Y-93339514D01*
X105810849Y-93338996D01*
X105805023Y-93330977D01*
X105788577Y-93319028D01*
X105773544Y-93306188D01*
X104325870Y-91858514D01*
X104291844Y-91796202D01*
X104296909Y-91725387D01*
X104339456Y-91668551D01*
X104401800Y-91644109D01*
X104403450Y-91643936D01*
X104411049Y-91644055D01*
X104565465Y-91608689D01*
X104630781Y-91575839D01*
X104700624Y-91563101D01*
X104766268Y-91590145D01*
X104776489Y-91599309D01*
X107713288Y-94536108D01*
X107726130Y-94551143D01*
X107738080Y-94567591D01*
X107746100Y-94573418D01*
X107747045Y-94574363D01*
X107752479Y-94578704D01*
X107772559Y-94596314D01*
X107900753Y-94708738D01*
X107900759Y-94708742D01*
X107903853Y-94711456D01*
X107907279Y-94713745D01*
X107907284Y-94713749D01*
X108077836Y-94827708D01*
X108086292Y-94833358D01*
X108121872Y-94850904D01*
X108279377Y-94928578D01*
X108279385Y-94928581D01*
X108283081Y-94930404D01*
X108286995Y-94931733D01*
X108286996Y-94931733D01*
X108486946Y-94999607D01*
X108486949Y-94999608D01*
X108490853Y-95000933D01*
X108494892Y-95001736D01*
X108494898Y-95001738D01*
X108633734Y-95029354D01*
X108706054Y-95043739D01*
X108710160Y-95044008D01*
X108710167Y-95044009D01*
X108854646Y-95053478D01*
X108858848Y-95054065D01*
X108858852Y-95054017D01*
X108864417Y-95054499D01*
X108867129Y-95054499D01*
X108869858Y-95054617D01*
X108869858Y-95054622D01*
X108874339Y-95054769D01*
X108886279Y-95055551D01*
X108906956Y-95056907D01*
X108913869Y-95057679D01*
X108915207Y-95057679D01*
X108925002Y-95059230D01*
X108945080Y-95056050D01*
X108964790Y-95054499D01*
X109336214Y-95054499D01*
X109355925Y-95056050D01*
X109366208Y-95057679D01*
X109366209Y-95057679D01*
X109376002Y-95059230D01*
X109385799Y-95057678D01*
X109386154Y-95057678D01*
X109405868Y-95059229D01*
X109451935Y-95066526D01*
X109489421Y-95078706D01*
X109540144Y-95104550D01*
X109572033Y-95127720D01*
X109612280Y-95167967D01*
X109635450Y-95199856D01*
X109661294Y-95250579D01*
X109673475Y-95288067D01*
X109680771Y-95334131D01*
X109682322Y-95353846D01*
X109682322Y-95354201D01*
X109680770Y-95363998D01*
X109682321Y-95373791D01*
X109682321Y-95373792D01*
X109683950Y-95384075D01*
X109685501Y-95403786D01*
X109685501Y-98025212D01*
X109683950Y-98044922D01*
X109680770Y-98065000D01*
X109682321Y-98074792D01*
X109682321Y-98074859D01*
X109683224Y-98081891D01*
X109697286Y-98224670D01*
X109743860Y-98378204D01*
X109746776Y-98383659D01*
X109746777Y-98383662D01*
X109758123Y-98404888D01*
X109819492Y-98519702D01*
X109921275Y-98643726D01*
X110045299Y-98745509D01*
X110075871Y-98761850D01*
X110181339Y-98818224D01*
X110181342Y-98818225D01*
X110186797Y-98821141D01*
X110192721Y-98822938D01*
X110334547Y-98865961D01*
X110393928Y-98904876D01*
X110423234Y-98972925D01*
X110425041Y-98989557D01*
X110427202Y-99009448D01*
X110477929Y-99144764D01*
X110483309Y-99151943D01*
X110483311Y-99151946D01*
X110549287Y-99239977D01*
X110564596Y-99260404D01*
X110571776Y-99265785D01*
X110673054Y-99341689D01*
X110673057Y-99341691D01*
X110680236Y-99347071D01*
X110756690Y-99375732D01*
X110808157Y-99395026D01*
X110808159Y-99395026D01*
X110815552Y-99397798D01*
X110823402Y-99398651D01*
X110823403Y-99398651D01*
X110873847Y-99404131D01*
X110877244Y-99404500D01*
X112222756Y-99404500D01*
X112226153Y-99404131D01*
X112276597Y-99398651D01*
X112276598Y-99398651D01*
X112284448Y-99397798D01*
X112291841Y-99395026D01*
X112291843Y-99395026D01*
X112343310Y-99375732D01*
X112419764Y-99347071D01*
X112426943Y-99341691D01*
X112426946Y-99341689D01*
X112528224Y-99265785D01*
X112535404Y-99260404D01*
X112550713Y-99239977D01*
X112616689Y-99151946D01*
X112616691Y-99151943D01*
X112622071Y-99144764D01*
X112672798Y-99009448D01*
X112674705Y-98991893D01*
X112701946Y-98926331D01*
X112760309Y-98885904D01*
X112799968Y-98879500D01*
X112800032Y-98879500D01*
X112868153Y-98899502D01*
X112914646Y-98953158D01*
X112925295Y-98991892D01*
X112927202Y-99009448D01*
X112977929Y-99144764D01*
X112983309Y-99151943D01*
X112983311Y-99151946D01*
X113049287Y-99239977D01*
X113064596Y-99260404D01*
X113071776Y-99265785D01*
X113173054Y-99341689D01*
X113173057Y-99341691D01*
X113180236Y-99347071D01*
X113256690Y-99375732D01*
X113308157Y-99395026D01*
X113308159Y-99395026D01*
X113315552Y-99397798D01*
X113323402Y-99398651D01*
X113323403Y-99398651D01*
X113373847Y-99404131D01*
X113377244Y-99404500D01*
X114722756Y-99404500D01*
X114726153Y-99404131D01*
X114776597Y-99398651D01*
X114776598Y-99398651D01*
X114784448Y-99397798D01*
X114791841Y-99395026D01*
X114791843Y-99395026D01*
X114843310Y-99375732D01*
X114919764Y-99347071D01*
X114926943Y-99341691D01*
X114926946Y-99341689D01*
X115028224Y-99265785D01*
X115035404Y-99260404D01*
X115050713Y-99239977D01*
X115116689Y-99151946D01*
X115116691Y-99151943D01*
X115122071Y-99144764D01*
X115172798Y-99009448D01*
X115174705Y-98991893D01*
X115201946Y-98926331D01*
X115260309Y-98885904D01*
X115299968Y-98879500D01*
X115300032Y-98879500D01*
X115368153Y-98899502D01*
X115414646Y-98953158D01*
X115425295Y-98991892D01*
X115427202Y-99009448D01*
X115477929Y-99144764D01*
X115483309Y-99151943D01*
X115483311Y-99151946D01*
X115549287Y-99239977D01*
X115564596Y-99260404D01*
X115571776Y-99265785D01*
X115673054Y-99341689D01*
X115673057Y-99341691D01*
X115680236Y-99347071D01*
X115756690Y-99375732D01*
X115808157Y-99395026D01*
X115808159Y-99395026D01*
X115815552Y-99397798D01*
X115823402Y-99398651D01*
X115823403Y-99398651D01*
X115873847Y-99404131D01*
X115877244Y-99404500D01*
X117222756Y-99404500D01*
X117226153Y-99404131D01*
X117276597Y-99398651D01*
X117276598Y-99398651D01*
X117284448Y-99397798D01*
X117291841Y-99395026D01*
X117291843Y-99395026D01*
X117343310Y-99375732D01*
X117419764Y-99347071D01*
X117426943Y-99341691D01*
X117426946Y-99341689D01*
X117528224Y-99265785D01*
X117535404Y-99260404D01*
X117550713Y-99239977D01*
X117616689Y-99151946D01*
X117616691Y-99151943D01*
X117622071Y-99144764D01*
X117672798Y-99009448D01*
X117674705Y-98991893D01*
X117701946Y-98926331D01*
X117760309Y-98885904D01*
X117799968Y-98879500D01*
X117800032Y-98879500D01*
X117868153Y-98899502D01*
X117914646Y-98953158D01*
X117925295Y-98991892D01*
X117927202Y-99009448D01*
X117977929Y-99144764D01*
X117983309Y-99151943D01*
X117983311Y-99151946D01*
X118049287Y-99239977D01*
X118064596Y-99260404D01*
X118071776Y-99265785D01*
X118173054Y-99341689D01*
X118173057Y-99341691D01*
X118180236Y-99347071D01*
X118256690Y-99375732D01*
X118308157Y-99395026D01*
X118308159Y-99395026D01*
X118315552Y-99397798D01*
X118323402Y-99398651D01*
X118323403Y-99398651D01*
X118373847Y-99404131D01*
X118377244Y-99404500D01*
X119722756Y-99404500D01*
X119726153Y-99404131D01*
X119776597Y-99398651D01*
X119776598Y-99398651D01*
X119784448Y-99397798D01*
X119791841Y-99395026D01*
X119791843Y-99395026D01*
X119843310Y-99375732D01*
X119919764Y-99347071D01*
X119926943Y-99341691D01*
X119926946Y-99341689D01*
X120028224Y-99265785D01*
X120035404Y-99260404D01*
X120050713Y-99239977D01*
X120116689Y-99151946D01*
X120116691Y-99151943D01*
X120122071Y-99144764D01*
X120172798Y-99009448D01*
X120174705Y-98991893D01*
X120201946Y-98926331D01*
X120260309Y-98885904D01*
X120299968Y-98879500D01*
X120300032Y-98879500D01*
X120368153Y-98899502D01*
X120414646Y-98953158D01*
X120425295Y-98991892D01*
X120427202Y-99009448D01*
X120477929Y-99144764D01*
X120483309Y-99151943D01*
X120483311Y-99151946D01*
X120549287Y-99239977D01*
X120564596Y-99260404D01*
X120571776Y-99265785D01*
X120673054Y-99341689D01*
X120673057Y-99341691D01*
X120680236Y-99347071D01*
X120756690Y-99375732D01*
X120808157Y-99395026D01*
X120808159Y-99395026D01*
X120815552Y-99397798D01*
X120823402Y-99398651D01*
X120823403Y-99398651D01*
X120873847Y-99404131D01*
X120877244Y-99404500D01*
X122222756Y-99404500D01*
X122226153Y-99404131D01*
X122276597Y-99398651D01*
X122276598Y-99398651D01*
X122284448Y-99397798D01*
X122291841Y-99395026D01*
X122291843Y-99395026D01*
X122343310Y-99375732D01*
X122419764Y-99347071D01*
X122426943Y-99341691D01*
X122426946Y-99341689D01*
X122528224Y-99265785D01*
X122535404Y-99260404D01*
X122550713Y-99239977D01*
X122616689Y-99151946D01*
X122616691Y-99151943D01*
X122622071Y-99144764D01*
X122672798Y-99009448D01*
X122674705Y-98991893D01*
X122701946Y-98926331D01*
X122760309Y-98885904D01*
X122799968Y-98879500D01*
X122800032Y-98879500D01*
X122868153Y-98899502D01*
X122914646Y-98953158D01*
X122925295Y-98991892D01*
X122927202Y-99009448D01*
X122977929Y-99144764D01*
X122983309Y-99151943D01*
X122983311Y-99151946D01*
X123049287Y-99239977D01*
X123064596Y-99260404D01*
X123071776Y-99265785D01*
X123173054Y-99341689D01*
X123173057Y-99341691D01*
X123180236Y-99347071D01*
X123256690Y-99375732D01*
X123308157Y-99395026D01*
X123308159Y-99395026D01*
X123315552Y-99397798D01*
X123323402Y-99398651D01*
X123323403Y-99398651D01*
X123373847Y-99404131D01*
X123377244Y-99404500D01*
X124722756Y-99404500D01*
X124726153Y-99404131D01*
X124776597Y-99398651D01*
X124776598Y-99398651D01*
X124784448Y-99397798D01*
X124791841Y-99395026D01*
X124791843Y-99395026D01*
X124843310Y-99375732D01*
X124919764Y-99347071D01*
X124926943Y-99341691D01*
X124926946Y-99341689D01*
X125028224Y-99265785D01*
X125035404Y-99260404D01*
X125050713Y-99239977D01*
X125116689Y-99151946D01*
X125116691Y-99151943D01*
X125122071Y-99144764D01*
X125172798Y-99009448D01*
X125174705Y-98991893D01*
X125201946Y-98926331D01*
X125260309Y-98885904D01*
X125299968Y-98879500D01*
X125300032Y-98879500D01*
X125368153Y-98899502D01*
X125414646Y-98953158D01*
X125425295Y-98991892D01*
X125427202Y-99009448D01*
X125477929Y-99144764D01*
X125483309Y-99151943D01*
X125483311Y-99151946D01*
X125549287Y-99239977D01*
X125564596Y-99260404D01*
X125571776Y-99265785D01*
X125673054Y-99341689D01*
X125673057Y-99341691D01*
X125680236Y-99347071D01*
X125756690Y-99375732D01*
X125808157Y-99395026D01*
X125808159Y-99395026D01*
X125815552Y-99397798D01*
X125823402Y-99398651D01*
X125823403Y-99398651D01*
X125873847Y-99404131D01*
X125877244Y-99404500D01*
X127222756Y-99404500D01*
X127226153Y-99404131D01*
X127276597Y-99398651D01*
X127276598Y-99398651D01*
X127284448Y-99397798D01*
X127291841Y-99395026D01*
X127291843Y-99395026D01*
X127343310Y-99375732D01*
X127419764Y-99347071D01*
X127426943Y-99341691D01*
X127426946Y-99341689D01*
X127528224Y-99265785D01*
X127535404Y-99260404D01*
X127550713Y-99239977D01*
X127616689Y-99151946D01*
X127616691Y-99151943D01*
X127622071Y-99144764D01*
X127672798Y-99009448D01*
X127675306Y-98986367D01*
X127679131Y-98951153D01*
X127679131Y-98951152D01*
X127679500Y-98947756D01*
X127679500Y-98052244D01*
X127672798Y-97990552D01*
X127667100Y-97975351D01*
X127646879Y-97921413D01*
X127622071Y-97855236D01*
X127616691Y-97848057D01*
X127616689Y-97848054D01*
X127540785Y-97746776D01*
X127535404Y-97739596D01*
X127502397Y-97714859D01*
X127426946Y-97658311D01*
X127426943Y-97658309D01*
X127419764Y-97652929D01*
X127330046Y-97619296D01*
X127291843Y-97604974D01*
X127291841Y-97604974D01*
X127284448Y-97602202D01*
X127276598Y-97601349D01*
X127276597Y-97601349D01*
X127226153Y-97595869D01*
X127226152Y-97595869D01*
X127222756Y-97595500D01*
X125877244Y-97595500D01*
X125873848Y-97595869D01*
X125873847Y-97595869D01*
X125823403Y-97601349D01*
X125823402Y-97601349D01*
X125815552Y-97602202D01*
X125808159Y-97604974D01*
X125808157Y-97604974D01*
X125769954Y-97619296D01*
X125680236Y-97652929D01*
X125673057Y-97658309D01*
X125673054Y-97658311D01*
X125597603Y-97714859D01*
X125564596Y-97739596D01*
X125559215Y-97746776D01*
X125483311Y-97848054D01*
X125483309Y-97848057D01*
X125477929Y-97855236D01*
X125453121Y-97921413D01*
X125432901Y-97975351D01*
X125427202Y-97990552D01*
X125426349Y-97998402D01*
X125426349Y-97998403D01*
X125425295Y-98008107D01*
X125398054Y-98073669D01*
X125339691Y-98114096D01*
X125300032Y-98120500D01*
X125299968Y-98120500D01*
X125231847Y-98100498D01*
X125185354Y-98046842D01*
X125174705Y-98008107D01*
X125173651Y-97998403D01*
X125173651Y-97998402D01*
X125172798Y-97990552D01*
X125167100Y-97975351D01*
X125146879Y-97921413D01*
X125122071Y-97855236D01*
X125116691Y-97848057D01*
X125116689Y-97848054D01*
X125040785Y-97746776D01*
X125035404Y-97739596D01*
X125002397Y-97714859D01*
X124926946Y-97658311D01*
X124926943Y-97658309D01*
X124919764Y-97652929D01*
X124830046Y-97619296D01*
X124791843Y-97604974D01*
X124791841Y-97604974D01*
X124784448Y-97602202D01*
X124776598Y-97601349D01*
X124776597Y-97601349D01*
X124726153Y-97595869D01*
X124726152Y-97595869D01*
X124722756Y-97595500D01*
X123377244Y-97595500D01*
X123373848Y-97595869D01*
X123373847Y-97595869D01*
X123323403Y-97601349D01*
X123323402Y-97601349D01*
X123315552Y-97602202D01*
X123308159Y-97604974D01*
X123308157Y-97604974D01*
X123269954Y-97619296D01*
X123180236Y-97652929D01*
X123173057Y-97658309D01*
X123173054Y-97658311D01*
X123097603Y-97714859D01*
X123064596Y-97739596D01*
X123059215Y-97746776D01*
X122983311Y-97848054D01*
X122983309Y-97848057D01*
X122977929Y-97855236D01*
X122953121Y-97921413D01*
X122932901Y-97975351D01*
X122927202Y-97990552D01*
X122926349Y-97998402D01*
X122926349Y-97998403D01*
X122925295Y-98008107D01*
X122898054Y-98073669D01*
X122839691Y-98114096D01*
X122800032Y-98120500D01*
X122799968Y-98120500D01*
X122731847Y-98100498D01*
X122685354Y-98046842D01*
X122674705Y-98008107D01*
X122673651Y-97998403D01*
X122673651Y-97998402D01*
X122672798Y-97990552D01*
X122667100Y-97975351D01*
X122646879Y-97921413D01*
X122622071Y-97855236D01*
X122616691Y-97848057D01*
X122616689Y-97848054D01*
X122540785Y-97746776D01*
X122535404Y-97739596D01*
X122502397Y-97714859D01*
X122426946Y-97658311D01*
X122426943Y-97658309D01*
X122419764Y-97652929D01*
X122330046Y-97619296D01*
X122291843Y-97604974D01*
X122291841Y-97604974D01*
X122284448Y-97602202D01*
X122276598Y-97601349D01*
X122276597Y-97601349D01*
X122226153Y-97595869D01*
X122226152Y-97595869D01*
X122222756Y-97595500D01*
X120877244Y-97595500D01*
X120873848Y-97595869D01*
X120873847Y-97595869D01*
X120823403Y-97601349D01*
X120823402Y-97601349D01*
X120815552Y-97602202D01*
X120808159Y-97604974D01*
X120808157Y-97604974D01*
X120769954Y-97619296D01*
X120680236Y-97652929D01*
X120673057Y-97658309D01*
X120673054Y-97658311D01*
X120597603Y-97714859D01*
X120564596Y-97739596D01*
X120559215Y-97746776D01*
X120483311Y-97848054D01*
X120483309Y-97848057D01*
X120477929Y-97855236D01*
X120453121Y-97921413D01*
X120432901Y-97975351D01*
X120427202Y-97990552D01*
X120426349Y-97998402D01*
X120426349Y-97998403D01*
X120425295Y-98008107D01*
X120398054Y-98073669D01*
X120339691Y-98114096D01*
X120300032Y-98120500D01*
X120299968Y-98120500D01*
X120231847Y-98100498D01*
X120185354Y-98046842D01*
X120174705Y-98008107D01*
X120173651Y-97998403D01*
X120173651Y-97998402D01*
X120172798Y-97990552D01*
X120167100Y-97975351D01*
X120146879Y-97921413D01*
X120122071Y-97855236D01*
X120116691Y-97848057D01*
X120116689Y-97848054D01*
X120040785Y-97746776D01*
X120035404Y-97739596D01*
X120002397Y-97714859D01*
X119926946Y-97658311D01*
X119926943Y-97658309D01*
X119919764Y-97652929D01*
X119830046Y-97619296D01*
X119791843Y-97604974D01*
X119791841Y-97604974D01*
X119784448Y-97602202D01*
X119776598Y-97601349D01*
X119776597Y-97601349D01*
X119726153Y-97595869D01*
X119726152Y-97595869D01*
X119722756Y-97595500D01*
X118377244Y-97595500D01*
X118373848Y-97595869D01*
X118373847Y-97595869D01*
X118323403Y-97601349D01*
X118323402Y-97601349D01*
X118315552Y-97602202D01*
X118308159Y-97604974D01*
X118308157Y-97604974D01*
X118269954Y-97619296D01*
X118180236Y-97652929D01*
X118173057Y-97658309D01*
X118173054Y-97658311D01*
X118097603Y-97714859D01*
X118064596Y-97739596D01*
X118059215Y-97746776D01*
X117983311Y-97848054D01*
X117983309Y-97848057D01*
X117977929Y-97855236D01*
X117953121Y-97921413D01*
X117932901Y-97975351D01*
X117927202Y-97990552D01*
X117926349Y-97998402D01*
X117926349Y-97998403D01*
X117925295Y-98008107D01*
X117898054Y-98073669D01*
X117839691Y-98114096D01*
X117800032Y-98120500D01*
X117799968Y-98120500D01*
X117731847Y-98100498D01*
X117685354Y-98046842D01*
X117674705Y-98008107D01*
X117673651Y-97998403D01*
X117673651Y-97998402D01*
X117672798Y-97990552D01*
X117667100Y-97975351D01*
X117646879Y-97921413D01*
X117622071Y-97855236D01*
X117616691Y-97848057D01*
X117616689Y-97848054D01*
X117540785Y-97746776D01*
X117535404Y-97739596D01*
X117502397Y-97714859D01*
X117426946Y-97658311D01*
X117426943Y-97658309D01*
X117419764Y-97652929D01*
X117330046Y-97619296D01*
X117291843Y-97604974D01*
X117291841Y-97604974D01*
X117284448Y-97602202D01*
X117276598Y-97601349D01*
X117276597Y-97601349D01*
X117226153Y-97595869D01*
X117226152Y-97595869D01*
X117222756Y-97595500D01*
X115877244Y-97595500D01*
X115873848Y-97595869D01*
X115873847Y-97595869D01*
X115823403Y-97601349D01*
X115823402Y-97601349D01*
X115815552Y-97602202D01*
X115808159Y-97604974D01*
X115808157Y-97604974D01*
X115769954Y-97619296D01*
X115680236Y-97652929D01*
X115673057Y-97658309D01*
X115673054Y-97658311D01*
X115597603Y-97714859D01*
X115564596Y-97739596D01*
X115559215Y-97746776D01*
X115483311Y-97848054D01*
X115483309Y-97848057D01*
X115477929Y-97855236D01*
X115453121Y-97921413D01*
X115432901Y-97975351D01*
X115427202Y-97990552D01*
X115426349Y-97998402D01*
X115426349Y-97998403D01*
X115425295Y-98008107D01*
X115398054Y-98073669D01*
X115339691Y-98114096D01*
X115300032Y-98120500D01*
X115299968Y-98120500D01*
X115231847Y-98100498D01*
X115185354Y-98046842D01*
X115174705Y-98008107D01*
X115173651Y-97998403D01*
X115173651Y-97998402D01*
X115172798Y-97990552D01*
X115167100Y-97975351D01*
X115146879Y-97921413D01*
X115122071Y-97855236D01*
X115116691Y-97848057D01*
X115116689Y-97848054D01*
X115040785Y-97746776D01*
X115035404Y-97739596D01*
X115002397Y-97714859D01*
X114926946Y-97658311D01*
X114926943Y-97658309D01*
X114919764Y-97652929D01*
X114830046Y-97619296D01*
X114791843Y-97604974D01*
X114791841Y-97604974D01*
X114784448Y-97602202D01*
X114776598Y-97601349D01*
X114776597Y-97601349D01*
X114726153Y-97595869D01*
X114726152Y-97595869D01*
X114722756Y-97595500D01*
X113377244Y-97595500D01*
X113373848Y-97595869D01*
X113373847Y-97595869D01*
X113323403Y-97601349D01*
X113323402Y-97601349D01*
X113315552Y-97602202D01*
X113308159Y-97604974D01*
X113308157Y-97604974D01*
X113269954Y-97619296D01*
X113180236Y-97652929D01*
X113173057Y-97658309D01*
X113173054Y-97658311D01*
X113097603Y-97714859D01*
X113064596Y-97739596D01*
X113059215Y-97746776D01*
X112983311Y-97848054D01*
X112983309Y-97848057D01*
X112977929Y-97855236D01*
X112953121Y-97921413D01*
X112932901Y-97975351D01*
X112927202Y-97990552D01*
X112926349Y-97998402D01*
X112926349Y-97998403D01*
X112925295Y-98008107D01*
X112898054Y-98073669D01*
X112839691Y-98114096D01*
X112800032Y-98120500D01*
X112799968Y-98120500D01*
X112731847Y-98100498D01*
X112685354Y-98046842D01*
X112674705Y-98008107D01*
X112673651Y-97998403D01*
X112673651Y-97998402D01*
X112672798Y-97990552D01*
X112667100Y-97975351D01*
X112646879Y-97921413D01*
X112622071Y-97855236D01*
X112616691Y-97848057D01*
X112616689Y-97848054D01*
X112540785Y-97746776D01*
X112535404Y-97739596D01*
X112502397Y-97714859D01*
X112426946Y-97658311D01*
X112426943Y-97658309D01*
X112419764Y-97652929D01*
X112330046Y-97619296D01*
X112291843Y-97604974D01*
X112291841Y-97604974D01*
X112284448Y-97602202D01*
X112276598Y-97601349D01*
X112276597Y-97601349D01*
X112226153Y-97595869D01*
X112226152Y-97595869D01*
X112222756Y-97595500D01*
X110877244Y-97595500D01*
X110873848Y-97595869D01*
X110873847Y-97595869D01*
X110823403Y-97601349D01*
X110823402Y-97601349D01*
X110815552Y-97602202D01*
X110808159Y-97604974D01*
X110808157Y-97604974D01*
X110769954Y-97619296D01*
X110680236Y-97652929D01*
X110673057Y-97658309D01*
X110673054Y-97658311D01*
X110646066Y-97678538D01*
X110579560Y-97703386D01*
X110510177Y-97688333D01*
X110459947Y-97638159D01*
X110444501Y-97577712D01*
X110444501Y-96322288D01*
X110464503Y-96254167D01*
X110518159Y-96207674D01*
X110588433Y-96197570D01*
X110646066Y-96221462D01*
X110673054Y-96241689D01*
X110673057Y-96241691D01*
X110680236Y-96247071D01*
X110769954Y-96280704D01*
X110808157Y-96295026D01*
X110808159Y-96295026D01*
X110815552Y-96297798D01*
X110823402Y-96298651D01*
X110823403Y-96298651D01*
X110873847Y-96304131D01*
X110877244Y-96304500D01*
X112222756Y-96304500D01*
X112226153Y-96304131D01*
X112276597Y-96298651D01*
X112276598Y-96298651D01*
X112284448Y-96297798D01*
X112291841Y-96295026D01*
X112291843Y-96295026D01*
X112330046Y-96280704D01*
X112419764Y-96247071D01*
X112426943Y-96241691D01*
X112426946Y-96241689D01*
X112528224Y-96165785D01*
X112535404Y-96160404D01*
X112564531Y-96121540D01*
X112616689Y-96051946D01*
X112616691Y-96051943D01*
X112622071Y-96044764D01*
X112672798Y-95909448D01*
X112674737Y-95891599D01*
X112701979Y-95826037D01*
X112760342Y-95785611D01*
X112831296Y-95783156D01*
X112892314Y-95819451D01*
X112924023Y-95882973D01*
X112925263Y-95891598D01*
X112927202Y-95909448D01*
X112977929Y-96044764D01*
X112983309Y-96051943D01*
X112983311Y-96051946D01*
X113035469Y-96121540D01*
X113064596Y-96160404D01*
X113071776Y-96165785D01*
X113173054Y-96241689D01*
X113173057Y-96241691D01*
X113180236Y-96247071D01*
X113269954Y-96280704D01*
X113308157Y-96295026D01*
X113308159Y-96295026D01*
X113315552Y-96297798D01*
X113323402Y-96298651D01*
X113323403Y-96298651D01*
X113373847Y-96304131D01*
X113377244Y-96304500D01*
X114722756Y-96304500D01*
X114726153Y-96304131D01*
X114776597Y-96298651D01*
X114776598Y-96298651D01*
X114784448Y-96297798D01*
X114791841Y-96295026D01*
X114791843Y-96295026D01*
X114830046Y-96280704D01*
X114919764Y-96247071D01*
X114926943Y-96241691D01*
X114926946Y-96241689D01*
X115028224Y-96165785D01*
X115035404Y-96160404D01*
X115064531Y-96121540D01*
X115116689Y-96051946D01*
X115116691Y-96051943D01*
X115122071Y-96044764D01*
X115172798Y-95909448D01*
X115174737Y-95891599D01*
X115201979Y-95826037D01*
X115260342Y-95785611D01*
X115331296Y-95783156D01*
X115392314Y-95819451D01*
X115424023Y-95882973D01*
X115425263Y-95891598D01*
X115427202Y-95909448D01*
X115477929Y-96044764D01*
X115483309Y-96051943D01*
X115483311Y-96051946D01*
X115535469Y-96121540D01*
X115564596Y-96160404D01*
X115571776Y-96165785D01*
X115673054Y-96241689D01*
X115673057Y-96241691D01*
X115680236Y-96247071D01*
X115769954Y-96280704D01*
X115808157Y-96295026D01*
X115808159Y-96295026D01*
X115815552Y-96297798D01*
X115823402Y-96298651D01*
X115823403Y-96298651D01*
X115873847Y-96304131D01*
X115877244Y-96304500D01*
X117222756Y-96304500D01*
X117226153Y-96304131D01*
X117276597Y-96298651D01*
X117276598Y-96298651D01*
X117284448Y-96297798D01*
X117291841Y-96295026D01*
X117291843Y-96295026D01*
X117330046Y-96280704D01*
X117419764Y-96247071D01*
X117426943Y-96241691D01*
X117426946Y-96241689D01*
X117528224Y-96165785D01*
X117535404Y-96160404D01*
X117564531Y-96121540D01*
X117616689Y-96051946D01*
X117616691Y-96051943D01*
X117622071Y-96044764D01*
X117672798Y-95909448D01*
X117674737Y-95891599D01*
X117701979Y-95826037D01*
X117760342Y-95785611D01*
X117831296Y-95783156D01*
X117892314Y-95819451D01*
X117924023Y-95882973D01*
X117925263Y-95891598D01*
X117927202Y-95909448D01*
X117977929Y-96044764D01*
X117983309Y-96051943D01*
X117983311Y-96051946D01*
X118035469Y-96121540D01*
X118064596Y-96160404D01*
X118071776Y-96165785D01*
X118173054Y-96241689D01*
X118173057Y-96241691D01*
X118180236Y-96247071D01*
X118269954Y-96280704D01*
X118308157Y-96295026D01*
X118308159Y-96295026D01*
X118315552Y-96297798D01*
X118323402Y-96298651D01*
X118323403Y-96298651D01*
X118373847Y-96304131D01*
X118377244Y-96304500D01*
X119722756Y-96304500D01*
X119726153Y-96304131D01*
X119776597Y-96298651D01*
X119776598Y-96298651D01*
X119784448Y-96297798D01*
X119791841Y-96295026D01*
X119791843Y-96295026D01*
X119830046Y-96280704D01*
X119919764Y-96247071D01*
X119926943Y-96241691D01*
X119926946Y-96241689D01*
X120028224Y-96165785D01*
X120035404Y-96160404D01*
X120064531Y-96121540D01*
X120116689Y-96051946D01*
X120116691Y-96051943D01*
X120122071Y-96044764D01*
X120172798Y-95909448D01*
X120174737Y-95891599D01*
X120201979Y-95826037D01*
X120260342Y-95785611D01*
X120331296Y-95783156D01*
X120392314Y-95819451D01*
X120424023Y-95882973D01*
X120425263Y-95891598D01*
X120427202Y-95909448D01*
X120477929Y-96044764D01*
X120483309Y-96051943D01*
X120483311Y-96051946D01*
X120535469Y-96121540D01*
X120564596Y-96160404D01*
X120571776Y-96165785D01*
X120673054Y-96241689D01*
X120673057Y-96241691D01*
X120680236Y-96247071D01*
X120769954Y-96280704D01*
X120808157Y-96295026D01*
X120808159Y-96295026D01*
X120815552Y-96297798D01*
X120823402Y-96298651D01*
X120823403Y-96298651D01*
X120873847Y-96304131D01*
X120877244Y-96304500D01*
X122222756Y-96304500D01*
X122226153Y-96304131D01*
X122276597Y-96298651D01*
X122276598Y-96298651D01*
X122284448Y-96297798D01*
X122291841Y-96295026D01*
X122291843Y-96295026D01*
X122330046Y-96280704D01*
X122419764Y-96247071D01*
X122426943Y-96241691D01*
X122426946Y-96241689D01*
X122528224Y-96165785D01*
X122535404Y-96160404D01*
X122564531Y-96121540D01*
X122616689Y-96051946D01*
X122616691Y-96051943D01*
X122622071Y-96044764D01*
X122672798Y-95909448D01*
X122674737Y-95891599D01*
X122701979Y-95826037D01*
X122760342Y-95785611D01*
X122831296Y-95783156D01*
X122892314Y-95819451D01*
X122924023Y-95882973D01*
X122925263Y-95891598D01*
X122927202Y-95909448D01*
X122977929Y-96044764D01*
X122983309Y-96051943D01*
X122983311Y-96051946D01*
X123035469Y-96121540D01*
X123064596Y-96160404D01*
X123071776Y-96165785D01*
X123173054Y-96241689D01*
X123173057Y-96241691D01*
X123180236Y-96247071D01*
X123269954Y-96280704D01*
X123308157Y-96295026D01*
X123308159Y-96295026D01*
X123315552Y-96297798D01*
X123323402Y-96298651D01*
X123323403Y-96298651D01*
X123373847Y-96304131D01*
X123377244Y-96304500D01*
X124722756Y-96304500D01*
X124726153Y-96304131D01*
X124776597Y-96298651D01*
X124776598Y-96298651D01*
X124784448Y-96297798D01*
X124791841Y-96295026D01*
X124791843Y-96295026D01*
X124830046Y-96280704D01*
X124919764Y-96247071D01*
X124926943Y-96241691D01*
X124926946Y-96241689D01*
X125028224Y-96165785D01*
X125035404Y-96160404D01*
X125064531Y-96121540D01*
X125116689Y-96051946D01*
X125116691Y-96051943D01*
X125122071Y-96044764D01*
X125172798Y-95909448D01*
X125174737Y-95891599D01*
X125201979Y-95826037D01*
X125260342Y-95785611D01*
X125331296Y-95783156D01*
X125392314Y-95819451D01*
X125424023Y-95882973D01*
X125425263Y-95891598D01*
X125427202Y-95909448D01*
X125477929Y-96044764D01*
X125483309Y-96051943D01*
X125483311Y-96051946D01*
X125535469Y-96121540D01*
X125564596Y-96160404D01*
X125571776Y-96165785D01*
X125673054Y-96241689D01*
X125673057Y-96241691D01*
X125680236Y-96247071D01*
X125769954Y-96280704D01*
X125808157Y-96295026D01*
X125808159Y-96295026D01*
X125815552Y-96297798D01*
X125823402Y-96298651D01*
X125823403Y-96298651D01*
X125873847Y-96304131D01*
X125877244Y-96304500D01*
X127222756Y-96304500D01*
X127226153Y-96304131D01*
X127276597Y-96298651D01*
X127276598Y-96298651D01*
X127284448Y-96297798D01*
X127291841Y-96295026D01*
X127291843Y-96295026D01*
X127330046Y-96280704D01*
X127419764Y-96247071D01*
X127426943Y-96241691D01*
X127426946Y-96241689D01*
X127528224Y-96165785D01*
X127535404Y-96160404D01*
X127564531Y-96121540D01*
X127616689Y-96051946D01*
X127616691Y-96051943D01*
X127622071Y-96044764D01*
X127672798Y-95909448D01*
X127679500Y-95847756D01*
X127679500Y-94952244D01*
X127676929Y-94928578D01*
X127673651Y-94898403D01*
X127673651Y-94898402D01*
X127672798Y-94890552D01*
X127622071Y-94755236D01*
X127616691Y-94748057D01*
X127616689Y-94748054D01*
X127540785Y-94646776D01*
X127535404Y-94639596D01*
X127477653Y-94596314D01*
X127426946Y-94558311D01*
X127426943Y-94558309D01*
X127419764Y-94552929D01*
X127330046Y-94519296D01*
X127291843Y-94504974D01*
X127291841Y-94504974D01*
X127284448Y-94502202D01*
X127276598Y-94501349D01*
X127276597Y-94501349D01*
X127226153Y-94495869D01*
X127226152Y-94495869D01*
X127222756Y-94495500D01*
X127055500Y-94495500D01*
X126987379Y-94475498D01*
X126940886Y-94421842D01*
X126929500Y-94369500D01*
X126929500Y-94346891D01*
X126949502Y-94278770D01*
X127003349Y-94232190D01*
X127054313Y-94209018D01*
X127103084Y-94186843D01*
X127248362Y-94083790D01*
X127270100Y-94068370D01*
X127270101Y-94068369D01*
X127274986Y-94064904D01*
X127394940Y-93939599D01*
X127416583Y-93916990D01*
X127420728Y-93912660D01*
X127477710Y-93824410D01*
X127531800Y-93740640D01*
X127531801Y-93740637D01*
X127535052Y-93735603D01*
X127613834Y-93540122D01*
X127644535Y-93382912D01*
X127653361Y-93337717D01*
X127653361Y-93337714D01*
X127654229Y-93333271D01*
X127654500Y-93327730D01*
X127654500Y-93022341D01*
X127639507Y-92865194D01*
X127584395Y-92677334D01*
X127581868Y-92668722D01*
X127580177Y-92662958D01*
X127529415Y-92564397D01*
X127486422Y-92480921D01*
X127486420Y-92480918D01*
X127483676Y-92475590D01*
X127428566Y-92405432D01*
X127357192Y-92314568D01*
X127357188Y-92314564D01*
X127353486Y-92309851D01*
X127343623Y-92301292D01*
X127198835Y-92175650D01*
X127198830Y-92175646D01*
X127194304Y-92171719D01*
X127011874Y-92066181D01*
X126812778Y-91997043D01*
X126806845Y-91996183D01*
X126806842Y-91996182D01*
X126610140Y-91967662D01*
X126610137Y-91967662D01*
X126604200Y-91966801D01*
X126393667Y-91976545D01*
X126387843Y-91977949D01*
X126387840Y-91977949D01*
X126194607Y-92024518D01*
X126194605Y-92024519D01*
X126188774Y-92025924D01*
X126183316Y-92028406D01*
X126183312Y-92028407D01*
X126104562Y-92064213D01*
X125996916Y-92113157D01*
X125825014Y-92235096D01*
X125679272Y-92387340D01*
X125676021Y-92392375D01*
X125568204Y-92559355D01*
X125564948Y-92564397D01*
X125562706Y-92569960D01*
X125546879Y-92609232D01*
X125486166Y-92759878D01*
X125445771Y-92966729D01*
X125445500Y-92972270D01*
X125445500Y-93277659D01*
X125460493Y-93434806D01*
X125519823Y-93637042D01*
X125522573Y-93642381D01*
X125601960Y-93796520D01*
X125616324Y-93824410D01*
X125628721Y-93840192D01*
X125742808Y-93985432D01*
X125742812Y-93985436D01*
X125746514Y-93990149D01*
X125751044Y-93994080D01*
X125751045Y-93994081D01*
X125901165Y-94124350D01*
X125901170Y-94124354D01*
X125905696Y-94128281D01*
X126088126Y-94233819D01*
X126093791Y-94235786D01*
X126096953Y-94237234D01*
X126150564Y-94283779D01*
X126170500Y-94351797D01*
X126170500Y-94369500D01*
X126150498Y-94437621D01*
X126096842Y-94484114D01*
X126044500Y-94495500D01*
X125877244Y-94495500D01*
X125873848Y-94495869D01*
X125873847Y-94495869D01*
X125823403Y-94501349D01*
X125823402Y-94501349D01*
X125815552Y-94502202D01*
X125808159Y-94504974D01*
X125808157Y-94504974D01*
X125769954Y-94519296D01*
X125680236Y-94552929D01*
X125673057Y-94558309D01*
X125673054Y-94558311D01*
X125622347Y-94596314D01*
X125564596Y-94639596D01*
X125559215Y-94646776D01*
X125483311Y-94748054D01*
X125483309Y-94748057D01*
X125477929Y-94755236D01*
X125427202Y-94890552D01*
X125426349Y-94898400D01*
X125426349Y-94898402D01*
X125425263Y-94908401D01*
X125398021Y-94973963D01*
X125339658Y-95014389D01*
X125268704Y-95016844D01*
X125207686Y-94980549D01*
X125175977Y-94917027D01*
X125174737Y-94908401D01*
X125173651Y-94898402D01*
X125173651Y-94898400D01*
X125172798Y-94890552D01*
X125122071Y-94755236D01*
X125116691Y-94748057D01*
X125116689Y-94748054D01*
X125040785Y-94646776D01*
X125035404Y-94639596D01*
X124977653Y-94596314D01*
X124926946Y-94558311D01*
X124926943Y-94558309D01*
X124919764Y-94552929D01*
X124830046Y-94519296D01*
X124791843Y-94504974D01*
X124791841Y-94504974D01*
X124784448Y-94502202D01*
X124776598Y-94501349D01*
X124776597Y-94501349D01*
X124726153Y-94495869D01*
X124726152Y-94495869D01*
X124722756Y-94495500D01*
X124555500Y-94495500D01*
X124487379Y-94475498D01*
X124440886Y-94421842D01*
X124429500Y-94369500D01*
X124429500Y-94346891D01*
X124449502Y-94278770D01*
X124503349Y-94232190D01*
X124554313Y-94209018D01*
X124603084Y-94186843D01*
X124748362Y-94083790D01*
X124770100Y-94068370D01*
X124770101Y-94068369D01*
X124774986Y-94064904D01*
X124894940Y-93939599D01*
X124916583Y-93916990D01*
X124920728Y-93912660D01*
X124977710Y-93824410D01*
X125031800Y-93740640D01*
X125031801Y-93740637D01*
X125035052Y-93735603D01*
X125113834Y-93540122D01*
X125144535Y-93382912D01*
X125153361Y-93337717D01*
X125153361Y-93337714D01*
X125154229Y-93333271D01*
X125154500Y-93327730D01*
X125154500Y-93022341D01*
X125139507Y-92865194D01*
X125084395Y-92677334D01*
X125081868Y-92668722D01*
X125080177Y-92662958D01*
X125029415Y-92564397D01*
X124986422Y-92480921D01*
X124986420Y-92480918D01*
X124983676Y-92475590D01*
X124928566Y-92405432D01*
X124857192Y-92314568D01*
X124857188Y-92314564D01*
X124853486Y-92309851D01*
X124843623Y-92301292D01*
X124698835Y-92175650D01*
X124698830Y-92175646D01*
X124694304Y-92171719D01*
X124511874Y-92066181D01*
X124506206Y-92064213D01*
X124506200Y-92064210D01*
X124488686Y-92058128D01*
X124430897Y-92016886D01*
X124409446Y-91975678D01*
X124402453Y-91952627D01*
X124377231Y-91869481D01*
X124366055Y-91848571D01*
X124312410Y-91748209D01*
X124312409Y-91748208D01*
X124309492Y-91742750D01*
X124295243Y-91725387D01*
X124239403Y-91657347D01*
X124218330Y-91631670D01*
X124153519Y-91578480D01*
X124112034Y-91544434D01*
X124112033Y-91544433D01*
X124107250Y-91540508D01*
X124095005Y-91533963D01*
X123985977Y-91475686D01*
X123985974Y-91475685D01*
X123980519Y-91472769D01*
X123843008Y-91431055D01*
X123818661Y-91428657D01*
X123786029Y-91425443D01*
X123773092Y-91423420D01*
X123766149Y-91420982D01*
X123760584Y-91420500D01*
X123742027Y-91420500D01*
X123729682Y-91419893D01*
X123723746Y-91419309D01*
X123716399Y-91418366D01*
X123709795Y-91417320D01*
X123709793Y-91417320D01*
X123700001Y-91415769D01*
X123682588Y-91418527D01*
X123679924Y-91418949D01*
X123660213Y-91420500D01*
X121007625Y-91420500D01*
X120939504Y-91400498D01*
X120925794Y-91390311D01*
X120924234Y-91388978D01*
X120823451Y-91302901D01*
X120657955Y-91201484D01*
X120653383Y-91199590D01*
X120483204Y-91129099D01*
X120483202Y-91129098D01*
X120478631Y-91127205D01*
X120384263Y-91104550D01*
X120294707Y-91083049D01*
X120294704Y-91083049D01*
X120289895Y-91081894D01*
X120195971Y-91074502D01*
X120170172Y-91072472D01*
X120164474Y-91071638D01*
X120162545Y-91070961D01*
X120156980Y-91070479D01*
X120149797Y-91070479D01*
X120139912Y-91070091D01*
X120132405Y-91069500D01*
X120112847Y-91067961D01*
X120107261Y-91067300D01*
X120106191Y-91067300D01*
X120096395Y-91065748D01*
X120086602Y-91067299D01*
X120086601Y-91067299D01*
X120076318Y-91068928D01*
X120056607Y-91070479D01*
X118272581Y-91070479D01*
X118252870Y-91068928D01*
X118242587Y-91067299D01*
X118242586Y-91067299D01*
X118232793Y-91065748D01*
X118222998Y-91067300D01*
X118216906Y-91067300D01*
X118200460Y-91066223D01*
X118170744Y-91062310D01*
X118138976Y-91053797D01*
X118096481Y-91036195D01*
X118067996Y-91019749D01*
X118044230Y-91001513D01*
X118031823Y-90990631D01*
X118027516Y-90986323D01*
X118023980Y-90981456D01*
X118021693Y-90978308D01*
X118020495Y-90977437D01*
X118013051Y-90972029D01*
X118004039Y-90964828D01*
X117875703Y-90852281D01*
X117872597Y-90849557D01*
X117708890Y-90740171D01*
X117705191Y-90738347D01*
X117705186Y-90738344D01*
X117584409Y-90678784D01*
X117532305Y-90653089D01*
X117528399Y-90651763D01*
X117349772Y-90591127D01*
X117349768Y-90591126D01*
X117345865Y-90589801D01*
X117341826Y-90588998D01*
X117341820Y-90588996D01*
X117156802Y-90552194D01*
X117156799Y-90552194D01*
X117152759Y-90551390D01*
X117148648Y-90551121D01*
X117148644Y-90551120D01*
X117048932Y-90544584D01*
X117029105Y-90543285D01*
X117023092Y-90542446D01*
X117022441Y-90542217D01*
X117016876Y-90541735D01*
X117009576Y-90541735D01*
X117001336Y-90541465D01*
X116978312Y-90539956D01*
X116966843Y-90538675D01*
X116956292Y-90537004D01*
X116936486Y-90540141D01*
X116936215Y-90540184D01*
X116916504Y-90541735D01*
X111280164Y-90541735D01*
X111260453Y-90540184D01*
X111250170Y-90538555D01*
X111250169Y-90538555D01*
X111240376Y-90537004D01*
X111230580Y-90538556D01*
X111225614Y-90538556D01*
X111177391Y-90528964D01*
X111165168Y-90523902D01*
X111124295Y-90496589D01*
X111120775Y-90493069D01*
X111114949Y-90485050D01*
X111103334Y-90476612D01*
X111097463Y-90472075D01*
X111003747Y-90395165D01*
X111003743Y-90395162D01*
X110998960Y-90391237D01*
X110909783Y-90343571D01*
X110872950Y-90323883D01*
X110872947Y-90323882D01*
X110867492Y-90320966D01*
X110724841Y-90277693D01*
X110661388Y-90271444D01*
X110649239Y-90269544D01*
X110642636Y-90267225D01*
X110637071Y-90266743D01*
X110619854Y-90266743D01*
X110607504Y-90266136D01*
X110598031Y-90265203D01*
X110590667Y-90264258D01*
X110576489Y-90262012D01*
X110566696Y-90263563D01*
X110566695Y-90263563D01*
X110556411Y-90265192D01*
X110536701Y-90266743D01*
X110393544Y-90266743D01*
X110373833Y-90265192D01*
X110373625Y-90265159D01*
X110353756Y-90262012D01*
X110339581Y-90264257D01*
X110328124Y-90265537D01*
X110286667Y-90268254D01*
X110181910Y-90275120D01*
X110181903Y-90275121D01*
X110177798Y-90275390D01*
X110173765Y-90276192D01*
X110173759Y-90276193D01*
X110008900Y-90308986D01*
X110008894Y-90308988D01*
X110004850Y-90309792D01*
X110000941Y-90311119D01*
X110000937Y-90311120D01*
X109841787Y-90365144D01*
X109837872Y-90366473D01*
X109834176Y-90368296D01*
X109834168Y-90368299D01*
X109719890Y-90424656D01*
X109679721Y-90444465D01*
X109533103Y-90542431D01*
X109530005Y-90545148D01*
X109529997Y-90545154D01*
X109457080Y-90609101D01*
X109451068Y-90613640D01*
X109449683Y-90614305D01*
X109445407Y-90617899D01*
X109436623Y-90626683D01*
X109430606Y-90632319D01*
X109419843Y-90641758D01*
X109410836Y-90648955D01*
X109399222Y-90657393D01*
X109393393Y-90665416D01*
X109393392Y-90665417D01*
X109387271Y-90673842D01*
X109374430Y-90688876D01*
X109359790Y-90703516D01*
X109344756Y-90716357D01*
X109336329Y-90722479D01*
X109336326Y-90722482D01*
X109328307Y-90728308D01*
X109322480Y-90736328D01*
X109318167Y-90740641D01*
X109305777Y-90751506D01*
X109281988Y-90769760D01*
X109253504Y-90786206D01*
X109210994Y-90803815D01*
X109179219Y-90812329D01*
X109166951Y-90813944D01*
X109149492Y-90816242D01*
X109133048Y-90817320D01*
X109126951Y-90817320D01*
X109117159Y-90815769D01*
X109100851Y-90818352D01*
X109097082Y-90818949D01*
X109077371Y-90820500D01*
X108399682Y-90820500D01*
X108331561Y-90800498D01*
X108305114Y-90774860D01*
X108303878Y-90775949D01*
X108298855Y-90770251D01*
X108294553Y-90763992D01*
X108287863Y-90758031D01*
X108226676Y-90703516D01*
X108176275Y-90658611D01*
X108168889Y-90654700D01*
X108046316Y-90589801D01*
X108036274Y-90584484D01*
X107882633Y-90545892D01*
X107875034Y-90545852D01*
X107875033Y-90545852D01*
X107809181Y-90545507D01*
X107724221Y-90545062D01*
X107716841Y-90546834D01*
X107716839Y-90546834D01*
X107577563Y-90580271D01*
X107577560Y-90580272D01*
X107570184Y-90582043D01*
X107429414Y-90654700D01*
X107310039Y-90758838D01*
X107218950Y-90888444D01*
X107217928Y-90891066D01*
X107169540Y-90940196D01*
X107100283Y-90955816D01*
X107033576Y-90931513D01*
X107029703Y-90928372D01*
X107027573Y-90926892D01*
X107021902Y-90921839D01*
X107014516Y-90917928D01*
X106918934Y-90867320D01*
X106881901Y-90847712D01*
X106728260Y-90809120D01*
X106720661Y-90809080D01*
X106720660Y-90809080D01*
X106654808Y-90808735D01*
X106569848Y-90808290D01*
X106562468Y-90810062D01*
X106562466Y-90810062D01*
X106423190Y-90843499D01*
X106423187Y-90843500D01*
X106415811Y-90845271D01*
X106275041Y-90917928D01*
X106155666Y-91022066D01*
X106064577Y-91151672D01*
X106045895Y-91199590D01*
X106011765Y-91287129D01*
X106007033Y-91299265D01*
X105991277Y-91418949D01*
X105987194Y-91449960D01*
X105958472Y-91514887D01*
X105899207Y-91553979D01*
X105828215Y-91554824D01*
X105773177Y-91522609D01*
X105253349Y-91002781D01*
X105240507Y-90987746D01*
X105234385Y-90979320D01*
X105228557Y-90971298D01*
X105220536Y-90965470D01*
X105219633Y-90964567D01*
X105215869Y-90961600D01*
X105078465Y-90844247D01*
X104996715Y-90794150D01*
X104949083Y-90741503D01*
X104944685Y-90731257D01*
X104929101Y-90690018D01*
X104929099Y-90690014D01*
X104926413Y-90682906D01*
X104917947Y-90670588D01*
X104840988Y-90558611D01*
X104840987Y-90558609D01*
X104836686Y-90552352D01*
X104829436Y-90545892D01*
X104777927Y-90500000D01*
X104718408Y-90446971D01*
X104711022Y-90443060D01*
X104585121Y-90376399D01*
X104585122Y-90376399D01*
X104578407Y-90372844D01*
X104424766Y-90334252D01*
X104417167Y-90334212D01*
X104417166Y-90334212D01*
X104351314Y-90333867D01*
X104266354Y-90333422D01*
X104258974Y-90335194D01*
X104258972Y-90335194D01*
X104119696Y-90368631D01*
X104119693Y-90368632D01*
X104112317Y-90370403D01*
X103971547Y-90443060D01*
X103852172Y-90547198D01*
X103761083Y-90676804D01*
X103739853Y-90731257D01*
X103708774Y-90810971D01*
X103703539Y-90824397D01*
X103702547Y-90831930D01*
X103702547Y-90831931D01*
X103688983Y-90934961D01*
X103660261Y-90999888D01*
X103600995Y-91038980D01*
X103530004Y-91039825D01*
X103474966Y-91007610D01*
X102527812Y-90060456D01*
X102514971Y-90045422D01*
X102508850Y-90036997D01*
X102503023Y-90028977D01*
X102499023Y-90026071D01*
X102424742Y-89959689D01*
X102299287Y-89847576D01*
X102277810Y-89828383D01*
X102177616Y-89757292D01*
X102133634Y-89701560D01*
X102126765Y-89630896D01*
X102159190Y-89567736D01*
X102220614Y-89532134D01*
X102250528Y-89528531D01*
X103254432Y-89528531D01*
X103322553Y-89548533D01*
X103333873Y-89556773D01*
X103334173Y-89556974D01*
X103338960Y-89560902D01*
X103344418Y-89563820D01*
X103344419Y-89563820D01*
X103358510Y-89571352D01*
X103464201Y-89627845D01*
X103532148Y-89648457D01*
X103594170Y-89667272D01*
X103594174Y-89667273D01*
X103600095Y-89669069D01*
X103606256Y-89669676D01*
X103606257Y-89669676D01*
X103655033Y-89674480D01*
X103668223Y-89676542D01*
X103675272Y-89679018D01*
X103680837Y-89679500D01*
X103699821Y-89679500D01*
X103712180Y-89680108D01*
X103716969Y-89680580D01*
X103724319Y-89681523D01*
X103731625Y-89682680D01*
X103731629Y-89682680D01*
X103741421Y-89684231D01*
X103761499Y-89681051D01*
X103781209Y-89679500D01*
X103960212Y-89679500D01*
X103979923Y-89681051D01*
X103990206Y-89682680D01*
X103990207Y-89682680D01*
X104000000Y-89684231D01*
X104021015Y-89680902D01*
X104030823Y-89679741D01*
X104065451Y-89677015D01*
X104130380Y-89671906D01*
X104130386Y-89671905D01*
X104135317Y-89671517D01*
X104140129Y-89670362D01*
X104140134Y-89670361D01*
X104262495Y-89640985D01*
X104267302Y-89639831D01*
X104392706Y-89587887D01*
X104508440Y-89516966D01*
X104512199Y-89513756D01*
X104512208Y-89513749D01*
X104548989Y-89482335D01*
X104558112Y-89475540D01*
X104562656Y-89473358D01*
X104566932Y-89469763D01*
X104568861Y-89467834D01*
X104568874Y-89467822D01*
X104581629Y-89455066D01*
X104596668Y-89442221D01*
X104605093Y-89436100D01*
X104605095Y-89436098D01*
X104613114Y-89430272D01*
X104618941Y-89422252D01*
X104624788Y-89416405D01*
X104687100Y-89382379D01*
X104713883Y-89379500D01*
X122394527Y-89379500D01*
X122414237Y-89381051D01*
X122416780Y-89381454D01*
X122424521Y-89382680D01*
X122424522Y-89382680D01*
X122434315Y-89384231D01*
X122444110Y-89382679D01*
X122454025Y-89382679D01*
X122454025Y-89382834D01*
X122469135Y-89382240D01*
X122578703Y-89390863D01*
X122598230Y-89393956D01*
X122729427Y-89425453D01*
X122748227Y-89431563D01*
X122872875Y-89483195D01*
X122890490Y-89492170D01*
X123005522Y-89562661D01*
X123021519Y-89574283D01*
X123105092Y-89645662D01*
X123115356Y-89656765D01*
X123115465Y-89656656D01*
X123122477Y-89663668D01*
X123128307Y-89671692D01*
X123142419Y-89681944D01*
X123150178Y-89688061D01*
X123240288Y-89765021D01*
X123244484Y-89768605D01*
X123248696Y-89771186D01*
X123248700Y-89771189D01*
X123310869Y-89809286D01*
X123373353Y-89847576D01*
X123377923Y-89849469D01*
X123377927Y-89849471D01*
X123453816Y-89880905D01*
X123512991Y-89905416D01*
X123517806Y-89906572D01*
X123655141Y-89939544D01*
X123655144Y-89939544D01*
X123659957Y-89940700D01*
X123730679Y-89946266D01*
X123740471Y-89947699D01*
X123744484Y-89949108D01*
X123750049Y-89949590D01*
X123767962Y-89949590D01*
X123777847Y-89949978D01*
X123783579Y-89950429D01*
X123793403Y-89951592D01*
X123810633Y-89954321D01*
X123830711Y-89951141D01*
X123850421Y-89949590D01*
X124490123Y-89949590D01*
X124509833Y-89951141D01*
X124529911Y-89954321D01*
X124539704Y-89952770D01*
X124540858Y-89952770D01*
X124544475Y-89952326D01*
X124707374Y-89938073D01*
X124707380Y-89938072D01*
X124712866Y-89937592D01*
X124718179Y-89936168D01*
X124718181Y-89936168D01*
X124884952Y-89891482D01*
X124884954Y-89891481D01*
X124890262Y-89890059D01*
X124906187Y-89882633D01*
X125051722Y-89814769D01*
X125051727Y-89814766D01*
X125056709Y-89812443D01*
X125061218Y-89809286D01*
X125202639Y-89710262D01*
X125202642Y-89710260D01*
X125207150Y-89707103D01*
X125337013Y-89577240D01*
X125341268Y-89571164D01*
X125439196Y-89431308D01*
X125439197Y-89431306D01*
X125442353Y-89426799D01*
X125444676Y-89421817D01*
X125444679Y-89421812D01*
X125517646Y-89265334D01*
X125517647Y-89265332D01*
X125519969Y-89260352D01*
X125523836Y-89245922D01*
X125545606Y-89164674D01*
X125567502Y-89082956D01*
X125576844Y-88976172D01*
X125577858Y-88969451D01*
X125579018Y-88966149D01*
X125579500Y-88960584D01*
X125579500Y-88951330D01*
X125579980Y-88940347D01*
X125582236Y-88914564D01*
X125582680Y-88910947D01*
X125582680Y-88909794D01*
X125584231Y-88900001D01*
X125581051Y-88879923D01*
X125579500Y-88860213D01*
X125579500Y-88766785D01*
X125581051Y-88747074D01*
X125582092Y-88740500D01*
X125584231Y-88726997D01*
X125583416Y-88721849D01*
X125582681Y-88713448D01*
X125582681Y-88713432D01*
X125566916Y-88533251D01*
X125566915Y-88533245D01*
X125566435Y-88527759D01*
X125565011Y-88522444D01*
X125516095Y-88339885D01*
X125516094Y-88339883D01*
X125514672Y-88334575D01*
X125505679Y-88315289D01*
X125432475Y-88158301D01*
X125432472Y-88158296D01*
X125430149Y-88153314D01*
X125423731Y-88144148D01*
X125318593Y-87993995D01*
X125318591Y-87993992D01*
X125315434Y-87989484D01*
X125174014Y-87848064D01*
X125169506Y-87844907D01*
X125169503Y-87844905D01*
X125014693Y-87736506D01*
X125014691Y-87736505D01*
X125010184Y-87733349D01*
X125005202Y-87731026D01*
X125005197Y-87731023D01*
X124833905Y-87651149D01*
X124833904Y-87651149D01*
X124828923Y-87648826D01*
X124823615Y-87647404D01*
X124823613Y-87647403D01*
X124698259Y-87613815D01*
X124635739Y-87597063D01*
X124630257Y-87596583D01*
X124630249Y-87596582D01*
X124509886Y-87586051D01*
X124505046Y-87585321D01*
X124502651Y-87584480D01*
X124497086Y-87583998D01*
X124491915Y-87583998D01*
X124480932Y-87583518D01*
X124450064Y-87580817D01*
X124450050Y-87580817D01*
X124441649Y-87580082D01*
X124436501Y-87579267D01*
X124416424Y-87582447D01*
X124396713Y-87583998D01*
X122737922Y-87583998D01*
X122669801Y-87563996D01*
X122623308Y-87510340D01*
X122611922Y-87457998D01*
X122611922Y-83771108D01*
X125841117Y-83771108D01*
X125841306Y-83774893D01*
X125841489Y-83778567D01*
X125841489Y-83778575D01*
X125857200Y-84094158D01*
X125857628Y-84102761D01*
X125858269Y-84106492D01*
X125858270Y-84106500D01*
X125911369Y-84415512D01*
X125913863Y-84430028D01*
X125914951Y-84433667D01*
X125914952Y-84433670D01*
X126007766Y-84744018D01*
X126009007Y-84748169D01*
X126141683Y-85052575D01*
X126143606Y-85055847D01*
X126143608Y-85055850D01*
X126180975Y-85119413D01*
X126309968Y-85338838D01*
X126312269Y-85341853D01*
X126509125Y-85599797D01*
X126509130Y-85599803D01*
X126511425Y-85602810D01*
X126514069Y-85605524D01*
X126740323Y-85837779D01*
X126743136Y-85840667D01*
X126858391Y-85933500D01*
X126998791Y-86046587D01*
X126998796Y-86046591D01*
X127001744Y-86048965D01*
X127283503Y-86224686D01*
X127584332Y-86365285D01*
X127656180Y-86388838D01*
X127828904Y-86445460D01*
X127899873Y-86468725D01*
X128225556Y-86533507D01*
X128229328Y-86533794D01*
X128229336Y-86533795D01*
X128552886Y-86558407D01*
X128552891Y-86558407D01*
X128556663Y-86558694D01*
X128888398Y-86543920D01*
X128892136Y-86543298D01*
X128892144Y-86543297D01*
X129212213Y-86490022D01*
X129212215Y-86490021D01*
X129215955Y-86489399D01*
X129534589Y-86395922D01*
X129538056Y-86394432D01*
X129538060Y-86394431D01*
X129836202Y-86266339D01*
X129836204Y-86266338D01*
X129839686Y-86264842D01*
X130126826Y-86098058D01*
X130191857Y-86048965D01*
X130311584Y-85958580D01*
X130378003Y-85933500D01*
X130447437Y-85948311D01*
X130497842Y-85998310D01*
X130513500Y-86059142D01*
X130513500Y-87489097D01*
X130493498Y-87557218D01*
X130439842Y-87603711D01*
X130369568Y-87613815D01*
X130304988Y-87584321D01*
X130284287Y-87561368D01*
X130167833Y-87395054D01*
X130167831Y-87395051D01*
X130164674Y-87390543D01*
X130009457Y-87235326D01*
X130004949Y-87232169D01*
X130004946Y-87232167D01*
X129834155Y-87112578D01*
X129834153Y-87112577D01*
X129829646Y-87109421D01*
X129824664Y-87107098D01*
X129824659Y-87107095D01*
X129661824Y-87031165D01*
X129630703Y-87016653D01*
X129418674Y-86959839D01*
X129200000Y-86940708D01*
X128981326Y-86959839D01*
X128769297Y-87016653D01*
X128738176Y-87031165D01*
X128575341Y-87107095D01*
X128575336Y-87107098D01*
X128570354Y-87109421D01*
X128565847Y-87112577D01*
X128565845Y-87112578D01*
X128395054Y-87232167D01*
X128395051Y-87232169D01*
X128390543Y-87235326D01*
X128235326Y-87390543D01*
X128232169Y-87395051D01*
X128232167Y-87395054D01*
X128118707Y-87557092D01*
X128109421Y-87570354D01*
X128107098Y-87575336D01*
X128107095Y-87575341D01*
X128068279Y-87658584D01*
X128016653Y-87769297D01*
X127959839Y-87981326D01*
X127940708Y-88200000D01*
X127959839Y-88418674D01*
X128016653Y-88630703D01*
X128032589Y-88664878D01*
X128107095Y-88824659D01*
X128107098Y-88824664D01*
X128109421Y-88829646D01*
X128112577Y-88834153D01*
X128112578Y-88834155D01*
X128225653Y-88995642D01*
X128235326Y-89009457D01*
X128390543Y-89164674D01*
X128395051Y-89167831D01*
X128395054Y-89167833D01*
X128565845Y-89287422D01*
X128570354Y-89290579D01*
X128575336Y-89292902D01*
X128575341Y-89292905D01*
X128676116Y-89339896D01*
X128769297Y-89383347D01*
X128981326Y-89440161D01*
X129200000Y-89459292D01*
X129418674Y-89440161D01*
X129630703Y-89383347D01*
X129723884Y-89339896D01*
X129824659Y-89292905D01*
X129824664Y-89292902D01*
X129829646Y-89290579D01*
X129834155Y-89287422D01*
X130004946Y-89167833D01*
X130004949Y-89167831D01*
X130009457Y-89164674D01*
X130164674Y-89009457D01*
X130174348Y-88995642D01*
X130284287Y-88838632D01*
X130339744Y-88794304D01*
X130410363Y-88786995D01*
X130473724Y-88819026D01*
X130509709Y-88880227D01*
X130513500Y-88910903D01*
X130513500Y-90204000D01*
X133886500Y-90204000D01*
X133886500Y-77396000D01*
X130513500Y-77396000D01*
X130513500Y-78989097D01*
X130493498Y-79057218D01*
X130439842Y-79103711D01*
X130369568Y-79113815D01*
X130304988Y-79084321D01*
X130284287Y-79061368D01*
X130167833Y-78895054D01*
X130167831Y-78895051D01*
X130164674Y-78890543D01*
X130009457Y-78735326D01*
X130004949Y-78732169D01*
X130004946Y-78732167D01*
X129834155Y-78612578D01*
X129834153Y-78612577D01*
X129829646Y-78609421D01*
X129824664Y-78607098D01*
X129824659Y-78607095D01*
X129723884Y-78560104D01*
X129630703Y-78516653D01*
X129418674Y-78459839D01*
X129200000Y-78440708D01*
X128981326Y-78459839D01*
X128769297Y-78516653D01*
X128676116Y-78560104D01*
X128575341Y-78607095D01*
X128575336Y-78607098D01*
X128570354Y-78609421D01*
X128565847Y-78612577D01*
X128565845Y-78612578D01*
X128395054Y-78732167D01*
X128395051Y-78732169D01*
X128390543Y-78735326D01*
X128235326Y-78890543D01*
X128232169Y-78895051D01*
X128232167Y-78895054D01*
X128115713Y-79061368D01*
X128109421Y-79070354D01*
X128107098Y-79075336D01*
X128107095Y-79075341D01*
X128086048Y-79120478D01*
X128016653Y-79269297D01*
X127959839Y-79481326D01*
X127940708Y-79700000D01*
X127959839Y-79918674D01*
X128016653Y-80130703D01*
X128018978Y-80135688D01*
X128107095Y-80324659D01*
X128107098Y-80324664D01*
X128109421Y-80329646D01*
X128112577Y-80334153D01*
X128112578Y-80334155D01*
X128227881Y-80498824D01*
X128235326Y-80509457D01*
X128390543Y-80664674D01*
X128395051Y-80667831D01*
X128395054Y-80667833D01*
X128561288Y-80784231D01*
X128570354Y-80790579D01*
X128575336Y-80792902D01*
X128575341Y-80792905D01*
X128599886Y-80804350D01*
X128653171Y-80851267D01*
X128672632Y-80919545D01*
X128652090Y-80987505D01*
X128598067Y-81033570D01*
X128553561Y-81044355D01*
X128282884Y-81059251D01*
X128279157Y-81059912D01*
X128279153Y-81059912D01*
X128071272Y-81096754D01*
X127955916Y-81117198D01*
X127952291Y-81118303D01*
X127952286Y-81118304D01*
X127793391Y-81166732D01*
X127638278Y-81214007D01*
X127334570Y-81348275D01*
X127306460Y-81364999D01*
X127052448Y-81516120D01*
X127052442Y-81516124D01*
X127049193Y-81518057D01*
X127046201Y-81520365D01*
X127046197Y-81520368D01*
X126961397Y-81585791D01*
X126786279Y-81720893D01*
X126783577Y-81723553D01*
X126783570Y-81723559D01*
X126557681Y-81945928D01*
X126549638Y-81953846D01*
X126547274Y-81956813D01*
X126547271Y-81956816D01*
X126371812Y-82177004D01*
X126342697Y-82213541D01*
X126168454Y-82496216D01*
X126029432Y-82797778D01*
X126028273Y-82801378D01*
X126028270Y-82801385D01*
X125928808Y-83110247D01*
X125927646Y-83113856D01*
X125926927Y-83117572D01*
X125926925Y-83117580D01*
X125865289Y-83436155D01*
X125865288Y-83436164D01*
X125864570Y-83439874D01*
X125864303Y-83443650D01*
X125864302Y-83443655D01*
X125843972Y-83730787D01*
X125841117Y-83771108D01*
X122611922Y-83771108D01*
X122611922Y-75407365D01*
X122613473Y-75387654D01*
X122615102Y-75377369D01*
X122616653Y-75367577D01*
X122615102Y-75357784D01*
X122615102Y-75356205D01*
X122614679Y-75352632D01*
X122607296Y-75258824D01*
X122600145Y-75167966D01*
X122596320Y-75152031D01*
X122554558Y-74978083D01*
X122553403Y-74973271D01*
X122551509Y-74968698D01*
X122478674Y-74792859D01*
X122478672Y-74792855D01*
X122476779Y-74788285D01*
X122372160Y-74617563D01*
X122368948Y-74613803D01*
X122368945Y-74613798D01*
X122250960Y-74475656D01*
X122242123Y-74465309D01*
X122126134Y-74366245D01*
X122093634Y-74338487D01*
X122093629Y-74338484D01*
X122089869Y-74335272D01*
X121992464Y-74275582D01*
X121944833Y-74222934D01*
X121940433Y-74212687D01*
X121926819Y-74176659D01*
X121924135Y-74169556D01*
X121848237Y-74059123D01*
X121838710Y-74045261D01*
X121838709Y-74045259D01*
X121834408Y-74039002D01*
X121716130Y-73933621D01*
X121708744Y-73929710D01*
X121642852Y-73894822D01*
X121576129Y-73859494D01*
X121422488Y-73820902D01*
X121414889Y-73820862D01*
X121414888Y-73820862D01*
X121349036Y-73820517D01*
X121264076Y-73820072D01*
X121256696Y-73821844D01*
X121256694Y-73821844D01*
X121117418Y-73855281D01*
X121117415Y-73855282D01*
X121110039Y-73857053D01*
X120969269Y-73929710D01*
X120849894Y-74033848D01*
X120758805Y-74163454D01*
X120701261Y-74311047D01*
X120700269Y-74318580D01*
X120700269Y-74318581D01*
X120682231Y-74455599D01*
X120680584Y-74468106D01*
X120685547Y-74513055D01*
X120697085Y-74617563D01*
X120697968Y-74625563D01*
X120700578Y-74632696D01*
X120700579Y-74632699D01*
X120743873Y-74751008D01*
X120748499Y-74821853D01*
X120714089Y-74883954D01*
X120651567Y-74917592D01*
X120624889Y-74920306D01*
X120574376Y-74920041D01*
X120566996Y-74921813D01*
X120566994Y-74921813D01*
X120427718Y-74955250D01*
X120427715Y-74955251D01*
X120420339Y-74957022D01*
X120279569Y-75029679D01*
X120160194Y-75133817D01*
X120069105Y-75263423D01*
X120050444Y-75311287D01*
X120025474Y-75375332D01*
X120011561Y-75411016D01*
X120010569Y-75418549D01*
X120010569Y-75418550D01*
X119993900Y-75545168D01*
X119990884Y-75568075D01*
X119991718Y-75575625D01*
X120004159Y-75688312D01*
X120008268Y-75725532D01*
X120010878Y-75732663D01*
X120010878Y-75732665D01*
X120035117Y-75798900D01*
X120062708Y-75874298D01*
X120066944Y-75880601D01*
X120066944Y-75880602D01*
X120143329Y-75994274D01*
X120151063Y-76005784D01*
X120156682Y-76010897D01*
X120156683Y-76010898D01*
X120256041Y-76101306D01*
X120292964Y-76161946D01*
X120291241Y-76232922D01*
X120251419Y-76291699D01*
X120186141Y-76319616D01*
X120171242Y-76320500D01*
X119464052Y-76320500D01*
X119444341Y-76318949D01*
X119424264Y-76315769D01*
X119414728Y-76317279D01*
X119413789Y-76317320D01*
X119410277Y-76317320D01*
X119407589Y-76317591D01*
X119091188Y-76331405D01*
X118925917Y-76353164D01*
X118763386Y-76374561D01*
X118763377Y-76374563D01*
X118760647Y-76374922D01*
X118757952Y-76375519D01*
X118757949Y-76375520D01*
X118575579Y-76415951D01*
X118435157Y-76447082D01*
X118432540Y-76447907D01*
X118432533Y-76447909D01*
X118119823Y-76546506D01*
X118119815Y-76546509D01*
X118117195Y-76547335D01*
X117809180Y-76674919D01*
X117806740Y-76676189D01*
X117806734Y-76676192D01*
X117515898Y-76827592D01*
X117515893Y-76827595D01*
X117513457Y-76828863D01*
X117232276Y-77007994D01*
X117230101Y-77009663D01*
X116969945Y-77209287D01*
X116969939Y-77209292D01*
X116967777Y-77210951D01*
X116965757Y-77212802D01*
X116734281Y-77424910D01*
X116732186Y-77426622D01*
X116729699Y-77429109D01*
X116729006Y-77429744D01*
X116721201Y-77435415D01*
X116715376Y-77443432D01*
X116710648Y-77448160D01*
X116702627Y-77453988D01*
X116696798Y-77462010D01*
X116689788Y-77469021D01*
X116689678Y-77468911D01*
X116679417Y-77480013D01*
X116585952Y-77559840D01*
X116569959Y-77571459D01*
X116443836Y-77648746D01*
X116426221Y-77657722D01*
X116289557Y-77714330D01*
X116270766Y-77720435D01*
X116128289Y-77754641D01*
X116126931Y-77754967D01*
X116107405Y-77758060D01*
X115984872Y-77767704D01*
X115969767Y-77767110D01*
X115969767Y-77767265D01*
X115959847Y-77767265D01*
X115950055Y-77765714D01*
X115930666Y-77768785D01*
X115929978Y-77768894D01*
X115910267Y-77770445D01*
X109589732Y-77770445D01*
X109570021Y-77768894D01*
X109569333Y-77768785D01*
X109549944Y-77765714D01*
X109542535Y-77766887D01*
X109521783Y-77764843D01*
X109514890Y-77763472D01*
X109509970Y-77762493D01*
X109464564Y-77743685D01*
X109451519Y-77734970D01*
X109416743Y-77700194D01*
X109408028Y-77687149D01*
X109389220Y-77641743D01*
X109386870Y-77629932D01*
X109384826Y-77609178D01*
X109385999Y-77601769D01*
X109382819Y-77581690D01*
X109381268Y-77561981D01*
X109381268Y-73894822D01*
X109401270Y-73826701D01*
X109425437Y-73799011D01*
X109481304Y-73751296D01*
X109487082Y-73746361D01*
X109579523Y-73617716D01*
X109638610Y-73470733D01*
X109645917Y-73419389D01*
X109660349Y-73317983D01*
X109660349Y-73317980D01*
X109660930Y-73313899D01*
X109661075Y-73300092D01*
X109658031Y-73274933D01*
X109655634Y-73255131D01*
X109642044Y-73142825D01*
X109586048Y-72994638D01*
X109531316Y-72915002D01*
X127316052Y-72915002D01*
X127317605Y-72922508D01*
X127316943Y-72930147D01*
X127319454Y-72940255D01*
X127319454Y-72940257D01*
X127329749Y-72981702D01*
X127330853Y-72986552D01*
X127341612Y-73038561D01*
X127345513Y-73045160D01*
X127347361Y-73052601D01*
X127353012Y-73061352D01*
X127376177Y-73097228D01*
X127378794Y-73101463D01*
X127400517Y-73138215D01*
X127400519Y-73138217D01*
X127405816Y-73147179D01*
X127411645Y-73152160D01*
X127415803Y-73158599D01*
X127423981Y-73165046D01*
X127423982Y-73165047D01*
X127457512Y-73191479D01*
X127461353Y-73194632D01*
X127501743Y-73229144D01*
X127508871Y-73231968D01*
X127514890Y-73236713D01*
X127524717Y-73240164D01*
X127564991Y-73254307D01*
X127569653Y-73256048D01*
X127609369Y-73271783D01*
X127609370Y-73271783D01*
X127619047Y-73275617D01*
X127626708Y-73275980D01*
X127633938Y-73278519D01*
X127639491Y-73279000D01*
X127687467Y-73279000D01*
X127693430Y-73279141D01*
X127745080Y-73281588D01*
X127752512Y-73279430D01*
X127759827Y-73279000D01*
X128483991Y-73279000D01*
X128552112Y-73299002D01*
X128598605Y-73352658D01*
X128608709Y-73422932D01*
X128579215Y-73487512D01*
X128568281Y-73498655D01*
X127665624Y-74311047D01*
X127523058Y-74439356D01*
X127519819Y-74443419D01*
X127519817Y-74443421D01*
X127494119Y-74475656D01*
X127464303Y-74513055D01*
X127421847Y-74631872D01*
X127421708Y-74642284D01*
X127421708Y-74642286D01*
X127421415Y-74664345D01*
X127420168Y-74758036D01*
X127459445Y-74877941D01*
X127465717Y-74886253D01*
X127521743Y-74960503D01*
X127535443Y-74978660D01*
X127544071Y-74984493D01*
X127618284Y-75034668D01*
X127639970Y-75049330D01*
X127650022Y-75052054D01*
X127650024Y-75052055D01*
X127751699Y-75079609D01*
X127751701Y-75079609D01*
X127761752Y-75082333D01*
X127840109Y-75077215D01*
X127877264Y-75074788D01*
X127887658Y-75074109D01*
X128004112Y-75025544D01*
X128008562Y-75022187D01*
X129723841Y-73478436D01*
X129787854Y-73447734D01*
X129858305Y-73456514D01*
X129890129Y-73476426D01*
X131615424Y-74955250D01*
X131677257Y-75008250D01*
X131720962Y-75034668D01*
X131749003Y-75051618D01*
X131749005Y-75051619D01*
X131757919Y-75057007D01*
X131768099Y-75059218D01*
X131768100Y-75059218D01*
X131819494Y-75070378D01*
X131881221Y-75083782D01*
X131891559Y-75082577D01*
X131891562Y-75082577D01*
X131943884Y-75076478D01*
X132006547Y-75069173D01*
X132120384Y-75014756D01*
X132210458Y-74926401D01*
X132215128Y-74917095D01*
X132215130Y-74917093D01*
X132259109Y-74829463D01*
X132267055Y-74813631D01*
X132284072Y-74688610D01*
X132278346Y-74659552D01*
X132261691Y-74575038D01*
X132261690Y-74575035D01*
X132259676Y-74564816D01*
X132196495Y-74455599D01*
X132192592Y-74451620D01*
X131963799Y-74255512D01*
X131083145Y-73500666D01*
X131044441Y-73441147D01*
X131044060Y-73370152D01*
X131082122Y-73310220D01*
X131146544Y-73280381D01*
X131165145Y-73279000D01*
X131860256Y-73279000D01*
X131879966Y-73280551D01*
X131900000Y-73283724D01*
X131905797Y-73282806D01*
X132096798Y-73266095D01*
X132224163Y-73231968D01*
X132282306Y-73216389D01*
X132282308Y-73216388D01*
X132287616Y-73214966D01*
X132334684Y-73193018D01*
X132461670Y-73133804D01*
X132461675Y-73133801D01*
X132466657Y-73131478D01*
X132599436Y-73038505D01*
X132623969Y-73021327D01*
X132623972Y-73021325D01*
X132628480Y-73018168D01*
X132768168Y-72878480D01*
X132778249Y-72864084D01*
X132832534Y-72786556D01*
X132881478Y-72716657D01*
X132883801Y-72711675D01*
X132883804Y-72711670D01*
X132962643Y-72542598D01*
X132962643Y-72542597D01*
X132964966Y-72537616D01*
X132989406Y-72446406D01*
X133014671Y-72352113D01*
X133014671Y-72352112D01*
X133016095Y-72346798D01*
X133033313Y-72150000D01*
X133016095Y-71953202D01*
X133000268Y-71894133D01*
X132966389Y-71767694D01*
X132966388Y-71767692D01*
X132964966Y-71762384D01*
X132960687Y-71753207D01*
X132883801Y-71588325D01*
X132883799Y-71588322D01*
X132881478Y-71583344D01*
X132768168Y-71421520D01*
X132628480Y-71281832D01*
X132623972Y-71278675D01*
X132623969Y-71278673D01*
X132525469Y-71209703D01*
X132466657Y-71168522D01*
X132461675Y-71166199D01*
X132461670Y-71166196D01*
X132292598Y-71087357D01*
X132292597Y-71087357D01*
X132287616Y-71085034D01*
X132282308Y-71083612D01*
X132282306Y-71083611D01*
X132210660Y-71064414D01*
X132096798Y-71033905D01*
X131905797Y-71017194D01*
X131900000Y-71016276D01*
X131890208Y-71017827D01*
X131791214Y-71033506D01*
X131791213Y-71033506D01*
X131781423Y-71035057D01*
X131674453Y-71089561D01*
X131589561Y-71174453D01*
X131535057Y-71281423D01*
X131516276Y-71400000D01*
X131520045Y-71423798D01*
X131529760Y-71485131D01*
X131535057Y-71518577D01*
X131542129Y-71532455D01*
X131542576Y-71533333D01*
X131555681Y-71603109D01*
X131528983Y-71668894D01*
X131507014Y-71690500D01*
X131492904Y-71701327D01*
X131492900Y-71701331D01*
X131486354Y-71706354D01*
X131481331Y-71712900D01*
X131478105Y-71717104D01*
X131391142Y-71830437D01*
X131331289Y-71974935D01*
X131310874Y-72130000D01*
X131331289Y-72285065D01*
X131334450Y-72292696D01*
X131356853Y-72346782D01*
X131364442Y-72417372D01*
X131332663Y-72480859D01*
X131271605Y-72517086D01*
X131240444Y-72521000D01*
X130305000Y-72521000D01*
X130236879Y-72500998D01*
X130190386Y-72447342D01*
X130179000Y-72395000D01*
X130179000Y-71659881D01*
X130199002Y-71591760D01*
X130231763Y-71557352D01*
X131473705Y-70670251D01*
X132141679Y-70193127D01*
X132141682Y-70193124D01*
X132145912Y-70190103D01*
X132212573Y-70123470D01*
X132268107Y-70010174D01*
X132279023Y-69923911D01*
X132282640Y-69895330D01*
X132282640Y-69895327D01*
X132283947Y-69884998D01*
X132281838Y-69874801D01*
X132260497Y-69771632D01*
X132260496Y-69771629D01*
X132258388Y-69761439D01*
X132194184Y-69652821D01*
X132098256Y-69570856D01*
X131980953Y-69524383D01*
X131970552Y-69523890D01*
X131970551Y-69523890D01*
X131886461Y-69519906D01*
X131854920Y-69518412D01*
X131844918Y-69521316D01*
X131844915Y-69521316D01*
X131741359Y-69551379D01*
X131741358Y-69551380D01*
X131733747Y-69553589D01*
X131728949Y-69556425D01*
X130658252Y-70321208D01*
X129589823Y-71084372D01*
X129584945Y-71087687D01*
X129541401Y-71115803D01*
X129536651Y-71121828D01*
X129531028Y-71126369D01*
X127521897Y-72561463D01*
X127505700Y-72573032D01*
X127492294Y-72581391D01*
X127479173Y-72588471D01*
X127464496Y-72596390D01*
X127457428Y-72604036D01*
X127457427Y-72604037D01*
X127428441Y-72635394D01*
X127424992Y-72638979D01*
X127394792Y-72669166D01*
X127394789Y-72669170D01*
X127387426Y-72676530D01*
X127384051Y-72683415D01*
X127378849Y-72689043D01*
X127357362Y-72737645D01*
X127355297Y-72742079D01*
X127331893Y-72789826D01*
X127330930Y-72797432D01*
X127327831Y-72804443D01*
X127326606Y-72818586D01*
X127323248Y-72857357D01*
X127322721Y-72862305D01*
X127316052Y-72915002D01*
X109531316Y-72915002D01*
X109505106Y-72876866D01*
X109483006Y-72809398D01*
X109500891Y-72740691D01*
X109553083Y-72692561D01*
X109608946Y-72679500D01*
X109760211Y-72679500D01*
X109779921Y-72681051D01*
X109799999Y-72684231D01*
X109809791Y-72682680D01*
X109810521Y-72682680D01*
X109816015Y-72682005D01*
X109865034Y-72677716D01*
X109978252Y-72667811D01*
X109985832Y-72665780D01*
X110145779Y-72622923D01*
X110145781Y-72622922D01*
X110151089Y-72621500D01*
X110156071Y-72619177D01*
X110308271Y-72548205D01*
X110308276Y-72548202D01*
X110313258Y-72545879D01*
X110446721Y-72452427D01*
X110455320Y-72446406D01*
X110455323Y-72446404D01*
X110459831Y-72443247D01*
X110586356Y-72316722D01*
X110603180Y-72292696D01*
X110610935Y-72281620D01*
X110666827Y-72238886D01*
X110666441Y-72238119D01*
X110670502Y-72236077D01*
X110670504Y-72236076D01*
X110673223Y-72234708D01*
X110673226Y-72234707D01*
X110801181Y-72170353D01*
X110801184Y-72170351D01*
X110807964Y-72166941D01*
X110813735Y-72162012D01*
X110813738Y-72162010D01*
X110922645Y-72068994D01*
X110922645Y-72068993D01*
X110928423Y-72064059D01*
X111020864Y-71935414D01*
X111079951Y-71788431D01*
X111083913Y-71760590D01*
X111113313Y-71695968D01*
X111172984Y-71657498D01*
X111210634Y-71652359D01*
X111240541Y-71652829D01*
X111289225Y-71653594D01*
X111289228Y-71653594D01*
X111296822Y-71653713D01*
X111451238Y-71618347D01*
X111543010Y-71572191D01*
X111585978Y-71550581D01*
X111585981Y-71550579D01*
X111592761Y-71547169D01*
X111598532Y-71542240D01*
X111598535Y-71542238D01*
X111707442Y-71449222D01*
X111707442Y-71449221D01*
X111713220Y-71444287D01*
X111805661Y-71315642D01*
X111864748Y-71168659D01*
X111876319Y-71087357D01*
X111886487Y-71015909D01*
X111886487Y-71015906D01*
X111887068Y-71011825D01*
X111887137Y-71005283D01*
X111887170Y-71002152D01*
X111887170Y-71002146D01*
X111887213Y-70998018D01*
X111868182Y-70840751D01*
X111812186Y-70692564D01*
X111722459Y-70562010D01*
X111714255Y-70554700D01*
X111609848Y-70461678D01*
X111604181Y-70456629D01*
X111597474Y-70453078D01*
X111597470Y-70453075D01*
X111545885Y-70425762D01*
X111495042Y-70376209D01*
X111486789Y-70358440D01*
X111454680Y-70272353D01*
X111453107Y-70268135D01*
X111332966Y-70048114D01*
X111182736Y-69847430D01*
X111005475Y-69670169D01*
X111001879Y-69667477D01*
X111001872Y-69667471D01*
X110886183Y-69580868D01*
X110843636Y-69524032D01*
X110838572Y-69453217D01*
X110872597Y-69390904D01*
X110934909Y-69356879D01*
X110961692Y-69354000D01*
X112056191Y-69354000D01*
X112124312Y-69374002D01*
X112170805Y-69427658D01*
X112182191Y-69480000D01*
X112182191Y-70716500D01*
X117817810Y-70716500D01*
X117817810Y-69480000D01*
X117837812Y-69411879D01*
X117891468Y-69365386D01*
X117943810Y-69354000D01*
X129212575Y-69354000D01*
X129237153Y-69356421D01*
X129250000Y-69358976D01*
X129349106Y-69339263D01*
X129399126Y-69305841D01*
X129422808Y-69290017D01*
X129433124Y-69283124D01*
X129489263Y-69199106D01*
X129504000Y-69125017D01*
X129508976Y-69100000D01*
X129506421Y-69087153D01*
X129504000Y-69062575D01*
X129504000Y-63380000D01*
X129524002Y-63311879D01*
X129577658Y-63265386D01*
X129630000Y-63254000D01*
X131505428Y-63254000D01*
X131573549Y-63274002D01*
G37*
%TD.AperFunction*%
%TA.AperFunction,Conductor*%
G36*
X106850260Y-92264354D02*
G01*
X106942482Y-92292329D01*
X107015210Y-92299492D01*
X107026003Y-92300555D01*
X107035709Y-92302073D01*
X107041251Y-92304019D01*
X107046816Y-92304501D01*
X107059878Y-92304501D01*
X107072228Y-92305108D01*
X107092689Y-92307123D01*
X107097037Y-92307681D01*
X107097607Y-92307681D01*
X107107401Y-92309232D01*
X107127479Y-92306052D01*
X107147189Y-92304501D01*
X107566000Y-92304501D01*
X107634121Y-92324503D01*
X107680614Y-92378159D01*
X107692000Y-92430501D01*
X107692000Y-92877885D01*
X107696475Y-92893124D01*
X107697865Y-92894329D01*
X107705548Y-92896000D01*
X109178000Y-92896000D01*
X109246121Y-92916002D01*
X109292614Y-92969658D01*
X109304000Y-93022000D01*
X109304000Y-93278000D01*
X109283998Y-93346121D01*
X109230342Y-93392614D01*
X109178000Y-93404000D01*
X107706758Y-93404000D01*
X107638637Y-93383998D01*
X107617663Y-93367095D01*
X106724592Y-92474024D01*
X106690566Y-92411712D01*
X106695631Y-92340897D01*
X106738178Y-92284061D01*
X106804698Y-92259250D01*
X106850260Y-92264354D01*
G37*
%TD.AperFunction*%
%TA.AperFunction,Conductor*%
G36*
X117862386Y-80781051D02*
G01*
X117882464Y-80784231D01*
X117892257Y-80782680D01*
X117902175Y-80782680D01*
X117902175Y-80783335D01*
X117916974Y-80782899D01*
X117946810Y-80785838D01*
X118014858Y-80792540D01*
X118039080Y-80797358D01*
X118154516Y-80832375D01*
X118177325Y-80841823D01*
X118283715Y-80898689D01*
X118304250Y-80912411D01*
X118397493Y-80988934D01*
X118414957Y-81006398D01*
X118435482Y-81031407D01*
X118463237Y-81096754D01*
X118451256Y-81166732D01*
X118441170Y-81183794D01*
X118422842Y-81209872D01*
X118410055Y-81242669D01*
X118382564Y-81313181D01*
X118365298Y-81357465D01*
X118364306Y-81364998D01*
X118364306Y-81364999D01*
X118348602Y-81484287D01*
X118344621Y-81514524D01*
X118352489Y-81585791D01*
X118360999Y-81662867D01*
X118362005Y-81671981D01*
X118364615Y-81679112D01*
X118364615Y-81679114D01*
X118380880Y-81723559D01*
X118416445Y-81820747D01*
X118504800Y-81952233D01*
X118510419Y-81957346D01*
X118510420Y-81957347D01*
X118521795Y-81967697D01*
X118621968Y-82058847D01*
X118761185Y-82134436D01*
X118914414Y-82174635D01*
X118998369Y-82175954D01*
X119065211Y-82177004D01*
X119065214Y-82177004D01*
X119072808Y-82177123D01*
X119227224Y-82141757D01*
X119297634Y-82106345D01*
X119361964Y-82073991D01*
X119361967Y-82073989D01*
X119368747Y-82070579D01*
X119374518Y-82065650D01*
X119374521Y-82065648D01*
X119483428Y-81972632D01*
X119483428Y-81972631D01*
X119489206Y-81967697D01*
X119581647Y-81839052D01*
X119640734Y-81692069D01*
X119663054Y-81535235D01*
X119663199Y-81521428D01*
X119655074Y-81454286D01*
X119666747Y-81384256D01*
X119714429Y-81331654D01*
X119782980Y-81313181D01*
X119850636Y-81334702D01*
X119884743Y-81368873D01*
X119962298Y-81484287D01*
X119967917Y-81489400D01*
X119967918Y-81489401D01*
X120022778Y-81539319D01*
X120079466Y-81590901D01*
X120218683Y-81666490D01*
X120371912Y-81706689D01*
X120455867Y-81708008D01*
X120522709Y-81709058D01*
X120522712Y-81709058D01*
X120530306Y-81709177D01*
X120652770Y-81681129D01*
X120723637Y-81685418D01*
X120780935Y-81727340D01*
X120806473Y-81793585D01*
X120806900Y-81803949D01*
X120806900Y-87144467D01*
X120786898Y-87212588D01*
X120733242Y-87259081D01*
X120680900Y-87270467D01*
X107289755Y-87270467D01*
X107270044Y-87268916D01*
X107269925Y-87268897D01*
X107262538Y-87267727D01*
X107259761Y-87267287D01*
X107259760Y-87267287D01*
X107249967Y-87265736D01*
X107240172Y-87267288D01*
X107230256Y-87267288D01*
X107230256Y-87267133D01*
X107215147Y-87267727D01*
X107209570Y-87267288D01*
X107054852Y-87255111D01*
X107035324Y-87252018D01*
X106982029Y-87239223D01*
X106854652Y-87208642D01*
X106835858Y-87202535D01*
X106683562Y-87139453D01*
X106664193Y-87131430D01*
X106646583Y-87122458D01*
X106488152Y-87025370D01*
X106472167Y-87013756D01*
X106349895Y-86909325D01*
X106339635Y-86898225D01*
X106339526Y-86898334D01*
X106332512Y-86891320D01*
X106326685Y-86883300D01*
X106310236Y-86871349D01*
X106295202Y-86858508D01*
X104479779Y-85043085D01*
X104466938Y-85028051D01*
X104460817Y-85019626D01*
X104460816Y-85019625D01*
X104454987Y-85011602D01*
X104443381Y-85003170D01*
X104434373Y-84995973D01*
X104324203Y-84899356D01*
X104321106Y-84896640D01*
X104174488Y-84798674D01*
X104134319Y-84778865D01*
X104020041Y-84722508D01*
X104020033Y-84722505D01*
X104016337Y-84720682D01*
X103997124Y-84714160D01*
X103853272Y-84665329D01*
X103853268Y-84665328D01*
X103849359Y-84664001D01*
X103845315Y-84663197D01*
X103845309Y-84663195D01*
X103707595Y-84635802D01*
X103676411Y-84629599D01*
X103672302Y-84629330D01*
X103672297Y-84629329D01*
X103608207Y-84625128D01*
X103575505Y-84622985D01*
X103568054Y-84621944D01*
X103566601Y-84621434D01*
X103561036Y-84620952D01*
X103548613Y-84620952D01*
X103540374Y-84620682D01*
X103530187Y-84620014D01*
X103526090Y-84619746D01*
X103514628Y-84618466D01*
X103500453Y-84616221D01*
X103480584Y-84619368D01*
X103480376Y-84619401D01*
X103460665Y-84620952D01*
X99467169Y-84620952D01*
X99399048Y-84600950D01*
X99352555Y-84547294D01*
X99349303Y-84539490D01*
X99344461Y-84526676D01*
X99342770Y-84522202D01*
X107708106Y-84522202D01*
X107715522Y-84589371D01*
X107724269Y-84668598D01*
X107725490Y-84679659D01*
X107728100Y-84686790D01*
X107728100Y-84686792D01*
X107776815Y-84819912D01*
X107779930Y-84828425D01*
X107784166Y-84834728D01*
X107784166Y-84834729D01*
X107825769Y-84896640D01*
X107868285Y-84959911D01*
X107873904Y-84965024D01*
X107873905Y-84965025D01*
X107970122Y-85052575D01*
X107985453Y-85066525D01*
X108124670Y-85142114D01*
X108132012Y-85144040D01*
X108132014Y-85144041D01*
X108253542Y-85175923D01*
X108314358Y-85212557D01*
X108344089Y-85268390D01*
X108346323Y-85277697D01*
X108349415Y-85297219D01*
X108356849Y-85391681D01*
X108356255Y-85406788D01*
X108356410Y-85406788D01*
X108356410Y-85413326D01*
X108355934Y-85414947D01*
X108355685Y-85421279D01*
X108354858Y-85426500D01*
X108352645Y-85426149D01*
X108336408Y-85481447D01*
X108313240Y-85508275D01*
X108249129Y-85564203D01*
X108158040Y-85693809D01*
X108152892Y-85707014D01*
X108116422Y-85800555D01*
X108100496Y-85841402D01*
X108099504Y-85848935D01*
X108099504Y-85848936D01*
X108093047Y-85897986D01*
X108079819Y-85998461D01*
X108088511Y-86077189D01*
X108094462Y-86131089D01*
X108097203Y-86155918D01*
X108099813Y-86163049D01*
X108099813Y-86163051D01*
X108148820Y-86296969D01*
X108151643Y-86304684D01*
X108155879Y-86310987D01*
X108155879Y-86310988D01*
X108229953Y-86421221D01*
X108239998Y-86436170D01*
X108245617Y-86441283D01*
X108245618Y-86441284D01*
X108351550Y-86537674D01*
X108357166Y-86542784D01*
X108496383Y-86618373D01*
X108649612Y-86658572D01*
X108733567Y-86659891D01*
X108800409Y-86660941D01*
X108800412Y-86660941D01*
X108808006Y-86661060D01*
X108962422Y-86625694D01*
X109032832Y-86590282D01*
X109097162Y-86557928D01*
X109097165Y-86557926D01*
X109103945Y-86554516D01*
X109109716Y-86549587D01*
X109109719Y-86549585D01*
X109218626Y-86456569D01*
X109218626Y-86456568D01*
X109224404Y-86451634D01*
X109316845Y-86322989D01*
X109375932Y-86176006D01*
X109387025Y-86098058D01*
X109397671Y-86023256D01*
X109397671Y-86023253D01*
X109398252Y-86019172D01*
X109398329Y-86011828D01*
X109398354Y-86009499D01*
X109398354Y-86009493D01*
X109398397Y-86005365D01*
X109379366Y-85848098D01*
X109323370Y-85699911D01*
X109286215Y-85645850D01*
X109237945Y-85575616D01*
X109237944Y-85575614D01*
X109233643Y-85569357D01*
X109163950Y-85507263D01*
X109126394Y-85447012D01*
X109123584Y-85426458D01*
X109123321Y-85426500D01*
X109122186Y-85419335D01*
X109120904Y-85407861D01*
X109108262Y-85214966D01*
X109108261Y-85214960D01*
X109107992Y-85210852D01*
X109084483Y-85092662D01*
X109066637Y-85002944D01*
X109066635Y-85002938D01*
X109065831Y-84998894D01*
X109064150Y-84993940D01*
X109010829Y-84836864D01*
X108997569Y-84797802D01*
X108994613Y-84726867D01*
X108999971Y-84710314D01*
X109004219Y-84699747D01*
X109020588Y-84584731D01*
X109025958Y-84546997D01*
X109025958Y-84546994D01*
X109026539Y-84542913D01*
X109026684Y-84529106D01*
X109007653Y-84371839D01*
X108951657Y-84223652D01*
X108861930Y-84093098D01*
X108743652Y-83987717D01*
X108736266Y-83983806D01*
X108692275Y-83960514D01*
X108603651Y-83913590D01*
X108450010Y-83874998D01*
X108442411Y-83874958D01*
X108442410Y-83874958D01*
X108376558Y-83874613D01*
X108291598Y-83874168D01*
X108284218Y-83875940D01*
X108284216Y-83875940D01*
X108144940Y-83909377D01*
X108144937Y-83909378D01*
X108137561Y-83911149D01*
X107996791Y-83983806D01*
X107877416Y-84087944D01*
X107786327Y-84217550D01*
X107762085Y-84279727D01*
X107734355Y-84350852D01*
X107728783Y-84365143D01*
X107727791Y-84372676D01*
X107727791Y-84372677D01*
X107709800Y-84509338D01*
X107708106Y-84522202D01*
X99342770Y-84522202D01*
X99341777Y-84519573D01*
X99282738Y-84433670D01*
X99256352Y-84395278D01*
X99256351Y-84395276D01*
X99252050Y-84389019D01*
X99232768Y-84371839D01*
X99200791Y-84343349D01*
X99133772Y-84283638D01*
X99126386Y-84279727D01*
X99022326Y-84224630D01*
X98993771Y-84209511D01*
X98840130Y-84170919D01*
X98832531Y-84170879D01*
X98832530Y-84170879D01*
X98766678Y-84170534D01*
X98681718Y-84170089D01*
X98674338Y-84171861D01*
X98674336Y-84171861D01*
X98535060Y-84205298D01*
X98535057Y-84205299D01*
X98527681Y-84207070D01*
X98386911Y-84279727D01*
X98267536Y-84383865D01*
X98176447Y-84513471D01*
X98163260Y-84547294D01*
X98122550Y-84651711D01*
X98118903Y-84661064D01*
X98117911Y-84668597D01*
X98117911Y-84668598D01*
X98101369Y-84794252D01*
X98098226Y-84818123D01*
X98102293Y-84854956D01*
X98114574Y-84966193D01*
X98115610Y-84975580D01*
X98118220Y-84982711D01*
X98118220Y-84982713D01*
X98159290Y-85094942D01*
X98170050Y-85124346D01*
X98174286Y-85130649D01*
X98174286Y-85130650D01*
X98228180Y-85210852D01*
X98258405Y-85255832D01*
X98264024Y-85260945D01*
X98264025Y-85260946D01*
X98368427Y-85355944D01*
X98375573Y-85362446D01*
X98514790Y-85438035D01*
X98668019Y-85478234D01*
X98751974Y-85479553D01*
X98818816Y-85480603D01*
X98818819Y-85480603D01*
X98826413Y-85480722D01*
X98980829Y-85445356D01*
X98987615Y-85441943D01*
X98987618Y-85441942D01*
X99083733Y-85393602D01*
X99150228Y-85380555D01*
X99154664Y-85380904D01*
X99164490Y-85382067D01*
X99171213Y-85383132D01*
X99171219Y-85383132D01*
X99181012Y-85384683D01*
X99201094Y-85381502D01*
X99220794Y-85379952D01*
X102975679Y-85379952D01*
X103043800Y-85399954D01*
X103090293Y-85453610D01*
X103100397Y-85523884D01*
X103093073Y-85551720D01*
X103036396Y-85697088D01*
X103035404Y-85704621D01*
X103035404Y-85704622D01*
X103017130Y-85843432D01*
X103015719Y-85854147D01*
X103021109Y-85902963D01*
X103031961Y-86001257D01*
X103033103Y-86011604D01*
X103035713Y-86018735D01*
X103035713Y-86018737D01*
X103076828Y-86131089D01*
X103087543Y-86160370D01*
X103091779Y-86166673D01*
X103091779Y-86166674D01*
X103149922Y-86253199D01*
X103175898Y-86291856D01*
X103202362Y-86315936D01*
X103215838Y-86328198D01*
X103252761Y-86388838D01*
X103251038Y-86459813D01*
X103213869Y-86516340D01*
X103191782Y-86535608D01*
X103191778Y-86535613D01*
X103186055Y-86540605D01*
X103094966Y-86670211D01*
X103074644Y-86722334D01*
X103040863Y-86808979D01*
X103037422Y-86817804D01*
X103036430Y-86825337D01*
X103036430Y-86825338D01*
X103018005Y-86965295D01*
X103016745Y-86974863D01*
X103017579Y-86982413D01*
X103033193Y-87123841D01*
X103034129Y-87132320D01*
X103036739Y-87139451D01*
X103036739Y-87139453D01*
X103084109Y-87268897D01*
X103088569Y-87281086D01*
X103092805Y-87287389D01*
X103092805Y-87287390D01*
X103161291Y-87389307D01*
X103176924Y-87412572D01*
X103182543Y-87417685D01*
X103182544Y-87417686D01*
X103266574Y-87494147D01*
X103294092Y-87519186D01*
X103433309Y-87594775D01*
X103490295Y-87609725D01*
X103532662Y-87620840D01*
X103593477Y-87657474D01*
X103624832Y-87721171D01*
X103616773Y-87791709D01*
X103571857Y-87846692D01*
X103558477Y-87854682D01*
X103450519Y-87910404D01*
X103331144Y-88014542D01*
X103240055Y-88144148D01*
X103237295Y-88151228D01*
X103237293Y-88151231D01*
X103202766Y-88239789D01*
X103159386Y-88295991D01*
X103085373Y-88320020D01*
X98139309Y-88320020D01*
X98119598Y-88318469D01*
X98109315Y-88316840D01*
X98109314Y-88316840D01*
X98099521Y-88315289D01*
X98089724Y-88316841D01*
X98089368Y-88316841D01*
X98069657Y-88315290D01*
X98020338Y-88307479D01*
X97982848Y-88295297D01*
X97929196Y-88267960D01*
X97897304Y-88244788D01*
X97854732Y-88202216D01*
X97831560Y-88170324D01*
X97804223Y-88116672D01*
X97792041Y-88079181D01*
X97791814Y-88077748D01*
X97784230Y-88029863D01*
X97782679Y-88010152D01*
X97782679Y-88009796D01*
X97784231Y-87999999D01*
X97781051Y-87979921D01*
X97779500Y-87960211D01*
X97779500Y-87539788D01*
X97781051Y-87520077D01*
X97781192Y-87519186D01*
X97784231Y-87500000D01*
X97782680Y-87490208D01*
X97782680Y-87489394D01*
X97781897Y-87482778D01*
X97772575Y-87364345D01*
X97768265Y-87309576D01*
X97767029Y-87304424D01*
X97733935Y-87166581D01*
X97723674Y-87123841D01*
X97714584Y-87101895D01*
X97652472Y-86951942D01*
X97652470Y-86951938D01*
X97650577Y-86947368D01*
X97550773Y-86784503D01*
X97426720Y-86639256D01*
X97281473Y-86515203D01*
X97118608Y-86415399D01*
X97087941Y-86402697D01*
X97032320Y-86357656D01*
X96944563Y-86229968D01*
X96826285Y-86124587D01*
X96818899Y-86120676D01*
X96692998Y-86054015D01*
X96692999Y-86054015D01*
X96686284Y-86050460D01*
X96532643Y-86011868D01*
X96525044Y-86011828D01*
X96525043Y-86011828D01*
X96459191Y-86011483D01*
X96374231Y-86011038D01*
X96366851Y-86012810D01*
X96366849Y-86012810D01*
X96227573Y-86046247D01*
X96227570Y-86046248D01*
X96220194Y-86048019D01*
X96079424Y-86120676D01*
X95960049Y-86224814D01*
X95868960Y-86354420D01*
X95811416Y-86502013D01*
X95810424Y-86509546D01*
X95810424Y-86509547D01*
X95793348Y-86639256D01*
X95790739Y-86659072D01*
X95797824Y-86723243D01*
X95802273Y-86763539D01*
X95808123Y-86816529D01*
X95810733Y-86823660D01*
X95810733Y-86823662D01*
X95857677Y-86951942D01*
X95862563Y-86965295D01*
X95866799Y-86971598D01*
X95866799Y-86971599D01*
X95928748Y-87063788D01*
X95950918Y-87096781D01*
X95956537Y-87101894D01*
X95956538Y-87101895D01*
X96024234Y-87163493D01*
X96061157Y-87224133D01*
X96059434Y-87295109D01*
X96039420Y-87329938D01*
X96040878Y-87330963D01*
X95949789Y-87460569D01*
X95938551Y-87489394D01*
X95896760Y-87596582D01*
X95892245Y-87608162D01*
X95891253Y-87615695D01*
X95891253Y-87615696D01*
X95881060Y-87693124D01*
X95871568Y-87765221D01*
X95875584Y-87801596D01*
X95888020Y-87914235D01*
X95888952Y-87922678D01*
X95891562Y-87929809D01*
X95891562Y-87929811D01*
X95938687Y-88058586D01*
X95943392Y-88071444D01*
X95947628Y-88077747D01*
X95947628Y-88077748D01*
X96027513Y-88196630D01*
X96027516Y-88196633D01*
X96031747Y-88202930D01*
X96037361Y-88208038D01*
X96037365Y-88208043D01*
X96079300Y-88246201D01*
X96116222Y-88306841D01*
X96120500Y-88339394D01*
X96120500Y-88560211D01*
X96118949Y-88579921D01*
X96115769Y-88599999D01*
X96117320Y-88609791D01*
X96117320Y-88609793D01*
X96117725Y-88612349D01*
X96118797Y-88621072D01*
X96131113Y-88761853D01*
X96139808Y-88794304D01*
X96170858Y-88910185D01*
X96173163Y-88918789D01*
X96175485Y-88923770D01*
X96175486Y-88923771D01*
X96241827Y-89066039D01*
X96239595Y-89067080D01*
X96253851Y-89125986D01*
X96230593Y-89193065D01*
X96174762Y-89236922D01*
X96127997Y-89245922D01*
X95694690Y-89245922D01*
X95674979Y-89244371D01*
X95664696Y-89242742D01*
X95664695Y-89242742D01*
X95654902Y-89241191D01*
X95645105Y-89242743D01*
X95644750Y-89242743D01*
X95625037Y-89241192D01*
X95588270Y-89235369D01*
X95550780Y-89223186D01*
X95508453Y-89201619D01*
X95476561Y-89178448D01*
X95442974Y-89144861D01*
X95419803Y-89112969D01*
X95398236Y-89070642D01*
X95386053Y-89033151D01*
X95380230Y-88996385D01*
X95378679Y-88976672D01*
X95378679Y-88976317D01*
X95380231Y-88966520D01*
X95377051Y-88946442D01*
X95375500Y-88926732D01*
X95375500Y-87970230D01*
X95395502Y-87902109D01*
X95419669Y-87874419D01*
X95475536Y-87826704D01*
X95481314Y-87821769D01*
X95573755Y-87693124D01*
X95632842Y-87546141D01*
X95651851Y-87412572D01*
X95654581Y-87393391D01*
X95654581Y-87393388D01*
X95655162Y-87389307D01*
X95655307Y-87375500D01*
X95654208Y-87366414D01*
X95649918Y-87330963D01*
X95636276Y-87218233D01*
X95580280Y-87070046D01*
X95514863Y-86974863D01*
X95494855Y-86945751D01*
X95494854Y-86945749D01*
X95490553Y-86939492D01*
X95372275Y-86834111D01*
X95364889Y-86830200D01*
X95238988Y-86763539D01*
X95238989Y-86763539D01*
X95232274Y-86759984D01*
X95078633Y-86721392D01*
X95071034Y-86721352D01*
X95071033Y-86721352D01*
X95005181Y-86721007D01*
X94920221Y-86720562D01*
X94912841Y-86722334D01*
X94912839Y-86722334D01*
X94773563Y-86755771D01*
X94773560Y-86755772D01*
X94766184Y-86757543D01*
X94625414Y-86830200D01*
X94619695Y-86835189D01*
X94523330Y-86919254D01*
X94458847Y-86948962D01*
X94388540Y-86939093D01*
X94334730Y-86892779D01*
X94314500Y-86824305D01*
X94314500Y-81104788D01*
X94316051Y-81085077D01*
X94317680Y-81074794D01*
X94317680Y-81074793D01*
X94319231Y-81065000D01*
X94317679Y-81055203D01*
X94317679Y-81054847D01*
X94319230Y-81035132D01*
X94319478Y-81033570D01*
X94325351Y-80996487D01*
X94337533Y-80958995D01*
X94359967Y-80914966D01*
X94383139Y-80883074D01*
X94418074Y-80848139D01*
X94449966Y-80824967D01*
X94493995Y-80802533D01*
X94531487Y-80790351D01*
X94570134Y-80784230D01*
X94589847Y-80782679D01*
X94590203Y-80782679D01*
X94600000Y-80784231D01*
X94609793Y-80782680D01*
X94609794Y-80782680D01*
X94620077Y-80781051D01*
X94639788Y-80779500D01*
X117842676Y-80779500D01*
X117862386Y-80781051D01*
G37*
%TD.AperFunction*%
%TD*%
M02*
