%TF.GenerationSoftware,KiCad,Pcbnew,(5.1.9-0-10_14)*%
%TF.CreationDate,2021-04-22T10:05:04+01:00*%
%TF.ProjectId,EnvMon,456e764d-6f6e-42e6-9b69-6361645f7063,2*%
%TF.SameCoordinates,Original*%
%TF.FileFunction,Soldermask,Top*%
%TF.FilePolarity,Negative*%
%FSLAX46Y46*%
G04 Gerber Fmt 4.6, Leading zero omitted, Abs format (unit mm)*
G04 Created by KiCad (PCBNEW (5.1.9-0-10_14)) date 2021-04-22 10:05:04*
%MOMM*%
%LPD*%
G01*
G04 APERTURE LIST*
%ADD10C,1.524000*%
%ADD11R,2.500000X2.500000*%
%ADD12C,1.700000*%
%ADD13R,1.524000X1.524000*%
%ADD14C,2.000000*%
%ADD15R,2.000000X2.000000*%
%ADD16C,5.000000*%
%ADD17R,2.000000X0.900000*%
%ADD18R,0.900000X2.000000*%
%ADD19R,5.000000X5.000000*%
%ADD20O,1.700000X1.850000*%
%ADD21R,0.600000X1.140000*%
%ADD22R,0.300000X1.140000*%
%ADD23C,0.600000*%
G04 APERTURE END LIST*
D10*
%TO.C,U1*%
X99975000Y-88125000D03*
D11*
X99975000Y-88125000D03*
G36*
G01*
X98850000Y-86537500D02*
X98850000Y-85662500D01*
G75*
G02*
X98912500Y-85600000I62500J0D01*
G01*
X99037500Y-85600000D01*
G75*
G02*
X99100000Y-85662500I0J-62500D01*
G01*
X99100000Y-86537500D01*
G75*
G02*
X99037500Y-86600000I-62500J0D01*
G01*
X98912500Y-86600000D01*
G75*
G02*
X98850000Y-86537500I0J62500D01*
G01*
G37*
G36*
G01*
X99350000Y-86537500D02*
X99350000Y-85662500D01*
G75*
G02*
X99412500Y-85600000I62500J0D01*
G01*
X99537500Y-85600000D01*
G75*
G02*
X99600000Y-85662500I0J-62500D01*
G01*
X99600000Y-86537500D01*
G75*
G02*
X99537500Y-86600000I-62500J0D01*
G01*
X99412500Y-86600000D01*
G75*
G02*
X99350000Y-86537500I0J62500D01*
G01*
G37*
G36*
G01*
X99850000Y-86537500D02*
X99850000Y-85662500D01*
G75*
G02*
X99912500Y-85600000I62500J0D01*
G01*
X100037500Y-85600000D01*
G75*
G02*
X100100000Y-85662500I0J-62500D01*
G01*
X100100000Y-86537500D01*
G75*
G02*
X100037500Y-86600000I-62500J0D01*
G01*
X99912500Y-86600000D01*
G75*
G02*
X99850000Y-86537500I0J62500D01*
G01*
G37*
G36*
G01*
X100350000Y-86537500D02*
X100350000Y-85662500D01*
G75*
G02*
X100412500Y-85600000I62500J0D01*
G01*
X100537500Y-85600000D01*
G75*
G02*
X100600000Y-85662500I0J-62500D01*
G01*
X100600000Y-86537500D01*
G75*
G02*
X100537500Y-86600000I-62500J0D01*
G01*
X100412500Y-86600000D01*
G75*
G02*
X100350000Y-86537500I0J62500D01*
G01*
G37*
G36*
G01*
X100850000Y-86537500D02*
X100850000Y-85662500D01*
G75*
G02*
X100912500Y-85600000I62500J0D01*
G01*
X101037500Y-85600000D01*
G75*
G02*
X101100000Y-85662500I0J-62500D01*
G01*
X101100000Y-86537500D01*
G75*
G02*
X101037500Y-86600000I-62500J0D01*
G01*
X100912500Y-86600000D01*
G75*
G02*
X100850000Y-86537500I0J62500D01*
G01*
G37*
G36*
G01*
X101500000Y-87187500D02*
X101500000Y-87062500D01*
G75*
G02*
X101562500Y-87000000I62500J0D01*
G01*
X102437500Y-87000000D01*
G75*
G02*
X102500000Y-87062500I0J-62500D01*
G01*
X102500000Y-87187500D01*
G75*
G02*
X102437500Y-87250000I-62500J0D01*
G01*
X101562500Y-87250000D01*
G75*
G02*
X101500000Y-87187500I0J62500D01*
G01*
G37*
G36*
G01*
X101500000Y-87687500D02*
X101500000Y-87562500D01*
G75*
G02*
X101562500Y-87500000I62500J0D01*
G01*
X102437500Y-87500000D01*
G75*
G02*
X102500000Y-87562500I0J-62500D01*
G01*
X102500000Y-87687500D01*
G75*
G02*
X102437500Y-87750000I-62500J0D01*
G01*
X101562500Y-87750000D01*
G75*
G02*
X101500000Y-87687500I0J62500D01*
G01*
G37*
G36*
G01*
X101500000Y-88187500D02*
X101500000Y-88062500D01*
G75*
G02*
X101562500Y-88000000I62500J0D01*
G01*
X102437500Y-88000000D01*
G75*
G02*
X102500000Y-88062500I0J-62500D01*
G01*
X102500000Y-88187500D01*
G75*
G02*
X102437500Y-88250000I-62500J0D01*
G01*
X101562500Y-88250000D01*
G75*
G02*
X101500000Y-88187500I0J62500D01*
G01*
G37*
G36*
G01*
X101500000Y-88687500D02*
X101500000Y-88562500D01*
G75*
G02*
X101562500Y-88500000I62500J0D01*
G01*
X102437500Y-88500000D01*
G75*
G02*
X102500000Y-88562500I0J-62500D01*
G01*
X102500000Y-88687500D01*
G75*
G02*
X102437500Y-88750000I-62500J0D01*
G01*
X101562500Y-88750000D01*
G75*
G02*
X101500000Y-88687500I0J62500D01*
G01*
G37*
G36*
G01*
X101500000Y-89187500D02*
X101500000Y-89062500D01*
G75*
G02*
X101562500Y-89000000I62500J0D01*
G01*
X102437500Y-89000000D01*
G75*
G02*
X102500000Y-89062500I0J-62500D01*
G01*
X102500000Y-89187500D01*
G75*
G02*
X102437500Y-89250000I-62500J0D01*
G01*
X101562500Y-89250000D01*
G75*
G02*
X101500000Y-89187500I0J62500D01*
G01*
G37*
G36*
G01*
X100850000Y-90587500D02*
X100850000Y-89712500D01*
G75*
G02*
X100912500Y-89650000I62500J0D01*
G01*
X101037500Y-89650000D01*
G75*
G02*
X101100000Y-89712500I0J-62500D01*
G01*
X101100000Y-90587500D01*
G75*
G02*
X101037500Y-90650000I-62500J0D01*
G01*
X100912500Y-90650000D01*
G75*
G02*
X100850000Y-90587500I0J62500D01*
G01*
G37*
G36*
G01*
X100350000Y-90587500D02*
X100350000Y-89712500D01*
G75*
G02*
X100412500Y-89650000I62500J0D01*
G01*
X100537500Y-89650000D01*
G75*
G02*
X100600000Y-89712500I0J-62500D01*
G01*
X100600000Y-90587500D01*
G75*
G02*
X100537500Y-90650000I-62500J0D01*
G01*
X100412500Y-90650000D01*
G75*
G02*
X100350000Y-90587500I0J62500D01*
G01*
G37*
G36*
G01*
X99850000Y-90587500D02*
X99850000Y-89712500D01*
G75*
G02*
X99912500Y-89650000I62500J0D01*
G01*
X100037500Y-89650000D01*
G75*
G02*
X100100000Y-89712500I0J-62500D01*
G01*
X100100000Y-90587500D01*
G75*
G02*
X100037500Y-90650000I-62500J0D01*
G01*
X99912500Y-90650000D01*
G75*
G02*
X99850000Y-90587500I0J62500D01*
G01*
G37*
G36*
G01*
X99350000Y-90587500D02*
X99350000Y-89712500D01*
G75*
G02*
X99412500Y-89650000I62500J0D01*
G01*
X99537500Y-89650000D01*
G75*
G02*
X99600000Y-89712500I0J-62500D01*
G01*
X99600000Y-90587500D01*
G75*
G02*
X99537500Y-90650000I-62500J0D01*
G01*
X99412500Y-90650000D01*
G75*
G02*
X99350000Y-90587500I0J62500D01*
G01*
G37*
G36*
G01*
X98850000Y-90587500D02*
X98850000Y-89712500D01*
G75*
G02*
X98912500Y-89650000I62500J0D01*
G01*
X99037500Y-89650000D01*
G75*
G02*
X99100000Y-89712500I0J-62500D01*
G01*
X99100000Y-90587500D01*
G75*
G02*
X99037500Y-90650000I-62500J0D01*
G01*
X98912500Y-90650000D01*
G75*
G02*
X98850000Y-90587500I0J62500D01*
G01*
G37*
G36*
G01*
X97450000Y-89187500D02*
X97450000Y-89062500D01*
G75*
G02*
X97512500Y-89000000I62500J0D01*
G01*
X98387500Y-89000000D01*
G75*
G02*
X98450000Y-89062500I0J-62500D01*
G01*
X98450000Y-89187500D01*
G75*
G02*
X98387500Y-89250000I-62500J0D01*
G01*
X97512500Y-89250000D01*
G75*
G02*
X97450000Y-89187500I0J62500D01*
G01*
G37*
G36*
G01*
X97450000Y-88687500D02*
X97450000Y-88562500D01*
G75*
G02*
X97512500Y-88500000I62500J0D01*
G01*
X98387500Y-88500000D01*
G75*
G02*
X98450000Y-88562500I0J-62500D01*
G01*
X98450000Y-88687500D01*
G75*
G02*
X98387500Y-88750000I-62500J0D01*
G01*
X97512500Y-88750000D01*
G75*
G02*
X97450000Y-88687500I0J62500D01*
G01*
G37*
G36*
G01*
X97450000Y-88187500D02*
X97450000Y-88062500D01*
G75*
G02*
X97512500Y-88000000I62500J0D01*
G01*
X98387500Y-88000000D01*
G75*
G02*
X98450000Y-88062500I0J-62500D01*
G01*
X98450000Y-88187500D01*
G75*
G02*
X98387500Y-88250000I-62500J0D01*
G01*
X97512500Y-88250000D01*
G75*
G02*
X97450000Y-88187500I0J62500D01*
G01*
G37*
G36*
G01*
X97450000Y-87687500D02*
X97450000Y-87562500D01*
G75*
G02*
X97512500Y-87500000I62500J0D01*
G01*
X98387500Y-87500000D01*
G75*
G02*
X98450000Y-87562500I0J-62500D01*
G01*
X98450000Y-87687500D01*
G75*
G02*
X98387500Y-87750000I-62500J0D01*
G01*
X97512500Y-87750000D01*
G75*
G02*
X97450000Y-87687500I0J62500D01*
G01*
G37*
G36*
G01*
X97450000Y-87187500D02*
X97450000Y-87062500D01*
G75*
G02*
X97512500Y-87000000I62500J0D01*
G01*
X98387500Y-87000000D01*
G75*
G02*
X98450000Y-87062500I0J-62500D01*
G01*
X98450000Y-87187500D01*
G75*
G02*
X98387500Y-87250000I-62500J0D01*
G01*
X97512500Y-87250000D01*
G75*
G02*
X97450000Y-87187500I0J62500D01*
G01*
G37*
%TD*%
D12*
%TO.C,M1*%
X94990000Y-83430000D03*
X102610000Y-83430000D03*
D13*
X100070000Y-83430000D03*
D12*
X97530000Y-83430000D03*
%TD*%
D14*
%TO.C,J2*%
X108740000Y-96000000D03*
D15*
X106200000Y-96000000D03*
%TD*%
D12*
%TO.C,M3*%
X104220000Y-70800000D03*
X101680000Y-70800000D03*
X99140000Y-70800000D03*
X96600000Y-70800000D03*
%TD*%
D16*
%TO.C,M2*%
X92500000Y-65500000D03*
X92500000Y-97500000D03*
X132000000Y-97500000D03*
X132000000Y-65500000D03*
D12*
X92500000Y-89120000D03*
X92500000Y-86580000D03*
X92500000Y-84040000D03*
X92500000Y-81500000D03*
X92500000Y-78960000D03*
X92500000Y-76420000D03*
X92500000Y-73880000D03*
%TD*%
D17*
%TO.C,U2*%
X123750000Y-70745000D03*
X123750000Y-72015000D03*
X123750000Y-73285000D03*
X123750000Y-74555000D03*
X123750000Y-75825000D03*
X123750000Y-77095000D03*
X123750000Y-78365000D03*
X123750000Y-79635000D03*
X123750000Y-80905000D03*
X123750000Y-82175000D03*
X123750000Y-83445000D03*
X123750000Y-84715000D03*
X123750000Y-85985000D03*
X123750000Y-87255000D03*
D18*
X120965000Y-88255000D03*
X119695000Y-88255000D03*
X118425000Y-88255000D03*
X117155000Y-88255000D03*
X115885000Y-88255000D03*
X114615000Y-88255000D03*
X113345000Y-88255000D03*
X112075000Y-88255000D03*
X110805000Y-88255000D03*
X109535000Y-88255000D03*
D17*
X106750000Y-87255000D03*
X106750000Y-85985000D03*
X106750000Y-84715000D03*
X106750000Y-83445000D03*
X106750000Y-82175000D03*
X106750000Y-80905000D03*
X106750000Y-79635000D03*
X106750000Y-78365000D03*
X106750000Y-77095000D03*
X106750000Y-75825000D03*
X106750000Y-74555000D03*
X106750000Y-73285000D03*
X106750000Y-72015000D03*
X106750000Y-70745000D03*
D19*
X114250000Y-78245000D03*
%TD*%
D20*
%TO.C,J3*%
X126550000Y-93150000D03*
X124050000Y-93150000D03*
X121550000Y-93150000D03*
X119050000Y-93150000D03*
X116550000Y-93150000D03*
X114050000Y-93150000D03*
X111550000Y-93150000D03*
G36*
G01*
X108200000Y-93825000D02*
X108200000Y-92475000D01*
G75*
G02*
X108450000Y-92225000I250000J0D01*
G01*
X109650000Y-92225000D01*
G75*
G02*
X109900000Y-92475000I0J-250000D01*
G01*
X109900000Y-93825000D01*
G75*
G02*
X109650000Y-94075000I-250000J0D01*
G01*
X108450000Y-94075000D01*
G75*
G02*
X108200000Y-93825000I0J250000D01*
G01*
G37*
%TD*%
D21*
%TO.C,J1*%
X102950000Y-93135000D03*
X97350000Y-93135000D03*
X96550000Y-93135000D03*
X102150000Y-93135000D03*
D12*
X104075000Y-97905000D03*
X95425000Y-97905000D03*
D14*
X104075000Y-93725000D03*
X95425000Y-93725000D03*
D22*
X100000000Y-93135000D03*
X99500000Y-93135000D03*
X100500000Y-93135000D03*
X99000000Y-93135000D03*
X101000000Y-93135000D03*
X98500000Y-93135000D03*
X101500000Y-93135000D03*
X98000000Y-93135000D03*
D21*
X102150000Y-93135000D03*
X97350000Y-93135000D03*
X102950000Y-93135000D03*
D23*
X102640000Y-94205000D03*
X96860000Y-94205000D03*
D21*
X96550000Y-93135000D03*
%TD*%
M02*
