%TF.GenerationSoftware,KiCad,Pcbnew,(6.0.9-0)*%
%TF.CreationDate,2023-01-05T14:27:18+00:00*%
%TF.ProjectId,EnvMon2,456e764d-6f6e-4322-9e6b-696361645f70,4*%
%TF.SameCoordinates,Original*%
%TF.FileFunction,Copper,L2,Bot*%
%TF.FilePolarity,Positive*%
%FSLAX46Y46*%
G04 Gerber Fmt 4.6, Leading zero omitted, Abs format (unit mm)*
G04 Created by KiCad (PCBNEW (6.0.9-0)) date 2023-01-05 14:27:18*
%MOMM*%
%LPD*%
G01*
G04 APERTURE LIST*
G04 Aperture macros list*
%AMRoundRect*
0 Rectangle with rounded corners*
0 $1 Rounding radius*
0 $2 $3 $4 $5 $6 $7 $8 $9 X,Y pos of 4 corners*
0 Add a 4 corners polygon primitive as box body*
4,1,4,$2,$3,$4,$5,$6,$7,$8,$9,$2,$3,0*
0 Add four circle primitives for the rounded corners*
1,1,$1+$1,$2,$3*
1,1,$1+$1,$4,$5*
1,1,$1+$1,$6,$7*
1,1,$1+$1,$8,$9*
0 Add four rect primitives between the rounded corners*
20,1,$1+$1,$2,$3,$4,$5,0*
20,1,$1+$1,$4,$5,$6,$7,0*
20,1,$1+$1,$6,$7,$8,$9,0*
20,1,$1+$1,$8,$9,$2,$3,0*%
%AMOutline5P*
0 Free polygon, 5 corners , with rotation*
0 The origin of the aperture is its center*
0 number of corners: always 5*
0 $1 to $10 corner X, Y*
0 $11 Rotation angle, in degrees counterclockwise*
0 create outline with 5 corners*
4,1,5,$1,$2,$3,$4,$5,$6,$7,$8,$9,$10,$1,$2,$11*%
%AMOutline6P*
0 Free polygon, 6 corners , with rotation*
0 The origin of the aperture is its center*
0 number of corners: always 6*
0 $1 to $12 corner X, Y*
0 $13 Rotation angle, in degrees counterclockwise*
0 create outline with 6 corners*
4,1,6,$1,$2,$3,$4,$5,$6,$7,$8,$9,$10,$11,$12,$1,$2,$13*%
%AMOutline7P*
0 Free polygon, 7 corners , with rotation*
0 The origin of the aperture is its center*
0 number of corners: always 7*
0 $1 to $14 corner X, Y*
0 $15 Rotation angle, in degrees counterclockwise*
0 create outline with 7 corners*
4,1,7,$1,$2,$3,$4,$5,$6,$7,$8,$9,$10,$11,$12,$13,$14,$1,$2,$15*%
%AMOutline8P*
0 Free polygon, 8 corners , with rotation*
0 The origin of the aperture is its center*
0 number of corners: always 8*
0 $1 to $16 corner X, Y*
0 $17 Rotation angle, in degrees counterclockwise*
0 create outline with 8 corners*
4,1,8,$1,$2,$3,$4,$5,$6,$7,$8,$9,$10,$11,$12,$13,$14,$15,$16,$1,$2,$17*%
G04 Aperture macros list end*
%ADD10C,0.100000*%
%TA.AperFunction,NonConductor*%
%ADD11C,0.100000*%
%TD*%
%TA.AperFunction,EtchedComponent*%
%ADD12C,0.080000*%
%TD*%
%TA.AperFunction,EtchedComponent*%
%ADD13C,0.250000*%
%TD*%
%TA.AperFunction,ComponentPad*%
%ADD14C,2.000000*%
%TD*%
%TA.AperFunction,ComponentPad*%
%ADD15RoundRect,0.250000X-0.600000X-0.675000X0.600000X-0.675000X0.600000X0.675000X-0.600000X0.675000X0*%
%TD*%
%TA.AperFunction,ComponentPad*%
%ADD16O,1.700000X1.850000*%
%TD*%
%TA.AperFunction,ComponentPad*%
%ADD17O,0.800000X1.300000*%
%TD*%
%TA.AperFunction,ComponentPad*%
%ADD18O,0.800000X1.600000*%
%TD*%
%TA.AperFunction,ComponentPad*%
%ADD19C,1.700000*%
%TD*%
%TA.AperFunction,ComponentPad*%
%ADD20Outline5P,-0.850000X0.340000X-0.340000X0.850000X0.850000X0.850000X0.850000X-0.850000X-0.850000X-0.850000X270.000000*%
%TD*%
%TA.AperFunction,ComponentPad*%
%ADD21O,1.700000X1.700000*%
%TD*%
%TA.AperFunction,SMDPad,CuDef*%
%ADD22R,1.000000X0.200000*%
%TD*%
%TA.AperFunction,SMDPad,CuDef*%
%ADD23R,0.200000X0.400000*%
%TD*%
%TA.AperFunction,SMDPad,CuDef*%
%ADD24R,0.200000X1.200000*%
%TD*%
%TA.AperFunction,SMDPad,CuDef*%
%ADD25R,0.200000X0.600000*%
%TD*%
%TA.AperFunction,SMDPad,CuDef*%
%ADD26R,0.200000X0.200000*%
%TD*%
%TA.AperFunction,SMDPad,CuDef*%
%ADD27R,0.800000X0.200000*%
%TD*%
%TA.AperFunction,SMDPad,CuDef*%
%ADD28R,1.400000X0.200000*%
%TD*%
%TA.AperFunction,SMDPad,CuDef*%
%ADD29R,0.600000X0.600000*%
%TD*%
%TA.AperFunction,SMDPad,CuDef*%
%ADD30R,0.400000X0.200000*%
%TD*%
%TA.AperFunction,SMDPad,CuDef*%
%ADD31R,0.600000X0.200000*%
%TD*%
%TA.AperFunction,SMDPad,CuDef*%
%ADD32R,0.600000X0.400000*%
%TD*%
%TA.AperFunction,SMDPad,CuDef*%
%ADD33R,0.200000X0.800000*%
%TD*%
%TA.AperFunction,SMDPad,CuDef*%
%ADD34R,0.400000X0.400000*%
%TD*%
%TA.AperFunction,ViaPad*%
%ADD35C,0.800000*%
%TD*%
%TA.AperFunction,Conductor*%
%ADD36C,0.500000*%
%TD*%
%TA.AperFunction,Conductor*%
%ADD37C,0.250000*%
%TD*%
G04 APERTURE END LIST*
D10*
%TO.C,U5*%
D11*
X124678571Y-93173809D02*
X124654761Y-93150000D01*
X124607142Y-93126190D01*
X124488095Y-93126190D01*
X124440476Y-93150000D01*
X124416666Y-93173809D01*
X124392857Y-93221428D01*
X124392857Y-93269047D01*
X124416666Y-93340476D01*
X124702380Y-93626190D01*
X124392857Y-93626190D01*
X124083333Y-93126190D02*
X124035714Y-93126190D01*
X123988095Y-93150000D01*
X123964285Y-93173809D01*
X123940476Y-93221428D01*
X123916666Y-93316666D01*
X123916666Y-93435714D01*
X123940476Y-93530952D01*
X123964285Y-93578571D01*
X123988095Y-93602380D01*
X124035714Y-93626190D01*
X124083333Y-93626190D01*
X124130952Y-93602380D01*
X124154761Y-93578571D01*
X124178571Y-93530952D01*
X124202380Y-93435714D01*
X124202380Y-93316666D01*
X124178571Y-93221428D01*
X124154761Y-93173809D01*
X124130952Y-93150000D01*
X124083333Y-93126190D01*
X123726190Y-93173809D02*
X123702380Y-93150000D01*
X123654761Y-93126190D01*
X123535714Y-93126190D01*
X123488095Y-93150000D01*
X123464285Y-93173809D01*
X123440476Y-93221428D01*
X123440476Y-93269047D01*
X123464285Y-93340476D01*
X123750000Y-93626190D01*
X123440476Y-93626190D01*
X123250000Y-93173809D02*
X123226190Y-93150000D01*
X123178571Y-93126190D01*
X123059523Y-93126190D01*
X123011904Y-93150000D01*
X122988095Y-93173809D01*
X122964285Y-93221428D01*
X122964285Y-93269047D01*
X122988095Y-93340476D01*
X123273809Y-93626190D01*
X122964285Y-93626190D01*
X122750000Y-93435714D02*
X122369047Y-93435714D01*
X121869047Y-93626190D02*
X122154761Y-93626190D01*
X122011904Y-93626190D02*
X122011904Y-93126190D01*
X122059523Y-93197619D01*
X122107142Y-93245238D01*
X122154761Y-93269047D01*
X121678571Y-93173809D02*
X121654761Y-93150000D01*
X121607142Y-93126190D01*
X121488095Y-93126190D01*
X121440476Y-93150000D01*
X121416666Y-93173809D01*
X121392857Y-93221428D01*
X121392857Y-93269047D01*
X121416666Y-93340476D01*
X121702380Y-93626190D01*
X121392857Y-93626190D01*
X121178571Y-93435714D02*
X120797619Y-93435714D01*
X120297619Y-93626190D02*
X120583333Y-93626190D01*
X120440476Y-93626190D02*
X120440476Y-93126190D01*
X120488095Y-93197619D01*
X120535714Y-93245238D01*
X120583333Y-93269047D01*
X119869047Y-93292857D02*
X119869047Y-93626190D01*
X119988095Y-93102380D02*
X120107142Y-93459523D01*
X119797619Y-93459523D01*
D12*
%TO.C,Logo1*%
X110350000Y-76735000D02*
X110250000Y-76875000D01*
X110450000Y-76575000D02*
X110450000Y-76875000D01*
D13*
X109600000Y-74625000D02*
X107800000Y-76725000D01*
X107800000Y-72625000D02*
X109600000Y-74625000D01*
X109600000Y-72525000D02*
X112600000Y-76725000D01*
X109600000Y-74625000D02*
X111100000Y-74625000D01*
D12*
X110450000Y-76575000D02*
X110350000Y-76575000D01*
X110450000Y-76735000D02*
X110350000Y-76735000D01*
D13*
X109600000Y-72525000D02*
X109600000Y-76725000D01*
X109600000Y-76725000D02*
G75*
G03*
X111100000Y-76725000I750000J0D01*
G01*
D12*
X110350000Y-76575000D02*
G75*
G03*
X110350000Y-76735000I0J-80000D01*
G01*
X110670000Y-76735000D02*
G75*
G03*
X110670000Y-76735000I-300000J0D01*
G01*
%TD*%
D14*
%TO.P,SW1,1,1*%
%TO.N,BUTTON1*%
X89250000Y-65250000D03*
X95750000Y-65250000D03*
%TO.P,SW1,2,2*%
%TO.N,GND*%
X95750000Y-69750000D03*
X89250000Y-69750000D03*
%TD*%
%TO.P,SW3,1,1*%
%TO.N,BUTTON3*%
X89300000Y-80250000D03*
X95800000Y-80250000D03*
%TO.P,SW3,2,2*%
%TO.N,GND*%
X89300000Y-84750000D03*
X95800000Y-84750000D03*
%TD*%
D15*
%TO.P,J3,1,Pin_1*%
%TO.N,GND*%
X108750000Y-90850000D03*
D16*
%TO.P,J3,2,Pin_2*%
%TO.N,TEMP*%
X111250000Y-90850000D03*
%TO.P,J3,3,Pin_3*%
%TO.N,+3V3*%
X113750000Y-90850000D03*
%TD*%
D17*
%TO.P,J1,S1,SHIELD*%
%TO.N,GND*%
X126570000Y-97910000D03*
X117930000Y-97910000D03*
D18*
X126570000Y-93720000D03*
X117930000Y-93720000D03*
%TD*%
D19*
%TO.P,M1,1,Vcc*%
%TO.N,+3V3*%
X102500000Y-73880000D03*
%TO.P,M1,2,GND*%
%TO.N,GND*%
X102500000Y-76420000D03*
%TO.P,M1,3,DIN*%
%TO.N,OLED-MOSI*%
X102500000Y-78960000D03*
%TO.P,M1,4,CLK*%
%TO.N,OLED-SCK*%
X102500000Y-81500000D03*
%TO.P,M1,5,CS*%
%TO.N,OLED-CS*%
X102500000Y-84040000D03*
%TO.P,M1,6,DC*%
%TO.N,OLED-DC*%
X102500000Y-86580000D03*
%TO.P,M1,7,RST*%
%TO.N,OLED-RST*%
X102500000Y-89120000D03*
%TD*%
D20*
%TO.P,J4,1,GND*%
%TO.N,GND*%
X141700000Y-86080000D03*
D21*
%TO.P,J4,2,0*%
%TO.N,BOOT*%
X141700000Y-83540000D03*
%TO.P,J4,3,3V3*%
%TO.N,+3V3*%
X141700000Y-81000000D03*
%TO.P,J4,4,Rx*%
%TO.N,I*%
X141700000Y-78460000D03*
%TO.P,J4,5,Tx*%
%TO.N,O*%
X141700000Y-75920000D03*
%TD*%
D15*
%TO.P,J2,1,GND*%
%TO.N,GND*%
X131750000Y-90850000D03*
D16*
%TO.P,J2,2,DC*%
%TO.N,DC*%
X134250000Y-90850000D03*
%TD*%
D14*
%TO.P,SW2,1,1*%
%TO.N,BUTTON2*%
X89250000Y-72750000D03*
X95750000Y-72750000D03*
%TO.P,SW2,2,2*%
%TO.N,GND*%
X95750000Y-77250000D03*
X89250000Y-77250000D03*
%TD*%
D22*
%TO.P,U5,*%
%TO.N,*%
X120850000Y-96200000D03*
D23*
X122050000Y-97100000D03*
D24*
X124250000Y-95700000D03*
D25*
X120850000Y-97200000D03*
D26*
X121450000Y-96600000D03*
X122250000Y-98000000D03*
D27*
X122350000Y-95200000D03*
D26*
X121050000Y-97400000D03*
X123450000Y-98600000D03*
D23*
X123650000Y-98900000D03*
D28*
X123650000Y-95000000D03*
D26*
X122450000Y-96000000D03*
X121450000Y-97000000D03*
D29*
X120850000Y-98400000D03*
D26*
X122650000Y-96200000D03*
D25*
X124050000Y-97800000D03*
D30*
X121950000Y-97600000D03*
X123950000Y-99000000D03*
D29*
X120850000Y-95600000D03*
D25*
X122650000Y-98200000D03*
D31*
X123250000Y-98400000D03*
D26*
X122850000Y-98200000D03*
D27*
X120550000Y-96600000D03*
D32*
X122650000Y-97300000D03*
D23*
X124250000Y-97900000D03*
D33*
X123450000Y-97100000D03*
D26*
X121250000Y-96800000D03*
D23*
X122650000Y-95500000D03*
D26*
X122250000Y-97400000D03*
D30*
X122950000Y-97000000D03*
X123750000Y-97000000D03*
D31*
X123650000Y-96600000D03*
D23*
X124250000Y-96700000D03*
D28*
X120850000Y-95000000D03*
D24*
X121450000Y-98500000D03*
D26*
X122050000Y-96400000D03*
D25*
X121850000Y-95600000D03*
D33*
X123650000Y-98100000D03*
D26*
X122250000Y-95400000D03*
X124050000Y-98400000D03*
D31*
X122650000Y-96600000D03*
D22*
X123650000Y-96200000D03*
D26*
X122450000Y-95600000D03*
D24*
X120250000Y-98500000D03*
D25*
X121850000Y-96800000D03*
D30*
X123350000Y-98000000D03*
D24*
X123050000Y-95700000D03*
D26*
X122050000Y-98600000D03*
X120250000Y-97000000D03*
X123850000Y-98000000D03*
D22*
X120850000Y-99000000D03*
D30*
X122550000Y-96800000D03*
D33*
X122250000Y-96500000D03*
D26*
X121450000Y-97400000D03*
D23*
X121650000Y-97300000D03*
D30*
X122950000Y-98600000D03*
D26*
X121850000Y-96200000D03*
D23*
X122050000Y-95700000D03*
D29*
X123650000Y-95600000D03*
D26*
X121250000Y-97200000D03*
X123250000Y-97200000D03*
X122250000Y-95800000D03*
X122050000Y-99000000D03*
D23*
X123250000Y-98900000D03*
X123050000Y-97500000D03*
D26*
X122250000Y-98400000D03*
D28*
X120850000Y-97800000D03*
D26*
X122050000Y-98200000D03*
X122050000Y-97800000D03*
D31*
X122050000Y-95000000D03*
D24*
X121450000Y-95700000D03*
D34*
X122550000Y-98900000D03*
D26*
X123050000Y-99000000D03*
D25*
X122450000Y-98000000D03*
D26*
X123650000Y-97200000D03*
D33*
X121850000Y-98700000D03*
D24*
X120250000Y-95700000D03*
D25*
X120650000Y-97000000D03*
%TD*%
D35*
%TO.N,VBUS*%
X124600000Y-90800000D03*
X119800000Y-90800000D03*
%TO.N,GND*%
X100000000Y-69500000D03*
X100000000Y-95500000D03*
X100000000Y-68500000D03*
X92500000Y-94500000D03*
X100000000Y-81750000D03*
X140600000Y-71000000D03*
X100000000Y-80750000D03*
X100000000Y-96500000D03*
X135250000Y-81000000D03*
X108600000Y-70400000D03*
X88000000Y-99000000D03*
X134250000Y-87250000D03*
%TO.N,+3V3*%
X118000000Y-72200000D03*
X124050000Y-87250000D03*
X129500000Y-86750000D03*
%TO.N,SCL*%
X88000000Y-90000000D03*
X126791134Y-70089855D03*
X107800000Y-69500000D03*
%TO.N,SDA*%
X88900000Y-90900000D03*
X126800000Y-71200000D03*
X106900000Y-68700000D03*
%TO.N,O*%
X120000000Y-87500000D03*
X131400000Y-74600000D03*
X126000000Y-73250000D03*
%TO.N,I*%
X130750500Y-76007095D03*
X126800000Y-84800000D03*
X127000000Y-74000000D03*
%TO.N,EN*%
X121321843Y-82434471D03*
X118200000Y-76600000D03*
%TO.N,BOOT*%
X129400000Y-88000000D03*
%TO.N,BUTTON1*%
X125500000Y-80500000D03*
%TO.N,BUTTON2*%
X123000000Y-80500000D03*
%TO.N,BUTTON3*%
X124000000Y-80500000D03*
%TD*%
D36*
%TO.N,VBUS*%
X124600000Y-90800000D02*
X119800000Y-90800000D01*
D37*
%TO.N,+3V3*%
X124050000Y-87250000D02*
X124050000Y-87950000D01*
X129700000Y-72500000D02*
X118724264Y-72500000D01*
X132200000Y-84050000D02*
X132200000Y-75000000D01*
X122750000Y-89250000D02*
X115350000Y-89250000D01*
X129500000Y-86750000D02*
X124550000Y-86750000D01*
X122750000Y-89250000D02*
G75*
G03*
X124050000Y-87950000I0J1300000D01*
G01*
X113750000Y-90850000D02*
G75*
G02*
X115350000Y-89250000I1600000J0D01*
G01*
X129700000Y-72500000D02*
G75*
G02*
X132200000Y-75000000I0J-2500000D01*
G01*
X118000011Y-72199989D02*
G75*
G03*
X118724264Y-72500000I724289J724289D01*
G01*
X124050000Y-87250000D02*
G75*
G02*
X124550000Y-86750000I500000J0D01*
G01*
X132200000Y-84050000D02*
G75*
G02*
X129500000Y-86750000I-2700000J0D01*
G01*
%TO.N,SCL*%
X126200000Y-69400000D02*
X115700000Y-69400000D01*
X127500000Y-78000000D02*
X127500000Y-81000000D01*
X126791134Y-70089855D02*
X126791134Y-69991134D01*
X104750000Y-90750000D02*
X102500000Y-90750000D01*
X97500000Y-93000000D02*
X97500000Y-90250000D01*
X100500000Y-92750000D02*
X100500000Y-93000000D01*
X115750000Y-69450000D02*
X115750000Y-73000000D01*
X106000000Y-85000000D02*
X106000000Y-89500000D01*
X117250000Y-74500000D02*
X124000000Y-74500000D01*
X125250000Y-83250000D02*
X107750000Y-83250000D01*
X115700000Y-69400000D02*
X107900000Y-69400000D01*
X96722887Y-89472887D02*
X88527113Y-89472887D01*
X99000000Y-94500000D02*
G75*
G03*
X100500000Y-93000000I0J1500000D01*
G01*
X107800000Y-69500000D02*
G75*
G02*
X107900000Y-69400000I100000J0D01*
G01*
X125250000Y-83250000D02*
G75*
G03*
X127500000Y-81000000I0J2250000D01*
G01*
X104750000Y-90750000D02*
G75*
G03*
X106000000Y-89500000I0J1250000D01*
G01*
X115700000Y-69400000D02*
G75*
G02*
X115750000Y-69450000I0J-50000D01*
G01*
X106000000Y-85000000D02*
G75*
G02*
X107750000Y-83250000I1750000J0D01*
G01*
X127500000Y-78000000D02*
G75*
G03*
X124000000Y-74500000I-3500000J0D01*
G01*
X96722887Y-89472900D02*
G75*
G02*
X97500000Y-90250000I13J-777100D01*
G01*
X100500000Y-92750000D02*
G75*
G02*
X102500000Y-90750000I2000000J0D01*
G01*
X126200000Y-69399966D02*
G75*
G02*
X126791134Y-69991134I0J-591134D01*
G01*
X87999987Y-90000000D02*
G75*
G02*
X88527113Y-89472887I527113J0D01*
G01*
X97500000Y-93000000D02*
G75*
G03*
X99000000Y-94500000I1500000J0D01*
G01*
X117250000Y-74500000D02*
G75*
G02*
X115750000Y-73000000I0J1500000D01*
G01*
%TO.N,SDA*%
X116850000Y-69950000D02*
X125250000Y-69950000D01*
X124000000Y-74000000D02*
X117250000Y-74000000D01*
X116250000Y-73000000D02*
X116250000Y-70550000D01*
X126300000Y-68700000D02*
X106900000Y-68700000D01*
X126500000Y-71200000D02*
X126800000Y-71200000D01*
X88900000Y-90900000D02*
X88900000Y-90600000D01*
X107750000Y-83750000D02*
X125250000Y-83750000D01*
X127600000Y-70400000D02*
X127600000Y-70000000D01*
X128000000Y-81000000D02*
X128000000Y-78000000D01*
X89500000Y-90000000D02*
X96750000Y-90000000D01*
X97000000Y-90250000D02*
X97000000Y-93000000D01*
X106500000Y-89500000D02*
X106500000Y-85000000D01*
X102750000Y-91250000D02*
X104750000Y-91250000D01*
X101000000Y-93000000D02*
G75*
G02*
X99000000Y-95000000I-2000000J0D01*
G01*
X99000000Y-95000000D02*
G75*
G02*
X97000000Y-93000000I0J2000000D01*
G01*
X102750000Y-91250000D02*
G75*
G03*
X101000000Y-93000000I0J-1750000D01*
G01*
X126500000Y-71200000D02*
G75*
G02*
X125900000Y-70600000I0J600000D01*
G01*
X127600000Y-70400000D02*
G75*
G02*
X126800000Y-71200000I-800000J0D01*
G01*
X126300000Y-68700000D02*
G75*
G02*
X127600000Y-70000000I0J-1300000D01*
G01*
X124000000Y-74000000D02*
G75*
G02*
X128000000Y-78000000I0J-4000000D01*
G01*
X128000000Y-81000000D02*
G75*
G02*
X125250000Y-83750000I-2750000J0D01*
G01*
X116850000Y-69950000D02*
G75*
G03*
X116250000Y-70550000I0J-600000D01*
G01*
X106500000Y-89500000D02*
G75*
G02*
X104750000Y-91250000I-1750000J0D01*
G01*
X89500000Y-90000000D02*
G75*
G03*
X88900000Y-90600000I0J-600000D01*
G01*
X125900000Y-70600000D02*
G75*
G03*
X125250000Y-69950000I-650000J0D01*
G01*
X107750000Y-83750000D02*
G75*
G03*
X106500000Y-85000000I0J-1250000D01*
G01*
X97000000Y-90250000D02*
G75*
G03*
X96750000Y-90000000I-250000J0D01*
G01*
X116250000Y-73000000D02*
G75*
G03*
X117250000Y-74000000I1000000J0D01*
G01*
%TO.N,O*%
X128200000Y-73000000D02*
X129800000Y-73000000D01*
X121300000Y-86200000D02*
X128200000Y-86200000D01*
X128200000Y-73000000D02*
X126603553Y-73000000D01*
X131400000Y-83000000D02*
X131400000Y-74600000D01*
X131400000Y-83000000D02*
G75*
G02*
X128200000Y-86200000I-3200000J0D01*
G01*
X131400000Y-74600000D02*
G75*
G03*
X129800000Y-73000000I-1600000J0D01*
G01*
X126000014Y-73250014D02*
G75*
G02*
X126603553Y-73000000I603586J-603586D01*
G01*
X121300000Y-86200000D02*
G75*
G03*
X120000000Y-87500000I0J-1300000D01*
G01*
%TO.N,I*%
X126800000Y-84800000D02*
X129200000Y-84800000D01*
X130800000Y-83200000D02*
X130800000Y-76056595D01*
X130756946Y-75574293D02*
X130756946Y-76000649D01*
X130756946Y-76000649D02*
X130750500Y-76007095D01*
X127000000Y-74000000D02*
X128800000Y-74000000D01*
X130800000Y-83200000D02*
G75*
G02*
X129200000Y-84800000I-1600000J0D01*
G01*
X130750500Y-76007100D02*
G75*
G02*
X130800000Y-76056595I0J-49500D01*
G01*
X130756880Y-75574307D02*
G75*
G03*
X128800000Y-74000000I-1959080J-431793D01*
G01*
%TO.N,EN*%
X118200000Y-76600000D02*
X118200000Y-76050000D01*
X121380955Y-82493583D02*
X121321843Y-82434471D01*
X127000000Y-78000000D02*
X127000000Y-81000000D01*
X125250000Y-82750000D02*
X122000000Y-82750000D01*
X119250000Y-75000000D02*
X124000000Y-75000000D01*
X125250000Y-82750000D02*
G75*
G03*
X127000000Y-81000000I0J1750000D01*
G01*
X127000000Y-78000000D02*
G75*
G03*
X124000000Y-75000000I-3000000J0D01*
G01*
X121380947Y-82493591D02*
G75*
G03*
X122000000Y-82750000I619053J619091D01*
G01*
X119250000Y-75000000D02*
G75*
G03*
X118200000Y-76050000I0J-1050000D01*
G01*
%TO.N,BOOT*%
X141260000Y-83540000D02*
X141700000Y-83540000D01*
X129400000Y-88000000D02*
X136800000Y-88000000D01*
X141260000Y-83540000D02*
G75*
G03*
X137800000Y-87000000I0J-3460000D01*
G01*
X137800000Y-87000000D02*
G75*
G02*
X136800000Y-88000000I-1000000J0D01*
G01*
%TO.N,BUTTON1*%
X104500000Y-79250000D02*
X104500000Y-71000000D01*
X124750000Y-79750000D02*
X105000000Y-79750000D01*
X101000000Y-67500000D02*
X98000000Y-67500000D01*
X101000000Y-67500000D02*
G75*
G02*
X104500000Y-71000000I0J-3500000D01*
G01*
X104500000Y-79250000D02*
G75*
G03*
X105000000Y-79750000I500000J0D01*
G01*
X124750000Y-79750000D02*
G75*
G02*
X125500000Y-80500000I0J-750000D01*
G01*
X95750000Y-65250000D02*
G75*
G03*
X98000000Y-67500000I2250000J0D01*
G01*
%TO.N,BUTTON2*%
X104000000Y-79500000D02*
X104000000Y-73000000D01*
X101500000Y-70500000D02*
X98000000Y-70500000D01*
X104750000Y-80250000D02*
X122750000Y-80250000D01*
X101500000Y-70500000D02*
G75*
G02*
X104000000Y-73000000I0J-2500000D01*
G01*
X95750000Y-72750000D02*
G75*
G02*
X98000000Y-70500000I2250000J0D01*
G01*
X122750000Y-80250000D02*
G75*
G02*
X123000000Y-80500000I0J-250000D01*
G01*
X104000000Y-79500000D02*
G75*
G03*
X104750000Y-80250000I750000J0D01*
G01*
%TO.N,BUTTON3*%
X103050000Y-82700000D02*
X98250000Y-82700000D01*
X121500000Y-80750000D02*
X105000000Y-80750000D01*
X122000000Y-81000000D02*
X121926777Y-80926777D01*
X123250000Y-81250000D02*
X122603553Y-81250000D01*
X103050000Y-82700000D02*
G75*
G03*
X104000000Y-81750000I0J950000D01*
G01*
X122000014Y-80999986D02*
G75*
G03*
X122603553Y-81250000I603586J603586D01*
G01*
X123250000Y-81250000D02*
G75*
G03*
X124000000Y-80500000I0J750000D01*
G01*
X95800000Y-80250000D02*
G75*
G03*
X98250000Y-82700000I2450000J0D01*
G01*
X121500000Y-80750014D02*
G75*
G02*
X121926777Y-80926777I0J-603586D01*
G01*
X104000000Y-81750000D02*
G75*
G02*
X105000000Y-80750000I1000000J0D01*
G01*
%TD*%
%TA.AperFunction,Conductor*%
%TO.N,GND*%
G36*
X143487306Y-63252883D02*
G01*
X143500000Y-63255408D01*
X143511979Y-63253025D01*
X143519548Y-63253025D01*
X143531702Y-63253622D01*
X143634065Y-63263704D01*
X143657905Y-63268446D01*
X143775135Y-63304007D01*
X143797593Y-63313310D01*
X143905631Y-63371058D01*
X143925842Y-63384563D01*
X144020536Y-63462276D01*
X144037724Y-63479464D01*
X144115437Y-63574158D01*
X144128942Y-63594369D01*
X144186690Y-63702407D01*
X144195993Y-63724865D01*
X144231554Y-63842093D01*
X144236296Y-63865935D01*
X144246378Y-63968298D01*
X144246975Y-63980452D01*
X144246975Y-63988021D01*
X144244592Y-64000000D01*
X144246975Y-64011980D01*
X144247117Y-64012694D01*
X144249500Y-64036885D01*
X144249500Y-98963115D01*
X144247117Y-98987306D01*
X144244592Y-99000000D01*
X144246975Y-99011979D01*
X144246975Y-99019548D01*
X144246378Y-99031702D01*
X144236296Y-99134065D01*
X144231554Y-99157907D01*
X144195993Y-99275135D01*
X144186690Y-99297593D01*
X144128942Y-99405631D01*
X144115437Y-99425842D01*
X144037724Y-99520536D01*
X144020536Y-99537724D01*
X143925842Y-99615437D01*
X143905631Y-99628942D01*
X143797593Y-99686690D01*
X143775136Y-99695993D01*
X143657905Y-99731554D01*
X143634065Y-99736296D01*
X143531702Y-99746378D01*
X143519548Y-99746975D01*
X143511979Y-99746975D01*
X143500000Y-99744592D01*
X143488020Y-99746975D01*
X143487306Y-99747117D01*
X143463115Y-99749500D01*
X137124500Y-99749500D01*
X137057461Y-99729815D01*
X137011706Y-99677011D01*
X137000500Y-99625500D01*
X137000500Y-98536885D01*
X137002883Y-98512694D01*
X137003025Y-98511979D01*
X137005408Y-98500000D01*
X137003686Y-98491341D01*
X136999883Y-98443013D01*
X136989306Y-98308626D01*
X136989306Y-98308624D01*
X136988924Y-98303774D01*
X136987789Y-98299047D01*
X136987788Y-98299040D01*
X136944111Y-98117115D01*
X136942974Y-98112379D01*
X136867649Y-97930529D01*
X136764804Y-97762702D01*
X136636971Y-97613029D01*
X136487298Y-97485196D01*
X136461334Y-97469285D01*
X140044759Y-97469285D01*
X140059938Y-97745087D01*
X140060794Y-97749393D01*
X140060795Y-97749397D01*
X140080654Y-97849236D01*
X140113825Y-98015999D01*
X140205347Y-98276616D01*
X140219455Y-98303774D01*
X140327981Y-98512694D01*
X140332678Y-98521737D01*
X140493275Y-98746471D01*
X140683936Y-98946335D01*
X140687380Y-98949050D01*
X140687381Y-98949051D01*
X140752010Y-99000000D01*
X140900856Y-99117341D01*
X141139707Y-99256077D01*
X141143777Y-99257725D01*
X141143780Y-99257727D01*
X141204283Y-99282233D01*
X141395723Y-99359774D01*
X141399977Y-99360831D01*
X141399978Y-99360831D01*
X141659543Y-99425308D01*
X141659549Y-99425309D01*
X141663796Y-99426364D01*
X141668159Y-99426811D01*
X141896223Y-99450178D01*
X141896231Y-99450178D01*
X141899370Y-99450500D01*
X142070362Y-99450500D01*
X142072530Y-99450346D01*
X142072544Y-99450346D01*
X142201400Y-99441222D01*
X142275530Y-99435973D01*
X142545562Y-99377837D01*
X142792273Y-99286821D01*
X142800595Y-99283751D01*
X142800598Y-99283750D01*
X142804709Y-99282233D01*
X142853185Y-99256077D01*
X142907352Y-99226850D01*
X143047800Y-99151068D01*
X143269984Y-98986960D01*
X143314476Y-98943162D01*
X143463704Y-98796259D01*
X143466829Y-98793183D01*
X143634406Y-98573604D01*
X143769373Y-98332604D01*
X143778650Y-98308626D01*
X143867454Y-98079080D01*
X143869036Y-98074991D01*
X143931407Y-97805905D01*
X143934959Y-97764901D01*
X143954863Y-97535081D01*
X143954863Y-97535079D01*
X143955241Y-97530715D01*
X143940062Y-97254913D01*
X143938986Y-97249500D01*
X143887031Y-96988306D01*
X143886175Y-96984001D01*
X143794653Y-96723384D01*
X143667322Y-96478263D01*
X143506725Y-96253529D01*
X143316064Y-96053665D01*
X143264532Y-96013040D01*
X143102589Y-95885375D01*
X143099144Y-95882659D01*
X142860293Y-95743923D01*
X142856223Y-95742275D01*
X142856220Y-95742273D01*
X142608343Y-95641873D01*
X142608344Y-95641873D01*
X142604277Y-95640226D01*
X142600022Y-95639169D01*
X142340457Y-95574692D01*
X142340451Y-95574691D01*
X142336204Y-95573636D01*
X142323605Y-95572345D01*
X142103777Y-95549822D01*
X142103769Y-95549822D01*
X142100630Y-95549500D01*
X141929638Y-95549500D01*
X141927470Y-95549654D01*
X141927456Y-95549654D01*
X141798600Y-95558778D01*
X141724470Y-95564027D01*
X141454438Y-95622163D01*
X141450317Y-95623683D01*
X141450318Y-95623683D01*
X141199405Y-95716249D01*
X141199402Y-95716250D01*
X141195291Y-95717767D01*
X141191434Y-95719848D01*
X141191432Y-95719849D01*
X141142725Y-95746130D01*
X140952200Y-95848932D01*
X140730016Y-96013040D01*
X140726888Y-96016120D01*
X140726886Y-96016121D01*
X140646141Y-96095608D01*
X140533171Y-96206817D01*
X140365594Y-96426396D01*
X140230627Y-96667396D01*
X140229046Y-96671483D01*
X140229044Y-96671487D01*
X140153532Y-96866675D01*
X140130964Y-96925009D01*
X140068593Y-97194095D01*
X140068216Y-97198450D01*
X140068215Y-97198455D01*
X140045217Y-97463997D01*
X140044759Y-97469285D01*
X136461334Y-97469285D01*
X136319471Y-97382351D01*
X136137621Y-97307026D01*
X136086809Y-97294827D01*
X135950960Y-97262212D01*
X135950953Y-97262211D01*
X135946226Y-97261076D01*
X135941376Y-97260694D01*
X135941374Y-97260694D01*
X135767047Y-97246974D01*
X135767045Y-97246974D01*
X135758659Y-97246314D01*
X135750000Y-97244592D01*
X135737345Y-97247109D01*
X135737306Y-97247117D01*
X135713115Y-97249500D01*
X130286885Y-97249500D01*
X130262694Y-97247117D01*
X130262655Y-97247109D01*
X130250000Y-97244592D01*
X130241341Y-97246314D01*
X130232955Y-97246974D01*
X130232953Y-97246974D01*
X130058626Y-97260694D01*
X130058624Y-97260694D01*
X130053774Y-97261076D01*
X130049047Y-97262211D01*
X130049040Y-97262212D01*
X129913191Y-97294827D01*
X129862379Y-97307026D01*
X129680529Y-97382351D01*
X129512702Y-97485196D01*
X129363029Y-97613029D01*
X129235196Y-97762702D01*
X129132351Y-97930529D01*
X129057026Y-98112379D01*
X129055889Y-98117115D01*
X129012212Y-98299040D01*
X129012211Y-98299047D01*
X129011076Y-98303774D01*
X129010694Y-98308624D01*
X129010694Y-98308626D01*
X129000118Y-98443013D01*
X128996314Y-98491341D01*
X128994592Y-98500000D01*
X128996975Y-98511979D01*
X128997117Y-98512694D01*
X128999500Y-98536885D01*
X128999500Y-99625500D01*
X128979815Y-99692539D01*
X128927011Y-99738294D01*
X128875500Y-99749500D01*
X125324000Y-99749500D01*
X125256961Y-99729815D01*
X125211206Y-99677011D01*
X125200000Y-99625500D01*
X125200000Y-98204350D01*
X125662000Y-98204350D01*
X125662339Y-98210814D01*
X125676270Y-98343363D01*
X125678957Y-98356003D01*
X125733924Y-98525173D01*
X125739179Y-98536977D01*
X125828118Y-98691023D01*
X125835713Y-98701477D01*
X125954733Y-98833663D01*
X125964341Y-98842314D01*
X126108240Y-98946862D01*
X126119433Y-98953325D01*
X126281931Y-99025674D01*
X126294225Y-99029669D01*
X126298559Y-99030590D01*
X126312400Y-99029534D01*
X126316000Y-99019740D01*
X126316000Y-99016467D01*
X126824000Y-99016467D01*
X126827910Y-99029784D01*
X126838242Y-99031270D01*
X126845775Y-99029669D01*
X126858069Y-99025674D01*
X127020567Y-98953325D01*
X127031760Y-98946862D01*
X127175659Y-98842314D01*
X127185267Y-98833663D01*
X127304287Y-98701477D01*
X127311882Y-98691023D01*
X127400821Y-98536977D01*
X127406076Y-98525173D01*
X127461043Y-98356003D01*
X127463730Y-98343363D01*
X127477661Y-98210814D01*
X127478000Y-98204350D01*
X127478000Y-98181830D01*
X127473596Y-98166831D01*
X127472226Y-98165644D01*
X127464668Y-98164000D01*
X126841830Y-98164000D01*
X126826831Y-98168404D01*
X126825644Y-98169774D01*
X126824000Y-98177332D01*
X126824000Y-99016467D01*
X126316000Y-99016467D01*
X126316000Y-98181830D01*
X126311596Y-98166831D01*
X126310226Y-98165644D01*
X126302668Y-98164000D01*
X125679830Y-98164000D01*
X125664831Y-98168404D01*
X125663644Y-98169774D01*
X125662000Y-98177332D01*
X125662000Y-98204350D01*
X125200000Y-98204350D01*
X125200000Y-97638170D01*
X125662000Y-97638170D01*
X125666404Y-97653169D01*
X125667774Y-97654356D01*
X125675332Y-97656000D01*
X126298170Y-97656000D01*
X126313169Y-97651596D01*
X126314356Y-97650226D01*
X126316000Y-97642668D01*
X126316000Y-97638170D01*
X126824000Y-97638170D01*
X126828404Y-97653169D01*
X126829774Y-97654356D01*
X126837332Y-97656000D01*
X127460170Y-97656000D01*
X127475169Y-97651596D01*
X127476356Y-97650226D01*
X127478000Y-97642668D01*
X127478000Y-97615650D01*
X127477661Y-97609186D01*
X127463730Y-97476637D01*
X127461043Y-97463997D01*
X127406076Y-97294827D01*
X127400821Y-97283023D01*
X127311882Y-97128977D01*
X127304287Y-97118523D01*
X127185267Y-96986337D01*
X127175659Y-96977686D01*
X127031760Y-96873138D01*
X127020567Y-96866675D01*
X126858069Y-96794326D01*
X126845775Y-96790331D01*
X126841441Y-96789410D01*
X126827600Y-96790466D01*
X126824000Y-96800260D01*
X126824000Y-97638170D01*
X126316000Y-97638170D01*
X126316000Y-96803533D01*
X126312090Y-96790216D01*
X126301758Y-96788730D01*
X126294225Y-96790331D01*
X126281931Y-96794326D01*
X126119433Y-96866675D01*
X126108240Y-96873138D01*
X125964341Y-96977686D01*
X125954733Y-96986337D01*
X125835713Y-97118523D01*
X125828118Y-97128977D01*
X125739179Y-97283023D01*
X125733924Y-97294827D01*
X125678957Y-97463997D01*
X125676270Y-97476637D01*
X125662339Y-97609186D01*
X125662000Y-97615650D01*
X125662000Y-97638170D01*
X125200000Y-97638170D01*
X125200000Y-94863106D01*
X125219685Y-94796067D01*
X125272489Y-94750312D01*
X125284679Y-94745857D01*
X125289432Y-94745206D01*
X125427855Y-94685305D01*
X125545070Y-94590386D01*
X125549964Y-94583499D01*
X125549971Y-94583492D01*
X125570039Y-94555253D01*
X125624919Y-94512010D01*
X125694466Y-94505303D01*
X125756599Y-94537260D01*
X125778501Y-94565084D01*
X125828118Y-94651023D01*
X125835713Y-94661477D01*
X125954733Y-94793663D01*
X125964341Y-94802314D01*
X126108240Y-94906862D01*
X126119433Y-94913325D01*
X126281931Y-94985674D01*
X126294225Y-94989669D01*
X126298559Y-94990590D01*
X126312400Y-94989534D01*
X126316000Y-94979740D01*
X126316000Y-94976467D01*
X126824000Y-94976467D01*
X126827910Y-94989784D01*
X126838242Y-94991270D01*
X126845775Y-94989669D01*
X126858069Y-94985674D01*
X127020567Y-94913325D01*
X127031760Y-94906862D01*
X127175659Y-94802314D01*
X127185267Y-94793663D01*
X127304287Y-94661477D01*
X127311882Y-94651023D01*
X127400821Y-94496977D01*
X127406076Y-94485173D01*
X127461043Y-94316003D01*
X127463730Y-94303363D01*
X127477661Y-94170814D01*
X127478000Y-94164350D01*
X127478000Y-93991830D01*
X127473596Y-93976831D01*
X127472226Y-93975644D01*
X127464668Y-93974000D01*
X126841830Y-93974000D01*
X126826831Y-93978404D01*
X126825644Y-93979774D01*
X126824000Y-93987332D01*
X126824000Y-94976467D01*
X126316000Y-94976467D01*
X126316000Y-93991830D01*
X126311596Y-93976831D01*
X126310226Y-93975644D01*
X126302668Y-93974000D01*
X125713619Y-93974000D01*
X125646580Y-93954315D01*
X125603133Y-93906292D01*
X125600131Y-93900399D01*
X125600128Y-93900395D01*
X125596293Y-93892868D01*
X125590575Y-93886649D01*
X125590573Y-93886647D01*
X125499922Y-93788065D01*
X125499920Y-93788063D01*
X125494201Y-93781844D01*
X125412743Y-93731338D01*
X125373198Y-93706819D01*
X125373197Y-93706818D01*
X125366014Y-93702365D01*
X125289405Y-93680108D01*
X125230519Y-93642502D01*
X125201313Y-93579029D01*
X125200000Y-93561032D01*
X125200000Y-93448170D01*
X125662000Y-93448170D01*
X125666404Y-93463169D01*
X125667774Y-93464356D01*
X125675332Y-93466000D01*
X126298170Y-93466000D01*
X126313169Y-93461596D01*
X126314356Y-93460226D01*
X126316000Y-93452668D01*
X126316000Y-93448170D01*
X126824000Y-93448170D01*
X126828404Y-93463169D01*
X126829774Y-93464356D01*
X126837332Y-93466000D01*
X127460170Y-93466000D01*
X127475169Y-93461596D01*
X127476356Y-93460226D01*
X127478000Y-93452668D01*
X127478000Y-93275650D01*
X127477661Y-93269186D01*
X127463730Y-93136637D01*
X127461043Y-93123997D01*
X127406076Y-92954827D01*
X127400821Y-92943023D01*
X127311882Y-92788977D01*
X127304287Y-92778523D01*
X127185267Y-92646337D01*
X127175659Y-92637686D01*
X127031760Y-92533138D01*
X127020567Y-92526675D01*
X126858069Y-92454326D01*
X126845775Y-92450331D01*
X126841441Y-92449410D01*
X126827600Y-92450466D01*
X126824000Y-92460260D01*
X126824000Y-93448170D01*
X126316000Y-93448170D01*
X126316000Y-92463533D01*
X126312090Y-92450216D01*
X126301758Y-92448730D01*
X126294225Y-92450331D01*
X126281931Y-92454326D01*
X126119433Y-92526675D01*
X126108240Y-92533138D01*
X125964341Y-92637686D01*
X125954733Y-92646337D01*
X125835713Y-92778523D01*
X125828118Y-92788977D01*
X125739179Y-92943023D01*
X125733924Y-92954827D01*
X125678957Y-93123997D01*
X125676270Y-93136637D01*
X125662339Y-93269186D01*
X125662000Y-93275650D01*
X125662000Y-93448170D01*
X125200000Y-93448170D01*
X125200000Y-92650000D01*
X119300000Y-92650000D01*
X119300000Y-93556894D01*
X119280315Y-93623933D01*
X119227511Y-93669688D01*
X119215321Y-93674143D01*
X119210568Y-93674794D01*
X119072145Y-93734695D01*
X118954930Y-93829614D01*
X118914399Y-93886647D01*
X118889395Y-93921831D01*
X118834515Y-93965074D01*
X118788319Y-93974000D01*
X118201830Y-93974000D01*
X118186831Y-93978404D01*
X118185644Y-93979774D01*
X118184000Y-93987332D01*
X118184000Y-94976467D01*
X118187910Y-94989784D01*
X118198242Y-94991270D01*
X118205775Y-94989669D01*
X118218069Y-94985674D01*
X118380567Y-94913325D01*
X118391760Y-94906862D01*
X118535659Y-94802314D01*
X118545267Y-94793663D01*
X118664287Y-94661477D01*
X118671882Y-94651023D01*
X118720834Y-94566236D01*
X118771401Y-94518020D01*
X118840008Y-94504797D01*
X118904873Y-94530765D01*
X118919497Y-94544304D01*
X119000075Y-94631932D01*
X119000078Y-94631935D01*
X119005799Y-94638156D01*
X119133986Y-94717635D01*
X119210595Y-94739892D01*
X119269481Y-94777498D01*
X119298687Y-94840971D01*
X119300000Y-94858968D01*
X119300000Y-99625500D01*
X119280315Y-99692539D01*
X119227511Y-99738294D01*
X119176000Y-99749500D01*
X116624500Y-99749500D01*
X116557461Y-99729815D01*
X116511706Y-99677011D01*
X116500500Y-99625500D01*
X116500500Y-98536885D01*
X116502883Y-98512694D01*
X116503025Y-98511979D01*
X116505408Y-98500000D01*
X116503686Y-98491341D01*
X116499883Y-98443013D01*
X116489306Y-98308626D01*
X116489306Y-98308624D01*
X116488924Y-98303774D01*
X116487789Y-98299047D01*
X116487788Y-98299040D01*
X116465055Y-98204350D01*
X117022000Y-98204350D01*
X117022339Y-98210814D01*
X117036270Y-98343363D01*
X117038957Y-98356003D01*
X117093924Y-98525173D01*
X117099179Y-98536977D01*
X117188118Y-98691023D01*
X117195713Y-98701477D01*
X117314733Y-98833663D01*
X117324341Y-98842314D01*
X117468240Y-98946862D01*
X117479433Y-98953325D01*
X117641931Y-99025674D01*
X117654225Y-99029669D01*
X117658559Y-99030590D01*
X117672400Y-99029534D01*
X117676000Y-99019740D01*
X117676000Y-99016467D01*
X118184000Y-99016467D01*
X118187910Y-99029784D01*
X118198242Y-99031270D01*
X118205775Y-99029669D01*
X118218069Y-99025674D01*
X118380567Y-98953325D01*
X118391760Y-98946862D01*
X118535659Y-98842314D01*
X118545267Y-98833663D01*
X118664287Y-98701477D01*
X118671882Y-98691023D01*
X118760821Y-98536977D01*
X118766076Y-98525173D01*
X118821043Y-98356003D01*
X118823730Y-98343363D01*
X118837661Y-98210814D01*
X118838000Y-98204350D01*
X118838000Y-98181830D01*
X118833596Y-98166831D01*
X118832226Y-98165644D01*
X118824668Y-98164000D01*
X118201830Y-98164000D01*
X118186831Y-98168404D01*
X118185644Y-98169774D01*
X118184000Y-98177332D01*
X118184000Y-99016467D01*
X117676000Y-99016467D01*
X117676000Y-98181830D01*
X117671596Y-98166831D01*
X117670226Y-98165644D01*
X117662668Y-98164000D01*
X117039830Y-98164000D01*
X117024831Y-98168404D01*
X117023644Y-98169774D01*
X117022000Y-98177332D01*
X117022000Y-98204350D01*
X116465055Y-98204350D01*
X116444111Y-98117115D01*
X116442974Y-98112379D01*
X116367649Y-97930529D01*
X116264804Y-97762702D01*
X116158443Y-97638170D01*
X117022000Y-97638170D01*
X117026404Y-97653169D01*
X117027774Y-97654356D01*
X117035332Y-97656000D01*
X117658170Y-97656000D01*
X117673169Y-97651596D01*
X117674356Y-97650226D01*
X117676000Y-97642668D01*
X117676000Y-97638170D01*
X118184000Y-97638170D01*
X118188404Y-97653169D01*
X118189774Y-97654356D01*
X118197332Y-97656000D01*
X118820170Y-97656000D01*
X118835169Y-97651596D01*
X118836356Y-97650226D01*
X118838000Y-97642668D01*
X118838000Y-97615650D01*
X118837661Y-97609186D01*
X118823730Y-97476637D01*
X118821043Y-97463997D01*
X118766076Y-97294827D01*
X118760821Y-97283023D01*
X118671882Y-97128977D01*
X118664287Y-97118523D01*
X118545267Y-96986337D01*
X118535659Y-96977686D01*
X118391760Y-96873138D01*
X118380567Y-96866675D01*
X118218069Y-96794326D01*
X118205775Y-96790331D01*
X118201441Y-96789410D01*
X118187600Y-96790466D01*
X118184000Y-96800260D01*
X118184000Y-97638170D01*
X117676000Y-97638170D01*
X117676000Y-96803533D01*
X117672090Y-96790216D01*
X117661758Y-96788730D01*
X117654225Y-96790331D01*
X117641931Y-96794326D01*
X117479433Y-96866675D01*
X117468240Y-96873138D01*
X117324341Y-96977686D01*
X117314733Y-96986337D01*
X117195713Y-97118523D01*
X117188118Y-97128977D01*
X117099179Y-97283023D01*
X117093924Y-97294827D01*
X117038957Y-97463997D01*
X117036270Y-97476637D01*
X117022339Y-97609186D01*
X117022000Y-97615650D01*
X117022000Y-97638170D01*
X116158443Y-97638170D01*
X116136971Y-97613029D01*
X115987298Y-97485196D01*
X115819471Y-97382351D01*
X115637621Y-97307026D01*
X115586809Y-97294827D01*
X115450960Y-97262212D01*
X115450953Y-97262211D01*
X115446226Y-97261076D01*
X115441376Y-97260694D01*
X115441374Y-97260694D01*
X115267047Y-97246974D01*
X115267045Y-97246974D01*
X115258659Y-97246314D01*
X115250000Y-97244592D01*
X115237345Y-97247109D01*
X115237306Y-97247117D01*
X115213115Y-97249500D01*
X107286885Y-97249500D01*
X107262694Y-97247117D01*
X107262655Y-97247109D01*
X107250000Y-97244592D01*
X107241341Y-97246314D01*
X107232955Y-97246974D01*
X107232953Y-97246974D01*
X107058626Y-97260694D01*
X107058624Y-97260694D01*
X107053774Y-97261076D01*
X107049047Y-97262211D01*
X107049040Y-97262212D01*
X106913191Y-97294827D01*
X106862379Y-97307026D01*
X106680529Y-97382351D01*
X106512702Y-97485196D01*
X106363029Y-97613029D01*
X106235196Y-97762702D01*
X106132351Y-97930529D01*
X106057026Y-98112379D01*
X106055889Y-98117115D01*
X106012212Y-98299040D01*
X106012211Y-98299047D01*
X106011076Y-98303774D01*
X106010694Y-98308624D01*
X106010694Y-98308626D01*
X106000118Y-98443013D01*
X105996314Y-98491341D01*
X105994592Y-98500000D01*
X105996975Y-98511979D01*
X105997117Y-98512694D01*
X105999500Y-98536885D01*
X105999500Y-99625500D01*
X105979815Y-99692539D01*
X105927011Y-99738294D01*
X105875500Y-99749500D01*
X101036885Y-99749500D01*
X101012694Y-99747117D01*
X101011980Y-99746975D01*
X101000000Y-99744592D01*
X100988021Y-99746975D01*
X100980452Y-99746975D01*
X100968298Y-99746378D01*
X100865935Y-99736296D01*
X100842095Y-99731554D01*
X100724864Y-99695993D01*
X100702407Y-99686690D01*
X100594369Y-99628942D01*
X100574158Y-99615437D01*
X100479464Y-99537724D01*
X100462276Y-99520536D01*
X100384563Y-99425842D01*
X100371058Y-99405631D01*
X100313310Y-99297593D01*
X100304007Y-99275135D01*
X100268446Y-99157907D01*
X100263704Y-99134065D01*
X100253623Y-99031712D01*
X100253026Y-99019558D01*
X100253026Y-99011975D01*
X100253686Y-99008659D01*
X100255408Y-99000000D01*
X100254342Y-98994640D01*
X100237672Y-98793469D01*
X100223227Y-98736426D01*
X100188057Y-98597542D01*
X100188055Y-98597537D01*
X100186798Y-98592572D01*
X100176798Y-98569773D01*
X100105611Y-98407485D01*
X100103551Y-98402788D01*
X100038862Y-98303774D01*
X99993010Y-98233591D01*
X99993006Y-98233586D01*
X99990202Y-98229294D01*
X99849843Y-98076824D01*
X99777008Y-98020134D01*
X99690349Y-97952684D01*
X99690348Y-97952683D01*
X99686303Y-97949535D01*
X99681801Y-97947099D01*
X99681797Y-97947096D01*
X99602179Y-97904009D01*
X99504042Y-97850900D01*
X99377773Y-97807552D01*
X99312883Y-97785275D01*
X99312879Y-97785274D01*
X99308032Y-97783610D01*
X99302977Y-97782766D01*
X99302975Y-97782766D01*
X99139024Y-97755408D01*
X99103619Y-97749500D01*
X98896381Y-97749500D01*
X98860976Y-97755408D01*
X98697025Y-97782766D01*
X98697023Y-97782766D01*
X98691968Y-97783610D01*
X98687121Y-97785274D01*
X98687117Y-97785275D01*
X98622227Y-97807552D01*
X98495958Y-97850900D01*
X98397821Y-97904009D01*
X98318203Y-97947096D01*
X98318199Y-97947099D01*
X98313697Y-97949535D01*
X98309652Y-97952683D01*
X98309651Y-97952684D01*
X98222992Y-98020134D01*
X98150157Y-98076824D01*
X98009798Y-98229294D01*
X98006994Y-98233586D01*
X98006990Y-98233591D01*
X97961138Y-98303774D01*
X97896449Y-98402788D01*
X97894389Y-98407485D01*
X97823203Y-98569773D01*
X97813202Y-98592572D01*
X97811945Y-98597537D01*
X97811943Y-98597542D01*
X97776773Y-98736426D01*
X97762328Y-98793469D01*
X97758127Y-98844170D01*
X97749082Y-98953325D01*
X97745658Y-98994640D01*
X97744592Y-99000000D01*
X97746315Y-99008659D01*
X97746976Y-99011980D01*
X97746976Y-99019533D01*
X97746379Y-99031695D01*
X97736296Y-99134066D01*
X97731554Y-99157907D01*
X97695993Y-99275135D01*
X97686690Y-99297593D01*
X97628942Y-99405631D01*
X97615437Y-99425842D01*
X97537724Y-99520536D01*
X97520536Y-99537724D01*
X97425842Y-99615437D01*
X97405631Y-99628942D01*
X97297593Y-99686690D01*
X97275136Y-99695993D01*
X97157905Y-99731554D01*
X97134065Y-99736296D01*
X97031702Y-99746378D01*
X97019548Y-99746975D01*
X97011979Y-99746975D01*
X97000000Y-99744592D01*
X96988020Y-99746975D01*
X96987306Y-99747117D01*
X96963115Y-99749500D01*
X88036885Y-99749500D01*
X88012694Y-99747117D01*
X88011980Y-99746975D01*
X88000000Y-99744592D01*
X87988021Y-99746975D01*
X87980452Y-99746975D01*
X87968298Y-99746378D01*
X87865935Y-99736296D01*
X87842095Y-99731554D01*
X87724864Y-99695993D01*
X87702407Y-99686690D01*
X87594369Y-99628942D01*
X87574158Y-99615437D01*
X87479464Y-99537724D01*
X87462276Y-99520536D01*
X87384563Y-99425842D01*
X87371058Y-99405631D01*
X87313310Y-99297593D01*
X87304007Y-99275135D01*
X87268446Y-99157907D01*
X87263704Y-99134065D01*
X87253622Y-99031702D01*
X87253025Y-99019548D01*
X87253025Y-99011979D01*
X87255408Y-99000000D01*
X87252883Y-98987306D01*
X87250500Y-98963115D01*
X87250500Y-97469285D01*
X100544759Y-97469285D01*
X100559938Y-97745087D01*
X100560794Y-97749393D01*
X100560795Y-97749397D01*
X100580654Y-97849236D01*
X100613825Y-98015999D01*
X100705347Y-98276616D01*
X100719455Y-98303774D01*
X100827981Y-98512694D01*
X100832678Y-98521737D01*
X100993275Y-98746471D01*
X101183936Y-98946335D01*
X101187380Y-98949050D01*
X101187381Y-98949051D01*
X101252010Y-99000000D01*
X101400856Y-99117341D01*
X101639707Y-99256077D01*
X101643777Y-99257725D01*
X101643780Y-99257727D01*
X101704283Y-99282233D01*
X101895723Y-99359774D01*
X101899977Y-99360831D01*
X101899978Y-99360831D01*
X102159543Y-99425308D01*
X102159549Y-99425309D01*
X102163796Y-99426364D01*
X102168159Y-99426811D01*
X102396223Y-99450178D01*
X102396231Y-99450178D01*
X102399370Y-99450500D01*
X102570362Y-99450500D01*
X102572530Y-99450346D01*
X102572544Y-99450346D01*
X102701400Y-99441222D01*
X102775530Y-99435973D01*
X103045562Y-99377837D01*
X103292273Y-99286821D01*
X103300595Y-99283751D01*
X103300598Y-99283750D01*
X103304709Y-99282233D01*
X103353185Y-99256077D01*
X103407352Y-99226850D01*
X103547800Y-99151068D01*
X103769984Y-98986960D01*
X103814476Y-98943162D01*
X103963704Y-98796259D01*
X103966829Y-98793183D01*
X104134406Y-98573604D01*
X104269373Y-98332604D01*
X104278650Y-98308626D01*
X104367454Y-98079080D01*
X104369036Y-98074991D01*
X104431407Y-97805905D01*
X104434959Y-97764901D01*
X104454863Y-97535081D01*
X104454863Y-97535079D01*
X104455241Y-97530715D01*
X104440062Y-97254913D01*
X104438986Y-97249500D01*
X104387031Y-96988306D01*
X104386175Y-96984001D01*
X104294653Y-96723384D01*
X104167322Y-96478263D01*
X104006725Y-96253529D01*
X103816064Y-96053665D01*
X103764532Y-96013040D01*
X103602589Y-95885375D01*
X103599144Y-95882659D01*
X103360293Y-95743923D01*
X103356223Y-95742275D01*
X103356220Y-95742273D01*
X103108343Y-95641873D01*
X103108344Y-95641873D01*
X103104277Y-95640226D01*
X103100022Y-95639169D01*
X102840457Y-95574692D01*
X102840451Y-95574691D01*
X102836204Y-95573636D01*
X102823605Y-95572345D01*
X102603777Y-95549822D01*
X102603769Y-95549822D01*
X102600630Y-95549500D01*
X102429638Y-95549500D01*
X102427470Y-95549654D01*
X102427456Y-95549654D01*
X102298600Y-95558778D01*
X102224470Y-95564027D01*
X101954438Y-95622163D01*
X101950317Y-95623683D01*
X101950318Y-95623683D01*
X101699405Y-95716249D01*
X101699402Y-95716250D01*
X101695291Y-95717767D01*
X101691434Y-95719848D01*
X101691432Y-95719849D01*
X101642725Y-95746130D01*
X101452200Y-95848932D01*
X101230016Y-96013040D01*
X101226888Y-96016120D01*
X101226886Y-96016121D01*
X101146141Y-96095608D01*
X101033171Y-96206817D01*
X100865594Y-96426396D01*
X100730627Y-96667396D01*
X100729046Y-96671483D01*
X100729044Y-96671487D01*
X100653532Y-96866675D01*
X100630964Y-96925009D01*
X100568593Y-97194095D01*
X100568216Y-97198450D01*
X100568215Y-97198455D01*
X100545217Y-97463997D01*
X100544759Y-97469285D01*
X87250500Y-97469285D01*
X87250500Y-90457842D01*
X87270185Y-90390803D01*
X87322989Y-90345048D01*
X87392147Y-90335104D01*
X87455703Y-90364129D01*
X87477421Y-90388681D01*
X87503958Y-90428172D01*
X87558693Y-90477977D01*
X87614878Y-90529102D01*
X87614882Y-90529105D01*
X87620410Y-90534135D01*
X87626980Y-90537702D01*
X87626981Y-90537703D01*
X87735109Y-90596412D01*
X87758776Y-90609262D01*
X87861031Y-90636088D01*
X87903841Y-90647319D01*
X87903843Y-90647319D01*
X87911069Y-90649215D01*
X87988127Y-90650425D01*
X88061025Y-90651571D01*
X88061028Y-90651571D01*
X88068495Y-90651688D01*
X88109105Y-90642387D01*
X88178845Y-90646607D01*
X88235234Y-90687864D01*
X88260367Y-90753057D01*
X88259726Y-90779442D01*
X88257052Y-90799757D01*
X88244758Y-90893138D01*
X88245578Y-90900566D01*
X88245578Y-90900568D01*
X88252841Y-90966351D01*
X88262035Y-91049633D01*
X88316143Y-91197490D01*
X88403958Y-91328172D01*
X88458693Y-91377977D01*
X88514878Y-91429102D01*
X88514882Y-91429105D01*
X88520410Y-91434135D01*
X88526980Y-91437702D01*
X88526981Y-91437703D01*
X88548399Y-91449332D01*
X88658776Y-91509262D01*
X88761031Y-91536088D01*
X88803841Y-91547319D01*
X88803843Y-91547319D01*
X88811069Y-91549215D01*
X88888127Y-91550425D01*
X88961025Y-91551571D01*
X88961028Y-91551571D01*
X88968495Y-91551688D01*
X88975776Y-91550020D01*
X88975780Y-91550020D01*
X89114681Y-91518207D01*
X89121968Y-91516538D01*
X89262625Y-91445795D01*
X89268306Y-91440943D01*
X89268309Y-91440941D01*
X89376666Y-91348395D01*
X89376667Y-91348394D01*
X89382348Y-91343542D01*
X89393393Y-91328172D01*
X89454205Y-91243542D01*
X89474224Y-91215683D01*
X89532950Y-91069598D01*
X89534794Y-91056644D01*
X89554562Y-90917744D01*
X89554562Y-90917740D01*
X89555134Y-90913723D01*
X89555278Y-90900000D01*
X89545324Y-90817744D01*
X89537262Y-90751119D01*
X89537261Y-90751115D01*
X89536363Y-90743694D01*
X89509515Y-90672643D01*
X89483354Y-90603408D01*
X89483352Y-90603405D01*
X89480710Y-90596412D01*
X89462375Y-90569734D01*
X89440625Y-90503337D01*
X89458226Y-90435721D01*
X89509589Y-90388354D01*
X89564566Y-90375500D01*
X96500500Y-90375500D01*
X96567539Y-90395185D01*
X96613294Y-90447989D01*
X96624500Y-90499500D01*
X96624500Y-92960688D01*
X96622973Y-92980085D01*
X96619819Y-93000000D01*
X96620367Y-93003463D01*
X96637510Y-93286858D01*
X96689312Y-93569533D01*
X96774809Y-93843904D01*
X96892755Y-94105968D01*
X97041428Y-94351904D01*
X97218663Y-94578127D01*
X97421873Y-94781337D01*
X97648096Y-94958572D01*
X97894032Y-95107245D01*
X98156096Y-95225191D01*
X98430467Y-95310688D01*
X98544401Y-95331567D01*
X98709457Y-95361815D01*
X98709462Y-95361816D01*
X98713142Y-95362490D01*
X98953657Y-95377039D01*
X98980403Y-95378657D01*
X98996537Y-95379633D01*
X99000000Y-95380181D01*
X99003463Y-95379633D01*
X99019598Y-95378657D01*
X99024012Y-95378390D01*
X99286858Y-95362490D01*
X99290538Y-95361816D01*
X99290543Y-95361815D01*
X99455599Y-95331567D01*
X99569533Y-95310688D01*
X99843904Y-95225191D01*
X100105968Y-95107245D01*
X100351904Y-94958572D01*
X100578127Y-94781337D01*
X100781337Y-94578127D01*
X100958572Y-94351904D01*
X101071952Y-94164350D01*
X117022000Y-94164350D01*
X117022339Y-94170814D01*
X117036270Y-94303363D01*
X117038957Y-94316003D01*
X117093924Y-94485173D01*
X117099179Y-94496977D01*
X117188118Y-94651023D01*
X117195713Y-94661477D01*
X117314733Y-94793663D01*
X117324341Y-94802314D01*
X117468240Y-94906862D01*
X117479433Y-94913325D01*
X117641931Y-94985674D01*
X117654225Y-94989669D01*
X117658559Y-94990590D01*
X117672400Y-94989534D01*
X117676000Y-94979740D01*
X117676000Y-93991830D01*
X117671596Y-93976831D01*
X117670226Y-93975644D01*
X117662668Y-93974000D01*
X117039830Y-93974000D01*
X117024831Y-93978404D01*
X117023644Y-93979774D01*
X117022000Y-93987332D01*
X117022000Y-94164350D01*
X101071952Y-94164350D01*
X101107245Y-94105968D01*
X101225191Y-93843904D01*
X101310688Y-93569533D01*
X101332929Y-93448170D01*
X117022000Y-93448170D01*
X117026404Y-93463169D01*
X117027774Y-93464356D01*
X117035332Y-93466000D01*
X117658170Y-93466000D01*
X117673169Y-93461596D01*
X117674356Y-93460226D01*
X117676000Y-93452668D01*
X117676000Y-93448170D01*
X118184000Y-93448170D01*
X118188404Y-93463169D01*
X118189774Y-93464356D01*
X118197332Y-93466000D01*
X118820170Y-93466000D01*
X118835169Y-93461596D01*
X118836356Y-93460226D01*
X118838000Y-93452668D01*
X118838000Y-93275650D01*
X118837661Y-93269186D01*
X118823730Y-93136637D01*
X118821043Y-93123997D01*
X118766076Y-92954827D01*
X118760821Y-92943023D01*
X118671882Y-92788977D01*
X118664287Y-92778523D01*
X118545267Y-92646337D01*
X118535659Y-92637686D01*
X118391760Y-92533138D01*
X118380567Y-92526675D01*
X118218069Y-92454326D01*
X118205775Y-92450331D01*
X118201441Y-92449410D01*
X118187600Y-92450466D01*
X118184000Y-92460260D01*
X118184000Y-93448170D01*
X117676000Y-93448170D01*
X117676000Y-92463533D01*
X117672090Y-92450216D01*
X117661758Y-92448730D01*
X117654225Y-92450331D01*
X117641931Y-92454326D01*
X117479433Y-92526675D01*
X117468240Y-92533138D01*
X117324341Y-92637686D01*
X117314733Y-92646337D01*
X117195713Y-92778523D01*
X117188118Y-92788977D01*
X117099179Y-92943023D01*
X117093924Y-92954827D01*
X117038957Y-93123997D01*
X117036270Y-93136637D01*
X117022339Y-93269186D01*
X117022000Y-93275650D01*
X117022000Y-93448170D01*
X101332929Y-93448170D01*
X101362490Y-93286858D01*
X101379633Y-93003463D01*
X101380181Y-93000000D01*
X101378655Y-92990362D01*
X101378654Y-92980611D01*
X101378794Y-92980611D01*
X101378205Y-92965629D01*
X101391656Y-92794710D01*
X101394699Y-92775497D01*
X101440495Y-92584745D01*
X101446508Y-92566240D01*
X101521576Y-92385009D01*
X101530410Y-92367672D01*
X101632910Y-92200407D01*
X101644347Y-92184666D01*
X101771744Y-92035503D01*
X101785503Y-92021744D01*
X101934666Y-91894347D01*
X101950407Y-91882910D01*
X102117672Y-91780410D01*
X102135009Y-91771576D01*
X102158459Y-91761863D01*
X102190691Y-91748512D01*
X102316240Y-91696508D01*
X102334745Y-91690495D01*
X102368107Y-91682485D01*
X102525497Y-91644699D01*
X102544706Y-91641657D01*
X102715630Y-91628205D01*
X102730603Y-91628794D01*
X102730603Y-91628654D01*
X102740358Y-91628654D01*
X102750000Y-91630181D01*
X102759641Y-91628654D01*
X102759642Y-91628654D01*
X102769915Y-91627027D01*
X102789312Y-91625500D01*
X104710688Y-91625500D01*
X104730085Y-91627027D01*
X104737260Y-91628163D01*
X104750000Y-91630181D01*
X104751293Y-91629976D01*
X104761546Y-91629304D01*
X105023987Y-91612103D01*
X105023988Y-91612103D01*
X105028029Y-91611838D01*
X105227479Y-91572165D01*
X107392001Y-91572165D01*
X107392331Y-91578541D01*
X107402268Y-91674318D01*
X107405114Y-91687494D01*
X107456627Y-91841900D01*
X107462698Y-91854859D01*
X107548126Y-91992909D01*
X107557016Y-92004125D01*
X107671906Y-92118816D01*
X107683145Y-92127692D01*
X107821348Y-92212881D01*
X107834307Y-92218924D01*
X107988814Y-92270172D01*
X108001980Y-92272994D01*
X108096490Y-92282678D01*
X108102798Y-92283000D01*
X108478170Y-92283000D01*
X108493169Y-92278596D01*
X108494356Y-92277226D01*
X108496000Y-92269668D01*
X108496000Y-92265169D01*
X109004000Y-92265169D01*
X109008404Y-92280168D01*
X109009774Y-92281355D01*
X109017332Y-92282999D01*
X109397165Y-92282999D01*
X109403541Y-92282669D01*
X109499318Y-92272732D01*
X109512494Y-92269886D01*
X109666900Y-92218373D01*
X109679859Y-92212302D01*
X109817909Y-92126874D01*
X109829125Y-92117984D01*
X109943816Y-92003094D01*
X109952692Y-91991855D01*
X110037881Y-91853652D01*
X110043924Y-91840693D01*
X110095172Y-91686186D01*
X110097994Y-91673021D01*
X110105961Y-91595266D01*
X110132376Y-91530582D01*
X110189568Y-91490448D01*
X110259380Y-91487605D01*
X110319647Y-91522957D01*
X110326828Y-91531307D01*
X110449424Y-91687379D01*
X110453878Y-91691244D01*
X110453879Y-91691245D01*
X110539197Y-91765280D01*
X110608029Y-91825010D01*
X110613134Y-91827963D01*
X110613135Y-91827964D01*
X110713113Y-91885802D01*
X110789799Y-91930166D01*
X110988174Y-91999053D01*
X111195996Y-92029186D01*
X111405767Y-92019477D01*
X111411506Y-92018094D01*
X111604185Y-91971658D01*
X111604188Y-91971657D01*
X111609918Y-91970276D01*
X111615286Y-91967836D01*
X111615290Y-91967834D01*
X111795710Y-91885802D01*
X111801081Y-91883360D01*
X111972360Y-91761863D01*
X112034924Y-91696508D01*
X112113491Y-91614436D01*
X112113495Y-91614432D01*
X112117575Y-91610169D01*
X112231485Y-91433754D01*
X112237751Y-91418207D01*
X112307773Y-91244461D01*
X112307774Y-91244456D01*
X112309981Y-91238981D01*
X112350230Y-91032878D01*
X112350500Y-91027357D01*
X112350500Y-90722531D01*
X112335561Y-90565954D01*
X112326227Y-90534135D01*
X112296510Y-90432841D01*
X112276447Y-90364451D01*
X112241960Y-90297490D01*
X112182996Y-90183004D01*
X112182993Y-90182999D01*
X112180295Y-90177761D01*
X112050576Y-90012621D01*
X112036032Y-90000000D01*
X111896424Y-89878854D01*
X111896423Y-89878853D01*
X111891971Y-89874990D01*
X111864862Y-89859307D01*
X111715311Y-89772790D01*
X111715309Y-89772789D01*
X111710201Y-89769834D01*
X111511826Y-89700947D01*
X111304004Y-89670814D01*
X111094233Y-89680523D01*
X111088495Y-89681906D01*
X111088494Y-89681906D01*
X110895815Y-89728342D01*
X110895812Y-89728343D01*
X110890082Y-89729724D01*
X110884714Y-89732164D01*
X110884710Y-89732166D01*
X110783840Y-89778029D01*
X110698919Y-89816640D01*
X110527640Y-89938137D01*
X110523556Y-89942404D01*
X110523554Y-89942405D01*
X110386509Y-90085564D01*
X110386505Y-90085568D01*
X110382425Y-90089831D01*
X110354499Y-90133081D01*
X110334024Y-90164791D01*
X110281122Y-90210432D01*
X110211942Y-90220228D01*
X110148449Y-90191067D01*
X110110800Y-90132208D01*
X110106514Y-90110325D01*
X110097732Y-90025682D01*
X110094886Y-90012506D01*
X110043373Y-89858100D01*
X110037302Y-89845141D01*
X109951874Y-89707091D01*
X109942984Y-89695875D01*
X109828094Y-89581184D01*
X109816855Y-89572308D01*
X109678652Y-89487119D01*
X109665693Y-89481076D01*
X109511186Y-89429828D01*
X109498020Y-89427006D01*
X109403510Y-89417322D01*
X109397202Y-89417000D01*
X109021830Y-89417000D01*
X109006831Y-89421404D01*
X109005644Y-89422774D01*
X109004000Y-89430332D01*
X109004000Y-92265169D01*
X108496000Y-92265169D01*
X108496000Y-91121830D01*
X108491596Y-91106831D01*
X108490226Y-91105644D01*
X108482668Y-91104000D01*
X107409831Y-91104000D01*
X107394832Y-91108404D01*
X107393645Y-91109774D01*
X107392001Y-91117332D01*
X107392001Y-91572165D01*
X105227479Y-91572165D01*
X105301300Y-91557481D01*
X105565139Y-91467920D01*
X105815031Y-91344687D01*
X106026037Y-91203697D01*
X106043317Y-91192151D01*
X106043319Y-91192149D01*
X106046699Y-91189891D01*
X106256181Y-91006181D01*
X106439891Y-90796699D01*
X106442271Y-90793138D01*
X106536784Y-90651688D01*
X106585908Y-90578170D01*
X107392000Y-90578170D01*
X107396404Y-90593169D01*
X107397774Y-90594356D01*
X107405332Y-90596000D01*
X108478170Y-90596000D01*
X108493169Y-90591596D01*
X108494356Y-90590226D01*
X108496000Y-90582668D01*
X108496000Y-89434831D01*
X108491596Y-89419832D01*
X108490226Y-89418645D01*
X108482668Y-89417001D01*
X108102835Y-89417001D01*
X108096459Y-89417331D01*
X108000682Y-89427268D01*
X107987506Y-89430114D01*
X107833100Y-89481627D01*
X107820141Y-89487698D01*
X107682091Y-89573126D01*
X107670875Y-89582016D01*
X107556184Y-89696906D01*
X107547308Y-89708145D01*
X107462119Y-89846348D01*
X107456076Y-89859307D01*
X107404828Y-90013814D01*
X107402006Y-90026980D01*
X107392322Y-90121490D01*
X107392000Y-90127798D01*
X107392000Y-90578170D01*
X106585908Y-90578170D01*
X106594687Y-90565031D01*
X106717920Y-90315139D01*
X106723678Y-90298178D01*
X106750428Y-90219372D01*
X106807481Y-90051300D01*
X106861838Y-89778029D01*
X106865095Y-89728342D01*
X106879240Y-89512526D01*
X106879240Y-89512525D01*
X106879976Y-89501293D01*
X106880181Y-89500000D01*
X106877027Y-89480085D01*
X106875500Y-89460688D01*
X106875500Y-85039312D01*
X106877027Y-85019915D01*
X106878654Y-85009641D01*
X106880181Y-85000000D01*
X106878655Y-84990362D01*
X106878655Y-84980601D01*
X106879286Y-84980601D01*
X106878855Y-84965941D01*
X106891106Y-84841549D01*
X106895848Y-84817708D01*
X106938522Y-84677030D01*
X106947825Y-84654571D01*
X107017124Y-84524923D01*
X107030628Y-84504713D01*
X107047439Y-84484229D01*
X107123892Y-84391070D01*
X107141070Y-84373892D01*
X107254713Y-84280628D01*
X107274923Y-84267124D01*
X107404571Y-84197825D01*
X107427030Y-84188522D01*
X107567708Y-84145848D01*
X107591549Y-84141106D01*
X107715941Y-84128855D01*
X107730601Y-84129286D01*
X107730601Y-84128655D01*
X107740362Y-84128655D01*
X107750000Y-84130181D01*
X107761140Y-84128417D01*
X107769915Y-84127027D01*
X107789312Y-84125500D01*
X125210688Y-84125500D01*
X125230085Y-84127027D01*
X125240358Y-84128654D01*
X125240359Y-84128654D01*
X125250000Y-84130181D01*
X125253699Y-84129595D01*
X125261890Y-84129166D01*
X125261891Y-84129166D01*
X125573896Y-84112815D01*
X125573903Y-84112814D01*
X125577152Y-84112644D01*
X125580366Y-84112135D01*
X125580375Y-84112134D01*
X125897502Y-84061906D01*
X125897508Y-84061905D01*
X125900720Y-84061396D01*
X126217158Y-83976606D01*
X126397460Y-83907395D01*
X126519976Y-83860366D01*
X126519979Y-83860365D01*
X126523000Y-83859205D01*
X126814895Y-83710477D01*
X127089644Y-83532052D01*
X127275159Y-83381826D01*
X127341708Y-83327936D01*
X127341711Y-83327933D01*
X127344238Y-83325887D01*
X127575887Y-83094238D01*
X127600998Y-83063229D01*
X127705973Y-82933594D01*
X127782052Y-82839644D01*
X127789476Y-82828213D01*
X127958706Y-82567622D01*
X127960477Y-82564895D01*
X128109205Y-82273000D01*
X128150053Y-82166588D01*
X128209588Y-82011492D01*
X128226606Y-81967158D01*
X128311396Y-81650720D01*
X128314891Y-81628653D01*
X128362134Y-81330375D01*
X128362135Y-81330366D01*
X128362644Y-81327152D01*
X128362829Y-81323633D01*
X128379127Y-81012630D01*
X128379595Y-81003699D01*
X128380181Y-81000000D01*
X128377027Y-80980085D01*
X128375500Y-80960688D01*
X128375500Y-78039312D01*
X128377027Y-78019915D01*
X128378640Y-78009729D01*
X128380181Y-78000000D01*
X128380171Y-77999938D01*
X128379030Y-77975246D01*
X128373618Y-77858192D01*
X128361489Y-77595849D01*
X128361050Y-77592705D01*
X128305989Y-77197982D01*
X128305988Y-77197977D01*
X128305593Y-77195145D01*
X128212964Y-76801308D01*
X128134690Y-76567771D01*
X128085305Y-76420425D01*
X128085303Y-76420419D01*
X128084391Y-76417699D01*
X128008995Y-76246944D01*
X127922132Y-76050216D01*
X127922126Y-76050205D01*
X127920971Y-76047588D01*
X127912696Y-76032730D01*
X127725492Y-75696637D01*
X127724099Y-75694136D01*
X127706781Y-75668854D01*
X127497070Y-75362714D01*
X127497069Y-75362713D01*
X127495454Y-75360355D01*
X127236988Y-75049096D01*
X127040745Y-74852853D01*
X127007260Y-74791530D01*
X127012244Y-74721838D01*
X127054116Y-74665905D01*
X127100742Y-74644302D01*
X127151016Y-74632788D01*
X127214682Y-74618207D01*
X127214684Y-74618206D01*
X127221968Y-74616538D01*
X127362625Y-74545795D01*
X127368306Y-74540943D01*
X127368309Y-74540941D01*
X127476666Y-74448395D01*
X127476667Y-74448394D01*
X127482348Y-74443542D01*
X127494133Y-74427141D01*
X127549237Y-74384187D01*
X127594831Y-74375500D01*
X128760410Y-74375500D01*
X128779940Y-74377048D01*
X128799583Y-74380181D01*
X128809222Y-74378665D01*
X128816225Y-74378673D01*
X128834248Y-74377886D01*
X129011106Y-74390061D01*
X129027705Y-74392339D01*
X129227102Y-74433593D01*
X129243235Y-74438086D01*
X129435260Y-74505859D01*
X129450635Y-74512485D01*
X129631755Y-74605529D01*
X129646108Y-74614176D01*
X129813028Y-74730801D01*
X129826087Y-74741307D01*
X129975739Y-74879363D01*
X129987263Y-74891535D01*
X130116936Y-75048521D01*
X130126712Y-75062135D01*
X130234029Y-75235174D01*
X130241876Y-75249974D01*
X130311230Y-75405339D01*
X130312953Y-75409198D01*
X130322305Y-75478439D01*
X130292737Y-75541744D01*
X130281240Y-75553182D01*
X130263534Y-75568628D01*
X130173001Y-75697443D01*
X130115809Y-75844134D01*
X130095258Y-76000233D01*
X130096078Y-76007661D01*
X130096078Y-76007663D01*
X130101379Y-76055675D01*
X130112535Y-76156728D01*
X130115101Y-76163740D01*
X130115102Y-76163744D01*
X130137207Y-76224147D01*
X130166643Y-76304585D01*
X130254458Y-76435267D01*
X130289826Y-76467449D01*
X130365379Y-76536198D01*
X130365383Y-76536201D01*
X130370910Y-76541230D01*
X130373520Y-76542647D01*
X130415573Y-76596016D01*
X130424500Y-76642213D01*
X130424500Y-83160688D01*
X130422973Y-83180085D01*
X130419819Y-83200000D01*
X130421346Y-83209642D01*
X130421346Y-83219397D01*
X130421206Y-83219397D01*
X130421795Y-83234370D01*
X130413593Y-83338591D01*
X130410190Y-83381826D01*
X130407147Y-83401040D01*
X130379230Y-83517324D01*
X130366847Y-83568902D01*
X130360834Y-83587408D01*
X130314865Y-83698387D01*
X130294771Y-83746897D01*
X130285939Y-83764231D01*
X130209655Y-83888715D01*
X130195741Y-83911421D01*
X130184304Y-83927162D01*
X130072190Y-84058431D01*
X130058431Y-84072190D01*
X129927162Y-84184304D01*
X129911424Y-84195739D01*
X129764231Y-84285939D01*
X129746899Y-84294770D01*
X129597581Y-84356620D01*
X129587408Y-84360834D01*
X129568902Y-84366847D01*
X129561263Y-84368681D01*
X129401040Y-84407147D01*
X129381831Y-84410189D01*
X129234370Y-84421795D01*
X129219397Y-84421206D01*
X129219397Y-84421346D01*
X129209642Y-84421346D01*
X129200000Y-84419819D01*
X129190359Y-84421346D01*
X129190358Y-84421346D01*
X129180085Y-84422973D01*
X129160688Y-84424500D01*
X127396525Y-84424500D01*
X127329486Y-84404815D01*
X127301522Y-84377705D01*
X127300707Y-84378424D01*
X127295768Y-84372822D01*
X127291531Y-84366657D01*
X127210848Y-84294771D01*
X127179559Y-84266893D01*
X127179558Y-84266892D01*
X127173976Y-84261919D01*
X127034831Y-84188245D01*
X126882128Y-84149889D01*
X126800329Y-84149461D01*
X126732158Y-84149104D01*
X126732157Y-84149104D01*
X126724684Y-84149065D01*
X126717421Y-84150809D01*
X126717418Y-84150809D01*
X126654140Y-84166001D01*
X126571588Y-84185820D01*
X126431679Y-84258032D01*
X126426048Y-84262945D01*
X126426047Y-84262945D01*
X126399691Y-84285937D01*
X126313034Y-84361533D01*
X126222501Y-84490348D01*
X126165309Y-84637039D01*
X126144758Y-84793138D01*
X126145578Y-84800566D01*
X126145578Y-84800568D01*
X126156784Y-84902073D01*
X126162035Y-84949633D01*
X126164601Y-84956645D01*
X126164602Y-84956649D01*
X126191094Y-85029040D01*
X126216143Y-85097490D01*
X126303958Y-85228172D01*
X126351035Y-85271009D01*
X126414878Y-85329102D01*
X126414882Y-85329105D01*
X126420410Y-85334135D01*
X126426980Y-85337702D01*
X126426981Y-85337703D01*
X126552208Y-85405696D01*
X126558776Y-85409262D01*
X126661031Y-85436088D01*
X126703841Y-85447319D01*
X126703843Y-85447319D01*
X126711069Y-85449215D01*
X126788127Y-85450425D01*
X126861025Y-85451571D01*
X126861028Y-85451571D01*
X126868495Y-85451688D01*
X126875776Y-85450020D01*
X126875780Y-85450020D01*
X127014681Y-85418207D01*
X127021968Y-85416538D01*
X127162625Y-85345795D01*
X127168306Y-85340943D01*
X127168309Y-85340941D01*
X127276666Y-85248395D01*
X127276667Y-85248394D01*
X127282348Y-85243542D01*
X127294133Y-85227141D01*
X127349237Y-85184187D01*
X127394831Y-85175500D01*
X129160688Y-85175500D01*
X129180085Y-85177027D01*
X129185223Y-85177841D01*
X129200000Y-85180181D01*
X129204761Y-85179427D01*
X129370925Y-85168536D01*
X129454366Y-85163067D01*
X129454367Y-85163067D01*
X129458408Y-85162802D01*
X129563064Y-85141985D01*
X129676375Y-85119446D01*
X129745967Y-85125673D01*
X129801144Y-85168536D01*
X129824388Y-85234426D01*
X129808320Y-85302423D01*
X129772324Y-85342190D01*
X129708401Y-85387546D01*
X129696636Y-85394938D01*
X129657554Y-85416538D01*
X129431591Y-85541424D01*
X129419072Y-85547452D01*
X129242470Y-85620602D01*
X129139312Y-85663331D01*
X129126189Y-85667924D01*
X128857192Y-85745421D01*
X128835199Y-85751757D01*
X128821642Y-85754851D01*
X128523110Y-85805573D01*
X128509292Y-85807130D01*
X128235065Y-85822531D01*
X128211622Y-85821346D01*
X128209641Y-85821346D01*
X128200000Y-85819819D01*
X128190359Y-85821346D01*
X128190358Y-85821346D01*
X128180085Y-85822973D01*
X128160688Y-85824500D01*
X121339312Y-85824500D01*
X121319915Y-85822973D01*
X121314777Y-85822159D01*
X121300000Y-85819819D01*
X121295383Y-85820550D01*
X121060942Y-85837318D01*
X120955686Y-85860215D01*
X120831085Y-85887320D01*
X120831082Y-85887321D01*
X120826751Y-85888263D01*
X120822601Y-85889811D01*
X120822597Y-85889812D01*
X120659743Y-85950553D01*
X120602194Y-85972018D01*
X120598312Y-85974138D01*
X120598307Y-85974140D01*
X120536981Y-86007627D01*
X120391842Y-86086879D01*
X120388297Y-86089533D01*
X120388292Y-86089536D01*
X120279000Y-86171352D01*
X120199978Y-86230507D01*
X120030507Y-86399978D01*
X119980310Y-86467033D01*
X119889536Y-86588292D01*
X119889533Y-86588297D01*
X119886879Y-86591842D01*
X119862865Y-86635820D01*
X119777071Y-86792941D01*
X119772018Y-86802194D01*
X119770471Y-86806342D01*
X119750235Y-86860597D01*
X119708364Y-86916531D01*
X119690925Y-86927453D01*
X119659976Y-86943427D01*
X119631679Y-86958032D01*
X119513034Y-87061533D01*
X119422501Y-87190348D01*
X119419785Y-87197313D01*
X119419785Y-87197314D01*
X119399244Y-87250000D01*
X119365309Y-87337039D01*
X119344758Y-87493138D01*
X119345578Y-87500566D01*
X119345578Y-87500568D01*
X119355108Y-87586886D01*
X119362035Y-87649633D01*
X119364601Y-87656645D01*
X119364602Y-87656649D01*
X119378103Y-87693542D01*
X119416143Y-87797490D01*
X119503958Y-87928172D01*
X119543426Y-87964085D01*
X119614878Y-88029102D01*
X119614882Y-88029105D01*
X119620410Y-88034135D01*
X119626980Y-88037702D01*
X119626981Y-88037703D01*
X119668596Y-88060298D01*
X119758776Y-88109262D01*
X119857822Y-88135246D01*
X119903841Y-88147319D01*
X119903843Y-88147319D01*
X119911069Y-88149215D01*
X119988127Y-88150425D01*
X120061025Y-88151571D01*
X120061028Y-88151571D01*
X120068495Y-88151688D01*
X120075776Y-88150020D01*
X120075780Y-88150020D01*
X120214681Y-88118207D01*
X120221968Y-88116538D01*
X120362625Y-88045795D01*
X120368306Y-88040943D01*
X120368309Y-88040941D01*
X120476666Y-87948395D01*
X120476667Y-87948394D01*
X120482348Y-87943542D01*
X120493393Y-87928172D01*
X120553550Y-87844454D01*
X120574224Y-87815683D01*
X120632950Y-87669598D01*
X120634793Y-87656649D01*
X120654562Y-87517744D01*
X120654562Y-87517740D01*
X120655134Y-87513723D01*
X120655278Y-87500000D01*
X120650670Y-87461919D01*
X120637262Y-87351119D01*
X120637261Y-87351115D01*
X120636363Y-87343694D01*
X120621921Y-87305474D01*
X120583354Y-87203408D01*
X120583352Y-87203405D01*
X120580710Y-87196412D01*
X120534107Y-87128605D01*
X120512357Y-87062207D01*
X120529958Y-86994590D01*
X120534723Y-86987247D01*
X120585570Y-86914629D01*
X120599464Y-86898071D01*
X120698071Y-86799464D01*
X120714629Y-86785570D01*
X120828863Y-86705583D01*
X120847581Y-86694776D01*
X120973968Y-86635840D01*
X120994279Y-86628447D01*
X121089273Y-86602993D01*
X121128988Y-86592351D01*
X121150271Y-86588599D01*
X121207462Y-86583596D01*
X121265795Y-86578493D01*
X121280602Y-86579010D01*
X121280602Y-86578655D01*
X121290362Y-86578655D01*
X121300000Y-86580181D01*
X121311140Y-86578417D01*
X121319915Y-86577027D01*
X121339312Y-86575500D01*
X123502830Y-86575500D01*
X123569869Y-86595185D01*
X123615624Y-86647989D01*
X123625568Y-86717147D01*
X123596543Y-86780703D01*
X123584345Y-86792941D01*
X123568670Y-86806615D01*
X123568664Y-86806621D01*
X123563034Y-86811533D01*
X123472501Y-86940348D01*
X123469785Y-86947313D01*
X123469785Y-86947314D01*
X123454216Y-86987247D01*
X123415309Y-87087039D01*
X123394758Y-87243138D01*
X123395578Y-87250566D01*
X123395578Y-87250568D01*
X123399284Y-87284135D01*
X123412035Y-87399633D01*
X123414601Y-87406645D01*
X123414602Y-87406649D01*
X123432152Y-87454605D01*
X123466143Y-87547490D01*
X123478368Y-87565683D01*
X123534781Y-87649633D01*
X123553958Y-87678172D01*
X123633955Y-87750963D01*
X123670290Y-87810640D01*
X123674500Y-87842676D01*
X123674500Y-87910688D01*
X123672973Y-87930085D01*
X123669819Y-87950000D01*
X123671345Y-87959638D01*
X123671345Y-87969398D01*
X123670990Y-87969398D01*
X123671507Y-87984205D01*
X123665622Y-88051482D01*
X123661401Y-88099727D01*
X123657649Y-88121012D01*
X123656485Y-88125355D01*
X123621553Y-88255721D01*
X123614160Y-88276032D01*
X123555224Y-88402419D01*
X123544417Y-88421137D01*
X123464430Y-88535371D01*
X123450536Y-88551929D01*
X123351929Y-88650536D01*
X123335371Y-88664430D01*
X123221137Y-88744417D01*
X123202419Y-88755224D01*
X123076032Y-88814160D01*
X123055721Y-88821553D01*
X122988368Y-88839601D01*
X122921012Y-88857649D01*
X122899729Y-88861401D01*
X122842538Y-88866404D01*
X122784205Y-88871507D01*
X122769398Y-88870990D01*
X122769398Y-88871345D01*
X122759638Y-88871345D01*
X122750000Y-88869819D01*
X122740359Y-88871346D01*
X122730085Y-88872973D01*
X122710688Y-88874500D01*
X115389312Y-88874500D01*
X115369915Y-88872973D01*
X115364777Y-88872159D01*
X115350000Y-88869819D01*
X115345239Y-88870573D01*
X115197406Y-88880263D01*
X115095634Y-88886933D01*
X115095633Y-88886933D01*
X115091592Y-88887198D01*
X114837606Y-88937719D01*
X114833760Y-88939024D01*
X114833762Y-88939024D01*
X114596233Y-89019654D01*
X114596227Y-89019657D01*
X114592387Y-89020960D01*
X114360131Y-89135496D01*
X114356762Y-89137747D01*
X114356757Y-89137750D01*
X114148188Y-89277110D01*
X114148182Y-89277114D01*
X114144811Y-89279367D01*
X113950113Y-89450113D01*
X113947440Y-89453161D01*
X113789344Y-89633434D01*
X113730342Y-89670858D01*
X113701849Y-89675542D01*
X113625524Y-89679075D01*
X113594233Y-89680523D01*
X113588495Y-89681906D01*
X113588494Y-89681906D01*
X113395815Y-89728342D01*
X113395812Y-89728343D01*
X113390082Y-89729724D01*
X113384714Y-89732164D01*
X113384710Y-89732166D01*
X113283840Y-89778029D01*
X113198919Y-89816640D01*
X113027640Y-89938137D01*
X113023556Y-89942404D01*
X113023554Y-89942405D01*
X112886509Y-90085564D01*
X112886505Y-90085568D01*
X112882425Y-90089831D01*
X112768515Y-90266246D01*
X112766308Y-90271721D01*
X112766307Y-90271724D01*
X112692227Y-90455539D01*
X112692226Y-90455544D01*
X112690019Y-90461019D01*
X112649770Y-90667122D01*
X112649500Y-90672643D01*
X112649500Y-90977469D01*
X112664439Y-91134046D01*
X112666099Y-91139706D01*
X112666100Y-91139709D01*
X112688388Y-91215683D01*
X112723553Y-91335549D01*
X112726256Y-91340797D01*
X112817004Y-91516996D01*
X112817007Y-91517001D01*
X112819705Y-91522239D01*
X112949424Y-91687379D01*
X112953878Y-91691244D01*
X112953879Y-91691245D01*
X113039197Y-91765280D01*
X113108029Y-91825010D01*
X113113134Y-91827963D01*
X113113135Y-91827964D01*
X113213113Y-91885802D01*
X113289799Y-91930166D01*
X113488174Y-91999053D01*
X113695996Y-92029186D01*
X113905767Y-92019477D01*
X113911506Y-92018094D01*
X114104185Y-91971658D01*
X114104188Y-91971657D01*
X114109918Y-91970276D01*
X114115286Y-91967836D01*
X114115290Y-91967834D01*
X114295710Y-91885802D01*
X114301081Y-91883360D01*
X114472360Y-91761863D01*
X114534924Y-91696508D01*
X114613491Y-91614436D01*
X114613495Y-91614432D01*
X114617575Y-91610169D01*
X114642114Y-91572165D01*
X130392001Y-91572165D01*
X130392331Y-91578541D01*
X130402268Y-91674318D01*
X130405114Y-91687494D01*
X130456627Y-91841900D01*
X130462698Y-91854859D01*
X130548126Y-91992909D01*
X130557016Y-92004125D01*
X130671906Y-92118816D01*
X130683145Y-92127692D01*
X130821348Y-92212881D01*
X130834307Y-92218924D01*
X130988814Y-92270172D01*
X131001980Y-92272994D01*
X131096490Y-92282678D01*
X131102798Y-92283000D01*
X131478170Y-92283000D01*
X131493169Y-92278596D01*
X131494356Y-92277226D01*
X131496000Y-92269668D01*
X131496000Y-92265169D01*
X132004000Y-92265169D01*
X132008404Y-92280168D01*
X132009774Y-92281355D01*
X132017332Y-92282999D01*
X132397165Y-92282999D01*
X132403541Y-92282669D01*
X132499318Y-92272732D01*
X132512494Y-92269886D01*
X132666900Y-92218373D01*
X132679859Y-92212302D01*
X132817909Y-92126874D01*
X132829125Y-92117984D01*
X132943816Y-92003094D01*
X132952692Y-91991855D01*
X133037881Y-91853652D01*
X133043924Y-91840693D01*
X133095172Y-91686186D01*
X133097994Y-91673021D01*
X133105961Y-91595266D01*
X133132376Y-91530582D01*
X133189568Y-91490448D01*
X133259380Y-91487605D01*
X133319647Y-91522957D01*
X133326828Y-91531307D01*
X133449424Y-91687379D01*
X133453878Y-91691244D01*
X133453879Y-91691245D01*
X133539197Y-91765280D01*
X133608029Y-91825010D01*
X133613134Y-91827963D01*
X133613135Y-91827964D01*
X133713113Y-91885802D01*
X133789799Y-91930166D01*
X133988174Y-91999053D01*
X134195996Y-92029186D01*
X134405767Y-92019477D01*
X134411506Y-92018094D01*
X134604185Y-91971658D01*
X134604188Y-91971657D01*
X134609918Y-91970276D01*
X134615286Y-91967836D01*
X134615290Y-91967834D01*
X134795710Y-91885802D01*
X134801081Y-91883360D01*
X134972360Y-91761863D01*
X135034924Y-91696508D01*
X135113491Y-91614436D01*
X135113495Y-91614432D01*
X135117575Y-91610169D01*
X135231485Y-91433754D01*
X135237751Y-91418207D01*
X135307773Y-91244461D01*
X135307774Y-91244456D01*
X135309981Y-91238981D01*
X135350230Y-91032878D01*
X135350500Y-91027357D01*
X135350500Y-90722531D01*
X135335561Y-90565954D01*
X135326227Y-90534135D01*
X135296510Y-90432841D01*
X135276447Y-90364451D01*
X135241960Y-90297490D01*
X135182996Y-90183004D01*
X135182993Y-90182999D01*
X135180295Y-90177761D01*
X135050576Y-90012621D01*
X135036032Y-90000000D01*
X134896424Y-89878854D01*
X134896423Y-89878853D01*
X134891971Y-89874990D01*
X134864862Y-89859307D01*
X134715311Y-89772790D01*
X134715309Y-89772789D01*
X134710201Y-89769834D01*
X134511826Y-89700947D01*
X134304004Y-89670814D01*
X134094233Y-89680523D01*
X134088495Y-89681906D01*
X134088494Y-89681906D01*
X133895815Y-89728342D01*
X133895812Y-89728343D01*
X133890082Y-89729724D01*
X133884714Y-89732164D01*
X133884710Y-89732166D01*
X133783840Y-89778029D01*
X133698919Y-89816640D01*
X133527640Y-89938137D01*
X133523556Y-89942404D01*
X133523554Y-89942405D01*
X133386509Y-90085564D01*
X133386505Y-90085568D01*
X133382425Y-90089831D01*
X133354499Y-90133081D01*
X133334024Y-90164791D01*
X133281122Y-90210432D01*
X133211942Y-90220228D01*
X133148449Y-90191067D01*
X133110800Y-90132208D01*
X133106514Y-90110325D01*
X133097732Y-90025682D01*
X133094886Y-90012506D01*
X133043373Y-89858100D01*
X133037302Y-89845141D01*
X132951874Y-89707091D01*
X132942984Y-89695875D01*
X132828094Y-89581184D01*
X132816855Y-89572308D01*
X132678652Y-89487119D01*
X132665693Y-89481076D01*
X132511186Y-89429828D01*
X132498020Y-89427006D01*
X132403510Y-89417322D01*
X132397202Y-89417000D01*
X132021830Y-89417000D01*
X132006831Y-89421404D01*
X132005644Y-89422774D01*
X132004000Y-89430332D01*
X132004000Y-92265169D01*
X131496000Y-92265169D01*
X131496000Y-91121830D01*
X131491596Y-91106831D01*
X131490226Y-91105644D01*
X131482668Y-91104000D01*
X130409831Y-91104000D01*
X130394832Y-91108404D01*
X130393645Y-91109774D01*
X130392001Y-91117332D01*
X130392001Y-91572165D01*
X114642114Y-91572165D01*
X114731485Y-91433754D01*
X114737751Y-91418207D01*
X114807773Y-91244461D01*
X114807774Y-91244456D01*
X114809981Y-91238981D01*
X114850230Y-91032878D01*
X114850500Y-91027357D01*
X114850500Y-90793138D01*
X119144758Y-90793138D01*
X119145578Y-90800566D01*
X119145578Y-90800568D01*
X119156618Y-90900568D01*
X119162035Y-90949633D01*
X119164601Y-90956645D01*
X119164602Y-90956649D01*
X119190478Y-91027357D01*
X119216143Y-91097490D01*
X119303958Y-91228172D01*
X119326183Y-91248395D01*
X119414878Y-91329102D01*
X119414882Y-91329105D01*
X119420410Y-91334135D01*
X119426978Y-91337701D01*
X119426981Y-91337703D01*
X119448071Y-91349154D01*
X119558776Y-91409262D01*
X119652135Y-91433754D01*
X119703841Y-91447319D01*
X119703843Y-91447319D01*
X119711069Y-91449215D01*
X119788127Y-91450425D01*
X119861025Y-91451571D01*
X119861028Y-91451571D01*
X119868495Y-91451688D01*
X119875776Y-91450020D01*
X119875780Y-91450020D01*
X120014681Y-91418207D01*
X120021968Y-91416538D01*
X120092886Y-91380870D01*
X120155945Y-91349155D01*
X120155947Y-91349154D01*
X120162625Y-91345795D01*
X120180874Y-91330209D01*
X120244635Y-91301639D01*
X120261405Y-91300500D01*
X124135473Y-91300500D01*
X124202512Y-91320185D01*
X124208681Y-91324920D01*
X124208786Y-91324773D01*
X124214884Y-91329107D01*
X124220410Y-91334135D01*
X124226975Y-91337699D01*
X124226977Y-91337701D01*
X124248071Y-91349154D01*
X124358776Y-91409262D01*
X124452135Y-91433754D01*
X124503841Y-91447319D01*
X124503843Y-91447319D01*
X124511069Y-91449215D01*
X124588127Y-91450425D01*
X124661025Y-91451571D01*
X124661028Y-91451571D01*
X124668495Y-91451688D01*
X124675776Y-91450020D01*
X124675780Y-91450020D01*
X124814681Y-91418207D01*
X124821968Y-91416538D01*
X124962625Y-91345795D01*
X124968306Y-91340943D01*
X124968309Y-91340941D01*
X125076666Y-91248395D01*
X125076667Y-91248394D01*
X125082348Y-91243542D01*
X125089793Y-91233182D01*
X125135754Y-91169220D01*
X125174224Y-91115683D01*
X125232950Y-90969598D01*
X125234793Y-90956649D01*
X125254562Y-90817744D01*
X125254562Y-90817740D01*
X125255134Y-90813723D01*
X125255278Y-90800000D01*
X125246262Y-90725492D01*
X125237262Y-90651119D01*
X125237261Y-90651115D01*
X125236363Y-90643694D01*
X125211604Y-90578170D01*
X130392000Y-90578170D01*
X130396404Y-90593169D01*
X130397774Y-90594356D01*
X130405332Y-90596000D01*
X131478170Y-90596000D01*
X131493169Y-90591596D01*
X131494356Y-90590226D01*
X131496000Y-90582668D01*
X131496000Y-89434831D01*
X131491596Y-89419832D01*
X131490226Y-89418645D01*
X131482668Y-89417001D01*
X131102835Y-89417001D01*
X131096459Y-89417331D01*
X131000682Y-89427268D01*
X130987506Y-89430114D01*
X130833100Y-89481627D01*
X130820141Y-89487698D01*
X130682091Y-89573126D01*
X130670875Y-89582016D01*
X130556184Y-89696906D01*
X130547308Y-89708145D01*
X130462119Y-89846348D01*
X130456076Y-89859307D01*
X130404828Y-90013814D01*
X130402006Y-90026980D01*
X130392322Y-90121490D01*
X130392000Y-90127798D01*
X130392000Y-90578170D01*
X125211604Y-90578170D01*
X125183354Y-90503408D01*
X125183352Y-90503405D01*
X125180710Y-90496412D01*
X125172337Y-90484229D01*
X125095768Y-90372821D01*
X125095765Y-90372818D01*
X125091531Y-90366657D01*
X124984981Y-90271724D01*
X124979559Y-90266893D01*
X124979558Y-90266892D01*
X124973976Y-90261919D01*
X124834831Y-90188245D01*
X124682128Y-90149889D01*
X124600329Y-90149461D01*
X124532158Y-90149104D01*
X124532157Y-90149104D01*
X124524684Y-90149065D01*
X124517421Y-90150809D01*
X124517418Y-90150809D01*
X124459180Y-90164791D01*
X124371588Y-90185820D01*
X124231679Y-90258032D01*
X124226047Y-90262945D01*
X124226043Y-90262948D01*
X124219174Y-90268941D01*
X124155716Y-90298178D01*
X124137659Y-90299500D01*
X120263383Y-90299500D01*
X120196344Y-90279815D01*
X120180892Y-90268081D01*
X120179559Y-90266893D01*
X120179558Y-90266892D01*
X120173976Y-90261919D01*
X120034831Y-90188245D01*
X119882128Y-90149889D01*
X119800329Y-90149461D01*
X119732158Y-90149104D01*
X119732157Y-90149104D01*
X119724684Y-90149065D01*
X119717421Y-90150809D01*
X119717418Y-90150809D01*
X119659180Y-90164791D01*
X119571588Y-90185820D01*
X119431679Y-90258032D01*
X119426048Y-90262945D01*
X119426047Y-90262945D01*
X119381265Y-90302011D01*
X119313034Y-90361533D01*
X119222501Y-90490348D01*
X119165309Y-90637039D01*
X119144758Y-90793138D01*
X114850500Y-90793138D01*
X114850500Y-90722531D01*
X114835561Y-90565954D01*
X114826227Y-90534135D01*
X114796510Y-90432841D01*
X114776447Y-90364451D01*
X114741960Y-90297490D01*
X114682996Y-90183004D01*
X114682993Y-90182999D01*
X114680295Y-90177761D01*
X114584037Y-90055219D01*
X114558105Y-89990339D01*
X114571366Y-89921740D01*
X114601017Y-89884332D01*
X114622841Y-89865693D01*
X114638579Y-89854259D01*
X114645743Y-89849869D01*
X114785769Y-89764061D01*
X114803101Y-89755230D01*
X114962592Y-89689166D01*
X114981098Y-89683153D01*
X115024134Y-89672821D01*
X115148960Y-89642853D01*
X115168169Y-89639811D01*
X115315630Y-89628205D01*
X115330603Y-89628794D01*
X115330603Y-89628654D01*
X115340358Y-89628654D01*
X115350000Y-89630181D01*
X115359641Y-89628654D01*
X115359642Y-89628654D01*
X115369915Y-89627027D01*
X115389312Y-89625500D01*
X122710688Y-89625500D01*
X122730085Y-89627027D01*
X122735223Y-89627841D01*
X122750000Y-89630181D01*
X122754617Y-89629450D01*
X122989058Y-89612682D01*
X123130028Y-89582016D01*
X123218915Y-89562680D01*
X123218918Y-89562679D01*
X123223249Y-89561737D01*
X123227399Y-89560189D01*
X123227403Y-89560188D01*
X123421756Y-89487698D01*
X123447806Y-89477982D01*
X123451688Y-89475862D01*
X123451693Y-89475860D01*
X123616588Y-89385820D01*
X123658158Y-89363121D01*
X123661703Y-89360467D01*
X123661708Y-89360464D01*
X123802045Y-89255408D01*
X123850022Y-89219493D01*
X124019493Y-89050022D01*
X124113642Y-88924254D01*
X124160464Y-88861708D01*
X124160467Y-88861703D01*
X124163121Y-88858158D01*
X124277982Y-88647806D01*
X124354168Y-88443542D01*
X124360188Y-88427403D01*
X124360189Y-88427399D01*
X124361737Y-88423249D01*
X124370235Y-88384187D01*
X124411739Y-88193392D01*
X124412682Y-88189058D01*
X124425458Y-88010425D01*
X124426215Y-88010479D01*
X124426409Y-88009909D01*
X124425500Y-88009844D01*
X124428773Y-87964085D01*
X124428773Y-87964084D01*
X124429450Y-87954617D01*
X124430181Y-87950000D01*
X124427027Y-87930085D01*
X124425500Y-87910688D01*
X124425500Y-87841964D01*
X124445185Y-87774925D01*
X124468968Y-87747674D01*
X124526666Y-87698395D01*
X124532348Y-87693542D01*
X124539581Y-87683477D01*
X124569237Y-87642205D01*
X124624224Y-87565683D01*
X124682950Y-87419598D01*
X124684793Y-87406649D01*
X124704562Y-87267744D01*
X124704562Y-87267740D01*
X124705134Y-87263723D01*
X124705197Y-87257773D01*
X124705278Y-87250000D01*
X124706836Y-87250016D01*
X124721334Y-87188287D01*
X124771547Y-87139703D01*
X124829172Y-87125500D01*
X128902907Y-87125500D01*
X128969946Y-87145185D01*
X128996771Y-87168472D01*
X128999790Y-87171969D01*
X129003958Y-87178172D01*
X129009488Y-87183204D01*
X129009489Y-87183205D01*
X129078277Y-87245797D01*
X129114614Y-87305474D01*
X129112918Y-87375323D01*
X129073728Y-87433167D01*
X129051699Y-87447699D01*
X129031679Y-87458032D01*
X128913034Y-87561533D01*
X128822501Y-87690348D01*
X128765309Y-87837039D01*
X128744758Y-87993138D01*
X128745578Y-88000566D01*
X128745578Y-88000568D01*
X128746613Y-88009945D01*
X128762035Y-88149633D01*
X128764601Y-88156645D01*
X128764602Y-88156649D01*
X128791897Y-88231235D01*
X128816143Y-88297490D01*
X128820314Y-88303697D01*
X128897738Y-88418915D01*
X128903958Y-88428172D01*
X128926183Y-88448395D01*
X129014878Y-88529102D01*
X129014882Y-88529105D01*
X129020410Y-88534135D01*
X129158776Y-88609262D01*
X129261031Y-88636088D01*
X129303841Y-88647319D01*
X129303843Y-88647319D01*
X129311069Y-88649215D01*
X129388127Y-88650425D01*
X129461025Y-88651571D01*
X129461028Y-88651571D01*
X129468495Y-88651688D01*
X129475776Y-88650020D01*
X129475780Y-88650020D01*
X129614681Y-88618207D01*
X129621968Y-88616538D01*
X129762625Y-88545795D01*
X129768306Y-88540943D01*
X129768309Y-88540941D01*
X129876666Y-88448395D01*
X129876667Y-88448394D01*
X129882348Y-88443542D01*
X129894133Y-88427141D01*
X129949237Y-88384187D01*
X129994831Y-88375500D01*
X136760688Y-88375500D01*
X136780085Y-88377027D01*
X136790356Y-88378654D01*
X136790359Y-88378654D01*
X136800000Y-88380181D01*
X136805371Y-88379330D01*
X136854037Y-88375500D01*
X137010989Y-88363148D01*
X137010991Y-88363148D01*
X137015841Y-88362766D01*
X137020570Y-88361631D01*
X137020574Y-88361630D01*
X137221631Y-88313360D01*
X137226367Y-88312223D01*
X137337482Y-88266198D01*
X137421891Y-88231235D01*
X137421895Y-88231233D01*
X137426395Y-88229369D01*
X137610998Y-88116244D01*
X137623349Y-88105696D01*
X137771932Y-87978794D01*
X137775633Y-87975633D01*
X137805760Y-87940359D01*
X137913080Y-87814703D01*
X137913082Y-87814700D01*
X137916244Y-87810998D01*
X138029369Y-87626395D01*
X138031461Y-87621346D01*
X138108086Y-87436355D01*
X138112223Y-87426367D01*
X138128334Y-87359262D01*
X138161630Y-87220574D01*
X138161631Y-87220570D01*
X138162766Y-87215841D01*
X138163745Y-87203408D01*
X138168816Y-87138964D01*
X138179330Y-87005371D01*
X138179423Y-87004788D01*
X138180181Y-87000000D01*
X138178655Y-86990365D01*
X138178655Y-86989752D01*
X138177868Y-86974726D01*
X140342001Y-86974726D01*
X140342364Y-86981431D01*
X140347908Y-87032477D01*
X140351478Y-87047488D01*
X140396727Y-87168190D01*
X140405126Y-87183532D01*
X140481798Y-87285835D01*
X140494165Y-87298202D01*
X140596468Y-87374874D01*
X140611810Y-87383273D01*
X140732515Y-87428524D01*
X140747518Y-87432091D01*
X140798573Y-87437637D01*
X140805271Y-87438000D01*
X141428170Y-87438000D01*
X141443169Y-87433596D01*
X141444356Y-87432226D01*
X141446000Y-87424668D01*
X141446000Y-87420169D01*
X141954000Y-87420169D01*
X141958404Y-87435168D01*
X141959774Y-87436355D01*
X141967332Y-87437999D01*
X142594726Y-87437999D01*
X142601431Y-87437636D01*
X142652477Y-87432092D01*
X142667488Y-87428522D01*
X142788190Y-87383273D01*
X142803532Y-87374874D01*
X142905835Y-87298202D01*
X142918202Y-87285835D01*
X142994874Y-87183532D01*
X143003273Y-87168190D01*
X143048524Y-87047485D01*
X143052091Y-87032482D01*
X143057637Y-86981427D01*
X143058000Y-86974729D01*
X143057999Y-86351829D01*
X143053595Y-86336831D01*
X143052226Y-86335644D01*
X143044667Y-86334000D01*
X141971830Y-86334000D01*
X141956831Y-86338404D01*
X141955644Y-86339774D01*
X141954000Y-86347332D01*
X141954000Y-87420169D01*
X141446000Y-87420169D01*
X141446000Y-86351830D01*
X141441596Y-86336831D01*
X141440226Y-86335644D01*
X141432668Y-86334000D01*
X140359831Y-86334000D01*
X140344832Y-86338404D01*
X140343645Y-86339774D01*
X140342001Y-86347332D01*
X140342001Y-86974726D01*
X138177868Y-86974726D01*
X138177346Y-86964775D01*
X138177700Y-86958032D01*
X138192057Y-86684068D01*
X138193414Y-86671161D01*
X138241887Y-86365118D01*
X138244585Y-86352422D01*
X138248268Y-86338679D01*
X138291100Y-86178825D01*
X138324784Y-86053115D01*
X138328795Y-86040771D01*
X138439840Y-85751489D01*
X138445119Y-85739632D01*
X138585797Y-85463536D01*
X138592287Y-85452296D01*
X138761046Y-85192429D01*
X138768675Y-85181928D01*
X138963683Y-84941114D01*
X138972368Y-84931469D01*
X139191469Y-84712368D01*
X139201114Y-84703683D01*
X139441928Y-84508675D01*
X139452429Y-84501046D01*
X139712296Y-84332287D01*
X139723536Y-84325797D01*
X139999632Y-84185119D01*
X140011489Y-84179840D01*
X140300771Y-84068795D01*
X140313115Y-84064784D01*
X140419198Y-84036359D01*
X140583245Y-83992403D01*
X140653093Y-83994066D01*
X140710956Y-84033228D01*
X140727943Y-84060259D01*
X140742856Y-84092607D01*
X140746137Y-84097250D01*
X140746139Y-84097253D01*
X140791225Y-84161048D01*
X140859588Y-84257780D01*
X141004466Y-84398913D01*
X141086327Y-84453611D01*
X141148118Y-84494899D01*
X141192923Y-84548511D01*
X141201630Y-84617836D01*
X141171475Y-84680864D01*
X141112032Y-84717583D01*
X141079227Y-84722001D01*
X140805274Y-84722001D01*
X140798569Y-84722364D01*
X140747523Y-84727908D01*
X140732512Y-84731478D01*
X140611810Y-84776727D01*
X140596468Y-84785126D01*
X140494165Y-84861798D01*
X140481798Y-84874165D01*
X140405126Y-84976468D01*
X140396727Y-84991810D01*
X140351476Y-85112515D01*
X140347909Y-85127518D01*
X140342363Y-85178573D01*
X140342000Y-85185271D01*
X140342000Y-85808170D01*
X140346404Y-85823169D01*
X140347774Y-85824356D01*
X140355332Y-85826000D01*
X143040169Y-85826000D01*
X143055168Y-85821596D01*
X143056355Y-85820226D01*
X143057999Y-85812668D01*
X143057999Y-85702263D01*
X143057507Y-85694473D01*
X143048144Y-85620602D01*
X143043916Y-85604699D01*
X142994475Y-85485630D01*
X142986212Y-85471433D01*
X142941029Y-85413289D01*
X142935925Y-85407505D01*
X142372531Y-84844111D01*
X142366672Y-84838947D01*
X142307813Y-84793332D01*
X142293578Y-84785076D01*
X142205338Y-84748616D01*
X142150896Y-84704823D01*
X142128774Y-84638548D01*
X142145994Y-84570833D01*
X142192102Y-84525824D01*
X142321048Y-84453611D01*
X142321050Y-84453610D01*
X142326001Y-84450837D01*
X142374874Y-84410190D01*
X142477138Y-84325137D01*
X142481505Y-84321505D01*
X142584369Y-84197825D01*
X142607206Y-84170367D01*
X142607207Y-84170366D01*
X142610837Y-84166001D01*
X142624109Y-84142303D01*
X142669418Y-84061396D01*
X142709664Y-83989531D01*
X142772138Y-83805490D01*
X142772852Y-83803387D01*
X142772853Y-83803384D01*
X142774678Y-83798007D01*
X142780782Y-83755911D01*
X142803176Y-83601458D01*
X142803176Y-83601453D01*
X142803700Y-83597842D01*
X142804210Y-83578391D01*
X142805119Y-83543661D01*
X142805215Y-83540000D01*
X142786708Y-83338591D01*
X142751331Y-83213154D01*
X142733352Y-83149403D01*
X142733351Y-83149400D01*
X142731807Y-83143926D01*
X142642351Y-82962527D01*
X142521335Y-82800467D01*
X142459697Y-82743490D01*
X142376988Y-82667034D01*
X142376986Y-82667033D01*
X142372812Y-82663174D01*
X142348552Y-82647867D01*
X142206566Y-82558280D01*
X142206564Y-82558279D01*
X142201757Y-82555246D01*
X142013898Y-82480298D01*
X142008317Y-82479188D01*
X142008314Y-82479187D01*
X141913015Y-82460231D01*
X141815526Y-82440839D01*
X141809839Y-82440765D01*
X141809834Y-82440764D01*
X141618975Y-82438266D01*
X141618970Y-82438266D01*
X141613286Y-82438192D01*
X141607682Y-82439155D01*
X141607681Y-82439155D01*
X141419546Y-82471482D01*
X141419543Y-82471483D01*
X141413949Y-82472444D01*
X141392660Y-82480298D01*
X141229521Y-82540483D01*
X141229517Y-82540485D01*
X141224193Y-82542449D01*
X141219310Y-82545354D01*
X141219308Y-82545355D01*
X141166662Y-82576676D01*
X141050371Y-82645862D01*
X140898305Y-82779220D01*
X140773089Y-82938057D01*
X140678914Y-83117053D01*
X140677229Y-83122480D01*
X140677226Y-83122487D01*
X140672191Y-83138704D01*
X140633513Y-83196891D01*
X140571963Y-83224592D01*
X140510829Y-83233661D01*
X140145270Y-83325229D01*
X139790447Y-83452186D01*
X139449777Y-83613311D01*
X139447169Y-83614874D01*
X139447160Y-83614879D01*
X139197977Y-83764234D01*
X139126540Y-83807052D01*
X139016430Y-83888715D01*
X138838813Y-84020445D01*
X138823850Y-84031542D01*
X138821598Y-84033583D01*
X138821592Y-84033588D01*
X138568814Y-84262694D01*
X138544621Y-84284621D01*
X138542579Y-84286874D01*
X138293588Y-84561592D01*
X138293583Y-84561598D01*
X138291542Y-84563850D01*
X138289732Y-84566291D01*
X138289730Y-84566293D01*
X138260067Y-84606289D01*
X138067052Y-84866540D01*
X138065490Y-84869146D01*
X137874879Y-85187160D01*
X137874874Y-85187169D01*
X137873311Y-85189777D01*
X137712186Y-85530447D01*
X137585229Y-85885270D01*
X137493661Y-86250829D01*
X137493217Y-86253825D01*
X137493216Y-86253828D01*
X137483896Y-86316657D01*
X137438365Y-86623602D01*
X137429726Y-86799464D01*
X137420501Y-86987247D01*
X137419899Y-86999494D01*
X137419819Y-87000000D01*
X137421344Y-87009628D01*
X137421345Y-87019383D01*
X137420346Y-87019383D01*
X137420673Y-87033962D01*
X137420246Y-87037750D01*
X137411449Y-87115834D01*
X137410407Y-87125078D01*
X137404231Y-87152142D01*
X137367267Y-87257778D01*
X137355223Y-87282788D01*
X137347050Y-87295795D01*
X137295686Y-87377541D01*
X137278373Y-87399250D01*
X137199250Y-87478373D01*
X137177541Y-87495686D01*
X137155302Y-87509660D01*
X137082790Y-87555222D01*
X137057778Y-87567267D01*
X136952142Y-87604231D01*
X136925081Y-87610406D01*
X136854451Y-87618365D01*
X136833962Y-87620673D01*
X136819400Y-87620347D01*
X136819400Y-87621345D01*
X136809637Y-87621345D01*
X136800000Y-87619819D01*
X136790359Y-87621346D01*
X136780085Y-87622973D01*
X136760688Y-87624500D01*
X129996525Y-87624500D01*
X129929486Y-87604815D01*
X129901522Y-87577705D01*
X129900707Y-87578424D01*
X129895767Y-87572821D01*
X129891531Y-87566657D01*
X129885949Y-87561683D01*
X129885944Y-87561678D01*
X129823016Y-87505612D01*
X129786056Y-87446319D01*
X129787020Y-87376456D01*
X129825602Y-87318204D01*
X129849787Y-87302252D01*
X129855946Y-87299154D01*
X129862625Y-87295795D01*
X129868306Y-87290943D01*
X129868309Y-87290941D01*
X129976666Y-87198395D01*
X129976667Y-87198394D01*
X129982348Y-87193542D01*
X129989776Y-87183205D01*
X130038187Y-87115834D01*
X130093293Y-87072879D01*
X130119486Y-87065720D01*
X130137103Y-87062930D01*
X130137104Y-87062930D01*
X130140310Y-87062422D01*
X130451686Y-86978989D01*
X130642498Y-86905743D01*
X130749604Y-86864629D01*
X130749612Y-86864625D01*
X130752635Y-86863465D01*
X130802600Y-86838007D01*
X131036968Y-86718591D01*
X131036967Y-86718591D01*
X131039861Y-86717117D01*
X131165017Y-86635840D01*
X131307487Y-86543319D01*
X131307492Y-86543315D01*
X131310215Y-86541547D01*
X131312735Y-86539506D01*
X131312741Y-86539502D01*
X131558217Y-86340719D01*
X131558219Y-86340717D01*
X131560736Y-86338679D01*
X131788679Y-86110736D01*
X131797649Y-86099659D01*
X131989502Y-85862741D01*
X131989506Y-85862735D01*
X131991547Y-85860215D01*
X132006417Y-85837318D01*
X132165346Y-85592588D01*
X132167117Y-85589861D01*
X132297415Y-85334135D01*
X132311991Y-85305528D01*
X132311991Y-85305527D01*
X132313465Y-85302635D01*
X132314625Y-85299612D01*
X132314629Y-85299604D01*
X132394176Y-85092377D01*
X132428989Y-85001686D01*
X132512422Y-84690310D01*
X132513302Y-84684759D01*
X132541190Y-84508675D01*
X132562850Y-84371919D01*
X132563105Y-84367064D01*
X132569949Y-84236472D01*
X132579494Y-84054341D01*
X132580181Y-84050000D01*
X132578598Y-84040000D01*
X132577027Y-84030085D01*
X132575500Y-84010688D01*
X132575500Y-80971069D01*
X140595164Y-80971069D01*
X140595535Y-80976731D01*
X140595535Y-80976735D01*
X140600788Y-81056877D01*
X140608392Y-81172894D01*
X140658178Y-81368928D01*
X140660554Y-81374082D01*
X140724540Y-81512876D01*
X140742856Y-81552607D01*
X140859588Y-81717780D01*
X141004466Y-81858913D01*
X141172637Y-81971282D01*
X141358470Y-82051122D01*
X141454502Y-82072852D01*
X141550193Y-82094505D01*
X141550195Y-82094505D01*
X141555740Y-82095760D01*
X141673135Y-82100372D01*
X141752161Y-82103477D01*
X141752163Y-82103477D01*
X141757842Y-82103700D01*
X141763462Y-82102885D01*
X141763465Y-82102885D01*
X141952387Y-82075493D01*
X141952389Y-82075493D01*
X141958007Y-82074678D01*
X141963384Y-82072853D01*
X141963387Y-82072852D01*
X142054111Y-82042055D01*
X142149531Y-82009664D01*
X142326001Y-81910837D01*
X142347578Y-81892892D01*
X142477138Y-81785137D01*
X142481505Y-81781505D01*
X142522070Y-81732731D01*
X142607206Y-81630367D01*
X142607207Y-81630366D01*
X142610837Y-81626001D01*
X142619108Y-81611233D01*
X142674189Y-81512876D01*
X142709664Y-81449531D01*
X142768662Y-81275729D01*
X142772852Y-81263387D01*
X142772853Y-81263384D01*
X142774678Y-81258007D01*
X142775493Y-81252387D01*
X142803176Y-81061458D01*
X142803176Y-81061453D01*
X142803700Y-81057842D01*
X142803842Y-81052442D01*
X142805119Y-81003661D01*
X142805215Y-81000000D01*
X142786708Y-80798591D01*
X142751599Y-80674103D01*
X142733352Y-80609403D01*
X142733351Y-80609400D01*
X142731807Y-80603926D01*
X142642351Y-80422527D01*
X142521335Y-80260467D01*
X142372812Y-80123174D01*
X142287486Y-80069337D01*
X142206566Y-80018280D01*
X142206564Y-80018279D01*
X142201757Y-80015246D01*
X142013898Y-79940298D01*
X142008317Y-79939188D01*
X142008314Y-79939187D01*
X141940373Y-79925673D01*
X141815526Y-79900839D01*
X141809839Y-79900765D01*
X141809834Y-79900764D01*
X141618975Y-79898266D01*
X141618970Y-79898266D01*
X141613286Y-79898192D01*
X141607682Y-79899155D01*
X141607681Y-79899155D01*
X141419546Y-79931482D01*
X141419543Y-79931483D01*
X141413949Y-79932444D01*
X141392660Y-79940298D01*
X141229521Y-80000483D01*
X141229517Y-80000485D01*
X141224193Y-80002449D01*
X141219310Y-80005354D01*
X141219308Y-80005355D01*
X141111764Y-80069337D01*
X141050371Y-80105862D01*
X140898305Y-80239220D01*
X140773089Y-80398057D01*
X140678914Y-80577053D01*
X140677229Y-80582479D01*
X140677228Y-80582482D01*
X140648027Y-80676528D01*
X140618937Y-80770213D01*
X140595164Y-80971069D01*
X132575500Y-80971069D01*
X132575500Y-78431069D01*
X140595164Y-78431069D01*
X140595535Y-78436731D01*
X140595535Y-78436735D01*
X140600851Y-78517842D01*
X140608392Y-78632894D01*
X140658178Y-78828928D01*
X140742856Y-79012607D01*
X140859588Y-79177780D01*
X141004466Y-79318913D01*
X141172637Y-79431282D01*
X141358470Y-79511122D01*
X141365033Y-79512607D01*
X141550193Y-79554505D01*
X141550195Y-79554505D01*
X141555740Y-79555760D01*
X141673135Y-79560372D01*
X141752161Y-79563477D01*
X141752163Y-79563477D01*
X141757842Y-79563700D01*
X141763462Y-79562885D01*
X141763465Y-79562885D01*
X141952387Y-79535493D01*
X141952389Y-79535493D01*
X141958007Y-79534678D01*
X141963384Y-79532853D01*
X141963387Y-79532852D01*
X142048090Y-79504099D01*
X142149531Y-79469664D01*
X142297329Y-79386894D01*
X142321048Y-79373611D01*
X142321050Y-79373610D01*
X142326001Y-79370837D01*
X142388433Y-79318913D01*
X142477138Y-79245137D01*
X142481505Y-79241505D01*
X142610837Y-79086001D01*
X142620345Y-79069024D01*
X142706886Y-78914491D01*
X142709664Y-78909531D01*
X142770535Y-78730213D01*
X142772852Y-78723387D01*
X142772853Y-78723384D01*
X142774678Y-78718007D01*
X142779208Y-78686764D01*
X142803176Y-78521458D01*
X142803176Y-78521453D01*
X142803700Y-78517842D01*
X142805215Y-78460000D01*
X142786708Y-78258591D01*
X142745164Y-78111285D01*
X142733352Y-78069403D01*
X142733351Y-78069400D01*
X142731807Y-78063926D01*
X142642351Y-77882527D01*
X142521335Y-77720467D01*
X142383123Y-77592705D01*
X142376988Y-77587034D01*
X142376986Y-77587033D01*
X142372812Y-77583174D01*
X142312087Y-77544859D01*
X142206566Y-77478280D01*
X142206564Y-77478279D01*
X142201757Y-77475246D01*
X142013898Y-77400298D01*
X142008317Y-77399188D01*
X142008314Y-77399187D01*
X141940373Y-77385673D01*
X141815526Y-77360839D01*
X141809839Y-77360765D01*
X141809834Y-77360764D01*
X141618975Y-77358266D01*
X141618970Y-77358266D01*
X141613286Y-77358192D01*
X141607682Y-77359155D01*
X141607681Y-77359155D01*
X141419546Y-77391482D01*
X141419543Y-77391483D01*
X141413949Y-77392444D01*
X141392660Y-77400298D01*
X141229521Y-77460483D01*
X141229517Y-77460485D01*
X141224193Y-77462449D01*
X141219310Y-77465354D01*
X141219308Y-77465355D01*
X141106148Y-77532678D01*
X141050371Y-77565862D01*
X140898305Y-77699220D01*
X140773089Y-77858057D01*
X140770442Y-77863088D01*
X140729506Y-77940894D01*
X140678914Y-78037053D01*
X140677229Y-78042479D01*
X140677228Y-78042482D01*
X140664593Y-78083174D01*
X140618937Y-78230213D01*
X140595164Y-78431069D01*
X132575500Y-78431069D01*
X132575500Y-75891069D01*
X140595164Y-75891069D01*
X140595535Y-75896731D01*
X140595535Y-75896735D01*
X140600683Y-75975277D01*
X140608392Y-76092894D01*
X140658178Y-76288928D01*
X140660554Y-76294082D01*
X140727963Y-76440301D01*
X140742856Y-76472607D01*
X140859588Y-76637780D01*
X141004466Y-76778913D01*
X141172637Y-76891282D01*
X141358470Y-76971122D01*
X141454502Y-76992852D01*
X141550193Y-77014505D01*
X141550195Y-77014505D01*
X141555740Y-77015760D01*
X141673135Y-77020372D01*
X141752161Y-77023477D01*
X141752163Y-77023477D01*
X141757842Y-77023700D01*
X141763462Y-77022885D01*
X141763465Y-77022885D01*
X141952387Y-76995493D01*
X141952389Y-76995493D01*
X141958007Y-76994678D01*
X141963384Y-76992853D01*
X141963387Y-76992852D01*
X142087661Y-76950666D01*
X142149531Y-76929664D01*
X142326001Y-76830837D01*
X142369128Y-76794969D01*
X142477138Y-76705137D01*
X142481505Y-76701505D01*
X142559674Y-76607518D01*
X142607206Y-76550367D01*
X142607207Y-76550366D01*
X142610837Y-76546001D01*
X142636360Y-76500427D01*
X142663973Y-76451119D01*
X142709664Y-76369531D01*
X142744099Y-76268090D01*
X142772852Y-76183387D01*
X142772853Y-76183384D01*
X142774678Y-76178007D01*
X142776324Y-76166657D01*
X142803176Y-75981458D01*
X142803176Y-75981453D01*
X142803700Y-75977842D01*
X142804315Y-75954382D01*
X142805119Y-75923661D01*
X142805215Y-75920000D01*
X142786708Y-75718591D01*
X142754206Y-75603348D01*
X142733352Y-75529403D01*
X142733351Y-75529400D01*
X142731807Y-75523926D01*
X142642351Y-75342527D01*
X142521335Y-75180467D01*
X142381616Y-75051312D01*
X142376988Y-75047034D01*
X142376986Y-75047033D01*
X142372812Y-75043174D01*
X142331562Y-75017147D01*
X142206566Y-74938280D01*
X142206564Y-74938279D01*
X142201757Y-74935246D01*
X142013898Y-74860298D01*
X142008317Y-74859188D01*
X142008314Y-74859187D01*
X141940373Y-74845673D01*
X141815526Y-74820839D01*
X141809839Y-74820765D01*
X141809834Y-74820764D01*
X141618975Y-74818266D01*
X141618970Y-74818266D01*
X141613286Y-74818192D01*
X141607682Y-74819155D01*
X141607681Y-74819155D01*
X141419546Y-74851482D01*
X141419543Y-74851483D01*
X141413949Y-74852444D01*
X141392660Y-74860298D01*
X141229521Y-74920483D01*
X141229517Y-74920485D01*
X141224193Y-74922449D01*
X141219310Y-74925354D01*
X141219308Y-74925355D01*
X141060367Y-75019915D01*
X141050371Y-75025862D01*
X140898305Y-75159220D01*
X140773089Y-75318057D01*
X140678914Y-75497053D01*
X140677229Y-75502479D01*
X140677228Y-75502482D01*
X140665037Y-75541744D01*
X140618937Y-75690213D01*
X140595164Y-75891069D01*
X132575500Y-75891069D01*
X132575500Y-75039312D01*
X132577027Y-75019915D01*
X132578327Y-75011706D01*
X132580181Y-75000000D01*
X132579949Y-74998533D01*
X132573125Y-74877027D01*
X132562117Y-74681006D01*
X132562116Y-74681001D01*
X132561922Y-74677539D01*
X132507823Y-74359133D01*
X132488007Y-74290348D01*
X132419657Y-74053103D01*
X132418413Y-74048786D01*
X132294818Y-73750401D01*
X132285836Y-73734148D01*
X132140270Y-73470767D01*
X132140269Y-73470766D01*
X132138592Y-73467731D01*
X132127445Y-73452020D01*
X132000844Y-73273594D01*
X131951699Y-73204330D01*
X131924687Y-73174103D01*
X131738808Y-72966106D01*
X131736489Y-72963511D01*
X131643243Y-72880181D01*
X131498261Y-72750616D01*
X131498256Y-72750612D01*
X131495670Y-72748301D01*
X131268486Y-72587105D01*
X131235098Y-72563415D01*
X131235095Y-72563413D01*
X131232269Y-72561408D01*
X131149324Y-72515566D01*
X130952643Y-72406864D01*
X130952638Y-72406862D01*
X130949599Y-72405182D01*
X130651214Y-72281587D01*
X130554722Y-72253788D01*
X130344211Y-72193140D01*
X130344204Y-72193138D01*
X130340867Y-72192177D01*
X130022461Y-72138078D01*
X130018999Y-72137884D01*
X130018994Y-72137883D01*
X129893431Y-72130832D01*
X129701467Y-72120051D01*
X129700000Y-72119819D01*
X129684087Y-72122339D01*
X129680085Y-72122973D01*
X129660688Y-72124500D01*
X118763589Y-72124500D01*
X118744187Y-72122973D01*
X118732496Y-72121121D01*
X118669363Y-72091189D01*
X118635904Y-72042479D01*
X118583354Y-71903408D01*
X118583352Y-71903405D01*
X118580710Y-71896412D01*
X118549972Y-71851688D01*
X118495768Y-71772821D01*
X118495765Y-71772818D01*
X118491531Y-71766657D01*
X118373976Y-71661919D01*
X118234831Y-71588245D01*
X118082128Y-71549889D01*
X118000329Y-71549461D01*
X117932158Y-71549104D01*
X117932157Y-71549104D01*
X117924684Y-71549065D01*
X117917421Y-71550809D01*
X117917418Y-71550809D01*
X117881406Y-71559455D01*
X117771588Y-71585820D01*
X117631679Y-71658032D01*
X117513034Y-71761533D01*
X117422501Y-71890348D01*
X117365309Y-72037039D01*
X117344758Y-72193138D01*
X117345578Y-72200566D01*
X117345578Y-72200568D01*
X117349710Y-72237995D01*
X117362035Y-72349633D01*
X117364601Y-72356645D01*
X117364602Y-72356649D01*
X117393372Y-72435266D01*
X117416143Y-72497490D01*
X117503958Y-72628172D01*
X117558693Y-72677977D01*
X117614878Y-72729102D01*
X117614882Y-72729105D01*
X117620410Y-72734135D01*
X117626980Y-72737702D01*
X117626981Y-72737703D01*
X117735772Y-72796772D01*
X117758776Y-72809262D01*
X117843501Y-72831489D01*
X117903841Y-72847319D01*
X117903843Y-72847319D01*
X117911069Y-72849215D01*
X117988127Y-72850425D01*
X118061025Y-72851571D01*
X118061028Y-72851571D01*
X118068495Y-72851688D01*
X118075776Y-72850020D01*
X118075780Y-72850020D01*
X118160151Y-72830696D01*
X118221968Y-72816538D01*
X118227622Y-72813694D01*
X118296874Y-72809535D01*
X118308996Y-72812975D01*
X118357345Y-72829389D01*
X118357350Y-72829390D01*
X118361196Y-72830696D01*
X118365174Y-72831487D01*
X118365180Y-72831489D01*
X118537180Y-72865706D01*
X118537183Y-72865706D01*
X118541157Y-72866497D01*
X118545201Y-72866762D01*
X118545207Y-72866763D01*
X118597109Y-72870166D01*
X118651000Y-72873700D01*
X118657717Y-72874638D01*
X118658812Y-72875023D01*
X118664319Y-72875500D01*
X118674390Y-72875500D01*
X118682503Y-72875766D01*
X118700514Y-72876947D01*
X118711801Y-72878208D01*
X118713031Y-72878403D01*
X118714611Y-72878654D01*
X118714613Y-72878654D01*
X118724251Y-72880181D01*
X118744176Y-72877026D01*
X118763569Y-72875500D01*
X125266347Y-72875500D01*
X125333386Y-72895185D01*
X125379141Y-72947989D01*
X125389085Y-73017147D01*
X125381877Y-73044542D01*
X125368026Y-73080069D01*
X125365309Y-73087039D01*
X125344758Y-73243138D01*
X125345578Y-73250566D01*
X125345578Y-73250568D01*
X125358814Y-73370459D01*
X125362035Y-73399633D01*
X125364601Y-73406645D01*
X125364602Y-73406649D01*
X125381206Y-73452020D01*
X125416143Y-73547490D01*
X125482651Y-73646463D01*
X125483787Y-73648154D01*
X125504840Y-73714777D01*
X125486532Y-73782205D01*
X125434676Y-73829031D01*
X125365735Y-73840388D01*
X125341460Y-73834887D01*
X125312802Y-73825282D01*
X125198692Y-73787036D01*
X124804855Y-73694407D01*
X124802023Y-73694012D01*
X124802018Y-73694011D01*
X124406990Y-73638907D01*
X124406989Y-73638907D01*
X124404151Y-73638511D01*
X124000062Y-73619829D01*
X124000000Y-73619819D01*
X123990138Y-73621381D01*
X123980085Y-73622973D01*
X123960688Y-73624500D01*
X117289312Y-73624500D01*
X117269915Y-73622973D01*
X117259862Y-73621381D01*
X117250000Y-73619819D01*
X117240363Y-73621345D01*
X117230600Y-73621345D01*
X117230600Y-73620347D01*
X117216038Y-73620673D01*
X117195549Y-73618365D01*
X117124919Y-73610406D01*
X117097858Y-73604231D01*
X116992222Y-73567267D01*
X116967210Y-73555222D01*
X116872459Y-73495686D01*
X116850750Y-73478373D01*
X116771627Y-73399250D01*
X116754314Y-73377541D01*
X116703011Y-73295892D01*
X116694777Y-73282788D01*
X116682733Y-73257778D01*
X116645769Y-73152142D01*
X116639593Y-73125078D01*
X116629327Y-73033962D01*
X116629653Y-73019400D01*
X116628655Y-73019400D01*
X116628655Y-73009637D01*
X116630181Y-73000000D01*
X116627027Y-72980085D01*
X116625500Y-72960688D01*
X116625500Y-70589312D01*
X116627027Y-70569915D01*
X116628654Y-70559640D01*
X116630181Y-70550000D01*
X116628655Y-70540363D01*
X116628655Y-70539836D01*
X116630181Y-70520446D01*
X116631016Y-70515175D01*
X116633416Y-70500025D01*
X116645404Y-70463129D01*
X116659462Y-70435539D01*
X116682265Y-70404153D01*
X116704153Y-70382265D01*
X116735539Y-70359462D01*
X116763129Y-70345404D01*
X116800025Y-70333416D01*
X116820451Y-70330181D01*
X116839836Y-70328655D01*
X116840363Y-70328655D01*
X116850000Y-70330181D01*
X116864777Y-70327841D01*
X116869915Y-70327027D01*
X116889312Y-70325500D01*
X125210688Y-70325500D01*
X125230085Y-70327027D01*
X125235223Y-70327841D01*
X125250000Y-70330181D01*
X125259637Y-70328655D01*
X125260164Y-70328655D01*
X125279549Y-70330181D01*
X125315428Y-70335863D01*
X125352323Y-70347851D01*
X125393851Y-70369011D01*
X125425236Y-70391814D01*
X125458186Y-70424764D01*
X125480989Y-70456149D01*
X125502149Y-70497677D01*
X125514137Y-70534574D01*
X125518387Y-70561408D01*
X125519819Y-70570448D01*
X125521345Y-70589834D01*
X125521345Y-70590363D01*
X125519819Y-70600000D01*
X125521346Y-70609637D01*
X125521346Y-70609771D01*
X125522330Y-70617783D01*
X125526634Y-70666980D01*
X125535651Y-70770041D01*
X125579829Y-70934915D01*
X125582114Y-70939815D01*
X125582115Y-70939818D01*
X125606643Y-70992419D01*
X125651965Y-71089613D01*
X125655070Y-71094047D01*
X125655072Y-71094051D01*
X125698824Y-71156534D01*
X125749869Y-71229434D01*
X125870566Y-71350131D01*
X125876006Y-71353940D01*
X126005949Y-71444928D01*
X126005953Y-71444930D01*
X126010387Y-71448035D01*
X126052626Y-71467731D01*
X126160182Y-71517885D01*
X126160185Y-71517886D01*
X126165085Y-71520171D01*
X126199829Y-71529481D01*
X126201043Y-71529806D01*
X126260703Y-71566171D01*
X126271867Y-71580417D01*
X126303958Y-71628172D01*
X126345537Y-71666006D01*
X126414878Y-71729102D01*
X126414882Y-71729105D01*
X126420410Y-71734135D01*
X126426980Y-71737702D01*
X126426981Y-71737703D01*
X126529689Y-71793469D01*
X126558776Y-71809262D01*
X126661031Y-71836088D01*
X126703841Y-71847319D01*
X126703843Y-71847319D01*
X126711069Y-71849215D01*
X126788127Y-71850425D01*
X126861025Y-71851571D01*
X126861028Y-71851571D01*
X126868495Y-71851688D01*
X126875776Y-71850020D01*
X126875780Y-71850020D01*
X127014681Y-71818207D01*
X127021968Y-71816538D01*
X127162625Y-71745795D01*
X127168306Y-71740943D01*
X127168309Y-71740941D01*
X127276666Y-71648395D01*
X127276667Y-71648394D01*
X127282348Y-71643542D01*
X127293393Y-71628172D01*
X127334888Y-71570425D01*
X127374224Y-71515683D01*
X127377010Y-71508752D01*
X127377013Y-71508747D01*
X127406352Y-71435763D01*
X127449621Y-71380903D01*
X127456614Y-71376286D01*
X127488921Y-71356488D01*
X127488926Y-71356484D01*
X127493078Y-71353940D01*
X127633774Y-71233774D01*
X127753940Y-71093078D01*
X127850617Y-70935316D01*
X127921424Y-70764373D01*
X127941707Y-70679888D01*
X127963482Y-70589191D01*
X127963483Y-70589184D01*
X127964618Y-70584457D01*
X127969656Y-70520446D01*
X127973312Y-70473997D01*
X127974233Y-70467701D01*
X127975023Y-70465452D01*
X127975500Y-70459945D01*
X127975500Y-70451063D01*
X127975882Y-70441331D01*
X127975917Y-70440894D01*
X127977720Y-70417984D01*
X127978655Y-70410086D01*
X127978655Y-70409635D01*
X127980181Y-70400000D01*
X127977027Y-70380085D01*
X127975500Y-70360688D01*
X127975500Y-70039312D01*
X127977027Y-70019915D01*
X127978654Y-70009640D01*
X127980181Y-70000000D01*
X127979450Y-69995383D01*
X127962682Y-69760942D01*
X127911737Y-69526751D01*
X127901972Y-69500568D01*
X127829529Y-69306342D01*
X127827982Y-69302194D01*
X127822303Y-69291792D01*
X127715247Y-69095736D01*
X127713121Y-69091842D01*
X127710467Y-69088297D01*
X127710464Y-69088292D01*
X127572145Y-68903521D01*
X127569493Y-68899978D01*
X127400022Y-68730507D01*
X127391021Y-68723769D01*
X127349148Y-68667836D01*
X127344162Y-68598145D01*
X127377646Y-68536821D01*
X127438968Y-68503334D01*
X127465329Y-68500500D01*
X133463115Y-68500500D01*
X133487306Y-68502883D01*
X133500000Y-68505408D01*
X133508659Y-68503686D01*
X133517045Y-68503026D01*
X133517047Y-68503026D01*
X133691374Y-68489306D01*
X133691376Y-68489306D01*
X133696226Y-68488924D01*
X133700953Y-68487789D01*
X133700960Y-68487788D01*
X133882885Y-68444111D01*
X133887621Y-68442974D01*
X134069471Y-68367649D01*
X134237298Y-68264804D01*
X134386971Y-68136971D01*
X134514804Y-67987298D01*
X134617649Y-67819471D01*
X134692974Y-67637621D01*
X134724495Y-67506329D01*
X134737788Y-67450960D01*
X134737789Y-67450953D01*
X134738924Y-67446226D01*
X134744234Y-67378758D01*
X134753026Y-67267047D01*
X134753026Y-67267045D01*
X134753686Y-67258659D01*
X134755408Y-67250000D01*
X134752883Y-67237306D01*
X134750500Y-67213115D01*
X134750500Y-65469285D01*
X140044759Y-65469285D01*
X140059938Y-65745087D01*
X140060794Y-65749393D01*
X140060795Y-65749397D01*
X140085327Y-65872727D01*
X140113825Y-66015999D01*
X140205347Y-66276616D01*
X140220013Y-66304849D01*
X140324128Y-66505277D01*
X140332678Y-66521737D01*
X140493275Y-66746471D01*
X140683936Y-66946335D01*
X140687380Y-66949050D01*
X140687381Y-66949051D01*
X140738777Y-66989568D01*
X140900856Y-67117341D01*
X140904651Y-67119545D01*
X140904652Y-67119546D01*
X141129245Y-67250000D01*
X141139707Y-67256077D01*
X141143777Y-67257725D01*
X141143780Y-67257727D01*
X141322809Y-67330241D01*
X141395723Y-67359774D01*
X141399977Y-67360831D01*
X141399978Y-67360831D01*
X141659543Y-67425308D01*
X141659549Y-67425309D01*
X141663796Y-67426364D01*
X141668159Y-67426811D01*
X141896223Y-67450178D01*
X141896231Y-67450178D01*
X141899370Y-67450500D01*
X142070362Y-67450500D01*
X142072530Y-67450346D01*
X142072544Y-67450346D01*
X142201400Y-67441222D01*
X142275530Y-67435973D01*
X142545562Y-67377837D01*
X142735011Y-67307946D01*
X142800595Y-67283751D01*
X142800598Y-67283750D01*
X142804709Y-67282233D01*
X142853185Y-67256077D01*
X142932807Y-67213115D01*
X143047800Y-67151068D01*
X143088076Y-67121320D01*
X143266453Y-66989568D01*
X143269984Y-66986960D01*
X143277897Y-66979171D01*
X143371817Y-66886714D01*
X143466829Y-66793183D01*
X143634406Y-66573604D01*
X143769373Y-66332604D01*
X143814986Y-66214703D01*
X143867454Y-66079080D01*
X143869036Y-66074991D01*
X143882393Y-66017368D01*
X143930417Y-65810175D01*
X143931407Y-65805905D01*
X143936675Y-65745087D01*
X143954863Y-65535081D01*
X143954863Y-65535079D01*
X143955241Y-65530715D01*
X143940062Y-65254913D01*
X143927116Y-65189825D01*
X143887031Y-64988306D01*
X143886175Y-64984001D01*
X143794653Y-64723384D01*
X143667322Y-64478263D01*
X143506725Y-64253529D01*
X143423227Y-64166000D01*
X143319091Y-64056838D01*
X143319090Y-64056837D01*
X143316064Y-64053665D01*
X143264532Y-64013040D01*
X143102589Y-63885375D01*
X143099144Y-63882659D01*
X142860293Y-63743923D01*
X142856223Y-63742275D01*
X142856220Y-63742273D01*
X142608343Y-63641873D01*
X142608344Y-63641873D01*
X142604277Y-63640226D01*
X142600022Y-63639169D01*
X142340457Y-63574692D01*
X142340451Y-63574691D01*
X142336204Y-63573636D01*
X142323605Y-63572345D01*
X142103777Y-63549822D01*
X142103769Y-63549822D01*
X142100630Y-63549500D01*
X141929638Y-63549500D01*
X141927470Y-63549654D01*
X141927456Y-63549654D01*
X141798600Y-63558778D01*
X141724470Y-63564027D01*
X141454438Y-63622163D01*
X141450317Y-63623683D01*
X141450318Y-63623683D01*
X141199405Y-63716249D01*
X141199402Y-63716250D01*
X141195291Y-63717767D01*
X141191434Y-63719848D01*
X141191432Y-63719849D01*
X141142725Y-63746130D01*
X140952200Y-63848932D01*
X140730016Y-64013040D01*
X140726888Y-64016120D01*
X140726886Y-64016121D01*
X140673146Y-64069024D01*
X140533171Y-64206817D01*
X140365594Y-64426396D01*
X140230627Y-64667396D01*
X140229046Y-64671483D01*
X140229044Y-64671487D01*
X140153171Y-64867608D01*
X140130964Y-64925009D01*
X140068593Y-65194095D01*
X140068216Y-65198450D01*
X140068215Y-65198455D01*
X140063284Y-65255395D01*
X140044759Y-65469285D01*
X134750500Y-65469285D01*
X134750500Y-63374500D01*
X134770185Y-63307461D01*
X134822989Y-63261706D01*
X134874500Y-63250500D01*
X143463115Y-63250500D01*
X143487306Y-63252883D01*
G37*
%TD.AperFunction*%
%TA.AperFunction,Conductor*%
G36*
X109692539Y-63270185D02*
G01*
X109738294Y-63322989D01*
X109749500Y-63374500D01*
X109749500Y-67213115D01*
X109747117Y-67237306D01*
X109744592Y-67250000D01*
X109746314Y-67258659D01*
X109746974Y-67267045D01*
X109746974Y-67267047D01*
X109755766Y-67378758D01*
X109761076Y-67446226D01*
X109762211Y-67450953D01*
X109762212Y-67450960D01*
X109775505Y-67506329D01*
X109807026Y-67637621D01*
X109882351Y-67819471D01*
X109985196Y-67987298D01*
X110088986Y-68108820D01*
X110098507Y-68119968D01*
X110127078Y-68183730D01*
X110116641Y-68252815D01*
X110070510Y-68305291D01*
X110004217Y-68324500D01*
X107496525Y-68324500D01*
X107429486Y-68304815D01*
X107401522Y-68277705D01*
X107400707Y-68278424D01*
X107395768Y-68272822D01*
X107391531Y-68266657D01*
X107273976Y-68161919D01*
X107134831Y-68088245D01*
X106982128Y-68049889D01*
X106900329Y-68049461D01*
X106832158Y-68049104D01*
X106832157Y-68049104D01*
X106824684Y-68049065D01*
X106817421Y-68050809D01*
X106817418Y-68050809D01*
X106748136Y-68067442D01*
X106671588Y-68085820D01*
X106531679Y-68158032D01*
X106413034Y-68261533D01*
X106322501Y-68390348D01*
X106265309Y-68537039D01*
X106244758Y-68693138D01*
X106245578Y-68700566D01*
X106245578Y-68700568D01*
X106249229Y-68733639D01*
X106262035Y-68849633D01*
X106264601Y-68856645D01*
X106264602Y-68856649D01*
X106281755Y-68903521D01*
X106316143Y-68997490D01*
X106403958Y-69128172D01*
X106453940Y-69173652D01*
X106514878Y-69229102D01*
X106514882Y-69229105D01*
X106520410Y-69234135D01*
X106526980Y-69237702D01*
X106526981Y-69237703D01*
X106645758Y-69302194D01*
X106658776Y-69309262D01*
X106761031Y-69336088D01*
X106803841Y-69347319D01*
X106803843Y-69347319D01*
X106811069Y-69349215D01*
X106888127Y-69350425D01*
X106961025Y-69351571D01*
X106961028Y-69351571D01*
X106968495Y-69351688D01*
X106995530Y-69345496D01*
X107065271Y-69349717D01*
X107121660Y-69390973D01*
X107146793Y-69456166D01*
X107146152Y-69482549D01*
X107144758Y-69493138D01*
X107162035Y-69649633D01*
X107216143Y-69797490D01*
X107303958Y-69928172D01*
X107326183Y-69948395D01*
X107414878Y-70029102D01*
X107414882Y-70029105D01*
X107420410Y-70034135D01*
X107426980Y-70037702D01*
X107426981Y-70037703D01*
X107552208Y-70105696D01*
X107558776Y-70109262D01*
X107661031Y-70136088D01*
X107703841Y-70147319D01*
X107703843Y-70147319D01*
X107711069Y-70149215D01*
X107788127Y-70150425D01*
X107861025Y-70151571D01*
X107861028Y-70151571D01*
X107868495Y-70151688D01*
X107875776Y-70150020D01*
X107875780Y-70150020D01*
X108014681Y-70118207D01*
X108021968Y-70116538D01*
X108162625Y-70045795D01*
X108168306Y-70040943D01*
X108168309Y-70040941D01*
X108276666Y-69948395D01*
X108276667Y-69948394D01*
X108282348Y-69943542D01*
X108289775Y-69933206D01*
X108365991Y-69827141D01*
X108421097Y-69784186D01*
X108466689Y-69775500D01*
X115250500Y-69775500D01*
X115317539Y-69795185D01*
X115363294Y-69847989D01*
X115374500Y-69899500D01*
X115374500Y-72960688D01*
X115372973Y-72980085D01*
X115372058Y-72985862D01*
X115369819Y-73000000D01*
X115370940Y-73007077D01*
X115371346Y-73013271D01*
X115371346Y-73013275D01*
X115385927Y-73235727D01*
X115386556Y-73245327D01*
X115387347Y-73249306D01*
X115387348Y-73249310D01*
X115415178Y-73389220D01*
X115434519Y-73486457D01*
X115480956Y-73623257D01*
X115505332Y-73695064D01*
X115513546Y-73719263D01*
X115622284Y-73939762D01*
X115697365Y-74052129D01*
X115748941Y-74129317D01*
X115758873Y-74144182D01*
X115920976Y-74329024D01*
X116105818Y-74491127D01*
X116109198Y-74493385D01*
X116109200Y-74493387D01*
X116132613Y-74509031D01*
X116310238Y-74627716D01*
X116530737Y-74736454D01*
X116763543Y-74815481D01*
X116782014Y-74819155D01*
X117000690Y-74862652D01*
X117000694Y-74862653D01*
X117004673Y-74863444D01*
X117008721Y-74863709D01*
X117008726Y-74863710D01*
X117236725Y-74878654D01*
X117236729Y-74878654D01*
X117242923Y-74879060D01*
X117250000Y-74880181D01*
X117259641Y-74878654D01*
X117259642Y-74878654D01*
X117269915Y-74877027D01*
X117289312Y-74875500D01*
X118109485Y-74875500D01*
X118176524Y-74895185D01*
X118222279Y-74947989D01*
X118232223Y-75017147D01*
X118203776Y-75080029D01*
X118093180Y-75209521D01*
X117975943Y-75400835D01*
X117974079Y-75405335D01*
X117974077Y-75405339D01*
X117906441Y-75568628D01*
X117890077Y-75608134D01*
X117888940Y-75612870D01*
X117838833Y-75821579D01*
X117838832Y-75821585D01*
X117837697Y-75826313D01*
X117837315Y-75831163D01*
X117837315Y-75831165D01*
X117825471Y-75981659D01*
X117825099Y-75984200D01*
X117824977Y-75984548D01*
X117824500Y-75990055D01*
X117824500Y-75992738D01*
X117824474Y-75993338D01*
X117824209Y-75997697D01*
X117823425Y-76007663D01*
X117822530Y-76019030D01*
X117797646Y-76084318D01*
X117780433Y-76102736D01*
X117713034Y-76161533D01*
X117622501Y-76290348D01*
X117565309Y-76437039D01*
X117544758Y-76593138D01*
X117545578Y-76600566D01*
X117545578Y-76600568D01*
X117547128Y-76614609D01*
X117562035Y-76749633D01*
X117564601Y-76756645D01*
X117564602Y-76756649D01*
X117579953Y-76798597D01*
X117616143Y-76897490D01*
X117640745Y-76934101D01*
X117699596Y-77021680D01*
X117703958Y-77028172D01*
X117726183Y-77048395D01*
X117814878Y-77129102D01*
X117814882Y-77129105D01*
X117820410Y-77134135D01*
X117826980Y-77137702D01*
X117826981Y-77137703D01*
X117932776Y-77195145D01*
X117958776Y-77209262D01*
X118061031Y-77236088D01*
X118103841Y-77247319D01*
X118103843Y-77247319D01*
X118111069Y-77249215D01*
X118188127Y-77250425D01*
X118261025Y-77251571D01*
X118261028Y-77251571D01*
X118268495Y-77251688D01*
X118275776Y-77250020D01*
X118275780Y-77250020D01*
X118414681Y-77218207D01*
X118421968Y-77216538D01*
X118562625Y-77145795D01*
X118568306Y-77140943D01*
X118568309Y-77140941D01*
X118676666Y-77048395D01*
X118676667Y-77048394D01*
X118682348Y-77043542D01*
X118692313Y-77029675D01*
X118762864Y-76931492D01*
X118774224Y-76915683D01*
X118832950Y-76769598D01*
X118834793Y-76756649D01*
X118854562Y-76617744D01*
X118854562Y-76617740D01*
X118855134Y-76613723D01*
X118855278Y-76600000D01*
X118849896Y-76555524D01*
X118837262Y-76451119D01*
X118837261Y-76451115D01*
X118836363Y-76443694D01*
X118813075Y-76382064D01*
X118783354Y-76303408D01*
X118783352Y-76303405D01*
X118780710Y-76296412D01*
X118771786Y-76283427D01*
X118695768Y-76172821D01*
X118695765Y-76172818D01*
X118691531Y-76166657D01*
X118622058Y-76104759D01*
X118585098Y-76045465D01*
X118581326Y-75998293D01*
X118582254Y-75990055D01*
X118590847Y-75913794D01*
X118597023Y-75886730D01*
X118637682Y-75770530D01*
X118649730Y-75745514D01*
X118666647Y-75718591D01*
X118715223Y-75641284D01*
X118732535Y-75619576D01*
X118819576Y-75532535D01*
X118841285Y-75515222D01*
X118861561Y-75502482D01*
X118945514Y-75449730D01*
X118970531Y-75437682D01*
X119086730Y-75397023D01*
X119113794Y-75390847D01*
X119168432Y-75384691D01*
X119216038Y-75379327D01*
X119230601Y-75379652D01*
X119230601Y-75378655D01*
X119240362Y-75378655D01*
X119250000Y-75380181D01*
X119261140Y-75378417D01*
X119269915Y-75377027D01*
X119289312Y-75375500D01*
X123960688Y-75375500D01*
X123980085Y-75377027D01*
X123990358Y-75378654D01*
X123990359Y-75378654D01*
X124000000Y-75380181D01*
X124009641Y-75378654D01*
X124011622Y-75378654D01*
X124035065Y-75377469D01*
X124286899Y-75391612D01*
X124300717Y-75393169D01*
X124438928Y-75416652D01*
X124577147Y-75440137D01*
X124590686Y-75443227D01*
X124860132Y-75520852D01*
X124873251Y-75525443D01*
X125132293Y-75632742D01*
X125144821Y-75638775D01*
X125263578Y-75704409D01*
X125390228Y-75774406D01*
X125401997Y-75781802D01*
X125630669Y-75944054D01*
X125641541Y-75952723D01*
X125850609Y-76139558D01*
X125860442Y-76149391D01*
X126047277Y-76358459D01*
X126055946Y-76369331D01*
X126218198Y-76598003D01*
X126225594Y-76609772D01*
X126283951Y-76715361D01*
X126361225Y-76855179D01*
X126367258Y-76867707D01*
X126474557Y-77126749D01*
X126479148Y-77139868D01*
X126556773Y-77409314D01*
X126559863Y-77422853D01*
X126578524Y-77532678D01*
X126606831Y-77699283D01*
X126608388Y-77713101D01*
X126622531Y-77964935D01*
X126621346Y-77988378D01*
X126621346Y-77990359D01*
X126619819Y-78000000D01*
X126621346Y-78009641D01*
X126621346Y-78009642D01*
X126622973Y-78019915D01*
X126624500Y-78039312D01*
X126624500Y-80960688D01*
X126622973Y-80980085D01*
X126619819Y-81000000D01*
X126621346Y-81009642D01*
X126621346Y-81019397D01*
X126621206Y-81019397D01*
X126621795Y-81034370D01*
X126609746Y-81187480D01*
X126608344Y-81205290D01*
X126605301Y-81224503D01*
X126576826Y-81343109D01*
X126559505Y-81415255D01*
X126553492Y-81433760D01*
X126523869Y-81505277D01*
X126478788Y-81614113D01*
X126478424Y-81614991D01*
X126469590Y-81632328D01*
X126367090Y-81799593D01*
X126355653Y-81815334D01*
X126228256Y-81964497D01*
X126214497Y-81978256D01*
X126065334Y-82105653D01*
X126049593Y-82117090D01*
X125882328Y-82219590D01*
X125864991Y-82228424D01*
X125683760Y-82303492D01*
X125665255Y-82309505D01*
X125659370Y-82310918D01*
X125474503Y-82355301D01*
X125455294Y-82358343D01*
X125284370Y-82371795D01*
X125269397Y-82371206D01*
X125269397Y-82371346D01*
X125259642Y-82371346D01*
X125250000Y-82369819D01*
X125240359Y-82371346D01*
X125240358Y-82371346D01*
X125230085Y-82372973D01*
X125210688Y-82374500D01*
X122078172Y-82374500D01*
X122011133Y-82354815D01*
X121965378Y-82302011D01*
X121958804Y-82283105D01*
X121958206Y-82278165D01*
X121902553Y-82130883D01*
X121885213Y-82105653D01*
X121817611Y-82007292D01*
X121817608Y-82007289D01*
X121813374Y-82001128D01*
X121755463Y-81949531D01*
X121701402Y-81901364D01*
X121701401Y-81901363D01*
X121695819Y-81896390D01*
X121556674Y-81822716D01*
X121403971Y-81784360D01*
X121322172Y-81783932D01*
X121254001Y-81783575D01*
X121254000Y-81783575D01*
X121246527Y-81783536D01*
X121239264Y-81785280D01*
X121239261Y-81785280D01*
X121169979Y-81801914D01*
X121093431Y-81820291D01*
X120953522Y-81892503D01*
X120947891Y-81897416D01*
X120947890Y-81897416D01*
X120894199Y-81944254D01*
X120834877Y-81996004D01*
X120744344Y-82124819D01*
X120687152Y-82271510D01*
X120666601Y-82427609D01*
X120667421Y-82435037D01*
X120667421Y-82435039D01*
X120671551Y-82472444D01*
X120683878Y-82584104D01*
X120686444Y-82591116D01*
X120686445Y-82591120D01*
X120729176Y-82707886D01*
X120733729Y-82777607D01*
X120699865Y-82838722D01*
X120638336Y-82871827D01*
X120612728Y-82874500D01*
X107789312Y-82874500D01*
X107769915Y-82872973D01*
X107762678Y-82871827D01*
X107750000Y-82869819D01*
X107748707Y-82870024D01*
X107738454Y-82870696D01*
X107476013Y-82887897D01*
X107476012Y-82887897D01*
X107471971Y-82888162D01*
X107198700Y-82942519D01*
X106934861Y-83032080D01*
X106684970Y-83155313D01*
X106534913Y-83255578D01*
X106472392Y-83297353D01*
X106453301Y-83310109D01*
X106243819Y-83493819D01*
X106060109Y-83703301D01*
X106057851Y-83706681D01*
X106057849Y-83706683D01*
X106055314Y-83710477D01*
X105905313Y-83934970D01*
X105782080Y-84184861D01*
X105780775Y-84188706D01*
X105780774Y-84188708D01*
X105779634Y-84192067D01*
X105692519Y-84448700D01*
X105638162Y-84721971D01*
X105637897Y-84726012D01*
X105637897Y-84726013D01*
X105620842Y-84986231D01*
X105620024Y-84998707D01*
X105619819Y-85000000D01*
X105621347Y-85009647D01*
X105622973Y-85019915D01*
X105624500Y-85039312D01*
X105624500Y-89460688D01*
X105622973Y-89480085D01*
X105619819Y-89500000D01*
X105621345Y-89509638D01*
X105621345Y-89519399D01*
X105620714Y-89519399D01*
X105621145Y-89534059D01*
X105608894Y-89658451D01*
X105604152Y-89682292D01*
X105561478Y-89822970D01*
X105552175Y-89845429D01*
X105482876Y-89975077D01*
X105469372Y-89995287D01*
X105376108Y-90108930D01*
X105358930Y-90126108D01*
X105253741Y-90212434D01*
X105245287Y-90219372D01*
X105225077Y-90232876D01*
X105095429Y-90302175D01*
X105072970Y-90311478D01*
X104932292Y-90354152D01*
X104908451Y-90358894D01*
X104784059Y-90371145D01*
X104769399Y-90370714D01*
X104769399Y-90371345D01*
X104759638Y-90371345D01*
X104750000Y-90369819D01*
X104740359Y-90371346D01*
X104730085Y-90372973D01*
X104710688Y-90374500D01*
X102979324Y-90374500D01*
X102912285Y-90354815D01*
X102866530Y-90302011D01*
X102856586Y-90232853D01*
X102885611Y-90169297D01*
X102939465Y-90133081D01*
X102939931Y-90132923D01*
X102949531Y-90129664D01*
X103050897Y-90072897D01*
X103121048Y-90033611D01*
X103121050Y-90033610D01*
X103126001Y-90030837D01*
X103142326Y-90017260D01*
X103277138Y-89905137D01*
X103281505Y-89901505D01*
X103346822Y-89822970D01*
X103407206Y-89750367D01*
X103407207Y-89750366D01*
X103410837Y-89746001D01*
X103419953Y-89729724D01*
X103459867Y-89658451D01*
X103509664Y-89569531D01*
X103574678Y-89378007D01*
X103587840Y-89287228D01*
X103603176Y-89181458D01*
X103603176Y-89181453D01*
X103603700Y-89177842D01*
X103605215Y-89120000D01*
X103586708Y-88918591D01*
X103555244Y-88807026D01*
X103533352Y-88729403D01*
X103533351Y-88729400D01*
X103531807Y-88723926D01*
X103442351Y-88542527D01*
X103321335Y-88380467D01*
X103247509Y-88312223D01*
X103176988Y-88247034D01*
X103176986Y-88247033D01*
X103172812Y-88243174D01*
X103151319Y-88229613D01*
X103006566Y-88138280D01*
X103006564Y-88138279D01*
X103001757Y-88135246D01*
X102813898Y-88060298D01*
X102808317Y-88059188D01*
X102808314Y-88059187D01*
X102740373Y-88045673D01*
X102615526Y-88020839D01*
X102609839Y-88020765D01*
X102609834Y-88020764D01*
X102418975Y-88018266D01*
X102418970Y-88018266D01*
X102413286Y-88018192D01*
X102407682Y-88019155D01*
X102407681Y-88019155D01*
X102219546Y-88051482D01*
X102219543Y-88051483D01*
X102213949Y-88052444D01*
X102192660Y-88060298D01*
X102029521Y-88120483D01*
X102029517Y-88120485D01*
X102024193Y-88122449D01*
X102019310Y-88125354D01*
X102019308Y-88125355D01*
X101912233Y-88189058D01*
X101850371Y-88225862D01*
X101698305Y-88359220D01*
X101573089Y-88518057D01*
X101570442Y-88523088D01*
X101504824Y-88647806D01*
X101478914Y-88697053D01*
X101477229Y-88702479D01*
X101477228Y-88702482D01*
X101444767Y-88807026D01*
X101418937Y-88890213D01*
X101395164Y-89091069D01*
X101395535Y-89096731D01*
X101395535Y-89096735D01*
X101400851Y-89177842D01*
X101408392Y-89292894D01*
X101458178Y-89488928D01*
X101460554Y-89494082D01*
X101529140Y-89642854D01*
X101542856Y-89672607D01*
X101659588Y-89837780D01*
X101804466Y-89978913D01*
X101972637Y-90091282D01*
X101977865Y-90093528D01*
X102150935Y-90167885D01*
X102204760Y-90212434D01*
X102225955Y-90279012D01*
X102207791Y-90346479D01*
X102156035Y-90393416D01*
X102124339Y-90403784D01*
X102070167Y-90413711D01*
X101934149Y-90438637D01*
X101934145Y-90438638D01*
X101930467Y-90439312D01*
X101656096Y-90524809D01*
X101652667Y-90526352D01*
X101652665Y-90526353D01*
X101627447Y-90537703D01*
X101394032Y-90642755D01*
X101211570Y-90753057D01*
X101157527Y-90785727D01*
X101148096Y-90791428D01*
X100921873Y-90968663D01*
X100718663Y-91171873D01*
X100541428Y-91398096D01*
X100539492Y-91401299D01*
X100539491Y-91401300D01*
X100480617Y-91498690D01*
X100429089Y-91545877D01*
X100360230Y-91557716D01*
X100295901Y-91530447D01*
X100256527Y-91472729D01*
X100250500Y-91434540D01*
X100250500Y-86551069D01*
X101395164Y-86551069D01*
X101395535Y-86556731D01*
X101395535Y-86556735D01*
X101400719Y-86635820D01*
X101408392Y-86752894D01*
X101458178Y-86948928D01*
X101460554Y-86954082D01*
X101539580Y-87125500D01*
X101542856Y-87132607D01*
X101659588Y-87297780D01*
X101804466Y-87438913D01*
X101972637Y-87551282D01*
X102158470Y-87631122D01*
X102240276Y-87649633D01*
X102350193Y-87674505D01*
X102350195Y-87674505D01*
X102355740Y-87675760D01*
X102473135Y-87680372D01*
X102552161Y-87683477D01*
X102552163Y-87683477D01*
X102557842Y-87683700D01*
X102563462Y-87682885D01*
X102563465Y-87682885D01*
X102752387Y-87655493D01*
X102752389Y-87655493D01*
X102758007Y-87654678D01*
X102763384Y-87652853D01*
X102763387Y-87652852D01*
X102888424Y-87610407D01*
X102949531Y-87589664D01*
X103099618Y-87505612D01*
X103121048Y-87493611D01*
X103121050Y-87493610D01*
X103126001Y-87490837D01*
X103188433Y-87438913D01*
X103266103Y-87374315D01*
X103281505Y-87361505D01*
X103328106Y-87305474D01*
X103407206Y-87210367D01*
X103407207Y-87210366D01*
X103410837Y-87206001D01*
X103418133Y-87192974D01*
X103481359Y-87080073D01*
X103509664Y-87029531D01*
X103566036Y-86863465D01*
X103572852Y-86843387D01*
X103572853Y-86843384D01*
X103574678Y-86838007D01*
X103577630Y-86817650D01*
X103603176Y-86641458D01*
X103603176Y-86641453D01*
X103603700Y-86637842D01*
X103605215Y-86580000D01*
X103586708Y-86378591D01*
X103548869Y-86244422D01*
X103533352Y-86189403D01*
X103533351Y-86189400D01*
X103531807Y-86183926D01*
X103442351Y-86002527D01*
X103321335Y-85840467D01*
X103172812Y-85703174D01*
X103140762Y-85682952D01*
X103006566Y-85598280D01*
X103006564Y-85598279D01*
X103001757Y-85595246D01*
X102813898Y-85520298D01*
X102808317Y-85519188D01*
X102808314Y-85519187D01*
X102740373Y-85505673D01*
X102615526Y-85480839D01*
X102609839Y-85480765D01*
X102609834Y-85480764D01*
X102418975Y-85478266D01*
X102418970Y-85478266D01*
X102413286Y-85478192D01*
X102407682Y-85479155D01*
X102407681Y-85479155D01*
X102219546Y-85511482D01*
X102219543Y-85511483D01*
X102213949Y-85512444D01*
X102192660Y-85520298D01*
X102029521Y-85580483D01*
X102029517Y-85580485D01*
X102024193Y-85582449D01*
X102019310Y-85585354D01*
X102019308Y-85585355D01*
X101964435Y-85618001D01*
X101850371Y-85685862D01*
X101698305Y-85819220D01*
X101573089Y-85978057D01*
X101478914Y-86157053D01*
X101477229Y-86162479D01*
X101477228Y-86162482D01*
X101450709Y-86247888D01*
X101418937Y-86350213D01*
X101395164Y-86551069D01*
X100250500Y-86551069D01*
X100250500Y-84286885D01*
X100252883Y-84262694D01*
X100253025Y-84261979D01*
X100255408Y-84250000D01*
X100254342Y-84244640D01*
X100237672Y-84043469D01*
X100208219Y-83927162D01*
X100188057Y-83847542D01*
X100188055Y-83847537D01*
X100186798Y-83842572D01*
X100182650Y-83833114D01*
X100128079Y-83708706D01*
X100103551Y-83652788D01*
X100028023Y-83537183D01*
X99993010Y-83483591D01*
X99993006Y-83483586D01*
X99990202Y-83479294D01*
X99849843Y-83326824D01*
X99811979Y-83297353D01*
X99771166Y-83240643D01*
X99767493Y-83170870D01*
X99802124Y-83110186D01*
X99864066Y-83077860D01*
X99888142Y-83075500D01*
X101603727Y-83075500D01*
X101670766Y-83095185D01*
X101716521Y-83147989D01*
X101726465Y-83217147D01*
X101696930Y-83278136D01*
X101698305Y-83279220D01*
X101573089Y-83438057D01*
X101478914Y-83617053D01*
X101477229Y-83622479D01*
X101477228Y-83622482D01*
X101450455Y-83708706D01*
X101418937Y-83810213D01*
X101395164Y-84011069D01*
X101395535Y-84016731D01*
X101395535Y-84016735D01*
X101400813Y-84097253D01*
X101408392Y-84212894D01*
X101458178Y-84408928D01*
X101460554Y-84414082D01*
X101504144Y-84508634D01*
X101542856Y-84592607D01*
X101659588Y-84757780D01*
X101804466Y-84898913D01*
X101972637Y-85011282D01*
X102158470Y-85091122D01*
X102214043Y-85103697D01*
X102350193Y-85134505D01*
X102350195Y-85134505D01*
X102355740Y-85135760D01*
X102473135Y-85140372D01*
X102552161Y-85143477D01*
X102552163Y-85143477D01*
X102557842Y-85143700D01*
X102563462Y-85142885D01*
X102563465Y-85142885D01*
X102752387Y-85115493D01*
X102752389Y-85115493D01*
X102758007Y-85114678D01*
X102763384Y-85112853D01*
X102763387Y-85112852D01*
X102848090Y-85084099D01*
X102949531Y-85049664D01*
X103054864Y-84990675D01*
X103121048Y-84953611D01*
X103121050Y-84953610D01*
X103126001Y-84950837D01*
X103149289Y-84931469D01*
X103277138Y-84825137D01*
X103281505Y-84821505D01*
X103341901Y-84748887D01*
X103407206Y-84670367D01*
X103407207Y-84670366D01*
X103410837Y-84666001D01*
X103430958Y-84630073D01*
X103493598Y-84518219D01*
X103509664Y-84489531D01*
X103548920Y-84373886D01*
X103572852Y-84303387D01*
X103572853Y-84303384D01*
X103574678Y-84298007D01*
X103579902Y-84261979D01*
X103603176Y-84101458D01*
X103603176Y-84101453D01*
X103603700Y-84097842D01*
X103603973Y-84087441D01*
X103605119Y-84043661D01*
X103605215Y-84040000D01*
X103586708Y-83838591D01*
X103549506Y-83706683D01*
X103533352Y-83649403D01*
X103533351Y-83649400D01*
X103531807Y-83643926D01*
X103442351Y-83462527D01*
X103321335Y-83300467D01*
X103274900Y-83257543D01*
X103239033Y-83197582D01*
X103241278Y-83127748D01*
X103280921Y-83070214D01*
X103330124Y-83045913D01*
X103456133Y-83015661D01*
X103460869Y-83014524D01*
X103653625Y-82934681D01*
X103831519Y-82825668D01*
X103990168Y-82690168D01*
X104015815Y-82660139D01*
X104122502Y-82535226D01*
X104122503Y-82535225D01*
X104125668Y-82531519D01*
X104234681Y-82353625D01*
X104314524Y-82160869D01*
X104328249Y-82103700D01*
X104362093Y-81962729D01*
X104362094Y-81962723D01*
X104363229Y-81957995D01*
X104366941Y-81910837D01*
X104378642Y-81762159D01*
X104378654Y-81762056D01*
X104378654Y-81762005D01*
X104379024Y-81757304D01*
X104380181Y-81750000D01*
X104378655Y-81740363D01*
X104378655Y-81730600D01*
X104379653Y-81730600D01*
X104379327Y-81716038D01*
X104384188Y-81672894D01*
X104389594Y-81624919D01*
X104395769Y-81597858D01*
X104432733Y-81492222D01*
X104444778Y-81467210D01*
X104455887Y-81449531D01*
X104504314Y-81372459D01*
X104521627Y-81350750D01*
X104600750Y-81271627D01*
X104622459Y-81254314D01*
X104669892Y-81224510D01*
X104717212Y-81194777D01*
X104742222Y-81182733D01*
X104847858Y-81145769D01*
X104874919Y-81139594D01*
X104958458Y-81130181D01*
X104966038Y-81129327D01*
X104980600Y-81129653D01*
X104980600Y-81128655D01*
X104990363Y-81128655D01*
X105000000Y-81130181D01*
X105012009Y-81128279D01*
X105019915Y-81127027D01*
X105039312Y-81125500D01*
X121460688Y-81125500D01*
X121480085Y-81127027D01*
X121490358Y-81128654D01*
X121490359Y-81128654D01*
X121500000Y-81130181D01*
X121509640Y-81128654D01*
X121515727Y-81128654D01*
X121531903Y-81129714D01*
X121542846Y-81131154D01*
X121574111Y-81139532D01*
X121579512Y-81141769D01*
X121598957Y-81149823D01*
X121626985Y-81166003D01*
X121635654Y-81172654D01*
X121647853Y-81183352D01*
X121652228Y-81187726D01*
X121657963Y-81195620D01*
X121665855Y-81201353D01*
X121674272Y-81207468D01*
X121689072Y-81220109D01*
X121706679Y-81237716D01*
X121719316Y-81252512D01*
X121731171Y-81268829D01*
X121739067Y-81274566D01*
X121739826Y-81275325D01*
X121744123Y-81278712D01*
X121849752Y-81368928D01*
X121878908Y-81393830D01*
X121883056Y-81396372D01*
X122039693Y-81492364D01*
X122039698Y-81492367D01*
X122043850Y-81494911D01*
X122048351Y-81496776D01*
X122048352Y-81496776D01*
X122218073Y-81567082D01*
X122218079Y-81567084D01*
X122222574Y-81568946D01*
X122410678Y-81614113D01*
X122479213Y-81619510D01*
X122530757Y-81623570D01*
X122536252Y-81624374D01*
X122538101Y-81625023D01*
X122543608Y-81625500D01*
X122550398Y-81625500D01*
X122560133Y-81625883D01*
X122587625Y-81628048D01*
X122592739Y-81628653D01*
X122593889Y-81628653D01*
X122603532Y-81630181D01*
X122623459Y-81627026D01*
X122642850Y-81625500D01*
X123210688Y-81625500D01*
X123230085Y-81627027D01*
X123240361Y-81628655D01*
X123240365Y-81628655D01*
X123250000Y-81630181D01*
X123255388Y-81629328D01*
X123446188Y-81612635D01*
X123636414Y-81561664D01*
X123641314Y-81559379D01*
X123641317Y-81559378D01*
X123809986Y-81480727D01*
X123809991Y-81480724D01*
X123814900Y-81478435D01*
X123976221Y-81365476D01*
X124115476Y-81226221D01*
X124118580Y-81221788D01*
X124118585Y-81221782D01*
X124160602Y-81161775D01*
X124218832Y-81117256D01*
X124221968Y-81116538D01*
X124236159Y-81109401D01*
X124310482Y-81072020D01*
X124362625Y-81045795D01*
X124368306Y-81040943D01*
X124368309Y-81040941D01*
X124476666Y-80948395D01*
X124476667Y-80948394D01*
X124482348Y-80943542D01*
X124493393Y-80928172D01*
X124558114Y-80838102D01*
X124574224Y-80815683D01*
X124632950Y-80669598D01*
X124633395Y-80669777D01*
X124667220Y-80614281D01*
X124730067Y-80583750D01*
X124799443Y-80592044D01*
X124853321Y-80636528D01*
X124867080Y-80663419D01*
X124916143Y-80797490D01*
X125003958Y-80928172D01*
X125051101Y-80971069D01*
X125114878Y-81029102D01*
X125114882Y-81029105D01*
X125120410Y-81034135D01*
X125126980Y-81037702D01*
X125126981Y-81037703D01*
X125248948Y-81103926D01*
X125258776Y-81109262D01*
X125350347Y-81133285D01*
X125403841Y-81147319D01*
X125403843Y-81147319D01*
X125411069Y-81149215D01*
X125488127Y-81150425D01*
X125561025Y-81151571D01*
X125561028Y-81151571D01*
X125568495Y-81151688D01*
X125575776Y-81150020D01*
X125575780Y-81150020D01*
X125714681Y-81118207D01*
X125721968Y-81116538D01*
X125862625Y-81045795D01*
X125868306Y-81040943D01*
X125868309Y-81040941D01*
X125976666Y-80948395D01*
X125976667Y-80948394D01*
X125982348Y-80943542D01*
X125993393Y-80928172D01*
X126058114Y-80838102D01*
X126074224Y-80815683D01*
X126132950Y-80669598D01*
X126135182Y-80653917D01*
X126154562Y-80517744D01*
X126154562Y-80517740D01*
X126155134Y-80513723D01*
X126155278Y-80500000D01*
X126151403Y-80467977D01*
X126137262Y-80351119D01*
X126137261Y-80351115D01*
X126136363Y-80343694D01*
X126104914Y-80260467D01*
X126083354Y-80203408D01*
X126083352Y-80203405D01*
X126080710Y-80196412D01*
X126076473Y-80190247D01*
X125995768Y-80072821D01*
X125995765Y-80072818D01*
X125991531Y-80066657D01*
X125917259Y-80000483D01*
X125879559Y-79966893D01*
X125879558Y-79966892D01*
X125873976Y-79961919D01*
X125734831Y-79888245D01*
X125727577Y-79886423D01*
X125720603Y-79883746D01*
X125721527Y-79881339D01*
X125671879Y-79852136D01*
X125660737Y-79838419D01*
X125618582Y-79778214D01*
X125618578Y-79778210D01*
X125615476Y-79773779D01*
X125476221Y-79634524D01*
X125314900Y-79521565D01*
X125309991Y-79519276D01*
X125309986Y-79519273D01*
X125141317Y-79440622D01*
X125141314Y-79440621D01*
X125136414Y-79438336D01*
X125131193Y-79436937D01*
X124951411Y-79388764D01*
X124951406Y-79388763D01*
X124946188Y-79387365D01*
X124874308Y-79381076D01*
X124822774Y-79376567D01*
X124817880Y-79375829D01*
X124815452Y-79374977D01*
X124809945Y-79374500D01*
X124804554Y-79374500D01*
X124793747Y-79374028D01*
X124763069Y-79371344D01*
X124755388Y-79370672D01*
X124750000Y-79369819D01*
X124740365Y-79371345D01*
X124740361Y-79371345D01*
X124730085Y-79372973D01*
X124710688Y-79374500D01*
X105039312Y-79374500D01*
X105019915Y-79372973D01*
X105009642Y-79371346D01*
X105009641Y-79371346D01*
X105000000Y-79369819D01*
X104998346Y-79370081D01*
X104935615Y-79351661D01*
X104889860Y-79298857D01*
X104879781Y-79252526D01*
X104880181Y-79250000D01*
X104877027Y-79230085D01*
X104875500Y-79210688D01*
X104875500Y-76706395D01*
X107419763Y-76706395D01*
X107434236Y-76830563D01*
X107438657Y-76839811D01*
X107474977Y-76915789D01*
X107488151Y-76943349D01*
X107495327Y-76950664D01*
X107495328Y-76950666D01*
X107531278Y-76987314D01*
X107575691Y-77032590D01*
X107687418Y-77088664D01*
X107811285Y-77105525D01*
X107821342Y-77103543D01*
X107821344Y-77103543D01*
X107885024Y-77090993D01*
X107933935Y-77081354D01*
X108042143Y-77018757D01*
X108046089Y-77014886D01*
X109006352Y-75894579D01*
X109064927Y-75856489D01*
X109134795Y-75856114D01*
X109193775Y-75893572D01*
X109223141Y-75956971D01*
X109224500Y-75975277D01*
X109224500Y-76685688D01*
X109222973Y-76705085D01*
X109221345Y-76715361D01*
X109221345Y-76715362D01*
X109219819Y-76725000D01*
X109220672Y-76730388D01*
X109237365Y-76921188D01*
X109251081Y-76972377D01*
X109286381Y-77104116D01*
X109288336Y-77111414D01*
X109290621Y-77116314D01*
X109290622Y-77116317D01*
X109369273Y-77284986D01*
X109369276Y-77284991D01*
X109371565Y-77289900D01*
X109484524Y-77451221D01*
X109623779Y-77590476D01*
X109785101Y-77703435D01*
X109963586Y-77786664D01*
X109968809Y-77788063D01*
X109968813Y-77788065D01*
X110118101Y-77828066D01*
X110153812Y-77837635D01*
X110350000Y-77854799D01*
X110546188Y-77837635D01*
X110680101Y-77801753D01*
X110731193Y-77788063D01*
X110736414Y-77786664D01*
X110741314Y-77784379D01*
X110741317Y-77784378D01*
X110909986Y-77705727D01*
X110909991Y-77705724D01*
X110914900Y-77703435D01*
X111076221Y-77590476D01*
X111215476Y-77451221D01*
X111328435Y-77289900D01*
X111330724Y-77284991D01*
X111330727Y-77284986D01*
X111409378Y-77116317D01*
X111409379Y-77116314D01*
X111411664Y-77111414D01*
X111413620Y-77104116D01*
X111448919Y-76972377D01*
X111462635Y-76921188D01*
X111479328Y-76730388D01*
X111480181Y-76725000D01*
X111478655Y-76715361D01*
X111465632Y-76633140D01*
X111461574Y-76607518D01*
X111407573Y-76501535D01*
X111323465Y-76417427D01*
X111217482Y-76363426D01*
X111100000Y-76344819D01*
X110982518Y-76363426D01*
X110973819Y-76367858D01*
X110973820Y-76367858D01*
X110964177Y-76372771D01*
X110895508Y-76385668D01*
X110830767Y-76359393D01*
X110809505Y-76337773D01*
X110796095Y-76320297D01*
X110791149Y-76313851D01*
X110667798Y-76219200D01*
X110660293Y-76216091D01*
X110660289Y-76216089D01*
X110531660Y-76162809D01*
X110531658Y-76162808D01*
X110524151Y-76159699D01*
X110370000Y-76139405D01*
X110215849Y-76159699D01*
X110208343Y-76162808D01*
X110208340Y-76162809D01*
X110146953Y-76188237D01*
X110077484Y-76195706D01*
X110015005Y-76164431D01*
X109979352Y-76104343D01*
X109975500Y-76073676D01*
X109975500Y-75124500D01*
X109995185Y-75057461D01*
X110047989Y-75011706D01*
X110099500Y-75000500D01*
X110842948Y-75000500D01*
X110909987Y-75020185D01*
X110943851Y-75052426D01*
X112312574Y-76968638D01*
X112316191Y-76972256D01*
X112316193Y-76972259D01*
X112366576Y-77022664D01*
X112378594Y-77034687D01*
X112387793Y-77039196D01*
X112387796Y-77039198D01*
X112460556Y-77074861D01*
X112490844Y-77089707D01*
X112559893Y-77098445D01*
X112604699Y-77104116D01*
X112604701Y-77104116D01*
X112614864Y-77105402D01*
X112695777Y-77088664D01*
X112727243Y-77082155D01*
X112727245Y-77082154D01*
X112737282Y-77080078D01*
X112844896Y-77016465D01*
X112926103Y-76921426D01*
X112972147Y-76805205D01*
X112974184Y-76762201D01*
X112977578Y-76690575D01*
X112977578Y-76690574D01*
X112978063Y-76680336D01*
X112959724Y-76617160D01*
X112945386Y-76567771D01*
X112945385Y-76567769D01*
X112943212Y-76560283D01*
X112940399Y-76555524D01*
X111412681Y-74416719D01*
X111409419Y-74411916D01*
X111387133Y-74377402D01*
X111387132Y-74377401D01*
X111381572Y-74368790D01*
X111375615Y-74364094D01*
X111371083Y-74358482D01*
X109923912Y-72332442D01*
X109915687Y-72319251D01*
X109905672Y-72300690D01*
X109900806Y-72291671D01*
X109862124Y-72255914D01*
X109858615Y-72252538D01*
X109847303Y-72241221D01*
X109821406Y-72215313D01*
X109814585Y-72211970D01*
X109809009Y-72206815D01*
X109760820Y-72185511D01*
X109756475Y-72183486D01*
X109709156Y-72160292D01*
X109701619Y-72159338D01*
X109694674Y-72156268D01*
X109684462Y-72155384D01*
X109684456Y-72155382D01*
X109642234Y-72151725D01*
X109637368Y-72151207D01*
X109611649Y-72147953D01*
X109585136Y-72144598D01*
X109577696Y-72146137D01*
X109570131Y-72145482D01*
X109519027Y-72158177D01*
X109514273Y-72159257D01*
X109498016Y-72162620D01*
X109472757Y-72167845D01*
X109472755Y-72167846D01*
X109462718Y-72169922D01*
X109456179Y-72173787D01*
X109448809Y-72175618D01*
X109440205Y-72181173D01*
X109440199Y-72181176D01*
X109404576Y-72204178D01*
X109400414Y-72206751D01*
X109355104Y-72233535D01*
X109350172Y-72239307D01*
X109343790Y-72243428D01*
X109311183Y-72284790D01*
X109308098Y-72288547D01*
X109273897Y-72328574D01*
X109271100Y-72335635D01*
X109266397Y-72341600D01*
X109263001Y-72351270D01*
X109263000Y-72351272D01*
X109248947Y-72391290D01*
X109247243Y-72395851D01*
X109227853Y-72444794D01*
X109227494Y-72452382D01*
X109224977Y-72459548D01*
X109224500Y-72465055D01*
X109224500Y-72512632D01*
X109224361Y-72518500D01*
X109223465Y-72537422D01*
X109221937Y-72569664D01*
X109224070Y-72577013D01*
X109224500Y-72584315D01*
X109224500Y-73323324D01*
X109204815Y-73390363D01*
X109152011Y-73436118D01*
X109082853Y-73446062D01*
X109019297Y-73417037D01*
X109008332Y-73406276D01*
X108061661Y-72354419D01*
X108061660Y-72354418D01*
X108058240Y-72350618D01*
X107985218Y-72292403D01*
X107974452Y-72288556D01*
X107877151Y-72253788D01*
X107877150Y-72253788D01*
X107867498Y-72250339D01*
X107803307Y-72249484D01*
X107752747Y-72248811D01*
X107752745Y-72248811D01*
X107742501Y-72248675D01*
X107623702Y-72287590D01*
X107523914Y-72362888D01*
X107453896Y-72466448D01*
X107451215Y-72476343D01*
X107451214Y-72476344D01*
X107436126Y-72532023D01*
X107421199Y-72587105D01*
X107429347Y-72711848D01*
X107477463Y-72827227D01*
X107480792Y-72831639D01*
X109023532Y-74545795D01*
X109027396Y-74550088D01*
X109057612Y-74613087D01*
X109048972Y-74682420D01*
X109029377Y-74713736D01*
X107886945Y-76046574D01*
X107553780Y-76435267D01*
X107494599Y-76504311D01*
X107446290Y-76584233D01*
X107419763Y-76706395D01*
X104875500Y-76706395D01*
X104875500Y-71039312D01*
X104877027Y-71019915D01*
X104878664Y-71009580D01*
X104878664Y-71009578D01*
X104880181Y-71000000D01*
X104880171Y-70999936D01*
X104861490Y-70619676D01*
X104831572Y-70417984D01*
X104806063Y-70246015D01*
X104806062Y-70246012D01*
X104805618Y-70243016D01*
X104713095Y-69873645D01*
X104688067Y-69803697D01*
X104585843Y-69518000D01*
X104585841Y-69517996D01*
X104584813Y-69515122D01*
X104422008Y-69170899D01*
X104226247Y-68844291D01*
X104224447Y-68841864D01*
X104224441Y-68841855D01*
X104001227Y-68540887D01*
X104001225Y-68540885D01*
X103999415Y-68538444D01*
X103997374Y-68536192D01*
X103997369Y-68536186D01*
X103745739Y-68258556D01*
X103743697Y-68256303D01*
X103663625Y-68183730D01*
X103463814Y-68002631D01*
X103463808Y-68002626D01*
X103461556Y-68000585D01*
X103457902Y-67997875D01*
X103158145Y-67775559D01*
X103158136Y-67775553D01*
X103155709Y-67773753D01*
X103153103Y-67772191D01*
X102910019Y-67626492D01*
X102862637Y-67575143D01*
X102850539Y-67506329D01*
X102877565Y-67441898D01*
X102935134Y-67402306D01*
X102947644Y-67398918D01*
X103045562Y-67377837D01*
X103235011Y-67307946D01*
X103300595Y-67283751D01*
X103300598Y-67283750D01*
X103304709Y-67282233D01*
X103353185Y-67256077D01*
X103432807Y-67213115D01*
X103547800Y-67151068D01*
X103588076Y-67121320D01*
X103766453Y-66989568D01*
X103769984Y-66986960D01*
X103777897Y-66979171D01*
X103871817Y-66886714D01*
X103966829Y-66793183D01*
X104134406Y-66573604D01*
X104269373Y-66332604D01*
X104314986Y-66214703D01*
X104367454Y-66079080D01*
X104369036Y-66074991D01*
X104382393Y-66017368D01*
X104430417Y-65810175D01*
X104431407Y-65805905D01*
X104436675Y-65745087D01*
X104454863Y-65535081D01*
X104454863Y-65535079D01*
X104455241Y-65530715D01*
X104440062Y-65254913D01*
X104427116Y-65189825D01*
X104387031Y-64988306D01*
X104386175Y-64984001D01*
X104294653Y-64723384D01*
X104167322Y-64478263D01*
X104006725Y-64253529D01*
X103923227Y-64166000D01*
X103819091Y-64056838D01*
X103819090Y-64056837D01*
X103816064Y-64053665D01*
X103764532Y-64013040D01*
X103602589Y-63885375D01*
X103599144Y-63882659D01*
X103360293Y-63743923D01*
X103356223Y-63742275D01*
X103356220Y-63742273D01*
X103108343Y-63641873D01*
X103108344Y-63641873D01*
X103104277Y-63640226D01*
X103100022Y-63639169D01*
X102840457Y-63574692D01*
X102840451Y-63574691D01*
X102836204Y-63573636D01*
X102823605Y-63572345D01*
X102603777Y-63549822D01*
X102603769Y-63549822D01*
X102600630Y-63549500D01*
X102429638Y-63549500D01*
X102427470Y-63549654D01*
X102427456Y-63549654D01*
X102298600Y-63558778D01*
X102224470Y-63564027D01*
X101954438Y-63622163D01*
X101950317Y-63623683D01*
X101950318Y-63623683D01*
X101699405Y-63716249D01*
X101699402Y-63716250D01*
X101695291Y-63717767D01*
X101691434Y-63719848D01*
X101691432Y-63719849D01*
X101642725Y-63746130D01*
X101452200Y-63848932D01*
X101230016Y-64013040D01*
X101226888Y-64016120D01*
X101226886Y-64016121D01*
X101173146Y-64069024D01*
X101033171Y-64206817D01*
X100865594Y-64426396D01*
X100730627Y-64667396D01*
X100729046Y-64671483D01*
X100729044Y-64671487D01*
X100653171Y-64867608D01*
X100630964Y-64925009D01*
X100568593Y-65194095D01*
X100568216Y-65198450D01*
X100568215Y-65198455D01*
X100563284Y-65255395D01*
X100544759Y-65469285D01*
X100559938Y-65745087D01*
X100560794Y-65749393D01*
X100560795Y-65749397D01*
X100585327Y-65872727D01*
X100613825Y-66015999D01*
X100705347Y-66276616D01*
X100720013Y-66304849D01*
X100824128Y-66505277D01*
X100832678Y-66521737D01*
X100993275Y-66746471D01*
X100996296Y-66749638D01*
X100996297Y-66749639D01*
X101152287Y-66913159D01*
X101184318Y-66975254D01*
X101177693Y-67044809D01*
X101134515Y-67099740D01*
X101068493Y-67122608D01*
X101056489Y-67122601D01*
X101000064Y-67119829D01*
X101000000Y-67119819D01*
X100990422Y-67121336D01*
X100990420Y-67121336D01*
X100980085Y-67122973D01*
X100960688Y-67124500D01*
X99947203Y-67124500D01*
X99880164Y-67104815D01*
X99834409Y-67052011D01*
X99824465Y-66982853D01*
X99855973Y-66916517D01*
X99986727Y-66774481D01*
X99986728Y-66774480D01*
X99990202Y-66770706D01*
X99993006Y-66766414D01*
X99993010Y-66766409D01*
X100100746Y-66601505D01*
X100103551Y-66597212D01*
X100176469Y-66430976D01*
X100184738Y-66412125D01*
X100184739Y-66412122D01*
X100186798Y-66407428D01*
X100205393Y-66334000D01*
X100234349Y-66219654D01*
X100237672Y-66206531D01*
X100254342Y-66005360D01*
X100255408Y-66000000D01*
X100252883Y-65987306D01*
X100250500Y-65963115D01*
X100250500Y-64036885D01*
X100252883Y-64012694D01*
X100253025Y-64011980D01*
X100255408Y-64000000D01*
X100253025Y-63988021D01*
X100253025Y-63980452D01*
X100253622Y-63968298D01*
X100263704Y-63865935D01*
X100268446Y-63842093D01*
X100304007Y-63724865D01*
X100313310Y-63702407D01*
X100371058Y-63594369D01*
X100384563Y-63574158D01*
X100462276Y-63479464D01*
X100479464Y-63462276D01*
X100574158Y-63384563D01*
X100594369Y-63371058D01*
X100702407Y-63313310D01*
X100724865Y-63304007D01*
X100842095Y-63268446D01*
X100865935Y-63263704D01*
X100968298Y-63253622D01*
X100980452Y-63253025D01*
X100988021Y-63253025D01*
X101000000Y-63255408D01*
X101011980Y-63253025D01*
X101012694Y-63252883D01*
X101036885Y-63250500D01*
X109625500Y-63250500D01*
X109692539Y-63270185D01*
G37*
%TD.AperFunction*%
%TA.AperFunction,Conductor*%
G36*
X96987306Y-63252883D02*
G01*
X97000000Y-63255408D01*
X97011979Y-63253025D01*
X97019548Y-63253025D01*
X97031702Y-63253622D01*
X97134065Y-63263704D01*
X97157905Y-63268446D01*
X97275135Y-63304007D01*
X97297593Y-63313310D01*
X97405631Y-63371058D01*
X97425842Y-63384563D01*
X97520536Y-63462276D01*
X97537724Y-63479464D01*
X97615437Y-63574158D01*
X97628942Y-63594369D01*
X97686690Y-63702407D01*
X97695993Y-63724865D01*
X97731554Y-63842093D01*
X97736296Y-63865935D01*
X97746378Y-63968298D01*
X97746975Y-63980452D01*
X97746975Y-63988021D01*
X97744592Y-64000000D01*
X97746975Y-64011980D01*
X97747117Y-64012694D01*
X97749500Y-64036885D01*
X97749500Y-65963115D01*
X97747117Y-65987306D01*
X97744592Y-66000000D01*
X97745658Y-66005360D01*
X97762328Y-66206531D01*
X97765651Y-66219654D01*
X97794608Y-66334000D01*
X97813202Y-66407428D01*
X97815261Y-66412122D01*
X97815262Y-66412125D01*
X97823531Y-66430976D01*
X97896449Y-66597212D01*
X97899254Y-66601505D01*
X98006990Y-66766409D01*
X98006994Y-66766414D01*
X98009798Y-66770706D01*
X98013272Y-66774480D01*
X98013273Y-66774481D01*
X98144027Y-66916517D01*
X98174949Y-66979171D01*
X98167089Y-67048598D01*
X98122942Y-67102753D01*
X98052797Y-67124500D01*
X98039312Y-67124500D01*
X98019915Y-67122973D01*
X98009642Y-67121346D01*
X98009641Y-67121346D01*
X98000000Y-67119819D01*
X97990359Y-67121346D01*
X97984427Y-67121346D01*
X97965272Y-67122224D01*
X97763435Y-67108994D01*
X97747364Y-67106879D01*
X97522816Y-67062214D01*
X97507149Y-67058016D01*
X97290356Y-66984424D01*
X97275372Y-66978218D01*
X97269362Y-66975254D01*
X97070028Y-66876954D01*
X97055998Y-66868854D01*
X96865633Y-66741655D01*
X96852766Y-66731782D01*
X96680632Y-66580825D01*
X96669169Y-66569361D01*
X96523265Y-66402988D01*
X96493862Y-66339607D01*
X96503394Y-66270390D01*
X96545370Y-66219655D01*
X96556877Y-66211598D01*
X96711598Y-66056877D01*
X96714700Y-66052446D01*
X96714704Y-66052442D01*
X96833994Y-65882077D01*
X96833995Y-65882075D01*
X96837102Y-65877638D01*
X96929575Y-65679330D01*
X96968227Y-65535081D01*
X96984805Y-65473209D01*
X96986207Y-65467977D01*
X97005277Y-65250000D01*
X96986207Y-65032023D01*
X96929575Y-64820670D01*
X96837102Y-64622362D01*
X96833994Y-64617923D01*
X96714704Y-64447558D01*
X96714700Y-64447554D01*
X96711598Y-64443123D01*
X96556877Y-64288402D01*
X96377639Y-64162898D01*
X96179330Y-64070425D01*
X96174107Y-64069026D01*
X96174103Y-64069024D01*
X95973209Y-64015195D01*
X95973210Y-64015195D01*
X95967977Y-64013793D01*
X95750000Y-63994723D01*
X95532023Y-64013793D01*
X95526790Y-64015195D01*
X95526791Y-64015195D01*
X95325897Y-64069024D01*
X95325893Y-64069026D01*
X95320670Y-64070425D01*
X95122362Y-64162898D01*
X95117925Y-64166005D01*
X95117923Y-64166006D01*
X94947558Y-64285296D01*
X94947557Y-64285297D01*
X94943123Y-64288402D01*
X94788402Y-64443123D01*
X94785300Y-64447554D01*
X94785296Y-64447558D01*
X94666006Y-64617923D01*
X94662898Y-64622362D01*
X94570425Y-64820670D01*
X94513793Y-65032023D01*
X94494723Y-65250000D01*
X94513793Y-65467977D01*
X94515195Y-65473209D01*
X94531774Y-65535081D01*
X94570425Y-65679330D01*
X94662898Y-65877638D01*
X94666005Y-65882075D01*
X94666006Y-65882077D01*
X94785296Y-66052442D01*
X94785300Y-66052446D01*
X94788402Y-66056877D01*
X94943123Y-66211598D01*
X95122361Y-66337102D01*
X95320670Y-66429575D01*
X95325893Y-66430974D01*
X95325897Y-66430976D01*
X95492901Y-66475724D01*
X95532023Y-66486207D01*
X95625334Y-66494370D01*
X95690402Y-66519822D01*
X95723054Y-66557916D01*
X95773423Y-66649051D01*
X95944067Y-66889552D01*
X95946384Y-66892144D01*
X95946385Y-66892146D01*
X96087868Y-67050465D01*
X96140566Y-67109434D01*
X96143152Y-67111745D01*
X96306506Y-67257727D01*
X96360448Y-67305933D01*
X96600949Y-67476577D01*
X96709952Y-67536821D01*
X96855999Y-67617539D01*
X96856004Y-67617541D01*
X96859043Y-67619221D01*
X97131486Y-67732071D01*
X97414851Y-67813707D01*
X97418273Y-67814288D01*
X97418280Y-67814290D01*
X97702146Y-67862520D01*
X97702154Y-67862521D01*
X97705574Y-67863102D01*
X97709042Y-67863297D01*
X97709044Y-67863297D01*
X97772821Y-67866879D01*
X97994678Y-67879338D01*
X98000000Y-67880181D01*
X98009641Y-67878654D01*
X98009642Y-67878654D01*
X98019915Y-67877027D01*
X98039312Y-67875500D01*
X100960688Y-67875500D01*
X100980085Y-67877027D01*
X100988860Y-67878417D01*
X101000000Y-67880181D01*
X101009636Y-67878655D01*
X101010257Y-67878655D01*
X101035223Y-67877346D01*
X101320113Y-67892276D01*
X101333020Y-67893633D01*
X101643198Y-67942761D01*
X101655894Y-67945459D01*
X101959246Y-68026742D01*
X101971589Y-68030753D01*
X102264780Y-68143298D01*
X102276638Y-68148577D01*
X102556464Y-68291156D01*
X102567704Y-68297646D01*
X102831082Y-68468685D01*
X102841583Y-68476314D01*
X103085652Y-68673957D01*
X103095297Y-68682642D01*
X103317358Y-68904703D01*
X103326043Y-68914348D01*
X103523686Y-69158417D01*
X103531315Y-69168918D01*
X103702354Y-69432296D01*
X103708844Y-69443536D01*
X103851423Y-69723362D01*
X103856702Y-69735220D01*
X103969247Y-70028411D01*
X103973258Y-70040754D01*
X104013832Y-70192177D01*
X104049556Y-70325500D01*
X104054541Y-70344106D01*
X104057239Y-70356802D01*
X104106367Y-70666980D01*
X104107724Y-70679887D01*
X104121460Y-70941984D01*
X104122654Y-70964775D01*
X104121345Y-70989743D01*
X104121345Y-70990364D01*
X104119819Y-71000000D01*
X104121346Y-71009641D01*
X104122973Y-71019915D01*
X104124500Y-71039312D01*
X104124500Y-71340698D01*
X104104815Y-71407737D01*
X104052011Y-71453492D01*
X103982853Y-71463436D01*
X103919297Y-71434411D01*
X103899370Y-71412453D01*
X103889466Y-71398495D01*
X103751699Y-71204330D01*
X103716234Y-71164644D01*
X103538808Y-70966106D01*
X103536489Y-70963511D01*
X103457724Y-70893122D01*
X103298261Y-70750616D01*
X103298256Y-70750612D01*
X103295670Y-70748301D01*
X103163969Y-70654854D01*
X103035098Y-70563415D01*
X103035095Y-70563413D01*
X103032269Y-70561408D01*
X103011628Y-70550000D01*
X102752643Y-70406864D01*
X102752638Y-70406862D01*
X102749599Y-70405182D01*
X102451214Y-70281587D01*
X102244173Y-70221939D01*
X102144211Y-70193140D01*
X102144204Y-70193138D01*
X102140867Y-70192177D01*
X101822461Y-70138078D01*
X101818999Y-70137884D01*
X101818994Y-70137883D01*
X101693431Y-70130832D01*
X101501467Y-70120051D01*
X101500000Y-70119819D01*
X101484087Y-70122339D01*
X101480085Y-70122973D01*
X101460688Y-70124500D01*
X98039312Y-70124500D01*
X98019915Y-70122973D01*
X98009642Y-70121346D01*
X98009641Y-70121346D01*
X98000000Y-70119819D01*
X97994678Y-70120662D01*
X97986910Y-70121098D01*
X97986909Y-70121098D01*
X97709044Y-70136703D01*
X97709042Y-70136703D01*
X97705574Y-70136898D01*
X97702154Y-70137479D01*
X97702146Y-70137480D01*
X97418280Y-70185710D01*
X97418273Y-70185712D01*
X97414851Y-70186293D01*
X97384462Y-70195048D01*
X97314593Y-70194692D01*
X97256008Y-70156618D01*
X97227308Y-70092915D01*
X97229560Y-70046947D01*
X97242904Y-69991367D01*
X97244422Y-69981781D01*
X97262281Y-69754854D01*
X97262281Y-69745146D01*
X97244422Y-69518219D01*
X97242904Y-69508634D01*
X97189765Y-69287297D01*
X97186764Y-69278061D01*
X97099659Y-69067769D01*
X97095245Y-69059106D01*
X96992419Y-68891311D01*
X96982125Y-68881999D01*
X96973488Y-68885722D01*
X94888715Y-70970495D01*
X94882064Y-70982676D01*
X94887701Y-70990206D01*
X95059106Y-71095245D01*
X95067769Y-71099659D01*
X95278061Y-71186764D01*
X95287297Y-71189765D01*
X95508634Y-71242904D01*
X95518220Y-71244422D01*
X95627283Y-71253005D01*
X95692572Y-71277889D01*
X95734043Y-71334120D01*
X95738530Y-71403845D01*
X95726084Y-71436602D01*
X95723056Y-71442081D01*
X95673400Y-71491235D01*
X95625334Y-71505630D01*
X95532023Y-71513793D01*
X95508220Y-71520171D01*
X95325897Y-71569024D01*
X95325893Y-71569026D01*
X95320670Y-71570425D01*
X95122362Y-71662898D01*
X95117925Y-71666005D01*
X95117923Y-71666006D01*
X94947558Y-71785296D01*
X94947554Y-71785300D01*
X94943123Y-71788402D01*
X94788402Y-71943123D01*
X94785300Y-71947554D01*
X94785296Y-71947558D01*
X94684725Y-72091189D01*
X94662898Y-72122362D01*
X94570425Y-72320670D01*
X94569026Y-72325893D01*
X94569024Y-72325897D01*
X94533213Y-72459548D01*
X94513793Y-72532023D01*
X94494723Y-72750000D01*
X94513793Y-72967977D01*
X94524270Y-73007077D01*
X94560012Y-73140467D01*
X94570425Y-73179330D01*
X94662898Y-73377638D01*
X94666005Y-73382075D01*
X94666006Y-73382077D01*
X94785296Y-73552442D01*
X94785300Y-73552446D01*
X94788402Y-73556877D01*
X94943123Y-73711598D01*
X95122361Y-73837102D01*
X95320670Y-73929575D01*
X95325893Y-73930974D01*
X95325897Y-73930976D01*
X95492901Y-73975724D01*
X95532023Y-73986207D01*
X95750000Y-74005277D01*
X95967977Y-73986207D01*
X96007099Y-73975724D01*
X96174103Y-73930976D01*
X96174107Y-73930974D01*
X96179330Y-73929575D01*
X96377639Y-73837102D01*
X96556877Y-73711598D01*
X96711598Y-73556877D01*
X96714700Y-73552446D01*
X96714704Y-73552442D01*
X96833994Y-73382077D01*
X96833995Y-73382075D01*
X96837102Y-73377638D01*
X96929575Y-73179330D01*
X96939989Y-73140467D01*
X96975730Y-73007077D01*
X96986207Y-72967977D01*
X97005277Y-72750000D01*
X96986207Y-72532023D01*
X96966787Y-72459548D01*
X96930976Y-72325897D01*
X96930974Y-72325893D01*
X96929575Y-72320670D01*
X96837102Y-72122362D01*
X96815275Y-72091189D01*
X96714704Y-71947558D01*
X96714700Y-71947554D01*
X96711598Y-71943123D01*
X96556877Y-71788402D01*
X96545370Y-71780345D01*
X96501745Y-71725770D01*
X96494551Y-71656272D01*
X96523265Y-71597012D01*
X96669169Y-71430639D01*
X96680632Y-71419175D01*
X96852768Y-71268217D01*
X96865634Y-71258344D01*
X96871228Y-71254606D01*
X97055998Y-71131146D01*
X97070028Y-71123046D01*
X97275372Y-71021782D01*
X97290356Y-71015576D01*
X97507149Y-70941984D01*
X97522817Y-70937786D01*
X97557883Y-70930811D01*
X97747364Y-70893121D01*
X97763435Y-70891006D01*
X97965272Y-70877776D01*
X97984427Y-70878654D01*
X97990359Y-70878654D01*
X98000000Y-70880181D01*
X98009641Y-70878654D01*
X98009642Y-70878654D01*
X98019915Y-70877027D01*
X98039312Y-70875500D01*
X98052797Y-70875500D01*
X98119836Y-70895185D01*
X98165591Y-70947989D01*
X98175535Y-71017147D01*
X98144027Y-71083483D01*
X98076779Y-71156534D01*
X98009798Y-71229294D01*
X98006994Y-71233586D01*
X98006990Y-71233591D01*
X97953227Y-71315882D01*
X97896449Y-71402788D01*
X97879129Y-71442274D01*
X97816164Y-71585820D01*
X97813202Y-71592572D01*
X97811945Y-71597537D01*
X97811943Y-71597542D01*
X97794606Y-71666006D01*
X97762328Y-71793469D01*
X97745658Y-71994640D01*
X97744592Y-72000000D01*
X97746975Y-72011979D01*
X97747117Y-72012694D01*
X97749500Y-72036885D01*
X97749500Y-78213115D01*
X97747117Y-78237306D01*
X97744592Y-78250000D01*
X97745658Y-78255360D01*
X97762328Y-78456531D01*
X97813202Y-78657428D01*
X97896449Y-78847212D01*
X97899254Y-78851505D01*
X98006990Y-79016409D01*
X98006994Y-79016414D01*
X98009798Y-79020706D01*
X98150157Y-79173176D01*
X98154199Y-79176322D01*
X98303121Y-79292233D01*
X98313697Y-79300465D01*
X98318199Y-79302901D01*
X98318203Y-79302904D01*
X98383120Y-79338035D01*
X98495958Y-79399100D01*
X98526343Y-79409531D01*
X98687117Y-79464725D01*
X98687121Y-79464726D01*
X98691968Y-79466390D01*
X98697023Y-79467234D01*
X98697025Y-79467234D01*
X98794569Y-79483511D01*
X98896381Y-79500500D01*
X99103619Y-79500500D01*
X99205431Y-79483511D01*
X99302975Y-79467234D01*
X99302977Y-79467234D01*
X99308032Y-79466390D01*
X99312879Y-79464726D01*
X99312883Y-79464725D01*
X99473657Y-79409531D01*
X99504042Y-79399100D01*
X99616880Y-79338035D01*
X99681797Y-79302904D01*
X99681801Y-79302901D01*
X99686303Y-79300465D01*
X99696880Y-79292233D01*
X99845801Y-79176322D01*
X99849843Y-79173176D01*
X99990202Y-79020706D01*
X99993006Y-79016414D01*
X99993010Y-79016409D01*
X100100746Y-78851505D01*
X100103551Y-78847212D01*
X100186798Y-78657428D01*
X100237672Y-78456531D01*
X100254342Y-78255360D01*
X100255408Y-78250000D01*
X100252883Y-78237306D01*
X100250500Y-78213115D01*
X100250500Y-76391790D01*
X101138046Y-76391790D01*
X101150314Y-76604564D01*
X101151726Y-76614609D01*
X101198580Y-76822517D01*
X101201618Y-76832209D01*
X101281800Y-77029675D01*
X101286374Y-77038730D01*
X101366609Y-77169663D01*
X101376901Y-77178974D01*
X101385538Y-77175252D01*
X102128183Y-76432607D01*
X102135675Y-76418887D01*
X102135546Y-76417081D01*
X102131364Y-76410574D01*
X101389644Y-75668854D01*
X101378293Y-75662656D01*
X101366204Y-75672127D01*
X101318050Y-75742719D01*
X101313035Y-75751547D01*
X101223301Y-75944864D01*
X101219799Y-75954382D01*
X101162844Y-76159754D01*
X101160941Y-76169731D01*
X101138294Y-76381647D01*
X101138046Y-76391790D01*
X100250500Y-76391790D01*
X100250500Y-72036885D01*
X100252883Y-72012694D01*
X100253025Y-72011979D01*
X100255408Y-72000000D01*
X100254342Y-71994640D01*
X100237672Y-71793469D01*
X100205394Y-71666006D01*
X100188057Y-71597542D01*
X100188055Y-71597537D01*
X100186798Y-71592572D01*
X100183837Y-71585820D01*
X100120871Y-71442274D01*
X100103551Y-71402788D01*
X100046773Y-71315882D01*
X99993010Y-71233591D01*
X99993006Y-71233586D01*
X99990202Y-71229294D01*
X99923222Y-71156534D01*
X99855973Y-71083483D01*
X99825051Y-71020829D01*
X99832911Y-70951402D01*
X99877058Y-70897247D01*
X99947203Y-70875500D01*
X101460688Y-70875500D01*
X101480085Y-70877027D01*
X101490358Y-70878654D01*
X101490359Y-70878654D01*
X101500000Y-70880181D01*
X101509641Y-70878654D01*
X101515574Y-70878654D01*
X101534726Y-70877776D01*
X101769198Y-70893144D01*
X101785279Y-70895262D01*
X102041892Y-70946306D01*
X102057554Y-70950502D01*
X102256950Y-71018188D01*
X102305313Y-71034605D01*
X102320297Y-71040812D01*
X102554960Y-71156534D01*
X102569002Y-71164641D01*
X102659335Y-71224999D01*
X102786556Y-71310006D01*
X102799424Y-71319880D01*
X102841168Y-71356488D01*
X102996143Y-71492398D01*
X103007602Y-71503857D01*
X103079482Y-71585820D01*
X103180120Y-71700576D01*
X103189994Y-71713444D01*
X103246886Y-71798588D01*
X103335359Y-71930998D01*
X103343466Y-71945040D01*
X103459188Y-72179703D01*
X103465395Y-72194687D01*
X103549169Y-72441476D01*
X103549496Y-72442440D01*
X103553694Y-72458108D01*
X103604738Y-72714721D01*
X103606856Y-72730802D01*
X103622224Y-72965274D01*
X103621346Y-72984426D01*
X103621346Y-72990358D01*
X103619819Y-73000000D01*
X103621346Y-73009641D01*
X103621346Y-73009642D01*
X103622973Y-73019915D01*
X103624500Y-73039312D01*
X103624500Y-73173154D01*
X103604815Y-73240193D01*
X103552011Y-73285948D01*
X103482853Y-73295892D01*
X103419297Y-73266867D01*
X103401151Y-73247353D01*
X103321335Y-73140467D01*
X103211906Y-73039312D01*
X103176988Y-73007034D01*
X103176986Y-73007033D01*
X103172812Y-73003174D01*
X103145374Y-72985862D01*
X103006566Y-72898280D01*
X103006564Y-72898279D01*
X103001757Y-72895246D01*
X102813898Y-72820298D01*
X102808317Y-72819188D01*
X102808314Y-72819187D01*
X102740373Y-72805673D01*
X102615526Y-72780839D01*
X102609839Y-72780765D01*
X102609834Y-72780764D01*
X102418975Y-72778266D01*
X102418970Y-72778266D01*
X102413286Y-72778192D01*
X102407682Y-72779155D01*
X102407681Y-72779155D01*
X102219546Y-72811482D01*
X102219543Y-72811483D01*
X102213949Y-72812444D01*
X102193400Y-72820025D01*
X102029521Y-72880483D01*
X102029517Y-72880485D01*
X102024193Y-72882449D01*
X102019310Y-72885354D01*
X102019308Y-72885355D01*
X101860081Y-72980085D01*
X101850371Y-72985862D01*
X101698305Y-73119220D01*
X101573089Y-73278057D01*
X101570442Y-73283088D01*
X101514292Y-73389810D01*
X101478914Y-73457053D01*
X101477229Y-73462479D01*
X101477228Y-73462482D01*
X101472695Y-73477082D01*
X101418937Y-73650213D01*
X101395164Y-73851069D01*
X101395535Y-73856731D01*
X101395535Y-73856735D01*
X101400851Y-73937842D01*
X101408392Y-74052894D01*
X101458178Y-74248928D01*
X101460554Y-74254082D01*
X101540337Y-74427142D01*
X101542856Y-74432607D01*
X101659588Y-74597780D01*
X101804466Y-74738913D01*
X101972637Y-74851282D01*
X102083580Y-74898947D01*
X102137404Y-74943495D01*
X102158599Y-75010072D01*
X102140436Y-75077540D01*
X102088680Y-75124477D01*
X102073155Y-75130740D01*
X101976785Y-75162239D01*
X101967436Y-75166169D01*
X101778393Y-75264579D01*
X101769801Y-75269990D01*
X101749447Y-75285272D01*
X101741126Y-75296420D01*
X101747763Y-75308553D01*
X102487393Y-76048183D01*
X102501113Y-76055675D01*
X102502919Y-76055546D01*
X102509426Y-76051364D01*
X103253594Y-75307196D01*
X103260501Y-75294546D01*
X103253776Y-75285315D01*
X103249627Y-75282558D01*
X103063037Y-75179555D01*
X103053782Y-75175396D01*
X102927862Y-75130805D01*
X102871238Y-75089872D01*
X102845734Y-75024823D01*
X102859447Y-74956312D01*
X102908023Y-74906091D01*
X102929391Y-74896501D01*
X102949531Y-74889664D01*
X103126001Y-74790837D01*
X103188433Y-74738913D01*
X103277138Y-74665137D01*
X103281505Y-74661505D01*
X103405164Y-74512822D01*
X103463166Y-74473867D01*
X103533021Y-74472454D01*
X103592551Y-74509031D01*
X103622856Y-74571987D01*
X103624500Y-74592113D01*
X103624500Y-75603348D01*
X103604815Y-75670387D01*
X103588181Y-75691029D01*
X102871817Y-76407393D01*
X102864325Y-76421113D01*
X102864454Y-76422919D01*
X102868636Y-76429426D01*
X103588181Y-77148971D01*
X103621666Y-77210294D01*
X103624500Y-77236652D01*
X103624500Y-78253154D01*
X103604815Y-78320193D01*
X103552011Y-78365948D01*
X103482853Y-78375892D01*
X103419297Y-78346867D01*
X103401151Y-78327353D01*
X103321335Y-78220467D01*
X103210488Y-78118001D01*
X103176988Y-78087034D01*
X103176986Y-78087033D01*
X103172812Y-78083174D01*
X103151319Y-78069613D01*
X103006566Y-77978280D01*
X103006564Y-77978279D01*
X103001757Y-77975246D01*
X102920126Y-77942678D01*
X102865152Y-77899553D01*
X102842222Y-77833553D01*
X102858613Y-77765634D01*
X102909123Y-77717358D01*
X102930441Y-77708736D01*
X102992332Y-77690168D01*
X103001768Y-77686470D01*
X103193165Y-77592705D01*
X103201880Y-77587510D01*
X103249479Y-77553558D01*
X103257747Y-77543026D01*
X103250871Y-77530081D01*
X102512607Y-76791817D01*
X102498887Y-76784325D01*
X102497081Y-76784454D01*
X102490574Y-76788636D01*
X101746532Y-77532678D01*
X101739881Y-77544859D01*
X101745079Y-77551803D01*
X101906820Y-77646317D01*
X101915976Y-77650703D01*
X102075780Y-77711726D01*
X102131387Y-77754030D01*
X102155294Y-77819682D01*
X102139912Y-77887838D01*
X102090124Y-77936858D01*
X102074464Y-77943903D01*
X102029521Y-77960483D01*
X102029517Y-77960485D01*
X102024193Y-77962449D01*
X102019310Y-77965354D01*
X102019308Y-77965355D01*
X101889669Y-78042482D01*
X101850371Y-78065862D01*
X101698305Y-78199220D01*
X101573089Y-78358057D01*
X101478914Y-78537053D01*
X101477229Y-78542479D01*
X101477228Y-78542482D01*
X101450914Y-78627228D01*
X101418937Y-78730213D01*
X101395164Y-78931069D01*
X101395535Y-78936731D01*
X101395535Y-78936735D01*
X101399336Y-78994723D01*
X101408392Y-79132894D01*
X101458178Y-79328928D01*
X101460554Y-79334082D01*
X101537275Y-79500500D01*
X101542856Y-79512607D01*
X101659588Y-79677780D01*
X101804466Y-79818913D01*
X101972637Y-79931282D01*
X102158470Y-80011122D01*
X102250838Y-80032023D01*
X102350193Y-80054505D01*
X102350195Y-80054505D01*
X102355740Y-80055760D01*
X102473135Y-80060372D01*
X102552161Y-80063477D01*
X102552163Y-80063477D01*
X102557842Y-80063700D01*
X102563462Y-80062885D01*
X102563465Y-80062885D01*
X102752387Y-80035493D01*
X102752389Y-80035493D01*
X102758007Y-80034678D01*
X102763384Y-80032853D01*
X102763387Y-80032852D01*
X102858742Y-80000483D01*
X102949531Y-79969664D01*
X103089431Y-79891317D01*
X103121048Y-79873611D01*
X103121050Y-79873610D01*
X103126001Y-79870837D01*
X103148487Y-79852136D01*
X103277138Y-79745137D01*
X103281505Y-79741505D01*
X103358190Y-79649302D01*
X103407203Y-79590371D01*
X103407205Y-79590367D01*
X103410837Y-79586001D01*
X103411563Y-79586605D01*
X103461735Y-79545776D01*
X103531168Y-79537975D01*
X103593796Y-79568951D01*
X103629735Y-79628869D01*
X103633263Y-79649302D01*
X103637365Y-79696188D01*
X103688336Y-79886414D01*
X103690621Y-79891314D01*
X103690622Y-79891317D01*
X103769273Y-80059986D01*
X103769276Y-80059991D01*
X103771565Y-80064900D01*
X103884524Y-80226221D01*
X104023779Y-80365476D01*
X104028218Y-80368585D01*
X104028219Y-80368585D01*
X104155989Y-80458051D01*
X104199614Y-80512628D01*
X104206808Y-80582126D01*
X104175285Y-80644481D01*
X104165402Y-80653912D01*
X104024367Y-80774367D01*
X104021206Y-80778068D01*
X103893006Y-80928172D01*
X103883756Y-80939002D01*
X103770631Y-81123605D01*
X103768767Y-81128105D01*
X103768765Y-81128109D01*
X103768695Y-81128279D01*
X103768651Y-81128334D01*
X103766554Y-81132449D01*
X103765690Y-81132009D01*
X103724857Y-81182686D01*
X103658565Y-81204755D01*
X103590864Y-81187480D01*
X103543251Y-81136346D01*
X103534787Y-81114493D01*
X103534417Y-81113179D01*
X103531807Y-81103926D01*
X103442351Y-80922527D01*
X103321335Y-80760467D01*
X103201435Y-80649633D01*
X103176988Y-80627034D01*
X103176986Y-80627033D01*
X103172812Y-80623174D01*
X103168002Y-80620139D01*
X103006566Y-80518280D01*
X103006564Y-80518279D01*
X103001757Y-80515246D01*
X102813898Y-80440298D01*
X102808317Y-80439188D01*
X102808314Y-80439187D01*
X102724558Y-80422527D01*
X102615526Y-80400839D01*
X102609839Y-80400765D01*
X102609834Y-80400764D01*
X102418975Y-80398266D01*
X102418970Y-80398266D01*
X102413286Y-80398192D01*
X102407682Y-80399155D01*
X102407681Y-80399155D01*
X102219546Y-80431482D01*
X102219543Y-80431483D01*
X102213949Y-80432444D01*
X102192660Y-80440298D01*
X102029521Y-80500483D01*
X102029517Y-80500485D01*
X102024193Y-80502449D01*
X102019310Y-80505354D01*
X102019308Y-80505355D01*
X101889669Y-80582482D01*
X101850371Y-80605862D01*
X101698305Y-80739220D01*
X101573089Y-80898057D01*
X101570442Y-80903088D01*
X101549158Y-80943542D01*
X101478914Y-81077053D01*
X101477229Y-81082479D01*
X101477228Y-81082482D01*
X101446101Y-81182730D01*
X101418937Y-81270213D01*
X101395164Y-81471069D01*
X101395535Y-81476731D01*
X101395535Y-81476735D01*
X101399299Y-81534159D01*
X101408392Y-81672894D01*
X101458178Y-81868928D01*
X101460554Y-81874082D01*
X101523902Y-82011492D01*
X101542856Y-82052607D01*
X101546132Y-82057243D01*
X101546137Y-82057251D01*
X101596798Y-82128935D01*
X101619414Y-82195043D01*
X101602699Y-82262884D01*
X101551960Y-82310918D01*
X101495534Y-82324500D01*
X98289312Y-82324500D01*
X98269915Y-82322973D01*
X98259642Y-82321346D01*
X98259641Y-82321346D01*
X98250000Y-82319819D01*
X98240359Y-82321346D01*
X98234427Y-82321346D01*
X98215272Y-82322224D01*
X97987329Y-82307283D01*
X97971260Y-82305168D01*
X97794337Y-82269976D01*
X97721050Y-82255398D01*
X97705384Y-82251200D01*
X97463822Y-82169201D01*
X97448837Y-82162994D01*
X97220040Y-82050165D01*
X97205998Y-82042058D01*
X96993880Y-81900326D01*
X96981013Y-81890453D01*
X96979442Y-81889075D01*
X96789212Y-81722247D01*
X96777753Y-81710788D01*
X96609545Y-81518985D01*
X96599673Y-81506119D01*
X96535306Y-81409786D01*
X96514428Y-81343109D01*
X96532913Y-81275729D01*
X96567284Y-81239322D01*
X96602439Y-81214706D01*
X96602443Y-81214703D01*
X96606877Y-81211598D01*
X96761598Y-81056877D01*
X96764700Y-81052446D01*
X96764704Y-81052442D01*
X96883994Y-80882077D01*
X96883995Y-80882075D01*
X96887102Y-80877638D01*
X96979575Y-80679330D01*
X96981467Y-80672271D01*
X97034805Y-80473209D01*
X97036207Y-80467977D01*
X97055277Y-80250000D01*
X97036207Y-80032023D01*
X97009267Y-79931482D01*
X96980976Y-79825897D01*
X96980974Y-79825893D01*
X96979575Y-79820670D01*
X96887102Y-79622362D01*
X96861642Y-79586001D01*
X96764704Y-79447558D01*
X96764700Y-79447554D01*
X96761598Y-79443123D01*
X96606877Y-79288402D01*
X96427639Y-79162898D01*
X96229330Y-79070425D01*
X96224107Y-79069026D01*
X96224103Y-79069024D01*
X96057099Y-79024276D01*
X96017977Y-79013793D01*
X95866588Y-79000549D01*
X95801520Y-78975097D01*
X95777555Y-78942001D01*
X95762301Y-78969469D01*
X95700740Y-79002515D01*
X95686061Y-79004691D01*
X95582023Y-79013793D01*
X95542901Y-79024276D01*
X95375897Y-79069024D01*
X95375893Y-79069026D01*
X95370670Y-79070425D01*
X95172362Y-79162898D01*
X95167925Y-79166005D01*
X95167923Y-79166006D01*
X94997558Y-79285296D01*
X94997557Y-79285297D01*
X94993123Y-79288402D01*
X94838402Y-79443123D01*
X94835300Y-79447554D01*
X94835296Y-79447558D01*
X94738358Y-79586001D01*
X94712898Y-79622362D01*
X94620425Y-79820670D01*
X94619026Y-79825893D01*
X94619024Y-79825897D01*
X94590733Y-79931482D01*
X94563793Y-80032023D01*
X94544723Y-80250000D01*
X94563793Y-80467977D01*
X94565195Y-80473209D01*
X94618534Y-80672271D01*
X94620425Y-80679330D01*
X94712898Y-80877638D01*
X94716005Y-80882075D01*
X94716006Y-80882077D01*
X94835296Y-81052442D01*
X94835300Y-81052446D01*
X94838402Y-81056877D01*
X94993123Y-81211598D01*
X95172361Y-81337102D01*
X95370670Y-81429575D01*
X95375893Y-81430974D01*
X95375897Y-81430976D01*
X95511125Y-81467210D01*
X95582023Y-81486207D01*
X95645373Y-81491749D01*
X95710441Y-81517201D01*
X95743092Y-81555295D01*
X95853811Y-81755625D01*
X95855816Y-81758451D01*
X95855818Y-81758454D01*
X95902125Y-81823718D01*
X96037454Y-82014446D01*
X96039765Y-82017032D01*
X96039769Y-82017037D01*
X96225338Y-82224688D01*
X96248922Y-82251078D01*
X96253756Y-82255398D01*
X96482963Y-82460231D01*
X96482968Y-82460235D01*
X96485554Y-82462546D01*
X96510573Y-82480298D01*
X96739813Y-82642952D01*
X96744375Y-82646189D01*
X96856007Y-82707886D01*
X97019086Y-82798017D01*
X97019091Y-82798019D01*
X97022130Y-82799699D01*
X97315326Y-82921145D01*
X97620276Y-83008999D01*
X97933146Y-83062158D01*
X97936608Y-83062352D01*
X97936613Y-83062353D01*
X98122539Y-83072794D01*
X98188369Y-83096207D01*
X98231091Y-83151493D01*
X98237141Y-83221100D01*
X98204598Y-83282928D01*
X98191754Y-83294447D01*
X98150157Y-83326824D01*
X98009798Y-83479294D01*
X98006994Y-83483586D01*
X98006990Y-83483591D01*
X97971977Y-83537183D01*
X97896449Y-83652788D01*
X97871921Y-83708706D01*
X97817351Y-83833114D01*
X97813202Y-83842572D01*
X97811945Y-83847537D01*
X97811943Y-83847542D01*
X97791781Y-83927162D01*
X97762328Y-84043469D01*
X97745658Y-84244640D01*
X97744592Y-84250000D01*
X97746975Y-84261979D01*
X97747117Y-84262694D01*
X97749500Y-84286885D01*
X97749500Y-85963115D01*
X97747117Y-85987306D01*
X97744592Y-86000000D01*
X97746975Y-86011979D01*
X97746975Y-86019548D01*
X97746378Y-86031702D01*
X97736296Y-86134065D01*
X97731554Y-86157905D01*
X97705770Y-86242904D01*
X97695993Y-86275135D01*
X97686690Y-86297593D01*
X97628942Y-86405631D01*
X97615437Y-86425842D01*
X97537724Y-86520536D01*
X97520536Y-86537724D01*
X97425842Y-86615437D01*
X97405631Y-86628942D01*
X97297593Y-86686690D01*
X97275136Y-86695993D01*
X97157905Y-86731554D01*
X97134065Y-86736296D01*
X97031702Y-86746378D01*
X97019548Y-86746975D01*
X97011979Y-86746975D01*
X97000000Y-86744592D01*
X96988020Y-86746975D01*
X96987306Y-86747117D01*
X96963115Y-86749500D01*
X88036885Y-86749500D01*
X88012694Y-86747117D01*
X88011980Y-86746975D01*
X88000000Y-86744592D01*
X87988021Y-86746975D01*
X87980452Y-86746975D01*
X87968298Y-86746378D01*
X87865935Y-86736296D01*
X87842095Y-86731554D01*
X87724864Y-86695993D01*
X87702407Y-86686690D01*
X87594369Y-86628942D01*
X87574158Y-86615437D01*
X87479464Y-86537724D01*
X87462276Y-86520536D01*
X87384563Y-86425842D01*
X87371058Y-86405631D01*
X87313310Y-86297593D01*
X87304007Y-86275135D01*
X87294230Y-86242904D01*
X87268446Y-86157905D01*
X87263704Y-86134065D01*
X87253622Y-86031702D01*
X87253025Y-86019548D01*
X87253025Y-86011979D01*
X87255408Y-86000000D01*
X87252883Y-85987306D01*
X87252427Y-85982676D01*
X88432064Y-85982676D01*
X88437701Y-85990206D01*
X88609106Y-86095245D01*
X88617769Y-86099659D01*
X88828061Y-86186764D01*
X88837297Y-86189765D01*
X89058634Y-86242904D01*
X89068219Y-86244422D01*
X89295146Y-86262281D01*
X89304854Y-86262281D01*
X89531781Y-86244422D01*
X89541366Y-86242904D01*
X89762703Y-86189765D01*
X89771939Y-86186764D01*
X89982231Y-86099659D01*
X89990894Y-86095245D01*
X90158689Y-85992419D01*
X90167503Y-85982676D01*
X94932064Y-85982676D01*
X94937701Y-85990206D01*
X95109106Y-86095245D01*
X95117769Y-86099659D01*
X95328061Y-86186764D01*
X95337297Y-86189765D01*
X95558634Y-86242904D01*
X95568219Y-86244422D01*
X95795146Y-86262281D01*
X95804854Y-86262281D01*
X96031781Y-86244422D01*
X96041366Y-86242904D01*
X96262703Y-86189765D01*
X96271939Y-86186764D01*
X96482231Y-86099659D01*
X96490894Y-86095245D01*
X96658689Y-85992419D01*
X96668001Y-85982125D01*
X96664278Y-85973488D01*
X95812607Y-85121817D01*
X95798887Y-85114325D01*
X95797081Y-85114454D01*
X95790574Y-85118636D01*
X94938715Y-85970495D01*
X94932064Y-85982676D01*
X90167503Y-85982676D01*
X90168001Y-85982125D01*
X90164278Y-85973488D01*
X89312607Y-85121817D01*
X89298887Y-85114325D01*
X89297081Y-85114454D01*
X89290574Y-85118636D01*
X88438715Y-85970495D01*
X88432064Y-85982676D01*
X87252427Y-85982676D01*
X87250500Y-85963115D01*
X87250500Y-84754854D01*
X87787719Y-84754854D01*
X87805578Y-84981781D01*
X87807096Y-84991366D01*
X87860235Y-85212703D01*
X87863236Y-85221939D01*
X87950341Y-85432231D01*
X87954755Y-85440894D01*
X88057581Y-85608689D01*
X88067875Y-85618001D01*
X88076512Y-85614278D01*
X88928183Y-84762607D01*
X88934459Y-84751113D01*
X89664325Y-84751113D01*
X89664454Y-84752919D01*
X89668636Y-84759426D01*
X90520495Y-85611285D01*
X90532676Y-85617936D01*
X90540206Y-85612299D01*
X90645245Y-85440894D01*
X90649659Y-85432231D01*
X90736764Y-85221939D01*
X90739765Y-85212703D01*
X90792904Y-84991366D01*
X90794422Y-84981781D01*
X90812281Y-84754854D01*
X94287719Y-84754854D01*
X94305578Y-84981781D01*
X94307096Y-84991366D01*
X94360235Y-85212703D01*
X94363236Y-85221939D01*
X94450341Y-85432231D01*
X94454755Y-85440894D01*
X94557581Y-85608689D01*
X94567875Y-85618001D01*
X94576512Y-85614278D01*
X95428183Y-84762607D01*
X95434459Y-84751113D01*
X96164325Y-84751113D01*
X96164454Y-84752919D01*
X96168636Y-84759426D01*
X97020495Y-85611285D01*
X97032676Y-85617936D01*
X97040206Y-85612299D01*
X97145245Y-85440894D01*
X97149659Y-85432231D01*
X97236764Y-85221939D01*
X97239765Y-85212703D01*
X97292904Y-84991366D01*
X97294422Y-84981781D01*
X97312281Y-84754854D01*
X97312281Y-84745146D01*
X97294422Y-84518219D01*
X97292904Y-84508634D01*
X97239765Y-84287297D01*
X97236764Y-84278061D01*
X97149659Y-84067769D01*
X97145245Y-84059106D01*
X97042419Y-83891311D01*
X97032125Y-83881999D01*
X97023488Y-83885722D01*
X96171817Y-84737393D01*
X96164325Y-84751113D01*
X95434459Y-84751113D01*
X95435675Y-84748887D01*
X95435546Y-84747081D01*
X95431364Y-84740574D01*
X94579505Y-83888715D01*
X94567324Y-83882064D01*
X94559794Y-83887701D01*
X94454755Y-84059106D01*
X94450341Y-84067769D01*
X94363236Y-84278061D01*
X94360235Y-84287297D01*
X94307096Y-84508634D01*
X94305578Y-84518219D01*
X94287719Y-84745146D01*
X94287719Y-84754854D01*
X90812281Y-84754854D01*
X90812281Y-84745146D01*
X90794422Y-84518219D01*
X90792904Y-84508634D01*
X90739765Y-84287297D01*
X90736764Y-84278061D01*
X90649659Y-84067769D01*
X90645245Y-84059106D01*
X90542419Y-83891311D01*
X90532125Y-83881999D01*
X90523488Y-83885722D01*
X89671817Y-84737393D01*
X89664325Y-84751113D01*
X88934459Y-84751113D01*
X88935675Y-84748887D01*
X88935546Y-84747081D01*
X88931364Y-84740574D01*
X88079505Y-83888715D01*
X88067324Y-83882064D01*
X88059794Y-83887701D01*
X87954755Y-84059106D01*
X87950341Y-84067769D01*
X87863236Y-84278061D01*
X87860235Y-84287297D01*
X87807096Y-84508634D01*
X87805578Y-84518219D01*
X87787719Y-84745146D01*
X87787719Y-84754854D01*
X87250500Y-84754854D01*
X87250500Y-83517875D01*
X88431999Y-83517875D01*
X88435722Y-83526512D01*
X89287393Y-84378183D01*
X89301113Y-84385675D01*
X89302919Y-84385546D01*
X89309426Y-84381364D01*
X90161285Y-83529505D01*
X90167635Y-83517875D01*
X94931999Y-83517875D01*
X94935722Y-83526512D01*
X95787393Y-84378183D01*
X95801113Y-84385675D01*
X95802919Y-84385546D01*
X95809426Y-84381364D01*
X96661285Y-83529505D01*
X96667936Y-83517324D01*
X96662299Y-83509794D01*
X96490894Y-83404755D01*
X96482231Y-83400341D01*
X96271939Y-83313236D01*
X96262703Y-83310235D01*
X96041366Y-83257096D01*
X96031781Y-83255578D01*
X95804854Y-83237719D01*
X95795146Y-83237719D01*
X95568219Y-83255578D01*
X95558634Y-83257096D01*
X95337297Y-83310235D01*
X95328061Y-83313236D01*
X95117769Y-83400341D01*
X95109106Y-83404755D01*
X94941311Y-83507581D01*
X94931999Y-83517875D01*
X90167635Y-83517875D01*
X90167936Y-83517324D01*
X90162299Y-83509794D01*
X89990894Y-83404755D01*
X89982231Y-83400341D01*
X89771939Y-83313236D01*
X89762703Y-83310235D01*
X89541366Y-83257096D01*
X89531781Y-83255578D01*
X89304854Y-83237719D01*
X89295146Y-83237719D01*
X89068219Y-83255578D01*
X89058634Y-83257096D01*
X88837297Y-83310235D01*
X88828061Y-83313236D01*
X88617769Y-83400341D01*
X88609106Y-83404755D01*
X88441311Y-83507581D01*
X88431999Y-83517875D01*
X87250500Y-83517875D01*
X87250500Y-80250000D01*
X88044723Y-80250000D01*
X88063793Y-80467977D01*
X88065195Y-80473209D01*
X88118534Y-80672271D01*
X88120425Y-80679330D01*
X88212898Y-80877638D01*
X88216005Y-80882075D01*
X88216006Y-80882077D01*
X88335296Y-81052442D01*
X88335300Y-81052446D01*
X88338402Y-81056877D01*
X88493123Y-81211598D01*
X88672361Y-81337102D01*
X88870670Y-81429575D01*
X88875893Y-81430974D01*
X88875897Y-81430976D01*
X89011125Y-81467210D01*
X89082023Y-81486207D01*
X89300000Y-81505277D01*
X89517977Y-81486207D01*
X89588875Y-81467210D01*
X89724103Y-81430976D01*
X89724107Y-81430974D01*
X89729330Y-81429575D01*
X89927639Y-81337102D01*
X90106877Y-81211598D01*
X90261598Y-81056877D01*
X90264700Y-81052446D01*
X90264704Y-81052442D01*
X90383994Y-80882077D01*
X90383995Y-80882075D01*
X90387102Y-80877638D01*
X90479575Y-80679330D01*
X90481467Y-80672271D01*
X90534805Y-80473209D01*
X90536207Y-80467977D01*
X90555277Y-80250000D01*
X90536207Y-80032023D01*
X90509267Y-79931482D01*
X90480976Y-79825897D01*
X90480974Y-79825893D01*
X90479575Y-79820670D01*
X90387102Y-79622362D01*
X90361642Y-79586001D01*
X90264704Y-79447558D01*
X90264700Y-79447554D01*
X90261598Y-79443123D01*
X90106877Y-79288402D01*
X89927639Y-79162898D01*
X89729330Y-79070425D01*
X89724107Y-79069026D01*
X89724103Y-79069024D01*
X89557099Y-79024276D01*
X89517977Y-79013793D01*
X89366588Y-79000549D01*
X89301520Y-78975097D01*
X89277555Y-78942001D01*
X89262301Y-78969469D01*
X89200740Y-79002515D01*
X89186061Y-79004691D01*
X89082023Y-79013793D01*
X89042901Y-79024276D01*
X88875897Y-79069024D01*
X88875893Y-79069026D01*
X88870670Y-79070425D01*
X88672362Y-79162898D01*
X88667925Y-79166005D01*
X88667923Y-79166006D01*
X88497558Y-79285296D01*
X88497557Y-79285297D01*
X88493123Y-79288402D01*
X88338402Y-79443123D01*
X88335300Y-79447554D01*
X88335296Y-79447558D01*
X88238358Y-79586001D01*
X88212898Y-79622362D01*
X88120425Y-79820670D01*
X88119026Y-79825893D01*
X88119024Y-79825897D01*
X88090733Y-79931482D01*
X88063793Y-80032023D01*
X88044723Y-80250000D01*
X87250500Y-80250000D01*
X87250500Y-78482676D01*
X88382064Y-78482676D01*
X88387701Y-78490206D01*
X88559106Y-78595245D01*
X88567769Y-78599659D01*
X88778061Y-78686764D01*
X88787297Y-78689765D01*
X89008634Y-78742904D01*
X89018219Y-78744422D01*
X89184977Y-78757546D01*
X89250265Y-78782430D01*
X89275136Y-78816153D01*
X89291117Y-78787960D01*
X89352963Y-78755452D01*
X89367667Y-78753403D01*
X89481781Y-78744422D01*
X89491366Y-78742904D01*
X89712703Y-78689765D01*
X89721939Y-78686764D01*
X89932231Y-78599659D01*
X89940894Y-78595245D01*
X90108689Y-78492419D01*
X90117503Y-78482676D01*
X94882064Y-78482676D01*
X94887701Y-78490206D01*
X95059106Y-78595245D01*
X95067769Y-78599659D01*
X95278061Y-78686764D01*
X95287297Y-78689765D01*
X95508634Y-78742904D01*
X95518219Y-78744422D01*
X95684977Y-78757546D01*
X95750265Y-78782430D01*
X95775136Y-78816153D01*
X95791117Y-78787960D01*
X95852963Y-78755452D01*
X95867667Y-78753403D01*
X95981781Y-78744422D01*
X95991366Y-78742904D01*
X96212703Y-78689765D01*
X96221939Y-78686764D01*
X96432231Y-78599659D01*
X96440894Y-78595245D01*
X96608689Y-78492419D01*
X96618001Y-78482125D01*
X96614278Y-78473488D01*
X95762607Y-77621817D01*
X95748887Y-77614325D01*
X95747081Y-77614454D01*
X95740574Y-77618636D01*
X94888715Y-78470495D01*
X94882064Y-78482676D01*
X90117503Y-78482676D01*
X90118001Y-78482125D01*
X90114278Y-78473488D01*
X89262607Y-77621817D01*
X89248887Y-77614325D01*
X89247081Y-77614454D01*
X89240574Y-77618636D01*
X88388715Y-78470495D01*
X88382064Y-78482676D01*
X87250500Y-78482676D01*
X87250500Y-77254854D01*
X87737719Y-77254854D01*
X87755578Y-77481781D01*
X87757096Y-77491366D01*
X87810235Y-77712703D01*
X87813236Y-77721939D01*
X87900341Y-77932231D01*
X87904755Y-77940894D01*
X88007581Y-78108689D01*
X88017875Y-78118001D01*
X88026512Y-78114278D01*
X88878183Y-77262607D01*
X88884459Y-77251113D01*
X89614325Y-77251113D01*
X89614454Y-77252919D01*
X89618636Y-77259426D01*
X90470495Y-78111285D01*
X90482676Y-78117936D01*
X90490206Y-78112299D01*
X90595245Y-77940894D01*
X90599659Y-77932231D01*
X90686764Y-77721939D01*
X90689765Y-77712703D01*
X90742904Y-77491366D01*
X90744422Y-77481781D01*
X90762281Y-77254854D01*
X94237719Y-77254854D01*
X94255578Y-77481781D01*
X94257096Y-77491366D01*
X94310235Y-77712703D01*
X94313236Y-77721939D01*
X94400341Y-77932231D01*
X94404755Y-77940894D01*
X94507581Y-78108689D01*
X94517875Y-78118001D01*
X94526512Y-78114278D01*
X95378183Y-77262607D01*
X95384459Y-77251113D01*
X96114325Y-77251113D01*
X96114454Y-77252919D01*
X96118636Y-77259426D01*
X96970495Y-78111285D01*
X96982676Y-78117936D01*
X96990206Y-78112299D01*
X97095245Y-77940894D01*
X97099659Y-77932231D01*
X97186764Y-77721939D01*
X97189765Y-77712703D01*
X97242904Y-77491366D01*
X97244422Y-77481781D01*
X97262281Y-77254854D01*
X97262281Y-77245146D01*
X97244422Y-77018219D01*
X97242904Y-77008634D01*
X97189765Y-76787297D01*
X97186764Y-76778061D01*
X97099659Y-76567769D01*
X97095245Y-76559106D01*
X96992419Y-76391311D01*
X96982125Y-76381999D01*
X96973488Y-76385722D01*
X96121817Y-77237393D01*
X96114325Y-77251113D01*
X95384459Y-77251113D01*
X95385675Y-77248887D01*
X95385546Y-77247081D01*
X95381364Y-77240574D01*
X94529505Y-76388715D01*
X94517324Y-76382064D01*
X94509794Y-76387701D01*
X94404755Y-76559106D01*
X94400341Y-76567769D01*
X94313236Y-76778061D01*
X94310235Y-76787297D01*
X94257096Y-77008634D01*
X94255578Y-77018219D01*
X94237719Y-77245146D01*
X94237719Y-77254854D01*
X90762281Y-77254854D01*
X90762281Y-77245146D01*
X90744422Y-77018219D01*
X90742904Y-77008634D01*
X90689765Y-76787297D01*
X90686764Y-76778061D01*
X90599659Y-76567769D01*
X90595245Y-76559106D01*
X90492419Y-76391311D01*
X90482125Y-76381999D01*
X90473488Y-76385722D01*
X89621817Y-77237393D01*
X89614325Y-77251113D01*
X88884459Y-77251113D01*
X88885675Y-77248887D01*
X88885546Y-77247081D01*
X88881364Y-77240574D01*
X88029505Y-76388715D01*
X88017324Y-76382064D01*
X88009794Y-76387701D01*
X87904755Y-76559106D01*
X87900341Y-76567769D01*
X87813236Y-76778061D01*
X87810235Y-76787297D01*
X87757096Y-77008634D01*
X87755578Y-77018219D01*
X87737719Y-77245146D01*
X87737719Y-77254854D01*
X87250500Y-77254854D01*
X87250500Y-76017875D01*
X88381999Y-76017875D01*
X88385722Y-76026512D01*
X89237393Y-76878183D01*
X89251113Y-76885675D01*
X89252919Y-76885546D01*
X89259426Y-76881364D01*
X90111285Y-76029505D01*
X90117635Y-76017875D01*
X94881999Y-76017875D01*
X94885722Y-76026512D01*
X95737393Y-76878183D01*
X95751113Y-76885675D01*
X95752919Y-76885546D01*
X95759426Y-76881364D01*
X96611285Y-76029505D01*
X96617936Y-76017324D01*
X96612299Y-76009794D01*
X96440894Y-75904755D01*
X96432231Y-75900341D01*
X96221939Y-75813236D01*
X96212703Y-75810235D01*
X95991366Y-75757096D01*
X95981781Y-75755578D01*
X95754854Y-75737719D01*
X95745146Y-75737719D01*
X95518219Y-75755578D01*
X95508634Y-75757096D01*
X95287297Y-75810235D01*
X95278061Y-75813236D01*
X95067769Y-75900341D01*
X95059106Y-75904755D01*
X94891311Y-76007581D01*
X94881999Y-76017875D01*
X90117635Y-76017875D01*
X90117936Y-76017324D01*
X90112299Y-76009794D01*
X89940894Y-75904755D01*
X89932231Y-75900341D01*
X89721939Y-75813236D01*
X89712703Y-75810235D01*
X89491366Y-75757096D01*
X89481781Y-75755578D01*
X89254854Y-75737719D01*
X89245146Y-75737719D01*
X89018219Y-75755578D01*
X89008634Y-75757096D01*
X88787297Y-75810235D01*
X88778061Y-75813236D01*
X88567769Y-75900341D01*
X88559106Y-75904755D01*
X88391311Y-76007581D01*
X88381999Y-76017875D01*
X87250500Y-76017875D01*
X87250500Y-72750000D01*
X87994723Y-72750000D01*
X88013793Y-72967977D01*
X88024270Y-73007077D01*
X88060012Y-73140467D01*
X88070425Y-73179330D01*
X88162898Y-73377638D01*
X88166005Y-73382075D01*
X88166006Y-73382077D01*
X88285296Y-73552442D01*
X88285300Y-73552446D01*
X88288402Y-73556877D01*
X88443123Y-73711598D01*
X88622361Y-73837102D01*
X88820670Y-73929575D01*
X88825893Y-73930974D01*
X88825897Y-73930976D01*
X88992901Y-73975724D01*
X89032023Y-73986207D01*
X89250000Y-74005277D01*
X89467977Y-73986207D01*
X89507099Y-73975724D01*
X89674103Y-73930976D01*
X89674107Y-73930974D01*
X89679330Y-73929575D01*
X89877639Y-73837102D01*
X90056877Y-73711598D01*
X90211598Y-73556877D01*
X90214700Y-73552446D01*
X90214704Y-73552442D01*
X90333994Y-73382077D01*
X90333995Y-73382075D01*
X90337102Y-73377638D01*
X90429575Y-73179330D01*
X90439989Y-73140467D01*
X90475730Y-73007077D01*
X90486207Y-72967977D01*
X90505277Y-72750000D01*
X90486207Y-72532023D01*
X90466787Y-72459548D01*
X90430976Y-72325897D01*
X90430974Y-72325893D01*
X90429575Y-72320670D01*
X90337102Y-72122362D01*
X90315275Y-72091189D01*
X90214704Y-71947558D01*
X90214700Y-71947554D01*
X90211598Y-71943123D01*
X90056877Y-71788402D01*
X89877639Y-71662898D01*
X89679330Y-71570425D01*
X89674107Y-71569026D01*
X89674103Y-71569024D01*
X89491780Y-71520171D01*
X89467977Y-71513793D01*
X89373318Y-71505512D01*
X89340267Y-71502620D01*
X89275198Y-71477168D01*
X89249931Y-71442274D01*
X89235979Y-71467397D01*
X89174419Y-71500443D01*
X89159733Y-71502620D01*
X89126682Y-71505512D01*
X89032023Y-71513793D01*
X89008220Y-71520171D01*
X88825897Y-71569024D01*
X88825893Y-71569026D01*
X88820670Y-71570425D01*
X88622362Y-71662898D01*
X88617925Y-71666005D01*
X88617923Y-71666006D01*
X88447558Y-71785296D01*
X88447554Y-71785300D01*
X88443123Y-71788402D01*
X88288402Y-71943123D01*
X88285300Y-71947554D01*
X88285296Y-71947558D01*
X88184725Y-72091189D01*
X88162898Y-72122362D01*
X88070425Y-72320670D01*
X88069026Y-72325893D01*
X88069024Y-72325897D01*
X88033213Y-72459548D01*
X88013793Y-72532023D01*
X87994723Y-72750000D01*
X87250500Y-72750000D01*
X87250500Y-70982676D01*
X88382064Y-70982676D01*
X88387701Y-70990206D01*
X88559106Y-71095245D01*
X88567769Y-71099659D01*
X88778061Y-71186764D01*
X88787297Y-71189765D01*
X89008634Y-71242904D01*
X89018219Y-71244422D01*
X89158655Y-71255474D01*
X89223943Y-71280358D01*
X89250142Y-71315882D01*
X89264795Y-71290031D01*
X89326641Y-71257523D01*
X89341345Y-71255474D01*
X89481781Y-71244422D01*
X89491366Y-71242904D01*
X89712703Y-71189765D01*
X89721939Y-71186764D01*
X89932231Y-71099659D01*
X89940894Y-71095245D01*
X90108689Y-70992419D01*
X90118001Y-70982125D01*
X90114278Y-70973488D01*
X89262607Y-70121817D01*
X89248887Y-70114325D01*
X89247081Y-70114454D01*
X89240574Y-70118636D01*
X88388715Y-70970495D01*
X88382064Y-70982676D01*
X87250500Y-70982676D01*
X87250500Y-69754854D01*
X87737719Y-69754854D01*
X87755578Y-69981781D01*
X87757096Y-69991366D01*
X87810235Y-70212703D01*
X87813236Y-70221939D01*
X87900341Y-70432231D01*
X87904755Y-70440894D01*
X88007581Y-70608689D01*
X88017875Y-70618001D01*
X88026512Y-70614278D01*
X88878183Y-69762607D01*
X88884459Y-69751113D01*
X89614325Y-69751113D01*
X89614454Y-69752919D01*
X89618636Y-69759426D01*
X90470495Y-70611285D01*
X90482676Y-70617936D01*
X90490206Y-70612299D01*
X90595245Y-70440894D01*
X90599659Y-70432231D01*
X90686764Y-70221939D01*
X90689765Y-70212703D01*
X90742904Y-69991366D01*
X90744422Y-69981781D01*
X90762281Y-69754854D01*
X94237719Y-69754854D01*
X94255578Y-69981781D01*
X94257096Y-69991366D01*
X94310235Y-70212703D01*
X94313236Y-70221939D01*
X94400341Y-70432231D01*
X94404755Y-70440894D01*
X94507581Y-70608689D01*
X94517875Y-70618001D01*
X94526512Y-70614278D01*
X95378183Y-69762607D01*
X95385675Y-69748887D01*
X95385546Y-69747081D01*
X95381364Y-69740574D01*
X94529505Y-68888715D01*
X94517324Y-68882064D01*
X94509794Y-68887701D01*
X94404755Y-69059106D01*
X94400341Y-69067769D01*
X94313236Y-69278061D01*
X94310235Y-69287297D01*
X94257096Y-69508634D01*
X94255578Y-69518219D01*
X94237719Y-69745146D01*
X94237719Y-69754854D01*
X90762281Y-69754854D01*
X90762281Y-69745146D01*
X90744422Y-69518219D01*
X90742904Y-69508634D01*
X90689765Y-69287297D01*
X90686764Y-69278061D01*
X90599659Y-69067769D01*
X90595245Y-69059106D01*
X90492419Y-68891311D01*
X90482125Y-68881999D01*
X90473488Y-68885722D01*
X89621817Y-69737393D01*
X89614325Y-69751113D01*
X88884459Y-69751113D01*
X88885675Y-69748887D01*
X88885546Y-69747081D01*
X88881364Y-69740574D01*
X88029505Y-68888715D01*
X88017324Y-68882064D01*
X88009794Y-68887701D01*
X87904755Y-69059106D01*
X87900341Y-69067769D01*
X87813236Y-69278061D01*
X87810235Y-69287297D01*
X87757096Y-69508634D01*
X87755578Y-69518219D01*
X87737719Y-69745146D01*
X87737719Y-69754854D01*
X87250500Y-69754854D01*
X87250500Y-68517875D01*
X88381999Y-68517875D01*
X88385722Y-68526512D01*
X89237393Y-69378183D01*
X89251113Y-69385675D01*
X89252919Y-69385546D01*
X89259426Y-69381364D01*
X90111285Y-68529505D01*
X90117635Y-68517875D01*
X94881999Y-68517875D01*
X94885722Y-68526512D01*
X95737393Y-69378183D01*
X95751113Y-69385675D01*
X95752919Y-69385546D01*
X95759426Y-69381364D01*
X96611285Y-68529505D01*
X96617936Y-68517324D01*
X96612299Y-68509794D01*
X96440894Y-68404755D01*
X96432231Y-68400341D01*
X96221939Y-68313236D01*
X96212703Y-68310235D01*
X95991366Y-68257096D01*
X95981781Y-68255578D01*
X95754854Y-68237719D01*
X95745146Y-68237719D01*
X95518219Y-68255578D01*
X95508634Y-68257096D01*
X95287297Y-68310235D01*
X95278061Y-68313236D01*
X95067769Y-68400341D01*
X95059106Y-68404755D01*
X94891311Y-68507581D01*
X94881999Y-68517875D01*
X90117635Y-68517875D01*
X90117936Y-68517324D01*
X90112299Y-68509794D01*
X89940894Y-68404755D01*
X89932231Y-68400341D01*
X89721939Y-68313236D01*
X89712703Y-68310235D01*
X89491366Y-68257096D01*
X89481781Y-68255578D01*
X89254854Y-68237719D01*
X89245146Y-68237719D01*
X89018219Y-68255578D01*
X89008634Y-68257096D01*
X88787297Y-68310235D01*
X88778061Y-68313236D01*
X88567769Y-68400341D01*
X88559106Y-68404755D01*
X88391311Y-68507581D01*
X88381999Y-68517875D01*
X87250500Y-68517875D01*
X87250500Y-65250000D01*
X87994723Y-65250000D01*
X88013793Y-65467977D01*
X88015195Y-65473209D01*
X88031774Y-65535081D01*
X88070425Y-65679330D01*
X88162898Y-65877638D01*
X88166005Y-65882075D01*
X88166006Y-65882077D01*
X88285296Y-66052442D01*
X88285300Y-66052446D01*
X88288402Y-66056877D01*
X88443123Y-66211598D01*
X88622361Y-66337102D01*
X88820670Y-66429575D01*
X88825893Y-66430974D01*
X88825897Y-66430976D01*
X88992901Y-66475724D01*
X89032023Y-66486207D01*
X89250000Y-66505277D01*
X89467977Y-66486207D01*
X89507099Y-66475724D01*
X89674103Y-66430976D01*
X89674107Y-66430974D01*
X89679330Y-66429575D01*
X89877639Y-66337102D01*
X90056877Y-66211598D01*
X90211598Y-66056877D01*
X90214700Y-66052446D01*
X90214704Y-66052442D01*
X90333994Y-65882077D01*
X90333995Y-65882075D01*
X90337102Y-65877638D01*
X90429575Y-65679330D01*
X90468227Y-65535081D01*
X90484805Y-65473209D01*
X90486207Y-65467977D01*
X90505277Y-65250000D01*
X90486207Y-65032023D01*
X90429575Y-64820670D01*
X90337102Y-64622362D01*
X90333994Y-64617923D01*
X90214704Y-64447558D01*
X90214700Y-64447554D01*
X90211598Y-64443123D01*
X90056877Y-64288402D01*
X89877639Y-64162898D01*
X89679330Y-64070425D01*
X89674107Y-64069026D01*
X89674103Y-64069024D01*
X89473209Y-64015195D01*
X89473210Y-64015195D01*
X89467977Y-64013793D01*
X89250000Y-63994723D01*
X89032023Y-64013793D01*
X89026790Y-64015195D01*
X89026791Y-64015195D01*
X88825897Y-64069024D01*
X88825893Y-64069026D01*
X88820670Y-64070425D01*
X88622362Y-64162898D01*
X88617925Y-64166005D01*
X88617923Y-64166006D01*
X88447558Y-64285296D01*
X88447557Y-64285297D01*
X88443123Y-64288402D01*
X88288402Y-64443123D01*
X88285300Y-64447554D01*
X88285296Y-64447558D01*
X88166006Y-64617923D01*
X88162898Y-64622362D01*
X88070425Y-64820670D01*
X88013793Y-65032023D01*
X87994723Y-65250000D01*
X87250500Y-65250000D01*
X87250500Y-64036885D01*
X87252883Y-64012694D01*
X87253025Y-64011980D01*
X87255408Y-64000000D01*
X87253025Y-63988021D01*
X87253025Y-63980452D01*
X87253622Y-63968298D01*
X87263704Y-63865935D01*
X87268446Y-63842093D01*
X87304007Y-63724865D01*
X87313310Y-63702407D01*
X87371058Y-63594369D01*
X87384563Y-63574158D01*
X87462276Y-63479464D01*
X87479464Y-63462276D01*
X87574158Y-63384563D01*
X87594369Y-63371058D01*
X87702407Y-63313310D01*
X87724865Y-63304007D01*
X87842095Y-63268446D01*
X87865935Y-63263704D01*
X87968298Y-63253622D01*
X87980452Y-63253025D01*
X87988021Y-63253025D01*
X88000000Y-63255408D01*
X88011980Y-63253025D01*
X88012694Y-63252883D01*
X88036885Y-63250500D01*
X96963115Y-63250500D01*
X96987306Y-63252883D01*
G37*
%TD.AperFunction*%
%TD*%
M02*
