M48
; DRILL file {KiCad (6.0.0-0)} date Thursday, 30 December 2021 at 08:19:39
; FORMAT={-:-/ absolute / inch / decimal}
; #@! TF.CreationDate,2021-12-30T08:19:39+00:00
; #@! TF.GenerationSoftware,Kicad,Pcbnew,(6.0.0-0)
; #@! TF.FileFunction,Plated,1,2,PTH
FMAT,2
INCH
; #@! TA.AperFunction,Plated,PTH,ComponentDrill
T1C0.0098
; #@! TA.AperFunction,Plated,PTH,ViaDrill
T2C0.0157
; #@! TA.AperFunction,Plated,PTH,ComponentDrill
T3C0.0236
; #@! TA.AperFunction,Plated,PTH,ComponentDrill
T4C0.0335
; #@! TA.AperFunction,Plated,PTH,ComponentDrill
T5C0.0394
; #@! TA.AperFunction,Plated,PTH,ComponentDrill
T6C0.0492
; #@! TA.AperFunction,Plated,PTH,ComponentDrill
T7C0.1220
%
G90
G05
T1
X3.936Y-3.4695
T2
X3.6142Y-3.563
X3.6732Y-3.563
X3.7795Y-2.8976
X3.7972Y-3.412
X3.8004Y-3.4556
X3.8285Y-3.5925
X3.8346Y-2.6181
X3.8346Y-2.6654
X3.8346Y-2.7126
X3.8679Y-3.5925
X3.8881Y-3.3396
X3.9072Y-3.592
X3.9203Y-3.2165
X3.9466Y-3.5923
X3.9862Y-3.593
X4.0261Y-3.5925
X4.0817Y-3.3804
X4.0817Y-3.4245
X4.0874Y-3.4825
X4.1043Y-3.2175
X4.1043Y-3.5827
X4.1399Y-2.9062
X4.1986Y-3.6009
X4.2441Y-3.5906
X4.2664Y-3.3279
X4.2835Y-3.3848
X4.2874Y-2.7992
X4.2914Y-2.8858
X4.3458Y-3.5973
X4.3482Y-2.8196
X4.3791Y-2.7952
X4.6555Y-3.111
X4.6852Y-3.2095
X4.7249Y-3.1367
X4.7362Y-3.0512
X4.7426Y-3.1911
X4.75Y-2.9754
X4.7772Y-2.9321
X4.8957Y-3.4978
T3
X3.8134Y-3.7089
X4.0409Y-3.7089
T4
X4.2933Y-3.6673
X4.3917Y-3.6673
X4.4902Y-3.6673
X4.5886Y-3.6673
X4.687Y-3.6673
X4.7854Y-3.6673
X4.8839Y-3.6673
X4.9823Y-3.6673
T5
X3.6417Y-2.9087
X3.6417Y-3.0087
X3.6417Y-3.1087
X3.6417Y-3.2087
X3.6417Y-3.3087
X3.6417Y-3.4087
X3.6417Y-3.5087
X3.7571Y-3.8537
X3.8031Y-2.7874
X3.9031Y-2.7874
X4.0031Y-2.7874
X4.0972Y-3.8537
X4.1031Y-2.7874
X4.1811Y-3.7795
X4.2811Y-3.7795
T6
X3.7571Y-3.6896
X4.0972Y-3.6896
T7
X3.6417Y-2.5787
X3.6417Y-3.8386
X5.1969Y-2.5787
X5.1969Y-3.8386
T0
M30
