%TF.GenerationSoftware,KiCad,Pcbnew,(5.1.9-0-10_14)*%
%TF.CreationDate,2021-08-26T08:28:37+01:00*%
%TF.ProjectId,EnvMon,456e764d-6f6e-42e6-9b69-6361645f7063,4*%
%TF.SameCoordinates,Original*%
%TF.FileFunction,Paste,Top*%
%TF.FilePolarity,Positive*%
%FSLAX46Y46*%
G04 Gerber Fmt 4.6, Leading zero omitted, Abs format (unit mm)*
G04 Created by KiCad (PCBNEW (5.1.9-0-10_14)) date 2021-08-26 08:28:37*
%MOMM*%
%LPD*%
G01*
G04 APERTURE LIST*
%ADD10R,0.540000X0.990000*%
%ADD11R,1.800000X0.810000*%
%ADD12R,0.810000X1.800000*%
%ADD13R,0.765000X0.450000*%
%ADD14R,0.420000X0.798000*%
G04 APERTURE END LIST*
%TO.C,U1*%
G36*
G01*
X102200000Y-79950000D02*
X102200000Y-79450000D01*
G75*
G02*
X102450000Y-79200000I250000J0D01*
G01*
X103150000Y-79200000D01*
G75*
G02*
X103400000Y-79450000I0J-250000D01*
G01*
X103400000Y-79950000D01*
G75*
G02*
X103150000Y-80200000I-250000J0D01*
G01*
X102450000Y-80200000D01*
G75*
G02*
X102200000Y-79950000I0J250000D01*
G01*
G37*
G36*
G01*
X102200000Y-78800000D02*
X102200000Y-78300000D01*
G75*
G02*
X102450000Y-78050000I250000J0D01*
G01*
X103150000Y-78050000D01*
G75*
G02*
X103400000Y-78300000I0J-250000D01*
G01*
X103400000Y-78800000D01*
G75*
G02*
X103150000Y-79050000I-250000J0D01*
G01*
X102450000Y-79050000D01*
G75*
G02*
X102200000Y-78800000I0J250000D01*
G01*
G37*
G36*
G01*
X102200000Y-77650000D02*
X102200000Y-77150000D01*
G75*
G02*
X102450000Y-76900000I250000J0D01*
G01*
X103150000Y-76900000D01*
G75*
G02*
X103400000Y-77150000I0J-250000D01*
G01*
X103400000Y-77650000D01*
G75*
G02*
X103150000Y-77900000I-250000J0D01*
G01*
X102450000Y-77900000D01*
G75*
G02*
X102200000Y-77650000I0J250000D01*
G01*
G37*
G36*
G01*
X99200000Y-78800000D02*
X99200000Y-78300000D01*
G75*
G02*
X99450000Y-78050000I250000J0D01*
G01*
X100150000Y-78050000D01*
G75*
G02*
X100400000Y-78300000I0J-250000D01*
G01*
X100400000Y-78800000D01*
G75*
G02*
X100150000Y-79050000I-250000J0D01*
G01*
X99450000Y-79050000D01*
G75*
G02*
X99200000Y-78800000I0J250000D01*
G01*
G37*
G36*
G01*
X99200000Y-79950000D02*
X99200000Y-79450000D01*
G75*
G02*
X99450000Y-79200000I250000J0D01*
G01*
X100150000Y-79200000D01*
G75*
G02*
X100400000Y-79450000I0J-250000D01*
G01*
X100400000Y-79950000D01*
G75*
G02*
X100150000Y-80200000I-250000J0D01*
G01*
X99450000Y-80200000D01*
G75*
G02*
X99200000Y-79950000I0J250000D01*
G01*
G37*
G36*
G01*
X99200000Y-77650000D02*
X99200000Y-77150000D01*
G75*
G02*
X99450000Y-76900000I250000J0D01*
G01*
X100150000Y-76900000D01*
G75*
G02*
X100400000Y-77150000I0J-250000D01*
G01*
X100400000Y-77650000D01*
G75*
G02*
X100150000Y-77900000I-250000J0D01*
G01*
X99450000Y-77900000D01*
G75*
G02*
X99200000Y-77650000I0J250000D01*
G01*
G37*
D10*
X98350000Y-77150000D03*
X96450000Y-77150000D03*
X97400000Y-77150000D03*
X96450000Y-79850000D03*
X97400000Y-79850000D03*
X98350000Y-79850000D03*
G36*
G01*
X102372500Y-80650000D02*
X103227500Y-80650000D01*
G75*
G02*
X103452500Y-80875000I0J-225000D01*
G01*
X103452500Y-81325000D01*
G75*
G02*
X103227500Y-81550000I-225000J0D01*
G01*
X102372500Y-81550000D01*
G75*
G02*
X102147500Y-81325000I0J225000D01*
G01*
X102147500Y-80875000D01*
G75*
G02*
X102372500Y-80650000I225000J0D01*
G01*
G37*
G36*
G01*
X102372500Y-82550000D02*
X103227500Y-82550000D01*
G75*
G02*
X103452500Y-82775000I0J-225000D01*
G01*
X103452500Y-83225000D01*
G75*
G02*
X103227500Y-83450000I-225000J0D01*
G01*
X102372500Y-83450000D01*
G75*
G02*
X102147500Y-83225000I0J225000D01*
G01*
X102147500Y-82775000D01*
G75*
G02*
X102372500Y-82550000I225000J0D01*
G01*
G37*
G36*
G01*
X96122500Y-82550000D02*
X96977500Y-82550000D01*
G75*
G02*
X97202500Y-82775000I0J-225000D01*
G01*
X97202500Y-83225000D01*
G75*
G02*
X96977500Y-83450000I-225000J0D01*
G01*
X96122500Y-83450000D01*
G75*
G02*
X95897500Y-83225000I0J225000D01*
G01*
X95897500Y-82775000D01*
G75*
G02*
X96122500Y-82550000I225000J0D01*
G01*
G37*
G36*
G01*
X96122500Y-80650000D02*
X96977500Y-80650000D01*
G75*
G02*
X97202500Y-80875000I0J-225000D01*
G01*
X97202500Y-81325000D01*
G75*
G02*
X96977500Y-81550000I-225000J0D01*
G01*
X96122500Y-81550000D01*
G75*
G02*
X95897500Y-81325000I0J225000D01*
G01*
X95897500Y-80875000D01*
G75*
G02*
X96122500Y-80650000I225000J0D01*
G01*
G37*
G36*
G01*
X95525000Y-78130000D02*
X95075000Y-78130000D01*
G75*
G02*
X94872500Y-77927500I0J202500D01*
G01*
X94872500Y-77522500D01*
G75*
G02*
X95075000Y-77320000I202500J0D01*
G01*
X95525000Y-77320000D01*
G75*
G02*
X95727500Y-77522500I0J-202500D01*
G01*
X95727500Y-77927500D01*
G75*
G02*
X95525000Y-78130000I-202500J0D01*
G01*
G37*
G36*
G01*
X95525000Y-79680000D02*
X95075000Y-79680000D01*
G75*
G02*
X94872500Y-79477500I0J202500D01*
G01*
X94872500Y-79072500D01*
G75*
G02*
X95075000Y-78870000I202500J0D01*
G01*
X95525000Y-78870000D01*
G75*
G02*
X95727500Y-79072500I0J-202500D01*
G01*
X95727500Y-79477500D01*
G75*
G02*
X95525000Y-79680000I-202500J0D01*
G01*
G37*
G36*
G01*
X97556250Y-82233064D02*
X97556250Y-81106936D01*
G75*
G02*
X97780686Y-80882500I224436J0D01*
G01*
X98614314Y-80882500D01*
G75*
G02*
X98838750Y-81106936I0J-224436D01*
G01*
X98838750Y-82233064D01*
G75*
G02*
X98614314Y-82457500I-224436J0D01*
G01*
X97780686Y-82457500D01*
G75*
G02*
X97556250Y-82233064I0J224436D01*
G01*
G37*
G36*
G01*
X100521250Y-82233064D02*
X100521250Y-81106936D01*
G75*
G02*
X100745686Y-80882500I224436J0D01*
G01*
X101579314Y-80882500D01*
G75*
G02*
X101803750Y-81106936I0J-224436D01*
G01*
X101803750Y-82233064D01*
G75*
G02*
X101579314Y-82457500I-224436J0D01*
G01*
X100745686Y-82457500D01*
G75*
G02*
X100521250Y-82233064I0J224436D01*
G01*
G37*
%TD*%
%TO.C,U3*%
G36*
G01*
X113200000Y-76747500D02*
X113200000Y-76282500D01*
G75*
G02*
X113432500Y-76050000I232500J0D01*
G01*
X113897500Y-76050000D01*
G75*
G02*
X114130000Y-76282500I0J-232500D01*
G01*
X114130000Y-76747500D01*
G75*
G02*
X113897500Y-76980000I-232500J0D01*
G01*
X113432500Y-76980000D01*
G75*
G02*
X113200000Y-76747500I0J232500D01*
G01*
G37*
G36*
G01*
X112050000Y-80197500D02*
X112050000Y-79732500D01*
G75*
G02*
X112282500Y-79500000I232500J0D01*
G01*
X112747500Y-79500000D01*
G75*
G02*
X112980000Y-79732500I0J-232500D01*
G01*
X112980000Y-80197500D01*
G75*
G02*
X112747500Y-80430000I-232500J0D01*
G01*
X112282500Y-80430000D01*
G75*
G02*
X112050000Y-80197500I0J232500D01*
G01*
G37*
G36*
G01*
X112050000Y-79047500D02*
X112050000Y-78582500D01*
G75*
G02*
X112282500Y-78350000I232500J0D01*
G01*
X112747500Y-78350000D01*
G75*
G02*
X112980000Y-78582500I0J-232500D01*
G01*
X112980000Y-79047500D01*
G75*
G02*
X112747500Y-79280000I-232500J0D01*
G01*
X112282500Y-79280000D01*
G75*
G02*
X112050000Y-79047500I0J232500D01*
G01*
G37*
G36*
G01*
X112050000Y-77897500D02*
X112050000Y-77432500D01*
G75*
G02*
X112282500Y-77200000I232500J0D01*
G01*
X112747500Y-77200000D01*
G75*
G02*
X112980000Y-77432500I0J-232500D01*
G01*
X112980000Y-77897500D01*
G75*
G02*
X112747500Y-78130000I-232500J0D01*
G01*
X112282500Y-78130000D01*
G75*
G02*
X112050000Y-77897500I0J232500D01*
G01*
G37*
G36*
G01*
X112050000Y-76747500D02*
X112050000Y-76282500D01*
G75*
G02*
X112282500Y-76050000I232500J0D01*
G01*
X112747500Y-76050000D01*
G75*
G02*
X112980000Y-76282500I0J-232500D01*
G01*
X112980000Y-76747500D01*
G75*
G02*
X112747500Y-76980000I-232500J0D01*
G01*
X112282500Y-76980000D01*
G75*
G02*
X112050000Y-76747500I0J232500D01*
G01*
G37*
G36*
G01*
X115500000Y-80197500D02*
X115500000Y-79732500D01*
G75*
G02*
X115732500Y-79500000I232500J0D01*
G01*
X116197500Y-79500000D01*
G75*
G02*
X116430000Y-79732500I0J-232500D01*
G01*
X116430000Y-80197500D01*
G75*
G02*
X116197500Y-80430000I-232500J0D01*
G01*
X115732500Y-80430000D01*
G75*
G02*
X115500000Y-80197500I0J232500D01*
G01*
G37*
G36*
G01*
X115500000Y-79047500D02*
X115500000Y-78582500D01*
G75*
G02*
X115732500Y-78350000I232500J0D01*
G01*
X116197500Y-78350000D01*
G75*
G02*
X116430000Y-78582500I0J-232500D01*
G01*
X116430000Y-79047500D01*
G75*
G02*
X116197500Y-79280000I-232500J0D01*
G01*
X115732500Y-79280000D01*
G75*
G02*
X115500000Y-79047500I0J232500D01*
G01*
G37*
G36*
G01*
X115500000Y-77897500D02*
X115500000Y-77432500D01*
G75*
G02*
X115732500Y-77200000I232500J0D01*
G01*
X116197500Y-77200000D01*
G75*
G02*
X116430000Y-77432500I0J-232500D01*
G01*
X116430000Y-77897500D01*
G75*
G02*
X116197500Y-78130000I-232500J0D01*
G01*
X115732500Y-78130000D01*
G75*
G02*
X115500000Y-77897500I0J232500D01*
G01*
G37*
G36*
G01*
X115500000Y-76747500D02*
X115500000Y-76282500D01*
G75*
G02*
X115732500Y-76050000I232500J0D01*
G01*
X116197500Y-76050000D01*
G75*
G02*
X116430000Y-76282500I0J-232500D01*
G01*
X116430000Y-76747500D01*
G75*
G02*
X116197500Y-76980000I-232500J0D01*
G01*
X115732500Y-76980000D01*
G75*
G02*
X115500000Y-76747500I0J232500D01*
G01*
G37*
G36*
G01*
X114350000Y-80197500D02*
X114350000Y-79732500D01*
G75*
G02*
X114582500Y-79500000I232500J0D01*
G01*
X115047500Y-79500000D01*
G75*
G02*
X115280000Y-79732500I0J-232500D01*
G01*
X115280000Y-80197500D01*
G75*
G02*
X115047500Y-80430000I-232500J0D01*
G01*
X114582500Y-80430000D01*
G75*
G02*
X114350000Y-80197500I0J232500D01*
G01*
G37*
G36*
G01*
X114350000Y-79047500D02*
X114350000Y-78582500D01*
G75*
G02*
X114582500Y-78350000I232500J0D01*
G01*
X115047500Y-78350000D01*
G75*
G02*
X115280000Y-78582500I0J-232500D01*
G01*
X115280000Y-79047500D01*
G75*
G02*
X115047500Y-79280000I-232500J0D01*
G01*
X114582500Y-79280000D01*
G75*
G02*
X114350000Y-79047500I0J232500D01*
G01*
G37*
G36*
G01*
X114350000Y-77897500D02*
X114350000Y-77432500D01*
G75*
G02*
X114582500Y-77200000I232500J0D01*
G01*
X115047500Y-77200000D01*
G75*
G02*
X115280000Y-77432500I0J-232500D01*
G01*
X115280000Y-77897500D01*
G75*
G02*
X115047500Y-78130000I-232500J0D01*
G01*
X114582500Y-78130000D01*
G75*
G02*
X114350000Y-77897500I0J232500D01*
G01*
G37*
G36*
G01*
X114350000Y-76747500D02*
X114350000Y-76282500D01*
G75*
G02*
X114582500Y-76050000I232500J0D01*
G01*
X115047500Y-76050000D01*
G75*
G02*
X115280000Y-76282500I0J-232500D01*
G01*
X115280000Y-76747500D01*
G75*
G02*
X115047500Y-76980000I-232500J0D01*
G01*
X114582500Y-76980000D01*
G75*
G02*
X114350000Y-76747500I0J232500D01*
G01*
G37*
G36*
G01*
X113200000Y-80197500D02*
X113200000Y-79732500D01*
G75*
G02*
X113432500Y-79500000I232500J0D01*
G01*
X113897500Y-79500000D01*
G75*
G02*
X114130000Y-79732500I0J-232500D01*
G01*
X114130000Y-80197500D01*
G75*
G02*
X113897500Y-80430000I-232500J0D01*
G01*
X113432500Y-80430000D01*
G75*
G02*
X113200000Y-80197500I0J232500D01*
G01*
G37*
G36*
G01*
X113200000Y-79047500D02*
X113200000Y-78582500D01*
G75*
G02*
X113432500Y-78350000I232500J0D01*
G01*
X113897500Y-78350000D01*
G75*
G02*
X114130000Y-78582500I0J-232500D01*
G01*
X114130000Y-79047500D01*
G75*
G02*
X113897500Y-79280000I-232500J0D01*
G01*
X113432500Y-79280000D01*
G75*
G02*
X113200000Y-79047500I0J232500D01*
G01*
G37*
G36*
G01*
X113200000Y-77897500D02*
X113200000Y-77432500D01*
G75*
G02*
X113432500Y-77200000I232500J0D01*
G01*
X113897500Y-77200000D01*
G75*
G02*
X114130000Y-77432500I0J-232500D01*
G01*
X114130000Y-77897500D01*
G75*
G02*
X113897500Y-78130000I-232500J0D01*
G01*
X113432500Y-78130000D01*
G75*
G02*
X113200000Y-77897500I0J232500D01*
G01*
G37*
D11*
X123750000Y-70745000D03*
X123750000Y-72015000D03*
X123750000Y-73285000D03*
X123750000Y-74555000D03*
X123750000Y-75825000D03*
X123750000Y-77095000D03*
X123750000Y-78365000D03*
X123750000Y-79635000D03*
X123750000Y-80905000D03*
X123750000Y-82175000D03*
X123750000Y-83445000D03*
X123750000Y-84715000D03*
X123750000Y-85985000D03*
X123750000Y-87255000D03*
D12*
X120965000Y-88255000D03*
X119695000Y-88255000D03*
X118425000Y-88255000D03*
X117155000Y-88255000D03*
X115885000Y-88255000D03*
X114615000Y-88255000D03*
X113345000Y-88255000D03*
X112075000Y-88255000D03*
X110805000Y-88255000D03*
X109535000Y-88255000D03*
D11*
X106750000Y-87255000D03*
X106750000Y-85985000D03*
X106750000Y-84715000D03*
X106750000Y-83445000D03*
X106750000Y-82175000D03*
X106750000Y-80905000D03*
X106750000Y-79635000D03*
X106750000Y-78365000D03*
X106750000Y-77095000D03*
X106750000Y-75825000D03*
X106750000Y-74555000D03*
X106750000Y-73285000D03*
X106750000Y-72015000D03*
X106750000Y-70745000D03*
%TD*%
%TO.C,R5*%
G36*
G01*
X98735000Y-67452500D02*
X98735000Y-67947500D01*
G75*
G02*
X98555000Y-68127500I-180000J0D01*
G01*
X98195000Y-68127500D01*
G75*
G02*
X98015000Y-67947500I0J180000D01*
G01*
X98015000Y-67452500D01*
G75*
G02*
X98195000Y-67272500I180000J0D01*
G01*
X98555000Y-67272500D01*
G75*
G02*
X98735000Y-67452500I0J-180000D01*
G01*
G37*
G36*
G01*
X100385000Y-67452500D02*
X100385000Y-67947500D01*
G75*
G02*
X100205000Y-68127500I-180000J0D01*
G01*
X99845000Y-68127500D01*
G75*
G02*
X99665000Y-67947500I0J180000D01*
G01*
X99665000Y-67452500D01*
G75*
G02*
X99845000Y-67272500I180000J0D01*
G01*
X100205000Y-67272500D01*
G75*
G02*
X100385000Y-67452500I0J-180000D01*
G01*
G37*
%TD*%
%TO.C,R4*%
G36*
G01*
X98735000Y-66252500D02*
X98735000Y-66747500D01*
G75*
G02*
X98555000Y-66927500I-180000J0D01*
G01*
X98195000Y-66927500D01*
G75*
G02*
X98015000Y-66747500I0J180000D01*
G01*
X98015000Y-66252500D01*
G75*
G02*
X98195000Y-66072500I180000J0D01*
G01*
X98555000Y-66072500D01*
G75*
G02*
X98735000Y-66252500I0J-180000D01*
G01*
G37*
G36*
G01*
X100385000Y-66252500D02*
X100385000Y-66747500D01*
G75*
G02*
X100205000Y-66927500I-180000J0D01*
G01*
X99845000Y-66927500D01*
G75*
G02*
X99665000Y-66747500I0J180000D01*
G01*
X99665000Y-66252500D01*
G75*
G02*
X99845000Y-66072500I180000J0D01*
G01*
X100205000Y-66072500D01*
G75*
G02*
X100385000Y-66252500I0J-180000D01*
G01*
G37*
%TD*%
%TO.C,R3*%
G36*
G01*
X98735000Y-68652500D02*
X98735000Y-69147500D01*
G75*
G02*
X98555000Y-69327500I-180000J0D01*
G01*
X98195000Y-69327500D01*
G75*
G02*
X98015000Y-69147500I0J180000D01*
G01*
X98015000Y-68652500D01*
G75*
G02*
X98195000Y-68472500I180000J0D01*
G01*
X98555000Y-68472500D01*
G75*
G02*
X98735000Y-68652500I0J-180000D01*
G01*
G37*
G36*
G01*
X100385000Y-68652500D02*
X100385000Y-69147500D01*
G75*
G02*
X100205000Y-69327500I-180000J0D01*
G01*
X99845000Y-69327500D01*
G75*
G02*
X99665000Y-69147500I0J180000D01*
G01*
X99665000Y-68652500D01*
G75*
G02*
X99845000Y-68472500I180000J0D01*
G01*
X100205000Y-68472500D01*
G75*
G02*
X100385000Y-68652500I0J-180000D01*
G01*
G37*
%TD*%
D13*
%TO.C,D2*%
X98325000Y-65200000D03*
X100075000Y-65200000D03*
X100075000Y-64200000D03*
X98325000Y-64200000D03*
%TD*%
%TO.C,U2*%
G36*
G01*
X100100000Y-88814000D02*
X100100000Y-88436000D01*
G75*
G02*
X100286000Y-88250000I186000J0D01*
G01*
X100664000Y-88250000D01*
G75*
G02*
X100850000Y-88436000I0J-186000D01*
G01*
X100850000Y-88814000D01*
G75*
G02*
X100664000Y-89000000I-186000J0D01*
G01*
X100286000Y-89000000D01*
G75*
G02*
X100100000Y-88814000I0J186000D01*
G01*
G37*
G36*
G01*
X100100000Y-87814000D02*
X100100000Y-87436000D01*
G75*
G02*
X100286000Y-87250000I186000J0D01*
G01*
X100664000Y-87250000D01*
G75*
G02*
X100850000Y-87436000I0J-186000D01*
G01*
X100850000Y-87814000D01*
G75*
G02*
X100664000Y-88000000I-186000J0D01*
G01*
X100286000Y-88000000D01*
G75*
G02*
X100100000Y-87814000I0J186000D01*
G01*
G37*
G36*
G01*
X99100000Y-88814000D02*
X99100000Y-88436000D01*
G75*
G02*
X99286000Y-88250000I186000J0D01*
G01*
X99664000Y-88250000D01*
G75*
G02*
X99850000Y-88436000I0J-186000D01*
G01*
X99850000Y-88814000D01*
G75*
G02*
X99664000Y-89000000I-186000J0D01*
G01*
X99286000Y-89000000D01*
G75*
G02*
X99100000Y-88814000I0J186000D01*
G01*
G37*
G36*
G01*
X99100000Y-87814000D02*
X99100000Y-87436000D01*
G75*
G02*
X99286000Y-87250000I186000J0D01*
G01*
X99664000Y-87250000D01*
G75*
G02*
X99850000Y-87436000I0J-186000D01*
G01*
X99850000Y-87814000D01*
G75*
G02*
X99664000Y-88000000I-186000J0D01*
G01*
X99286000Y-88000000D01*
G75*
G02*
X99100000Y-87814000I0J186000D01*
G01*
G37*
G36*
G01*
X98862500Y-86483750D02*
X98862500Y-85966250D01*
G75*
G02*
X98918750Y-85910000I56250J0D01*
G01*
X99031250Y-85910000D01*
G75*
G02*
X99087500Y-85966250I0J-56250D01*
G01*
X99087500Y-86483750D01*
G75*
G02*
X99031250Y-86540000I-56250J0D01*
G01*
X98918750Y-86540000D01*
G75*
G02*
X98862500Y-86483750I0J56250D01*
G01*
G37*
G36*
G01*
X99362500Y-86483750D02*
X99362500Y-85966250D01*
G75*
G02*
X99418750Y-85910000I56250J0D01*
G01*
X99531250Y-85910000D01*
G75*
G02*
X99587500Y-85966250I0J-56250D01*
G01*
X99587500Y-86483750D01*
G75*
G02*
X99531250Y-86540000I-56250J0D01*
G01*
X99418750Y-86540000D01*
G75*
G02*
X99362500Y-86483750I0J56250D01*
G01*
G37*
G36*
G01*
X99862500Y-86483750D02*
X99862500Y-85966250D01*
G75*
G02*
X99918750Y-85910000I56250J0D01*
G01*
X100031250Y-85910000D01*
G75*
G02*
X100087500Y-85966250I0J-56250D01*
G01*
X100087500Y-86483750D01*
G75*
G02*
X100031250Y-86540000I-56250J0D01*
G01*
X99918750Y-86540000D01*
G75*
G02*
X99862500Y-86483750I0J56250D01*
G01*
G37*
G36*
G01*
X100362500Y-86483750D02*
X100362500Y-85966250D01*
G75*
G02*
X100418750Y-85910000I56250J0D01*
G01*
X100531250Y-85910000D01*
G75*
G02*
X100587500Y-85966250I0J-56250D01*
G01*
X100587500Y-86483750D01*
G75*
G02*
X100531250Y-86540000I-56250J0D01*
G01*
X100418750Y-86540000D01*
G75*
G02*
X100362500Y-86483750I0J56250D01*
G01*
G37*
G36*
G01*
X100862500Y-86483750D02*
X100862500Y-85966250D01*
G75*
G02*
X100918750Y-85910000I56250J0D01*
G01*
X101031250Y-85910000D01*
G75*
G02*
X101087500Y-85966250I0J-56250D01*
G01*
X101087500Y-86483750D01*
G75*
G02*
X101031250Y-86540000I-56250J0D01*
G01*
X100918750Y-86540000D01*
G75*
G02*
X100862500Y-86483750I0J56250D01*
G01*
G37*
G36*
G01*
X101560000Y-87181250D02*
X101560000Y-87068750D01*
G75*
G02*
X101616250Y-87012500I56250J0D01*
G01*
X102133750Y-87012500D01*
G75*
G02*
X102190000Y-87068750I0J-56250D01*
G01*
X102190000Y-87181250D01*
G75*
G02*
X102133750Y-87237500I-56250J0D01*
G01*
X101616250Y-87237500D01*
G75*
G02*
X101560000Y-87181250I0J56250D01*
G01*
G37*
G36*
G01*
X101560000Y-87681250D02*
X101560000Y-87568750D01*
G75*
G02*
X101616250Y-87512500I56250J0D01*
G01*
X102133750Y-87512500D01*
G75*
G02*
X102190000Y-87568750I0J-56250D01*
G01*
X102190000Y-87681250D01*
G75*
G02*
X102133750Y-87737500I-56250J0D01*
G01*
X101616250Y-87737500D01*
G75*
G02*
X101560000Y-87681250I0J56250D01*
G01*
G37*
G36*
G01*
X101560000Y-88181250D02*
X101560000Y-88068750D01*
G75*
G02*
X101616250Y-88012500I56250J0D01*
G01*
X102133750Y-88012500D01*
G75*
G02*
X102190000Y-88068750I0J-56250D01*
G01*
X102190000Y-88181250D01*
G75*
G02*
X102133750Y-88237500I-56250J0D01*
G01*
X101616250Y-88237500D01*
G75*
G02*
X101560000Y-88181250I0J56250D01*
G01*
G37*
G36*
G01*
X101560000Y-88681250D02*
X101560000Y-88568750D01*
G75*
G02*
X101616250Y-88512500I56250J0D01*
G01*
X102133750Y-88512500D01*
G75*
G02*
X102190000Y-88568750I0J-56250D01*
G01*
X102190000Y-88681250D01*
G75*
G02*
X102133750Y-88737500I-56250J0D01*
G01*
X101616250Y-88737500D01*
G75*
G02*
X101560000Y-88681250I0J56250D01*
G01*
G37*
G36*
G01*
X101560000Y-89181250D02*
X101560000Y-89068750D01*
G75*
G02*
X101616250Y-89012500I56250J0D01*
G01*
X102133750Y-89012500D01*
G75*
G02*
X102190000Y-89068750I0J-56250D01*
G01*
X102190000Y-89181250D01*
G75*
G02*
X102133750Y-89237500I-56250J0D01*
G01*
X101616250Y-89237500D01*
G75*
G02*
X101560000Y-89181250I0J56250D01*
G01*
G37*
G36*
G01*
X100862500Y-90283750D02*
X100862500Y-89766250D01*
G75*
G02*
X100918750Y-89710000I56250J0D01*
G01*
X101031250Y-89710000D01*
G75*
G02*
X101087500Y-89766250I0J-56250D01*
G01*
X101087500Y-90283750D01*
G75*
G02*
X101031250Y-90340000I-56250J0D01*
G01*
X100918750Y-90340000D01*
G75*
G02*
X100862500Y-90283750I0J56250D01*
G01*
G37*
G36*
G01*
X100362500Y-90283750D02*
X100362500Y-89766250D01*
G75*
G02*
X100418750Y-89710000I56250J0D01*
G01*
X100531250Y-89710000D01*
G75*
G02*
X100587500Y-89766250I0J-56250D01*
G01*
X100587500Y-90283750D01*
G75*
G02*
X100531250Y-90340000I-56250J0D01*
G01*
X100418750Y-90340000D01*
G75*
G02*
X100362500Y-90283750I0J56250D01*
G01*
G37*
G36*
G01*
X99862500Y-90283750D02*
X99862500Y-89766250D01*
G75*
G02*
X99918750Y-89710000I56250J0D01*
G01*
X100031250Y-89710000D01*
G75*
G02*
X100087500Y-89766250I0J-56250D01*
G01*
X100087500Y-90283750D01*
G75*
G02*
X100031250Y-90340000I-56250J0D01*
G01*
X99918750Y-90340000D01*
G75*
G02*
X99862500Y-90283750I0J56250D01*
G01*
G37*
G36*
G01*
X99362500Y-90283750D02*
X99362500Y-89766250D01*
G75*
G02*
X99418750Y-89710000I56250J0D01*
G01*
X99531250Y-89710000D01*
G75*
G02*
X99587500Y-89766250I0J-56250D01*
G01*
X99587500Y-90283750D01*
G75*
G02*
X99531250Y-90340000I-56250J0D01*
G01*
X99418750Y-90340000D01*
G75*
G02*
X99362500Y-90283750I0J56250D01*
G01*
G37*
G36*
G01*
X98862500Y-90283750D02*
X98862500Y-89766250D01*
G75*
G02*
X98918750Y-89710000I56250J0D01*
G01*
X99031250Y-89710000D01*
G75*
G02*
X99087500Y-89766250I0J-56250D01*
G01*
X99087500Y-90283750D01*
G75*
G02*
X99031250Y-90340000I-56250J0D01*
G01*
X98918750Y-90340000D01*
G75*
G02*
X98862500Y-90283750I0J56250D01*
G01*
G37*
G36*
G01*
X97760000Y-89181250D02*
X97760000Y-89068750D01*
G75*
G02*
X97816250Y-89012500I56250J0D01*
G01*
X98333750Y-89012500D01*
G75*
G02*
X98390000Y-89068750I0J-56250D01*
G01*
X98390000Y-89181250D01*
G75*
G02*
X98333750Y-89237500I-56250J0D01*
G01*
X97816250Y-89237500D01*
G75*
G02*
X97760000Y-89181250I0J56250D01*
G01*
G37*
G36*
G01*
X97760000Y-88681250D02*
X97760000Y-88568750D01*
G75*
G02*
X97816250Y-88512500I56250J0D01*
G01*
X98333750Y-88512500D01*
G75*
G02*
X98390000Y-88568750I0J-56250D01*
G01*
X98390000Y-88681250D01*
G75*
G02*
X98333750Y-88737500I-56250J0D01*
G01*
X97816250Y-88737500D01*
G75*
G02*
X97760000Y-88681250I0J56250D01*
G01*
G37*
G36*
G01*
X97760000Y-88181250D02*
X97760000Y-88068750D01*
G75*
G02*
X97816250Y-88012500I56250J0D01*
G01*
X98333750Y-88012500D01*
G75*
G02*
X98390000Y-88068750I0J-56250D01*
G01*
X98390000Y-88181250D01*
G75*
G02*
X98333750Y-88237500I-56250J0D01*
G01*
X97816250Y-88237500D01*
G75*
G02*
X97760000Y-88181250I0J56250D01*
G01*
G37*
G36*
G01*
X97760000Y-87681250D02*
X97760000Y-87568750D01*
G75*
G02*
X97816250Y-87512500I56250J0D01*
G01*
X98333750Y-87512500D01*
G75*
G02*
X98390000Y-87568750I0J-56250D01*
G01*
X98390000Y-87681250D01*
G75*
G02*
X98333750Y-87737500I-56250J0D01*
G01*
X97816250Y-87737500D01*
G75*
G02*
X97760000Y-87681250I0J56250D01*
G01*
G37*
G36*
G01*
X97760000Y-87181250D02*
X97760000Y-87068750D01*
G75*
G02*
X97816250Y-87012500I56250J0D01*
G01*
X98333750Y-87012500D01*
G75*
G02*
X98390000Y-87068750I0J-56250D01*
G01*
X98390000Y-87181250D01*
G75*
G02*
X98333750Y-87237500I-56250J0D01*
G01*
X97816250Y-87237500D01*
G75*
G02*
X97760000Y-87181250I0J56250D01*
G01*
G37*
%TD*%
%TO.C,R2*%
G36*
G01*
X91586250Y-92973750D02*
X92013750Y-92973750D01*
G75*
G02*
X92227500Y-93187500I0J-213750D01*
G01*
X92227500Y-93637500D01*
G75*
G02*
X92013750Y-93851250I-213750J0D01*
G01*
X91586250Y-93851250D01*
G75*
G02*
X91372500Y-93637500I0J213750D01*
G01*
X91372500Y-93187500D01*
G75*
G02*
X91586250Y-92973750I213750J0D01*
G01*
G37*
G36*
G01*
X91586250Y-91148750D02*
X92013750Y-91148750D01*
G75*
G02*
X92227500Y-91362500I0J-213750D01*
G01*
X92227500Y-91812500D01*
G75*
G02*
X92013750Y-92026250I-213750J0D01*
G01*
X91586250Y-92026250D01*
G75*
G02*
X91372500Y-91812500I0J213750D01*
G01*
X91372500Y-91362500D01*
G75*
G02*
X91586250Y-91148750I213750J0D01*
G01*
G37*
%TD*%
%TO.C,R1*%
G36*
G01*
X93086250Y-92973750D02*
X93513750Y-92973750D01*
G75*
G02*
X93727500Y-93187500I0J-213750D01*
G01*
X93727500Y-93637500D01*
G75*
G02*
X93513750Y-93851250I-213750J0D01*
G01*
X93086250Y-93851250D01*
G75*
G02*
X92872500Y-93637500I0J213750D01*
G01*
X92872500Y-93187500D01*
G75*
G02*
X93086250Y-92973750I213750J0D01*
G01*
G37*
G36*
G01*
X93086250Y-91148750D02*
X93513750Y-91148750D01*
G75*
G02*
X93727500Y-91362500I0J-213750D01*
G01*
X93727500Y-91812500D01*
G75*
G02*
X93513750Y-92026250I-213750J0D01*
G01*
X93086250Y-92026250D01*
G75*
G02*
X92872500Y-91812500I0J213750D01*
G01*
X92872500Y-91362500D01*
G75*
G02*
X93086250Y-91148750I213750J0D01*
G01*
G37*
%TD*%
%TO.C,J1*%
G36*
G01*
X98700000Y-96942500D02*
X98700000Y-96477500D01*
G75*
G02*
X98932500Y-96245000I232500J0D01*
G01*
X99397500Y-96245000D01*
G75*
G02*
X99630000Y-96477500I0J-232500D01*
G01*
X99630000Y-96942500D01*
G75*
G02*
X99397500Y-97175000I-232500J0D01*
G01*
X98932500Y-97175000D01*
G75*
G02*
X98700000Y-96942500I0J232500D01*
G01*
G37*
G36*
G01*
X98700000Y-98092500D02*
X98700000Y-97627500D01*
G75*
G02*
X98932500Y-97395000I232500J0D01*
G01*
X99397500Y-97395000D01*
G75*
G02*
X99630000Y-97627500I0J-232500D01*
G01*
X99630000Y-98092500D01*
G75*
G02*
X99397500Y-98325000I-232500J0D01*
G01*
X98932500Y-98325000D01*
G75*
G02*
X98700000Y-98092500I0J232500D01*
G01*
G37*
G36*
G01*
X99850000Y-95792500D02*
X99850000Y-95327500D01*
G75*
G02*
X100082500Y-95095000I232500J0D01*
G01*
X100547500Y-95095000D01*
G75*
G02*
X100780000Y-95327500I0J-232500D01*
G01*
X100780000Y-95792500D01*
G75*
G02*
X100547500Y-96025000I-232500J0D01*
G01*
X100082500Y-96025000D01*
G75*
G02*
X99850000Y-95792500I0J232500D01*
G01*
G37*
G36*
G01*
X99850000Y-96942500D02*
X99850000Y-96477500D01*
G75*
G02*
X100082500Y-96245000I232500J0D01*
G01*
X100547500Y-96245000D01*
G75*
G02*
X100780000Y-96477500I0J-232500D01*
G01*
X100780000Y-96942500D01*
G75*
G02*
X100547500Y-97175000I-232500J0D01*
G01*
X100082500Y-97175000D01*
G75*
G02*
X99850000Y-96942500I0J232500D01*
G01*
G37*
G36*
G01*
X99850000Y-98092500D02*
X99850000Y-97627500D01*
G75*
G02*
X100082500Y-97395000I232500J0D01*
G01*
X100547500Y-97395000D01*
G75*
G02*
X100780000Y-97627500I0J-232500D01*
G01*
X100780000Y-98092500D01*
G75*
G02*
X100547500Y-98325000I-232500J0D01*
G01*
X100082500Y-98325000D01*
G75*
G02*
X99850000Y-98092500I0J232500D01*
G01*
G37*
G36*
G01*
X101000000Y-95792500D02*
X101000000Y-95327500D01*
G75*
G02*
X101232500Y-95095000I232500J0D01*
G01*
X101697500Y-95095000D01*
G75*
G02*
X101930000Y-95327500I0J-232500D01*
G01*
X101930000Y-95792500D01*
G75*
G02*
X101697500Y-96025000I-232500J0D01*
G01*
X101232500Y-96025000D01*
G75*
G02*
X101000000Y-95792500I0J232500D01*
G01*
G37*
G36*
G01*
X101000000Y-96942500D02*
X101000000Y-96477500D01*
G75*
G02*
X101232500Y-96245000I232500J0D01*
G01*
X101697500Y-96245000D01*
G75*
G02*
X101930000Y-96477500I0J-232500D01*
G01*
X101930000Y-96942500D01*
G75*
G02*
X101697500Y-97175000I-232500J0D01*
G01*
X101232500Y-97175000D01*
G75*
G02*
X101000000Y-96942500I0J232500D01*
G01*
G37*
G36*
G01*
X101000000Y-98092500D02*
X101000000Y-97627500D01*
G75*
G02*
X101232500Y-97395000I232500J0D01*
G01*
X101697500Y-97395000D01*
G75*
G02*
X101930000Y-97627500I0J-232500D01*
G01*
X101930000Y-98092500D01*
G75*
G02*
X101697500Y-98325000I-232500J0D01*
G01*
X101232500Y-98325000D01*
G75*
G02*
X101000000Y-98092500I0J232500D01*
G01*
G37*
G36*
G01*
X97550000Y-95792500D02*
X97550000Y-95327500D01*
G75*
G02*
X97782500Y-95095000I232500J0D01*
G01*
X98247500Y-95095000D01*
G75*
G02*
X98480000Y-95327500I0J-232500D01*
G01*
X98480000Y-95792500D01*
G75*
G02*
X98247500Y-96025000I-232500J0D01*
G01*
X97782500Y-96025000D01*
G75*
G02*
X97550000Y-95792500I0J232500D01*
G01*
G37*
G36*
G01*
X97550000Y-96942500D02*
X97550000Y-96477500D01*
G75*
G02*
X97782500Y-96245000I232500J0D01*
G01*
X98247500Y-96245000D01*
G75*
G02*
X98480000Y-96477500I0J-232500D01*
G01*
X98480000Y-96942500D01*
G75*
G02*
X98247500Y-97175000I-232500J0D01*
G01*
X97782500Y-97175000D01*
G75*
G02*
X97550000Y-96942500I0J232500D01*
G01*
G37*
G36*
G01*
X97550000Y-98092500D02*
X97550000Y-97627500D01*
G75*
G02*
X97782500Y-97395000I232500J0D01*
G01*
X98247500Y-97395000D01*
G75*
G02*
X98480000Y-97627500I0J-232500D01*
G01*
X98480000Y-98092500D01*
G75*
G02*
X98247500Y-98325000I-232500J0D01*
G01*
X97782500Y-98325000D01*
G75*
G02*
X97550000Y-98092500I0J232500D01*
G01*
G37*
G36*
G01*
X98700000Y-95792500D02*
X98700000Y-95327500D01*
G75*
G02*
X98932500Y-95095000I232500J0D01*
G01*
X99397500Y-95095000D01*
G75*
G02*
X99630000Y-95327500I0J-232500D01*
G01*
X99630000Y-95792500D01*
G75*
G02*
X99397500Y-96025000I-232500J0D01*
G01*
X98932500Y-96025000D01*
G75*
G02*
X98700000Y-95792500I0J232500D01*
G01*
G37*
D14*
X97350000Y-93135000D03*
X102150000Y-93135000D03*
G36*
G01*
X99865000Y-93580500D02*
X99865000Y-92689500D01*
G75*
G02*
X99932500Y-92622000I67500J0D01*
G01*
X100067500Y-92622000D01*
G75*
G02*
X100135000Y-92689500I0J-67500D01*
G01*
X100135000Y-93580500D01*
G75*
G02*
X100067500Y-93648000I-67500J0D01*
G01*
X99932500Y-93648000D01*
G75*
G02*
X99865000Y-93580500I0J67500D01*
G01*
G37*
G36*
G01*
X99365000Y-93580500D02*
X99365000Y-92689500D01*
G75*
G02*
X99432500Y-92622000I67500J0D01*
G01*
X99567500Y-92622000D01*
G75*
G02*
X99635000Y-92689500I0J-67500D01*
G01*
X99635000Y-93580500D01*
G75*
G02*
X99567500Y-93648000I-67500J0D01*
G01*
X99432500Y-93648000D01*
G75*
G02*
X99365000Y-93580500I0J67500D01*
G01*
G37*
G36*
G01*
X100365000Y-93580500D02*
X100365000Y-92689500D01*
G75*
G02*
X100432500Y-92622000I67500J0D01*
G01*
X100567500Y-92622000D01*
G75*
G02*
X100635000Y-92689500I0J-67500D01*
G01*
X100635000Y-93580500D01*
G75*
G02*
X100567500Y-93648000I-67500J0D01*
G01*
X100432500Y-93648000D01*
G75*
G02*
X100365000Y-93580500I0J67500D01*
G01*
G37*
G36*
G01*
X98865000Y-93580500D02*
X98865000Y-92689500D01*
G75*
G02*
X98932500Y-92622000I67500J0D01*
G01*
X99067500Y-92622000D01*
G75*
G02*
X99135000Y-92689500I0J-67500D01*
G01*
X99135000Y-93580500D01*
G75*
G02*
X99067500Y-93648000I-67500J0D01*
G01*
X98932500Y-93648000D01*
G75*
G02*
X98865000Y-93580500I0J67500D01*
G01*
G37*
G36*
G01*
X100865000Y-93580500D02*
X100865000Y-92689500D01*
G75*
G02*
X100932500Y-92622000I67500J0D01*
G01*
X101067500Y-92622000D01*
G75*
G02*
X101135000Y-92689500I0J-67500D01*
G01*
X101135000Y-93580500D01*
G75*
G02*
X101067500Y-93648000I-67500J0D01*
G01*
X100932500Y-93648000D01*
G75*
G02*
X100865000Y-93580500I0J67500D01*
G01*
G37*
G36*
G01*
X98365000Y-93580500D02*
X98365000Y-92689500D01*
G75*
G02*
X98432500Y-92622000I67500J0D01*
G01*
X98567500Y-92622000D01*
G75*
G02*
X98635000Y-92689500I0J-67500D01*
G01*
X98635000Y-93580500D01*
G75*
G02*
X98567500Y-93648000I-67500J0D01*
G01*
X98432500Y-93648000D01*
G75*
G02*
X98365000Y-93580500I0J67500D01*
G01*
G37*
G36*
G01*
X101365000Y-93580500D02*
X101365000Y-92689500D01*
G75*
G02*
X101432500Y-92622000I67500J0D01*
G01*
X101567500Y-92622000D01*
G75*
G02*
X101635000Y-92689500I0J-67500D01*
G01*
X101635000Y-93580500D01*
G75*
G02*
X101567500Y-93648000I-67500J0D01*
G01*
X101432500Y-93648000D01*
G75*
G02*
X101365000Y-93580500I0J67500D01*
G01*
G37*
G36*
G01*
X97865000Y-93580500D02*
X97865000Y-92689500D01*
G75*
G02*
X97932500Y-92622000I67500J0D01*
G01*
X98067500Y-92622000D01*
G75*
G02*
X98135000Y-92689500I0J-67500D01*
G01*
X98135000Y-93580500D01*
G75*
G02*
X98067500Y-93648000I-67500J0D01*
G01*
X97932500Y-93648000D01*
G75*
G02*
X97865000Y-93580500I0J67500D01*
G01*
G37*
X102950000Y-93135000D03*
X96550000Y-93135000D03*
%TD*%
M02*
