%TF.GenerationSoftware,KiCad,Pcbnew,(6.0.1-0)*%
%TF.CreationDate,2022-01-25T11:14:44+00:00*%
%TF.ProjectId,EnvMon,456e764d-6f6e-42e6-9b69-6361645f7063,4*%
%TF.SameCoordinates,Original*%
%TF.FileFunction,Soldermask,Bot*%
%TF.FilePolarity,Negative*%
%FSLAX46Y46*%
G04 Gerber Fmt 4.6, Leading zero omitted, Abs format (unit mm)*
G04 Created by KiCad (PCBNEW (6.0.1-0)) date 2022-01-25 11:14:44*
%MOMM*%
%LPD*%
G01*
G04 APERTURE LIST*
G04 Aperture macros list*
%AMRoundRect*
0 Rectangle with rounded corners*
0 $1 Rounding radius*
0 $2 $3 $4 $5 $6 $7 $8 $9 X,Y pos of 4 corners*
0 Add a 4 corners polygon primitive as box body*
4,1,4,$2,$3,$4,$5,$6,$7,$8,$9,$2,$3,0*
0 Add four circle primitives for the rounded corners*
1,1,$1+$1,$2,$3*
1,1,$1+$1,$4,$5*
1,1,$1+$1,$6,$7*
1,1,$1+$1,$8,$9*
0 Add four rect primitives between the rounded corners*
20,1,$1+$1,$2,$3,$4,$5,0*
20,1,$1+$1,$4,$5,$6,$7,0*
20,1,$1+$1,$6,$7,$8,$9,0*
20,1,$1+$1,$8,$9,$2,$3,0*%
G04 Aperture macros list end*
%ADD10C,0.450000*%
%ADD11R,1.700000X1.700000*%
%ADD12O,1.700000X1.700000*%
%ADD13C,1.500000*%
%ADD14C,1.250000*%
%ADD15RoundRect,0.250000X-0.600000X-0.675000X0.600000X-0.675000X0.600000X0.675000X-0.600000X0.675000X0*%
%ADD16O,1.700000X1.850000*%
%ADD17C,1.700000*%
%ADD18C,5.000000*%
%ADD19C,0.350000*%
%ADD20C,2.000000*%
%ADD21RoundRect,0.250000X-0.625000X0.400000X-0.625000X-0.400000X0.625000X-0.400000X0.625000X0.400000X0*%
%ADD22C,5.500000*%
G04 APERTURE END LIST*
D10*
%TO.C,Logo2*%
X127700000Y-72900000D02*
X131900000Y-69900000D01*
X127800000Y-74700000D02*
X129800000Y-72900000D01*
X129800000Y-72900000D02*
X129800000Y-71400000D01*
X127700000Y-72900000D02*
X131900000Y-72900000D01*
X129800000Y-72900000D02*
X131900000Y-74700000D01*
X131900000Y-72900000D02*
G75*
G03*
X131900000Y-71400000I0J750000D01*
G01*
%TD*%
D11*
%TO.C,J2*%
X106025000Y-96000000D03*
D12*
X108565000Y-96000000D03*
%TD*%
D13*
%TO.C,J1*%
X95430000Y-93715000D03*
X104070000Y-93715000D03*
D14*
X95430000Y-97885000D03*
X104070000Y-97885000D03*
%TD*%
D15*
%TO.C,J3*%
X109050000Y-93150000D03*
D16*
X111550000Y-93150000D03*
X114050000Y-93150000D03*
X116550000Y-93150000D03*
X119050000Y-93150000D03*
X121550000Y-93150000D03*
X124050000Y-93150000D03*
X126550000Y-93150000D03*
%TD*%
D17*
%TO.C,M2*%
X92500000Y-73880000D03*
X92500000Y-76420000D03*
X92500000Y-78960000D03*
X92500000Y-81500000D03*
X92500000Y-84040000D03*
X92500000Y-86580000D03*
X92500000Y-89120000D03*
D18*
X132000000Y-65500000D03*
X92500000Y-65500000D03*
X132000000Y-97500000D03*
X92500000Y-97500000D03*
%TD*%
D19*
%TO.C,U2*%
X99975000Y-88125000D03*
%TD*%
D20*
%TO.C,M1*%
X129200000Y-88200000D03*
X129200000Y-79700000D03*
D17*
X96600000Y-70800000D03*
X99140000Y-70800000D03*
X101680000Y-70800000D03*
X104220000Y-70800000D03*
%TD*%
D21*
%TO.C,R8*%
X111550000Y-95400000D03*
X111550000Y-98500000D03*
%TD*%
%TO.C,R9*%
X114050000Y-95400000D03*
X114050000Y-98500000D03*
%TD*%
%TO.C,R10*%
X116550000Y-95400000D03*
X116550000Y-98500000D03*
%TD*%
%TO.C,R11*%
X119050000Y-95400000D03*
X119050000Y-98500000D03*
%TD*%
%TO.C,R12*%
X121550000Y-95400000D03*
X121550000Y-98500000D03*
%TD*%
%TO.C,R13*%
X124050000Y-95400000D03*
X124050000Y-98500000D03*
%TD*%
%TO.C,R14*%
X126550000Y-95400000D03*
X126550000Y-98500000D03*
%TD*%
D22*
%TO.C,Logo1*%
X126200000Y-83800000D03*
%TD*%
M02*
