M48
; DRILL file {KiCad (5.1.9-0-10_14)} date Thursday, June 17, 2021 at 10:15:43 AM
; FORMAT={-:-/ absolute / inch / decimal}
; #@! TF.CreationDate,2021-06-17T10:15:43+01:00
; #@! TF.GenerationSoftware,Kicad,Pcbnew,(5.1.9-0-10_14)
; #@! TF.FileFunction,Plated,1,2,PTH
FMAT,2
INCH
T1C0.0098
T2C0.0157
T3C0.0236
T4C0.0335
T5C0.0394
T6C0.0472
T7C0.0591
T8C0.1220
%
G90
G05
T1
X3.936Y-3.4695
T2
X3.7717Y-3.6039
X3.7972Y-3.412
X3.8012Y-3.4548
X3.8729Y-3.603
X3.8881Y-3.3396
X3.9121Y-3.5997
X3.9203Y-3.2165
X3.9513Y-3.6042
X3.9915Y-3.6041
X4.0817Y-3.3804
X4.0817Y-3.4245
X4.0881Y-3.4833
X4.0936Y-3.6093
X4.1339Y-2.8504
X4.1459Y-3.6061
X4.1986Y-3.6009
X4.2441Y-3.5906
X4.3214Y-2.904
X4.348Y-3.5994
X4.6243Y-3.111
X4.6852Y-3.2095
X4.7249Y-3.1367
X4.7362Y-3.0512
X4.7426Y-3.1911
X4.75Y-2.9754
X4.7772Y-2.9321
X4.8189Y-3.5157
X4.8508Y-3.4431
X5.0472Y-3.6811
X5.0591Y-3.563
T3
X3.8134Y-3.7089
X4.0409Y-3.7089
T4
X4.2933Y-3.6673
X4.3917Y-3.6673
X4.4902Y-3.6673
X4.5886Y-3.6673
X4.687Y-3.6673
X4.7854Y-3.6673
X4.8839Y-3.6673
X4.9823Y-3.6673
T5
X3.6417Y-2.9087
X3.6417Y-3.0087
X3.6417Y-3.1087
X3.6417Y-3.2087
X3.6417Y-3.3087
X3.6417Y-3.4087
X3.6417Y-3.5087
X3.8031Y-2.7874
X3.9031Y-2.7874
X4.0031Y-2.7874
X4.1031Y-2.7874
X4.1811Y-3.7795
X4.2811Y-3.7795
T6
X3.7569Y-3.8545
X4.0974Y-3.8545
T7
X3.7569Y-3.69
X4.0974Y-3.69
T8
X3.6417Y-2.5787
X3.6417Y-3.8386
X5.1969Y-2.5787
X5.1969Y-3.8386
T0
M30
