%TF.GenerationSoftware,KiCad,Pcbnew,(5.1.9-0-10_14)*%
%TF.CreationDate,2021-05-20T09:38:49+01:00*%
%TF.ProjectId,EnvMon,456e764d-6f6e-42e6-9b69-6361645f7063,2*%
%TF.SameCoordinates,Original*%
%TF.FileFunction,Copper,L1,Top*%
%TF.FilePolarity,Positive*%
%FSLAX46Y46*%
G04 Gerber Fmt 4.6, Leading zero omitted, Abs format (unit mm)*
G04 Created by KiCad (PCBNEW (5.1.9-0-10_14)) date 2021-05-20 09:38:49*
%MOMM*%
%LPD*%
G01*
G04 APERTURE LIST*
%TA.AperFunction,NonConductor*%
%ADD10C,0.300000*%
%TD*%
%TA.AperFunction,EtchedComponent*%
%ADD11C,0.250000*%
%TD*%
%TA.AperFunction,EtchedComponent*%
%ADD12C,0.500000*%
%TD*%
%TA.AperFunction,SMDPad,CuDef*%
%ADD13R,2.000000X0.900000*%
%TD*%
%TA.AperFunction,SMDPad,CuDef*%
%ADD14R,0.900000X2.000000*%
%TD*%
%TA.AperFunction,SMDPad,CuDef*%
%ADD15R,5.000000X5.000000*%
%TD*%
%TA.AperFunction,SMDPad,CuDef*%
%ADD16C,0.100000*%
%TD*%
%TA.AperFunction,SMDPad,CuDef*%
%ADD17R,0.500000X3.000000*%
%TD*%
%TA.AperFunction,SMDPad,CuDef*%
%ADD18R,1.100000X3.700000*%
%TD*%
%TA.AperFunction,SMDPad,CuDef*%
%ADD19R,0.650000X1.560000*%
%TD*%
%TA.AperFunction,ComponentPad*%
%ADD20C,0.350000*%
%TD*%
%TA.AperFunction,SMDPad,CuDef*%
%ADD21R,0.200000X0.200000*%
%TD*%
%TA.AperFunction,SMDPad,CuDef*%
%ADD22C,0.500000*%
%TD*%
%TA.AperFunction,ComponentPad*%
%ADD23C,2.000000*%
%TD*%
%TA.AperFunction,ComponentPad*%
%ADD24R,2.000000X2.000000*%
%TD*%
%TA.AperFunction,ComponentPad*%
%ADD25C,1.700000*%
%TD*%
%TA.AperFunction,ComponentPad*%
%ADD26C,5.000000*%
%TD*%
%TA.AperFunction,ComponentPad*%
%ADD27O,1.700000X1.850000*%
%TD*%
%TA.AperFunction,SMDPad,CuDef*%
%ADD28R,0.200000X0.500000*%
%TD*%
%TA.AperFunction,SMDPad,CuDef*%
%ADD29R,0.600000X1.140000*%
%TD*%
%TA.AperFunction,SMDPad,CuDef*%
%ADD30R,0.300000X1.140000*%
%TD*%
%TA.AperFunction,ComponentPad*%
%ADD31C,0.600000*%
%TD*%
%TA.AperFunction,ViaPad*%
%ADD32C,0.800000*%
%TD*%
%TA.AperFunction,Conductor*%
%ADD33C,0.250000*%
%TD*%
%TA.AperFunction,Conductor*%
%ADD34C,0.500000*%
%TD*%
%TA.AperFunction,Conductor*%
%ADD35C,0.254000*%
%TD*%
%TA.AperFunction,Conductor*%
%ADD36C,0.100000*%
%TD*%
G04 APERTURE END LIST*
D10*
X131878571Y-89585714D02*
X132878571Y-89300000D01*
X132164285Y-89014285D01*
X132878571Y-88728571D01*
X131878571Y-88442857D01*
X131878571Y-88014285D02*
X132878571Y-87728571D01*
X132164285Y-87442857D01*
X132878571Y-87157142D01*
X131878571Y-86871428D01*
X131878571Y-86442857D02*
X132878571Y-86157142D01*
X132164285Y-85871428D01*
X132878571Y-85585714D01*
X131878571Y-85300000D01*
X132735714Y-84728571D02*
X132807142Y-84657142D01*
X132878571Y-84728571D01*
X132807142Y-84800000D01*
X132735714Y-84728571D01*
X132878571Y-84728571D01*
X132878571Y-84014285D02*
X131878571Y-84014285D01*
X132021428Y-84014285D02*
X131950000Y-83942857D01*
X131878571Y-83800000D01*
X131878571Y-83585714D01*
X131950000Y-83442857D01*
X132092857Y-83371428D01*
X132878571Y-83371428D01*
X132092857Y-83371428D02*
X131950000Y-83300000D01*
X131878571Y-83157142D01*
X131878571Y-82942857D01*
X131950000Y-82800000D01*
X132092857Y-82728571D01*
X132878571Y-82728571D01*
X132807142Y-81442857D02*
X132878571Y-81585714D01*
X132878571Y-81871428D01*
X132807142Y-82014285D01*
X132664285Y-82085714D01*
X132092857Y-82085714D01*
X131950000Y-82014285D01*
X131878571Y-81871428D01*
X131878571Y-81585714D01*
X131950000Y-81442857D01*
X132092857Y-81371428D01*
X132235714Y-81371428D01*
X132378571Y-82085714D01*
X132735714Y-80728571D02*
X132807142Y-80657142D01*
X132878571Y-80728571D01*
X132807142Y-80800000D01*
X132735714Y-80728571D01*
X132878571Y-80728571D01*
X131878571Y-79371428D02*
X132878571Y-79371428D01*
X131878571Y-80014285D02*
X132664285Y-80014285D01*
X132807142Y-79942857D01*
X132878571Y-79800000D01*
X132878571Y-79585714D01*
X132807142Y-79442857D01*
X132735714Y-79371428D01*
X132878571Y-78657142D02*
X131378571Y-78657142D01*
X132307142Y-78514285D02*
X132878571Y-78085714D01*
X131878571Y-78085714D02*
X132450000Y-78657142D01*
D11*
%TO.C,Reg1*%
X95550000Y-74050000D02*
G75*
G02*
X96400000Y-73200000I850000J0D01*
G01*
X100700000Y-74400000D02*
G75*
G02*
X100350000Y-74050000I0J350000D01*
G01*
X97250000Y-80550000D02*
G75*
G02*
X97600000Y-80200000I350000J0D01*
G01*
X99850000Y-79850000D02*
G75*
G02*
X99500000Y-80200000I-350000J0D01*
G01*
X97500000Y-74050000D02*
G75*
G02*
X97850000Y-73700000I350000J0D01*
G01*
X99500000Y-73700000D02*
G75*
G02*
X99850000Y-74050000I0J-350000D01*
G01*
X99500000Y-73200000D02*
G75*
G02*
X100350000Y-74050000I0J-850000D01*
G01*
X96450000Y-73200000D02*
X99500000Y-73200000D01*
X97850000Y-73700000D02*
X99500000Y-73700000D01*
X99850000Y-79850000D02*
X99850000Y-74100000D01*
X97600000Y-80200000D02*
X99500000Y-80200000D01*
X98750000Y-79300000D02*
X97250000Y-79300000D01*
D12*
X98750000Y-77200000D02*
X98750000Y-79200000D01*
X98900000Y-77200000D02*
X97500000Y-77200000D01*
D11*
X100700000Y-74400000D02*
X101200000Y-74400000D01*
%TO.C,Logo2*%
X131600000Y-73200000D02*
G75*
G02*
X131600000Y-74700000I0J-750000D01*
G01*
X129500000Y-73200000D02*
X129500000Y-74700000D01*
X127400000Y-73200000D02*
X131600000Y-73200000D01*
X127400000Y-73200000D02*
X131600000Y-76200000D01*
X127500000Y-71400000D02*
X129500000Y-73200000D01*
X129500000Y-73200000D02*
X131600000Y-71400000D01*
%TD*%
D13*
%TO.P,U2,38*%
%TO.N,GND*%
X123750000Y-70745000D03*
%TO.P,U2,37*%
%TO.N,OLED-MOSI*%
X123750000Y-72015000D03*
%TO.P,U2,36*%
%TO.N,IO7*%
X123750000Y-73285000D03*
%TO.P,U2,35*%
%TO.N,Net-(U1-Pad1)*%
X123750000Y-74555000D03*
%TO.P,U2,34*%
%TO.N,Net-(U1-Pad17)*%
X123750000Y-75825000D03*
%TO.P,U2,33*%
%TO.N,OLED-DC*%
X123750000Y-77095000D03*
%TO.P,U2,32*%
%TO.N,Net-(U2-Pad32)*%
X123750000Y-78365000D03*
%TO.P,U2,31*%
%TO.N,OLED-RST*%
X123750000Y-79635000D03*
%TO.P,U2,30*%
%TO.N,OLED-SCLK*%
X123750000Y-80905000D03*
%TO.P,U2,29*%
%TO.N,OLED-CS0*%
X123750000Y-82175000D03*
%TO.P,U2,28*%
%TO.N,IO3*%
X123750000Y-83445000D03*
%TO.P,U2,27*%
%TO.N,IO2*%
X123750000Y-84715000D03*
%TO.P,U2,26*%
%TO.N,IO1*%
X123750000Y-85985000D03*
%TO.P,U2,25*%
%TO.N,Net-(U1-Pad18)*%
X123750000Y-87255000D03*
D14*
%TO.P,U2,24*%
%TO.N,Net-(U2-Pad24)*%
X120965000Y-88255000D03*
%TO.P,U2,23*%
%TO.N,Net-(U2-Pad23)*%
X119695000Y-88255000D03*
%TO.P,U2,22*%
%TO.N,Net-(U2-Pad22)*%
X118425000Y-88255000D03*
%TO.P,U2,21*%
%TO.N,Net-(U2-Pad21)*%
X117155000Y-88255000D03*
%TO.P,U2,20*%
%TO.N,Net-(U2-Pad20)*%
X115885000Y-88255000D03*
%TO.P,U2,19*%
%TO.N,Net-(U2-Pad19)*%
X114615000Y-88255000D03*
%TO.P,U2,18*%
%TO.N,Net-(U2-Pad18)*%
X113345000Y-88255000D03*
%TO.P,U2,17*%
%TO.N,Net-(U2-Pad17)*%
X112075000Y-88255000D03*
%TO.P,U2,16*%
%TO.N,IO5*%
X110805000Y-88255000D03*
%TO.P,U2,15*%
%TO.N,GND*%
X109535000Y-88255000D03*
D13*
%TO.P,U2,14*%
%TO.N,IO4*%
X106750000Y-87255000D03*
%TO.P,U2,13*%
%TO.N,Net-(U2-Pad13)*%
X106750000Y-85985000D03*
%TO.P,U2,12*%
%TO.N,IO6*%
X106750000Y-84715000D03*
%TO.P,U2,11*%
%TO.N,CO2-SCL*%
X106750000Y-83445000D03*
%TO.P,U2,10*%
%TO.N,CO2-SDA*%
X106750000Y-82175000D03*
%TO.P,U2,9*%
%TO.N,Net-(U2-Pad9)*%
X106750000Y-80905000D03*
%TO.P,U2,8*%
%TO.N,Net-(U2-Pad8)*%
X106750000Y-79635000D03*
%TO.P,U2,7*%
%TO.N,Net-(U2-Pad7)*%
X106750000Y-78365000D03*
%TO.P,U2,6*%
%TO.N,Net-(U2-Pad6)*%
X106750000Y-77095000D03*
%TO.P,U2,5*%
%TO.N,Net-(U2-Pad5)*%
X106750000Y-75825000D03*
%TO.P,U2,4*%
%TO.N,Net-(U2-Pad4)*%
X106750000Y-74555000D03*
%TO.P,U2,3*%
%TO.N,Net-(U1-Pad19)*%
X106750000Y-73285000D03*
%TO.P,U2,2*%
%TO.N,+3V3*%
X106750000Y-72015000D03*
%TO.P,U2,1*%
%TO.N,GND*%
X106750000Y-70745000D03*
D15*
%TO.P,U2,39*%
X114250000Y-78245000D03*
%TD*%
%TO.P,Reg1,3*%
%TO.N,GND*%
%TA.AperFunction,SMDPad,CuDef*%
G36*
G01*
X96250450Y-81850000D02*
X95349550Y-81850000D01*
G75*
G02*
X95100000Y-81600450I0J249550D01*
G01*
X95100000Y-80949550D01*
G75*
G02*
X95349550Y-80700000I249550J0D01*
G01*
X96250450Y-80700000D01*
G75*
G02*
X96500000Y-80949550I0J-249550D01*
G01*
X96500000Y-81600450D01*
G75*
G02*
X96250450Y-81850000I-249550J0D01*
G01*
G37*
%TD.AperFunction*%
%TO.P,Reg1,2*%
%TO.N,Net-(J1-PadA4)*%
%TA.AperFunction,SMDPad,CuDef*%
G36*
G01*
X96250450Y-79800000D02*
X95349550Y-79800000D01*
G75*
G02*
X95100000Y-79550450I0J249550D01*
G01*
X95100000Y-78899550D01*
G75*
G02*
X95349550Y-78650000I249550J0D01*
G01*
X96250450Y-78650000D01*
G75*
G02*
X96500000Y-78899550I0J-249550D01*
G01*
X96500000Y-79550450D01*
G75*
G02*
X96250450Y-79800000I-249550J0D01*
G01*
G37*
%TD.AperFunction*%
%TA.AperFunction,SMDPad,CuDef*%
D16*
G36*
X96750000Y-78300000D02*
G01*
X96744708Y-78300000D01*
X96744707Y-78311969D01*
X96739935Y-78409532D01*
X96739935Y-78409551D01*
X96739933Y-78409573D01*
X96739743Y-78412968D01*
X96738605Y-78423114D01*
X96737599Y-78433373D01*
X96723327Y-78530024D01*
X96722803Y-78533405D01*
X96720672Y-78543430D01*
X96718677Y-78553506D01*
X96695045Y-78648287D01*
X96695042Y-78648302D01*
X96695037Y-78648318D01*
X96694190Y-78651617D01*
X96691092Y-78661385D01*
X96688123Y-78671217D01*
X96655355Y-78763242D01*
X96655351Y-78763254D01*
X96655350Y-78763256D01*
X96654180Y-78766470D01*
X96650136Y-78775905D01*
X96646229Y-78785384D01*
X96604631Y-78873786D01*
X96603153Y-78876871D01*
X96598229Y-78885827D01*
X96593393Y-78894924D01*
X96543374Y-78978828D01*
X96543366Y-78978844D01*
X96543355Y-78978861D01*
X96541593Y-78981770D01*
X96535810Y-78990216D01*
X96530119Y-78998781D01*
X96472149Y-79077409D01*
X96472144Y-79077416D01*
X96472142Y-79077418D01*
X96470093Y-79080157D01*
X96463498Y-79088016D01*
X96457015Y-79095965D01*
X96391643Y-79168570D01*
X96389336Y-79171096D01*
X96382026Y-79178254D01*
X96374775Y-79185556D01*
X96302641Y-79251423D01*
X96302630Y-79251434D01*
X96302619Y-79251443D01*
X96300085Y-79253724D01*
X96292120Y-79260128D01*
X96284186Y-79266691D01*
X96250000Y-79292266D01*
X96250000Y-79550000D01*
X95500000Y-79550000D01*
X95500000Y-78800000D01*
X96064143Y-78800000D01*
X96084858Y-78776993D01*
X96128614Y-78717646D01*
X96166369Y-78654312D01*
X96197761Y-78587599D01*
X96222496Y-78518134D01*
X96240333Y-78446596D01*
X96251106Y-78373639D01*
X96254708Y-78300000D01*
X96250000Y-78300000D01*
X96250000Y-77800000D01*
X96750000Y-77800000D01*
X96750000Y-78300000D01*
G37*
%TD.AperFunction*%
D17*
%TO.P,Reg1,3*%
%TO.N,GND*%
X101750000Y-80200000D03*
%TA.AperFunction,SMDPad,CuDef*%
D16*
%TO.P,Reg1,4*%
%TO.N,+3V3*%
G36*
X102000000Y-76450000D02*
G01*
X101003704Y-76450000D01*
X100973897Y-76451667D01*
X100949793Y-76455398D01*
X100926160Y-76461466D01*
X100903236Y-76469810D01*
X100881241Y-76480348D01*
X100860364Y-76492992D01*
X100840839Y-76507598D01*
X100822818Y-76524054D01*
X100806495Y-76542183D01*
X100792021Y-76561813D01*
X100779530Y-76582767D01*
X100769139Y-76604849D01*
X100760956Y-76627830D01*
X100755053Y-76651503D01*
X100751491Y-76675627D01*
X100750000Y-76706117D01*
X100750000Y-79900000D01*
X100749702Y-79900000D01*
X100749702Y-79912213D01*
X100744929Y-80009776D01*
X100744929Y-80009795D01*
X100744927Y-80009817D01*
X100744734Y-80013282D01*
X100743566Y-80023698D01*
X100742545Y-80034103D01*
X100728273Y-80130754D01*
X100727739Y-80134204D01*
X100725564Y-80144436D01*
X100723529Y-80154715D01*
X100699893Y-80249513D01*
X100699025Y-80252894D01*
X100695863Y-80262859D01*
X100692834Y-80272894D01*
X100660061Y-80364932D01*
X100658867Y-80368213D01*
X100654739Y-80377844D01*
X100650754Y-80387513D01*
X100609156Y-80475915D01*
X100607647Y-80479064D01*
X100602589Y-80488264D01*
X100597687Y-80497484D01*
X100547660Y-80581404D01*
X100545852Y-80584390D01*
X100539914Y-80593062D01*
X100534143Y-80601748D01*
X100476176Y-80680371D01*
X100476169Y-80680382D01*
X100476160Y-80680393D01*
X100474076Y-80683181D01*
X100467341Y-80691207D01*
X100460731Y-80699311D01*
X100395365Y-80771908D01*
X100395357Y-80771917D01*
X100395347Y-80771927D01*
X100393005Y-80774494D01*
X100385494Y-80781849D01*
X100378146Y-80789248D01*
X100306010Y-80855117D01*
X100306001Y-80855126D01*
X100305990Y-80855135D01*
X100303405Y-80857463D01*
X100295263Y-80864009D01*
X100287181Y-80870695D01*
X100250000Y-80898510D01*
X100250000Y-81800000D01*
X99500000Y-81800000D01*
X99500000Y-80800000D01*
X99752543Y-80800000D01*
X99750493Y-80781720D01*
X99750153Y-80757297D01*
X99752197Y-80732958D01*
X99756605Y-80708935D01*
X99763339Y-80685456D01*
X99772330Y-80662747D01*
X99783495Y-80641023D01*
X99796726Y-80620492D01*
X99811898Y-80601351D01*
X99828865Y-80583781D01*
X99847466Y-80567951D01*
X99867522Y-80554012D01*
X99917829Y-80522577D01*
X99977879Y-80477653D01*
X100031968Y-80428264D01*
X100080975Y-80373835D01*
X100124445Y-80314873D01*
X100161944Y-80251969D01*
X100193133Y-80185689D01*
X100217703Y-80116687D01*
X100235424Y-80045613D01*
X100246123Y-79973155D01*
X100250000Y-79893898D01*
X100250000Y-76700000D01*
X100250298Y-76700000D01*
X100250298Y-76687789D01*
X100252684Y-76638998D01*
X100252879Y-76635513D01*
X100254045Y-76625115D01*
X100255068Y-76614689D01*
X100262204Y-76566363D01*
X100262737Y-76562913D01*
X100264919Y-76552648D01*
X100266948Y-76542402D01*
X100278766Y-76495003D01*
X100279634Y-76491622D01*
X100282791Y-76481670D01*
X100285826Y-76471619D01*
X100302213Y-76425600D01*
X100303407Y-76422319D01*
X100307541Y-76412674D01*
X100311519Y-76403022D01*
X100332318Y-76358821D01*
X100333826Y-76355672D01*
X100338903Y-76346437D01*
X100343786Y-76337254D01*
X100368799Y-76295294D01*
X100370607Y-76292307D01*
X100376547Y-76283633D01*
X100382317Y-76274948D01*
X100411296Y-76235643D01*
X100411305Y-76235629D01*
X100411317Y-76235614D01*
X100413397Y-76232833D01*
X100420125Y-76224815D01*
X100426743Y-76216701D01*
X100459430Y-76180398D01*
X100461784Y-76177820D01*
X100469273Y-76170487D01*
X100476637Y-76163071D01*
X100512710Y-76130131D01*
X100515304Y-76127795D01*
X100523488Y-76121215D01*
X100531534Y-76114559D01*
X100570640Y-76085305D01*
X100570649Y-76085297D01*
X100570661Y-76085289D01*
X100573459Y-76083225D01*
X100582212Y-76077498D01*
X100590898Y-76071639D01*
X100632682Y-76046334D01*
X100635681Y-76044546D01*
X100645000Y-76039674D01*
X100654163Y-76034720D01*
X100698217Y-76013611D01*
X100701376Y-76012125D01*
X100711080Y-76008204D01*
X100720740Y-76004144D01*
X100766635Y-75987440D01*
X100766644Y-75987437D01*
X100769933Y-75986265D01*
X100780002Y-75983302D01*
X100789971Y-75980216D01*
X100837286Y-75968067D01*
X100840673Y-75967222D01*
X100851001Y-75965252D01*
X100861216Y-75963155D01*
X100909479Y-75955684D01*
X100909488Y-75955682D01*
X100909498Y-75955681D01*
X100912945Y-75955171D01*
X100923407Y-75954219D01*
X100933780Y-75953129D01*
X100982553Y-75950402D01*
X100986039Y-75950231D01*
X100990843Y-75950265D01*
X100995650Y-75950013D01*
X100999141Y-75950001D01*
X101000000Y-75950004D01*
X101000000Y-75950000D01*
X102000000Y-75950000D01*
X102000000Y-76450000D01*
G37*
%TD.AperFunction*%
%TO.P,Reg1,~*%
%TO.N,N/C*%
%TA.AperFunction,SMDPad,CuDef*%
G36*
G01*
X98050000Y-79575626D02*
X98050000Y-78324374D01*
G75*
G02*
X98299374Y-78075000I249374J0D01*
G01*
X99225626Y-78075000D01*
G75*
G02*
X99475000Y-78324374I0J-249374D01*
G01*
X99475000Y-79575626D01*
G75*
G02*
X99225626Y-79825000I-249374J0D01*
G01*
X98299374Y-79825000D01*
G75*
G02*
X98050000Y-79575626I0J249374D01*
G01*
G37*
%TD.AperFunction*%
%TO.P,Reg1,3*%
%TO.N,GND*%
%TA.AperFunction,SMDPad,CuDef*%
G36*
G01*
X101025000Y-79575626D02*
X101025000Y-78324374D01*
G75*
G02*
X101274374Y-78075000I249374J0D01*
G01*
X102200626Y-78075000D01*
G75*
G02*
X102450000Y-78324374I0J-249374D01*
G01*
X102450000Y-79575626D01*
G75*
G02*
X102200626Y-79825000I-249374J0D01*
G01*
X101274374Y-79825000D01*
G75*
G02*
X101025000Y-79575626I0J249374D01*
G01*
G37*
%TD.AperFunction*%
%TA.AperFunction,SMDPad,CuDef*%
G36*
X96750000Y-75950000D02*
G01*
X97775000Y-75950000D01*
X97775000Y-76450000D01*
X95225000Y-76450000D01*
X95225000Y-75950000D01*
X96250000Y-75950000D01*
X96250000Y-74700000D01*
X96750000Y-74700000D01*
X96750000Y-75950000D01*
G37*
%TD.AperFunction*%
D18*
%TO.P,Reg1,4*%
%TO.N,+3V3*%
X101750000Y-75950000D03*
%TO.P,Reg1,~*%
%TO.N,N/C*%
X98750000Y-75950000D03*
%TO.P,Reg1,3*%
%TO.N,GND*%
%TA.AperFunction,SMDPad,CuDef*%
G36*
G01*
X101200000Y-81650450D02*
X101200000Y-80749550D01*
G75*
G02*
X101449550Y-80500000I249550J0D01*
G01*
X102100450Y-80500000D01*
G75*
G02*
X102350000Y-80749550I0J-249550D01*
G01*
X102350000Y-81650450D01*
G75*
G02*
X102100450Y-81900000I-249550J0D01*
G01*
X101449550Y-81900000D01*
G75*
G02*
X101200000Y-81650450I0J249550D01*
G01*
G37*
%TD.AperFunction*%
%TO.P,Reg1,4*%
%TO.N,+3V3*%
%TA.AperFunction,SMDPad,CuDef*%
G36*
G01*
X99150000Y-81650450D02*
X99150000Y-80749550D01*
G75*
G02*
X99399550Y-80500000I249550J0D01*
G01*
X100050450Y-80500000D01*
G75*
G02*
X100300000Y-80749550I0J-249550D01*
G01*
X100300000Y-81650450D01*
G75*
G02*
X100050450Y-81900000I-249550J0D01*
G01*
X99399550Y-81900000D01*
G75*
G02*
X99150000Y-81650450I0J249550D01*
G01*
G37*
%TD.AperFunction*%
%TO.P,Reg1,~*%
%TO.N,N/C*%
%TA.AperFunction,SMDPad,CuDef*%
G36*
G01*
X97487500Y-81600000D02*
X97012500Y-81600000D01*
G75*
G02*
X96775000Y-81362500I0J237500D01*
G01*
X96775000Y-80762500D01*
G75*
G02*
X97012500Y-80525000I237500J0D01*
G01*
X97487500Y-80525000D01*
G75*
G02*
X97725000Y-80762500I0J-237500D01*
G01*
X97725000Y-81362500D01*
G75*
G02*
X97487500Y-81600000I-237500J0D01*
G01*
G37*
%TD.AperFunction*%
%TA.AperFunction,SMDPad,CuDef*%
G36*
G01*
X97487500Y-79875000D02*
X97012500Y-79875000D01*
G75*
G02*
X96775000Y-79637500I0J237500D01*
G01*
X96775000Y-79037500D01*
G75*
G02*
X97012500Y-78800000I237500J0D01*
G01*
X97487500Y-78800000D01*
G75*
G02*
X97725000Y-79037500I0J-237500D01*
G01*
X97725000Y-79637500D01*
G75*
G02*
X97487500Y-79875000I-237500J0D01*
G01*
G37*
%TD.AperFunction*%
D19*
%TO.P,Reg1,1*%
%TO.N,Net-(J1-PadA4)*%
X95550000Y-77550000D03*
%TO.P,Reg1,2*%
X96500000Y-77550000D03*
%TO.P,Reg1,~*%
%TO.N,N/C*%
X97450000Y-77550000D03*
X97450000Y-74850000D03*
X95550000Y-74850000D03*
%TO.P,Reg1,3*%
%TO.N,GND*%
X96500000Y-74850000D03*
%TD*%
D20*
%TO.P,U1,21*%
%TO.N,GND*%
X99975000Y-88125000D03*
D21*
%TO.P,U1,~*%
%TO.N,N/C*%
X97975000Y-86125000D03*
X101975000Y-90125000D03*
X97975000Y-90125000D03*
X101975000Y-86125000D03*
D22*
X97975000Y-86125000D03*
%TA.AperFunction,SMDPad,CuDef*%
D16*
%TO.P,U1,21*%
%TO.N,GND*%
G36*
X100975000Y-89125000D02*
G01*
X98975000Y-89125000D01*
X98975000Y-87375000D01*
X99225000Y-87125000D01*
X100975000Y-87125000D01*
X100975000Y-89125000D01*
G37*
%TD.AperFunction*%
%TO.P,U1,20*%
%TO.N,+3V3*%
%TA.AperFunction,SMDPad,CuDef*%
G36*
G01*
X98850000Y-86562500D02*
X98850000Y-85687500D01*
G75*
G02*
X98912500Y-85625000I62500J0D01*
G01*
X99037500Y-85625000D01*
G75*
G02*
X99100000Y-85687500I0J-62500D01*
G01*
X99100000Y-86562500D01*
G75*
G02*
X99037500Y-86625000I-62500J0D01*
G01*
X98912500Y-86625000D01*
G75*
G02*
X98850000Y-86562500I0J62500D01*
G01*
G37*
%TD.AperFunction*%
%TO.P,U1,19*%
%TO.N,Net-(U1-Pad19)*%
%TA.AperFunction,SMDPad,CuDef*%
G36*
G01*
X99350000Y-86562500D02*
X99350000Y-85687500D01*
G75*
G02*
X99412500Y-85625000I62500J0D01*
G01*
X99537500Y-85625000D01*
G75*
G02*
X99600000Y-85687500I0J-62500D01*
G01*
X99600000Y-86562500D01*
G75*
G02*
X99537500Y-86625000I-62500J0D01*
G01*
X99412500Y-86625000D01*
G75*
G02*
X99350000Y-86562500I0J62500D01*
G01*
G37*
%TD.AperFunction*%
%TO.P,U1,18*%
%TO.N,Net-(U1-Pad18)*%
%TA.AperFunction,SMDPad,CuDef*%
G36*
G01*
X99850000Y-86562500D02*
X99850000Y-85687500D01*
G75*
G02*
X99912500Y-85625000I62500J0D01*
G01*
X100037500Y-85625000D01*
G75*
G02*
X100100000Y-85687500I0J-62500D01*
G01*
X100100000Y-86562500D01*
G75*
G02*
X100037500Y-86625000I-62500J0D01*
G01*
X99912500Y-86625000D01*
G75*
G02*
X99850000Y-86562500I0J62500D01*
G01*
G37*
%TD.AperFunction*%
%TO.P,U1,17*%
%TO.N,Net-(U1-Pad17)*%
%TA.AperFunction,SMDPad,CuDef*%
G36*
G01*
X100350000Y-86562500D02*
X100350000Y-85687500D01*
G75*
G02*
X100412500Y-85625000I62500J0D01*
G01*
X100537500Y-85625000D01*
G75*
G02*
X100600000Y-85687500I0J-62500D01*
G01*
X100600000Y-86562500D01*
G75*
G02*
X100537500Y-86625000I-62500J0D01*
G01*
X100412500Y-86625000D01*
G75*
G02*
X100350000Y-86562500I0J62500D01*
G01*
G37*
%TD.AperFunction*%
%TO.P,U1,16*%
%TO.N,Net-(U1-Pad16)*%
%TA.AperFunction,SMDPad,CuDef*%
G36*
G01*
X100850000Y-86562500D02*
X100850000Y-85687500D01*
G75*
G02*
X100912500Y-85625000I62500J0D01*
G01*
X101037500Y-85625000D01*
G75*
G02*
X101100000Y-85687500I0J-62500D01*
G01*
X101100000Y-86562500D01*
G75*
G02*
X101037500Y-86625000I-62500J0D01*
G01*
X100912500Y-86625000D01*
G75*
G02*
X100850000Y-86562500I0J62500D01*
G01*
G37*
%TD.AperFunction*%
%TO.P,U1,15*%
%TO.N,Net-(U1-Pad15)*%
%TA.AperFunction,SMDPad,CuDef*%
G36*
G01*
X101475000Y-87187500D02*
X101475000Y-87062500D01*
G75*
G02*
X101537500Y-87000000I62500J0D01*
G01*
X102412500Y-87000000D01*
G75*
G02*
X102475000Y-87062500I0J-62500D01*
G01*
X102475000Y-87187500D01*
G75*
G02*
X102412500Y-87250000I-62500J0D01*
G01*
X101537500Y-87250000D01*
G75*
G02*
X101475000Y-87187500I0J62500D01*
G01*
G37*
%TD.AperFunction*%
%TO.P,U1,14*%
%TO.N,Net-(U1-Pad14)*%
%TA.AperFunction,SMDPad,CuDef*%
G36*
G01*
X101475000Y-87687500D02*
X101475000Y-87562500D01*
G75*
G02*
X101537500Y-87500000I62500J0D01*
G01*
X102412500Y-87500000D01*
G75*
G02*
X102475000Y-87562500I0J-62500D01*
G01*
X102475000Y-87687500D01*
G75*
G02*
X102412500Y-87750000I-62500J0D01*
G01*
X101537500Y-87750000D01*
G75*
G02*
X101475000Y-87687500I0J62500D01*
G01*
G37*
%TD.AperFunction*%
%TO.P,U1,13*%
%TO.N,GND*%
%TA.AperFunction,SMDPad,CuDef*%
G36*
G01*
X101475000Y-88187500D02*
X101475000Y-88062500D01*
G75*
G02*
X101537500Y-88000000I62500J0D01*
G01*
X102412500Y-88000000D01*
G75*
G02*
X102475000Y-88062500I0J-62500D01*
G01*
X102475000Y-88187500D01*
G75*
G02*
X102412500Y-88250000I-62500J0D01*
G01*
X101537500Y-88250000D01*
G75*
G02*
X101475000Y-88187500I0J62500D01*
G01*
G37*
%TD.AperFunction*%
%TO.P,U1,12*%
%TO.N,+3V3*%
%TA.AperFunction,SMDPad,CuDef*%
G36*
G01*
X101475000Y-88687500D02*
X101475000Y-88562500D01*
G75*
G02*
X101537500Y-88500000I62500J0D01*
G01*
X102412500Y-88500000D01*
G75*
G02*
X102475000Y-88562500I0J-62500D01*
G01*
X102475000Y-88687500D01*
G75*
G02*
X102412500Y-88750000I-62500J0D01*
G01*
X101537500Y-88750000D01*
G75*
G02*
X101475000Y-88687500I0J62500D01*
G01*
G37*
%TD.AperFunction*%
%TO.P,U1,11*%
%TA.AperFunction,SMDPad,CuDef*%
G36*
G01*
X101475000Y-89187500D02*
X101475000Y-89062500D01*
G75*
G02*
X101537500Y-89000000I62500J0D01*
G01*
X102412500Y-89000000D01*
G75*
G02*
X102475000Y-89062500I0J-62500D01*
G01*
X102475000Y-89187500D01*
G75*
G02*
X102412500Y-89250000I-62500J0D01*
G01*
X101537500Y-89250000D01*
G75*
G02*
X101475000Y-89187500I0J62500D01*
G01*
G37*
%TD.AperFunction*%
%TO.P,U1,10*%
%TA.AperFunction,SMDPad,CuDef*%
G36*
G01*
X100850000Y-90562500D02*
X100850000Y-89687500D01*
G75*
G02*
X100912500Y-89625000I62500J0D01*
G01*
X101037500Y-89625000D01*
G75*
G02*
X101100000Y-89687500I0J-62500D01*
G01*
X101100000Y-90562500D01*
G75*
G02*
X101037500Y-90625000I-62500J0D01*
G01*
X100912500Y-90625000D01*
G75*
G02*
X100850000Y-90562500I0J62500D01*
G01*
G37*
%TD.AperFunction*%
%TO.P,U1,9*%
%TO.N,Net-(J1-PadA7)*%
%TA.AperFunction,SMDPad,CuDef*%
G36*
G01*
X100350000Y-90562500D02*
X100350000Y-89687500D01*
G75*
G02*
X100412500Y-89625000I62500J0D01*
G01*
X100537500Y-89625000D01*
G75*
G02*
X100600000Y-89687500I0J-62500D01*
G01*
X100600000Y-90562500D01*
G75*
G02*
X100537500Y-90625000I-62500J0D01*
G01*
X100412500Y-90625000D01*
G75*
G02*
X100350000Y-90562500I0J62500D01*
G01*
G37*
%TD.AperFunction*%
%TO.P,U1,8*%
%TO.N,Net-(J1-PadA6)*%
%TA.AperFunction,SMDPad,CuDef*%
G36*
G01*
X99850000Y-90562500D02*
X99850000Y-89687500D01*
G75*
G02*
X99912500Y-89625000I62500J0D01*
G01*
X100037500Y-89625000D01*
G75*
G02*
X100100000Y-89687500I0J-62500D01*
G01*
X100100000Y-90562500D01*
G75*
G02*
X100037500Y-90625000I-62500J0D01*
G01*
X99912500Y-90625000D01*
G75*
G02*
X99850000Y-90562500I0J62500D01*
G01*
G37*
%TD.AperFunction*%
%TO.P,U1,7*%
%TO.N,Net-(U1-Pad7)*%
%TA.AperFunction,SMDPad,CuDef*%
G36*
G01*
X99350000Y-90562500D02*
X99350000Y-89687500D01*
G75*
G02*
X99412500Y-89625000I62500J0D01*
G01*
X99537500Y-89625000D01*
G75*
G02*
X99600000Y-89687500I0J-62500D01*
G01*
X99600000Y-90562500D01*
G75*
G02*
X99537500Y-90625000I-62500J0D01*
G01*
X99412500Y-90625000D01*
G75*
G02*
X99350000Y-90562500I0J62500D01*
G01*
G37*
%TD.AperFunction*%
%TO.P,U1,6*%
%TO.N,GND*%
%TA.AperFunction,SMDPad,CuDef*%
G36*
G01*
X98850000Y-90562500D02*
X98850000Y-89687500D01*
G75*
G02*
X98912500Y-89625000I62500J0D01*
G01*
X99037500Y-89625000D01*
G75*
G02*
X99100000Y-89687500I0J-62500D01*
G01*
X99100000Y-90562500D01*
G75*
G02*
X99037500Y-90625000I-62500J0D01*
G01*
X98912500Y-90625000D01*
G75*
G02*
X98850000Y-90562500I0J62500D01*
G01*
G37*
%TD.AperFunction*%
%TO.P,U1,5*%
%TA.AperFunction,SMDPad,CuDef*%
G36*
G01*
X97475000Y-89187500D02*
X97475000Y-89062500D01*
G75*
G02*
X97537500Y-89000000I62500J0D01*
G01*
X98412500Y-89000000D01*
G75*
G02*
X98475000Y-89062500I0J-62500D01*
G01*
X98475000Y-89187500D01*
G75*
G02*
X98412500Y-89250000I-62500J0D01*
G01*
X97537500Y-89250000D01*
G75*
G02*
X97475000Y-89187500I0J62500D01*
G01*
G37*
%TD.AperFunction*%
%TO.P,U1,4*%
%TA.AperFunction,SMDPad,CuDef*%
G36*
G01*
X97475000Y-88687500D02*
X97475000Y-88562500D01*
G75*
G02*
X97537500Y-88500000I62500J0D01*
G01*
X98412500Y-88500000D01*
G75*
G02*
X98475000Y-88562500I0J-62500D01*
G01*
X98475000Y-88687500D01*
G75*
G02*
X98412500Y-88750000I-62500J0D01*
G01*
X97537500Y-88750000D01*
G75*
G02*
X97475000Y-88687500I0J62500D01*
G01*
G37*
%TD.AperFunction*%
%TO.P,U1,3*%
%TA.AperFunction,SMDPad,CuDef*%
G36*
G01*
X97475000Y-88187500D02*
X97475000Y-88062500D01*
G75*
G02*
X97537500Y-88000000I62500J0D01*
G01*
X98412500Y-88000000D01*
G75*
G02*
X98475000Y-88062500I0J-62500D01*
G01*
X98475000Y-88187500D01*
G75*
G02*
X98412500Y-88250000I-62500J0D01*
G01*
X97537500Y-88250000D01*
G75*
G02*
X97475000Y-88187500I0J62500D01*
G01*
G37*
%TD.AperFunction*%
%TO.P,U1,2*%
%TA.AperFunction,SMDPad,CuDef*%
G36*
G01*
X97475000Y-87687500D02*
X97475000Y-87562500D01*
G75*
G02*
X97537500Y-87500000I62500J0D01*
G01*
X98412500Y-87500000D01*
G75*
G02*
X98475000Y-87562500I0J-62500D01*
G01*
X98475000Y-87687500D01*
G75*
G02*
X98412500Y-87750000I-62500J0D01*
G01*
X97537500Y-87750000D01*
G75*
G02*
X97475000Y-87687500I0J62500D01*
G01*
G37*
%TD.AperFunction*%
%TO.P,U1,1*%
%TO.N,Net-(U1-Pad1)*%
%TA.AperFunction,SMDPad,CuDef*%
G36*
G01*
X97475000Y-87187500D02*
X97475000Y-87062500D01*
G75*
G02*
X97537500Y-87000000I62500J0D01*
G01*
X98412500Y-87000000D01*
G75*
G02*
X98475000Y-87062500I0J-62500D01*
G01*
X98475000Y-87187500D01*
G75*
G02*
X98412500Y-87250000I-62500J0D01*
G01*
X97537500Y-87250000D01*
G75*
G02*
X97475000Y-87187500I0J62500D01*
G01*
G37*
%TD.AperFunction*%
%TD*%
D23*
%TO.P,J2,2*%
%TO.N,Net-(J1-PadA4)*%
X108740000Y-96000000D03*
D24*
%TO.P,J2,1*%
%TO.N,GND*%
X106200000Y-96000000D03*
%TD*%
D25*
%TO.P,M3,4*%
%TO.N,CO2-SDA*%
X104220000Y-70800000D03*
%TO.P,M3,3*%
%TO.N,CO2-SCL*%
X101680000Y-70800000D03*
%TO.P,M3,2*%
%TO.N,GND*%
X99140000Y-70800000D03*
%TO.P,M3,1*%
%TO.N,+3V3*%
X96600000Y-70800000D03*
%TD*%
D26*
%TO.P,M2,S*%
%TO.N,GND*%
X92500000Y-65500000D03*
X92500000Y-97500000D03*
X132000000Y-97500000D03*
X132000000Y-65500000D03*
D25*
%TO.P,M2,7*%
%TO.N,OLED-RST*%
X92500000Y-89120000D03*
%TO.P,M2,6*%
%TO.N,OLED-DC*%
X92500000Y-86580000D03*
%TO.P,M2,5*%
%TO.N,OLED-CS0*%
X92500000Y-84040000D03*
%TO.P,M2,4*%
%TO.N,OLED-SCLK*%
X92500000Y-81500000D03*
%TO.P,M2,3*%
%TO.N,OLED-MOSI*%
X92500000Y-78960000D03*
%TO.P,M2,2*%
%TO.N,GND*%
X92500000Y-76420000D03*
%TO.P,M2,1*%
%TO.N,+3V3*%
X92500000Y-73880000D03*
%TD*%
D27*
%TO.P,J3,8*%
%TO.N,IO7*%
X126550000Y-93150000D03*
%TO.P,J3,7*%
%TO.N,IO6*%
X124050000Y-93150000D03*
%TO.P,J3,6*%
%TO.N,IO5*%
X121550000Y-93150000D03*
%TO.P,J3,5*%
%TO.N,IO4*%
X119050000Y-93150000D03*
%TO.P,J3,4*%
%TO.N,IO3*%
X116550000Y-93150000D03*
%TO.P,J3,3*%
%TO.N,IO2*%
X114050000Y-93150000D03*
%TO.P,J3,2*%
%TO.N,IO1*%
X111550000Y-93150000D03*
%TO.P,J3,1*%
%TO.N,GND*%
%TA.AperFunction,ComponentPad*%
G36*
G01*
X108200000Y-93825000D02*
X108200000Y-92475000D01*
G75*
G02*
X108450000Y-92225000I250000J0D01*
G01*
X109650000Y-92225000D01*
G75*
G02*
X109900000Y-92475000I0J-250000D01*
G01*
X109900000Y-93825000D01*
G75*
G02*
X109650000Y-94075000I-250000J0D01*
G01*
X108450000Y-94075000D01*
G75*
G02*
X108200000Y-93825000I0J250000D01*
G01*
G37*
%TD.AperFunction*%
%TD*%
D28*
%TO.P,J1,S1*%
%TO.N,GND*%
X103770000Y-94575000D03*
%TA.AperFunction,SMDPad,CuDef*%
D16*
G36*
X96563064Y-93010684D02*
G01*
X96575132Y-93012553D01*
X96586960Y-93015589D01*
X96598437Y-93019766D01*
X96609450Y-93025043D01*
X96619897Y-93031369D01*
X96629675Y-93038684D01*
X96638694Y-93046919D01*
X96646866Y-93055995D01*
X96654114Y-93065824D01*
X96660366Y-93076314D01*
X96665567Y-93087364D01*
X96669664Y-93098868D01*
X96672619Y-93110718D01*
X96674403Y-93122800D01*
X96675000Y-93134998D01*
X96674403Y-93147195D01*
X96672620Y-93159277D01*
X96669665Y-93171127D01*
X96665569Y-93182631D01*
X96660369Y-93193682D01*
X96654116Y-93204172D01*
X96646869Y-93214002D01*
X96638697Y-93223077D01*
X96629680Y-93231312D01*
X96619901Y-93238628D01*
X96609455Y-93244954D01*
X96598442Y-93250232D01*
X96586966Y-93254409D01*
X96575137Y-93257446D01*
X96563068Y-93259315D01*
X96550875Y-93259997D01*
X96538790Y-93260082D01*
X96439663Y-93266318D01*
X96344201Y-93281779D01*
X96250694Y-93306485D01*
X96160058Y-93340193D01*
X96073139Y-93382585D01*
X95990766Y-93433261D01*
X95913735Y-93491731D01*
X95842779Y-93557437D01*
X95778569Y-93629760D01*
X95721731Y-93707991D01*
X95672792Y-93791404D01*
X95632228Y-93879191D01*
X95600423Y-93970523D01*
X95577682Y-94064522D01*
X95571153Y-94110977D01*
X95576323Y-94193150D01*
X95626832Y-94505000D01*
X96751371Y-94505000D01*
X96735529Y-94253200D01*
X96735431Y-94251458D01*
X96735431Y-94248835D01*
X96735285Y-94246225D01*
X96735003Y-94205874D01*
X96735003Y-94204129D01*
X96735685Y-94191934D01*
X96737553Y-94179866D01*
X96740590Y-94168038D01*
X96744767Y-94156561D01*
X96750044Y-94145548D01*
X96756370Y-94135102D01*
X96763685Y-94125323D01*
X96771920Y-94116304D01*
X96780996Y-94108133D01*
X96790826Y-94100885D01*
X96801315Y-94094632D01*
X96812365Y-94089432D01*
X96823870Y-94085336D01*
X96835719Y-94082381D01*
X96847801Y-94080596D01*
X96859999Y-94080000D01*
X96872197Y-94080597D01*
X96884279Y-94082380D01*
X96896129Y-94085335D01*
X96907633Y-94089431D01*
X96918683Y-94094631D01*
X96929173Y-94100884D01*
X96939003Y-94108132D01*
X96948078Y-94116303D01*
X96956314Y-94125321D01*
X96963629Y-94135100D01*
X96969955Y-94145546D01*
X96975232Y-94156560D01*
X96979410Y-94168036D01*
X96982446Y-94179865D01*
X96984315Y-94191933D01*
X96984997Y-94204126D01*
X96985255Y-94240993D01*
X97001865Y-94505000D01*
X102497196Y-94505000D01*
X102501655Y-94474804D01*
X102515149Y-94198894D01*
X102515246Y-94197151D01*
X102516608Y-94185014D01*
X102519148Y-94173069D01*
X102522840Y-94161429D01*
X102527651Y-94150203D01*
X102533534Y-94139502D01*
X102540434Y-94129425D01*
X102548283Y-94120070D01*
X102557009Y-94111525D01*
X102566527Y-94103873D01*
X102576746Y-94097185D01*
X102587569Y-94091528D01*
X102598892Y-94086953D01*
X102610607Y-94083505D01*
X102622603Y-94081216D01*
X102634766Y-94080109D01*
X102646978Y-94080195D01*
X102659123Y-94081472D01*
X102671087Y-94083927D01*
X102682753Y-94087538D01*
X102694010Y-94092271D01*
X102704753Y-94098080D01*
X102714878Y-94104908D01*
X102724288Y-94112693D01*
X102732893Y-94121359D01*
X102740612Y-94130822D01*
X102747370Y-94140995D01*
X102753103Y-94151778D01*
X102757757Y-94163069D01*
X102761287Y-94174760D01*
X102763659Y-94186740D01*
X102764850Y-94198894D01*
X102764851Y-94211106D01*
X102751058Y-94493121D01*
X102750961Y-94494864D01*
X102750371Y-94500118D01*
X102749893Y-94505000D01*
X103875145Y-94505000D01*
X103929806Y-94134837D01*
X103930481Y-94121039D01*
X103919634Y-94050967D01*
X103895581Y-93957290D01*
X103862506Y-93866416D01*
X103820721Y-93779204D01*
X103770625Y-93696485D01*
X103712696Y-93619049D01*
X103647483Y-93547633D01*
X103575612Y-93482918D01*
X103497771Y-93425530D01*
X103414700Y-93376010D01*
X103327197Y-93334835D01*
X103236101Y-93302398D01*
X103142261Y-93279001D01*
X103046594Y-93264873D01*
X102943894Y-93259851D01*
X102942152Y-93259754D01*
X102930015Y-93258392D01*
X102918070Y-93255853D01*
X102906429Y-93252161D01*
X102895204Y-93247350D01*
X102884502Y-93241466D01*
X102874425Y-93234566D01*
X102865071Y-93226717D01*
X102856526Y-93217991D01*
X102848873Y-93208473D01*
X102842186Y-93198254D01*
X102836528Y-93187432D01*
X102831953Y-93176109D01*
X102828505Y-93164394D01*
X102826216Y-93152397D01*
X102825109Y-93140235D01*
X102825195Y-93128022D01*
X102826472Y-93115877D01*
X102828927Y-93103914D01*
X102832538Y-93092247D01*
X102837271Y-93080990D01*
X102843079Y-93070247D01*
X102849908Y-93060123D01*
X102857693Y-93050713D01*
X102866359Y-93042108D01*
X102875822Y-93034389D01*
X102885994Y-93027630D01*
X102896777Y-93021897D01*
X102908068Y-93017243D01*
X102919759Y-93013713D01*
X102931739Y-93011341D01*
X102943893Y-93010150D01*
X102956106Y-93010149D01*
X103064911Y-93015470D01*
X103066653Y-93015567D01*
X103071897Y-93016155D01*
X103077066Y-93016662D01*
X103184832Y-93032576D01*
X103186557Y-93032843D01*
X103191689Y-93033934D01*
X103196812Y-93034948D01*
X103302511Y-93061302D01*
X103304201Y-93061736D01*
X103309207Y-93063324D01*
X103314201Y-93064832D01*
X103416824Y-93101374D01*
X103418464Y-93101970D01*
X103423288Y-93104038D01*
X103428115Y-93106027D01*
X103526682Y-93152409D01*
X103528256Y-93153163D01*
X103532834Y-93155680D01*
X103537467Y-93158143D01*
X103631037Y-93213923D01*
X103632530Y-93214827D01*
X103636849Y-93217784D01*
X103641209Y-93220681D01*
X103728890Y-93285325D01*
X103730288Y-93286371D01*
X103734310Y-93289746D01*
X103738355Y-93293044D01*
X103819309Y-93365936D01*
X103820598Y-93367113D01*
X103824280Y-93370873D01*
X103827974Y-93374541D01*
X103901428Y-93454984D01*
X103902596Y-93456280D01*
X103905908Y-93460400D01*
X103909213Y-93464394D01*
X103974468Y-93551622D01*
X103975504Y-93553026D01*
X103978375Y-93557414D01*
X103981298Y-93561747D01*
X104014121Y-93615944D01*
X104022568Y-93611529D01*
X104033891Y-93606953D01*
X104045607Y-93603506D01*
X104057603Y-93601217D01*
X104069765Y-93600110D01*
X104081978Y-93600195D01*
X104094123Y-93601472D01*
X104106086Y-93603927D01*
X104117753Y-93607539D01*
X104129010Y-93612271D01*
X104139753Y-93618080D01*
X104149878Y-93624909D01*
X104159288Y-93632694D01*
X104167893Y-93641359D01*
X104175612Y-93650823D01*
X104182370Y-93660995D01*
X104188103Y-93671778D01*
X104192757Y-93683069D01*
X104196287Y-93694760D01*
X104198659Y-93706740D01*
X104199850Y-93718894D01*
X104199851Y-93731107D01*
X104181424Y-94107891D01*
X104182420Y-94114327D01*
X104182676Y-94116053D01*
X104183153Y-94121303D01*
X104183697Y-94126473D01*
X104189778Y-94235238D01*
X104189864Y-94236981D01*
X104189827Y-94242257D01*
X104189863Y-94247450D01*
X104185301Y-94356290D01*
X104185216Y-94358033D01*
X104184669Y-94363232D01*
X104184194Y-94368452D01*
X104169033Y-94476327D01*
X104168779Y-94478053D01*
X104167717Y-94483226D01*
X104166745Y-94488323D01*
X104141130Y-94594203D01*
X104140708Y-94595897D01*
X104139156Y-94600911D01*
X104137682Y-94605920D01*
X104101857Y-94708794D01*
X104101272Y-94710438D01*
X104099238Y-94715277D01*
X104097282Y-94720118D01*
X104065824Y-94788199D01*
X104011694Y-95005303D01*
X104011260Y-95006993D01*
X104009676Y-95011988D01*
X104008164Y-95016994D01*
X103920000Y-95264587D01*
X103920000Y-97655000D01*
X104500000Y-97655000D01*
X104500000Y-98155000D01*
X103920000Y-98155000D01*
X103920000Y-99995000D01*
X95580000Y-99995000D01*
X95580000Y-98155000D01*
X95000000Y-98155000D01*
X95000000Y-97655000D01*
X95580000Y-97655000D01*
X95580000Y-95263766D01*
X95510290Y-95076322D01*
X95509693Y-95074682D01*
X95508181Y-95069675D01*
X95506597Y-95064681D01*
X95432550Y-94784421D01*
X95409394Y-94736091D01*
X95408651Y-94734512D01*
X95406687Y-94729651D01*
X95404662Y-94724833D01*
X95367403Y-94622466D01*
X95366818Y-94620822D01*
X95365339Y-94615796D01*
X95363792Y-94610800D01*
X95336701Y-94505288D01*
X95336279Y-94503595D01*
X95335294Y-94498433D01*
X95334245Y-94493325D01*
X95317580Y-94385673D01*
X95317324Y-94383946D01*
X95316847Y-94378704D01*
X95316303Y-94373527D01*
X95310222Y-94264762D01*
X95310136Y-94263019D01*
X95310173Y-94257743D01*
X95310137Y-94252549D01*
X95314699Y-94143710D01*
X95314784Y-94141967D01*
X95315333Y-94136747D01*
X95315806Y-94131548D01*
X95320053Y-94101330D01*
X95300669Y-93793235D01*
X95300571Y-93791492D01*
X95300571Y-93788869D01*
X95300425Y-93786259D01*
X95300003Y-93725874D01*
X95300003Y-93724128D01*
X95300685Y-93711934D01*
X95302553Y-93699866D01*
X95305590Y-93688038D01*
X95309767Y-93676561D01*
X95315044Y-93665548D01*
X95321370Y-93655101D01*
X95328685Y-93645323D01*
X95336920Y-93636304D01*
X95345996Y-93628133D01*
X95355826Y-93620885D01*
X95366315Y-93614632D01*
X95377365Y-93609432D01*
X95388870Y-93605336D01*
X95400720Y-93602381D01*
X95412801Y-93600596D01*
X95424999Y-93600000D01*
X95437197Y-93600597D01*
X95449279Y-93602380D01*
X95461129Y-93605335D01*
X95472633Y-93609431D01*
X95483683Y-93614631D01*
X95485884Y-93615943D01*
X95509194Y-93576213D01*
X95510087Y-93574714D01*
X95513025Y-93570358D01*
X95515881Y-93565994D01*
X95579911Y-93477864D01*
X95580946Y-93476459D01*
X95584294Y-93472412D01*
X95587563Y-93468346D01*
X95659888Y-93386884D01*
X95661056Y-93385587D01*
X95664801Y-93381868D01*
X95668433Y-93378159D01*
X95748362Y-93304144D01*
X95749650Y-93302967D01*
X95753728Y-93299641D01*
X95757717Y-93296294D01*
X95844487Y-93230432D01*
X95845884Y-93229386D01*
X95850278Y-93226467D01*
X95854564Y-93223532D01*
X95947347Y-93166452D01*
X95948840Y-93165548D01*
X95953504Y-93163068D01*
X95958049Y-93160569D01*
X96055950Y-93112819D01*
X96055958Y-93112815D01*
X96055967Y-93112811D01*
X96057532Y-93112061D01*
X96062359Y-93110072D01*
X96067183Y-93108004D01*
X96169286Y-93070032D01*
X96170926Y-93069435D01*
X96175933Y-93067923D01*
X96180927Y-93066339D01*
X96286247Y-93038512D01*
X96287937Y-93038078D01*
X96293090Y-93037058D01*
X96298194Y-93035973D01*
X96405727Y-93018557D01*
X96407452Y-93018290D01*
X96412676Y-93017778D01*
X96417863Y-93017196D01*
X96526583Y-93010356D01*
X96528326Y-93010258D01*
X96530947Y-93010258D01*
X96533557Y-93010112D01*
X96549124Y-93010003D01*
X96550869Y-93010003D01*
X96563064Y-93010684D01*
G37*
%TD.AperFunction*%
D29*
%TO.P,J1,A12*%
X102950000Y-93135000D03*
%TO.P,J1,A4*%
%TO.N,Net-(J1-PadA4)*%
X97350000Y-93135000D03*
%TO.P,J1,B12*%
%TO.N,GND*%
X96550000Y-93135000D03*
%TO.P,J1,B4*%
%TO.N,Net-(J1-PadA4)*%
X102150000Y-93135000D03*
D25*
%TO.P,J1,S1*%
%TO.N,GND*%
X104075000Y-97905000D03*
X95425000Y-97905000D03*
D23*
X104075000Y-93725000D03*
X95425000Y-93725000D03*
D30*
%TO.P,J1,A7*%
%TO.N,Net-(J1-PadA7)*%
X100000000Y-93135000D03*
%TO.P,J1,A6*%
%TO.N,Net-(J1-PadA6)*%
X99500000Y-93135000D03*
%TO.P,J1,B6*%
X100500000Y-93135000D03*
%TO.P,J1,B7*%
%TO.N,Net-(J1-PadA7)*%
X99000000Y-93135000D03*
%TO.P,J1,A8*%
%TO.N,Net-(J1-PadA8)*%
X101000000Y-93135000D03*
%TO.P,J1,A5*%
%TO.N,Net-(J1-PadA5)*%
X98500000Y-93135000D03*
%TO.P,J1,B5*%
%TO.N,Net-(J1-PadB5)*%
X101500000Y-93135000D03*
%TO.P,J1,B8*%
%TO.N,Net-(J1-PadB8)*%
X98000000Y-93135000D03*
D29*
%TO.P,J1,A9*%
%TO.N,Net-(J1-PadA4)*%
X102150000Y-93135000D03*
%TO.P,J1,B9*%
X97350000Y-93135000D03*
%TO.P,J1,B1*%
%TO.N,GND*%
X102950000Y-93135000D03*
D31*
%TO.P,J1,S1*%
X102640000Y-94205000D03*
X96860000Y-94205000D03*
D29*
%TO.P,J1,A1*%
X96550000Y-93135000D03*
%TD*%
D32*
%TO.N,Net-(J1-PadA7)*%
X98573635Y-91533696D03*
X100603076Y-91514989D03*
%TO.N,Net-(J1-PadA6)*%
X99596302Y-91496293D03*
X103300000Y-90800000D03*
%TO.N,Net-(J1-PadA5)*%
X95800009Y-91540326D03*
%TO.N,Net-(J1-PadB5)*%
X103978141Y-91674989D03*
%TO.N,+3V3*%
X105000000Y-72400000D03*
X104745612Y-91033886D03*
X104077727Y-88826032D03*
X96450010Y-86665976D03*
%TO.N,OLED-RST*%
X119003892Y-81521428D03*
%TO.N,OLED-DC*%
X120300000Y-77500000D03*
%TO.N,OLED-CS0*%
X120461390Y-81053482D03*
%TO.N,OLED-SCLK*%
X120011379Y-79673314D03*
%TO.N,OLED-MOSI*%
X117457863Y-79018618D03*
%TO.N,IO6*%
X107486764Y-90922384D03*
%TO.N,IO5*%
X110500000Y-90750000D03*
%TO.N,IO4*%
X106645627Y-91463228D03*
%TO.N,Net-(U1-Pad19)*%
X109762660Y-73762660D03*
X98516595Y-84875396D03*
%TO.N,Net-(U1-Pad18)*%
X122915014Y-88000000D03*
X103676016Y-86981767D03*
%TO.N,Net-(U1-Pad17)*%
X120650155Y-75574979D03*
X103674990Y-85861051D03*
%TO.N,Net-(U1-Pad1)*%
X121339855Y-74475010D03*
X96550010Y-87752954D03*
%TO.N,Net-(U2-Pad8)*%
X105470622Y-90308995D03*
X95812660Y-90512660D03*
%TD*%
D33*
%TO.N,Net-(J1-PadA4)*%
X102150000Y-93790002D02*
X102150000Y-93135000D01*
X97589999Y-94030001D02*
X101910001Y-94030001D01*
X101910001Y-94030001D02*
X102150000Y-93790002D01*
X97350000Y-93790002D02*
X97589999Y-94030001D01*
X97350000Y-93135000D02*
X97350000Y-93790002D01*
X106134499Y-93394499D02*
X108740000Y-96000000D01*
X102150000Y-93135000D02*
X102150000Y-92559233D01*
X102469232Y-92240000D02*
X103407887Y-92240000D01*
X105705501Y-93394499D02*
X106134499Y-93394499D01*
X103407887Y-92240000D02*
X103567886Y-92399999D01*
X103567886Y-92399999D02*
X104711001Y-92399999D01*
X102150000Y-92559233D02*
X102469232Y-92240000D01*
X104711001Y-92399999D02*
X105705501Y-93394499D01*
X95550000Y-77550000D02*
X96500000Y-77550000D01*
X95989999Y-92239999D02*
X95924999Y-92304999D01*
X97274999Y-92239999D02*
X95989999Y-92239999D01*
X97350000Y-92315000D02*
X97274999Y-92239999D01*
X95924999Y-92304999D02*
X95431997Y-92304999D01*
X97350000Y-93135000D02*
X97350000Y-92315000D01*
X95800000Y-79225000D02*
X95075000Y-79225000D01*
X94774990Y-91647992D02*
X95063499Y-91936501D01*
X94774990Y-79525010D02*
X94774990Y-91647992D01*
X95075000Y-79225000D02*
X94774990Y-79525010D01*
X95431997Y-92304999D02*
X95063499Y-91936501D01*
%TO.N,Net-(J1-PadA7)*%
X99000000Y-91960061D02*
X99000000Y-93135000D01*
X98573635Y-91533696D02*
X99000000Y-91960061D01*
X100000000Y-93135000D02*
X100000000Y-92118065D01*
X100603076Y-91430072D02*
X100603076Y-91514989D01*
X100000000Y-92118065D02*
X100603076Y-91514989D01*
X100475000Y-91386913D02*
X100603076Y-91514989D01*
X100475000Y-90150000D02*
X100475000Y-91386913D01*
%TO.N,Net-(J1-PadA6)*%
X99500000Y-93135000D02*
X99500000Y-91592595D01*
X99500000Y-91592595D02*
X99596302Y-91496293D01*
X100500000Y-92315000D02*
X100500000Y-93135000D01*
X100575001Y-92239999D02*
X100500000Y-92315000D01*
X100996411Y-92239999D02*
X100575001Y-92239999D01*
X101968205Y-91268205D02*
X102831795Y-91268205D01*
X101968205Y-91268205D02*
X100996411Y-92239999D01*
X102831795Y-91268205D02*
X103300000Y-90800000D01*
X99975000Y-91117595D02*
X99596302Y-91496293D01*
X99975000Y-90150000D02*
X99975000Y-91117595D01*
%TO.N,Net-(J1-PadA5)*%
X97384819Y-91540326D02*
X95800009Y-91540326D01*
X98410001Y-92239999D02*
X98084492Y-92239999D01*
X98500000Y-92329998D02*
X98410001Y-92239999D01*
X98500000Y-93135000D02*
X98500000Y-92329998D01*
X98084492Y-92239999D02*
X97384819Y-91540326D01*
%TO.N,Net-(J1-PadB5)*%
X101500000Y-93135000D02*
X101500000Y-92372821D01*
X101500000Y-92372821D02*
X102154605Y-91718216D01*
X102154605Y-91718216D02*
X103934914Y-91718216D01*
X103934914Y-91718216D02*
X103978141Y-91674989D01*
%TO.N,GND*%
X103485000Y-93135000D02*
X104075000Y-93725000D01*
X102950000Y-93135000D02*
X103485000Y-93135000D01*
X96015000Y-93135000D02*
X95425000Y-93725000D01*
X96550000Y-93135000D02*
X96015000Y-93135000D01*
X92905000Y-97905000D02*
X92500000Y-97500000D01*
X95425000Y-97905000D02*
X92905000Y-97905000D01*
X95425000Y-93725000D02*
X95425000Y-92925000D01*
X130535533Y-70500000D02*
X123750000Y-70500000D01*
X132000000Y-69035533D02*
X130535533Y-70500000D01*
X132000000Y-65500000D02*
X132000000Y-69035533D01*
X102000000Y-88125000D02*
X99975000Y-88125000D01*
X97950000Y-88125000D02*
X99975000Y-88125000D01*
X99475000Y-87625000D02*
X99975000Y-88125000D01*
X97950000Y-87625000D02*
X99475000Y-87625000D01*
X99475000Y-88625000D02*
X99975000Y-88125000D01*
X97950000Y-88625000D02*
X99475000Y-88625000D01*
X97950000Y-89125000D02*
X98975000Y-89125000D01*
X98975000Y-89125000D02*
X99975000Y-88125000D01*
X98975000Y-90150000D02*
X98975000Y-89125000D01*
X97950000Y-89125000D02*
X96225000Y-89125000D01*
D34*
X96225000Y-89125000D02*
X95400000Y-88300000D01*
X95400000Y-88300000D02*
X95400000Y-84600000D01*
X96000000Y-84000000D02*
X95600000Y-84400000D01*
X95400000Y-84600000D02*
X95600000Y-84400000D01*
X101775000Y-81200000D02*
X101775000Y-82125000D01*
X101549990Y-82350010D02*
X96049990Y-82350010D01*
X101775000Y-82125000D02*
X101549990Y-82350010D01*
X96049990Y-82350010D02*
X96000000Y-82400000D01*
X96000000Y-82400000D02*
X96000000Y-84000000D01*
X96000000Y-81062500D02*
X96000000Y-82400000D01*
X92720000Y-76200000D02*
X92500000Y-76420000D01*
X96500000Y-76200000D02*
X92720000Y-76200000D01*
D33*
%TO.N,+3V3*%
X95580000Y-70800000D02*
X96600000Y-70800000D01*
X92500000Y-73880000D02*
X95580000Y-70800000D01*
X105385000Y-72015000D02*
X105000000Y-72400000D01*
X106750000Y-72015000D02*
X105385000Y-72015000D01*
X104745612Y-89493917D02*
X104745612Y-91033886D01*
X104077727Y-88826032D02*
X104745612Y-89493917D01*
X102000000Y-89125000D02*
X100975000Y-90150000D01*
X103876695Y-88625000D02*
X104077727Y-88826032D01*
X102000000Y-88625000D02*
X103876695Y-88625000D01*
X103778759Y-89125000D02*
X104077727Y-88826032D01*
X102000000Y-89125000D02*
X103778759Y-89125000D01*
X97565987Y-85549999D02*
X96450010Y-86665976D01*
X98251001Y-85549999D02*
X97565987Y-85549999D01*
X98975000Y-86100000D02*
X98801002Y-86100000D01*
X98801002Y-86100000D02*
X98251001Y-85549999D01*
X102013188Y-72200000D02*
X104475011Y-74661823D01*
X98000000Y-72200000D02*
X102013188Y-72200000D01*
X96600000Y-70800000D02*
X98000000Y-72200000D01*
X104950011Y-83536823D02*
X104950011Y-87953748D01*
X104475010Y-78475010D02*
X104475010Y-83061822D01*
X104475010Y-83061822D02*
X104950011Y-83536823D01*
X104950011Y-87953748D02*
X104077727Y-88826032D01*
X104475011Y-78475009D02*
X104475010Y-78475010D01*
X104475011Y-77775011D02*
X104475011Y-78475009D01*
X104475011Y-76938177D02*
X104475011Y-77775011D01*
X104450000Y-75950000D02*
X104475011Y-75975011D01*
X101750000Y-75950000D02*
X104450000Y-75950000D01*
X104475011Y-75975011D02*
X104475011Y-76938177D01*
X104475011Y-74661823D02*
X104475011Y-75975011D01*
%TO.N,OLED-RST*%
X121729108Y-78619108D02*
X119992581Y-78619108D01*
X122745000Y-79635000D02*
X121729108Y-78619108D01*
X119003892Y-79607797D02*
X119003892Y-81521428D01*
X123750000Y-79635000D02*
X122745000Y-79635000D01*
X119992581Y-78619108D02*
X119003892Y-79607797D01*
%TO.N,OLED-DC*%
X123750000Y-77095000D02*
X120705000Y-77095000D01*
X120300000Y-77500000D02*
X120705000Y-77095000D01*
%TO.N,OLED-CS0*%
X123750000Y-82175000D02*
X121582908Y-82175000D01*
X121582908Y-82175000D02*
X120461390Y-81053482D01*
%TO.N,OLED-SCLK*%
X122225000Y-79975000D02*
X121523315Y-79273315D01*
X122500000Y-80905000D02*
X122225000Y-80630000D01*
X120411378Y-79273315D02*
X120011379Y-79673314D01*
X123750000Y-80905000D02*
X122500000Y-80905000D01*
X121523315Y-79273315D02*
X120411378Y-79273315D01*
X122225000Y-80630000D02*
X122225000Y-79975000D01*
%TO.N,OLED-MOSI*%
X118681382Y-79018618D02*
X117457863Y-79018618D01*
X119500000Y-78200000D02*
X118681382Y-79018618D01*
X119900000Y-76800000D02*
X119500000Y-77200000D01*
X122485000Y-72015000D02*
X122270000Y-72230000D01*
X121750000Y-73750000D02*
X120650000Y-73750000D01*
X122270000Y-73230000D02*
X121750000Y-73750000D01*
X119500000Y-77200000D02*
X119500000Y-78200000D01*
X122270000Y-72230000D02*
X122270000Y-73230000D01*
X119900000Y-74500000D02*
X119900000Y-76800000D01*
X120650000Y-73750000D02*
X119900000Y-74500000D01*
X123750000Y-72015000D02*
X122485000Y-72015000D01*
%TO.N,CO2-SDA*%
X106750000Y-82175000D02*
X105500000Y-82175000D01*
X105500000Y-82175000D02*
X105375033Y-82050033D01*
X105375033Y-82050033D02*
X105375033Y-73902211D01*
X105375033Y-73902211D02*
X104220000Y-72747178D01*
X104220000Y-72747178D02*
X104220000Y-70800000D01*
%TO.N,CO2-SCL*%
X105500000Y-83445000D02*
X104925022Y-82870022D01*
X104925022Y-82870022D02*
X104925022Y-74088612D01*
X104925022Y-74088612D02*
X101680000Y-70843590D01*
X106750000Y-83445000D02*
X105500000Y-83445000D01*
X101680000Y-70843590D02*
X101680000Y-70800000D01*
%TO.N,IO7*%
X126875045Y-92824955D02*
X126550000Y-93150000D01*
X125000000Y-73285000D02*
X125200000Y-73485000D01*
X123750000Y-73285000D02*
X125000000Y-73285000D01*
X125200000Y-84763587D02*
X125525012Y-85088599D01*
X125525012Y-85088599D02*
X125525012Y-88774988D01*
X125200000Y-73485000D02*
X125200000Y-84763587D01*
X125525012Y-88774988D02*
X124700000Y-89600000D01*
X124700000Y-89600000D02*
X123900000Y-89600000D01*
X123900000Y-89600000D02*
X123100000Y-90400000D01*
X123100000Y-90400000D02*
X123100000Y-91200000D01*
X123100000Y-91200000D02*
X123400000Y-91500000D01*
X124900000Y-91500000D02*
X126550000Y-93150000D01*
X123400000Y-91500000D02*
X124900000Y-91500000D01*
%TO.N,IO6*%
X106195624Y-90792541D02*
X105920625Y-91067540D01*
X105500000Y-84715000D02*
X105424999Y-84790001D01*
X106195624Y-89960993D02*
X106195624Y-90792541D01*
X105920625Y-91067540D02*
X105920625Y-92242401D01*
X105424999Y-84790001D02*
X105424999Y-89190368D01*
X106750000Y-84715000D02*
X105500000Y-84715000D01*
X107486764Y-91647410D02*
X107486764Y-90922384D01*
X105920625Y-92242401D02*
X106058197Y-92379973D01*
X106058197Y-92379973D02*
X106754201Y-92379973D01*
X106754201Y-92379973D02*
X107486764Y-91647410D01*
X105424999Y-89190368D02*
X106195624Y-89960993D01*
%TO.N,IO5*%
X110805000Y-90445000D02*
X110500000Y-90750000D01*
X110805000Y-88255000D02*
X110805000Y-90445000D01*
%TO.N,IO4*%
X119050000Y-93150000D02*
X119813284Y-93150000D01*
X106750000Y-91358855D02*
X106645627Y-91463228D01*
X106750000Y-87255000D02*
X106750000Y-91358855D01*
%TO.N,IO3*%
X121740001Y-89850033D02*
X121479899Y-90110135D01*
X110374990Y-93711705D02*
X111063295Y-94400010D01*
X121740001Y-84204999D02*
X121740001Y-89850033D01*
X112506631Y-90456654D02*
X110374990Y-92588295D01*
X123750000Y-83445000D02*
X122500000Y-83445000D01*
X122500000Y-83445000D02*
X121740001Y-84204999D01*
X121479899Y-90110135D02*
X121479899Y-90168371D01*
X121479899Y-90168371D02*
X121102899Y-90545371D01*
X121102899Y-90545371D02*
X120406895Y-90545371D01*
X115299990Y-94400010D02*
X116550000Y-93150000D01*
X111063295Y-94400010D02*
X115299990Y-94400010D01*
X110374990Y-92588295D02*
X110374990Y-93711705D01*
X120318178Y-90456654D02*
X112506631Y-90456654D01*
X120406895Y-90545371D02*
X120318178Y-90456654D01*
%TO.N,IO2*%
X122379921Y-90541171D02*
X122379921Y-90482935D01*
X114050000Y-93150000D02*
X115300010Y-91899990D01*
X122379921Y-90482935D02*
X124809388Y-88053468D01*
X125075001Y-88053468D02*
X125075001Y-85274998D01*
X124809388Y-88053468D02*
X125075001Y-88053468D01*
X115300010Y-91899990D02*
X121021102Y-91899990D01*
X125075001Y-85274998D02*
X124270003Y-84470000D01*
X121021102Y-91899990D02*
X122379921Y-90541171D01*
X124270003Y-84470000D02*
X123750000Y-84470000D01*
%TO.N,IO1*%
X122190012Y-90036433D02*
X121929910Y-90296535D01*
X122500000Y-85985000D02*
X122190012Y-86294988D01*
X113250021Y-91449979D02*
X111550000Y-93150000D01*
X121929910Y-90354771D02*
X120834702Y-91449979D01*
X123750000Y-85985000D02*
X122500000Y-85985000D01*
X120834702Y-91449979D02*
X113250021Y-91449979D01*
X121929910Y-90296535D02*
X121929910Y-90354771D01*
X122190012Y-86294988D02*
X122190012Y-90036433D01*
%TO.N,Net-(U1-Pad19)*%
X109285000Y-73285000D02*
X109762660Y-73762660D01*
X106750000Y-73285000D02*
X109285000Y-73285000D01*
X98798418Y-84875396D02*
X98516595Y-84875396D01*
X99475000Y-85551978D02*
X98798418Y-84875396D01*
X99475000Y-86100000D02*
X99475000Y-85551978D01*
%TO.N,Net-(U1-Pad18)*%
X123750000Y-87255000D02*
X123660014Y-87255000D01*
X123660014Y-87255000D02*
X122915014Y-88000000D01*
X99975000Y-86100000D02*
X99975000Y-85425000D01*
X102116986Y-85119988D02*
X104119988Y-85119988D01*
X101813999Y-84817001D02*
X102116986Y-85119988D01*
X100573566Y-84817001D02*
X101813999Y-84817001D01*
X99975000Y-85425000D02*
X100074979Y-85325020D01*
X100074979Y-85315588D02*
X100573566Y-84817001D01*
X100074979Y-85325020D02*
X100074979Y-85315588D01*
X104119988Y-85119988D02*
X104500000Y-85500000D01*
X104500000Y-86157783D02*
X103676016Y-86981767D01*
X104500000Y-85500000D02*
X104500000Y-86157783D01*
%TO.N,Net-(U1-Pad17)*%
X120900176Y-75825000D02*
X120650155Y-75574979D01*
X123750000Y-75825000D02*
X120900176Y-75825000D01*
X100475000Y-85551978D02*
X100751988Y-85274990D01*
X101930586Y-85569999D02*
X103383938Y-85569999D01*
X101635577Y-85274990D02*
X101930586Y-85569999D01*
X100475000Y-86100000D02*
X100475000Y-85551978D01*
X100751988Y-85274990D02*
X101635577Y-85274990D01*
X103383938Y-85569999D02*
X103674990Y-85861051D01*
%TO.N,Net-(U1-Pad1)*%
X123750000Y-74555000D02*
X121419845Y-74555000D01*
X121419845Y-74555000D02*
X121339855Y-74475010D01*
X97950000Y-87125000D02*
X97177964Y-87125000D01*
X97177964Y-87125000D02*
X96550010Y-87752954D01*
%TO.N,Net-(U2-Pad24)*%
X120965000Y-88010000D02*
X120965000Y-89035000D01*
X120965000Y-88255000D02*
X120965000Y-89035000D01*
%TO.N,Net-(U2-Pad8)*%
X105470622Y-92523209D02*
X105470622Y-90308995D01*
X109100000Y-84701671D02*
X109100000Y-85300000D01*
X108211820Y-91899990D02*
X107186797Y-92925013D01*
X109100000Y-85300000D02*
X108211820Y-86188180D01*
X108000000Y-79635000D02*
X108582500Y-80217500D01*
X107186797Y-92925013D02*
X105872426Y-92925013D01*
X108582500Y-84184171D02*
X109100000Y-84701671D01*
X105872426Y-92925013D02*
X105470622Y-92523209D01*
X108211820Y-86188180D02*
X108211820Y-91899990D01*
X108582500Y-80217500D02*
X108582500Y-84184171D01*
X106750000Y-79635000D02*
X108000000Y-79635000D01*
X98225635Y-90808695D02*
X98117165Y-90917165D01*
X98117165Y-90917165D02*
X98225634Y-90808695D01*
X98117165Y-90917165D02*
X98034329Y-91000000D01*
X96300000Y-91000000D02*
X95812660Y-90512660D01*
X98034329Y-91000000D02*
X96300000Y-91000000D01*
%TD*%
D35*
%TO.N,GND*%
X100590001Y-69067571D02*
X100586807Y-69100000D01*
X100599550Y-69229383D01*
X100637290Y-69353793D01*
X100698575Y-69468450D01*
X100781052Y-69568948D01*
X100811757Y-69594147D01*
X100733368Y-69646525D01*
X100526525Y-69853368D01*
X100410689Y-70026729D01*
X100168397Y-69951208D01*
X99319605Y-70800000D01*
X99333748Y-70814143D01*
X99154143Y-70993748D01*
X99140000Y-70979605D01*
X99125858Y-70993748D01*
X98946253Y-70814143D01*
X98960395Y-70800000D01*
X98111603Y-69951208D01*
X97869311Y-70026729D01*
X97753475Y-69853368D01*
X97671710Y-69771603D01*
X98291208Y-69771603D01*
X99140000Y-70620395D01*
X99988792Y-69771603D01*
X99911157Y-69522528D01*
X99647117Y-69396629D01*
X99363589Y-69324661D01*
X99071469Y-69309389D01*
X98781981Y-69351401D01*
X98506253Y-69449081D01*
X98368843Y-69522528D01*
X98291208Y-69771603D01*
X97671710Y-69771603D01*
X97546632Y-69646525D01*
X97303411Y-69484010D01*
X97033158Y-69372068D01*
X96746260Y-69315000D01*
X96453740Y-69315000D01*
X96166842Y-69372068D01*
X95896589Y-69484010D01*
X95653368Y-69646525D01*
X95446525Y-69853368D01*
X95284150Y-70096380D01*
X95155724Y-70165026D01*
X95039999Y-70259999D01*
X95016201Y-70288997D01*
X92866408Y-72438791D01*
X92646260Y-72395000D01*
X92353740Y-72395000D01*
X92066842Y-72452068D01*
X91796589Y-72564010D01*
X91553368Y-72726525D01*
X91346525Y-72933368D01*
X91184010Y-73176589D01*
X91072068Y-73446842D01*
X91015000Y-73733740D01*
X91015000Y-74026260D01*
X91072068Y-74313158D01*
X91184010Y-74583411D01*
X91346525Y-74826632D01*
X91553368Y-75033475D01*
X91726729Y-75149311D01*
X91651208Y-75391603D01*
X92500000Y-76240395D01*
X93348792Y-75391603D01*
X93273271Y-75149311D01*
X93446632Y-75033475D01*
X93653475Y-74826632D01*
X93815990Y-74583411D01*
X93927932Y-74313158D01*
X93985000Y-74026260D01*
X93985000Y-73733740D01*
X93941209Y-73513592D01*
X95577347Y-71877454D01*
X95653368Y-71953475D01*
X95896589Y-72115990D01*
X96166842Y-72227932D01*
X96453740Y-72285000D01*
X96746260Y-72285000D01*
X96966408Y-72241210D01*
X97165198Y-72440000D01*
X96412667Y-72440000D01*
X96409981Y-72440265D01*
X96407922Y-72440041D01*
X96397310Y-72440005D01*
X96391376Y-72440026D01*
X96358364Y-72443381D01*
X96325187Y-72443149D01*
X96314626Y-72444184D01*
X96149644Y-72461524D01*
X96082147Y-72475379D01*
X96014506Y-72488282D01*
X96004347Y-72491349D01*
X95845875Y-72540404D01*
X95782338Y-72567112D01*
X95718506Y-72592902D01*
X95709137Y-72597883D01*
X95563211Y-72676785D01*
X95506077Y-72715322D01*
X95448466Y-72753022D01*
X95440243Y-72759728D01*
X95312422Y-72865472D01*
X95263891Y-72914343D01*
X95214672Y-72962542D01*
X95207908Y-72970718D01*
X95103060Y-73099274D01*
X95064929Y-73156666D01*
X95026024Y-73213485D01*
X95020980Y-73222814D01*
X95020977Y-73222818D01*
X95020977Y-73222819D01*
X94943096Y-73369292D01*
X94916851Y-73432967D01*
X94889711Y-73496289D01*
X94886573Y-73506426D01*
X94877771Y-73535580D01*
X94870506Y-73539463D01*
X94773815Y-73618815D01*
X94694463Y-73715506D01*
X94635498Y-73825820D01*
X94599188Y-73945518D01*
X94586928Y-74070000D01*
X94586928Y-75630000D01*
X94599188Y-75754482D01*
X94609962Y-75790000D01*
X94599188Y-75825518D01*
X94586928Y-75950000D01*
X94586928Y-76450000D01*
X94599188Y-76574482D01*
X94609962Y-76610000D01*
X94599188Y-76645518D01*
X94586928Y-76770000D01*
X94586928Y-78330000D01*
X94597109Y-78433373D01*
X94529494Y-78559872D01*
X94478983Y-78726384D01*
X94476816Y-78748383D01*
X94263993Y-78961206D01*
X94234989Y-78985009D01*
X94179861Y-79052184D01*
X94140016Y-79100734D01*
X94097350Y-79180556D01*
X94069444Y-79232764D01*
X94025987Y-79376025D01*
X94014990Y-79487678D01*
X94014990Y-79487688D01*
X94011314Y-79525010D01*
X94014990Y-79562332D01*
X94014991Y-91610660D01*
X94011314Y-91647992D01*
X94014991Y-91685325D01*
X94025988Y-91796978D01*
X94037514Y-91834974D01*
X94069444Y-91940238D01*
X94140016Y-92072268D01*
X94208789Y-92156067D01*
X94234990Y-92187993D01*
X94263988Y-92211791D01*
X94515082Y-92462885D01*
X94469192Y-92589587D01*
X95425000Y-93545395D01*
X95439143Y-93531253D01*
X95611938Y-93704048D01*
X95611928Y-93705000D01*
X95613065Y-93716540D01*
X95604605Y-93725000D01*
X95614913Y-93735308D01*
X95624188Y-93829482D01*
X95660498Y-93949180D01*
X95719463Y-94059494D01*
X95798815Y-94156185D01*
X95895506Y-94235537D01*
X96005820Y-94294502D01*
X96125518Y-94330812D01*
X96219692Y-94340087D01*
X96560413Y-94680808D01*
X96824814Y-94585044D01*
X96905134Y-94419937D01*
X97026195Y-94540998D01*
X97049998Y-94570002D01*
X97165723Y-94664975D01*
X97297752Y-94735547D01*
X97441013Y-94779004D01*
X97552666Y-94790001D01*
X97552676Y-94790001D01*
X97589999Y-94793677D01*
X97627322Y-94790001D01*
X101872679Y-94790001D01*
X101910001Y-94793677D01*
X101947323Y-94790001D01*
X101947334Y-94790001D01*
X102058987Y-94779004D01*
X102202248Y-94735547D01*
X102334277Y-94664975D01*
X102450002Y-94570002D01*
X102473805Y-94540998D01*
X102589697Y-94425106D01*
X102675186Y-94585044D01*
X102939587Y-94680808D01*
X103035000Y-94585395D01*
X103035000Y-94702002D01*
X103189748Y-94702002D01*
X103035000Y-94856750D01*
X103038590Y-94916965D01*
X103068664Y-95038380D01*
X103121847Y-95151595D01*
X103196095Y-95252259D01*
X103288555Y-95336503D01*
X103395674Y-95401091D01*
X103513335Y-95443540D01*
X103611250Y-95460000D01*
X103743027Y-95328223D01*
X103816108Y-95347384D01*
X103816136Y-95347386D01*
X103928750Y-95460000D01*
X104026665Y-95443540D01*
X104144326Y-95401091D01*
X104220098Y-95355404D01*
X104456675Y-95322961D01*
X104563159Y-95286174D01*
X104565000Y-95714250D01*
X104723750Y-95873000D01*
X106073000Y-95873000D01*
X106073000Y-95853000D01*
X106327000Y-95853000D01*
X106327000Y-95873000D01*
X106347000Y-95873000D01*
X106347000Y-96127000D01*
X106327000Y-96127000D01*
X106327000Y-97476250D01*
X106485750Y-97635000D01*
X107200000Y-97638072D01*
X107324482Y-97625812D01*
X107444180Y-97589502D01*
X107554494Y-97530537D01*
X107651185Y-97451185D01*
X107730537Y-97354494D01*
X107755191Y-97308370D01*
X107965537Y-97448918D01*
X108263088Y-97572168D01*
X108578967Y-97635000D01*
X108901033Y-97635000D01*
X109216912Y-97572168D01*
X109514463Y-97448918D01*
X109782252Y-97269987D01*
X110009987Y-97042252D01*
X110188918Y-96774463D01*
X110312168Y-96476912D01*
X110375000Y-96161033D01*
X110375000Y-95838967D01*
X110312168Y-95523088D01*
X110188918Y-95225537D01*
X110009987Y-94957748D01*
X109782252Y-94730013D01*
X109755722Y-94712286D01*
X109900000Y-94713072D01*
X110024482Y-94700812D01*
X110144180Y-94664502D01*
X110215085Y-94626602D01*
X110499496Y-94911012D01*
X110523294Y-94940011D01*
X110639019Y-95034984D01*
X110771048Y-95105556D01*
X110914309Y-95149013D01*
X111025962Y-95160010D01*
X111025971Y-95160010D01*
X111063294Y-95163686D01*
X111100617Y-95160010D01*
X115262668Y-95160010D01*
X115299990Y-95163686D01*
X115337312Y-95160010D01*
X115337323Y-95160010D01*
X115448976Y-95149013D01*
X115592237Y-95105556D01*
X115724266Y-95034984D01*
X115839991Y-94940011D01*
X115863794Y-94911007D01*
X116126460Y-94648341D01*
X116258890Y-94688513D01*
X116550000Y-94717185D01*
X116841111Y-94688513D01*
X117121034Y-94603599D01*
X117379014Y-94465706D01*
X117605134Y-94280134D01*
X117790706Y-94054013D01*
X117800000Y-94036626D01*
X117809294Y-94054014D01*
X117994866Y-94280134D01*
X118220987Y-94465706D01*
X118478967Y-94603599D01*
X118758890Y-94688513D01*
X119050000Y-94717185D01*
X119341111Y-94688513D01*
X119621034Y-94603599D01*
X119879014Y-94465706D01*
X120105134Y-94280134D01*
X120290706Y-94054013D01*
X120300000Y-94036626D01*
X120309294Y-94054014D01*
X120494866Y-94280134D01*
X120720987Y-94465706D01*
X120978967Y-94603599D01*
X121258890Y-94688513D01*
X121550000Y-94717185D01*
X121841111Y-94688513D01*
X122121034Y-94603599D01*
X122379014Y-94465706D01*
X122605134Y-94280134D01*
X122790706Y-94054013D01*
X122800000Y-94036626D01*
X122809294Y-94054014D01*
X122994866Y-94280134D01*
X123220987Y-94465706D01*
X123478967Y-94603599D01*
X123758890Y-94688513D01*
X124050000Y-94717185D01*
X124341111Y-94688513D01*
X124621034Y-94603599D01*
X124879014Y-94465706D01*
X125105134Y-94280134D01*
X125290706Y-94054013D01*
X125300000Y-94036626D01*
X125309294Y-94054014D01*
X125494866Y-94280134D01*
X125720987Y-94465706D01*
X125978967Y-94603599D01*
X126258890Y-94688513D01*
X126550000Y-94717185D01*
X126841111Y-94688513D01*
X127121034Y-94603599D01*
X127379014Y-94465706D01*
X127605134Y-94280134D01*
X127790706Y-94054013D01*
X127928599Y-93796033D01*
X128013513Y-93516110D01*
X128035000Y-93297949D01*
X128035000Y-93002050D01*
X128013513Y-92783889D01*
X127928599Y-92503966D01*
X127790706Y-92245986D01*
X127605134Y-92019866D01*
X127379013Y-91834294D01*
X127121033Y-91696401D01*
X126841110Y-91611487D01*
X126550000Y-91582815D01*
X126258889Y-91611487D01*
X126126461Y-91651659D01*
X125463803Y-90989002D01*
X125440001Y-90959999D01*
X125324276Y-90865026D01*
X125192247Y-90794454D01*
X125048986Y-90750997D01*
X124937333Y-90740000D01*
X124937322Y-90740000D01*
X124900000Y-90736324D01*
X124862678Y-90740000D01*
X123860000Y-90740000D01*
X123860000Y-90714801D01*
X124214802Y-90360000D01*
X124662678Y-90360000D01*
X124700000Y-90363676D01*
X124737322Y-90360000D01*
X124737333Y-90360000D01*
X124848986Y-90349003D01*
X124992247Y-90305546D01*
X125124276Y-90234974D01*
X125240001Y-90140001D01*
X125263803Y-90110998D01*
X126036014Y-89338787D01*
X126065013Y-89314989D01*
X126159986Y-89199264D01*
X126230558Y-89067235D01*
X126274015Y-88923974D01*
X126285012Y-88812321D01*
X126285012Y-88812312D01*
X126288688Y-88774989D01*
X126285012Y-88737666D01*
X126285012Y-85125921D01*
X126288688Y-85088598D01*
X126285012Y-85051275D01*
X126285012Y-85051266D01*
X126274015Y-84939613D01*
X126230558Y-84796352D01*
X126159986Y-84664323D01*
X126065013Y-84548598D01*
X126036015Y-84524800D01*
X125960000Y-84448785D01*
X125960000Y-73522325D01*
X125963676Y-73485000D01*
X125960000Y-73447675D01*
X125960000Y-73447667D01*
X125949003Y-73336014D01*
X125907745Y-73200000D01*
X126636323Y-73200000D01*
X126642499Y-73262702D01*
X126646714Y-73325547D01*
X126649825Y-73337087D01*
X126650997Y-73348986D01*
X126669293Y-73409300D01*
X126685682Y-73470094D01*
X126690981Y-73480799D01*
X126694454Y-73492247D01*
X126724160Y-73547822D01*
X126752099Y-73604261D01*
X126759392Y-73613735D01*
X126765026Y-73624276D01*
X126804990Y-73672972D01*
X126843416Y-73722892D01*
X126852415Y-73730759D01*
X126859999Y-73740001D01*
X126908695Y-73779965D01*
X126927880Y-73796738D01*
X126937547Y-73803643D01*
X126975724Y-73834974D01*
X126998318Y-73847051D01*
X129037556Y-75303649D01*
X129075725Y-75334974D01*
X129098315Y-75347049D01*
X131188637Y-76840136D01*
X131285885Y-76896085D01*
X131427720Y-76943991D01*
X131576176Y-76963304D01*
X131725547Y-76953286D01*
X131870094Y-76914318D01*
X132004261Y-76847901D01*
X132122892Y-76756583D01*
X132221429Y-76643878D01*
X132296085Y-76514114D01*
X132343991Y-76372279D01*
X132363304Y-76223823D01*
X132353285Y-76074452D01*
X132314318Y-75929905D01*
X132247901Y-75795738D01*
X132156583Y-75677107D01*
X132072120Y-75603261D01*
X131841674Y-75438657D01*
X131908008Y-75424557D01*
X131975599Y-75411174D01*
X131985735Y-75408036D01*
X132125258Y-75363777D01*
X132188590Y-75336633D01*
X132252257Y-75310391D01*
X132261591Y-75305344D01*
X132389860Y-75234827D01*
X132446700Y-75195907D01*
X132504064Y-75157796D01*
X132512240Y-75151032D01*
X132624370Y-75056945D01*
X132672571Y-75007725D01*
X132721449Y-74959186D01*
X132728156Y-74950962D01*
X132819874Y-74836886D01*
X132857603Y-74779229D01*
X132896105Y-74722149D01*
X132901086Y-74712779D01*
X132901091Y-74712772D01*
X132901096Y-74712761D01*
X132968901Y-74583062D01*
X132994696Y-74519219D01*
X133021401Y-74455690D01*
X133024464Y-74445542D01*
X133024466Y-74445537D01*
X133024467Y-74445532D01*
X133065794Y-74305113D01*
X133078700Y-74237456D01*
X133092551Y-74169981D01*
X133093587Y-74159420D01*
X133106854Y-74013649D01*
X133106373Y-73944764D01*
X133106854Y-73875879D01*
X133105818Y-73865319D01*
X133090517Y-73719746D01*
X133076667Y-73652278D01*
X133063760Y-73584614D01*
X133060693Y-73574455D01*
X133017409Y-73434626D01*
X132990716Y-73371126D01*
X132964912Y-73307258D01*
X132959930Y-73297889D01*
X132890311Y-73169131D01*
X132851770Y-73111991D01*
X132814075Y-73054387D01*
X132807373Y-73046169D01*
X132807369Y-73046163D01*
X132807364Y-73046158D01*
X132714067Y-72933380D01*
X132665174Y-72884828D01*
X132616994Y-72835628D01*
X132608818Y-72828864D01*
X132495387Y-72736351D01*
X132437964Y-72698200D01*
X132381178Y-72659317D01*
X132371847Y-72654271D01*
X132371839Y-72654267D01*
X132242603Y-72585551D01*
X132178921Y-72559303D01*
X132115600Y-72532164D01*
X132105463Y-72529026D01*
X131965336Y-72486720D01*
X131897750Y-72473338D01*
X131830394Y-72459021D01*
X131819841Y-72457911D01*
X131674165Y-72443627D01*
X131674158Y-72443627D01*
X131637333Y-72440000D01*
X131554476Y-72440000D01*
X132122946Y-71952740D01*
X132200563Y-71871727D01*
X132281053Y-71745499D01*
X132335369Y-71605994D01*
X132361427Y-71458572D01*
X132358223Y-71308899D01*
X132325882Y-71162728D01*
X132265644Y-71025675D01*
X132179826Y-70903006D01*
X132071726Y-70799437D01*
X131945498Y-70718947D01*
X131805992Y-70664631D01*
X131658571Y-70638573D01*
X131508898Y-70641777D01*
X131362726Y-70674118D01*
X131225673Y-70734356D01*
X131133743Y-70798670D01*
X129512234Y-72188535D01*
X127980663Y-70810122D01*
X127890316Y-70743605D01*
X127754759Y-70680069D01*
X127609413Y-70644202D01*
X127459863Y-70637379D01*
X127311854Y-70659863D01*
X127171075Y-70710790D01*
X127042937Y-70788203D01*
X126932364Y-70889128D01*
X126843605Y-71009684D01*
X126780069Y-71145241D01*
X126744202Y-71290587D01*
X126737379Y-71440137D01*
X126759863Y-71588146D01*
X126810790Y-71728925D01*
X126888203Y-71857063D01*
X126963838Y-71939929D01*
X127519472Y-72440000D01*
X127449227Y-72440000D01*
X127423823Y-72436695D01*
X127374550Y-72440000D01*
X127362667Y-72440000D01*
X127337298Y-72442499D01*
X127274453Y-72446714D01*
X127262913Y-72449825D01*
X127251014Y-72450997D01*
X127190700Y-72469293D01*
X127129906Y-72485682D01*
X127119201Y-72490981D01*
X127107753Y-72494454D01*
X127052178Y-72524160D01*
X126995739Y-72552099D01*
X126986265Y-72559392D01*
X126975724Y-72565026D01*
X126927028Y-72604990D01*
X126877108Y-72643416D01*
X126869241Y-72652414D01*
X126859999Y-72659999D01*
X126820029Y-72708702D01*
X126778571Y-72756122D01*
X126772611Y-72766482D01*
X126765026Y-72775724D01*
X126735321Y-72831298D01*
X126703915Y-72885886D01*
X126700092Y-72897206D01*
X126694454Y-72907753D01*
X126676164Y-72968049D01*
X126656009Y-73027721D01*
X126654467Y-73039576D01*
X126650997Y-73051014D01*
X126644822Y-73113710D01*
X126636695Y-73176177D01*
X126637495Y-73188102D01*
X126636323Y-73200000D01*
X125907745Y-73200000D01*
X125905546Y-73192753D01*
X125834974Y-73060724D01*
X125740001Y-72944999D01*
X125710998Y-72921197D01*
X125563804Y-72774003D01*
X125540001Y-72744999D01*
X125424276Y-72650026D01*
X125366770Y-72619288D01*
X125375812Y-72589482D01*
X125388072Y-72465000D01*
X125388072Y-71565000D01*
X125375812Y-71440518D01*
X125357454Y-71380000D01*
X125375812Y-71319482D01*
X125388072Y-71195000D01*
X125385000Y-71030750D01*
X125226250Y-70872000D01*
X123877000Y-70872000D01*
X123877000Y-70892000D01*
X123623000Y-70892000D01*
X123623000Y-70872000D01*
X122273750Y-70872000D01*
X122115000Y-71030750D01*
X122111928Y-71195000D01*
X122124188Y-71319482D01*
X122131137Y-71342389D01*
X122060724Y-71380026D01*
X121944999Y-71474999D01*
X121921196Y-71504003D01*
X121759003Y-71666196D01*
X121729999Y-71689999D01*
X121698054Y-71728925D01*
X121635026Y-71805724D01*
X121579426Y-71909744D01*
X121564454Y-71937754D01*
X121520997Y-72081015D01*
X121510000Y-72192668D01*
X121510000Y-72192678D01*
X121506324Y-72230000D01*
X121510000Y-72267323D01*
X121510001Y-72915198D01*
X121435199Y-72990000D01*
X120687322Y-72990000D01*
X120649999Y-72986324D01*
X120612676Y-72990000D01*
X120612667Y-72990000D01*
X120501014Y-73000997D01*
X120357753Y-73044454D01*
X120225724Y-73115026D01*
X120109999Y-73209999D01*
X120086201Y-73238998D01*
X119389002Y-73936197D01*
X119359999Y-73959999D01*
X119307531Y-74023932D01*
X119265026Y-74075724D01*
X119203652Y-74190546D01*
X119194454Y-74207754D01*
X119150997Y-74351015D01*
X119140000Y-74462668D01*
X119140000Y-74462678D01*
X119136324Y-74500000D01*
X119140000Y-74537323D01*
X119140001Y-76485198D01*
X118989002Y-76636197D01*
X118959999Y-76659999D01*
X118922296Y-76705941D01*
X118865026Y-76775724D01*
X118798147Y-76900845D01*
X118794454Y-76907754D01*
X118750997Y-77051015D01*
X118740000Y-77162668D01*
X118740000Y-77162678D01*
X118736324Y-77200000D01*
X118740000Y-77237323D01*
X118740001Y-77885198D01*
X118366581Y-78258618D01*
X118161574Y-78258618D01*
X118117637Y-78214681D01*
X117948119Y-78101413D01*
X117759761Y-78023392D01*
X117559802Y-77983618D01*
X117355924Y-77983618D01*
X117155965Y-78023392D01*
X116967607Y-78101413D01*
X116798089Y-78214681D01*
X116653926Y-78358844D01*
X116540658Y-78528362D01*
X116462637Y-78716720D01*
X116422863Y-78916679D01*
X116422863Y-79120557D01*
X116462637Y-79320516D01*
X116540658Y-79508874D01*
X116653926Y-79678392D01*
X116798089Y-79822555D01*
X116967607Y-79935823D01*
X117155965Y-80013844D01*
X117355924Y-80053618D01*
X117559802Y-80053618D01*
X117759761Y-80013844D01*
X117948119Y-79935823D01*
X118117637Y-79822555D01*
X118161574Y-79778618D01*
X118243892Y-79778618D01*
X118243893Y-80817716D01*
X118199955Y-80861654D01*
X118086687Y-81031172D01*
X118008666Y-81219530D01*
X117968892Y-81419489D01*
X117968892Y-81623367D01*
X118008666Y-81823326D01*
X118086687Y-82011684D01*
X118199955Y-82181202D01*
X118344118Y-82325365D01*
X118513636Y-82438633D01*
X118701994Y-82516654D01*
X118901953Y-82556428D01*
X119105831Y-82556428D01*
X119305790Y-82516654D01*
X119494148Y-82438633D01*
X119663666Y-82325365D01*
X119807829Y-82181202D01*
X119921097Y-82011684D01*
X119945244Y-81953388D01*
X119971134Y-81970687D01*
X120159492Y-82048708D01*
X120359451Y-82088482D01*
X120421589Y-82088482D01*
X121019109Y-82686003D01*
X121042907Y-82715001D01*
X121071905Y-82738799D01*
X121158631Y-82809974D01*
X121269397Y-82869180D01*
X121290661Y-82880546D01*
X121433922Y-82924003D01*
X121545575Y-82935000D01*
X121545585Y-82935000D01*
X121582908Y-82938676D01*
X121620231Y-82935000D01*
X121935198Y-82935000D01*
X121229003Y-83641196D01*
X121200000Y-83664998D01*
X121144872Y-83732173D01*
X121105027Y-83780723D01*
X121073131Y-83840396D01*
X121034455Y-83912753D01*
X120990998Y-84056014D01*
X120980001Y-84167667D01*
X120980001Y-84167677D01*
X120976325Y-84204999D01*
X120980001Y-84242322D01*
X120980001Y-86616928D01*
X120515000Y-86616928D01*
X120390518Y-86629188D01*
X120330000Y-86647546D01*
X120269482Y-86629188D01*
X120145000Y-86616928D01*
X119245000Y-86616928D01*
X119120518Y-86629188D01*
X119060000Y-86647546D01*
X118999482Y-86629188D01*
X118875000Y-86616928D01*
X117975000Y-86616928D01*
X117850518Y-86629188D01*
X117790000Y-86647546D01*
X117729482Y-86629188D01*
X117605000Y-86616928D01*
X116705000Y-86616928D01*
X116580518Y-86629188D01*
X116520000Y-86647546D01*
X116459482Y-86629188D01*
X116335000Y-86616928D01*
X115435000Y-86616928D01*
X115310518Y-86629188D01*
X115250000Y-86647546D01*
X115189482Y-86629188D01*
X115065000Y-86616928D01*
X114165000Y-86616928D01*
X114040518Y-86629188D01*
X113980000Y-86647546D01*
X113919482Y-86629188D01*
X113795000Y-86616928D01*
X112895000Y-86616928D01*
X112770518Y-86629188D01*
X112710000Y-86647546D01*
X112649482Y-86629188D01*
X112525000Y-86616928D01*
X111625000Y-86616928D01*
X111500518Y-86629188D01*
X111440000Y-86647546D01*
X111379482Y-86629188D01*
X111255000Y-86616928D01*
X110355000Y-86616928D01*
X110230518Y-86629188D01*
X110170000Y-86647546D01*
X110109482Y-86629188D01*
X109985000Y-86616928D01*
X109820750Y-86620000D01*
X109662000Y-86778750D01*
X109662000Y-88128000D01*
X109682000Y-88128000D01*
X109682000Y-88382000D01*
X109662000Y-88382000D01*
X109662000Y-89731250D01*
X109820750Y-89890000D01*
X109921315Y-89891881D01*
X109840226Y-89946063D01*
X109696063Y-90090226D01*
X109582795Y-90259744D01*
X109504774Y-90448102D01*
X109465000Y-90648061D01*
X109465000Y-90851939D01*
X109504774Y-91051898D01*
X109582795Y-91240256D01*
X109696063Y-91409774D01*
X109840226Y-91553937D01*
X109889685Y-91586984D01*
X109335750Y-91590000D01*
X109177000Y-91748750D01*
X109177000Y-93023000D01*
X109197000Y-93023000D01*
X109197000Y-93277000D01*
X109177000Y-93277000D01*
X109177000Y-93297000D01*
X108923000Y-93297000D01*
X108923000Y-93277000D01*
X108903000Y-93277000D01*
X108903000Y-93023000D01*
X108923000Y-93023000D01*
X108923000Y-92173664D01*
X108960823Y-92048976D01*
X108971820Y-91937323D01*
X108971820Y-91937314D01*
X108975496Y-91899991D01*
X108971820Y-91862668D01*
X108971820Y-89881925D01*
X109085000Y-89893072D01*
X109249250Y-89890000D01*
X109408000Y-89731250D01*
X109408000Y-88382000D01*
X109388000Y-88382000D01*
X109388000Y-88128000D01*
X109408000Y-88128000D01*
X109408000Y-86778750D01*
X109249250Y-86620000D01*
X109085000Y-86616928D01*
X108971820Y-86628075D01*
X108971820Y-86502981D01*
X109611003Y-85863799D01*
X109640001Y-85840001D01*
X109734974Y-85724276D01*
X109805546Y-85592247D01*
X109849003Y-85448986D01*
X109860000Y-85337333D01*
X109860000Y-85337324D01*
X109863676Y-85300001D01*
X109860000Y-85262678D01*
X109860000Y-84739004D01*
X109863677Y-84701671D01*
X109849003Y-84552685D01*
X109805546Y-84409424D01*
X109734974Y-84277395D01*
X109663799Y-84190668D01*
X109640001Y-84161670D01*
X109611003Y-84137873D01*
X109342500Y-83869370D01*
X109342500Y-80254822D01*
X109346176Y-80217499D01*
X109342500Y-80180176D01*
X109342500Y-80180167D01*
X109331503Y-80068514D01*
X109288046Y-79925253D01*
X109217474Y-79793224D01*
X109193500Y-79764012D01*
X109146299Y-79706496D01*
X109146295Y-79706492D01*
X109122501Y-79677499D01*
X109093509Y-79653706D01*
X108563803Y-79124002D01*
X108540001Y-79094999D01*
X108424276Y-79000026D01*
X108366770Y-78969288D01*
X108375812Y-78939482D01*
X108388072Y-78815000D01*
X108388072Y-77915000D01*
X108375812Y-77790518D01*
X108357454Y-77730000D01*
X108375812Y-77669482D01*
X108388072Y-77545000D01*
X108388072Y-76645000D01*
X108375812Y-76520518D01*
X108357454Y-76460000D01*
X108375812Y-76399482D01*
X108388072Y-76275000D01*
X108388072Y-75375000D01*
X108375812Y-75250518D01*
X108357454Y-75190000D01*
X108375812Y-75129482D01*
X108388072Y-75005000D01*
X108388072Y-74105000D01*
X108382163Y-74045000D01*
X108763544Y-74045000D01*
X108767434Y-74064558D01*
X108845455Y-74252916D01*
X108958723Y-74422434D01*
X109102886Y-74566597D01*
X109272404Y-74679865D01*
X109460762Y-74757886D01*
X109660721Y-74797660D01*
X109864599Y-74797660D01*
X110064558Y-74757886D01*
X110252916Y-74679865D01*
X110422434Y-74566597D01*
X110566597Y-74422434D01*
X110679865Y-74252916D01*
X110757886Y-74064558D01*
X110797660Y-73864599D01*
X110797660Y-73660721D01*
X110757886Y-73460762D01*
X110679865Y-73272404D01*
X110566597Y-73102886D01*
X110422434Y-72958723D01*
X110252916Y-72845455D01*
X110064558Y-72767434D01*
X109864599Y-72727660D01*
X109803873Y-72727660D01*
X109709276Y-72650026D01*
X109577247Y-72579454D01*
X109433986Y-72535997D01*
X109322333Y-72525000D01*
X109322322Y-72525000D01*
X109285000Y-72521324D01*
X109247678Y-72525000D01*
X108382163Y-72525000D01*
X108388072Y-72465000D01*
X108388072Y-71565000D01*
X108375812Y-71440518D01*
X108357454Y-71380000D01*
X108375812Y-71319482D01*
X108388072Y-71195000D01*
X108385000Y-71030750D01*
X108226250Y-70872000D01*
X106877000Y-70872000D01*
X106877000Y-70892000D01*
X106623000Y-70892000D01*
X106623000Y-70872000D01*
X106603000Y-70872000D01*
X106603000Y-70618000D01*
X106623000Y-70618000D01*
X106623000Y-70598000D01*
X106877000Y-70598000D01*
X106877000Y-70618000D01*
X108226250Y-70618000D01*
X108385000Y-70459250D01*
X108388072Y-70295000D01*
X108375812Y-70170518D01*
X108339502Y-70050820D01*
X108280537Y-69940506D01*
X108201185Y-69843815D01*
X108104494Y-69764463D01*
X108096144Y-69760000D01*
X122403856Y-69760000D01*
X122395506Y-69764463D01*
X122298815Y-69843815D01*
X122219463Y-69940506D01*
X122160498Y-70050820D01*
X122124188Y-70170518D01*
X122111928Y-70295000D01*
X122115000Y-70459250D01*
X122273750Y-70618000D01*
X123623000Y-70618000D01*
X123623000Y-70598000D01*
X123877000Y-70598000D01*
X123877000Y-70618000D01*
X125226250Y-70618000D01*
X125385000Y-70459250D01*
X125388072Y-70295000D01*
X125375812Y-70170518D01*
X125339502Y-70050820D01*
X125280537Y-69940506D01*
X125201185Y-69843815D01*
X125104494Y-69764463D01*
X125096144Y-69760000D01*
X129217581Y-69760000D01*
X129250000Y-69763193D01*
X129282419Y-69760000D01*
X129379383Y-69750450D01*
X129503793Y-69712710D01*
X129618450Y-69651425D01*
X129718948Y-69568948D01*
X129801425Y-69468450D01*
X129862710Y-69353793D01*
X129900450Y-69229383D01*
X129913193Y-69100000D01*
X129910000Y-69067581D01*
X129910000Y-67769608D01*
X129976458Y-67703150D01*
X130252627Y-68121118D01*
X130797557Y-68411649D01*
X131388696Y-68590287D01*
X132003328Y-68650168D01*
X132617831Y-68588990D01*
X133208592Y-68409103D01*
X133747373Y-68121118D01*
X133840000Y-67980931D01*
X133840000Y-77015000D01*
X130410000Y-77015000D01*
X130410000Y-90585000D01*
X133840001Y-90585000D01*
X133840001Y-95019070D01*
X133747373Y-94878882D01*
X133202443Y-94588351D01*
X132611304Y-94409713D01*
X131996672Y-94349832D01*
X131382169Y-94411010D01*
X130791408Y-94590897D01*
X130252627Y-94878882D01*
X129976457Y-95296852D01*
X132000000Y-97320395D01*
X132014143Y-97306253D01*
X132193748Y-97485858D01*
X132179605Y-97500000D01*
X132193748Y-97514143D01*
X132014143Y-97693748D01*
X132000000Y-97679605D01*
X131985858Y-97693748D01*
X131806253Y-97514143D01*
X131820395Y-97500000D01*
X129796852Y-95476457D01*
X129378882Y-95752627D01*
X129088351Y-96297557D01*
X128909713Y-96888696D01*
X128849832Y-97503328D01*
X128911010Y-98117831D01*
X129090897Y-98708592D01*
X129378882Y-99247373D01*
X129519069Y-99340000D01*
X104471406Y-99340000D01*
X104708747Y-99255919D01*
X104846157Y-99182472D01*
X104923792Y-98933397D01*
X104075000Y-98084605D01*
X103226208Y-98933397D01*
X103303843Y-99182472D01*
X103567883Y-99308371D01*
X103692490Y-99340000D01*
X95821406Y-99340000D01*
X96058747Y-99255919D01*
X96196157Y-99182472D01*
X96273792Y-98933397D01*
X95558126Y-98217731D01*
X95590287Y-98111304D01*
X95609873Y-97910268D01*
X96453397Y-98753792D01*
X96702472Y-98676157D01*
X96828371Y-98412117D01*
X96900339Y-98128589D01*
X96908445Y-97973531D01*
X102584389Y-97973531D01*
X102626401Y-98263019D01*
X102724081Y-98538747D01*
X102797528Y-98676157D01*
X103046603Y-98753792D01*
X103895395Y-97905000D01*
X103046603Y-97056208D01*
X102797528Y-97133843D01*
X102671629Y-97397883D01*
X102599661Y-97681411D01*
X102584389Y-97973531D01*
X96908445Y-97973531D01*
X96915611Y-97836469D01*
X96873599Y-97546981D01*
X96775919Y-97271253D01*
X96702472Y-97133843D01*
X96453397Y-97056208D01*
X95611010Y-97898595D01*
X95649784Y-97500611D01*
X96273792Y-96876603D01*
X103226208Y-96876603D01*
X104075000Y-97725395D01*
X104089143Y-97711253D01*
X104268748Y-97890858D01*
X104254605Y-97905000D01*
X105103397Y-98753792D01*
X105352472Y-98676157D01*
X105478371Y-98412117D01*
X105550339Y-98128589D01*
X105565611Y-97836469D01*
X105536608Y-97636624D01*
X105914250Y-97635000D01*
X106073000Y-97476250D01*
X106073000Y-96127000D01*
X104723750Y-96127000D01*
X104565000Y-96285750D01*
X104564091Y-96497054D01*
X104298589Y-96429661D01*
X104006469Y-96414389D01*
X103716981Y-96456401D01*
X103441253Y-96554081D01*
X103303843Y-96627528D01*
X103226208Y-96876603D01*
X96273792Y-96876603D01*
X96196157Y-96627528D01*
X95932117Y-96501629D01*
X95648589Y-96429661D01*
X95448008Y-96419175D01*
X95409103Y-96291408D01*
X95121118Y-95752627D01*
X94703148Y-95476457D01*
X92679605Y-97500000D01*
X92693748Y-97514143D01*
X92514143Y-97693748D01*
X92500000Y-97679605D01*
X92485858Y-97693748D01*
X92306253Y-97514143D01*
X92320395Y-97500000D01*
X92306253Y-97485858D01*
X92485858Y-97306253D01*
X92500000Y-97320395D01*
X94523543Y-95296852D01*
X94247373Y-94878882D01*
X94212732Y-94860413D01*
X94469192Y-94860413D01*
X94564956Y-95124814D01*
X94854571Y-95265704D01*
X95166108Y-95347384D01*
X95487595Y-95366718D01*
X95806675Y-95322961D01*
X96111088Y-95217795D01*
X96285044Y-95124814D01*
X96380808Y-94860413D01*
X95425000Y-93904605D01*
X94469192Y-94860413D01*
X94212732Y-94860413D01*
X93702443Y-94588351D01*
X93111304Y-94409713D01*
X92496672Y-94349832D01*
X91882169Y-94411010D01*
X91291408Y-94590897D01*
X90752627Y-94878882D01*
X90660000Y-95019069D01*
X90660000Y-93787595D01*
X93783282Y-93787595D01*
X93827039Y-94106675D01*
X93932205Y-94411088D01*
X94025186Y-94585044D01*
X94289587Y-94680808D01*
X95245395Y-93725000D01*
X94289587Y-92769192D01*
X94025186Y-92864956D01*
X93884296Y-93154571D01*
X93802616Y-93466108D01*
X93783282Y-93787595D01*
X90660000Y-93787595D01*
X90660000Y-78813740D01*
X91015000Y-78813740D01*
X91015000Y-79106260D01*
X91072068Y-79393158D01*
X91184010Y-79663411D01*
X91346525Y-79906632D01*
X91553368Y-80113475D01*
X91727760Y-80230000D01*
X91553368Y-80346525D01*
X91346525Y-80553368D01*
X91184010Y-80796589D01*
X91072068Y-81066842D01*
X91015000Y-81353740D01*
X91015000Y-81646260D01*
X91072068Y-81933158D01*
X91184010Y-82203411D01*
X91346525Y-82446632D01*
X91553368Y-82653475D01*
X91727760Y-82770000D01*
X91553368Y-82886525D01*
X91346525Y-83093368D01*
X91184010Y-83336589D01*
X91072068Y-83606842D01*
X91015000Y-83893740D01*
X91015000Y-84186260D01*
X91072068Y-84473158D01*
X91184010Y-84743411D01*
X91346525Y-84986632D01*
X91553368Y-85193475D01*
X91727760Y-85310000D01*
X91553368Y-85426525D01*
X91346525Y-85633368D01*
X91184010Y-85876589D01*
X91072068Y-86146842D01*
X91015000Y-86433740D01*
X91015000Y-86726260D01*
X91072068Y-87013158D01*
X91184010Y-87283411D01*
X91346525Y-87526632D01*
X91553368Y-87733475D01*
X91727760Y-87850000D01*
X91553368Y-87966525D01*
X91346525Y-88173368D01*
X91184010Y-88416589D01*
X91072068Y-88686842D01*
X91015000Y-88973740D01*
X91015000Y-89266260D01*
X91072068Y-89553158D01*
X91184010Y-89823411D01*
X91346525Y-90066632D01*
X91553368Y-90273475D01*
X91796589Y-90435990D01*
X92066842Y-90547932D01*
X92353740Y-90605000D01*
X92646260Y-90605000D01*
X92933158Y-90547932D01*
X93203411Y-90435990D01*
X93446632Y-90273475D01*
X93653475Y-90066632D01*
X93815990Y-89823411D01*
X93927932Y-89553158D01*
X93985000Y-89266260D01*
X93985000Y-88973740D01*
X93927932Y-88686842D01*
X93815990Y-88416589D01*
X93653475Y-88173368D01*
X93446632Y-87966525D01*
X93272240Y-87850000D01*
X93446632Y-87733475D01*
X93653475Y-87526632D01*
X93815990Y-87283411D01*
X93927932Y-87013158D01*
X93985000Y-86726260D01*
X93985000Y-86433740D01*
X93927932Y-86146842D01*
X93815990Y-85876589D01*
X93653475Y-85633368D01*
X93446632Y-85426525D01*
X93272240Y-85310000D01*
X93446632Y-85193475D01*
X93653475Y-84986632D01*
X93815990Y-84743411D01*
X93927932Y-84473158D01*
X93985000Y-84186260D01*
X93985000Y-83893740D01*
X93927932Y-83606842D01*
X93815990Y-83336589D01*
X93653475Y-83093368D01*
X93446632Y-82886525D01*
X93272240Y-82770000D01*
X93446632Y-82653475D01*
X93653475Y-82446632D01*
X93815990Y-82203411D01*
X93927932Y-81933158D01*
X93985000Y-81646260D01*
X93985000Y-81353740D01*
X93927932Y-81066842D01*
X93815990Y-80796589D01*
X93653475Y-80553368D01*
X93446632Y-80346525D01*
X93272240Y-80230000D01*
X93446632Y-80113475D01*
X93653475Y-79906632D01*
X93815990Y-79663411D01*
X93927932Y-79393158D01*
X93985000Y-79106260D01*
X93985000Y-78813740D01*
X93927932Y-78526842D01*
X93815990Y-78256589D01*
X93653475Y-78013368D01*
X93446632Y-77806525D01*
X93273271Y-77690689D01*
X93348792Y-77448397D01*
X92500000Y-76599605D01*
X91651208Y-77448397D01*
X91726729Y-77690689D01*
X91553368Y-77806525D01*
X91346525Y-78013368D01*
X91184010Y-78256589D01*
X91072068Y-78526842D01*
X91015000Y-78813740D01*
X90660000Y-78813740D01*
X90660000Y-76488531D01*
X91009389Y-76488531D01*
X91051401Y-76778019D01*
X91149081Y-77053747D01*
X91222528Y-77191157D01*
X91471603Y-77268792D01*
X92320395Y-76420000D01*
X92679605Y-76420000D01*
X93528397Y-77268792D01*
X93777472Y-77191157D01*
X93903371Y-76927117D01*
X93975339Y-76643589D01*
X93990611Y-76351469D01*
X93948599Y-76061981D01*
X93850919Y-75786253D01*
X93777472Y-75648843D01*
X93528397Y-75571208D01*
X92679605Y-76420000D01*
X92320395Y-76420000D01*
X91471603Y-75571208D01*
X91222528Y-75648843D01*
X91096629Y-75912883D01*
X91024661Y-76196411D01*
X91009389Y-76488531D01*
X90660000Y-76488531D01*
X90660000Y-67980931D01*
X90752627Y-68121118D01*
X91297557Y-68411649D01*
X91888696Y-68590287D01*
X92503328Y-68650168D01*
X93117831Y-68588990D01*
X93708592Y-68409103D01*
X94247373Y-68121118D01*
X94523543Y-67703148D01*
X92500000Y-65679605D01*
X92485858Y-65693748D01*
X92306253Y-65514143D01*
X92320395Y-65500000D01*
X92306253Y-65485858D01*
X92485858Y-65306253D01*
X92500000Y-65320395D01*
X92514143Y-65306253D01*
X92693748Y-65485858D01*
X92679605Y-65500000D01*
X94703148Y-67523543D01*
X95121118Y-67247373D01*
X95411649Y-66702443D01*
X95590287Y-66111304D01*
X95650168Y-65496672D01*
X95588990Y-64882169D01*
X95409103Y-64291408D01*
X95121118Y-63752627D01*
X94980931Y-63660000D01*
X100590000Y-63660000D01*
X100590001Y-69067571D01*
%TA.AperFunction,Conductor*%
D36*
G36*
X100590001Y-69067571D02*
G01*
X100586807Y-69100000D01*
X100599550Y-69229383D01*
X100637290Y-69353793D01*
X100698575Y-69468450D01*
X100781052Y-69568948D01*
X100811757Y-69594147D01*
X100733368Y-69646525D01*
X100526525Y-69853368D01*
X100410689Y-70026729D01*
X100168397Y-69951208D01*
X99319605Y-70800000D01*
X99333748Y-70814143D01*
X99154143Y-70993748D01*
X99140000Y-70979605D01*
X99125858Y-70993748D01*
X98946253Y-70814143D01*
X98960395Y-70800000D01*
X98111603Y-69951208D01*
X97869311Y-70026729D01*
X97753475Y-69853368D01*
X97671710Y-69771603D01*
X98291208Y-69771603D01*
X99140000Y-70620395D01*
X99988792Y-69771603D01*
X99911157Y-69522528D01*
X99647117Y-69396629D01*
X99363589Y-69324661D01*
X99071469Y-69309389D01*
X98781981Y-69351401D01*
X98506253Y-69449081D01*
X98368843Y-69522528D01*
X98291208Y-69771603D01*
X97671710Y-69771603D01*
X97546632Y-69646525D01*
X97303411Y-69484010D01*
X97033158Y-69372068D01*
X96746260Y-69315000D01*
X96453740Y-69315000D01*
X96166842Y-69372068D01*
X95896589Y-69484010D01*
X95653368Y-69646525D01*
X95446525Y-69853368D01*
X95284150Y-70096380D01*
X95155724Y-70165026D01*
X95039999Y-70259999D01*
X95016201Y-70288997D01*
X92866408Y-72438791D01*
X92646260Y-72395000D01*
X92353740Y-72395000D01*
X92066842Y-72452068D01*
X91796589Y-72564010D01*
X91553368Y-72726525D01*
X91346525Y-72933368D01*
X91184010Y-73176589D01*
X91072068Y-73446842D01*
X91015000Y-73733740D01*
X91015000Y-74026260D01*
X91072068Y-74313158D01*
X91184010Y-74583411D01*
X91346525Y-74826632D01*
X91553368Y-75033475D01*
X91726729Y-75149311D01*
X91651208Y-75391603D01*
X92500000Y-76240395D01*
X93348792Y-75391603D01*
X93273271Y-75149311D01*
X93446632Y-75033475D01*
X93653475Y-74826632D01*
X93815990Y-74583411D01*
X93927932Y-74313158D01*
X93985000Y-74026260D01*
X93985000Y-73733740D01*
X93941209Y-73513592D01*
X95577347Y-71877454D01*
X95653368Y-71953475D01*
X95896589Y-72115990D01*
X96166842Y-72227932D01*
X96453740Y-72285000D01*
X96746260Y-72285000D01*
X96966408Y-72241210D01*
X97165198Y-72440000D01*
X96412667Y-72440000D01*
X96409981Y-72440265D01*
X96407922Y-72440041D01*
X96397310Y-72440005D01*
X96391376Y-72440026D01*
X96358364Y-72443381D01*
X96325187Y-72443149D01*
X96314626Y-72444184D01*
X96149644Y-72461524D01*
X96082147Y-72475379D01*
X96014506Y-72488282D01*
X96004347Y-72491349D01*
X95845875Y-72540404D01*
X95782338Y-72567112D01*
X95718506Y-72592902D01*
X95709137Y-72597883D01*
X95563211Y-72676785D01*
X95506077Y-72715322D01*
X95448466Y-72753022D01*
X95440243Y-72759728D01*
X95312422Y-72865472D01*
X95263891Y-72914343D01*
X95214672Y-72962542D01*
X95207908Y-72970718D01*
X95103060Y-73099274D01*
X95064929Y-73156666D01*
X95026024Y-73213485D01*
X95020980Y-73222814D01*
X95020977Y-73222818D01*
X95020977Y-73222819D01*
X94943096Y-73369292D01*
X94916851Y-73432967D01*
X94889711Y-73496289D01*
X94886573Y-73506426D01*
X94877771Y-73535580D01*
X94870506Y-73539463D01*
X94773815Y-73618815D01*
X94694463Y-73715506D01*
X94635498Y-73825820D01*
X94599188Y-73945518D01*
X94586928Y-74070000D01*
X94586928Y-75630000D01*
X94599188Y-75754482D01*
X94609962Y-75790000D01*
X94599188Y-75825518D01*
X94586928Y-75950000D01*
X94586928Y-76450000D01*
X94599188Y-76574482D01*
X94609962Y-76610000D01*
X94599188Y-76645518D01*
X94586928Y-76770000D01*
X94586928Y-78330000D01*
X94597109Y-78433373D01*
X94529494Y-78559872D01*
X94478983Y-78726384D01*
X94476816Y-78748383D01*
X94263993Y-78961206D01*
X94234989Y-78985009D01*
X94179861Y-79052184D01*
X94140016Y-79100734D01*
X94097350Y-79180556D01*
X94069444Y-79232764D01*
X94025987Y-79376025D01*
X94014990Y-79487678D01*
X94014990Y-79487688D01*
X94011314Y-79525010D01*
X94014990Y-79562332D01*
X94014991Y-91610660D01*
X94011314Y-91647992D01*
X94014991Y-91685325D01*
X94025988Y-91796978D01*
X94037514Y-91834974D01*
X94069444Y-91940238D01*
X94140016Y-92072268D01*
X94208789Y-92156067D01*
X94234990Y-92187993D01*
X94263988Y-92211791D01*
X94515082Y-92462885D01*
X94469192Y-92589587D01*
X95425000Y-93545395D01*
X95439143Y-93531253D01*
X95611938Y-93704048D01*
X95611928Y-93705000D01*
X95613065Y-93716540D01*
X95604605Y-93725000D01*
X95614913Y-93735308D01*
X95624188Y-93829482D01*
X95660498Y-93949180D01*
X95719463Y-94059494D01*
X95798815Y-94156185D01*
X95895506Y-94235537D01*
X96005820Y-94294502D01*
X96125518Y-94330812D01*
X96219692Y-94340087D01*
X96560413Y-94680808D01*
X96824814Y-94585044D01*
X96905134Y-94419937D01*
X97026195Y-94540998D01*
X97049998Y-94570002D01*
X97165723Y-94664975D01*
X97297752Y-94735547D01*
X97441013Y-94779004D01*
X97552666Y-94790001D01*
X97552676Y-94790001D01*
X97589999Y-94793677D01*
X97627322Y-94790001D01*
X101872679Y-94790001D01*
X101910001Y-94793677D01*
X101947323Y-94790001D01*
X101947334Y-94790001D01*
X102058987Y-94779004D01*
X102202248Y-94735547D01*
X102334277Y-94664975D01*
X102450002Y-94570002D01*
X102473805Y-94540998D01*
X102589697Y-94425106D01*
X102675186Y-94585044D01*
X102939587Y-94680808D01*
X103035000Y-94585395D01*
X103035000Y-94702002D01*
X103189748Y-94702002D01*
X103035000Y-94856750D01*
X103038590Y-94916965D01*
X103068664Y-95038380D01*
X103121847Y-95151595D01*
X103196095Y-95252259D01*
X103288555Y-95336503D01*
X103395674Y-95401091D01*
X103513335Y-95443540D01*
X103611250Y-95460000D01*
X103743027Y-95328223D01*
X103816108Y-95347384D01*
X103816136Y-95347386D01*
X103928750Y-95460000D01*
X104026665Y-95443540D01*
X104144326Y-95401091D01*
X104220098Y-95355404D01*
X104456675Y-95322961D01*
X104563159Y-95286174D01*
X104565000Y-95714250D01*
X104723750Y-95873000D01*
X106073000Y-95873000D01*
X106073000Y-95853000D01*
X106327000Y-95853000D01*
X106327000Y-95873000D01*
X106347000Y-95873000D01*
X106347000Y-96127000D01*
X106327000Y-96127000D01*
X106327000Y-97476250D01*
X106485750Y-97635000D01*
X107200000Y-97638072D01*
X107324482Y-97625812D01*
X107444180Y-97589502D01*
X107554494Y-97530537D01*
X107651185Y-97451185D01*
X107730537Y-97354494D01*
X107755191Y-97308370D01*
X107965537Y-97448918D01*
X108263088Y-97572168D01*
X108578967Y-97635000D01*
X108901033Y-97635000D01*
X109216912Y-97572168D01*
X109514463Y-97448918D01*
X109782252Y-97269987D01*
X110009987Y-97042252D01*
X110188918Y-96774463D01*
X110312168Y-96476912D01*
X110375000Y-96161033D01*
X110375000Y-95838967D01*
X110312168Y-95523088D01*
X110188918Y-95225537D01*
X110009987Y-94957748D01*
X109782252Y-94730013D01*
X109755722Y-94712286D01*
X109900000Y-94713072D01*
X110024482Y-94700812D01*
X110144180Y-94664502D01*
X110215085Y-94626602D01*
X110499496Y-94911012D01*
X110523294Y-94940011D01*
X110639019Y-95034984D01*
X110771048Y-95105556D01*
X110914309Y-95149013D01*
X111025962Y-95160010D01*
X111025971Y-95160010D01*
X111063294Y-95163686D01*
X111100617Y-95160010D01*
X115262668Y-95160010D01*
X115299990Y-95163686D01*
X115337312Y-95160010D01*
X115337323Y-95160010D01*
X115448976Y-95149013D01*
X115592237Y-95105556D01*
X115724266Y-95034984D01*
X115839991Y-94940011D01*
X115863794Y-94911007D01*
X116126460Y-94648341D01*
X116258890Y-94688513D01*
X116550000Y-94717185D01*
X116841111Y-94688513D01*
X117121034Y-94603599D01*
X117379014Y-94465706D01*
X117605134Y-94280134D01*
X117790706Y-94054013D01*
X117800000Y-94036626D01*
X117809294Y-94054014D01*
X117994866Y-94280134D01*
X118220987Y-94465706D01*
X118478967Y-94603599D01*
X118758890Y-94688513D01*
X119050000Y-94717185D01*
X119341111Y-94688513D01*
X119621034Y-94603599D01*
X119879014Y-94465706D01*
X120105134Y-94280134D01*
X120290706Y-94054013D01*
X120300000Y-94036626D01*
X120309294Y-94054014D01*
X120494866Y-94280134D01*
X120720987Y-94465706D01*
X120978967Y-94603599D01*
X121258890Y-94688513D01*
X121550000Y-94717185D01*
X121841111Y-94688513D01*
X122121034Y-94603599D01*
X122379014Y-94465706D01*
X122605134Y-94280134D01*
X122790706Y-94054013D01*
X122800000Y-94036626D01*
X122809294Y-94054014D01*
X122994866Y-94280134D01*
X123220987Y-94465706D01*
X123478967Y-94603599D01*
X123758890Y-94688513D01*
X124050000Y-94717185D01*
X124341111Y-94688513D01*
X124621034Y-94603599D01*
X124879014Y-94465706D01*
X125105134Y-94280134D01*
X125290706Y-94054013D01*
X125300000Y-94036626D01*
X125309294Y-94054014D01*
X125494866Y-94280134D01*
X125720987Y-94465706D01*
X125978967Y-94603599D01*
X126258890Y-94688513D01*
X126550000Y-94717185D01*
X126841111Y-94688513D01*
X127121034Y-94603599D01*
X127379014Y-94465706D01*
X127605134Y-94280134D01*
X127790706Y-94054013D01*
X127928599Y-93796033D01*
X128013513Y-93516110D01*
X128035000Y-93297949D01*
X128035000Y-93002050D01*
X128013513Y-92783889D01*
X127928599Y-92503966D01*
X127790706Y-92245986D01*
X127605134Y-92019866D01*
X127379013Y-91834294D01*
X127121033Y-91696401D01*
X126841110Y-91611487D01*
X126550000Y-91582815D01*
X126258889Y-91611487D01*
X126126461Y-91651659D01*
X125463803Y-90989002D01*
X125440001Y-90959999D01*
X125324276Y-90865026D01*
X125192247Y-90794454D01*
X125048986Y-90750997D01*
X124937333Y-90740000D01*
X124937322Y-90740000D01*
X124900000Y-90736324D01*
X124862678Y-90740000D01*
X123860000Y-90740000D01*
X123860000Y-90714801D01*
X124214802Y-90360000D01*
X124662678Y-90360000D01*
X124700000Y-90363676D01*
X124737322Y-90360000D01*
X124737333Y-90360000D01*
X124848986Y-90349003D01*
X124992247Y-90305546D01*
X125124276Y-90234974D01*
X125240001Y-90140001D01*
X125263803Y-90110998D01*
X126036014Y-89338787D01*
X126065013Y-89314989D01*
X126159986Y-89199264D01*
X126230558Y-89067235D01*
X126274015Y-88923974D01*
X126285012Y-88812321D01*
X126285012Y-88812312D01*
X126288688Y-88774989D01*
X126285012Y-88737666D01*
X126285012Y-85125921D01*
X126288688Y-85088598D01*
X126285012Y-85051275D01*
X126285012Y-85051266D01*
X126274015Y-84939613D01*
X126230558Y-84796352D01*
X126159986Y-84664323D01*
X126065013Y-84548598D01*
X126036015Y-84524800D01*
X125960000Y-84448785D01*
X125960000Y-73522325D01*
X125963676Y-73485000D01*
X125960000Y-73447675D01*
X125960000Y-73447667D01*
X125949003Y-73336014D01*
X125907745Y-73200000D01*
X126636323Y-73200000D01*
X126642499Y-73262702D01*
X126646714Y-73325547D01*
X126649825Y-73337087D01*
X126650997Y-73348986D01*
X126669293Y-73409300D01*
X126685682Y-73470094D01*
X126690981Y-73480799D01*
X126694454Y-73492247D01*
X126724160Y-73547822D01*
X126752099Y-73604261D01*
X126759392Y-73613735D01*
X126765026Y-73624276D01*
X126804990Y-73672972D01*
X126843416Y-73722892D01*
X126852415Y-73730759D01*
X126859999Y-73740001D01*
X126908695Y-73779965D01*
X126927880Y-73796738D01*
X126937547Y-73803643D01*
X126975724Y-73834974D01*
X126998318Y-73847051D01*
X129037556Y-75303649D01*
X129075725Y-75334974D01*
X129098315Y-75347049D01*
X131188637Y-76840136D01*
X131285885Y-76896085D01*
X131427720Y-76943991D01*
X131576176Y-76963304D01*
X131725547Y-76953286D01*
X131870094Y-76914318D01*
X132004261Y-76847901D01*
X132122892Y-76756583D01*
X132221429Y-76643878D01*
X132296085Y-76514114D01*
X132343991Y-76372279D01*
X132363304Y-76223823D01*
X132353285Y-76074452D01*
X132314318Y-75929905D01*
X132247901Y-75795738D01*
X132156583Y-75677107D01*
X132072120Y-75603261D01*
X131841674Y-75438657D01*
X131908008Y-75424557D01*
X131975599Y-75411174D01*
X131985735Y-75408036D01*
X132125258Y-75363777D01*
X132188590Y-75336633D01*
X132252257Y-75310391D01*
X132261591Y-75305344D01*
X132389860Y-75234827D01*
X132446700Y-75195907D01*
X132504064Y-75157796D01*
X132512240Y-75151032D01*
X132624370Y-75056945D01*
X132672571Y-75007725D01*
X132721449Y-74959186D01*
X132728156Y-74950962D01*
X132819874Y-74836886D01*
X132857603Y-74779229D01*
X132896105Y-74722149D01*
X132901086Y-74712779D01*
X132901091Y-74712772D01*
X132901096Y-74712761D01*
X132968901Y-74583062D01*
X132994696Y-74519219D01*
X133021401Y-74455690D01*
X133024464Y-74445542D01*
X133024466Y-74445537D01*
X133024467Y-74445532D01*
X133065794Y-74305113D01*
X133078700Y-74237456D01*
X133092551Y-74169981D01*
X133093587Y-74159420D01*
X133106854Y-74013649D01*
X133106373Y-73944764D01*
X133106854Y-73875879D01*
X133105818Y-73865319D01*
X133090517Y-73719746D01*
X133076667Y-73652278D01*
X133063760Y-73584614D01*
X133060693Y-73574455D01*
X133017409Y-73434626D01*
X132990716Y-73371126D01*
X132964912Y-73307258D01*
X132959930Y-73297889D01*
X132890311Y-73169131D01*
X132851770Y-73111991D01*
X132814075Y-73054387D01*
X132807373Y-73046169D01*
X132807369Y-73046163D01*
X132807364Y-73046158D01*
X132714067Y-72933380D01*
X132665174Y-72884828D01*
X132616994Y-72835628D01*
X132608818Y-72828864D01*
X132495387Y-72736351D01*
X132437964Y-72698200D01*
X132381178Y-72659317D01*
X132371847Y-72654271D01*
X132371839Y-72654267D01*
X132242603Y-72585551D01*
X132178921Y-72559303D01*
X132115600Y-72532164D01*
X132105463Y-72529026D01*
X131965336Y-72486720D01*
X131897750Y-72473338D01*
X131830394Y-72459021D01*
X131819841Y-72457911D01*
X131674165Y-72443627D01*
X131674158Y-72443627D01*
X131637333Y-72440000D01*
X131554476Y-72440000D01*
X132122946Y-71952740D01*
X132200563Y-71871727D01*
X132281053Y-71745499D01*
X132335369Y-71605994D01*
X132361427Y-71458572D01*
X132358223Y-71308899D01*
X132325882Y-71162728D01*
X132265644Y-71025675D01*
X132179826Y-70903006D01*
X132071726Y-70799437D01*
X131945498Y-70718947D01*
X131805992Y-70664631D01*
X131658571Y-70638573D01*
X131508898Y-70641777D01*
X131362726Y-70674118D01*
X131225673Y-70734356D01*
X131133743Y-70798670D01*
X129512234Y-72188535D01*
X127980663Y-70810122D01*
X127890316Y-70743605D01*
X127754759Y-70680069D01*
X127609413Y-70644202D01*
X127459863Y-70637379D01*
X127311854Y-70659863D01*
X127171075Y-70710790D01*
X127042937Y-70788203D01*
X126932364Y-70889128D01*
X126843605Y-71009684D01*
X126780069Y-71145241D01*
X126744202Y-71290587D01*
X126737379Y-71440137D01*
X126759863Y-71588146D01*
X126810790Y-71728925D01*
X126888203Y-71857063D01*
X126963838Y-71939929D01*
X127519472Y-72440000D01*
X127449227Y-72440000D01*
X127423823Y-72436695D01*
X127374550Y-72440000D01*
X127362667Y-72440000D01*
X127337298Y-72442499D01*
X127274453Y-72446714D01*
X127262913Y-72449825D01*
X127251014Y-72450997D01*
X127190700Y-72469293D01*
X127129906Y-72485682D01*
X127119201Y-72490981D01*
X127107753Y-72494454D01*
X127052178Y-72524160D01*
X126995739Y-72552099D01*
X126986265Y-72559392D01*
X126975724Y-72565026D01*
X126927028Y-72604990D01*
X126877108Y-72643416D01*
X126869241Y-72652414D01*
X126859999Y-72659999D01*
X126820029Y-72708702D01*
X126778571Y-72756122D01*
X126772611Y-72766482D01*
X126765026Y-72775724D01*
X126735321Y-72831298D01*
X126703915Y-72885886D01*
X126700092Y-72897206D01*
X126694454Y-72907753D01*
X126676164Y-72968049D01*
X126656009Y-73027721D01*
X126654467Y-73039576D01*
X126650997Y-73051014D01*
X126644822Y-73113710D01*
X126636695Y-73176177D01*
X126637495Y-73188102D01*
X126636323Y-73200000D01*
X125907745Y-73200000D01*
X125905546Y-73192753D01*
X125834974Y-73060724D01*
X125740001Y-72944999D01*
X125710998Y-72921197D01*
X125563804Y-72774003D01*
X125540001Y-72744999D01*
X125424276Y-72650026D01*
X125366770Y-72619288D01*
X125375812Y-72589482D01*
X125388072Y-72465000D01*
X125388072Y-71565000D01*
X125375812Y-71440518D01*
X125357454Y-71380000D01*
X125375812Y-71319482D01*
X125388072Y-71195000D01*
X125385000Y-71030750D01*
X125226250Y-70872000D01*
X123877000Y-70872000D01*
X123877000Y-70892000D01*
X123623000Y-70892000D01*
X123623000Y-70872000D01*
X122273750Y-70872000D01*
X122115000Y-71030750D01*
X122111928Y-71195000D01*
X122124188Y-71319482D01*
X122131137Y-71342389D01*
X122060724Y-71380026D01*
X121944999Y-71474999D01*
X121921196Y-71504003D01*
X121759003Y-71666196D01*
X121729999Y-71689999D01*
X121698054Y-71728925D01*
X121635026Y-71805724D01*
X121579426Y-71909744D01*
X121564454Y-71937754D01*
X121520997Y-72081015D01*
X121510000Y-72192668D01*
X121510000Y-72192678D01*
X121506324Y-72230000D01*
X121510000Y-72267323D01*
X121510001Y-72915198D01*
X121435199Y-72990000D01*
X120687322Y-72990000D01*
X120649999Y-72986324D01*
X120612676Y-72990000D01*
X120612667Y-72990000D01*
X120501014Y-73000997D01*
X120357753Y-73044454D01*
X120225724Y-73115026D01*
X120109999Y-73209999D01*
X120086201Y-73238998D01*
X119389002Y-73936197D01*
X119359999Y-73959999D01*
X119307531Y-74023932D01*
X119265026Y-74075724D01*
X119203652Y-74190546D01*
X119194454Y-74207754D01*
X119150997Y-74351015D01*
X119140000Y-74462668D01*
X119140000Y-74462678D01*
X119136324Y-74500000D01*
X119140000Y-74537323D01*
X119140001Y-76485198D01*
X118989002Y-76636197D01*
X118959999Y-76659999D01*
X118922296Y-76705941D01*
X118865026Y-76775724D01*
X118798147Y-76900845D01*
X118794454Y-76907754D01*
X118750997Y-77051015D01*
X118740000Y-77162668D01*
X118740000Y-77162678D01*
X118736324Y-77200000D01*
X118740000Y-77237323D01*
X118740001Y-77885198D01*
X118366581Y-78258618D01*
X118161574Y-78258618D01*
X118117637Y-78214681D01*
X117948119Y-78101413D01*
X117759761Y-78023392D01*
X117559802Y-77983618D01*
X117355924Y-77983618D01*
X117155965Y-78023392D01*
X116967607Y-78101413D01*
X116798089Y-78214681D01*
X116653926Y-78358844D01*
X116540658Y-78528362D01*
X116462637Y-78716720D01*
X116422863Y-78916679D01*
X116422863Y-79120557D01*
X116462637Y-79320516D01*
X116540658Y-79508874D01*
X116653926Y-79678392D01*
X116798089Y-79822555D01*
X116967607Y-79935823D01*
X117155965Y-80013844D01*
X117355924Y-80053618D01*
X117559802Y-80053618D01*
X117759761Y-80013844D01*
X117948119Y-79935823D01*
X118117637Y-79822555D01*
X118161574Y-79778618D01*
X118243892Y-79778618D01*
X118243893Y-80817716D01*
X118199955Y-80861654D01*
X118086687Y-81031172D01*
X118008666Y-81219530D01*
X117968892Y-81419489D01*
X117968892Y-81623367D01*
X118008666Y-81823326D01*
X118086687Y-82011684D01*
X118199955Y-82181202D01*
X118344118Y-82325365D01*
X118513636Y-82438633D01*
X118701994Y-82516654D01*
X118901953Y-82556428D01*
X119105831Y-82556428D01*
X119305790Y-82516654D01*
X119494148Y-82438633D01*
X119663666Y-82325365D01*
X119807829Y-82181202D01*
X119921097Y-82011684D01*
X119945244Y-81953388D01*
X119971134Y-81970687D01*
X120159492Y-82048708D01*
X120359451Y-82088482D01*
X120421589Y-82088482D01*
X121019109Y-82686003D01*
X121042907Y-82715001D01*
X121071905Y-82738799D01*
X121158631Y-82809974D01*
X121269397Y-82869180D01*
X121290661Y-82880546D01*
X121433922Y-82924003D01*
X121545575Y-82935000D01*
X121545585Y-82935000D01*
X121582908Y-82938676D01*
X121620231Y-82935000D01*
X121935198Y-82935000D01*
X121229003Y-83641196D01*
X121200000Y-83664998D01*
X121144872Y-83732173D01*
X121105027Y-83780723D01*
X121073131Y-83840396D01*
X121034455Y-83912753D01*
X120990998Y-84056014D01*
X120980001Y-84167667D01*
X120980001Y-84167677D01*
X120976325Y-84204999D01*
X120980001Y-84242322D01*
X120980001Y-86616928D01*
X120515000Y-86616928D01*
X120390518Y-86629188D01*
X120330000Y-86647546D01*
X120269482Y-86629188D01*
X120145000Y-86616928D01*
X119245000Y-86616928D01*
X119120518Y-86629188D01*
X119060000Y-86647546D01*
X118999482Y-86629188D01*
X118875000Y-86616928D01*
X117975000Y-86616928D01*
X117850518Y-86629188D01*
X117790000Y-86647546D01*
X117729482Y-86629188D01*
X117605000Y-86616928D01*
X116705000Y-86616928D01*
X116580518Y-86629188D01*
X116520000Y-86647546D01*
X116459482Y-86629188D01*
X116335000Y-86616928D01*
X115435000Y-86616928D01*
X115310518Y-86629188D01*
X115250000Y-86647546D01*
X115189482Y-86629188D01*
X115065000Y-86616928D01*
X114165000Y-86616928D01*
X114040518Y-86629188D01*
X113980000Y-86647546D01*
X113919482Y-86629188D01*
X113795000Y-86616928D01*
X112895000Y-86616928D01*
X112770518Y-86629188D01*
X112710000Y-86647546D01*
X112649482Y-86629188D01*
X112525000Y-86616928D01*
X111625000Y-86616928D01*
X111500518Y-86629188D01*
X111440000Y-86647546D01*
X111379482Y-86629188D01*
X111255000Y-86616928D01*
X110355000Y-86616928D01*
X110230518Y-86629188D01*
X110170000Y-86647546D01*
X110109482Y-86629188D01*
X109985000Y-86616928D01*
X109820750Y-86620000D01*
X109662000Y-86778750D01*
X109662000Y-88128000D01*
X109682000Y-88128000D01*
X109682000Y-88382000D01*
X109662000Y-88382000D01*
X109662000Y-89731250D01*
X109820750Y-89890000D01*
X109921315Y-89891881D01*
X109840226Y-89946063D01*
X109696063Y-90090226D01*
X109582795Y-90259744D01*
X109504774Y-90448102D01*
X109465000Y-90648061D01*
X109465000Y-90851939D01*
X109504774Y-91051898D01*
X109582795Y-91240256D01*
X109696063Y-91409774D01*
X109840226Y-91553937D01*
X109889685Y-91586984D01*
X109335750Y-91590000D01*
X109177000Y-91748750D01*
X109177000Y-93023000D01*
X109197000Y-93023000D01*
X109197000Y-93277000D01*
X109177000Y-93277000D01*
X109177000Y-93297000D01*
X108923000Y-93297000D01*
X108923000Y-93277000D01*
X108903000Y-93277000D01*
X108903000Y-93023000D01*
X108923000Y-93023000D01*
X108923000Y-92173664D01*
X108960823Y-92048976D01*
X108971820Y-91937323D01*
X108971820Y-91937314D01*
X108975496Y-91899991D01*
X108971820Y-91862668D01*
X108971820Y-89881925D01*
X109085000Y-89893072D01*
X109249250Y-89890000D01*
X109408000Y-89731250D01*
X109408000Y-88382000D01*
X109388000Y-88382000D01*
X109388000Y-88128000D01*
X109408000Y-88128000D01*
X109408000Y-86778750D01*
X109249250Y-86620000D01*
X109085000Y-86616928D01*
X108971820Y-86628075D01*
X108971820Y-86502981D01*
X109611003Y-85863799D01*
X109640001Y-85840001D01*
X109734974Y-85724276D01*
X109805546Y-85592247D01*
X109849003Y-85448986D01*
X109860000Y-85337333D01*
X109860000Y-85337324D01*
X109863676Y-85300001D01*
X109860000Y-85262678D01*
X109860000Y-84739004D01*
X109863677Y-84701671D01*
X109849003Y-84552685D01*
X109805546Y-84409424D01*
X109734974Y-84277395D01*
X109663799Y-84190668D01*
X109640001Y-84161670D01*
X109611003Y-84137873D01*
X109342500Y-83869370D01*
X109342500Y-80254822D01*
X109346176Y-80217499D01*
X109342500Y-80180176D01*
X109342500Y-80180167D01*
X109331503Y-80068514D01*
X109288046Y-79925253D01*
X109217474Y-79793224D01*
X109193500Y-79764012D01*
X109146299Y-79706496D01*
X109146295Y-79706492D01*
X109122501Y-79677499D01*
X109093509Y-79653706D01*
X108563803Y-79124002D01*
X108540001Y-79094999D01*
X108424276Y-79000026D01*
X108366770Y-78969288D01*
X108375812Y-78939482D01*
X108388072Y-78815000D01*
X108388072Y-77915000D01*
X108375812Y-77790518D01*
X108357454Y-77730000D01*
X108375812Y-77669482D01*
X108388072Y-77545000D01*
X108388072Y-76645000D01*
X108375812Y-76520518D01*
X108357454Y-76460000D01*
X108375812Y-76399482D01*
X108388072Y-76275000D01*
X108388072Y-75375000D01*
X108375812Y-75250518D01*
X108357454Y-75190000D01*
X108375812Y-75129482D01*
X108388072Y-75005000D01*
X108388072Y-74105000D01*
X108382163Y-74045000D01*
X108763544Y-74045000D01*
X108767434Y-74064558D01*
X108845455Y-74252916D01*
X108958723Y-74422434D01*
X109102886Y-74566597D01*
X109272404Y-74679865D01*
X109460762Y-74757886D01*
X109660721Y-74797660D01*
X109864599Y-74797660D01*
X110064558Y-74757886D01*
X110252916Y-74679865D01*
X110422434Y-74566597D01*
X110566597Y-74422434D01*
X110679865Y-74252916D01*
X110757886Y-74064558D01*
X110797660Y-73864599D01*
X110797660Y-73660721D01*
X110757886Y-73460762D01*
X110679865Y-73272404D01*
X110566597Y-73102886D01*
X110422434Y-72958723D01*
X110252916Y-72845455D01*
X110064558Y-72767434D01*
X109864599Y-72727660D01*
X109803873Y-72727660D01*
X109709276Y-72650026D01*
X109577247Y-72579454D01*
X109433986Y-72535997D01*
X109322333Y-72525000D01*
X109322322Y-72525000D01*
X109285000Y-72521324D01*
X109247678Y-72525000D01*
X108382163Y-72525000D01*
X108388072Y-72465000D01*
X108388072Y-71565000D01*
X108375812Y-71440518D01*
X108357454Y-71380000D01*
X108375812Y-71319482D01*
X108388072Y-71195000D01*
X108385000Y-71030750D01*
X108226250Y-70872000D01*
X106877000Y-70872000D01*
X106877000Y-70892000D01*
X106623000Y-70892000D01*
X106623000Y-70872000D01*
X106603000Y-70872000D01*
X106603000Y-70618000D01*
X106623000Y-70618000D01*
X106623000Y-70598000D01*
X106877000Y-70598000D01*
X106877000Y-70618000D01*
X108226250Y-70618000D01*
X108385000Y-70459250D01*
X108388072Y-70295000D01*
X108375812Y-70170518D01*
X108339502Y-70050820D01*
X108280537Y-69940506D01*
X108201185Y-69843815D01*
X108104494Y-69764463D01*
X108096144Y-69760000D01*
X122403856Y-69760000D01*
X122395506Y-69764463D01*
X122298815Y-69843815D01*
X122219463Y-69940506D01*
X122160498Y-70050820D01*
X122124188Y-70170518D01*
X122111928Y-70295000D01*
X122115000Y-70459250D01*
X122273750Y-70618000D01*
X123623000Y-70618000D01*
X123623000Y-70598000D01*
X123877000Y-70598000D01*
X123877000Y-70618000D01*
X125226250Y-70618000D01*
X125385000Y-70459250D01*
X125388072Y-70295000D01*
X125375812Y-70170518D01*
X125339502Y-70050820D01*
X125280537Y-69940506D01*
X125201185Y-69843815D01*
X125104494Y-69764463D01*
X125096144Y-69760000D01*
X129217581Y-69760000D01*
X129250000Y-69763193D01*
X129282419Y-69760000D01*
X129379383Y-69750450D01*
X129503793Y-69712710D01*
X129618450Y-69651425D01*
X129718948Y-69568948D01*
X129801425Y-69468450D01*
X129862710Y-69353793D01*
X129900450Y-69229383D01*
X129913193Y-69100000D01*
X129910000Y-69067581D01*
X129910000Y-67769608D01*
X129976458Y-67703150D01*
X130252627Y-68121118D01*
X130797557Y-68411649D01*
X131388696Y-68590287D01*
X132003328Y-68650168D01*
X132617831Y-68588990D01*
X133208592Y-68409103D01*
X133747373Y-68121118D01*
X133840000Y-67980931D01*
X133840000Y-77015000D01*
X130410000Y-77015000D01*
X130410000Y-90585000D01*
X133840001Y-90585000D01*
X133840001Y-95019070D01*
X133747373Y-94878882D01*
X133202443Y-94588351D01*
X132611304Y-94409713D01*
X131996672Y-94349832D01*
X131382169Y-94411010D01*
X130791408Y-94590897D01*
X130252627Y-94878882D01*
X129976457Y-95296852D01*
X132000000Y-97320395D01*
X132014143Y-97306253D01*
X132193748Y-97485858D01*
X132179605Y-97500000D01*
X132193748Y-97514143D01*
X132014143Y-97693748D01*
X132000000Y-97679605D01*
X131985858Y-97693748D01*
X131806253Y-97514143D01*
X131820395Y-97500000D01*
X129796852Y-95476457D01*
X129378882Y-95752627D01*
X129088351Y-96297557D01*
X128909713Y-96888696D01*
X128849832Y-97503328D01*
X128911010Y-98117831D01*
X129090897Y-98708592D01*
X129378882Y-99247373D01*
X129519069Y-99340000D01*
X104471406Y-99340000D01*
X104708747Y-99255919D01*
X104846157Y-99182472D01*
X104923792Y-98933397D01*
X104075000Y-98084605D01*
X103226208Y-98933397D01*
X103303843Y-99182472D01*
X103567883Y-99308371D01*
X103692490Y-99340000D01*
X95821406Y-99340000D01*
X96058747Y-99255919D01*
X96196157Y-99182472D01*
X96273792Y-98933397D01*
X95558126Y-98217731D01*
X95590287Y-98111304D01*
X95609873Y-97910268D01*
X96453397Y-98753792D01*
X96702472Y-98676157D01*
X96828371Y-98412117D01*
X96900339Y-98128589D01*
X96908445Y-97973531D01*
X102584389Y-97973531D01*
X102626401Y-98263019D01*
X102724081Y-98538747D01*
X102797528Y-98676157D01*
X103046603Y-98753792D01*
X103895395Y-97905000D01*
X103046603Y-97056208D01*
X102797528Y-97133843D01*
X102671629Y-97397883D01*
X102599661Y-97681411D01*
X102584389Y-97973531D01*
X96908445Y-97973531D01*
X96915611Y-97836469D01*
X96873599Y-97546981D01*
X96775919Y-97271253D01*
X96702472Y-97133843D01*
X96453397Y-97056208D01*
X95611010Y-97898595D01*
X95649784Y-97500611D01*
X96273792Y-96876603D01*
X103226208Y-96876603D01*
X104075000Y-97725395D01*
X104089143Y-97711253D01*
X104268748Y-97890858D01*
X104254605Y-97905000D01*
X105103397Y-98753792D01*
X105352472Y-98676157D01*
X105478371Y-98412117D01*
X105550339Y-98128589D01*
X105565611Y-97836469D01*
X105536608Y-97636624D01*
X105914250Y-97635000D01*
X106073000Y-97476250D01*
X106073000Y-96127000D01*
X104723750Y-96127000D01*
X104565000Y-96285750D01*
X104564091Y-96497054D01*
X104298589Y-96429661D01*
X104006469Y-96414389D01*
X103716981Y-96456401D01*
X103441253Y-96554081D01*
X103303843Y-96627528D01*
X103226208Y-96876603D01*
X96273792Y-96876603D01*
X96196157Y-96627528D01*
X95932117Y-96501629D01*
X95648589Y-96429661D01*
X95448008Y-96419175D01*
X95409103Y-96291408D01*
X95121118Y-95752627D01*
X94703148Y-95476457D01*
X92679605Y-97500000D01*
X92693748Y-97514143D01*
X92514143Y-97693748D01*
X92500000Y-97679605D01*
X92485858Y-97693748D01*
X92306253Y-97514143D01*
X92320395Y-97500000D01*
X92306253Y-97485858D01*
X92485858Y-97306253D01*
X92500000Y-97320395D01*
X94523543Y-95296852D01*
X94247373Y-94878882D01*
X94212732Y-94860413D01*
X94469192Y-94860413D01*
X94564956Y-95124814D01*
X94854571Y-95265704D01*
X95166108Y-95347384D01*
X95487595Y-95366718D01*
X95806675Y-95322961D01*
X96111088Y-95217795D01*
X96285044Y-95124814D01*
X96380808Y-94860413D01*
X95425000Y-93904605D01*
X94469192Y-94860413D01*
X94212732Y-94860413D01*
X93702443Y-94588351D01*
X93111304Y-94409713D01*
X92496672Y-94349832D01*
X91882169Y-94411010D01*
X91291408Y-94590897D01*
X90752627Y-94878882D01*
X90660000Y-95019069D01*
X90660000Y-93787595D01*
X93783282Y-93787595D01*
X93827039Y-94106675D01*
X93932205Y-94411088D01*
X94025186Y-94585044D01*
X94289587Y-94680808D01*
X95245395Y-93725000D01*
X94289587Y-92769192D01*
X94025186Y-92864956D01*
X93884296Y-93154571D01*
X93802616Y-93466108D01*
X93783282Y-93787595D01*
X90660000Y-93787595D01*
X90660000Y-78813740D01*
X91015000Y-78813740D01*
X91015000Y-79106260D01*
X91072068Y-79393158D01*
X91184010Y-79663411D01*
X91346525Y-79906632D01*
X91553368Y-80113475D01*
X91727760Y-80230000D01*
X91553368Y-80346525D01*
X91346525Y-80553368D01*
X91184010Y-80796589D01*
X91072068Y-81066842D01*
X91015000Y-81353740D01*
X91015000Y-81646260D01*
X91072068Y-81933158D01*
X91184010Y-82203411D01*
X91346525Y-82446632D01*
X91553368Y-82653475D01*
X91727760Y-82770000D01*
X91553368Y-82886525D01*
X91346525Y-83093368D01*
X91184010Y-83336589D01*
X91072068Y-83606842D01*
X91015000Y-83893740D01*
X91015000Y-84186260D01*
X91072068Y-84473158D01*
X91184010Y-84743411D01*
X91346525Y-84986632D01*
X91553368Y-85193475D01*
X91727760Y-85310000D01*
X91553368Y-85426525D01*
X91346525Y-85633368D01*
X91184010Y-85876589D01*
X91072068Y-86146842D01*
X91015000Y-86433740D01*
X91015000Y-86726260D01*
X91072068Y-87013158D01*
X91184010Y-87283411D01*
X91346525Y-87526632D01*
X91553368Y-87733475D01*
X91727760Y-87850000D01*
X91553368Y-87966525D01*
X91346525Y-88173368D01*
X91184010Y-88416589D01*
X91072068Y-88686842D01*
X91015000Y-88973740D01*
X91015000Y-89266260D01*
X91072068Y-89553158D01*
X91184010Y-89823411D01*
X91346525Y-90066632D01*
X91553368Y-90273475D01*
X91796589Y-90435990D01*
X92066842Y-90547932D01*
X92353740Y-90605000D01*
X92646260Y-90605000D01*
X92933158Y-90547932D01*
X93203411Y-90435990D01*
X93446632Y-90273475D01*
X93653475Y-90066632D01*
X93815990Y-89823411D01*
X93927932Y-89553158D01*
X93985000Y-89266260D01*
X93985000Y-88973740D01*
X93927932Y-88686842D01*
X93815990Y-88416589D01*
X93653475Y-88173368D01*
X93446632Y-87966525D01*
X93272240Y-87850000D01*
X93446632Y-87733475D01*
X93653475Y-87526632D01*
X93815990Y-87283411D01*
X93927932Y-87013158D01*
X93985000Y-86726260D01*
X93985000Y-86433740D01*
X93927932Y-86146842D01*
X93815990Y-85876589D01*
X93653475Y-85633368D01*
X93446632Y-85426525D01*
X93272240Y-85310000D01*
X93446632Y-85193475D01*
X93653475Y-84986632D01*
X93815990Y-84743411D01*
X93927932Y-84473158D01*
X93985000Y-84186260D01*
X93985000Y-83893740D01*
X93927932Y-83606842D01*
X93815990Y-83336589D01*
X93653475Y-83093368D01*
X93446632Y-82886525D01*
X93272240Y-82770000D01*
X93446632Y-82653475D01*
X93653475Y-82446632D01*
X93815990Y-82203411D01*
X93927932Y-81933158D01*
X93985000Y-81646260D01*
X93985000Y-81353740D01*
X93927932Y-81066842D01*
X93815990Y-80796589D01*
X93653475Y-80553368D01*
X93446632Y-80346525D01*
X93272240Y-80230000D01*
X93446632Y-80113475D01*
X93653475Y-79906632D01*
X93815990Y-79663411D01*
X93927932Y-79393158D01*
X93985000Y-79106260D01*
X93985000Y-78813740D01*
X93927932Y-78526842D01*
X93815990Y-78256589D01*
X93653475Y-78013368D01*
X93446632Y-77806525D01*
X93273271Y-77690689D01*
X93348792Y-77448397D01*
X92500000Y-76599605D01*
X91651208Y-77448397D01*
X91726729Y-77690689D01*
X91553368Y-77806525D01*
X91346525Y-78013368D01*
X91184010Y-78256589D01*
X91072068Y-78526842D01*
X91015000Y-78813740D01*
X90660000Y-78813740D01*
X90660000Y-76488531D01*
X91009389Y-76488531D01*
X91051401Y-76778019D01*
X91149081Y-77053747D01*
X91222528Y-77191157D01*
X91471603Y-77268792D01*
X92320395Y-76420000D01*
X92679605Y-76420000D01*
X93528397Y-77268792D01*
X93777472Y-77191157D01*
X93903371Y-76927117D01*
X93975339Y-76643589D01*
X93990611Y-76351469D01*
X93948599Y-76061981D01*
X93850919Y-75786253D01*
X93777472Y-75648843D01*
X93528397Y-75571208D01*
X92679605Y-76420000D01*
X92320395Y-76420000D01*
X91471603Y-75571208D01*
X91222528Y-75648843D01*
X91096629Y-75912883D01*
X91024661Y-76196411D01*
X91009389Y-76488531D01*
X90660000Y-76488531D01*
X90660000Y-67980931D01*
X90752627Y-68121118D01*
X91297557Y-68411649D01*
X91888696Y-68590287D01*
X92503328Y-68650168D01*
X93117831Y-68588990D01*
X93708592Y-68409103D01*
X94247373Y-68121118D01*
X94523543Y-67703148D01*
X92500000Y-65679605D01*
X92485858Y-65693748D01*
X92306253Y-65514143D01*
X92320395Y-65500000D01*
X92306253Y-65485858D01*
X92485858Y-65306253D01*
X92500000Y-65320395D01*
X92514143Y-65306253D01*
X92693748Y-65485858D01*
X92679605Y-65500000D01*
X94703148Y-67523543D01*
X95121118Y-67247373D01*
X95411649Y-66702443D01*
X95590287Y-66111304D01*
X95650168Y-65496672D01*
X95588990Y-64882169D01*
X95409103Y-64291408D01*
X95121118Y-63752627D01*
X94980931Y-63660000D01*
X100590000Y-63660000D01*
X100590001Y-69067571D01*
G37*
%TD.AperFunction*%
D35*
X104268748Y-93710858D02*
X104254605Y-93725000D01*
X104268748Y-93739143D01*
X104215853Y-93792037D01*
X104144326Y-93748909D01*
X104026665Y-93706460D01*
X103928750Y-93690000D01*
X103897002Y-93721749D01*
X103897002Y-93695108D01*
X104060858Y-93531253D01*
X104075000Y-93545395D01*
X104089143Y-93531253D01*
X104268748Y-93710858D01*
%TA.AperFunction,Conductor*%
D36*
G36*
X104268748Y-93710858D02*
G01*
X104254605Y-93725000D01*
X104268748Y-93739143D01*
X104215853Y-93792037D01*
X104144326Y-93748909D01*
X104026665Y-93706460D01*
X103928750Y-93690000D01*
X103897002Y-93721749D01*
X103897002Y-93695108D01*
X104060858Y-93531253D01*
X104075000Y-93545395D01*
X104089143Y-93531253D01*
X104268748Y-93710858D01*
G37*
%TD.AperFunction*%
D35*
X95554784Y-88054852D02*
X95632805Y-88243210D01*
X95746073Y-88412728D01*
X95890236Y-88556891D01*
X96059754Y-88670159D01*
X96248112Y-88748180D01*
X96448071Y-88787954D01*
X96651949Y-88787954D01*
X96840000Y-88750549D01*
X96840000Y-88752002D01*
X96871748Y-88752002D01*
X96840000Y-88783750D01*
X96850471Y-88875000D01*
X96840000Y-88966250D01*
X96904252Y-89030502D01*
X96951891Y-89115367D01*
X96977943Y-89145807D01*
X96840000Y-89283750D01*
X96851891Y-89387371D01*
X96890663Y-89506294D01*
X96951891Y-89615367D01*
X97033223Y-89710400D01*
X97131531Y-89787740D01*
X97243038Y-89844415D01*
X97264387Y-89850413D01*
X97249188Y-89900518D01*
X97236928Y-90025000D01*
X97236928Y-90225000D01*
X97238405Y-90240000D01*
X96813702Y-90240000D01*
X96807886Y-90210762D01*
X96729865Y-90022404D01*
X96616597Y-89852886D01*
X96472434Y-89708723D01*
X96302916Y-89595455D01*
X96114558Y-89517434D01*
X95914599Y-89477660D01*
X95710721Y-89477660D01*
X95534990Y-89512615D01*
X95534990Y-87955340D01*
X95554784Y-88054852D01*
%TA.AperFunction,Conductor*%
D36*
G36*
X95554784Y-88054852D02*
G01*
X95632805Y-88243210D01*
X95746073Y-88412728D01*
X95890236Y-88556891D01*
X96059754Y-88670159D01*
X96248112Y-88748180D01*
X96448071Y-88787954D01*
X96651949Y-88787954D01*
X96840000Y-88750549D01*
X96840000Y-88752002D01*
X96871748Y-88752002D01*
X96840000Y-88783750D01*
X96850471Y-88875000D01*
X96840000Y-88966250D01*
X96904252Y-89030502D01*
X96951891Y-89115367D01*
X96977943Y-89145807D01*
X96840000Y-89283750D01*
X96851891Y-89387371D01*
X96890663Y-89506294D01*
X96951891Y-89615367D01*
X97033223Y-89710400D01*
X97131531Y-89787740D01*
X97243038Y-89844415D01*
X97264387Y-89850413D01*
X97249188Y-89900518D01*
X97236928Y-90025000D01*
X97236928Y-90225000D01*
X97238405Y-90240000D01*
X96813702Y-90240000D01*
X96807886Y-90210762D01*
X96729865Y-90022404D01*
X96616597Y-89852886D01*
X96472434Y-89708723D01*
X96302916Y-89595455D01*
X96114558Y-89517434D01*
X95914599Y-89477660D01*
X95710721Y-89477660D01*
X95534990Y-89512615D01*
X95534990Y-87955340D01*
X95554784Y-88054852D01*
G37*
%TD.AperFunction*%
D35*
X103715012Y-76900836D02*
X103715011Y-76900845D01*
X103715011Y-78437668D01*
X103715010Y-78437678D01*
X103715010Y-78437688D01*
X103711334Y-78475010D01*
X103715010Y-78512333D01*
X103715011Y-83024490D01*
X103711334Y-83061822D01*
X103726008Y-83210807D01*
X103769464Y-83354068D01*
X103840036Y-83486098D01*
X103891821Y-83549197D01*
X103935010Y-83601823D01*
X103964008Y-83625621D01*
X104190011Y-83851624D01*
X104190011Y-84363208D01*
X104157321Y-84359988D01*
X104157310Y-84359988D01*
X104119988Y-84356312D01*
X104082666Y-84359988D01*
X102431787Y-84359988D01*
X102377803Y-84306004D01*
X102354000Y-84277000D01*
X102238275Y-84182027D01*
X102106246Y-84111455D01*
X101962985Y-84067998D01*
X101851332Y-84057001D01*
X101851321Y-84057001D01*
X101813999Y-84053325D01*
X101776677Y-84057001D01*
X100610888Y-84057001D01*
X100573565Y-84053325D01*
X100536242Y-84057001D01*
X100536233Y-84057001D01*
X100424580Y-84067998D01*
X100281319Y-84111455D01*
X100149290Y-84182027D01*
X100033565Y-84277000D01*
X100009766Y-84305999D01*
X99656795Y-84658971D01*
X99469747Y-84471924D01*
X99433800Y-84385140D01*
X99320532Y-84215622D01*
X99176369Y-84071459D01*
X99006851Y-83958191D01*
X98818493Y-83880170D01*
X98618534Y-83840396D01*
X98414656Y-83840396D01*
X98214697Y-83880170D01*
X98026339Y-83958191D01*
X97856821Y-84071459D01*
X97712658Y-84215622D01*
X97599390Y-84385140D01*
X97521369Y-84573498D01*
X97481595Y-84773457D01*
X97481595Y-84794634D01*
X97417001Y-84800996D01*
X97273740Y-84844453D01*
X97141711Y-84915025D01*
X97025986Y-85009998D01*
X97002188Y-85038996D01*
X96410209Y-85630976D01*
X96348071Y-85630976D01*
X96148112Y-85670750D01*
X95959754Y-85748771D01*
X95790236Y-85862039D01*
X95646073Y-86006202D01*
X95534990Y-86172450D01*
X95534990Y-82488072D01*
X96250450Y-82488072D01*
X96423616Y-82471017D01*
X96590128Y-82420506D01*
X96743586Y-82338481D01*
X96878094Y-82228094D01*
X96880569Y-82225078D01*
X97012500Y-82238072D01*
X97487500Y-82238072D01*
X97658316Y-82221248D01*
X97822567Y-82171423D01*
X97973942Y-82090512D01*
X98106623Y-81981623D01*
X98215512Y-81848942D01*
X98296423Y-81697567D01*
X98346248Y-81533316D01*
X98363072Y-81362500D01*
X98363072Y-80960000D01*
X98511928Y-80960000D01*
X98511928Y-81650450D01*
X98528983Y-81823616D01*
X98579494Y-81990128D01*
X98661519Y-82143586D01*
X98771906Y-82278094D01*
X98906414Y-82388481D01*
X99059872Y-82470506D01*
X99226384Y-82521017D01*
X99399550Y-82538072D01*
X100050450Y-82538072D01*
X100223616Y-82521017D01*
X100390128Y-82470506D01*
X100543586Y-82388481D01*
X100678094Y-82278094D01*
X100698099Y-82253718D01*
X100701185Y-82251185D01*
X100750504Y-82191090D01*
X100821906Y-82278094D01*
X100956414Y-82388481D01*
X101109872Y-82470506D01*
X101276384Y-82521017D01*
X101449550Y-82538072D01*
X102100450Y-82538072D01*
X102273616Y-82521017D01*
X102440128Y-82470506D01*
X102593586Y-82388481D01*
X102728094Y-82278094D01*
X102838481Y-82143586D01*
X102920506Y-81990128D01*
X102971017Y-81823616D01*
X102988072Y-81650450D01*
X102988072Y-80749550D01*
X102971017Y-80576384D01*
X102920506Y-80409872D01*
X102838481Y-80256414D01*
X102808199Y-80219515D01*
X102828145Y-80203145D01*
X102938510Y-80068665D01*
X103020519Y-79915237D01*
X103071020Y-79748758D01*
X103088072Y-79575626D01*
X103088072Y-78324374D01*
X103071020Y-78151242D01*
X103020519Y-77984763D01*
X102938510Y-77831335D01*
X102935363Y-77827501D01*
X102938072Y-77800000D01*
X102938072Y-76710000D01*
X103715012Y-76710000D01*
X103715012Y-76900836D01*
%TA.AperFunction,Conductor*%
D36*
G36*
X103715012Y-76900836D02*
G01*
X103715011Y-76900845D01*
X103715011Y-78437668D01*
X103715010Y-78437678D01*
X103715010Y-78437688D01*
X103711334Y-78475010D01*
X103715010Y-78512333D01*
X103715011Y-83024490D01*
X103711334Y-83061822D01*
X103726008Y-83210807D01*
X103769464Y-83354068D01*
X103840036Y-83486098D01*
X103891821Y-83549197D01*
X103935010Y-83601823D01*
X103964008Y-83625621D01*
X104190011Y-83851624D01*
X104190011Y-84363208D01*
X104157321Y-84359988D01*
X104157310Y-84359988D01*
X104119988Y-84356312D01*
X104082666Y-84359988D01*
X102431787Y-84359988D01*
X102377803Y-84306004D01*
X102354000Y-84277000D01*
X102238275Y-84182027D01*
X102106246Y-84111455D01*
X101962985Y-84067998D01*
X101851332Y-84057001D01*
X101851321Y-84057001D01*
X101813999Y-84053325D01*
X101776677Y-84057001D01*
X100610888Y-84057001D01*
X100573565Y-84053325D01*
X100536242Y-84057001D01*
X100536233Y-84057001D01*
X100424580Y-84067998D01*
X100281319Y-84111455D01*
X100149290Y-84182027D01*
X100033565Y-84277000D01*
X100009766Y-84305999D01*
X99656795Y-84658971D01*
X99469747Y-84471924D01*
X99433800Y-84385140D01*
X99320532Y-84215622D01*
X99176369Y-84071459D01*
X99006851Y-83958191D01*
X98818493Y-83880170D01*
X98618534Y-83840396D01*
X98414656Y-83840396D01*
X98214697Y-83880170D01*
X98026339Y-83958191D01*
X97856821Y-84071459D01*
X97712658Y-84215622D01*
X97599390Y-84385140D01*
X97521369Y-84573498D01*
X97481595Y-84773457D01*
X97481595Y-84794634D01*
X97417001Y-84800996D01*
X97273740Y-84844453D01*
X97141711Y-84915025D01*
X97025986Y-85009998D01*
X97002188Y-85038996D01*
X96410209Y-85630976D01*
X96348071Y-85630976D01*
X96148112Y-85670750D01*
X95959754Y-85748771D01*
X95790236Y-85862039D01*
X95646073Y-86006202D01*
X95534990Y-86172450D01*
X95534990Y-82488072D01*
X96250450Y-82488072D01*
X96423616Y-82471017D01*
X96590128Y-82420506D01*
X96743586Y-82338481D01*
X96878094Y-82228094D01*
X96880569Y-82225078D01*
X97012500Y-82238072D01*
X97487500Y-82238072D01*
X97658316Y-82221248D01*
X97822567Y-82171423D01*
X97973942Y-82090512D01*
X98106623Y-81981623D01*
X98215512Y-81848942D01*
X98296423Y-81697567D01*
X98346248Y-81533316D01*
X98363072Y-81362500D01*
X98363072Y-80960000D01*
X98511928Y-80960000D01*
X98511928Y-81650450D01*
X98528983Y-81823616D01*
X98579494Y-81990128D01*
X98661519Y-82143586D01*
X98771906Y-82278094D01*
X98906414Y-82388481D01*
X99059872Y-82470506D01*
X99226384Y-82521017D01*
X99399550Y-82538072D01*
X100050450Y-82538072D01*
X100223616Y-82521017D01*
X100390128Y-82470506D01*
X100543586Y-82388481D01*
X100678094Y-82278094D01*
X100698099Y-82253718D01*
X100701185Y-82251185D01*
X100750504Y-82191090D01*
X100821906Y-82278094D01*
X100956414Y-82388481D01*
X101109872Y-82470506D01*
X101276384Y-82521017D01*
X101449550Y-82538072D01*
X102100450Y-82538072D01*
X102273616Y-82521017D01*
X102440128Y-82470506D01*
X102593586Y-82388481D01*
X102728094Y-82278094D01*
X102838481Y-82143586D01*
X102920506Y-81990128D01*
X102971017Y-81823616D01*
X102988072Y-81650450D01*
X102988072Y-80749550D01*
X102971017Y-80576384D01*
X102920506Y-80409872D01*
X102838481Y-80256414D01*
X102808199Y-80219515D01*
X102828145Y-80203145D01*
X102938510Y-80068665D01*
X103020519Y-79915237D01*
X103071020Y-79748758D01*
X103088072Y-79575626D01*
X103088072Y-78324374D01*
X103071020Y-78151242D01*
X103020519Y-77984763D01*
X102938510Y-77831335D01*
X102935363Y-77827501D01*
X102938072Y-77800000D01*
X102938072Y-76710000D01*
X103715012Y-76710000D01*
X103715012Y-76900836D01*
G37*
%TD.AperFunction*%
D35*
X132193748Y-65485858D02*
X132179605Y-65500000D01*
X132193748Y-65514143D01*
X132014143Y-65693748D01*
X132000000Y-65679605D01*
X131985858Y-65693748D01*
X131806253Y-65514143D01*
X131820395Y-65500000D01*
X131806253Y-65485858D01*
X131985858Y-65306253D01*
X132000000Y-65320395D01*
X132014143Y-65306253D01*
X132193748Y-65485858D01*
%TA.AperFunction,Conductor*%
D36*
G36*
X132193748Y-65485858D02*
G01*
X132179605Y-65500000D01*
X132193748Y-65514143D01*
X132014143Y-65693748D01*
X132000000Y-65679605D01*
X131985858Y-65693748D01*
X131806253Y-65514143D01*
X131820395Y-65500000D01*
X131806253Y-65485858D01*
X131985858Y-65306253D01*
X132000000Y-65320395D01*
X132014143Y-65306253D01*
X132193748Y-65485858D01*
G37*
%TD.AperFunction*%
%TD*%
M02*
