%TF.GenerationSoftware,KiCad,Pcbnew,(6.0.0-0)*%
%TF.CreationDate,2021-12-30T08:19:41+00:00*%
%TF.ProjectId,EnvMon,456e764d-6f6e-42e6-9b69-6361645f7063,4*%
%TF.SameCoordinates,Original*%
%TF.FileFunction,Paste,Top*%
%TF.FilePolarity,Positive*%
%FSLAX46Y46*%
G04 Gerber Fmt 4.6, Leading zero omitted, Abs format (unit mm)*
G04 Created by KiCad (PCBNEW (6.0.0-0)) date 2021-12-30 08:19:41*
%MOMM*%
%LPD*%
G01*
G04 APERTURE LIST*
G04 Aperture macros list*
%AMRoundRect*
0 Rectangle with rounded corners*
0 $1 Rounding radius*
0 $2 $3 $4 $5 $6 $7 $8 $9 X,Y pos of 4 corners*
0 Add a 4 corners polygon primitive as box body*
4,1,4,$2,$3,$4,$5,$6,$7,$8,$9,$2,$3,0*
0 Add four circle primitives for the rounded corners*
1,1,$1+$1,$2,$3*
1,1,$1+$1,$4,$5*
1,1,$1+$1,$6,$7*
1,1,$1+$1,$8,$9*
0 Add four rect primitives between the rounded corners*
20,1,$1+$1,$2,$3,$4,$5,0*
20,1,$1+$1,$4,$5,$6,$7,0*
20,1,$1+$1,$6,$7,$8,$9,0*
20,1,$1+$1,$8,$9,$2,$3,0*%
G04 Aperture macros list end*
%ADD10RoundRect,0.250000X-0.350000X-0.250000X0.350000X-0.250000X0.350000X0.250000X-0.350000X0.250000X0*%
%ADD11R,0.540000X0.990000*%
%ADD12R,1.282500X3.330000*%
%ADD13RoundRect,0.178125X-0.463125X-0.609375X0.463125X-0.609375X0.463125X0.609375X-0.463125X0.609375X0*%
%ADD14RoundRect,0.180000X0.247500X-0.225000X0.247500X0.225000X-0.247500X0.225000X-0.247500X-0.225000X0*%
%ADD15RoundRect,0.200000X-0.452500X0.250000X-0.452500X-0.250000X0.452500X-0.250000X0.452500X0.250000X0*%
%ADD16RoundRect,0.232500X-0.232500X-0.232500X0.232500X-0.232500X0.232500X0.232500X-0.232500X0.232500X0*%
%ADD17R,1.800000X0.810000*%
%ADD18R,0.810000X1.800000*%
%ADD19RoundRect,0.160000X0.200000X0.267500X-0.200000X0.267500X-0.200000X-0.267500X0.200000X-0.267500X0*%
%ADD20R,0.765000X0.450000*%
%ADD21RoundRect,0.186000X-0.189000X-0.189000X0.189000X-0.189000X0.189000X0.189000X-0.189000X0.189000X0*%
%ADD22RoundRect,0.027500X-0.287500X-0.085000X0.287500X-0.085000X0.287500X0.085000X-0.287500X0.085000X0*%
%ADD23RoundRect,0.050000X-0.062500X-0.265000X0.062500X-0.265000X0.062500X0.265000X-0.062500X0.265000X0*%
%ADD24RoundRect,0.188750X-0.238750X0.250000X-0.238750X-0.250000X0.238750X-0.250000X0.238750X0.250000X0*%
%ADD25R,0.420000X0.798000*%
%ADD26RoundRect,0.060000X-0.075000X-0.453000X0.075000X-0.453000X0.075000X0.453000X-0.075000X0.453000X0*%
G04 APERTURE END LIST*
D10*
%TO.C,U1*%
X102800000Y-79700000D03*
D11*
X98350000Y-77150000D03*
D10*
X102800000Y-78550000D03*
X102800000Y-77400000D03*
X99800000Y-78550000D03*
X99800000Y-77400000D03*
D12*
X99800000Y-78550000D03*
D10*
X99800000Y-79700000D03*
D11*
X98350000Y-79850000D03*
D13*
X98197500Y-81670000D03*
D14*
X95300000Y-79275000D03*
X95300000Y-77725000D03*
D11*
X96450000Y-79850000D03*
X97400000Y-79850000D03*
D15*
X96550000Y-81100000D03*
X96550000Y-83000000D03*
D11*
X97400000Y-77150000D03*
D13*
X101162500Y-81670000D03*
D15*
X102800000Y-83000000D03*
D11*
X96450000Y-77150000D03*
D15*
X102800000Y-81100000D03*
%TD*%
D16*
%TO.C,U3*%
X114815000Y-76515000D03*
X114815000Y-77665000D03*
X114815000Y-78815000D03*
X113665000Y-78815000D03*
X115965000Y-76515000D03*
X112515000Y-79965000D03*
X115965000Y-78815000D03*
X115965000Y-77665000D03*
X113665000Y-79965000D03*
X112515000Y-77665000D03*
X114815000Y-79965000D03*
X115965000Y-79965000D03*
X113665000Y-76515000D03*
X112515000Y-76515000D03*
X112515000Y-78815000D03*
X113665000Y-77665000D03*
D17*
X106750000Y-70745000D03*
X106750000Y-72015000D03*
X106750000Y-73285000D03*
X106750000Y-74555000D03*
X106750000Y-75825000D03*
X106750000Y-77095000D03*
X106750000Y-78365000D03*
X106750000Y-79635000D03*
X106750000Y-80905000D03*
X106750000Y-82175000D03*
X106750000Y-83445000D03*
X106750000Y-84715000D03*
X106750000Y-85985000D03*
X106750000Y-87255000D03*
D18*
X109535000Y-88255000D03*
X110805000Y-88255000D03*
X112075000Y-88255000D03*
X113345000Y-88255000D03*
X114615000Y-88255000D03*
X115885000Y-88255000D03*
X117155000Y-88255000D03*
X118425000Y-88255000D03*
X119695000Y-88255000D03*
X120965000Y-88255000D03*
D17*
X123750000Y-87255000D03*
X123750000Y-85985000D03*
X123750000Y-84715000D03*
X123750000Y-83445000D03*
X123750000Y-82175000D03*
X123750000Y-80905000D03*
X123750000Y-79635000D03*
X123750000Y-78365000D03*
X123750000Y-77095000D03*
X123750000Y-75825000D03*
X123750000Y-74555000D03*
X123750000Y-73285000D03*
X123750000Y-72015000D03*
X123750000Y-70745000D03*
%TD*%
D19*
%TO.C,R5*%
X100025000Y-67700000D03*
X98375000Y-67700000D03*
%TD*%
%TO.C,R4*%
X100025000Y-66500000D03*
X98375000Y-66500000D03*
%TD*%
%TO.C,R3*%
X100025000Y-68900000D03*
X98375000Y-68900000D03*
%TD*%
D20*
%TO.C,D2*%
X98325000Y-64200000D03*
X100075000Y-64200000D03*
X100075000Y-65200000D03*
X98325000Y-65200000D03*
%TD*%
D21*
%TO.C,U2*%
X100475000Y-88625000D03*
X99475000Y-88625000D03*
X99475000Y-87625000D03*
X100475000Y-87625000D03*
D22*
X98075000Y-87125000D03*
X98075000Y-87625000D03*
X98075000Y-88125000D03*
X98075000Y-88625000D03*
X98075000Y-89125000D03*
D23*
X98975000Y-90025000D03*
X99475000Y-90025000D03*
X99975000Y-90025000D03*
X100475000Y-90025000D03*
X100975000Y-90025000D03*
D22*
X101875000Y-89125000D03*
X101875000Y-88625000D03*
X101875000Y-88125000D03*
X101875000Y-87625000D03*
X101875000Y-87125000D03*
D23*
X100975000Y-86225000D03*
X100475000Y-86225000D03*
X99975000Y-86225000D03*
X99475000Y-86225000D03*
X98975000Y-86225000D03*
%TD*%
D24*
%TO.C,R2*%
X91800000Y-91587500D03*
X91800000Y-93412500D03*
%TD*%
%TO.C,R1*%
X93300000Y-91587500D03*
X93300000Y-93412500D03*
%TD*%
D25*
%TO.C,J1*%
X96550000Y-93135000D03*
X102950000Y-93135000D03*
D26*
X98000000Y-93135000D03*
X101500000Y-93135000D03*
X98500000Y-93135000D03*
X101000000Y-93135000D03*
X99000000Y-93135000D03*
X100500000Y-93135000D03*
X99500000Y-93135000D03*
X100000000Y-93135000D03*
D25*
X102150000Y-93135000D03*
X97350000Y-93135000D03*
D16*
X99165000Y-95560000D03*
X98015000Y-97860000D03*
X98015000Y-96710000D03*
X98015000Y-95560000D03*
X101465000Y-97860000D03*
X101465000Y-96710000D03*
X101465000Y-95560000D03*
X100315000Y-97860000D03*
X100315000Y-96710000D03*
X100315000Y-95560000D03*
X99165000Y-97860000D03*
X99165000Y-96710000D03*
%TD*%
M02*
