%TF.GenerationSoftware,KiCad,Pcbnew,(6.0.5-0)*%
%TF.CreationDate,2022-10-06T12:36:52+01:00*%
%TF.ProjectId,EnvMon2,456e764d-6f6e-4322-9e6b-696361645f70,4*%
%TF.SameCoordinates,Original*%
%TF.FileFunction,Legend,Top*%
%TF.FilePolarity,Positive*%
%FSLAX46Y46*%
G04 Gerber Fmt 4.6, Leading zero omitted, Abs format (unit mm)*
G04 Created by KiCad (PCBNEW (6.0.5-0)) date 2022-10-06 12:36:52*
%MOMM*%
%LPD*%
G01*
G04 APERTURE LIST*
%ADD10C,0.120000*%
%ADD11C,0.150000*%
%ADD12C,0.080000*%
%ADD13C,0.100000*%
%ADD14C,0.200000*%
G04 APERTURE END LIST*
D10*
X115500000Y-68500000D02*
X115500000Y-79750000D01*
X129000000Y-79750000D02*
X129000000Y-68500000D01*
X115500000Y-79750000D02*
X129000000Y-79750000D01*
D11*
X137923571Y-86247619D02*
X137923571Y-85914285D01*
X138447380Y-85771428D02*
X138447380Y-86247619D01*
X137447380Y-86247619D01*
X137447380Y-85771428D01*
X137780714Y-85342857D02*
X138447380Y-85342857D01*
X137875952Y-85342857D02*
X137828333Y-85295238D01*
X137780714Y-85200000D01*
X137780714Y-85057142D01*
X137828333Y-84961904D01*
X137923571Y-84914285D01*
X138447380Y-84914285D01*
X137780714Y-84533333D02*
X138447380Y-84295238D01*
X137780714Y-84057142D01*
X138447380Y-83676190D02*
X137780714Y-83676190D01*
X137447380Y-83676190D02*
X137495000Y-83723809D01*
X137542619Y-83676190D01*
X137495000Y-83628571D01*
X137447380Y-83676190D01*
X137542619Y-83676190D01*
X138447380Y-83200000D02*
X137780714Y-83200000D01*
X137971190Y-83200000D02*
X137875952Y-83152380D01*
X137828333Y-83104761D01*
X137780714Y-83009523D01*
X137780714Y-82914285D01*
X138447380Y-82438095D02*
X138399761Y-82533333D01*
X138352142Y-82580952D01*
X138256904Y-82628571D01*
X137971190Y-82628571D01*
X137875952Y-82580952D01*
X137828333Y-82533333D01*
X137780714Y-82438095D01*
X137780714Y-82295238D01*
X137828333Y-82200000D01*
X137875952Y-82152380D01*
X137971190Y-82104761D01*
X138256904Y-82104761D01*
X138352142Y-82152380D01*
X138399761Y-82200000D01*
X138447380Y-82295238D01*
X138447380Y-82438095D01*
X137780714Y-81676190D02*
X138447380Y-81676190D01*
X137875952Y-81676190D02*
X137828333Y-81628571D01*
X137780714Y-81533333D01*
X137780714Y-81390476D01*
X137828333Y-81295238D01*
X137923571Y-81247619D01*
X138447380Y-81247619D01*
X138447380Y-80771428D02*
X137780714Y-80771428D01*
X137875952Y-80771428D02*
X137828333Y-80723809D01*
X137780714Y-80628571D01*
X137780714Y-80485714D01*
X137828333Y-80390476D01*
X137923571Y-80342857D01*
X138447380Y-80342857D01*
X137923571Y-80342857D02*
X137828333Y-80295238D01*
X137780714Y-80200000D01*
X137780714Y-80057142D01*
X137828333Y-79961904D01*
X137923571Y-79914285D01*
X138447380Y-79914285D01*
X138399761Y-79057142D02*
X138447380Y-79152380D01*
X138447380Y-79342857D01*
X138399761Y-79438095D01*
X138304523Y-79485714D01*
X137923571Y-79485714D01*
X137828333Y-79438095D01*
X137780714Y-79342857D01*
X137780714Y-79152380D01*
X137828333Y-79057142D01*
X137923571Y-79009523D01*
X138018809Y-79009523D01*
X138114047Y-79485714D01*
X137780714Y-78580952D02*
X138447380Y-78580952D01*
X137875952Y-78580952D02*
X137828333Y-78533333D01*
X137780714Y-78438095D01*
X137780714Y-78295238D01*
X137828333Y-78200000D01*
X137923571Y-78152380D01*
X138447380Y-78152380D01*
X137780714Y-77819047D02*
X137780714Y-77438095D01*
X137447380Y-77676190D02*
X138304523Y-77676190D01*
X138399761Y-77628571D01*
X138447380Y-77533333D01*
X138447380Y-77438095D01*
X138447380Y-76676190D02*
X137923571Y-76676190D01*
X137828333Y-76723809D01*
X137780714Y-76819047D01*
X137780714Y-77009523D01*
X137828333Y-77104761D01*
X138399761Y-76676190D02*
X138447380Y-76771428D01*
X138447380Y-77009523D01*
X138399761Y-77104761D01*
X138304523Y-77152380D01*
X138209285Y-77152380D01*
X138114047Y-77104761D01*
X138066428Y-77009523D01*
X138066428Y-76771428D01*
X138018809Y-76676190D01*
X138447380Y-76057142D02*
X138399761Y-76152380D01*
X138304523Y-76200000D01*
X137447380Y-76200000D01*
X140057380Y-83723809D02*
X139057380Y-83723809D01*
X139771666Y-83390476D01*
X139057380Y-83057142D01*
X140057380Y-83057142D01*
X140057380Y-82438095D02*
X140009761Y-82533333D01*
X139962142Y-82580952D01*
X139866904Y-82628571D01*
X139581190Y-82628571D01*
X139485952Y-82580952D01*
X139438333Y-82533333D01*
X139390714Y-82438095D01*
X139390714Y-82295238D01*
X139438333Y-82200000D01*
X139485952Y-82152380D01*
X139581190Y-82104761D01*
X139866904Y-82104761D01*
X139962142Y-82152380D01*
X140009761Y-82200000D01*
X140057380Y-82295238D01*
X140057380Y-82438095D01*
X139390714Y-81676190D02*
X140057380Y-81676190D01*
X139485952Y-81676190D02*
X139438333Y-81628571D01*
X139390714Y-81533333D01*
X139390714Y-81390476D01*
X139438333Y-81295238D01*
X139533571Y-81247619D01*
X140057380Y-81247619D01*
X140057380Y-80771428D02*
X139390714Y-80771428D01*
X139057380Y-80771428D02*
X139105000Y-80819047D01*
X139152619Y-80771428D01*
X139105000Y-80723809D01*
X139057380Y-80771428D01*
X139152619Y-80771428D01*
X139390714Y-80438095D02*
X139390714Y-80057142D01*
X139057380Y-80295238D02*
X139914523Y-80295238D01*
X140009761Y-80247619D01*
X140057380Y-80152380D01*
X140057380Y-80057142D01*
X140057380Y-79580952D02*
X140009761Y-79676190D01*
X139962142Y-79723809D01*
X139866904Y-79771428D01*
X139581190Y-79771428D01*
X139485952Y-79723809D01*
X139438333Y-79676190D01*
X139390714Y-79580952D01*
X139390714Y-79438095D01*
X139438333Y-79342857D01*
X139485952Y-79295238D01*
X139581190Y-79247619D01*
X139866904Y-79247619D01*
X139962142Y-79295238D01*
X140009761Y-79342857D01*
X140057380Y-79438095D01*
X140057380Y-79580952D01*
X140057380Y-78819047D02*
X139390714Y-78819047D01*
X139581190Y-78819047D02*
X139485952Y-78771428D01*
X139438333Y-78723809D01*
X139390714Y-78628571D01*
X139390714Y-78533333D01*
X143147619Y-85857142D02*
X143100000Y-85809523D01*
X143052380Y-85714285D01*
X143052380Y-85476190D01*
X143100000Y-85380952D01*
X143147619Y-85333333D01*
X143242857Y-85285714D01*
X143338095Y-85285714D01*
X143480952Y-85333333D01*
X144052380Y-85904761D01*
X144052380Y-85285714D01*
X143052380Y-84666666D02*
X143052380Y-84571428D01*
X143100000Y-84476190D01*
X143147619Y-84428571D01*
X143242857Y-84380952D01*
X143433333Y-84333333D01*
X143671428Y-84333333D01*
X143861904Y-84380952D01*
X143957142Y-84428571D01*
X144004761Y-84476190D01*
X144052380Y-84571428D01*
X144052380Y-84666666D01*
X144004761Y-84761904D01*
X143957142Y-84809523D01*
X143861904Y-84857142D01*
X143671428Y-84904761D01*
X143433333Y-84904761D01*
X143242857Y-84857142D01*
X143147619Y-84809523D01*
X143100000Y-84761904D01*
X143052380Y-84666666D01*
X143147619Y-83952380D02*
X143100000Y-83904761D01*
X143052380Y-83809523D01*
X143052380Y-83571428D01*
X143100000Y-83476190D01*
X143147619Y-83428571D01*
X143242857Y-83380952D01*
X143338095Y-83380952D01*
X143480952Y-83428571D01*
X144052380Y-84000000D01*
X144052380Y-83380952D01*
X143147619Y-83000000D02*
X143100000Y-82952380D01*
X143052380Y-82857142D01*
X143052380Y-82619047D01*
X143100000Y-82523809D01*
X143147619Y-82476190D01*
X143242857Y-82428571D01*
X143338095Y-82428571D01*
X143480952Y-82476190D01*
X144052380Y-83047619D01*
X144052380Y-82428571D01*
X143671428Y-82000000D02*
X143671428Y-81238095D01*
X143052380Y-80571428D02*
X143052380Y-80476190D01*
X143100000Y-80380952D01*
X143147619Y-80333333D01*
X143242857Y-80285714D01*
X143433333Y-80238095D01*
X143671428Y-80238095D01*
X143861904Y-80285714D01*
X143957142Y-80333333D01*
X144004761Y-80380952D01*
X144052380Y-80476190D01*
X144052380Y-80571428D01*
X144004761Y-80666666D01*
X143957142Y-80714285D01*
X143861904Y-80761904D01*
X143671428Y-80809523D01*
X143433333Y-80809523D01*
X143242857Y-80761904D01*
X143147619Y-80714285D01*
X143100000Y-80666666D01*
X143052380Y-80571428D01*
X143052380Y-79380952D02*
X143052380Y-79571428D01*
X143100000Y-79666666D01*
X143147619Y-79714285D01*
X143290476Y-79809523D01*
X143480952Y-79857142D01*
X143861904Y-79857142D01*
X143957142Y-79809523D01*
X144004761Y-79761904D01*
X144052380Y-79666666D01*
X144052380Y-79476190D01*
X144004761Y-79380952D01*
X143957142Y-79333333D01*
X143861904Y-79285714D01*
X143623809Y-79285714D01*
X143528571Y-79333333D01*
X143480952Y-79380952D01*
X143433333Y-79476190D01*
X143433333Y-79666666D01*
X143480952Y-79761904D01*
X143528571Y-79809523D01*
X143623809Y-79857142D01*
X143671428Y-78857142D02*
X143671428Y-78095238D01*
X143052380Y-77428571D02*
X143052380Y-77333333D01*
X143100000Y-77238095D01*
X143147619Y-77190476D01*
X143242857Y-77142857D01*
X143433333Y-77095238D01*
X143671428Y-77095238D01*
X143861904Y-77142857D01*
X143957142Y-77190476D01*
X144004761Y-77238095D01*
X144052380Y-77333333D01*
X144052380Y-77428571D01*
X144004761Y-77523809D01*
X143957142Y-77571428D01*
X143861904Y-77619047D01*
X143671428Y-77666666D01*
X143433333Y-77666666D01*
X143242857Y-77619047D01*
X143147619Y-77571428D01*
X143100000Y-77523809D01*
X143052380Y-77428571D01*
X144052380Y-76619047D02*
X144052380Y-76428571D01*
X144004761Y-76333333D01*
X143957142Y-76285714D01*
X143814285Y-76190476D01*
X143623809Y-76142857D01*
X143242857Y-76142857D01*
X143147619Y-76190476D01*
X143100000Y-76238095D01*
X143052380Y-76333333D01*
X143052380Y-76523809D01*
X143100000Y-76619047D01*
X143147619Y-76666666D01*
X143242857Y-76714285D01*
X143480952Y-76714285D01*
X143576190Y-76666666D01*
X143623809Y-76619047D01*
X143671428Y-76523809D01*
X143671428Y-76333333D01*
X143623809Y-76238095D01*
X143576190Y-76190476D01*
X143480952Y-76142857D01*
D12*
%TO.C,J4*%
X140723223Y-79500448D02*
X140689551Y-79466776D01*
X140672715Y-79416269D01*
X140672715Y-79382597D01*
X140689551Y-79332089D01*
X140740059Y-79247910D01*
X140824238Y-79163730D01*
X140908417Y-79113223D01*
X140958925Y-79096387D01*
X140992597Y-79096387D01*
X141043104Y-79113223D01*
X141076776Y-79146895D01*
X141093612Y-79197402D01*
X141093612Y-79231074D01*
X141076776Y-79281582D01*
X141026269Y-79365761D01*
X140942089Y-79449940D01*
X140857910Y-79500448D01*
X140807402Y-79517284D01*
X140773730Y-79517284D01*
X140723223Y-79500448D01*
X140958925Y-87187791D02*
X141228299Y-86918417D01*
X141093612Y-86918417D02*
X141228299Y-86918417D01*
X141228299Y-87053104D01*
X140740059Y-86430177D02*
X140942089Y-86632208D01*
X140841074Y-86531192D02*
X140487521Y-86884746D01*
X140571700Y-86867910D01*
X140639043Y-86867910D01*
X140689551Y-86884746D01*
X141144120Y-82461345D02*
X140925253Y-82242478D01*
X141177791Y-82225643D01*
X141127284Y-82175135D01*
X141110448Y-82124627D01*
X141110448Y-82090956D01*
X141127284Y-82040448D01*
X141211463Y-81956269D01*
X141261971Y-81939433D01*
X141295643Y-81939433D01*
X141346150Y-81956269D01*
X141447165Y-82057284D01*
X141464001Y-82107791D01*
X141464001Y-82141463D01*
X140824238Y-82141463D02*
X141059940Y-81670059D01*
X140588536Y-81905761D01*
X140504356Y-81821582D02*
X140285490Y-81602715D01*
X140538028Y-81585879D01*
X140487521Y-81535372D01*
X140470685Y-81484864D01*
X140470685Y-81451192D01*
X140487521Y-81400685D01*
X140571700Y-81316505D01*
X140622208Y-81299669D01*
X140655879Y-81299669D01*
X140706387Y-81316505D01*
X140807402Y-81417521D01*
X140824238Y-81468028D01*
X140824238Y-81501700D01*
X141026269Y-76960448D02*
X140689551Y-76623730D01*
X141059940Y-76792089D02*
X140857910Y-76590059D01*
X140706387Y-76943612D02*
X140857910Y-76792089D01*
X141026269Y-76556387D02*
X141093612Y-76623730D01*
X141228299Y-84378417D02*
X140958925Y-84647791D01*
X141093612Y-84647791D02*
X140958925Y-84647791D01*
X140958925Y-84513104D01*
X140605372Y-84462597D02*
X140386505Y-84243730D01*
X140639043Y-84226895D01*
X140588536Y-84176387D01*
X140571700Y-84125879D01*
X140571700Y-84092208D01*
X140588536Y-84041700D01*
X140672715Y-83957521D01*
X140723223Y-83940685D01*
X140756895Y-83940685D01*
X140807402Y-83957521D01*
X140908417Y-84058536D01*
X140925253Y-84109043D01*
X140925253Y-84142715D01*
D13*
%TO.C,Logo2*%
X106762857Y-78235714D02*
X106886666Y-78669047D01*
X107010476Y-78359523D01*
X107134285Y-78669047D01*
X107258095Y-78235714D01*
X107443809Y-78235714D02*
X107567619Y-78669047D01*
X107691428Y-78359523D01*
X107815238Y-78669047D01*
X107939047Y-78235714D01*
X108124761Y-78235714D02*
X108248571Y-78669047D01*
X108372380Y-78359523D01*
X108496190Y-78669047D01*
X108620000Y-78235714D01*
X108867619Y-78607142D02*
X108898571Y-78638095D01*
X108867619Y-78669047D01*
X108836666Y-78638095D01*
X108867619Y-78607142D01*
X108867619Y-78669047D01*
X109177142Y-78669047D02*
X109177142Y-78235714D01*
X109177142Y-78297619D02*
X109208095Y-78266666D01*
X109270000Y-78235714D01*
X109362857Y-78235714D01*
X109424761Y-78266666D01*
X109455714Y-78328571D01*
X109455714Y-78669047D01*
X109455714Y-78328571D02*
X109486666Y-78266666D01*
X109548571Y-78235714D01*
X109641428Y-78235714D01*
X109703333Y-78266666D01*
X109734285Y-78328571D01*
X109734285Y-78669047D01*
X110291428Y-78638095D02*
X110229523Y-78669047D01*
X110105714Y-78669047D01*
X110043809Y-78638095D01*
X110012857Y-78576190D01*
X110012857Y-78328571D01*
X110043809Y-78266666D01*
X110105714Y-78235714D01*
X110229523Y-78235714D01*
X110291428Y-78266666D01*
X110322380Y-78328571D01*
X110322380Y-78390476D01*
X110012857Y-78452380D01*
X110600952Y-78607142D02*
X110631904Y-78638095D01*
X110600952Y-78669047D01*
X110570000Y-78638095D01*
X110600952Y-78607142D01*
X110600952Y-78669047D01*
X111189047Y-78235714D02*
X111189047Y-78669047D01*
X110910476Y-78235714D02*
X110910476Y-78576190D01*
X110941428Y-78638095D01*
X111003333Y-78669047D01*
X111096190Y-78669047D01*
X111158095Y-78638095D01*
X111189047Y-78607142D01*
X111498571Y-78669047D02*
X111498571Y-78019047D01*
X111560476Y-78421428D02*
X111746190Y-78669047D01*
X111746190Y-78235714D02*
X111498571Y-78483333D01*
%TO.C,U4*%
X118607142Y-70053964D02*
X118642857Y-70018250D01*
X118714285Y-69982535D01*
X118892857Y-69982535D01*
X118964285Y-70018250D01*
X119000000Y-70053964D01*
X119035714Y-70125392D01*
X119035714Y-70196821D01*
X119000000Y-70303964D01*
X118571428Y-70732535D01*
X119035714Y-70732535D01*
X119500000Y-69982535D02*
X119571428Y-69982535D01*
X119642857Y-70018250D01*
X119678571Y-70053964D01*
X119714285Y-70125392D01*
X119750000Y-70268250D01*
X119750000Y-70446821D01*
X119714285Y-70589678D01*
X119678571Y-70661107D01*
X119642857Y-70696821D01*
X119571428Y-70732535D01*
X119500000Y-70732535D01*
X119428571Y-70696821D01*
X119392857Y-70661107D01*
X119357142Y-70589678D01*
X119321428Y-70446821D01*
X119321428Y-70268250D01*
X119357142Y-70125392D01*
X119392857Y-70053964D01*
X119428571Y-70018250D01*
X119500000Y-69982535D01*
X120035714Y-70053964D02*
X120071428Y-70018250D01*
X120142857Y-69982535D01*
X120321428Y-69982535D01*
X120392857Y-70018250D01*
X120428571Y-70053964D01*
X120464285Y-70125392D01*
X120464285Y-70196821D01*
X120428571Y-70303964D01*
X120000000Y-70732535D01*
X120464285Y-70732535D01*
X120750000Y-70053964D02*
X120785714Y-70018250D01*
X120857142Y-69982535D01*
X121035714Y-69982535D01*
X121107142Y-70018250D01*
X121142857Y-70053964D01*
X121178571Y-70125392D01*
X121178571Y-70196821D01*
X121142857Y-70303964D01*
X120714285Y-70732535D01*
X121178571Y-70732535D01*
X121500000Y-70446821D02*
X122071428Y-70446821D01*
X122571428Y-69982535D02*
X122642857Y-69982535D01*
X122714285Y-70018250D01*
X122750000Y-70053964D01*
X122785714Y-70125392D01*
X122821428Y-70268250D01*
X122821428Y-70446821D01*
X122785714Y-70589678D01*
X122750000Y-70661107D01*
X122714285Y-70696821D01*
X122642857Y-70732535D01*
X122571428Y-70732535D01*
X122500000Y-70696821D01*
X122464285Y-70661107D01*
X122428571Y-70589678D01*
X122392857Y-70446821D01*
X122392857Y-70268250D01*
X122428571Y-70125392D01*
X122464285Y-70053964D01*
X122500000Y-70018250D01*
X122571428Y-69982535D01*
X123464285Y-69982535D02*
X123321428Y-69982535D01*
X123250000Y-70018250D01*
X123214285Y-70053964D01*
X123142857Y-70161107D01*
X123107142Y-70303964D01*
X123107142Y-70589678D01*
X123142857Y-70661107D01*
X123178571Y-70696821D01*
X123250000Y-70732535D01*
X123392857Y-70732535D01*
X123464285Y-70696821D01*
X123500000Y-70661107D01*
X123535714Y-70589678D01*
X123535714Y-70411107D01*
X123500000Y-70339678D01*
X123464285Y-70303964D01*
X123392857Y-70268250D01*
X123250000Y-70268250D01*
X123178571Y-70303964D01*
X123142857Y-70339678D01*
X123107142Y-70411107D01*
X123857142Y-70446821D02*
X124428571Y-70446821D01*
X124928571Y-69982535D02*
X125000000Y-69982535D01*
X125071428Y-70018250D01*
X125107142Y-70053964D01*
X125142857Y-70125392D01*
X125178571Y-70268250D01*
X125178571Y-70446821D01*
X125142857Y-70589678D01*
X125107142Y-70661107D01*
X125071428Y-70696821D01*
X125000000Y-70732535D01*
X124928571Y-70732535D01*
X124857142Y-70696821D01*
X124821428Y-70661107D01*
X124785714Y-70589678D01*
X124750000Y-70446821D01*
X124750000Y-70268250D01*
X124785714Y-70125392D01*
X124821428Y-70053964D01*
X124857142Y-70018250D01*
X124928571Y-69982535D01*
X125535714Y-70732535D02*
X125678571Y-70732535D01*
X125750000Y-70696821D01*
X125785714Y-70661107D01*
X125857142Y-70553964D01*
X125892857Y-70411107D01*
X125892857Y-70125392D01*
X125857142Y-70053964D01*
X125821428Y-70018250D01*
X125750000Y-69982535D01*
X125607142Y-69982535D01*
X125535714Y-70018250D01*
X125500000Y-70053964D01*
X125464285Y-70125392D01*
X125464285Y-70303964D01*
X125500000Y-70375392D01*
X125535714Y-70411107D01*
X125607142Y-70446821D01*
X125750000Y-70446821D01*
X125821428Y-70411107D01*
X125857142Y-70375392D01*
X125892857Y-70303964D01*
D10*
%TO.C,SW1*%
X94750000Y-64250000D02*
X90250000Y-64250000D01*
X96000000Y-68250000D02*
X96000000Y-66750000D01*
X90250000Y-70750000D02*
X94750000Y-70750000D01*
X89000000Y-66750000D02*
X89000000Y-68250000D01*
%TO.C,R1*%
X131125000Y-87250000D02*
X131725000Y-87250000D01*
X131125000Y-86250000D02*
X131725000Y-86250000D01*
%TO.C,SW3*%
X89050000Y-81750000D02*
X89050000Y-83250000D01*
X96050000Y-83250000D02*
X96050000Y-81750000D01*
X90300000Y-85750000D02*
X94800000Y-85750000D01*
X94800000Y-79250000D02*
X90300000Y-79250000D01*
%TO.C,U2*%
X97000000Y-98500000D02*
G75*
G03*
X97000000Y-98500000I-500000J0D01*
G01*
%TO.C,C2*%
X135450000Y-83350000D02*
X136050000Y-83350000D01*
X135450000Y-84750000D02*
X136050000Y-84750000D01*
%TO.C,U6*%
X106125000Y-63100000D02*
X109075000Y-63100000D01*
X106125000Y-63100000D02*
X106125000Y-64000000D01*
X109075000Y-63100000D02*
X109075000Y-64000000D01*
%TO.C,R2*%
X131125000Y-88500000D02*
X131725000Y-88500000D01*
X131125000Y-87500000D02*
X131725000Y-87500000D01*
%TO.C,R10*%
X127550000Y-89025000D02*
X127550000Y-88425000D01*
X126550000Y-89025000D02*
X126550000Y-88425000D01*
%TO.C,U1*%
X131525000Y-84750000D02*
X131525000Y-81650000D01*
%TO.C,R7*%
X137300000Y-68100000D02*
X136700000Y-68100000D01*
X137300000Y-69100000D02*
X136700000Y-69100000D01*
%TO.C,L1*%
X131500000Y-78600000D02*
X132900000Y-78600000D01*
X131500000Y-80000000D02*
X132900000Y-80000000D01*
%TO.C,R4*%
X124300000Y-92300000D02*
X124900000Y-92300000D01*
X124300000Y-91300000D02*
X124900000Y-91300000D01*
%TO.C,C1*%
X132150000Y-84800000D02*
X132750000Y-84800000D01*
X132150000Y-85800000D02*
X132750000Y-85800000D01*
%TO.C,C3*%
X135450000Y-77100000D02*
X136050000Y-77100000D01*
X135450000Y-78500000D02*
X136050000Y-78500000D01*
%TO.C,R6*%
X121100000Y-89500000D02*
X121100000Y-88900000D01*
X122100000Y-89500000D02*
X122100000Y-88900000D01*
%TO.C,R8*%
X137300000Y-66700000D02*
X136700000Y-66700000D01*
X137300000Y-65700000D02*
X136700000Y-65700000D01*
%TO.C,R5*%
X123300000Y-89500000D02*
X123300000Y-88900000D01*
X122300000Y-89500000D02*
X122300000Y-88900000D01*
%TO.C,D1*%
X134670000Y-81420000D02*
X136070000Y-81420000D01*
%TO.C,D3*%
X137000000Y-64600000D02*
X137000000Y-63800000D01*
X135900000Y-64600000D02*
X137000000Y-64600000D01*
X137341421Y-64100000D02*
G75*
G03*
X137341421Y-64100000I-141421J0D01*
G01*
%TO.C,R3*%
X120100000Y-91300000D02*
X119500000Y-91300000D01*
X120100000Y-92300000D02*
X119500000Y-92300000D01*
%TO.C,R11*%
X126350000Y-88425000D02*
X126350000Y-89025000D01*
X125350000Y-88425000D02*
X125350000Y-89025000D01*
%TO.C,R12*%
X113750000Y-72025000D02*
X113750000Y-72625000D01*
X114750000Y-72025000D02*
X114750000Y-72625000D01*
D14*
%TO.C,U4*%
X128750000Y-79493250D02*
X127850000Y-79493250D01*
X115750000Y-79493250D02*
X116650000Y-79493250D01*
X115750000Y-68893250D02*
X115750000Y-69393250D01*
X128750000Y-68893250D02*
X128750000Y-69393250D01*
X128750000Y-78593250D02*
X128750000Y-79493250D01*
X115750000Y-78593250D02*
X115750000Y-79493250D01*
D10*
%TO.C,SW2*%
X96000000Y-75750000D02*
X96000000Y-74250000D01*
X94750000Y-71750000D02*
X90250000Y-71750000D01*
X90250000Y-78250000D02*
X94750000Y-78250000D01*
X89000000Y-74250000D02*
X89000000Y-75750000D01*
%TO.C,C4*%
X128750000Y-88425000D02*
X128750000Y-89025000D01*
X127750000Y-88425000D02*
X127750000Y-89025000D01*
%TO.C,R13*%
X112200000Y-89100000D02*
X112800000Y-89100000D01*
X112200000Y-88100000D02*
X112800000Y-88100000D01*
%TO.C,R9*%
X137300000Y-66900000D02*
X136700000Y-66900000D01*
X137300000Y-67900000D02*
X136700000Y-67900000D01*
%TO.C,U3*%
X120665000Y-87360000D02*
X119940000Y-87360000D01*
X119940000Y-87360000D02*
X119940000Y-86635000D01*
X124160000Y-83140000D02*
X124160000Y-83865000D01*
X123435000Y-83140000D02*
X124160000Y-83140000D01*
X123435000Y-87360000D02*
X124160000Y-87360000D01*
X124160000Y-87360000D02*
X124160000Y-86635000D01*
X120532843Y-83450000D02*
G75*
G03*
X120532843Y-83450000I-282843J0D01*
G01*
%TO.C,D2*%
X136750000Y-86750000D02*
X135250000Y-86750000D01*
%TD*%
M02*
