M48
; DRILL file {KiCad (5.1.9-0-10_14)} date Wednesday, March 24, 2021 at 05:05:35 PM
; FORMAT={-:-/ absolute / inch / decimal}
; #@! TF.CreationDate,2021-03-24T17:05:35+00:00
; #@! TF.GenerationSoftware,Kicad,Pcbnew,(5.1.9-0-10_14)
; #@! TF.FileFunction,Plated,1,2,PTH
FMAT,2
INCH
T1C0.0157
T2C0.0236
T3C0.0335
T4C0.0394
T5C0.0472
T6C0.0591
T7C0.1220
%
G90
G05
T1
X3.7874Y-3.5079
X3.7946Y-3.46
X3.7992Y-3.5984
X3.8254Y-3.5502
X3.8584Y-3.6014
X3.8701Y-3.3622
X3.9102Y-3.6051
X3.9719Y-3.62
X4.0551Y-3.5787
X4.0809Y-3.3838
X4.0836Y-3.4231
X4.0848Y-3.6046
X4.0851Y-3.4624
X4.0876Y-3.345
X4.1199Y-3.5867
X4.1339Y-2.8504
X4.1467Y-3.558
X4.1947Y-3.6049
X4.2313Y-3.5799
X4.293Y-3.3241
X4.3214Y-2.904
X4.3504Y-3.5728
X4.6243Y-3.111
X4.6852Y-3.2095
X4.7249Y-3.1367
X4.7362Y-3.0512
X4.7426Y-3.1911
X4.7496Y-3.5274
X4.75Y-2.9754
X4.7772Y-2.9321
X4.8392Y-3.4646
T2
X3.8134Y-3.7089
X4.0409Y-3.7089
T3
X4.2933Y-3.6673
X4.3917Y-3.6673
X4.4902Y-3.6673
X4.5886Y-3.6673
X4.687Y-3.6673
X4.7854Y-3.6673
X4.8839Y-3.6673
X4.9823Y-3.6673
T4
X3.6417Y-2.9087
X3.6417Y-3.0087
X3.6417Y-3.1087
X3.6417Y-3.2087
X3.6417Y-3.3087
X3.6417Y-3.4087
X3.6417Y-3.5087
X3.8031Y-2.7874
X3.8398Y-3.2846
X3.9031Y-2.7874
X3.9398Y-3.2846
X4.0031Y-2.7874
X4.0398Y-3.2846
X4.1031Y-2.7874
X4.1811Y-3.7795
X4.2811Y-3.7795
T5
X3.7569Y-3.8545
X4.0974Y-3.8545
T6
X3.7569Y-3.69
X4.0974Y-3.69
T7
X3.6417Y-2.5787
X3.6417Y-3.8386
X5.1969Y-2.5787
X5.1969Y-3.8386
T0
M30
