M48
; DRILL file {KiCad (6.0.2-0)} date Tuesday, 08 March 2022 at 08:06:17
; FORMAT={-:-/ absolute / inch / decimal}
; #@! TF.CreationDate,2022-03-08T08:06:17+00:00
; #@! TF.GenerationSoftware,Kicad,Pcbnew,(6.0.2-0)
; #@! TF.FileFunction,Plated,1,2,PTH
FMAT,2
INCH
; #@! TA.AperFunction,Plated,PTH,ViaDrill
T1C0.0157
; #@! TA.AperFunction,Plated,PTH,ComponentDrill
T2C0.0236
; #@! TA.AperFunction,Plated,PTH,ComponentDrill
T3C0.0335
; #@! TA.AperFunction,Plated,PTH,ComponentDrill
T4C0.0394
; #@! TA.AperFunction,Plated,PTH,ComponentDrill
T5C0.0492
%
G90
G05
T1
X3.9921Y-2.1024
X4.1535Y-2.2638
X4.2913Y-2.126
X4.3307Y-2.0945
X4.6752Y-3.2972
X4.7165Y-3.5748
X4.7244Y-3.2598
X4.7539Y-3.1988
X4.8031Y-3.1988
X4.8524Y-2.7657
X4.8524Y-3.1988
X4.8819Y-3.4173
X4.9055Y-3.5748
X5.0984Y-3.4154
X5.1969Y-2.9429
X5.2264Y-2.5509
X5.2264Y-2.6083
X5.2264Y-2.6673
X5.2264Y-2.7264
X5.3248Y-3.1693
T2
X4.6992Y-3.7091
X4.9268Y-3.7091
T3
X4.2421Y-3.6772
X4.3406Y-3.6772
X4.439Y-3.6772
X5.2815Y-3.6772
X5.3799Y-3.6772
T4
X4.0354Y-2.9087
X4.0354Y-3.0087
X4.0354Y-3.1087
X4.0354Y-3.2087
X4.0354Y-3.3087
X4.0354Y-3.4087
X4.0354Y-3.5087
X4.6429Y-3.8539
X4.9831Y-3.8539
T5
X4.6429Y-3.6898
X4.9831Y-3.6898
T0
M30
