%TF.GenerationSoftware,KiCad,Pcbnew,(6.0.1-0)*%
%TF.CreationDate,2022-01-25T11:14:44+00:00*%
%TF.ProjectId,EnvMon,456e764d-6f6e-42e6-9b69-6361645f7063,4*%
%TF.SameCoordinates,Original*%
%TF.FileFunction,Legend,Bot*%
%TF.FilePolarity,Positive*%
%FSLAX46Y46*%
G04 Gerber Fmt 4.6, Leading zero omitted, Abs format (unit mm)*
G04 Created by KiCad (PCBNEW (6.0.1-0)) date 2022-01-25 11:14:44*
%MOMM*%
%LPD*%
G01*
G04 APERTURE LIST*
%ADD10C,0.120000*%
G04 APERTURE END LIST*
D10*
%TO.C,J2*%
X106025000Y-94670000D02*
X104695000Y-94670000D01*
X109895000Y-94670000D02*
X109895000Y-97330000D01*
X107295000Y-94670000D02*
X109895000Y-94670000D01*
X107295000Y-94670000D02*
X107295000Y-97330000D01*
X104695000Y-94670000D02*
X104695000Y-96000000D01*
X107295000Y-97330000D02*
X109895000Y-97330000D01*
%TO.C,M1*%
X95200000Y-91400000D02*
X130200000Y-91400000D01*
X130200000Y-92400000D02*
X130200000Y-69400000D01*
X109200000Y-91400000D02*
X127200000Y-73400000D01*
X95200000Y-81400000D02*
X103200000Y-73400000D01*
X95200000Y-77400000D02*
X99200000Y-73400000D01*
X95200000Y-89400000D02*
X111200000Y-73400000D01*
X95200000Y-69400000D02*
X95200000Y-92400000D01*
X101200000Y-91400000D02*
X119200000Y-73400000D01*
X113200000Y-91400000D02*
X130200000Y-74400000D01*
X95200000Y-92400000D02*
X130200000Y-92400000D01*
X97200000Y-91400000D02*
X115200000Y-73400000D01*
X117200000Y-91400000D02*
X130200000Y-78400000D01*
X121200000Y-91400000D02*
X130200000Y-82400000D01*
X105200000Y-91400000D02*
X123200000Y-73400000D01*
X125200000Y-91400000D02*
X130200000Y-86400000D01*
X95200000Y-85400000D02*
X107200000Y-73400000D01*
X95200000Y-73400000D02*
X130200000Y-73400000D01*
X129200000Y-91400000D02*
X130200000Y-90400000D01*
X130200000Y-69400000D02*
X95200000Y-69400000D01*
%TO.C,R8*%
X110640000Y-96222936D02*
X110640000Y-97677064D01*
X112460000Y-96222936D02*
X112460000Y-97677064D01*
%TO.C,R9*%
X113140000Y-96222936D02*
X113140000Y-97677064D01*
X114960000Y-96222936D02*
X114960000Y-97677064D01*
%TO.C,R10*%
X115640000Y-96222936D02*
X115640000Y-97677064D01*
X117460000Y-96222936D02*
X117460000Y-97677064D01*
%TO.C,R11*%
X118140000Y-96222936D02*
X118140000Y-97677064D01*
X119960000Y-96222936D02*
X119960000Y-97677064D01*
%TO.C,R12*%
X120640000Y-96222936D02*
X120640000Y-97677064D01*
X122460000Y-96222936D02*
X122460000Y-97677064D01*
%TO.C,R13*%
X123140000Y-96222936D02*
X123140000Y-97677064D01*
X124960000Y-96222936D02*
X124960000Y-97677064D01*
%TO.C,R14*%
X125640000Y-96222936D02*
X125640000Y-97677064D01*
X127460000Y-96222936D02*
X127460000Y-97677064D01*
%TD*%
M02*
