M48
; DRILL file {KiCad (6.0.2-0)} date Wednesday, 23 February 2022 at 18:41:51
; FORMAT={-:-/ absolute / inch / decimal}
; #@! TF.CreationDate,2022-02-23T18:41:51+00:00
; #@! TF.GenerationSoftware,Kicad,Pcbnew,(6.0.2-0)
; #@! TF.FileFunction,Plated,1,2,PTH
FMAT,2
INCH
; #@! TA.AperFunction,Plated,PTH,ViaDrill
T1C0.0157
; #@! TA.AperFunction,Plated,PTH,ComponentDrill
T2C0.0236
; #@! TA.AperFunction,Plated,PTH,ComponentDrill
T3C0.0295
; #@! TA.AperFunction,Plated,PTH,ComponentDrill
T4C0.0335
; #@! TA.AperFunction,Plated,PTH,ComponentDrill
T5C0.0394
; #@! TA.AperFunction,Plated,PTH,ComponentDrill
T6C0.0492
; #@! TA.AperFunction,Plated,PTH,ComponentDrill
T7C0.1220
%
G90
G05
T1
X4.7933Y-3.4449
X4.9016Y-3.3858
X4.9606Y-3.2913
X4.9879Y-4.1613
X5.128Y-3.4154
X5.128Y-3.878
X5.1575Y-3.8189
X5.2067Y-3.7795
X5.2264Y-3.9862
X5.2267Y-3.4659
X5.2461Y-3.622
X5.2461Y-3.7205
X5.2463Y-3.2185
X5.2559Y-3.1496
X5.2657Y-4.1241
X5.2859Y-3.721
X5.3245Y-3.0811
X5.3543Y-3.435
X5.4035Y-3.7894
X5.4134Y-3.563
X5.4331Y-3.878
X5.4626Y-4.1241
X5.4724Y-3.0807
X5.4921Y-3.563
X5.5217Y-3.5925
X5.5217Y-4.0256
X5.689Y-4.0551
X5.8268Y-3.7894
T2
X5.2504Y-4.2504
X5.478Y-4.2504
T3
X4.6547Y-4.3559
X4.7047Y-4.3559
X4.7547Y-4.3559
T4
X4.6457Y-3.5236
X4.7441Y-3.5236
X4.8425Y-3.5236
X5.6496Y-4.2185
X5.748Y-4.2185
T5
X5.0591Y-3.4402
X5.0591Y-3.5402
X5.0591Y-3.6402
X5.0591Y-3.7402
X5.0591Y-3.8402
X5.0591Y-3.9402
X5.0591Y-4.0402
X5.1941Y-4.3953
X5.5343Y-4.3953
T6
X5.1941Y-4.2311
X5.5343Y-4.2311
T7
X5.0591Y-3.1102
X5.0591Y-4.3701
X6.6142Y-3.1102
X6.6142Y-4.3701
T0
M30
