M48
; DRILL file {KiCad (5.1.9-0-10_14)} date Monday, March 29, 2021 at 10:08:42 AM
; FORMAT={-:-/ absolute / inch / decimal}
; #@! TF.CreationDate,2021-03-29T10:08:42+01:00
; #@! TF.GenerationSoftware,Kicad,Pcbnew,(5.1.9-0-10_14)
; #@! TF.FileFunction,Plated,1,2,PTH
FMAT,2
INCH
T1C0.0157
T2C0.0236
T3C0.0300
T4C0.0335
T5C0.0394
T6C0.0472
T7C0.0591
T8C0.1220
%
G90
G05
T1
X3.7717Y-3.6039
X3.7722Y-3.5635
X3.7913Y-3.4173
X3.7917Y-3.4568
X3.8701Y-3.3465
X3.8809Y-3.6037
X3.9211Y-3.6022
X3.9608Y-3.603
X4.0669Y-3.5748
X4.0747Y-3.344
X4.0795Y-3.3852
X4.0817Y-3.4245
X4.0936Y-3.6093
X4.0975Y-3.4971
X4.1024Y-3.458
X4.1238Y-3.584
X4.1339Y-2.8504
X4.1524Y-3.5555
X4.1986Y-3.6009
X4.2318Y-3.5796
X4.2657Y-3.3474
X4.3214Y-2.904
X4.3504Y-3.5728
X4.6243Y-3.111
X4.6852Y-3.2095
X4.7249Y-3.1367
X4.7362Y-3.0512
X4.7426Y-3.1911
X4.75Y-2.9754
X4.7541Y-3.5362
X4.7772Y-2.9321
X4.8392Y-3.4646
T2
X3.8134Y-3.7089
X4.0409Y-3.7089
T3
X3.9262Y-3.4724
T4
X4.2933Y-3.6673
X4.3917Y-3.6673
X4.4902Y-3.6673
X4.5886Y-3.6673
X4.687Y-3.6673
X4.7854Y-3.6673
X4.8839Y-3.6673
X4.9823Y-3.6673
T5
X3.6417Y-2.9087
X3.6417Y-3.0087
X3.6417Y-3.1087
X3.6417Y-3.2087
X3.6417Y-3.3087
X3.6417Y-3.4087
X3.6417Y-3.5087
X3.8031Y-2.7874
X3.9031Y-2.7874
X3.9398Y-3.2846
X4.0031Y-2.7874
X4.1031Y-2.7874
X4.1811Y-3.7795
X4.2811Y-3.7795
T6
X3.7569Y-3.8545
X4.0974Y-3.8545
T7
X3.7569Y-3.69
X4.0974Y-3.69
T8
X3.6417Y-2.5787
X3.6417Y-3.8386
X5.1969Y-2.5787
X5.1969Y-3.8386
T0
M30
