%TF.GenerationSoftware,KiCad,Pcbnew,(6.0.5-0)*%
%TF.CreationDate,2022-05-21T15:01:21+01:00*%
%TF.ProjectId,EnvMon2,456e764d-6f6e-4322-9e6b-696361645f70,4*%
%TF.SameCoordinates,Original*%
%TF.FileFunction,Legend,Top*%
%TF.FilePolarity,Positive*%
%FSLAX46Y46*%
G04 Gerber Fmt 4.6, Leading zero omitted, Abs format (unit mm)*
G04 Created by KiCad (PCBNEW (6.0.5-0)) date 2022-05-21 15:01:21*
%MOMM*%
%LPD*%
G01*
G04 APERTURE LIST*
%ADD10C,0.150000*%
%ADD11C,0.100000*%
%ADD12C,0.120000*%
%ADD13C,0.200000*%
G04 APERTURE END LIST*
D10*
X140123571Y-85797619D02*
X140123571Y-85464285D01*
X140647380Y-85321428D02*
X140647380Y-85797619D01*
X139647380Y-85797619D01*
X139647380Y-85321428D01*
X139980714Y-84892857D02*
X140647380Y-84892857D01*
X140075952Y-84892857D02*
X140028333Y-84845238D01*
X139980714Y-84750000D01*
X139980714Y-84607142D01*
X140028333Y-84511904D01*
X140123571Y-84464285D01*
X140647380Y-84464285D01*
X139980714Y-84083333D02*
X140647380Y-83845238D01*
X139980714Y-83607142D01*
X140647380Y-83226190D02*
X139980714Y-83226190D01*
X139647380Y-83226190D02*
X139695000Y-83273809D01*
X139742619Y-83226190D01*
X139695000Y-83178571D01*
X139647380Y-83226190D01*
X139742619Y-83226190D01*
X140647380Y-82750000D02*
X139980714Y-82750000D01*
X140171190Y-82750000D02*
X140075952Y-82702380D01*
X140028333Y-82654761D01*
X139980714Y-82559523D01*
X139980714Y-82464285D01*
X140647380Y-81988095D02*
X140599761Y-82083333D01*
X140552142Y-82130952D01*
X140456904Y-82178571D01*
X140171190Y-82178571D01*
X140075952Y-82130952D01*
X140028333Y-82083333D01*
X139980714Y-81988095D01*
X139980714Y-81845238D01*
X140028333Y-81750000D01*
X140075952Y-81702380D01*
X140171190Y-81654761D01*
X140456904Y-81654761D01*
X140552142Y-81702380D01*
X140599761Y-81750000D01*
X140647380Y-81845238D01*
X140647380Y-81988095D01*
X139980714Y-81226190D02*
X140647380Y-81226190D01*
X140075952Y-81226190D02*
X140028333Y-81178571D01*
X139980714Y-81083333D01*
X139980714Y-80940476D01*
X140028333Y-80845238D01*
X140123571Y-80797619D01*
X140647380Y-80797619D01*
X140647380Y-80321428D02*
X139980714Y-80321428D01*
X140075952Y-80321428D02*
X140028333Y-80273809D01*
X139980714Y-80178571D01*
X139980714Y-80035714D01*
X140028333Y-79940476D01*
X140123571Y-79892857D01*
X140647380Y-79892857D01*
X140123571Y-79892857D02*
X140028333Y-79845238D01*
X139980714Y-79750000D01*
X139980714Y-79607142D01*
X140028333Y-79511904D01*
X140123571Y-79464285D01*
X140647380Y-79464285D01*
X140599761Y-78607142D02*
X140647380Y-78702380D01*
X140647380Y-78892857D01*
X140599761Y-78988095D01*
X140504523Y-79035714D01*
X140123571Y-79035714D01*
X140028333Y-78988095D01*
X139980714Y-78892857D01*
X139980714Y-78702380D01*
X140028333Y-78607142D01*
X140123571Y-78559523D01*
X140218809Y-78559523D01*
X140314047Y-79035714D01*
X139980714Y-78130952D02*
X140647380Y-78130952D01*
X140075952Y-78130952D02*
X140028333Y-78083333D01*
X139980714Y-77988095D01*
X139980714Y-77845238D01*
X140028333Y-77750000D01*
X140123571Y-77702380D01*
X140647380Y-77702380D01*
X139980714Y-77369047D02*
X139980714Y-76988095D01*
X139647380Y-77226190D02*
X140504523Y-77226190D01*
X140599761Y-77178571D01*
X140647380Y-77083333D01*
X140647380Y-76988095D01*
X140647380Y-76226190D02*
X140123571Y-76226190D01*
X140028333Y-76273809D01*
X139980714Y-76369047D01*
X139980714Y-76559523D01*
X140028333Y-76654761D01*
X140599761Y-76226190D02*
X140647380Y-76321428D01*
X140647380Y-76559523D01*
X140599761Y-76654761D01*
X140504523Y-76702380D01*
X140409285Y-76702380D01*
X140314047Y-76654761D01*
X140266428Y-76559523D01*
X140266428Y-76321428D01*
X140218809Y-76226190D01*
X140647380Y-75607142D02*
X140599761Y-75702380D01*
X140504523Y-75750000D01*
X139647380Y-75750000D01*
X142257380Y-83273809D02*
X141257380Y-83273809D01*
X141971666Y-82940476D01*
X141257380Y-82607142D01*
X142257380Y-82607142D01*
X142257380Y-81988095D02*
X142209761Y-82083333D01*
X142162142Y-82130952D01*
X142066904Y-82178571D01*
X141781190Y-82178571D01*
X141685952Y-82130952D01*
X141638333Y-82083333D01*
X141590714Y-81988095D01*
X141590714Y-81845238D01*
X141638333Y-81750000D01*
X141685952Y-81702380D01*
X141781190Y-81654761D01*
X142066904Y-81654761D01*
X142162142Y-81702380D01*
X142209761Y-81750000D01*
X142257380Y-81845238D01*
X142257380Y-81988095D01*
X141590714Y-81226190D02*
X142257380Y-81226190D01*
X141685952Y-81226190D02*
X141638333Y-81178571D01*
X141590714Y-81083333D01*
X141590714Y-80940476D01*
X141638333Y-80845238D01*
X141733571Y-80797619D01*
X142257380Y-80797619D01*
X142257380Y-80321428D02*
X141590714Y-80321428D01*
X141257380Y-80321428D02*
X141305000Y-80369047D01*
X141352619Y-80321428D01*
X141305000Y-80273809D01*
X141257380Y-80321428D01*
X141352619Y-80321428D01*
X141590714Y-79988095D02*
X141590714Y-79607142D01*
X141257380Y-79845238D02*
X142114523Y-79845238D01*
X142209761Y-79797619D01*
X142257380Y-79702380D01*
X142257380Y-79607142D01*
X142257380Y-79130952D02*
X142209761Y-79226190D01*
X142162142Y-79273809D01*
X142066904Y-79321428D01*
X141781190Y-79321428D01*
X141685952Y-79273809D01*
X141638333Y-79226190D01*
X141590714Y-79130952D01*
X141590714Y-78988095D01*
X141638333Y-78892857D01*
X141685952Y-78845238D01*
X141781190Y-78797619D01*
X142066904Y-78797619D01*
X142162142Y-78845238D01*
X142209761Y-78892857D01*
X142257380Y-78988095D01*
X142257380Y-79130952D01*
X142257380Y-78369047D02*
X141590714Y-78369047D01*
X141781190Y-78369047D02*
X141685952Y-78321428D01*
X141638333Y-78273809D01*
X141590714Y-78178571D01*
X141590714Y-78083333D01*
X132142857Y-72297619D02*
X132190476Y-72250000D01*
X132285714Y-72202380D01*
X132523809Y-72202380D01*
X132619047Y-72250000D01*
X132666666Y-72297619D01*
X132714285Y-72392857D01*
X132714285Y-72488095D01*
X132666666Y-72630952D01*
X132095238Y-73202380D01*
X132714285Y-73202380D01*
X133333333Y-72202380D02*
X133428571Y-72202380D01*
X133523809Y-72250000D01*
X133571428Y-72297619D01*
X133619047Y-72392857D01*
X133666666Y-72583333D01*
X133666666Y-72821428D01*
X133619047Y-73011904D01*
X133571428Y-73107142D01*
X133523809Y-73154761D01*
X133428571Y-73202380D01*
X133333333Y-73202380D01*
X133238095Y-73154761D01*
X133190476Y-73107142D01*
X133142857Y-73011904D01*
X133095238Y-72821428D01*
X133095238Y-72583333D01*
X133142857Y-72392857D01*
X133190476Y-72297619D01*
X133238095Y-72250000D01*
X133333333Y-72202380D01*
X134047619Y-72297619D02*
X134095238Y-72250000D01*
X134190476Y-72202380D01*
X134428571Y-72202380D01*
X134523809Y-72250000D01*
X134571428Y-72297619D01*
X134619047Y-72392857D01*
X134619047Y-72488095D01*
X134571428Y-72630952D01*
X134000000Y-73202380D01*
X134619047Y-73202380D01*
X135000000Y-72297619D02*
X135047619Y-72250000D01*
X135142857Y-72202380D01*
X135380952Y-72202380D01*
X135476190Y-72250000D01*
X135523809Y-72297619D01*
X135571428Y-72392857D01*
X135571428Y-72488095D01*
X135523809Y-72630952D01*
X134952380Y-73202380D01*
X135571428Y-73202380D01*
X136000000Y-72821428D02*
X136761904Y-72821428D01*
X137428571Y-72202380D02*
X137523809Y-72202380D01*
X137619047Y-72250000D01*
X137666666Y-72297619D01*
X137714285Y-72392857D01*
X137761904Y-72583333D01*
X137761904Y-72821428D01*
X137714285Y-73011904D01*
X137666666Y-73107142D01*
X137619047Y-73154761D01*
X137523809Y-73202380D01*
X137428571Y-73202380D01*
X137333333Y-73154761D01*
X137285714Y-73107142D01*
X137238095Y-73011904D01*
X137190476Y-72821428D01*
X137190476Y-72583333D01*
X137238095Y-72392857D01*
X137285714Y-72297619D01*
X137333333Y-72250000D01*
X137428571Y-72202380D01*
X138666666Y-72202380D02*
X138190476Y-72202380D01*
X138142857Y-72678571D01*
X138190476Y-72630952D01*
X138285714Y-72583333D01*
X138523809Y-72583333D01*
X138619047Y-72630952D01*
X138666666Y-72678571D01*
X138714285Y-72773809D01*
X138714285Y-73011904D01*
X138666666Y-73107142D01*
X138619047Y-73154761D01*
X138523809Y-73202380D01*
X138285714Y-73202380D01*
X138190476Y-73154761D01*
X138142857Y-73107142D01*
X139142857Y-72821428D02*
X139904761Y-72821428D01*
X140333333Y-72297619D02*
X140380952Y-72250000D01*
X140476190Y-72202380D01*
X140714285Y-72202380D01*
X140809523Y-72250000D01*
X140857142Y-72297619D01*
X140904761Y-72392857D01*
X140904761Y-72488095D01*
X140857142Y-72630952D01*
X140285714Y-73202380D01*
X140904761Y-73202380D01*
X141523809Y-72202380D02*
X141619047Y-72202380D01*
X141714285Y-72250000D01*
X141761904Y-72297619D01*
X141809523Y-72392857D01*
X141857142Y-72583333D01*
X141857142Y-72821428D01*
X141809523Y-73011904D01*
X141761904Y-73107142D01*
X141714285Y-73154761D01*
X141619047Y-73202380D01*
X141523809Y-73202380D01*
X141428571Y-73154761D01*
X141380952Y-73107142D01*
X141333333Y-73011904D01*
X141285714Y-72821428D01*
X141285714Y-72583333D01*
X141333333Y-72392857D01*
X141380952Y-72297619D01*
X141428571Y-72250000D01*
X141523809Y-72202380D01*
D11*
%TO.C,Logo2*%
X113162857Y-90735714D02*
X113286666Y-91169047D01*
X113410476Y-90859523D01*
X113534285Y-91169047D01*
X113658095Y-90735714D01*
X113843809Y-90735714D02*
X113967619Y-91169047D01*
X114091428Y-90859523D01*
X114215238Y-91169047D01*
X114339047Y-90735714D01*
X114524761Y-90735714D02*
X114648571Y-91169047D01*
X114772380Y-90859523D01*
X114896190Y-91169047D01*
X115020000Y-90735714D01*
X115267619Y-91107142D02*
X115298571Y-91138095D01*
X115267619Y-91169047D01*
X115236666Y-91138095D01*
X115267619Y-91107142D01*
X115267619Y-91169047D01*
X115577142Y-91169047D02*
X115577142Y-90735714D01*
X115577142Y-90797619D02*
X115608095Y-90766666D01*
X115670000Y-90735714D01*
X115762857Y-90735714D01*
X115824761Y-90766666D01*
X115855714Y-90828571D01*
X115855714Y-91169047D01*
X115855714Y-90828571D02*
X115886666Y-90766666D01*
X115948571Y-90735714D01*
X116041428Y-90735714D01*
X116103333Y-90766666D01*
X116134285Y-90828571D01*
X116134285Y-91169047D01*
X116691428Y-91138095D02*
X116629523Y-91169047D01*
X116505714Y-91169047D01*
X116443809Y-91138095D01*
X116412857Y-91076190D01*
X116412857Y-90828571D01*
X116443809Y-90766666D01*
X116505714Y-90735714D01*
X116629523Y-90735714D01*
X116691428Y-90766666D01*
X116722380Y-90828571D01*
X116722380Y-90890476D01*
X116412857Y-90952380D01*
X117000952Y-91107142D02*
X117031904Y-91138095D01*
X117000952Y-91169047D01*
X116970000Y-91138095D01*
X117000952Y-91107142D01*
X117000952Y-91169047D01*
X117589047Y-90735714D02*
X117589047Y-91169047D01*
X117310476Y-90735714D02*
X117310476Y-91076190D01*
X117341428Y-91138095D01*
X117403333Y-91169047D01*
X117496190Y-91169047D01*
X117558095Y-91138095D01*
X117589047Y-91107142D01*
X117898571Y-91169047D02*
X117898571Y-90519047D01*
X117960476Y-90921428D02*
X118146190Y-91169047D01*
X118146190Y-90735714D02*
X117898571Y-90983333D01*
%TO.C,U4*%
X118607142Y-70053964D02*
X118642857Y-70018250D01*
X118714285Y-69982535D01*
X118892857Y-69982535D01*
X118964285Y-70018250D01*
X119000000Y-70053964D01*
X119035714Y-70125392D01*
X119035714Y-70196821D01*
X119000000Y-70303964D01*
X118571428Y-70732535D01*
X119035714Y-70732535D01*
X119500000Y-69982535D02*
X119571428Y-69982535D01*
X119642857Y-70018250D01*
X119678571Y-70053964D01*
X119714285Y-70125392D01*
X119750000Y-70268250D01*
X119750000Y-70446821D01*
X119714285Y-70589678D01*
X119678571Y-70661107D01*
X119642857Y-70696821D01*
X119571428Y-70732535D01*
X119500000Y-70732535D01*
X119428571Y-70696821D01*
X119392857Y-70661107D01*
X119357142Y-70589678D01*
X119321428Y-70446821D01*
X119321428Y-70268250D01*
X119357142Y-70125392D01*
X119392857Y-70053964D01*
X119428571Y-70018250D01*
X119500000Y-69982535D01*
X120035714Y-70053964D02*
X120071428Y-70018250D01*
X120142857Y-69982535D01*
X120321428Y-69982535D01*
X120392857Y-70018250D01*
X120428571Y-70053964D01*
X120464285Y-70125392D01*
X120464285Y-70196821D01*
X120428571Y-70303964D01*
X120000000Y-70732535D01*
X120464285Y-70732535D01*
X120750000Y-70053964D02*
X120785714Y-70018250D01*
X120857142Y-69982535D01*
X121035714Y-69982535D01*
X121107142Y-70018250D01*
X121142857Y-70053964D01*
X121178571Y-70125392D01*
X121178571Y-70196821D01*
X121142857Y-70303964D01*
X120714285Y-70732535D01*
X121178571Y-70732535D01*
X121500000Y-70446821D02*
X122071428Y-70446821D01*
X122571428Y-69982535D02*
X122642857Y-69982535D01*
X122714285Y-70018250D01*
X122750000Y-70053964D01*
X122785714Y-70125392D01*
X122821428Y-70268250D01*
X122821428Y-70446821D01*
X122785714Y-70589678D01*
X122750000Y-70661107D01*
X122714285Y-70696821D01*
X122642857Y-70732535D01*
X122571428Y-70732535D01*
X122500000Y-70696821D01*
X122464285Y-70661107D01*
X122428571Y-70589678D01*
X122392857Y-70446821D01*
X122392857Y-70268250D01*
X122428571Y-70125392D01*
X122464285Y-70053964D01*
X122500000Y-70018250D01*
X122571428Y-69982535D01*
X123500000Y-69982535D02*
X123142857Y-69982535D01*
X123107142Y-70339678D01*
X123142857Y-70303964D01*
X123214285Y-70268250D01*
X123392857Y-70268250D01*
X123464285Y-70303964D01*
X123500000Y-70339678D01*
X123535714Y-70411107D01*
X123535714Y-70589678D01*
X123500000Y-70661107D01*
X123464285Y-70696821D01*
X123392857Y-70732535D01*
X123214285Y-70732535D01*
X123142857Y-70696821D01*
X123107142Y-70661107D01*
X123857142Y-70446821D02*
X124428571Y-70446821D01*
X124750000Y-70053964D02*
X124785714Y-70018250D01*
X124857142Y-69982535D01*
X125035714Y-69982535D01*
X125107142Y-70018250D01*
X125142857Y-70053964D01*
X125178571Y-70125392D01*
X125178571Y-70196821D01*
X125142857Y-70303964D01*
X124714285Y-70732535D01*
X125178571Y-70732535D01*
X125642857Y-69982535D02*
X125714285Y-69982535D01*
X125785714Y-70018250D01*
X125821428Y-70053964D01*
X125857142Y-70125392D01*
X125892857Y-70268250D01*
X125892857Y-70446821D01*
X125857142Y-70589678D01*
X125821428Y-70661107D01*
X125785714Y-70696821D01*
X125714285Y-70732535D01*
X125642857Y-70732535D01*
X125571428Y-70696821D01*
X125535714Y-70661107D01*
X125500000Y-70589678D01*
X125464285Y-70446821D01*
X125464285Y-70268250D01*
X125500000Y-70125392D01*
X125535714Y-70053964D01*
X125571428Y-70018250D01*
X125642857Y-69982535D01*
D12*
%TO.C,SW1*%
X90250000Y-70750000D02*
X94750000Y-70750000D01*
X94750000Y-64250000D02*
X90250000Y-64250000D01*
X89000000Y-66750000D02*
X89000000Y-68250000D01*
X96000000Y-68250000D02*
X96000000Y-66750000D01*
%TO.C,R1*%
X131125000Y-86250000D02*
X131725000Y-86250000D01*
X131125000Y-87250000D02*
X131725000Y-87250000D01*
%TO.C,SW3*%
X94800000Y-79250000D02*
X90300000Y-79250000D01*
X89050000Y-81750000D02*
X89050000Y-83250000D01*
X96050000Y-83250000D02*
X96050000Y-81750000D01*
X90300000Y-85750000D02*
X94800000Y-85750000D01*
%TO.C,U2*%
X97000000Y-98500000D02*
G75*
G03*
X97000000Y-98500000I-500000J0D01*
G01*
%TO.C,R2*%
X131125000Y-87500000D02*
X131725000Y-87500000D01*
X131125000Y-88500000D02*
X131725000Y-88500000D01*
%TO.C,R10*%
X127550000Y-89025000D02*
X127550000Y-88425000D01*
X126550000Y-89025000D02*
X126550000Y-88425000D01*
%TO.C,U1*%
X135300000Y-78500000D02*
X136200000Y-78500000D01*
X130400000Y-80000000D02*
X130400000Y-78600000D01*
X135300000Y-84750000D02*
X136200000Y-84750000D01*
X132150000Y-84850000D02*
X132750000Y-84850000D01*
X132150000Y-85750000D02*
X132750000Y-85750000D01*
X136250000Y-81700000D02*
X136250000Y-80200000D01*
X135300000Y-77100000D02*
X136200000Y-77100000D01*
X134575000Y-81475000D02*
X136175000Y-81475000D01*
X135300000Y-83350000D02*
X136200000Y-83350000D01*
X131525000Y-84750000D02*
X131525000Y-81650000D01*
X134500000Y-81700000D02*
X134500000Y-80200000D01*
X134100000Y-80000000D02*
X134100000Y-78600000D01*
%TO.C,R7*%
X137300000Y-69100000D02*
X136700000Y-69100000D01*
X137300000Y-68100000D02*
X136700000Y-68100000D01*
%TO.C,R4*%
X124300000Y-91300000D02*
X124900000Y-91300000D01*
X124300000Y-92300000D02*
X124900000Y-92300000D01*
%TO.C,R6*%
X122100000Y-89500000D02*
X122100000Y-88900000D01*
X121100000Y-89500000D02*
X121100000Y-88900000D01*
%TO.C,R8*%
X137300000Y-65700000D02*
X136700000Y-65700000D01*
X137300000Y-66700000D02*
X136700000Y-66700000D01*
%TO.C,R5*%
X122300000Y-89500000D02*
X122300000Y-88900000D01*
X123300000Y-89500000D02*
X123300000Y-88900000D01*
%TO.C,D3*%
X137000000Y-64600000D02*
X137000000Y-63600000D01*
X135900000Y-64600000D02*
X137000000Y-64600000D01*
%TO.C,R3*%
X120100000Y-92300000D02*
X119500000Y-92300000D01*
X120100000Y-91300000D02*
X119500000Y-91300000D01*
%TO.C,R11*%
X126350000Y-88425000D02*
X126350000Y-89025000D01*
X125350000Y-88425000D02*
X125350000Y-89025000D01*
%TO.C,R12*%
X114500000Y-72025000D02*
X114500000Y-72625000D01*
X115500000Y-72025000D02*
X115500000Y-72625000D01*
D13*
%TO.C,U4*%
X128750000Y-68693250D02*
X128750000Y-69393250D01*
X115750000Y-78593250D02*
X115750000Y-79493250D01*
X115750000Y-68693250D02*
X115750000Y-69393250D01*
X128750000Y-79493250D02*
X127850000Y-79493250D01*
X115750000Y-79493250D02*
X116650000Y-79493250D01*
X128750000Y-78593250D02*
X128750000Y-79493250D01*
D12*
%TO.C,SW2*%
X96000000Y-75750000D02*
X96000000Y-74250000D01*
X94750000Y-71750000D02*
X90250000Y-71750000D01*
X90250000Y-78250000D02*
X94750000Y-78250000D01*
X89000000Y-74250000D02*
X89000000Y-75750000D01*
%TO.C,C4*%
X128750000Y-88425000D02*
X128750000Y-89025000D01*
X127750000Y-88425000D02*
X127750000Y-89025000D01*
%TO.C,R13*%
X111100000Y-90500000D02*
X111700000Y-90500000D01*
X111100000Y-91500000D02*
X111700000Y-91500000D01*
%TO.C,R9*%
X137300000Y-66900000D02*
X136700000Y-66900000D01*
X137300000Y-67900000D02*
X136700000Y-67900000D01*
%TO.C,U3*%
X123435000Y-83140000D02*
X124160000Y-83140000D01*
X124160000Y-83140000D02*
X124160000Y-83865000D01*
X120665000Y-87360000D02*
X119940000Y-87360000D01*
X123435000Y-87360000D02*
X124160000Y-87360000D01*
X119940000Y-87360000D02*
X119940000Y-86635000D01*
X124160000Y-87360000D02*
X124160000Y-86635000D01*
X120532843Y-83450000D02*
G75*
G03*
X120532843Y-83450000I-282843J0D01*
G01*
%TO.C,D2*%
X129250000Y-94750000D02*
X130750000Y-94750000D01*
%TD*%
M02*
