%TF.GenerationSoftware,KiCad,Pcbnew,(6.0.5-0)*%
%TF.CreationDate,2022-05-23T11:52:26+01:00*%
%TF.ProjectId,EnvMon2,456e764d-6f6e-4322-9e6b-696361645f70,4*%
%TF.SameCoordinates,Original*%
%TF.FileFunction,Soldermask,Bot*%
%TF.FilePolarity,Negative*%
%FSLAX46Y46*%
G04 Gerber Fmt 4.6, Leading zero omitted, Abs format (unit mm)*
G04 Created by KiCad (PCBNEW (6.0.5-0)) date 2022-05-23 11:52:26*
%MOMM*%
%LPD*%
G01*
G04 APERTURE LIST*
G04 Aperture macros list*
%AMRoundRect*
0 Rectangle with rounded corners*
0 $1 Rounding radius*
0 $2 $3 $4 $5 $6 $7 $8 $9 X,Y pos of 4 corners*
0 Add a 4 corners polygon primitive as box body*
4,1,4,$2,$3,$4,$5,$6,$7,$8,$9,$2,$3,0*
0 Add four circle primitives for the rounded corners*
1,1,$1+$1,$2,$3*
1,1,$1+$1,$4,$5*
1,1,$1+$1,$6,$7*
1,1,$1+$1,$8,$9*
0 Add four rect primitives between the rounded corners*
20,1,$1+$1,$2,$3,$4,$5,0*
20,1,$1+$1,$4,$5,$6,$7,0*
20,1,$1+$1,$6,$7,$8,$9,0*
20,1,$1+$1,$8,$9,$2,$3,0*%
G04 Aperture macros list end*
%ADD10C,0.450000*%
%ADD11C,2.020000*%
%ADD12RoundRect,0.260000X-0.600000X-0.675000X0.600000X-0.675000X0.600000X0.675000X-0.600000X0.675000X0*%
%ADD13O,1.720000X1.870000*%
%ADD14C,0.870000*%
%ADD15C,1.270000*%
%ADD16C,1.520000*%
%ADD17C,1.720000*%
G04 APERTURE END LIST*
D10*
%TO.C,Logo1*%
X108650000Y-72525000D02*
X111650000Y-76725000D01*
X106850000Y-72625000D02*
X108650000Y-74625000D01*
X108650000Y-74625000D02*
X110150000Y-74625000D01*
X108650000Y-74625000D02*
X106850000Y-76725000D01*
X108650000Y-72525000D02*
X108650000Y-76725000D01*
X108650000Y-76725000D02*
G75*
G03*
X110150000Y-76725000I750000J0D01*
G01*
%TO.C,U5*%
G36*
X125150000Y-99900000D02*
G01*
X119350000Y-99900000D01*
X119350000Y-94100000D01*
X125150000Y-94100000D01*
X125150000Y-99900000D01*
G37*
%TD*%
D11*
%TO.C,SW1*%
X89250000Y-65250000D03*
X95750000Y-65250000D03*
X89250000Y-69750000D03*
X95750000Y-69750000D03*
%TD*%
%TO.C,SW3*%
X95800000Y-80250000D03*
X89300000Y-80250000D03*
X89300000Y-84750000D03*
X95800000Y-84750000D03*
%TD*%
D12*
%TO.C,J3*%
X108750000Y-90850000D03*
D13*
X111250000Y-90850000D03*
X113750000Y-90850000D03*
%TD*%
D14*
%TO.C,J1*%
X125140000Y-94210000D03*
D15*
X117930000Y-97890000D03*
D14*
X119360000Y-94210000D03*
D15*
X126570000Y-97890000D03*
D16*
X126570000Y-93720000D03*
X117930000Y-93720000D03*
%TD*%
D11*
%TO.C,M1*%
X102500000Y-97500000D03*
X142000000Y-97500000D03*
X102500000Y-65500000D03*
X142000000Y-65500000D03*
D17*
X102500000Y-73880000D03*
X102500000Y-76420000D03*
X102500000Y-78960000D03*
X102500000Y-81500000D03*
X102500000Y-84040000D03*
X102500000Y-86580000D03*
X102500000Y-89120000D03*
%TD*%
D12*
%TO.C,J2*%
X131750000Y-90850000D03*
D13*
X134250000Y-90850000D03*
%TD*%
D11*
%TO.C,SW2*%
X89250000Y-72750000D03*
X95750000Y-72750000D03*
X95750000Y-77250000D03*
X89250000Y-77250000D03*
%TD*%
M02*
