%TF.GenerationSoftware,KiCad,Pcbnew,(6.0.2-0)*%
%TF.CreationDate,2022-03-08T08:06:15+00:00*%
%TF.ProjectId,EnvMon2,456e764d-6f6e-4322-9e6b-696361645f70,4*%
%TF.SameCoordinates,Original*%
%TF.FileFunction,Soldermask,Top*%
%TF.FilePolarity,Negative*%
%FSLAX46Y46*%
G04 Gerber Fmt 4.6, Leading zero omitted, Abs format (unit mm)*
G04 Created by KiCad (PCBNEW (6.0.2-0)) date 2022-03-08 08:06:15*
%MOMM*%
%LPD*%
G01*
G04 APERTURE LIST*
G04 Aperture macros list*
%AMRoundRect*
0 Rectangle with rounded corners*
0 $1 Rounding radius*
0 $2 $3 $4 $5 $6 $7 $8 $9 X,Y pos of 4 corners*
0 Add a 4 corners polygon primitive as box body*
4,1,4,$2,$3,$4,$5,$6,$7,$8,$9,$2,$3,0*
0 Add four circle primitives for the rounded corners*
1,1,$1+$1,$2,$3*
1,1,$1+$1,$4,$5*
1,1,$1+$1,$6,$7*
1,1,$1+$1,$8,$9*
0 Add four rect primitives between the rounded corners*
20,1,$1+$1,$2,$3,$4,$5,0*
20,1,$1+$1,$4,$5,$6,$7,0*
20,1,$1+$1,$6,$7,$8,$9,0*
20,1,$1+$1,$8,$9,$2,$3,0*%
%AMOutline5P*
0 Free polygon, 5 corners , with rotation*
0 The origin of the aperture is its center*
0 number of corners: always 5*
0 $1 to $10 corner X, Y*
0 $11 Rotation angle, in degrees counterclockwise*
0 create outline with 5 corners*
4,1,5,$1,$2,$3,$4,$5,$6,$7,$8,$9,$10,$1,$2,$11*%
%AMOutline6P*
0 Free polygon, 6 corners , with rotation*
0 The origin of the aperture is its center*
0 number of corners: always 6*
0 $1 to $12 corner X, Y*
0 $13 Rotation angle, in degrees counterclockwise*
0 create outline with 6 corners*
4,1,6,$1,$2,$3,$4,$5,$6,$7,$8,$9,$10,$11,$12,$1,$2,$13*%
%AMOutline7P*
0 Free polygon, 7 corners , with rotation*
0 The origin of the aperture is its center*
0 number of corners: always 7*
0 $1 to $14 corner X, Y*
0 $15 Rotation angle, in degrees counterclockwise*
0 create outline with 7 corners*
4,1,7,$1,$2,$3,$4,$5,$6,$7,$8,$9,$10,$11,$12,$13,$14,$1,$2,$15*%
%AMOutline8P*
0 Free polygon, 8 corners , with rotation*
0 The origin of the aperture is its center*
0 number of corners: always 8*
0 $1 to $16 corner X, Y*
0 $17 Rotation angle, in degrees counterclockwise*
0 create outline with 8 corners*
4,1,8,$1,$2,$3,$4,$5,$6,$7,$8,$9,$10,$11,$12,$13,$14,$15,$16,$1,$2,$17*%
G04 Aperture macros list end*
%ADD10C,0.450000*%
%ADD11RoundRect,0.200000X-0.200000X-0.275000X0.200000X-0.275000X0.200000X0.275000X-0.200000X0.275000X0*%
%ADD12RoundRect,0.200000X0.200000X0.275000X-0.200000X0.275000X-0.200000X-0.275000X0.200000X-0.275000X0*%
%ADD13RoundRect,0.200000X-0.275000X0.200000X-0.275000X-0.200000X0.275000X-0.200000X0.275000X0.200000X0*%
%ADD14RoundRect,0.100000X1.200000X-1.200000X1.200000X1.200000X-1.200000X1.200000X-1.200000X-1.200000X0*%
%ADD15RoundRect,0.100000X-0.750000X-0.400000X0.750000X-0.400000X0.750000X0.400000X-0.750000X0.400000X0*%
%ADD16RoundRect,0.100000X-0.400000X0.750000X-0.400000X-0.750000X0.400000X-0.750000X0.400000X0.750000X0*%
%ADD17RoundRect,0.100000X0.750000X0.400000X-0.750000X0.400000X-0.750000X-0.400000X0.750000X-0.400000X0*%
%ADD18RoundRect,0.100000X0.400000X-0.750000X0.400000X0.750000X-0.400000X0.750000X-0.400000X-0.750000X0*%
%ADD19RoundRect,0.250000X-0.600000X-0.675000X0.600000X-0.675000X0.600000X0.675000X-0.600000X0.675000X0*%
%ADD20O,1.700000X1.850000*%
%ADD21R,0.600000X1.140000*%
%ADD22RoundRect,0.075000X-0.075000X-0.495000X0.075000X-0.495000X0.075000X0.495000X-0.075000X0.495000X0*%
%ADD23C,1.250000*%
%ADD24C,1.500000*%
%ADD25R,5.000000X5.490000*%
%ADD26C,0.870000*%
%ADD27RoundRect,0.200000X0.275000X-0.200000X0.275000X0.200000X-0.275000X0.200000X-0.275000X-0.200000X0*%
%ADD28R,1.100000X0.600000*%
%ADD29RoundRect,0.249375X0.625625X-0.463125X0.625625X0.463125X-0.625625X0.463125X-0.625625X-0.463125X0*%
%ADD30RoundRect,0.225000X0.225000X0.250000X-0.225000X0.250000X-0.225000X-0.250000X0.225000X-0.250000X0*%
%ADD31R,3.700000X1.425000*%
%ADD32RoundRect,0.250000X-0.250000X-0.475000X0.250000X-0.475000X0.250000X0.475000X-0.250000X0.475000X0*%
%ADD33C,1.700000*%
%ADD34C,3.000000*%
%ADD35R,0.850000X0.500000*%
%ADD36R,0.800000X0.400000*%
%ADD37R,0.400000X0.800000*%
%ADD38R,1.450000X1.450000*%
%ADD39Outline5P,-0.725000X0.130500X-0.130500X0.725000X0.725000X0.725000X0.725000X-0.725000X-0.725000X-0.725000X0.000000*%
%ADD40R,0.700000X0.700000*%
%ADD41RoundRect,0.062500X-0.287500X-0.062500X0.287500X-0.062500X0.287500X0.062500X-0.287500X0.062500X0*%
%ADD42RoundRect,0.062500X-0.062500X-0.287500X0.062500X-0.287500X0.062500X0.287500X-0.062500X0.287500X0*%
%ADD43Outline5P,-1.000000X0.750000X-0.750000X1.000000X1.000000X1.000000X1.000000X-1.000000X-1.000000X-1.000000X0.000000*%
%ADD44RoundRect,0.250000X0.625000X-0.375000X0.625000X0.375000X-0.625000X0.375000X-0.625000X-0.375000X0*%
G04 APERTURE END LIST*
D10*
%TO.C,Logo2*%
X115300000Y-70000000D02*
X113500000Y-72000000D01*
X113500000Y-72000000D02*
X112000000Y-72000000D01*
X113500000Y-69900000D02*
X113500000Y-74100000D01*
X113500000Y-72000000D02*
X115300000Y-74100000D01*
X113500000Y-69900000D02*
X110500000Y-74100000D01*
X112000000Y-74100000D02*
G75*
G03*
X113500000Y-74100000I750000J0D01*
G01*
%TD*%
D11*
%TO.C,R4*%
X123775000Y-91800000D03*
X125425000Y-91800000D03*
%TD*%
D12*
%TO.C,R3*%
X120625000Y-91800000D03*
X118975000Y-91800000D03*
%TD*%
D13*
%TO.C,R12*%
X119600000Y-67375000D03*
X119600000Y-69025000D03*
%TD*%
D11*
%TO.C,R1*%
X130600000Y-86750000D03*
X132250000Y-86750000D03*
%TD*%
D14*
%TO.C,U2*%
X106700000Y-56300000D03*
X106700000Y-58700000D03*
X104300000Y-58700000D03*
X104300000Y-56300000D03*
D15*
X101500000Y-60000000D03*
X101500000Y-58750000D03*
X101500000Y-57500000D03*
X101500000Y-56250000D03*
X101500000Y-55000000D03*
D16*
X103000000Y-53500000D03*
X104250000Y-53500000D03*
X105500000Y-53500000D03*
X106750000Y-53500000D03*
X108000000Y-53500000D03*
D17*
X109500000Y-55000000D03*
X109500000Y-56250000D03*
X109500000Y-57500000D03*
X109500000Y-58750000D03*
X109500000Y-60000000D03*
D18*
X108000000Y-61500000D03*
X106750000Y-61500000D03*
X105500000Y-61500000D03*
X104250000Y-61500000D03*
X103000000Y-61500000D03*
%TD*%
D19*
%TO.C,J3*%
X107750000Y-93400000D03*
D20*
X110250000Y-93400000D03*
X112750000Y-93400000D03*
%TD*%
D21*
%TO.C,J1*%
X119050000Y-93140000D03*
X119850000Y-93140000D03*
D22*
X121000000Y-93140000D03*
X122000000Y-93140000D03*
X122500000Y-93140000D03*
X123500000Y-93140000D03*
D21*
X125450000Y-93140000D03*
X124650000Y-93140000D03*
D22*
X124000000Y-93140000D03*
X123000000Y-93140000D03*
X121500000Y-93140000D03*
X120500000Y-93140000D03*
D23*
X126570000Y-97890000D03*
D24*
X126570000Y-93720000D03*
D23*
X117930000Y-97890000D03*
D25*
X122250000Y-97255000D03*
D26*
X119360000Y-94210000D03*
X125140000Y-94210000D03*
D24*
X117930000Y-93720000D03*
%TD*%
D11*
%TO.C,R2*%
X130600000Y-88000000D03*
X132250000Y-88000000D03*
%TD*%
D27*
%TO.C,R10*%
X126650480Y-89524520D03*
X126650480Y-87874520D03*
%TD*%
D28*
%TO.C,U1*%
X133550000Y-81750000D03*
X130850000Y-81750000D03*
D29*
X135370000Y-81902500D03*
D30*
X131675000Y-84800000D03*
D31*
X132250000Y-80300000D03*
D30*
X133225000Y-84800000D03*
D28*
X133550000Y-83650000D03*
X133550000Y-82700000D03*
D32*
X134800000Y-83550000D03*
D28*
X130850000Y-82700000D03*
D29*
X135370000Y-78937500D03*
D32*
X136700000Y-83550000D03*
X136700000Y-77300000D03*
D31*
X132250000Y-77300000D03*
D32*
X134800000Y-77300000D03*
D28*
X130850000Y-83650000D03*
%TD*%
D12*
%TO.C,R7*%
X137825000Y-68600000D03*
X136175000Y-68600000D03*
%TD*%
D33*
%TO.C,M1*%
X102500000Y-89120000D03*
X102500000Y-86580000D03*
X102500000Y-84040000D03*
X102500000Y-81500000D03*
X102500000Y-78960000D03*
X102500000Y-76420000D03*
X102500000Y-73880000D03*
D34*
X102500000Y-65500000D03*
X142000000Y-97500000D03*
X142000000Y-65500000D03*
X102500000Y-97500000D03*
%TD*%
D27*
%TO.C,R6*%
X121600000Y-90025000D03*
X121600000Y-88375000D03*
%TD*%
D12*
%TO.C,R8*%
X136175000Y-66200000D03*
X137825000Y-66200000D03*
%TD*%
D27*
%TO.C,R5*%
X122800000Y-88375000D03*
X122800000Y-90025000D03*
%TD*%
D35*
%TO.C,D3*%
X136125000Y-65100000D03*
X137875000Y-65100000D03*
X137875000Y-64100000D03*
X136125000Y-64100000D03*
%TD*%
D13*
%TO.C,R11*%
X125450480Y-87874520D03*
X125450480Y-89524520D03*
%TD*%
D19*
%TO.C,J2*%
X134150000Y-93400000D03*
D20*
X136650000Y-93400000D03*
%TD*%
D36*
%TO.C,U4*%
X122100000Y-64693250D03*
X122100000Y-65493250D03*
X122100000Y-66293250D03*
X122100000Y-67093250D03*
X122100000Y-67893250D03*
X122100000Y-68693250D03*
X122100000Y-69493250D03*
X122100000Y-70293250D03*
X122100000Y-71093250D03*
X122100000Y-71893250D03*
X122100000Y-72693250D03*
D37*
X123200000Y-73593250D03*
X124000000Y-73593250D03*
X124800000Y-73593250D03*
X125600000Y-73593250D03*
X126400000Y-73593250D03*
X127200000Y-73593250D03*
X128000000Y-73593250D03*
X128800000Y-73593250D03*
X129600000Y-73593250D03*
X130400000Y-73593250D03*
X131200000Y-73593250D03*
X132000000Y-73593250D03*
X132800000Y-73593250D03*
D36*
X133900000Y-72693250D03*
X133900000Y-71893250D03*
X133900000Y-71093250D03*
X133900000Y-70293250D03*
X133900000Y-69493250D03*
X133900000Y-68693250D03*
X133900000Y-67893250D03*
X133900000Y-67093250D03*
X133900000Y-66293250D03*
X133900000Y-65493250D03*
X133900000Y-64693250D03*
D37*
X132800000Y-63793250D03*
X132000000Y-63793250D03*
X131200000Y-63793250D03*
X130400000Y-63793250D03*
X129600000Y-63793250D03*
X128800000Y-63793250D03*
X128000000Y-63793250D03*
X127200000Y-63793250D03*
X126400000Y-63793250D03*
X125600000Y-63793250D03*
X124800000Y-63793250D03*
X124000000Y-63793250D03*
X123200000Y-63793250D03*
D38*
X128000000Y-70668250D03*
D39*
X126025000Y-66718250D03*
D38*
X128000000Y-68693250D03*
X128000000Y-66718250D03*
X126025000Y-68693250D03*
X129975000Y-68693250D03*
X126025000Y-70668250D03*
X129975000Y-70668250D03*
X129975000Y-66718250D03*
D40*
X133950000Y-63743250D03*
X133950000Y-73643250D03*
X122050000Y-73643250D03*
X122050000Y-63743250D03*
%TD*%
D13*
%TO.C,C4*%
X127850480Y-87924520D03*
X127850480Y-89474520D03*
%TD*%
D11*
%TO.C,R13*%
X110575000Y-91000000D03*
X112225000Y-91000000D03*
%TD*%
D12*
%TO.C,R9*%
X137825000Y-67400000D03*
X136175000Y-67400000D03*
%TD*%
D41*
%TO.C,U3*%
X120100000Y-83800000D03*
X120100000Y-84300000D03*
X120100000Y-84800000D03*
X120100000Y-85300000D03*
X120100000Y-85800000D03*
D42*
X121000000Y-86700000D03*
X121500000Y-86700000D03*
X122000000Y-86700000D03*
X122500000Y-86700000D03*
X123000000Y-86700000D03*
D41*
X123900000Y-85800000D03*
X123900000Y-85300000D03*
X123900000Y-84800000D03*
X123900000Y-84300000D03*
X123900000Y-83800000D03*
D42*
X123000000Y-82900000D03*
X122500000Y-82900000D03*
X122000000Y-82900000D03*
X121500000Y-82900000D03*
X121000000Y-82900000D03*
D43*
X122000000Y-84800000D03*
%TD*%
D44*
%TO.C,D2*%
X130000000Y-95650000D03*
X130000000Y-92850000D03*
%TD*%
M02*
