%TF.GenerationSoftware,KiCad,Pcbnew,(5.1.9-0-10_14)*%
%TF.CreationDate,2021-08-26T08:28:37+01:00*%
%TF.ProjectId,EnvMon,456e764d-6f6e-42e6-9b69-6361645f7063,4*%
%TF.SameCoordinates,Original*%
%TF.FileFunction,Copper,L1,Top*%
%TF.FilePolarity,Positive*%
%FSLAX46Y46*%
G04 Gerber Fmt 4.6, Leading zero omitted, Abs format (unit mm)*
G04 Created by KiCad (PCBNEW (5.1.9-0-10_14)) date 2021-08-26 08:28:37*
%MOMM*%
%LPD*%
G01*
G04 APERTURE LIST*
%TA.AperFunction,NonConductor*%
%ADD10C,0.300000*%
%TD*%
%TA.AperFunction,EtchedComponent*%
%ADD11C,0.250000*%
%TD*%
%TA.AperFunction,EtchedComponent*%
%ADD12C,0.500000*%
%TD*%
%TA.AperFunction,SMDPad,CuDef*%
%ADD13C,0.100000*%
%TD*%
%TA.AperFunction,SMDPad,CuDef*%
%ADD14R,0.500000X4.000000*%
%TD*%
%TA.AperFunction,SMDPad,CuDef*%
%ADD15R,0.600000X1.100000*%
%TD*%
%TA.AperFunction,SMDPad,CuDef*%
%ADD16R,1.425000X3.700000*%
%TD*%
%TA.AperFunction,SMDPad,CuDef*%
%ADD17R,2.000000X0.900000*%
%TD*%
%TA.AperFunction,SMDPad,CuDef*%
%ADD18R,0.900000X2.000000*%
%TD*%
%TA.AperFunction,SMDPad,CuDef*%
%ADD19R,5.000000X5.000000*%
%TD*%
%TA.AperFunction,ComponentPad*%
%ADD20C,5.000000*%
%TD*%
%TA.AperFunction,ComponentPad*%
%ADD21C,1.700000*%
%TD*%
%TA.AperFunction,ComponentPad*%
%ADD22O,1.700000X1.850000*%
%TD*%
%TA.AperFunction,SMDPad,CuDef*%
%ADD23R,0.850000X0.500000*%
%TD*%
%TA.AperFunction,ComponentPad*%
%ADD24C,0.350000*%
%TD*%
%TA.AperFunction,ComponentPad*%
%ADD25C,2.000000*%
%TD*%
%TA.AperFunction,ComponentPad*%
%ADD26R,2.000000X2.000000*%
%TD*%
%TA.AperFunction,SMDPad,CuDef*%
%ADD27R,5.000000X5.490000*%
%TD*%
%TA.AperFunction,SMDPad,CuDef*%
%ADD28R,0.600000X1.140000*%
%TD*%
%TA.AperFunction,ComponentPad*%
%ADD29C,1.250000*%
%TD*%
%TA.AperFunction,ComponentPad*%
%ADD30C,1.500000*%
%TD*%
%TA.AperFunction,ComponentPad*%
%ADD31C,0.600000*%
%TD*%
%TA.AperFunction,ViaPad*%
%ADD32C,0.800000*%
%TD*%
%TA.AperFunction,Conductor*%
%ADD33C,0.250000*%
%TD*%
%TA.AperFunction,Conductor*%
%ADD34C,0.500000*%
%TD*%
%TA.AperFunction,Conductor*%
%ADD35C,0.254000*%
%TD*%
%TA.AperFunction,Conductor*%
%ADD36C,0.100000*%
%TD*%
G04 APERTURE END LIST*
D10*
X131878571Y-89585714D02*
X132878571Y-89300000D01*
X132164285Y-89014285D01*
X132878571Y-88728571D01*
X131878571Y-88442857D01*
X131878571Y-88014285D02*
X132878571Y-87728571D01*
X132164285Y-87442857D01*
X132878571Y-87157142D01*
X131878571Y-86871428D01*
X131878571Y-86442857D02*
X132878571Y-86157142D01*
X132164285Y-85871428D01*
X132878571Y-85585714D01*
X131878571Y-85300000D01*
X132735714Y-84728571D02*
X132807142Y-84657142D01*
X132878571Y-84728571D01*
X132807142Y-84800000D01*
X132735714Y-84728571D01*
X132878571Y-84728571D01*
X132878571Y-84014285D02*
X131878571Y-84014285D01*
X132021428Y-84014285D02*
X131950000Y-83942857D01*
X131878571Y-83800000D01*
X131878571Y-83585714D01*
X131950000Y-83442857D01*
X132092857Y-83371428D01*
X132878571Y-83371428D01*
X132092857Y-83371428D02*
X131950000Y-83300000D01*
X131878571Y-83157142D01*
X131878571Y-82942857D01*
X131950000Y-82800000D01*
X132092857Y-82728571D01*
X132878571Y-82728571D01*
X132807142Y-81442857D02*
X132878571Y-81585714D01*
X132878571Y-81871428D01*
X132807142Y-82014285D01*
X132664285Y-82085714D01*
X132092857Y-82085714D01*
X131950000Y-82014285D01*
X131878571Y-81871428D01*
X131878571Y-81585714D01*
X131950000Y-81442857D01*
X132092857Y-81371428D01*
X132235714Y-81371428D01*
X132378571Y-82085714D01*
X132735714Y-80728571D02*
X132807142Y-80657142D01*
X132878571Y-80728571D01*
X132807142Y-80800000D01*
X132735714Y-80728571D01*
X132878571Y-80728571D01*
X131878571Y-79371428D02*
X132878571Y-79371428D01*
X131878571Y-80014285D02*
X132664285Y-80014285D01*
X132807142Y-79942857D01*
X132878571Y-79800000D01*
X132878571Y-79585714D01*
X132807142Y-79442857D01*
X132735714Y-79371428D01*
X132878571Y-78657142D02*
X131378571Y-78657142D01*
X132307142Y-78514285D02*
X132878571Y-78085714D01*
X131878571Y-78085714D02*
X132450000Y-78657142D01*
D11*
%TO.C,U1*%
X98000000Y-78950000D02*
G75*
G02*
X98350000Y-79300000I0J-350000D01*
G01*
X98350000Y-77700000D02*
G75*
G02*
X98000000Y-78050000I-350000J0D01*
G01*
X95400000Y-78050000D02*
X98000000Y-78050000D01*
X95500000Y-78950000D02*
X98000000Y-78950000D01*
D12*
X98350000Y-79850000D02*
X99850000Y-79850000D01*
X98350000Y-81050000D02*
X98350000Y-79850000D01*
D11*
%TO.C,Logo3*%
X131600000Y-73200000D02*
G75*
G02*
X131600000Y-74700000I0J-750000D01*
G01*
X129500000Y-73200000D02*
X129500000Y-74700000D01*
X127400000Y-73200000D02*
X131600000Y-73200000D01*
X127400000Y-73200000D02*
X131600000Y-76200000D01*
X127500000Y-71400000D02*
X129500000Y-73200000D01*
X129500000Y-73200000D02*
X131600000Y-71400000D01*
%TD*%
%TA.AperFunction,SMDPad,CuDef*%
D13*
%TO.P,U1,4*%
%TO.N,+3V3*%
G36*
X101091745Y-75450012D02*
G01*
X101093925Y-75450149D01*
X101096106Y-75450149D01*
X101205399Y-75455494D01*
X101207142Y-75455591D01*
X101212396Y-75456181D01*
X101217554Y-75456686D01*
X101325803Y-75472671D01*
X101327527Y-75472938D01*
X101332653Y-75474027D01*
X101337782Y-75475043D01*
X101443956Y-75501515D01*
X101445646Y-75501949D01*
X101450632Y-75503531D01*
X101455647Y-75505045D01*
X101558724Y-75541749D01*
X101558731Y-75541751D01*
X101558738Y-75541754D01*
X101560370Y-75542347D01*
X101565193Y-75544415D01*
X101570022Y-75546405D01*
X101669032Y-75592996D01*
X101670606Y-75593750D01*
X101675246Y-75596301D01*
X101679813Y-75598729D01*
X101773804Y-75654758D01*
X101775297Y-75655662D01*
X101779597Y-75658606D01*
X101783977Y-75661516D01*
X101872050Y-75726450D01*
X101873448Y-75727495D01*
X101877465Y-75730866D01*
X101881515Y-75734169D01*
X101962832Y-75807388D01*
X101964120Y-75808565D01*
X101967802Y-75812325D01*
X101971496Y-75815993D01*
X102045282Y-75896797D01*
X102046450Y-75898094D01*
X102049731Y-75902175D01*
X102053067Y-75906207D01*
X102118613Y-75993826D01*
X102119649Y-75995230D01*
X102122520Y-75999618D01*
X102125443Y-76003951D01*
X102182127Y-76097548D01*
X102183020Y-76099046D01*
X102185444Y-76103683D01*
X102187935Y-76108290D01*
X102235216Y-76206972D01*
X102235959Y-76208551D01*
X102237913Y-76213388D01*
X102239949Y-76218230D01*
X102277374Y-76321054D01*
X102277959Y-76322698D01*
X102279444Y-76327744D01*
X102280985Y-76332721D01*
X102308197Y-76438708D01*
X102308619Y-76440401D01*
X102309606Y-76445574D01*
X102310652Y-76450669D01*
X102327393Y-76558804D01*
X102327648Y-76560530D01*
X102328120Y-76565721D01*
X102328670Y-76570951D01*
X102334418Y-76673771D01*
X102919120Y-78512112D01*
X102919637Y-78513779D01*
X102922601Y-78525627D01*
X102924394Y-78537707D01*
X102925000Y-78549904D01*
X102924413Y-78562103D01*
X102922637Y-78574185D01*
X102919692Y-78586037D01*
X102915605Y-78597545D01*
X102910413Y-78608599D01*
X102904167Y-78619094D01*
X102896928Y-78628930D01*
X102888763Y-78638011D01*
X102879752Y-78646253D01*
X102869978Y-78653575D01*
X102859537Y-78659910D01*
X102848527Y-78665196D01*
X102837054Y-78669381D01*
X102825228Y-78672427D01*
X102813161Y-78674305D01*
X102800968Y-78674996D01*
X102788766Y-78674494D01*
X102776671Y-78672803D01*
X102764799Y-78669941D01*
X102753262Y-78665933D01*
X102742173Y-78660819D01*
X102731634Y-78654648D01*
X102721749Y-78647477D01*
X102712611Y-78639375D01*
X102704306Y-78630421D01*
X102696915Y-78620699D01*
X102690508Y-78610302D01*
X102685146Y-78599330D01*
X102680880Y-78587887D01*
X102090880Y-76732887D01*
X102090479Y-76731595D01*
X102090460Y-76731542D01*
X102090448Y-76731497D01*
X102090363Y-76731221D01*
X102088867Y-76725241D01*
X102087466Y-76719702D01*
X102087443Y-76719547D01*
X102087399Y-76719373D01*
X102086483Y-76713201D01*
X102085640Y-76707627D01*
X102085632Y-76707465D01*
X102085606Y-76707293D01*
X102085304Y-76701214D01*
X102085001Y-76695432D01*
X102084985Y-76690891D01*
X102079401Y-76591007D01*
X102064532Y-76494963D01*
X102040361Y-76400820D01*
X102007114Y-76309476D01*
X101965119Y-76221827D01*
X101914767Y-76138684D01*
X101856543Y-76060856D01*
X101791007Y-75989084D01*
X101718771Y-75924042D01*
X101640539Y-75866366D01*
X101557054Y-75816599D01*
X101469106Y-75775213D01*
X101377547Y-75742611D01*
X101283233Y-75719096D01*
X101187082Y-75704897D01*
X101086941Y-75700000D01*
X97745142Y-75700000D01*
X97740891Y-75700015D01*
X97641007Y-75705599D01*
X97544963Y-75720468D01*
X97450820Y-75744639D01*
X97359476Y-75777886D01*
X97271827Y-75819881D01*
X97188684Y-75870233D01*
X97110856Y-75928457D01*
X97039084Y-75993993D01*
X96974042Y-76066229D01*
X96916366Y-76144461D01*
X96866599Y-76227946D01*
X96825213Y-76315894D01*
X96792611Y-76407453D01*
X96769096Y-76501767D01*
X96754897Y-76597918D01*
X96750000Y-76698059D01*
X96750000Y-77700000D01*
X96150000Y-77700000D01*
X96150000Y-76600000D01*
X96504496Y-76600000D01*
X96505494Y-76579601D01*
X96505591Y-76577858D01*
X96506184Y-76572573D01*
X96506686Y-76567446D01*
X96522671Y-76459197D01*
X96522938Y-76457473D01*
X96524027Y-76452347D01*
X96525043Y-76447218D01*
X96551515Y-76341044D01*
X96551949Y-76339354D01*
X96553531Y-76334368D01*
X96555045Y-76329353D01*
X96591751Y-76226270D01*
X96592347Y-76224630D01*
X96594415Y-76219807D01*
X96596405Y-76214978D01*
X96642996Y-76115968D01*
X96643750Y-76114394D01*
X96646301Y-76109754D01*
X96648729Y-76105187D01*
X96704758Y-76011196D01*
X96705662Y-76009703D01*
X96708606Y-76005403D01*
X96711516Y-76001023D01*
X96776450Y-75912950D01*
X96777495Y-75911552D01*
X96780866Y-75907535D01*
X96784169Y-75903485D01*
X96857388Y-75822168D01*
X96858565Y-75820880D01*
X96862325Y-75817198D01*
X96865993Y-75813504D01*
X96946797Y-75739718D01*
X96948094Y-75738550D01*
X96952175Y-75735269D01*
X96956207Y-75731933D01*
X97043826Y-75666387D01*
X97045230Y-75665351D01*
X97049618Y-75662480D01*
X97053951Y-75659557D01*
X97147548Y-75602873D01*
X97149046Y-75601980D01*
X97153683Y-75599556D01*
X97158290Y-75597065D01*
X97256972Y-75549784D01*
X97258551Y-75549041D01*
X97263388Y-75547087D01*
X97268230Y-75545051D01*
X97371054Y-75507626D01*
X97372698Y-75507041D01*
X97377744Y-75505556D01*
X97382721Y-75504015D01*
X97488708Y-75476803D01*
X97490401Y-75476381D01*
X97495574Y-75475394D01*
X97500669Y-75474348D01*
X97608804Y-75457607D01*
X97610530Y-75457352D01*
X97615744Y-75456877D01*
X97620951Y-75456330D01*
X97730204Y-75450222D01*
X97731947Y-75450136D01*
X97734363Y-75450153D01*
X97736749Y-75450028D01*
X97744568Y-75450001D01*
X97744953Y-75450002D01*
X97745000Y-75450000D01*
X101090000Y-75450000D01*
X101091745Y-75450012D01*
G37*
%TD.AperFunction*%
%TA.AperFunction,SMDPad,CuDef*%
%TO.P,U1,2*%
%TO.N,Net-(J1-PadA4)*%
G36*
X97353956Y-79800389D02*
G01*
X97378247Y-79802943D01*
X97402173Y-79807854D01*
X97425506Y-79815076D01*
X97448022Y-79824542D01*
X97469508Y-79836159D01*
X97489756Y-79849818D01*
X97508576Y-79865387D01*
X97525787Y-79882717D01*
X97541224Y-79901646D01*
X97554740Y-79921990D01*
X97566207Y-79943556D01*
X97575515Y-79966137D01*
X97582574Y-79989520D01*
X97587318Y-80013480D01*
X97589702Y-80037788D01*
X97589702Y-80062213D01*
X97584929Y-80159776D01*
X97584929Y-80159795D01*
X97584927Y-80159817D01*
X97584734Y-80163282D01*
X97583566Y-80173698D01*
X97582545Y-80184103D01*
X97568273Y-80280754D01*
X97567739Y-80284204D01*
X97565564Y-80294436D01*
X97563529Y-80304715D01*
X97539893Y-80399513D01*
X97539025Y-80402894D01*
X97535863Y-80412859D01*
X97532834Y-80422894D01*
X97500061Y-80514932D01*
X97498867Y-80518213D01*
X97494739Y-80527844D01*
X97490754Y-80537513D01*
X97449156Y-80625915D01*
X97447647Y-80629064D01*
X97442589Y-80638264D01*
X97437687Y-80647484D01*
X97387660Y-80731404D01*
X97385852Y-80734390D01*
X97379914Y-80743062D01*
X97374143Y-80751748D01*
X97316176Y-80830371D01*
X97316169Y-80830382D01*
X97316160Y-80830393D01*
X97314076Y-80833181D01*
X97307341Y-80841207D01*
X97300731Y-80849311D01*
X97235365Y-80921908D01*
X97235357Y-80921917D01*
X97235347Y-80921927D01*
X97233005Y-80924494D01*
X97225494Y-80931849D01*
X97218146Y-80939248D01*
X97146010Y-81005117D01*
X97146001Y-81005126D01*
X97145990Y-81005135D01*
X97143405Y-81007463D01*
X97135263Y-81014009D01*
X97127181Y-81020695D01*
X97048950Y-81079220D01*
X97046140Y-81081292D01*
X97037368Y-81087032D01*
X97028700Y-81092879D01*
X96945140Y-81143484D01*
X96945131Y-81143490D01*
X96945120Y-81143496D01*
X96942132Y-81145278D01*
X96932842Y-81150134D01*
X96923645Y-81155107D01*
X96835553Y-81197313D01*
X96835537Y-81197322D01*
X96835517Y-81197330D01*
X96832378Y-81198808D01*
X96822671Y-81202730D01*
X96813020Y-81206786D01*
X96721219Y-81240198D01*
X96721213Y-81240201D01*
X96721205Y-81240203D01*
X96717923Y-81241373D01*
X96707875Y-81244330D01*
X96697880Y-81247424D01*
X96603251Y-81271721D01*
X96599864Y-81272566D01*
X96589553Y-81274533D01*
X96579325Y-81276632D01*
X96482775Y-81291579D01*
X96479322Y-81292089D01*
X96468875Y-81293040D01*
X96458484Y-81294132D01*
X96360937Y-81299586D01*
X96357450Y-81299757D01*
X96352646Y-81299723D01*
X96347840Y-81299975D01*
X96340859Y-81299999D01*
X96337368Y-81299987D01*
X96312987Y-81298536D01*
X96288863Y-81294714D01*
X96265228Y-81288556D01*
X96242306Y-81280121D01*
X96220316Y-81269490D01*
X96199468Y-81256762D01*
X96179962Y-81242062D01*
X96161984Y-81225529D01*
X96145706Y-81207320D01*
X96131281Y-81187609D01*
X96118848Y-81166585D01*
X96108527Y-81144448D01*
X96100416Y-81121409D01*
X96094590Y-81097689D01*
X96091108Y-81073514D01*
X96090001Y-81049114D01*
X96091282Y-81024723D01*
X96094935Y-81000573D01*
X96100927Y-80976894D01*
X96109202Y-80953914D01*
X96119681Y-80931851D01*
X96132262Y-80910915D01*
X96146825Y-80891307D01*
X96163232Y-80873214D01*
X96181328Y-80856808D01*
X96200937Y-80842247D01*
X96221874Y-80829668D01*
X96243938Y-80819192D01*
X96266920Y-80810920D01*
X96290598Y-80804929D01*
X96314749Y-80801278D01*
X96339141Y-80800001D01*
X96339580Y-80799999D01*
X96418362Y-80795595D01*
X96490744Y-80784389D01*
X96561700Y-80766171D01*
X96630527Y-80741119D01*
X96696585Y-80709469D01*
X96759224Y-80671534D01*
X96817879Y-80627653D01*
X96871968Y-80578264D01*
X96920975Y-80523835D01*
X96964445Y-80464873D01*
X97001944Y-80401969D01*
X97033133Y-80335689D01*
X97057703Y-80266687D01*
X97075424Y-80195613D01*
X97086123Y-80123155D01*
X97090299Y-80037786D01*
X97090493Y-80034301D01*
X97093216Y-80010029D01*
X97098294Y-79986137D01*
X97105680Y-79962856D01*
X97115302Y-79940406D01*
X97127068Y-79919003D01*
X97140869Y-79898849D01*
X97156568Y-79880139D01*
X97174019Y-79863050D01*
X97193054Y-79847745D01*
X97213492Y-79834371D01*
X97235138Y-79823055D01*
X97257784Y-79813905D01*
X97281216Y-79807010D01*
X97305208Y-79802432D01*
X97329532Y-79800219D01*
X97353956Y-79800389D01*
G37*
%TD.AperFunction*%
%TA.AperFunction,SMDPad,CuDef*%
%TO.P,U1,3*%
%TO.N,GND*%
G36*
X100853491Y-75900024D02*
G01*
X100857858Y-75900299D01*
X100862214Y-75900299D01*
X100906107Y-75902446D01*
X100906121Y-75902446D01*
X100906137Y-75902448D01*
X100909613Y-75902641D01*
X100920056Y-75903813D01*
X100930430Y-75904830D01*
X100973919Y-75911251D01*
X100973925Y-75911252D01*
X100973932Y-75911253D01*
X100977374Y-75911785D01*
X100987668Y-75913973D01*
X100997885Y-75915996D01*
X101040528Y-75926628D01*
X101040543Y-75926631D01*
X101040559Y-75926636D01*
X101043926Y-75927500D01*
X101053902Y-75930665D01*
X101063925Y-75933691D01*
X101105343Y-75948439D01*
X101105349Y-75948441D01*
X101105353Y-75948443D01*
X101108624Y-75949633D01*
X101118236Y-75953753D01*
X101127931Y-75957749D01*
X101167712Y-75976469D01*
X101170860Y-75977978D01*
X101180028Y-75983018D01*
X101189269Y-75987932D01*
X101227033Y-76010443D01*
X101230019Y-76012251D01*
X101238676Y-76018178D01*
X101247382Y-76023963D01*
X101282751Y-76050039D01*
X101282768Y-76050051D01*
X101282786Y-76050066D01*
X101285565Y-76052144D01*
X101293575Y-76058865D01*
X101301696Y-76065489D01*
X101334368Y-76094907D01*
X101336946Y-76097261D01*
X101344260Y-76104730D01*
X101351698Y-76112116D01*
X101381333Y-76144571D01*
X101381345Y-76144583D01*
X101381357Y-76144598D01*
X101383680Y-76147176D01*
X101390243Y-76155339D01*
X101396914Y-76163403D01*
X101423250Y-76198607D01*
X101425322Y-76201417D01*
X101431058Y-76210184D01*
X101436908Y-76218856D01*
X101459683Y-76256462D01*
X101461471Y-76259461D01*
X101466307Y-76268712D01*
X101471302Y-76277950D01*
X101490298Y-76317600D01*
X101491784Y-76320758D01*
X101495704Y-76330461D01*
X101499761Y-76340111D01*
X101514791Y-76381406D01*
X101514798Y-76381424D01*
X101514805Y-76381445D01*
X101515969Y-76384713D01*
X101518932Y-76394782D01*
X101522020Y-76404757D01*
X101532951Y-76447328D01*
X101532955Y-76447342D01*
X101532958Y-76447359D01*
X101533799Y-76450728D01*
X101535761Y-76461014D01*
X101537866Y-76471268D01*
X101544592Y-76514716D01*
X101545102Y-76518169D01*
X101546053Y-76528620D01*
X101547145Y-76539008D01*
X101549599Y-76582904D01*
X101549770Y-76586391D01*
X101549736Y-76591199D01*
X101549987Y-76595983D01*
X101549998Y-76599125D01*
X101549996Y-76599909D01*
X101550000Y-76600000D01*
X101550000Y-81400000D01*
X101549976Y-81403491D01*
X101548442Y-81427867D01*
X101544537Y-81451978D01*
X101538298Y-81475592D01*
X101529784Y-81498485D01*
X101519077Y-81520438D01*
X101506278Y-81541242D01*
X101491511Y-81560697D01*
X101474916Y-81578618D01*
X101456651Y-81594834D01*
X101436891Y-81609191D01*
X101415824Y-81621551D01*
X101412500Y-81623087D01*
X101412500Y-82750000D01*
X102900000Y-82750000D01*
X102903491Y-82750024D01*
X102927867Y-82751558D01*
X102951978Y-82755463D01*
X102975592Y-82761702D01*
X102998485Y-82770216D01*
X103020438Y-82780923D01*
X103041242Y-82793722D01*
X103060697Y-82808489D01*
X103078618Y-82825084D01*
X103094834Y-82843349D01*
X103109191Y-82863109D01*
X103121551Y-82884176D01*
X103131796Y-82906348D01*
X103139828Y-82929415D01*
X103145572Y-82953155D01*
X103148971Y-82977342D01*
X103149994Y-83001745D01*
X103148630Y-83026132D01*
X103144894Y-83050269D01*
X103138820Y-83073927D01*
X103130466Y-83096879D01*
X103119912Y-83118906D01*
X103107259Y-83139798D01*
X103092628Y-83159356D01*
X103076159Y-83177393D01*
X103058007Y-83193736D01*
X103038348Y-83208230D01*
X103017368Y-83220737D01*
X102995268Y-83231137D01*
X102972258Y-83239330D01*
X102948559Y-83245239D01*
X102924396Y-83248807D01*
X102900000Y-83250000D01*
X96300000Y-83250000D01*
X96296509Y-83249976D01*
X96272133Y-83248442D01*
X96248022Y-83244537D01*
X96224408Y-83238298D01*
X96201515Y-83229784D01*
X96179562Y-83219077D01*
X96158758Y-83206278D01*
X96139303Y-83191511D01*
X96121382Y-83174916D01*
X96105166Y-83156651D01*
X96090809Y-83136891D01*
X96078449Y-83115824D01*
X96068204Y-83093652D01*
X96060172Y-83070585D01*
X96054428Y-83046845D01*
X96051029Y-83022658D01*
X96050006Y-82998255D01*
X96051370Y-82973868D01*
X96055106Y-82949731D01*
X96061180Y-82926073D01*
X96069534Y-82903121D01*
X96080088Y-82881094D01*
X96092741Y-82860202D01*
X96107372Y-82840644D01*
X96123841Y-82822607D01*
X96141993Y-82806264D01*
X96161652Y-82791770D01*
X96182632Y-82779263D01*
X96204732Y-82768863D01*
X96227742Y-82760670D01*
X96251441Y-82754761D01*
X96275604Y-82751193D01*
X96300000Y-82750000D01*
X100912500Y-82750000D01*
X100912500Y-81400000D01*
X100912524Y-81396509D01*
X100914058Y-81372133D01*
X100917963Y-81348022D01*
X100924202Y-81324408D01*
X100932716Y-81301515D01*
X100943423Y-81279562D01*
X100956222Y-81258758D01*
X100970989Y-81239303D01*
X100987584Y-81221382D01*
X101005849Y-81205166D01*
X101025609Y-81190809D01*
X101046676Y-81178449D01*
X101050000Y-81176913D01*
X101050000Y-76604033D01*
X101048608Y-76579127D01*
X101045622Y-76559842D01*
X101040772Y-76540954D01*
X101034095Y-76522608D01*
X101025664Y-76505013D01*
X101015560Y-76488329D01*
X101003874Y-76472708D01*
X100990715Y-76458297D01*
X100976212Y-76445239D01*
X100960516Y-76433666D01*
X100943757Y-76423676D01*
X100926099Y-76415367D01*
X100907720Y-76408822D01*
X100888793Y-76404103D01*
X100869485Y-76401252D01*
X100843899Y-76400000D01*
X97854033Y-76400000D01*
X97829127Y-76401392D01*
X97809842Y-76404378D01*
X97790954Y-76409228D01*
X97772608Y-76415905D01*
X97755013Y-76424336D01*
X97738329Y-76434440D01*
X97722708Y-76446126D01*
X97708297Y-76459285D01*
X97695239Y-76473788D01*
X97683666Y-76489484D01*
X97673676Y-76506243D01*
X97665367Y-76523901D01*
X97658822Y-76542280D01*
X97654103Y-76561207D01*
X97651252Y-76580515D01*
X97650000Y-76606101D01*
X97650000Y-77100000D01*
X97649976Y-77103491D01*
X97648442Y-77127867D01*
X97644537Y-77151978D01*
X97638298Y-77175592D01*
X97629784Y-77198485D01*
X97619077Y-77220438D01*
X97606278Y-77241242D01*
X97591511Y-77260697D01*
X97574916Y-77278618D01*
X97556651Y-77294834D01*
X97536891Y-77309191D01*
X97515824Y-77321551D01*
X97493652Y-77331796D01*
X97470585Y-77339828D01*
X97446845Y-77345572D01*
X97422658Y-77348971D01*
X97398255Y-77349994D01*
X97373868Y-77348630D01*
X97349731Y-77344894D01*
X97326073Y-77338820D01*
X97303121Y-77330466D01*
X97281094Y-77319912D01*
X97260202Y-77307259D01*
X97240644Y-77292628D01*
X97222607Y-77276159D01*
X97206264Y-77258007D01*
X97191770Y-77238348D01*
X97179263Y-77217368D01*
X97168863Y-77195268D01*
X97160670Y-77172258D01*
X97154761Y-77148559D01*
X97151193Y-77124396D01*
X97150000Y-77100000D01*
X97150000Y-76600000D01*
X97150024Y-76596509D01*
X97150299Y-76592142D01*
X97150299Y-76587786D01*
X97152446Y-76543893D01*
X97152446Y-76543879D01*
X97152448Y-76543863D01*
X97152641Y-76540387D01*
X97153813Y-76529944D01*
X97154830Y-76519570D01*
X97161252Y-76476077D01*
X97161785Y-76472626D01*
X97163973Y-76462332D01*
X97165996Y-76452115D01*
X97176628Y-76409472D01*
X97176631Y-76409457D01*
X97176636Y-76409441D01*
X97177500Y-76406074D01*
X97180665Y-76396098D01*
X97183691Y-76386075D01*
X97198439Y-76344657D01*
X97199633Y-76341376D01*
X97203753Y-76331764D01*
X97207749Y-76322069D01*
X97226469Y-76282288D01*
X97227978Y-76279140D01*
X97233018Y-76269972D01*
X97237932Y-76260731D01*
X97260443Y-76222967D01*
X97262251Y-76219981D01*
X97268178Y-76211324D01*
X97273963Y-76202618D01*
X97300039Y-76167249D01*
X97300051Y-76167232D01*
X97300066Y-76167214D01*
X97302144Y-76164435D01*
X97308865Y-76156425D01*
X97315489Y-76148304D01*
X97344907Y-76115632D01*
X97347261Y-76113054D01*
X97354730Y-76105740D01*
X97362116Y-76098302D01*
X97394571Y-76068667D01*
X97394583Y-76068655D01*
X97394598Y-76068643D01*
X97397176Y-76066320D01*
X97405339Y-76059757D01*
X97413403Y-76053086D01*
X97448607Y-76026750D01*
X97451417Y-76024678D01*
X97460184Y-76018942D01*
X97468856Y-76013092D01*
X97506462Y-75990317D01*
X97509461Y-75988529D01*
X97518712Y-75983693D01*
X97527950Y-75978698D01*
X97567600Y-75959702D01*
X97570758Y-75958216D01*
X97580461Y-75954296D01*
X97590111Y-75950239D01*
X97631406Y-75935209D01*
X97631424Y-75935202D01*
X97631445Y-75935195D01*
X97634713Y-75934031D01*
X97644782Y-75931068D01*
X97654757Y-75927980D01*
X97697328Y-75917049D01*
X97697342Y-75917045D01*
X97697359Y-75917042D01*
X97700728Y-75916201D01*
X97711014Y-75914239D01*
X97721268Y-75912134D01*
X97764716Y-75905408D01*
X97768169Y-75904898D01*
X97778620Y-75903947D01*
X97789008Y-75902855D01*
X97832904Y-75900401D01*
X97836391Y-75900230D01*
X97841199Y-75900264D01*
X97845983Y-75900013D01*
X97849125Y-75900002D01*
X97849909Y-75900004D01*
X97850000Y-75900000D01*
X100850000Y-75900000D01*
X100853491Y-75900024D01*
G37*
%TD.AperFunction*%
D14*
%TO.P,U1,4*%
%TO.N,+3V3*%
X102800000Y-79300000D03*
D15*
%TO.P,U1,~*%
%TO.N,N/C*%
X98350000Y-77150000D03*
%TO.P,U1,4*%
%TO.N,+3V3*%
X96450000Y-77150000D03*
%TO.P,U1,3*%
%TO.N,GND*%
X97400000Y-77150000D03*
%TO.P,U1,1*%
%TO.N,Net-(J1-PadA4)*%
X96450000Y-79850000D03*
%TO.P,U1,2*%
X97400000Y-79850000D03*
%TO.P,U1,~*%
%TO.N,N/C*%
X98350000Y-79850000D03*
%TO.P,U1,4*%
%TO.N,+3V3*%
%TA.AperFunction,SMDPad,CuDef*%
G36*
G01*
X102325000Y-80600000D02*
X103275000Y-80600000D01*
G75*
G02*
X103525000Y-80850000I0J-250000D01*
G01*
X103525000Y-81350000D01*
G75*
G02*
X103275000Y-81600000I-250000J0D01*
G01*
X102325000Y-81600000D01*
G75*
G02*
X102075000Y-81350000I0J250000D01*
G01*
X102075000Y-80850000D01*
G75*
G02*
X102325000Y-80600000I250000J0D01*
G01*
G37*
%TD.AperFunction*%
%TO.P,U1,3*%
%TO.N,GND*%
%TA.AperFunction,SMDPad,CuDef*%
G36*
G01*
X102325000Y-82500000D02*
X103275000Y-82500000D01*
G75*
G02*
X103525000Y-82750000I0J-250000D01*
G01*
X103525000Y-83250000D01*
G75*
G02*
X103275000Y-83500000I-250000J0D01*
G01*
X102325000Y-83500000D01*
G75*
G02*
X102075000Y-83250000I0J250000D01*
G01*
X102075000Y-82750000D01*
G75*
G02*
X102325000Y-82500000I250000J0D01*
G01*
G37*
%TD.AperFunction*%
%TA.AperFunction,SMDPad,CuDef*%
G36*
G01*
X96075000Y-82500000D02*
X97025000Y-82500000D01*
G75*
G02*
X97275000Y-82750000I0J-250000D01*
G01*
X97275000Y-83250000D01*
G75*
G02*
X97025000Y-83500000I-250000J0D01*
G01*
X96075000Y-83500000D01*
G75*
G02*
X95825000Y-83250000I0J250000D01*
G01*
X95825000Y-82750000D01*
G75*
G02*
X96075000Y-82500000I250000J0D01*
G01*
G37*
%TD.AperFunction*%
%TO.P,U1,2*%
%TO.N,Net-(J1-PadA4)*%
%TA.AperFunction,SMDPad,CuDef*%
G36*
G01*
X96075000Y-80600000D02*
X97025000Y-80600000D01*
G75*
G02*
X97275000Y-80850000I0J-250000D01*
G01*
X97275000Y-81350000D01*
G75*
G02*
X97025000Y-81600000I-250000J0D01*
G01*
X96075000Y-81600000D01*
G75*
G02*
X95825000Y-81350000I0J250000D01*
G01*
X95825000Y-80850000D01*
G75*
G02*
X96075000Y-80600000I250000J0D01*
G01*
G37*
%TD.AperFunction*%
%TO.P,U1,~*%
%TO.N,N/C*%
%TA.AperFunction,SMDPad,CuDef*%
G36*
G01*
X95550000Y-78175000D02*
X95050000Y-78175000D01*
G75*
G02*
X94825000Y-77950000I0J225000D01*
G01*
X94825000Y-77500000D01*
G75*
G02*
X95050000Y-77275000I225000J0D01*
G01*
X95550000Y-77275000D01*
G75*
G02*
X95775000Y-77500000I0J-225000D01*
G01*
X95775000Y-77950000D01*
G75*
G02*
X95550000Y-78175000I-225000J0D01*
G01*
G37*
%TD.AperFunction*%
%TA.AperFunction,SMDPad,CuDef*%
G36*
G01*
X95550000Y-79725000D02*
X95050000Y-79725000D01*
G75*
G02*
X94825000Y-79500000I0J225000D01*
G01*
X94825000Y-79050000D01*
G75*
G02*
X95050000Y-78825000I225000J0D01*
G01*
X95550000Y-78825000D01*
G75*
G02*
X95775000Y-79050000I0J-225000D01*
G01*
X95775000Y-79500000D01*
G75*
G02*
X95550000Y-79725000I-225000J0D01*
G01*
G37*
%TD.AperFunction*%
%TA.AperFunction,SMDPad,CuDef*%
G36*
G01*
X97485000Y-82295626D02*
X97485000Y-81044374D01*
G75*
G02*
X97734374Y-80795000I249374J0D01*
G01*
X98660626Y-80795000D01*
G75*
G02*
X98910000Y-81044374I0J-249374D01*
G01*
X98910000Y-82295626D01*
G75*
G02*
X98660626Y-82545000I-249374J0D01*
G01*
X97734374Y-82545000D01*
G75*
G02*
X97485000Y-82295626I0J249374D01*
G01*
G37*
%TD.AperFunction*%
%TO.P,U1,3*%
%TO.N,GND*%
%TA.AperFunction,SMDPad,CuDef*%
G36*
G01*
X100450000Y-82295626D02*
X100450000Y-81044374D01*
G75*
G02*
X100699374Y-80795000I249374J0D01*
G01*
X101625626Y-80795000D01*
G75*
G02*
X101875000Y-81044374I0J-249374D01*
G01*
X101875000Y-82295626D01*
G75*
G02*
X101625626Y-82545000I-249374J0D01*
G01*
X100699374Y-82545000D01*
G75*
G02*
X100450000Y-82295626I0J249374D01*
G01*
G37*
%TD.AperFunction*%
D16*
%TO.P,U1,4*%
%TO.N,+3V3*%
X102800000Y-78550000D03*
%TO.P,U1,~*%
%TO.N,N/C*%
X99800000Y-78550000D03*
%TD*%
D17*
%TO.P,U3,38*%
%TO.N,GND*%
X123750000Y-70745000D03*
%TO.P,U3,37*%
%TO.N,OLED-MOSI*%
X123750000Y-72015000D03*
%TO.P,U3,36*%
%TO.N,IO7*%
X123750000Y-73285000D03*
%TO.P,U3,35*%
%TO.N,Net-(U2-Pad1)*%
X123750000Y-74555000D03*
%TO.P,U3,34*%
%TO.N,Net-(U2-Pad17)*%
X123750000Y-75825000D03*
%TO.P,U3,33*%
%TO.N,OLED-DC*%
X123750000Y-77095000D03*
%TO.P,U3,32*%
%TO.N,Net-(U3-Pad32)*%
X123750000Y-78365000D03*
%TO.P,U3,31*%
%TO.N,OLED-RST*%
X123750000Y-79635000D03*
%TO.P,U3,30*%
%TO.N,OLED-SCLK*%
X123750000Y-80905000D03*
%TO.P,U3,29*%
%TO.N,OLED-CS0*%
X123750000Y-82175000D03*
%TO.P,U3,28*%
%TO.N,IO3*%
X123750000Y-83445000D03*
%TO.P,U3,27*%
%TO.N,IO2*%
X123750000Y-84715000D03*
%TO.P,U3,26*%
%TO.N,IO1*%
X123750000Y-85985000D03*
%TO.P,U3,25*%
%TO.N,Net-(U2-Pad18)*%
X123750000Y-87255000D03*
D18*
%TO.P,U3,24*%
%TO.N,G*%
X120965000Y-88255000D03*
%TO.P,U3,23*%
%TO.N,B*%
X119695000Y-88255000D03*
%TO.P,U3,22*%
%TO.N,Net-(U3-Pad22)*%
X118425000Y-88255000D03*
%TO.P,U3,21*%
%TO.N,Net-(U3-Pad21)*%
X117155000Y-88255000D03*
%TO.P,U3,20*%
%TO.N,Net-(U3-Pad20)*%
X115885000Y-88255000D03*
%TO.P,U3,19*%
%TO.N,Net-(U3-Pad19)*%
X114615000Y-88255000D03*
%TO.P,U3,18*%
%TO.N,Net-(U3-Pad18)*%
X113345000Y-88255000D03*
%TO.P,U3,17*%
%TO.N,Net-(U3-Pad17)*%
X112075000Y-88255000D03*
%TO.P,U3,16*%
%TO.N,IO5*%
X110805000Y-88255000D03*
%TO.P,U3,15*%
%TO.N,GND*%
X109535000Y-88255000D03*
D17*
%TO.P,U3,14*%
%TO.N,R*%
X106750000Y-87255000D03*
%TO.P,U3,13*%
%TO.N,IO4*%
X106750000Y-85985000D03*
%TO.P,U3,12*%
%TO.N,IO6*%
X106750000Y-84715000D03*
%TO.P,U3,11*%
%TO.N,CO2-SCL*%
X106750000Y-83445000D03*
%TO.P,U3,10*%
%TO.N,CO2-SDA*%
X106750000Y-82175000D03*
%TO.P,U3,9*%
%TO.N,Net-(U3-Pad9)*%
X106750000Y-80905000D03*
%TO.P,U3,8*%
%TO.N,Net-(U3-Pad8)*%
X106750000Y-79635000D03*
%TO.P,U3,7*%
%TO.N,Net-(U3-Pad7)*%
X106750000Y-78365000D03*
%TO.P,U3,6*%
%TO.N,Net-(U3-Pad6)*%
X106750000Y-77095000D03*
%TO.P,U3,5*%
%TO.N,Net-(U3-Pad5)*%
X106750000Y-75825000D03*
%TO.P,U3,4*%
%TO.N,Net-(U3-Pad4)*%
X106750000Y-74555000D03*
%TO.P,U3,3*%
%TO.N,Net-(U2-Pad19)*%
X106750000Y-73285000D03*
%TO.P,U3,2*%
%TO.N,+3V3*%
X106750000Y-72015000D03*
%TO.P,U3,1*%
%TO.N,GND*%
X106750000Y-70745000D03*
D19*
%TO.P,U3,39*%
X114250000Y-78245000D03*
%TD*%
D20*
%TO.P,M2,S*%
%TO.N,GND*%
X92500000Y-65500000D03*
X92500000Y-97500000D03*
X132000000Y-97500000D03*
X132000000Y-65500000D03*
D21*
%TO.P,M2,7*%
%TO.N,OLED-RST*%
X92500000Y-89120000D03*
%TO.P,M2,6*%
%TO.N,OLED-DC*%
X92500000Y-86580000D03*
%TO.P,M2,5*%
%TO.N,OLED-CS0*%
X92500000Y-84040000D03*
%TO.P,M2,4*%
%TO.N,OLED-SCLK*%
X92500000Y-81500000D03*
%TO.P,M2,3*%
%TO.N,OLED-MOSI*%
X92500000Y-78960000D03*
%TO.P,M2,2*%
%TO.N,GND*%
X92500000Y-76420000D03*
%TO.P,M2,1*%
%TO.N,+3V3*%
X92500000Y-73880000D03*
%TD*%
D22*
%TO.P,J3,8*%
%TO.N,IO7*%
X126550000Y-93150000D03*
%TO.P,J3,7*%
%TO.N,IO6*%
X124050000Y-93150000D03*
%TO.P,J3,6*%
%TO.N,IO5*%
X121550000Y-93150000D03*
%TO.P,J3,5*%
%TO.N,IO4*%
X119050000Y-93150000D03*
%TO.P,J3,4*%
%TO.N,IO3*%
X116550000Y-93150000D03*
%TO.P,J3,3*%
%TO.N,IO2*%
X114050000Y-93150000D03*
%TO.P,J3,2*%
%TO.N,IO1*%
X111550000Y-93150000D03*
%TO.P,J3,1*%
%TO.N,GND*%
%TA.AperFunction,ComponentPad*%
G36*
G01*
X108200000Y-93825000D02*
X108200000Y-92475000D01*
G75*
G02*
X108450000Y-92225000I250000J0D01*
G01*
X109650000Y-92225000D01*
G75*
G02*
X109900000Y-92475000I0J-250000D01*
G01*
X109900000Y-93825000D01*
G75*
G02*
X109650000Y-94075000I-250000J0D01*
G01*
X108450000Y-94075000D01*
G75*
G02*
X108200000Y-93825000I0J250000D01*
G01*
G37*
%TD.AperFunction*%
%TD*%
%TO.P,R5,2*%
%TO.N,B*%
%TA.AperFunction,SMDPad,CuDef*%
G36*
G01*
X98775000Y-67425000D02*
X98775000Y-67975000D01*
G75*
G02*
X98575000Y-68175000I-200000J0D01*
G01*
X98175000Y-68175000D01*
G75*
G02*
X97975000Y-67975000I0J200000D01*
G01*
X97975000Y-67425000D01*
G75*
G02*
X98175000Y-67225000I200000J0D01*
G01*
X98575000Y-67225000D01*
G75*
G02*
X98775000Y-67425000I0J-200000D01*
G01*
G37*
%TD.AperFunction*%
%TO.P,R5,1*%
%TO.N,Net-(D2-Pad4)*%
%TA.AperFunction,SMDPad,CuDef*%
G36*
G01*
X100425000Y-67425000D02*
X100425000Y-67975000D01*
G75*
G02*
X100225000Y-68175000I-200000J0D01*
G01*
X99825000Y-68175000D01*
G75*
G02*
X99625000Y-67975000I0J200000D01*
G01*
X99625000Y-67425000D01*
G75*
G02*
X99825000Y-67225000I200000J0D01*
G01*
X100225000Y-67225000D01*
G75*
G02*
X100425000Y-67425000I0J-200000D01*
G01*
G37*
%TD.AperFunction*%
%TD*%
%TO.P,R4,2*%
%TO.N,G*%
%TA.AperFunction,SMDPad,CuDef*%
G36*
G01*
X98775000Y-66225000D02*
X98775000Y-66775000D01*
G75*
G02*
X98575000Y-66975000I-200000J0D01*
G01*
X98175000Y-66975000D01*
G75*
G02*
X97975000Y-66775000I0J200000D01*
G01*
X97975000Y-66225000D01*
G75*
G02*
X98175000Y-66025000I200000J0D01*
G01*
X98575000Y-66025000D01*
G75*
G02*
X98775000Y-66225000I0J-200000D01*
G01*
G37*
%TD.AperFunction*%
%TO.P,R4,1*%
%TO.N,Net-(D2-Pad3)*%
%TA.AperFunction,SMDPad,CuDef*%
G36*
G01*
X100425000Y-66225000D02*
X100425000Y-66775000D01*
G75*
G02*
X100225000Y-66975000I-200000J0D01*
G01*
X99825000Y-66975000D01*
G75*
G02*
X99625000Y-66775000I0J200000D01*
G01*
X99625000Y-66225000D01*
G75*
G02*
X99825000Y-66025000I200000J0D01*
G01*
X100225000Y-66025000D01*
G75*
G02*
X100425000Y-66225000I0J-200000D01*
G01*
G37*
%TD.AperFunction*%
%TD*%
%TO.P,R3,2*%
%TO.N,R*%
%TA.AperFunction,SMDPad,CuDef*%
G36*
G01*
X98775000Y-68625000D02*
X98775000Y-69175000D01*
G75*
G02*
X98575000Y-69375000I-200000J0D01*
G01*
X98175000Y-69375000D01*
G75*
G02*
X97975000Y-69175000I0J200000D01*
G01*
X97975000Y-68625000D01*
G75*
G02*
X98175000Y-68425000I200000J0D01*
G01*
X98575000Y-68425000D01*
G75*
G02*
X98775000Y-68625000I0J-200000D01*
G01*
G37*
%TD.AperFunction*%
%TO.P,R3,1*%
%TO.N,Net-(D2-Pad2)*%
%TA.AperFunction,SMDPad,CuDef*%
G36*
G01*
X100425000Y-68625000D02*
X100425000Y-69175000D01*
G75*
G02*
X100225000Y-69375000I-200000J0D01*
G01*
X99825000Y-69375000D01*
G75*
G02*
X99625000Y-69175000I0J200000D01*
G01*
X99625000Y-68625000D01*
G75*
G02*
X99825000Y-68425000I200000J0D01*
G01*
X100225000Y-68425000D01*
G75*
G02*
X100425000Y-68625000I0J-200000D01*
G01*
G37*
%TD.AperFunction*%
%TD*%
D23*
%TO.P,D2,4*%
%TO.N,Net-(D2-Pad4)*%
X98325000Y-65200000D03*
%TO.P,D2,3*%
%TO.N,Net-(D2-Pad3)*%
X100075000Y-65200000D03*
%TO.P,D2,2*%
%TO.N,Net-(D2-Pad2)*%
X100075000Y-64200000D03*
%TO.P,D2,1*%
%TO.N,+3V3*%
X98325000Y-64200000D03*
%TD*%
D24*
%TO.P,U2,21*%
%TO.N,GND*%
X99975000Y-88125000D03*
%TA.AperFunction,SMDPad,CuDef*%
D13*
G36*
X100975000Y-89125000D02*
G01*
X98975000Y-89125000D01*
X98975000Y-87375000D01*
X99225000Y-87125000D01*
X100975000Y-87125000D01*
X100975000Y-89125000D01*
G37*
%TD.AperFunction*%
%TO.P,U2,20*%
%TO.N,+3V3*%
%TA.AperFunction,SMDPad,CuDef*%
G36*
G01*
X98850000Y-86512500D02*
X98850000Y-85937500D01*
G75*
G02*
X98912500Y-85875000I62500J0D01*
G01*
X99037500Y-85875000D01*
G75*
G02*
X99100000Y-85937500I0J-62500D01*
G01*
X99100000Y-86512500D01*
G75*
G02*
X99037500Y-86575000I-62500J0D01*
G01*
X98912500Y-86575000D01*
G75*
G02*
X98850000Y-86512500I0J62500D01*
G01*
G37*
%TD.AperFunction*%
%TO.P,U2,19*%
%TO.N,Net-(U2-Pad19)*%
%TA.AperFunction,SMDPad,CuDef*%
G36*
G01*
X99350000Y-86512500D02*
X99350000Y-85937500D01*
G75*
G02*
X99412500Y-85875000I62500J0D01*
G01*
X99537500Y-85875000D01*
G75*
G02*
X99600000Y-85937500I0J-62500D01*
G01*
X99600000Y-86512500D01*
G75*
G02*
X99537500Y-86575000I-62500J0D01*
G01*
X99412500Y-86575000D01*
G75*
G02*
X99350000Y-86512500I0J62500D01*
G01*
G37*
%TD.AperFunction*%
%TO.P,U2,18*%
%TO.N,Net-(U2-Pad18)*%
%TA.AperFunction,SMDPad,CuDef*%
G36*
G01*
X99850000Y-86512500D02*
X99850000Y-85937500D01*
G75*
G02*
X99912500Y-85875000I62500J0D01*
G01*
X100037500Y-85875000D01*
G75*
G02*
X100100000Y-85937500I0J-62500D01*
G01*
X100100000Y-86512500D01*
G75*
G02*
X100037500Y-86575000I-62500J0D01*
G01*
X99912500Y-86575000D01*
G75*
G02*
X99850000Y-86512500I0J62500D01*
G01*
G37*
%TD.AperFunction*%
%TO.P,U2,17*%
%TO.N,Net-(U2-Pad17)*%
%TA.AperFunction,SMDPad,CuDef*%
G36*
G01*
X100350000Y-86512500D02*
X100350000Y-85937500D01*
G75*
G02*
X100412500Y-85875000I62500J0D01*
G01*
X100537500Y-85875000D01*
G75*
G02*
X100600000Y-85937500I0J-62500D01*
G01*
X100600000Y-86512500D01*
G75*
G02*
X100537500Y-86575000I-62500J0D01*
G01*
X100412500Y-86575000D01*
G75*
G02*
X100350000Y-86512500I0J62500D01*
G01*
G37*
%TD.AperFunction*%
%TO.P,U2,16*%
%TO.N,Net-(U2-Pad16)*%
%TA.AperFunction,SMDPad,CuDef*%
G36*
G01*
X100850000Y-86512500D02*
X100850000Y-85937500D01*
G75*
G02*
X100912500Y-85875000I62500J0D01*
G01*
X101037500Y-85875000D01*
G75*
G02*
X101100000Y-85937500I0J-62500D01*
G01*
X101100000Y-86512500D01*
G75*
G02*
X101037500Y-86575000I-62500J0D01*
G01*
X100912500Y-86575000D01*
G75*
G02*
X100850000Y-86512500I0J62500D01*
G01*
G37*
%TD.AperFunction*%
%TO.P,U2,15*%
%TO.N,Net-(U2-Pad15)*%
%TA.AperFunction,SMDPad,CuDef*%
G36*
G01*
X101525000Y-87187500D02*
X101525000Y-87062500D01*
G75*
G02*
X101587500Y-87000000I62500J0D01*
G01*
X102162500Y-87000000D01*
G75*
G02*
X102225000Y-87062500I0J-62500D01*
G01*
X102225000Y-87187500D01*
G75*
G02*
X102162500Y-87250000I-62500J0D01*
G01*
X101587500Y-87250000D01*
G75*
G02*
X101525000Y-87187500I0J62500D01*
G01*
G37*
%TD.AperFunction*%
%TO.P,U2,14*%
%TO.N,Net-(U2-Pad14)*%
%TA.AperFunction,SMDPad,CuDef*%
G36*
G01*
X101525000Y-87687500D02*
X101525000Y-87562500D01*
G75*
G02*
X101587500Y-87500000I62500J0D01*
G01*
X102162500Y-87500000D01*
G75*
G02*
X102225000Y-87562500I0J-62500D01*
G01*
X102225000Y-87687500D01*
G75*
G02*
X102162500Y-87750000I-62500J0D01*
G01*
X101587500Y-87750000D01*
G75*
G02*
X101525000Y-87687500I0J62500D01*
G01*
G37*
%TD.AperFunction*%
%TO.P,U2,13*%
%TO.N,GND*%
%TA.AperFunction,SMDPad,CuDef*%
G36*
G01*
X101525000Y-88187500D02*
X101525000Y-88062500D01*
G75*
G02*
X101587500Y-88000000I62500J0D01*
G01*
X102162500Y-88000000D01*
G75*
G02*
X102225000Y-88062500I0J-62500D01*
G01*
X102225000Y-88187500D01*
G75*
G02*
X102162500Y-88250000I-62500J0D01*
G01*
X101587500Y-88250000D01*
G75*
G02*
X101525000Y-88187500I0J62500D01*
G01*
G37*
%TD.AperFunction*%
%TO.P,U2,12*%
%TO.N,+3V3*%
%TA.AperFunction,SMDPad,CuDef*%
G36*
G01*
X101525000Y-88687500D02*
X101525000Y-88562500D01*
G75*
G02*
X101587500Y-88500000I62500J0D01*
G01*
X102162500Y-88500000D01*
G75*
G02*
X102225000Y-88562500I0J-62500D01*
G01*
X102225000Y-88687500D01*
G75*
G02*
X102162500Y-88750000I-62500J0D01*
G01*
X101587500Y-88750000D01*
G75*
G02*
X101525000Y-88687500I0J62500D01*
G01*
G37*
%TD.AperFunction*%
%TO.P,U2,11*%
%TA.AperFunction,SMDPad,CuDef*%
G36*
G01*
X101525000Y-89187500D02*
X101525000Y-89062500D01*
G75*
G02*
X101587500Y-89000000I62500J0D01*
G01*
X102162500Y-89000000D01*
G75*
G02*
X102225000Y-89062500I0J-62500D01*
G01*
X102225000Y-89187500D01*
G75*
G02*
X102162500Y-89250000I-62500J0D01*
G01*
X101587500Y-89250000D01*
G75*
G02*
X101525000Y-89187500I0J62500D01*
G01*
G37*
%TD.AperFunction*%
%TO.P,U2,10*%
%TA.AperFunction,SMDPad,CuDef*%
G36*
G01*
X100850000Y-90312500D02*
X100850000Y-89737500D01*
G75*
G02*
X100912500Y-89675000I62500J0D01*
G01*
X101037500Y-89675000D01*
G75*
G02*
X101100000Y-89737500I0J-62500D01*
G01*
X101100000Y-90312500D01*
G75*
G02*
X101037500Y-90375000I-62500J0D01*
G01*
X100912500Y-90375000D01*
G75*
G02*
X100850000Y-90312500I0J62500D01*
G01*
G37*
%TD.AperFunction*%
%TO.P,U2,9*%
%TO.N,Net-(J1-PadA7)*%
%TA.AperFunction,SMDPad,CuDef*%
G36*
G01*
X100350000Y-90312500D02*
X100350000Y-89737500D01*
G75*
G02*
X100412500Y-89675000I62500J0D01*
G01*
X100537500Y-89675000D01*
G75*
G02*
X100600000Y-89737500I0J-62500D01*
G01*
X100600000Y-90312500D01*
G75*
G02*
X100537500Y-90375000I-62500J0D01*
G01*
X100412500Y-90375000D01*
G75*
G02*
X100350000Y-90312500I0J62500D01*
G01*
G37*
%TD.AperFunction*%
%TO.P,U2,8*%
%TO.N,Net-(J1-PadA6)*%
%TA.AperFunction,SMDPad,CuDef*%
G36*
G01*
X99850000Y-90312500D02*
X99850000Y-89737500D01*
G75*
G02*
X99912500Y-89675000I62500J0D01*
G01*
X100037500Y-89675000D01*
G75*
G02*
X100100000Y-89737500I0J-62500D01*
G01*
X100100000Y-90312500D01*
G75*
G02*
X100037500Y-90375000I-62500J0D01*
G01*
X99912500Y-90375000D01*
G75*
G02*
X99850000Y-90312500I0J62500D01*
G01*
G37*
%TD.AperFunction*%
%TO.P,U2,7*%
%TO.N,Net-(U2-Pad7)*%
%TA.AperFunction,SMDPad,CuDef*%
G36*
G01*
X99350000Y-90312500D02*
X99350000Y-89737500D01*
G75*
G02*
X99412500Y-89675000I62500J0D01*
G01*
X99537500Y-89675000D01*
G75*
G02*
X99600000Y-89737500I0J-62500D01*
G01*
X99600000Y-90312500D01*
G75*
G02*
X99537500Y-90375000I-62500J0D01*
G01*
X99412500Y-90375000D01*
G75*
G02*
X99350000Y-90312500I0J62500D01*
G01*
G37*
%TD.AperFunction*%
%TO.P,U2,6*%
%TO.N,GND*%
%TA.AperFunction,SMDPad,CuDef*%
G36*
G01*
X98850000Y-90312500D02*
X98850000Y-89737500D01*
G75*
G02*
X98912500Y-89675000I62500J0D01*
G01*
X99037500Y-89675000D01*
G75*
G02*
X99100000Y-89737500I0J-62500D01*
G01*
X99100000Y-90312500D01*
G75*
G02*
X99037500Y-90375000I-62500J0D01*
G01*
X98912500Y-90375000D01*
G75*
G02*
X98850000Y-90312500I0J62500D01*
G01*
G37*
%TD.AperFunction*%
%TO.P,U2,5*%
%TA.AperFunction,SMDPad,CuDef*%
G36*
G01*
X97725000Y-89187500D02*
X97725000Y-89062500D01*
G75*
G02*
X97787500Y-89000000I62500J0D01*
G01*
X98362500Y-89000000D01*
G75*
G02*
X98425000Y-89062500I0J-62500D01*
G01*
X98425000Y-89187500D01*
G75*
G02*
X98362500Y-89250000I-62500J0D01*
G01*
X97787500Y-89250000D01*
G75*
G02*
X97725000Y-89187500I0J62500D01*
G01*
G37*
%TD.AperFunction*%
%TO.P,U2,4*%
%TA.AperFunction,SMDPad,CuDef*%
G36*
G01*
X97725000Y-88687500D02*
X97725000Y-88562500D01*
G75*
G02*
X97787500Y-88500000I62500J0D01*
G01*
X98362500Y-88500000D01*
G75*
G02*
X98425000Y-88562500I0J-62500D01*
G01*
X98425000Y-88687500D01*
G75*
G02*
X98362500Y-88750000I-62500J0D01*
G01*
X97787500Y-88750000D01*
G75*
G02*
X97725000Y-88687500I0J62500D01*
G01*
G37*
%TD.AperFunction*%
%TO.P,U2,3*%
%TA.AperFunction,SMDPad,CuDef*%
G36*
G01*
X97725000Y-88187500D02*
X97725000Y-88062500D01*
G75*
G02*
X97787500Y-88000000I62500J0D01*
G01*
X98362500Y-88000000D01*
G75*
G02*
X98425000Y-88062500I0J-62500D01*
G01*
X98425000Y-88187500D01*
G75*
G02*
X98362500Y-88250000I-62500J0D01*
G01*
X97787500Y-88250000D01*
G75*
G02*
X97725000Y-88187500I0J62500D01*
G01*
G37*
%TD.AperFunction*%
%TO.P,U2,2*%
%TA.AperFunction,SMDPad,CuDef*%
G36*
G01*
X97725000Y-87687500D02*
X97725000Y-87562500D01*
G75*
G02*
X97787500Y-87500000I62500J0D01*
G01*
X98362500Y-87500000D01*
G75*
G02*
X98425000Y-87562500I0J-62500D01*
G01*
X98425000Y-87687500D01*
G75*
G02*
X98362500Y-87750000I-62500J0D01*
G01*
X97787500Y-87750000D01*
G75*
G02*
X97725000Y-87687500I0J62500D01*
G01*
G37*
%TD.AperFunction*%
%TO.P,U2,1*%
%TO.N,Net-(U2-Pad1)*%
%TA.AperFunction,SMDPad,CuDef*%
G36*
G01*
X97725000Y-87187500D02*
X97725000Y-87062500D01*
G75*
G02*
X97787500Y-87000000I62500J0D01*
G01*
X98362500Y-87000000D01*
G75*
G02*
X98425000Y-87062500I0J-62500D01*
G01*
X98425000Y-87187500D01*
G75*
G02*
X98362500Y-87250000I-62500J0D01*
G01*
X97787500Y-87250000D01*
G75*
G02*
X97725000Y-87187500I0J62500D01*
G01*
G37*
%TD.AperFunction*%
%TD*%
%TO.P,R2,2*%
%TO.N,GND*%
%TA.AperFunction,SMDPad,CuDef*%
G36*
G01*
X91562500Y-92925000D02*
X92037500Y-92925000D01*
G75*
G02*
X92275000Y-93162500I0J-237500D01*
G01*
X92275000Y-93662500D01*
G75*
G02*
X92037500Y-93900000I-237500J0D01*
G01*
X91562500Y-93900000D01*
G75*
G02*
X91325000Y-93662500I0J237500D01*
G01*
X91325000Y-93162500D01*
G75*
G02*
X91562500Y-92925000I237500J0D01*
G01*
G37*
%TD.AperFunction*%
%TO.P,R2,1*%
%TO.N,Net-(J1-PadA5)*%
%TA.AperFunction,SMDPad,CuDef*%
G36*
G01*
X91562500Y-91100000D02*
X92037500Y-91100000D01*
G75*
G02*
X92275000Y-91337500I0J-237500D01*
G01*
X92275000Y-91837500D01*
G75*
G02*
X92037500Y-92075000I-237500J0D01*
G01*
X91562500Y-92075000D01*
G75*
G02*
X91325000Y-91837500I0J237500D01*
G01*
X91325000Y-91337500D01*
G75*
G02*
X91562500Y-91100000I237500J0D01*
G01*
G37*
%TD.AperFunction*%
%TD*%
%TO.P,R1,2*%
%TO.N,GND*%
%TA.AperFunction,SMDPad,CuDef*%
G36*
G01*
X93062500Y-92925000D02*
X93537500Y-92925000D01*
G75*
G02*
X93775000Y-93162500I0J-237500D01*
G01*
X93775000Y-93662500D01*
G75*
G02*
X93537500Y-93900000I-237500J0D01*
G01*
X93062500Y-93900000D01*
G75*
G02*
X92825000Y-93662500I0J237500D01*
G01*
X92825000Y-93162500D01*
G75*
G02*
X93062500Y-92925000I237500J0D01*
G01*
G37*
%TD.AperFunction*%
%TO.P,R1,1*%
%TO.N,Net-(J1-PadB5)*%
%TA.AperFunction,SMDPad,CuDef*%
G36*
G01*
X93062500Y-91100000D02*
X93537500Y-91100000D01*
G75*
G02*
X93775000Y-91337500I0J-237500D01*
G01*
X93775000Y-91837500D01*
G75*
G02*
X93537500Y-92075000I-237500J0D01*
G01*
X93062500Y-92075000D01*
G75*
G02*
X92825000Y-91837500I0J237500D01*
G01*
X92825000Y-91337500D01*
G75*
G02*
X93062500Y-91100000I237500J0D01*
G01*
G37*
%TD.AperFunction*%
%TD*%
D25*
%TO.P,J2,2*%
%TO.N,Net-(J1-PadA4)*%
X108740000Y-96000000D03*
D26*
%TO.P,J2,1*%
%TO.N,GND*%
X106200000Y-96000000D03*
%TD*%
D21*
%TO.P,M1,4*%
%TO.N,CO2-SDA*%
X104220000Y-70800000D03*
%TO.P,M1,3*%
%TO.N,CO2-SCL*%
X101680000Y-70800000D03*
%TO.P,M1,2*%
%TO.N,GND*%
X99140000Y-70800000D03*
%TO.P,M1,1*%
%TO.N,+3V3*%
X96600000Y-70800000D03*
%TD*%
D27*
%TO.P,J1,S1*%
%TO.N,GND*%
X99750000Y-97250000D03*
%TA.AperFunction,SMDPad,CuDef*%
D13*
G36*
X96563071Y-93010685D02*
G01*
X96575139Y-93012555D01*
X96586968Y-93015591D01*
X96598444Y-93019769D01*
X96609457Y-93025047D01*
X96619903Y-93031373D01*
X96629681Y-93038688D01*
X96638699Y-93046924D01*
X96646871Y-93056001D01*
X96654118Y-93065830D01*
X96660370Y-93076320D01*
X96665570Y-93087371D01*
X96669666Y-93098875D01*
X96672620Y-93110725D01*
X96674404Y-93122807D01*
X96675000Y-93135005D01*
X96674402Y-93147203D01*
X96672618Y-93159284D01*
X96669663Y-93171134D01*
X96665566Y-93182638D01*
X96660366Y-93193688D01*
X96654112Y-93204178D01*
X96646865Y-93214007D01*
X96638692Y-93223082D01*
X96629674Y-93231317D01*
X96619895Y-93238632D01*
X96609449Y-93244958D01*
X96598435Y-93250235D01*
X96586959Y-93254411D01*
X96575129Y-93257447D01*
X96563061Y-93259315D01*
X96550868Y-93259997D01*
X96542977Y-93260052D01*
X96473107Y-93264448D01*
X96406573Y-93275224D01*
X96341405Y-93292443D01*
X96278238Y-93315934D01*
X96217665Y-93345477D01*
X96160261Y-93380792D01*
X96106576Y-93421541D01*
X96057120Y-93467337D01*
X96012373Y-93517737D01*
X95972754Y-93572269D01*
X95938653Y-93630392D01*
X95910381Y-93691580D01*
X95888216Y-93755228D01*
X95872368Y-93820739D01*
X95862988Y-93887476D01*
X95860166Y-93954813D01*
X95863929Y-94022106D01*
X95874240Y-94088718D01*
X95891001Y-94153998D01*
X95912742Y-94213729D01*
X95914112Y-94215691D01*
X96161285Y-94505000D01*
X96751371Y-94505000D01*
X96735529Y-94253200D01*
X96735431Y-94251458D01*
X96735431Y-94248835D01*
X96735285Y-94246225D01*
X96735003Y-94205874D01*
X96735003Y-94204129D01*
X96735685Y-94191934D01*
X96737553Y-94179866D01*
X96740590Y-94168038D01*
X96744767Y-94156561D01*
X96750044Y-94145548D01*
X96756370Y-94135102D01*
X96763685Y-94125323D01*
X96771920Y-94116304D01*
X96780996Y-94108133D01*
X96790826Y-94100885D01*
X96801315Y-94094632D01*
X96812365Y-94089432D01*
X96823870Y-94085336D01*
X96835719Y-94082381D01*
X96847801Y-94080596D01*
X96859999Y-94080000D01*
X96872197Y-94080597D01*
X96884279Y-94082380D01*
X96896129Y-94085335D01*
X96907633Y-94089431D01*
X96918683Y-94094631D01*
X96929173Y-94100884D01*
X96939003Y-94108132D01*
X96948078Y-94116303D01*
X96956314Y-94125321D01*
X96963629Y-94135100D01*
X96969955Y-94145546D01*
X96975232Y-94156560D01*
X96979410Y-94168036D01*
X96982446Y-94179865D01*
X96984315Y-94191933D01*
X96984997Y-94204126D01*
X96985255Y-94240993D01*
X97001865Y-94505000D01*
X102497196Y-94505000D01*
X102501655Y-94474804D01*
X102515149Y-94198894D01*
X102515246Y-94197151D01*
X102516608Y-94185014D01*
X102519148Y-94173069D01*
X102522840Y-94161429D01*
X102527651Y-94150203D01*
X102533534Y-94139502D01*
X102540434Y-94129425D01*
X102548283Y-94120070D01*
X102557009Y-94111525D01*
X102566527Y-94103873D01*
X102576746Y-94097185D01*
X102587569Y-94091528D01*
X102598892Y-94086953D01*
X102610607Y-94083505D01*
X102622603Y-94081216D01*
X102634766Y-94080109D01*
X102646978Y-94080195D01*
X102659123Y-94081472D01*
X102671087Y-94083927D01*
X102682753Y-94087538D01*
X102694010Y-94092271D01*
X102704753Y-94098080D01*
X102714878Y-94104908D01*
X102724288Y-94112693D01*
X102732893Y-94121359D01*
X102740612Y-94130822D01*
X102747370Y-94140995D01*
X102753103Y-94151778D01*
X102757757Y-94163069D01*
X102761287Y-94174760D01*
X102763659Y-94186740D01*
X102764850Y-94198894D01*
X102764851Y-94211106D01*
X102751058Y-94493121D01*
X102750961Y-94494864D01*
X102750371Y-94500118D01*
X102749893Y-94505000D01*
X103340209Y-94505000D01*
X103381934Y-94462229D01*
X103593014Y-94198671D01*
X103611783Y-94144774D01*
X103627632Y-94079261D01*
X103637012Y-94012524D01*
X103639834Y-93945187D01*
X103636071Y-93877894D01*
X103625760Y-93811286D01*
X103608998Y-93746002D01*
X103585949Y-93682677D01*
X103556825Y-93621888D01*
X103521912Y-93564239D01*
X103481542Y-93510276D01*
X103436093Y-93460504D01*
X103386003Y-93415402D01*
X103331756Y-93375408D01*
X103273866Y-93340899D01*
X103212879Y-93312200D01*
X103149392Y-93289594D01*
X103083993Y-93273288D01*
X103017319Y-93263442D01*
X102943893Y-93259851D01*
X102942151Y-93259754D01*
X102930014Y-93258392D01*
X102918069Y-93255852D01*
X102906428Y-93252160D01*
X102895203Y-93247349D01*
X102884502Y-93241465D01*
X102874425Y-93234566D01*
X102865070Y-93226716D01*
X102856525Y-93217990D01*
X102848873Y-93208472D01*
X102842185Y-93198253D01*
X102836528Y-93187431D01*
X102831953Y-93176108D01*
X102828505Y-93164393D01*
X102826216Y-93152396D01*
X102825109Y-93140234D01*
X102825195Y-93128021D01*
X102826472Y-93115876D01*
X102828927Y-93103913D01*
X102832538Y-93092246D01*
X102837271Y-93080989D01*
X102843080Y-93070246D01*
X102849909Y-93060122D01*
X102857694Y-93050712D01*
X102866359Y-93042107D01*
X102875823Y-93034388D01*
X102885995Y-93027630D01*
X102896778Y-93021897D01*
X102908069Y-93017243D01*
X102919760Y-93013713D01*
X102931740Y-93011341D01*
X102943894Y-93010150D01*
X102956107Y-93010149D01*
X103035637Y-93014039D01*
X103037379Y-93014136D01*
X103042633Y-93014726D01*
X103047791Y-93015231D01*
X103126561Y-93026863D01*
X103128286Y-93027130D01*
X103133412Y-93028219D01*
X103138541Y-93029235D01*
X103215801Y-93048498D01*
X103217491Y-93048932D01*
X103222486Y-93050516D01*
X103227492Y-93052028D01*
X103302504Y-93078738D01*
X103304143Y-93079335D01*
X103308953Y-93081396D01*
X103313795Y-93083392D01*
X103385841Y-93117295D01*
X103387415Y-93118049D01*
X103392033Y-93120587D01*
X103396624Y-93123028D01*
X103465019Y-93163799D01*
X103466511Y-93164702D01*
X103470861Y-93167680D01*
X103475191Y-93170557D01*
X103539281Y-93217808D01*
X103540678Y-93218853D01*
X103544687Y-93222217D01*
X103548746Y-93225527D01*
X103607918Y-93278807D01*
X103609207Y-93279983D01*
X103612874Y-93283729D01*
X103616584Y-93287412D01*
X103670275Y-93346211D01*
X103671442Y-93347507D01*
X103674742Y-93351612D01*
X103678059Y-93355621D01*
X103725757Y-93419380D01*
X103726793Y-93420784D01*
X103729670Y-93425181D01*
X103732586Y-93429504D01*
X103773834Y-93497612D01*
X103774728Y-93499111D01*
X103777154Y-93503753D01*
X103779644Y-93508357D01*
X103814048Y-93580166D01*
X103814791Y-93581744D01*
X103816775Y-93586656D01*
X103818779Y-93591422D01*
X103846013Y-93666244D01*
X103846599Y-93667888D01*
X103848087Y-93672945D01*
X103849625Y-93677912D01*
X103869427Y-93755035D01*
X103869849Y-93756728D01*
X103870831Y-93761874D01*
X103871883Y-93766999D01*
X103875392Y-93789668D01*
X103940027Y-93690484D01*
X103940990Y-93689029D01*
X103948287Y-93679235D01*
X103956505Y-93670202D01*
X103965565Y-93662013D01*
X103975381Y-93654747D01*
X103985859Y-93648474D01*
X103996899Y-93643253D01*
X104008395Y-93639134D01*
X104020240Y-93636157D01*
X104032318Y-93634351D01*
X104044515Y-93633730D01*
X104056714Y-93634304D01*
X104068798Y-93636064D01*
X104080653Y-93638996D01*
X104092166Y-93643071D01*
X104103227Y-93648250D01*
X104113729Y-93654483D01*
X104123572Y-93661712D01*
X104132663Y-93669866D01*
X104140916Y-93678869D01*
X104148249Y-93688633D01*
X104154596Y-93699068D01*
X104159893Y-93710071D01*
X104164092Y-93721539D01*
X104167151Y-93733362D01*
X104169043Y-93745427D01*
X104169748Y-93757619D01*
X104169260Y-93769822D01*
X104167583Y-93781918D01*
X104164734Y-93793794D01*
X104160739Y-93805335D01*
X104155638Y-93816430D01*
X104149479Y-93826976D01*
X103884173Y-94234097D01*
X103883210Y-94235552D01*
X103880060Y-94239779D01*
X103877013Y-94243991D01*
X103809808Y-94327904D01*
X103785728Y-94380018D01*
X103784985Y-94381597D01*
X103782485Y-94386220D01*
X103780070Y-94390840D01*
X103739777Y-94459518D01*
X103738884Y-94461017D01*
X103735937Y-94465386D01*
X103733089Y-94469738D01*
X103686287Y-94534156D01*
X103685251Y-94535560D01*
X103681897Y-94539614D01*
X103678635Y-94543672D01*
X103625770Y-94603216D01*
X103624603Y-94604513D01*
X103620877Y-94608213D01*
X103617225Y-94611943D01*
X103558802Y-94666042D01*
X103557513Y-94667219D01*
X103553473Y-94670514D01*
X103549448Y-94673892D01*
X103500000Y-94711425D01*
X103500000Y-97232838D01*
X103668597Y-97356232D01*
X103669998Y-97357272D01*
X103674021Y-97360624D01*
X103678089Y-97363918D01*
X104123053Y-97761762D01*
X104124346Y-97762934D01*
X104126033Y-97764645D01*
X104127816Y-97766250D01*
X104158080Y-97796305D01*
X104159310Y-97797543D01*
X104167419Y-97806676D01*
X104174596Y-97816556D01*
X104180776Y-97827089D01*
X104185899Y-97838176D01*
X104189915Y-97849709D01*
X104192786Y-97861579D01*
X104194486Y-97873672D01*
X104194997Y-97885874D01*
X104194315Y-97898068D01*
X104192447Y-97910137D01*
X104189409Y-97921965D01*
X104185233Y-97933441D01*
X104179956Y-97944454D01*
X104173630Y-97954900D01*
X104166314Y-97964680D01*
X104158079Y-97973698D01*
X104149003Y-97981869D01*
X104139173Y-97989116D01*
X104128683Y-97995370D01*
X104117633Y-98000569D01*
X104106128Y-98004666D01*
X104094279Y-98007620D01*
X104082197Y-98009404D01*
X104069999Y-98010000D01*
X104057802Y-98009404D01*
X104045720Y-98007619D01*
X104033871Y-98004665D01*
X104022366Y-98000568D01*
X104011315Y-97995368D01*
X104000826Y-97989114D01*
X103990996Y-97981867D01*
X103981920Y-97973696D01*
X103953984Y-97945954D01*
X103516015Y-97554363D01*
X103216293Y-97335000D01*
X102250000Y-97335000D01*
X102250000Y-98435000D01*
X103500000Y-98435000D01*
X103500000Y-99995000D01*
X96000000Y-99995000D01*
X96000000Y-98435000D01*
X97250000Y-98435000D01*
X97250000Y-97335000D01*
X96282537Y-97335000D01*
X95951610Y-97580769D01*
X95513965Y-97977601D01*
X95512664Y-97978764D01*
X95503119Y-97986383D01*
X95492877Y-97993034D01*
X95482035Y-97998655D01*
X95470696Y-98003190D01*
X95458968Y-98006597D01*
X95446964Y-98008843D01*
X95434799Y-98009908D01*
X95422587Y-98009780D01*
X95410445Y-98008461D01*
X95398491Y-98005964D01*
X95386838Y-98002311D01*
X95375596Y-97997540D01*
X95364874Y-97991694D01*
X95354773Y-97984830D01*
X95345390Y-97977012D01*
X95336815Y-97968316D01*
X95329130Y-97958826D01*
X95322407Y-97948630D01*
X95316711Y-97937827D01*
X95312097Y-97926520D01*
X95308608Y-97914817D01*
X95306278Y-97902829D01*
X95305129Y-97890670D01*
X95305172Y-97878458D01*
X95306405Y-97866308D01*
X95308819Y-97854337D01*
X95312390Y-97842658D01*
X95317083Y-97831383D01*
X95322854Y-97820620D01*
X95329648Y-97810472D01*
X95337400Y-97801035D01*
X95346035Y-97792399D01*
X95788211Y-97391459D01*
X95789512Y-97390296D01*
X95793633Y-97387006D01*
X95797648Y-97383708D01*
X96000000Y-97233428D01*
X96000000Y-94711152D01*
X95960719Y-94682192D01*
X95959321Y-94681147D01*
X95955304Y-94677776D01*
X95951254Y-94674473D01*
X95892081Y-94621193D01*
X95890793Y-94620016D01*
X95887146Y-94616292D01*
X95883416Y-94612588D01*
X95829725Y-94553789D01*
X95828557Y-94552492D01*
X95825254Y-94548384D01*
X95821941Y-94544379D01*
X95774243Y-94480620D01*
X95773207Y-94479216D01*
X95770330Y-94474819D01*
X95767414Y-94470496D01*
X95726166Y-94402388D01*
X95725272Y-94400889D01*
X95722839Y-94396235D01*
X95720356Y-94391643D01*
X95694756Y-94338209D01*
X95434504Y-93965276D01*
X95433516Y-93963838D01*
X95431696Y-93960845D01*
X95429764Y-93957950D01*
X95322752Y-93779209D01*
X95321866Y-93777706D01*
X95316263Y-93766854D01*
X95311746Y-93755508D01*
X95308357Y-93743775D01*
X95306129Y-93731767D01*
X95305085Y-93719600D01*
X95305232Y-93707388D01*
X95306570Y-93695250D01*
X95309087Y-93683299D01*
X95312758Y-93671651D01*
X95317547Y-93660417D01*
X95323410Y-93649705D01*
X95330290Y-93639615D01*
X95338122Y-93630245D01*
X95346831Y-93621683D01*
X95356335Y-93614012D01*
X95366541Y-93607306D01*
X95377353Y-93601628D01*
X95388668Y-93597031D01*
X95400377Y-93593561D01*
X95412368Y-93591250D01*
X95424528Y-93590120D01*
X95436740Y-93590182D01*
X95448888Y-93591435D01*
X95460856Y-93593869D01*
X95472529Y-93597457D01*
X95483796Y-93602169D01*
X95494550Y-93607957D01*
X95504687Y-93614766D01*
X95514112Y-93622533D01*
X95522734Y-93631183D01*
X95530470Y-93640632D01*
X95537248Y-93650791D01*
X95623540Y-93794923D01*
X95625653Y-93779887D01*
X95625907Y-93778160D01*
X95626970Y-93772980D01*
X95627941Y-93767891D01*
X95646664Y-93690499D01*
X95647086Y-93688806D01*
X95648636Y-93683801D01*
X95650112Y-93678784D01*
X95676298Y-93603588D01*
X95676883Y-93601944D01*
X95678917Y-93597105D01*
X95680873Y-93592264D01*
X95714272Y-93519983D01*
X95715015Y-93518404D01*
X95717506Y-93513797D01*
X95719930Y-93509160D01*
X95760223Y-93440482D01*
X95761116Y-93438983D01*
X95764053Y-93434628D01*
X95766910Y-93430262D01*
X95813713Y-93365845D01*
X95814748Y-93364440D01*
X95818110Y-93360377D01*
X95821365Y-93356328D01*
X95874230Y-93296784D01*
X95875397Y-93295487D01*
X95879143Y-93291767D01*
X95882775Y-93288058D01*
X95941198Y-93233958D01*
X95942486Y-93232781D01*
X95946567Y-93229453D01*
X95950553Y-93226108D01*
X96013977Y-93177966D01*
X96015374Y-93176921D01*
X96019740Y-93174020D01*
X96024054Y-93171066D01*
X96091873Y-93129344D01*
X96093366Y-93128440D01*
X96098017Y-93125967D01*
X96102575Y-93123461D01*
X96174140Y-93088556D01*
X96175714Y-93087802D01*
X96180567Y-93085802D01*
X96185366Y-93083745D01*
X96259998Y-93055989D01*
X96261638Y-93055392D01*
X96266661Y-93053876D01*
X96271638Y-93052297D01*
X96348621Y-93031957D01*
X96350311Y-93031523D01*
X96355470Y-93030502D01*
X96360566Y-93029418D01*
X96439167Y-93016687D01*
X96440891Y-93016420D01*
X96446128Y-93015906D01*
X96451304Y-93015326D01*
X96530772Y-93010326D01*
X96532514Y-93010228D01*
X96535143Y-93010228D01*
X96537753Y-93010082D01*
X96549132Y-93010003D01*
X96550877Y-93010003D01*
X96563071Y-93010685D01*
G37*
%TD.AperFunction*%
D28*
%TO.P,J1,A12*%
X102950000Y-93135000D03*
%TO.P,J1,A4*%
%TO.N,Net-(J1-PadA4)*%
X97350000Y-93135000D03*
%TO.P,J1,B12*%
%TO.N,GND*%
X96550000Y-93135000D03*
%TO.P,J1,B4*%
%TO.N,Net-(J1-PadA4)*%
X102150000Y-93135000D03*
D29*
%TO.P,J1,S1*%
%TO.N,GND*%
X104070000Y-97885000D03*
X95430000Y-97885000D03*
D30*
X104070000Y-93715000D03*
X95430000Y-93715000D03*
%TO.P,J1,A7*%
%TO.N,Net-(J1-PadA7)*%
%TA.AperFunction,SMDPad,CuDef*%
G36*
G01*
X99850000Y-93630000D02*
X99850000Y-92640000D01*
G75*
G02*
X99925000Y-92565000I75000J0D01*
G01*
X100075000Y-92565000D01*
G75*
G02*
X100150000Y-92640000I0J-75000D01*
G01*
X100150000Y-93630000D01*
G75*
G02*
X100075000Y-93705000I-75000J0D01*
G01*
X99925000Y-93705000D01*
G75*
G02*
X99850000Y-93630000I0J75000D01*
G01*
G37*
%TD.AperFunction*%
%TO.P,J1,A6*%
%TO.N,Net-(J1-PadA6)*%
%TA.AperFunction,SMDPad,CuDef*%
G36*
G01*
X99350000Y-93630000D02*
X99350000Y-92640000D01*
G75*
G02*
X99425000Y-92565000I75000J0D01*
G01*
X99575000Y-92565000D01*
G75*
G02*
X99650000Y-92640000I0J-75000D01*
G01*
X99650000Y-93630000D01*
G75*
G02*
X99575000Y-93705000I-75000J0D01*
G01*
X99425000Y-93705000D01*
G75*
G02*
X99350000Y-93630000I0J75000D01*
G01*
G37*
%TD.AperFunction*%
%TO.P,J1,B6*%
%TA.AperFunction,SMDPad,CuDef*%
G36*
G01*
X100350000Y-93630000D02*
X100350000Y-92640000D01*
G75*
G02*
X100425000Y-92565000I75000J0D01*
G01*
X100575000Y-92565000D01*
G75*
G02*
X100650000Y-92640000I0J-75000D01*
G01*
X100650000Y-93630000D01*
G75*
G02*
X100575000Y-93705000I-75000J0D01*
G01*
X100425000Y-93705000D01*
G75*
G02*
X100350000Y-93630000I0J75000D01*
G01*
G37*
%TD.AperFunction*%
%TO.P,J1,B7*%
%TO.N,Net-(J1-PadA7)*%
%TA.AperFunction,SMDPad,CuDef*%
G36*
G01*
X98850000Y-93630000D02*
X98850000Y-92640000D01*
G75*
G02*
X98925000Y-92565000I75000J0D01*
G01*
X99075000Y-92565000D01*
G75*
G02*
X99150000Y-92640000I0J-75000D01*
G01*
X99150000Y-93630000D01*
G75*
G02*
X99075000Y-93705000I-75000J0D01*
G01*
X98925000Y-93705000D01*
G75*
G02*
X98850000Y-93630000I0J75000D01*
G01*
G37*
%TD.AperFunction*%
%TO.P,J1,A8*%
%TO.N,Net-(J1-PadA8)*%
%TA.AperFunction,SMDPad,CuDef*%
G36*
G01*
X100850000Y-93630000D02*
X100850000Y-92640000D01*
G75*
G02*
X100925000Y-92565000I75000J0D01*
G01*
X101075000Y-92565000D01*
G75*
G02*
X101150000Y-92640000I0J-75000D01*
G01*
X101150000Y-93630000D01*
G75*
G02*
X101075000Y-93705000I-75000J0D01*
G01*
X100925000Y-93705000D01*
G75*
G02*
X100850000Y-93630000I0J75000D01*
G01*
G37*
%TD.AperFunction*%
%TO.P,J1,A5*%
%TO.N,Net-(J1-PadA5)*%
%TA.AperFunction,SMDPad,CuDef*%
G36*
G01*
X98350000Y-93630000D02*
X98350000Y-92640000D01*
G75*
G02*
X98425000Y-92565000I75000J0D01*
G01*
X98575000Y-92565000D01*
G75*
G02*
X98650000Y-92640000I0J-75000D01*
G01*
X98650000Y-93630000D01*
G75*
G02*
X98575000Y-93705000I-75000J0D01*
G01*
X98425000Y-93705000D01*
G75*
G02*
X98350000Y-93630000I0J75000D01*
G01*
G37*
%TD.AperFunction*%
%TO.P,J1,B5*%
%TO.N,Net-(J1-PadB5)*%
%TA.AperFunction,SMDPad,CuDef*%
G36*
G01*
X101350000Y-93630000D02*
X101350000Y-92640000D01*
G75*
G02*
X101425000Y-92565000I75000J0D01*
G01*
X101575000Y-92565000D01*
G75*
G02*
X101650000Y-92640000I0J-75000D01*
G01*
X101650000Y-93630000D01*
G75*
G02*
X101575000Y-93705000I-75000J0D01*
G01*
X101425000Y-93705000D01*
G75*
G02*
X101350000Y-93630000I0J75000D01*
G01*
G37*
%TD.AperFunction*%
%TO.P,J1,B8*%
%TO.N,Net-(J1-PadB8)*%
%TA.AperFunction,SMDPad,CuDef*%
G36*
G01*
X97850000Y-93630000D02*
X97850000Y-92640000D01*
G75*
G02*
X97925000Y-92565000I75000J0D01*
G01*
X98075000Y-92565000D01*
G75*
G02*
X98150000Y-92640000I0J-75000D01*
G01*
X98150000Y-93630000D01*
G75*
G02*
X98075000Y-93705000I-75000J0D01*
G01*
X97925000Y-93705000D01*
G75*
G02*
X97850000Y-93630000I0J75000D01*
G01*
G37*
%TD.AperFunction*%
D28*
%TO.P,J1,A9*%
%TO.N,Net-(J1-PadA4)*%
X102150000Y-93135000D03*
%TO.P,J1,B9*%
X97350000Y-93135000D03*
%TO.P,J1,B1*%
%TO.N,GND*%
X102950000Y-93135000D03*
D31*
%TO.P,J1,S1*%
X102640000Y-94205000D03*
X96860000Y-94205000D03*
D28*
%TO.P,J1,A1*%
X96550000Y-93135000D03*
%TD*%
D32*
%TO.N,Net-(J1-PadA7)*%
X100243639Y-91243639D03*
X98243721Y-91250081D03*
%TO.N,Net-(J1-PadA6)*%
X101249945Y-91262653D03*
X99243649Y-91237138D03*
%TO.N,Net-(J1-PadA5)*%
X91800000Y-90500000D03*
X97243710Y-91250000D03*
%TO.N,Net-(J1-PadB5)*%
X102262611Y-91250000D03*
X93300000Y-90500000D03*
%TO.N,GND*%
X99575000Y-81700000D03*
X96000000Y-73600000D03*
X104249974Y-81723400D03*
%TO.N,+3V3*%
X96450010Y-86665976D03*
X105153408Y-73817094D03*
X103821105Y-88455704D03*
X104250000Y-91000000D03*
%TO.N,OLED-RST*%
X119003892Y-81521428D03*
%TO.N,OLED-DC*%
X120300000Y-77500000D03*
%TO.N,OLED-CS0*%
X120461390Y-81053482D03*
%TO.N,OLED-SCLK*%
X120011379Y-79673314D03*
%TO.N,OLED-MOSI*%
X118250022Y-79018618D03*
%TO.N,IO6*%
X107800000Y-91200000D03*
%TO.N,IO5*%
X110384222Y-91371245D03*
%TO.N,IO4*%
X106645627Y-91463228D03*
%TO.N,Net-(U2-Pad19)*%
X98757497Y-84825027D03*
X109001768Y-73300092D03*
%TO.N,Net-(U2-Pad18)*%
X103676016Y-86981767D03*
X124349991Y-88845089D03*
%TO.N,Net-(U2-Pad17)*%
X120650155Y-75574979D03*
X103674990Y-85861051D03*
%TO.N,Net-(U2-Pad1)*%
X121339855Y-74475010D03*
X96530839Y-87772125D03*
%TO.N,R*%
X97400000Y-68900000D03*
X110443109Y-71617790D03*
X108367377Y-84529106D03*
X108800485Y-85974106D03*
%TO.N,G*%
X97400000Y-66500000D03*
X111227906Y-70998018D03*
%TO.N,B*%
X97400000Y-67700000D03*
X108900000Y-71100000D03*
%TD*%
D33*
%TO.N,Net-(J1-PadA4)*%
X102150000Y-93790002D02*
X102150000Y-93135000D01*
X97589999Y-94030001D02*
X101910001Y-94030001D01*
X101910001Y-94030001D02*
X102150000Y-93790002D01*
X97350000Y-93790002D02*
X97589999Y-94030001D01*
X97350000Y-93135000D02*
X97350000Y-93790002D01*
X96475000Y-79850000D02*
X97425000Y-79850000D01*
X96325000Y-81100000D02*
X94774990Y-82650010D01*
X94774990Y-82650010D02*
X94774990Y-91024990D01*
X95989999Y-92239999D02*
X97003588Y-92239999D01*
X94774990Y-91024990D02*
X95989999Y-92239999D01*
X97003588Y-92239999D02*
X97350000Y-92586411D01*
X97350000Y-92586411D02*
X97350000Y-93135000D01*
X106174999Y-94674999D02*
X107414999Y-94674999D01*
X105570000Y-93320000D02*
X105570000Y-94070000D01*
X107414999Y-94674999D02*
X107740001Y-95000001D01*
X104490000Y-92240000D02*
X105570000Y-93320000D01*
X102469413Y-92240000D02*
X104490000Y-92240000D01*
X105570000Y-94070000D02*
X106174999Y-94674999D01*
X102150000Y-92559413D02*
X102469413Y-92240000D01*
X107740001Y-95000001D02*
X108740000Y-96000000D01*
X102150000Y-93135000D02*
X102150000Y-92559413D01*
%TO.N,Net-(J1-PadA7)*%
X99000000Y-92060110D02*
X98243721Y-91303831D01*
X98243721Y-91303831D02*
X98243721Y-91250081D01*
X99000000Y-93135000D02*
X99000000Y-92060110D01*
X100243639Y-91506361D02*
X100000000Y-91750000D01*
X100243639Y-91243639D02*
X100243639Y-91506361D01*
X100000000Y-93135000D02*
X100000000Y-91750000D01*
X100243639Y-90790793D02*
X100243639Y-91243639D01*
X100475000Y-90559432D02*
X100243639Y-90790793D01*
X100475000Y-90025000D02*
X100475000Y-90559432D01*
%TO.N,Net-(J1-PadA6)*%
X101240765Y-91271833D02*
X101249945Y-91262653D01*
X100500000Y-92012598D02*
X101249945Y-91262653D01*
X100500000Y-93135000D02*
X100500000Y-92012598D01*
X99975000Y-90025000D02*
X99975000Y-90423022D01*
X99975000Y-90423022D02*
X99243649Y-91154373D01*
X99243649Y-91154373D02*
X99243649Y-91237138D01*
X99243649Y-91237138D02*
X99243649Y-91493649D01*
X99243649Y-91493649D02*
X99500000Y-91750000D01*
X99500000Y-93135000D02*
X99500000Y-91750000D01*
%TO.N,Net-(J1-PadA5)*%
X91800000Y-90500000D02*
X91800000Y-91587500D01*
X97403026Y-91975001D02*
X97243710Y-91815685D01*
X98500000Y-92315000D02*
X98160001Y-91975001D01*
X98500000Y-93135000D02*
X98500000Y-92315000D01*
X97243710Y-91815685D02*
X97243710Y-91250000D01*
X98160001Y-91975001D02*
X97403026Y-91975001D01*
%TO.N,Net-(J1-PadB5)*%
X101500000Y-93135000D02*
X101500000Y-92315000D01*
X102262611Y-91552389D02*
X102262611Y-91250000D01*
X101500000Y-92315000D02*
X102262611Y-91552389D01*
X93300000Y-90500000D02*
X93300000Y-91587500D01*
%TO.N,GND*%
X103485000Y-93135000D02*
X104075000Y-93725000D01*
X102950000Y-93135000D02*
X103485000Y-93135000D01*
X96015000Y-93135000D02*
X95425000Y-93725000D01*
X96550000Y-93135000D02*
X96015000Y-93135000D01*
X92905000Y-97905000D02*
X92500000Y-97500000D01*
X95425000Y-97905000D02*
X92905000Y-97905000D01*
X130535533Y-70500000D02*
X123750000Y-70500000D01*
X132000000Y-69035533D02*
X130535533Y-70500000D01*
X132000000Y-65500000D02*
X132000000Y-69035533D01*
X102000000Y-88125000D02*
X99975000Y-88125000D01*
X97950000Y-88125000D02*
X99975000Y-88125000D01*
X97950000Y-87625000D02*
X99475000Y-87625000D01*
X97950000Y-88625000D02*
X99475000Y-88625000D01*
X97950000Y-89125000D02*
X98975000Y-89125000D01*
X98975000Y-90150000D02*
X98975000Y-89125000D01*
D34*
X101012500Y-81700000D02*
X101062500Y-81650000D01*
X99575000Y-81700000D02*
X101012500Y-81700000D01*
D33*
X99140000Y-70800000D02*
X99975000Y-70800000D01*
X109050000Y-93150000D02*
X111000000Y-95100000D01*
X111000000Y-95100000D02*
X111000000Y-97500000D01*
X111000000Y-97500000D02*
X110000000Y-98500000D01*
X110000000Y-98500000D02*
X106500000Y-98500000D01*
X106200000Y-98200000D02*
X106200000Y-96000000D01*
X106500000Y-98500000D02*
X106200000Y-98200000D01*
X95650000Y-84775000D02*
X96975000Y-84775000D01*
X95650000Y-88975000D02*
X95650000Y-84775000D01*
X97750000Y-84000000D02*
X101600000Y-84000000D01*
X96975000Y-84775000D02*
X97750000Y-84000000D01*
X95800000Y-89125000D02*
X95650000Y-88975000D01*
X98075000Y-89125000D02*
X95800000Y-89125000D01*
X99475000Y-87625000D02*
X99975000Y-88125000D01*
X98075000Y-87625000D02*
X99475000Y-87625000D01*
X98075000Y-88125000D02*
X99975000Y-88125000D01*
X99475000Y-88625000D02*
X99975000Y-88125000D01*
X98075000Y-88625000D02*
X99475000Y-88625000D01*
X98075000Y-89125000D02*
X98975000Y-89125000D01*
X98975000Y-89125000D02*
X99975000Y-88125000D01*
X98975000Y-90025000D02*
X98975000Y-89125000D01*
X101875000Y-88125000D02*
X99975000Y-88125000D01*
X109535000Y-88255000D02*
X109535000Y-90565000D01*
X109535000Y-90565000D02*
X109300000Y-90800000D01*
X109300000Y-92900000D02*
X109050000Y-93150000D01*
X109300000Y-90800000D02*
X109300000Y-92900000D01*
X99140000Y-70800000D02*
X104100000Y-75760000D01*
X106750000Y-70745000D02*
X106750000Y-70550000D01*
X106750000Y-70550000D02*
X107400000Y-69900000D01*
X107400000Y-69900000D02*
X119300000Y-69900000D01*
X120145000Y-70745000D02*
X123750000Y-70745000D01*
X119300000Y-69900000D02*
X120145000Y-70745000D01*
X116800000Y-98500000D02*
X106500000Y-98500000D01*
X117874990Y-97425010D02*
X116800000Y-98500000D01*
X117874990Y-91825010D02*
X117874990Y-97425010D01*
X125374990Y-92611400D02*
X124063590Y-91300000D01*
X132000000Y-97500000D02*
X128200000Y-97500000D01*
X125374990Y-94674990D02*
X125374990Y-92611400D01*
X128200000Y-97500000D02*
X125374990Y-94674990D01*
X124063590Y-91300000D02*
X118400000Y-91300000D01*
X118400000Y-91300000D02*
X117874990Y-91825010D01*
X95430000Y-93715000D02*
X94400000Y-92685000D01*
X94027500Y-92685000D02*
X93300000Y-93412500D01*
X94400000Y-92685000D02*
X94027500Y-92685000D01*
X99140000Y-70800000D02*
X104249974Y-75909974D01*
X104249974Y-75909974D02*
X104249974Y-81723400D01*
%TO.N,+3V3*%
X95580000Y-70800000D02*
X96600000Y-70800000D01*
X92500000Y-73880000D02*
X95580000Y-70800000D01*
X97565987Y-85549999D02*
X96450010Y-86665976D01*
X102825000Y-75769316D02*
X102130684Y-75075000D01*
X102825000Y-79300000D02*
X102825000Y-75769316D01*
X102130684Y-75075000D02*
X94850000Y-75075000D01*
X93655000Y-73880000D02*
X92500000Y-73880000D01*
X94850000Y-75075000D02*
X93655000Y-73880000D01*
X98975000Y-86225000D02*
X98975000Y-85775000D01*
X98749999Y-85549999D02*
X97565987Y-85549999D01*
X98975000Y-85775000D02*
X98749999Y-85549999D01*
X96600000Y-65750000D02*
X96600000Y-70800000D01*
X98150000Y-64200000D02*
X96600000Y-65750000D01*
X98325000Y-64200000D02*
X98150000Y-64200000D01*
X105500000Y-72015000D02*
X105153408Y-72361592D01*
X106750000Y-72015000D02*
X105500000Y-72015000D01*
X105153408Y-72361592D02*
X105153408Y-73817094D01*
X101875000Y-89125000D02*
X103151809Y-89125000D01*
X102000000Y-88625000D02*
X103651809Y-88625000D01*
X102251809Y-90025000D02*
X103821105Y-88455704D01*
X100975000Y-90025000D02*
X102251809Y-90025000D01*
X103151809Y-89125000D02*
X103821105Y-88455704D01*
X103651809Y-88625000D02*
X103821105Y-88455704D01*
X102825000Y-81371426D02*
X103875010Y-82421436D01*
X104950011Y-87326798D02*
X103821105Y-88455704D01*
X103875010Y-83975010D02*
X104950011Y-85050011D01*
X104950011Y-85050011D02*
X104950011Y-87326798D01*
X103875010Y-82421436D02*
X103875010Y-83975010D01*
X102825000Y-81100000D02*
X102825000Y-81371426D01*
X102475000Y-90025000D02*
X102251809Y-90025000D01*
X103450000Y-91000000D02*
X102475000Y-90025000D01*
X104250000Y-91000000D02*
X103450000Y-91000000D01*
%TO.N,OLED-RST*%
X121729108Y-78619108D02*
X119992581Y-78619108D01*
X122745000Y-79635000D02*
X121729108Y-78619108D01*
X119003892Y-79607797D02*
X119003892Y-81521428D01*
X123750000Y-79635000D02*
X122745000Y-79635000D01*
X119992581Y-78619108D02*
X119003892Y-79607797D01*
%TO.N,OLED-DC*%
X123750000Y-77095000D02*
X120705000Y-77095000D01*
X120300000Y-77500000D02*
X120705000Y-77095000D01*
%TO.N,OLED-CS0*%
X123750000Y-82175000D02*
X121582908Y-82175000D01*
X121582908Y-82175000D02*
X120461390Y-81053482D01*
%TO.N,OLED-SCLK*%
X122225000Y-79975000D02*
X121523315Y-79273315D01*
X122500000Y-80905000D02*
X122225000Y-80630000D01*
X120411378Y-79273315D02*
X120011379Y-79673314D01*
X123750000Y-80905000D02*
X122500000Y-80905000D01*
X121523315Y-79273315D02*
X120411378Y-79273315D01*
X122225000Y-80630000D02*
X122225000Y-79975000D01*
%TO.N,OLED-MOSI*%
X122485000Y-72015000D02*
X122270000Y-72230000D01*
X122270000Y-73230000D02*
X121750000Y-73750000D01*
X121750000Y-73750000D02*
X120650000Y-73750000D01*
X123750000Y-72015000D02*
X122485000Y-72015000D01*
X122270000Y-72230000D02*
X122270000Y-73230000D01*
X120650000Y-73750000D02*
X118250022Y-76149978D01*
X118250022Y-76149978D02*
X118250022Y-79018618D01*
%TO.N,CO2-SDA*%
X106750000Y-82175000D02*
X105500000Y-82175000D01*
X105424999Y-80715584D02*
X105375033Y-80665618D01*
X105375033Y-80665618D02*
X105375033Y-75111723D01*
X105424999Y-82099999D02*
X105424999Y-80715584D01*
X105500000Y-82175000D02*
X105424999Y-82099999D01*
X105375033Y-75111723D02*
X104220000Y-73956690D01*
X104220000Y-73956690D02*
X104220000Y-70800000D01*
%TO.N,CO2-SCL*%
X104974988Y-80901984D02*
X104925022Y-80852018D01*
X106750000Y-83445000D02*
X105500000Y-83445000D01*
X105500000Y-83445000D02*
X104974988Y-82919988D01*
X104974988Y-82919988D02*
X104974988Y-80901984D01*
X104925022Y-75298123D02*
X101680000Y-72053101D01*
X104925022Y-80852018D02*
X104925022Y-75298123D01*
X101680000Y-72053101D02*
X101680000Y-70800000D01*
%TO.N,IO7*%
X126875045Y-92824955D02*
X126550000Y-93150000D01*
X125000000Y-73285000D02*
X123750000Y-73285000D01*
X125157500Y-73442500D02*
X125000000Y-73285000D01*
X125157500Y-84557500D02*
X125157500Y-73442500D01*
X125525012Y-84925012D02*
X125157500Y-84557500D01*
X125525012Y-92125012D02*
X125525012Y-84925012D01*
X126550000Y-93150000D02*
X125525012Y-92125012D01*
%TO.N,IO6*%
X105750000Y-88250000D02*
X107500000Y-88250000D01*
X105424999Y-87924999D02*
X105750000Y-88250000D01*
X107800000Y-88550000D02*
X107800000Y-91200000D01*
X105424999Y-84790001D02*
X105424999Y-87924999D01*
X105500000Y-84715000D02*
X105424999Y-84790001D01*
X107500000Y-88250000D02*
X107800000Y-88550000D01*
X106750000Y-84715000D02*
X105500000Y-84715000D01*
%TO.N,IO5*%
X110384222Y-88675778D02*
X110384222Y-91371245D01*
X110805000Y-88255000D02*
X110384222Y-88675778D01*
%TO.N,IO4*%
X119050000Y-93150000D02*
X119813284Y-93150000D01*
X106750000Y-91358855D02*
X106645627Y-91463228D01*
X108525002Y-91548002D02*
X108148002Y-91925002D01*
X109825002Y-85897823D02*
X109825002Y-86011408D01*
X108525002Y-90751998D02*
X108525002Y-91548002D01*
X109147921Y-85220741D02*
X109825002Y-85897823D01*
X108442892Y-85254108D02*
X108715379Y-85254108D01*
X109825002Y-86011408D02*
X108450009Y-87386401D01*
X108715379Y-85254108D02*
X108748746Y-85220741D01*
X106750000Y-85985000D02*
X107712000Y-85985000D01*
X107712000Y-85985000D02*
X108442892Y-85254108D01*
X108748746Y-85220741D02*
X109147921Y-85220741D01*
X108450009Y-90677005D02*
X108525002Y-90751998D01*
X108148002Y-91925002D02*
X107107401Y-91925002D01*
X107107401Y-91925002D02*
X106645627Y-91463228D01*
X108450009Y-87386401D02*
X108450009Y-90677005D01*
%TO.N,IO3*%
X121740001Y-84204999D02*
X121740001Y-89423589D01*
X121740001Y-89423589D02*
X121583589Y-89580001D01*
X113308588Y-89580001D02*
X110374990Y-92513599D01*
X123750000Y-83445000D02*
X122500000Y-83445000D01*
X121583589Y-89580001D02*
X113308588Y-89580001D01*
X122500000Y-83445000D02*
X121740001Y-84204999D01*
X111063295Y-94400010D02*
X115299990Y-94400010D01*
X115299990Y-94400010D02*
X116550000Y-93150000D01*
X110374990Y-92513599D02*
X110374990Y-93711705D01*
X110374990Y-93711705D02*
X111063295Y-94400010D01*
%TO.N,IO2*%
X125075001Y-89298002D02*
X125075001Y-85274999D01*
X114050000Y-93150000D02*
X114050000Y-90950000D01*
X124270002Y-84470000D02*
X123750000Y-84470000D01*
X114519977Y-90480023D02*
X123892979Y-90480023D01*
X123892979Y-90480023D02*
X125075001Y-89298002D01*
X125075001Y-85274999D02*
X124270002Y-84470000D01*
X114050000Y-90950000D02*
X114519977Y-90480023D01*
%TO.N,IO1*%
X122190012Y-89609988D02*
X121769988Y-90030012D01*
X121769988Y-90030012D02*
X113494988Y-90030012D01*
X113494988Y-90030012D02*
X111550000Y-91975000D01*
X122190012Y-86294988D02*
X122190012Y-89609988D01*
X111550000Y-91975000D02*
X111550000Y-93150000D01*
X122500000Y-85985000D02*
X122190012Y-86294988D01*
X123750000Y-85985000D02*
X122500000Y-85985000D01*
%TO.N,Net-(U2-Pad19)*%
X99475000Y-86100000D02*
X99475000Y-85542530D01*
X99475000Y-86225000D02*
X99475000Y-85542530D01*
X99475000Y-85542530D02*
X98757497Y-84825027D01*
X106750000Y-73285000D02*
X108986676Y-73285000D01*
X108986676Y-73285000D02*
X109001768Y-73300092D01*
%TO.N,Net-(U2-Pad18)*%
X99975000Y-86100000D02*
X99975000Y-85425000D01*
X102116986Y-85119988D02*
X104119988Y-85119988D01*
X101813999Y-84817001D02*
X102116986Y-85119988D01*
X100573566Y-84817001D02*
X101813999Y-84817001D01*
X104119988Y-85119988D02*
X104500000Y-85500000D01*
X104500000Y-86157783D02*
X103676016Y-86981767D01*
X104500000Y-85500000D02*
X104500000Y-86157783D01*
X123750000Y-87255000D02*
X123411288Y-87255000D01*
X123411288Y-87255000D02*
X123211337Y-87454951D01*
X99975000Y-86225000D02*
X99975000Y-85415568D01*
X99975000Y-85415568D02*
X100395284Y-84995284D01*
X100395284Y-84995284D02*
X100573566Y-84817001D01*
X100074979Y-85315588D02*
X100395284Y-84995284D01*
X123750000Y-88245098D02*
X124349991Y-88845089D01*
X123750000Y-87255000D02*
X123750000Y-88245098D01*
%TO.N,Net-(U2-Pad17)*%
X120900176Y-75825000D02*
X120650155Y-75574979D01*
X123750000Y-75825000D02*
X120900176Y-75825000D01*
X101930586Y-85569999D02*
X103383938Y-85569999D01*
X101635577Y-85274990D02*
X101930586Y-85569999D01*
X100475000Y-86100000D02*
X100475000Y-85551978D01*
X100751988Y-85274990D02*
X101635577Y-85274990D01*
X103383938Y-85569999D02*
X103674990Y-85861051D01*
X100475000Y-86225000D02*
X100475000Y-85551978D01*
X100475000Y-85551978D02*
X100751988Y-85274990D01*
%TO.N,Net-(U2-Pad1)*%
X123750000Y-74555000D02*
X121419845Y-74555000D01*
X121419845Y-74555000D02*
X121339855Y-74475010D01*
X98075000Y-87125000D02*
X97375000Y-87125000D01*
X97950000Y-87125000D02*
X97375000Y-87125000D01*
X97177964Y-87125000D02*
X96530839Y-87772125D01*
X97375000Y-87125000D02*
X97177964Y-87125000D01*
%TO.N,Net-(D2-Pad2)*%
X100825001Y-68499999D02*
X100425000Y-68900000D01*
X100425000Y-68900000D02*
X100025000Y-68900000D01*
X100825001Y-64275001D02*
X100825001Y-68499999D01*
X100750000Y-64200000D02*
X100825001Y-64275001D01*
X100075000Y-64200000D02*
X100750000Y-64200000D01*
%TO.N,Net-(D2-Pad4)*%
X99625000Y-67700000D02*
X100025000Y-67700000D01*
X99100010Y-65975010D02*
X99100010Y-67175010D01*
X99100010Y-67175010D02*
X99625000Y-67700000D01*
X98325000Y-65200000D02*
X99100010Y-65975010D01*
%TO.N,Net-(D2-Pad3)*%
X100075000Y-66450000D02*
X100025000Y-66500000D01*
X100075000Y-65200000D02*
X100075000Y-66450000D01*
%TO.N,R*%
X98375000Y-68900000D02*
X97400000Y-68900000D01*
X106750000Y-87255000D02*
X107519591Y-87255000D01*
X107519591Y-87255000D02*
X108800485Y-85974106D01*
X109200317Y-70374998D02*
X108551998Y-70374998D01*
X110027087Y-73300092D02*
X108099978Y-75227200D01*
X108099978Y-84261707D02*
X108367377Y-84529106D01*
X108174998Y-70751998D02*
X108174998Y-71448002D01*
X108174998Y-71448002D02*
X110027087Y-73300092D01*
X108099978Y-75227200D02*
X108099978Y-84261707D01*
X108551998Y-70374998D02*
X108174998Y-70751998D01*
X110443109Y-71617790D02*
X109200317Y-70374998D01*
%TO.N,G*%
X98375000Y-66500000D02*
X97400000Y-66500000D01*
X120965000Y-88010000D02*
X120965000Y-89035000D01*
X120965000Y-88255000D02*
X120965000Y-89035000D01*
X120965000Y-88255000D02*
X120965000Y-87005000D01*
X120965000Y-87005000D02*
X120130000Y-86170000D01*
X111227906Y-73372094D02*
X111227906Y-70998018D01*
X111670000Y-86170000D02*
X109000000Y-83500000D01*
X109000000Y-75600000D02*
X111227906Y-73372094D01*
X120130000Y-86170000D02*
X111670000Y-86170000D01*
X109000000Y-83500000D02*
X109000000Y-75600000D01*
%TO.N,B*%
X98375000Y-67700000D02*
X97400000Y-67700000D01*
X110777895Y-72977895D02*
X108900000Y-71100000D01*
X109149991Y-84286401D02*
X108549989Y-83686400D01*
X108549989Y-83686400D02*
X108549989Y-75413600D01*
X108549989Y-75413600D02*
X110777895Y-73185695D01*
X110777895Y-73185695D02*
X110777895Y-72977895D01*
X111568590Y-86705000D02*
X109149991Y-84286401D01*
X119695000Y-87005000D02*
X119395000Y-86705000D01*
X119395000Y-86705000D02*
X111568590Y-86705000D01*
X119695000Y-88255000D02*
X119695000Y-87005000D01*
%TD*%
D35*
%TO.N,GND*%
X130252627Y-68121118D02*
X130797557Y-68411649D01*
X131388696Y-68590287D01*
X132003328Y-68650168D01*
X132617831Y-68588990D01*
X133208592Y-68409103D01*
X133747373Y-68121118D01*
X133840000Y-67980931D01*
X133840000Y-77015000D01*
X130410000Y-77015000D01*
X130410000Y-90585000D01*
X133840001Y-90585000D01*
X133840001Y-95019070D01*
X133747373Y-94878882D01*
X133202443Y-94588351D01*
X132611304Y-94409713D01*
X131996672Y-94349832D01*
X131382169Y-94411010D01*
X130791408Y-94590897D01*
X130252627Y-94878882D01*
X129976457Y-95296852D01*
X132000000Y-97320395D01*
X132014143Y-97306253D01*
X132193748Y-97485858D01*
X132179605Y-97500000D01*
X132193748Y-97514143D01*
X132014143Y-97693748D01*
X132000000Y-97679605D01*
X131985858Y-97693748D01*
X131806253Y-97514143D01*
X131820395Y-97500000D01*
X129796852Y-95476457D01*
X129378882Y-95752627D01*
X129088351Y-96297557D01*
X128909713Y-96888696D01*
X128849832Y-97503328D01*
X128911010Y-98117831D01*
X129090897Y-98708592D01*
X129378882Y-99247373D01*
X129519069Y-99340000D01*
X94980931Y-99340000D01*
X95121118Y-99247373D01*
X95187690Y-99122507D01*
X95259418Y-99139553D01*
X95507447Y-99148726D01*
X95752499Y-99109335D01*
X95985158Y-99022893D01*
X96067694Y-98978777D01*
X96118043Y-98752648D01*
X103381957Y-98752648D01*
X103432306Y-98978777D01*
X103657944Y-99082168D01*
X103899418Y-99139553D01*
X104147447Y-99148726D01*
X104392499Y-99109335D01*
X104625158Y-99022893D01*
X104707694Y-98978777D01*
X104758043Y-98752648D01*
X104070000Y-98064605D01*
X103381957Y-98752648D01*
X96118043Y-98752648D01*
X95563927Y-98198532D01*
X95590287Y-98111304D01*
X95612092Y-97887487D01*
X96297648Y-98573043D01*
X96523777Y-98522694D01*
X96627168Y-98297056D01*
X96684553Y-98055582D01*
X96687997Y-97962447D01*
X102806274Y-97962447D01*
X102845665Y-98207499D01*
X102932107Y-98440158D01*
X102976223Y-98522694D01*
X103202352Y-98573043D01*
X103890395Y-97885000D01*
X103202352Y-97196957D01*
X102976223Y-97247306D01*
X102872832Y-97472944D01*
X102815447Y-97714418D01*
X102806274Y-97962447D01*
X96687997Y-97962447D01*
X96693726Y-97807553D01*
X96654335Y-97562501D01*
X96567893Y-97329842D01*
X96523777Y-97247306D01*
X96297648Y-97196957D01*
X95612630Y-97881975D01*
X95650168Y-97496672D01*
X95649132Y-97486263D01*
X96118043Y-97017352D01*
X103381957Y-97017352D01*
X104070000Y-97705395D01*
X104084143Y-97691253D01*
X104263748Y-97870858D01*
X104249605Y-97885000D01*
X104937648Y-98573043D01*
X105163777Y-98522694D01*
X105267168Y-98297056D01*
X105324553Y-98055582D01*
X105333726Y-97807553D01*
X105306409Y-97637614D01*
X105914250Y-97635000D01*
X106073000Y-97476250D01*
X106073000Y-96127000D01*
X104723750Y-96127000D01*
X104565000Y-96285750D01*
X104563111Y-96724973D01*
X104482056Y-96687832D01*
X104240582Y-96630447D01*
X103992553Y-96621274D01*
X103747501Y-96660665D01*
X103514842Y-96747107D01*
X103432306Y-96791223D01*
X103381957Y-97017352D01*
X96118043Y-97017352D01*
X96067694Y-96791223D01*
X95842056Y-96687832D01*
X95600582Y-96630447D01*
X95511335Y-96627146D01*
X95409103Y-96291408D01*
X95121118Y-95752627D01*
X94703148Y-95476457D01*
X92679605Y-97500000D01*
X92693748Y-97514143D01*
X92514143Y-97693748D01*
X92500000Y-97679605D01*
X92485858Y-97693748D01*
X92306253Y-97514143D01*
X92320395Y-97500000D01*
X92306253Y-97485858D01*
X92485858Y-97306253D01*
X92500000Y-97320395D01*
X94523543Y-95296852D01*
X94247373Y-94878882D01*
X93859325Y-94671993D01*
X94652612Y-94671993D01*
X94718137Y-94910860D01*
X94965116Y-95026760D01*
X95229960Y-95092250D01*
X95502492Y-95104812D01*
X95772238Y-95063965D01*
X96028832Y-94971277D01*
X96141863Y-94910860D01*
X96207388Y-94671993D01*
X95430000Y-93894605D01*
X94652612Y-94671993D01*
X93859325Y-94671993D01*
X93702443Y-94588351D01*
X93427002Y-94505115D01*
X93427002Y-94376252D01*
X93585750Y-94535000D01*
X93775000Y-94538072D01*
X93899482Y-94525812D01*
X94019180Y-94489502D01*
X94129494Y-94430537D01*
X94203597Y-94369722D01*
X94234140Y-94426863D01*
X94473007Y-94492388D01*
X95250395Y-93715000D01*
X94473007Y-92937612D01*
X94412628Y-92954175D01*
X94413072Y-92925000D01*
X94400812Y-92800518D01*
X94364502Y-92680820D01*
X94305537Y-92570506D01*
X94226185Y-92473815D01*
X94176188Y-92432783D01*
X94265512Y-92323942D01*
X94346423Y-92172567D01*
X94396248Y-92008316D01*
X94413072Y-91837500D01*
X94413072Y-91737873D01*
X95053581Y-92378382D01*
X94831168Y-92458723D01*
X94718137Y-92519140D01*
X94652612Y-92758007D01*
X95430000Y-93535395D01*
X95444143Y-93521253D01*
X95612099Y-93689209D01*
X95611928Y-93705000D01*
X95612616Y-93711989D01*
X95609605Y-93715000D01*
X95613274Y-93718669D01*
X95624188Y-93829482D01*
X95660498Y-93949180D01*
X95719463Y-94059494D01*
X95798815Y-94156185D01*
X95895506Y-94235537D01*
X96005820Y-94294502D01*
X96125518Y-94330812D01*
X96236331Y-94341726D01*
X96386993Y-94492388D01*
X96625860Y-94426863D01*
X96666622Y-94340000D01*
X96677002Y-94340000D01*
X96677002Y-94317880D01*
X96711605Y-94244142D01*
X96761363Y-94270739D01*
X96780865Y-94294502D01*
X96810000Y-94330003D01*
X96838998Y-94353801D01*
X97026195Y-94540998D01*
X97049998Y-94570002D01*
X97165723Y-94664975D01*
X97297752Y-94735547D01*
X97441013Y-94779004D01*
X97552666Y-94790001D01*
X97552676Y-94790001D01*
X97589999Y-94793677D01*
X97627322Y-94790001D01*
X101872679Y-94790001D01*
X101910001Y-94793677D01*
X101947323Y-94790001D01*
X101947334Y-94790001D01*
X102058987Y-94779004D01*
X102202248Y-94735547D01*
X102334277Y-94664975D01*
X102450002Y-94570002D01*
X102473805Y-94540998D01*
X102660998Y-94353805D01*
X102690001Y-94330003D01*
X102738638Y-94270738D01*
X102788524Y-94244073D01*
X102813723Y-94313832D01*
X102822998Y-94331184D01*
X102822998Y-94340000D01*
X102827710Y-94340000D01*
X102874140Y-94426863D01*
X103113007Y-94492388D01*
X103263669Y-94341726D01*
X103374482Y-94330812D01*
X103494180Y-94294502D01*
X103604494Y-94235537D01*
X103701185Y-94156185D01*
X103780537Y-94059494D01*
X103839502Y-93949180D01*
X103875812Y-93829482D01*
X103886726Y-93718669D01*
X103890395Y-93715000D01*
X103887384Y-93711989D01*
X103888072Y-93705000D01*
X103887901Y-93689209D01*
X104055858Y-93521253D01*
X104070000Y-93535395D01*
X104084143Y-93521253D01*
X104263748Y-93700858D01*
X104249605Y-93715000D01*
X104263748Y-93729143D01*
X104084143Y-93908748D01*
X104070000Y-93894605D01*
X103292612Y-94671993D01*
X103358137Y-94910860D01*
X103605116Y-95026760D01*
X103869960Y-95092250D01*
X104142492Y-95104812D01*
X104412238Y-95063965D01*
X104561970Y-95009878D01*
X104565000Y-95714250D01*
X104723750Y-95873000D01*
X106073000Y-95873000D01*
X106073000Y-95853000D01*
X106327000Y-95853000D01*
X106327000Y-95873000D01*
X106347000Y-95873000D01*
X106347000Y-96127000D01*
X106327000Y-96127000D01*
X106327000Y-97476250D01*
X106485750Y-97635000D01*
X107200000Y-97638072D01*
X107324482Y-97625812D01*
X107444180Y-97589502D01*
X107554494Y-97530537D01*
X107651185Y-97451185D01*
X107730537Y-97354494D01*
X107755191Y-97308370D01*
X107965537Y-97448918D01*
X108263088Y-97572168D01*
X108578967Y-97635000D01*
X108901033Y-97635000D01*
X109216912Y-97572168D01*
X109514463Y-97448918D01*
X109782252Y-97269987D01*
X110009987Y-97042252D01*
X110188918Y-96774463D01*
X110312168Y-96476912D01*
X110375000Y-96161033D01*
X110375000Y-95838967D01*
X110312168Y-95523088D01*
X110188918Y-95225537D01*
X110009987Y-94957748D01*
X109782252Y-94730013D01*
X109755722Y-94712286D01*
X109900000Y-94713072D01*
X110024482Y-94700812D01*
X110144180Y-94664502D01*
X110215085Y-94626602D01*
X110499496Y-94911012D01*
X110523294Y-94940011D01*
X110639019Y-95034984D01*
X110771048Y-95105556D01*
X110914309Y-95149013D01*
X111025962Y-95160010D01*
X111025971Y-95160010D01*
X111063294Y-95163686D01*
X111100617Y-95160010D01*
X115262668Y-95160010D01*
X115299990Y-95163686D01*
X115337312Y-95160010D01*
X115337323Y-95160010D01*
X115448976Y-95149013D01*
X115592237Y-95105556D01*
X115724266Y-95034984D01*
X115839991Y-94940011D01*
X115863794Y-94911007D01*
X116126460Y-94648341D01*
X116258890Y-94688513D01*
X116550000Y-94717185D01*
X116841111Y-94688513D01*
X117121034Y-94603599D01*
X117379014Y-94465706D01*
X117605134Y-94280134D01*
X117790706Y-94054013D01*
X117800000Y-94036626D01*
X117809294Y-94054014D01*
X117994866Y-94280134D01*
X118220987Y-94465706D01*
X118478967Y-94603599D01*
X118758890Y-94688513D01*
X119050000Y-94717185D01*
X119341111Y-94688513D01*
X119621034Y-94603599D01*
X119879014Y-94465706D01*
X120105134Y-94280134D01*
X120290706Y-94054013D01*
X120300000Y-94036626D01*
X120309294Y-94054014D01*
X120494866Y-94280134D01*
X120720987Y-94465706D01*
X120978967Y-94603599D01*
X121258890Y-94688513D01*
X121550000Y-94717185D01*
X121841111Y-94688513D01*
X122121034Y-94603599D01*
X122379014Y-94465706D01*
X122605134Y-94280134D01*
X122790706Y-94054013D01*
X122800000Y-94036626D01*
X122809294Y-94054014D01*
X122994866Y-94280134D01*
X123220987Y-94465706D01*
X123478967Y-94603599D01*
X123758890Y-94688513D01*
X124050000Y-94717185D01*
X124341111Y-94688513D01*
X124621034Y-94603599D01*
X124879014Y-94465706D01*
X125105134Y-94280134D01*
X125290706Y-94054013D01*
X125300000Y-94036626D01*
X125309294Y-94054014D01*
X125494866Y-94280134D01*
X125720987Y-94465706D01*
X125978967Y-94603599D01*
X126258890Y-94688513D01*
X126550000Y-94717185D01*
X126841111Y-94688513D01*
X127121034Y-94603599D01*
X127379014Y-94465706D01*
X127605134Y-94280134D01*
X127790706Y-94054013D01*
X127928599Y-93796033D01*
X128013513Y-93516110D01*
X128035000Y-93297949D01*
X128035000Y-93002050D01*
X128013513Y-92783889D01*
X127928599Y-92503966D01*
X127790706Y-92245986D01*
X127605134Y-92019866D01*
X127379013Y-91834294D01*
X127121033Y-91696401D01*
X126841110Y-91611487D01*
X126550000Y-91582815D01*
X126285012Y-91608914D01*
X126285012Y-84962334D01*
X126288688Y-84925011D01*
X126285012Y-84887688D01*
X126285012Y-84887679D01*
X126274015Y-84776026D01*
X126230558Y-84632765D01*
X126159986Y-84500736D01*
X126065013Y-84385011D01*
X126036014Y-84361212D01*
X125917500Y-84242698D01*
X125917500Y-73479825D01*
X125921176Y-73442500D01*
X125917500Y-73405175D01*
X125917500Y-73405167D01*
X125906503Y-73293514D01*
X125878137Y-73200000D01*
X126636323Y-73200000D01*
X126642499Y-73262702D01*
X126646714Y-73325547D01*
X126649825Y-73337087D01*
X126650997Y-73348986D01*
X126669293Y-73409300D01*
X126685682Y-73470094D01*
X126690981Y-73480799D01*
X126694454Y-73492247D01*
X126724160Y-73547822D01*
X126752099Y-73604261D01*
X126759392Y-73613735D01*
X126765026Y-73624276D01*
X126804990Y-73672972D01*
X126843416Y-73722892D01*
X126852415Y-73730759D01*
X126859999Y-73740001D01*
X126908695Y-73779965D01*
X126927880Y-73796738D01*
X126937547Y-73803643D01*
X126975724Y-73834974D01*
X126998318Y-73847051D01*
X129037556Y-75303649D01*
X129075725Y-75334974D01*
X129098315Y-75347049D01*
X131188637Y-76840136D01*
X131285885Y-76896085D01*
X131427720Y-76943991D01*
X131576176Y-76963304D01*
X131725547Y-76953286D01*
X131870094Y-76914318D01*
X132004261Y-76847901D01*
X132122892Y-76756583D01*
X132221429Y-76643878D01*
X132296085Y-76514114D01*
X132343991Y-76372279D01*
X132363304Y-76223823D01*
X132353285Y-76074452D01*
X132314318Y-75929905D01*
X132247901Y-75795738D01*
X132156583Y-75677107D01*
X132072120Y-75603261D01*
X131841674Y-75438657D01*
X131908008Y-75424557D01*
X131975599Y-75411174D01*
X131985735Y-75408036D01*
X132125258Y-75363777D01*
X132188590Y-75336633D01*
X132252257Y-75310391D01*
X132261591Y-75305344D01*
X132389860Y-75234827D01*
X132446700Y-75195907D01*
X132504064Y-75157796D01*
X132512240Y-75151032D01*
X132624370Y-75056945D01*
X132672571Y-75007725D01*
X132721449Y-74959186D01*
X132728156Y-74950962D01*
X132819874Y-74836886D01*
X132857603Y-74779229D01*
X132896105Y-74722149D01*
X132901086Y-74712779D01*
X132901091Y-74712772D01*
X132901096Y-74712761D01*
X132968901Y-74583062D01*
X132994696Y-74519219D01*
X133021401Y-74455690D01*
X133024464Y-74445542D01*
X133024466Y-74445537D01*
X133024467Y-74445532D01*
X133065794Y-74305113D01*
X133078700Y-74237456D01*
X133092551Y-74169981D01*
X133093587Y-74159420D01*
X133106854Y-74013649D01*
X133106373Y-73944764D01*
X133106854Y-73875879D01*
X133105818Y-73865319D01*
X133090517Y-73719746D01*
X133076667Y-73652278D01*
X133063760Y-73584614D01*
X133060693Y-73574455D01*
X133017409Y-73434626D01*
X132990716Y-73371126D01*
X132964912Y-73307258D01*
X132959930Y-73297889D01*
X132890311Y-73169131D01*
X132851770Y-73111991D01*
X132814075Y-73054387D01*
X132807373Y-73046169D01*
X132807369Y-73046163D01*
X132807364Y-73046158D01*
X132714067Y-72933380D01*
X132665174Y-72884828D01*
X132616994Y-72835628D01*
X132608818Y-72828864D01*
X132495387Y-72736351D01*
X132437964Y-72698200D01*
X132381178Y-72659317D01*
X132371847Y-72654271D01*
X132371839Y-72654267D01*
X132242603Y-72585551D01*
X132178921Y-72559303D01*
X132115600Y-72532164D01*
X132105463Y-72529026D01*
X131965336Y-72486720D01*
X131897750Y-72473338D01*
X131830394Y-72459021D01*
X131819841Y-72457911D01*
X131674165Y-72443627D01*
X131674158Y-72443627D01*
X131637333Y-72440000D01*
X131554476Y-72440000D01*
X132122946Y-71952740D01*
X132200563Y-71871727D01*
X132281053Y-71745499D01*
X132335369Y-71605994D01*
X132361427Y-71458572D01*
X132358223Y-71308899D01*
X132325882Y-71162728D01*
X132265644Y-71025675D01*
X132179826Y-70903006D01*
X132071726Y-70799437D01*
X131945498Y-70718947D01*
X131805992Y-70664631D01*
X131658571Y-70638573D01*
X131508898Y-70641777D01*
X131362726Y-70674118D01*
X131225673Y-70734356D01*
X131133743Y-70798670D01*
X129512234Y-72188535D01*
X127980663Y-70810122D01*
X127890316Y-70743605D01*
X127754759Y-70680069D01*
X127609413Y-70644202D01*
X127459863Y-70637379D01*
X127311854Y-70659863D01*
X127171075Y-70710790D01*
X127042937Y-70788203D01*
X126932364Y-70889128D01*
X126843605Y-71009684D01*
X126780069Y-71145241D01*
X126744202Y-71290587D01*
X126737379Y-71440137D01*
X126759863Y-71588146D01*
X126810790Y-71728925D01*
X126888203Y-71857063D01*
X126963838Y-71939929D01*
X127519472Y-72440000D01*
X127449227Y-72440000D01*
X127423823Y-72436695D01*
X127374550Y-72440000D01*
X127362667Y-72440000D01*
X127337298Y-72442499D01*
X127274453Y-72446714D01*
X127262913Y-72449825D01*
X127251014Y-72450997D01*
X127190700Y-72469293D01*
X127129906Y-72485682D01*
X127119201Y-72490981D01*
X127107753Y-72494454D01*
X127052178Y-72524160D01*
X126995739Y-72552099D01*
X126986265Y-72559392D01*
X126975724Y-72565026D01*
X126927028Y-72604990D01*
X126877108Y-72643416D01*
X126869241Y-72652414D01*
X126859999Y-72659999D01*
X126820029Y-72708702D01*
X126778571Y-72756122D01*
X126772611Y-72766482D01*
X126765026Y-72775724D01*
X126735321Y-72831298D01*
X126703915Y-72885886D01*
X126700092Y-72897206D01*
X126694454Y-72907753D01*
X126676164Y-72968049D01*
X126656009Y-73027721D01*
X126654467Y-73039576D01*
X126650997Y-73051014D01*
X126644822Y-73113710D01*
X126636695Y-73176177D01*
X126637495Y-73188102D01*
X126636323Y-73200000D01*
X125878137Y-73200000D01*
X125863046Y-73150253D01*
X125792474Y-73018224D01*
X125697501Y-72902499D01*
X125668497Y-72878696D01*
X125563804Y-72774003D01*
X125540001Y-72744999D01*
X125424276Y-72650026D01*
X125366770Y-72619288D01*
X125375812Y-72589482D01*
X125388072Y-72465000D01*
X125388072Y-71565000D01*
X125375812Y-71440518D01*
X125357454Y-71380000D01*
X125375812Y-71319482D01*
X125388072Y-71195000D01*
X125385000Y-71030750D01*
X125226250Y-70872000D01*
X123877000Y-70872000D01*
X123877000Y-70892000D01*
X123623000Y-70892000D01*
X123623000Y-70872000D01*
X122273750Y-70872000D01*
X122115000Y-71030750D01*
X122111928Y-71195000D01*
X122124188Y-71319482D01*
X122131137Y-71342389D01*
X122060724Y-71380026D01*
X121944999Y-71474999D01*
X121921196Y-71504003D01*
X121759003Y-71666196D01*
X121729999Y-71689999D01*
X121684452Y-71745499D01*
X121635026Y-71805724D01*
X121599452Y-71872278D01*
X121564454Y-71937754D01*
X121520997Y-72081015D01*
X121510000Y-72192668D01*
X121510000Y-72192678D01*
X121506324Y-72230000D01*
X121510000Y-72267323D01*
X121510001Y-72915198D01*
X121435199Y-72990000D01*
X120687322Y-72990000D01*
X120649999Y-72986324D01*
X120612676Y-72990000D01*
X120612667Y-72990000D01*
X120501014Y-73000997D01*
X120357753Y-73044454D01*
X120225724Y-73115026D01*
X120219663Y-73120000D01*
X120138996Y-73186201D01*
X120138992Y-73186205D01*
X120109999Y-73209999D01*
X120086205Y-73238992D01*
X117739025Y-75586174D01*
X117710021Y-75609977D01*
X117663773Y-75666331D01*
X117615048Y-75725702D01*
X117585733Y-75780546D01*
X117544476Y-75857732D01*
X117501019Y-76000993D01*
X117490022Y-76112646D01*
X117490022Y-76112656D01*
X117486346Y-76149978D01*
X117490022Y-76187301D01*
X117490023Y-78314906D01*
X117446085Y-78358844D01*
X117332817Y-78528362D01*
X117254796Y-78716720D01*
X117215022Y-78916679D01*
X117215022Y-79120557D01*
X117254796Y-79320516D01*
X117332817Y-79508874D01*
X117446085Y-79678392D01*
X117590248Y-79822555D01*
X117759766Y-79935823D01*
X117948124Y-80013844D01*
X118148083Y-80053618D01*
X118243892Y-80053618D01*
X118243893Y-80817716D01*
X118199955Y-80861654D01*
X118086687Y-81031172D01*
X118008666Y-81219530D01*
X117968892Y-81419489D01*
X117968892Y-81623367D01*
X118008666Y-81823326D01*
X118086687Y-82011684D01*
X118199955Y-82181202D01*
X118344118Y-82325365D01*
X118513636Y-82438633D01*
X118701994Y-82516654D01*
X118901953Y-82556428D01*
X119105831Y-82556428D01*
X119305790Y-82516654D01*
X119494148Y-82438633D01*
X119663666Y-82325365D01*
X119807829Y-82181202D01*
X119921097Y-82011684D01*
X119945244Y-81953388D01*
X119971134Y-81970687D01*
X120159492Y-82048708D01*
X120359451Y-82088482D01*
X120421589Y-82088482D01*
X121019109Y-82686003D01*
X121042907Y-82715001D01*
X121071905Y-82738799D01*
X121158631Y-82809974D01*
X121269397Y-82869180D01*
X121290661Y-82880546D01*
X121433922Y-82924003D01*
X121545575Y-82935000D01*
X121545585Y-82935000D01*
X121582908Y-82938676D01*
X121620231Y-82935000D01*
X121935198Y-82935000D01*
X121229003Y-83641196D01*
X121200000Y-83664998D01*
X121144872Y-83732173D01*
X121105027Y-83780723D01*
X121057694Y-83869276D01*
X121034455Y-83912753D01*
X120990998Y-84056014D01*
X120980001Y-84167667D01*
X120980001Y-84167677D01*
X120976325Y-84204999D01*
X120980001Y-84242322D01*
X120980001Y-85945200D01*
X120693803Y-85659002D01*
X120670001Y-85629999D01*
X120554276Y-85535026D01*
X120422247Y-85464454D01*
X120278986Y-85420997D01*
X120167333Y-85410000D01*
X120167322Y-85410000D01*
X120130000Y-85406324D01*
X120092678Y-85410000D01*
X111984802Y-85410000D01*
X109760000Y-83185199D01*
X109760000Y-75914801D01*
X111738910Y-73935892D01*
X111767907Y-73912095D01*
X111805743Y-73865992D01*
X111862880Y-73796371D01*
X111933452Y-73664341D01*
X111942925Y-73633111D01*
X111976909Y-73521080D01*
X111987906Y-73409427D01*
X111987906Y-73409417D01*
X111991582Y-73372094D01*
X111987906Y-73334771D01*
X111987906Y-71701729D01*
X112031843Y-71657792D01*
X112145111Y-71488274D01*
X112223132Y-71299916D01*
X112262906Y-71099957D01*
X112262906Y-70896079D01*
X112223132Y-70696120D01*
X112145111Y-70507762D01*
X112031843Y-70338244D01*
X111887680Y-70194081D01*
X111718162Y-70080813D01*
X111529804Y-70002792D01*
X111329845Y-69963018D01*
X111125967Y-69963018D01*
X110926008Y-70002792D01*
X110737650Y-70080813D01*
X110568132Y-70194081D01*
X110423969Y-70338244D01*
X110349626Y-70449506D01*
X109764121Y-69864001D01*
X109740318Y-69834997D01*
X109648934Y-69760000D01*
X122403856Y-69760000D01*
X122395506Y-69764463D01*
X122298815Y-69843815D01*
X122219463Y-69940506D01*
X122160498Y-70050820D01*
X122124188Y-70170518D01*
X122111928Y-70295000D01*
X122115000Y-70459250D01*
X122273750Y-70618000D01*
X123623000Y-70618000D01*
X123623000Y-70598000D01*
X123877000Y-70598000D01*
X123877000Y-70618000D01*
X125226250Y-70618000D01*
X125385000Y-70459250D01*
X125388072Y-70295000D01*
X125375812Y-70170518D01*
X125339502Y-70050820D01*
X125280537Y-69940506D01*
X125201185Y-69843815D01*
X125104494Y-69764463D01*
X125096144Y-69760000D01*
X129217581Y-69760000D01*
X129250000Y-69763193D01*
X129282419Y-69760000D01*
X129379383Y-69750450D01*
X129503793Y-69712710D01*
X129618450Y-69651425D01*
X129718948Y-69568948D01*
X129801425Y-69468450D01*
X129862710Y-69353793D01*
X129900450Y-69229383D01*
X129913193Y-69100000D01*
X129910000Y-69067581D01*
X129910000Y-67769608D01*
X129976458Y-67703150D01*
X130252627Y-68121118D01*
%TA.AperFunction,Conductor*%
D36*
G36*
X130252627Y-68121118D02*
G01*
X130797557Y-68411649D01*
X131388696Y-68590287D01*
X132003328Y-68650168D01*
X132617831Y-68588990D01*
X133208592Y-68409103D01*
X133747373Y-68121118D01*
X133840000Y-67980931D01*
X133840000Y-77015000D01*
X130410000Y-77015000D01*
X130410000Y-90585000D01*
X133840001Y-90585000D01*
X133840001Y-95019070D01*
X133747373Y-94878882D01*
X133202443Y-94588351D01*
X132611304Y-94409713D01*
X131996672Y-94349832D01*
X131382169Y-94411010D01*
X130791408Y-94590897D01*
X130252627Y-94878882D01*
X129976457Y-95296852D01*
X132000000Y-97320395D01*
X132014143Y-97306253D01*
X132193748Y-97485858D01*
X132179605Y-97500000D01*
X132193748Y-97514143D01*
X132014143Y-97693748D01*
X132000000Y-97679605D01*
X131985858Y-97693748D01*
X131806253Y-97514143D01*
X131820395Y-97500000D01*
X129796852Y-95476457D01*
X129378882Y-95752627D01*
X129088351Y-96297557D01*
X128909713Y-96888696D01*
X128849832Y-97503328D01*
X128911010Y-98117831D01*
X129090897Y-98708592D01*
X129378882Y-99247373D01*
X129519069Y-99340000D01*
X94980931Y-99340000D01*
X95121118Y-99247373D01*
X95187690Y-99122507D01*
X95259418Y-99139553D01*
X95507447Y-99148726D01*
X95752499Y-99109335D01*
X95985158Y-99022893D01*
X96067694Y-98978777D01*
X96118043Y-98752648D01*
X103381957Y-98752648D01*
X103432306Y-98978777D01*
X103657944Y-99082168D01*
X103899418Y-99139553D01*
X104147447Y-99148726D01*
X104392499Y-99109335D01*
X104625158Y-99022893D01*
X104707694Y-98978777D01*
X104758043Y-98752648D01*
X104070000Y-98064605D01*
X103381957Y-98752648D01*
X96118043Y-98752648D01*
X95563927Y-98198532D01*
X95590287Y-98111304D01*
X95612092Y-97887487D01*
X96297648Y-98573043D01*
X96523777Y-98522694D01*
X96627168Y-98297056D01*
X96684553Y-98055582D01*
X96687997Y-97962447D01*
X102806274Y-97962447D01*
X102845665Y-98207499D01*
X102932107Y-98440158D01*
X102976223Y-98522694D01*
X103202352Y-98573043D01*
X103890395Y-97885000D01*
X103202352Y-97196957D01*
X102976223Y-97247306D01*
X102872832Y-97472944D01*
X102815447Y-97714418D01*
X102806274Y-97962447D01*
X96687997Y-97962447D01*
X96693726Y-97807553D01*
X96654335Y-97562501D01*
X96567893Y-97329842D01*
X96523777Y-97247306D01*
X96297648Y-97196957D01*
X95612630Y-97881975D01*
X95650168Y-97496672D01*
X95649132Y-97486263D01*
X96118043Y-97017352D01*
X103381957Y-97017352D01*
X104070000Y-97705395D01*
X104084143Y-97691253D01*
X104263748Y-97870858D01*
X104249605Y-97885000D01*
X104937648Y-98573043D01*
X105163777Y-98522694D01*
X105267168Y-98297056D01*
X105324553Y-98055582D01*
X105333726Y-97807553D01*
X105306409Y-97637614D01*
X105914250Y-97635000D01*
X106073000Y-97476250D01*
X106073000Y-96127000D01*
X104723750Y-96127000D01*
X104565000Y-96285750D01*
X104563111Y-96724973D01*
X104482056Y-96687832D01*
X104240582Y-96630447D01*
X103992553Y-96621274D01*
X103747501Y-96660665D01*
X103514842Y-96747107D01*
X103432306Y-96791223D01*
X103381957Y-97017352D01*
X96118043Y-97017352D01*
X96067694Y-96791223D01*
X95842056Y-96687832D01*
X95600582Y-96630447D01*
X95511335Y-96627146D01*
X95409103Y-96291408D01*
X95121118Y-95752627D01*
X94703148Y-95476457D01*
X92679605Y-97500000D01*
X92693748Y-97514143D01*
X92514143Y-97693748D01*
X92500000Y-97679605D01*
X92485858Y-97693748D01*
X92306253Y-97514143D01*
X92320395Y-97500000D01*
X92306253Y-97485858D01*
X92485858Y-97306253D01*
X92500000Y-97320395D01*
X94523543Y-95296852D01*
X94247373Y-94878882D01*
X93859325Y-94671993D01*
X94652612Y-94671993D01*
X94718137Y-94910860D01*
X94965116Y-95026760D01*
X95229960Y-95092250D01*
X95502492Y-95104812D01*
X95772238Y-95063965D01*
X96028832Y-94971277D01*
X96141863Y-94910860D01*
X96207388Y-94671993D01*
X95430000Y-93894605D01*
X94652612Y-94671993D01*
X93859325Y-94671993D01*
X93702443Y-94588351D01*
X93427002Y-94505115D01*
X93427002Y-94376252D01*
X93585750Y-94535000D01*
X93775000Y-94538072D01*
X93899482Y-94525812D01*
X94019180Y-94489502D01*
X94129494Y-94430537D01*
X94203597Y-94369722D01*
X94234140Y-94426863D01*
X94473007Y-94492388D01*
X95250395Y-93715000D01*
X94473007Y-92937612D01*
X94412628Y-92954175D01*
X94413072Y-92925000D01*
X94400812Y-92800518D01*
X94364502Y-92680820D01*
X94305537Y-92570506D01*
X94226185Y-92473815D01*
X94176188Y-92432783D01*
X94265512Y-92323942D01*
X94346423Y-92172567D01*
X94396248Y-92008316D01*
X94413072Y-91837500D01*
X94413072Y-91737873D01*
X95053581Y-92378382D01*
X94831168Y-92458723D01*
X94718137Y-92519140D01*
X94652612Y-92758007D01*
X95430000Y-93535395D01*
X95444143Y-93521253D01*
X95612099Y-93689209D01*
X95611928Y-93705000D01*
X95612616Y-93711989D01*
X95609605Y-93715000D01*
X95613274Y-93718669D01*
X95624188Y-93829482D01*
X95660498Y-93949180D01*
X95719463Y-94059494D01*
X95798815Y-94156185D01*
X95895506Y-94235537D01*
X96005820Y-94294502D01*
X96125518Y-94330812D01*
X96236331Y-94341726D01*
X96386993Y-94492388D01*
X96625860Y-94426863D01*
X96666622Y-94340000D01*
X96677002Y-94340000D01*
X96677002Y-94317880D01*
X96711605Y-94244142D01*
X96761363Y-94270739D01*
X96780865Y-94294502D01*
X96810000Y-94330003D01*
X96838998Y-94353801D01*
X97026195Y-94540998D01*
X97049998Y-94570002D01*
X97165723Y-94664975D01*
X97297752Y-94735547D01*
X97441013Y-94779004D01*
X97552666Y-94790001D01*
X97552676Y-94790001D01*
X97589999Y-94793677D01*
X97627322Y-94790001D01*
X101872679Y-94790001D01*
X101910001Y-94793677D01*
X101947323Y-94790001D01*
X101947334Y-94790001D01*
X102058987Y-94779004D01*
X102202248Y-94735547D01*
X102334277Y-94664975D01*
X102450002Y-94570002D01*
X102473805Y-94540998D01*
X102660998Y-94353805D01*
X102690001Y-94330003D01*
X102738638Y-94270738D01*
X102788524Y-94244073D01*
X102813723Y-94313832D01*
X102822998Y-94331184D01*
X102822998Y-94340000D01*
X102827710Y-94340000D01*
X102874140Y-94426863D01*
X103113007Y-94492388D01*
X103263669Y-94341726D01*
X103374482Y-94330812D01*
X103494180Y-94294502D01*
X103604494Y-94235537D01*
X103701185Y-94156185D01*
X103780537Y-94059494D01*
X103839502Y-93949180D01*
X103875812Y-93829482D01*
X103886726Y-93718669D01*
X103890395Y-93715000D01*
X103887384Y-93711989D01*
X103888072Y-93705000D01*
X103887901Y-93689209D01*
X104055858Y-93521253D01*
X104070000Y-93535395D01*
X104084143Y-93521253D01*
X104263748Y-93700858D01*
X104249605Y-93715000D01*
X104263748Y-93729143D01*
X104084143Y-93908748D01*
X104070000Y-93894605D01*
X103292612Y-94671993D01*
X103358137Y-94910860D01*
X103605116Y-95026760D01*
X103869960Y-95092250D01*
X104142492Y-95104812D01*
X104412238Y-95063965D01*
X104561970Y-95009878D01*
X104565000Y-95714250D01*
X104723750Y-95873000D01*
X106073000Y-95873000D01*
X106073000Y-95853000D01*
X106327000Y-95853000D01*
X106327000Y-95873000D01*
X106347000Y-95873000D01*
X106347000Y-96127000D01*
X106327000Y-96127000D01*
X106327000Y-97476250D01*
X106485750Y-97635000D01*
X107200000Y-97638072D01*
X107324482Y-97625812D01*
X107444180Y-97589502D01*
X107554494Y-97530537D01*
X107651185Y-97451185D01*
X107730537Y-97354494D01*
X107755191Y-97308370D01*
X107965537Y-97448918D01*
X108263088Y-97572168D01*
X108578967Y-97635000D01*
X108901033Y-97635000D01*
X109216912Y-97572168D01*
X109514463Y-97448918D01*
X109782252Y-97269987D01*
X110009987Y-97042252D01*
X110188918Y-96774463D01*
X110312168Y-96476912D01*
X110375000Y-96161033D01*
X110375000Y-95838967D01*
X110312168Y-95523088D01*
X110188918Y-95225537D01*
X110009987Y-94957748D01*
X109782252Y-94730013D01*
X109755722Y-94712286D01*
X109900000Y-94713072D01*
X110024482Y-94700812D01*
X110144180Y-94664502D01*
X110215085Y-94626602D01*
X110499496Y-94911012D01*
X110523294Y-94940011D01*
X110639019Y-95034984D01*
X110771048Y-95105556D01*
X110914309Y-95149013D01*
X111025962Y-95160010D01*
X111025971Y-95160010D01*
X111063294Y-95163686D01*
X111100617Y-95160010D01*
X115262668Y-95160010D01*
X115299990Y-95163686D01*
X115337312Y-95160010D01*
X115337323Y-95160010D01*
X115448976Y-95149013D01*
X115592237Y-95105556D01*
X115724266Y-95034984D01*
X115839991Y-94940011D01*
X115863794Y-94911007D01*
X116126460Y-94648341D01*
X116258890Y-94688513D01*
X116550000Y-94717185D01*
X116841111Y-94688513D01*
X117121034Y-94603599D01*
X117379014Y-94465706D01*
X117605134Y-94280134D01*
X117790706Y-94054013D01*
X117800000Y-94036626D01*
X117809294Y-94054014D01*
X117994866Y-94280134D01*
X118220987Y-94465706D01*
X118478967Y-94603599D01*
X118758890Y-94688513D01*
X119050000Y-94717185D01*
X119341111Y-94688513D01*
X119621034Y-94603599D01*
X119879014Y-94465706D01*
X120105134Y-94280134D01*
X120290706Y-94054013D01*
X120300000Y-94036626D01*
X120309294Y-94054014D01*
X120494866Y-94280134D01*
X120720987Y-94465706D01*
X120978967Y-94603599D01*
X121258890Y-94688513D01*
X121550000Y-94717185D01*
X121841111Y-94688513D01*
X122121034Y-94603599D01*
X122379014Y-94465706D01*
X122605134Y-94280134D01*
X122790706Y-94054013D01*
X122800000Y-94036626D01*
X122809294Y-94054014D01*
X122994866Y-94280134D01*
X123220987Y-94465706D01*
X123478967Y-94603599D01*
X123758890Y-94688513D01*
X124050000Y-94717185D01*
X124341111Y-94688513D01*
X124621034Y-94603599D01*
X124879014Y-94465706D01*
X125105134Y-94280134D01*
X125290706Y-94054013D01*
X125300000Y-94036626D01*
X125309294Y-94054014D01*
X125494866Y-94280134D01*
X125720987Y-94465706D01*
X125978967Y-94603599D01*
X126258890Y-94688513D01*
X126550000Y-94717185D01*
X126841111Y-94688513D01*
X127121034Y-94603599D01*
X127379014Y-94465706D01*
X127605134Y-94280134D01*
X127790706Y-94054013D01*
X127928599Y-93796033D01*
X128013513Y-93516110D01*
X128035000Y-93297949D01*
X128035000Y-93002050D01*
X128013513Y-92783889D01*
X127928599Y-92503966D01*
X127790706Y-92245986D01*
X127605134Y-92019866D01*
X127379013Y-91834294D01*
X127121033Y-91696401D01*
X126841110Y-91611487D01*
X126550000Y-91582815D01*
X126285012Y-91608914D01*
X126285012Y-84962334D01*
X126288688Y-84925011D01*
X126285012Y-84887688D01*
X126285012Y-84887679D01*
X126274015Y-84776026D01*
X126230558Y-84632765D01*
X126159986Y-84500736D01*
X126065013Y-84385011D01*
X126036014Y-84361212D01*
X125917500Y-84242698D01*
X125917500Y-73479825D01*
X125921176Y-73442500D01*
X125917500Y-73405175D01*
X125917500Y-73405167D01*
X125906503Y-73293514D01*
X125878137Y-73200000D01*
X126636323Y-73200000D01*
X126642499Y-73262702D01*
X126646714Y-73325547D01*
X126649825Y-73337087D01*
X126650997Y-73348986D01*
X126669293Y-73409300D01*
X126685682Y-73470094D01*
X126690981Y-73480799D01*
X126694454Y-73492247D01*
X126724160Y-73547822D01*
X126752099Y-73604261D01*
X126759392Y-73613735D01*
X126765026Y-73624276D01*
X126804990Y-73672972D01*
X126843416Y-73722892D01*
X126852415Y-73730759D01*
X126859999Y-73740001D01*
X126908695Y-73779965D01*
X126927880Y-73796738D01*
X126937547Y-73803643D01*
X126975724Y-73834974D01*
X126998318Y-73847051D01*
X129037556Y-75303649D01*
X129075725Y-75334974D01*
X129098315Y-75347049D01*
X131188637Y-76840136D01*
X131285885Y-76896085D01*
X131427720Y-76943991D01*
X131576176Y-76963304D01*
X131725547Y-76953286D01*
X131870094Y-76914318D01*
X132004261Y-76847901D01*
X132122892Y-76756583D01*
X132221429Y-76643878D01*
X132296085Y-76514114D01*
X132343991Y-76372279D01*
X132363304Y-76223823D01*
X132353285Y-76074452D01*
X132314318Y-75929905D01*
X132247901Y-75795738D01*
X132156583Y-75677107D01*
X132072120Y-75603261D01*
X131841674Y-75438657D01*
X131908008Y-75424557D01*
X131975599Y-75411174D01*
X131985735Y-75408036D01*
X132125258Y-75363777D01*
X132188590Y-75336633D01*
X132252257Y-75310391D01*
X132261591Y-75305344D01*
X132389860Y-75234827D01*
X132446700Y-75195907D01*
X132504064Y-75157796D01*
X132512240Y-75151032D01*
X132624370Y-75056945D01*
X132672571Y-75007725D01*
X132721449Y-74959186D01*
X132728156Y-74950962D01*
X132819874Y-74836886D01*
X132857603Y-74779229D01*
X132896105Y-74722149D01*
X132901086Y-74712779D01*
X132901091Y-74712772D01*
X132901096Y-74712761D01*
X132968901Y-74583062D01*
X132994696Y-74519219D01*
X133021401Y-74455690D01*
X133024464Y-74445542D01*
X133024466Y-74445537D01*
X133024467Y-74445532D01*
X133065794Y-74305113D01*
X133078700Y-74237456D01*
X133092551Y-74169981D01*
X133093587Y-74159420D01*
X133106854Y-74013649D01*
X133106373Y-73944764D01*
X133106854Y-73875879D01*
X133105818Y-73865319D01*
X133090517Y-73719746D01*
X133076667Y-73652278D01*
X133063760Y-73584614D01*
X133060693Y-73574455D01*
X133017409Y-73434626D01*
X132990716Y-73371126D01*
X132964912Y-73307258D01*
X132959930Y-73297889D01*
X132890311Y-73169131D01*
X132851770Y-73111991D01*
X132814075Y-73054387D01*
X132807373Y-73046169D01*
X132807369Y-73046163D01*
X132807364Y-73046158D01*
X132714067Y-72933380D01*
X132665174Y-72884828D01*
X132616994Y-72835628D01*
X132608818Y-72828864D01*
X132495387Y-72736351D01*
X132437964Y-72698200D01*
X132381178Y-72659317D01*
X132371847Y-72654271D01*
X132371839Y-72654267D01*
X132242603Y-72585551D01*
X132178921Y-72559303D01*
X132115600Y-72532164D01*
X132105463Y-72529026D01*
X131965336Y-72486720D01*
X131897750Y-72473338D01*
X131830394Y-72459021D01*
X131819841Y-72457911D01*
X131674165Y-72443627D01*
X131674158Y-72443627D01*
X131637333Y-72440000D01*
X131554476Y-72440000D01*
X132122946Y-71952740D01*
X132200563Y-71871727D01*
X132281053Y-71745499D01*
X132335369Y-71605994D01*
X132361427Y-71458572D01*
X132358223Y-71308899D01*
X132325882Y-71162728D01*
X132265644Y-71025675D01*
X132179826Y-70903006D01*
X132071726Y-70799437D01*
X131945498Y-70718947D01*
X131805992Y-70664631D01*
X131658571Y-70638573D01*
X131508898Y-70641777D01*
X131362726Y-70674118D01*
X131225673Y-70734356D01*
X131133743Y-70798670D01*
X129512234Y-72188535D01*
X127980663Y-70810122D01*
X127890316Y-70743605D01*
X127754759Y-70680069D01*
X127609413Y-70644202D01*
X127459863Y-70637379D01*
X127311854Y-70659863D01*
X127171075Y-70710790D01*
X127042937Y-70788203D01*
X126932364Y-70889128D01*
X126843605Y-71009684D01*
X126780069Y-71145241D01*
X126744202Y-71290587D01*
X126737379Y-71440137D01*
X126759863Y-71588146D01*
X126810790Y-71728925D01*
X126888203Y-71857063D01*
X126963838Y-71939929D01*
X127519472Y-72440000D01*
X127449227Y-72440000D01*
X127423823Y-72436695D01*
X127374550Y-72440000D01*
X127362667Y-72440000D01*
X127337298Y-72442499D01*
X127274453Y-72446714D01*
X127262913Y-72449825D01*
X127251014Y-72450997D01*
X127190700Y-72469293D01*
X127129906Y-72485682D01*
X127119201Y-72490981D01*
X127107753Y-72494454D01*
X127052178Y-72524160D01*
X126995739Y-72552099D01*
X126986265Y-72559392D01*
X126975724Y-72565026D01*
X126927028Y-72604990D01*
X126877108Y-72643416D01*
X126869241Y-72652414D01*
X126859999Y-72659999D01*
X126820029Y-72708702D01*
X126778571Y-72756122D01*
X126772611Y-72766482D01*
X126765026Y-72775724D01*
X126735321Y-72831298D01*
X126703915Y-72885886D01*
X126700092Y-72897206D01*
X126694454Y-72907753D01*
X126676164Y-72968049D01*
X126656009Y-73027721D01*
X126654467Y-73039576D01*
X126650997Y-73051014D01*
X126644822Y-73113710D01*
X126636695Y-73176177D01*
X126637495Y-73188102D01*
X126636323Y-73200000D01*
X125878137Y-73200000D01*
X125863046Y-73150253D01*
X125792474Y-73018224D01*
X125697501Y-72902499D01*
X125668497Y-72878696D01*
X125563804Y-72774003D01*
X125540001Y-72744999D01*
X125424276Y-72650026D01*
X125366770Y-72619288D01*
X125375812Y-72589482D01*
X125388072Y-72465000D01*
X125388072Y-71565000D01*
X125375812Y-71440518D01*
X125357454Y-71380000D01*
X125375812Y-71319482D01*
X125388072Y-71195000D01*
X125385000Y-71030750D01*
X125226250Y-70872000D01*
X123877000Y-70872000D01*
X123877000Y-70892000D01*
X123623000Y-70892000D01*
X123623000Y-70872000D01*
X122273750Y-70872000D01*
X122115000Y-71030750D01*
X122111928Y-71195000D01*
X122124188Y-71319482D01*
X122131137Y-71342389D01*
X122060724Y-71380026D01*
X121944999Y-71474999D01*
X121921196Y-71504003D01*
X121759003Y-71666196D01*
X121729999Y-71689999D01*
X121684452Y-71745499D01*
X121635026Y-71805724D01*
X121599452Y-71872278D01*
X121564454Y-71937754D01*
X121520997Y-72081015D01*
X121510000Y-72192668D01*
X121510000Y-72192678D01*
X121506324Y-72230000D01*
X121510000Y-72267323D01*
X121510001Y-72915198D01*
X121435199Y-72990000D01*
X120687322Y-72990000D01*
X120649999Y-72986324D01*
X120612676Y-72990000D01*
X120612667Y-72990000D01*
X120501014Y-73000997D01*
X120357753Y-73044454D01*
X120225724Y-73115026D01*
X120219663Y-73120000D01*
X120138996Y-73186201D01*
X120138992Y-73186205D01*
X120109999Y-73209999D01*
X120086205Y-73238992D01*
X117739025Y-75586174D01*
X117710021Y-75609977D01*
X117663773Y-75666331D01*
X117615048Y-75725702D01*
X117585733Y-75780546D01*
X117544476Y-75857732D01*
X117501019Y-76000993D01*
X117490022Y-76112646D01*
X117490022Y-76112656D01*
X117486346Y-76149978D01*
X117490022Y-76187301D01*
X117490023Y-78314906D01*
X117446085Y-78358844D01*
X117332817Y-78528362D01*
X117254796Y-78716720D01*
X117215022Y-78916679D01*
X117215022Y-79120557D01*
X117254796Y-79320516D01*
X117332817Y-79508874D01*
X117446085Y-79678392D01*
X117590248Y-79822555D01*
X117759766Y-79935823D01*
X117948124Y-80013844D01*
X118148083Y-80053618D01*
X118243892Y-80053618D01*
X118243893Y-80817716D01*
X118199955Y-80861654D01*
X118086687Y-81031172D01*
X118008666Y-81219530D01*
X117968892Y-81419489D01*
X117968892Y-81623367D01*
X118008666Y-81823326D01*
X118086687Y-82011684D01*
X118199955Y-82181202D01*
X118344118Y-82325365D01*
X118513636Y-82438633D01*
X118701994Y-82516654D01*
X118901953Y-82556428D01*
X119105831Y-82556428D01*
X119305790Y-82516654D01*
X119494148Y-82438633D01*
X119663666Y-82325365D01*
X119807829Y-82181202D01*
X119921097Y-82011684D01*
X119945244Y-81953388D01*
X119971134Y-81970687D01*
X120159492Y-82048708D01*
X120359451Y-82088482D01*
X120421589Y-82088482D01*
X121019109Y-82686003D01*
X121042907Y-82715001D01*
X121071905Y-82738799D01*
X121158631Y-82809974D01*
X121269397Y-82869180D01*
X121290661Y-82880546D01*
X121433922Y-82924003D01*
X121545575Y-82935000D01*
X121545585Y-82935000D01*
X121582908Y-82938676D01*
X121620231Y-82935000D01*
X121935198Y-82935000D01*
X121229003Y-83641196D01*
X121200000Y-83664998D01*
X121144872Y-83732173D01*
X121105027Y-83780723D01*
X121057694Y-83869276D01*
X121034455Y-83912753D01*
X120990998Y-84056014D01*
X120980001Y-84167667D01*
X120980001Y-84167677D01*
X120976325Y-84204999D01*
X120980001Y-84242322D01*
X120980001Y-85945200D01*
X120693803Y-85659002D01*
X120670001Y-85629999D01*
X120554276Y-85535026D01*
X120422247Y-85464454D01*
X120278986Y-85420997D01*
X120167333Y-85410000D01*
X120167322Y-85410000D01*
X120130000Y-85406324D01*
X120092678Y-85410000D01*
X111984802Y-85410000D01*
X109760000Y-83185199D01*
X109760000Y-75914801D01*
X111738910Y-73935892D01*
X111767907Y-73912095D01*
X111805743Y-73865992D01*
X111862880Y-73796371D01*
X111933452Y-73664341D01*
X111942925Y-73633111D01*
X111976909Y-73521080D01*
X111987906Y-73409427D01*
X111987906Y-73409417D01*
X111991582Y-73372094D01*
X111987906Y-73334771D01*
X111987906Y-71701729D01*
X112031843Y-71657792D01*
X112145111Y-71488274D01*
X112223132Y-71299916D01*
X112262906Y-71099957D01*
X112262906Y-70896079D01*
X112223132Y-70696120D01*
X112145111Y-70507762D01*
X112031843Y-70338244D01*
X111887680Y-70194081D01*
X111718162Y-70080813D01*
X111529804Y-70002792D01*
X111329845Y-69963018D01*
X111125967Y-69963018D01*
X110926008Y-70002792D01*
X110737650Y-70080813D01*
X110568132Y-70194081D01*
X110423969Y-70338244D01*
X110349626Y-70449506D01*
X109764121Y-69864001D01*
X109740318Y-69834997D01*
X109648934Y-69760000D01*
X122403856Y-69760000D01*
X122395506Y-69764463D01*
X122298815Y-69843815D01*
X122219463Y-69940506D01*
X122160498Y-70050820D01*
X122124188Y-70170518D01*
X122111928Y-70295000D01*
X122115000Y-70459250D01*
X122273750Y-70618000D01*
X123623000Y-70618000D01*
X123623000Y-70598000D01*
X123877000Y-70598000D01*
X123877000Y-70618000D01*
X125226250Y-70618000D01*
X125385000Y-70459250D01*
X125388072Y-70295000D01*
X125375812Y-70170518D01*
X125339502Y-70050820D01*
X125280537Y-69940506D01*
X125201185Y-69843815D01*
X125104494Y-69764463D01*
X125096144Y-69760000D01*
X129217581Y-69760000D01*
X129250000Y-69763193D01*
X129282419Y-69760000D01*
X129379383Y-69750450D01*
X129503793Y-69712710D01*
X129618450Y-69651425D01*
X129718948Y-69568948D01*
X129801425Y-69468450D01*
X129862710Y-69353793D01*
X129900450Y-69229383D01*
X129913193Y-69100000D01*
X129910000Y-69067581D01*
X129910000Y-67769608D01*
X129976458Y-67703150D01*
X130252627Y-68121118D01*
G37*
%TD.AperFunction*%
D35*
X97310498Y-63705820D02*
X97274188Y-63825518D01*
X97261928Y-63950000D01*
X97261928Y-64013270D01*
X96089003Y-65186196D01*
X96059999Y-65209999D01*
X96011198Y-65269464D01*
X95965026Y-65325724D01*
X95957376Y-65340036D01*
X95894454Y-65457754D01*
X95850997Y-65601015D01*
X95840000Y-65712668D01*
X95840000Y-65712678D01*
X95836324Y-65750000D01*
X95840000Y-65787323D01*
X95840001Y-69521821D01*
X95653368Y-69646525D01*
X95446525Y-69853368D01*
X95284150Y-70096380D01*
X95155724Y-70165026D01*
X95039999Y-70259999D01*
X95016201Y-70288997D01*
X92866408Y-72438791D01*
X92646260Y-72395000D01*
X92353740Y-72395000D01*
X92066842Y-72452068D01*
X91796589Y-72564010D01*
X91553368Y-72726525D01*
X91346525Y-72933368D01*
X91184010Y-73176589D01*
X91072068Y-73446842D01*
X91015000Y-73733740D01*
X91015000Y-74026260D01*
X91072068Y-74313158D01*
X91184010Y-74583411D01*
X91346525Y-74826632D01*
X91553368Y-75033475D01*
X91726729Y-75149311D01*
X91651208Y-75391603D01*
X92500000Y-76240395D01*
X93348792Y-75391603D01*
X93273271Y-75149311D01*
X93446632Y-75033475D01*
X93590153Y-74889954D01*
X94286200Y-75586002D01*
X94309999Y-75615001D01*
X94425724Y-75709974D01*
X94557753Y-75780546D01*
X94701014Y-75824003D01*
X94812667Y-75835000D01*
X94812676Y-75835000D01*
X94849999Y-75838676D01*
X94887322Y-75835000D01*
X96075613Y-75835000D01*
X96035756Y-75909960D01*
X96009219Y-75966352D01*
X96006612Y-75972678D01*
X96003878Y-75979056D01*
X96003175Y-75980966D01*
X95937157Y-76000992D01*
X95905820Y-76010498D01*
X95795506Y-76069463D01*
X95698815Y-76148815D01*
X95619463Y-76245506D01*
X95560498Y-76355820D01*
X95524188Y-76475518D01*
X95511928Y-76600000D01*
X95511928Y-76636928D01*
X95050000Y-76636928D01*
X94881623Y-76653512D01*
X94719717Y-76702625D01*
X94570503Y-76782382D01*
X94439716Y-76889716D01*
X94332382Y-77020503D01*
X94252625Y-77169717D01*
X94203512Y-77331623D01*
X94186928Y-77500000D01*
X94186928Y-77950000D01*
X94203512Y-78118377D01*
X94252625Y-78280283D01*
X94332382Y-78429497D01*
X94390242Y-78500000D01*
X94332382Y-78570503D01*
X94252625Y-78719717D01*
X94203512Y-78881623D01*
X94186928Y-79050000D01*
X94186928Y-79500000D01*
X94203512Y-79668377D01*
X94252625Y-79830283D01*
X94332382Y-79979497D01*
X94439716Y-80110284D01*
X94570503Y-80217618D01*
X94719717Y-80297375D01*
X94881623Y-80346488D01*
X95050000Y-80363072D01*
X95333143Y-80363072D01*
X95254528Y-80510150D01*
X95203992Y-80676746D01*
X95186928Y-80850000D01*
X95186928Y-81163270D01*
X94263993Y-82086206D01*
X94234989Y-82110009D01*
X94192312Y-82162012D01*
X94140016Y-82225734D01*
X94087499Y-82323986D01*
X94069444Y-82357764D01*
X94025987Y-82501025D01*
X94014990Y-82612678D01*
X94014990Y-82612688D01*
X94011314Y-82650010D01*
X94014990Y-82687332D01*
X94014991Y-89751280D01*
X93959774Y-89696063D01*
X93888473Y-89648421D01*
X93927932Y-89553158D01*
X93985000Y-89266260D01*
X93985000Y-88973740D01*
X93927932Y-88686842D01*
X93815990Y-88416589D01*
X93653475Y-88173368D01*
X93446632Y-87966525D01*
X93272240Y-87850000D01*
X93446632Y-87733475D01*
X93653475Y-87526632D01*
X93815990Y-87283411D01*
X93927932Y-87013158D01*
X93985000Y-86726260D01*
X93985000Y-86433740D01*
X93927932Y-86146842D01*
X93815990Y-85876589D01*
X93653475Y-85633368D01*
X93446632Y-85426525D01*
X93272240Y-85310000D01*
X93446632Y-85193475D01*
X93653475Y-84986632D01*
X93815990Y-84743411D01*
X93927932Y-84473158D01*
X93985000Y-84186260D01*
X93985000Y-83893740D01*
X93927932Y-83606842D01*
X93815990Y-83336589D01*
X93653475Y-83093368D01*
X93446632Y-82886525D01*
X93272240Y-82770000D01*
X93446632Y-82653475D01*
X93653475Y-82446632D01*
X93815990Y-82203411D01*
X93927932Y-81933158D01*
X93985000Y-81646260D01*
X93985000Y-81353740D01*
X93927932Y-81066842D01*
X93815990Y-80796589D01*
X93653475Y-80553368D01*
X93446632Y-80346525D01*
X93272240Y-80230000D01*
X93446632Y-80113475D01*
X93653475Y-79906632D01*
X93815990Y-79663411D01*
X93927932Y-79393158D01*
X93985000Y-79106260D01*
X93985000Y-78813740D01*
X93927932Y-78526842D01*
X93815990Y-78256589D01*
X93653475Y-78013368D01*
X93446632Y-77806525D01*
X93273271Y-77690689D01*
X93348792Y-77448397D01*
X92500000Y-76599605D01*
X91651208Y-77448397D01*
X91726729Y-77690689D01*
X91553368Y-77806525D01*
X91346525Y-78013368D01*
X91184010Y-78256589D01*
X91072068Y-78526842D01*
X91015000Y-78813740D01*
X91015000Y-79106260D01*
X91072068Y-79393158D01*
X91184010Y-79663411D01*
X91346525Y-79906632D01*
X91553368Y-80113475D01*
X91727760Y-80230000D01*
X91553368Y-80346525D01*
X91346525Y-80553368D01*
X91184010Y-80796589D01*
X91072068Y-81066842D01*
X91015000Y-81353740D01*
X91015000Y-81646260D01*
X91072068Y-81933158D01*
X91184010Y-82203411D01*
X91346525Y-82446632D01*
X91553368Y-82653475D01*
X91727760Y-82770000D01*
X91553368Y-82886525D01*
X91346525Y-83093368D01*
X91184010Y-83336589D01*
X91072068Y-83606842D01*
X91015000Y-83893740D01*
X91015000Y-84186260D01*
X91072068Y-84473158D01*
X91184010Y-84743411D01*
X91346525Y-84986632D01*
X91553368Y-85193475D01*
X91727760Y-85310000D01*
X91553368Y-85426525D01*
X91346525Y-85633368D01*
X91184010Y-85876589D01*
X91072068Y-86146842D01*
X91015000Y-86433740D01*
X91015000Y-86726260D01*
X91072068Y-87013158D01*
X91184010Y-87283411D01*
X91346525Y-87526632D01*
X91553368Y-87733475D01*
X91727760Y-87850000D01*
X91553368Y-87966525D01*
X91346525Y-88173368D01*
X91184010Y-88416589D01*
X91072068Y-88686842D01*
X91015000Y-88973740D01*
X91015000Y-89266260D01*
X91072068Y-89553158D01*
X91133887Y-89702402D01*
X90996063Y-89840226D01*
X90882795Y-90009744D01*
X90804774Y-90198102D01*
X90765000Y-90398061D01*
X90765000Y-90601939D01*
X90804774Y-90801898D01*
X90829220Y-90860915D01*
X90753577Y-91002433D01*
X90703752Y-91166684D01*
X90686928Y-91337500D01*
X90686928Y-91837500D01*
X90703752Y-92008316D01*
X90753577Y-92172567D01*
X90834488Y-92323942D01*
X90923812Y-92432783D01*
X90873815Y-92473815D01*
X90794463Y-92570506D01*
X90735498Y-92680820D01*
X90699188Y-92800518D01*
X90686928Y-92925000D01*
X90690000Y-93126750D01*
X90848750Y-93285500D01*
X91673000Y-93285500D01*
X91673000Y-93265500D01*
X91927000Y-93265500D01*
X91927000Y-93285500D01*
X93173000Y-93285500D01*
X93173000Y-93265500D01*
X93427000Y-93265500D01*
X93427000Y-93285500D01*
X93447000Y-93285500D01*
X93447000Y-93539500D01*
X93427000Y-93539500D01*
X93427000Y-93559500D01*
X93173000Y-93559500D01*
X93173000Y-93539500D01*
X91927000Y-93539500D01*
X91927000Y-93559500D01*
X91673000Y-93559500D01*
X91673000Y-93539500D01*
X90848750Y-93539500D01*
X90690000Y-93698250D01*
X90686928Y-93900000D01*
X90699188Y-94024482D01*
X90735498Y-94144180D01*
X90794463Y-94254494D01*
X90873815Y-94351185D01*
X90970506Y-94430537D01*
X91080820Y-94489502D01*
X91200518Y-94525812D01*
X91325000Y-94538072D01*
X91472766Y-94535673D01*
X91291408Y-94590897D01*
X90752627Y-94878882D01*
X90660000Y-95019069D01*
X90660000Y-76488531D01*
X91009389Y-76488531D01*
X91051401Y-76778019D01*
X91149081Y-77053747D01*
X91222528Y-77191157D01*
X91471603Y-77268792D01*
X92320395Y-76420000D01*
X92679605Y-76420000D01*
X93528397Y-77268792D01*
X93777472Y-77191157D01*
X93903371Y-76927117D01*
X93975339Y-76643589D01*
X93990611Y-76351469D01*
X93948599Y-76061981D01*
X93850919Y-75786253D01*
X93777472Y-75648843D01*
X93528397Y-75571208D01*
X92679605Y-76420000D01*
X92320395Y-76420000D01*
X91471603Y-75571208D01*
X91222528Y-75648843D01*
X91096629Y-75912883D01*
X91024661Y-76196411D01*
X91009389Y-76488531D01*
X90660000Y-76488531D01*
X90660000Y-67980931D01*
X90752627Y-68121118D01*
X91297557Y-68411649D01*
X91888696Y-68590287D01*
X92503328Y-68650168D01*
X93117831Y-68588990D01*
X93708592Y-68409103D01*
X94247373Y-68121118D01*
X94523543Y-67703148D01*
X92500000Y-65679605D01*
X92485858Y-65693748D01*
X92306253Y-65514143D01*
X92320395Y-65500000D01*
X92306253Y-65485858D01*
X92485858Y-65306253D01*
X92500000Y-65320395D01*
X92514143Y-65306253D01*
X92693748Y-65485858D01*
X92679605Y-65500000D01*
X94703148Y-67523543D01*
X95121118Y-67247373D01*
X95411649Y-66702443D01*
X95590287Y-66111304D01*
X95650168Y-65496672D01*
X95588990Y-64882169D01*
X95409103Y-64291408D01*
X95121118Y-63752627D01*
X94980931Y-63660000D01*
X97334990Y-63660000D01*
X97310498Y-63705820D01*
%TA.AperFunction,Conductor*%
D36*
G36*
X97310498Y-63705820D02*
G01*
X97274188Y-63825518D01*
X97261928Y-63950000D01*
X97261928Y-64013270D01*
X96089003Y-65186196D01*
X96059999Y-65209999D01*
X96011198Y-65269464D01*
X95965026Y-65325724D01*
X95957376Y-65340036D01*
X95894454Y-65457754D01*
X95850997Y-65601015D01*
X95840000Y-65712668D01*
X95840000Y-65712678D01*
X95836324Y-65750000D01*
X95840000Y-65787323D01*
X95840001Y-69521821D01*
X95653368Y-69646525D01*
X95446525Y-69853368D01*
X95284150Y-70096380D01*
X95155724Y-70165026D01*
X95039999Y-70259999D01*
X95016201Y-70288997D01*
X92866408Y-72438791D01*
X92646260Y-72395000D01*
X92353740Y-72395000D01*
X92066842Y-72452068D01*
X91796589Y-72564010D01*
X91553368Y-72726525D01*
X91346525Y-72933368D01*
X91184010Y-73176589D01*
X91072068Y-73446842D01*
X91015000Y-73733740D01*
X91015000Y-74026260D01*
X91072068Y-74313158D01*
X91184010Y-74583411D01*
X91346525Y-74826632D01*
X91553368Y-75033475D01*
X91726729Y-75149311D01*
X91651208Y-75391603D01*
X92500000Y-76240395D01*
X93348792Y-75391603D01*
X93273271Y-75149311D01*
X93446632Y-75033475D01*
X93590153Y-74889954D01*
X94286200Y-75586002D01*
X94309999Y-75615001D01*
X94425724Y-75709974D01*
X94557753Y-75780546D01*
X94701014Y-75824003D01*
X94812667Y-75835000D01*
X94812676Y-75835000D01*
X94849999Y-75838676D01*
X94887322Y-75835000D01*
X96075613Y-75835000D01*
X96035756Y-75909960D01*
X96009219Y-75966352D01*
X96006612Y-75972678D01*
X96003878Y-75979056D01*
X96003175Y-75980966D01*
X95937157Y-76000992D01*
X95905820Y-76010498D01*
X95795506Y-76069463D01*
X95698815Y-76148815D01*
X95619463Y-76245506D01*
X95560498Y-76355820D01*
X95524188Y-76475518D01*
X95511928Y-76600000D01*
X95511928Y-76636928D01*
X95050000Y-76636928D01*
X94881623Y-76653512D01*
X94719717Y-76702625D01*
X94570503Y-76782382D01*
X94439716Y-76889716D01*
X94332382Y-77020503D01*
X94252625Y-77169717D01*
X94203512Y-77331623D01*
X94186928Y-77500000D01*
X94186928Y-77950000D01*
X94203512Y-78118377D01*
X94252625Y-78280283D01*
X94332382Y-78429497D01*
X94390242Y-78500000D01*
X94332382Y-78570503D01*
X94252625Y-78719717D01*
X94203512Y-78881623D01*
X94186928Y-79050000D01*
X94186928Y-79500000D01*
X94203512Y-79668377D01*
X94252625Y-79830283D01*
X94332382Y-79979497D01*
X94439716Y-80110284D01*
X94570503Y-80217618D01*
X94719717Y-80297375D01*
X94881623Y-80346488D01*
X95050000Y-80363072D01*
X95333143Y-80363072D01*
X95254528Y-80510150D01*
X95203992Y-80676746D01*
X95186928Y-80850000D01*
X95186928Y-81163270D01*
X94263993Y-82086206D01*
X94234989Y-82110009D01*
X94192312Y-82162012D01*
X94140016Y-82225734D01*
X94087499Y-82323986D01*
X94069444Y-82357764D01*
X94025987Y-82501025D01*
X94014990Y-82612678D01*
X94014990Y-82612688D01*
X94011314Y-82650010D01*
X94014990Y-82687332D01*
X94014991Y-89751280D01*
X93959774Y-89696063D01*
X93888473Y-89648421D01*
X93927932Y-89553158D01*
X93985000Y-89266260D01*
X93985000Y-88973740D01*
X93927932Y-88686842D01*
X93815990Y-88416589D01*
X93653475Y-88173368D01*
X93446632Y-87966525D01*
X93272240Y-87850000D01*
X93446632Y-87733475D01*
X93653475Y-87526632D01*
X93815990Y-87283411D01*
X93927932Y-87013158D01*
X93985000Y-86726260D01*
X93985000Y-86433740D01*
X93927932Y-86146842D01*
X93815990Y-85876589D01*
X93653475Y-85633368D01*
X93446632Y-85426525D01*
X93272240Y-85310000D01*
X93446632Y-85193475D01*
X93653475Y-84986632D01*
X93815990Y-84743411D01*
X93927932Y-84473158D01*
X93985000Y-84186260D01*
X93985000Y-83893740D01*
X93927932Y-83606842D01*
X93815990Y-83336589D01*
X93653475Y-83093368D01*
X93446632Y-82886525D01*
X93272240Y-82770000D01*
X93446632Y-82653475D01*
X93653475Y-82446632D01*
X93815990Y-82203411D01*
X93927932Y-81933158D01*
X93985000Y-81646260D01*
X93985000Y-81353740D01*
X93927932Y-81066842D01*
X93815990Y-80796589D01*
X93653475Y-80553368D01*
X93446632Y-80346525D01*
X93272240Y-80230000D01*
X93446632Y-80113475D01*
X93653475Y-79906632D01*
X93815990Y-79663411D01*
X93927932Y-79393158D01*
X93985000Y-79106260D01*
X93985000Y-78813740D01*
X93927932Y-78526842D01*
X93815990Y-78256589D01*
X93653475Y-78013368D01*
X93446632Y-77806525D01*
X93273271Y-77690689D01*
X93348792Y-77448397D01*
X92500000Y-76599605D01*
X91651208Y-77448397D01*
X91726729Y-77690689D01*
X91553368Y-77806525D01*
X91346525Y-78013368D01*
X91184010Y-78256589D01*
X91072068Y-78526842D01*
X91015000Y-78813740D01*
X91015000Y-79106260D01*
X91072068Y-79393158D01*
X91184010Y-79663411D01*
X91346525Y-79906632D01*
X91553368Y-80113475D01*
X91727760Y-80230000D01*
X91553368Y-80346525D01*
X91346525Y-80553368D01*
X91184010Y-80796589D01*
X91072068Y-81066842D01*
X91015000Y-81353740D01*
X91015000Y-81646260D01*
X91072068Y-81933158D01*
X91184010Y-82203411D01*
X91346525Y-82446632D01*
X91553368Y-82653475D01*
X91727760Y-82770000D01*
X91553368Y-82886525D01*
X91346525Y-83093368D01*
X91184010Y-83336589D01*
X91072068Y-83606842D01*
X91015000Y-83893740D01*
X91015000Y-84186260D01*
X91072068Y-84473158D01*
X91184010Y-84743411D01*
X91346525Y-84986632D01*
X91553368Y-85193475D01*
X91727760Y-85310000D01*
X91553368Y-85426525D01*
X91346525Y-85633368D01*
X91184010Y-85876589D01*
X91072068Y-86146842D01*
X91015000Y-86433740D01*
X91015000Y-86726260D01*
X91072068Y-87013158D01*
X91184010Y-87283411D01*
X91346525Y-87526632D01*
X91553368Y-87733475D01*
X91727760Y-87850000D01*
X91553368Y-87966525D01*
X91346525Y-88173368D01*
X91184010Y-88416589D01*
X91072068Y-88686842D01*
X91015000Y-88973740D01*
X91015000Y-89266260D01*
X91072068Y-89553158D01*
X91133887Y-89702402D01*
X90996063Y-89840226D01*
X90882795Y-90009744D01*
X90804774Y-90198102D01*
X90765000Y-90398061D01*
X90765000Y-90601939D01*
X90804774Y-90801898D01*
X90829220Y-90860915D01*
X90753577Y-91002433D01*
X90703752Y-91166684D01*
X90686928Y-91337500D01*
X90686928Y-91837500D01*
X90703752Y-92008316D01*
X90753577Y-92172567D01*
X90834488Y-92323942D01*
X90923812Y-92432783D01*
X90873815Y-92473815D01*
X90794463Y-92570506D01*
X90735498Y-92680820D01*
X90699188Y-92800518D01*
X90686928Y-92925000D01*
X90690000Y-93126750D01*
X90848750Y-93285500D01*
X91673000Y-93285500D01*
X91673000Y-93265500D01*
X91927000Y-93265500D01*
X91927000Y-93285500D01*
X93173000Y-93285500D01*
X93173000Y-93265500D01*
X93427000Y-93265500D01*
X93427000Y-93285500D01*
X93447000Y-93285500D01*
X93447000Y-93539500D01*
X93427000Y-93539500D01*
X93427000Y-93559500D01*
X93173000Y-93559500D01*
X93173000Y-93539500D01*
X91927000Y-93539500D01*
X91927000Y-93559500D01*
X91673000Y-93559500D01*
X91673000Y-93539500D01*
X90848750Y-93539500D01*
X90690000Y-93698250D01*
X90686928Y-93900000D01*
X90699188Y-94024482D01*
X90735498Y-94144180D01*
X90794463Y-94254494D01*
X90873815Y-94351185D01*
X90970506Y-94430537D01*
X91080820Y-94489502D01*
X91200518Y-94525812D01*
X91325000Y-94538072D01*
X91472766Y-94535673D01*
X91291408Y-94590897D01*
X90752627Y-94878882D01*
X90660000Y-95019069D01*
X90660000Y-76488531D01*
X91009389Y-76488531D01*
X91051401Y-76778019D01*
X91149081Y-77053747D01*
X91222528Y-77191157D01*
X91471603Y-77268792D01*
X92320395Y-76420000D01*
X92679605Y-76420000D01*
X93528397Y-77268792D01*
X93777472Y-77191157D01*
X93903371Y-76927117D01*
X93975339Y-76643589D01*
X93990611Y-76351469D01*
X93948599Y-76061981D01*
X93850919Y-75786253D01*
X93777472Y-75648843D01*
X93528397Y-75571208D01*
X92679605Y-76420000D01*
X92320395Y-76420000D01*
X91471603Y-75571208D01*
X91222528Y-75648843D01*
X91096629Y-75912883D01*
X91024661Y-76196411D01*
X91009389Y-76488531D01*
X90660000Y-76488531D01*
X90660000Y-67980931D01*
X90752627Y-68121118D01*
X91297557Y-68411649D01*
X91888696Y-68590287D01*
X92503328Y-68650168D01*
X93117831Y-68588990D01*
X93708592Y-68409103D01*
X94247373Y-68121118D01*
X94523543Y-67703148D01*
X92500000Y-65679605D01*
X92485858Y-65693748D01*
X92306253Y-65514143D01*
X92320395Y-65500000D01*
X92306253Y-65485858D01*
X92485858Y-65306253D01*
X92500000Y-65320395D01*
X92514143Y-65306253D01*
X92693748Y-65485858D01*
X92679605Y-65500000D01*
X94703148Y-67523543D01*
X95121118Y-67247373D01*
X95411649Y-66702443D01*
X95590287Y-66111304D01*
X95650168Y-65496672D01*
X95588990Y-64882169D01*
X95409103Y-64291408D01*
X95121118Y-63752627D01*
X94980931Y-63660000D01*
X97334990Y-63660000D01*
X97310498Y-63705820D01*
G37*
%TD.AperFunction*%
D35*
X104913997Y-88488798D02*
X105186196Y-88760997D01*
X105209999Y-88790001D01*
X105325724Y-88884974D01*
X105457753Y-88955546D01*
X105601014Y-88999003D01*
X105712667Y-89010000D01*
X105712677Y-89010000D01*
X105750000Y-89013676D01*
X105787323Y-89010000D01*
X107040000Y-89010000D01*
X107040001Y-90496288D01*
X107032916Y-90503373D01*
X106947525Y-90468002D01*
X106747566Y-90428228D01*
X106543688Y-90428228D01*
X106343729Y-90468002D01*
X106155371Y-90546023D01*
X105985853Y-90659291D01*
X105841690Y-90803454D01*
X105728422Y-90972972D01*
X105650401Y-91161330D01*
X105610627Y-91361289D01*
X105610627Y-91565167D01*
X105650401Y-91765126D01*
X105728422Y-91953484D01*
X105841690Y-92123002D01*
X105985853Y-92267165D01*
X106155371Y-92380433D01*
X106343729Y-92458454D01*
X106543688Y-92498228D01*
X106607885Y-92498228D01*
X106633366Y-92519140D01*
X106683124Y-92559976D01*
X106802733Y-92623909D01*
X106815154Y-92630548D01*
X106958415Y-92674005D01*
X107070068Y-92685002D01*
X107070077Y-92685002D01*
X107107400Y-92688678D01*
X107144723Y-92685002D01*
X107564139Y-92685002D01*
X107565000Y-92864250D01*
X107723750Y-93023000D01*
X108923000Y-93023000D01*
X108923000Y-93003000D01*
X109177000Y-93003000D01*
X109177000Y-93023000D01*
X109197000Y-93023000D01*
X109197000Y-93277000D01*
X109177000Y-93277000D01*
X109177000Y-93297000D01*
X108923000Y-93297000D01*
X108923000Y-93277000D01*
X107723750Y-93277000D01*
X107565000Y-93435750D01*
X107562645Y-93925864D01*
X107452332Y-93914999D01*
X107452321Y-93914999D01*
X107414999Y-93911323D01*
X107377677Y-93914999D01*
X106489801Y-93914999D01*
X106330000Y-93755199D01*
X106330000Y-93357325D01*
X106333676Y-93320000D01*
X106330000Y-93282675D01*
X106330000Y-93282667D01*
X106319003Y-93171014D01*
X106275546Y-93027753D01*
X106204974Y-92895724D01*
X106110001Y-92779999D01*
X106081004Y-92756202D01*
X105053804Y-91729002D01*
X105030001Y-91699999D01*
X105021054Y-91692657D01*
X105053937Y-91659774D01*
X105167205Y-91490256D01*
X105245226Y-91301898D01*
X105285000Y-91101939D01*
X105285000Y-90898061D01*
X105245226Y-90698102D01*
X105167205Y-90509744D01*
X105053937Y-90340226D01*
X104909774Y-90196063D01*
X104740256Y-90082795D01*
X104551898Y-90004774D01*
X104351939Y-89965000D01*
X104148061Y-89965000D01*
X103948102Y-90004774D01*
X103759744Y-90082795D01*
X103668538Y-90143737D01*
X103438206Y-89913404D01*
X103662812Y-89688799D01*
X103691810Y-89665001D01*
X103715610Y-89636001D01*
X103860907Y-89490704D01*
X103923044Y-89490704D01*
X104123003Y-89450930D01*
X104311361Y-89372909D01*
X104480879Y-89259641D01*
X104625042Y-89115478D01*
X104738310Y-88945960D01*
X104816331Y-88757602D01*
X104856105Y-88557643D01*
X104856105Y-88495505D01*
X104885884Y-88465726D01*
X104913997Y-88488798D01*
%TA.AperFunction,Conductor*%
D36*
G36*
X104913997Y-88488798D02*
G01*
X105186196Y-88760997D01*
X105209999Y-88790001D01*
X105325724Y-88884974D01*
X105457753Y-88955546D01*
X105601014Y-88999003D01*
X105712667Y-89010000D01*
X105712677Y-89010000D01*
X105750000Y-89013676D01*
X105787323Y-89010000D01*
X107040000Y-89010000D01*
X107040001Y-90496288D01*
X107032916Y-90503373D01*
X106947525Y-90468002D01*
X106747566Y-90428228D01*
X106543688Y-90428228D01*
X106343729Y-90468002D01*
X106155371Y-90546023D01*
X105985853Y-90659291D01*
X105841690Y-90803454D01*
X105728422Y-90972972D01*
X105650401Y-91161330D01*
X105610627Y-91361289D01*
X105610627Y-91565167D01*
X105650401Y-91765126D01*
X105728422Y-91953484D01*
X105841690Y-92123002D01*
X105985853Y-92267165D01*
X106155371Y-92380433D01*
X106343729Y-92458454D01*
X106543688Y-92498228D01*
X106607885Y-92498228D01*
X106633366Y-92519140D01*
X106683124Y-92559976D01*
X106802733Y-92623909D01*
X106815154Y-92630548D01*
X106958415Y-92674005D01*
X107070068Y-92685002D01*
X107070077Y-92685002D01*
X107107400Y-92688678D01*
X107144723Y-92685002D01*
X107564139Y-92685002D01*
X107565000Y-92864250D01*
X107723750Y-93023000D01*
X108923000Y-93023000D01*
X108923000Y-93003000D01*
X109177000Y-93003000D01*
X109177000Y-93023000D01*
X109197000Y-93023000D01*
X109197000Y-93277000D01*
X109177000Y-93277000D01*
X109177000Y-93297000D01*
X108923000Y-93297000D01*
X108923000Y-93277000D01*
X107723750Y-93277000D01*
X107565000Y-93435750D01*
X107562645Y-93925864D01*
X107452332Y-93914999D01*
X107452321Y-93914999D01*
X107414999Y-93911323D01*
X107377677Y-93914999D01*
X106489801Y-93914999D01*
X106330000Y-93755199D01*
X106330000Y-93357325D01*
X106333676Y-93320000D01*
X106330000Y-93282675D01*
X106330000Y-93282667D01*
X106319003Y-93171014D01*
X106275546Y-93027753D01*
X106204974Y-92895724D01*
X106110001Y-92779999D01*
X106081004Y-92756202D01*
X105053804Y-91729002D01*
X105030001Y-91699999D01*
X105021054Y-91692657D01*
X105053937Y-91659774D01*
X105167205Y-91490256D01*
X105245226Y-91301898D01*
X105285000Y-91101939D01*
X105285000Y-90898061D01*
X105245226Y-90698102D01*
X105167205Y-90509744D01*
X105053937Y-90340226D01*
X104909774Y-90196063D01*
X104740256Y-90082795D01*
X104551898Y-90004774D01*
X104351939Y-89965000D01*
X104148061Y-89965000D01*
X103948102Y-90004774D01*
X103759744Y-90082795D01*
X103668538Y-90143737D01*
X103438206Y-89913404D01*
X103662812Y-89688799D01*
X103691810Y-89665001D01*
X103715610Y-89636001D01*
X103860907Y-89490704D01*
X103923044Y-89490704D01*
X104123003Y-89450930D01*
X104311361Y-89372909D01*
X104480879Y-89259641D01*
X104625042Y-89115478D01*
X104738310Y-88945960D01*
X104816331Y-88757602D01*
X104856105Y-88557643D01*
X104856105Y-88495505D01*
X104885884Y-88465726D01*
X104913997Y-88488798D01*
G37*
%TD.AperFunction*%
D35*
X124765012Y-91773359D02*
X124621033Y-91696401D01*
X124341110Y-91611487D01*
X124050000Y-91582815D01*
X123758889Y-91611487D01*
X123478966Y-91696401D01*
X123220986Y-91834294D01*
X122994866Y-92019866D01*
X122809294Y-92245987D01*
X122800000Y-92263374D01*
X122790706Y-92245986D01*
X122605134Y-92019866D01*
X122379013Y-91834294D01*
X122121033Y-91696401D01*
X121841110Y-91611487D01*
X121550000Y-91582815D01*
X121258889Y-91611487D01*
X120978966Y-91696401D01*
X120720986Y-91834294D01*
X120494866Y-92019866D01*
X120309294Y-92245987D01*
X120300000Y-92263374D01*
X120290706Y-92245986D01*
X120105134Y-92019866D01*
X119879013Y-91834294D01*
X119621033Y-91696401D01*
X119341110Y-91611487D01*
X119050000Y-91582815D01*
X118758889Y-91611487D01*
X118478966Y-91696401D01*
X118220986Y-91834294D01*
X117994866Y-92019866D01*
X117809294Y-92245987D01*
X117800000Y-92263374D01*
X117790706Y-92245986D01*
X117605134Y-92019866D01*
X117379013Y-91834294D01*
X117121033Y-91696401D01*
X116841110Y-91611487D01*
X116550000Y-91582815D01*
X116258889Y-91611487D01*
X115978966Y-91696401D01*
X115720986Y-91834294D01*
X115494866Y-92019866D01*
X115309294Y-92245987D01*
X115300000Y-92263374D01*
X115290706Y-92245986D01*
X115105134Y-92019866D01*
X114879013Y-91834294D01*
X114810000Y-91797406D01*
X114810000Y-91264801D01*
X114834778Y-91240023D01*
X123855656Y-91240023D01*
X123892979Y-91243699D01*
X123930301Y-91240023D01*
X123930312Y-91240023D01*
X124041965Y-91229026D01*
X124185226Y-91185569D01*
X124317255Y-91114997D01*
X124432980Y-91020024D01*
X124456782Y-90991021D01*
X124765012Y-90682791D01*
X124765012Y-91773359D01*
%TA.AperFunction,Conductor*%
D36*
G36*
X124765012Y-91773359D02*
G01*
X124621033Y-91696401D01*
X124341110Y-91611487D01*
X124050000Y-91582815D01*
X123758889Y-91611487D01*
X123478966Y-91696401D01*
X123220986Y-91834294D01*
X122994866Y-92019866D01*
X122809294Y-92245987D01*
X122800000Y-92263374D01*
X122790706Y-92245986D01*
X122605134Y-92019866D01*
X122379013Y-91834294D01*
X122121033Y-91696401D01*
X121841110Y-91611487D01*
X121550000Y-91582815D01*
X121258889Y-91611487D01*
X120978966Y-91696401D01*
X120720986Y-91834294D01*
X120494866Y-92019866D01*
X120309294Y-92245987D01*
X120300000Y-92263374D01*
X120290706Y-92245986D01*
X120105134Y-92019866D01*
X119879013Y-91834294D01*
X119621033Y-91696401D01*
X119341110Y-91611487D01*
X119050000Y-91582815D01*
X118758889Y-91611487D01*
X118478966Y-91696401D01*
X118220986Y-91834294D01*
X117994866Y-92019866D01*
X117809294Y-92245987D01*
X117800000Y-92263374D01*
X117790706Y-92245986D01*
X117605134Y-92019866D01*
X117379013Y-91834294D01*
X117121033Y-91696401D01*
X116841110Y-91611487D01*
X116550000Y-91582815D01*
X116258889Y-91611487D01*
X115978966Y-91696401D01*
X115720986Y-91834294D01*
X115494866Y-92019866D01*
X115309294Y-92245987D01*
X115300000Y-92263374D01*
X115290706Y-92245986D01*
X115105134Y-92019866D01*
X114879013Y-91834294D01*
X114810000Y-91797406D01*
X114810000Y-91264801D01*
X114834778Y-91240023D01*
X123855656Y-91240023D01*
X123892979Y-91243699D01*
X123930301Y-91240023D01*
X123930312Y-91240023D01*
X124041965Y-91229026D01*
X124185226Y-91185569D01*
X124317255Y-91114997D01*
X124432980Y-91020024D01*
X124456782Y-90991021D01*
X124765012Y-90682791D01*
X124765012Y-91773359D01*
G37*
%TD.AperFunction*%
D35*
X109662000Y-88128000D02*
X109682000Y-88128000D01*
X109682000Y-88377313D01*
X109679495Y-88382000D01*
X109662000Y-88382000D01*
X109662000Y-88438506D01*
X109635219Y-88526793D01*
X109624222Y-88638446D01*
X109624222Y-88638456D01*
X109620546Y-88675778D01*
X109624222Y-88713101D01*
X109624223Y-90667533D01*
X109580285Y-90711471D01*
X109467017Y-90880989D01*
X109388996Y-91069347D01*
X109349222Y-91269306D01*
X109349222Y-91473184D01*
X109372418Y-91589800D01*
X109335750Y-91590000D01*
X109278948Y-91646802D01*
X109285002Y-91585335D01*
X109288679Y-91548002D01*
X109285002Y-91510669D01*
X109285002Y-90789320D01*
X109288678Y-90751997D01*
X109285002Y-90714675D01*
X109285002Y-90714665D01*
X109274005Y-90603012D01*
X109230548Y-90459751D01*
X109210009Y-90421326D01*
X109210009Y-89890734D01*
X109249250Y-89890000D01*
X109408000Y-89731250D01*
X109408000Y-88382000D01*
X109388000Y-88382000D01*
X109388000Y-88128000D01*
X109408000Y-88128000D01*
X109408000Y-88108000D01*
X109662000Y-88108000D01*
X109662000Y-88128000D01*
%TA.AperFunction,Conductor*%
D36*
G36*
X109662000Y-88128000D02*
G01*
X109682000Y-88128000D01*
X109682000Y-88377313D01*
X109679495Y-88382000D01*
X109662000Y-88382000D01*
X109662000Y-88438506D01*
X109635219Y-88526793D01*
X109624222Y-88638446D01*
X109624222Y-88638456D01*
X109620546Y-88675778D01*
X109624222Y-88713101D01*
X109624223Y-90667533D01*
X109580285Y-90711471D01*
X109467017Y-90880989D01*
X109388996Y-91069347D01*
X109349222Y-91269306D01*
X109349222Y-91473184D01*
X109372418Y-91589800D01*
X109335750Y-91590000D01*
X109278948Y-91646802D01*
X109285002Y-91585335D01*
X109288679Y-91548002D01*
X109285002Y-91510669D01*
X109285002Y-90789320D01*
X109288678Y-90751997D01*
X109285002Y-90714675D01*
X109285002Y-90714665D01*
X109274005Y-90603012D01*
X109230548Y-90459751D01*
X109210009Y-90421326D01*
X109210009Y-89890734D01*
X109249250Y-89890000D01*
X109408000Y-89731250D01*
X109408000Y-88382000D01*
X109388000Y-88382000D01*
X109388000Y-88128000D01*
X109408000Y-88128000D01*
X109408000Y-88108000D01*
X109662000Y-88108000D01*
X109662000Y-88128000D01*
G37*
%TD.AperFunction*%
D35*
X95535613Y-88074023D02*
X95613634Y-88262381D01*
X95726902Y-88431899D01*
X95871065Y-88576062D01*
X96040583Y-88689330D01*
X96228941Y-88767351D01*
X96428900Y-88807125D01*
X96632778Y-88807125D01*
X96832737Y-88767351D01*
X97021095Y-88689330D01*
X97090000Y-88643289D01*
X97090000Y-88752002D01*
X97121748Y-88752002D01*
X97090000Y-88783750D01*
X97100738Y-88875000D01*
X97090000Y-88966250D01*
X97153807Y-89030057D01*
X97203591Y-89117789D01*
X97227864Y-89145886D01*
X97090000Y-89283750D01*
X97102534Y-89390258D01*
X97141858Y-89509000D01*
X97203591Y-89617789D01*
X97285362Y-89712444D01*
X97384028Y-89789327D01*
X97495797Y-89845484D01*
X97616374Y-89878758D01*
X97741126Y-89887868D01*
X97773000Y-89885968D01*
X97773000Y-90200000D01*
X97775440Y-90224776D01*
X97782667Y-90248601D01*
X97794403Y-90270557D01*
X97810197Y-90289803D01*
X97826048Y-90302811D01*
X97753465Y-90332876D01*
X97743776Y-90339350D01*
X97733966Y-90332795D01*
X97545608Y-90254774D01*
X97345649Y-90215000D01*
X97141771Y-90215000D01*
X96941812Y-90254774D01*
X96753454Y-90332795D01*
X96583936Y-90446063D01*
X96439773Y-90590226D01*
X96326505Y-90759744D01*
X96248484Y-90948102D01*
X96208710Y-91148061D01*
X96208710Y-91351939D01*
X96216648Y-91391846D01*
X95534990Y-90710189D01*
X95534990Y-88070891D01*
X95535613Y-88074023D01*
%TA.AperFunction,Conductor*%
D36*
G36*
X95535613Y-88074023D02*
G01*
X95613634Y-88262381D01*
X95726902Y-88431899D01*
X95871065Y-88576062D01*
X96040583Y-88689330D01*
X96228941Y-88767351D01*
X96428900Y-88807125D01*
X96632778Y-88807125D01*
X96832737Y-88767351D01*
X97021095Y-88689330D01*
X97090000Y-88643289D01*
X97090000Y-88752002D01*
X97121748Y-88752002D01*
X97090000Y-88783750D01*
X97100738Y-88875000D01*
X97090000Y-88966250D01*
X97153807Y-89030057D01*
X97203591Y-89117789D01*
X97227864Y-89145886D01*
X97090000Y-89283750D01*
X97102534Y-89390258D01*
X97141858Y-89509000D01*
X97203591Y-89617789D01*
X97285362Y-89712444D01*
X97384028Y-89789327D01*
X97495797Y-89845484D01*
X97616374Y-89878758D01*
X97741126Y-89887868D01*
X97773000Y-89885968D01*
X97773000Y-90200000D01*
X97775440Y-90224776D01*
X97782667Y-90248601D01*
X97794403Y-90270557D01*
X97810197Y-90289803D01*
X97826048Y-90302811D01*
X97753465Y-90332876D01*
X97743776Y-90339350D01*
X97733966Y-90332795D01*
X97545608Y-90254774D01*
X97345649Y-90215000D01*
X97141771Y-90215000D01*
X96941812Y-90254774D01*
X96753454Y-90332795D01*
X96583936Y-90446063D01*
X96439773Y-90590226D01*
X96326505Y-90759744D01*
X96248484Y-90948102D01*
X96208710Y-91148061D01*
X96208710Y-91351939D01*
X96216648Y-91391846D01*
X95534990Y-90710189D01*
X95534990Y-88070891D01*
X95535613Y-88074023D01*
G37*
%TD.AperFunction*%
D35*
X98267241Y-83907822D02*
X98097723Y-84021090D01*
X97953560Y-84165253D01*
X97840292Y-84334771D01*
X97762271Y-84523129D01*
X97722497Y-84723088D01*
X97722497Y-84789999D01*
X97603310Y-84789999D01*
X97565987Y-84786323D01*
X97528664Y-84789999D01*
X97528654Y-84789999D01*
X97417001Y-84800996D01*
X97273740Y-84844453D01*
X97141711Y-84915025D01*
X97025986Y-85009998D01*
X97002188Y-85038996D01*
X96410209Y-85630976D01*
X96348071Y-85630976D01*
X96148112Y-85670750D01*
X95959754Y-85748771D01*
X95790236Y-85862039D01*
X95646073Y-86006202D01*
X95534990Y-86172450D01*
X95534990Y-83950142D01*
X95581614Y-83988405D01*
X95735150Y-84070472D01*
X95901746Y-84121008D01*
X96075000Y-84138072D01*
X97025000Y-84138072D01*
X97198254Y-84121008D01*
X97364850Y-84070472D01*
X97518386Y-83988405D01*
X97640643Y-83888072D01*
X98314921Y-83888072D01*
X98267241Y-83907822D01*
%TA.AperFunction,Conductor*%
D36*
G36*
X98267241Y-83907822D02*
G01*
X98097723Y-84021090D01*
X97953560Y-84165253D01*
X97840292Y-84334771D01*
X97762271Y-84523129D01*
X97722497Y-84723088D01*
X97722497Y-84789999D01*
X97603310Y-84789999D01*
X97565987Y-84786323D01*
X97528664Y-84789999D01*
X97528654Y-84789999D01*
X97417001Y-84800996D01*
X97273740Y-84844453D01*
X97141711Y-84915025D01*
X97025986Y-85009998D01*
X97002188Y-85038996D01*
X96410209Y-85630976D01*
X96348071Y-85630976D01*
X96148112Y-85670750D01*
X95959754Y-85748771D01*
X95790236Y-85862039D01*
X95646073Y-86006202D01*
X95534990Y-86172450D01*
X95534990Y-83950142D01*
X95581614Y-83988405D01*
X95735150Y-84070472D01*
X95901746Y-84121008D01*
X96075000Y-84138072D01*
X97025000Y-84138072D01*
X97198254Y-84121008D01*
X97364850Y-84070472D01*
X97518386Y-83988405D01*
X97640643Y-83888072D01*
X98314921Y-83888072D01*
X98267241Y-83907822D01*
G37*
%TD.AperFunction*%
D35*
X101831614Y-83988405D02*
X101985150Y-84070472D01*
X102151746Y-84121008D01*
X102325000Y-84138072D01*
X103130278Y-84138072D01*
X103138523Y-84165253D01*
X103169464Y-84267256D01*
X103219031Y-84359988D01*
X102431787Y-84359988D01*
X102377803Y-84306004D01*
X102354000Y-84277000D01*
X102238275Y-84182027D01*
X102106246Y-84111455D01*
X101962985Y-84067998D01*
X101851332Y-84057001D01*
X101851321Y-84057001D01*
X101813999Y-84053325D01*
X101776677Y-84057001D01*
X100610897Y-84057001D01*
X100573564Y-84053324D01*
X100536234Y-84057001D01*
X100536233Y-84057001D01*
X100424580Y-84067998D01*
X100281319Y-84111455D01*
X100149290Y-84182027D01*
X100033565Y-84277000D01*
X100009762Y-84306004D01*
X99831483Y-84484283D01*
X99831479Y-84484288D01*
X99759345Y-84556421D01*
X99752723Y-84523129D01*
X99674702Y-84334771D01*
X99561434Y-84165253D01*
X99417271Y-84021090D01*
X99247753Y-83907822D01*
X99200073Y-83888072D01*
X101709357Y-83888072D01*
X101831614Y-83988405D01*
%TA.AperFunction,Conductor*%
D36*
G36*
X101831614Y-83988405D02*
G01*
X101985150Y-84070472D01*
X102151746Y-84121008D01*
X102325000Y-84138072D01*
X103130278Y-84138072D01*
X103138523Y-84165253D01*
X103169464Y-84267256D01*
X103219031Y-84359988D01*
X102431787Y-84359988D01*
X102377803Y-84306004D01*
X102354000Y-84277000D01*
X102238275Y-84182027D01*
X102106246Y-84111455D01*
X101962985Y-84067998D01*
X101851332Y-84057001D01*
X101851321Y-84057001D01*
X101813999Y-84053325D01*
X101776677Y-84057001D01*
X100610897Y-84057001D01*
X100573564Y-84053324D01*
X100536234Y-84057001D01*
X100536233Y-84057001D01*
X100424580Y-84067998D01*
X100281319Y-84111455D01*
X100149290Y-84182027D01*
X100033565Y-84277000D01*
X100009762Y-84306004D01*
X99831483Y-84484283D01*
X99831479Y-84484288D01*
X99759345Y-84556421D01*
X99752723Y-84523129D01*
X99674702Y-84334771D01*
X99561434Y-84165253D01*
X99417271Y-84021090D01*
X99247753Y-83907822D01*
X99200073Y-83888072D01*
X101709357Y-83888072D01*
X101831614Y-83988405D01*
G37*
%TD.AperFunction*%
D35*
X99811928Y-81044374D02*
X99811928Y-82111928D01*
X99548072Y-82111928D01*
X99548072Y-81044374D01*
X99547451Y-81038072D01*
X99812549Y-81038072D01*
X99811928Y-81044374D01*
%TA.AperFunction,Conductor*%
D36*
G36*
X99811928Y-81044374D02*
G01*
X99811928Y-82111928D01*
X99548072Y-82111928D01*
X99548072Y-81044374D01*
X99547451Y-81038072D01*
X99812549Y-81038072D01*
X99811928Y-81044374D01*
G37*
%TD.AperFunction*%
D35*
X104165022Y-80889340D02*
X104165022Y-80889350D01*
X104176019Y-81001003D01*
X104210453Y-81114517D01*
X104214989Y-81129471D01*
X104214989Y-81686612D01*
X104124042Y-81595666D01*
X104146008Y-81523254D01*
X104163072Y-81350000D01*
X104163072Y-80869542D01*
X104165022Y-80889340D01*
%TA.AperFunction,Conductor*%
D36*
G36*
X104165022Y-80889340D02*
G01*
X104165022Y-80889350D01*
X104176019Y-81001003D01*
X104210453Y-81114517D01*
X104214989Y-81129471D01*
X104214989Y-81686612D01*
X104124042Y-81595666D01*
X104146008Y-81523254D01*
X104163072Y-81350000D01*
X104163072Y-80869542D01*
X104165022Y-80889340D01*
G37*
%TD.AperFunction*%
D35*
X99333748Y-70785858D02*
X99319605Y-70800000D01*
X100168397Y-71648792D01*
X100410689Y-71573271D01*
X100526525Y-71746632D01*
X100733368Y-71953475D01*
X100918709Y-72077316D01*
X100920000Y-72090423D01*
X100920000Y-72090433D01*
X100930997Y-72202086D01*
X100973718Y-72342921D01*
X100974454Y-72345347D01*
X101045026Y-72477377D01*
X101083662Y-72524454D01*
X101139999Y-72593102D01*
X101169003Y-72616905D01*
X104165023Y-75612926D01*
X104165022Y-80814695D01*
X104162308Y-80842247D01*
X104146008Y-80676746D01*
X104119066Y-80587929D01*
X104138312Y-80524482D01*
X104150572Y-80400000D01*
X104150572Y-76700000D01*
X104138312Y-76575518D01*
X104102002Y-76455820D01*
X104043037Y-76345506D01*
X103963685Y-76248815D01*
X103866994Y-76169463D01*
X103756680Y-76110498D01*
X103636982Y-76074188D01*
X103585000Y-76069068D01*
X103585000Y-75806638D01*
X103588676Y-75769315D01*
X103585000Y-75731992D01*
X103585000Y-75731983D01*
X103574003Y-75620330D01*
X103530546Y-75477069D01*
X103514531Y-75447108D01*
X103459974Y-75345039D01*
X103388799Y-75258313D01*
X103365001Y-75229315D01*
X103336002Y-75205517D01*
X102694487Y-74564002D01*
X102670685Y-74534999D01*
X102554960Y-74440026D01*
X102422931Y-74369454D01*
X102279670Y-74325997D01*
X102168017Y-74315000D01*
X102168006Y-74315000D01*
X102130684Y-74311324D01*
X102093362Y-74315000D01*
X95164802Y-74315000D01*
X94218804Y-73369003D01*
X94195001Y-73339999D01*
X94150952Y-73303849D01*
X95577347Y-71877454D01*
X95653368Y-71953475D01*
X95896589Y-72115990D01*
X96166842Y-72227932D01*
X96453740Y-72285000D01*
X96746260Y-72285000D01*
X97033158Y-72227932D01*
X97303411Y-72115990D01*
X97546632Y-71953475D01*
X97671710Y-71828397D01*
X98291208Y-71828397D01*
X98368843Y-72077472D01*
X98632883Y-72203371D01*
X98916411Y-72275339D01*
X99208531Y-72290611D01*
X99498019Y-72248599D01*
X99773747Y-72150919D01*
X99911157Y-72077472D01*
X99988792Y-71828397D01*
X99140000Y-70979605D01*
X98291208Y-71828397D01*
X97671710Y-71828397D01*
X97753475Y-71746632D01*
X97869311Y-71573271D01*
X98111603Y-71648792D01*
X98960395Y-70800000D01*
X98946253Y-70785858D01*
X99125858Y-70606253D01*
X99140000Y-70620395D01*
X99154143Y-70606253D01*
X99333748Y-70785858D01*
%TA.AperFunction,Conductor*%
D36*
G36*
X99333748Y-70785858D02*
G01*
X99319605Y-70800000D01*
X100168397Y-71648792D01*
X100410689Y-71573271D01*
X100526525Y-71746632D01*
X100733368Y-71953475D01*
X100918709Y-72077316D01*
X100920000Y-72090423D01*
X100920000Y-72090433D01*
X100930997Y-72202086D01*
X100973718Y-72342921D01*
X100974454Y-72345347D01*
X101045026Y-72477377D01*
X101083662Y-72524454D01*
X101139999Y-72593102D01*
X101169003Y-72616905D01*
X104165023Y-75612926D01*
X104165022Y-80814695D01*
X104162308Y-80842247D01*
X104146008Y-80676746D01*
X104119066Y-80587929D01*
X104138312Y-80524482D01*
X104150572Y-80400000D01*
X104150572Y-76700000D01*
X104138312Y-76575518D01*
X104102002Y-76455820D01*
X104043037Y-76345506D01*
X103963685Y-76248815D01*
X103866994Y-76169463D01*
X103756680Y-76110498D01*
X103636982Y-76074188D01*
X103585000Y-76069068D01*
X103585000Y-75806638D01*
X103588676Y-75769315D01*
X103585000Y-75731992D01*
X103585000Y-75731983D01*
X103574003Y-75620330D01*
X103530546Y-75477069D01*
X103514531Y-75447108D01*
X103459974Y-75345039D01*
X103388799Y-75258313D01*
X103365001Y-75229315D01*
X103336002Y-75205517D01*
X102694487Y-74564002D01*
X102670685Y-74534999D01*
X102554960Y-74440026D01*
X102422931Y-74369454D01*
X102279670Y-74325997D01*
X102168017Y-74315000D01*
X102168006Y-74315000D01*
X102130684Y-74311324D01*
X102093362Y-74315000D01*
X95164802Y-74315000D01*
X94218804Y-73369003D01*
X94195001Y-73339999D01*
X94150952Y-73303849D01*
X95577347Y-71877454D01*
X95653368Y-71953475D01*
X95896589Y-72115990D01*
X96166842Y-72227932D01*
X96453740Y-72285000D01*
X96746260Y-72285000D01*
X97033158Y-72227932D01*
X97303411Y-72115990D01*
X97546632Y-71953475D01*
X97671710Y-71828397D01*
X98291208Y-71828397D01*
X98368843Y-72077472D01*
X98632883Y-72203371D01*
X98916411Y-72275339D01*
X99208531Y-72290611D01*
X99498019Y-72248599D01*
X99773747Y-72150919D01*
X99911157Y-72077472D01*
X99988792Y-71828397D01*
X99140000Y-70979605D01*
X98291208Y-71828397D01*
X97671710Y-71828397D01*
X97753475Y-71746632D01*
X97869311Y-71573271D01*
X98111603Y-71648792D01*
X98960395Y-70800000D01*
X98946253Y-70785858D01*
X99125858Y-70606253D01*
X99140000Y-70620395D01*
X99154143Y-70606253D01*
X99333748Y-70785858D01*
G37*
%TD.AperFunction*%
D35*
X106877000Y-70618000D02*
X106897000Y-70618000D01*
X106897000Y-70872000D01*
X106877000Y-70872000D01*
X106877000Y-70892000D01*
X106623000Y-70892000D01*
X106623000Y-70872000D01*
X106603000Y-70872000D01*
X106603000Y-70618000D01*
X106623000Y-70618000D01*
X106623000Y-70598000D01*
X106877000Y-70598000D01*
X106877000Y-70618000D01*
%TA.AperFunction,Conductor*%
D36*
G36*
X106877000Y-70618000D02*
G01*
X106897000Y-70618000D01*
X106897000Y-70872000D01*
X106877000Y-70872000D01*
X106877000Y-70892000D01*
X106623000Y-70892000D01*
X106623000Y-70872000D01*
X106603000Y-70872000D01*
X106603000Y-70618000D01*
X106623000Y-70618000D01*
X106623000Y-70598000D01*
X106877000Y-70598000D01*
X106877000Y-70618000D01*
G37*
%TD.AperFunction*%
D35*
X132193748Y-65485858D02*
X132179605Y-65500000D01*
X132193748Y-65514143D01*
X132014143Y-65693748D01*
X132000000Y-65679605D01*
X131985858Y-65693748D01*
X131806253Y-65514143D01*
X131820395Y-65500000D01*
X131806253Y-65485858D01*
X131985858Y-65306253D01*
X132000000Y-65320395D01*
X132014143Y-65306253D01*
X132193748Y-65485858D01*
%TA.AperFunction,Conductor*%
D36*
G36*
X132193748Y-65485858D02*
G01*
X132179605Y-65500000D01*
X132193748Y-65514143D01*
X132014143Y-65693748D01*
X132000000Y-65679605D01*
X131985858Y-65693748D01*
X131806253Y-65514143D01*
X131820395Y-65500000D01*
X131806253Y-65485858D01*
X131985858Y-65306253D01*
X132000000Y-65320395D01*
X132014143Y-65306253D01*
X132193748Y-65485858D01*
G37*
%TD.AperFunction*%
%TD*%
M02*
