%TF.GenerationSoftware,KiCad,Pcbnew,(6.0.2-0)*%
%TF.CreationDate,2022-04-10T10:20:29+01:00*%
%TF.ProjectId,EnvMon2,456e764d-6f6e-4322-9e6b-696361645f70,4*%
%TF.SameCoordinates,Original*%
%TF.FileFunction,Profile,NP*%
%FSLAX46Y46*%
G04 Gerber Fmt 4.6, Leading zero omitted, Abs format (unit mm)*
G04 Created by KiCad (PCBNEW (6.0.2-0)) date 2022-04-10 10:20:29*
%MOMM*%
%LPD*%
G01*
G04 APERTURE LIST*
%TA.AperFunction,Profile*%
%ADD10C,0.050000*%
%TD*%
G04 APERTURE END LIST*
D10*
X98000002Y-77000000D02*
X98000002Y-79000000D01*
X100000000Y-75000000D02*
X100000000Y-79000000D01*
X98000000Y-79000000D02*
G75*
G03*
X100000000Y-79000000I1000000J0D01*
G01*
X100000000Y-75000000D02*
G75*
G03*
X99000000Y-74000000I-1000000J0D01*
G01*
X98000002Y-77000000D02*
G75*
G03*
X97000000Y-75999998I-1000002J0D01*
G01*
X99000000Y-74000000D02*
X97000001Y-74000000D01*
X98000000Y-83000000D02*
X98000000Y-93000000D01*
X100000000Y-83000000D02*
X100000000Y-93000000D01*
X100000000Y-83000000D02*
G75*
G03*
X98000000Y-83000000I-1000000J0D01*
G01*
X98000000Y-93000000D02*
G75*
G03*
X100000000Y-93000000I1000000J0D01*
G01*
X100000000Y-97000000D02*
G75*
G03*
X98000000Y-97000000I-1000000J0D01*
G01*
X98000000Y-99000000D02*
X98000000Y-97000000D01*
X97000000Y-100000000D02*
G75*
G03*
X98000000Y-99000000I0J1000000D01*
G01*
X88000000Y-100000000D02*
X97000000Y-100000000D01*
X87000000Y-99000000D02*
G75*
G03*
X88000000Y-100000000I1000000J0D01*
G01*
X87000000Y-77000000D02*
X87000000Y-99000000D01*
X88000000Y-76000000D02*
G75*
G03*
X87000000Y-77000000I0J-1000000D01*
G01*
X97000001Y-75999998D02*
X88000000Y-75999998D01*
X97000001Y-74000000D02*
X88000000Y-74000000D01*
X100000000Y-64800000D02*
G75*
G03*
X98000000Y-64800000I-1000000J0D01*
G01*
X134500000Y-67250000D02*
X134500000Y-63000000D01*
X113750000Y-75250000D02*
G75*
G03*
X112000000Y-73500000I-1750000J0D01*
G01*
X106000000Y-68250000D02*
X133500000Y-68250000D01*
X88000000Y-63000000D02*
G75*
G03*
X87000000Y-64000000I-1J-999999D01*
G01*
X105000000Y-67250000D02*
G75*
G03*
X106000000Y-68250000I999999J-1D01*
G01*
X133500000Y-68250000D02*
G75*
G03*
X134500000Y-67250000I1J999999D01*
G01*
X87000000Y-73000000D02*
X87000000Y-64000000D01*
X100000000Y-100000000D02*
X144500000Y-100000000D01*
X98000000Y-64800000D02*
X98000000Y-72200000D01*
X87000000Y-73000000D02*
G75*
G03*
X88000000Y-74000000I999999J-1D01*
G01*
X144500000Y-100000000D02*
X144500000Y-63000000D01*
X104500000Y-76750000D02*
G75*
G03*
X106250000Y-78500000I1750000J0D01*
G01*
X106250000Y-73500000D02*
G75*
G03*
X104500000Y-75250000I0J-1750000D01*
G01*
X106250000Y-78500000D02*
X112000000Y-78500000D01*
X100000000Y-64800000D02*
X100000000Y-72200000D01*
X134500000Y-63000000D02*
X144500000Y-63000000D01*
X102500000Y-72500000D02*
X112000000Y-72500000D01*
X113750000Y-75250000D02*
X113750000Y-76750000D01*
X112000000Y-69000000D02*
X102500000Y-69000000D01*
X112000000Y-73500000D02*
X106250000Y-73500000D01*
X102500000Y-69000000D02*
G75*
G03*
X102500000Y-72500000I0J-1750000D01*
G01*
X112000000Y-72500000D02*
G75*
G03*
X112000000Y-69000000I0J1750000D01*
G01*
X105000000Y-63000000D02*
X88000000Y-63000000D01*
X104500000Y-75250000D02*
X104500000Y-76750000D01*
X98000000Y-72200000D02*
G75*
G03*
X100000000Y-72200000I1000000J0D01*
G01*
X100000000Y-97000000D02*
X100000000Y-100000000D01*
X112000000Y-78500000D02*
G75*
G03*
X113750000Y-76750000I0J1750000D01*
G01*
X105000000Y-63000000D02*
X105000000Y-67250000D01*
M02*
