%TF.GenerationSoftware,KiCad,Pcbnew,(6.0.0-0)*%
%TF.CreationDate,2021-12-31T16:38:04+00:00*%
%TF.ProjectId,EnvMon,456e764d-6f6e-42e6-9b69-6361645f7063,4*%
%TF.SameCoordinates,Original*%
%TF.FileFunction,Legend,Top*%
%TF.FilePolarity,Positive*%
%FSLAX46Y46*%
G04 Gerber Fmt 4.6, Leading zero omitted, Abs format (unit mm)*
G04 Created by KiCad (PCBNEW (6.0.0-0)) date 2021-12-31 16:38:04*
%MOMM*%
%LPD*%
G01*
G04 APERTURE LIST*
%ADD10C,0.150000*%
%ADD11C,0.100000*%
%ADD12C,0.080000*%
%ADD13C,0.120000*%
G04 APERTURE END LIST*
D10*
%TO.C,J1*%
X103916666Y-91202380D02*
X103916666Y-91916666D01*
X103869047Y-92059523D01*
X103773809Y-92154761D01*
X103630952Y-92202380D01*
X103535714Y-92202380D01*
X104916666Y-92202380D02*
X104345238Y-92202380D01*
X104630952Y-92202380D02*
X104630952Y-91202380D01*
X104535714Y-91345238D01*
X104440476Y-91440476D01*
X104345238Y-91488095D01*
%TO.C,J3*%
X117466666Y-98602380D02*
X117466666Y-99316666D01*
X117419047Y-99459523D01*
X117323809Y-99554761D01*
X117180952Y-99602380D01*
X117085714Y-99602380D01*
X117847619Y-98602380D02*
X118466666Y-98602380D01*
X118133333Y-98983333D01*
X118276190Y-98983333D01*
X118371428Y-99030952D01*
X118419047Y-99078571D01*
X118466666Y-99173809D01*
X118466666Y-99411904D01*
X118419047Y-99507142D01*
X118371428Y-99554761D01*
X118276190Y-99602380D01*
X117990476Y-99602380D01*
X117895238Y-99554761D01*
X117847619Y-99507142D01*
X107835714Y-93602380D02*
X107264285Y-93602380D01*
X107550000Y-93602380D02*
X107550000Y-92602380D01*
X107454761Y-92745238D01*
X107359523Y-92840476D01*
X107264285Y-92888095D01*
%TO.C,U3*%
X104092380Y-88191904D02*
X104901904Y-88191904D01*
X104997142Y-88144285D01*
X105044761Y-88096666D01*
X105092380Y-88001428D01*
X105092380Y-87810952D01*
X105044761Y-87715714D01*
X104997142Y-87668095D01*
X104901904Y-87620476D01*
X104092380Y-87620476D01*
X104092380Y-87239523D02*
X104092380Y-86620476D01*
X104473333Y-86953809D01*
X104473333Y-86810952D01*
X104520952Y-86715714D01*
X104568571Y-86668095D01*
X104663809Y-86620476D01*
X104901904Y-86620476D01*
X104997142Y-86668095D01*
X105044761Y-86715714D01*
X105092380Y-86810952D01*
X105092380Y-87096666D01*
X105044761Y-87191904D01*
X104997142Y-87239523D01*
%TO.C,M2*%
X95052380Y-90309523D02*
X94052380Y-90309523D01*
X94766666Y-89976190D01*
X94052380Y-89642857D01*
X95052380Y-89642857D01*
X94147619Y-89214285D02*
X94100000Y-89166666D01*
X94052380Y-89071428D01*
X94052380Y-88833333D01*
X94100000Y-88738095D01*
X94147619Y-88690476D01*
X94242857Y-88642857D01*
X94338095Y-88642857D01*
X94480952Y-88690476D01*
X95052380Y-89261904D01*
X95052380Y-88642857D01*
%TO.C,U2*%
X99213095Y-84277380D02*
X99213095Y-85086904D01*
X99260714Y-85182142D01*
X99308333Y-85229761D01*
X99403571Y-85277380D01*
X99594047Y-85277380D01*
X99689285Y-85229761D01*
X99736904Y-85182142D01*
X99784523Y-85086904D01*
X99784523Y-84277380D01*
X100213095Y-84372619D02*
X100260714Y-84325000D01*
X100355952Y-84277380D01*
X100594047Y-84277380D01*
X100689285Y-84325000D01*
X100736904Y-84372619D01*
X100784523Y-84467857D01*
X100784523Y-84563095D01*
X100736904Y-84705952D01*
X100165476Y-85277380D01*
X100784523Y-85277380D01*
D11*
%TO.C,R1*%
X94776190Y-92583333D02*
X94538095Y-92750000D01*
X94776190Y-92869047D02*
X94276190Y-92869047D01*
X94276190Y-92678571D01*
X94300000Y-92630952D01*
X94323809Y-92607142D01*
X94371428Y-92583333D01*
X94442857Y-92583333D01*
X94490476Y-92607142D01*
X94514285Y-92630952D01*
X94538095Y-92678571D01*
X94538095Y-92869047D01*
X94776190Y-92107142D02*
X94776190Y-92392857D01*
X94776190Y-92250000D02*
X94276190Y-92250000D01*
X94347619Y-92297619D01*
X94395238Y-92345238D01*
X94419047Y-92392857D01*
%TO.C,R2*%
X90726190Y-92583333D02*
X90488095Y-92750000D01*
X90726190Y-92869047D02*
X90226190Y-92869047D01*
X90226190Y-92678571D01*
X90250000Y-92630952D01*
X90273809Y-92607142D01*
X90321428Y-92583333D01*
X90392857Y-92583333D01*
X90440476Y-92607142D01*
X90464285Y-92630952D01*
X90488095Y-92678571D01*
X90488095Y-92869047D01*
X90273809Y-92392857D02*
X90250000Y-92369047D01*
X90226190Y-92321428D01*
X90226190Y-92202380D01*
X90250000Y-92154761D01*
X90273809Y-92130952D01*
X90321428Y-92107142D01*
X90369047Y-92107142D01*
X90440476Y-92130952D01*
X90726190Y-92416666D01*
X90726190Y-92107142D01*
D12*
%TO.C,D2*%
X97226190Y-65069047D02*
X96726190Y-65069047D01*
X96726190Y-64950000D01*
X96750000Y-64878571D01*
X96797619Y-64830952D01*
X96845238Y-64807142D01*
X96940476Y-64783333D01*
X97011904Y-64783333D01*
X97107142Y-64807142D01*
X97154761Y-64830952D01*
X97202380Y-64878571D01*
X97226190Y-64950000D01*
X97226190Y-65069047D01*
X96773809Y-64592857D02*
X96750000Y-64569047D01*
X96726190Y-64521428D01*
X96726190Y-64402380D01*
X96750000Y-64354761D01*
X96773809Y-64330952D01*
X96821428Y-64307142D01*
X96869047Y-64307142D01*
X96940476Y-64330952D01*
X97226190Y-64616666D01*
X97226190Y-64307142D01*
%TO.C,R3*%
X101026190Y-68983333D02*
X100788095Y-69150000D01*
X101026190Y-69269047D02*
X100526190Y-69269047D01*
X100526190Y-69078571D01*
X100550000Y-69030952D01*
X100573809Y-69007142D01*
X100621428Y-68983333D01*
X100692857Y-68983333D01*
X100740476Y-69007142D01*
X100764285Y-69030952D01*
X100788095Y-69078571D01*
X100788095Y-69269047D01*
X100526190Y-68816666D02*
X100526190Y-68507142D01*
X100716666Y-68673809D01*
X100716666Y-68602380D01*
X100740476Y-68554761D01*
X100764285Y-68530952D01*
X100811904Y-68507142D01*
X100930952Y-68507142D01*
X100978571Y-68530952D01*
X101002380Y-68554761D01*
X101026190Y-68602380D01*
X101026190Y-68745238D01*
X101002380Y-68792857D01*
X100978571Y-68816666D01*
%TO.C,R4*%
X101026190Y-66583333D02*
X100788095Y-66750000D01*
X101026190Y-66869047D02*
X100526190Y-66869047D01*
X100526190Y-66678571D01*
X100550000Y-66630952D01*
X100573809Y-66607142D01*
X100621428Y-66583333D01*
X100692857Y-66583333D01*
X100740476Y-66607142D01*
X100764285Y-66630952D01*
X100788095Y-66678571D01*
X100788095Y-66869047D01*
X100692857Y-66154761D02*
X101026190Y-66154761D01*
X100502380Y-66273809D02*
X100859523Y-66392857D01*
X100859523Y-66083333D01*
%TO.C,R5*%
X101026190Y-67783333D02*
X100788095Y-67950000D01*
X101026190Y-68069047D02*
X100526190Y-68069047D01*
X100526190Y-67878571D01*
X100550000Y-67830952D01*
X100573809Y-67807142D01*
X100621428Y-67783333D01*
X100692857Y-67783333D01*
X100740476Y-67807142D01*
X100764285Y-67830952D01*
X100788095Y-67878571D01*
X100788095Y-68069047D01*
X100526190Y-67330952D02*
X100526190Y-67569047D01*
X100764285Y-67592857D01*
X100740476Y-67569047D01*
X100716666Y-67521428D01*
X100716666Y-67402380D01*
X100740476Y-67354761D01*
X100764285Y-67330952D01*
X100811904Y-67307142D01*
X100930952Y-67307142D01*
X100978571Y-67330952D01*
X101002380Y-67354761D01*
X101026190Y-67402380D01*
X101026190Y-67521428D01*
X101002380Y-67569047D01*
X100978571Y-67592857D01*
%TO.C,C1*%
X94578571Y-78583333D02*
X94602380Y-78607142D01*
X94626190Y-78678571D01*
X94626190Y-78726190D01*
X94602380Y-78797619D01*
X94554761Y-78845238D01*
X94507142Y-78869047D01*
X94411904Y-78892857D01*
X94340476Y-78892857D01*
X94245238Y-78869047D01*
X94197619Y-78845238D01*
X94150000Y-78797619D01*
X94126190Y-78726190D01*
X94126190Y-78678571D01*
X94150000Y-78607142D01*
X94173809Y-78583333D01*
X94626190Y-78107142D02*
X94626190Y-78392857D01*
X94626190Y-78250000D02*
X94126190Y-78250000D01*
X94197619Y-78297619D01*
X94245238Y-78345238D01*
X94269047Y-78392857D01*
%TO.C,C2*%
X98016666Y-83178571D02*
X97992857Y-83202380D01*
X97921428Y-83226190D01*
X97873809Y-83226190D01*
X97802380Y-83202380D01*
X97754761Y-83154761D01*
X97730952Y-83107142D01*
X97707142Y-83011904D01*
X97707142Y-82940476D01*
X97730952Y-82845238D01*
X97754761Y-82797619D01*
X97802380Y-82750000D01*
X97873809Y-82726190D01*
X97921428Y-82726190D01*
X97992857Y-82750000D01*
X98016666Y-82773809D01*
X98207142Y-82773809D02*
X98230952Y-82750000D01*
X98278571Y-82726190D01*
X98397619Y-82726190D01*
X98445238Y-82750000D01*
X98469047Y-82773809D01*
X98492857Y-82821428D01*
X98492857Y-82869047D01*
X98469047Y-82940476D01*
X98183333Y-83226190D01*
X98492857Y-83226190D01*
%TO.C,C3*%
X101216666Y-83178571D02*
X101192857Y-83202380D01*
X101121428Y-83226190D01*
X101073809Y-83226190D01*
X101002380Y-83202380D01*
X100954761Y-83154761D01*
X100930952Y-83107142D01*
X100907142Y-83011904D01*
X100907142Y-82940476D01*
X100930952Y-82845238D01*
X100954761Y-82797619D01*
X101002380Y-82750000D01*
X101073809Y-82726190D01*
X101121428Y-82726190D01*
X101192857Y-82750000D01*
X101216666Y-82773809D01*
X101383333Y-82726190D02*
X101692857Y-82726190D01*
X101526190Y-82916666D01*
X101597619Y-82916666D01*
X101645238Y-82940476D01*
X101669047Y-82964285D01*
X101692857Y-83011904D01*
X101692857Y-83130952D01*
X101669047Y-83178571D01*
X101645238Y-83202380D01*
X101597619Y-83226190D01*
X101454761Y-83226190D01*
X101407142Y-83202380D01*
X101383333Y-83178571D01*
%TO.C,L1*%
X103016666Y-76326190D02*
X102778571Y-76326190D01*
X102778571Y-75826190D01*
X103445238Y-76326190D02*
X103159523Y-76326190D01*
X103302380Y-76326190D02*
X103302380Y-75826190D01*
X103254761Y-75897619D01*
X103207142Y-75945238D01*
X103159523Y-75969047D01*
%TO.C,U1*%
X96519047Y-75716190D02*
X96519047Y-76120952D01*
X96542857Y-76168571D01*
X96566666Y-76192380D01*
X96614285Y-76216190D01*
X96709523Y-76216190D01*
X96757142Y-76192380D01*
X96780952Y-76168571D01*
X96804761Y-76120952D01*
X96804761Y-75716190D01*
X97304761Y-76216190D02*
X97019047Y-76216190D01*
X97161904Y-76216190D02*
X97161904Y-75716190D01*
X97114285Y-75787619D01*
X97066666Y-75835238D01*
X97019047Y-75859047D01*
%TO.C,D1*%
X99330952Y-83226190D02*
X99330952Y-82726190D01*
X99450000Y-82726190D01*
X99521428Y-82750000D01*
X99569047Y-82797619D01*
X99592857Y-82845238D01*
X99616666Y-82940476D01*
X99616666Y-83011904D01*
X99592857Y-83107142D01*
X99569047Y-83154761D01*
X99521428Y-83202380D01*
X99450000Y-83226190D01*
X99330952Y-83226190D01*
X100092857Y-83226190D02*
X99807142Y-83226190D01*
X99950000Y-83226190D02*
X99950000Y-82726190D01*
X99902380Y-82797619D01*
X99854761Y-82845238D01*
X99807142Y-82869047D01*
D13*
%TO.C,J3*%
X129150000Y-91750000D02*
X129150000Y-99750000D01*
X106450000Y-91750000D02*
X129150000Y-91750000D01*
X106450000Y-91750000D02*
X106450000Y-99750000D01*
%TO.C,U3*%
X106130000Y-88100000D02*
X106130000Y-88880000D01*
X124370000Y-88100000D02*
X124370000Y-88880000D01*
X124370000Y-88880000D02*
X123370000Y-88880000D01*
X106130000Y-88880000D02*
X107130000Y-88880000D01*
%TO.C,M2*%
X129000000Y-63000000D02*
X129000000Y-92210000D01*
X90000000Y-63000000D02*
X90000000Y-100000000D01*
X95500000Y-92210000D02*
X95500000Y-63000000D01*
X134500000Y-63000000D02*
X90000000Y-63000000D01*
X90000000Y-100000000D02*
X134500000Y-100000000D01*
X134500000Y-100000000D02*
X134500000Y-63000000D01*
X129000000Y-92210000D02*
X95500000Y-92210000D01*
%TO.C,U2*%
X101360000Y-86015000D02*
X102085000Y-86015000D01*
X98590000Y-90235000D02*
X97865000Y-90235000D01*
X101360000Y-90235000D02*
X102085000Y-90235000D01*
X97865000Y-90235000D02*
X97865000Y-89510000D01*
X102085000Y-86015000D02*
X102085000Y-86740000D01*
X102085000Y-90235000D02*
X102085000Y-89510000D01*
X98457843Y-86325000D02*
G75*
G03*
X98457843Y-86325000I-282843J0D01*
G01*
%TO.C,R1*%
X93822500Y-92245276D02*
X93822500Y-92754724D01*
X92777500Y-92245276D02*
X92777500Y-92754724D01*
%TO.C,R2*%
X92322500Y-92245276D02*
X92322500Y-92754724D01*
X91277500Y-92245276D02*
X91277500Y-92754724D01*
%TO.C,R3*%
X99340580Y-69410000D02*
X99059420Y-69410000D01*
X99340580Y-68390000D02*
X99059420Y-68390000D01*
%TO.C,R4*%
X99340580Y-67010000D02*
X99059420Y-67010000D01*
X99340580Y-65990000D02*
X99059420Y-65990000D01*
%TO.C,R5*%
X99340580Y-68210000D02*
X99059420Y-68210000D01*
X99340580Y-67190000D02*
X99059420Y-67190000D01*
%TD*%
M02*
