%TF.GenerationSoftware,KiCad,Pcbnew,(6.0.5-0)*%
%TF.CreationDate,2022-05-20T15:49:59+01:00*%
%TF.ProjectId,EnvMon2,456e764d-6f6e-4322-9e6b-696361645f70,4*%
%TF.SameCoordinates,Original*%
%TF.FileFunction,Soldermask,Top*%
%TF.FilePolarity,Negative*%
%FSLAX46Y46*%
G04 Gerber Fmt 4.6, Leading zero omitted, Abs format (unit mm)*
G04 Created by KiCad (PCBNEW (6.0.5-0)) date 2022-05-20 15:49:59*
%MOMM*%
%LPD*%
G01*
G04 APERTURE LIST*
G04 Aperture macros list*
%AMRoundRect*
0 Rectangle with rounded corners*
0 $1 Rounding radius*
0 $2 $3 $4 $5 $6 $7 $8 $9 X,Y pos of 4 corners*
0 Add a 4 corners polygon primitive as box body*
4,1,4,$2,$3,$4,$5,$6,$7,$8,$9,$2,$3,0*
0 Add four circle primitives for the rounded corners*
1,1,$1+$1,$2,$3*
1,1,$1+$1,$4,$5*
1,1,$1+$1,$6,$7*
1,1,$1+$1,$8,$9*
0 Add four rect primitives between the rounded corners*
20,1,$1+$1,$2,$3,$4,$5,0*
20,1,$1+$1,$4,$5,$6,$7,0*
20,1,$1+$1,$6,$7,$8,$9,0*
20,1,$1+$1,$8,$9,$2,$3,0*%
%AMFreePoly0*
4,1,14,0.732071,0.732071,0.735000,0.725000,0.735000,-0.725000,0.732071,-0.732071,0.725000,-0.735000,-0.725000,-0.735000,-0.732071,-0.732071,-0.735000,-0.725000,-0.735000,0.130500,-0.732071,0.137571,-0.137571,0.732071,-0.130500,0.735000,0.725000,0.735000,0.732071,0.732071,0.732071,0.732071,$1*%
%AMFreePoly1*
4,1,14,1.007071,1.007071,1.010000,1.000000,1.010000,-1.000000,1.007071,-1.007071,1.000000,-1.010000,-1.000000,-1.010000,-1.007071,-1.007071,-1.010000,-1.000000,-1.010000,0.750000,-1.007071,0.757071,-0.757071,1.007071,-0.750000,1.010000,1.000000,1.010000,1.007071,1.007071,1.007071,1.007071,$1*%
G04 Aperture macros list end*
%ADD10C,0.450000*%
%ADD11C,2.020000*%
%ADD12RoundRect,0.210000X-0.200000X-0.275000X0.200000X-0.275000X0.200000X0.275000X-0.200000X0.275000X0*%
%ADD13RoundRect,0.100000X0.750000X0.400000X-0.750000X0.400000X-0.750000X-0.400000X0.750000X-0.400000X0*%
%ADD14RoundRect,0.100000X-0.400000X0.750000X-0.400000X-0.750000X0.400000X-0.750000X0.400000X0.750000X0*%
%ADD15RoundRect,0.100000X-0.750000X-0.400000X0.750000X-0.400000X0.750000X0.400000X-0.750000X0.400000X0*%
%ADD16RoundRect,0.100000X0.400000X-0.750000X0.400000X0.750000X-0.400000X0.750000X-0.400000X-0.750000X0*%
%ADD17RoundRect,0.100000X1.200000X1.200000X-1.200000X1.200000X-1.200000X-1.200000X1.200000X-1.200000X0*%
%ADD18RoundRect,0.260000X-0.600000X-0.675000X0.600000X-0.675000X0.600000X0.675000X-0.600000X0.675000X0*%
%ADD19O,1.720000X1.870000*%
%ADD20RoundRect,0.010000X-0.300000X-0.570000X0.300000X-0.570000X0.300000X0.570000X-0.300000X0.570000X0*%
%ADD21RoundRect,0.085000X-0.075000X-0.495000X0.075000X-0.495000X0.075000X0.495000X-0.075000X0.495000X0*%
%ADD22C,0.870000*%
%ADD23C,1.270000*%
%ADD24C,1.520000*%
%ADD25RoundRect,0.010000X-3.750000X-2.625000X3.750000X-2.625000X3.750000X2.625000X-3.750000X2.625000X0*%
%ADD26RoundRect,0.210000X0.275000X-0.200000X0.275000X0.200000X-0.275000X0.200000X-0.275000X-0.200000X0*%
%ADD27RoundRect,0.235000X0.225000X0.250000X-0.225000X0.250000X-0.225000X-0.250000X0.225000X-0.250000X0*%
%ADD28RoundRect,0.259375X0.625625X-0.463125X0.625625X0.463125X-0.625625X0.463125X-0.625625X-0.463125X0*%
%ADD29RoundRect,0.010000X1.850000X0.712500X-1.850000X0.712500X-1.850000X-0.712500X1.850000X-0.712500X0*%
%ADD30RoundRect,0.010000X0.550000X0.300000X-0.550000X0.300000X-0.550000X-0.300000X0.550000X-0.300000X0*%
%ADD31RoundRect,0.260000X-0.250000X-0.475000X0.250000X-0.475000X0.250000X0.475000X-0.250000X0.475000X0*%
%ADD32RoundRect,0.210000X0.200000X0.275000X-0.200000X0.275000X-0.200000X-0.275000X0.200000X-0.275000X0*%
%ADD33C,1.720000*%
%ADD34RoundRect,0.010000X0.425000X0.250000X-0.425000X0.250000X-0.425000X-0.250000X0.425000X-0.250000X0*%
%ADD35RoundRect,0.210000X-0.275000X0.200000X-0.275000X-0.200000X0.275000X-0.200000X0.275000X0.200000X0*%
%ADD36RoundRect,0.010000X-0.400000X-0.200000X0.400000X-0.200000X0.400000X0.200000X-0.400000X0.200000X0*%
%ADD37RoundRect,0.010000X-0.200000X-0.400000X0.200000X-0.400000X0.200000X0.400000X-0.200000X0.400000X0*%
%ADD38FreePoly0,0.000000*%
%ADD39RoundRect,0.010000X-0.725000X-0.725000X0.725000X-0.725000X0.725000X0.725000X-0.725000X0.725000X0*%
%ADD40RoundRect,0.010000X-0.350000X-0.350000X0.350000X-0.350000X0.350000X0.350000X-0.350000X0.350000X0*%
%ADD41RoundRect,0.072500X-0.287500X-0.062500X0.287500X-0.062500X0.287500X0.062500X-0.287500X0.062500X0*%
%ADD42RoundRect,0.072500X-0.062500X-0.287500X0.062500X-0.287500X0.062500X0.287500X-0.062500X0.287500X0*%
%ADD43FreePoly1,0.000000*%
%ADD44RoundRect,0.260000X0.625000X-0.375000X0.625000X0.375000X-0.625000X0.375000X-0.625000X-0.375000X0*%
G04 APERTURE END LIST*
D10*
%TO.C,Logo2*%
X116250000Y-85025000D02*
X113250000Y-89225000D01*
X118050000Y-85125000D02*
X116250000Y-87125000D01*
X116250000Y-87125000D02*
X114750000Y-87125000D01*
X116250000Y-85025000D02*
X116250000Y-89225000D01*
X116250000Y-87125000D02*
X118050000Y-89225000D01*
X114750000Y-89225000D02*
G75*
G03*
X116250000Y-89225000I750000J0D01*
G01*
%TD*%
D11*
%TO.C,SW1*%
X89250000Y-65250000D03*
X95750000Y-65250000D03*
X89250000Y-69750000D03*
X95750000Y-69750000D03*
%TD*%
D12*
%TO.C,R1*%
X130600000Y-86750000D03*
X132250000Y-86750000D03*
%TD*%
D11*
%TO.C,SW3*%
X89300000Y-80250000D03*
X95800000Y-80250000D03*
X89300000Y-84750000D03*
X95800000Y-84750000D03*
%TD*%
D13*
%TO.C,U2*%
X96500000Y-97000000D03*
X96500000Y-95750000D03*
X96500000Y-94500000D03*
X96500000Y-93250000D03*
X96500000Y-92000000D03*
D14*
X95000000Y-90500000D03*
X93750000Y-90500000D03*
X92500000Y-90500000D03*
X91250000Y-90500000D03*
X90000000Y-90500000D03*
D15*
X88500000Y-92000000D03*
X88500000Y-93250000D03*
X88500000Y-94500000D03*
X88500000Y-95750000D03*
X88500000Y-97000000D03*
D16*
X90000000Y-98500000D03*
X91250000Y-98500000D03*
X92500000Y-98500000D03*
X93750000Y-98500000D03*
X95000000Y-98500000D03*
D17*
X91300000Y-93300000D03*
X93700000Y-93300000D03*
X91300000Y-95700000D03*
X93700000Y-95700000D03*
%TD*%
D18*
%TO.C,J3*%
X107750000Y-93400000D03*
D19*
X110250000Y-93400000D03*
X112750000Y-93400000D03*
%TD*%
D20*
%TO.C,J1*%
X119050000Y-93140000D03*
X119850000Y-93140000D03*
D21*
X121000000Y-93140000D03*
X122000000Y-93140000D03*
X122500000Y-93140000D03*
X123500000Y-93140000D03*
D20*
X125450000Y-93140000D03*
X124650000Y-93140000D03*
D21*
X124000000Y-93140000D03*
X123000000Y-93140000D03*
X121500000Y-93140000D03*
X120500000Y-93140000D03*
D22*
X125140000Y-94210000D03*
D23*
X126570000Y-97890000D03*
D24*
X117930000Y-93720000D03*
D25*
X122250000Y-97125000D03*
D24*
X126570000Y-93720000D03*
D22*
X119360000Y-94210000D03*
D23*
X117930000Y-97890000D03*
%TD*%
D12*
%TO.C,R2*%
X130600000Y-88000000D03*
X132250000Y-88000000D03*
%TD*%
D26*
%TO.C,R10*%
X127050000Y-89550000D03*
X127050000Y-87900000D03*
%TD*%
D27*
%TO.C,U1*%
X133225000Y-84800000D03*
D28*
X135370000Y-81902500D03*
D29*
X132250000Y-80300000D03*
D30*
X133550000Y-81750000D03*
D27*
X131675000Y-84800000D03*
D30*
X130850000Y-81750000D03*
X133550000Y-83650000D03*
D31*
X134800000Y-83550000D03*
D30*
X133550000Y-82700000D03*
D31*
X136700000Y-77300000D03*
X136700000Y-83550000D03*
D28*
X135370000Y-78937500D03*
D30*
X130850000Y-82700000D03*
D31*
X134800000Y-77300000D03*
D29*
X132250000Y-77300000D03*
D30*
X130850000Y-83650000D03*
%TD*%
D32*
%TO.C,R7*%
X137825000Y-68600000D03*
X136175000Y-68600000D03*
%TD*%
D12*
%TO.C,R4*%
X123775000Y-91800000D03*
X125425000Y-91800000D03*
%TD*%
D11*
%TO.C,M1*%
X142000000Y-65500000D03*
X102500000Y-65500000D03*
X142000000Y-97500000D03*
X102500000Y-97500000D03*
D33*
X102500000Y-73880000D03*
X102500000Y-76420000D03*
X102500000Y-78960000D03*
X102500000Y-81500000D03*
X102500000Y-84040000D03*
X102500000Y-86580000D03*
X102500000Y-89120000D03*
%TD*%
D26*
%TO.C,R6*%
X121600000Y-90025000D03*
X121600000Y-88375000D03*
%TD*%
D32*
%TO.C,R8*%
X137825000Y-66200000D03*
X136175000Y-66200000D03*
%TD*%
D26*
%TO.C,R5*%
X122800000Y-90025000D03*
X122800000Y-88375000D03*
%TD*%
D34*
%TO.C,D3*%
X136125000Y-64100000D03*
X137875000Y-64100000D03*
X137875000Y-65100000D03*
X136125000Y-65100000D03*
%TD*%
D32*
%TO.C,R3*%
X120625000Y-91800000D03*
X118975000Y-91800000D03*
%TD*%
D35*
%TO.C,R11*%
X125850000Y-87900000D03*
X125850000Y-89550000D03*
%TD*%
%TO.C,R12*%
X115000000Y-71500000D03*
X115000000Y-73150000D03*
%TD*%
D18*
%TO.C,J2*%
X134150000Y-93400000D03*
D19*
X136650000Y-93400000D03*
%TD*%
D36*
%TO.C,U4*%
X116350000Y-69993250D03*
X116350000Y-70793250D03*
X116350000Y-71593250D03*
X116350000Y-72393250D03*
X116350000Y-73193250D03*
X116350000Y-73993250D03*
X116350000Y-74793250D03*
X116350000Y-75593250D03*
X116350000Y-76393250D03*
X116350000Y-77193250D03*
X116350000Y-77993250D03*
D37*
X117450000Y-78893250D03*
X118250000Y-78893250D03*
X119050000Y-78893250D03*
X119850000Y-78893250D03*
X120650000Y-78893250D03*
X121450000Y-78893250D03*
X122250000Y-78893250D03*
X123050000Y-78893250D03*
X123850000Y-78893250D03*
X124650000Y-78893250D03*
X125450000Y-78893250D03*
X126250000Y-78893250D03*
X127050000Y-78893250D03*
D36*
X128150000Y-77993250D03*
X128150000Y-77193250D03*
X128150000Y-76393250D03*
X128150000Y-75593250D03*
X128150000Y-74793250D03*
X128150000Y-73993250D03*
X128150000Y-73193250D03*
X128150000Y-72393250D03*
X128150000Y-71593250D03*
X128150000Y-70793250D03*
X128150000Y-69993250D03*
D37*
X127050000Y-69093250D03*
X126250000Y-69093250D03*
X125450000Y-69093250D03*
X124650000Y-69093250D03*
X123850000Y-69093250D03*
X123050000Y-69093250D03*
X122250000Y-69093250D03*
X121450000Y-69093250D03*
X120650000Y-69093250D03*
X119850000Y-69093250D03*
X119050000Y-69093250D03*
X118250000Y-69093250D03*
X117450000Y-69093250D03*
D38*
X120275000Y-72018250D03*
D39*
X120275000Y-75968250D03*
X124225000Y-75968250D03*
X120275000Y-73993250D03*
X122250000Y-72018250D03*
X122250000Y-75968250D03*
X124225000Y-72018250D03*
X124225000Y-73993250D03*
X122250000Y-73993250D03*
D40*
X128200000Y-69043250D03*
X128200000Y-78943250D03*
X116300000Y-78943250D03*
X116300000Y-69043250D03*
%TD*%
D11*
%TO.C,SW2*%
X89250000Y-72750000D03*
X95750000Y-72750000D03*
X89250000Y-77250000D03*
X95750000Y-77250000D03*
%TD*%
D35*
%TO.C,C4*%
X128250000Y-87950000D03*
X128250000Y-89500000D03*
%TD*%
D12*
%TO.C,R13*%
X110575000Y-91000000D03*
X112225000Y-91000000D03*
%TD*%
D32*
%TO.C,R9*%
X137825000Y-67400000D03*
X136175000Y-67400000D03*
%TD*%
D41*
%TO.C,U3*%
X120150000Y-84250000D03*
X120150000Y-84750000D03*
X120150000Y-85250000D03*
X120150000Y-85750000D03*
X120150000Y-86250000D03*
D42*
X121050000Y-87150000D03*
X121550000Y-87150000D03*
X122050000Y-87150000D03*
X122550000Y-87150000D03*
X123050000Y-87150000D03*
D41*
X123950000Y-86250000D03*
X123950000Y-85750000D03*
X123950000Y-85250000D03*
X123950000Y-84750000D03*
X123950000Y-84250000D03*
D42*
X123050000Y-83350000D03*
X122550000Y-83350000D03*
X122050000Y-83350000D03*
X121550000Y-83350000D03*
X121050000Y-83350000D03*
D43*
X122050000Y-85250000D03*
%TD*%
D44*
%TO.C,D2*%
X130000000Y-95650000D03*
X130000000Y-92850000D03*
%TD*%
M02*
