%TF.GenerationSoftware,KiCad,Pcbnew,(6.0.2-0)*%
%TF.CreationDate,2022-02-23T18:41:49+00:00*%
%TF.ProjectId,EnvMon2,456e764d-6f6e-4322-9e6b-696361645f70,4*%
%TF.SameCoordinates,Original*%
%TF.FileFunction,Legend,Top*%
%TF.FilePolarity,Positive*%
%FSLAX46Y46*%
G04 Gerber Fmt 4.6, Leading zero omitted, Abs format (unit mm)*
G04 Created by KiCad (PCBNEW (6.0.2-0)) date 2022-02-23 18:41:49*
%MOMM*%
%LPD*%
G01*
G04 APERTURE LIST*
%ADD10C,0.150000*%
%ADD11C,0.100000*%
%ADD12C,0.120000*%
G04 APERTURE END LIST*
D10*
X146452380Y-111511904D02*
X145452380Y-111511904D01*
X145452380Y-111273809D01*
X145500000Y-111130952D01*
X145595238Y-111035714D01*
X145690476Y-110988095D01*
X145880952Y-110940476D01*
X146023809Y-110940476D01*
X146214285Y-110988095D01*
X146309523Y-111035714D01*
X146404761Y-111130952D01*
X146452380Y-111273809D01*
X146452380Y-111511904D01*
X146357142Y-109940476D02*
X146404761Y-109988095D01*
X146452380Y-110130952D01*
X146452380Y-110226190D01*
X146404761Y-110369047D01*
X146309523Y-110464285D01*
X146214285Y-110511904D01*
X146023809Y-110559523D01*
X145880952Y-110559523D01*
X145690476Y-110511904D01*
X145595238Y-110464285D01*
X145500000Y-110369047D01*
X145452380Y-110226190D01*
X145452380Y-110130952D01*
X145500000Y-109988095D01*
X145547619Y-109940476D01*
X143000000Y-111511904D02*
X142952380Y-111607142D01*
X142952380Y-111750000D01*
X143000000Y-111892857D01*
X143095238Y-111988095D01*
X143190476Y-112035714D01*
X143380952Y-112083333D01*
X143523809Y-112083333D01*
X143714285Y-112035714D01*
X143809523Y-111988095D01*
X143904761Y-111892857D01*
X143952380Y-111750000D01*
X143952380Y-111654761D01*
X143904761Y-111511904D01*
X143857142Y-111464285D01*
X143523809Y-111464285D01*
X143523809Y-111654761D01*
X143952380Y-111035714D02*
X142952380Y-111035714D01*
X143952380Y-110464285D01*
X142952380Y-110464285D01*
X143952380Y-109988095D02*
X142952380Y-109988095D01*
X142952380Y-109750000D01*
X143000000Y-109607142D01*
X143095238Y-109511904D01*
X143190476Y-109464285D01*
X143380952Y-109416666D01*
X143523809Y-109416666D01*
X143714285Y-109464285D01*
X143809523Y-109511904D01*
X143904761Y-109607142D01*
X143952380Y-109750000D01*
X143952380Y-109988095D01*
X146452380Y-111511904D02*
X145452380Y-111511904D01*
X145452380Y-111273809D01*
X145500000Y-111130952D01*
X145595238Y-111035714D01*
X145690476Y-110988095D01*
X145880952Y-110940476D01*
X146023809Y-110940476D01*
X146214285Y-110988095D01*
X146309523Y-111035714D01*
X146404761Y-111130952D01*
X146452380Y-111273809D01*
X146452380Y-111511904D01*
X146357142Y-109940476D02*
X146404761Y-109988095D01*
X146452380Y-110130952D01*
X146452380Y-110226190D01*
X146404761Y-110369047D01*
X146309523Y-110464285D01*
X146214285Y-110511904D01*
X146023809Y-110559523D01*
X145880952Y-110559523D01*
X145690476Y-110511904D01*
X145595238Y-110464285D01*
X145500000Y-110369047D01*
X145452380Y-110226190D01*
X145452380Y-110130952D01*
X145500000Y-109988095D01*
X145547619Y-109940476D01*
X143000000Y-111511904D02*
X142952380Y-111607142D01*
X142952380Y-111750000D01*
X143000000Y-111892857D01*
X143095238Y-111988095D01*
X143190476Y-112035714D01*
X143380952Y-112083333D01*
X143523809Y-112083333D01*
X143714285Y-112035714D01*
X143809523Y-111988095D01*
X143904761Y-111892857D01*
X143952380Y-111750000D01*
X143952380Y-111654761D01*
X143904761Y-111511904D01*
X143857142Y-111464285D01*
X143523809Y-111464285D01*
X143523809Y-111654761D01*
X143952380Y-111035714D02*
X142952380Y-111035714D01*
X143952380Y-110464285D01*
X142952380Y-110464285D01*
X143952380Y-109988095D02*
X142952380Y-109988095D01*
X142952380Y-109750000D01*
X143000000Y-109607142D01*
X143095238Y-109511904D01*
X143190476Y-109464285D01*
X143380952Y-109416666D01*
X143523809Y-109416666D01*
X143714285Y-109464285D01*
X143809523Y-109511904D01*
X143904761Y-109607142D01*
X143952380Y-109750000D01*
X143952380Y-109988095D01*
%TO.C,J3*%
X120166666Y-94952380D02*
X120166666Y-95666666D01*
X120119047Y-95809523D01*
X120023809Y-95904761D01*
X119880952Y-95952380D01*
X119785714Y-95952380D01*
X120547619Y-94952380D02*
X121166666Y-94952380D01*
X120833333Y-95333333D01*
X120976190Y-95333333D01*
X121071428Y-95380952D01*
X121119047Y-95428571D01*
X121166666Y-95523809D01*
X121166666Y-95761904D01*
X121119047Y-95857142D01*
X121071428Y-95904761D01*
X120976190Y-95952380D01*
X120690476Y-95952380D01*
X120595238Y-95904761D01*
X120547619Y-95857142D01*
X116785714Y-89952380D02*
X116214285Y-89952380D01*
X116500000Y-89952380D02*
X116500000Y-88952380D01*
X116404761Y-89095238D01*
X116309523Y-89190476D01*
X116214285Y-89238095D01*
D11*
%TO.C,U5*%
X140496035Y-79607142D02*
X140531750Y-79642857D01*
X140567464Y-79714285D01*
X140567464Y-79892857D01*
X140531750Y-79964285D01*
X140496035Y-80000000D01*
X140424607Y-80035714D01*
X140353178Y-80035714D01*
X140246035Y-80000000D01*
X139817464Y-79571428D01*
X139817464Y-80035714D01*
X140567464Y-80500000D02*
X140567464Y-80571428D01*
X140531750Y-80642857D01*
X140496035Y-80678571D01*
X140424607Y-80714285D01*
X140281750Y-80750000D01*
X140103178Y-80750000D01*
X139960321Y-80714285D01*
X139888892Y-80678571D01*
X139853178Y-80642857D01*
X139817464Y-80571428D01*
X139817464Y-80500000D01*
X139853178Y-80428571D01*
X139888892Y-80392857D01*
X139960321Y-80357142D01*
X140103178Y-80321428D01*
X140281750Y-80321428D01*
X140424607Y-80357142D01*
X140496035Y-80392857D01*
X140531750Y-80428571D01*
X140567464Y-80500000D01*
X140496035Y-81035714D02*
X140531750Y-81071428D01*
X140567464Y-81142857D01*
X140567464Y-81321428D01*
X140531750Y-81392857D01*
X140496035Y-81428571D01*
X140424607Y-81464285D01*
X140353178Y-81464285D01*
X140246035Y-81428571D01*
X139817464Y-81000000D01*
X139817464Y-81464285D01*
X140496035Y-81750000D02*
X140531750Y-81785714D01*
X140567464Y-81857142D01*
X140567464Y-82035714D01*
X140531750Y-82107142D01*
X140496035Y-82142857D01*
X140424607Y-82178571D01*
X140353178Y-82178571D01*
X140246035Y-82142857D01*
X139817464Y-81714285D01*
X139817464Y-82178571D01*
X140103178Y-82500000D02*
X140103178Y-83071428D01*
X140567464Y-83571428D02*
X140567464Y-83642857D01*
X140531750Y-83714285D01*
X140496035Y-83750000D01*
X140424607Y-83785714D01*
X140281750Y-83821428D01*
X140103178Y-83821428D01*
X139960321Y-83785714D01*
X139888892Y-83750000D01*
X139853178Y-83714285D01*
X139817464Y-83642857D01*
X139817464Y-83571428D01*
X139853178Y-83500000D01*
X139888892Y-83464285D01*
X139960321Y-83428571D01*
X140103178Y-83392857D01*
X140281750Y-83392857D01*
X140424607Y-83428571D01*
X140496035Y-83464285D01*
X140531750Y-83500000D01*
X140567464Y-83571428D01*
X140496035Y-84107142D02*
X140531750Y-84142857D01*
X140567464Y-84214285D01*
X140567464Y-84392857D01*
X140531750Y-84464285D01*
X140496035Y-84500000D01*
X140424607Y-84535714D01*
X140353178Y-84535714D01*
X140246035Y-84500000D01*
X139817464Y-84071428D01*
X139817464Y-84535714D01*
X140103178Y-84857142D02*
X140103178Y-85428571D01*
X140496035Y-85750000D02*
X140531750Y-85785714D01*
X140567464Y-85857142D01*
X140567464Y-86035714D01*
X140531750Y-86107142D01*
X140496035Y-86142857D01*
X140424607Y-86178571D01*
X140353178Y-86178571D01*
X140246035Y-86142857D01*
X139817464Y-85714285D01*
X139817464Y-86178571D01*
X140567464Y-86428571D02*
X140567464Y-86892857D01*
X140281750Y-86642857D01*
X140281750Y-86750000D01*
X140246035Y-86821428D01*
X140210321Y-86857142D01*
X140138892Y-86892857D01*
X139960321Y-86892857D01*
X139888892Y-86857142D01*
X139853178Y-86821428D01*
X139817464Y-86750000D01*
X139817464Y-86535714D01*
X139853178Y-86464285D01*
X139888892Y-86428571D01*
D12*
%TO.C,R6*%
X134250000Y-102550000D02*
X134250000Y-101950000D01*
X135250000Y-102550000D02*
X135250000Y-101950000D01*
%TO.C,R5*%
X135500000Y-102550000D02*
X135500000Y-101950000D01*
X136500000Y-102550000D02*
X136500000Y-101950000D01*
%TO.C,U3*%
X136360000Y-100110000D02*
X136360000Y-99385000D01*
X132140000Y-100110000D02*
X132140000Y-99385000D01*
X135635000Y-95890000D02*
X136360000Y-95890000D01*
X135635000Y-100110000D02*
X136360000Y-100110000D01*
X132865000Y-100110000D02*
X132140000Y-100110000D01*
X136360000Y-95890000D02*
X136360000Y-96615000D01*
X132732843Y-96200000D02*
G75*
G03*
X132732843Y-96200000I-282843J0D01*
G01*
%TO.C,U2*%
X115000000Y-77700000D02*
X116200000Y-76500000D01*
X115000000Y-76500000D02*
X126000000Y-76500000D01*
X126000000Y-76500000D02*
X126000000Y-87500000D01*
X126000000Y-87500000D02*
X115000000Y-87500000D01*
X115000000Y-87500000D02*
X115000000Y-76500000D01*
X117000000Y-78000000D02*
G75*
G03*
X117000000Y-78000000I-500000J0D01*
G01*
%TO.C,M1*%
X165000000Y-76500000D02*
X165000000Y-105710000D01*
X170500000Y-113500000D02*
X170500000Y-76500000D01*
X165000000Y-105710000D02*
X131500000Y-105710000D01*
X126000000Y-76500000D02*
X126000000Y-113500000D01*
X126000000Y-113500000D02*
X170500000Y-113500000D01*
X131500000Y-105710000D02*
X131500000Y-76500000D01*
X170500000Y-76500000D02*
X126000000Y-76500000D01*
%TO.C,R8*%
X128500000Y-83300000D02*
X128500000Y-83900000D01*
X129500000Y-83300000D02*
X129500000Y-83900000D01*
%TO.C,R4*%
X138495276Y-104977500D02*
X139004724Y-104977500D01*
X138495276Y-106022500D02*
X139004724Y-106022500D01*
%TO.C,R1*%
X146550000Y-95750000D02*
X145950000Y-95750000D01*
X146550000Y-96750000D02*
X145950000Y-96750000D01*
%TO.C,D3*%
X127250000Y-83600000D02*
X126250000Y-83600000D01*
X127250000Y-84700000D02*
X127250000Y-83600000D01*
%TO.C,R13*%
X131641421Y-95315685D02*
X132065685Y-94891421D01*
X130934315Y-94608579D02*
X131358579Y-94184315D01*
%TO.C,R2*%
X143550000Y-96750000D02*
X142950000Y-96750000D01*
X143550000Y-95750000D02*
X142950000Y-95750000D01*
%TO.C,U1*%
X144025000Y-102125000D02*
X144025000Y-103725000D01*
X140750000Y-99075000D02*
X143850000Y-99075000D01*
%TO.C,D2*%
X125965000Y-105865000D02*
X125965000Y-108135000D01*
X129850000Y-105865000D02*
X125965000Y-105865000D01*
X125965000Y-108135000D02*
X129850000Y-108135000D01*
%TO.C,R7*%
X130750000Y-83300000D02*
X130750000Y-83900000D01*
X129750000Y-83300000D02*
X129750000Y-83900000D01*
%TO.C,C4*%
X131300000Y-104250000D02*
X130700000Y-104250000D01*
X131300000Y-103250000D02*
X130700000Y-103250000D01*
%TO.C,R10*%
X130700000Y-103000000D02*
X131300000Y-103000000D01*
X130700000Y-102000000D02*
X131300000Y-102000000D01*
%TO.C,U4*%
X121300000Y-108790000D02*
X117700000Y-108790000D01*
X119500000Y-113240001D02*
G75*
G03*
X121338478Y-108801522I0J2600001D01*
G01*
X117661522Y-108801522D02*
G75*
G03*
X119500000Y-113240000I1838478J-1838478D01*
G01*
%TO.C,J2*%
X140900000Y-105750000D02*
X148600000Y-105750000D01*
X148600000Y-105750000D02*
X148600000Y-113750000D01*
X140900000Y-105750000D02*
X140900000Y-113750000D01*
%TO.C,J3*%
X125600000Y-88100000D02*
X125600000Y-96100000D01*
X115400000Y-88100000D02*
X125600000Y-88100000D01*
X115400000Y-88100000D02*
X115400000Y-96100000D01*
%TO.C,R12*%
X132245276Y-91522500D02*
X132754724Y-91522500D01*
X132245276Y-90477500D02*
X132754724Y-90477500D01*
%TO.C,R9*%
X128450000Y-86100000D02*
X129050000Y-86100000D01*
X128450000Y-85100000D02*
X129050000Y-85100000D01*
%TO.C,R11*%
X131300000Y-101750000D02*
X130700000Y-101750000D01*
X131300000Y-100750000D02*
X130700000Y-100750000D01*
%TO.C,R3*%
X134004724Y-106022500D02*
X133495276Y-106022500D01*
X134004724Y-104977500D02*
X133495276Y-104977500D01*
%TD*%
M02*
