%TF.GenerationSoftware,KiCad,Pcbnew,(6.0.9-0)*%
%TF.CreationDate,2023-01-05T14:27:19+00:00*%
%TF.ProjectId,EnvMon2,456e764d-6f6e-4322-9e6b-696361645f70,4*%
%TF.SameCoordinates,Original*%
%TF.FileFunction,Legend,Top*%
%TF.FilePolarity,Positive*%
%FSLAX46Y46*%
G04 Gerber Fmt 4.6, Leading zero omitted, Abs format (unit mm)*
G04 Created by KiCad (PCBNEW (6.0.9-0)) date 2023-01-05 14:27:19*
%MOMM*%
%LPD*%
G01*
G04 APERTURE LIST*
%ADD10C,0.120000*%
%ADD11C,0.150000*%
%ADD12C,0.080000*%
%ADD13C,0.100000*%
%ADD14C,0.200000*%
G04 APERTURE END LIST*
D10*
X115500000Y-68500000D02*
X115500000Y-79750000D01*
X129000000Y-79750000D02*
X129000000Y-68500000D01*
X115500000Y-79750000D02*
X129000000Y-79750000D01*
D11*
X138728571Y-89390476D02*
X138728571Y-89057142D01*
X139252380Y-88914285D02*
X139252380Y-89390476D01*
X138252380Y-89390476D01*
X138252380Y-88914285D01*
X138585714Y-88485714D02*
X139252380Y-88485714D01*
X138680952Y-88485714D02*
X138633333Y-88438095D01*
X138585714Y-88342857D01*
X138585714Y-88200000D01*
X138633333Y-88104761D01*
X138728571Y-88057142D01*
X139252380Y-88057142D01*
X138585714Y-87676190D02*
X139252380Y-87438095D01*
X138585714Y-87200000D01*
X139252380Y-86819047D02*
X138585714Y-86819047D01*
X138252380Y-86819047D02*
X138300000Y-86866666D01*
X138347619Y-86819047D01*
X138300000Y-86771428D01*
X138252380Y-86819047D01*
X138347619Y-86819047D01*
X139252380Y-86342857D02*
X138585714Y-86342857D01*
X138776190Y-86342857D02*
X138680952Y-86295238D01*
X138633333Y-86247619D01*
X138585714Y-86152380D01*
X138585714Y-86057142D01*
X139252380Y-85580952D02*
X139204761Y-85676190D01*
X139157142Y-85723809D01*
X139061904Y-85771428D01*
X138776190Y-85771428D01*
X138680952Y-85723809D01*
X138633333Y-85676190D01*
X138585714Y-85580952D01*
X138585714Y-85438095D01*
X138633333Y-85342857D01*
X138680952Y-85295238D01*
X138776190Y-85247619D01*
X139061904Y-85247619D01*
X139157142Y-85295238D01*
X139204761Y-85342857D01*
X139252380Y-85438095D01*
X139252380Y-85580952D01*
X138585714Y-84819047D02*
X139252380Y-84819047D01*
X138680952Y-84819047D02*
X138633333Y-84771428D01*
X138585714Y-84676190D01*
X138585714Y-84533333D01*
X138633333Y-84438095D01*
X138728571Y-84390476D01*
X139252380Y-84390476D01*
X139252380Y-83914285D02*
X138585714Y-83914285D01*
X138680952Y-83914285D02*
X138633333Y-83866666D01*
X138585714Y-83771428D01*
X138585714Y-83628571D01*
X138633333Y-83533333D01*
X138728571Y-83485714D01*
X139252380Y-83485714D01*
X138728571Y-83485714D02*
X138633333Y-83438095D01*
X138585714Y-83342857D01*
X138585714Y-83200000D01*
X138633333Y-83104761D01*
X138728571Y-83057142D01*
X139252380Y-83057142D01*
X139204761Y-82200000D02*
X139252380Y-82295238D01*
X139252380Y-82485714D01*
X139204761Y-82580952D01*
X139109523Y-82628571D01*
X138728571Y-82628571D01*
X138633333Y-82580952D01*
X138585714Y-82485714D01*
X138585714Y-82295238D01*
X138633333Y-82200000D01*
X138728571Y-82152380D01*
X138823809Y-82152380D01*
X138919047Y-82628571D01*
X138585714Y-81723809D02*
X139252380Y-81723809D01*
X138680952Y-81723809D02*
X138633333Y-81676190D01*
X138585714Y-81580952D01*
X138585714Y-81438095D01*
X138633333Y-81342857D01*
X138728571Y-81295238D01*
X139252380Y-81295238D01*
X138585714Y-80961904D02*
X138585714Y-80580952D01*
X138252380Y-80819047D02*
X139109523Y-80819047D01*
X139204761Y-80771428D01*
X139252380Y-80676190D01*
X139252380Y-80580952D01*
X139252380Y-79819047D02*
X138728571Y-79819047D01*
X138633333Y-79866666D01*
X138585714Y-79961904D01*
X138585714Y-80152380D01*
X138633333Y-80247619D01*
X139204761Y-79819047D02*
X139252380Y-79914285D01*
X139252380Y-80152380D01*
X139204761Y-80247619D01*
X139109523Y-80295238D01*
X139014285Y-80295238D01*
X138919047Y-80247619D01*
X138871428Y-80152380D01*
X138871428Y-79914285D01*
X138823809Y-79819047D01*
X139252380Y-79200000D02*
X139204761Y-79295238D01*
X139109523Y-79342857D01*
X138252380Y-79342857D01*
X139252380Y-78057142D02*
X138252380Y-78057142D01*
X138966666Y-77723809D01*
X138252380Y-77390476D01*
X139252380Y-77390476D01*
X139252380Y-76771428D02*
X139204761Y-76866666D01*
X139157142Y-76914285D01*
X139061904Y-76961904D01*
X138776190Y-76961904D01*
X138680952Y-76914285D01*
X138633333Y-76866666D01*
X138585714Y-76771428D01*
X138585714Y-76628571D01*
X138633333Y-76533333D01*
X138680952Y-76485714D01*
X138776190Y-76438095D01*
X139061904Y-76438095D01*
X139157142Y-76485714D01*
X139204761Y-76533333D01*
X139252380Y-76628571D01*
X139252380Y-76771428D01*
X138585714Y-76009523D02*
X139252380Y-76009523D01*
X138680952Y-76009523D02*
X138633333Y-75961904D01*
X138585714Y-75866666D01*
X138585714Y-75723809D01*
X138633333Y-75628571D01*
X138728571Y-75580952D01*
X139252380Y-75580952D01*
X139252380Y-75104761D02*
X138585714Y-75104761D01*
X138252380Y-75104761D02*
X138300000Y-75152380D01*
X138347619Y-75104761D01*
X138300000Y-75057142D01*
X138252380Y-75104761D01*
X138347619Y-75104761D01*
X138585714Y-74771428D02*
X138585714Y-74390476D01*
X138252380Y-74628571D02*
X139109523Y-74628571D01*
X139204761Y-74580952D01*
X139252380Y-74485714D01*
X139252380Y-74390476D01*
X139252380Y-73914285D02*
X139204761Y-74009523D01*
X139157142Y-74057142D01*
X139061904Y-74104761D01*
X138776190Y-74104761D01*
X138680952Y-74057142D01*
X138633333Y-74009523D01*
X138585714Y-73914285D01*
X138585714Y-73771428D01*
X138633333Y-73676190D01*
X138680952Y-73628571D01*
X138776190Y-73580952D01*
X139061904Y-73580952D01*
X139157142Y-73628571D01*
X139204761Y-73676190D01*
X139252380Y-73771428D01*
X139252380Y-73914285D01*
X139252380Y-73152380D02*
X138585714Y-73152380D01*
X138776190Y-73152380D02*
X138680952Y-73104761D01*
X138633333Y-73057142D01*
X138585714Y-72961904D01*
X138585714Y-72866666D01*
X143147619Y-85857142D02*
X143100000Y-85809523D01*
X143052380Y-85714285D01*
X143052380Y-85476190D01*
X143100000Y-85380952D01*
X143147619Y-85333333D01*
X143242857Y-85285714D01*
X143338095Y-85285714D01*
X143480952Y-85333333D01*
X144052380Y-85904761D01*
X144052380Y-85285714D01*
X143052380Y-84666666D02*
X143052380Y-84571428D01*
X143100000Y-84476190D01*
X143147619Y-84428571D01*
X143242857Y-84380952D01*
X143433333Y-84333333D01*
X143671428Y-84333333D01*
X143861904Y-84380952D01*
X143957142Y-84428571D01*
X144004761Y-84476190D01*
X144052380Y-84571428D01*
X144052380Y-84666666D01*
X144004761Y-84761904D01*
X143957142Y-84809523D01*
X143861904Y-84857142D01*
X143671428Y-84904761D01*
X143433333Y-84904761D01*
X143242857Y-84857142D01*
X143147619Y-84809523D01*
X143100000Y-84761904D01*
X143052380Y-84666666D01*
X143147619Y-83952380D02*
X143100000Y-83904761D01*
X143052380Y-83809523D01*
X143052380Y-83571428D01*
X143100000Y-83476190D01*
X143147619Y-83428571D01*
X143242857Y-83380952D01*
X143338095Y-83380952D01*
X143480952Y-83428571D01*
X144052380Y-84000000D01*
X144052380Y-83380952D01*
X143147619Y-83000000D02*
X143100000Y-82952380D01*
X143052380Y-82857142D01*
X143052380Y-82619047D01*
X143100000Y-82523809D01*
X143147619Y-82476190D01*
X143242857Y-82428571D01*
X143338095Y-82428571D01*
X143480952Y-82476190D01*
X144052380Y-83047619D01*
X144052380Y-82428571D01*
X143671428Y-82000000D02*
X143671428Y-81238095D01*
X144052380Y-80238095D02*
X144052380Y-80809523D01*
X144052380Y-80523809D02*
X143052380Y-80523809D01*
X143195238Y-80619047D01*
X143290476Y-80714285D01*
X143338095Y-80809523D01*
X143147619Y-79857142D02*
X143100000Y-79809523D01*
X143052380Y-79714285D01*
X143052380Y-79476190D01*
X143100000Y-79380952D01*
X143147619Y-79333333D01*
X143242857Y-79285714D01*
X143338095Y-79285714D01*
X143480952Y-79333333D01*
X144052380Y-79904761D01*
X144052380Y-79285714D01*
X143671428Y-78857142D02*
X143671428Y-78095238D01*
X144052380Y-77095238D02*
X144052380Y-77666666D01*
X144052380Y-77380952D02*
X143052380Y-77380952D01*
X143195238Y-77476190D01*
X143290476Y-77571428D01*
X143338095Y-77666666D01*
X143385714Y-76238095D02*
X144052380Y-76238095D01*
X143004761Y-76476190D02*
X143719047Y-76714285D01*
X143719047Y-76095238D01*
%TO.C,*%
D12*
%TO.C,J4*%
X142255879Y-79538654D02*
X142474746Y-79757521D01*
X142222208Y-79774356D01*
X142272715Y-79824864D01*
X142289551Y-79875372D01*
X142289551Y-79909043D01*
X142272715Y-79959551D01*
X142188536Y-80043730D01*
X142138028Y-80060566D01*
X142104356Y-80060566D01*
X142053849Y-80043730D01*
X141952834Y-79942715D01*
X141935998Y-79892208D01*
X141935998Y-79858536D01*
X142575761Y-79858536D02*
X142340059Y-80329940D01*
X142811463Y-80094238D01*
X142895643Y-80178417D02*
X143114509Y-80397284D01*
X142861971Y-80414120D01*
X142912478Y-80464627D01*
X142929314Y-80515135D01*
X142929314Y-80548807D01*
X142912478Y-80599314D01*
X142828299Y-80683494D01*
X142777791Y-80700330D01*
X142744120Y-80700330D01*
X142693612Y-80683494D01*
X142592597Y-80582478D01*
X142575761Y-80531971D01*
X142575761Y-80498299D01*
X142373730Y-85039551D02*
X142710448Y-85376269D01*
X142340059Y-85207910D02*
X142542089Y-85409940D01*
X142693612Y-85056387D02*
X142542089Y-85207910D01*
X142373730Y-85443612D02*
X142306387Y-85376269D01*
X142441074Y-74812208D02*
X142171700Y-75081582D01*
X142306387Y-75081582D02*
X142171700Y-75081582D01*
X142171700Y-74946895D01*
X142659940Y-75569822D02*
X142457910Y-75367791D01*
X142558925Y-75468807D02*
X142912478Y-75115253D01*
X142828299Y-75132089D01*
X142760956Y-75132089D01*
X142710448Y-75115253D01*
X142676776Y-82499551D02*
X142710448Y-82533223D01*
X142727284Y-82583730D01*
X142727284Y-82617402D01*
X142710448Y-82667910D01*
X142659940Y-82752089D01*
X142575761Y-82836269D01*
X142491582Y-82886776D01*
X142441074Y-82903612D01*
X142407402Y-82903612D01*
X142356895Y-82886776D01*
X142323223Y-82853104D01*
X142306387Y-82802597D01*
X142306387Y-82768925D01*
X142323223Y-82718417D01*
X142373730Y-82634238D01*
X142457910Y-82550059D01*
X142542089Y-82499551D01*
X142592597Y-82482715D01*
X142626269Y-82482715D01*
X142676776Y-82499551D01*
X142171700Y-77621582D02*
X142441074Y-77352208D01*
X142306387Y-77352208D02*
X142441074Y-77352208D01*
X142441074Y-77486895D01*
X142794627Y-77537402D02*
X143013494Y-77756269D01*
X142760956Y-77773104D01*
X142811463Y-77823612D01*
X142828299Y-77874120D01*
X142828299Y-77907791D01*
X142811463Y-77958299D01*
X142727284Y-78042478D01*
X142676776Y-78059314D01*
X142643104Y-78059314D01*
X142592597Y-78042478D01*
X142491582Y-77941463D01*
X142474746Y-77890956D01*
X142474746Y-77857284D01*
D13*
%TO.C,Logo2*%
X106762857Y-78235714D02*
X106886666Y-78669047D01*
X107010476Y-78359523D01*
X107134285Y-78669047D01*
X107258095Y-78235714D01*
X107443809Y-78235714D02*
X107567619Y-78669047D01*
X107691428Y-78359523D01*
X107815238Y-78669047D01*
X107939047Y-78235714D01*
X108124761Y-78235714D02*
X108248571Y-78669047D01*
X108372380Y-78359523D01*
X108496190Y-78669047D01*
X108620000Y-78235714D01*
X108867619Y-78607142D02*
X108898571Y-78638095D01*
X108867619Y-78669047D01*
X108836666Y-78638095D01*
X108867619Y-78607142D01*
X108867619Y-78669047D01*
X109177142Y-78669047D02*
X109177142Y-78235714D01*
X109177142Y-78297619D02*
X109208095Y-78266666D01*
X109270000Y-78235714D01*
X109362857Y-78235714D01*
X109424761Y-78266666D01*
X109455714Y-78328571D01*
X109455714Y-78669047D01*
X109455714Y-78328571D02*
X109486666Y-78266666D01*
X109548571Y-78235714D01*
X109641428Y-78235714D01*
X109703333Y-78266666D01*
X109734285Y-78328571D01*
X109734285Y-78669047D01*
X110291428Y-78638095D02*
X110229523Y-78669047D01*
X110105714Y-78669047D01*
X110043809Y-78638095D01*
X110012857Y-78576190D01*
X110012857Y-78328571D01*
X110043809Y-78266666D01*
X110105714Y-78235714D01*
X110229523Y-78235714D01*
X110291428Y-78266666D01*
X110322380Y-78328571D01*
X110322380Y-78390476D01*
X110012857Y-78452380D01*
X110600952Y-78607142D02*
X110631904Y-78638095D01*
X110600952Y-78669047D01*
X110570000Y-78638095D01*
X110600952Y-78607142D01*
X110600952Y-78669047D01*
X111189047Y-78235714D02*
X111189047Y-78669047D01*
X110910476Y-78235714D02*
X110910476Y-78576190D01*
X110941428Y-78638095D01*
X111003333Y-78669047D01*
X111096190Y-78669047D01*
X111158095Y-78638095D01*
X111189047Y-78607142D01*
X111498571Y-78669047D02*
X111498571Y-78019047D01*
X111560476Y-78421428D02*
X111746190Y-78669047D01*
X111746190Y-78235714D02*
X111498571Y-78483333D01*
%TO.C,U4*%
X118607142Y-70053964D02*
X118642857Y-70018250D01*
X118714285Y-69982535D01*
X118892857Y-69982535D01*
X118964285Y-70018250D01*
X119000000Y-70053964D01*
X119035714Y-70125392D01*
X119035714Y-70196821D01*
X119000000Y-70303964D01*
X118571428Y-70732535D01*
X119035714Y-70732535D01*
X119500000Y-69982535D02*
X119571428Y-69982535D01*
X119642857Y-70018250D01*
X119678571Y-70053964D01*
X119714285Y-70125392D01*
X119750000Y-70268250D01*
X119750000Y-70446821D01*
X119714285Y-70589678D01*
X119678571Y-70661107D01*
X119642857Y-70696821D01*
X119571428Y-70732535D01*
X119500000Y-70732535D01*
X119428571Y-70696821D01*
X119392857Y-70661107D01*
X119357142Y-70589678D01*
X119321428Y-70446821D01*
X119321428Y-70268250D01*
X119357142Y-70125392D01*
X119392857Y-70053964D01*
X119428571Y-70018250D01*
X119500000Y-69982535D01*
X120035714Y-70053964D02*
X120071428Y-70018250D01*
X120142857Y-69982535D01*
X120321428Y-69982535D01*
X120392857Y-70018250D01*
X120428571Y-70053964D01*
X120464285Y-70125392D01*
X120464285Y-70196821D01*
X120428571Y-70303964D01*
X120000000Y-70732535D01*
X120464285Y-70732535D01*
X120750000Y-70053964D02*
X120785714Y-70018250D01*
X120857142Y-69982535D01*
X121035714Y-69982535D01*
X121107142Y-70018250D01*
X121142857Y-70053964D01*
X121178571Y-70125392D01*
X121178571Y-70196821D01*
X121142857Y-70303964D01*
X120714285Y-70732535D01*
X121178571Y-70732535D01*
X121500000Y-70446821D02*
X122071428Y-70446821D01*
X122821428Y-70732535D02*
X122392857Y-70732535D01*
X122607142Y-70732535D02*
X122607142Y-69982535D01*
X122535714Y-70089678D01*
X122464285Y-70161107D01*
X122392857Y-70196821D01*
X123107142Y-70053964D02*
X123142857Y-70018250D01*
X123214285Y-69982535D01*
X123392857Y-69982535D01*
X123464285Y-70018250D01*
X123500000Y-70053964D01*
X123535714Y-70125392D01*
X123535714Y-70196821D01*
X123500000Y-70303964D01*
X123071428Y-70732535D01*
X123535714Y-70732535D01*
X123857142Y-70446821D02*
X124428571Y-70446821D01*
X125178571Y-70732535D02*
X124750000Y-70732535D01*
X124964285Y-70732535D02*
X124964285Y-69982535D01*
X124892857Y-70089678D01*
X124821428Y-70161107D01*
X124750000Y-70196821D01*
X125821428Y-70232535D02*
X125821428Y-70732535D01*
X125642857Y-69946821D02*
X125464285Y-70482535D01*
X125928571Y-70482535D01*
D10*
%TO.C,SW1*%
X96000000Y-68250000D02*
X96000000Y-66750000D01*
X90250000Y-70750000D02*
X94750000Y-70750000D01*
X94750000Y-64250000D02*
X90250000Y-64250000D01*
X89000000Y-66750000D02*
X89000000Y-68250000D01*
%TO.C,R1*%
X131125000Y-87250000D02*
X131725000Y-87250000D01*
X131125000Y-86250000D02*
X131725000Y-86250000D01*
%TO.C,SW3*%
X94800000Y-79250000D02*
X90300000Y-79250000D01*
X89050000Y-81750000D02*
X89050000Y-83250000D01*
X96050000Y-83250000D02*
X96050000Y-81750000D01*
X90300000Y-85750000D02*
X94800000Y-85750000D01*
%TO.C,U2*%
X97000000Y-98500000D02*
G75*
G03*
X97000000Y-98500000I-500000J0D01*
G01*
%TO.C,C2*%
X135450000Y-83350000D02*
X136050000Y-83350000D01*
X135450000Y-84750000D02*
X136050000Y-84750000D01*
%TO.C,U6*%
X109075000Y-63100000D02*
X109075000Y-64000000D01*
X106125000Y-63100000D02*
X109075000Y-63100000D01*
X106125000Y-63100000D02*
X106125000Y-64000000D01*
%TO.C,R2*%
X131125000Y-88500000D02*
X131725000Y-88500000D01*
X131125000Y-87500000D02*
X131725000Y-87500000D01*
%TO.C,R10*%
X126550000Y-89025000D02*
X126550000Y-88425000D01*
X127550000Y-89025000D02*
X127550000Y-88425000D01*
%TO.C,U1*%
X131525000Y-84750000D02*
X131525000Y-81650000D01*
%TO.C,R7*%
X137300000Y-69100000D02*
X136700000Y-69100000D01*
X137300000Y-68100000D02*
X136700000Y-68100000D01*
%TO.C,L1*%
X131500000Y-78600000D02*
X132900000Y-78600000D01*
X131500000Y-80000000D02*
X132900000Y-80000000D01*
%TO.C,R4*%
X124300000Y-92300000D02*
X124900000Y-92300000D01*
X124300000Y-91300000D02*
X124900000Y-91300000D01*
%TO.C,C1*%
X132150000Y-84800000D02*
X132750000Y-84800000D01*
X132150000Y-85800000D02*
X132750000Y-85800000D01*
%TO.C,C3*%
X135450000Y-78500000D02*
X136050000Y-78500000D01*
X135450000Y-77100000D02*
X136050000Y-77100000D01*
%TO.C,R6*%
X122100000Y-89500000D02*
X122100000Y-88900000D01*
X121100000Y-89500000D02*
X121100000Y-88900000D01*
%TO.C,R8*%
X137300000Y-66700000D02*
X136700000Y-66700000D01*
X137300000Y-65700000D02*
X136700000Y-65700000D01*
%TO.C,R5*%
X122300000Y-89500000D02*
X122300000Y-88900000D01*
X123300000Y-89500000D02*
X123300000Y-88900000D01*
%TO.C,D1*%
X134670000Y-81420000D02*
X136070000Y-81420000D01*
%TO.C,D3*%
X137000000Y-64600000D02*
X137000000Y-63800000D01*
X135900000Y-64600000D02*
X137000000Y-64600000D01*
X137341421Y-64100000D02*
G75*
G03*
X137341421Y-64100000I-141421J0D01*
G01*
%TO.C,R3*%
X120100000Y-91300000D02*
X119500000Y-91300000D01*
X120100000Y-92300000D02*
X119500000Y-92300000D01*
%TO.C,R11*%
X125350000Y-88425000D02*
X125350000Y-89025000D01*
X126350000Y-88425000D02*
X126350000Y-89025000D01*
%TO.C,R12*%
X114750000Y-72025000D02*
X114750000Y-72625000D01*
X113750000Y-72025000D02*
X113750000Y-72625000D01*
D14*
%TO.C,U4*%
X128750000Y-79493250D02*
X127850000Y-79493250D01*
X115750000Y-78593250D02*
X115750000Y-79493250D01*
X128750000Y-78593250D02*
X128750000Y-79493250D01*
X115750000Y-79493250D02*
X116650000Y-79493250D01*
X115750000Y-68893250D02*
X115750000Y-69393250D01*
X128750000Y-68893250D02*
X128750000Y-69393250D01*
D10*
%TO.C,SW2*%
X96000000Y-75750000D02*
X96000000Y-74250000D01*
X89000000Y-74250000D02*
X89000000Y-75750000D01*
X90250000Y-78250000D02*
X94750000Y-78250000D01*
X94750000Y-71750000D02*
X90250000Y-71750000D01*
%TO.C,C4*%
X127750000Y-88425000D02*
X127750000Y-89025000D01*
X128750000Y-88425000D02*
X128750000Y-89025000D01*
%TO.C,R13*%
X112200000Y-88100000D02*
X112800000Y-88100000D01*
X112200000Y-89100000D02*
X112800000Y-89100000D01*
%TO.C,R9*%
X137300000Y-67900000D02*
X136700000Y-67900000D01*
X137300000Y-66900000D02*
X136700000Y-66900000D01*
%TO.C,U3*%
X123435000Y-87360000D02*
X124160000Y-87360000D01*
X124160000Y-87360000D02*
X124160000Y-86635000D01*
X123435000Y-83140000D02*
X124160000Y-83140000D01*
X124160000Y-83140000D02*
X124160000Y-83865000D01*
X119940000Y-87360000D02*
X119940000Y-86635000D01*
X120665000Y-87360000D02*
X119940000Y-87360000D01*
X120532843Y-83450000D02*
G75*
G03*
X120532843Y-83450000I-282843J0D01*
G01*
%TO.C,D2*%
X136750000Y-86750000D02*
X135250000Y-86750000D01*
%TD*%
M02*
