%TF.GenerationSoftware,KiCad,Pcbnew,(6.0.2-0)*%
%TF.CreationDate,2022-03-09T14:02:06+00:00*%
%TF.ProjectId,EnvMon2,456e764d-6f6e-4322-9e6b-696361645f70,4*%
%TF.SameCoordinates,Original*%
%TF.FileFunction,Copper,L2,Bot*%
%TF.FilePolarity,Positive*%
%FSLAX46Y46*%
G04 Gerber Fmt 4.6, Leading zero omitted, Abs format (unit mm)*
G04 Created by KiCad (PCBNEW (6.0.2-0)) date 2022-03-09 14:02:06*
%MOMM*%
%LPD*%
G01*
G04 APERTURE LIST*
G04 Aperture macros list*
%AMRoundRect*
0 Rectangle with rounded corners*
0 $1 Rounding radius*
0 $2 $3 $4 $5 $6 $7 $8 $9 X,Y pos of 4 corners*
0 Add a 4 corners polygon primitive as box body*
4,1,4,$2,$3,$4,$5,$6,$7,$8,$9,$2,$3,0*
0 Add four circle primitives for the rounded corners*
1,1,$1+$1,$2,$3*
1,1,$1+$1,$4,$5*
1,1,$1+$1,$6,$7*
1,1,$1+$1,$8,$9*
0 Add four rect primitives between the rounded corners*
20,1,$1+$1,$2,$3,$4,$5,0*
20,1,$1+$1,$4,$5,$6,$7,0*
20,1,$1+$1,$6,$7,$8,$9,0*
20,1,$1+$1,$8,$9,$2,$3,0*%
G04 Aperture macros list end*
%ADD10C,0.100000*%
%TA.AperFunction,NonConductor*%
%ADD11C,0.100000*%
%TD*%
%TA.AperFunction,EtchedComponent*%
%ADD12C,0.250000*%
%TD*%
%TA.AperFunction,EtchedComponent*%
%ADD13C,0.080000*%
%TD*%
%TA.AperFunction,ComponentPad*%
%ADD14RoundRect,0.250000X-0.600000X-0.675000X0.600000X-0.675000X0.600000X0.675000X-0.600000X0.675000X0*%
%TD*%
%TA.AperFunction,ComponentPad*%
%ADD15O,1.700000X1.850000*%
%TD*%
%TA.AperFunction,ComponentPad*%
%ADD16C,1.250000*%
%TD*%
%TA.AperFunction,ComponentPad*%
%ADD17C,1.500000*%
%TD*%
%TA.AperFunction,ComponentPad*%
%ADD18C,0.670000*%
%TD*%
%TA.AperFunction,ComponentPad*%
%ADD19C,1.700000*%
%TD*%
%TA.AperFunction,SMDPad,CuDef*%
%ADD20R,1.400000X0.200000*%
%TD*%
%TA.AperFunction,SMDPad,CuDef*%
%ADD21R,0.200000X0.400000*%
%TD*%
%TA.AperFunction,SMDPad,CuDef*%
%ADD22R,0.200000X0.600000*%
%TD*%
%TA.AperFunction,SMDPad,CuDef*%
%ADD23R,0.600000X0.600000*%
%TD*%
%TA.AperFunction,SMDPad,CuDef*%
%ADD24R,0.200000X0.200000*%
%TD*%
%TA.AperFunction,SMDPad,CuDef*%
%ADD25R,0.200000X1.200000*%
%TD*%
%TA.AperFunction,SMDPad,CuDef*%
%ADD26R,0.800000X0.200000*%
%TD*%
%TA.AperFunction,SMDPad,CuDef*%
%ADD27R,0.400000X0.200000*%
%TD*%
%TA.AperFunction,SMDPad,CuDef*%
%ADD28R,0.600000X0.400000*%
%TD*%
%TA.AperFunction,SMDPad,CuDef*%
%ADD29R,0.200000X0.800000*%
%TD*%
%TA.AperFunction,SMDPad,CuDef*%
%ADD30R,1.000000X0.200000*%
%TD*%
%TA.AperFunction,SMDPad,CuDef*%
%ADD31R,0.600000X0.200000*%
%TD*%
%TA.AperFunction,SMDPad,CuDef*%
%ADD32R,0.400000X0.400000*%
%TD*%
%TA.AperFunction,ViaPad*%
%ADD33C,0.800000*%
%TD*%
%TA.AperFunction,Conductor*%
%ADD34C,0.500000*%
%TD*%
%TA.AperFunction,Conductor*%
%ADD35C,0.250000*%
%TD*%
G04 APERTURE END LIST*
D10*
%TO.C,U5*%
D11*
X124678571Y-93173809D02*
X124654761Y-93150000D01*
X124607142Y-93126190D01*
X124488095Y-93126190D01*
X124440476Y-93150000D01*
X124416666Y-93173809D01*
X124392857Y-93221428D01*
X124392857Y-93269047D01*
X124416666Y-93340476D01*
X124702380Y-93626190D01*
X124392857Y-93626190D01*
X124083333Y-93126190D02*
X124035714Y-93126190D01*
X123988095Y-93150000D01*
X123964285Y-93173809D01*
X123940476Y-93221428D01*
X123916666Y-93316666D01*
X123916666Y-93435714D01*
X123940476Y-93530952D01*
X123964285Y-93578571D01*
X123988095Y-93602380D01*
X124035714Y-93626190D01*
X124083333Y-93626190D01*
X124130952Y-93602380D01*
X124154761Y-93578571D01*
X124178571Y-93530952D01*
X124202380Y-93435714D01*
X124202380Y-93316666D01*
X124178571Y-93221428D01*
X124154761Y-93173809D01*
X124130952Y-93150000D01*
X124083333Y-93126190D01*
X123726190Y-93173809D02*
X123702380Y-93150000D01*
X123654761Y-93126190D01*
X123535714Y-93126190D01*
X123488095Y-93150000D01*
X123464285Y-93173809D01*
X123440476Y-93221428D01*
X123440476Y-93269047D01*
X123464285Y-93340476D01*
X123750000Y-93626190D01*
X123440476Y-93626190D01*
X123250000Y-93173809D02*
X123226190Y-93150000D01*
X123178571Y-93126190D01*
X123059523Y-93126190D01*
X123011904Y-93150000D01*
X122988095Y-93173809D01*
X122964285Y-93221428D01*
X122964285Y-93269047D01*
X122988095Y-93340476D01*
X123273809Y-93626190D01*
X122964285Y-93626190D01*
X122750000Y-93435714D02*
X122369047Y-93435714D01*
X122035714Y-93126190D02*
X121988095Y-93126190D01*
X121940476Y-93150000D01*
X121916666Y-93173809D01*
X121892857Y-93221428D01*
X121869047Y-93316666D01*
X121869047Y-93435714D01*
X121892857Y-93530952D01*
X121916666Y-93578571D01*
X121940476Y-93602380D01*
X121988095Y-93626190D01*
X122035714Y-93626190D01*
X122083333Y-93602380D01*
X122107142Y-93578571D01*
X122130952Y-93530952D01*
X122154761Y-93435714D01*
X122154761Y-93316666D01*
X122130952Y-93221428D01*
X122107142Y-93173809D01*
X122083333Y-93150000D01*
X122035714Y-93126190D01*
X121702380Y-93126190D02*
X121392857Y-93126190D01*
X121559523Y-93316666D01*
X121488095Y-93316666D01*
X121440476Y-93340476D01*
X121416666Y-93364285D01*
X121392857Y-93411904D01*
X121392857Y-93530952D01*
X121416666Y-93578571D01*
X121440476Y-93602380D01*
X121488095Y-93626190D01*
X121630952Y-93626190D01*
X121678571Y-93602380D01*
X121702380Y-93578571D01*
X121178571Y-93435714D02*
X120797619Y-93435714D01*
X120464285Y-93126190D02*
X120416666Y-93126190D01*
X120369047Y-93150000D01*
X120345238Y-93173809D01*
X120321428Y-93221428D01*
X120297619Y-93316666D01*
X120297619Y-93435714D01*
X120321428Y-93530952D01*
X120345238Y-93578571D01*
X120369047Y-93602380D01*
X120416666Y-93626190D01*
X120464285Y-93626190D01*
X120511904Y-93602380D01*
X120535714Y-93578571D01*
X120559523Y-93530952D01*
X120583333Y-93435714D01*
X120583333Y-93316666D01*
X120559523Y-93221428D01*
X120535714Y-93173809D01*
X120511904Y-93150000D01*
X120464285Y-93126190D01*
X120130952Y-93126190D02*
X119797619Y-93126190D01*
X120011904Y-93626190D01*
D12*
%TO.C,Logo1*%
X134750000Y-81775000D02*
X137750000Y-85975000D01*
X134750000Y-81775000D02*
X134750000Y-85975000D01*
D13*
X135500000Y-85985000D02*
X135400000Y-86125000D01*
X135600000Y-85825000D02*
X135600000Y-86125000D01*
D12*
X134750000Y-83875000D02*
X136250000Y-83875000D01*
D13*
X135600000Y-85985000D02*
X135500000Y-85985000D01*
X135600000Y-85825000D02*
X135500000Y-85825000D01*
D12*
X132950000Y-81875000D02*
X134750000Y-83875000D01*
X134750000Y-83875000D02*
X132950000Y-85975000D01*
X134750000Y-85975000D02*
G75*
G03*
X136250000Y-85975000I750000J0D01*
G01*
D13*
X135500000Y-85825000D02*
G75*
G03*
X135500000Y-85985000I0J-80000D01*
G01*
X135820000Y-85985000D02*
G75*
G03*
X135820000Y-85985000I-300000J0D01*
G01*
%TD*%
D14*
%TO.P,J3,1,Pin_1*%
%TO.N,GND*%
X107750000Y-93400000D03*
D15*
%TO.P,J3,2,Pin_2*%
%TO.N,TEMP*%
X110250000Y-93400000D03*
%TO.P,J3,3,Pin_3*%
%TO.N,+3V3*%
X112750000Y-93400000D03*
%TD*%
D16*
%TO.P,J1,S1,SHIELD*%
%TO.N,GND*%
X126570000Y-97890000D03*
D17*
X126570000Y-93720000D03*
D16*
X117930000Y-97890000D03*
D18*
X119360000Y-94210000D03*
X125140000Y-94210000D03*
D17*
X117930000Y-93720000D03*
%TD*%
D19*
%TO.P,M1,1,Vcc*%
%TO.N,+3V3*%
X102500000Y-73880000D03*
%TO.P,M1,2,GND*%
%TO.N,GND*%
X102500000Y-76420000D03*
%TO.P,M1,3,DIN*%
%TO.N,OLED-MOSI*%
X102500000Y-78960000D03*
%TO.P,M1,4,CLK*%
%TO.N,OLED-SCLK*%
X102500000Y-81500000D03*
%TO.P,M1,5,CS*%
%TO.N,OLED-CS0*%
X102500000Y-84040000D03*
%TO.P,M1,6,DC*%
%TO.N,OLED-DC*%
X102500000Y-86580000D03*
%TO.P,M1,7,RST*%
%TO.N,OLED-RST*%
X102500000Y-89120000D03*
%TD*%
D14*
%TO.P,J2,1,GND*%
%TO.N,GND*%
X134150000Y-93400000D03*
D15*
%TO.P,J2,2,DC*%
%TO.N,DC*%
X136650000Y-93400000D03*
%TD*%
D20*
%TO.P,U5,*%
%TO.N,*%
X120850000Y-97800000D03*
D21*
X123250000Y-98900000D03*
X122050000Y-97100000D03*
D22*
X121850000Y-95600000D03*
D23*
X120850000Y-95600000D03*
D24*
X122050000Y-99000000D03*
D22*
X122650000Y-98200000D03*
D24*
X121850000Y-96200000D03*
D25*
X123050000Y-95700000D03*
D24*
X123050000Y-99000000D03*
D26*
X120550000Y-96600000D03*
D27*
X122950000Y-97000000D03*
D28*
X122650000Y-97300000D03*
D22*
X122450000Y-98000000D03*
D29*
X123650000Y-98100000D03*
D30*
X120850000Y-99000000D03*
D24*
X121450000Y-96600000D03*
D31*
X123250000Y-98400000D03*
D29*
X122250000Y-96500000D03*
D27*
X123950000Y-99000000D03*
D25*
X121450000Y-95700000D03*
D21*
X124250000Y-97900000D03*
D27*
X123350000Y-98000000D03*
D24*
X123450000Y-98600000D03*
X122850000Y-98200000D03*
X122250000Y-98400000D03*
D20*
X120850000Y-95000000D03*
D24*
X122250000Y-95800000D03*
X124050000Y-98400000D03*
X121450000Y-97400000D03*
X120250000Y-97000000D03*
D30*
X120850000Y-96200000D03*
D25*
X124250000Y-95700000D03*
D24*
X121450000Y-97000000D03*
D21*
X123050000Y-97500000D03*
D22*
X124050000Y-97800000D03*
D24*
X122450000Y-96000000D03*
X123250000Y-97200000D03*
D32*
X122550000Y-98900000D03*
D23*
X120850000Y-98400000D03*
D25*
X120250000Y-98500000D03*
D24*
X123650000Y-97200000D03*
X121250000Y-96800000D03*
X122250000Y-95400000D03*
D31*
X122050000Y-95000000D03*
D21*
X124250000Y-96700000D03*
D29*
X123450000Y-97100000D03*
D21*
X123650000Y-98900000D03*
D27*
X121950000Y-97600000D03*
D21*
X121650000Y-97300000D03*
D22*
X120650000Y-97000000D03*
D24*
X122050000Y-98600000D03*
D30*
X123650000Y-96200000D03*
D23*
X123650000Y-95600000D03*
D24*
X123850000Y-98000000D03*
D27*
X122550000Y-96800000D03*
D24*
X121250000Y-97200000D03*
D31*
X122650000Y-96600000D03*
D25*
X121450000Y-98500000D03*
D24*
X122050000Y-97800000D03*
D29*
X121850000Y-98700000D03*
D24*
X122650000Y-96200000D03*
D31*
X123650000Y-96600000D03*
D24*
X121050000Y-97400000D03*
D22*
X121850000Y-96800000D03*
D25*
X120250000Y-95700000D03*
D27*
X122950000Y-98600000D03*
X123750000Y-97000000D03*
D26*
X122350000Y-95200000D03*
D20*
X123650000Y-95000000D03*
D24*
X122050000Y-98200000D03*
D21*
X122050000Y-95700000D03*
D24*
X122450000Y-95600000D03*
X122250000Y-97400000D03*
D22*
X120850000Y-97200000D03*
D21*
X122650000Y-95500000D03*
D24*
X122050000Y-96400000D03*
X122250000Y-98000000D03*
%TD*%
D33*
%TO.N,VBUS*%
X124600000Y-90800000D03*
X119800000Y-90800000D03*
%TO.N,GND*%
X88000000Y-72400000D03*
X92000000Y-68500000D03*
X137000000Y-69750000D03*
X135250000Y-80500000D03*
X123750000Y-80750000D03*
X135000000Y-63500000D03*
%TO.N,+3V3*%
X120050000Y-83250000D03*
X124050000Y-87250000D03*
X129500000Y-86750000D03*
%TO.N,CO2-SDA*%
X96250000Y-64250000D03*
X88500000Y-65000000D03*
X115000000Y-69000000D03*
X127000000Y-71500000D03*
%TO.N,CO2-SCL*%
X87250000Y-64000000D03*
X126000000Y-71500000D03*
%TO.N,O*%
X119000000Y-84250000D03*
X126000000Y-73250000D03*
%TO.N,I*%
X127000000Y-82500000D03*
X127000000Y-74000000D03*
%TO.N,EN*%
X122750000Y-80750000D03*
X117500000Y-75500000D03*
%TD*%
D34*
%TO.N,VBUS*%
X124600000Y-90800000D02*
X119800000Y-90800000D01*
D35*
%TO.N,GND*%
X101650000Y-75570000D02*
X101650000Y-75438547D01*
X99961453Y-73750000D02*
X97250000Y-73750000D01*
X102500000Y-76420000D02*
X101650000Y-75570000D01*
X99961453Y-73750000D02*
G75*
G02*
X101650000Y-75438547I0J-1688547D01*
G01*
X97250000Y-73750000D02*
G75*
G02*
X92000000Y-68500000I-1J5249999D01*
G01*
%TO.N,+3V3*%
X104000000Y-75380000D02*
X104000000Y-88500000D01*
X124050000Y-87250000D02*
X129000000Y-87250000D01*
X107250000Y-91750000D02*
X111100000Y-91750000D01*
X124050000Y-87250000D02*
G75*
G02*
X120050000Y-83250000I0J4000000D01*
G01*
X129500000Y-86750000D02*
G75*
G02*
X129000000Y-87250000I-500001J1D01*
G01*
X112750000Y-93400000D02*
G75*
G03*
X111100000Y-91750000I-1650001J-1D01*
G01*
X107250000Y-91750000D02*
G75*
G02*
X104000000Y-88500000I0J3250000D01*
G01*
X104000000Y-75380000D02*
G75*
G03*
X102500000Y-73880000I-1500001J-1D01*
G01*
%TO.N,CO2-SDA*%
X95750000Y-63750000D02*
X89750000Y-63750000D01*
X115500000Y-69500000D02*
X125000000Y-69500000D01*
X95750000Y-63750000D02*
G75*
G02*
X96250000Y-64250000I-1J-500001D01*
G01*
X115500000Y-69500000D02*
G75*
G02*
X115000000Y-69000000I1J500001D01*
G01*
X88500000Y-65000000D02*
G75*
G02*
X89750000Y-63750000I1250002J-2D01*
G01*
X127000000Y-71500000D02*
G75*
G03*
X125000000Y-69500000I-1999999J1D01*
G01*
%TO.N,CO2-SCL*%
X115000000Y-70000000D02*
X124750000Y-70000000D01*
X100750000Y-68500000D02*
X112250000Y-68500000D01*
X113530330Y-69030330D02*
X114146446Y-69646446D01*
X99750000Y-64500000D02*
X99750000Y-67500000D01*
X126000000Y-71250000D02*
X126000000Y-71500000D01*
X88000000Y-63250000D02*
X98500000Y-63250000D01*
X88000000Y-63250000D02*
G75*
G03*
X87250000Y-64000000I0J-750000D01*
G01*
X113530330Y-69030330D02*
G75*
G03*
X112250000Y-68500000I-1280328J-1280325D01*
G01*
X126000000Y-71250000D02*
G75*
G03*
X124750000Y-70000000I-1250002J-2D01*
G01*
X99750000Y-64500000D02*
G75*
G03*
X98500000Y-63250000I-1250002J-2D01*
G01*
X115000000Y-70000000D02*
G75*
G02*
X114146446Y-69646446I2J1207111D01*
G01*
X100750000Y-68500000D02*
G75*
G02*
X99750000Y-67500000I-1J999999D01*
G01*
%TO.N,O*%
X116500000Y-83250000D02*
X116500000Y-74500000D01*
X117750000Y-73250000D02*
X126000000Y-73250000D01*
X119000000Y-84250000D02*
X117500000Y-84250000D01*
X116500000Y-83250000D02*
G75*
G03*
X117500000Y-84250000I999999J-1D01*
G01*
X117750000Y-73250000D02*
G75*
G03*
X116500000Y-74500000I2J-1250002D01*
G01*
%TO.N,I*%
X127000000Y-82500000D02*
X127000000Y-74000000D01*
%TO.N,EN*%
X122750000Y-80750000D02*
X118750000Y-80750000D01*
X117500000Y-79500000D02*
X117500000Y-75500000D01*
X117500000Y-79500000D02*
G75*
G03*
X118750000Y-80750000I1250002J2D01*
G01*
%TD*%
%TA.AperFunction,Conductor*%
%TO.N,GND*%
G36*
X140498713Y-63220002D02*
G01*
X140545206Y-63273658D01*
X140555310Y-63343932D01*
X140525816Y-63408512D01*
X140503922Y-63427370D01*
X140504434Y-63428075D01*
X140501236Y-63430399D01*
X140497890Y-63432522D01*
X140250610Y-63637089D01*
X140238487Y-63649999D01*
X140077233Y-63821718D01*
X140030920Y-63871036D01*
X140028593Y-63874238D01*
X140028592Y-63874240D01*
X139870091Y-64092399D01*
X139842284Y-64130672D01*
X139840377Y-64134141D01*
X139840375Y-64134144D01*
X139691062Y-64405743D01*
X139687676Y-64411903D01*
X139617008Y-64590388D01*
X139574735Y-64697159D01*
X139569534Y-64710294D01*
X139489723Y-65021139D01*
X139449500Y-65339536D01*
X139449500Y-65660464D01*
X139489723Y-65978861D01*
X139569534Y-66289706D01*
X139687676Y-66588097D01*
X139842284Y-66869328D01*
X139844612Y-66872532D01*
X139844615Y-66872537D01*
X139961009Y-67032740D01*
X140030920Y-67128964D01*
X140250610Y-67362911D01*
X140497890Y-67567478D01*
X140768858Y-67739439D01*
X140772437Y-67741123D01*
X140772444Y-67741127D01*
X141055652Y-67874395D01*
X141055656Y-67874397D01*
X141059242Y-67876084D01*
X141364462Y-67975256D01*
X141679706Y-68035392D01*
X141775025Y-68041389D01*
X141917848Y-68050375D01*
X141917864Y-68050376D01*
X141919843Y-68050500D01*
X142080157Y-68050500D01*
X142082136Y-68050376D01*
X142082152Y-68050375D01*
X142224975Y-68041389D01*
X142320294Y-68035392D01*
X142635538Y-67975256D01*
X142940758Y-67876084D01*
X142944344Y-67874397D01*
X142944348Y-67874395D01*
X143227556Y-67741127D01*
X143227563Y-67741123D01*
X143231142Y-67739439D01*
X143502110Y-67567478D01*
X143749390Y-67362911D01*
X143969080Y-67128964D01*
X144072064Y-66987218D01*
X144128286Y-66943864D01*
X144199022Y-66937789D01*
X144261814Y-66970920D01*
X144296725Y-67032740D01*
X144300000Y-67061279D01*
X144300000Y-95938721D01*
X144279998Y-96006842D01*
X144226342Y-96053335D01*
X144156068Y-96063439D01*
X144091488Y-96033945D01*
X144072064Y-96012782D01*
X144067749Y-96006842D01*
X143969080Y-95871036D01*
X143749390Y-95637089D01*
X143502110Y-95432522D01*
X143231142Y-95260561D01*
X143227563Y-95258877D01*
X143227556Y-95258873D01*
X142944348Y-95125605D01*
X142944344Y-95125603D01*
X142940758Y-95123916D01*
X142635538Y-95024744D01*
X142320294Y-94964608D01*
X142224975Y-94958611D01*
X142082152Y-94949625D01*
X142082136Y-94949624D01*
X142080157Y-94949500D01*
X141919843Y-94949500D01*
X141917864Y-94949624D01*
X141917848Y-94949625D01*
X141775025Y-94958611D01*
X141679706Y-94964608D01*
X141364462Y-95024744D01*
X141059242Y-95123916D01*
X141055656Y-95125603D01*
X141055652Y-95125605D01*
X140772444Y-95258873D01*
X140772437Y-95258877D01*
X140768858Y-95260561D01*
X140497890Y-95432522D01*
X140250610Y-95637089D01*
X140030920Y-95871036D01*
X140028593Y-95874238D01*
X140028592Y-95874240D01*
X139892024Y-96062211D01*
X139842284Y-96130672D01*
X139687676Y-96411903D01*
X139569534Y-96710294D01*
X139489723Y-97021139D01*
X139449500Y-97339536D01*
X139449500Y-97660464D01*
X139489723Y-97978861D01*
X139569534Y-98289706D01*
X139687676Y-98588097D01*
X139689578Y-98591556D01*
X139689579Y-98591559D01*
X139827546Y-98842519D01*
X139842284Y-98869328D01*
X139844612Y-98872532D01*
X139844615Y-98872537D01*
X139956162Y-99026068D01*
X140030920Y-99128964D01*
X140250610Y-99362911D01*
X140497890Y-99567478D01*
X140501236Y-99569601D01*
X140504434Y-99571925D01*
X140503274Y-99573521D01*
X140544891Y-99620975D01*
X140555414Y-99691187D01*
X140526307Y-99755943D01*
X140466811Y-99794682D01*
X140430592Y-99800000D01*
X125326000Y-99800000D01*
X125257879Y-99779998D01*
X125211386Y-99726342D01*
X125200000Y-99674000D01*
X125200000Y-98849319D01*
X125975041Y-98849319D01*
X125984923Y-98861809D01*
X126022259Y-98886756D01*
X126032371Y-98892247D01*
X126213081Y-98969885D01*
X126224014Y-98973437D01*
X126415844Y-99016845D01*
X126427253Y-99018347D01*
X126623783Y-99026068D01*
X126635265Y-99025466D01*
X126829905Y-98997245D01*
X126841101Y-98994557D01*
X127027343Y-98931336D01*
X127037840Y-98926662D01*
X127156401Y-98860266D01*
X127166264Y-98850189D01*
X127163309Y-98842519D01*
X126582812Y-98262022D01*
X126568868Y-98254408D01*
X126567035Y-98254539D01*
X126560420Y-98258790D01*
X125981237Y-98837973D01*
X125975041Y-98849319D01*
X125200000Y-98849319D01*
X125200000Y-98106765D01*
X125220002Y-98038644D01*
X125273658Y-97992151D01*
X125343932Y-97982047D01*
X125408512Y-98011541D01*
X125448123Y-98075749D01*
X125495991Y-98264228D01*
X125499829Y-98275066D01*
X125582173Y-98453685D01*
X125587922Y-98463642D01*
X125597850Y-98477690D01*
X125608439Y-98486078D01*
X125621740Y-98479050D01*
X126197978Y-97902812D01*
X126204356Y-97891132D01*
X126934408Y-97891132D01*
X126934539Y-97892965D01*
X126938790Y-97899580D01*
X127518603Y-98479393D01*
X127530983Y-98486153D01*
X127537563Y-98481227D01*
X127606662Y-98357840D01*
X127611336Y-98347343D01*
X127674557Y-98161101D01*
X127677245Y-98149905D01*
X127705762Y-97953224D01*
X127706392Y-97945843D01*
X127707757Y-97893704D01*
X127707514Y-97886305D01*
X127689330Y-97688397D01*
X127687233Y-97677083D01*
X127633846Y-97487789D01*
X127629724Y-97477050D01*
X127542736Y-97300656D01*
X127541577Y-97298765D01*
X127532732Y-97292126D01*
X127520312Y-97298898D01*
X126942022Y-97877188D01*
X126934408Y-97891132D01*
X126204356Y-97891132D01*
X126205592Y-97888868D01*
X126205461Y-97887035D01*
X126201210Y-97880420D01*
X125620031Y-97299241D01*
X125607651Y-97292481D01*
X125601685Y-97296947D01*
X125521452Y-97449445D01*
X125517047Y-97460079D01*
X125458724Y-97647910D01*
X125456332Y-97659164D01*
X125451127Y-97703140D01*
X125423256Y-97768437D01*
X125364508Y-97808301D01*
X125293533Y-97810075D01*
X125232867Y-97773196D01*
X125201769Y-97709372D01*
X125200000Y-97688330D01*
X125200000Y-96930436D01*
X125974547Y-96930436D01*
X125978033Y-96938823D01*
X126557188Y-97517978D01*
X126571132Y-97525592D01*
X126572965Y-97525461D01*
X126579580Y-97521210D01*
X127158407Y-96942383D01*
X127165167Y-96930003D01*
X127159137Y-96921948D01*
X127091459Y-96879246D01*
X127081211Y-96874025D01*
X126898531Y-96801143D01*
X126887504Y-96797876D01*
X126694605Y-96759506D01*
X126683159Y-96758303D01*
X126486507Y-96755730D01*
X126475027Y-96756633D01*
X126281199Y-96789938D01*
X126270079Y-96792918D01*
X126085557Y-96860992D01*
X126075179Y-96865942D01*
X125984146Y-96920101D01*
X125974547Y-96930436D01*
X125200000Y-96930436D01*
X125200000Y-94770161D01*
X125884393Y-94770161D01*
X125893687Y-94782175D01*
X125934088Y-94810464D01*
X125943584Y-94815947D01*
X126133113Y-94904326D01*
X126143405Y-94908072D01*
X126345401Y-94962196D01*
X126356196Y-94964099D01*
X126564525Y-94982326D01*
X126575475Y-94982326D01*
X126783804Y-94964099D01*
X126794599Y-94962196D01*
X126996595Y-94908072D01*
X127006887Y-94904326D01*
X127196416Y-94815947D01*
X127205912Y-94810464D01*
X127247148Y-94781590D01*
X127255523Y-94771112D01*
X127248457Y-94757668D01*
X126582811Y-94092021D01*
X126568868Y-94084408D01*
X126567034Y-94084539D01*
X126560420Y-94088790D01*
X125890820Y-94758391D01*
X125884393Y-94770161D01*
X125200000Y-94770161D01*
X125200000Y-94327056D01*
X125220002Y-94258935D01*
X125273658Y-94212442D01*
X125343932Y-94202338D01*
X125408512Y-94231832D01*
X125440195Y-94273806D01*
X125474054Y-94346417D01*
X125479534Y-94355907D01*
X125508411Y-94397149D01*
X125518887Y-94405523D01*
X125532334Y-94398455D01*
X126197979Y-93732811D01*
X126204356Y-93721132D01*
X126934408Y-93721132D01*
X126934539Y-93722966D01*
X126938790Y-93729580D01*
X127608391Y-94399180D01*
X127620161Y-94405607D01*
X127632176Y-94396311D01*
X127660466Y-94355907D01*
X127665946Y-94346417D01*
X127754326Y-94156887D01*
X127758072Y-94146595D01*
X127764637Y-94122095D01*
X132792001Y-94122095D01*
X132792338Y-94128614D01*
X132802257Y-94224206D01*
X132805149Y-94237600D01*
X132856588Y-94391784D01*
X132862761Y-94404962D01*
X132948063Y-94542807D01*
X132957099Y-94554208D01*
X133071829Y-94668739D01*
X133083240Y-94677751D01*
X133221243Y-94762816D01*
X133234424Y-94768963D01*
X133388710Y-94820138D01*
X133402086Y-94823005D01*
X133496438Y-94832672D01*
X133502854Y-94833000D01*
X133877885Y-94833000D01*
X133893124Y-94828525D01*
X133894329Y-94827135D01*
X133896000Y-94819452D01*
X133896000Y-94814884D01*
X134404000Y-94814884D01*
X134408475Y-94830123D01*
X134409865Y-94831328D01*
X134417548Y-94832999D01*
X134797095Y-94832999D01*
X134803614Y-94832662D01*
X134899206Y-94822743D01*
X134912600Y-94819851D01*
X135066784Y-94768412D01*
X135079962Y-94762239D01*
X135217807Y-94676937D01*
X135229208Y-94667901D01*
X135343739Y-94553171D01*
X135352751Y-94541760D01*
X135437816Y-94403757D01*
X135443963Y-94390576D01*
X135495138Y-94236290D01*
X135498005Y-94222914D01*
X135507672Y-94128562D01*
X135508000Y-94122146D01*
X135508000Y-94070289D01*
X135528002Y-94002168D01*
X135581658Y-93955675D01*
X135651932Y-93945571D01*
X135716512Y-93975065D01*
X135745251Y-94011136D01*
X135767884Y-94053702D01*
X135767888Y-94053708D01*
X135770782Y-94059151D01*
X135827435Y-94128614D01*
X135897094Y-94214025D01*
X135897097Y-94214028D01*
X135900989Y-94218800D01*
X135905736Y-94222727D01*
X135905738Y-94222729D01*
X136054975Y-94346189D01*
X136054979Y-94346191D01*
X136059725Y-94350118D01*
X136240945Y-94448103D01*
X136437746Y-94509023D01*
X136443871Y-94509667D01*
X136443872Y-94509667D01*
X136636502Y-94529913D01*
X136636504Y-94529913D01*
X136642631Y-94530557D01*
X136729471Y-94522654D01*
X136841658Y-94512445D01*
X136841661Y-94512444D01*
X136847797Y-94511886D01*
X137045428Y-94453720D01*
X137227998Y-94358274D01*
X137232799Y-94354414D01*
X137232802Y-94354412D01*
X137383746Y-94233050D01*
X137383747Y-94233050D01*
X137388553Y-94229185D01*
X137520976Y-94071370D01*
X137523944Y-94065972D01*
X137523947Y-94065967D01*
X137617257Y-93896235D01*
X137620224Y-93890838D01*
X137682516Y-93694468D01*
X137683474Y-93685932D01*
X137700107Y-93537636D01*
X137700500Y-93534136D01*
X137700500Y-93273159D01*
X137685480Y-93119970D01*
X137625935Y-92922749D01*
X137529218Y-92740849D01*
X137438433Y-92629536D01*
X137402906Y-92585975D01*
X137402903Y-92585972D01*
X137399011Y-92581200D01*
X137394038Y-92577086D01*
X137245025Y-92453811D01*
X137245021Y-92453809D01*
X137240275Y-92449882D01*
X137059055Y-92351897D01*
X136862254Y-92290977D01*
X136856129Y-92290333D01*
X136856128Y-92290333D01*
X136663498Y-92270087D01*
X136663496Y-92270087D01*
X136657369Y-92269443D01*
X136570529Y-92277346D01*
X136458342Y-92287555D01*
X136458339Y-92287556D01*
X136452203Y-92288114D01*
X136254572Y-92346280D01*
X136072002Y-92441726D01*
X136067201Y-92445586D01*
X136067198Y-92445588D01*
X135921913Y-92562400D01*
X135911447Y-92570815D01*
X135779024Y-92728630D01*
X135776055Y-92734031D01*
X135776048Y-92734041D01*
X135744413Y-92791585D01*
X135694068Y-92841644D01*
X135624651Y-92856537D01*
X135558202Y-92831536D01*
X135515818Y-92774579D01*
X135507999Y-92730884D01*
X135507999Y-92677905D01*
X135507662Y-92671386D01*
X135497743Y-92575794D01*
X135494851Y-92562400D01*
X135443412Y-92408216D01*
X135437239Y-92395038D01*
X135351937Y-92257193D01*
X135342901Y-92245792D01*
X135228171Y-92131261D01*
X135216760Y-92122249D01*
X135078757Y-92037184D01*
X135065576Y-92031037D01*
X134911290Y-91979862D01*
X134897914Y-91976995D01*
X134803562Y-91967328D01*
X134797145Y-91967000D01*
X134422115Y-91967000D01*
X134406876Y-91971475D01*
X134405671Y-91972865D01*
X134404000Y-91980548D01*
X134404000Y-94814884D01*
X133896000Y-94814884D01*
X133896000Y-93672115D01*
X133891525Y-93656876D01*
X133890135Y-93655671D01*
X133882452Y-93654000D01*
X132810116Y-93654000D01*
X132794877Y-93658475D01*
X132793672Y-93659865D01*
X132792001Y-93667548D01*
X132792001Y-94122095D01*
X127764637Y-94122095D01*
X127812196Y-93944599D01*
X127814099Y-93933804D01*
X127832326Y-93725475D01*
X127832326Y-93714525D01*
X127814099Y-93506196D01*
X127812196Y-93495401D01*
X127758072Y-93293405D01*
X127754326Y-93283113D01*
X127681941Y-93127885D01*
X132792000Y-93127885D01*
X132796475Y-93143124D01*
X132797865Y-93144329D01*
X132805548Y-93146000D01*
X133877885Y-93146000D01*
X133893124Y-93141525D01*
X133894329Y-93140135D01*
X133896000Y-93132452D01*
X133896000Y-91985116D01*
X133891525Y-91969877D01*
X133890135Y-91968672D01*
X133882452Y-91967001D01*
X133502905Y-91967001D01*
X133496386Y-91967338D01*
X133400794Y-91977257D01*
X133387400Y-91980149D01*
X133233216Y-92031588D01*
X133220038Y-92037761D01*
X133082193Y-92123063D01*
X133070792Y-92132099D01*
X132956261Y-92246829D01*
X132947249Y-92258240D01*
X132862184Y-92396243D01*
X132856037Y-92409424D01*
X132804862Y-92563710D01*
X132801995Y-92577086D01*
X132792328Y-92671438D01*
X132792000Y-92677855D01*
X132792000Y-93127885D01*
X127681941Y-93127885D01*
X127665946Y-93093583D01*
X127660466Y-93084093D01*
X127631589Y-93042851D01*
X127621113Y-93034477D01*
X127607666Y-93041545D01*
X126942021Y-93707189D01*
X126934408Y-93721132D01*
X126204356Y-93721132D01*
X126205592Y-93718868D01*
X126205461Y-93717034D01*
X126201210Y-93710420D01*
X125531609Y-93040820D01*
X125519839Y-93034393D01*
X125507824Y-93043689D01*
X125479534Y-93084093D01*
X125474054Y-93093583D01*
X125440195Y-93166194D01*
X125393277Y-93219479D01*
X125325000Y-93238940D01*
X125257040Y-93218398D01*
X125210975Y-93164375D01*
X125200000Y-93112944D01*
X125200000Y-92668887D01*
X125884477Y-92668887D01*
X125891545Y-92682334D01*
X126557189Y-93347979D01*
X126571132Y-93355592D01*
X126572966Y-93355461D01*
X126579580Y-93351210D01*
X127249180Y-92681609D01*
X127255607Y-92669839D01*
X127246313Y-92657825D01*
X127205912Y-92629536D01*
X127196416Y-92624053D01*
X127006887Y-92535674D01*
X126996595Y-92531928D01*
X126794599Y-92477804D01*
X126783804Y-92475901D01*
X126575475Y-92457674D01*
X126564525Y-92457674D01*
X126356196Y-92475901D01*
X126345401Y-92477804D01*
X126143405Y-92531928D01*
X126133113Y-92535674D01*
X125943583Y-92624054D01*
X125934093Y-92629534D01*
X125892851Y-92658411D01*
X125884477Y-92668887D01*
X125200000Y-92668887D01*
X125200000Y-92650000D01*
X119300000Y-92650000D01*
X119300000Y-93112944D01*
X119279998Y-93181065D01*
X119226342Y-93227558D01*
X119156068Y-93237662D01*
X119091488Y-93208168D01*
X119059805Y-93166194D01*
X119025946Y-93093583D01*
X119020466Y-93084093D01*
X118991589Y-93042851D01*
X118981113Y-93034477D01*
X118967666Y-93041545D01*
X118302021Y-93707189D01*
X118294408Y-93721132D01*
X118294539Y-93722966D01*
X118298790Y-93729580D01*
X118968391Y-94399180D01*
X118980161Y-94405607D01*
X118992176Y-94396311D01*
X119020466Y-94355907D01*
X119025946Y-94346417D01*
X119059805Y-94273806D01*
X119106723Y-94220521D01*
X119175000Y-94201060D01*
X119242960Y-94221602D01*
X119289025Y-94275625D01*
X119300000Y-94327056D01*
X119300000Y-97669646D01*
X119279998Y-97737767D01*
X119226342Y-97784260D01*
X119156068Y-97794364D01*
X119091488Y-97764870D01*
X119053104Y-97705144D01*
X119050110Y-97692607D01*
X119047233Y-97677083D01*
X118993846Y-97487789D01*
X118989724Y-97477050D01*
X118902736Y-97300656D01*
X118901577Y-97298765D01*
X118892732Y-97292126D01*
X118880312Y-97298898D01*
X118302022Y-97877188D01*
X118294408Y-97891132D01*
X118294539Y-97892965D01*
X118298790Y-97899580D01*
X118878603Y-98479393D01*
X118890983Y-98486153D01*
X118897563Y-98481227D01*
X118966662Y-98357840D01*
X118971336Y-98347343D01*
X119034557Y-98161101D01*
X119037245Y-98149905D01*
X119049304Y-98066734D01*
X119078874Y-98002188D01*
X119138646Y-97963876D01*
X119209642Y-97963960D01*
X119269323Y-98002415D01*
X119298739Y-98067031D01*
X119300000Y-98084814D01*
X119300000Y-99674000D01*
X119279998Y-99742121D01*
X119226342Y-99788614D01*
X119174000Y-99800000D01*
X104069408Y-99800000D01*
X104001287Y-99779998D01*
X103954794Y-99726342D01*
X103944690Y-99656068D01*
X103974184Y-99591488D01*
X103996078Y-99572630D01*
X103995566Y-99571925D01*
X103998764Y-99569601D01*
X104002110Y-99567478D01*
X104249390Y-99362911D01*
X104469080Y-99128964D01*
X104543838Y-99026068D01*
X104655385Y-98872537D01*
X104655388Y-98872532D01*
X104657716Y-98869328D01*
X104668717Y-98849319D01*
X117335041Y-98849319D01*
X117344923Y-98861809D01*
X117382259Y-98886756D01*
X117392371Y-98892247D01*
X117573081Y-98969885D01*
X117584014Y-98973437D01*
X117775844Y-99016845D01*
X117787253Y-99018347D01*
X117983783Y-99026068D01*
X117995265Y-99025466D01*
X118189905Y-98997245D01*
X118201101Y-98994557D01*
X118387343Y-98931336D01*
X118397840Y-98926662D01*
X118516401Y-98860266D01*
X118526264Y-98850189D01*
X118523309Y-98842519D01*
X117942812Y-98262022D01*
X117928868Y-98254408D01*
X117927035Y-98254539D01*
X117920420Y-98258790D01*
X117341237Y-98837973D01*
X117335041Y-98849319D01*
X104668717Y-98849319D01*
X104672455Y-98842519D01*
X104810421Y-98591559D01*
X104810422Y-98591556D01*
X104812324Y-98588097D01*
X104930466Y-98289706D01*
X105010277Y-97978861D01*
X105024537Y-97865980D01*
X116792914Y-97865980D01*
X116805777Y-98062233D01*
X116807577Y-98073601D01*
X116855991Y-98264228D01*
X116859829Y-98275066D01*
X116942173Y-98453685D01*
X116947922Y-98463642D01*
X116957850Y-98477690D01*
X116968439Y-98486078D01*
X116981740Y-98479050D01*
X117557978Y-97902812D01*
X117565592Y-97888868D01*
X117565461Y-97887035D01*
X117561210Y-97880420D01*
X116980031Y-97299241D01*
X116967651Y-97292481D01*
X116961685Y-97296947D01*
X116881452Y-97449445D01*
X116877047Y-97460079D01*
X116818724Y-97647910D01*
X116816332Y-97659164D01*
X116793215Y-97854479D01*
X116792914Y-97865980D01*
X105024537Y-97865980D01*
X105050500Y-97660464D01*
X105050500Y-97339536D01*
X105010277Y-97021139D01*
X104986989Y-96930436D01*
X117334547Y-96930436D01*
X117338033Y-96938823D01*
X117917188Y-97517978D01*
X117931132Y-97525592D01*
X117932965Y-97525461D01*
X117939580Y-97521210D01*
X118518407Y-96942383D01*
X118525167Y-96930003D01*
X118519137Y-96921948D01*
X118451459Y-96879246D01*
X118441211Y-96874025D01*
X118258531Y-96801143D01*
X118247504Y-96797876D01*
X118054605Y-96759506D01*
X118043159Y-96758303D01*
X117846507Y-96755730D01*
X117835027Y-96756633D01*
X117641199Y-96789938D01*
X117630079Y-96792918D01*
X117445557Y-96860992D01*
X117435179Y-96865942D01*
X117344146Y-96920101D01*
X117334547Y-96930436D01*
X104986989Y-96930436D01*
X104930466Y-96710294D01*
X104812324Y-96411903D01*
X104657716Y-96130672D01*
X104607977Y-96062211D01*
X104471408Y-95874240D01*
X104471407Y-95874238D01*
X104469080Y-95871036D01*
X104249390Y-95637089D01*
X104002110Y-95432522D01*
X103731142Y-95260561D01*
X103727563Y-95258877D01*
X103727556Y-95258873D01*
X103444348Y-95125605D01*
X103444344Y-95125603D01*
X103440758Y-95123916D01*
X103135538Y-95024744D01*
X102820294Y-94964608D01*
X102724975Y-94958611D01*
X102582152Y-94949625D01*
X102582136Y-94949624D01*
X102580157Y-94949500D01*
X102419843Y-94949500D01*
X102417864Y-94949624D01*
X102417848Y-94949625D01*
X102275025Y-94958611D01*
X102179706Y-94964608D01*
X101864462Y-95024744D01*
X101559242Y-95123916D01*
X101555656Y-95125603D01*
X101555652Y-95125605D01*
X101272444Y-95258873D01*
X101272437Y-95258877D01*
X101268858Y-95260561D01*
X100997890Y-95432522D01*
X100750610Y-95637089D01*
X100530920Y-95871036D01*
X100432252Y-96006842D01*
X100427936Y-96012782D01*
X100371714Y-96056136D01*
X100300978Y-96062211D01*
X100238186Y-96029080D01*
X100203275Y-95967260D01*
X100200000Y-95938721D01*
X100200000Y-94122095D01*
X106392001Y-94122095D01*
X106392338Y-94128614D01*
X106402257Y-94224206D01*
X106405149Y-94237600D01*
X106456588Y-94391784D01*
X106462761Y-94404962D01*
X106548063Y-94542807D01*
X106557099Y-94554208D01*
X106671829Y-94668739D01*
X106683240Y-94677751D01*
X106821243Y-94762816D01*
X106834424Y-94768963D01*
X106988710Y-94820138D01*
X107002086Y-94823005D01*
X107096438Y-94832672D01*
X107102854Y-94833000D01*
X107477885Y-94833000D01*
X107493124Y-94828525D01*
X107494329Y-94827135D01*
X107496000Y-94819452D01*
X107496000Y-93672115D01*
X107491525Y-93656876D01*
X107490135Y-93655671D01*
X107482452Y-93654000D01*
X106410116Y-93654000D01*
X106394877Y-93658475D01*
X106393672Y-93659865D01*
X106392001Y-93667548D01*
X106392001Y-94122095D01*
X100200000Y-94122095D01*
X100200000Y-76391863D01*
X101138050Y-76391863D01*
X101150309Y-76604477D01*
X101151745Y-76614697D01*
X101198565Y-76822446D01*
X101201645Y-76832275D01*
X101281770Y-77029603D01*
X101286413Y-77038794D01*
X101366460Y-77169420D01*
X101376916Y-77178880D01*
X101385694Y-77175096D01*
X102127978Y-76432812D01*
X102135592Y-76418868D01*
X102135461Y-76417035D01*
X102131210Y-76410420D01*
X101389849Y-75669059D01*
X101378313Y-75662759D01*
X101366031Y-75672382D01*
X101318089Y-75742662D01*
X101313004Y-75751613D01*
X101223338Y-75944783D01*
X101219775Y-75954470D01*
X101162864Y-76159681D01*
X101160933Y-76169800D01*
X101138302Y-76381574D01*
X101138050Y-76391863D01*
X100200000Y-76391863D01*
X100200000Y-75037312D01*
X100203254Y-75008860D01*
X100205142Y-75000716D01*
X100205143Y-75000000D01*
X100203561Y-74993063D01*
X100202770Y-74985991D01*
X100202955Y-74985970D01*
X100202236Y-74981250D01*
X100192800Y-74861370D01*
X100188891Y-74811698D01*
X100179849Y-74774033D01*
X100157252Y-74679912D01*
X100144797Y-74628033D01*
X100142905Y-74623466D01*
X100142903Y-74623459D01*
X100074410Y-74458101D01*
X100074408Y-74458097D01*
X100072515Y-74453527D01*
X99973823Y-74292476D01*
X99851153Y-74148847D01*
X99707524Y-74026177D01*
X99546473Y-73927485D01*
X99541903Y-73925592D01*
X99541899Y-73925590D01*
X99376541Y-73857097D01*
X99376534Y-73857095D01*
X99371967Y-73855203D01*
X99287999Y-73835044D01*
X99193115Y-73812264D01*
X99193109Y-73812263D01*
X99188302Y-73811109D01*
X99126908Y-73806277D01*
X99100252Y-73804179D01*
X99033910Y-73778893D01*
X98991771Y-73721755D01*
X98987212Y-73650905D01*
X99021681Y-73588837D01*
X99056889Y-73564372D01*
X99097307Y-73545525D01*
X99097311Y-73545523D01*
X99102292Y-73543200D01*
X99274292Y-73422765D01*
X99422765Y-73274292D01*
X99543200Y-73102292D01*
X99550980Y-73085609D01*
X99629616Y-72916974D01*
X99629617Y-72916972D01*
X99631939Y-72911992D01*
X99635828Y-72897480D01*
X99657474Y-72816695D01*
X99686284Y-72709174D01*
X99704145Y-72505017D01*
X99704627Y-72505059D01*
X99704466Y-72503633D01*
X99705142Y-72500716D01*
X99705143Y-72500000D01*
X99703154Y-72491282D01*
X99700000Y-72463267D01*
X99700000Y-68619679D01*
X99720002Y-68551558D01*
X99773658Y-68505065D01*
X99843932Y-68494961D01*
X99907829Y-68523867D01*
X99968481Y-68575669D01*
X100146375Y-68684682D01*
X100150945Y-68686575D01*
X100150949Y-68686577D01*
X100334558Y-68762630D01*
X100339131Y-68764524D01*
X100410459Y-68781649D01*
X100537192Y-68812075D01*
X100537198Y-68812076D01*
X100542005Y-68813230D01*
X100667988Y-68823145D01*
X100734531Y-68828382D01*
X100736299Y-68828607D01*
X100737392Y-68828607D01*
X100740556Y-68828856D01*
X100750000Y-68830521D01*
X100767621Y-68827414D01*
X100789500Y-68825500D01*
X101458542Y-68825500D01*
X101526663Y-68845502D01*
X101573156Y-68899158D01*
X101583260Y-68969432D01*
X101553766Y-69034012D01*
X101516511Y-69063373D01*
X101484444Y-69079989D01*
X101266503Y-69233828D01*
X101263357Y-69236766D01*
X101263356Y-69236767D01*
X101228991Y-69268862D01*
X101071539Y-69415911D01*
X100903186Y-69622845D01*
X100764578Y-69850777D01*
X100658297Y-70095459D01*
X100586324Y-70352334D01*
X100550000Y-70616616D01*
X100550000Y-70883384D01*
X100586324Y-71147666D01*
X100658297Y-71404541D01*
X100660005Y-71408473D01*
X100660006Y-71408476D01*
X100707123Y-71516950D01*
X100764578Y-71649223D01*
X100903186Y-71877155D01*
X100905900Y-71880491D01*
X100948867Y-71933305D01*
X101071539Y-72084089D01*
X101266503Y-72266172D01*
X101484444Y-72420011D01*
X101488271Y-72421994D01*
X101717474Y-72540759D01*
X101717480Y-72540762D01*
X101721302Y-72542742D01*
X101972667Y-72632077D01*
X101976869Y-72632950D01*
X101976872Y-72632951D01*
X102031574Y-72644318D01*
X102094010Y-72657292D01*
X102156637Y-72690735D01*
X102191241Y-72752728D01*
X102186836Y-72823588D01*
X102144820Y-72880817D01*
X102115580Y-72897480D01*
X102110477Y-72899542D01*
X102104572Y-72901280D01*
X101922002Y-72996726D01*
X101917201Y-73000586D01*
X101917198Y-73000588D01*
X101901099Y-73013532D01*
X101761447Y-73125815D01*
X101629024Y-73283630D01*
X101626056Y-73289028D01*
X101626053Y-73289033D01*
X101585718Y-73362403D01*
X101529776Y-73464162D01*
X101467484Y-73660532D01*
X101466798Y-73666649D01*
X101466797Y-73666653D01*
X101447365Y-73839897D01*
X101444520Y-73865262D01*
X101445036Y-73871406D01*
X101460453Y-74054997D01*
X101461759Y-74070553D01*
X101463458Y-74076478D01*
X101508904Y-74234966D01*
X101518544Y-74268586D01*
X101521359Y-74274063D01*
X101521360Y-74274066D01*
X101603716Y-74434314D01*
X101612712Y-74451818D01*
X101740677Y-74613270D01*
X101745370Y-74617264D01*
X101745371Y-74617265D01*
X101782283Y-74648679D01*
X101897564Y-74746791D01*
X102077398Y-74847297D01*
X102142437Y-74868429D01*
X102201042Y-74908502D01*
X102228680Y-74973898D01*
X102216574Y-75043855D01*
X102168568Y-75096162D01*
X102142646Y-75108027D01*
X101976868Y-75162212D01*
X101967359Y-75166209D01*
X101778466Y-75264540D01*
X101769734Y-75270039D01*
X101749677Y-75285099D01*
X101741223Y-75296427D01*
X101747968Y-75308758D01*
X102487188Y-76047978D01*
X102501132Y-76055592D01*
X102502965Y-76055461D01*
X102509580Y-76051210D01*
X103253389Y-75307401D01*
X103260410Y-75294544D01*
X103253611Y-75285213D01*
X103249554Y-75282518D01*
X103063117Y-75179599D01*
X103053705Y-75175369D01*
X102862031Y-75107493D01*
X102804495Y-75065899D01*
X102778579Y-74999801D01*
X102792513Y-74930185D01*
X102841872Y-74879154D01*
X102870206Y-74867362D01*
X102875790Y-74865803D01*
X102875799Y-74865800D01*
X102881725Y-74864145D01*
X102887214Y-74861372D01*
X102887220Y-74861370D01*
X103060116Y-74774033D01*
X103065610Y-74771258D01*
X103102038Y-74742798D01*
X103223095Y-74648218D01*
X103223096Y-74648217D01*
X103227951Y-74644424D01*
X103231979Y-74639757D01*
X103232495Y-74639266D01*
X103295619Y-74606772D01*
X103366290Y-74613564D01*
X103415200Y-74648679D01*
X103443753Y-74682110D01*
X103455368Y-74698097D01*
X103541311Y-74838341D01*
X103550278Y-74855939D01*
X103613126Y-75007668D01*
X103613221Y-75007897D01*
X103619329Y-75026696D01*
X103655023Y-75175369D01*
X103657725Y-75186625D01*
X103660818Y-75206153D01*
X103671693Y-75344333D01*
X103671031Y-75358120D01*
X103671394Y-75358120D01*
X103671394Y-75369143D01*
X103669479Y-75380000D01*
X103671393Y-75390855D01*
X103671393Y-75390856D01*
X103672586Y-75397620D01*
X103674500Y-75419500D01*
X103674500Y-75557293D01*
X103654498Y-75625414D01*
X103624741Y-75651278D01*
X103626433Y-75653089D01*
X103621700Y-75657510D01*
X102872022Y-76407188D01*
X102864408Y-76421132D01*
X102864539Y-76422965D01*
X102868790Y-76429580D01*
X103623286Y-77184076D01*
X103622925Y-77184437D01*
X103659090Y-77220604D01*
X103674500Y-77280985D01*
X103674500Y-78425836D01*
X103654498Y-78493957D01*
X103600842Y-78540450D01*
X103530568Y-78550554D01*
X103465988Y-78521060D01*
X103437248Y-78484989D01*
X103382111Y-78381290D01*
X103379218Y-78375849D01*
X103266150Y-78237214D01*
X103252906Y-78220975D01*
X103252903Y-78220972D01*
X103249011Y-78216200D01*
X103231786Y-78201950D01*
X103095025Y-78088811D01*
X103095021Y-78088809D01*
X103090275Y-78084882D01*
X102909055Y-77986897D01*
X102858183Y-77971150D01*
X102799025Y-77931899D01*
X102770477Y-77866895D01*
X102781605Y-77796776D01*
X102828876Y-77743804D01*
X102859235Y-77730099D01*
X102992255Y-77690191D01*
X103001842Y-77686433D01*
X103193098Y-77592738D01*
X103201944Y-77587465D01*
X103249247Y-77553723D01*
X103257648Y-77543023D01*
X103250660Y-77529870D01*
X102512812Y-76792022D01*
X102498868Y-76784408D01*
X102497035Y-76784539D01*
X102490420Y-76788790D01*
X101746737Y-77532473D01*
X101739977Y-77544853D01*
X101745258Y-77551907D01*
X101906756Y-77646279D01*
X101916042Y-77650729D01*
X102115001Y-77726703D01*
X102129866Y-77731022D01*
X102129289Y-77733008D01*
X102184260Y-77762082D01*
X102219110Y-77823936D01*
X102214988Y-77894813D01*
X102173201Y-77952209D01*
X102131930Y-77973228D01*
X102110489Y-77979538D01*
X102110484Y-77979540D01*
X102104572Y-77981280D01*
X101922002Y-78076726D01*
X101917201Y-78080586D01*
X101917198Y-78080588D01*
X101766254Y-78201950D01*
X101761447Y-78205815D01*
X101629024Y-78363630D01*
X101626056Y-78369028D01*
X101626053Y-78369033D01*
X101557376Y-78493957D01*
X101529776Y-78544162D01*
X101527913Y-78550035D01*
X101484573Y-78686662D01*
X101467484Y-78740532D01*
X101466798Y-78746649D01*
X101466797Y-78746653D01*
X101445207Y-78939137D01*
X101444520Y-78945262D01*
X101461759Y-79150553D01*
X101518544Y-79348586D01*
X101521359Y-79354063D01*
X101521360Y-79354066D01*
X101609897Y-79526341D01*
X101612712Y-79531818D01*
X101740677Y-79693270D01*
X101745370Y-79697264D01*
X101745371Y-79697265D01*
X101772440Y-79720302D01*
X101897564Y-79826791D01*
X102077398Y-79927297D01*
X102154220Y-79952258D01*
X102267471Y-79989056D01*
X102267475Y-79989057D01*
X102273329Y-79990959D01*
X102477894Y-80015351D01*
X102484029Y-80014879D01*
X102484031Y-80014879D01*
X102540039Y-80010569D01*
X102683300Y-79999546D01*
X102689230Y-79997890D01*
X102689232Y-79997890D01*
X102852667Y-79952258D01*
X102881725Y-79944145D01*
X102887214Y-79941372D01*
X102887220Y-79941370D01*
X103060116Y-79854033D01*
X103065610Y-79851258D01*
X103097704Y-79826184D01*
X103223101Y-79728213D01*
X103227951Y-79724424D01*
X103283097Y-79660537D01*
X103358540Y-79573134D01*
X103358540Y-79573133D01*
X103362564Y-79568472D01*
X103381263Y-79535557D01*
X103438944Y-79434019D01*
X103489983Y-79384669D01*
X103559601Y-79370746D01*
X103625695Y-79396672D01*
X103667280Y-79454215D01*
X103674500Y-79496256D01*
X103674500Y-80965836D01*
X103654498Y-81033957D01*
X103600842Y-81080450D01*
X103530568Y-81090554D01*
X103465988Y-81061060D01*
X103437248Y-81024989D01*
X103382111Y-80921290D01*
X103379218Y-80915849D01*
X103305859Y-80825902D01*
X103252906Y-80760975D01*
X103252903Y-80760972D01*
X103249011Y-80756200D01*
X103242173Y-80750543D01*
X103095025Y-80628811D01*
X103095021Y-80628809D01*
X103090275Y-80624882D01*
X102909055Y-80526897D01*
X102712254Y-80465977D01*
X102706129Y-80465333D01*
X102706128Y-80465333D01*
X102513498Y-80445087D01*
X102513496Y-80445087D01*
X102507369Y-80444443D01*
X102420529Y-80452346D01*
X102308342Y-80462555D01*
X102308339Y-80462556D01*
X102302203Y-80463114D01*
X102104572Y-80521280D01*
X101922002Y-80616726D01*
X101917201Y-80620586D01*
X101917198Y-80620588D01*
X101826235Y-80693724D01*
X101761447Y-80745815D01*
X101629024Y-80903630D01*
X101626056Y-80909028D01*
X101626053Y-80909033D01*
X101557376Y-81033957D01*
X101529776Y-81084162D01*
X101467484Y-81280532D01*
X101466798Y-81286649D01*
X101466797Y-81286653D01*
X101448066Y-81453649D01*
X101444520Y-81485262D01*
X101446650Y-81510625D01*
X101460999Y-81681497D01*
X101461759Y-81690553D01*
X101463458Y-81696478D01*
X101488517Y-81783868D01*
X101518544Y-81888586D01*
X101521359Y-81894063D01*
X101521360Y-81894066D01*
X101609897Y-82066341D01*
X101612712Y-82071818D01*
X101740677Y-82233270D01*
X101897564Y-82366791D01*
X102077398Y-82467297D01*
X102152847Y-82491812D01*
X102267471Y-82529056D01*
X102267475Y-82529057D01*
X102273329Y-82530959D01*
X102477894Y-82555351D01*
X102484029Y-82554879D01*
X102484031Y-82554879D01*
X102540039Y-82550569D01*
X102683300Y-82539546D01*
X102689230Y-82537890D01*
X102689232Y-82537890D01*
X102813104Y-82503304D01*
X102881725Y-82484145D01*
X102887214Y-82481372D01*
X102887220Y-82481370D01*
X103060116Y-82394033D01*
X103065610Y-82391258D01*
X103227951Y-82264424D01*
X103362564Y-82108472D01*
X103383387Y-82071818D01*
X103438944Y-81974019D01*
X103489983Y-81924669D01*
X103559601Y-81910746D01*
X103625695Y-81936672D01*
X103667280Y-81994215D01*
X103674500Y-82036256D01*
X103674500Y-83505836D01*
X103654498Y-83573957D01*
X103600842Y-83620450D01*
X103530568Y-83630554D01*
X103465988Y-83601060D01*
X103437248Y-83564989D01*
X103382111Y-83461290D01*
X103379218Y-83455849D01*
X103305859Y-83365902D01*
X103252906Y-83300975D01*
X103252903Y-83300972D01*
X103249011Y-83296200D01*
X103236458Y-83285815D01*
X103095025Y-83168811D01*
X103095021Y-83168809D01*
X103090275Y-83164882D01*
X102909055Y-83066897D01*
X102712254Y-83005977D01*
X102706129Y-83005333D01*
X102706128Y-83005333D01*
X102513498Y-82985087D01*
X102513496Y-82985087D01*
X102507369Y-82984443D01*
X102420529Y-82992346D01*
X102308342Y-83002555D01*
X102308339Y-83002556D01*
X102302203Y-83003114D01*
X102104572Y-83061280D01*
X101922002Y-83156726D01*
X101917201Y-83160586D01*
X101917198Y-83160588D01*
X101816176Y-83241812D01*
X101761447Y-83285815D01*
X101629024Y-83443630D01*
X101626056Y-83449028D01*
X101626053Y-83449033D01*
X101557376Y-83573957D01*
X101529776Y-83624162D01*
X101527913Y-83630035D01*
X101471503Y-83807864D01*
X101467484Y-83820532D01*
X101466798Y-83826649D01*
X101466797Y-83826653D01*
X101451758Y-83960731D01*
X101444520Y-84025262D01*
X101445036Y-84031406D01*
X101461070Y-84222343D01*
X101461759Y-84230553D01*
X101463458Y-84236478D01*
X101514474Y-84414391D01*
X101518544Y-84428586D01*
X101521359Y-84434063D01*
X101521360Y-84434066D01*
X101604327Y-84595502D01*
X101612712Y-84611818D01*
X101740677Y-84773270D01*
X101745370Y-84777264D01*
X101745371Y-84777265D01*
X101745878Y-84777696D01*
X101897564Y-84906791D01*
X102077398Y-85007297D01*
X102172238Y-85038113D01*
X102267471Y-85069056D01*
X102267475Y-85069057D01*
X102273329Y-85070959D01*
X102477894Y-85095351D01*
X102484029Y-85094879D01*
X102484031Y-85094879D01*
X102540039Y-85090569D01*
X102683300Y-85079546D01*
X102689230Y-85077890D01*
X102689232Y-85077890D01*
X102875797Y-85025800D01*
X102875796Y-85025800D01*
X102881725Y-85024145D01*
X102887214Y-85021372D01*
X102887220Y-85021370D01*
X103060116Y-84934033D01*
X103065610Y-84931258D01*
X103227951Y-84804424D01*
X103253750Y-84774536D01*
X103358540Y-84653134D01*
X103358540Y-84653133D01*
X103362564Y-84648472D01*
X103383387Y-84611818D01*
X103438944Y-84514019D01*
X103489983Y-84464669D01*
X103559601Y-84450746D01*
X103625695Y-84476672D01*
X103667280Y-84534215D01*
X103674500Y-84576256D01*
X103674500Y-86045836D01*
X103654498Y-86113957D01*
X103600842Y-86160450D01*
X103530568Y-86170554D01*
X103465988Y-86141060D01*
X103437248Y-86104989D01*
X103429506Y-86090427D01*
X103379218Y-85995849D01*
X103282003Y-85876652D01*
X103252906Y-85840975D01*
X103252903Y-85840972D01*
X103249011Y-85836200D01*
X103222424Y-85814205D01*
X103095025Y-85708811D01*
X103095021Y-85708809D01*
X103090275Y-85704882D01*
X102909055Y-85606897D01*
X102712254Y-85545977D01*
X102706129Y-85545333D01*
X102706128Y-85545333D01*
X102513498Y-85525087D01*
X102513496Y-85525087D01*
X102507369Y-85524443D01*
X102425219Y-85531919D01*
X102308342Y-85542555D01*
X102308339Y-85542556D01*
X102302203Y-85543114D01*
X102104572Y-85601280D01*
X101922002Y-85696726D01*
X101917201Y-85700586D01*
X101917198Y-85700588D01*
X101806221Y-85789816D01*
X101761447Y-85825815D01*
X101629024Y-85983630D01*
X101626056Y-85989028D01*
X101626053Y-85989033D01*
X101542476Y-86141060D01*
X101529776Y-86164162D01*
X101467484Y-86360532D01*
X101466798Y-86366649D01*
X101466797Y-86366653D01*
X101447564Y-86538125D01*
X101444520Y-86565262D01*
X101445036Y-86571406D01*
X101460721Y-86758188D01*
X101461759Y-86770553D01*
X101463458Y-86776478D01*
X101511359Y-86943528D01*
X101518544Y-86968586D01*
X101521359Y-86974063D01*
X101521360Y-86974066D01*
X101600134Y-87127344D01*
X101612712Y-87151818D01*
X101740677Y-87313270D01*
X101745370Y-87317264D01*
X101745371Y-87317265D01*
X101892660Y-87442617D01*
X101897564Y-87446791D01*
X102077398Y-87547297D01*
X102164198Y-87575500D01*
X102267471Y-87609056D01*
X102267475Y-87609057D01*
X102273329Y-87610959D01*
X102477894Y-87635351D01*
X102484029Y-87634879D01*
X102484031Y-87634879D01*
X102540039Y-87630569D01*
X102683300Y-87619546D01*
X102689230Y-87617890D01*
X102689232Y-87617890D01*
X102833097Y-87577722D01*
X102881725Y-87564145D01*
X102887214Y-87561372D01*
X102887220Y-87561370D01*
X103060116Y-87474033D01*
X103065610Y-87471258D01*
X103227951Y-87344424D01*
X103277917Y-87286538D01*
X103358540Y-87193134D01*
X103358540Y-87193133D01*
X103362564Y-87188472D01*
X103372072Y-87171736D01*
X103438944Y-87054019D01*
X103489983Y-87004669D01*
X103559601Y-86990746D01*
X103625695Y-87016672D01*
X103667280Y-87074215D01*
X103674500Y-87116256D01*
X103674500Y-88460500D01*
X103672586Y-88482379D01*
X103669479Y-88500000D01*
X103670462Y-88505574D01*
X103670854Y-88513554D01*
X103674076Y-88579142D01*
X103657441Y-88648162D01*
X103606131Y-88697231D01*
X103536437Y-88710771D01*
X103470487Y-88684482D01*
X103436976Y-88644477D01*
X103382111Y-88541290D01*
X103379218Y-88535849D01*
X103305859Y-88445902D01*
X103252906Y-88380975D01*
X103252903Y-88380972D01*
X103249011Y-88376200D01*
X103231786Y-88361950D01*
X103095025Y-88248811D01*
X103095021Y-88248809D01*
X103090275Y-88244882D01*
X102909055Y-88146897D01*
X102712254Y-88085977D01*
X102706129Y-88085333D01*
X102706128Y-88085333D01*
X102513498Y-88065087D01*
X102513496Y-88065087D01*
X102507369Y-88064443D01*
X102420529Y-88072346D01*
X102308342Y-88082555D01*
X102308339Y-88082556D01*
X102302203Y-88083114D01*
X102104572Y-88141280D01*
X101922002Y-88236726D01*
X101917201Y-88240586D01*
X101917198Y-88240588D01*
X101906971Y-88248811D01*
X101761447Y-88365815D01*
X101629024Y-88523630D01*
X101626056Y-88529028D01*
X101626053Y-88529033D01*
X101622131Y-88536168D01*
X101529776Y-88704162D01*
X101467484Y-88900532D01*
X101466798Y-88906649D01*
X101466797Y-88906653D01*
X101445207Y-89099137D01*
X101444520Y-89105262D01*
X101445036Y-89111406D01*
X101459590Y-89284718D01*
X101461759Y-89310553D01*
X101463458Y-89316478D01*
X101508180Y-89472441D01*
X101518544Y-89508586D01*
X101521359Y-89514063D01*
X101521360Y-89514066D01*
X101542247Y-89554707D01*
X101612712Y-89691818D01*
X101740677Y-89853270D01*
X101897564Y-89986791D01*
X102077398Y-90087297D01*
X102172238Y-90118113D01*
X102267471Y-90149056D01*
X102267475Y-90149057D01*
X102273329Y-90150959D01*
X102477894Y-90175351D01*
X102484029Y-90174879D01*
X102484031Y-90174879D01*
X102540039Y-90170569D01*
X102683300Y-90159546D01*
X102689230Y-90157890D01*
X102689232Y-90157890D01*
X102875797Y-90105800D01*
X102875796Y-90105800D01*
X102881725Y-90104145D01*
X102887214Y-90101372D01*
X102887220Y-90101370D01*
X103060116Y-90014033D01*
X103065610Y-90011258D01*
X103227951Y-89884424D01*
X103238048Y-89872727D01*
X103358540Y-89733134D01*
X103358540Y-89733133D01*
X103362564Y-89728472D01*
X103383387Y-89691818D01*
X103461276Y-89554707D01*
X103464323Y-89549344D01*
X103529351Y-89353863D01*
X103530124Y-89347744D01*
X103530358Y-89346714D01*
X103564956Y-89284718D01*
X103627579Y-89251268D01*
X103698345Y-89256985D01*
X103754786Y-89300053D01*
X103775451Y-89344014D01*
X103824334Y-89539165D01*
X103825371Y-89542062D01*
X103825373Y-89542070D01*
X103827976Y-89549344D01*
X103942685Y-89869935D01*
X103944001Y-89872718D01*
X103944005Y-89872727D01*
X104075944Y-90151688D01*
X104092888Y-90187512D01*
X104106555Y-90210314D01*
X104271906Y-90486187D01*
X104271912Y-90486196D01*
X104273495Y-90488837D01*
X104275338Y-90491322D01*
X104388007Y-90643238D01*
X104482768Y-90771009D01*
X104718691Y-91031309D01*
X104978991Y-91267232D01*
X104981474Y-91269073D01*
X104981477Y-91269076D01*
X105164216Y-91404604D01*
X105261163Y-91476505D01*
X105263804Y-91478088D01*
X105263813Y-91478094D01*
X105539686Y-91643445D01*
X105562488Y-91657112D01*
X105565267Y-91658426D01*
X105565270Y-91658428D01*
X105877273Y-91805995D01*
X105877282Y-91805999D01*
X105880065Y-91807315D01*
X106058450Y-91871142D01*
X106207930Y-91924627D01*
X106207938Y-91924629D01*
X106210835Y-91925666D01*
X106528103Y-92005138D01*
X106589320Y-92041092D01*
X106621382Y-92104436D01*
X106614108Y-92175059D01*
X106586658Y-92216379D01*
X106556261Y-92246829D01*
X106547249Y-92258240D01*
X106462184Y-92396243D01*
X106456037Y-92409424D01*
X106404862Y-92563710D01*
X106401995Y-92577086D01*
X106392328Y-92671438D01*
X106392000Y-92677854D01*
X106392000Y-93127885D01*
X106396475Y-93143124D01*
X106397865Y-93144329D01*
X106405548Y-93146000D01*
X107878000Y-93146000D01*
X107946121Y-93166002D01*
X107992614Y-93219658D01*
X108004000Y-93272000D01*
X108004000Y-94814884D01*
X108008475Y-94830123D01*
X108009865Y-94831328D01*
X108017548Y-94832999D01*
X108397095Y-94832999D01*
X108403614Y-94832662D01*
X108499206Y-94822743D01*
X108512600Y-94819851D01*
X108661542Y-94770161D01*
X117244393Y-94770161D01*
X117253687Y-94782175D01*
X117294088Y-94810464D01*
X117303584Y-94815947D01*
X117493113Y-94904326D01*
X117503405Y-94908072D01*
X117705401Y-94962196D01*
X117716196Y-94964099D01*
X117924525Y-94982326D01*
X117935475Y-94982326D01*
X118143804Y-94964099D01*
X118154599Y-94962196D01*
X118356595Y-94908072D01*
X118366887Y-94904326D01*
X118556416Y-94815947D01*
X118565912Y-94810464D01*
X118607148Y-94781590D01*
X118615523Y-94771112D01*
X118608457Y-94757668D01*
X117942811Y-94092021D01*
X117928868Y-94084408D01*
X117927034Y-94084539D01*
X117920420Y-94088790D01*
X117250820Y-94758391D01*
X117244393Y-94770161D01*
X108661542Y-94770161D01*
X108666784Y-94768412D01*
X108679962Y-94762239D01*
X108817807Y-94676937D01*
X108829208Y-94667901D01*
X108943739Y-94553171D01*
X108952751Y-94541760D01*
X109037816Y-94403757D01*
X109043963Y-94390576D01*
X109095138Y-94236290D01*
X109098005Y-94222914D01*
X109107672Y-94128562D01*
X109108000Y-94122146D01*
X109108000Y-94070289D01*
X109128002Y-94002168D01*
X109181658Y-93955675D01*
X109251932Y-93945571D01*
X109316512Y-93975065D01*
X109345251Y-94011136D01*
X109367884Y-94053702D01*
X109367888Y-94053708D01*
X109370782Y-94059151D01*
X109427435Y-94128614D01*
X109497094Y-94214025D01*
X109497097Y-94214028D01*
X109500989Y-94218800D01*
X109505736Y-94222727D01*
X109505738Y-94222729D01*
X109654975Y-94346189D01*
X109654979Y-94346191D01*
X109659725Y-94350118D01*
X109840945Y-94448103D01*
X110037746Y-94509023D01*
X110043871Y-94509667D01*
X110043872Y-94509667D01*
X110236502Y-94529913D01*
X110236504Y-94529913D01*
X110242631Y-94530557D01*
X110329471Y-94522654D01*
X110441658Y-94512445D01*
X110441661Y-94512444D01*
X110447797Y-94511886D01*
X110645428Y-94453720D01*
X110827998Y-94358274D01*
X110832799Y-94354414D01*
X110832802Y-94354412D01*
X110983746Y-94233050D01*
X110983747Y-94233050D01*
X110988553Y-94229185D01*
X111120976Y-94071370D01*
X111123944Y-94065972D01*
X111123947Y-94065967D01*
X111217257Y-93896235D01*
X111220224Y-93890838D01*
X111282516Y-93694468D01*
X111283474Y-93685932D01*
X111300107Y-93537636D01*
X111300500Y-93534136D01*
X111300500Y-93273159D01*
X111285480Y-93119970D01*
X111225935Y-92922749D01*
X111129218Y-92740849D01*
X111038433Y-92629536D01*
X111002906Y-92585975D01*
X111002903Y-92585972D01*
X110999011Y-92581200D01*
X110994038Y-92577086D01*
X110845025Y-92453811D01*
X110845021Y-92453809D01*
X110840275Y-92449882D01*
X110659055Y-92351897D01*
X110562037Y-92321865D01*
X110502877Y-92282614D01*
X110474330Y-92217609D01*
X110485459Y-92147490D01*
X110532730Y-92094519D01*
X110599296Y-92075500D01*
X111060500Y-92075500D01*
X111082380Y-92077414D01*
X111089144Y-92078607D01*
X111089145Y-92078607D01*
X111100000Y-92080521D01*
X111110857Y-92078606D01*
X111121880Y-92078606D01*
X111121880Y-92078969D01*
X111135667Y-92078307D01*
X111297311Y-92091029D01*
X111316839Y-92094122D01*
X111368860Y-92106611D01*
X111499657Y-92138013D01*
X111518451Y-92144119D01*
X111692153Y-92216069D01*
X111709758Y-92225039D01*
X111870070Y-92323278D01*
X111886056Y-92334892D01*
X111979442Y-92414652D01*
X112018249Y-92474099D01*
X112018757Y-92545094D01*
X111994133Y-92591449D01*
X111879024Y-92728630D01*
X111876056Y-92734028D01*
X111876053Y-92734033D01*
X111869315Y-92746290D01*
X111779776Y-92909162D01*
X111717484Y-93105532D01*
X111716798Y-93111649D01*
X111716797Y-93111653D01*
X111713447Y-93141525D01*
X111699500Y-93265864D01*
X111699500Y-93526841D01*
X111714520Y-93680030D01*
X111774065Y-93877251D01*
X111870782Y-94059151D01*
X111927435Y-94128614D01*
X111997094Y-94214025D01*
X111997097Y-94214028D01*
X112000989Y-94218800D01*
X112005736Y-94222727D01*
X112005738Y-94222729D01*
X112154975Y-94346189D01*
X112154979Y-94346191D01*
X112159725Y-94350118D01*
X112340945Y-94448103D01*
X112537746Y-94509023D01*
X112543871Y-94509667D01*
X112543872Y-94509667D01*
X112736502Y-94529913D01*
X112736504Y-94529913D01*
X112742631Y-94530557D01*
X112829471Y-94522654D01*
X112941658Y-94512445D01*
X112941661Y-94512444D01*
X112947797Y-94511886D01*
X113145428Y-94453720D01*
X113327998Y-94358274D01*
X113332799Y-94354414D01*
X113332802Y-94354412D01*
X113483746Y-94233050D01*
X113483747Y-94233050D01*
X113488553Y-94229185D01*
X113620976Y-94071370D01*
X113623944Y-94065972D01*
X113623947Y-94065967D01*
X113717257Y-93896235D01*
X113720224Y-93890838D01*
X113772680Y-93725475D01*
X116667674Y-93725475D01*
X116685901Y-93933804D01*
X116687804Y-93944599D01*
X116741928Y-94146595D01*
X116745674Y-94156887D01*
X116834054Y-94346417D01*
X116839534Y-94355907D01*
X116868411Y-94397149D01*
X116878887Y-94405523D01*
X116892334Y-94398455D01*
X117557979Y-93732811D01*
X117565592Y-93718868D01*
X117565461Y-93717034D01*
X117561210Y-93710420D01*
X116891609Y-93040820D01*
X116879839Y-93034393D01*
X116867824Y-93043689D01*
X116839534Y-93084093D01*
X116834054Y-93093583D01*
X116745674Y-93283113D01*
X116741928Y-93293405D01*
X116687804Y-93495401D01*
X116685901Y-93506196D01*
X116667674Y-93714525D01*
X116667674Y-93725475D01*
X113772680Y-93725475D01*
X113782516Y-93694468D01*
X113783474Y-93685932D01*
X113800107Y-93537636D01*
X113800500Y-93534136D01*
X113800500Y-93273159D01*
X113785480Y-93119970D01*
X113725935Y-92922749D01*
X113629218Y-92740849D01*
X113570527Y-92668887D01*
X117244477Y-92668887D01*
X117251545Y-92682334D01*
X117917189Y-93347979D01*
X117931132Y-93355592D01*
X117932966Y-93355461D01*
X117939580Y-93351210D01*
X118609180Y-92681609D01*
X118615607Y-92669839D01*
X118606313Y-92657825D01*
X118565912Y-92629536D01*
X118556416Y-92624053D01*
X118366887Y-92535674D01*
X118356595Y-92531928D01*
X118154599Y-92477804D01*
X118143804Y-92475901D01*
X117935475Y-92457674D01*
X117924525Y-92457674D01*
X117716196Y-92475901D01*
X117705401Y-92477804D01*
X117503405Y-92531928D01*
X117493113Y-92535674D01*
X117303583Y-92624054D01*
X117294093Y-92629534D01*
X117252851Y-92658411D01*
X117244477Y-92668887D01*
X113570527Y-92668887D01*
X113538433Y-92629536D01*
X113502906Y-92585975D01*
X113502903Y-92585972D01*
X113499011Y-92581200D01*
X113494038Y-92577086D01*
X113345025Y-92453811D01*
X113345021Y-92453809D01*
X113340275Y-92449882D01*
X113159055Y-92351897D01*
X112962254Y-92290977D01*
X112956129Y-92290333D01*
X112956128Y-92290333D01*
X112882684Y-92282614D01*
X112776480Y-92271452D01*
X112710824Y-92244439D01*
X112684887Y-92216145D01*
X112670632Y-92194811D01*
X112499887Y-92000113D01*
X112305189Y-91829368D01*
X112089869Y-91685496D01*
X112086170Y-91683672D01*
X112086165Y-91683669D01*
X111861308Y-91572782D01*
X111861306Y-91572781D01*
X111857613Y-91570960D01*
X111853713Y-91569636D01*
X111616304Y-91489046D01*
X111616300Y-91489045D01*
X111612394Y-91487719D01*
X111608350Y-91486915D01*
X111608344Y-91486913D01*
X111362451Y-91438002D01*
X111362448Y-91438002D01*
X111358408Y-91437198D01*
X111354297Y-91436929D01*
X111354293Y-91436928D01*
X111115801Y-91421297D01*
X111107059Y-91420724D01*
X111100000Y-91419479D01*
X111089145Y-91421393D01*
X111089144Y-91421393D01*
X111082380Y-91422586D01*
X111060500Y-91424500D01*
X107289500Y-91424500D01*
X107267620Y-91422586D01*
X107250000Y-91419479D01*
X107239145Y-91421393D01*
X107231973Y-91421393D01*
X107213835Y-91422469D01*
X106929621Y-91406508D01*
X106915588Y-91404927D01*
X106760899Y-91378644D01*
X106606214Y-91352362D01*
X106592439Y-91349218D01*
X106489316Y-91319509D01*
X106290888Y-91262343D01*
X106277574Y-91257684D01*
X105987634Y-91137587D01*
X105974910Y-91131458D01*
X105700273Y-90979672D01*
X105688308Y-90972155D01*
X105445679Y-90800000D01*
X119194318Y-90800000D01*
X119214956Y-90956762D01*
X119275464Y-91102841D01*
X119371718Y-91228282D01*
X119497159Y-91324536D01*
X119643238Y-91385044D01*
X119800000Y-91405682D01*
X119808188Y-91404604D01*
X119948574Y-91386122D01*
X119956762Y-91385044D01*
X120102841Y-91324536D01*
X120165395Y-91276537D01*
X120231616Y-91250937D01*
X120242099Y-91250500D01*
X124157901Y-91250500D01*
X124226022Y-91270502D01*
X124234605Y-91276537D01*
X124297159Y-91324536D01*
X124443238Y-91385044D01*
X124600000Y-91405682D01*
X124608188Y-91404604D01*
X124748574Y-91386122D01*
X124756762Y-91385044D01*
X124902841Y-91324536D01*
X125028282Y-91228282D01*
X125124536Y-91102841D01*
X125185044Y-90956762D01*
X125205682Y-90800000D01*
X125185044Y-90643238D01*
X125124536Y-90497159D01*
X125028282Y-90371718D01*
X124902841Y-90275464D01*
X124756762Y-90214956D01*
X124600000Y-90194318D01*
X124443238Y-90214956D01*
X124297159Y-90275464D01*
X124290608Y-90280491D01*
X124234605Y-90323463D01*
X124168384Y-90349063D01*
X124157901Y-90349500D01*
X120242099Y-90349500D01*
X120173978Y-90329498D01*
X120165395Y-90323463D01*
X120109392Y-90280491D01*
X120102841Y-90275464D01*
X119956762Y-90214956D01*
X119800000Y-90194318D01*
X119643238Y-90214956D01*
X119497159Y-90275464D01*
X119371718Y-90371718D01*
X119275464Y-90497159D01*
X119214956Y-90643238D01*
X119194318Y-90800000D01*
X105445679Y-90800000D01*
X105432373Y-90790559D01*
X105421327Y-90781749D01*
X105187343Y-90572649D01*
X105177351Y-90562657D01*
X104968251Y-90328673D01*
X104959441Y-90317627D01*
X104777845Y-90061692D01*
X104770328Y-90049727D01*
X104618542Y-89775090D01*
X104612411Y-89762361D01*
X104598374Y-89728472D01*
X104492316Y-89472426D01*
X104487657Y-89459112D01*
X104400782Y-89157561D01*
X104397638Y-89143786D01*
X104345074Y-88834416D01*
X104343492Y-88820375D01*
X104337337Y-88710771D01*
X104327531Y-88536165D01*
X104328607Y-88518027D01*
X104328607Y-88510855D01*
X104330521Y-88500000D01*
X104327414Y-88482379D01*
X104325500Y-88460500D01*
X104325500Y-83250000D01*
X116169479Y-83250000D01*
X116171144Y-83259444D01*
X116171393Y-83262608D01*
X116171393Y-83263701D01*
X116171618Y-83265469D01*
X116186770Y-83457995D01*
X116187924Y-83462802D01*
X116187925Y-83462808D01*
X116209981Y-83554676D01*
X116235476Y-83660869D01*
X116237369Y-83665440D01*
X116237370Y-83665442D01*
X116307591Y-83834970D01*
X116315318Y-83853625D01*
X116424331Y-84031519D01*
X116427542Y-84035279D01*
X116427546Y-84035284D01*
X116477044Y-84093238D01*
X116559831Y-84190169D01*
X116563593Y-84193382D01*
X116714716Y-84322454D01*
X116714721Y-84322458D01*
X116718481Y-84325669D01*
X116896375Y-84434682D01*
X116900945Y-84436575D01*
X116900949Y-84436577D01*
X117084558Y-84512630D01*
X117089131Y-84514524D01*
X117160459Y-84531649D01*
X117287192Y-84562075D01*
X117287198Y-84562076D01*
X117292005Y-84563230D01*
X117417988Y-84573145D01*
X117484531Y-84578382D01*
X117486299Y-84578607D01*
X117487392Y-84578607D01*
X117490556Y-84578856D01*
X117500000Y-84580521D01*
X117517621Y-84577414D01*
X117539500Y-84575500D01*
X118430714Y-84575500D01*
X118498835Y-84595502D01*
X118530677Y-84624796D01*
X118571718Y-84678282D01*
X118697159Y-84774536D01*
X118843238Y-84835044D01*
X119000000Y-84855682D01*
X119008188Y-84854604D01*
X119148574Y-84836122D01*
X119156762Y-84835044D01*
X119302841Y-84774536D01*
X119428282Y-84678282D01*
X119524536Y-84552841D01*
X119585044Y-84406762D01*
X119595380Y-84328253D01*
X119600477Y-84289537D01*
X119629199Y-84224610D01*
X119688465Y-84185518D01*
X119759456Y-84184673D01*
X119819635Y-84222343D01*
X119848052Y-84277135D01*
X119882280Y-84422662D01*
X119885180Y-84434994D01*
X119938977Y-84595502D01*
X120010270Y-84808213D01*
X120012283Y-84814220D01*
X120173836Y-85180101D01*
X120368458Y-85529514D01*
X120594490Y-85859480D01*
X120596339Y-85861706D01*
X120596346Y-85861716D01*
X120847494Y-86164162D01*
X120850003Y-86167183D01*
X121132817Y-86449997D01*
X121135050Y-86451851D01*
X121135053Y-86451854D01*
X121438284Y-86703654D01*
X121438294Y-86703661D01*
X121440520Y-86705510D01*
X121770486Y-86931542D01*
X121773039Y-86932964D01*
X122102111Y-87116256D01*
X122119899Y-87126164D01*
X122485780Y-87287717D01*
X122488543Y-87288643D01*
X122488548Y-87288645D01*
X122654972Y-87344424D01*
X122865006Y-87414820D01*
X122867839Y-87415486D01*
X122867845Y-87415488D01*
X123013724Y-87449798D01*
X123254343Y-87506391D01*
X123257228Y-87506793D01*
X123257231Y-87506794D01*
X123466920Y-87536045D01*
X123531624Y-87565267D01*
X123549475Y-87584133D01*
X123588414Y-87634879D01*
X123621718Y-87678282D01*
X123747159Y-87774536D01*
X123893238Y-87835044D01*
X124050000Y-87855682D01*
X124058188Y-87854604D01*
X124198574Y-87836122D01*
X124206762Y-87835044D01*
X124352841Y-87774536D01*
X124478282Y-87678282D01*
X124519323Y-87624796D01*
X124576661Y-87582929D01*
X124619286Y-87575500D01*
X128960501Y-87575500D01*
X128982381Y-87577414D01*
X128989145Y-87578607D01*
X128989146Y-87578607D01*
X129000001Y-87580521D01*
X129010860Y-87578606D01*
X129011545Y-87578606D01*
X129017989Y-87577722D01*
X129054296Y-87574146D01*
X129161827Y-87563555D01*
X129317434Y-87516352D01*
X129322889Y-87513436D01*
X129322892Y-87513435D01*
X129455383Y-87442617D01*
X129455384Y-87442616D01*
X129460842Y-87439699D01*
X129492287Y-87413893D01*
X129547483Y-87368595D01*
X129610969Y-87341073D01*
X129648574Y-87336122D01*
X129656762Y-87335044D01*
X129802841Y-87274536D01*
X129892082Y-87206059D01*
X129921736Y-87183305D01*
X129928282Y-87178282D01*
X129948589Y-87151818D01*
X130019509Y-87059392D01*
X130024536Y-87052841D01*
X130085044Y-86906762D01*
X130105682Y-86750000D01*
X130091483Y-86642148D01*
X130086122Y-86601426D01*
X130085044Y-86593238D01*
X130024536Y-86447159D01*
X129928282Y-86321718D01*
X129802841Y-86225464D01*
X129656762Y-86164956D01*
X129622536Y-86160450D01*
X129508188Y-86145396D01*
X129500000Y-86144318D01*
X129491812Y-86145396D01*
X129377465Y-86160450D01*
X129343238Y-86164956D01*
X129197159Y-86225464D01*
X129071718Y-86321718D01*
X128975464Y-86447159D01*
X128914956Y-86593238D01*
X128913878Y-86601426D01*
X128908517Y-86642148D01*
X128894318Y-86750000D01*
X128895396Y-86758188D01*
X128898538Y-86782054D01*
X128887599Y-86852202D01*
X128840471Y-86905301D01*
X128773616Y-86924500D01*
X124619286Y-86924500D01*
X124551165Y-86904498D01*
X124519323Y-86875204D01*
X124516941Y-86872099D01*
X124478282Y-86821718D01*
X124352841Y-86725464D01*
X124206762Y-86664956D01*
X124050000Y-86644318D01*
X123893238Y-86664956D01*
X123747159Y-86725464D01*
X123621718Y-86821718D01*
X123616695Y-86828264D01*
X123616694Y-86828265D01*
X123615183Y-86830234D01*
X123613486Y-86831473D01*
X123610850Y-86834109D01*
X123610439Y-86833698D01*
X123557843Y-86872099D01*
X123496736Y-86878162D01*
X123339269Y-86854805D01*
X123327144Y-86852394D01*
X123204680Y-86821718D01*
X122989355Y-86767781D01*
X122977523Y-86764192D01*
X122649658Y-86646880D01*
X122638234Y-86642148D01*
X122418294Y-86538125D01*
X122323443Y-86493264D01*
X122312542Y-86487437D01*
X122258073Y-86454789D01*
X122111027Y-86366653D01*
X122013863Y-86308415D01*
X122003582Y-86301545D01*
X121723894Y-86094114D01*
X121714336Y-86086270D01*
X121587747Y-85971537D01*
X132620004Y-85971537D01*
X132638721Y-86084611D01*
X132694983Y-86184464D01*
X132703351Y-86191636D01*
X132703352Y-86191638D01*
X132773634Y-86251880D01*
X132773636Y-86251881D01*
X132782003Y-86259053D01*
X132792319Y-86262931D01*
X132792321Y-86262932D01*
X132878966Y-86295502D01*
X132878968Y-86295502D01*
X132889286Y-86299381D01*
X132900307Y-86299497D01*
X132900309Y-86299497D01*
X132949212Y-86300010D01*
X133003892Y-86300584D01*
X133014291Y-86296922D01*
X133014292Y-86296922D01*
X133074485Y-86275726D01*
X133111999Y-86262516D01*
X133178252Y-86208097D01*
X134203335Y-85012168D01*
X134262853Y-84973464D01*
X134333848Y-84973083D01*
X134393780Y-85011145D01*
X134423619Y-85075567D01*
X134425000Y-85094168D01*
X134425000Y-85935539D01*
X134423086Y-85957419D01*
X134419986Y-85975000D01*
X134420848Y-85979889D01*
X134438777Y-86173377D01*
X134440369Y-86178974D01*
X134440370Y-86178977D01*
X134459752Y-86247096D01*
X134493298Y-86364998D01*
X134582101Y-86543339D01*
X134702162Y-86702325D01*
X134849393Y-86836543D01*
X135018779Y-86941423D01*
X135024210Y-86943527D01*
X135024212Y-86943528D01*
X135103040Y-86974066D01*
X135204552Y-87013392D01*
X135400387Y-87050000D01*
X135599613Y-87050000D01*
X135795448Y-87013392D01*
X135896960Y-86974066D01*
X135975788Y-86943528D01*
X135975790Y-86943527D01*
X135981221Y-86941423D01*
X136150607Y-86836543D01*
X136297838Y-86702325D01*
X136417899Y-86543339D01*
X136506702Y-86364998D01*
X136540248Y-86247096D01*
X136559630Y-86178977D01*
X136559631Y-86178974D01*
X136561223Y-86173377D01*
X136579152Y-85979889D01*
X136580014Y-85975000D01*
X136560112Y-85862129D01*
X136539146Y-85825815D01*
X136508316Y-85772416D01*
X136508315Y-85772415D01*
X136502805Y-85762871D01*
X136415007Y-85689199D01*
X136404656Y-85685431D01*
X136404653Y-85685430D01*
X136317662Y-85653769D01*
X136317661Y-85653769D01*
X136307306Y-85650000D01*
X136192694Y-85650000D01*
X136182339Y-85653769D01*
X136182338Y-85653769D01*
X136084993Y-85689199D01*
X136083524Y-85685162D01*
X136035709Y-85696754D01*
X135968621Y-85673523D01*
X135941761Y-85647601D01*
X135910159Y-85606416D01*
X135910155Y-85606412D01*
X135905133Y-85599867D01*
X135792330Y-85513311D01*
X135660968Y-85458899D01*
X135520000Y-85440340D01*
X135379032Y-85458899D01*
X135371403Y-85462059D01*
X135249218Y-85512670D01*
X135178629Y-85520259D01*
X135115142Y-85488480D01*
X135078914Y-85427422D01*
X135075000Y-85396261D01*
X135075000Y-84326000D01*
X135095002Y-84257879D01*
X135148658Y-84211386D01*
X135201000Y-84200000D01*
X136017908Y-84200000D01*
X136086029Y-84220002D01*
X136120437Y-84252763D01*
X137502065Y-86187042D01*
X137563256Y-86247096D01*
X137597152Y-86262516D01*
X137657550Y-86289993D01*
X137657552Y-86289993D01*
X137667581Y-86294556D01*
X137781847Y-86303474D01*
X137792467Y-86300521D01*
X137792469Y-86300521D01*
X137881647Y-86275726D01*
X137881648Y-86275726D01*
X137892271Y-86272772D01*
X137906047Y-86262932D01*
X137976562Y-86212564D01*
X137976563Y-86212563D01*
X137985534Y-86206155D01*
X138050390Y-86111657D01*
X138054915Y-86094114D01*
X138076261Y-86011347D01*
X138076261Y-86011346D01*
X138079013Y-86000676D01*
X138067953Y-85886598D01*
X138061449Y-85872985D01*
X138033365Y-85814205D01*
X138033363Y-85814202D01*
X138030991Y-85809237D01*
X138017119Y-85789816D01*
X136545816Y-83729991D01*
X136539520Y-83720210D01*
X136535801Y-83709993D01*
X136510249Y-83679541D01*
X136504241Y-83671786D01*
X135027147Y-81603854D01*
X135020559Y-81593620D01*
X135008320Y-81572422D01*
X135008318Y-81572420D01*
X135002805Y-81562871D01*
X134972363Y-81537327D01*
X134965110Y-81530743D01*
X134944611Y-81510625D01*
X134944612Y-81510625D01*
X134936744Y-81502904D01*
X134926849Y-81498402D01*
X134925188Y-81497140D01*
X134923335Y-81496186D01*
X134915007Y-81489199D01*
X134877663Y-81475607D01*
X134868585Y-81471897D01*
X134832418Y-81455444D01*
X134821581Y-81454598D01*
X134819588Y-81453980D01*
X134817521Y-81453718D01*
X134807306Y-81450000D01*
X134767574Y-81450000D01*
X134757770Y-81449618D01*
X134756758Y-81449539D01*
X134718153Y-81446526D01*
X134707678Y-81449438D01*
X134705598Y-81449539D01*
X134703563Y-81450000D01*
X134692694Y-81450000D01*
X134655345Y-81463593D01*
X134646021Y-81466581D01*
X134618348Y-81474275D01*
X134618346Y-81474276D01*
X134607729Y-81477228D01*
X134598885Y-81483545D01*
X134596961Y-81484353D01*
X134595208Y-81485481D01*
X134584993Y-81489199D01*
X134559459Y-81510625D01*
X134554554Y-81514741D01*
X134546796Y-81520752D01*
X134523435Y-81537438D01*
X134523433Y-81537440D01*
X134514466Y-81543845D01*
X134508315Y-81552807D01*
X134506784Y-81554223D01*
X134505522Y-81555883D01*
X134497195Y-81562871D01*
X134477319Y-81597298D01*
X134472098Y-81605578D01*
X134449610Y-81638343D01*
X134446896Y-81648868D01*
X134445943Y-81650719D01*
X134445325Y-81652712D01*
X134439888Y-81662129D01*
X134437973Y-81672988D01*
X134437973Y-81672989D01*
X134432986Y-81701273D01*
X134430907Y-81710860D01*
X134420987Y-81749323D01*
X134422051Y-81760296D01*
X134424412Y-81784650D01*
X134425000Y-81796809D01*
X134425000Y-82699713D01*
X134404998Y-82767834D01*
X134351342Y-82814327D01*
X134281068Y-82824431D01*
X134216488Y-82794937D01*
X134205345Y-82784003D01*
X133999559Y-82555351D01*
X133205433Y-81672989D01*
X133176230Y-81640541D01*
X133176229Y-81640540D01*
X133172548Y-81636450D01*
X133104998Y-81583650D01*
X133094516Y-81580242D01*
X133094515Y-81580241D01*
X133052446Y-81566562D01*
X132996002Y-81548208D01*
X132984984Y-81548590D01*
X132984982Y-81548590D01*
X132930034Y-81550497D01*
X132881458Y-81552182D01*
X132871237Y-81556309D01*
X132786711Y-81590439D01*
X132775182Y-81595094D01*
X132689991Y-81671765D01*
X132684815Y-81681495D01*
X132684813Y-81681497D01*
X132654409Y-81738647D01*
X132636160Y-81772950D01*
X132634623Y-81783867D01*
X132634623Y-81783868D01*
X132621721Y-81875530D01*
X132620185Y-81886443D01*
X132643989Y-81998558D01*
X132689407Y-82071277D01*
X134243431Y-83797972D01*
X134274133Y-83861985D01*
X134265353Y-83932437D01*
X134245441Y-83964260D01*
X132703775Y-85762871D01*
X132684736Y-85785083D01*
X132681937Y-85789816D01*
X132650082Y-85843677D01*
X132641090Y-85858880D01*
X132620004Y-85971537D01*
X121587747Y-85971537D01*
X121456323Y-85852421D01*
X121447579Y-85843677D01*
X121213730Y-85585664D01*
X121205886Y-85576106D01*
X120998455Y-85296418D01*
X120991585Y-85286137D01*
X120861471Y-85069056D01*
X120812561Y-84987453D01*
X120806734Y-84976553D01*
X120775162Y-84909798D01*
X120712682Y-84777696D01*
X120657852Y-84661766D01*
X120653120Y-84650342D01*
X120535808Y-84322477D01*
X120532219Y-84310645D01*
X120447607Y-83972860D01*
X120445195Y-83960731D01*
X120421838Y-83803264D01*
X120431628Y-83732946D01*
X120466137Y-83689396D01*
X120465891Y-83689150D01*
X120468018Y-83687023D01*
X120469766Y-83684817D01*
X120471735Y-83683306D01*
X120471736Y-83683305D01*
X120478282Y-83678282D01*
X120488135Y-83665442D01*
X120558333Y-83573957D01*
X120574536Y-83552841D01*
X120635044Y-83406762D01*
X120655682Y-83250000D01*
X120635044Y-83093238D01*
X120574536Y-82947159D01*
X120478282Y-82821718D01*
X120352841Y-82725464D01*
X120206762Y-82664956D01*
X120050000Y-82644318D01*
X119893238Y-82664956D01*
X119747159Y-82725464D01*
X119621718Y-82821718D01*
X119525464Y-82947159D01*
X119464956Y-83093238D01*
X119444318Y-83250000D01*
X119464956Y-83406762D01*
X119525464Y-83552841D01*
X119541667Y-83573957D01*
X119583719Y-83628761D01*
X119603468Y-83679847D01*
X119642948Y-83694573D01*
X119715867Y-83750526D01*
X119757734Y-83807864D01*
X119763955Y-83833079D01*
X119769279Y-83871239D01*
X119773242Y-83899650D01*
X119762843Y-83969881D01*
X119716126Y-84023341D01*
X119647922Y-84043058D01*
X119579886Y-84022771D01*
X119532042Y-83965279D01*
X119527697Y-83954791D01*
X119524536Y-83947159D01*
X119466281Y-83871239D01*
X119446532Y-83820153D01*
X119407052Y-83805427D01*
X119309397Y-83730494D01*
X119309392Y-83730491D01*
X119302841Y-83725464D01*
X119156762Y-83664956D01*
X119107914Y-83658525D01*
X119008188Y-83645396D01*
X119000000Y-83644318D01*
X118991812Y-83645396D01*
X118892087Y-83658525D01*
X118843238Y-83664956D01*
X118697159Y-83725464D01*
X118571718Y-83821718D01*
X118566695Y-83828264D01*
X118530677Y-83875204D01*
X118473339Y-83917071D01*
X118430714Y-83924500D01*
X117539500Y-83924500D01*
X117517620Y-83922586D01*
X117500000Y-83919479D01*
X117489143Y-83921393D01*
X117479505Y-83921393D01*
X117465398Y-83920601D01*
X117364014Y-83909178D01*
X117336506Y-83902899D01*
X117220745Y-83862393D01*
X117195324Y-83850151D01*
X117193574Y-83849051D01*
X117091475Y-83784898D01*
X117069416Y-83767306D01*
X116982694Y-83680584D01*
X116965102Y-83658525D01*
X116947527Y-83630554D01*
X116899848Y-83554674D01*
X116887607Y-83529255D01*
X116879413Y-83505836D01*
X116847101Y-83413494D01*
X116840822Y-83385986D01*
X116829399Y-83284602D01*
X116828607Y-83270495D01*
X116828607Y-83260857D01*
X116830521Y-83250000D01*
X116827414Y-83232379D01*
X116825500Y-83210500D01*
X116825500Y-75978589D01*
X116845502Y-75910468D01*
X116899158Y-75863975D01*
X116969432Y-75853871D01*
X117034012Y-75883365D01*
X117051463Y-75901885D01*
X117071718Y-75928282D01*
X117078264Y-75933305D01*
X117125204Y-75969323D01*
X117167071Y-76026661D01*
X117174500Y-76069286D01*
X117174500Y-79460501D01*
X117172586Y-79482379D01*
X117169479Y-79500001D01*
X117171156Y-79509514D01*
X117171392Y-79512814D01*
X117171392Y-79514158D01*
X117171620Y-79516001D01*
X117186554Y-79724790D01*
X117187510Y-79729184D01*
X117231021Y-79929201D01*
X117234458Y-79945003D01*
X117236025Y-79949205D01*
X117236027Y-79949211D01*
X117290127Y-80094257D01*
X117313215Y-80156158D01*
X117315368Y-80160101D01*
X117315369Y-80160103D01*
X117337378Y-80200409D01*
X117421221Y-80353955D01*
X117556276Y-80534368D01*
X117715632Y-80693724D01*
X117896045Y-80828779D01*
X117900000Y-80830938D01*
X117899999Y-80830938D01*
X118033124Y-80903630D01*
X118093842Y-80936785D01*
X118098045Y-80938353D01*
X118098048Y-80938354D01*
X118300789Y-81013973D01*
X118300795Y-81013975D01*
X118304997Y-81015542D01*
X118309383Y-81016496D01*
X118309386Y-81016497D01*
X118389650Y-81033957D01*
X118525210Y-81063446D01*
X118733999Y-81078380D01*
X118735842Y-81078608D01*
X118737186Y-81078608D01*
X118740486Y-81078844D01*
X118749999Y-81080521D01*
X118767620Y-81077414D01*
X118789499Y-81075500D01*
X122180714Y-81075500D01*
X122248835Y-81095502D01*
X122280677Y-81124796D01*
X122321718Y-81178282D01*
X122447159Y-81274536D01*
X122593238Y-81335044D01*
X122750000Y-81355682D01*
X122758188Y-81354604D01*
X122898574Y-81336122D01*
X122906762Y-81335044D01*
X123052841Y-81274536D01*
X123178282Y-81178282D01*
X123274536Y-81052841D01*
X123335044Y-80906762D01*
X123355682Y-80750000D01*
X123335044Y-80593238D01*
X123274536Y-80447159D01*
X123178282Y-80321718D01*
X123052841Y-80225464D01*
X122906762Y-80164956D01*
X122750000Y-80144318D01*
X122593238Y-80164956D01*
X122447159Y-80225464D01*
X122321718Y-80321718D01*
X122316695Y-80328264D01*
X122280677Y-80375204D01*
X122223339Y-80417071D01*
X122180714Y-80424500D01*
X118789501Y-80424500D01*
X118767621Y-80422586D01*
X118750001Y-80419479D01*
X118739147Y-80421393D01*
X118728120Y-80421393D01*
X118728120Y-80420792D01*
X118714443Y-80421389D01*
X118600440Y-80411415D01*
X118578816Y-80407602D01*
X118444444Y-80371596D01*
X118423816Y-80364088D01*
X118297742Y-80305299D01*
X118278722Y-80294317D01*
X118164769Y-80214527D01*
X118147944Y-80200409D01*
X118049591Y-80102056D01*
X118035473Y-80085231D01*
X117955683Y-79971278D01*
X117944701Y-79952258D01*
X117933950Y-79929201D01*
X117885912Y-79826184D01*
X117878404Y-79805556D01*
X117842398Y-79671184D01*
X117838585Y-79649560D01*
X117828611Y-79535557D01*
X117829208Y-79521880D01*
X117828607Y-79521880D01*
X117828607Y-79510853D01*
X117830521Y-79499999D01*
X117827414Y-79482378D01*
X117825500Y-79460499D01*
X117825500Y-76069286D01*
X117845502Y-76001165D01*
X117874796Y-75969323D01*
X117921736Y-75933305D01*
X117928282Y-75928282D01*
X118024536Y-75802841D01*
X118085044Y-75656762D01*
X118105682Y-75500000D01*
X118093633Y-75408475D01*
X118086122Y-75351426D01*
X118085044Y-75343238D01*
X118024536Y-75197159D01*
X117948537Y-75098115D01*
X117933305Y-75078264D01*
X117928282Y-75071718D01*
X117802841Y-74975464D01*
X117656762Y-74914956D01*
X117500000Y-74894318D01*
X117343238Y-74914956D01*
X117197159Y-74975464D01*
X117071718Y-75071718D01*
X117066695Y-75078264D01*
X117051463Y-75098115D01*
X116994125Y-75139982D01*
X116923254Y-75144204D01*
X116861351Y-75109440D01*
X116828070Y-75046728D01*
X116825500Y-75021411D01*
X116825500Y-74539501D01*
X116827414Y-74517621D01*
X116828607Y-74510855D01*
X116828607Y-74510853D01*
X116830521Y-74500001D01*
X116828607Y-74489147D01*
X116828607Y-74478120D01*
X116829208Y-74478120D01*
X116828611Y-74464443D01*
X116838585Y-74350440D01*
X116842398Y-74328816D01*
X116878404Y-74194444D01*
X116885912Y-74173816D01*
X116897555Y-74148847D01*
X116944702Y-74047741D01*
X116955683Y-74028722D01*
X117035473Y-73914769D01*
X117049591Y-73897944D01*
X117147944Y-73799591D01*
X117164769Y-73785473D01*
X117278722Y-73705683D01*
X117297742Y-73694701D01*
X117315793Y-73686284D01*
X117423816Y-73635912D01*
X117444444Y-73628404D01*
X117578816Y-73592398D01*
X117600440Y-73588585D01*
X117714443Y-73578611D01*
X117728120Y-73579208D01*
X117728120Y-73578607D01*
X117739147Y-73578607D01*
X117750001Y-73580521D01*
X117767622Y-73577414D01*
X117789501Y-73575500D01*
X125430714Y-73575500D01*
X125498835Y-73595502D01*
X125530677Y-73624796D01*
X125553592Y-73654659D01*
X125571718Y-73678282D01*
X125578264Y-73683305D01*
X125601606Y-73701216D01*
X125697159Y-73774536D01*
X125843238Y-73835044D01*
X126000000Y-73855682D01*
X126008188Y-73854604D01*
X126012412Y-73854048D01*
X126156762Y-73835044D01*
X126164389Y-73831885D01*
X126164392Y-73831884D01*
X126229363Y-73804972D01*
X126299953Y-73797383D01*
X126363440Y-73829163D01*
X126399667Y-73890221D01*
X126402503Y-73937827D01*
X126394318Y-74000000D01*
X126414956Y-74156762D01*
X126475464Y-74302841D01*
X126571718Y-74428282D01*
X126624777Y-74468995D01*
X126625204Y-74469323D01*
X126667071Y-74526661D01*
X126674500Y-74569286D01*
X126674500Y-81930714D01*
X126654498Y-81998835D01*
X126625204Y-82030677D01*
X126571718Y-82071718D01*
X126475464Y-82197159D01*
X126414956Y-82343238D01*
X126394318Y-82500000D01*
X126414956Y-82656762D01*
X126475464Y-82802841D01*
X126571718Y-82928282D01*
X126697159Y-83024536D01*
X126843238Y-83085044D01*
X127000000Y-83105682D01*
X127008188Y-83104604D01*
X127148574Y-83086122D01*
X127156762Y-83085044D01*
X127302841Y-83024536D01*
X127428282Y-82928282D01*
X127524536Y-82802841D01*
X127585044Y-82656762D01*
X127605682Y-82500000D01*
X127585044Y-82343238D01*
X127524536Y-82197159D01*
X127428282Y-82071718D01*
X127374796Y-82030677D01*
X127332929Y-81973339D01*
X127325500Y-81930714D01*
X127325500Y-74569286D01*
X127345502Y-74501165D01*
X127374796Y-74469323D01*
X127375224Y-74468995D01*
X127428282Y-74428282D01*
X127524536Y-74302841D01*
X127585044Y-74156762D01*
X127605682Y-74000000D01*
X127588328Y-73868183D01*
X127586122Y-73851426D01*
X127585044Y-73843238D01*
X127524536Y-73697159D01*
X127441418Y-73588837D01*
X127433305Y-73578264D01*
X127428282Y-73571718D01*
X127418709Y-73564372D01*
X127309392Y-73480491D01*
X127302841Y-73475464D01*
X127156762Y-73414956D01*
X127000000Y-73394318D01*
X126843238Y-73414956D01*
X126835611Y-73418115D01*
X126835608Y-73418116D01*
X126770637Y-73445028D01*
X126700047Y-73452617D01*
X126636560Y-73420837D01*
X126600333Y-73359779D01*
X126597497Y-73312173D01*
X126604604Y-73258188D01*
X126605682Y-73250000D01*
X126585044Y-73093238D01*
X126524536Y-72947159D01*
X126428282Y-72821718D01*
X126302841Y-72725464D01*
X126156762Y-72664956D01*
X126000000Y-72644318D01*
X125843238Y-72664956D01*
X125697159Y-72725464D01*
X125571718Y-72821718D01*
X125566695Y-72828264D01*
X125530677Y-72875204D01*
X125473339Y-72917071D01*
X125430714Y-72924500D01*
X117789499Y-72924500D01*
X117767620Y-72922586D01*
X117762141Y-72921620D01*
X117749999Y-72919479D01*
X117740486Y-72921156D01*
X117737186Y-72921392D01*
X117735842Y-72921392D01*
X117733999Y-72921620D01*
X117525210Y-72936554D01*
X117441384Y-72954789D01*
X117309386Y-72983503D01*
X117309383Y-72983504D01*
X117304997Y-72984458D01*
X117300795Y-72986025D01*
X117300789Y-72986027D01*
X117098048Y-73061646D01*
X117098045Y-73061647D01*
X117093842Y-73063215D01*
X117089899Y-73065368D01*
X117089897Y-73065369D01*
X116979199Y-73125815D01*
X116896045Y-73171221D01*
X116715632Y-73306276D01*
X116556276Y-73465632D01*
X116421221Y-73646045D01*
X116419062Y-73649999D01*
X116317711Y-73835609D01*
X116313215Y-73843842D01*
X116311647Y-73848045D01*
X116311646Y-73848048D01*
X116236027Y-74050789D01*
X116236025Y-74050795D01*
X116234458Y-74054997D01*
X116233504Y-74059383D01*
X116233503Y-74059386D01*
X116227625Y-74086407D01*
X116186554Y-74275210D01*
X116186233Y-74279698D01*
X116171620Y-74483999D01*
X116171392Y-74485842D01*
X116171392Y-74487186D01*
X116171156Y-74490486D01*
X116169479Y-74499999D01*
X116171393Y-74510853D01*
X116172586Y-74517620D01*
X116174500Y-74539499D01*
X116174500Y-83210500D01*
X116172586Y-83232379D01*
X116169479Y-83250000D01*
X104325500Y-83250000D01*
X104325500Y-77794735D01*
X104345502Y-77726614D01*
X104399158Y-77680121D01*
X104469432Y-77670017D01*
X104534012Y-77699511D01*
X104557085Y-77727454D01*
X104557627Y-77727092D01*
X104699642Y-77939632D01*
X104868183Y-78131817D01*
X105060368Y-78300358D01*
X105272908Y-78442373D01*
X105276611Y-78444199D01*
X105498462Y-78553605D01*
X105498470Y-78553608D01*
X105502166Y-78555431D01*
X105506080Y-78556760D01*
X105506081Y-78556760D01*
X105740313Y-78636271D01*
X105740316Y-78636272D01*
X105744220Y-78637597D01*
X105748259Y-78638400D01*
X105748265Y-78638402D01*
X105990885Y-78686662D01*
X105990888Y-78686662D01*
X105994928Y-78687466D01*
X105999039Y-78687735D01*
X105999043Y-78687736D01*
X106161657Y-78698394D01*
X106242286Y-78703679D01*
X106243405Y-78703780D01*
X106249284Y-78705142D01*
X106250000Y-78705143D01*
X106258718Y-78703154D01*
X106286733Y-78700000D01*
X111962688Y-78700000D01*
X111991137Y-78703254D01*
X111999284Y-78705142D01*
X112000000Y-78705143D01*
X112005847Y-78703809D01*
X112006195Y-78703778D01*
X112250959Y-78687736D01*
X112250966Y-78687735D01*
X112255072Y-78687466D01*
X112338555Y-78670860D01*
X112501735Y-78638402D01*
X112501741Y-78638400D01*
X112505780Y-78637597D01*
X112509684Y-78636272D01*
X112509687Y-78636271D01*
X112743919Y-78556760D01*
X112743920Y-78556760D01*
X112747834Y-78555431D01*
X112751530Y-78553608D01*
X112751538Y-78553605D01*
X112973389Y-78444199D01*
X112977092Y-78442373D01*
X113189632Y-78300358D01*
X113381817Y-78131817D01*
X113550358Y-77939632D01*
X113668993Y-77762082D01*
X113690078Y-77730527D01*
X113690079Y-77730525D01*
X113692373Y-77727092D01*
X113732226Y-77646279D01*
X113803605Y-77501538D01*
X113803608Y-77501530D01*
X113805431Y-77497834D01*
X113887597Y-77255780D01*
X113902894Y-77178880D01*
X113936662Y-77009115D01*
X113936662Y-77009112D01*
X113937466Y-77005072D01*
X113953679Y-76757714D01*
X113953780Y-76756595D01*
X113955142Y-76750716D01*
X113955143Y-76750000D01*
X113953154Y-76741282D01*
X113950000Y-76713267D01*
X113950000Y-75287312D01*
X113953254Y-75258860D01*
X113955142Y-75250716D01*
X113955143Y-75250000D01*
X113953809Y-75244153D01*
X113953778Y-75243805D01*
X113937736Y-74999041D01*
X113937735Y-74999034D01*
X113937466Y-74994928D01*
X113912092Y-74867362D01*
X113888402Y-74748265D01*
X113888400Y-74748259D01*
X113887597Y-74744220D01*
X113875917Y-74709810D01*
X113806760Y-74506081D01*
X113806760Y-74506080D01*
X113805431Y-74502166D01*
X113803608Y-74498470D01*
X113803605Y-74498462D01*
X113707134Y-74302841D01*
X113692373Y-74272908D01*
X113687973Y-74266322D01*
X113639952Y-74194454D01*
X113550358Y-74060368D01*
X113381817Y-73868183D01*
X113189632Y-73699642D01*
X113008491Y-73578607D01*
X112980527Y-73559922D01*
X112980525Y-73559921D01*
X112977092Y-73557627D01*
X112936065Y-73537395D01*
X112751538Y-73446395D01*
X112751530Y-73446392D01*
X112747834Y-73444569D01*
X112715258Y-73433511D01*
X112509687Y-73363729D01*
X112509684Y-73363728D01*
X112505780Y-73362403D01*
X112501741Y-73361600D01*
X112501735Y-73361598D01*
X112259115Y-73313338D01*
X112259112Y-73313338D01*
X112255072Y-73312534D01*
X112250961Y-73312265D01*
X112250957Y-73312264D01*
X112063838Y-73300000D01*
X112007714Y-73296321D01*
X112006595Y-73296220D01*
X112000716Y-73294858D01*
X112000000Y-73294857D01*
X111991282Y-73296846D01*
X111963267Y-73300000D01*
X106287312Y-73300000D01*
X106258863Y-73296746D01*
X106250716Y-73294858D01*
X106250000Y-73294857D01*
X106244153Y-73296191D01*
X106243805Y-73296222D01*
X105999041Y-73312264D01*
X105999034Y-73312265D01*
X105994928Y-73312534D01*
X105911445Y-73329140D01*
X105748265Y-73361598D01*
X105748259Y-73361600D01*
X105744220Y-73362403D01*
X105740316Y-73363728D01*
X105740313Y-73363729D01*
X105534742Y-73433511D01*
X105502166Y-73444569D01*
X105498470Y-73446392D01*
X105498462Y-73446395D01*
X105313935Y-73537395D01*
X105272908Y-73557627D01*
X105269475Y-73559921D01*
X105269473Y-73559922D01*
X105241509Y-73578607D01*
X105060368Y-73699642D01*
X104868183Y-73868183D01*
X104699642Y-74060368D01*
X104610048Y-74194454D01*
X104562028Y-74266322D01*
X104557627Y-74272908D01*
X104542866Y-74302841D01*
X104446395Y-74498462D01*
X104446392Y-74498470D01*
X104444569Y-74502166D01*
X104443240Y-74506080D01*
X104443240Y-74506081D01*
X104402888Y-74624955D01*
X104362051Y-74683031D01*
X104296298Y-74709810D01*
X104226506Y-74696789D01*
X104174833Y-74648102D01*
X104170569Y-74640183D01*
X104086147Y-74468995D01*
X104084321Y-74465292D01*
X104071659Y-74446341D01*
X104047977Y-74410899D01*
X103951374Y-74266322D01*
X103793593Y-74086407D01*
X103613678Y-73928626D01*
X103610248Y-73926334D01*
X103606191Y-73923623D01*
X103560663Y-73869146D01*
X103550794Y-73831154D01*
X103538404Y-73704789D01*
X103535480Y-73674970D01*
X103475935Y-73477749D01*
X103379218Y-73295849D01*
X103274902Y-73167945D01*
X103252906Y-73140975D01*
X103252903Y-73140972D01*
X103249011Y-73136200D01*
X103213469Y-73106797D01*
X103095025Y-73008811D01*
X103095021Y-73008809D01*
X103090275Y-73004882D01*
X103084855Y-73001952D01*
X103084850Y-73001948D01*
X102964427Y-72936836D01*
X102914018Y-72886841D01*
X102898640Y-72817530D01*
X102923176Y-72750908D01*
X102979836Y-72708127D01*
X103024355Y-72700000D01*
X111962688Y-72700000D01*
X111991137Y-72703254D01*
X111999284Y-72705142D01*
X112000000Y-72705143D01*
X112002128Y-72704658D01*
X112003705Y-72704839D01*
X112003669Y-72704306D01*
X112261849Y-72686646D01*
X112261851Y-72686646D01*
X112266145Y-72686352D01*
X112270353Y-72685477D01*
X112270357Y-72685477D01*
X112523128Y-72632951D01*
X112523131Y-72632950D01*
X112527333Y-72632077D01*
X112778698Y-72542742D01*
X112782520Y-72540762D01*
X112782526Y-72540759D01*
X113011729Y-72421994D01*
X113015556Y-72420011D01*
X113233497Y-72266172D01*
X113428461Y-72084089D01*
X113551133Y-71933305D01*
X113594100Y-71880491D01*
X113596814Y-71877155D01*
X113735422Y-71649223D01*
X113792877Y-71516950D01*
X113839994Y-71408476D01*
X113839995Y-71408473D01*
X113841703Y-71404541D01*
X113913676Y-71147666D01*
X113950000Y-70883384D01*
X113950000Y-70616616D01*
X113913676Y-70352334D01*
X113852139Y-70132706D01*
X113853021Y-70061715D01*
X113892143Y-70002470D01*
X113957085Y-69973781D01*
X114027228Y-69984757D01*
X114056544Y-70003980D01*
X114061898Y-70008675D01*
X114061904Y-70008679D01*
X114065006Y-70011400D01*
X114232052Y-70123016D01*
X114235751Y-70124840D01*
X114235756Y-70124843D01*
X114251701Y-70132706D01*
X114412238Y-70211874D01*
X114416143Y-70213200D01*
X114416144Y-70213200D01*
X114598568Y-70275125D01*
X114598572Y-70275126D01*
X114602481Y-70276453D01*
X114606525Y-70277257D01*
X114606531Y-70277259D01*
X114795486Y-70314845D01*
X114795492Y-70314846D01*
X114799525Y-70315648D01*
X114803630Y-70315917D01*
X114803637Y-70315918D01*
X114934543Y-70324498D01*
X114977496Y-70327313D01*
X114988228Y-70328607D01*
X114989143Y-70328607D01*
X114999999Y-70330521D01*
X115017620Y-70327414D01*
X115039499Y-70325500D01*
X124710499Y-70325500D01*
X124732378Y-70327414D01*
X124749999Y-70330521D01*
X124760853Y-70328607D01*
X124771880Y-70328607D01*
X124771880Y-70329208D01*
X124785557Y-70328611D01*
X124899560Y-70338585D01*
X124921184Y-70342398D01*
X125055556Y-70378404D01*
X125076184Y-70385912D01*
X125150983Y-70420791D01*
X125202258Y-70444701D01*
X125221278Y-70455683D01*
X125335231Y-70535473D01*
X125352056Y-70549591D01*
X125450409Y-70647944D01*
X125464527Y-70664769D01*
X125544317Y-70778722D01*
X125555298Y-70797741D01*
X125558682Y-70804997D01*
X125610978Y-70917147D01*
X125621639Y-70987339D01*
X125592659Y-71052152D01*
X125583813Y-71060554D01*
X125584109Y-71060850D01*
X125578264Y-71066695D01*
X125571718Y-71071718D01*
X125566695Y-71078264D01*
X125543941Y-71107918D01*
X125475464Y-71197159D01*
X125414956Y-71343238D01*
X125394318Y-71500000D01*
X125395396Y-71508188D01*
X125413445Y-71645281D01*
X125414956Y-71656762D01*
X125475464Y-71802841D01*
X125571718Y-71928282D01*
X125697159Y-72024536D01*
X125843238Y-72085044D01*
X126000000Y-72105682D01*
X126008188Y-72104604D01*
X126148574Y-72086122D01*
X126156762Y-72085044D01*
X126302841Y-72024536D01*
X126423296Y-71932108D01*
X126489517Y-71906508D01*
X126559065Y-71920773D01*
X126576704Y-71932108D01*
X126697159Y-72024536D01*
X126843238Y-72085044D01*
X127000000Y-72105682D01*
X127008188Y-72104604D01*
X127148574Y-72086122D01*
X127156762Y-72085044D01*
X127302841Y-72024536D01*
X127428282Y-71928282D01*
X127524536Y-71802841D01*
X127585044Y-71656762D01*
X127586556Y-71645281D01*
X127604604Y-71508188D01*
X127605682Y-71500000D01*
X127585044Y-71343238D01*
X127524536Y-71197159D01*
X127456059Y-71107918D01*
X127433305Y-71078264D01*
X127428282Y-71071718D01*
X127302841Y-70975464D01*
X127303500Y-70974605D01*
X127259774Y-70928749D01*
X127251471Y-70908495D01*
X127179489Y-70677498D01*
X127179489Y-70677497D01*
X127178355Y-70673859D01*
X127062892Y-70417311D01*
X127021106Y-70348188D01*
X126919316Y-70179805D01*
X126919314Y-70179802D01*
X126917348Y-70176550D01*
X126780965Y-70002470D01*
X126746197Y-69958092D01*
X126746194Y-69958089D01*
X126743844Y-69955089D01*
X126544911Y-69756156D01*
X126323450Y-69582652D01*
X126082689Y-69437108D01*
X125826141Y-69321645D01*
X125557546Y-69237947D01*
X125553801Y-69237261D01*
X125553794Y-69237259D01*
X125378541Y-69205143D01*
X125280820Y-69187235D01*
X125277028Y-69187006D01*
X125277023Y-69187005D01*
X125038637Y-69172586D01*
X125006647Y-69170651D01*
X125000000Y-69169479D01*
X124982380Y-69172586D01*
X124960500Y-69174500D01*
X115726384Y-69174500D01*
X115658263Y-69154498D01*
X115611770Y-69100842D01*
X115601462Y-69032054D01*
X115604604Y-69008188D01*
X115604604Y-69008187D01*
X115605682Y-69000000D01*
X115585044Y-68843238D01*
X115524536Y-68697159D01*
X115519509Y-68690608D01*
X115519507Y-68690604D01*
X115490425Y-68652703D01*
X115464825Y-68586483D01*
X115479090Y-68516934D01*
X115528692Y-68466138D01*
X115590388Y-68450000D01*
X133462688Y-68450000D01*
X133491137Y-68453254D01*
X133499284Y-68455142D01*
X133500000Y-68455143D01*
X133506937Y-68453561D01*
X133514009Y-68452770D01*
X133514030Y-68452955D01*
X133518750Y-68452236D01*
X133612432Y-68444862D01*
X133688302Y-68438891D01*
X133693109Y-68437737D01*
X133693115Y-68437736D01*
X133807819Y-68410197D01*
X133871967Y-68394797D01*
X133876534Y-68392905D01*
X133876541Y-68392903D01*
X134041899Y-68324410D01*
X134041903Y-68324408D01*
X134046473Y-68322515D01*
X134207524Y-68223823D01*
X134351153Y-68101153D01*
X134473823Y-67957524D01*
X134572515Y-67796473D01*
X134597019Y-67737315D01*
X134642903Y-67626541D01*
X134642905Y-67626534D01*
X134644797Y-67621967D01*
X134660599Y-67556147D01*
X134687736Y-67443115D01*
X134687737Y-67443109D01*
X134688891Y-67438302D01*
X134702152Y-67269814D01*
X134702929Y-67264785D01*
X134702714Y-67264760D01*
X134703530Y-67257672D01*
X134705142Y-67250716D01*
X134705143Y-67250000D01*
X134703154Y-67241282D01*
X134700000Y-67213267D01*
X134700000Y-63326000D01*
X134720002Y-63257879D01*
X134773658Y-63211386D01*
X134826000Y-63200000D01*
X140430592Y-63200000D01*
X140498713Y-63220002D01*
G37*
%TD.AperFunction*%
%TA.AperFunction,Conductor*%
G36*
X88713464Y-63595502D02*
G01*
X88759957Y-63649158D01*
X88770061Y-63719432D01*
X88740567Y-63784012D01*
X88720856Y-63802365D01*
X88720080Y-63802947D01*
X88715632Y-63806276D01*
X88556276Y-63965632D01*
X88421221Y-64146045D01*
X88313215Y-64343842D01*
X88311647Y-64348047D01*
X88311642Y-64348057D01*
X88295525Y-64391270D01*
X88252979Y-64448107D01*
X88225690Y-64463646D01*
X88197159Y-64475464D01*
X88071718Y-64571718D01*
X87975464Y-64697159D01*
X87914956Y-64843238D01*
X87894318Y-65000000D01*
X87914956Y-65156762D01*
X87975464Y-65302841D01*
X88071718Y-65428282D01*
X88197159Y-65524536D01*
X88343238Y-65585044D01*
X88500000Y-65605682D01*
X88508188Y-65604604D01*
X88648574Y-65586122D01*
X88656762Y-65585044D01*
X88802841Y-65524536D01*
X88928282Y-65428282D01*
X89024536Y-65302841D01*
X89085044Y-65156762D01*
X89105682Y-65000000D01*
X89085044Y-64843238D01*
X89024536Y-64697159D01*
X89019512Y-64690611D01*
X89019507Y-64690603D01*
X88983109Y-64643168D01*
X88957509Y-64576947D01*
X88971774Y-64507399D01*
X88979858Y-64494195D01*
X89035472Y-64414769D01*
X89049591Y-64397944D01*
X89147944Y-64299591D01*
X89164769Y-64285473D01*
X89278722Y-64205683D01*
X89297742Y-64194701D01*
X89340826Y-64174611D01*
X89423816Y-64135912D01*
X89444444Y-64128404D01*
X89578816Y-64092398D01*
X89600440Y-64088585D01*
X89714443Y-64078611D01*
X89728120Y-64079208D01*
X89728120Y-64078607D01*
X89739147Y-64078607D01*
X89750001Y-64080521D01*
X89767622Y-64077414D01*
X89789501Y-64075500D01*
X95523616Y-64075500D01*
X95591737Y-64095502D01*
X95638230Y-64149158D01*
X95648538Y-64217946D01*
X95644318Y-64250000D01*
X95664956Y-64406762D01*
X95725464Y-64552841D01*
X95821718Y-64678282D01*
X95947159Y-64774536D01*
X96093238Y-64835044D01*
X96250000Y-64855682D01*
X96258188Y-64854604D01*
X96398574Y-64836122D01*
X96406762Y-64835044D01*
X96552841Y-64774536D01*
X96678282Y-64678282D01*
X96774536Y-64552841D01*
X96835044Y-64406762D01*
X96855682Y-64250000D01*
X96835044Y-64093238D01*
X96774536Y-63947159D01*
X96678282Y-63821718D01*
X96651885Y-63801463D01*
X96610018Y-63744125D01*
X96605796Y-63673254D01*
X96640560Y-63611351D01*
X96703272Y-63578070D01*
X96728589Y-63575500D01*
X97440369Y-63575500D01*
X97508490Y-63595502D01*
X97554983Y-63649158D01*
X97565087Y-63719432D01*
X97543582Y-63773769D01*
X97456800Y-63897708D01*
X97454479Y-63902686D01*
X97454477Y-63902689D01*
X97371552Y-64080521D01*
X97368061Y-64088008D01*
X97366639Y-64093316D01*
X97366638Y-64093318D01*
X97357489Y-64127463D01*
X97313716Y-64290826D01*
X97295810Y-64495498D01*
X97294857Y-64499642D01*
X97297989Y-64513482D01*
X97297980Y-64518372D01*
X97300000Y-64536448D01*
X97300000Y-72462976D01*
X97298047Y-72480184D01*
X97298037Y-72485813D01*
X97294857Y-72499642D01*
X97295717Y-72503444D01*
X97313716Y-72709174D01*
X97315140Y-72714487D01*
X97315140Y-72714489D01*
X97364173Y-72897480D01*
X97368061Y-72911992D01*
X97370383Y-72916972D01*
X97370384Y-72916974D01*
X97449021Y-73085609D01*
X97456800Y-73102292D01*
X97577235Y-73274292D01*
X97725708Y-73422765D01*
X97897708Y-73543200D01*
X97902685Y-73545521D01*
X97902694Y-73545526D01*
X97933318Y-73559806D01*
X97986602Y-73606723D01*
X98006063Y-73675000D01*
X97985521Y-73742960D01*
X97931498Y-73789026D01*
X97880067Y-73800000D01*
X87537024Y-73800000D01*
X87519818Y-73798047D01*
X87514187Y-73798037D01*
X87500358Y-73794857D01*
X87486519Y-73797989D01*
X87485528Y-73797987D01*
X87473399Y-73797380D01*
X87446607Y-73794741D01*
X87356278Y-73785844D01*
X87332061Y-73781028D01*
X87205726Y-73742706D01*
X87182907Y-73733253D01*
X87066489Y-73671026D01*
X87045952Y-73657303D01*
X86943908Y-73573558D01*
X86926442Y-73556092D01*
X86842697Y-73454048D01*
X86828974Y-73433511D01*
X86766747Y-73317093D01*
X86757294Y-73294273D01*
X86756323Y-73291073D01*
X86718972Y-73167939D01*
X86714155Y-73143719D01*
X86713415Y-73136200D01*
X86702571Y-73026102D01*
X86701990Y-73014070D01*
X86705143Y-73000358D01*
X86702011Y-72986518D01*
X86702020Y-72981628D01*
X86700000Y-72963552D01*
X86700000Y-64590388D01*
X86720002Y-64522267D01*
X86773658Y-64475774D01*
X86843932Y-64465670D01*
X86902703Y-64490425D01*
X86940604Y-64519507D01*
X86940608Y-64519509D01*
X86947159Y-64524536D01*
X87093238Y-64585044D01*
X87250000Y-64605682D01*
X87258188Y-64604604D01*
X87398574Y-64586122D01*
X87406762Y-64585044D01*
X87552841Y-64524536D01*
X87642082Y-64456059D01*
X87671736Y-64433305D01*
X87678282Y-64428282D01*
X87693507Y-64408441D01*
X87769509Y-64309392D01*
X87774536Y-64302841D01*
X87835044Y-64156762D01*
X87855682Y-64000000D01*
X87835044Y-63843238D01*
X87826131Y-63821718D01*
X87801784Y-63762941D01*
X87794195Y-63692351D01*
X87825974Y-63628864D01*
X87869952Y-63598324D01*
X87874785Y-63596321D01*
X87906578Y-63587799D01*
X87968217Y-63579684D01*
X87984664Y-63578606D01*
X87989142Y-63578606D01*
X88000000Y-63580521D01*
X88010855Y-63578607D01*
X88010856Y-63578607D01*
X88017620Y-63577414D01*
X88039500Y-63575500D01*
X88645343Y-63575500D01*
X88713464Y-63595502D01*
G37*
%TD.AperFunction*%
%TD*%
M02*
