%TF.GenerationSoftware,KiCad,Pcbnew,(6.0.2-0)*%
%TF.CreationDate,2022-02-22T08:35:35+00:00*%
%TF.ProjectId,EnvMon2,456e764d-6f6e-4322-9e6b-696361645f70,4*%
%TF.SameCoordinates,Original*%
%TF.FileFunction,Legend,Bot*%
%TF.FilePolarity,Positive*%
%FSLAX46Y46*%
G04 Gerber Fmt 4.6, Leading zero omitted, Abs format (unit mm)*
G04 Created by KiCad (PCBNEW (6.0.2-0)) date 2022-02-22 08:35:35*
%MOMM*%
%LPD*%
G01*
G04 APERTURE LIST*
%ADD10C,0.150000*%
%ADD11C,0.100000*%
G04 APERTURE END LIST*
D10*
X140297619Y-77892857D02*
X140250000Y-77940476D01*
X140202380Y-78035714D01*
X140202380Y-78273809D01*
X140250000Y-78369047D01*
X140297619Y-78416666D01*
X140392857Y-78464285D01*
X140488095Y-78464285D01*
X140630952Y-78416666D01*
X141202380Y-77845238D01*
X141202380Y-78464285D01*
X140202380Y-79083333D02*
X140202380Y-79178571D01*
X140250000Y-79273809D01*
X140297619Y-79321428D01*
X140392857Y-79369047D01*
X140583333Y-79416666D01*
X140821428Y-79416666D01*
X141011904Y-79369047D01*
X141107142Y-79321428D01*
X141154761Y-79273809D01*
X141202380Y-79178571D01*
X141202380Y-79083333D01*
X141154761Y-78988095D01*
X141107142Y-78940476D01*
X141011904Y-78892857D01*
X140821428Y-78845238D01*
X140583333Y-78845238D01*
X140392857Y-78892857D01*
X140297619Y-78940476D01*
X140250000Y-78988095D01*
X140202380Y-79083333D01*
X140297619Y-79797619D02*
X140250000Y-79845238D01*
X140202380Y-79940476D01*
X140202380Y-80178571D01*
X140250000Y-80273809D01*
X140297619Y-80321428D01*
X140392857Y-80369047D01*
X140488095Y-80369047D01*
X140630952Y-80321428D01*
X141202380Y-79750000D01*
X141202380Y-80369047D01*
X140297619Y-80750000D02*
X140250000Y-80797619D01*
X140202380Y-80892857D01*
X140202380Y-81130952D01*
X140250000Y-81226190D01*
X140297619Y-81273809D01*
X140392857Y-81321428D01*
X140488095Y-81321428D01*
X140630952Y-81273809D01*
X141202380Y-80702380D01*
X141202380Y-81321428D01*
X140821428Y-81750000D02*
X140821428Y-82511904D01*
X140202380Y-83178571D02*
X140202380Y-83273809D01*
X140250000Y-83369047D01*
X140297619Y-83416666D01*
X140392857Y-83464285D01*
X140583333Y-83511904D01*
X140821428Y-83511904D01*
X141011904Y-83464285D01*
X141107142Y-83416666D01*
X141154761Y-83369047D01*
X141202380Y-83273809D01*
X141202380Y-83178571D01*
X141154761Y-83083333D01*
X141107142Y-83035714D01*
X141011904Y-82988095D01*
X140821428Y-82940476D01*
X140583333Y-82940476D01*
X140392857Y-82988095D01*
X140297619Y-83035714D01*
X140250000Y-83083333D01*
X140202380Y-83178571D01*
X140297619Y-83892857D02*
X140250000Y-83940476D01*
X140202380Y-84035714D01*
X140202380Y-84273809D01*
X140250000Y-84369047D01*
X140297619Y-84416666D01*
X140392857Y-84464285D01*
X140488095Y-84464285D01*
X140630952Y-84416666D01*
X141202380Y-83845238D01*
X141202380Y-84464285D01*
X140821428Y-84892857D02*
X140821428Y-85654761D01*
X140297619Y-86083333D02*
X140250000Y-86130952D01*
X140202380Y-86226190D01*
X140202380Y-86464285D01*
X140250000Y-86559523D01*
X140297619Y-86607142D01*
X140392857Y-86654761D01*
X140488095Y-86654761D01*
X140630952Y-86607142D01*
X141202380Y-86035714D01*
X141202380Y-86654761D01*
X141202380Y-87607142D02*
X141202380Y-87035714D01*
X141202380Y-87321428D02*
X140202380Y-87321428D01*
X140345238Y-87226190D01*
X140440476Y-87130952D01*
X140488095Y-87035714D01*
X145547619Y-111511904D02*
X146547619Y-111511904D01*
X146547619Y-111273809D01*
X146500000Y-111130952D01*
X146404761Y-111035714D01*
X146309523Y-110988095D01*
X146119047Y-110940476D01*
X145976190Y-110940476D01*
X145785714Y-110988095D01*
X145690476Y-111035714D01*
X145595238Y-111130952D01*
X145547619Y-111273809D01*
X145547619Y-111511904D01*
X145642857Y-109940476D02*
X145595238Y-109988095D01*
X145547619Y-110130952D01*
X145547619Y-110226190D01*
X145595238Y-110369047D01*
X145690476Y-110464285D01*
X145785714Y-110511904D01*
X145976190Y-110559523D01*
X146119047Y-110559523D01*
X146309523Y-110511904D01*
X146404761Y-110464285D01*
X146500000Y-110369047D01*
X146547619Y-110226190D01*
X146547619Y-110130952D01*
X146500000Y-109988095D01*
X146452380Y-109940476D01*
X144000000Y-111511904D02*
X144047619Y-111607142D01*
X144047619Y-111750000D01*
X144000000Y-111892857D01*
X143904761Y-111988095D01*
X143809523Y-112035714D01*
X143619047Y-112083333D01*
X143476190Y-112083333D01*
X143285714Y-112035714D01*
X143190476Y-111988095D01*
X143095238Y-111892857D01*
X143047619Y-111750000D01*
X143047619Y-111654761D01*
X143095238Y-111511904D01*
X143142857Y-111464285D01*
X143476190Y-111464285D01*
X143476190Y-111654761D01*
X143047619Y-111035714D02*
X144047619Y-111035714D01*
X143047619Y-110464285D01*
X144047619Y-110464285D01*
X143047619Y-109988095D02*
X144047619Y-109988095D01*
X144047619Y-109750000D01*
X144000000Y-109607142D01*
X143904761Y-109511904D01*
X143809523Y-109464285D01*
X143619047Y-109416666D01*
X143476190Y-109416666D01*
X143285714Y-109464285D01*
X143190476Y-109511904D01*
X143095238Y-109607142D01*
X143047619Y-109750000D01*
X143047619Y-109988095D01*
X148047619Y-99623571D02*
X147714285Y-99623571D01*
X147571428Y-100147380D02*
X148047619Y-100147380D01*
X148047619Y-99147380D01*
X147571428Y-99147380D01*
X147142857Y-99480714D02*
X147142857Y-100147380D01*
X147142857Y-99575952D02*
X147095238Y-99528333D01*
X147000000Y-99480714D01*
X146857142Y-99480714D01*
X146761904Y-99528333D01*
X146714285Y-99623571D01*
X146714285Y-100147380D01*
X146333333Y-99480714D02*
X146095238Y-100147380D01*
X145857142Y-99480714D01*
X145476190Y-100147380D02*
X145476190Y-99480714D01*
X145476190Y-99147380D02*
X145523809Y-99195000D01*
X145476190Y-99242619D01*
X145428571Y-99195000D01*
X145476190Y-99147380D01*
X145476190Y-99242619D01*
X145000000Y-100147380D02*
X145000000Y-99480714D01*
X145000000Y-99671190D02*
X144952380Y-99575952D01*
X144904761Y-99528333D01*
X144809523Y-99480714D01*
X144714285Y-99480714D01*
X144238095Y-100147380D02*
X144333333Y-100099761D01*
X144380952Y-100052142D01*
X144428571Y-99956904D01*
X144428571Y-99671190D01*
X144380952Y-99575952D01*
X144333333Y-99528333D01*
X144238095Y-99480714D01*
X144095238Y-99480714D01*
X144000000Y-99528333D01*
X143952380Y-99575952D01*
X143904761Y-99671190D01*
X143904761Y-99956904D01*
X143952380Y-100052142D01*
X144000000Y-100099761D01*
X144095238Y-100147380D01*
X144238095Y-100147380D01*
X143476190Y-99480714D02*
X143476190Y-100147380D01*
X143476190Y-99575952D02*
X143428571Y-99528333D01*
X143333333Y-99480714D01*
X143190476Y-99480714D01*
X143095238Y-99528333D01*
X143047619Y-99623571D01*
X143047619Y-100147380D01*
X142571428Y-100147380D02*
X142571428Y-99480714D01*
X142571428Y-99575952D02*
X142523809Y-99528333D01*
X142428571Y-99480714D01*
X142285714Y-99480714D01*
X142190476Y-99528333D01*
X142142857Y-99623571D01*
X142142857Y-100147380D01*
X142142857Y-99623571D02*
X142095238Y-99528333D01*
X142000000Y-99480714D01*
X141857142Y-99480714D01*
X141761904Y-99528333D01*
X141714285Y-99623571D01*
X141714285Y-100147380D01*
X140857142Y-100099761D02*
X140952380Y-100147380D01*
X141142857Y-100147380D01*
X141238095Y-100099761D01*
X141285714Y-100004523D01*
X141285714Y-99623571D01*
X141238095Y-99528333D01*
X141142857Y-99480714D01*
X140952380Y-99480714D01*
X140857142Y-99528333D01*
X140809523Y-99623571D01*
X140809523Y-99718809D01*
X141285714Y-99814047D01*
X140380952Y-99480714D02*
X140380952Y-100147380D01*
X140380952Y-99575952D02*
X140333333Y-99528333D01*
X140238095Y-99480714D01*
X140095238Y-99480714D01*
X140000000Y-99528333D01*
X139952380Y-99623571D01*
X139952380Y-100147380D01*
X139619047Y-99480714D02*
X139238095Y-99480714D01*
X139476190Y-99147380D02*
X139476190Y-100004523D01*
X139428571Y-100099761D01*
X139333333Y-100147380D01*
X139238095Y-100147380D01*
X138476190Y-100147380D02*
X138476190Y-99623571D01*
X138523809Y-99528333D01*
X138619047Y-99480714D01*
X138809523Y-99480714D01*
X138904761Y-99528333D01*
X138476190Y-100099761D02*
X138571428Y-100147380D01*
X138809523Y-100147380D01*
X138904761Y-100099761D01*
X138952380Y-100004523D01*
X138952380Y-99909285D01*
X138904761Y-99814047D01*
X138809523Y-99766428D01*
X138571428Y-99766428D01*
X138476190Y-99718809D01*
X137857142Y-100147380D02*
X137952380Y-100099761D01*
X138000000Y-100004523D01*
X138000000Y-99147380D01*
X145523809Y-101757380D02*
X145523809Y-100757380D01*
X145190476Y-101471666D01*
X144857142Y-100757380D01*
X144857142Y-101757380D01*
X144238095Y-101757380D02*
X144333333Y-101709761D01*
X144380952Y-101662142D01*
X144428571Y-101566904D01*
X144428571Y-101281190D01*
X144380952Y-101185952D01*
X144333333Y-101138333D01*
X144238095Y-101090714D01*
X144095238Y-101090714D01*
X144000000Y-101138333D01*
X143952380Y-101185952D01*
X143904761Y-101281190D01*
X143904761Y-101566904D01*
X143952380Y-101662142D01*
X144000000Y-101709761D01*
X144095238Y-101757380D01*
X144238095Y-101757380D01*
X143476190Y-101090714D02*
X143476190Y-101757380D01*
X143476190Y-101185952D02*
X143428571Y-101138333D01*
X143333333Y-101090714D01*
X143190476Y-101090714D01*
X143095238Y-101138333D01*
X143047619Y-101233571D01*
X143047619Y-101757380D01*
X142571428Y-101757380D02*
X142571428Y-101090714D01*
X142571428Y-100757380D02*
X142619047Y-100805000D01*
X142571428Y-100852619D01*
X142523809Y-100805000D01*
X142571428Y-100757380D01*
X142571428Y-100852619D01*
X142238095Y-101090714D02*
X141857142Y-101090714D01*
X142095238Y-100757380D02*
X142095238Y-101614523D01*
X142047619Y-101709761D01*
X141952380Y-101757380D01*
X141857142Y-101757380D01*
X141380952Y-101757380D02*
X141476190Y-101709761D01*
X141523809Y-101662142D01*
X141571428Y-101566904D01*
X141571428Y-101281190D01*
X141523809Y-101185952D01*
X141476190Y-101138333D01*
X141380952Y-101090714D01*
X141238095Y-101090714D01*
X141142857Y-101138333D01*
X141095238Y-101185952D01*
X141047619Y-101281190D01*
X141047619Y-101566904D01*
X141095238Y-101662142D01*
X141142857Y-101709761D01*
X141238095Y-101757380D01*
X141380952Y-101757380D01*
X140619047Y-101757380D02*
X140619047Y-101090714D01*
X140619047Y-101281190D02*
X140571428Y-101185952D01*
X140523809Y-101138333D01*
X140428571Y-101090714D01*
X140333333Y-101090714D01*
D11*
X123392857Y-85339285D02*
X123250000Y-85839285D01*
X123107142Y-85482142D01*
X122964285Y-85839285D01*
X122821428Y-85339285D01*
X122607142Y-85339285D02*
X122464285Y-85839285D01*
X122321428Y-85482142D01*
X122178571Y-85839285D01*
X122035714Y-85339285D01*
X121821428Y-85339285D02*
X121678571Y-85839285D01*
X121535714Y-85482142D01*
X121392857Y-85839285D01*
X121250000Y-85339285D01*
X120964285Y-85767857D02*
X120928571Y-85803571D01*
X120964285Y-85839285D01*
X121000000Y-85803571D01*
X120964285Y-85767857D01*
X120964285Y-85839285D01*
X120607142Y-85839285D02*
X120607142Y-85339285D01*
X120607142Y-85410714D02*
X120571428Y-85375000D01*
X120500000Y-85339285D01*
X120392857Y-85339285D01*
X120321428Y-85375000D01*
X120285714Y-85446428D01*
X120285714Y-85839285D01*
X120285714Y-85446428D02*
X120250000Y-85375000D01*
X120178571Y-85339285D01*
X120071428Y-85339285D01*
X120000000Y-85375000D01*
X119964285Y-85446428D01*
X119964285Y-85839285D01*
X119321428Y-85803571D02*
X119392857Y-85839285D01*
X119535714Y-85839285D01*
X119607142Y-85803571D01*
X119642857Y-85732142D01*
X119642857Y-85446428D01*
X119607142Y-85375000D01*
X119535714Y-85339285D01*
X119392857Y-85339285D01*
X119321428Y-85375000D01*
X119285714Y-85446428D01*
X119285714Y-85517857D01*
X119642857Y-85589285D01*
X118964285Y-85767857D02*
X118928571Y-85803571D01*
X118964285Y-85839285D01*
X119000000Y-85803571D01*
X118964285Y-85767857D01*
X118964285Y-85839285D01*
X118285714Y-85339285D02*
X118285714Y-85839285D01*
X118607142Y-85339285D02*
X118607142Y-85732142D01*
X118571428Y-85803571D01*
X118500000Y-85839285D01*
X118392857Y-85839285D01*
X118321428Y-85803571D01*
X118285714Y-85767857D01*
X117928571Y-85839285D02*
X117928571Y-85089285D01*
X117857142Y-85553571D02*
X117642857Y-85839285D01*
X117642857Y-85339285D02*
X117928571Y-85625000D01*
M02*
