%TF.GenerationSoftware,KiCad,Pcbnew,(6.0.5-0)*%
%TF.CreationDate,2022-05-20T15:49:58+01:00*%
%TF.ProjectId,EnvMon2,456e764d-6f6e-4322-9e6b-696361645f70,4*%
%TF.SameCoordinates,Original*%
%TF.FileFunction,Copper,L2,Bot*%
%TF.FilePolarity,Positive*%
%FSLAX46Y46*%
G04 Gerber Fmt 4.6, Leading zero omitted, Abs format (unit mm)*
G04 Created by KiCad (PCBNEW (6.0.5-0)) date 2022-05-20 15:49:58*
%MOMM*%
%LPD*%
G01*
G04 APERTURE LIST*
G04 Aperture macros list*
%AMRoundRect*
0 Rectangle with rounded corners*
0 $1 Rounding radius*
0 $2 $3 $4 $5 $6 $7 $8 $9 X,Y pos of 4 corners*
0 Add a 4 corners polygon primitive as box body*
4,1,4,$2,$3,$4,$5,$6,$7,$8,$9,$2,$3,0*
0 Add four circle primitives for the rounded corners*
1,1,$1+$1,$2,$3*
1,1,$1+$1,$4,$5*
1,1,$1+$1,$6,$7*
1,1,$1+$1,$8,$9*
0 Add four rect primitives between the rounded corners*
20,1,$1+$1,$2,$3,$4,$5,0*
20,1,$1+$1,$4,$5,$6,$7,0*
20,1,$1+$1,$6,$7,$8,$9,0*
20,1,$1+$1,$8,$9,$2,$3,0*%
G04 Aperture macros list end*
%ADD10C,0.100000*%
%TA.AperFunction,NonConductor*%
%ADD11C,0.100000*%
%TD*%
%TA.AperFunction,EtchedComponent*%
%ADD12C,0.080000*%
%TD*%
%TA.AperFunction,EtchedComponent*%
%ADD13C,0.250000*%
%TD*%
%TA.AperFunction,ComponentPad*%
%ADD14C,2.000000*%
%TD*%
%TA.AperFunction,ComponentPad*%
%ADD15RoundRect,0.250000X-0.600000X-0.675000X0.600000X-0.675000X0.600000X0.675000X-0.600000X0.675000X0*%
%TD*%
%TA.AperFunction,ComponentPad*%
%ADD16O,1.700000X1.850000*%
%TD*%
%TA.AperFunction,ComponentPad*%
%ADD17C,0.670000*%
%TD*%
%TA.AperFunction,ComponentPad*%
%ADD18C,1.250000*%
%TD*%
%TA.AperFunction,ComponentPad*%
%ADD19C,1.500000*%
%TD*%
%TA.AperFunction,ComponentPad*%
%ADD20C,1.700000*%
%TD*%
%TA.AperFunction,SMDPad,CuDef*%
%ADD21R,1.400000X0.200000*%
%TD*%
%TA.AperFunction,SMDPad,CuDef*%
%ADD22R,0.600000X0.200000*%
%TD*%
%TA.AperFunction,SMDPad,CuDef*%
%ADD23R,0.200000X1.200000*%
%TD*%
%TA.AperFunction,SMDPad,CuDef*%
%ADD24R,0.800000X0.200000*%
%TD*%
%TA.AperFunction,SMDPad,CuDef*%
%ADD25R,0.600000X0.600000*%
%TD*%
%TA.AperFunction,SMDPad,CuDef*%
%ADD26R,0.200000X0.600000*%
%TD*%
%TA.AperFunction,SMDPad,CuDef*%
%ADD27R,0.200000X0.200000*%
%TD*%
%TA.AperFunction,SMDPad,CuDef*%
%ADD28R,0.200000X0.400000*%
%TD*%
%TA.AperFunction,SMDPad,CuDef*%
%ADD29R,1.000000X0.200000*%
%TD*%
%TA.AperFunction,SMDPad,CuDef*%
%ADD30R,0.200000X0.800000*%
%TD*%
%TA.AperFunction,SMDPad,CuDef*%
%ADD31R,0.400000X0.200000*%
%TD*%
%TA.AperFunction,SMDPad,CuDef*%
%ADD32R,0.600000X0.400000*%
%TD*%
%TA.AperFunction,SMDPad,CuDef*%
%ADD33R,0.400000X0.400000*%
%TD*%
%TA.AperFunction,ViaPad*%
%ADD34C,0.800000*%
%TD*%
%TA.AperFunction,Conductor*%
%ADD35C,0.250000*%
%TD*%
%TA.AperFunction,Conductor*%
%ADD36C,0.500000*%
%TD*%
G04 APERTURE END LIST*
D10*
%TO.C,U5*%
D11*
X124678571Y-93173809D02*
X124654761Y-93150000D01*
X124607142Y-93126190D01*
X124488095Y-93126190D01*
X124440476Y-93150000D01*
X124416666Y-93173809D01*
X124392857Y-93221428D01*
X124392857Y-93269047D01*
X124416666Y-93340476D01*
X124702380Y-93626190D01*
X124392857Y-93626190D01*
X124083333Y-93126190D02*
X124035714Y-93126190D01*
X123988095Y-93150000D01*
X123964285Y-93173809D01*
X123940476Y-93221428D01*
X123916666Y-93316666D01*
X123916666Y-93435714D01*
X123940476Y-93530952D01*
X123964285Y-93578571D01*
X123988095Y-93602380D01*
X124035714Y-93626190D01*
X124083333Y-93626190D01*
X124130952Y-93602380D01*
X124154761Y-93578571D01*
X124178571Y-93530952D01*
X124202380Y-93435714D01*
X124202380Y-93316666D01*
X124178571Y-93221428D01*
X124154761Y-93173809D01*
X124130952Y-93150000D01*
X124083333Y-93126190D01*
X123726190Y-93173809D02*
X123702380Y-93150000D01*
X123654761Y-93126190D01*
X123535714Y-93126190D01*
X123488095Y-93150000D01*
X123464285Y-93173809D01*
X123440476Y-93221428D01*
X123440476Y-93269047D01*
X123464285Y-93340476D01*
X123750000Y-93626190D01*
X123440476Y-93626190D01*
X123250000Y-93173809D02*
X123226190Y-93150000D01*
X123178571Y-93126190D01*
X123059523Y-93126190D01*
X123011904Y-93150000D01*
X122988095Y-93173809D01*
X122964285Y-93221428D01*
X122964285Y-93269047D01*
X122988095Y-93340476D01*
X123273809Y-93626190D01*
X122964285Y-93626190D01*
X122750000Y-93435714D02*
X122369047Y-93435714D01*
X122035714Y-93126190D02*
X121988095Y-93126190D01*
X121940476Y-93150000D01*
X121916666Y-93173809D01*
X121892857Y-93221428D01*
X121869047Y-93316666D01*
X121869047Y-93435714D01*
X121892857Y-93530952D01*
X121916666Y-93578571D01*
X121940476Y-93602380D01*
X121988095Y-93626190D01*
X122035714Y-93626190D01*
X122083333Y-93602380D01*
X122107142Y-93578571D01*
X122130952Y-93530952D01*
X122154761Y-93435714D01*
X122154761Y-93316666D01*
X122130952Y-93221428D01*
X122107142Y-93173809D01*
X122083333Y-93150000D01*
X122035714Y-93126190D01*
X121416666Y-93126190D02*
X121654761Y-93126190D01*
X121678571Y-93364285D01*
X121654761Y-93340476D01*
X121607142Y-93316666D01*
X121488095Y-93316666D01*
X121440476Y-93340476D01*
X121416666Y-93364285D01*
X121392857Y-93411904D01*
X121392857Y-93530952D01*
X121416666Y-93578571D01*
X121440476Y-93602380D01*
X121488095Y-93626190D01*
X121607142Y-93626190D01*
X121654761Y-93602380D01*
X121678571Y-93578571D01*
X121178571Y-93435714D02*
X120797619Y-93435714D01*
X120583333Y-93173809D02*
X120559523Y-93150000D01*
X120511904Y-93126190D01*
X120392857Y-93126190D01*
X120345238Y-93150000D01*
X120321428Y-93173809D01*
X120297619Y-93221428D01*
X120297619Y-93269047D01*
X120321428Y-93340476D01*
X120607142Y-93626190D01*
X120297619Y-93626190D01*
X119988095Y-93126190D02*
X119940476Y-93126190D01*
X119892857Y-93150000D01*
X119869047Y-93173809D01*
X119845238Y-93221428D01*
X119821428Y-93316666D01*
X119821428Y-93435714D01*
X119845238Y-93530952D01*
X119869047Y-93578571D01*
X119892857Y-93602380D01*
X119940476Y-93626190D01*
X119988095Y-93626190D01*
X120035714Y-93602380D01*
X120059523Y-93578571D01*
X120083333Y-93530952D01*
X120107142Y-93435714D01*
X120107142Y-93316666D01*
X120083333Y-93221428D01*
X120059523Y-93173809D01*
X120035714Y-93150000D01*
X119988095Y-93126190D01*
D12*
%TO.C,Logo1*%
X137100000Y-85985000D02*
X137000000Y-85985000D01*
D13*
X136250000Y-81775000D02*
X136250000Y-85975000D01*
D12*
X137100000Y-85825000D02*
X137100000Y-86125000D01*
D13*
X134450000Y-81875000D02*
X136250000Y-83875000D01*
X136250000Y-83875000D02*
X134450000Y-85975000D01*
D12*
X137000000Y-85985000D02*
X136900000Y-86125000D01*
D13*
X136250000Y-83875000D02*
X137750000Y-83875000D01*
X136250000Y-81775000D02*
X139250000Y-85975000D01*
D12*
X137100000Y-85825000D02*
X137000000Y-85825000D01*
X137000000Y-85825000D02*
G75*
G03*
X137000000Y-85985000I0J-80000D01*
G01*
D13*
X136250000Y-85975000D02*
G75*
G03*
X137750000Y-85975000I750000J0D01*
G01*
D12*
X137320000Y-85985000D02*
G75*
G03*
X137320000Y-85985000I-300000J0D01*
G01*
%TD*%
D14*
%TO.P,SW1,1,1*%
%TO.N,BUTTON1*%
X89250000Y-65250000D03*
X95750000Y-65250000D03*
%TO.P,SW1,2,2*%
%TO.N,GND*%
X89250000Y-69750000D03*
X95750000Y-69750000D03*
%TD*%
%TO.P,SW3,1,1*%
%TO.N,BUTTON3*%
X89300000Y-80250000D03*
X95800000Y-80250000D03*
%TO.P,SW3,2,2*%
%TO.N,GND*%
X89300000Y-84750000D03*
X95800000Y-84750000D03*
%TD*%
D15*
%TO.P,J3,1,Pin_1*%
%TO.N,GND*%
X107750000Y-93400000D03*
D16*
%TO.P,J3,2,Pin_2*%
%TO.N,TEMP*%
X110250000Y-93400000D03*
%TO.P,J3,3,Pin_3*%
%TO.N,+3V3*%
X112750000Y-93400000D03*
%TD*%
D17*
%TO.P,J1,S1,SHIELD*%
%TO.N,GND*%
X125140000Y-94210000D03*
D18*
X126570000Y-97890000D03*
D19*
X117930000Y-93720000D03*
X126570000Y-93720000D03*
D17*
X119360000Y-94210000D03*
D18*
X117930000Y-97890000D03*
%TD*%
D20*
%TO.P,M1,1,Vcc*%
%TO.N,+3V3*%
X102500000Y-73880000D03*
%TO.P,M1,2,GND*%
%TO.N,GND*%
X102500000Y-76420000D03*
%TO.P,M1,3,DIN*%
%TO.N,OLED-MOSI*%
X102500000Y-78960000D03*
%TO.P,M1,4,CLK*%
%TO.N,OLED-SCK*%
X102500000Y-81500000D03*
%TO.P,M1,5,CS*%
%TO.N,OLED-CS*%
X102500000Y-84040000D03*
%TO.P,M1,6,DC*%
%TO.N,OLED-DC*%
X102500000Y-86580000D03*
%TO.P,M1,7,RST*%
%TO.N,OLED-RST*%
X102500000Y-89120000D03*
%TD*%
D15*
%TO.P,J2,1,GND*%
%TO.N,GND*%
X134150000Y-93400000D03*
D16*
%TO.P,J2,2,DC*%
%TO.N,DC*%
X136650000Y-93400000D03*
%TD*%
D14*
%TO.P,SW2,1,1*%
%TO.N,BUTTON2*%
X89250000Y-72750000D03*
X95750000Y-72750000D03*
%TO.P,SW2,2,2*%
%TO.N,GND*%
X89250000Y-77250000D03*
X95750000Y-77250000D03*
%TD*%
D21*
%TO.P,U5,*%
%TO.N,*%
X120850000Y-95000000D03*
D22*
X122050000Y-95000000D03*
D21*
X123650000Y-95000000D03*
D23*
X120250000Y-95700000D03*
X121450000Y-95700000D03*
D24*
X122350000Y-95200000D03*
D23*
X123050000Y-95700000D03*
X124250000Y-95700000D03*
D25*
X120850000Y-95600000D03*
D26*
X121850000Y-95600000D03*
D27*
X122250000Y-95400000D03*
D28*
X122650000Y-95500000D03*
D25*
X123650000Y-95600000D03*
D28*
X122050000Y-95700000D03*
D27*
X122450000Y-95600000D03*
X122250000Y-95800000D03*
X122450000Y-96000000D03*
D29*
X120850000Y-96200000D03*
D27*
X121850000Y-96200000D03*
D30*
X122250000Y-96500000D03*
D27*
X122650000Y-96200000D03*
D29*
X123650000Y-96200000D03*
D27*
X122050000Y-96400000D03*
D24*
X120550000Y-96600000D03*
D27*
X121450000Y-96600000D03*
D26*
X121850000Y-96800000D03*
D22*
X122650000Y-96600000D03*
X123650000Y-96600000D03*
D28*
X124250000Y-96700000D03*
D26*
X120650000Y-97000000D03*
D27*
X121250000Y-96800000D03*
D31*
X122550000Y-96800000D03*
D30*
X123450000Y-97100000D03*
D27*
X120250000Y-97000000D03*
D26*
X120850000Y-97200000D03*
D27*
X121450000Y-97000000D03*
D28*
X122050000Y-97100000D03*
D31*
X122950000Y-97000000D03*
X123750000Y-97000000D03*
D27*
X121250000Y-97200000D03*
D28*
X121650000Y-97300000D03*
D32*
X122650000Y-97300000D03*
D27*
X123250000Y-97200000D03*
X123650000Y-97200000D03*
X121050000Y-97400000D03*
X121450000Y-97400000D03*
X122250000Y-97400000D03*
D28*
X123050000Y-97500000D03*
D31*
X121950000Y-97600000D03*
D26*
X124050000Y-97800000D03*
D21*
X120850000Y-97800000D03*
D27*
X122050000Y-97800000D03*
D26*
X122450000Y-98000000D03*
D30*
X123650000Y-98100000D03*
D28*
X124250000Y-97900000D03*
D23*
X120250000Y-98500000D03*
X121450000Y-98500000D03*
D27*
X122250000Y-98000000D03*
D26*
X122650000Y-98200000D03*
D31*
X123350000Y-98000000D03*
D27*
X123850000Y-98000000D03*
D25*
X120850000Y-98400000D03*
D27*
X122050000Y-98200000D03*
X122850000Y-98200000D03*
D30*
X121850000Y-98700000D03*
D27*
X122250000Y-98400000D03*
D22*
X123250000Y-98400000D03*
D27*
X124050000Y-98400000D03*
X122050000Y-98600000D03*
D31*
X122950000Y-98600000D03*
D27*
X123450000Y-98600000D03*
D33*
X122550000Y-98900000D03*
D28*
X123250000Y-98900000D03*
X123650000Y-98900000D03*
D29*
X120850000Y-99000000D03*
D27*
X122050000Y-99000000D03*
X123050000Y-99000000D03*
D31*
X123950000Y-99000000D03*
%TD*%
D34*
%TO.N,CO2-SCL*%
X88000000Y-90000000D03*
%TO.N,+3V3*%
X96500000Y-98500000D03*
X96500000Y-90500000D03*
%TO.N,I*%
X128250000Y-82500000D03*
%TO.N,VBUS*%
X124600000Y-90800000D03*
X119800000Y-90800000D03*
%TO.N,GND*%
X92500000Y-94500000D03*
X135250000Y-80500000D03*
%TO.N,+3V3*%
X117750000Y-71924500D03*
X124050000Y-87250000D03*
X129500000Y-86750000D03*
%TO.N,CO2-SDA*%
X88900000Y-90900000D03*
X126800000Y-71200000D03*
%TO.N,CO2-SCL*%
X126791134Y-70089855D03*
%TO.N,O*%
X120000000Y-87500000D03*
X126000000Y-73250000D03*
%TO.N,I*%
X127000000Y-74000000D03*
%TO.N,EN*%
X121321843Y-82434471D03*
X117300000Y-75600000D03*
%TO.N,BUTTON1*%
X123000000Y-80000000D03*
%TO.N,BUTTON2*%
X123875997Y-80500000D03*
%TO.N,BUTTON3*%
X124750000Y-81000000D03*
%TD*%
D35*
%TO.N,BUTTON1*%
X97614735Y-80114735D02*
X97614735Y-68635265D01*
X95750000Y-65250000D02*
X96539558Y-66039558D01*
X97614744Y-68635265D02*
G75*
G03*
X96539557Y-66039559I-3670944J-35D01*
G01*
X122396447Y-79749981D02*
G75*
G02*
X123000000Y-80000000I-47J-853619D01*
G01*
X100000000Y-81500000D02*
X99000000Y-81500000D01*
X102500000Y-77750000D02*
G75*
G02*
X104000000Y-79250000I0J-1500000D01*
G01*
X104000000Y-79250000D02*
G75*
G03*
X104500000Y-79750000I500000J0D01*
G01*
X100500000Y-79750000D02*
G75*
G02*
X102500000Y-77750000I2000000J0D01*
G01*
X100000000Y-81500000D02*
G75*
G03*
X100500000Y-81000000I0J500000D01*
G01*
X97614700Y-80114735D02*
G75*
G03*
X99000000Y-81500000I1385300J35D01*
G01*
X122396447Y-79750000D02*
X104500000Y-79750000D01*
X100500000Y-79750000D02*
X100500000Y-81000000D01*
%TO.N,EN*%
X121321843Y-82434471D02*
X121380955Y-82493583D01*
X122000000Y-82749988D02*
G75*
G02*
X121380955Y-82493583I0J875488D01*
G01*
X122000000Y-82750000D02*
X125250000Y-82750000D01*
X126250000Y-81750000D02*
G75*
G02*
X125250000Y-82750000I-1000000J0D01*
G01*
%TO.N,BUTTON3*%
X98050000Y-82500000D02*
G75*
G02*
X95800000Y-80250000I0J2250000D01*
G01*
X104500000Y-80750000D02*
X121396447Y-80750000D01*
X101000009Y-82649991D02*
G75*
G03*
X100637868Y-82500000I-362109J-362109D01*
G01*
X121999986Y-81000014D02*
G75*
G03*
X121396447Y-80750000I-603586J-603586D01*
G01*
X104500000Y-80750000D02*
G75*
G03*
X104000000Y-81250000I0J-500000D01*
G01*
X101241421Y-82749991D02*
G75*
G02*
X101000000Y-82650000I-21J341391D01*
G01*
X123199510Y-81550478D02*
G75*
G02*
X122091563Y-81091564I-10J1566878D01*
G01*
X104000000Y-81250000D02*
G75*
G02*
X102500000Y-82750000I-1500000J0D01*
G01*
X122000000Y-81000000D02*
X122091563Y-81091564D01*
X124749990Y-81000000D02*
G75*
G02*
X124199510Y-81550490I-550490J0D01*
G01*
X98050000Y-82500000D02*
X100637868Y-82500000D01*
X101241421Y-82750000D02*
X102500000Y-82750000D01*
X123199510Y-81550490D02*
X124199510Y-81550490D01*
%TO.N,BUTTON2*%
X122417430Y-80750796D02*
G75*
G03*
X122986575Y-80986575I569170J569096D01*
G01*
X100000000Y-82000000D02*
G75*
G03*
X101000000Y-81000000I0J1000000D01*
G01*
X123389422Y-80986597D02*
G75*
G03*
X123875997Y-80500000I-22J486597D01*
G01*
X123389422Y-80986575D02*
X122986575Y-80986575D01*
X121298571Y-80250012D02*
G75*
G02*
X122353596Y-80687006I29J-1491988D01*
G01*
X97124600Y-80336851D02*
G75*
G03*
X98787660Y-82000000I1663100J-49D01*
G01*
X101000000Y-81000000D02*
G75*
G02*
X101750000Y-80250000I750000J0D01*
G01*
X122417408Y-80750818D02*
X122353596Y-80687006D01*
X121298571Y-80250000D02*
X101750000Y-80250000D01*
X95750000Y-72749989D02*
G75*
G02*
X97124511Y-74124511I0J-1374511D01*
G01*
X97124511Y-80336851D02*
X97124511Y-74124511D01*
X100000000Y-82000000D02*
X98787660Y-82000000D01*
%TO.N,CO2-SDA*%
X127250000Y-77750000D02*
X127250000Y-81750000D01*
X125391517Y-83608483D02*
X105141517Y-83608483D01*
X125391517Y-83608500D02*
G75*
G03*
X127250000Y-81750000I-17J1858500D01*
G01*
%TO.N,CO2-SCL*%
X117750000Y-74500000D02*
G75*
G02*
X116250000Y-73000000I0J1500000D01*
G01*
X100500000Y-87250000D02*
G75*
G02*
X102550000Y-85200000I2050000J0D01*
G01*
X126750000Y-77750000D02*
X126750000Y-81817944D01*
X125408972Y-83158972D02*
X105041028Y-83158972D01*
X116250000Y-71500000D02*
X116250000Y-73000000D01*
X126750000Y-77750000D02*
G75*
G03*
X123500000Y-74500000I-3250000J0D01*
G01*
X103000000Y-85200000D02*
X102550000Y-85200000D01*
X125408972Y-83158900D02*
G75*
G03*
X126750000Y-81817944I28J1341000D01*
G01*
X116249955Y-71500000D02*
G75*
G02*
X117660145Y-70089855I1410145J0D01*
G01*
X103999972Y-84200000D02*
G75*
G02*
X105041028Y-83158972I1041028J0D01*
G01*
X103000000Y-85200000D02*
G75*
G03*
X104000000Y-84200000I0J1000000D01*
G01*
X126791134Y-70089855D02*
X117660145Y-70089855D01*
X87999987Y-90000000D02*
G75*
G02*
X88527113Y-89472887I527113J0D01*
G01*
X99027113Y-89472900D02*
G75*
G03*
X100500000Y-88000000I-13J1472900D01*
G01*
X117750000Y-74500000D02*
X123500000Y-74500000D01*
X100500000Y-87250000D02*
X100500000Y-88000000D01*
X99027113Y-89472887D02*
X88527113Y-89472887D01*
%TO.N,CO2-SDA*%
X126202507Y-70952518D02*
G75*
G03*
X126800000Y-71200000I597493J597518D01*
G01*
X125396447Y-70499981D02*
G75*
G02*
X126000000Y-70750000I-47J-853619D01*
G01*
X87700000Y-90900000D02*
X88900000Y-90900000D01*
X101100004Y-88965056D02*
G75*
G02*
X102130952Y-87934104I1030996J-44D01*
G01*
X87700000Y-90900000D02*
G75*
G03*
X87350000Y-91250000I0J-350000D01*
G01*
X99250000Y-99650000D02*
X88200000Y-99650000D01*
X116750000Y-71500000D02*
G75*
G02*
X117750000Y-70500000I1000000J0D01*
G01*
X117750000Y-74000000D02*
G75*
G02*
X116750000Y-73000000I0J1000000D01*
G01*
X127250000Y-77750000D02*
G75*
G03*
X123500000Y-74000000I-3750000J0D01*
G01*
X100900013Y-90100013D02*
G75*
G03*
X101100000Y-89617158I-482813J482813D01*
G01*
X102965896Y-87934100D02*
G75*
G03*
X104500000Y-86400000I4J1534100D01*
G01*
X125396447Y-70500000D02*
X117750000Y-70500000D01*
X100401526Y-91201560D02*
G75*
G02*
X100828031Y-90171969I1456074J-40D01*
G01*
X100401560Y-91201560D02*
X100401560Y-98498440D01*
X99250000Y-99649960D02*
G75*
G03*
X100401560Y-98498440I0J1151560D01*
G01*
X87350000Y-98800000D02*
G75*
G03*
X88200000Y-99650000I850000J0D01*
G01*
X126202512Y-70952513D02*
X126000000Y-70750000D01*
X101100000Y-88965056D02*
X101100000Y-89617158D01*
X100900000Y-90100000D02*
X100828031Y-90171969D01*
X116750000Y-71500000D02*
X116750000Y-73000000D01*
X102965896Y-87934104D02*
X102130952Y-87934104D01*
X117750000Y-74000000D02*
X123500000Y-74000000D01*
X104499983Y-84250000D02*
G75*
G02*
X105141517Y-83608483I641517J0D01*
G01*
X104500000Y-84250000D02*
X104500000Y-86400000D01*
X87350000Y-98800000D02*
X87350000Y-91250000D01*
%TO.N,EN*%
X124100000Y-75600000D02*
G75*
G02*
X126250000Y-77750000I0J-2150000D01*
G01*
X126250000Y-81750000D02*
X126250000Y-77750000D01*
X124100000Y-75600000D02*
X117300000Y-75600000D01*
%TO.N,+3V3*%
X97600000Y-97400000D02*
G75*
G02*
X96500000Y-98500000I-1100000J0D01*
G01*
X96500000Y-90500000D02*
G75*
G02*
X97600000Y-91600000I0J-1100000D01*
G01*
X97600000Y-97400000D02*
X97600000Y-91600000D01*
%TO.N,I*%
X128500000Y-74750000D02*
X128500000Y-82250000D01*
X128250000Y-82500000D02*
G75*
G03*
X128500000Y-82250000I0J250000D01*
G01*
%TO.N,O*%
X121250000Y-86250000D02*
G75*
G03*
X120000000Y-87500000I0J-1250000D01*
G01*
X127500000Y-73250000D02*
G75*
G02*
X129000000Y-74750000I0J-1500000D01*
G01*
X129000000Y-84500000D02*
G75*
G02*
X127250000Y-86250000I-1750000J0D01*
G01*
X121250000Y-86250000D02*
X127250000Y-86250000D01*
X129000000Y-84500000D02*
X129000000Y-74750000D01*
X127500000Y-73250000D02*
X126000000Y-73250000D01*
%TO.N,+3V3*%
X117150000Y-89000000D02*
G75*
G03*
X112750000Y-93400000I0J-4400000D01*
G01*
X124050000Y-87250000D02*
G75*
G02*
X122300000Y-89000000I-1750000J0D01*
G01*
X117150000Y-89000000D02*
X122300000Y-89000000D01*
D36*
%TO.N,VBUS*%
X124600000Y-90800000D02*
X119800000Y-90800000D01*
D35*
%TO.N,+3V3*%
X117924500Y-71750000D02*
X117750000Y-71924500D01*
X124250000Y-71750000D02*
X117924500Y-71750000D01*
X124050000Y-87250000D02*
X129000000Y-87250000D01*
X129500000Y-86750000D02*
X129500000Y-74750000D01*
X125250000Y-72250000D02*
X125103554Y-72103554D01*
X127250000Y-72500000D02*
X125853553Y-72500000D01*
X125250014Y-72249986D02*
G75*
G03*
X125853553Y-72500000I603586J603586D01*
G01*
X124250000Y-71749999D02*
G75*
G02*
X125103553Y-72103555I0J-1207101D01*
G01*
X129500000Y-86750000D02*
G75*
G02*
X129000000Y-87250000I-500000J0D01*
G01*
X127250000Y-72500000D02*
G75*
G02*
X129500000Y-74750000I0J-2250000D01*
G01*
%TO.N,I*%
X127000000Y-74000000D02*
X127750000Y-74000000D01*
X128500000Y-74750000D02*
G75*
G03*
X127750000Y-74000000I-750000J0D01*
G01*
%TD*%
%TA.AperFunction,Conductor*%
%TO.N,GND*%
G36*
X96984020Y-63202064D02*
G01*
X96986308Y-63202590D01*
X96999641Y-63205656D01*
X97006395Y-63204128D01*
X97007610Y-63204130D01*
X97025526Y-63203014D01*
X97149948Y-63215268D01*
X97161770Y-63217620D01*
X97300160Y-63259600D01*
X97311295Y-63264212D01*
X97423071Y-63323958D01*
X97438837Y-63332385D01*
X97448860Y-63339082D01*
X97560653Y-63430828D01*
X97569172Y-63439347D01*
X97624200Y-63506399D01*
X97660917Y-63551139D01*
X97667614Y-63561162D01*
X97699976Y-63621705D01*
X97735786Y-63688701D01*
X97740400Y-63699840D01*
X97782380Y-63838230D01*
X97784732Y-63850054D01*
X97796943Y-63974041D01*
X97795900Y-63990340D01*
X97795896Y-63992893D01*
X97794344Y-63999641D01*
X97795872Y-64006394D01*
X97795872Y-64006399D01*
X97797983Y-64015727D01*
X97799500Y-64029300D01*
X97799500Y-65970238D01*
X97797936Y-65984020D01*
X97794344Y-65999641D01*
X97795222Y-66003521D01*
X97813222Y-66209261D01*
X97813916Y-66211852D01*
X97813917Y-66211856D01*
X97833117Y-66283510D01*
X97867590Y-66412164D01*
X97956365Y-66602543D01*
X97957901Y-66604737D01*
X97957903Y-66604740D01*
X98016608Y-66688579D01*
X98076851Y-66774614D01*
X98225386Y-66923149D01*
X98299808Y-66975260D01*
X98395260Y-67042097D01*
X98395263Y-67042099D01*
X98397457Y-67043635D01*
X98399890Y-67044769D01*
X98399889Y-67044769D01*
X98552630Y-67115993D01*
X98587836Y-67132410D01*
X98689287Y-67159594D01*
X98788144Y-67186083D01*
X98788148Y-67186084D01*
X98790739Y-67186778D01*
X98793412Y-67187012D01*
X98793413Y-67187012D01*
X98997325Y-67204852D01*
X99000000Y-67205086D01*
X99002675Y-67204852D01*
X99206587Y-67187012D01*
X99206588Y-67187012D01*
X99209261Y-67186778D01*
X99211852Y-67186084D01*
X99211856Y-67186083D01*
X99310713Y-67159594D01*
X99412164Y-67132410D01*
X99447371Y-67115993D01*
X99600111Y-67044769D01*
X99600110Y-67044769D01*
X99602543Y-67043635D01*
X99604737Y-67042099D01*
X99604740Y-67042097D01*
X99700192Y-66975260D01*
X99774614Y-66923149D01*
X99923149Y-66774614D01*
X99983392Y-66688579D01*
X100042097Y-66604740D01*
X100042099Y-66604737D01*
X100043635Y-66602543D01*
X100132410Y-66412164D01*
X100166883Y-66283510D01*
X100186083Y-66211856D01*
X100186084Y-66211852D01*
X100186778Y-66209261D01*
X100193850Y-66128425D01*
X100204263Y-66009409D01*
X100204551Y-66007584D01*
X100204469Y-66007575D01*
X100204867Y-66004116D01*
X100205655Y-66000718D01*
X100205656Y-66000000D01*
X100202040Y-65984147D01*
X100200500Y-65970470D01*
X100200500Y-65469285D01*
X100544759Y-65469285D01*
X100544878Y-65471448D01*
X100544878Y-65471449D01*
X100558129Y-65712210D01*
X100559938Y-65745087D01*
X100560362Y-65747220D01*
X100560363Y-65747226D01*
X100610712Y-66000347D01*
X100613825Y-66015999D01*
X100705347Y-66276616D01*
X100706343Y-66278533D01*
X100706345Y-66278538D01*
X100804676Y-66467832D01*
X100832678Y-66521737D01*
X100993275Y-66746471D01*
X101183936Y-66946335D01*
X101400856Y-67117341D01*
X101402736Y-67118433D01*
X101402739Y-67118435D01*
X101629844Y-67250348D01*
X101639707Y-67256077D01*
X101895723Y-67359774D01*
X102033101Y-67393899D01*
X102081716Y-67405975D01*
X102163796Y-67426364D01*
X102165956Y-67426585D01*
X102165960Y-67426586D01*
X102266316Y-67436868D01*
X102399370Y-67450500D01*
X102570362Y-67450500D01*
X102668106Y-67443579D01*
X102773361Y-67436127D01*
X102773367Y-67436126D01*
X102775530Y-67435973D01*
X102914866Y-67405975D01*
X103043436Y-67378295D01*
X103043440Y-67378294D01*
X103045562Y-67377837D01*
X103192554Y-67323609D01*
X103302669Y-67282986D01*
X103302674Y-67282984D01*
X103304709Y-67282233D01*
X103306622Y-67281201D01*
X103545886Y-67152101D01*
X103545889Y-67152099D01*
X103547800Y-67151068D01*
X103549545Y-67149779D01*
X103549553Y-67149774D01*
X103768231Y-66988255D01*
X103768233Y-66988253D01*
X103769984Y-66986960D01*
X103966829Y-66793183D01*
X104114177Y-66600111D01*
X104133086Y-66575334D01*
X104133088Y-66575331D01*
X104134406Y-66573604D01*
X104269373Y-66332604D01*
X104289253Y-66281219D01*
X104333740Y-66166225D01*
X104369036Y-66074991D01*
X104382757Y-66015795D01*
X104430917Y-65808021D01*
X104430918Y-65808015D01*
X104431407Y-65805905D01*
X104455241Y-65530715D01*
X104451860Y-65469285D01*
X104440182Y-65257088D01*
X104440181Y-65257084D01*
X104440062Y-65254913D01*
X104438727Y-65248197D01*
X104386601Y-64986142D01*
X104386601Y-64986140D01*
X104386175Y-64984001D01*
X104294653Y-64723384D01*
X104265570Y-64667396D01*
X104168323Y-64480190D01*
X104167322Y-64478263D01*
X104006725Y-64253529D01*
X103816064Y-64053665D01*
X103599144Y-63882659D01*
X103539301Y-63847899D01*
X103362175Y-63745016D01*
X103362173Y-63745015D01*
X103360293Y-63743923D01*
X103104277Y-63640226D01*
X102836204Y-63573636D01*
X102834044Y-63573415D01*
X102834040Y-63573414D01*
X102714464Y-63561163D01*
X102600630Y-63549500D01*
X102429638Y-63549500D01*
X102340351Y-63555822D01*
X102226639Y-63563873D01*
X102226633Y-63563874D01*
X102224470Y-63564027D01*
X102089454Y-63593095D01*
X101956564Y-63621705D01*
X101956560Y-63621706D01*
X101954438Y-63622163D01*
X101810087Y-63675417D01*
X101697331Y-63717014D01*
X101697326Y-63717016D01*
X101695291Y-63717767D01*
X101693380Y-63718798D01*
X101693378Y-63718799D01*
X101644790Y-63745016D01*
X101452200Y-63848932D01*
X101450455Y-63850221D01*
X101450447Y-63850226D01*
X101242114Y-64004104D01*
X101230016Y-64013040D01*
X101033171Y-64206817D01*
X100865594Y-64426396D01*
X100730627Y-64667396D01*
X100630964Y-64925009D01*
X100630474Y-64927122D01*
X100630473Y-64927126D01*
X100602730Y-65046820D01*
X100568593Y-65194095D01*
X100544759Y-65469285D01*
X100200500Y-65469285D01*
X100200500Y-63529989D01*
X100202087Y-63516110D01*
X100205655Y-63500718D01*
X100205656Y-63500000D01*
X100204883Y-63496610D01*
X100204497Y-63493162D01*
X100205080Y-63493097D01*
X100204470Y-63474936D01*
X100210848Y-63434668D01*
X100213636Y-63417067D01*
X100219580Y-63398772D01*
X100253277Y-63332637D01*
X100264587Y-63317070D01*
X100317070Y-63264587D01*
X100332637Y-63253277D01*
X100341221Y-63248903D01*
X100398772Y-63219580D01*
X100417065Y-63213636D01*
X100474734Y-63204502D01*
X100485968Y-63204890D01*
X100485969Y-63204092D01*
X100492892Y-63204104D01*
X100499641Y-63205656D01*
X100506394Y-63204128D01*
X100506399Y-63204128D01*
X100515727Y-63202017D01*
X100529300Y-63200500D01*
X104738000Y-63200500D01*
X104781487Y-63218513D01*
X104799500Y-63262000D01*
X104799500Y-67220238D01*
X104797936Y-67234020D01*
X104794344Y-67249641D01*
X104795873Y-67256398D01*
X104795872Y-67257119D01*
X104796863Y-67263659D01*
X104797018Y-67265626D01*
X104810614Y-67438380D01*
X104854726Y-67622122D01*
X104855646Y-67624344D01*
X104855648Y-67624349D01*
X104903743Y-67740458D01*
X104927039Y-67796701D01*
X105025772Y-67957818D01*
X105148494Y-68101506D01*
X105292182Y-68224228D01*
X105313884Y-68237527D01*
X105451244Y-68321702D01*
X105451247Y-68321704D01*
X105453299Y-68322961D01*
X105509542Y-68346257D01*
X105625651Y-68394352D01*
X105625656Y-68394354D01*
X105627878Y-68395274D01*
X105630219Y-68395836D01*
X105630222Y-68395837D01*
X105809266Y-68438821D01*
X105809268Y-68438821D01*
X105811620Y-68439386D01*
X105984904Y-68453024D01*
X105993959Y-68454421D01*
X105999282Y-68455655D01*
X106000000Y-68455656D01*
X106003450Y-68454869D01*
X106015853Y-68452040D01*
X106029530Y-68450500D01*
X133470011Y-68450500D01*
X133483890Y-68452087D01*
X133499282Y-68455655D01*
X133500000Y-68455656D01*
X133505294Y-68454448D01*
X133514141Y-68453099D01*
X133594875Y-68446745D01*
X133688380Y-68439386D01*
X133690732Y-68438821D01*
X133690734Y-68438821D01*
X133869778Y-68395837D01*
X133869781Y-68395836D01*
X133872122Y-68395274D01*
X133874344Y-68394354D01*
X133874349Y-68394352D01*
X133990458Y-68346257D01*
X134046701Y-68322961D01*
X134048753Y-68321704D01*
X134048756Y-68321702D01*
X134186116Y-68237527D01*
X134207818Y-68224228D01*
X134351506Y-68101506D01*
X134474228Y-67957818D01*
X134572961Y-67796701D01*
X134596257Y-67740458D01*
X134644352Y-67624349D01*
X134644354Y-67624344D01*
X134645274Y-67622122D01*
X134689386Y-67438380D01*
X134703024Y-67265096D01*
X134704422Y-67256037D01*
X134704868Y-67254112D01*
X134705655Y-67250718D01*
X134705656Y-67250000D01*
X134702040Y-67234147D01*
X134700500Y-67220470D01*
X134700500Y-65469285D01*
X140044759Y-65469285D01*
X140044878Y-65471448D01*
X140044878Y-65471449D01*
X140058129Y-65712210D01*
X140059938Y-65745087D01*
X140060362Y-65747220D01*
X140060363Y-65747226D01*
X140110712Y-66000347D01*
X140113825Y-66015999D01*
X140205347Y-66276616D01*
X140206343Y-66278533D01*
X140206345Y-66278538D01*
X140304676Y-66467832D01*
X140332678Y-66521737D01*
X140493275Y-66746471D01*
X140683936Y-66946335D01*
X140900856Y-67117341D01*
X140902736Y-67118433D01*
X140902739Y-67118435D01*
X141129844Y-67250348D01*
X141139707Y-67256077D01*
X141395723Y-67359774D01*
X141533101Y-67393899D01*
X141581716Y-67405975D01*
X141663796Y-67426364D01*
X141665956Y-67426585D01*
X141665960Y-67426586D01*
X141766316Y-67436868D01*
X141899370Y-67450500D01*
X142070362Y-67450500D01*
X142168106Y-67443579D01*
X142273361Y-67436127D01*
X142273367Y-67436126D01*
X142275530Y-67435973D01*
X142414866Y-67405975D01*
X142543436Y-67378295D01*
X142543440Y-67378294D01*
X142545562Y-67377837D01*
X142692554Y-67323609D01*
X142802669Y-67282986D01*
X142802674Y-67282984D01*
X142804709Y-67282233D01*
X142806622Y-67281201D01*
X143045886Y-67152101D01*
X143045889Y-67152099D01*
X143047800Y-67151068D01*
X143049545Y-67149779D01*
X143049553Y-67149774D01*
X143268231Y-66988255D01*
X143268233Y-66988253D01*
X143269984Y-66986960D01*
X143466829Y-66793183D01*
X143614177Y-66600111D01*
X143633086Y-66575334D01*
X143633088Y-66575331D01*
X143634406Y-66573604D01*
X143769373Y-66332604D01*
X143789253Y-66281219D01*
X143833740Y-66166225D01*
X143869036Y-66074991D01*
X143882757Y-66015795D01*
X143930917Y-65808021D01*
X143930918Y-65808015D01*
X143931407Y-65805905D01*
X143955241Y-65530715D01*
X143951860Y-65469285D01*
X143940182Y-65257088D01*
X143940181Y-65257084D01*
X143940062Y-65254913D01*
X143938727Y-65248197D01*
X143886601Y-64986142D01*
X143886601Y-64986140D01*
X143886175Y-64984001D01*
X143794653Y-64723384D01*
X143765570Y-64667396D01*
X143668323Y-64480190D01*
X143667322Y-64478263D01*
X143506725Y-64253529D01*
X143316064Y-64053665D01*
X143099144Y-63882659D01*
X143039301Y-63847899D01*
X142862175Y-63745016D01*
X142862173Y-63745015D01*
X142860293Y-63743923D01*
X142604277Y-63640226D01*
X142336204Y-63573636D01*
X142334044Y-63573415D01*
X142334040Y-63573414D01*
X142214464Y-63561163D01*
X142100630Y-63549500D01*
X141929638Y-63549500D01*
X141840351Y-63555822D01*
X141726639Y-63563873D01*
X141726633Y-63563874D01*
X141724470Y-63564027D01*
X141589454Y-63593095D01*
X141456564Y-63621705D01*
X141456560Y-63621706D01*
X141454438Y-63622163D01*
X141310087Y-63675417D01*
X141197331Y-63717014D01*
X141197326Y-63717016D01*
X141195291Y-63717767D01*
X141193380Y-63718798D01*
X141193378Y-63718799D01*
X141144790Y-63745016D01*
X140952200Y-63848932D01*
X140950455Y-63850221D01*
X140950447Y-63850226D01*
X140742114Y-64004104D01*
X140730016Y-64013040D01*
X140533171Y-64206817D01*
X140365594Y-64426396D01*
X140230627Y-64667396D01*
X140130964Y-64925009D01*
X140130474Y-64927122D01*
X140130473Y-64927126D01*
X140102730Y-65046820D01*
X140068593Y-65194095D01*
X140044759Y-65469285D01*
X134700500Y-65469285D01*
X134700500Y-63262000D01*
X134718513Y-63218513D01*
X134762000Y-63200500D01*
X143970238Y-63200500D01*
X143984020Y-63202064D01*
X143986308Y-63202590D01*
X143999641Y-63205656D01*
X144006395Y-63204128D01*
X144013321Y-63204140D01*
X144013320Y-63204816D01*
X144024860Y-63204438D01*
X144082933Y-63213636D01*
X144101228Y-63219580D01*
X144158779Y-63248903D01*
X144167363Y-63253277D01*
X144182930Y-63264587D01*
X144235413Y-63317070D01*
X144246723Y-63332637D01*
X144280420Y-63398772D01*
X144286364Y-63417065D01*
X144289894Y-63439350D01*
X144295498Y-63474732D01*
X144295110Y-63485968D01*
X144295908Y-63485969D01*
X144295896Y-63492892D01*
X144294344Y-63499641D01*
X144295872Y-63506394D01*
X144295872Y-63506399D01*
X144297983Y-63515727D01*
X144299500Y-63529300D01*
X144299500Y-99470238D01*
X144297936Y-99484020D01*
X144294344Y-99499641D01*
X144295872Y-99506395D01*
X144295860Y-99513321D01*
X144295184Y-99513320D01*
X144295562Y-99524861D01*
X144286365Y-99582931D01*
X144280420Y-99601228D01*
X144261954Y-99637470D01*
X144246723Y-99667363D01*
X144235413Y-99682930D01*
X144182930Y-99735413D01*
X144167363Y-99746723D01*
X144101228Y-99780420D01*
X144082935Y-99786364D01*
X144025266Y-99795498D01*
X144014032Y-99795110D01*
X144014031Y-99795908D01*
X144007108Y-99795896D01*
X144000359Y-99794344D01*
X143993606Y-99795872D01*
X143993601Y-99795872D01*
X143984273Y-99797983D01*
X143970700Y-99799500D01*
X125261500Y-99799500D01*
X125218013Y-99781487D01*
X125200000Y-99738000D01*
X125200000Y-98850785D01*
X125973493Y-98850785D01*
X125975432Y-98855467D01*
X126024717Y-98888398D01*
X126029653Y-98891079D01*
X126215799Y-98971053D01*
X126221132Y-98972785D01*
X126418729Y-99017498D01*
X126424293Y-99018231D01*
X126626735Y-99026184D01*
X126632340Y-99025891D01*
X126832840Y-98996819D01*
X126838296Y-98995509D01*
X127030139Y-98930387D01*
X127035264Y-98928105D01*
X127161533Y-98857392D01*
X127167328Y-98850040D01*
X127166858Y-98846068D01*
X126578651Y-98257861D01*
X126570000Y-98254278D01*
X126561349Y-98257861D01*
X125977076Y-98842134D01*
X125973493Y-98850785D01*
X125200000Y-98850785D01*
X125200000Y-97863029D01*
X125432721Y-97863029D01*
X125445971Y-98065189D01*
X125446847Y-98070726D01*
X125496719Y-98267096D01*
X125498590Y-98272379D01*
X125583412Y-98456372D01*
X125586215Y-98461226D01*
X125601247Y-98482495D01*
X125609164Y-98487490D01*
X125614509Y-98486281D01*
X126202139Y-97898651D01*
X126205722Y-97890000D01*
X126934278Y-97890000D01*
X126937861Y-97898651D01*
X127522764Y-98483554D01*
X127531415Y-98487137D01*
X127535110Y-98485607D01*
X127608105Y-98355264D01*
X127610387Y-98350139D01*
X127675509Y-98158296D01*
X127676819Y-98152840D01*
X127706035Y-97951341D01*
X127706342Y-97947739D01*
X127707807Y-97891809D01*
X127707688Y-97888197D01*
X127689059Y-97685448D01*
X127688037Y-97679933D01*
X127633043Y-97484943D01*
X127631032Y-97479703D01*
X127625894Y-97469285D01*
X140044759Y-97469285D01*
X140044878Y-97471448D01*
X140044878Y-97471449D01*
X140059132Y-97730433D01*
X140059938Y-97745087D01*
X140060362Y-97747220D01*
X140060363Y-97747226D01*
X140089122Y-97891809D01*
X140113825Y-98015999D01*
X140205347Y-98276616D01*
X140206343Y-98278533D01*
X140206345Y-98278538D01*
X140298723Y-98456372D01*
X140332678Y-98521737D01*
X140493275Y-98746471D01*
X140683936Y-98946335D01*
X140900856Y-99117341D01*
X140902736Y-99118433D01*
X140902739Y-99118435D01*
X141137825Y-99254984D01*
X141139707Y-99256077D01*
X141395723Y-99359774D01*
X141495138Y-99384469D01*
X141550891Y-99398318D01*
X141663796Y-99426364D01*
X141665956Y-99426585D01*
X141665960Y-99426586D01*
X141766316Y-99436868D01*
X141899370Y-99450500D01*
X142070362Y-99450500D01*
X142168106Y-99443579D01*
X142273361Y-99436127D01*
X142273367Y-99436126D01*
X142275530Y-99435973D01*
X142444941Y-99399500D01*
X142543436Y-99378295D01*
X142543440Y-99378294D01*
X142545562Y-99377837D01*
X142710561Y-99316966D01*
X142802669Y-99282986D01*
X142802674Y-99282984D01*
X142804709Y-99282233D01*
X142822944Y-99272394D01*
X143045886Y-99152101D01*
X143045889Y-99152099D01*
X143047800Y-99151068D01*
X143049545Y-99149779D01*
X143049553Y-99149774D01*
X143268231Y-98988255D01*
X143268233Y-98988253D01*
X143269984Y-98986960D01*
X143466829Y-98793183D01*
X143604978Y-98612164D01*
X143633086Y-98575334D01*
X143633088Y-98575331D01*
X143634406Y-98573604D01*
X143769373Y-98332604D01*
X143792673Y-98272379D01*
X143849608Y-98125209D01*
X143869036Y-98074991D01*
X143870025Y-98070726D01*
X143930917Y-97808021D01*
X143930918Y-97808015D01*
X143931407Y-97805905D01*
X143955241Y-97530715D01*
X143951860Y-97469285D01*
X143940182Y-97257088D01*
X143940181Y-97257084D01*
X143940062Y-97254913D01*
X143928396Y-97196259D01*
X143886601Y-96986142D01*
X143886601Y-96986140D01*
X143886175Y-96984001D01*
X143794653Y-96723384D01*
X143765570Y-96667396D01*
X143668323Y-96480190D01*
X143667322Y-96478263D01*
X143506725Y-96253529D01*
X143316064Y-96053665D01*
X143099144Y-95882659D01*
X143039301Y-95847899D01*
X142862175Y-95745016D01*
X142862173Y-95745015D01*
X142860293Y-95743923D01*
X142604277Y-95640226D01*
X142336204Y-95573636D01*
X142334044Y-95573415D01*
X142334040Y-95573414D01*
X142233684Y-95563132D01*
X142100630Y-95549500D01*
X141929638Y-95549500D01*
X141831894Y-95556421D01*
X141726639Y-95563873D01*
X141726633Y-95563874D01*
X141724470Y-95564027D01*
X141589454Y-95593095D01*
X141456564Y-95621705D01*
X141456560Y-95621706D01*
X141454438Y-95622163D01*
X141310087Y-95675417D01*
X141197331Y-95717014D01*
X141197326Y-95717016D01*
X141195291Y-95717767D01*
X141193380Y-95718798D01*
X141193378Y-95718799D01*
X141144790Y-95745016D01*
X140952200Y-95848932D01*
X140950455Y-95850221D01*
X140950447Y-95850226D01*
X140731769Y-96011745D01*
X140730016Y-96013040D01*
X140533171Y-96206817D01*
X140365594Y-96426396D01*
X140230627Y-96667396D01*
X140130964Y-96925009D01*
X140130474Y-96927122D01*
X140130473Y-96927126D01*
X140129907Y-96929571D01*
X140068593Y-97194095D01*
X140044759Y-97469285D01*
X127625894Y-97469285D01*
X127541423Y-97297994D01*
X127539914Y-97295531D01*
X127532422Y-97291074D01*
X127526678Y-97292532D01*
X126937861Y-97881349D01*
X126934278Y-97890000D01*
X126205722Y-97890000D01*
X126202139Y-97881349D01*
X125615870Y-97295080D01*
X125607219Y-97291497D01*
X125603810Y-97292909D01*
X125520074Y-97452064D01*
X125517923Y-97457257D01*
X125457846Y-97650737D01*
X125456680Y-97656224D01*
X125432867Y-97857416D01*
X125432721Y-97863029D01*
X125200000Y-97863029D01*
X125200000Y-96930613D01*
X125973486Y-96930613D01*
X125974107Y-96934897D01*
X126561349Y-97522139D01*
X126570000Y-97525722D01*
X126578651Y-97522139D01*
X127162568Y-96938222D01*
X127166151Y-96929571D01*
X127164358Y-96925242D01*
X127088961Y-96877671D01*
X127083956Y-96875120D01*
X126895787Y-96800048D01*
X126890400Y-96798452D01*
X126691708Y-96758930D01*
X126686117Y-96758342D01*
X126483537Y-96755691D01*
X126477954Y-96756130D01*
X126278275Y-96790441D01*
X126272862Y-96791891D01*
X126082784Y-96862015D01*
X126077719Y-96864431D01*
X125979088Y-96923110D01*
X125973486Y-96930613D01*
X125200000Y-96930613D01*
X125200000Y-94771199D01*
X125883080Y-94771199D01*
X125885150Y-94776197D01*
X125936400Y-94812082D01*
X125941029Y-94814755D01*
X126135663Y-94905515D01*
X126140690Y-94907344D01*
X126348120Y-94962925D01*
X126353390Y-94963854D01*
X126567325Y-94982571D01*
X126572675Y-94982571D01*
X126786610Y-94963854D01*
X126791880Y-94962925D01*
X126999310Y-94907344D01*
X127004337Y-94905515D01*
X127198971Y-94814755D01*
X127203600Y-94812082D01*
X127251967Y-94778216D01*
X127256998Y-94770318D01*
X127255828Y-94765039D01*
X126578651Y-94087861D01*
X126570000Y-94084278D01*
X126561349Y-94087861D01*
X125886663Y-94762548D01*
X125883080Y-94771199D01*
X125200000Y-94771199D01*
X125200000Y-93903336D01*
X125218013Y-93859849D01*
X125261500Y-93841836D01*
X125304987Y-93859849D01*
X125322766Y-93897976D01*
X125326146Y-93936610D01*
X125327075Y-93941880D01*
X125382656Y-94149310D01*
X125384485Y-94154337D01*
X125475245Y-94348970D01*
X125477918Y-94353599D01*
X125511786Y-94401969D01*
X125519680Y-94406998D01*
X125524961Y-94405828D01*
X126202139Y-93728651D01*
X126205722Y-93720000D01*
X126934278Y-93720000D01*
X126937861Y-93728651D01*
X127612548Y-94403337D01*
X127621199Y-94406920D01*
X127626197Y-94404850D01*
X127662082Y-94353599D01*
X127664755Y-94348970D01*
X127755515Y-94154337D01*
X127757344Y-94149310D01*
X127764186Y-94123775D01*
X132792001Y-94123775D01*
X132792164Y-94126937D01*
X132802621Y-94227717D01*
X132804033Y-94234256D01*
X132857775Y-94395343D01*
X132860785Y-94401769D01*
X132950040Y-94546002D01*
X132954442Y-94551556D01*
X133074482Y-94671387D01*
X133080049Y-94675784D01*
X133224434Y-94764784D01*
X133230864Y-94767782D01*
X133392055Y-94821247D01*
X133398581Y-94822646D01*
X133498079Y-94832840D01*
X133501206Y-94833000D01*
X133883766Y-94833000D01*
X133892417Y-94829417D01*
X133896000Y-94820766D01*
X133896000Y-94820765D01*
X134404000Y-94820765D01*
X134407583Y-94829416D01*
X134416234Y-94832999D01*
X134798775Y-94832999D01*
X134801937Y-94832836D01*
X134902717Y-94822379D01*
X134909256Y-94820967D01*
X135070343Y-94767225D01*
X135076769Y-94764215D01*
X135221002Y-94674960D01*
X135226556Y-94670558D01*
X135346387Y-94550518D01*
X135350784Y-94544951D01*
X135439784Y-94400566D01*
X135442782Y-94394136D01*
X135496247Y-94232945D01*
X135497646Y-94226419D01*
X135507840Y-94126921D01*
X135508000Y-94123794D01*
X135508000Y-93666234D01*
X135504417Y-93657583D01*
X135495766Y-93654000D01*
X134416234Y-93654000D01*
X134407583Y-93657583D01*
X134404000Y-93666234D01*
X134404000Y-94820765D01*
X133896000Y-94820765D01*
X133896000Y-93666234D01*
X133892417Y-93657583D01*
X133883766Y-93654000D01*
X132804235Y-93654000D01*
X132795584Y-93657583D01*
X132792001Y-93666234D01*
X132792001Y-94123775D01*
X127764186Y-94123775D01*
X127812925Y-93941880D01*
X127813854Y-93936610D01*
X127832571Y-93722675D01*
X127832571Y-93717325D01*
X127815703Y-93524529D01*
X135674500Y-93524529D01*
X135674657Y-93526072D01*
X135674657Y-93526077D01*
X135687651Y-93654000D01*
X135689496Y-93672163D01*
X135707198Y-93728651D01*
X135747829Y-93858306D01*
X135747831Y-93858310D01*
X135748759Y-93861272D01*
X135844838Y-94034602D01*
X135846864Y-94036966D01*
X135846867Y-94036970D01*
X135971782Y-94182711D01*
X135971785Y-94182714D01*
X135973807Y-94185073D01*
X135976263Y-94186978D01*
X135976264Y-94186979D01*
X136037214Y-94234256D01*
X136130398Y-94306537D01*
X136308214Y-94394034D01*
X136499993Y-94443989D01*
X136598946Y-94449175D01*
X136694787Y-94454197D01*
X136694788Y-94454197D01*
X136697899Y-94454360D01*
X136893848Y-94424726D01*
X136896767Y-94423652D01*
X136896771Y-94423651D01*
X137076910Y-94357372D01*
X137076914Y-94357370D01*
X137079836Y-94356295D01*
X137082483Y-94354654D01*
X137245625Y-94253503D01*
X137245629Y-94253500D01*
X137248266Y-94251865D01*
X137392257Y-94115699D01*
X137394038Y-94113155D01*
X137394041Y-94113152D01*
X137504143Y-93955910D01*
X137504144Y-93955909D01*
X137505927Y-93953362D01*
X137584633Y-93771483D01*
X137595389Y-93720000D01*
X137609177Y-93654000D01*
X137625160Y-93577493D01*
X137625500Y-93571005D01*
X137625500Y-93275471D01*
X137610504Y-93127837D01*
X137578483Y-93025657D01*
X137552171Y-92941694D01*
X137552169Y-92941690D01*
X137551241Y-92938728D01*
X137455162Y-92765398D01*
X137453136Y-92763034D01*
X137453133Y-92763030D01*
X137328218Y-92617289D01*
X137328215Y-92617286D01*
X137326193Y-92614927D01*
X137272890Y-92573581D01*
X137172062Y-92495371D01*
X137172061Y-92495370D01*
X137169602Y-92493463D01*
X137136298Y-92477075D01*
X136994584Y-92407343D01*
X136991786Y-92405966D01*
X136800007Y-92356011D01*
X136701054Y-92350825D01*
X136605213Y-92345803D01*
X136605212Y-92345803D01*
X136602101Y-92345640D01*
X136406152Y-92375274D01*
X136403233Y-92376348D01*
X136403229Y-92376349D01*
X136223090Y-92442628D01*
X136223086Y-92442630D01*
X136220164Y-92443705D01*
X136217518Y-92445345D01*
X136217517Y-92445346D01*
X136054375Y-92546497D01*
X136054371Y-92546500D01*
X136051734Y-92548135D01*
X135907743Y-92684301D01*
X135905962Y-92686845D01*
X135905959Y-92686848D01*
X135795857Y-92844090D01*
X135794073Y-92846638D01*
X135715367Y-93028517D01*
X135714730Y-93031565D01*
X135714729Y-93031569D01*
X135713981Y-93035150D01*
X135674840Y-93222507D01*
X135674500Y-93228995D01*
X135674500Y-93524529D01*
X127815703Y-93524529D01*
X127813854Y-93503390D01*
X127812925Y-93498120D01*
X127757344Y-93290690D01*
X127755515Y-93285663D01*
X127684683Y-93133766D01*
X132792000Y-93133766D01*
X132795583Y-93142417D01*
X132804234Y-93146000D01*
X133883766Y-93146000D01*
X133892417Y-93142417D01*
X133896000Y-93133766D01*
X134404000Y-93133766D01*
X134407583Y-93142417D01*
X134416234Y-93146000D01*
X135495765Y-93146000D01*
X135504416Y-93142417D01*
X135507999Y-93133766D01*
X135507999Y-92676225D01*
X135507836Y-92673063D01*
X135497379Y-92572283D01*
X135495967Y-92565744D01*
X135442225Y-92404657D01*
X135439215Y-92398231D01*
X135349960Y-92253998D01*
X135345558Y-92248444D01*
X135225518Y-92128613D01*
X135219951Y-92124216D01*
X135075566Y-92035216D01*
X135069136Y-92032218D01*
X134907945Y-91978753D01*
X134901419Y-91977354D01*
X134801921Y-91967160D01*
X134798794Y-91967000D01*
X134416234Y-91967000D01*
X134407583Y-91970583D01*
X134404000Y-91979234D01*
X134404000Y-93133766D01*
X133896000Y-93133766D01*
X133896000Y-91979235D01*
X133892417Y-91970584D01*
X133883766Y-91967001D01*
X133501225Y-91967001D01*
X133498063Y-91967164D01*
X133397283Y-91977621D01*
X133390744Y-91979033D01*
X133229657Y-92032775D01*
X133223231Y-92035785D01*
X133078998Y-92125040D01*
X133073444Y-92129442D01*
X132953613Y-92249482D01*
X132949216Y-92255049D01*
X132860216Y-92399434D01*
X132857218Y-92405864D01*
X132803753Y-92567055D01*
X132802354Y-92573581D01*
X132792160Y-92673079D01*
X132792000Y-92676206D01*
X132792000Y-93133766D01*
X127684683Y-93133766D01*
X127664755Y-93091030D01*
X127662082Y-93086401D01*
X127628214Y-93038031D01*
X127620320Y-93033002D01*
X127615039Y-93034172D01*
X126937861Y-93711349D01*
X126934278Y-93720000D01*
X126205722Y-93720000D01*
X126202139Y-93711349D01*
X125527452Y-93036663D01*
X125518801Y-93033080D01*
X125513803Y-93035150D01*
X125477918Y-93086401D01*
X125475245Y-93091030D01*
X125384485Y-93285663D01*
X125382656Y-93290690D01*
X125327075Y-93498120D01*
X125326146Y-93503390D01*
X125322766Y-93542024D01*
X125301031Y-93583776D01*
X125256140Y-93597930D01*
X125214388Y-93576195D01*
X125200000Y-93536664D01*
X125200000Y-92669680D01*
X125883002Y-92669680D01*
X125884172Y-92674961D01*
X126561349Y-93352139D01*
X126570000Y-93355722D01*
X126578651Y-93352139D01*
X127253337Y-92677452D01*
X127256920Y-92668801D01*
X127254850Y-92663803D01*
X127203600Y-92627918D01*
X127198971Y-92625245D01*
X127004337Y-92534485D01*
X126999310Y-92532656D01*
X126791880Y-92477075D01*
X126786610Y-92476146D01*
X126572675Y-92457429D01*
X126567325Y-92457429D01*
X126353390Y-92476146D01*
X126348120Y-92477075D01*
X126140690Y-92532656D01*
X126135663Y-92534485D01*
X125941030Y-92625245D01*
X125936401Y-92627918D01*
X125888031Y-92661786D01*
X125883002Y-92669680D01*
X125200000Y-92669680D01*
X125200000Y-92650000D01*
X119300000Y-92650000D01*
X119300000Y-93536664D01*
X119281987Y-93580151D01*
X119238500Y-93598164D01*
X119195013Y-93580151D01*
X119177234Y-93542024D01*
X119173854Y-93503390D01*
X119172925Y-93498120D01*
X119117344Y-93290690D01*
X119115515Y-93285663D01*
X119024755Y-93091030D01*
X119022082Y-93086401D01*
X118988214Y-93038031D01*
X118980320Y-93033002D01*
X118975039Y-93034172D01*
X118297861Y-93711349D01*
X118294278Y-93720000D01*
X118297861Y-93728651D01*
X118972548Y-94403337D01*
X118981199Y-94406920D01*
X118986197Y-94404850D01*
X119022082Y-94353599D01*
X119024755Y-94348970D01*
X119115515Y-94154337D01*
X119117344Y-94149310D01*
X119172925Y-93941880D01*
X119173854Y-93936610D01*
X119177234Y-93897976D01*
X119198969Y-93856224D01*
X119243860Y-93842070D01*
X119285612Y-93863805D01*
X119300000Y-93903336D01*
X119300000Y-99738000D01*
X119281987Y-99781487D01*
X119238500Y-99799500D01*
X100028236Y-99799500D01*
X99984749Y-99781487D01*
X99966736Y-99738000D01*
X99984749Y-99694513D01*
X99996103Y-99685562D01*
X100074585Y-99637470D01*
X100074589Y-99637467D01*
X100076642Y-99636209D01*
X100117598Y-99601231D01*
X100242618Y-99494457D01*
X100244454Y-99492889D01*
X100257838Y-99477219D01*
X100386212Y-99326918D01*
X100386213Y-99326917D01*
X100387780Y-99325082D01*
X100503092Y-99136920D01*
X100587549Y-98933037D01*
X100639073Y-98718452D01*
X100655735Y-98506829D01*
X100655787Y-98506457D01*
X100655787Y-98506175D01*
X100656020Y-98503216D01*
X100656968Y-98498449D01*
X100653241Y-98479709D01*
X100652060Y-98467713D01*
X100652060Y-98425839D01*
X100670073Y-98382352D01*
X100713560Y-98364339D01*
X100757047Y-98382352D01*
X100768136Y-98397489D01*
X100832678Y-98521737D01*
X100993275Y-98746471D01*
X101183936Y-98946335D01*
X101400856Y-99117341D01*
X101402736Y-99118433D01*
X101402739Y-99118435D01*
X101637825Y-99254984D01*
X101639707Y-99256077D01*
X101895723Y-99359774D01*
X101995138Y-99384469D01*
X102050891Y-99398318D01*
X102163796Y-99426364D01*
X102165956Y-99426585D01*
X102165960Y-99426586D01*
X102266316Y-99436868D01*
X102399370Y-99450500D01*
X102570362Y-99450500D01*
X102668106Y-99443579D01*
X102773361Y-99436127D01*
X102773367Y-99436126D01*
X102775530Y-99435973D01*
X102944941Y-99399500D01*
X103043436Y-99378295D01*
X103043440Y-99378294D01*
X103045562Y-99377837D01*
X103210561Y-99316966D01*
X103302669Y-99282986D01*
X103302674Y-99282984D01*
X103304709Y-99282233D01*
X103322944Y-99272394D01*
X103545886Y-99152101D01*
X103545889Y-99152099D01*
X103547800Y-99151068D01*
X103549545Y-99149779D01*
X103549553Y-99149774D01*
X103768231Y-98988255D01*
X103768233Y-98988253D01*
X103769984Y-98986960D01*
X103908315Y-98850785D01*
X117333493Y-98850785D01*
X117335432Y-98855467D01*
X117384717Y-98888398D01*
X117389653Y-98891079D01*
X117575799Y-98971053D01*
X117581132Y-98972785D01*
X117778729Y-99017498D01*
X117784293Y-99018231D01*
X117986735Y-99026184D01*
X117992340Y-99025891D01*
X118192840Y-98996819D01*
X118198296Y-98995509D01*
X118390139Y-98930387D01*
X118395264Y-98928105D01*
X118521533Y-98857392D01*
X118527328Y-98850040D01*
X118526858Y-98846068D01*
X117938651Y-98257861D01*
X117930000Y-98254278D01*
X117921349Y-98257861D01*
X117337076Y-98842134D01*
X117333493Y-98850785D01*
X103908315Y-98850785D01*
X103966829Y-98793183D01*
X104104978Y-98612164D01*
X104133086Y-98575334D01*
X104133088Y-98575331D01*
X104134406Y-98573604D01*
X104269373Y-98332604D01*
X104292673Y-98272379D01*
X104349608Y-98125209D01*
X104369036Y-98074991D01*
X104370025Y-98070726D01*
X104418167Y-97863029D01*
X116792721Y-97863029D01*
X116805971Y-98065189D01*
X116806847Y-98070726D01*
X116856719Y-98267096D01*
X116858590Y-98272379D01*
X116943412Y-98456372D01*
X116946215Y-98461226D01*
X116961247Y-98482495D01*
X116969164Y-98487490D01*
X116974509Y-98486281D01*
X117562139Y-97898651D01*
X117565722Y-97890000D01*
X118294278Y-97890000D01*
X118297861Y-97898651D01*
X118882764Y-98483554D01*
X118891415Y-98487137D01*
X118895110Y-98485607D01*
X118968105Y-98355264D01*
X118970387Y-98350139D01*
X119035509Y-98158296D01*
X119036819Y-98152840D01*
X119066035Y-97951341D01*
X119066342Y-97947739D01*
X119067807Y-97891809D01*
X119067688Y-97888197D01*
X119049059Y-97685448D01*
X119048037Y-97679933D01*
X118993043Y-97484943D01*
X118991032Y-97479703D01*
X118901423Y-97297994D01*
X118899914Y-97295531D01*
X118892422Y-97291074D01*
X118886678Y-97292532D01*
X118297861Y-97881349D01*
X118294278Y-97890000D01*
X117565722Y-97890000D01*
X117562139Y-97881349D01*
X116975870Y-97295080D01*
X116967219Y-97291497D01*
X116963810Y-97292909D01*
X116880074Y-97452064D01*
X116877923Y-97457257D01*
X116817846Y-97650737D01*
X116816680Y-97656224D01*
X116792867Y-97857416D01*
X116792721Y-97863029D01*
X104418167Y-97863029D01*
X104430917Y-97808021D01*
X104430918Y-97808015D01*
X104431407Y-97805905D01*
X104455241Y-97530715D01*
X104451860Y-97469285D01*
X104440182Y-97257088D01*
X104440181Y-97257084D01*
X104440062Y-97254913D01*
X104428396Y-97196259D01*
X104386601Y-96986142D01*
X104386601Y-96986140D01*
X104386175Y-96984001D01*
X104367427Y-96930613D01*
X117333486Y-96930613D01*
X117334107Y-96934897D01*
X117921349Y-97522139D01*
X117930000Y-97525722D01*
X117938651Y-97522139D01*
X118522568Y-96938222D01*
X118526151Y-96929571D01*
X118524358Y-96925242D01*
X118448961Y-96877671D01*
X118443956Y-96875120D01*
X118255787Y-96800048D01*
X118250400Y-96798452D01*
X118051708Y-96758930D01*
X118046117Y-96758342D01*
X117843537Y-96755691D01*
X117837954Y-96756130D01*
X117638275Y-96790441D01*
X117632862Y-96791891D01*
X117442784Y-96862015D01*
X117437719Y-96864431D01*
X117339088Y-96923110D01*
X117333486Y-96930613D01*
X104367427Y-96930613D01*
X104294653Y-96723384D01*
X104265570Y-96667396D01*
X104168323Y-96480190D01*
X104167322Y-96478263D01*
X104006725Y-96253529D01*
X103816064Y-96053665D01*
X103599144Y-95882659D01*
X103539301Y-95847899D01*
X103362175Y-95745016D01*
X103362173Y-95745015D01*
X103360293Y-95743923D01*
X103104277Y-95640226D01*
X102836204Y-95573636D01*
X102834044Y-95573415D01*
X102834040Y-95573414D01*
X102733684Y-95563132D01*
X102600630Y-95549500D01*
X102429638Y-95549500D01*
X102331894Y-95556421D01*
X102226639Y-95563873D01*
X102226633Y-95563874D01*
X102224470Y-95564027D01*
X102089454Y-95593095D01*
X101956564Y-95621705D01*
X101956560Y-95621706D01*
X101954438Y-95622163D01*
X101810087Y-95675417D01*
X101697331Y-95717014D01*
X101697326Y-95717016D01*
X101695291Y-95717767D01*
X101693380Y-95718798D01*
X101693378Y-95718799D01*
X101644790Y-95745016D01*
X101452200Y-95848932D01*
X101450455Y-95850221D01*
X101450447Y-95850226D01*
X101231769Y-96011745D01*
X101230016Y-96013040D01*
X101033171Y-96206817D01*
X100865594Y-96426396D01*
X100864529Y-96428298D01*
X100767218Y-96602058D01*
X100730253Y-96631199D01*
X100683510Y-96625666D01*
X100654369Y-96588701D01*
X100652060Y-96572008D01*
X100652060Y-94123775D01*
X106392001Y-94123775D01*
X106392164Y-94126937D01*
X106402621Y-94227717D01*
X106404033Y-94234256D01*
X106457775Y-94395343D01*
X106460785Y-94401769D01*
X106550040Y-94546002D01*
X106554442Y-94551556D01*
X106674482Y-94671387D01*
X106680049Y-94675784D01*
X106824434Y-94764784D01*
X106830864Y-94767782D01*
X106992055Y-94821247D01*
X106998581Y-94822646D01*
X107098079Y-94832840D01*
X107101206Y-94833000D01*
X107483766Y-94833000D01*
X107492417Y-94829417D01*
X107496000Y-94820766D01*
X107496000Y-94820765D01*
X108004000Y-94820765D01*
X108007583Y-94829416D01*
X108016234Y-94832999D01*
X108398775Y-94832999D01*
X108401937Y-94832836D01*
X108502717Y-94822379D01*
X108509256Y-94820967D01*
X108658431Y-94771199D01*
X117243080Y-94771199D01*
X117245150Y-94776197D01*
X117296400Y-94812082D01*
X117301029Y-94814755D01*
X117495663Y-94905515D01*
X117500690Y-94907344D01*
X117708120Y-94962925D01*
X117713390Y-94963854D01*
X117927325Y-94982571D01*
X117932675Y-94982571D01*
X118146610Y-94963854D01*
X118151880Y-94962925D01*
X118359310Y-94907344D01*
X118364337Y-94905515D01*
X118558971Y-94814755D01*
X118563600Y-94812082D01*
X118611967Y-94778216D01*
X118616998Y-94770318D01*
X118615828Y-94765039D01*
X117938651Y-94087861D01*
X117930000Y-94084278D01*
X117921349Y-94087861D01*
X117246663Y-94762548D01*
X117243080Y-94771199D01*
X108658431Y-94771199D01*
X108670343Y-94767225D01*
X108676769Y-94764215D01*
X108821002Y-94674960D01*
X108826556Y-94670558D01*
X108946387Y-94550518D01*
X108950784Y-94544951D01*
X109039784Y-94400566D01*
X109042782Y-94394136D01*
X109096247Y-94232945D01*
X109097646Y-94226419D01*
X109107840Y-94126921D01*
X109108000Y-94123794D01*
X109108000Y-93666234D01*
X109104417Y-93657583D01*
X109095766Y-93654000D01*
X108016234Y-93654000D01*
X108007583Y-93657583D01*
X108004000Y-93666234D01*
X108004000Y-94820765D01*
X107496000Y-94820765D01*
X107496000Y-93666234D01*
X107492417Y-93657583D01*
X107483766Y-93654000D01*
X106404235Y-93654000D01*
X106395584Y-93657583D01*
X106392001Y-93666234D01*
X106392001Y-94123775D01*
X100652060Y-94123775D01*
X100652060Y-93524529D01*
X109274500Y-93524529D01*
X109274657Y-93526072D01*
X109274657Y-93526077D01*
X109287651Y-93654000D01*
X109289496Y-93672163D01*
X109307198Y-93728651D01*
X109347829Y-93858306D01*
X109347831Y-93858310D01*
X109348759Y-93861272D01*
X109444838Y-94034602D01*
X109446864Y-94036966D01*
X109446867Y-94036970D01*
X109571782Y-94182711D01*
X109571785Y-94182714D01*
X109573807Y-94185073D01*
X109576263Y-94186978D01*
X109576264Y-94186979D01*
X109637214Y-94234256D01*
X109730398Y-94306537D01*
X109908214Y-94394034D01*
X110099993Y-94443989D01*
X110198946Y-94449175D01*
X110294787Y-94454197D01*
X110294788Y-94454197D01*
X110297899Y-94454360D01*
X110493848Y-94424726D01*
X110496767Y-94423652D01*
X110496771Y-94423651D01*
X110676910Y-94357372D01*
X110676914Y-94357370D01*
X110679836Y-94356295D01*
X110682483Y-94354654D01*
X110845625Y-94253503D01*
X110845629Y-94253500D01*
X110848266Y-94251865D01*
X110992257Y-94115699D01*
X110994038Y-94113155D01*
X110994041Y-94113152D01*
X111104143Y-93955910D01*
X111104144Y-93955909D01*
X111105927Y-93953362D01*
X111184633Y-93771483D01*
X111195389Y-93720000D01*
X111209177Y-93654000D01*
X111225160Y-93577493D01*
X111225500Y-93571005D01*
X111225500Y-93524529D01*
X111774500Y-93524529D01*
X111774657Y-93526072D01*
X111774657Y-93526077D01*
X111787651Y-93654000D01*
X111789496Y-93672163D01*
X111807198Y-93728651D01*
X111847829Y-93858306D01*
X111847831Y-93858310D01*
X111848759Y-93861272D01*
X111944838Y-94034602D01*
X111946864Y-94036966D01*
X111946867Y-94036970D01*
X112071782Y-94182711D01*
X112071785Y-94182714D01*
X112073807Y-94185073D01*
X112076263Y-94186978D01*
X112076264Y-94186979D01*
X112137214Y-94234256D01*
X112230398Y-94306537D01*
X112408214Y-94394034D01*
X112599993Y-94443989D01*
X112698946Y-94449175D01*
X112794787Y-94454197D01*
X112794788Y-94454197D01*
X112797899Y-94454360D01*
X112993848Y-94424726D01*
X112996767Y-94423652D01*
X112996771Y-94423651D01*
X113176910Y-94357372D01*
X113176914Y-94357370D01*
X113179836Y-94356295D01*
X113182483Y-94354654D01*
X113345625Y-94253503D01*
X113345629Y-94253500D01*
X113348266Y-94251865D01*
X113492257Y-94115699D01*
X113494038Y-94113155D01*
X113494041Y-94113152D01*
X113604143Y-93955910D01*
X113604144Y-93955909D01*
X113605927Y-93953362D01*
X113684633Y-93771483D01*
X113694830Y-93722675D01*
X116667429Y-93722675D01*
X116686146Y-93936610D01*
X116687075Y-93941880D01*
X116742656Y-94149310D01*
X116744485Y-94154337D01*
X116835245Y-94348970D01*
X116837918Y-94353599D01*
X116871786Y-94401969D01*
X116879680Y-94406998D01*
X116884961Y-94405828D01*
X117562139Y-93728651D01*
X117565722Y-93720000D01*
X117562139Y-93711349D01*
X116887452Y-93036663D01*
X116878801Y-93033080D01*
X116873803Y-93035150D01*
X116837918Y-93086401D01*
X116835245Y-93091030D01*
X116744485Y-93285663D01*
X116742656Y-93290690D01*
X116687075Y-93498120D01*
X116686146Y-93503390D01*
X116667429Y-93717325D01*
X116667429Y-93722675D01*
X113694830Y-93722675D01*
X113695389Y-93720000D01*
X113709177Y-93654000D01*
X113725160Y-93577493D01*
X113725500Y-93571005D01*
X113725500Y-93275471D01*
X113710504Y-93127837D01*
X113678483Y-93025657D01*
X113652171Y-92941694D01*
X113652169Y-92941690D01*
X113651241Y-92938728D01*
X113555162Y-92765398D01*
X113553136Y-92763034D01*
X113553133Y-92763030D01*
X113473122Y-92669680D01*
X117243002Y-92669680D01*
X117244172Y-92674961D01*
X117921349Y-93352139D01*
X117930000Y-93355722D01*
X117938651Y-93352139D01*
X118613337Y-92677452D01*
X118616920Y-92668801D01*
X118614850Y-92663803D01*
X118563600Y-92627918D01*
X118558971Y-92625245D01*
X118364337Y-92534485D01*
X118359310Y-92532656D01*
X118151880Y-92477075D01*
X118146610Y-92476146D01*
X117932675Y-92457429D01*
X117927325Y-92457429D01*
X117713390Y-92476146D01*
X117708120Y-92477075D01*
X117500690Y-92532656D01*
X117495663Y-92534485D01*
X117301030Y-92625245D01*
X117296401Y-92627918D01*
X117248031Y-92661786D01*
X117243002Y-92669680D01*
X113473122Y-92669680D01*
X113428218Y-92617289D01*
X113428215Y-92617286D01*
X113426193Y-92614927D01*
X113372890Y-92573581D01*
X113272062Y-92495371D01*
X113272061Y-92495370D01*
X113269602Y-92493463D01*
X113266806Y-92492087D01*
X113166027Y-92442497D01*
X113134961Y-92407135D01*
X113133314Y-92373236D01*
X113136795Y-92358435D01*
X113158254Y-92267198D01*
X113159802Y-92261757D01*
X113279802Y-91903724D01*
X113281854Y-91898428D01*
X113322366Y-91806678D01*
X113434376Y-91553000D01*
X113436898Y-91547935D01*
X113620643Y-91218050D01*
X113623633Y-91213221D01*
X113660388Y-91159565D01*
X113837023Y-90901711D01*
X113840443Y-90897182D01*
X113841421Y-90896005D01*
X113921142Y-90800000D01*
X119269965Y-90800000D01*
X119288026Y-90937183D01*
X119340976Y-91065017D01*
X119425209Y-91174791D01*
X119534982Y-91259024D01*
X119538702Y-91260565D01*
X119538704Y-91260566D01*
X119578972Y-91277245D01*
X119662817Y-91311974D01*
X119800000Y-91330035D01*
X119937183Y-91311974D01*
X120021028Y-91277245D01*
X120061296Y-91260566D01*
X120061298Y-91260565D01*
X120065018Y-91259024D01*
X120124709Y-91213221D01*
X120157305Y-91188209D01*
X120194744Y-91175500D01*
X124205256Y-91175500D01*
X124242695Y-91188209D01*
X124275291Y-91213221D01*
X124334982Y-91259024D01*
X124338702Y-91260565D01*
X124338704Y-91260566D01*
X124378972Y-91277245D01*
X124462817Y-91311974D01*
X124600000Y-91330035D01*
X124737183Y-91311974D01*
X124821028Y-91277245D01*
X124861296Y-91260566D01*
X124861298Y-91260565D01*
X124865018Y-91259024D01*
X124974791Y-91174791D01*
X125059024Y-91065017D01*
X125111974Y-90937183D01*
X125130035Y-90800000D01*
X125111974Y-90662817D01*
X125096492Y-90625439D01*
X125060566Y-90538705D01*
X125060565Y-90538703D01*
X125059024Y-90534983D01*
X124974791Y-90425209D01*
X124865018Y-90340976D01*
X124861298Y-90339435D01*
X124861296Y-90339434D01*
X124753001Y-90294578D01*
X124737183Y-90288026D01*
X124600000Y-90269965D01*
X124462817Y-90288026D01*
X124446999Y-90294578D01*
X124338705Y-90339434D01*
X124338703Y-90339435D01*
X124334983Y-90340976D01*
X124249099Y-90406878D01*
X124242696Y-90411791D01*
X124205257Y-90424500D01*
X120194744Y-90424500D01*
X120157305Y-90411791D01*
X120068216Y-90343430D01*
X120065018Y-90340976D01*
X120061298Y-90339435D01*
X120061296Y-90339434D01*
X119953001Y-90294578D01*
X119937183Y-90288026D01*
X119800000Y-90269965D01*
X119662817Y-90288026D01*
X119646999Y-90294578D01*
X119538705Y-90339434D01*
X119538703Y-90339435D01*
X119534983Y-90340976D01*
X119425209Y-90425209D01*
X119340976Y-90534983D01*
X119339435Y-90538703D01*
X119339434Y-90538705D01*
X119303508Y-90625439D01*
X119288026Y-90662817D01*
X119269965Y-90800000D01*
X113921142Y-90800000D01*
X114058169Y-90634983D01*
X114081666Y-90606687D01*
X114085493Y-90602489D01*
X114352489Y-90335493D01*
X114356687Y-90331666D01*
X114515381Y-90199889D01*
X114647185Y-90090441D01*
X114651715Y-90087020D01*
X114665305Y-90077711D01*
X114963223Y-89873632D01*
X114968051Y-89870642D01*
X114991884Y-89857367D01*
X115297935Y-89686898D01*
X115303000Y-89684376D01*
X115648428Y-89531854D01*
X115653725Y-89529802D01*
X116011757Y-89409802D01*
X116017198Y-89408254D01*
X116269672Y-89348873D01*
X116384760Y-89321805D01*
X116390343Y-89320761D01*
X116764318Y-89268594D01*
X116769975Y-89268070D01*
X116986312Y-89258068D01*
X117122491Y-89251772D01*
X117137327Y-89252888D01*
X117144057Y-89254227D01*
X117144062Y-89254227D01*
X117150000Y-89255408D01*
X117168731Y-89251682D01*
X117180730Y-89250500D01*
X122269270Y-89250500D01*
X122281268Y-89251682D01*
X122287331Y-89252888D01*
X122300000Y-89255408D01*
X122304619Y-89254489D01*
X122308632Y-89254226D01*
X122308634Y-89254227D01*
X122308648Y-89254225D01*
X122392734Y-89248714D01*
X122561678Y-89237641D01*
X122563659Y-89237247D01*
X122816903Y-89186873D01*
X122816905Y-89186872D01*
X122818878Y-89186480D01*
X122820780Y-89185834D01*
X122820785Y-89185833D01*
X123065293Y-89102834D01*
X123065297Y-89102832D01*
X123067201Y-89102186D01*
X123222154Y-89025772D01*
X123300592Y-88987091D01*
X123300596Y-88987088D01*
X123302396Y-88986201D01*
X123484737Y-88864364D01*
X123518764Y-88841628D01*
X123518765Y-88841627D01*
X123520440Y-88840508D01*
X123521949Y-88839184D01*
X123521955Y-88839180D01*
X123716090Y-88668928D01*
X123717602Y-88667602D01*
X123764616Y-88613993D01*
X123889180Y-88471955D01*
X123889184Y-88471949D01*
X123890508Y-88470440D01*
X123922902Y-88421960D01*
X123999474Y-88307361D01*
X124036201Y-88252396D01*
X124038924Y-88246876D01*
X124132981Y-88056145D01*
X124152186Y-88017201D01*
X124153961Y-88011974D01*
X124235829Y-87770796D01*
X124235829Y-87770795D01*
X124236480Y-87768878D01*
X124236768Y-87767430D01*
X124265366Y-87730161D01*
X124272581Y-87726602D01*
X124289687Y-87719516D01*
X124315018Y-87709024D01*
X124424791Y-87624791D01*
X124465566Y-87571652D01*
X124501701Y-87524561D01*
X124542465Y-87501026D01*
X124550492Y-87500500D01*
X128969270Y-87500500D01*
X128981269Y-87501682D01*
X129000000Y-87505408D01*
X129005938Y-87504227D01*
X129005941Y-87504227D01*
X129009757Y-87503468D01*
X129015724Y-87502583D01*
X129061398Y-87498084D01*
X129147124Y-87489641D01*
X129288593Y-87446726D01*
X129418973Y-87377037D01*
X129421309Y-87375120D01*
X129530696Y-87285348D01*
X129561683Y-87271914D01*
X129630392Y-87262868D01*
X129637183Y-87261974D01*
X129651746Y-87255942D01*
X129761296Y-87210566D01*
X129761298Y-87210565D01*
X129765018Y-87209024D01*
X129831302Y-87158162D01*
X129871593Y-87127245D01*
X129874791Y-87124791D01*
X129959024Y-87015017D01*
X129965452Y-86999500D01*
X130010431Y-86890908D01*
X130011974Y-86887183D01*
X130030035Y-86750000D01*
X130011974Y-86612817D01*
X129991360Y-86563050D01*
X129960566Y-86488705D01*
X129960565Y-86488703D01*
X129959024Y-86484983D01*
X129874791Y-86375209D01*
X129774561Y-86298298D01*
X129751026Y-86257535D01*
X129750500Y-86249508D01*
X129750500Y-81861576D01*
X134194945Y-81861576D01*
X134209223Y-81960203D01*
X134212316Y-81965405D01*
X134212317Y-81965407D01*
X134240757Y-82013235D01*
X134247299Y-82024236D01*
X135406551Y-83312294D01*
X135880480Y-83838882D01*
X135896182Y-83883255D01*
X135881461Y-83920047D01*
X135683284Y-84151254D01*
X134243749Y-85830711D01*
X134242268Y-85833345D01*
X134214232Y-85883200D01*
X134207233Y-85895645D01*
X134206511Y-85901657D01*
X134206510Y-85901659D01*
X134202237Y-85937221D01*
X134195344Y-85994589D01*
X134196978Y-86000421D01*
X134196978Y-86000424D01*
X134204938Y-86028838D01*
X134222226Y-86090550D01*
X134283783Y-86168920D01*
X134289063Y-86171889D01*
X134289064Y-86171890D01*
X134312953Y-86185324D01*
X134370645Y-86217767D01*
X134376657Y-86218489D01*
X134376659Y-86218490D01*
X134421053Y-86223824D01*
X134469589Y-86229656D01*
X134475421Y-86228022D01*
X134475424Y-86228022D01*
X134539488Y-86210075D01*
X134565550Y-86202774D01*
X134624136Y-86156757D01*
X135891306Y-84678392D01*
X135933283Y-84657097D01*
X135978024Y-84671722D01*
X135999500Y-84718416D01*
X135999500Y-85944270D01*
X135998318Y-85956268D01*
X135994592Y-85975000D01*
X135995756Y-85980854D01*
X135995773Y-85981038D01*
X135995773Y-85982123D01*
X135996049Y-85984020D01*
X136012322Y-86159629D01*
X136013099Y-86162360D01*
X136013100Y-86162365D01*
X136033318Y-86233423D01*
X136063065Y-86337971D01*
X136064331Y-86340514D01*
X136064332Y-86340516D01*
X136082101Y-86376201D01*
X136145714Y-86503952D01*
X136147427Y-86506220D01*
X136147428Y-86506222D01*
X136203143Y-86580000D01*
X136257454Y-86651920D01*
X136394481Y-86776837D01*
X136396896Y-86778333D01*
X136396897Y-86778333D01*
X136549394Y-86872755D01*
X136552128Y-86874448D01*
X136554783Y-86875477D01*
X136554786Y-86875478D01*
X136716057Y-86937954D01*
X136725027Y-86941429D01*
X136727817Y-86941950D01*
X136727822Y-86941952D01*
X136832579Y-86961534D01*
X136907290Y-86975500D01*
X137092710Y-86975500D01*
X137167421Y-86961534D01*
X137272178Y-86941952D01*
X137272183Y-86941950D01*
X137274973Y-86941429D01*
X137283943Y-86937954D01*
X137445214Y-86875478D01*
X137445217Y-86875477D01*
X137447872Y-86874448D01*
X137450607Y-86872755D01*
X137603103Y-86778333D01*
X137603104Y-86778333D01*
X137605519Y-86776837D01*
X137742546Y-86651920D01*
X137796857Y-86580000D01*
X137852572Y-86506222D01*
X137852573Y-86506220D01*
X137854286Y-86503952D01*
X137917899Y-86376201D01*
X137935668Y-86340516D01*
X137935669Y-86340514D01*
X137936935Y-86337971D01*
X137966682Y-86233423D01*
X137986900Y-86162365D01*
X137986901Y-86162360D01*
X137987678Y-86159629D01*
X138003951Y-85984020D01*
X138004227Y-85982123D01*
X138004227Y-85981038D01*
X138004244Y-85980854D01*
X138005408Y-85975000D01*
X137985966Y-85877260D01*
X137930601Y-85794399D01*
X137847740Y-85739034D01*
X137750000Y-85719592D01*
X137652260Y-85739034D01*
X137569399Y-85794399D01*
X137566034Y-85799435D01*
X137566033Y-85799436D01*
X137556604Y-85813548D01*
X137517467Y-85839700D01*
X137471302Y-85830518D01*
X137449483Y-85804837D01*
X137418006Y-85735608D01*
X137418006Y-85735607D01*
X137416194Y-85731623D01*
X137405828Y-85719592D01*
X137332014Y-85633927D01*
X137329155Y-85630609D01*
X137217263Y-85558084D01*
X137213067Y-85556829D01*
X137093710Y-85521134D01*
X137093709Y-85521134D01*
X137089513Y-85519879D01*
X137085133Y-85519852D01*
X137085131Y-85519852D01*
X137021950Y-85519466D01*
X136956175Y-85519064D01*
X136951959Y-85520269D01*
X136832179Y-85554502D01*
X136832178Y-85554503D01*
X136827967Y-85555706D01*
X136715198Y-85626858D01*
X136712299Y-85630140D01*
X136712296Y-85630143D01*
X136632594Y-85720390D01*
X136626931Y-85726802D01*
X136621188Y-85739034D01*
X136617670Y-85746527D01*
X136582883Y-85778236D01*
X136535863Y-85776060D01*
X136504154Y-85741273D01*
X136500500Y-85720390D01*
X136500500Y-84187000D01*
X136518513Y-84143513D01*
X136562000Y-84125500D01*
X137589439Y-84125500D01*
X137632926Y-84143513D01*
X137639482Y-84151252D01*
X139060501Y-86140678D01*
X139062704Y-86142747D01*
X139062706Y-86142750D01*
X139110382Y-86187540D01*
X139110384Y-86187541D01*
X139114797Y-86191687D01*
X139120463Y-86193829D01*
X139120464Y-86193830D01*
X139202345Y-86224791D01*
X139202347Y-86224791D01*
X139208011Y-86226933D01*
X139307618Y-86223824D01*
X139313137Y-86221333D01*
X139313139Y-86221333D01*
X139386163Y-86188380D01*
X139398453Y-86182834D01*
X139403596Y-86177360D01*
X139462540Y-86114618D01*
X139462541Y-86114616D01*
X139466687Y-86110203D01*
X139476324Y-86084717D01*
X139499791Y-86022655D01*
X139499791Y-86022653D01*
X139501933Y-86016989D01*
X139498824Y-85917382D01*
X139486633Y-85890365D01*
X139469424Y-85852231D01*
X139468182Y-85849478D01*
X138751681Y-84846376D01*
X137956670Y-83733360D01*
X137955580Y-83731782D01*
X137933966Y-83699435D01*
X137930601Y-83694399D01*
X137927907Y-83692599D01*
X137925657Y-83689943D01*
X136456671Y-81633361D01*
X136455581Y-81631783D01*
X136433966Y-81599435D01*
X136430601Y-81594399D01*
X136418817Y-81586525D01*
X136410640Y-81581061D01*
X136402700Y-81574750D01*
X136389618Y-81562461D01*
X136385203Y-81558313D01*
X136371941Y-81553299D01*
X136359527Y-81546910D01*
X136352778Y-81542400D01*
X136352777Y-81542400D01*
X136347740Y-81539034D01*
X136341799Y-81537852D01*
X136341796Y-81537851D01*
X136326947Y-81534898D01*
X136324198Y-81534351D01*
X136314454Y-81531562D01*
X136291989Y-81523067D01*
X136285937Y-81523256D01*
X136285416Y-81523272D01*
X136277818Y-81523510D01*
X136263907Y-81522359D01*
X136250000Y-81519592D01*
X136226455Y-81524275D01*
X136216380Y-81525427D01*
X136192382Y-81526176D01*
X136179462Y-81532007D01*
X136166167Y-81536267D01*
X136158204Y-81537851D01*
X136158200Y-81537852D01*
X136152260Y-81539034D01*
X136134630Y-81550814D01*
X136132301Y-81552370D01*
X136123429Y-81557291D01*
X136101547Y-81567166D01*
X136091838Y-81577501D01*
X136081189Y-81586522D01*
X136069399Y-81594399D01*
X136066034Y-81599435D01*
X136066033Y-81599436D01*
X136056061Y-81614360D01*
X136049750Y-81622300D01*
X136033313Y-81639797D01*
X136031171Y-81645462D01*
X136028299Y-81653058D01*
X136021910Y-81665473D01*
X136018455Y-81670644D01*
X136014034Y-81677260D01*
X136012852Y-81683201D01*
X136012851Y-81683204D01*
X136009352Y-81700799D01*
X136006562Y-81710546D01*
X135998067Y-81733011D01*
X135998488Y-81746493D01*
X135999470Y-81777961D01*
X135999500Y-81779880D01*
X135999500Y-83061941D01*
X135981487Y-83105428D01*
X135938000Y-83123441D01*
X135892287Y-83103082D01*
X135016301Y-82129764D01*
X134619689Y-81689084D01*
X134611819Y-81683204D01*
X134564859Y-81648121D01*
X134560008Y-81644497D01*
X134463424Y-81619945D01*
X134364797Y-81634223D01*
X134359595Y-81637316D01*
X134359593Y-81637317D01*
X134284345Y-81682062D01*
X134284343Y-81682064D01*
X134279141Y-81685157D01*
X134219497Y-81764992D01*
X134194945Y-81861576D01*
X129750500Y-81861576D01*
X129750500Y-74780730D01*
X129751682Y-74768732D01*
X129754226Y-74755944D01*
X129754226Y-74755942D01*
X129755408Y-74750000D01*
X129754922Y-74747558D01*
X129736805Y-74448047D01*
X129736253Y-74445030D01*
X129682611Y-74152320D01*
X129682611Y-74152318D01*
X129682277Y-74150498D01*
X129592281Y-73861690D01*
X129468129Y-73585836D01*
X129456969Y-73567374D01*
X129368532Y-73421083D01*
X129311632Y-73326958D01*
X129125072Y-73088831D01*
X128911169Y-72874928D01*
X128673042Y-72688368D01*
X128434253Y-72544015D01*
X128415754Y-72532832D01*
X128415752Y-72532831D01*
X128414164Y-72531871D01*
X128138310Y-72407719D01*
X127945516Y-72347642D01*
X127851277Y-72318276D01*
X127851275Y-72318276D01*
X127849502Y-72317723D01*
X127847682Y-72317389D01*
X127847680Y-72317389D01*
X127553778Y-72263529D01*
X127553771Y-72263528D01*
X127551953Y-72263195D01*
X127252442Y-72245078D01*
X127250000Y-72244592D01*
X127244058Y-72245774D01*
X127244056Y-72245774D01*
X127231268Y-72248318D01*
X127219270Y-72249500D01*
X125884294Y-72249500D01*
X125872295Y-72248318D01*
X125853567Y-72244592D01*
X125847629Y-72245773D01*
X125847621Y-72245773D01*
X125846008Y-72246094D01*
X125827985Y-72246979D01*
X125781052Y-72242355D01*
X125741939Y-72238500D01*
X125730121Y-72236149D01*
X125628586Y-72205344D01*
X125617449Y-72200731D01*
X125523871Y-72150710D01*
X125513848Y-72144012D01*
X125446964Y-72089121D01*
X125434844Y-72075749D01*
X125433966Y-72074435D01*
X125430601Y-72069399D01*
X125414716Y-72058785D01*
X125405397Y-72051137D01*
X125302418Y-71948158D01*
X125294769Y-71938838D01*
X125287521Y-71927990D01*
X125287520Y-71927989D01*
X125284156Y-71922954D01*
X125276179Y-71917624D01*
X125269811Y-71912737D01*
X125183913Y-71837406D01*
X125140755Y-71799557D01*
X125140749Y-71799553D01*
X125139240Y-71798229D01*
X124980368Y-71692074D01*
X124978568Y-71691186D01*
X124978564Y-71691184D01*
X124810803Y-71608453D01*
X124810801Y-71608452D01*
X124809000Y-71607564D01*
X124628067Y-71546145D01*
X124440665Y-71508868D01*
X124267367Y-71497509D01*
X124259392Y-71496460D01*
X124255939Y-71495773D01*
X124255938Y-71495773D01*
X124250000Y-71494592D01*
X124233518Y-71497870D01*
X124231268Y-71498318D01*
X124219270Y-71499500D01*
X118080235Y-71499500D01*
X118042796Y-71486791D01*
X118018216Y-71467930D01*
X118015018Y-71465476D01*
X118011298Y-71463935D01*
X118011296Y-71463934D01*
X117890908Y-71414069D01*
X117890909Y-71414069D01*
X117887183Y-71412526D01*
X117750000Y-71394465D01*
X117612817Y-71412526D01*
X117609092Y-71414069D01*
X117488705Y-71463934D01*
X117488703Y-71463935D01*
X117484983Y-71465476D01*
X117375209Y-71549709D01*
X117290976Y-71659483D01*
X117289435Y-71663203D01*
X117289434Y-71663205D01*
X117256867Y-71741831D01*
X117238026Y-71787317D01*
X117219965Y-71924500D01*
X117238026Y-72061683D01*
X117239568Y-72065406D01*
X117239569Y-72065408D01*
X117288358Y-72183196D01*
X117290976Y-72189517D01*
X117375209Y-72299291D01*
X117378407Y-72301745D01*
X117395611Y-72314946D01*
X117484982Y-72383524D01*
X117488702Y-72385065D01*
X117488704Y-72385066D01*
X117571190Y-72419232D01*
X117612817Y-72436474D01*
X117750000Y-72454535D01*
X117887183Y-72436474D01*
X117928810Y-72419232D01*
X118011296Y-72385066D01*
X118011298Y-72385065D01*
X118015018Y-72383524D01*
X118104389Y-72314946D01*
X118121593Y-72301745D01*
X118124791Y-72299291D01*
X118209024Y-72189517D01*
X118211643Y-72183196D01*
X118260432Y-72065406D01*
X118260432Y-72065405D01*
X118261974Y-72061683D01*
X118262989Y-72053973D01*
X118286524Y-72013209D01*
X118323963Y-72000500D01*
X124219270Y-72000500D01*
X124231269Y-72001682D01*
X124250000Y-72005408D01*
X124255938Y-72004227D01*
X124255944Y-72004227D01*
X124259347Y-72003550D01*
X124276166Y-72002559D01*
X124394816Y-72011896D01*
X124404348Y-72013405D01*
X124540901Y-72046189D01*
X124550079Y-72049171D01*
X124679821Y-72102912D01*
X124688420Y-72107294D01*
X124808152Y-72180667D01*
X124815959Y-72186339D01*
X124906472Y-72263645D01*
X124917667Y-72276244D01*
X124922952Y-72284154D01*
X124938202Y-72294344D01*
X124938837Y-72294768D01*
X124948156Y-72302416D01*
X125051137Y-72405397D01*
X125058785Y-72414716D01*
X125069399Y-72430601D01*
X125074435Y-72433966D01*
X125074436Y-72433967D01*
X125077058Y-72435719D01*
X125082829Y-72440088D01*
X125170532Y-72514993D01*
X125202610Y-72542390D01*
X125204663Y-72543648D01*
X125204667Y-72543651D01*
X125340760Y-72627053D01*
X125350777Y-72633191D01*
X125511325Y-72699697D01*
X125646913Y-72732254D01*
X125684992Y-72759922D01*
X125692353Y-72806413D01*
X125669992Y-72840845D01*
X125628407Y-72872755D01*
X125625209Y-72875209D01*
X125622755Y-72878407D01*
X125592380Y-72917992D01*
X125540976Y-72984983D01*
X125539435Y-72988703D01*
X125539434Y-72988705D01*
X125509210Y-73061673D01*
X125488026Y-73112817D01*
X125469965Y-73250000D01*
X125488026Y-73387183D01*
X125489569Y-73390908D01*
X125538629Y-73509350D01*
X125540976Y-73515017D01*
X125625209Y-73624791D01*
X125734982Y-73709024D01*
X125738702Y-73710565D01*
X125738704Y-73710566D01*
X125807673Y-73739133D01*
X125862817Y-73761974D01*
X126000000Y-73780035D01*
X126137183Y-73761974D01*
X126192327Y-73739133D01*
X126261296Y-73710566D01*
X126261298Y-73710565D01*
X126265018Y-73709024D01*
X126374791Y-73624791D01*
X126377245Y-73621593D01*
X126451701Y-73524561D01*
X126492465Y-73501026D01*
X126500492Y-73500500D01*
X126606560Y-73500500D01*
X126650047Y-73518513D01*
X126668060Y-73562000D01*
X126650047Y-73605487D01*
X126644000Y-73610790D01*
X126625209Y-73625209D01*
X126622755Y-73628407D01*
X126617822Y-73634836D01*
X126540976Y-73734983D01*
X126539435Y-73738703D01*
X126539434Y-73738705D01*
X126498797Y-73836814D01*
X126488026Y-73862817D01*
X126469965Y-74000000D01*
X126488026Y-74137183D01*
X126489569Y-74140908D01*
X126536471Y-74254140D01*
X126540976Y-74265017D01*
X126553477Y-74281309D01*
X126613457Y-74359475D01*
X126625209Y-74374791D01*
X126734982Y-74459024D01*
X126738702Y-74460565D01*
X126738704Y-74460566D01*
X126834319Y-74500170D01*
X126862817Y-74511974D01*
X127000000Y-74530035D01*
X127137183Y-74511974D01*
X127165681Y-74500170D01*
X127261296Y-74460566D01*
X127261298Y-74460565D01*
X127265018Y-74459024D01*
X127374791Y-74374791D01*
X127383161Y-74363883D01*
X127451701Y-74274561D01*
X127492465Y-74251026D01*
X127500492Y-74250500D01*
X127719270Y-74250500D01*
X127731269Y-74251682D01*
X127750000Y-74255408D01*
X127756375Y-74254140D01*
X127775255Y-74253346D01*
X127854262Y-74262248D01*
X127867688Y-74265312D01*
X127960183Y-74297677D01*
X127972591Y-74303652D01*
X128055567Y-74355789D01*
X128066334Y-74364376D01*
X128135624Y-74433666D01*
X128144211Y-74444433D01*
X128196348Y-74527409D01*
X128202323Y-74539817D01*
X128234688Y-74632312D01*
X128237752Y-74645738D01*
X128246654Y-74724745D01*
X128245860Y-74743625D01*
X128244592Y-74750000D01*
X128245774Y-74755942D01*
X128248318Y-74768732D01*
X128249500Y-74780730D01*
X128249500Y-81916097D01*
X128231487Y-81959584D01*
X128196027Y-81977071D01*
X128116815Y-81987499D01*
X128116810Y-81987500D01*
X128112817Y-81988026D01*
X128109092Y-81989569D01*
X127988705Y-82039434D01*
X127988703Y-82039435D01*
X127984983Y-82040976D01*
X127875209Y-82125209D01*
X127790976Y-82234983D01*
X127789435Y-82238703D01*
X127789434Y-82238705D01*
X127766099Y-82295042D01*
X127738026Y-82362817D01*
X127719965Y-82500000D01*
X127738026Y-82637183D01*
X127739569Y-82640908D01*
X127788217Y-82758355D01*
X127790976Y-82765017D01*
X127875209Y-82874791D01*
X127984982Y-82959024D01*
X127988702Y-82960565D01*
X127988704Y-82960566D01*
X128062318Y-82991057D01*
X128112817Y-83011974D01*
X128250000Y-83030035D01*
X128387183Y-83011974D01*
X128437682Y-82991057D01*
X128511296Y-82960566D01*
X128511298Y-82960565D01*
X128515018Y-82959024D01*
X128624791Y-82874791D01*
X128639209Y-82856001D01*
X128679972Y-82832466D01*
X128725439Y-82844649D01*
X128748974Y-82885412D01*
X128749500Y-82893440D01*
X128749500Y-84469270D01*
X128748318Y-84481268D01*
X128744592Y-84500000D01*
X128745774Y-84505942D01*
X128745774Y-84505944D01*
X128746586Y-84510026D01*
X128747611Y-84526410D01*
X128734551Y-84709008D01*
X128733303Y-84717693D01*
X128722040Y-84769471D01*
X128695910Y-84889592D01*
X128689694Y-84918165D01*
X128687222Y-84926581D01*
X128615878Y-85117861D01*
X128615531Y-85118792D01*
X128611886Y-85126774D01*
X128513568Y-85306830D01*
X128508824Y-85314212D01*
X128385881Y-85478444D01*
X128380135Y-85485075D01*
X128235075Y-85630135D01*
X128228444Y-85635881D01*
X128064212Y-85758824D01*
X128056830Y-85763568D01*
X127953261Y-85820121D01*
X127893037Y-85853006D01*
X127876774Y-85861886D01*
X127868794Y-85865530D01*
X127676581Y-85937222D01*
X127668167Y-85939694D01*
X127647129Y-85944270D01*
X127467693Y-85983303D01*
X127459008Y-85984551D01*
X127276410Y-85997611D01*
X127260026Y-85996586D01*
X127255944Y-85995774D01*
X127255942Y-85995774D01*
X127250000Y-85994592D01*
X127244058Y-85995774D01*
X127231268Y-85998318D01*
X127219270Y-85999500D01*
X121280730Y-85999500D01*
X121268732Y-85998318D01*
X121255942Y-85995774D01*
X121250000Y-85994592D01*
X121244060Y-85995774D01*
X121243451Y-85995774D01*
X121237716Y-85996546D01*
X121038105Y-86010822D01*
X121038104Y-86010822D01*
X121035911Y-86010979D01*
X121033770Y-86011445D01*
X121033768Y-86011445D01*
X121008283Y-86016989D01*
X120826180Y-86056603D01*
X120625077Y-86131611D01*
X120623144Y-86132666D01*
X120623145Y-86132666D01*
X120438622Y-86233423D01*
X120438619Y-86233425D01*
X120436696Y-86234475D01*
X120264871Y-86363101D01*
X120113101Y-86514871D01*
X119984475Y-86686696D01*
X119983425Y-86688619D01*
X119983423Y-86688622D01*
X119922879Y-86799500D01*
X119881611Y-86875077D01*
X119880842Y-86877139D01*
X119880841Y-86877141D01*
X119844575Y-86974374D01*
X119810488Y-87009701D01*
X119734983Y-87040976D01*
X119731785Y-87043430D01*
X119636150Y-87116814D01*
X119625209Y-87125209D01*
X119622755Y-87128407D01*
X119608251Y-87147309D01*
X119540976Y-87234983D01*
X119539435Y-87238703D01*
X119539434Y-87238705D01*
X119509578Y-87310786D01*
X119488026Y-87362817D01*
X119469965Y-87500000D01*
X119488026Y-87637183D01*
X119489569Y-87640908D01*
X119536196Y-87753476D01*
X119540976Y-87765017D01*
X119625209Y-87874791D01*
X119734982Y-87959024D01*
X119738702Y-87960565D01*
X119738704Y-87960566D01*
X119833909Y-88000000D01*
X119862817Y-88011974D01*
X120000000Y-88030035D01*
X120137183Y-88011974D01*
X120166091Y-88000000D01*
X120261296Y-87960566D01*
X120261298Y-87960565D01*
X120265018Y-87959024D01*
X120374791Y-87874791D01*
X120459024Y-87765017D01*
X120463805Y-87753476D01*
X120510431Y-87640908D01*
X120511974Y-87637183D01*
X120530035Y-87500000D01*
X120511974Y-87362817D01*
X120490422Y-87310786D01*
X120460566Y-87238705D01*
X120460565Y-87238703D01*
X120459024Y-87234983D01*
X120391749Y-87147309D01*
X120377245Y-87128407D01*
X120374791Y-87125209D01*
X120371791Y-87122907D01*
X120353811Y-87079499D01*
X120359573Y-87053507D01*
X120365417Y-87040976D01*
X120382135Y-87005124D01*
X120387494Y-86995843D01*
X120481254Y-86861940D01*
X120488145Y-86853728D01*
X120603728Y-86738145D01*
X120611940Y-86731254D01*
X120745843Y-86637494D01*
X120755127Y-86632134D01*
X120903278Y-86563050D01*
X120913352Y-86559384D01*
X121015788Y-86531936D01*
X121071242Y-86517077D01*
X121081793Y-86515217D01*
X121224119Y-86502764D01*
X121241474Y-86503712D01*
X121250000Y-86505408D01*
X121255942Y-86504226D01*
X121268732Y-86501682D01*
X121280730Y-86500500D01*
X127219270Y-86500500D01*
X127231269Y-86501682D01*
X127250000Y-86505408D01*
X127254619Y-86504489D01*
X127258632Y-86504226D01*
X127258634Y-86504227D01*
X127258648Y-86504225D01*
X127342734Y-86498714D01*
X127511678Y-86487641D01*
X127513659Y-86487247D01*
X127766903Y-86436873D01*
X127766905Y-86436872D01*
X127768878Y-86436480D01*
X127770780Y-86435834D01*
X127770785Y-86435833D01*
X128015293Y-86352834D01*
X128015297Y-86352832D01*
X128017201Y-86352186D01*
X128153516Y-86284963D01*
X128250592Y-86237091D01*
X128250596Y-86237088D01*
X128252396Y-86236201D01*
X128439070Y-86111469D01*
X128468764Y-86091628D01*
X128468765Y-86091627D01*
X128470440Y-86090508D01*
X128471949Y-86089184D01*
X128471955Y-86089180D01*
X128666090Y-85918928D01*
X128667602Y-85917602D01*
X128691488Y-85890365D01*
X128839180Y-85721955D01*
X128839184Y-85721949D01*
X128840508Y-85720440D01*
X128870548Y-85675483D01*
X128970280Y-85526223D01*
X128986201Y-85502396D01*
X129004202Y-85465895D01*
X129060218Y-85352304D01*
X129102186Y-85267201D01*
X129129764Y-85185958D01*
X129160799Y-85150569D01*
X129207769Y-85147491D01*
X129243158Y-85178526D01*
X129249500Y-85205727D01*
X129249500Y-86249508D01*
X129231487Y-86292995D01*
X129225439Y-86298299D01*
X129153029Y-86353862D01*
X129125209Y-86375209D01*
X129040976Y-86484983D01*
X129039435Y-86488703D01*
X129039434Y-86488705D01*
X129008640Y-86563050D01*
X128988026Y-86612817D01*
X128969965Y-86750000D01*
X128988026Y-86887183D01*
X128989569Y-86890908D01*
X128989570Y-86890911D01*
X128999326Y-86914464D01*
X128999327Y-86961534D01*
X128966044Y-86994818D01*
X128942508Y-86999500D01*
X124550492Y-86999500D01*
X124507005Y-86981487D01*
X124501701Y-86975439D01*
X124427245Y-86878407D01*
X124424791Y-86875209D01*
X124315018Y-86790976D01*
X124311298Y-86789435D01*
X124311296Y-86789434D01*
X124190908Y-86739569D01*
X124190909Y-86739569D01*
X124187183Y-86738026D01*
X124050000Y-86719965D01*
X123912817Y-86738026D01*
X123909092Y-86739569D01*
X123788705Y-86789434D01*
X123788703Y-86789435D01*
X123784983Y-86790976D01*
X123675209Y-86875209D01*
X123590976Y-86984983D01*
X123589435Y-86988703D01*
X123589434Y-86988705D01*
X123578494Y-87015118D01*
X123538026Y-87112817D01*
X123519965Y-87250000D01*
X123538026Y-87387183D01*
X123539569Y-87390908D01*
X123586507Y-87504227D01*
X123590976Y-87515017D01*
X123675209Y-87624791D01*
X123678407Y-87627245D01*
X123702369Y-87645632D01*
X123725904Y-87686396D01*
X123722552Y-87715914D01*
X123665531Y-87868792D01*
X123661887Y-87876772D01*
X123646398Y-87905138D01*
X123563568Y-88056830D01*
X123558824Y-88064212D01*
X123435881Y-88228444D01*
X123430135Y-88235075D01*
X123285075Y-88380135D01*
X123278444Y-88385881D01*
X123114212Y-88508824D01*
X123106830Y-88513568D01*
X122926774Y-88611886D01*
X122918794Y-88615530D01*
X122726581Y-88687222D01*
X122718167Y-88689694D01*
X122664240Y-88701424D01*
X122517693Y-88733303D01*
X122509008Y-88734551D01*
X122326410Y-88747611D01*
X122310026Y-88746586D01*
X122305944Y-88745774D01*
X122305942Y-88745774D01*
X122300000Y-88744592D01*
X122294058Y-88745774D01*
X122281268Y-88748318D01*
X122269270Y-88749500D01*
X117180730Y-88749500D01*
X117168732Y-88748318D01*
X117160024Y-88746586D01*
X117150000Y-88744592D01*
X117146921Y-88745204D01*
X117143269Y-88745363D01*
X117143268Y-88745363D01*
X116906496Y-88755701D01*
X116744296Y-88762783D01*
X116341680Y-88815789D01*
X115945215Y-88903683D01*
X115943942Y-88904084D01*
X115943936Y-88904086D01*
X115559203Y-89025392D01*
X115559193Y-89025396D01*
X115557920Y-89025797D01*
X115556687Y-89026308D01*
X115556678Y-89026311D01*
X115363535Y-89106314D01*
X115182742Y-89181201D01*
X114822535Y-89368712D01*
X114758032Y-89409805D01*
X114481168Y-89586187D01*
X114481158Y-89586194D01*
X114480042Y-89586905D01*
X114478985Y-89587716D01*
X114478978Y-89587721D01*
X114165353Y-89828374D01*
X114157869Y-89834117D01*
X114156879Y-89835024D01*
X114156878Y-89835025D01*
X113989906Y-89988026D01*
X113858467Y-90108467D01*
X113584117Y-90407869D01*
X113583297Y-90408937D01*
X113583295Y-90408940D01*
X113385422Y-90666814D01*
X113336905Y-90730042D01*
X113336194Y-90731158D01*
X113336187Y-90731168D01*
X113229032Y-90899368D01*
X113118712Y-91072535D01*
X112931201Y-91432742D01*
X112930691Y-91433974D01*
X112849192Y-91630730D01*
X112775797Y-91807920D01*
X112775396Y-91809193D01*
X112775392Y-91809203D01*
X112674421Y-92129442D01*
X112653683Y-92195215D01*
X112641652Y-92249482D01*
X112626629Y-92317246D01*
X112599631Y-92355804D01*
X112575785Y-92364743D01*
X112506152Y-92375274D01*
X112503233Y-92376348D01*
X112503229Y-92376349D01*
X112323090Y-92442628D01*
X112323086Y-92442630D01*
X112320164Y-92443705D01*
X112317518Y-92445345D01*
X112317517Y-92445346D01*
X112154375Y-92546497D01*
X112154371Y-92546500D01*
X112151734Y-92548135D01*
X112007743Y-92684301D01*
X112005962Y-92686845D01*
X112005959Y-92686848D01*
X111895857Y-92844090D01*
X111894073Y-92846638D01*
X111815367Y-93028517D01*
X111814730Y-93031565D01*
X111814729Y-93031569D01*
X111813981Y-93035150D01*
X111774840Y-93222507D01*
X111774500Y-93228995D01*
X111774500Y-93524529D01*
X111225500Y-93524529D01*
X111225500Y-93275471D01*
X111210504Y-93127837D01*
X111178483Y-93025657D01*
X111152171Y-92941694D01*
X111152169Y-92941690D01*
X111151241Y-92938728D01*
X111055162Y-92765398D01*
X111053136Y-92763034D01*
X111053133Y-92763030D01*
X110928218Y-92617289D01*
X110928215Y-92617286D01*
X110926193Y-92614927D01*
X110872890Y-92573581D01*
X110772062Y-92495371D01*
X110772061Y-92495370D01*
X110769602Y-92493463D01*
X110736298Y-92477075D01*
X110594584Y-92407343D01*
X110591786Y-92405966D01*
X110400007Y-92356011D01*
X110301054Y-92350825D01*
X110205213Y-92345803D01*
X110205212Y-92345803D01*
X110202101Y-92345640D01*
X110006152Y-92375274D01*
X110003233Y-92376348D01*
X110003229Y-92376349D01*
X109823090Y-92442628D01*
X109823086Y-92442630D01*
X109820164Y-92443705D01*
X109817518Y-92445345D01*
X109817517Y-92445346D01*
X109654375Y-92546497D01*
X109654371Y-92546500D01*
X109651734Y-92548135D01*
X109507743Y-92684301D01*
X109505962Y-92686845D01*
X109505959Y-92686848D01*
X109395857Y-92844090D01*
X109394073Y-92846638D01*
X109315367Y-93028517D01*
X109314730Y-93031565D01*
X109314729Y-93031569D01*
X109313981Y-93035150D01*
X109274840Y-93222507D01*
X109274500Y-93228995D01*
X109274500Y-93524529D01*
X100652060Y-93524529D01*
X100652060Y-93133766D01*
X106392000Y-93133766D01*
X106395583Y-93142417D01*
X106404234Y-93146000D01*
X107483766Y-93146000D01*
X107492417Y-93142417D01*
X107496000Y-93133766D01*
X108004000Y-93133766D01*
X108007583Y-93142417D01*
X108016234Y-93146000D01*
X109095765Y-93146000D01*
X109104416Y-93142417D01*
X109107999Y-93133766D01*
X109107999Y-92676225D01*
X109107836Y-92673063D01*
X109097379Y-92572283D01*
X109095967Y-92565744D01*
X109042225Y-92404657D01*
X109039215Y-92398231D01*
X108949960Y-92253998D01*
X108945558Y-92248444D01*
X108825518Y-92128613D01*
X108819951Y-92124216D01*
X108675566Y-92035216D01*
X108669136Y-92032218D01*
X108507945Y-91978753D01*
X108501419Y-91977354D01*
X108401921Y-91967160D01*
X108398794Y-91967000D01*
X108016234Y-91967000D01*
X108007583Y-91970583D01*
X108004000Y-91979234D01*
X108004000Y-93133766D01*
X107496000Y-93133766D01*
X107496000Y-91979235D01*
X107492417Y-91970584D01*
X107483766Y-91967001D01*
X107101225Y-91967001D01*
X107098063Y-91967164D01*
X106997283Y-91977621D01*
X106990744Y-91979033D01*
X106829657Y-92032775D01*
X106823231Y-92035785D01*
X106678998Y-92125040D01*
X106673444Y-92129442D01*
X106553613Y-92249482D01*
X106549216Y-92255049D01*
X106460216Y-92399434D01*
X106457218Y-92405864D01*
X106403753Y-92567055D01*
X106402354Y-92573581D01*
X106392160Y-92673079D01*
X106392000Y-92676206D01*
X106392000Y-93133766D01*
X100652060Y-93133766D01*
X100652060Y-91232296D01*
X100653242Y-91220296D01*
X100655786Y-91207507D01*
X100656968Y-91201567D01*
X100655787Y-91195628D01*
X100655787Y-91195623D01*
X100655087Y-91192103D01*
X100654096Y-91175284D01*
X100666494Y-91017798D01*
X100668004Y-91008266D01*
X100670154Y-90999313D01*
X100709912Y-90833729D01*
X100712893Y-90824555D01*
X100716550Y-90815727D01*
X100781594Y-90658711D01*
X100785970Y-90650125D01*
X100853959Y-90539184D01*
X100879761Y-90497082D01*
X100885433Y-90489275D01*
X100988115Y-90369057D01*
X101000711Y-90357864D01*
X101003590Y-90355940D01*
X101008626Y-90352575D01*
X101011989Y-90347542D01*
X101011993Y-90347538D01*
X101019243Y-90336688D01*
X101026890Y-90327370D01*
X101055397Y-90298863D01*
X101064717Y-90291214D01*
X101075565Y-90283966D01*
X101075566Y-90283965D01*
X101080601Y-90280601D01*
X101088035Y-90269476D01*
X101092404Y-90263704D01*
X101148983Y-90197457D01*
X101174597Y-90167467D01*
X101251358Y-90042199D01*
X101307576Y-89906465D01*
X101314685Y-89876851D01*
X101332911Y-89800918D01*
X101341867Y-89763606D01*
X101342437Y-89756365D01*
X101351779Y-89637577D01*
X101352771Y-89630405D01*
X101354227Y-89623084D01*
X101354227Y-89623081D01*
X101355408Y-89617142D01*
X101351682Y-89598416D01*
X101350500Y-89586414D01*
X101350500Y-88995795D01*
X101351682Y-88983794D01*
X101354226Y-88971007D01*
X101355408Y-88965067D01*
X101353909Y-88957529D01*
X101353023Y-88939501D01*
X101353554Y-88934116D01*
X101364913Y-88818828D01*
X101367264Y-88807014D01*
X101393758Y-88719683D01*
X101408163Y-88672202D01*
X101412776Y-88661065D01*
X101479191Y-88536814D01*
X101485889Y-88526790D01*
X101500634Y-88508824D01*
X101575260Y-88417892D01*
X101583785Y-88409367D01*
X101692690Y-88319990D01*
X101702713Y-88313292D01*
X101813500Y-88254072D01*
X101826965Y-88246875D01*
X101838099Y-88242264D01*
X101845007Y-88240168D01*
X101850173Y-88238601D01*
X101897017Y-88243216D01*
X101926876Y-88279602D01*
X101922261Y-88326446D01*
X101906562Y-88345380D01*
X101814176Y-88419660D01*
X101812246Y-88421960D01*
X101804128Y-88431635D01*
X101691207Y-88566208D01*
X101689762Y-88568837D01*
X101689761Y-88568838D01*
X101678349Y-88589596D01*
X101599045Y-88733850D01*
X101590239Y-88761610D01*
X101548115Y-88894403D01*
X101541200Y-88916201D01*
X101519876Y-89106314D01*
X101523418Y-89148494D01*
X101535484Y-89292182D01*
X101535884Y-89296948D01*
X101536711Y-89299833D01*
X101536712Y-89299837D01*
X101546864Y-89335240D01*
X101588614Y-89480843D01*
X101620780Y-89543430D01*
X101671826Y-89642754D01*
X101676060Y-89650993D01*
X101794889Y-89800918D01*
X101797179Y-89802867D01*
X101797180Y-89802868D01*
X101834964Y-89835025D01*
X101940575Y-89924907D01*
X101943201Y-89926375D01*
X101943203Y-89926376D01*
X102104946Y-90016771D01*
X102104950Y-90016773D01*
X102107570Y-90018237D01*
X102110425Y-90019165D01*
X102110428Y-90019166D01*
X102257897Y-90067082D01*
X102289512Y-90077354D01*
X102292500Y-90077710D01*
X102292503Y-90077711D01*
X102399281Y-90090443D01*
X102479472Y-90100005D01*
X102482462Y-90099775D01*
X102482465Y-90099775D01*
X102667216Y-90085559D01*
X102667220Y-90085558D01*
X102670213Y-90085328D01*
X102854472Y-90033882D01*
X103025228Y-89947627D01*
X103117786Y-89875313D01*
X103173605Y-89831703D01*
X103173606Y-89831702D01*
X103175979Y-89829848D01*
X103192638Y-89810549D01*
X103299015Y-89687309D01*
X103299016Y-89687308D01*
X103300982Y-89685030D01*
X103383692Y-89539434D01*
X103393989Y-89521309D01*
X103393990Y-89521307D01*
X103395476Y-89518691D01*
X103445367Y-89368712D01*
X103454911Y-89340023D01*
X103454912Y-89340019D01*
X103455861Y-89337166D01*
X103479838Y-89147369D01*
X103480220Y-89120000D01*
X103461552Y-88929608D01*
X103406259Y-88746467D01*
X103316446Y-88577555D01*
X103308524Y-88567841D01*
X103197437Y-88431635D01*
X103195535Y-88429303D01*
X103183879Y-88419660D01*
X103050446Y-88309275D01*
X103050444Y-88309274D01*
X103048132Y-88307361D01*
X103031111Y-88298158D01*
X103001425Y-88261630D01*
X103006263Y-88214810D01*
X103042792Y-88185123D01*
X103055975Y-88182717D01*
X103218326Y-88171106D01*
X103218327Y-88171106D01*
X103220520Y-88170949D01*
X103222661Y-88170483D01*
X103222663Y-88170483D01*
X103345241Y-88143818D01*
X103469961Y-88116687D01*
X103625916Y-88058519D01*
X103707076Y-88028248D01*
X103707078Y-88028247D01*
X103709140Y-88027478D01*
X103933190Y-87905138D01*
X104137548Y-87752158D01*
X104318055Y-87571652D01*
X104471035Y-87367294D01*
X104593376Y-87143245D01*
X104682585Y-86904065D01*
X104736848Y-86654624D01*
X104740105Y-86609092D01*
X104742308Y-86578281D01*
X104754863Y-86402740D01*
X104755408Y-86400000D01*
X104751682Y-86381268D01*
X104750500Y-86369270D01*
X104750500Y-84280730D01*
X104751682Y-84268732D01*
X104754226Y-84255942D01*
X104755408Y-84250000D01*
X104754226Y-84244059D01*
X104754226Y-84238974D01*
X104753770Y-84225034D01*
X104762751Y-84156820D01*
X104766907Y-84141313D01*
X104799772Y-84061971D01*
X104807799Y-84048067D01*
X104832615Y-84015727D01*
X104860085Y-83979928D01*
X104871434Y-83968579D01*
X104939576Y-83916293D01*
X104953475Y-83908269D01*
X105032827Y-83875402D01*
X105048332Y-83871248D01*
X105116596Y-83862262D01*
X105130223Y-83862709D01*
X105135571Y-83862709D01*
X105141510Y-83863891D01*
X105147448Y-83862710D01*
X105147450Y-83862710D01*
X105160250Y-83860164D01*
X105172246Y-83858983D01*
X125360789Y-83858983D01*
X125372786Y-83860165D01*
X125391519Y-83863891D01*
X125394263Y-83863345D01*
X125667388Y-83845441D01*
X125938536Y-83791504D01*
X126200324Y-83702637D01*
X126217029Y-83694399D01*
X126446470Y-83581250D01*
X126446474Y-83581248D01*
X126448274Y-83580360D01*
X126678141Y-83426765D01*
X126679650Y-83425441D01*
X126679656Y-83425437D01*
X126884483Y-83245807D01*
X126885995Y-83244481D01*
X127068277Y-83036626D01*
X127163914Y-82893495D01*
X127220745Y-82808441D01*
X127220746Y-82808439D01*
X127221870Y-82806757D01*
X127344144Y-82558807D01*
X127344867Y-82556677D01*
X127432362Y-82298924D01*
X127432363Y-82298919D01*
X127433009Y-82297017D01*
X127435006Y-82286980D01*
X127486550Y-82027850D01*
X127486550Y-82027849D01*
X127486944Y-82025869D01*
X127497011Y-81872270D01*
X127504524Y-81757653D01*
X127504524Y-81757652D01*
X127504837Y-81752872D01*
X127505408Y-81750000D01*
X127501682Y-81731268D01*
X127500500Y-81719270D01*
X127500500Y-77780730D01*
X127501682Y-77768732D01*
X127504226Y-77755941D01*
X127505408Y-77750000D01*
X127504581Y-77745841D01*
X127503643Y-77725539D01*
X127487755Y-77381916D01*
X127487689Y-77380486D01*
X127470312Y-77255910D01*
X127459714Y-77179938D01*
X127436584Y-77014125D01*
X127435853Y-77011013D01*
X127352220Y-76655432D01*
X127352220Y-76655430D01*
X127351893Y-76654042D01*
X127261450Y-76384195D01*
X127234790Y-76304651D01*
X127234788Y-76304647D01*
X127234340Y-76303309D01*
X127084926Y-75964919D01*
X126904927Y-75641759D01*
X126876322Y-75600000D01*
X126696685Y-75337763D01*
X126696684Y-75337762D01*
X126695878Y-75336585D01*
X126459563Y-75052002D01*
X126197998Y-74790437D01*
X126142185Y-74744090D01*
X126015450Y-74638851D01*
X125913415Y-74554122D01*
X125878252Y-74530035D01*
X125609412Y-74345875D01*
X125609410Y-74345874D01*
X125608241Y-74345073D01*
X125533876Y-74303652D01*
X125286329Y-74165769D01*
X125286327Y-74165768D01*
X125285081Y-74165074D01*
X124946691Y-74015660D01*
X124945353Y-74015212D01*
X124945349Y-74015210D01*
X124766659Y-73955320D01*
X124595958Y-73898107D01*
X124594568Y-73897780D01*
X124237263Y-73813742D01*
X124237254Y-73813740D01*
X124235875Y-73813416D01*
X124047283Y-73787109D01*
X123870929Y-73762508D01*
X123870921Y-73762507D01*
X123869514Y-73762311D01*
X123504159Y-73745419D01*
X123500000Y-73744592D01*
X123487990Y-73746981D01*
X123481268Y-73748318D01*
X123469270Y-73749500D01*
X117780730Y-73749500D01*
X117768732Y-73748318D01*
X117755942Y-73745774D01*
X117750000Y-73744592D01*
X117742444Y-73746095D01*
X117724419Y-73746981D01*
X117609807Y-73735693D01*
X117597985Y-73733341D01*
X117522906Y-73710566D01*
X117468973Y-73694206D01*
X117457839Y-73689594D01*
X117338940Y-73626040D01*
X117328917Y-73619343D01*
X117312033Y-73605487D01*
X117224701Y-73533816D01*
X117216184Y-73525299D01*
X117130656Y-73421082D01*
X117123959Y-73411059D01*
X117111197Y-73387183D01*
X117060406Y-73292161D01*
X117055794Y-73281026D01*
X117016659Y-73152015D01*
X117014307Y-73140191D01*
X117011244Y-73109092D01*
X117003019Y-73025581D01*
X117003905Y-73007554D01*
X117004226Y-73005940D01*
X117005408Y-73000000D01*
X117001682Y-72981268D01*
X117000500Y-72969270D01*
X117000500Y-71530730D01*
X117001682Y-71518732D01*
X117004226Y-71505942D01*
X117005408Y-71500000D01*
X117003905Y-71492444D01*
X117003019Y-71474418D01*
X117010086Y-71402671D01*
X117014307Y-71359807D01*
X117016659Y-71347985D01*
X117055794Y-71218974D01*
X117060408Y-71207835D01*
X117066732Y-71196005D01*
X117123960Y-71088940D01*
X117130657Y-71078917D01*
X117216184Y-70974701D01*
X117224701Y-70966184D01*
X117328918Y-70880656D01*
X117338941Y-70873959D01*
X117457839Y-70810406D01*
X117468974Y-70805794D01*
X117597985Y-70766659D01*
X117609807Y-70764307D01*
X117724419Y-70753019D01*
X117742444Y-70753905D01*
X117750000Y-70755408D01*
X117755942Y-70754226D01*
X117768732Y-70751682D01*
X117780730Y-70750500D01*
X125365706Y-70750500D01*
X125377705Y-70751682D01*
X125396433Y-70755408D01*
X125404054Y-70753893D01*
X125422073Y-70753008D01*
X125508067Y-70761482D01*
X125519883Y-70763833D01*
X125621423Y-70794638D01*
X125632554Y-70799249D01*
X125687103Y-70828407D01*
X125726143Y-70849275D01*
X125736165Y-70855973D01*
X125802999Y-70910822D01*
X125815115Y-70924189D01*
X125819399Y-70930601D01*
X125824435Y-70933966D01*
X125835280Y-70941212D01*
X125844600Y-70948861D01*
X126003653Y-71107914D01*
X126011301Y-71117233D01*
X126021915Y-71133118D01*
X126026952Y-71136483D01*
X126026955Y-71136486D01*
X126029577Y-71138238D01*
X126035351Y-71142608D01*
X126117982Y-71213179D01*
X126154105Y-71244030D01*
X126156158Y-71245288D01*
X126156162Y-71245291D01*
X126264832Y-71311881D01*
X126289517Y-71340783D01*
X126340976Y-71465017D01*
X126425209Y-71574791D01*
X126534982Y-71659024D01*
X126538702Y-71660565D01*
X126538704Y-71660566D01*
X126614773Y-71692074D01*
X126662817Y-71711974D01*
X126800000Y-71730035D01*
X126937183Y-71711974D01*
X126985227Y-71692074D01*
X127061296Y-71660566D01*
X127061298Y-71660565D01*
X127065018Y-71659024D01*
X127174791Y-71574791D01*
X127259024Y-71465017D01*
X127288030Y-71394991D01*
X127310431Y-71340908D01*
X127311974Y-71337183D01*
X127330035Y-71200000D01*
X127311974Y-71062817D01*
X127301203Y-71036814D01*
X127260566Y-70938705D01*
X127260565Y-70938703D01*
X127259024Y-70934983D01*
X127174791Y-70825209D01*
X127065018Y-70740976D01*
X126974742Y-70703583D01*
X126965875Y-70699910D01*
X126932591Y-70666626D01*
X126932591Y-70619556D01*
X126965875Y-70586272D01*
X127023615Y-70562356D01*
X127052430Y-70550421D01*
X127052432Y-70550420D01*
X127056152Y-70548879D01*
X127165925Y-70464646D01*
X127250158Y-70354872D01*
X127255468Y-70342054D01*
X127301565Y-70230763D01*
X127303108Y-70227038D01*
X127321169Y-70089855D01*
X127303108Y-69952672D01*
X127261606Y-69852476D01*
X127251700Y-69828560D01*
X127251699Y-69828558D01*
X127250158Y-69824838D01*
X127194585Y-69752414D01*
X127168379Y-69718262D01*
X127165925Y-69715064D01*
X127056152Y-69630831D01*
X127052432Y-69629290D01*
X127052430Y-69629289D01*
X126932042Y-69579424D01*
X126932043Y-69579424D01*
X126928317Y-69577881D01*
X126791134Y-69559820D01*
X126653951Y-69577881D01*
X126650226Y-69579424D01*
X126529839Y-69629289D01*
X126529837Y-69629290D01*
X126526117Y-69630831D01*
X126416343Y-69715064D01*
X126413889Y-69718262D01*
X126339433Y-69815294D01*
X126298669Y-69838829D01*
X126290642Y-69839355D01*
X117690882Y-69839355D01*
X117678882Y-69838173D01*
X117666094Y-69835629D01*
X117660153Y-69834447D01*
X117654925Y-69835487D01*
X117652939Y-69835629D01*
X117652070Y-69835629D01*
X117651088Y-69835761D01*
X117423210Y-69852052D01*
X117421065Y-69852519D01*
X117421062Y-69852519D01*
X117222661Y-69895673D01*
X117191089Y-69902540D01*
X116968516Y-69985549D01*
X116966591Y-69986600D01*
X116966589Y-69986601D01*
X116761944Y-70098341D01*
X116760023Y-70099390D01*
X116758272Y-70100701D01*
X116758270Y-70100702D01*
X116599346Y-70219666D01*
X116569853Y-70241743D01*
X116401878Y-70409713D01*
X116259518Y-70599878D01*
X116145672Y-70808368D01*
X116062655Y-71030938D01*
X116048385Y-71096534D01*
X116016025Y-71245291D01*
X116012160Y-71263057D01*
X116012003Y-71265254D01*
X115995837Y-71491279D01*
X115995774Y-71491747D01*
X115995774Y-71492161D01*
X115995562Y-71495125D01*
X115994592Y-71500000D01*
X115995774Y-71505942D01*
X115998318Y-71518732D01*
X115999500Y-71530730D01*
X115999500Y-72969270D01*
X115998318Y-72981268D01*
X115994592Y-73000000D01*
X115995274Y-73003430D01*
X116005060Y-73140254D01*
X116012624Y-73246005D01*
X116012892Y-73249758D01*
X116013358Y-73251898D01*
X116013358Y-73251901D01*
X116039505Y-73372095D01*
X116066118Y-73494432D01*
X116093324Y-73567374D01*
X116152279Y-73725439D01*
X116153622Y-73729041D01*
X116273624Y-73948809D01*
X116423681Y-74149262D01*
X116600738Y-74326319D01*
X116801191Y-74476376D01*
X117020959Y-74596378D01*
X117023021Y-74597147D01*
X117023023Y-74597148D01*
X117108832Y-74629153D01*
X117255568Y-74683882D01*
X117364721Y-74707627D01*
X117498099Y-74736642D01*
X117498102Y-74736642D01*
X117500242Y-74737108D01*
X117502435Y-74737265D01*
X117502436Y-74737265D01*
X117741785Y-74754384D01*
X117741786Y-74754384D01*
X117746570Y-74754726D01*
X117750000Y-74755408D01*
X117768731Y-74751682D01*
X117780730Y-74750500D01*
X123469270Y-74750500D01*
X123481269Y-74751682D01*
X123500000Y-74755408D01*
X123511991Y-74753023D01*
X123527203Y-74751925D01*
X123810323Y-74766764D01*
X123816710Y-74767435D01*
X124106319Y-74813304D01*
X124120455Y-74815543D01*
X124126751Y-74816882D01*
X124423793Y-74896474D01*
X124429887Y-74898454D01*
X124717003Y-75008667D01*
X124722868Y-75011278D01*
X124977414Y-75140976D01*
X124996885Y-75150897D01*
X125002456Y-75154114D01*
X125260359Y-75321599D01*
X125265562Y-75325379D01*
X125504555Y-75518912D01*
X125509339Y-75523219D01*
X125726781Y-75740661D01*
X125731088Y-75745445D01*
X125924621Y-75984438D01*
X125928401Y-75989641D01*
X125968659Y-76051632D01*
X125968953Y-76052085D01*
X125977531Y-76098367D01*
X125950870Y-76137158D01*
X125904588Y-76145736D01*
X125873888Y-76129067D01*
X125694736Y-75949915D01*
X125466132Y-75770816D01*
X125217607Y-75620577D01*
X124952785Y-75501391D01*
X124675527Y-75414994D01*
X124673707Y-75414660D01*
X124673705Y-75414660D01*
X124391702Y-75362980D01*
X124391695Y-75362979D01*
X124389877Y-75362646D01*
X124103756Y-75345339D01*
X124100000Y-75344592D01*
X124083518Y-75347870D01*
X124081268Y-75348318D01*
X124069270Y-75349500D01*
X117800492Y-75349500D01*
X117757005Y-75331487D01*
X117751701Y-75325439D01*
X117677245Y-75228407D01*
X117674791Y-75225209D01*
X117565018Y-75140976D01*
X117561298Y-75139435D01*
X117561296Y-75139434D01*
X117440908Y-75089569D01*
X117440909Y-75089569D01*
X117437183Y-75088026D01*
X117300000Y-75069965D01*
X117162817Y-75088026D01*
X117136814Y-75098797D01*
X117038705Y-75139434D01*
X117038703Y-75139435D01*
X117034983Y-75140976D01*
X116925209Y-75225209D01*
X116840976Y-75334983D01*
X116839435Y-75338703D01*
X116839434Y-75338705D01*
X116829379Y-75362980D01*
X116788026Y-75462817D01*
X116769965Y-75600000D01*
X116788026Y-75737183D01*
X116789569Y-75740908D01*
X116836121Y-75853295D01*
X116840976Y-75865017D01*
X116843430Y-75868215D01*
X116904025Y-75947183D01*
X116925209Y-75974791D01*
X117034982Y-76059024D01*
X117038702Y-76060565D01*
X117038704Y-76060566D01*
X117118076Y-76093442D01*
X117162817Y-76111974D01*
X117300000Y-76130035D01*
X117437183Y-76111974D01*
X117481924Y-76093442D01*
X117561296Y-76060566D01*
X117561298Y-76060565D01*
X117565018Y-76059024D01*
X117674791Y-75974791D01*
X117694761Y-75948766D01*
X117751701Y-75874561D01*
X117792465Y-75851026D01*
X117800492Y-75850500D01*
X124069270Y-75850500D01*
X124081269Y-75851682D01*
X124100000Y-75855408D01*
X124110622Y-75853295D01*
X124126640Y-75852246D01*
X124239567Y-75859647D01*
X124343917Y-75866487D01*
X124351883Y-75867535D01*
X124587676Y-75914438D01*
X124595438Y-75916518D01*
X124823091Y-75993796D01*
X124830516Y-75996871D01*
X124873524Y-76018080D01*
X125046138Y-76103204D01*
X125053104Y-76107227D01*
X125252989Y-76240785D01*
X125259370Y-76245680D01*
X125440125Y-76404199D01*
X125445801Y-76409875D01*
X125604318Y-76590628D01*
X125609215Y-76597011D01*
X125742773Y-76796896D01*
X125746796Y-76803862D01*
X125759599Y-76829823D01*
X125850487Y-77014125D01*
X125853128Y-77019481D01*
X125856204Y-77026909D01*
X125933268Y-77253929D01*
X125933481Y-77254557D01*
X125935562Y-77262324D01*
X125982068Y-77496119D01*
X125982464Y-77498112D01*
X125983513Y-77506083D01*
X125987448Y-77566118D01*
X125997754Y-77723360D01*
X125996705Y-77739378D01*
X125994592Y-77750000D01*
X125995774Y-77755941D01*
X125995774Y-77755942D01*
X125998318Y-77768732D01*
X125999500Y-77780730D01*
X125999500Y-81719270D01*
X125998318Y-81731268D01*
X125994592Y-81750000D01*
X125995774Y-81755940D01*
X125996095Y-81757554D01*
X125996981Y-81775581D01*
X125985693Y-81890191D01*
X125983341Y-81902015D01*
X125954668Y-81996539D01*
X125944206Y-82031026D01*
X125939594Y-82042161D01*
X125893494Y-82128407D01*
X125876041Y-82161059D01*
X125869344Y-82171082D01*
X125783816Y-82275299D01*
X125775299Y-82283816D01*
X125671083Y-82369343D01*
X125661060Y-82376040D01*
X125542161Y-82439594D01*
X125531026Y-82444206D01*
X125402015Y-82483341D01*
X125390193Y-82485693D01*
X125275581Y-82496981D01*
X125257556Y-82496095D01*
X125250000Y-82494592D01*
X125242484Y-82496087D01*
X125231268Y-82498318D01*
X125219270Y-82499500D01*
X122030730Y-82499500D01*
X122018732Y-82498318D01*
X122007516Y-82496087D01*
X122000000Y-82494592D01*
X121992484Y-82496087D01*
X121974459Y-82496973D01*
X121948765Y-82494442D01*
X121906823Y-82490311D01*
X121865312Y-82468122D01*
X121853209Y-82434296D01*
X121851878Y-82434471D01*
X121847447Y-82400818D01*
X121833817Y-82297288D01*
X121812745Y-82246415D01*
X121782409Y-82173176D01*
X121782408Y-82173174D01*
X121780867Y-82169454D01*
X121696634Y-82059680D01*
X121586861Y-81975447D01*
X121583141Y-81973906D01*
X121583139Y-81973905D01*
X121462751Y-81924040D01*
X121462752Y-81924040D01*
X121459026Y-81922497D01*
X121321843Y-81904436D01*
X121184660Y-81922497D01*
X121180935Y-81924040D01*
X121060548Y-81973905D01*
X121060546Y-81973906D01*
X121056826Y-81975447D01*
X120947052Y-82059680D01*
X120862819Y-82169454D01*
X120861278Y-82173174D01*
X120861277Y-82173176D01*
X120830941Y-82246415D01*
X120809869Y-82297288D01*
X120791808Y-82434471D01*
X120809869Y-82571654D01*
X120811412Y-82575379D01*
X120849486Y-82667298D01*
X120862819Y-82699488D01*
X120908800Y-82759411D01*
X120947052Y-82809262D01*
X120945049Y-82810799D01*
X120960032Y-82846972D01*
X120942019Y-82890459D01*
X120898532Y-82908472D01*
X105071764Y-82908472D01*
X105059764Y-82907290D01*
X105057326Y-82906805D01*
X105041035Y-82903564D01*
X105035095Y-82904745D01*
X105034266Y-82904745D01*
X105029823Y-82905360D01*
X105009725Y-82906941D01*
X104840776Y-82920233D01*
X104840770Y-82920234D01*
X104838367Y-82920423D01*
X104640688Y-82967877D01*
X104452867Y-83045670D01*
X104450810Y-83046931D01*
X104450809Y-83046931D01*
X104281585Y-83150627D01*
X104281580Y-83150630D01*
X104279528Y-83151888D01*
X104124940Y-83283915D01*
X103992909Y-83438500D01*
X103991651Y-83440553D01*
X103991648Y-83440557D01*
X103899803Y-83590431D01*
X103886686Y-83611836D01*
X103808888Y-83799655D01*
X103808326Y-83801996D01*
X103808325Y-83801999D01*
X103763210Y-83989913D01*
X103761429Y-83997332D01*
X103748877Y-84156820D01*
X103746343Y-84189013D01*
X103745774Y-84193125D01*
X103745774Y-84194057D01*
X103744592Y-84200000D01*
X103746095Y-84207554D01*
X103746981Y-84225579D01*
X103735693Y-84340191D01*
X103733341Y-84352015D01*
X103694206Y-84481026D01*
X103689594Y-84492161D01*
X103628045Y-84607309D01*
X103626041Y-84611059D01*
X103619344Y-84621082D01*
X103533816Y-84725299D01*
X103525299Y-84733816D01*
X103492983Y-84760337D01*
X103421083Y-84819343D01*
X103411060Y-84826040D01*
X103292161Y-84889594D01*
X103281027Y-84894206D01*
X103216521Y-84913773D01*
X103152015Y-84933341D01*
X103140195Y-84935692D01*
X103119795Y-84937702D01*
X103074752Y-84924038D01*
X103052563Y-84882527D01*
X103066227Y-84837483D01*
X103075904Y-84828035D01*
X103173605Y-84751703D01*
X103173606Y-84751702D01*
X103175979Y-84749848D01*
X103197173Y-84725295D01*
X103299015Y-84607309D01*
X103299016Y-84607308D01*
X103300982Y-84605030D01*
X103395476Y-84438691D01*
X103446634Y-84284905D01*
X103454911Y-84260023D01*
X103454912Y-84260019D01*
X103455861Y-84257166D01*
X103479838Y-84067369D01*
X103480220Y-84040000D01*
X103461552Y-83849608D01*
X103406259Y-83666467D01*
X103316446Y-83497555D01*
X103305319Y-83483911D01*
X103197437Y-83351635D01*
X103195535Y-83349303D01*
X103114600Y-83282348D01*
X103050446Y-83229275D01*
X103050444Y-83229274D01*
X103048132Y-83227361D01*
X103045488Y-83225932D01*
X103045486Y-83225930D01*
X102882495Y-83137800D01*
X102882490Y-83137798D01*
X102879851Y-83136371D01*
X102876985Y-83135484D01*
X102876983Y-83135483D01*
X102830188Y-83120998D01*
X102766338Y-83101233D01*
X102730123Y-83071167D01*
X102725775Y-83024298D01*
X102755842Y-82988082D01*
X102771452Y-82982390D01*
X102992275Y-82934352D01*
X102992285Y-82934349D01*
X102994432Y-82933882D01*
X103152862Y-82874791D01*
X103226977Y-82847148D01*
X103226979Y-82847147D01*
X103229041Y-82846378D01*
X103448809Y-82726376D01*
X103649262Y-82576319D01*
X103826319Y-82399262D01*
X103976376Y-82198809D01*
X104096378Y-81979041D01*
X104097719Y-81975447D01*
X104148778Y-81838550D01*
X104183882Y-81744432D01*
X104219083Y-81582619D01*
X104236642Y-81501901D01*
X104236642Y-81501898D01*
X104237108Y-81499758D01*
X104239911Y-81460566D01*
X104254384Y-81258215D01*
X104254384Y-81258214D01*
X104254726Y-81253430D01*
X104255408Y-81250000D01*
X104254332Y-81244592D01*
X104254226Y-81244060D01*
X104254226Y-81238002D01*
X104254641Y-81238002D01*
X104254394Y-81225418D01*
X104261187Y-81182523D01*
X104267133Y-81164221D01*
X104293729Y-81112025D01*
X104305039Y-81096459D01*
X104346459Y-81055039D01*
X104362025Y-81043729D01*
X104399598Y-81024584D01*
X104414222Y-81017133D01*
X104432521Y-81011187D01*
X104469013Y-81005408D01*
X104475416Y-81004394D01*
X104488001Y-81004640D01*
X104488001Y-81004227D01*
X104494060Y-81004227D01*
X104500000Y-81005408D01*
X104518731Y-81001682D01*
X104530730Y-81000500D01*
X121365706Y-81000500D01*
X121377705Y-81001682D01*
X121396433Y-81005408D01*
X121402371Y-81004227D01*
X121402379Y-81004227D01*
X121403992Y-81003906D01*
X121422015Y-81003021D01*
X121468948Y-81007645D01*
X121508061Y-81011500D01*
X121519879Y-81013851D01*
X121555255Y-81024584D01*
X121621414Y-81044656D01*
X121632551Y-81049269D01*
X121726129Y-81099290D01*
X121736152Y-81105988D01*
X121803036Y-81160879D01*
X121815156Y-81174251D01*
X121819399Y-81180601D01*
X121824435Y-81183966D01*
X121835283Y-81191214D01*
X121844598Y-81198858D01*
X121892706Y-81246967D01*
X121900349Y-81256281D01*
X121910964Y-81272167D01*
X121915999Y-81275531D01*
X121916840Y-81276372D01*
X121920415Y-81279115D01*
X121958605Y-81312606D01*
X122090793Y-81428529D01*
X122092464Y-81429646D01*
X122092466Y-81429647D01*
X122287203Y-81559762D01*
X122288878Y-81560881D01*
X122306297Y-81569471D01*
X122497703Y-81663860D01*
X122502543Y-81666247D01*
X122728133Y-81742822D01*
X122730106Y-81743214D01*
X122730108Y-81743215D01*
X122909628Y-81778922D01*
X122961789Y-81789297D01*
X123187834Y-81804111D01*
X123192429Y-81804716D01*
X123193570Y-81804716D01*
X123199512Y-81805898D01*
X123205454Y-81804716D01*
X123218243Y-81802172D01*
X123230242Y-81800990D01*
X124168779Y-81800990D01*
X124180776Y-81802171D01*
X124193576Y-81804717D01*
X124193577Y-81804717D01*
X124199515Y-81805898D01*
X124206839Y-81804441D01*
X124212785Y-81803559D01*
X124283162Y-81796626D01*
X124353533Y-81789694D01*
X124353537Y-81789693D01*
X124356534Y-81789398D01*
X124359417Y-81788523D01*
X124359419Y-81788523D01*
X124504628Y-81744472D01*
X124507519Y-81743595D01*
X124515996Y-81739064D01*
X124643998Y-81670644D01*
X124644001Y-81670642D01*
X124646667Y-81669217D01*
X124768631Y-81569121D01*
X124770544Y-81566790D01*
X124770550Y-81566784D01*
X124791434Y-81541337D01*
X124830946Y-81519378D01*
X124871632Y-81514021D01*
X124887183Y-81511974D01*
X124911934Y-81501722D01*
X125011296Y-81460566D01*
X125011298Y-81460565D01*
X125015018Y-81459024D01*
X125124791Y-81374791D01*
X125128444Y-81370031D01*
X125206570Y-81268215D01*
X125209024Y-81265017D01*
X125211842Y-81258215D01*
X125260431Y-81140908D01*
X125261974Y-81137183D01*
X125280035Y-81000000D01*
X125261974Y-80862817D01*
X125243189Y-80817465D01*
X125210566Y-80738705D01*
X125210565Y-80738703D01*
X125209024Y-80734983D01*
X125124791Y-80625209D01*
X125112918Y-80616098D01*
X125018216Y-80543430D01*
X125015018Y-80540976D01*
X125011298Y-80539435D01*
X125011296Y-80539434D01*
X124890908Y-80489569D01*
X124890909Y-80489569D01*
X124887183Y-80488026D01*
X124750000Y-80469965D01*
X124612817Y-80488026D01*
X124489278Y-80539197D01*
X124442208Y-80539197D01*
X124408924Y-80505913D01*
X124404769Y-80490406D01*
X124396756Y-80429547D01*
X124387971Y-80362817D01*
X124348786Y-80268215D01*
X124336563Y-80238705D01*
X124336562Y-80238703D01*
X124335021Y-80234983D01*
X124250788Y-80125209D01*
X124244309Y-80120237D01*
X124144213Y-80043430D01*
X124141015Y-80040976D01*
X124137295Y-80039435D01*
X124137293Y-80039434D01*
X124016905Y-79989569D01*
X124016906Y-79989569D01*
X124013180Y-79988026D01*
X123875997Y-79969965D01*
X123738814Y-79988026D01*
X123719862Y-79995876D01*
X123613384Y-80039980D01*
X123566314Y-80039979D01*
X123533030Y-80006696D01*
X123528875Y-79991189D01*
X123514172Y-79879510D01*
X123511974Y-79862817D01*
X123480062Y-79785773D01*
X123460566Y-79738705D01*
X123460565Y-79738703D01*
X123459024Y-79734983D01*
X123383747Y-79636880D01*
X123377245Y-79628407D01*
X123374791Y-79625209D01*
X123265018Y-79540976D01*
X123261298Y-79539435D01*
X123261296Y-79539434D01*
X123150802Y-79493667D01*
X123137183Y-79488026D01*
X123000000Y-79469965D01*
X122862817Y-79488026D01*
X122740574Y-79538660D01*
X122702682Y-79541641D01*
X122569705Y-79509710D01*
X122425060Y-79498319D01*
X122412350Y-79497318D01*
X122405178Y-79496326D01*
X122402402Y-79495774D01*
X122396461Y-79494592D01*
X122377718Y-79498319D01*
X122365725Y-79499500D01*
X104530730Y-79499500D01*
X104518732Y-79498318D01*
X104516482Y-79497870D01*
X104500000Y-79494592D01*
X104494060Y-79495773D01*
X104488001Y-79495773D01*
X104488001Y-79495360D01*
X104475416Y-79495606D01*
X104451080Y-79491752D01*
X104432521Y-79488813D01*
X104414221Y-79482867D01*
X104405133Y-79478236D01*
X104362025Y-79456271D01*
X104346459Y-79444961D01*
X104305039Y-79403541D01*
X104293729Y-79387975D01*
X104277352Y-79355834D01*
X104267133Y-79335778D01*
X104261187Y-79317478D01*
X104254394Y-79274584D01*
X104254640Y-79261996D01*
X104254227Y-79261996D01*
X104254227Y-79255938D01*
X104255408Y-79250000D01*
X104254726Y-79246570D01*
X104237108Y-79000242D01*
X104228729Y-78961722D01*
X104184348Y-78757711D01*
X104183882Y-78755568D01*
X104096378Y-78520959D01*
X103976376Y-78301191D01*
X103826319Y-78100738D01*
X103649262Y-77923681D01*
X103448809Y-77773624D01*
X103247312Y-77663598D01*
X103217777Y-77626949D01*
X103222809Y-77580148D01*
X103241072Y-77559555D01*
X103254034Y-77550309D01*
X103258996Y-77542368D01*
X103257747Y-77536957D01*
X102508651Y-76787861D01*
X102500000Y-76784278D01*
X102491349Y-76787861D01*
X101742576Y-77536634D01*
X101738992Y-77545285D01*
X101744266Y-77558017D01*
X101744265Y-77605087D01*
X101710982Y-77638371D01*
X101705754Y-77640264D01*
X101700503Y-77641900D01*
X101698808Y-77642663D01*
X101460315Y-77750000D01*
X101452229Y-77753639D01*
X101450637Y-77754602D01*
X101450634Y-77754603D01*
X101220831Y-77893524D01*
X101220824Y-77893529D01*
X101219234Y-77894490D01*
X101004915Y-78062398D01*
X100812398Y-78254915D01*
X100644490Y-78469234D01*
X100643529Y-78470824D01*
X100643524Y-78470831D01*
X100512502Y-78687568D01*
X100503639Y-78702229D01*
X100502877Y-78703922D01*
X100502876Y-78703924D01*
X100485076Y-78743475D01*
X100391900Y-78950503D01*
X100327182Y-79158193D01*
X100320715Y-79178945D01*
X100290581Y-79215104D01*
X100243704Y-79219364D01*
X100207545Y-79189230D01*
X100200500Y-79160649D01*
X100200500Y-76389230D01*
X101137898Y-76389230D01*
X101150462Y-76607127D01*
X101151162Y-76612107D01*
X101199146Y-76825027D01*
X101200649Y-76829823D01*
X101282766Y-77032056D01*
X101285033Y-77036542D01*
X101369534Y-77174436D01*
X101377107Y-77179938D01*
X101381557Y-77179233D01*
X102132139Y-76428651D01*
X102135722Y-76420000D01*
X102864278Y-76420000D01*
X102867861Y-76428651D01*
X103614635Y-77175425D01*
X103623286Y-77179008D01*
X103628471Y-77176861D01*
X103666550Y-77123868D01*
X103669139Y-77119558D01*
X103765846Y-76923889D01*
X103767698Y-76919210D01*
X103819217Y-76749641D01*
X104294344Y-76749641D01*
X104295678Y-76755535D01*
X104295869Y-76758446D01*
X104295867Y-76759489D01*
X104295995Y-76760369D01*
X104312038Y-77005138D01*
X104312432Y-77007118D01*
X104312432Y-77007119D01*
X104313826Y-77014125D01*
X104361919Y-77255910D01*
X104444107Y-77498026D01*
X104444993Y-77499822D01*
X104444996Y-77499830D01*
X104556303Y-77725539D01*
X104557193Y-77727343D01*
X104699244Y-77939937D01*
X104700568Y-77941446D01*
X104700572Y-77941452D01*
X104807796Y-78063717D01*
X104867829Y-78132171D01*
X104869341Y-78133497D01*
X104875908Y-78139256D01*
X105060063Y-78300756D01*
X105061741Y-78301877D01*
X105234866Y-78417555D01*
X105272658Y-78442807D01*
X105274467Y-78443699D01*
X105500170Y-78555004D01*
X105500178Y-78555007D01*
X105501974Y-78555893D01*
X105744090Y-78638081D01*
X105994862Y-78687962D01*
X106068022Y-78692757D01*
X106238170Y-78703910D01*
X106242419Y-78704537D01*
X106242427Y-78704470D01*
X106245886Y-78704868D01*
X106249282Y-78705655D01*
X106250000Y-78705656D01*
X106254809Y-78704559D01*
X106265853Y-78702040D01*
X106279530Y-78700500D01*
X111970011Y-78700500D01*
X111983890Y-78702087D01*
X111999282Y-78705655D01*
X112000000Y-78705656D01*
X112003384Y-78704884D01*
X112006837Y-78704498D01*
X112006844Y-78704559D01*
X112010856Y-78703974D01*
X112087222Y-78698968D01*
X112255138Y-78687962D01*
X112257116Y-78687568D01*
X112257120Y-78687568D01*
X112503929Y-78638475D01*
X112503928Y-78638475D01*
X112505910Y-78638081D01*
X112748026Y-78555893D01*
X112749822Y-78555007D01*
X112749830Y-78555004D01*
X112975539Y-78443697D01*
X112975543Y-78443694D01*
X112977343Y-78442807D01*
X113186405Y-78303116D01*
X113188261Y-78301876D01*
X113188262Y-78301875D01*
X113189937Y-78300756D01*
X113191446Y-78299432D01*
X113191452Y-78299428D01*
X113380659Y-78133497D01*
X113382171Y-78132171D01*
X113442204Y-78063717D01*
X113549428Y-77941452D01*
X113549432Y-77941446D01*
X113550756Y-77939937D01*
X113692807Y-77727343D01*
X113693697Y-77725539D01*
X113805004Y-77499830D01*
X113805007Y-77499822D01*
X113805893Y-77498026D01*
X113888081Y-77255910D01*
X113936174Y-77014125D01*
X113937568Y-77007119D01*
X113937568Y-77007118D01*
X113937962Y-77005138D01*
X113949453Y-76829823D01*
X113953910Y-76761830D01*
X113954537Y-76757581D01*
X113954470Y-76757573D01*
X113954868Y-76754114D01*
X113955655Y-76750718D01*
X113955656Y-76750000D01*
X113952040Y-76734147D01*
X113950500Y-76720470D01*
X113950500Y-75279989D01*
X113952087Y-75266110D01*
X113955655Y-75250718D01*
X113955656Y-75250000D01*
X113954884Y-75246616D01*
X113954498Y-75243163D01*
X113954559Y-75243156D01*
X113953974Y-75239144D01*
X113944992Y-75102111D01*
X113937962Y-74994862D01*
X113888081Y-74744090D01*
X113805893Y-74501974D01*
X113805007Y-74500178D01*
X113805004Y-74500170D01*
X113693699Y-74274467D01*
X113692807Y-74272658D01*
X113687702Y-74265017D01*
X113575547Y-74097166D01*
X113550756Y-74060063D01*
X113382171Y-73867829D01*
X113361266Y-73849496D01*
X113191452Y-73700572D01*
X113191446Y-73700568D01*
X113189937Y-73699244D01*
X113188260Y-73698123D01*
X113020210Y-73585836D01*
X112977343Y-73557193D01*
X112975543Y-73556306D01*
X112975539Y-73556303D01*
X112749830Y-73444996D01*
X112749822Y-73444993D01*
X112748026Y-73444107D01*
X112505910Y-73361919D01*
X112339598Y-73328838D01*
X112257119Y-73312432D01*
X112257118Y-73312432D01*
X112255138Y-73312038D01*
X112181978Y-73307243D01*
X112011830Y-73296090D01*
X112007581Y-73295463D01*
X112007573Y-73295530D01*
X112004114Y-73295132D01*
X112000718Y-73294345D01*
X112000000Y-73294344D01*
X111996612Y-73295117D01*
X111996611Y-73295117D01*
X111984147Y-73297960D01*
X111970470Y-73299500D01*
X106279989Y-73299500D01*
X106266110Y-73297913D01*
X106250718Y-73294345D01*
X106250000Y-73294344D01*
X106246616Y-73295116D01*
X106243163Y-73295502D01*
X106243156Y-73295441D01*
X106239144Y-73296026D01*
X106162778Y-73301032D01*
X105994862Y-73312038D01*
X105992884Y-73312432D01*
X105992880Y-73312432D01*
X105781623Y-73354453D01*
X105744090Y-73361919D01*
X105501974Y-73444107D01*
X105500178Y-73444993D01*
X105500170Y-73444996D01*
X105351093Y-73518513D01*
X105272658Y-73557193D01*
X105270976Y-73558317D01*
X105270974Y-73558318D01*
X105227252Y-73587532D01*
X105060063Y-73699244D01*
X104867829Y-73867829D01*
X104699244Y-74060063D01*
X104674453Y-74097166D01*
X104562299Y-74265017D01*
X104557193Y-74272658D01*
X104556301Y-74274467D01*
X104444996Y-74500170D01*
X104444993Y-74500178D01*
X104444107Y-74501974D01*
X104361919Y-74744090D01*
X104312038Y-74994862D01*
X104305536Y-75094061D01*
X104296059Y-75238650D01*
X104295901Y-75239727D01*
X104295899Y-75241096D01*
X104295735Y-75243592D01*
X104294344Y-75249641D01*
X104295872Y-75256394D01*
X104295872Y-75256398D01*
X104297983Y-75265727D01*
X104299500Y-75279300D01*
X104299500Y-76720238D01*
X104297936Y-76734020D01*
X104294344Y-76749641D01*
X103819217Y-76749641D01*
X103831146Y-76710379D01*
X103832209Y-76705461D01*
X103860815Y-76488177D01*
X103861067Y-76484942D01*
X103862614Y-76421626D01*
X103862520Y-76418373D01*
X103844564Y-76199955D01*
X103843743Y-76195000D01*
X103790569Y-75983307D01*
X103788950Y-75978551D01*
X103701918Y-75778391D01*
X103699543Y-75773961D01*
X103629868Y-75666259D01*
X103622161Y-75660942D01*
X103617393Y-75661817D01*
X102867861Y-76411349D01*
X102864278Y-76420000D01*
X102135722Y-76420000D01*
X102132139Y-76411349D01*
X101385688Y-75664898D01*
X101377037Y-75661315D01*
X101372219Y-75663310D01*
X101316600Y-75744845D01*
X101314117Y-75749216D01*
X101222224Y-75947183D01*
X101220483Y-75951917D01*
X101162157Y-76162231D01*
X101161214Y-76167172D01*
X101138021Y-76384195D01*
X101137898Y-76389230D01*
X100200500Y-76389230D01*
X100200500Y-75296692D01*
X101740204Y-75296692D01*
X101741691Y-75302481D01*
X102491349Y-76052139D01*
X102500000Y-76055722D01*
X102508651Y-76052139D01*
X103257550Y-75303240D01*
X103261133Y-75294589D01*
X103258670Y-75288641D01*
X103256066Y-75286585D01*
X103251868Y-75283795D01*
X103060800Y-75178320D01*
X103056194Y-75176250D01*
X102850469Y-75103399D01*
X102845596Y-75102111D01*
X102630719Y-75063836D01*
X102625714Y-75063363D01*
X102407472Y-75060696D01*
X102402450Y-75061047D01*
X102186701Y-75094061D01*
X102181813Y-75095226D01*
X101974352Y-75163034D01*
X101969708Y-75164986D01*
X101776114Y-75265765D01*
X101771852Y-75268449D01*
X101744971Y-75288633D01*
X101740204Y-75296692D01*
X100200500Y-75296692D01*
X100200500Y-73866314D01*
X101519876Y-73866314D01*
X101523466Y-73909071D01*
X101532409Y-74015562D01*
X101535884Y-74056948D01*
X101536711Y-74059833D01*
X101536712Y-74059837D01*
X101553553Y-74118569D01*
X101588614Y-74240843D01*
X101609411Y-74281309D01*
X101657455Y-74374791D01*
X101676060Y-74410993D01*
X101794889Y-74560918D01*
X101940575Y-74684907D01*
X101943201Y-74686375D01*
X101943203Y-74686376D01*
X102104946Y-74776771D01*
X102104950Y-74776773D01*
X102107570Y-74778237D01*
X102110425Y-74779165D01*
X102110428Y-74779166D01*
X102215959Y-74813455D01*
X102289512Y-74837354D01*
X102292500Y-74837710D01*
X102292503Y-74837711D01*
X102412886Y-74852065D01*
X102479472Y-74860005D01*
X102482462Y-74859775D01*
X102482465Y-74859775D01*
X102667216Y-74845559D01*
X102667220Y-74845558D01*
X102670213Y-74845328D01*
X102854472Y-74793882D01*
X103025228Y-74707627D01*
X103121627Y-74632312D01*
X103173605Y-74591703D01*
X103173606Y-74591702D01*
X103175979Y-74589848D01*
X103199268Y-74562868D01*
X103299015Y-74447309D01*
X103299016Y-74447308D01*
X103300982Y-74445030D01*
X103383390Y-74299966D01*
X103393989Y-74281309D01*
X103393990Y-74281307D01*
X103395476Y-74278691D01*
X103437514Y-74152320D01*
X103454911Y-74100023D01*
X103454912Y-74100019D01*
X103455861Y-74097166D01*
X103479838Y-73907369D01*
X103480220Y-73880000D01*
X103462742Y-73701743D01*
X103461846Y-73692606D01*
X103461552Y-73689608D01*
X103406259Y-73506467D01*
X103316446Y-73337555D01*
X103307804Y-73326958D01*
X103197437Y-73191635D01*
X103195535Y-73189303D01*
X103151473Y-73152852D01*
X103050446Y-73069275D01*
X103050444Y-73069274D01*
X103048132Y-73067361D01*
X103045488Y-73065932D01*
X103045486Y-73065930D01*
X102882495Y-72977800D01*
X102882490Y-72977798D01*
X102879851Y-72976371D01*
X102876985Y-72975484D01*
X102876983Y-72975483D01*
X102822028Y-72958472D01*
X102697101Y-72919801D01*
X102671803Y-72917142D01*
X102509830Y-72900118D01*
X102509831Y-72900118D01*
X102506843Y-72899804D01*
X102503854Y-72900076D01*
X102503853Y-72900076D01*
X102319322Y-72916869D01*
X102319319Y-72916869D01*
X102316325Y-72917142D01*
X102132803Y-72971156D01*
X102101292Y-72987629D01*
X101965935Y-73058392D01*
X101965930Y-73058396D01*
X101963268Y-73059787D01*
X101960924Y-73061672D01*
X101960922Y-73061673D01*
X101830662Y-73166405D01*
X101814176Y-73179660D01*
X101812246Y-73181960D01*
X101804128Y-73191635D01*
X101691207Y-73326208D01*
X101689762Y-73328837D01*
X101689761Y-73328838D01*
X101672291Y-73360617D01*
X101599045Y-73493850D01*
X101589783Y-73523049D01*
X101544588Y-73665522D01*
X101541200Y-73676201D01*
X101519876Y-73866314D01*
X100200500Y-73866314D01*
X100200500Y-70883418D01*
X100549500Y-70883418D01*
X100549787Y-70885504D01*
X100549787Y-70885508D01*
X100562012Y-70974451D01*
X100585834Y-71147768D01*
X100657825Y-71404709D01*
X100658664Y-71406641D01*
X100658667Y-71406649D01*
X100722197Y-71552907D01*
X100764133Y-71649454D01*
X100765224Y-71651248D01*
X100765225Y-71651250D01*
X100790051Y-71692074D01*
X100902776Y-71877443D01*
X101071173Y-72084431D01*
X101072715Y-72085871D01*
X101263064Y-72263645D01*
X101266186Y-72266561D01*
X101484183Y-72420439D01*
X101721103Y-72543201D01*
X101723083Y-72543905D01*
X101723086Y-72543906D01*
X101831863Y-72582565D01*
X101972532Y-72632559D01*
X101980020Y-72634115D01*
X102231734Y-72686422D01*
X102231740Y-72686423D01*
X102233786Y-72686848D01*
X102235875Y-72686991D01*
X102235876Y-72686991D01*
X102492519Y-72704546D01*
X102495356Y-72704807D01*
X102495891Y-72704869D01*
X102499282Y-72705655D01*
X102500000Y-72705656D01*
X102503744Y-72704802D01*
X102515853Y-72702040D01*
X102529530Y-72700500D01*
X111970011Y-72700500D01*
X111983890Y-72702087D01*
X111999282Y-72705655D01*
X112000000Y-72705656D01*
X112003382Y-72704885D01*
X112006016Y-72704647D01*
X112264124Y-72686991D01*
X112264125Y-72686991D01*
X112266214Y-72686848D01*
X112268260Y-72686423D01*
X112268266Y-72686422D01*
X112519980Y-72634115D01*
X112527468Y-72632559D01*
X112668137Y-72582565D01*
X112776914Y-72543906D01*
X112776917Y-72543905D01*
X112778897Y-72543201D01*
X113015817Y-72420439D01*
X113233814Y-72266561D01*
X113236937Y-72263645D01*
X113427285Y-72085871D01*
X113428827Y-72084431D01*
X113597224Y-71877443D01*
X113709949Y-71692074D01*
X113734775Y-71651250D01*
X113734776Y-71651248D01*
X113735867Y-71649454D01*
X113777803Y-71552907D01*
X113841333Y-71406649D01*
X113841336Y-71406641D01*
X113842175Y-71404709D01*
X113914166Y-71147768D01*
X113937988Y-70974451D01*
X113950213Y-70885508D01*
X113950213Y-70885504D01*
X113950500Y-70883418D01*
X113950500Y-70616582D01*
X113943324Y-70564368D01*
X113928648Y-70457594D01*
X113914166Y-70352232D01*
X113842175Y-70095291D01*
X113841336Y-70093359D01*
X113841333Y-70093351D01*
X113736705Y-69852476D01*
X113735867Y-69850546D01*
X113726710Y-69835487D01*
X113603748Y-69633285D01*
X113597224Y-69622557D01*
X113428827Y-69415569D01*
X113313235Y-69307613D01*
X113235352Y-69234875D01*
X113235349Y-69234872D01*
X113233814Y-69233439D01*
X113015817Y-69079561D01*
X112778897Y-68956799D01*
X112776917Y-68956095D01*
X112776914Y-68956094D01*
X112668137Y-68917435D01*
X112527468Y-68867441D01*
X112506590Y-68863103D01*
X112268266Y-68813578D01*
X112268260Y-68813577D01*
X112266214Y-68813152D01*
X112264125Y-68813009D01*
X112264124Y-68813009D01*
X112007481Y-68795454D01*
X112004644Y-68795193D01*
X112004109Y-68795131D01*
X112000718Y-68794345D01*
X112000000Y-68794344D01*
X111996612Y-68795117D01*
X111996611Y-68795117D01*
X111984147Y-68797960D01*
X111970470Y-68799500D01*
X102529989Y-68799500D01*
X102516110Y-68797913D01*
X102500718Y-68794345D01*
X102500000Y-68794344D01*
X102496618Y-68795115D01*
X102493984Y-68795353D01*
X102235876Y-68813009D01*
X102235875Y-68813009D01*
X102233786Y-68813152D01*
X102231740Y-68813577D01*
X102231734Y-68813578D01*
X101993410Y-68863103D01*
X101972532Y-68867441D01*
X101831863Y-68917435D01*
X101723086Y-68956094D01*
X101723083Y-68956095D01*
X101721103Y-68956799D01*
X101484183Y-69079561D01*
X101266186Y-69233439D01*
X101264651Y-69234872D01*
X101264648Y-69234875D01*
X101186765Y-69307613D01*
X101071173Y-69415569D01*
X100902776Y-69622557D01*
X100896252Y-69633285D01*
X100773291Y-69835487D01*
X100764133Y-69850546D01*
X100763295Y-69852476D01*
X100658667Y-70093351D01*
X100658664Y-70093359D01*
X100657825Y-70095291D01*
X100585834Y-70352232D01*
X100571352Y-70457594D01*
X100556677Y-70564368D01*
X100549500Y-70616582D01*
X100549500Y-70883418D01*
X100200500Y-70883418D01*
X100200500Y-70029989D01*
X100202087Y-70016110D01*
X100205655Y-70000718D01*
X100205656Y-70000000D01*
X100204883Y-69996612D01*
X100204539Y-69993540D01*
X100204391Y-69992057D01*
X100187012Y-69793413D01*
X100187012Y-69793412D01*
X100186778Y-69790739D01*
X100184947Y-69783903D01*
X100144588Y-69633285D01*
X100132410Y-69587836D01*
X100043635Y-69397457D01*
X100033463Y-69382929D01*
X99953926Y-69269340D01*
X99923149Y-69225386D01*
X99774614Y-69076851D01*
X99688579Y-69016608D01*
X99604740Y-68957903D01*
X99604737Y-68957901D01*
X99602543Y-68956365D01*
X99412164Y-68867590D01*
X99310713Y-68840406D01*
X99211856Y-68813917D01*
X99211852Y-68813916D01*
X99209261Y-68813222D01*
X99206588Y-68812988D01*
X99206587Y-68812988D01*
X99002675Y-68795148D01*
X99000000Y-68794914D01*
X98997325Y-68795148D01*
X98793413Y-68812988D01*
X98793412Y-68812988D01*
X98790739Y-68813222D01*
X98788148Y-68813916D01*
X98788144Y-68813917D01*
X98689287Y-68840406D01*
X98587836Y-68867590D01*
X98397457Y-68956365D01*
X98395263Y-68957901D01*
X98395260Y-68957903D01*
X98311421Y-69016608D01*
X98225386Y-69076851D01*
X98076851Y-69225386D01*
X98046074Y-69269340D01*
X97977113Y-69367826D01*
X97937414Y-69393117D01*
X97891460Y-69382929D01*
X97866169Y-69343230D01*
X97865235Y-69332551D01*
X97865235Y-68665993D01*
X97866417Y-68653995D01*
X97868961Y-68641205D01*
X97870143Y-68635263D01*
X97868961Y-68629320D01*
X97868961Y-68627328D01*
X97868448Y-68623071D01*
X97858858Y-68403466D01*
X97854041Y-68293166D01*
X97849217Y-68256525D01*
X97809519Y-67955009D01*
X97809518Y-67955004D01*
X97809343Y-67953674D01*
X97778673Y-67815332D01*
X97736331Y-67624349D01*
X97735227Y-67619368D01*
X97632257Y-67292795D01*
X97621205Y-67266112D01*
X97501724Y-66977662D01*
X97501217Y-66976438D01*
X97484729Y-66944764D01*
X97396153Y-66774614D01*
X97343103Y-66672706D01*
X97299804Y-66604740D01*
X97159838Y-66385036D01*
X97159831Y-66385026D01*
X97159120Y-66383910D01*
X97155179Y-66378773D01*
X96951489Y-66113319D01*
X96951487Y-66113316D01*
X96950667Y-66112248D01*
X96918389Y-66077022D01*
X96736494Y-65878518D01*
X96720396Y-65834286D01*
X96728178Y-65806921D01*
X96782601Y-65709743D01*
X96849091Y-65513868D01*
X96855242Y-65471449D01*
X96878513Y-65310946D01*
X96878773Y-65309156D01*
X96879571Y-65278686D01*
X96880275Y-65251810D01*
X96880275Y-65251803D01*
X96880322Y-65250000D01*
X96861395Y-65044015D01*
X96805246Y-64844929D01*
X96745307Y-64723384D01*
X96715004Y-64661934D01*
X96715002Y-64661931D01*
X96713758Y-64659408D01*
X96589993Y-64493667D01*
X96587925Y-64491756D01*
X96587922Y-64491752D01*
X96440163Y-64355166D01*
X96438096Y-64353255D01*
X96263155Y-64242876D01*
X96071029Y-64166225D01*
X96068265Y-64165675D01*
X96068261Y-64165674D01*
X95870921Y-64126421D01*
X95868151Y-64125870D01*
X95865331Y-64125833D01*
X95865330Y-64125833D01*
X95812221Y-64125138D01*
X95661316Y-64123162D01*
X95658547Y-64123638D01*
X95658545Y-64123638D01*
X95460224Y-64157716D01*
X95460219Y-64157717D01*
X95457451Y-64158193D01*
X95454813Y-64159166D01*
X95454810Y-64159167D01*
X95266026Y-64228813D01*
X95266023Y-64228814D01*
X95263384Y-64229788D01*
X95085613Y-64335550D01*
X95083500Y-64337403D01*
X95083496Y-64337406D01*
X94932211Y-64470080D01*
X94932208Y-64470083D01*
X94930093Y-64471938D01*
X94928350Y-64474148D01*
X94928348Y-64474151D01*
X94803779Y-64632166D01*
X94803776Y-64632171D01*
X94802032Y-64634383D01*
X94800719Y-64636878D01*
X94800718Y-64636880D01*
X94755206Y-64723384D01*
X94705719Y-64817444D01*
X94704883Y-64820137D01*
X94704882Y-64820139D01*
X94653337Y-64986142D01*
X94644378Y-65014993D01*
X94620065Y-65220412D01*
X94633594Y-65426821D01*
X94634285Y-65429544D01*
X94634286Y-65429547D01*
X94660528Y-65532871D01*
X94684512Y-65627309D01*
X94685692Y-65629870D01*
X94685694Y-65629874D01*
X94739794Y-65747226D01*
X94771112Y-65815161D01*
X94772739Y-65817463D01*
X94772740Y-65817465D01*
X94885769Y-65977397D01*
X94890496Y-65984085D01*
X94892517Y-65986053D01*
X94892518Y-65986055D01*
X94957398Y-66049258D01*
X95038665Y-66128425D01*
X95041011Y-66129992D01*
X95041014Y-66129995D01*
X95192726Y-66231365D01*
X95210657Y-66243346D01*
X95213246Y-66244458D01*
X95213249Y-66244460D01*
X95359151Y-66307144D01*
X95400711Y-66325000D01*
X95403454Y-66325621D01*
X95403458Y-66325622D01*
X95599717Y-66370031D01*
X95599721Y-66370031D01*
X95602463Y-66370652D01*
X95605272Y-66370762D01*
X95605277Y-66370763D01*
X95715728Y-66375102D01*
X95809156Y-66378773D01*
X95811941Y-66378369D01*
X95811945Y-66378369D01*
X96011078Y-66349496D01*
X96011083Y-66349495D01*
X96013868Y-66349091D01*
X96114734Y-66314852D01*
X96207066Y-66283510D01*
X96207069Y-66283509D01*
X96209743Y-66282601D01*
X96307916Y-66227621D01*
X96354659Y-66222088D01*
X96383535Y-66239978D01*
X96585820Y-66463166D01*
X96589647Y-66467831D01*
X96742469Y-66673888D01*
X96785995Y-66732576D01*
X96789348Y-66737594D01*
X96958805Y-67020315D01*
X96961650Y-67025637D01*
X97011614Y-67131276D01*
X97083012Y-67282233D01*
X97102581Y-67323609D01*
X97104890Y-67329183D01*
X97209195Y-67620690D01*
X97215938Y-67639536D01*
X97217690Y-67645311D01*
X97297784Y-67965058D01*
X97298961Y-67970978D01*
X97347327Y-68297018D01*
X97347919Y-68303024D01*
X97348837Y-68321702D01*
X97358224Y-68512736D01*
X97362898Y-68607869D01*
X97361790Y-68622884D01*
X97359327Y-68635267D01*
X97360509Y-68641209D01*
X97363053Y-68653998D01*
X97364235Y-68665997D01*
X97364235Y-69494403D01*
X97346222Y-69537890D01*
X97302735Y-69555903D01*
X97259248Y-69537890D01*
X97242934Y-69508760D01*
X97189191Y-69284905D01*
X97187706Y-69280334D01*
X97098714Y-69065489D01*
X97096534Y-69061210D01*
X96989493Y-68886538D01*
X96981920Y-68881035D01*
X96977470Y-68881740D01*
X96117861Y-69741349D01*
X96114278Y-69750000D01*
X96117861Y-69758651D01*
X96974451Y-70615241D01*
X96983102Y-70618824D01*
X96987264Y-70617101D01*
X97096534Y-70438790D01*
X97098714Y-70434511D01*
X97187706Y-70219666D01*
X97189191Y-70215095D01*
X97242934Y-69991240D01*
X97270601Y-69953160D01*
X97317092Y-69945796D01*
X97355172Y-69973463D01*
X97364235Y-70005597D01*
X97364235Y-73461549D01*
X97346222Y-73505036D01*
X97302735Y-73523049D01*
X97259248Y-73505036D01*
X97245112Y-73483041D01*
X97232705Y-73449777D01*
X97231942Y-73447730D01*
X97230450Y-73444996D01*
X97121595Y-73245642D01*
X97121593Y-73245639D01*
X97120543Y-73243716D01*
X96981243Y-73057631D01*
X96931166Y-73007554D01*
X96882085Y-72958472D01*
X96864072Y-72914985D01*
X96864708Y-72906160D01*
X96874178Y-72840845D01*
X96878773Y-72809156D01*
X96879679Y-72774561D01*
X96880275Y-72751810D01*
X96880275Y-72751803D01*
X96880322Y-72750000D01*
X96861395Y-72544015D01*
X96805246Y-72344929D01*
X96793021Y-72320139D01*
X96715004Y-72161934D01*
X96715002Y-72161931D01*
X96713758Y-72159408D01*
X96657770Y-72084431D01*
X96591681Y-71995927D01*
X96591679Y-71995925D01*
X96589993Y-71993667D01*
X96587925Y-71991756D01*
X96587922Y-71991752D01*
X96440163Y-71855166D01*
X96438096Y-71853255D01*
X96263155Y-71742876D01*
X96187018Y-71712500D01*
X96073648Y-71667270D01*
X96073649Y-71667270D01*
X96071029Y-71666225D01*
X96068265Y-71665675D01*
X96068261Y-71665674D01*
X95870921Y-71626421D01*
X95868151Y-71625870D01*
X95865331Y-71625833D01*
X95865330Y-71625833D01*
X95812221Y-71625138D01*
X95661316Y-71623162D01*
X95658547Y-71623638D01*
X95658545Y-71623638D01*
X95460224Y-71657716D01*
X95460219Y-71657717D01*
X95457451Y-71658193D01*
X95454813Y-71659166D01*
X95454810Y-71659167D01*
X95266026Y-71728813D01*
X95266023Y-71728814D01*
X95263384Y-71729788D01*
X95085613Y-71835550D01*
X95083500Y-71837403D01*
X95083496Y-71837406D01*
X94932211Y-71970080D01*
X94932208Y-71970083D01*
X94930093Y-71971938D01*
X94928350Y-71974148D01*
X94928348Y-71974151D01*
X94803779Y-72132166D01*
X94803776Y-72132171D01*
X94802032Y-72134383D01*
X94800719Y-72136878D01*
X94800718Y-72136880D01*
X94707033Y-72314946D01*
X94705719Y-72317444D01*
X94704883Y-72320137D01*
X94704882Y-72320139D01*
X94668369Y-72437731D01*
X94644378Y-72514993D01*
X94644047Y-72517790D01*
X94621812Y-72705655D01*
X94620065Y-72720412D01*
X94633594Y-72926821D01*
X94634285Y-72929544D01*
X94634286Y-72929547D01*
X94681847Y-73116814D01*
X94684512Y-73127309D01*
X94685692Y-73129870D01*
X94685694Y-73129874D01*
X94762320Y-73296090D01*
X94771112Y-73315161D01*
X94772739Y-73317463D01*
X94772740Y-73317465D01*
X94863444Y-73445808D01*
X94890496Y-73484085D01*
X94892517Y-73486053D01*
X94892518Y-73486055D01*
X94957398Y-73549258D01*
X95038665Y-73628425D01*
X95041011Y-73629992D01*
X95041014Y-73629995D01*
X95205757Y-73740072D01*
X95210657Y-73743346D01*
X95213246Y-73744458D01*
X95213249Y-73744460D01*
X95345294Y-73801191D01*
X95400711Y-73825000D01*
X95403454Y-73825621D01*
X95403458Y-73825622D01*
X95599717Y-73870031D01*
X95599721Y-73870031D01*
X95602463Y-73870652D01*
X95605272Y-73870762D01*
X95605277Y-73870763D01*
X95715728Y-73875102D01*
X95809156Y-73878773D01*
X95811941Y-73878369D01*
X95811945Y-73878369D01*
X96011078Y-73849496D01*
X96011083Y-73849495D01*
X96013868Y-73849091D01*
X96118004Y-73813742D01*
X96207066Y-73783510D01*
X96207069Y-73783509D01*
X96209743Y-73782601D01*
X96390221Y-73681528D01*
X96392382Y-73679731D01*
X96392386Y-73679728D01*
X96547095Y-73551057D01*
X96549258Y-73549258D01*
X96551057Y-73547095D01*
X96551063Y-73547089D01*
X96587302Y-73503517D01*
X96628958Y-73481601D01*
X96673911Y-73495560D01*
X96684962Y-73507568D01*
X96712639Y-73547095D01*
X96720338Y-73558091D01*
X96725697Y-73567372D01*
X96781352Y-73686726D01*
X96803952Y-73735193D01*
X96807619Y-73745267D01*
X96812168Y-73762245D01*
X96855544Y-73924130D01*
X96857405Y-73934687D01*
X96868354Y-74059837D01*
X96871747Y-74098625D01*
X96870799Y-74115983D01*
X96869103Y-74124509D01*
X96870285Y-74130451D01*
X96872829Y-74143241D01*
X96874011Y-74155239D01*
X96874011Y-76093442D01*
X96855998Y-76136929D01*
X96812511Y-76154942D01*
X96772570Y-76140207D01*
X96640958Y-76027799D01*
X96637061Y-76024968D01*
X96438790Y-75903466D01*
X96434511Y-75901286D01*
X96219666Y-75812294D01*
X96215095Y-75810809D01*
X95988987Y-75756525D01*
X95984215Y-75755770D01*
X95752414Y-75737527D01*
X95747586Y-75737527D01*
X95515785Y-75755770D01*
X95511013Y-75756525D01*
X95284905Y-75810809D01*
X95280334Y-75812294D01*
X95065489Y-75901286D01*
X95061210Y-75903466D01*
X94886538Y-76010507D01*
X94881035Y-76018080D01*
X94881740Y-76022530D01*
X96065723Y-77206513D01*
X96083736Y-77250000D01*
X96065723Y-77293487D01*
X94884759Y-78474451D01*
X94881176Y-78483102D01*
X94882899Y-78487264D01*
X95061210Y-78596534D01*
X95065489Y-78598714D01*
X95280334Y-78687706D01*
X95284905Y-78689191D01*
X95511013Y-78743475D01*
X95515785Y-78744230D01*
X95747586Y-78762473D01*
X95752414Y-78762473D01*
X95984215Y-78744230D01*
X95988987Y-78743475D01*
X96215095Y-78689191D01*
X96219666Y-78687706D01*
X96434511Y-78598714D01*
X96438790Y-78596534D01*
X96637061Y-78475032D01*
X96640958Y-78472201D01*
X96772570Y-78359793D01*
X96817336Y-78345248D01*
X96859276Y-78366617D01*
X96874011Y-78406558D01*
X96874011Y-79621909D01*
X96855998Y-79665396D01*
X96812511Y-79683409D01*
X96769024Y-79665396D01*
X96763234Y-79658706D01*
X96641681Y-79495927D01*
X96641679Y-79495925D01*
X96639993Y-79493667D01*
X96637925Y-79491756D01*
X96637922Y-79491752D01*
X96496809Y-79361309D01*
X96488096Y-79353255D01*
X96313155Y-79242876D01*
X96286697Y-79232320D01*
X96152912Y-79178945D01*
X96121029Y-79166225D01*
X96118265Y-79165675D01*
X96118261Y-79165674D01*
X95920921Y-79126421D01*
X95918151Y-79125870D01*
X95915331Y-79125833D01*
X95915330Y-79125833D01*
X95862221Y-79125138D01*
X95711316Y-79123162D01*
X95708547Y-79123638D01*
X95708545Y-79123638D01*
X95510224Y-79157716D01*
X95510219Y-79157717D01*
X95507451Y-79158193D01*
X95504813Y-79159166D01*
X95504810Y-79159167D01*
X95316026Y-79228813D01*
X95316023Y-79228814D01*
X95313384Y-79229788D01*
X95135613Y-79335550D01*
X95133500Y-79337403D01*
X95133496Y-79337406D01*
X94982211Y-79470080D01*
X94982208Y-79470083D01*
X94980093Y-79471938D01*
X94978350Y-79474148D01*
X94978348Y-79474151D01*
X94853779Y-79632166D01*
X94853776Y-79632171D01*
X94852032Y-79634383D01*
X94850719Y-79636878D01*
X94850718Y-79636880D01*
X94772382Y-79785773D01*
X94755719Y-79817444D01*
X94754883Y-79820137D01*
X94754882Y-79820139D01*
X94695638Y-80010936D01*
X94694378Y-80014993D01*
X94694047Y-80017790D01*
X94680739Y-80130232D01*
X94670065Y-80220412D01*
X94683594Y-80426821D01*
X94684285Y-80429544D01*
X94684286Y-80429547D01*
X94731701Y-80616239D01*
X94734512Y-80627309D01*
X94735692Y-80629870D01*
X94735694Y-80629874D01*
X94819932Y-80812602D01*
X94821112Y-80815161D01*
X94822739Y-80817463D01*
X94822740Y-80817465D01*
X94923626Y-80960215D01*
X94940496Y-80984085D01*
X94942517Y-80986053D01*
X94942518Y-80986055D01*
X95006260Y-81048150D01*
X95088665Y-81128425D01*
X95091011Y-81129992D01*
X95091014Y-81129995D01*
X95251592Y-81237289D01*
X95260657Y-81243346D01*
X95263246Y-81244458D01*
X95263249Y-81244460D01*
X95377000Y-81293331D01*
X95450711Y-81325000D01*
X95453454Y-81325621D01*
X95453458Y-81325622D01*
X95649717Y-81370031D01*
X95649721Y-81370031D01*
X95652463Y-81370652D01*
X95655271Y-81370762D01*
X95655276Y-81370763D01*
X95737383Y-81373989D01*
X95777124Y-81375550D01*
X95819869Y-81395257D01*
X95830187Y-81410853D01*
X95830244Y-81410823D01*
X95830538Y-81411383D01*
X95830790Y-81411764D01*
X95831103Y-81412460D01*
X95831111Y-81412475D01*
X95831871Y-81414164D01*
X95988368Y-81673042D01*
X96174928Y-81911169D01*
X96388831Y-82125072D01*
X96626958Y-82311632D01*
X96712224Y-82363177D01*
X96881203Y-82465328D01*
X96885836Y-82468129D01*
X97161690Y-82592281D01*
X97163469Y-82592835D01*
X97163468Y-82592835D01*
X97402429Y-82667298D01*
X97450498Y-82682277D01*
X97452318Y-82682611D01*
X97452320Y-82682611D01*
X97746222Y-82736471D01*
X97746229Y-82736472D01*
X97748047Y-82736805D01*
X98047558Y-82754922D01*
X98050000Y-82755408D01*
X98055942Y-82754226D01*
X98055944Y-82754226D01*
X98068732Y-82751682D01*
X98080730Y-82750500D01*
X98561528Y-82750500D01*
X98605015Y-82768513D01*
X98623028Y-82812000D01*
X98605015Y-82855487D01*
X98587520Y-82867737D01*
X98567131Y-82877245D01*
X98399888Y-82955231D01*
X98399884Y-82955233D01*
X98397457Y-82956365D01*
X98395263Y-82957901D01*
X98395260Y-82957903D01*
X98317288Y-83012500D01*
X98225386Y-83076851D01*
X98076851Y-83225386D01*
X98062552Y-83245807D01*
X97991425Y-83347387D01*
X97956365Y-83397457D01*
X97867590Y-83587836D01*
X97849902Y-83653850D01*
X97823598Y-83752017D01*
X97813222Y-83790739D01*
X97795315Y-83995420D01*
X97794344Y-83999641D01*
X97795872Y-84006394D01*
X97795872Y-84006399D01*
X97797983Y-84015727D01*
X97799500Y-84029300D01*
X97799500Y-85970238D01*
X97797936Y-85984020D01*
X97794344Y-85999641D01*
X97795872Y-86006395D01*
X97795870Y-86007610D01*
X97796986Y-86025526D01*
X97786614Y-86130841D01*
X97784732Y-86149946D01*
X97782380Y-86161770D01*
X97765394Y-86217767D01*
X97740965Y-86298299D01*
X97740400Y-86300160D01*
X97735788Y-86311295D01*
X97669221Y-86435833D01*
X97667615Y-86438837D01*
X97660918Y-86448860D01*
X97569172Y-86560653D01*
X97560653Y-86569172D01*
X97456529Y-86654624D01*
X97448861Y-86660917D01*
X97438838Y-86667614D01*
X97311295Y-86735788D01*
X97300161Y-86740400D01*
X97268513Y-86750000D01*
X97161770Y-86782380D01*
X97149948Y-86784732D01*
X97114631Y-86788210D01*
X97025959Y-86796943D01*
X97009660Y-86795900D01*
X97007107Y-86795896D01*
X97000359Y-86794344D01*
X96993606Y-86795872D01*
X96993601Y-86795872D01*
X96984273Y-86797983D01*
X96970700Y-86799500D01*
X88029762Y-86799500D01*
X88015980Y-86797936D01*
X88010204Y-86796608D01*
X88000359Y-86794344D01*
X87993605Y-86795872D01*
X87992390Y-86795870D01*
X87974474Y-86796986D01*
X87850052Y-86784732D01*
X87838230Y-86782380D01*
X87731487Y-86750000D01*
X87699839Y-86740400D01*
X87688705Y-86735788D01*
X87561162Y-86667614D01*
X87551139Y-86660917D01*
X87543471Y-86654624D01*
X87439347Y-86569172D01*
X87430828Y-86560653D01*
X87339082Y-86448860D01*
X87332385Y-86438837D01*
X87330779Y-86435833D01*
X87264212Y-86311295D01*
X87259600Y-86300160D01*
X87259036Y-86298299D01*
X87234606Y-86217767D01*
X87217620Y-86161770D01*
X87215268Y-86149946D01*
X87213387Y-86130841D01*
X87203078Y-86026174D01*
X87204371Y-86006258D01*
X87204868Y-86004114D01*
X87204868Y-86004113D01*
X87205655Y-86000718D01*
X87205656Y-86000000D01*
X87202751Y-85987264D01*
X87202040Y-85984147D01*
X87201922Y-85983102D01*
X88431176Y-85983102D01*
X88432899Y-85987264D01*
X88611210Y-86096534D01*
X88615489Y-86098714D01*
X88830334Y-86187706D01*
X88834905Y-86189191D01*
X89061013Y-86243475D01*
X89065785Y-86244230D01*
X89297586Y-86262473D01*
X89302414Y-86262473D01*
X89534215Y-86244230D01*
X89538987Y-86243475D01*
X89765095Y-86189191D01*
X89769666Y-86187706D01*
X89984511Y-86098714D01*
X89988790Y-86096534D01*
X90163462Y-85989493D01*
X90168106Y-85983102D01*
X94931176Y-85983102D01*
X94932899Y-85987264D01*
X95111210Y-86096534D01*
X95115489Y-86098714D01*
X95330334Y-86187706D01*
X95334905Y-86189191D01*
X95561013Y-86243475D01*
X95565785Y-86244230D01*
X95797586Y-86262473D01*
X95802414Y-86262473D01*
X96034215Y-86244230D01*
X96038987Y-86243475D01*
X96265095Y-86189191D01*
X96269666Y-86187706D01*
X96484511Y-86098714D01*
X96488790Y-86096534D01*
X96663462Y-85989493D01*
X96668965Y-85981920D01*
X96668260Y-85977470D01*
X95808651Y-85117861D01*
X95800000Y-85114278D01*
X95791349Y-85117861D01*
X94934759Y-85974451D01*
X94931176Y-85983102D01*
X90168106Y-85983102D01*
X90168965Y-85981920D01*
X90168260Y-85977470D01*
X89308651Y-85117861D01*
X89300000Y-85114278D01*
X89291349Y-85117861D01*
X88434759Y-85974451D01*
X88431176Y-85983102D01*
X87201922Y-85983102D01*
X87200500Y-85970470D01*
X87200500Y-84752414D01*
X87787527Y-84752414D01*
X87805770Y-84984215D01*
X87806525Y-84988987D01*
X87860809Y-85215095D01*
X87862294Y-85219666D01*
X87951286Y-85434511D01*
X87953466Y-85438790D01*
X88060507Y-85613462D01*
X88068080Y-85618965D01*
X88072530Y-85618260D01*
X88932139Y-84758651D01*
X88935722Y-84750000D01*
X89664278Y-84750000D01*
X89667861Y-84758651D01*
X90524451Y-85615241D01*
X90533102Y-85618824D01*
X90537264Y-85617101D01*
X90646534Y-85438790D01*
X90648714Y-85434511D01*
X90737706Y-85219666D01*
X90739191Y-85215095D01*
X90793475Y-84988987D01*
X90794230Y-84984215D01*
X90812473Y-84752414D01*
X94287527Y-84752414D01*
X94305770Y-84984215D01*
X94306525Y-84988987D01*
X94360809Y-85215095D01*
X94362294Y-85219666D01*
X94451286Y-85434511D01*
X94453466Y-85438790D01*
X94560507Y-85613462D01*
X94568080Y-85618965D01*
X94572530Y-85618260D01*
X95432139Y-84758651D01*
X95435722Y-84750000D01*
X96164278Y-84750000D01*
X96167861Y-84758651D01*
X97024451Y-85615241D01*
X97033102Y-85618824D01*
X97037264Y-85617101D01*
X97146534Y-85438790D01*
X97148714Y-85434511D01*
X97237706Y-85219666D01*
X97239191Y-85215095D01*
X97293475Y-84988987D01*
X97294230Y-84984215D01*
X97312473Y-84752414D01*
X97312473Y-84747586D01*
X97294230Y-84515785D01*
X97293475Y-84511013D01*
X97239191Y-84284905D01*
X97237706Y-84280334D01*
X97148714Y-84065489D01*
X97146534Y-84061210D01*
X97039493Y-83886538D01*
X97031920Y-83881035D01*
X97027470Y-83881740D01*
X96167861Y-84741349D01*
X96164278Y-84750000D01*
X95435722Y-84750000D01*
X95432139Y-84741349D01*
X94575549Y-83884759D01*
X94566898Y-83881176D01*
X94562736Y-83882899D01*
X94453466Y-84061210D01*
X94451286Y-84065489D01*
X94362294Y-84280334D01*
X94360809Y-84284905D01*
X94306525Y-84511013D01*
X94305770Y-84515785D01*
X94287527Y-84747586D01*
X94287527Y-84752414D01*
X90812473Y-84752414D01*
X90812473Y-84747586D01*
X90794230Y-84515785D01*
X90793475Y-84511013D01*
X90739191Y-84284905D01*
X90737706Y-84280334D01*
X90648714Y-84065489D01*
X90646534Y-84061210D01*
X90539493Y-83886538D01*
X90531920Y-83881035D01*
X90527470Y-83881740D01*
X89667861Y-84741349D01*
X89664278Y-84750000D01*
X88935722Y-84750000D01*
X88932139Y-84741349D01*
X88075549Y-83884759D01*
X88066898Y-83881176D01*
X88062736Y-83882899D01*
X87953466Y-84061210D01*
X87951286Y-84065489D01*
X87862294Y-84280334D01*
X87860809Y-84284905D01*
X87806525Y-84511013D01*
X87805770Y-84515785D01*
X87787527Y-84747586D01*
X87787527Y-84752414D01*
X87200500Y-84752414D01*
X87200500Y-83518080D01*
X88431035Y-83518080D01*
X88431740Y-83522530D01*
X89291349Y-84382139D01*
X89300000Y-84385722D01*
X89308651Y-84382139D01*
X90165241Y-83525549D01*
X90168334Y-83518080D01*
X94931035Y-83518080D01*
X94931740Y-83522530D01*
X95791349Y-84382139D01*
X95800000Y-84385722D01*
X95808651Y-84382139D01*
X96665241Y-83525549D01*
X96668824Y-83516898D01*
X96667101Y-83512736D01*
X96488790Y-83403466D01*
X96484511Y-83401286D01*
X96269666Y-83312294D01*
X96265095Y-83310809D01*
X96038987Y-83256525D01*
X96034215Y-83255770D01*
X95802414Y-83237527D01*
X95797586Y-83237527D01*
X95565785Y-83255770D01*
X95561013Y-83256525D01*
X95334905Y-83310809D01*
X95330334Y-83312294D01*
X95115489Y-83401286D01*
X95111210Y-83403466D01*
X94936538Y-83510507D01*
X94931035Y-83518080D01*
X90168334Y-83518080D01*
X90168824Y-83516898D01*
X90167101Y-83512736D01*
X89988790Y-83403466D01*
X89984511Y-83401286D01*
X89769666Y-83312294D01*
X89765095Y-83310809D01*
X89538987Y-83256525D01*
X89534215Y-83255770D01*
X89302414Y-83237527D01*
X89297586Y-83237527D01*
X89065785Y-83255770D01*
X89061013Y-83256525D01*
X88834905Y-83310809D01*
X88830334Y-83312294D01*
X88615489Y-83401286D01*
X88611210Y-83403466D01*
X88436538Y-83510507D01*
X88431035Y-83518080D01*
X87200500Y-83518080D01*
X87200500Y-80220412D01*
X88170065Y-80220412D01*
X88183594Y-80426821D01*
X88184285Y-80429544D01*
X88184286Y-80429547D01*
X88231701Y-80616239D01*
X88234512Y-80627309D01*
X88235692Y-80629870D01*
X88235694Y-80629874D01*
X88319932Y-80812602D01*
X88321112Y-80815161D01*
X88322739Y-80817463D01*
X88322740Y-80817465D01*
X88423626Y-80960215D01*
X88440496Y-80984085D01*
X88442517Y-80986053D01*
X88442518Y-80986055D01*
X88506260Y-81048150D01*
X88588665Y-81128425D01*
X88591011Y-81129992D01*
X88591014Y-81129995D01*
X88751592Y-81237289D01*
X88760657Y-81243346D01*
X88763246Y-81244458D01*
X88763249Y-81244460D01*
X88877000Y-81293331D01*
X88950711Y-81325000D01*
X88953454Y-81325621D01*
X88953458Y-81325622D01*
X89149717Y-81370031D01*
X89149721Y-81370031D01*
X89152463Y-81370652D01*
X89155272Y-81370762D01*
X89155277Y-81370763D01*
X89257807Y-81374791D01*
X89359156Y-81378773D01*
X89361941Y-81378369D01*
X89361945Y-81378369D01*
X89561078Y-81349496D01*
X89561083Y-81349495D01*
X89563868Y-81349091D01*
X89680182Y-81309608D01*
X89757066Y-81283510D01*
X89757069Y-81283509D01*
X89759743Y-81282601D01*
X89940221Y-81181528D01*
X89942382Y-81179731D01*
X89942386Y-81179728D01*
X90097095Y-81051057D01*
X90099258Y-81049258D01*
X90101623Y-81046415D01*
X90229728Y-80892386D01*
X90229731Y-80892382D01*
X90231528Y-80890221D01*
X90332601Y-80709743D01*
X90337394Y-80695625D01*
X90376788Y-80579570D01*
X90399091Y-80513868D01*
X90399590Y-80510431D01*
X90414099Y-80410359D01*
X90428773Y-80309156D01*
X90430322Y-80250000D01*
X90419589Y-80133186D01*
X90411653Y-80046820D01*
X90411652Y-80046817D01*
X90411395Y-80044015D01*
X90406122Y-80025316D01*
X90364703Y-79878459D01*
X90355246Y-79844929D01*
X90323587Y-79780730D01*
X90265004Y-79661934D01*
X90265002Y-79661931D01*
X90263758Y-79659408D01*
X90175532Y-79541259D01*
X90141681Y-79495927D01*
X90141679Y-79495925D01*
X90139993Y-79493667D01*
X90137925Y-79491756D01*
X90137922Y-79491752D01*
X89996809Y-79361309D01*
X89988096Y-79353255D01*
X89813155Y-79242876D01*
X89786697Y-79232320D01*
X89652912Y-79178945D01*
X89621029Y-79166225D01*
X89618265Y-79165675D01*
X89618261Y-79165674D01*
X89420921Y-79126421D01*
X89418151Y-79125870D01*
X89415331Y-79125833D01*
X89415330Y-79125833D01*
X89362221Y-79125138D01*
X89211316Y-79123162D01*
X89208547Y-79123638D01*
X89208545Y-79123638D01*
X89010224Y-79157716D01*
X89010219Y-79157717D01*
X89007451Y-79158193D01*
X89004813Y-79159166D01*
X89004810Y-79159167D01*
X88816026Y-79228813D01*
X88816023Y-79228814D01*
X88813384Y-79229788D01*
X88635613Y-79335550D01*
X88633500Y-79337403D01*
X88633496Y-79337406D01*
X88482211Y-79470080D01*
X88482208Y-79470083D01*
X88480093Y-79471938D01*
X88478350Y-79474148D01*
X88478348Y-79474151D01*
X88353779Y-79632166D01*
X88353776Y-79632171D01*
X88352032Y-79634383D01*
X88350719Y-79636878D01*
X88350718Y-79636880D01*
X88272382Y-79785773D01*
X88255719Y-79817444D01*
X88254883Y-79820137D01*
X88254882Y-79820139D01*
X88195638Y-80010936D01*
X88194378Y-80014993D01*
X88194047Y-80017790D01*
X88180739Y-80130232D01*
X88170065Y-80220412D01*
X87200500Y-80220412D01*
X87200500Y-78483102D01*
X88381176Y-78483102D01*
X88382899Y-78487264D01*
X88561210Y-78596534D01*
X88565489Y-78598714D01*
X88780334Y-78687706D01*
X88784905Y-78689191D01*
X89011013Y-78743475D01*
X89015785Y-78744230D01*
X89247586Y-78762473D01*
X89252414Y-78762473D01*
X89484215Y-78744230D01*
X89488987Y-78743475D01*
X89715095Y-78689191D01*
X89719666Y-78687706D01*
X89934511Y-78598714D01*
X89938790Y-78596534D01*
X90113462Y-78489493D01*
X90118965Y-78481920D01*
X90118260Y-78477470D01*
X89258651Y-77617861D01*
X89250000Y-77614278D01*
X89241349Y-77617861D01*
X88384759Y-78474451D01*
X88381176Y-78483102D01*
X87200500Y-78483102D01*
X87200500Y-77252414D01*
X87737527Y-77252414D01*
X87755770Y-77484215D01*
X87756525Y-77488987D01*
X87810809Y-77715095D01*
X87812294Y-77719666D01*
X87901286Y-77934511D01*
X87903466Y-77938790D01*
X88010507Y-78113462D01*
X88018080Y-78118965D01*
X88022530Y-78118260D01*
X88882139Y-77258651D01*
X88885722Y-77250000D01*
X89614278Y-77250000D01*
X89617861Y-77258651D01*
X90474451Y-78115241D01*
X90483102Y-78118824D01*
X90487264Y-78117101D01*
X90596534Y-77938790D01*
X90598714Y-77934511D01*
X90687706Y-77719666D01*
X90689191Y-77715095D01*
X90743475Y-77488987D01*
X90744230Y-77484215D01*
X90762473Y-77252414D01*
X94237527Y-77252414D01*
X94255770Y-77484215D01*
X94256525Y-77488987D01*
X94310809Y-77715095D01*
X94312294Y-77719666D01*
X94401286Y-77934511D01*
X94403466Y-77938790D01*
X94510507Y-78113462D01*
X94518080Y-78118965D01*
X94522530Y-78118260D01*
X95382139Y-77258651D01*
X95385722Y-77250000D01*
X95382139Y-77241349D01*
X94525549Y-76384759D01*
X94516898Y-76381176D01*
X94512736Y-76382899D01*
X94403466Y-76561210D01*
X94401286Y-76565489D01*
X94312294Y-76780334D01*
X94310809Y-76784905D01*
X94256525Y-77011013D01*
X94255770Y-77015785D01*
X94237527Y-77247586D01*
X94237527Y-77252414D01*
X90762473Y-77252414D01*
X90762473Y-77247586D01*
X90744230Y-77015785D01*
X90743475Y-77011013D01*
X90689191Y-76784905D01*
X90687706Y-76780334D01*
X90598714Y-76565489D01*
X90596534Y-76561210D01*
X90489493Y-76386538D01*
X90481920Y-76381035D01*
X90477470Y-76381740D01*
X89617861Y-77241349D01*
X89614278Y-77250000D01*
X88885722Y-77250000D01*
X88882139Y-77241349D01*
X88025549Y-76384759D01*
X88016898Y-76381176D01*
X88012736Y-76382899D01*
X87903466Y-76561210D01*
X87901286Y-76565489D01*
X87812294Y-76780334D01*
X87810809Y-76784905D01*
X87756525Y-77011013D01*
X87755770Y-77015785D01*
X87737527Y-77247586D01*
X87737527Y-77252414D01*
X87200500Y-77252414D01*
X87200500Y-76018080D01*
X88381035Y-76018080D01*
X88381740Y-76022530D01*
X89241349Y-76882139D01*
X89250000Y-76885722D01*
X89258651Y-76882139D01*
X90115241Y-76025549D01*
X90118824Y-76016898D01*
X90117101Y-76012736D01*
X89938790Y-75903466D01*
X89934511Y-75901286D01*
X89719666Y-75812294D01*
X89715095Y-75810809D01*
X89488987Y-75756525D01*
X89484215Y-75755770D01*
X89252414Y-75737527D01*
X89247586Y-75737527D01*
X89015785Y-75755770D01*
X89011013Y-75756525D01*
X88784905Y-75810809D01*
X88780334Y-75812294D01*
X88565489Y-75901286D01*
X88561210Y-75903466D01*
X88386538Y-76010507D01*
X88381035Y-76018080D01*
X87200500Y-76018080D01*
X87200500Y-72720412D01*
X88120065Y-72720412D01*
X88133594Y-72926821D01*
X88134285Y-72929544D01*
X88134286Y-72929547D01*
X88181847Y-73116814D01*
X88184512Y-73127309D01*
X88185692Y-73129870D01*
X88185694Y-73129874D01*
X88262320Y-73296090D01*
X88271112Y-73315161D01*
X88272739Y-73317463D01*
X88272740Y-73317465D01*
X88363444Y-73445808D01*
X88390496Y-73484085D01*
X88392517Y-73486053D01*
X88392518Y-73486055D01*
X88457398Y-73549258D01*
X88538665Y-73628425D01*
X88541011Y-73629992D01*
X88541014Y-73629995D01*
X88705757Y-73740072D01*
X88710657Y-73743346D01*
X88713246Y-73744458D01*
X88713249Y-73744460D01*
X88845294Y-73801191D01*
X88900711Y-73825000D01*
X88903454Y-73825621D01*
X88903458Y-73825622D01*
X89099717Y-73870031D01*
X89099721Y-73870031D01*
X89102463Y-73870652D01*
X89105272Y-73870762D01*
X89105277Y-73870763D01*
X89215728Y-73875102D01*
X89309156Y-73878773D01*
X89311941Y-73878369D01*
X89311945Y-73878369D01*
X89511078Y-73849496D01*
X89511083Y-73849495D01*
X89513868Y-73849091D01*
X89618004Y-73813742D01*
X89707066Y-73783510D01*
X89707069Y-73783509D01*
X89709743Y-73782601D01*
X89890221Y-73681528D01*
X89892382Y-73679731D01*
X89892386Y-73679728D01*
X90047095Y-73551057D01*
X90049258Y-73549258D01*
X90071056Y-73523049D01*
X90179728Y-73392386D01*
X90179731Y-73392382D01*
X90181528Y-73390221D01*
X90282601Y-73209743D01*
X90289540Y-73189303D01*
X90330933Y-73067361D01*
X90349091Y-73013868D01*
X90349972Y-73007796D01*
X90369403Y-72873779D01*
X90378773Y-72809156D01*
X90379679Y-72774561D01*
X90380275Y-72751810D01*
X90380275Y-72751803D01*
X90380322Y-72750000D01*
X90361395Y-72544015D01*
X90305246Y-72344929D01*
X90293021Y-72320139D01*
X90215004Y-72161934D01*
X90215002Y-72161931D01*
X90213758Y-72159408D01*
X90157770Y-72084431D01*
X90091681Y-71995927D01*
X90091679Y-71995925D01*
X90089993Y-71993667D01*
X90087925Y-71991756D01*
X90087922Y-71991752D01*
X89940163Y-71855166D01*
X89938096Y-71853255D01*
X89763155Y-71742876D01*
X89687018Y-71712500D01*
X89573648Y-71667270D01*
X89573649Y-71667270D01*
X89571029Y-71666225D01*
X89568265Y-71665675D01*
X89568261Y-71665674D01*
X89370921Y-71626421D01*
X89368151Y-71625870D01*
X89365331Y-71625833D01*
X89365330Y-71625833D01*
X89312221Y-71625138D01*
X89161316Y-71623162D01*
X89158547Y-71623638D01*
X89158545Y-71623638D01*
X88960224Y-71657716D01*
X88960219Y-71657717D01*
X88957451Y-71658193D01*
X88954813Y-71659166D01*
X88954810Y-71659167D01*
X88766026Y-71728813D01*
X88766023Y-71728814D01*
X88763384Y-71729788D01*
X88585613Y-71835550D01*
X88583500Y-71837403D01*
X88583496Y-71837406D01*
X88432211Y-71970080D01*
X88432208Y-71970083D01*
X88430093Y-71971938D01*
X88428350Y-71974148D01*
X88428348Y-71974151D01*
X88303779Y-72132166D01*
X88303776Y-72132171D01*
X88302032Y-72134383D01*
X88300719Y-72136878D01*
X88300718Y-72136880D01*
X88207033Y-72314946D01*
X88205719Y-72317444D01*
X88204883Y-72320137D01*
X88204882Y-72320139D01*
X88168369Y-72437731D01*
X88144378Y-72514993D01*
X88144047Y-72517790D01*
X88121812Y-72705655D01*
X88120065Y-72720412D01*
X87200500Y-72720412D01*
X87200500Y-70983102D01*
X88381176Y-70983102D01*
X88382899Y-70987264D01*
X88561210Y-71096534D01*
X88565489Y-71098714D01*
X88780334Y-71187706D01*
X88784905Y-71189191D01*
X89011013Y-71243475D01*
X89015785Y-71244230D01*
X89247586Y-71262473D01*
X89252414Y-71262473D01*
X89484215Y-71244230D01*
X89488987Y-71243475D01*
X89715095Y-71189191D01*
X89719666Y-71187706D01*
X89934511Y-71098714D01*
X89938790Y-71096534D01*
X90113462Y-70989493D01*
X90118106Y-70983102D01*
X94881176Y-70983102D01*
X94882899Y-70987264D01*
X95061210Y-71096534D01*
X95065489Y-71098714D01*
X95280334Y-71187706D01*
X95284905Y-71189191D01*
X95511013Y-71243475D01*
X95515785Y-71244230D01*
X95747586Y-71262473D01*
X95752414Y-71262473D01*
X95984215Y-71244230D01*
X95988987Y-71243475D01*
X96215095Y-71189191D01*
X96219666Y-71187706D01*
X96434511Y-71098714D01*
X96438790Y-71096534D01*
X96613462Y-70989493D01*
X96618965Y-70981920D01*
X96618260Y-70977470D01*
X95758651Y-70117861D01*
X95750000Y-70114278D01*
X95741349Y-70117861D01*
X94884759Y-70974451D01*
X94881176Y-70983102D01*
X90118106Y-70983102D01*
X90118965Y-70981920D01*
X90118260Y-70977470D01*
X89258651Y-70117861D01*
X89250000Y-70114278D01*
X89241349Y-70117861D01*
X88384759Y-70974451D01*
X88381176Y-70983102D01*
X87200500Y-70983102D01*
X87200500Y-69752414D01*
X87737527Y-69752414D01*
X87755770Y-69984215D01*
X87756525Y-69988987D01*
X87810809Y-70215095D01*
X87812294Y-70219666D01*
X87901286Y-70434511D01*
X87903466Y-70438790D01*
X88010507Y-70613462D01*
X88018080Y-70618965D01*
X88022530Y-70618260D01*
X88882139Y-69758651D01*
X88885722Y-69750000D01*
X89614278Y-69750000D01*
X89617861Y-69758651D01*
X90474451Y-70615241D01*
X90483102Y-70618824D01*
X90487264Y-70617101D01*
X90596534Y-70438790D01*
X90598714Y-70434511D01*
X90687706Y-70219666D01*
X90689191Y-70215095D01*
X90743475Y-69988987D01*
X90744230Y-69984215D01*
X90762473Y-69752414D01*
X94237527Y-69752414D01*
X94255770Y-69984215D01*
X94256525Y-69988987D01*
X94310809Y-70215095D01*
X94312294Y-70219666D01*
X94401286Y-70434511D01*
X94403466Y-70438790D01*
X94510507Y-70613462D01*
X94518080Y-70618965D01*
X94522530Y-70618260D01*
X95382139Y-69758651D01*
X95385722Y-69750000D01*
X95382139Y-69741349D01*
X94525549Y-68884759D01*
X94516898Y-68881176D01*
X94512736Y-68882899D01*
X94403466Y-69061210D01*
X94401286Y-69065489D01*
X94312294Y-69280334D01*
X94310809Y-69284905D01*
X94256525Y-69511013D01*
X94255770Y-69515785D01*
X94237527Y-69747586D01*
X94237527Y-69752414D01*
X90762473Y-69752414D01*
X90762473Y-69747586D01*
X90744230Y-69515785D01*
X90743475Y-69511013D01*
X90689191Y-69284905D01*
X90687706Y-69280334D01*
X90598714Y-69065489D01*
X90596534Y-69061210D01*
X90489493Y-68886538D01*
X90481920Y-68881035D01*
X90477470Y-68881740D01*
X89617861Y-69741349D01*
X89614278Y-69750000D01*
X88885722Y-69750000D01*
X88882139Y-69741349D01*
X88025549Y-68884759D01*
X88016898Y-68881176D01*
X88012736Y-68882899D01*
X87903466Y-69061210D01*
X87901286Y-69065489D01*
X87812294Y-69280334D01*
X87810809Y-69284905D01*
X87756525Y-69511013D01*
X87755770Y-69515785D01*
X87737527Y-69747586D01*
X87737527Y-69752414D01*
X87200500Y-69752414D01*
X87200500Y-68518080D01*
X88381035Y-68518080D01*
X88381740Y-68522530D01*
X89241349Y-69382139D01*
X89250000Y-69385722D01*
X89258651Y-69382139D01*
X90115241Y-68525549D01*
X90118334Y-68518080D01*
X94881035Y-68518080D01*
X94881740Y-68522530D01*
X95741349Y-69382139D01*
X95750000Y-69385722D01*
X95758651Y-69382139D01*
X96615241Y-68525549D01*
X96618824Y-68516898D01*
X96617101Y-68512736D01*
X96438790Y-68403466D01*
X96434511Y-68401286D01*
X96219666Y-68312294D01*
X96215095Y-68310809D01*
X95988987Y-68256525D01*
X95984215Y-68255770D01*
X95752414Y-68237527D01*
X95747586Y-68237527D01*
X95515785Y-68255770D01*
X95511013Y-68256525D01*
X95284905Y-68310809D01*
X95280334Y-68312294D01*
X95065489Y-68401286D01*
X95061210Y-68403466D01*
X94886538Y-68510507D01*
X94881035Y-68518080D01*
X90118334Y-68518080D01*
X90118824Y-68516898D01*
X90117101Y-68512736D01*
X89938790Y-68403466D01*
X89934511Y-68401286D01*
X89719666Y-68312294D01*
X89715095Y-68310809D01*
X89488987Y-68256525D01*
X89484215Y-68255770D01*
X89252414Y-68237527D01*
X89247586Y-68237527D01*
X89015785Y-68255770D01*
X89011013Y-68256525D01*
X88784905Y-68310809D01*
X88780334Y-68312294D01*
X88565489Y-68401286D01*
X88561210Y-68403466D01*
X88386538Y-68510507D01*
X88381035Y-68518080D01*
X87200500Y-68518080D01*
X87200500Y-65220412D01*
X88120065Y-65220412D01*
X88133594Y-65426821D01*
X88134285Y-65429544D01*
X88134286Y-65429547D01*
X88160528Y-65532871D01*
X88184512Y-65627309D01*
X88185692Y-65629870D01*
X88185694Y-65629874D01*
X88239794Y-65747226D01*
X88271112Y-65815161D01*
X88272739Y-65817463D01*
X88272740Y-65817465D01*
X88385769Y-65977397D01*
X88390496Y-65984085D01*
X88392517Y-65986053D01*
X88392518Y-65986055D01*
X88457398Y-66049258D01*
X88538665Y-66128425D01*
X88541011Y-66129992D01*
X88541014Y-66129995D01*
X88692726Y-66231365D01*
X88710657Y-66243346D01*
X88713246Y-66244458D01*
X88713249Y-66244460D01*
X88859151Y-66307144D01*
X88900711Y-66325000D01*
X88903454Y-66325621D01*
X88903458Y-66325622D01*
X89099717Y-66370031D01*
X89099721Y-66370031D01*
X89102463Y-66370652D01*
X89105272Y-66370762D01*
X89105277Y-66370763D01*
X89215728Y-66375102D01*
X89309156Y-66378773D01*
X89311941Y-66378369D01*
X89311945Y-66378369D01*
X89511078Y-66349496D01*
X89511083Y-66349495D01*
X89513868Y-66349091D01*
X89614734Y-66314852D01*
X89707066Y-66283510D01*
X89707069Y-66283509D01*
X89709743Y-66282601D01*
X89890221Y-66181528D01*
X89892382Y-66179731D01*
X89892386Y-66179728D01*
X90047095Y-66051057D01*
X90049258Y-66049258D01*
X90083918Y-66007584D01*
X90179728Y-65892386D01*
X90179731Y-65892382D01*
X90181528Y-65890221D01*
X90282601Y-65709743D01*
X90349091Y-65513868D01*
X90355242Y-65471449D01*
X90378513Y-65310946D01*
X90378773Y-65309156D01*
X90379571Y-65278686D01*
X90380275Y-65251810D01*
X90380275Y-65251803D01*
X90380322Y-65250000D01*
X90361395Y-65044015D01*
X90305246Y-64844929D01*
X90245307Y-64723384D01*
X90215004Y-64661934D01*
X90215002Y-64661931D01*
X90213758Y-64659408D01*
X90089993Y-64493667D01*
X90087925Y-64491756D01*
X90087922Y-64491752D01*
X89940163Y-64355166D01*
X89938096Y-64353255D01*
X89763155Y-64242876D01*
X89571029Y-64166225D01*
X89568265Y-64165675D01*
X89568261Y-64165674D01*
X89370921Y-64126421D01*
X89368151Y-64125870D01*
X89365331Y-64125833D01*
X89365330Y-64125833D01*
X89312221Y-64125138D01*
X89161316Y-64123162D01*
X89158547Y-64123638D01*
X89158545Y-64123638D01*
X88960224Y-64157716D01*
X88960219Y-64157717D01*
X88957451Y-64158193D01*
X88954813Y-64159166D01*
X88954810Y-64159167D01*
X88766026Y-64228813D01*
X88766023Y-64228814D01*
X88763384Y-64229788D01*
X88585613Y-64335550D01*
X88583500Y-64337403D01*
X88583496Y-64337406D01*
X88432211Y-64470080D01*
X88432208Y-64470083D01*
X88430093Y-64471938D01*
X88428350Y-64474148D01*
X88428348Y-64474151D01*
X88303779Y-64632166D01*
X88303776Y-64632171D01*
X88302032Y-64634383D01*
X88300719Y-64636878D01*
X88300718Y-64636880D01*
X88255206Y-64723384D01*
X88205719Y-64817444D01*
X88204883Y-64820137D01*
X88204882Y-64820139D01*
X88153337Y-64986142D01*
X88144378Y-65014993D01*
X88120065Y-65220412D01*
X87200500Y-65220412D01*
X87200500Y-64029989D01*
X87202087Y-64016110D01*
X87205655Y-64000718D01*
X87205656Y-64000000D01*
X87204280Y-63993967D01*
X87203035Y-63974260D01*
X87212165Y-63881565D01*
X87215268Y-63850052D01*
X87217620Y-63838230D01*
X87259600Y-63699840D01*
X87264214Y-63688701D01*
X87300025Y-63621705D01*
X87332386Y-63561162D01*
X87339083Y-63551139D01*
X87375800Y-63506399D01*
X87430828Y-63439347D01*
X87439347Y-63430828D01*
X87551140Y-63339082D01*
X87561163Y-63332385D01*
X87576929Y-63323958D01*
X87688705Y-63264212D01*
X87699840Y-63259600D01*
X87838230Y-63217620D01*
X87850052Y-63215268D01*
X87910358Y-63209329D01*
X87974041Y-63203057D01*
X87990340Y-63204100D01*
X87992893Y-63204104D01*
X87999641Y-63205656D01*
X88006394Y-63204128D01*
X88006399Y-63204128D01*
X88015727Y-63202017D01*
X88029300Y-63200500D01*
X96970238Y-63200500D01*
X96984020Y-63202064D01*
G37*
%TD.AperFunction*%
%TA.AperFunction,Conductor*%
G36*
X88127053Y-89200997D02*
G01*
X88170468Y-89219180D01*
X88188312Y-89262737D01*
X88170129Y-89306153D01*
X88155802Y-89316735D01*
X88095674Y-89348873D01*
X88095664Y-89348880D01*
X88093001Y-89350303D01*
X87974591Y-89447477D01*
X87972678Y-89449808D01*
X87972673Y-89449813D01*
X87966239Y-89457653D01*
X87926727Y-89479612D01*
X87862817Y-89488026D01*
X87859095Y-89489568D01*
X87859094Y-89489568D01*
X87738705Y-89539434D01*
X87738703Y-89539435D01*
X87734983Y-89540976D01*
X87625209Y-89625209D01*
X87622755Y-89628407D01*
X87600193Y-89657810D01*
X87540976Y-89734983D01*
X87539435Y-89738703D01*
X87539434Y-89738705D01*
X87529120Y-89763606D01*
X87488026Y-89862817D01*
X87469965Y-90000000D01*
X87488026Y-90137183D01*
X87489569Y-90140908D01*
X87528536Y-90234983D01*
X87540976Y-90265017D01*
X87543430Y-90268215D01*
X87604424Y-90347703D01*
X87625209Y-90374791D01*
X87628407Y-90377245D01*
X87650547Y-90394234D01*
X87734982Y-90459024D01*
X87738702Y-90460565D01*
X87738704Y-90460566D01*
X87773103Y-90474814D01*
X87862817Y-90511974D01*
X87963344Y-90525209D01*
X87977145Y-90527026D01*
X87998202Y-90539184D01*
X88022855Y-90527026D01*
X88036656Y-90525209D01*
X88137183Y-90511974D01*
X88226897Y-90474814D01*
X88261296Y-90460566D01*
X88261298Y-90460565D01*
X88265018Y-90459024D01*
X88349453Y-90394234D01*
X88371593Y-90377245D01*
X88374791Y-90374791D01*
X88395577Y-90347703D01*
X88456570Y-90268215D01*
X88459024Y-90265017D01*
X88471465Y-90234983D01*
X88510431Y-90140908D01*
X88511974Y-90137183D01*
X88530035Y-90000000D01*
X88511974Y-89862817D01*
X88490324Y-89810549D01*
X88490324Y-89763479D01*
X88523608Y-89730195D01*
X88535146Y-89726696D01*
X88540848Y-89725562D01*
X88545840Y-89724569D01*
X88557837Y-89723387D01*
X98249502Y-89723387D01*
X98292989Y-89741400D01*
X98311002Y-89784887D01*
X98292989Y-89828374D01*
X98284779Y-89835264D01*
X98225386Y-89876851D01*
X98076851Y-90025386D01*
X98035445Y-90084520D01*
X97998570Y-90137183D01*
X97956365Y-90197457D01*
X97940358Y-90231785D01*
X97879257Y-90362817D01*
X97867590Y-90387836D01*
X97857766Y-90424500D01*
X97824922Y-90547076D01*
X97813222Y-90590739D01*
X97795315Y-90795420D01*
X97794344Y-90799641D01*
X97795872Y-90806394D01*
X97795872Y-90806399D01*
X97797983Y-90815727D01*
X97799500Y-90829300D01*
X97799500Y-90917833D01*
X97781487Y-90961320D01*
X97738000Y-90979333D01*
X97694513Y-90961320D01*
X97685563Y-90949967D01*
X97649313Y-90890812D01*
X97595956Y-90803741D01*
X97475596Y-90662817D01*
X97459470Y-90643936D01*
X97457901Y-90642099D01*
X97296259Y-90504044D01*
X97172830Y-90428407D01*
X97117065Y-90394234D01*
X97117062Y-90394233D01*
X97115010Y-90392975D01*
X97029248Y-90357451D01*
X96995966Y-90324169D01*
X96959024Y-90234983D01*
X96874791Y-90125209D01*
X96765018Y-90040976D01*
X96761298Y-90039435D01*
X96761296Y-90039434D01*
X96640908Y-89989569D01*
X96640909Y-89989569D01*
X96637183Y-89988026D01*
X96500000Y-89969965D01*
X96362817Y-89988026D01*
X96359092Y-89989569D01*
X96238705Y-90039434D01*
X96238703Y-90039435D01*
X96234983Y-90040976D01*
X96125209Y-90125209D01*
X96040976Y-90234983D01*
X96039435Y-90238703D01*
X96039434Y-90238705D01*
X96016291Y-90294578D01*
X95988026Y-90362817D01*
X95969965Y-90500000D01*
X95988026Y-90637183D01*
X96040976Y-90765017D01*
X96125209Y-90874791D01*
X96234982Y-90959024D01*
X96238702Y-90960565D01*
X96238704Y-90960566D01*
X96322972Y-90995470D01*
X96362817Y-91011974D01*
X96500000Y-91030035D01*
X96637183Y-91011974D01*
X96677028Y-90995470D01*
X96761296Y-90960566D01*
X96761298Y-90960565D01*
X96765018Y-90959024D01*
X96868727Y-90879444D01*
X96914193Y-90867261D01*
X96935157Y-90873997D01*
X96966616Y-90890812D01*
X96976638Y-90897509D01*
X97096008Y-90995473D01*
X97104527Y-91003992D01*
X97202490Y-91123360D01*
X97209187Y-91133383D01*
X97220328Y-91154226D01*
X97281980Y-91269567D01*
X97286594Y-91280706D01*
X97326414Y-91411974D01*
X97331419Y-91428475D01*
X97333770Y-91440296D01*
X97344616Y-91550409D01*
X97346981Y-91574419D01*
X97346095Y-91592444D01*
X97344592Y-91600000D01*
X97345774Y-91605942D01*
X97348318Y-91618732D01*
X97349500Y-91630730D01*
X97349500Y-97369270D01*
X97348318Y-97381268D01*
X97344592Y-97400000D01*
X97346095Y-97407556D01*
X97346981Y-97425580D01*
X97336414Y-97532871D01*
X97333771Y-97559701D01*
X97331419Y-97571525D01*
X97286594Y-97719294D01*
X97281980Y-97730433D01*
X97214106Y-97857416D01*
X97209188Y-97866616D01*
X97202491Y-97876638D01*
X97104527Y-97996008D01*
X97096008Y-98004527D01*
X96976640Y-98102490D01*
X96966616Y-98109188D01*
X96935157Y-98126003D01*
X96888313Y-98130617D01*
X96868727Y-98120556D01*
X96809347Y-98074991D01*
X96765018Y-98040976D01*
X96761298Y-98039435D01*
X96761296Y-98039434D01*
X96640908Y-97989569D01*
X96640909Y-97989569D01*
X96637183Y-97988026D01*
X96500000Y-97969965D01*
X96362817Y-97988026D01*
X96359092Y-97989569D01*
X96238705Y-98039434D01*
X96238703Y-98039435D01*
X96234983Y-98040976D01*
X96231785Y-98043430D01*
X96149809Y-98106333D01*
X96125209Y-98125209D01*
X96040976Y-98234983D01*
X96039435Y-98238703D01*
X96039434Y-98238705D01*
X96025486Y-98272379D01*
X95988026Y-98362817D01*
X95969965Y-98500000D01*
X95988026Y-98637183D01*
X95989569Y-98640908D01*
X96032563Y-98744705D01*
X96040976Y-98765017D01*
X96125209Y-98874791D01*
X96234982Y-98959024D01*
X96238702Y-98960565D01*
X96238704Y-98960566D01*
X96305553Y-98988255D01*
X96362817Y-99011974D01*
X96500000Y-99030035D01*
X96637183Y-99011974D01*
X96694447Y-98988255D01*
X96761296Y-98960566D01*
X96761298Y-98960565D01*
X96765018Y-98959024D01*
X96874791Y-98874791D01*
X96959024Y-98765017D01*
X96967438Y-98744705D01*
X96979313Y-98716035D01*
X96995966Y-98675831D01*
X97029248Y-98642549D01*
X97115010Y-98607025D01*
X97169549Y-98573604D01*
X97197087Y-98556729D01*
X97296259Y-98495956D01*
X97411549Y-98397489D01*
X97456064Y-98359470D01*
X97457901Y-98357901D01*
X97595956Y-98196259D01*
X97685563Y-98050033D01*
X97723643Y-98022366D01*
X97770134Y-98029730D01*
X97797801Y-98067810D01*
X97799500Y-98082167D01*
X97799500Y-98170238D01*
X97797936Y-98184020D01*
X97794344Y-98199641D01*
X97795222Y-98203521D01*
X97813222Y-98409261D01*
X97813916Y-98411852D01*
X97813917Y-98411856D01*
X97835529Y-98492511D01*
X97867590Y-98612164D01*
X97868724Y-98614595D01*
X97868724Y-98614596D01*
X97881758Y-98642548D01*
X97956365Y-98802543D01*
X97957901Y-98804737D01*
X97957903Y-98804740D01*
X98006954Y-98874791D01*
X98076851Y-98974614D01*
X98225386Y-99123149D01*
X98266734Y-99152101D01*
X98395260Y-99242097D01*
X98395263Y-99242099D01*
X98397457Y-99243635D01*
X98399890Y-99244769D01*
X98399889Y-99244769D01*
X98480293Y-99282262D01*
X98512093Y-99316966D01*
X98510040Y-99363991D01*
X98475336Y-99395791D01*
X98454302Y-99399500D01*
X88230730Y-99399500D01*
X88218732Y-99398318D01*
X88210366Y-99396654D01*
X88200000Y-99394592D01*
X88193625Y-99395860D01*
X88174745Y-99396654D01*
X88073486Y-99385245D01*
X88060060Y-99382181D01*
X88048955Y-99378295D01*
X87946430Y-99342420D01*
X87934021Y-99336445D01*
X87832084Y-99272394D01*
X87821317Y-99263807D01*
X87736193Y-99178683D01*
X87727606Y-99167916D01*
X87663555Y-99065979D01*
X87657580Y-99053571D01*
X87617819Y-98939940D01*
X87614755Y-98926514D01*
X87603346Y-98825255D01*
X87604140Y-98806373D01*
X87604226Y-98805941D01*
X87605408Y-98800000D01*
X87601682Y-98781268D01*
X87600500Y-98769270D01*
X87600500Y-91280730D01*
X87601682Y-91268732D01*
X87604226Y-91255942D01*
X87605408Y-91250000D01*
X87604237Y-91244111D01*
X87606321Y-91228276D01*
X87609565Y-91216168D01*
X87625483Y-91188597D01*
X87638597Y-91175483D01*
X87666168Y-91159565D01*
X87678276Y-91156321D01*
X87694111Y-91154237D01*
X87700000Y-91155408D01*
X87705942Y-91154226D01*
X87718732Y-91151682D01*
X87730730Y-91150500D01*
X88399508Y-91150500D01*
X88442995Y-91168513D01*
X88448299Y-91174561D01*
X88511227Y-91256570D01*
X88525209Y-91274791D01*
X88634982Y-91359024D01*
X88638702Y-91360565D01*
X88638704Y-91360566D01*
X88734577Y-91400277D01*
X88762817Y-91411974D01*
X88900000Y-91430035D01*
X89037183Y-91411974D01*
X89065423Y-91400277D01*
X89161296Y-91360566D01*
X89161298Y-91360565D01*
X89165018Y-91359024D01*
X89274791Y-91274791D01*
X89359024Y-91165017D01*
X89361283Y-91159565D01*
X89410431Y-91040908D01*
X89411974Y-91037183D01*
X89430035Y-90900000D01*
X89411974Y-90762817D01*
X89389011Y-90707379D01*
X89360566Y-90638705D01*
X89360565Y-90638703D01*
X89359024Y-90634983D01*
X89291570Y-90547076D01*
X89277245Y-90528407D01*
X89274791Y-90525209D01*
X89165018Y-90440976D01*
X89161298Y-90439435D01*
X89161296Y-90439434D01*
X89049131Y-90392975D01*
X89037183Y-90388026D01*
X88900000Y-90369965D01*
X88762817Y-90388026D01*
X88750869Y-90392975D01*
X88638705Y-90439434D01*
X88638703Y-90439435D01*
X88634983Y-90440976D01*
X88525209Y-90525209D01*
X88522755Y-90528407D01*
X88448299Y-90625439D01*
X88407535Y-90648974D01*
X88399508Y-90649500D01*
X88030883Y-90649500D01*
X88003063Y-90637977D01*
X87969117Y-90649500D01*
X87730730Y-90649500D01*
X87718732Y-90648318D01*
X87705942Y-90645774D01*
X87700000Y-90644592D01*
X87694059Y-90645774D01*
X87694057Y-90645774D01*
X87689690Y-90646643D01*
X87684577Y-90647438D01*
X87666278Y-90649500D01*
X87568961Y-90660464D01*
X87568956Y-90660465D01*
X87565531Y-90660851D01*
X87437804Y-90705545D01*
X87323225Y-90777539D01*
X87305487Y-90795277D01*
X87262000Y-90813290D01*
X87218513Y-90795277D01*
X87200500Y-90751790D01*
X87200500Y-90029989D01*
X87202087Y-90016110D01*
X87205655Y-90000718D01*
X87205656Y-90000000D01*
X87204280Y-89993967D01*
X87203035Y-89974260D01*
X87205525Y-89948985D01*
X87215268Y-89850052D01*
X87217620Y-89838230D01*
X87246993Y-89741400D01*
X87259600Y-89699839D01*
X87264214Y-89688701D01*
X87265915Y-89685520D01*
X87332386Y-89561162D01*
X87339083Y-89551139D01*
X87345410Y-89543430D01*
X87430828Y-89439347D01*
X87439347Y-89430828D01*
X87551140Y-89339082D01*
X87561163Y-89332385D01*
X87580957Y-89321805D01*
X87688705Y-89264212D01*
X87699840Y-89259600D01*
X87717553Y-89254227D01*
X87838229Y-89217620D01*
X87850052Y-89215268D01*
X87910358Y-89209329D01*
X87974041Y-89203057D01*
X87990340Y-89204100D01*
X87992893Y-89204104D01*
X87999641Y-89205656D01*
X88015220Y-89202131D01*
X88029030Y-89200615D01*
X88127053Y-89200997D01*
G37*
%TD.AperFunction*%
%TD*%
M02*
