%TF.GenerationSoftware,KiCad,Pcbnew,(5.1.9-0-10_14)*%
%TF.CreationDate,2021-03-10T16:04:49+00:00*%
%TF.ProjectId,EnvMon,456e764d-6f6e-42e6-9b69-6361645f7063,rev?*%
%TF.SameCoordinates,Original*%
%TF.FileFunction,Copper,L2,Bot*%
%TF.FilePolarity,Positive*%
%FSLAX46Y46*%
G04 Gerber Fmt 4.6, Leading zero omitted, Abs format (unit mm)*
G04 Created by KiCad (PCBNEW (5.1.9-0-10_14)) date 2021-03-10 16:04:49*
%MOMM*%
%LPD*%
G01*
G04 APERTURE LIST*
%TA.AperFunction,NonConductor*%
%ADD10C,0.300000*%
%TD*%
%TA.AperFunction,ComponentPad*%
%ADD11C,2.000000*%
%TD*%
%TA.AperFunction,ComponentPad*%
%ADD12R,2.000000X2.000000*%
%TD*%
%TA.AperFunction,ComponentPad*%
%ADD13C,5.000000*%
%TD*%
%TA.AperFunction,ComponentPad*%
%ADD14C,1.700000*%
%TD*%
%TA.AperFunction,ComponentPad*%
%ADD15R,1.524000X1.524000*%
%TD*%
%TA.AperFunction,ComponentPad*%
%ADD16O,1.700000X1.850000*%
%TD*%
%TA.AperFunction,ComponentPad*%
%ADD17C,0.600000*%
%TD*%
%TA.AperFunction,ViaPad*%
%ADD18C,0.800000*%
%TD*%
%TA.AperFunction,Conductor*%
%ADD19C,0.250000*%
%TD*%
%TA.AperFunction,Conductor*%
%ADD20C,0.254000*%
%TD*%
%TA.AperFunction,Conductor*%
%ADD21C,0.100000*%
%TD*%
G04 APERTURE END LIST*
D10*
X129678571Y-74464285D02*
X130678571Y-74750000D01*
X129964285Y-75035714D01*
X130678571Y-75321428D01*
X129678571Y-75607142D01*
X129678571Y-76035714D02*
X130678571Y-76321428D01*
X129964285Y-76607142D01*
X130678571Y-76892857D01*
X129678571Y-77178571D01*
X129678571Y-77607142D02*
X130678571Y-77892857D01*
X129964285Y-78178571D01*
X130678571Y-78464285D01*
X129678571Y-78750000D01*
X130535714Y-79321428D02*
X130607142Y-79392857D01*
X130678571Y-79321428D01*
X130607142Y-79250000D01*
X130535714Y-79321428D01*
X130678571Y-79321428D01*
X130678571Y-80035714D02*
X129678571Y-80035714D01*
X129821428Y-80035714D02*
X129750000Y-80107142D01*
X129678571Y-80250000D01*
X129678571Y-80464285D01*
X129750000Y-80607142D01*
X129892857Y-80678571D01*
X130678571Y-80678571D01*
X129892857Y-80678571D02*
X129750000Y-80750000D01*
X129678571Y-80892857D01*
X129678571Y-81107142D01*
X129750000Y-81250000D01*
X129892857Y-81321428D01*
X130678571Y-81321428D01*
X130607142Y-82607142D02*
X130678571Y-82464285D01*
X130678571Y-82178571D01*
X130607142Y-82035714D01*
X130464285Y-81964285D01*
X129892857Y-81964285D01*
X129750000Y-82035714D01*
X129678571Y-82178571D01*
X129678571Y-82464285D01*
X129750000Y-82607142D01*
X129892857Y-82678571D01*
X130035714Y-82678571D01*
X130178571Y-81964285D01*
X130535714Y-83321428D02*
X130607142Y-83392857D01*
X130678571Y-83321428D01*
X130607142Y-83250000D01*
X130535714Y-83321428D01*
X130678571Y-83321428D01*
X129678571Y-84678571D02*
X130678571Y-84678571D01*
X129678571Y-84035714D02*
X130464285Y-84035714D01*
X130607142Y-84107142D01*
X130678571Y-84250000D01*
X130678571Y-84464285D01*
X130607142Y-84607142D01*
X130535714Y-84678571D01*
X130678571Y-85392857D02*
X129178571Y-85392857D01*
X130107142Y-85535714D02*
X130678571Y-85964285D01*
X129678571Y-85964285D02*
X130250000Y-85392857D01*
D11*
%TO.P,J2,2*%
%TO.N,Net-(J1-PadA4)*%
X91710000Y-91750000D03*
D12*
%TO.P,J2,1*%
%TO.N,GND*%
X94250000Y-91750000D03*
%TD*%
D13*
%TO.P,M2,S*%
%TO.N,GND*%
X92500000Y-65500000D03*
X92500000Y-97500000D03*
X132000000Y-97500000D03*
X132000000Y-65500000D03*
D14*
%TO.P,M2,7*%
%TO.N,OLED-RST*%
X92500000Y-89120000D03*
%TO.P,M2,6*%
%TO.N,OLED-DC*%
X92500000Y-86580000D03*
%TO.P,M2,5*%
%TO.N,OLED-CS0*%
X92500000Y-84040000D03*
%TO.P,M2,4*%
%TO.N,OLED-SCLK*%
X92500000Y-81500000D03*
%TO.P,M2,3*%
%TO.N,OLED-MOSI*%
X92500000Y-78960000D03*
%TO.P,M2,2*%
%TO.N,GND*%
X92500000Y-76420000D03*
%TO.P,M2,1*%
%TO.N,+3V3*%
X92500000Y-73880000D03*
%TD*%
%TO.P,R9,2*%
%TO.N,+3V3*%
%TA.AperFunction,SMDPad,CuDef*%
G36*
G01*
X125924999Y-97850000D02*
X127175001Y-97850000D01*
G75*
G02*
X127425000Y-98099999I0J-249999D01*
G01*
X127425000Y-98900001D01*
G75*
G02*
X127175001Y-99150000I-249999J0D01*
G01*
X125924999Y-99150000D01*
G75*
G02*
X125675000Y-98900001I0J249999D01*
G01*
X125675000Y-98099999D01*
G75*
G02*
X125924999Y-97850000I249999J0D01*
G01*
G37*
%TD.AperFunction*%
%TO.P,R9,1*%
%TO.N,IO7*%
%TA.AperFunction,SMDPad,CuDef*%
G36*
G01*
X125924999Y-94750000D02*
X127175001Y-94750000D01*
G75*
G02*
X127425000Y-94999999I0J-249999D01*
G01*
X127425000Y-95800001D01*
G75*
G02*
X127175001Y-96050000I-249999J0D01*
G01*
X125924999Y-96050000D01*
G75*
G02*
X125675000Y-95800001I0J249999D01*
G01*
X125675000Y-94999999D01*
G75*
G02*
X125924999Y-94750000I249999J0D01*
G01*
G37*
%TD.AperFunction*%
%TD*%
%TO.P,R8,2*%
%TO.N,+3V3*%
%TA.AperFunction,SMDPad,CuDef*%
G36*
G01*
X123424999Y-97850000D02*
X124675001Y-97850000D01*
G75*
G02*
X124925000Y-98099999I0J-249999D01*
G01*
X124925000Y-98900001D01*
G75*
G02*
X124675001Y-99150000I-249999J0D01*
G01*
X123424999Y-99150000D01*
G75*
G02*
X123175000Y-98900001I0J249999D01*
G01*
X123175000Y-98099999D01*
G75*
G02*
X123424999Y-97850000I249999J0D01*
G01*
G37*
%TD.AperFunction*%
%TO.P,R8,1*%
%TO.N,IO6*%
%TA.AperFunction,SMDPad,CuDef*%
G36*
G01*
X123424999Y-94750000D02*
X124675001Y-94750000D01*
G75*
G02*
X124925000Y-94999999I0J-249999D01*
G01*
X124925000Y-95800001D01*
G75*
G02*
X124675001Y-96050000I-249999J0D01*
G01*
X123424999Y-96050000D01*
G75*
G02*
X123175000Y-95800001I0J249999D01*
G01*
X123175000Y-94999999D01*
G75*
G02*
X123424999Y-94750000I249999J0D01*
G01*
G37*
%TD.AperFunction*%
%TD*%
%TO.P,R7,2*%
%TO.N,+3V3*%
%TA.AperFunction,SMDPad,CuDef*%
G36*
G01*
X120924999Y-97850000D02*
X122175001Y-97850000D01*
G75*
G02*
X122425000Y-98099999I0J-249999D01*
G01*
X122425000Y-98900001D01*
G75*
G02*
X122175001Y-99150000I-249999J0D01*
G01*
X120924999Y-99150000D01*
G75*
G02*
X120675000Y-98900001I0J249999D01*
G01*
X120675000Y-98099999D01*
G75*
G02*
X120924999Y-97850000I249999J0D01*
G01*
G37*
%TD.AperFunction*%
%TO.P,R7,1*%
%TO.N,IO5*%
%TA.AperFunction,SMDPad,CuDef*%
G36*
G01*
X120924999Y-94750000D02*
X122175001Y-94750000D01*
G75*
G02*
X122425000Y-94999999I0J-249999D01*
G01*
X122425000Y-95800001D01*
G75*
G02*
X122175001Y-96050000I-249999J0D01*
G01*
X120924999Y-96050000D01*
G75*
G02*
X120675000Y-95800001I0J249999D01*
G01*
X120675000Y-94999999D01*
G75*
G02*
X120924999Y-94750000I249999J0D01*
G01*
G37*
%TD.AperFunction*%
%TD*%
%TO.P,R6,2*%
%TO.N,+3V3*%
%TA.AperFunction,SMDPad,CuDef*%
G36*
G01*
X118424999Y-97850000D02*
X119675001Y-97850000D01*
G75*
G02*
X119925000Y-98099999I0J-249999D01*
G01*
X119925000Y-98900001D01*
G75*
G02*
X119675001Y-99150000I-249999J0D01*
G01*
X118424999Y-99150000D01*
G75*
G02*
X118175000Y-98900001I0J249999D01*
G01*
X118175000Y-98099999D01*
G75*
G02*
X118424999Y-97850000I249999J0D01*
G01*
G37*
%TD.AperFunction*%
%TO.P,R6,1*%
%TO.N,IO4*%
%TA.AperFunction,SMDPad,CuDef*%
G36*
G01*
X118424999Y-94750000D02*
X119675001Y-94750000D01*
G75*
G02*
X119925000Y-94999999I0J-249999D01*
G01*
X119925000Y-95800001D01*
G75*
G02*
X119675001Y-96050000I-249999J0D01*
G01*
X118424999Y-96050000D01*
G75*
G02*
X118175000Y-95800001I0J249999D01*
G01*
X118175000Y-94999999D01*
G75*
G02*
X118424999Y-94750000I249999J0D01*
G01*
G37*
%TD.AperFunction*%
%TD*%
%TO.P,R5,2*%
%TO.N,+3V3*%
%TA.AperFunction,SMDPad,CuDef*%
G36*
G01*
X115924999Y-97850000D02*
X117175001Y-97850000D01*
G75*
G02*
X117425000Y-98099999I0J-249999D01*
G01*
X117425000Y-98900001D01*
G75*
G02*
X117175001Y-99150000I-249999J0D01*
G01*
X115924999Y-99150000D01*
G75*
G02*
X115675000Y-98900001I0J249999D01*
G01*
X115675000Y-98099999D01*
G75*
G02*
X115924999Y-97850000I249999J0D01*
G01*
G37*
%TD.AperFunction*%
%TO.P,R5,1*%
%TO.N,IO3*%
%TA.AperFunction,SMDPad,CuDef*%
G36*
G01*
X115924999Y-94750000D02*
X117175001Y-94750000D01*
G75*
G02*
X117425000Y-94999999I0J-249999D01*
G01*
X117425000Y-95800001D01*
G75*
G02*
X117175001Y-96050000I-249999J0D01*
G01*
X115924999Y-96050000D01*
G75*
G02*
X115675000Y-95800001I0J249999D01*
G01*
X115675000Y-94999999D01*
G75*
G02*
X115924999Y-94750000I249999J0D01*
G01*
G37*
%TD.AperFunction*%
%TD*%
%TO.P,R4,2*%
%TO.N,+3V3*%
%TA.AperFunction,SMDPad,CuDef*%
G36*
G01*
X113424999Y-97850000D02*
X114675001Y-97850000D01*
G75*
G02*
X114925000Y-98099999I0J-249999D01*
G01*
X114925000Y-98900001D01*
G75*
G02*
X114675001Y-99150000I-249999J0D01*
G01*
X113424999Y-99150000D01*
G75*
G02*
X113175000Y-98900001I0J249999D01*
G01*
X113175000Y-98099999D01*
G75*
G02*
X113424999Y-97850000I249999J0D01*
G01*
G37*
%TD.AperFunction*%
%TO.P,R4,1*%
%TO.N,IO2*%
%TA.AperFunction,SMDPad,CuDef*%
G36*
G01*
X113424999Y-94750000D02*
X114675001Y-94750000D01*
G75*
G02*
X114925000Y-94999999I0J-249999D01*
G01*
X114925000Y-95800001D01*
G75*
G02*
X114675001Y-96050000I-249999J0D01*
G01*
X113424999Y-96050000D01*
G75*
G02*
X113175000Y-95800001I0J249999D01*
G01*
X113175000Y-94999999D01*
G75*
G02*
X113424999Y-94750000I249999J0D01*
G01*
G37*
%TD.AperFunction*%
%TD*%
%TO.P,R3,2*%
%TO.N,+3V3*%
%TA.AperFunction,SMDPad,CuDef*%
G36*
G01*
X110924999Y-97850000D02*
X112175001Y-97850000D01*
G75*
G02*
X112425000Y-98099999I0J-249999D01*
G01*
X112425000Y-98900001D01*
G75*
G02*
X112175001Y-99150000I-249999J0D01*
G01*
X110924999Y-99150000D01*
G75*
G02*
X110675000Y-98900001I0J249999D01*
G01*
X110675000Y-98099999D01*
G75*
G02*
X110924999Y-97850000I249999J0D01*
G01*
G37*
%TD.AperFunction*%
%TO.P,R3,1*%
%TO.N,IO1*%
%TA.AperFunction,SMDPad,CuDef*%
G36*
G01*
X110924999Y-94750000D02*
X112175001Y-94750000D01*
G75*
G02*
X112425000Y-94999999I0J-249999D01*
G01*
X112425000Y-95800001D01*
G75*
G02*
X112175001Y-96050000I-249999J0D01*
G01*
X110924999Y-96050000D01*
G75*
G02*
X110675000Y-95800001I0J249999D01*
G01*
X110675000Y-94999999D01*
G75*
G02*
X110924999Y-94750000I249999J0D01*
G01*
G37*
%TD.AperFunction*%
%TD*%
%TO.P,M3,4*%
%TO.N,CO2-SDA*%
X99020000Y-71650000D03*
%TO.P,M3,3*%
%TO.N,CO2-SCL*%
X96480000Y-71650000D03*
%TO.P,M3,2*%
%TO.N,GND*%
X93940000Y-71650000D03*
%TO.P,M3,1*%
%TO.N,+3V3*%
X91400000Y-71650000D03*
%TD*%
%TO.P,R2,2*%
%TO.N,GND*%
%TA.AperFunction,SMDPad,CuDef*%
G36*
G01*
X97864999Y-97850000D02*
X99115001Y-97850000D01*
G75*
G02*
X99365000Y-98099999I0J-249999D01*
G01*
X99365000Y-98900001D01*
G75*
G02*
X99115001Y-99150000I-249999J0D01*
G01*
X97864999Y-99150000D01*
G75*
G02*
X97615000Y-98900001I0J249999D01*
G01*
X97615000Y-98099999D01*
G75*
G02*
X97864999Y-97850000I249999J0D01*
G01*
G37*
%TD.AperFunction*%
%TO.P,R2,1*%
%TO.N,Net-(J1-PadA5)*%
%TA.AperFunction,SMDPad,CuDef*%
G36*
G01*
X97864999Y-94750000D02*
X99115001Y-94750000D01*
G75*
G02*
X99365000Y-94999999I0J-249999D01*
G01*
X99365000Y-95800001D01*
G75*
G02*
X99115001Y-96050000I-249999J0D01*
G01*
X97864999Y-96050000D01*
G75*
G02*
X97615000Y-95800001I0J249999D01*
G01*
X97615000Y-94999999D01*
G75*
G02*
X97864999Y-94750000I249999J0D01*
G01*
G37*
%TD.AperFunction*%
%TD*%
%TO.P,R1,2*%
%TO.N,GND*%
%TA.AperFunction,SMDPad,CuDef*%
G36*
G01*
X100404999Y-97850000D02*
X101655001Y-97850000D01*
G75*
G02*
X101905000Y-98099999I0J-249999D01*
G01*
X101905000Y-98900001D01*
G75*
G02*
X101655001Y-99150000I-249999J0D01*
G01*
X100404999Y-99150000D01*
G75*
G02*
X100155000Y-98900001I0J249999D01*
G01*
X100155000Y-98099999D01*
G75*
G02*
X100404999Y-97850000I249999J0D01*
G01*
G37*
%TD.AperFunction*%
%TO.P,R1,1*%
%TO.N,Net-(J1-PadB5)*%
%TA.AperFunction,SMDPad,CuDef*%
G36*
G01*
X100404999Y-94750000D02*
X101655001Y-94750000D01*
G75*
G02*
X101905000Y-94999999I0J-249999D01*
G01*
X101905000Y-95800001D01*
G75*
G02*
X101655001Y-96050000I-249999J0D01*
G01*
X100404999Y-96050000D01*
G75*
G02*
X100155000Y-95800001I0J249999D01*
G01*
X100155000Y-94999999D01*
G75*
G02*
X100404999Y-94750000I249999J0D01*
G01*
G37*
%TD.AperFunction*%
%TD*%
%TO.P,M1,4*%
%TO.N,+3V3*%
X102560000Y-84230000D03*
D15*
%TO.P,M1,3*%
%TO.N,GND*%
X100020000Y-84230000D03*
D14*
%TO.P,M1,2*%
%TO.N,Net-(J1-PadA4)*%
X97480000Y-84230000D03*
%TD*%
D16*
%TO.P,J3,8*%
%TO.N,IO7*%
X126550000Y-93150000D03*
%TO.P,J3,7*%
%TO.N,IO6*%
X124050000Y-93150000D03*
%TO.P,J3,6*%
%TO.N,IO5*%
X121550000Y-93150000D03*
%TO.P,J3,5*%
%TO.N,IO4*%
X119050000Y-93150000D03*
%TO.P,J3,4*%
%TO.N,IO3*%
X116550000Y-93150000D03*
%TO.P,J3,3*%
%TO.N,IO2*%
X114050000Y-93150000D03*
%TO.P,J3,2*%
%TO.N,IO1*%
X111550000Y-93150000D03*
%TO.P,J3,1*%
%TO.N,GND*%
%TA.AperFunction,ComponentPad*%
G36*
G01*
X108200000Y-93825000D02*
X108200000Y-92475000D01*
G75*
G02*
X108450000Y-92225000I250000J0D01*
G01*
X109650000Y-92225000D01*
G75*
G02*
X109900000Y-92475000I0J-250000D01*
G01*
X109900000Y-93825000D01*
G75*
G02*
X109650000Y-94075000I-250000J0D01*
G01*
X108450000Y-94075000D01*
G75*
G02*
X108200000Y-93825000I0J250000D01*
G01*
G37*
%TD.AperFunction*%
%TD*%
D14*
%TO.P,J1,S1*%
%TO.N,GND*%
X104075000Y-97905000D03*
X95425000Y-97905000D03*
D11*
X104075000Y-93725000D03*
X95425000Y-93725000D03*
D17*
X102640000Y-94205000D03*
X96860000Y-94205000D03*
%TD*%
D18*
%TO.N,Net-(J1-PadA7)*%
X98398044Y-91499259D03*
X101831940Y-90975010D03*
%TO.N,Net-(J1-PadA6)*%
X100950065Y-91899960D03*
X99396733Y-91447838D03*
%TO.N,Net-(J1-PadA5)*%
X97400976Y-91575940D03*
%TO.N,Net-(J1-PadB5)*%
X102272627Y-91964988D03*
%TO.N,Net-(U1-Pad16)*%
X98750000Y-85750000D03*
X109750000Y-73750000D03*
%TO.N,Net-(U1-Pad15)*%
X120524990Y-75750000D03*
X103653722Y-85900601D03*
%TO.N,Net-(U1-Pad2)*%
X121250000Y-74250000D03*
X96786210Y-87989109D03*
%TO.N,GND*%
X97200843Y-88935633D03*
%TO.N,+3V3*%
X110000000Y-98500000D03*
%TO.N,OLED-RST*%
X105512660Y-84487340D03*
%TO.N,OLED-DC*%
X105975010Y-83262660D03*
%TO.N,OLED-CS0*%
X119750000Y-83250000D03*
%TO.N,OLED-SCLK*%
X108350004Y-82035323D03*
%TO.N,OLED-MOSI*%
X110750000Y-79250000D03*
%TO.N,CO2-SDA*%
X122000000Y-73000000D03*
%TO.N,CO2-SCL*%
X120750000Y-73000000D03*
%TO.N,CBUS3*%
X102750000Y-86500000D03*
X108801277Y-84758952D03*
%TO.N,CBUS0*%
X123000000Y-88000000D03*
X102492532Y-87580023D03*
%TO.N,CBUS1*%
X103250000Y-88250000D03*
X120500000Y-89500000D03*
%TO.N,CBUS2*%
X97250000Y-90250000D03*
X106500000Y-90250000D03*
%TD*%
D19*
%TO.N,Net-(J1-PadA7)*%
X101556941Y-90700011D02*
X101831940Y-90975010D01*
X98499399Y-90700011D02*
X101556941Y-90700011D01*
X98398044Y-90801366D02*
X98499399Y-90700011D01*
X98398044Y-91499259D02*
X98398044Y-90801366D01*
%TO.N,Net-(J1-PadA6)*%
X100950065Y-91899960D02*
X99848855Y-91899960D01*
X99848855Y-91899960D02*
X99396733Y-91447838D01*
%TO.N,Net-(J1-PadA5)*%
X98490000Y-95500000D02*
X98490000Y-92664964D01*
X98490000Y-92664964D02*
X97400976Y-91575940D01*
%TO.N,Net-(J1-PadB5)*%
X101030000Y-95500000D02*
X101030000Y-93207615D01*
X101030000Y-93207615D02*
X102272627Y-91964988D01*
%TO.N,Net-(U1-Pad16)*%
X103735001Y-84794001D02*
X104346001Y-85405001D01*
X111101716Y-85349978D02*
X123150022Y-85349978D01*
X99094999Y-85405001D02*
X103124001Y-85405001D01*
X122000000Y-76500000D02*
X119750000Y-76500000D01*
X123750000Y-78250000D02*
X122000000Y-76500000D01*
X123150022Y-85349978D02*
X123750000Y-84750000D01*
X109335678Y-83583940D02*
X111101716Y-85349978D01*
X106445815Y-85405001D02*
X108266876Y-83583940D01*
X108266876Y-83583940D02*
X109335678Y-83583940D01*
X104346001Y-85405001D02*
X106445815Y-85405001D01*
X123750000Y-84750000D02*
X123750000Y-78250000D01*
X103124001Y-85405001D02*
X103735001Y-84794001D01*
X98750000Y-85750000D02*
X99094999Y-85405001D01*
X119500000Y-76250000D02*
X119500000Y-73750000D01*
X119750000Y-76500000D02*
X119500000Y-76250000D01*
X119500000Y-73750000D02*
X109750000Y-73750000D01*
%TO.N,Net-(U1-Pad15)*%
X122000000Y-75750000D02*
X120524990Y-75750000D01*
X123450011Y-85799989D02*
X124250000Y-85000000D01*
X110915316Y-85799989D02*
X123450011Y-85799989D01*
X108453276Y-84033951D02*
X109149278Y-84033951D01*
X124250000Y-78000000D02*
X122000000Y-75750000D01*
X103653722Y-85900601D02*
X106586626Y-85900601D01*
X124250000Y-85000000D02*
X124250000Y-78000000D01*
X109149278Y-84033951D02*
X110915316Y-85799989D01*
X106586626Y-85900601D02*
X108453276Y-84033951D01*
%TO.N,Net-(U1-Pad2)*%
X96786210Y-87989109D02*
X97351895Y-87989109D01*
X98887784Y-89524998D02*
X106848002Y-89524998D01*
X107548006Y-90225002D02*
X121475002Y-90225002D01*
X124722382Y-88420489D02*
X124722382Y-77722382D01*
X97351895Y-87989109D02*
X98887784Y-89524998D01*
X122725002Y-88975002D02*
X124167869Y-88975002D01*
X124722382Y-77722382D02*
X121250000Y-74250000D01*
X106848002Y-89524998D02*
X107548006Y-90225002D01*
X121475002Y-90225002D02*
X122725002Y-88975002D01*
X124167869Y-88975002D02*
X124722382Y-88420489D01*
%TO.N,GND*%
X94250000Y-91750000D02*
X94250000Y-90500000D01*
X95814367Y-88935633D02*
X97200843Y-88935633D01*
X94250000Y-90500000D02*
X95814367Y-88935633D01*
%TO.N,+3V3*%
X110000000Y-98500000D02*
X111550000Y-98500000D01*
X111550000Y-98500000D02*
X114050000Y-98500000D01*
X114050000Y-98500000D02*
X116550000Y-98500000D01*
X116550000Y-98500000D02*
X119050000Y-98500000D01*
X119050000Y-98500000D02*
X121550000Y-98500000D01*
X121550000Y-98500000D02*
X124050000Y-98500000D01*
X124050000Y-98500000D02*
X126550000Y-98500000D01*
%TO.N,OLED-RST*%
X92500000Y-89120000D02*
X94735499Y-86884501D01*
X94735499Y-86884501D02*
X94735499Y-81764501D01*
X94735499Y-81764501D02*
X95750000Y-80750000D01*
X105112661Y-81612661D02*
X105112661Y-84087341D01*
X95750000Y-80750000D02*
X104250000Y-80750000D01*
X104250000Y-80750000D02*
X105112661Y-81612661D01*
X105112661Y-84087341D02*
X105512660Y-84487340D01*
%TO.N,OLED-DC*%
X105975010Y-81838599D02*
X105975010Y-83262660D01*
X92500000Y-86580000D02*
X94285488Y-84794512D01*
X104436400Y-80299989D02*
X105975010Y-81838599D01*
X95563600Y-80299989D02*
X104436400Y-80299989D01*
X94285488Y-84794512D02*
X94285488Y-81578101D01*
X94285488Y-81578101D02*
X95563600Y-80299989D01*
%TO.N,OLED-CS0*%
X93835477Y-82704523D02*
X92500000Y-84040000D01*
X95377200Y-79849978D02*
X93835477Y-81391701D01*
X104622800Y-79849978D02*
X95377200Y-79849978D01*
X107906751Y-83133929D02*
X104622800Y-79849978D01*
X93835477Y-81391701D02*
X93835477Y-82704523D01*
X109522078Y-83133929D02*
X107906751Y-83133929D01*
X111138150Y-84750000D02*
X109522078Y-83133929D01*
X118250000Y-84750000D02*
X111138150Y-84750000D01*
X119750000Y-83250000D02*
X118250000Y-84750000D01*
%TO.N,OLED-SCLK*%
X104809200Y-79399967D02*
X107444556Y-82035323D01*
X92500000Y-81500000D02*
X94600033Y-79399967D01*
X94600033Y-79399967D02*
X104809200Y-79399967D01*
X107444556Y-82035323D02*
X108350004Y-82035323D01*
%TO.N,OLED-MOSI*%
X92500000Y-78960000D02*
X92510044Y-78949956D01*
X92510044Y-78949956D02*
X104995600Y-78949956D01*
X104995600Y-78949956D02*
X105855643Y-79809999D01*
X105855643Y-79809999D02*
X110190001Y-79809999D01*
X110190001Y-79809999D02*
X110750000Y-79250000D01*
%TO.N,CO2-SDA*%
X99020000Y-71650000D02*
X99870000Y-72500000D01*
X99870000Y-72500000D02*
X120000000Y-72500000D01*
X120500000Y-72000000D02*
X121000000Y-72000000D01*
X122000000Y-73000000D02*
X121000000Y-72000000D01*
X120000000Y-72500000D02*
X120500000Y-72000000D01*
%TO.N,CO2-SCL*%
X97830000Y-73000000D02*
X96480000Y-71650000D01*
X120750000Y-73000000D02*
X97830000Y-73000000D01*
%TO.N,IO7*%
X126550000Y-95400000D02*
X126550000Y-93150000D01*
%TO.N,IO6*%
X124050000Y-95400000D02*
X124050000Y-93150000D01*
%TO.N,IO5*%
X121550000Y-95400000D02*
X121550000Y-93150000D01*
%TO.N,IO4*%
X119050000Y-95400000D02*
X119050000Y-93150000D01*
%TO.N,IO3*%
X116550000Y-95400000D02*
X116550000Y-93150000D01*
%TO.N,IO2*%
X114050000Y-95400000D02*
X114050000Y-93150000D01*
%TO.N,IO1*%
X111550000Y-95400000D02*
X111550000Y-93150000D01*
%TO.N,CBUS3*%
X106660230Y-86899999D02*
X108801277Y-84758952D01*
X102750000Y-86500000D02*
X103149999Y-86899999D01*
X103149999Y-86899999D02*
X106660230Y-86899999D01*
%TO.N,CBUS0*%
X102492532Y-87580023D02*
X102547556Y-87524999D01*
X122000000Y-86250000D02*
X122524999Y-86774999D01*
X102547556Y-87524999D02*
X107725001Y-87524999D01*
X122524999Y-87524999D02*
X123000000Y-88000000D01*
X122524999Y-86774999D02*
X122524999Y-87524999D01*
X107725001Y-87524999D02*
X109000000Y-86250000D01*
X109000000Y-86250000D02*
X122000000Y-86250000D01*
%TO.N,CBUS1*%
X103250000Y-88250000D02*
X119250000Y-88250000D01*
X119250000Y-88250000D02*
X120500000Y-89500000D01*
%TO.N,CBUS2*%
X97250000Y-90250000D02*
X106500000Y-90250000D01*
%TD*%
D20*
%TO.N,GND*%
X100590001Y-68717571D02*
X100586807Y-68750000D01*
X100599550Y-68879383D01*
X100637290Y-69003793D01*
X100698575Y-69118450D01*
X100781052Y-69218948D01*
X100881550Y-69301425D01*
X100996207Y-69362710D01*
X101120617Y-69400450D01*
X101217581Y-69410000D01*
X101250000Y-69413193D01*
X101282419Y-69410000D01*
X129217581Y-69410000D01*
X129250000Y-69413193D01*
X129282419Y-69410000D01*
X129379383Y-69400450D01*
X129503793Y-69362710D01*
X129618450Y-69301425D01*
X129718948Y-69218948D01*
X129801425Y-69118450D01*
X129862710Y-69003793D01*
X129900450Y-68879383D01*
X129913193Y-68750000D01*
X129910000Y-68717581D01*
X129910000Y-67769608D01*
X129976458Y-67703150D01*
X130252627Y-68121118D01*
X130797557Y-68411649D01*
X131388696Y-68590287D01*
X132003328Y-68650168D01*
X132617831Y-68588990D01*
X133208592Y-68409103D01*
X133747373Y-68121118D01*
X133840000Y-67980931D01*
X133840001Y-95019070D01*
X133747373Y-94878882D01*
X133202443Y-94588351D01*
X132611304Y-94409713D01*
X131996672Y-94349832D01*
X131382169Y-94411010D01*
X130791408Y-94590897D01*
X130252627Y-94878882D01*
X129976457Y-95296852D01*
X132000000Y-97320395D01*
X132014143Y-97306253D01*
X132193748Y-97485858D01*
X132179605Y-97500000D01*
X132193748Y-97514143D01*
X132014143Y-97693748D01*
X132000000Y-97679605D01*
X131985858Y-97693748D01*
X131806253Y-97514143D01*
X131820395Y-97500000D01*
X129796852Y-95476457D01*
X129378882Y-95752627D01*
X129088351Y-96297557D01*
X128909713Y-96888696D01*
X128849832Y-97503328D01*
X128911010Y-98117831D01*
X129090897Y-98708592D01*
X129378882Y-99247373D01*
X129519069Y-99340000D01*
X127941941Y-99340000D01*
X127995472Y-99239851D01*
X128046008Y-99073255D01*
X128063072Y-98900001D01*
X128063072Y-98099999D01*
X128046008Y-97926745D01*
X127995472Y-97760149D01*
X127913405Y-97606613D01*
X127802962Y-97472038D01*
X127668387Y-97361595D01*
X127514851Y-97279528D01*
X127348255Y-97228992D01*
X127175001Y-97211928D01*
X125924999Y-97211928D01*
X125751745Y-97228992D01*
X125585149Y-97279528D01*
X125431613Y-97361595D01*
X125300000Y-97469607D01*
X125168387Y-97361595D01*
X125014851Y-97279528D01*
X124848255Y-97228992D01*
X124675001Y-97211928D01*
X123424999Y-97211928D01*
X123251745Y-97228992D01*
X123085149Y-97279528D01*
X122931613Y-97361595D01*
X122800000Y-97469607D01*
X122668387Y-97361595D01*
X122514851Y-97279528D01*
X122348255Y-97228992D01*
X122175001Y-97211928D01*
X120924999Y-97211928D01*
X120751745Y-97228992D01*
X120585149Y-97279528D01*
X120431613Y-97361595D01*
X120300000Y-97469607D01*
X120168387Y-97361595D01*
X120014851Y-97279528D01*
X119848255Y-97228992D01*
X119675001Y-97211928D01*
X118424999Y-97211928D01*
X118251745Y-97228992D01*
X118085149Y-97279528D01*
X117931613Y-97361595D01*
X117800000Y-97469607D01*
X117668387Y-97361595D01*
X117514851Y-97279528D01*
X117348255Y-97228992D01*
X117175001Y-97211928D01*
X115924999Y-97211928D01*
X115751745Y-97228992D01*
X115585149Y-97279528D01*
X115431613Y-97361595D01*
X115300000Y-97469607D01*
X115168387Y-97361595D01*
X115014851Y-97279528D01*
X114848255Y-97228992D01*
X114675001Y-97211928D01*
X113424999Y-97211928D01*
X113251745Y-97228992D01*
X113085149Y-97279528D01*
X112931613Y-97361595D01*
X112800000Y-97469607D01*
X112668387Y-97361595D01*
X112514851Y-97279528D01*
X112348255Y-97228992D01*
X112175001Y-97211928D01*
X110924999Y-97211928D01*
X110751745Y-97228992D01*
X110585149Y-97279528D01*
X110431613Y-97361595D01*
X110297038Y-97472038D01*
X110274624Y-97499349D01*
X110101939Y-97465000D01*
X109898061Y-97465000D01*
X109698102Y-97504774D01*
X109509744Y-97582795D01*
X109340226Y-97696063D01*
X109196063Y-97840226D01*
X109082795Y-98009744D01*
X109004774Y-98198102D01*
X108965000Y-98398061D01*
X108965000Y-98601939D01*
X109004774Y-98801898D01*
X109082795Y-98990256D01*
X109196063Y-99159774D01*
X109340226Y-99303937D01*
X109394198Y-99340000D01*
X104471406Y-99340000D01*
X104708747Y-99255919D01*
X104846157Y-99182472D01*
X104923792Y-98933397D01*
X104075000Y-98084605D01*
X103226208Y-98933397D01*
X103303843Y-99182472D01*
X103567883Y-99308371D01*
X103692490Y-99340000D01*
X102510937Y-99340000D01*
X102530812Y-99274482D01*
X102543072Y-99150000D01*
X102540000Y-98785750D01*
X102381250Y-98627000D01*
X101157000Y-98627000D01*
X101157000Y-98647000D01*
X100903000Y-98647000D01*
X100903000Y-98627000D01*
X98617000Y-98627000D01*
X98617000Y-98647000D01*
X98363000Y-98647000D01*
X98363000Y-98627000D01*
X97138750Y-98627000D01*
X96980000Y-98785750D01*
X96976928Y-99150000D01*
X96989188Y-99274482D01*
X97009063Y-99340000D01*
X95821406Y-99340000D01*
X96058747Y-99255919D01*
X96196157Y-99182472D01*
X96273792Y-98933397D01*
X95558126Y-98217731D01*
X95590287Y-98111304D01*
X95609873Y-97910268D01*
X96453397Y-98753792D01*
X96702472Y-98676157D01*
X96828371Y-98412117D01*
X96900339Y-98128589D01*
X96914903Y-97850000D01*
X96976928Y-97850000D01*
X96980000Y-98214250D01*
X97138750Y-98373000D01*
X98363000Y-98373000D01*
X98363000Y-97373750D01*
X98617000Y-97373750D01*
X98617000Y-98373000D01*
X100903000Y-98373000D01*
X100903000Y-97373750D01*
X101157000Y-97373750D01*
X101157000Y-98373000D01*
X102381250Y-98373000D01*
X102540000Y-98214250D01*
X102542030Y-97973531D01*
X102584389Y-97973531D01*
X102626401Y-98263019D01*
X102724081Y-98538747D01*
X102797528Y-98676157D01*
X103046603Y-98753792D01*
X103895395Y-97905000D01*
X104254605Y-97905000D01*
X105103397Y-98753792D01*
X105352472Y-98676157D01*
X105478371Y-98412117D01*
X105550339Y-98128589D01*
X105565611Y-97836469D01*
X105523599Y-97546981D01*
X105425919Y-97271253D01*
X105352472Y-97133843D01*
X105103397Y-97056208D01*
X104254605Y-97905000D01*
X103895395Y-97905000D01*
X103046603Y-97056208D01*
X102797528Y-97133843D01*
X102671629Y-97397883D01*
X102599661Y-97681411D01*
X102584389Y-97973531D01*
X102542030Y-97973531D01*
X102543072Y-97850000D01*
X102530812Y-97725518D01*
X102494502Y-97605820D01*
X102435537Y-97495506D01*
X102356185Y-97398815D01*
X102259494Y-97319463D01*
X102149180Y-97260498D01*
X102029482Y-97224188D01*
X101905000Y-97211928D01*
X101315750Y-97215000D01*
X101157000Y-97373750D01*
X100903000Y-97373750D01*
X100744250Y-97215000D01*
X100155000Y-97211928D01*
X100030518Y-97224188D01*
X99910820Y-97260498D01*
X99800506Y-97319463D01*
X99760000Y-97352705D01*
X99719494Y-97319463D01*
X99609180Y-97260498D01*
X99489482Y-97224188D01*
X99365000Y-97211928D01*
X98775750Y-97215000D01*
X98617000Y-97373750D01*
X98363000Y-97373750D01*
X98204250Y-97215000D01*
X97615000Y-97211928D01*
X97490518Y-97224188D01*
X97370820Y-97260498D01*
X97260506Y-97319463D01*
X97163815Y-97398815D01*
X97084463Y-97495506D01*
X97025498Y-97605820D01*
X96989188Y-97725518D01*
X96976928Y-97850000D01*
X96914903Y-97850000D01*
X96915611Y-97836469D01*
X96873599Y-97546981D01*
X96775919Y-97271253D01*
X96702472Y-97133843D01*
X96453397Y-97056208D01*
X95611010Y-97898595D01*
X95649784Y-97500611D01*
X96273792Y-96876603D01*
X103226208Y-96876603D01*
X104075000Y-97725395D01*
X104923792Y-96876603D01*
X104846157Y-96627528D01*
X104582117Y-96501629D01*
X104298589Y-96429661D01*
X104006469Y-96414389D01*
X103716981Y-96456401D01*
X103441253Y-96554081D01*
X103303843Y-96627528D01*
X103226208Y-96876603D01*
X96273792Y-96876603D01*
X96196157Y-96627528D01*
X95932117Y-96501629D01*
X95648589Y-96429661D01*
X95448008Y-96419175D01*
X95409103Y-96291408D01*
X95121118Y-95752627D01*
X94703148Y-95476457D01*
X92679605Y-97500000D01*
X92693748Y-97514143D01*
X92514143Y-97693748D01*
X92500000Y-97679605D01*
X92485858Y-97693748D01*
X92306253Y-97514143D01*
X92320395Y-97500000D01*
X92306253Y-97485858D01*
X92485858Y-97306253D01*
X92500000Y-97320395D01*
X94523543Y-95296852D01*
X94247373Y-94878882D01*
X93702443Y-94588351D01*
X93111304Y-94409713D01*
X92496672Y-94349832D01*
X91882169Y-94411010D01*
X91291408Y-94590897D01*
X90752627Y-94878882D01*
X90660000Y-95019069D01*
X90660000Y-93012239D01*
X90667748Y-93019987D01*
X90935537Y-93198918D01*
X91233088Y-93322168D01*
X91548967Y-93385000D01*
X91871033Y-93385000D01*
X92186912Y-93322168D01*
X92484463Y-93198918D01*
X92694809Y-93058370D01*
X92719463Y-93104494D01*
X92798815Y-93201185D01*
X92895506Y-93280537D01*
X93005820Y-93339502D01*
X93125518Y-93375812D01*
X93250000Y-93388072D01*
X93823723Y-93385604D01*
X93802616Y-93466108D01*
X93783282Y-93787595D01*
X93827039Y-94106675D01*
X93932205Y-94411088D01*
X94025186Y-94585044D01*
X94289587Y-94680808D01*
X95245395Y-93725000D01*
X94906992Y-93386597D01*
X95250000Y-93388072D01*
X95266092Y-93386487D01*
X95425000Y-93545395D01*
X96380808Y-92589587D01*
X96285044Y-92325186D01*
X95995429Y-92184296D01*
X95885515Y-92155478D01*
X95885000Y-92035750D01*
X95726250Y-91877000D01*
X94377000Y-91877000D01*
X94377000Y-91897000D01*
X94123000Y-91897000D01*
X94123000Y-91877000D01*
X94103000Y-91877000D01*
X94103000Y-91623000D01*
X94123000Y-91623000D01*
X94123000Y-90273750D01*
X94377000Y-90273750D01*
X94377000Y-91623000D01*
X95726250Y-91623000D01*
X95885000Y-91464250D01*
X95888072Y-90750000D01*
X95875812Y-90625518D01*
X95839502Y-90505820D01*
X95780537Y-90395506D01*
X95701185Y-90298815D01*
X95604494Y-90219463D01*
X95494180Y-90160498D01*
X95374482Y-90124188D01*
X95250000Y-90111928D01*
X94535750Y-90115000D01*
X94377000Y-90273750D01*
X94123000Y-90273750D01*
X93964250Y-90115000D01*
X93606645Y-90113462D01*
X93653475Y-90066632D01*
X93815990Y-89823411D01*
X93927932Y-89553158D01*
X93985000Y-89266260D01*
X93985000Y-88973740D01*
X93941209Y-88753592D01*
X95246503Y-87448299D01*
X95275500Y-87424502D01*
X95333249Y-87354135D01*
X95370473Y-87308778D01*
X95441045Y-87176748D01*
X95451040Y-87143799D01*
X95484502Y-87033487D01*
X95495499Y-86921834D01*
X95495499Y-86921824D01*
X95499175Y-86884502D01*
X95495499Y-86847179D01*
X95495499Y-82079302D01*
X96064802Y-81510000D01*
X103935199Y-81510000D01*
X104352661Y-81927463D01*
X104352662Y-84050009D01*
X104348985Y-84087341D01*
X104352662Y-84124674D01*
X104363659Y-84236327D01*
X104369020Y-84254000D01*
X104407115Y-84379587D01*
X104420580Y-84404779D01*
X104298794Y-84282993D01*
X104275001Y-84254001D01*
X104246008Y-84230207D01*
X104246003Y-84230202D01*
X104159277Y-84159027D01*
X104045000Y-84097944D01*
X104045000Y-84083740D01*
X103987932Y-83796842D01*
X103875990Y-83526589D01*
X103713475Y-83283368D01*
X103506632Y-83076525D01*
X103263411Y-82914010D01*
X102993158Y-82802068D01*
X102706260Y-82745000D01*
X102413740Y-82745000D01*
X102126842Y-82802068D01*
X101856589Y-82914010D01*
X101613368Y-83076525D01*
X101406525Y-83283368D01*
X101394861Y-83300824D01*
X101371502Y-83223820D01*
X101312537Y-83113506D01*
X101233185Y-83016815D01*
X101136494Y-82937463D01*
X101026180Y-82878498D01*
X100906482Y-82842188D01*
X100782000Y-82829928D01*
X100305750Y-82833000D01*
X100147000Y-82991750D01*
X100147000Y-84103000D01*
X100167000Y-84103000D01*
X100167000Y-84357000D01*
X100147000Y-84357000D01*
X100147000Y-84377000D01*
X99893000Y-84377000D01*
X99893000Y-84357000D01*
X99873000Y-84357000D01*
X99873000Y-84103000D01*
X99893000Y-84103000D01*
X99893000Y-82991750D01*
X99734250Y-82833000D01*
X99258000Y-82829928D01*
X99133518Y-82842188D01*
X99013820Y-82878498D01*
X98903506Y-82937463D01*
X98806815Y-83016815D01*
X98727463Y-83113506D01*
X98668498Y-83223820D01*
X98645139Y-83300824D01*
X98633475Y-83283368D01*
X98426632Y-83076525D01*
X98183411Y-82914010D01*
X97913158Y-82802068D01*
X97626260Y-82745000D01*
X97333740Y-82745000D01*
X97046842Y-82802068D01*
X96776589Y-82914010D01*
X96533368Y-83076525D01*
X96326525Y-83283368D01*
X96164010Y-83526589D01*
X96052068Y-83796842D01*
X95995000Y-84083740D01*
X95995000Y-84376260D01*
X96052068Y-84663158D01*
X96164010Y-84933411D01*
X96326525Y-85176632D01*
X96533368Y-85383475D01*
X96776589Y-85545990D01*
X97046842Y-85657932D01*
X97333740Y-85715000D01*
X97626260Y-85715000D01*
X97715000Y-85697348D01*
X97715000Y-85851939D01*
X97754774Y-86051898D01*
X97832795Y-86240256D01*
X97946063Y-86409774D01*
X98090226Y-86553937D01*
X98259744Y-86667205D01*
X98448102Y-86745226D01*
X98648061Y-86785000D01*
X98851939Y-86785000D01*
X99051898Y-86745226D01*
X99240256Y-86667205D01*
X99409774Y-86553937D01*
X99553937Y-86409774D01*
X99667205Y-86240256D01*
X99698377Y-86165001D01*
X101768485Y-86165001D01*
X101754774Y-86198102D01*
X101715000Y-86398061D01*
X101715000Y-86601939D01*
X101754774Y-86801898D01*
X101770055Y-86838789D01*
X101688595Y-86920249D01*
X101575327Y-87089767D01*
X101497306Y-87278125D01*
X101457532Y-87478084D01*
X101457532Y-87681962D01*
X101497306Y-87881921D01*
X101575327Y-88070279D01*
X101688595Y-88239797D01*
X101832758Y-88383960D01*
X102002276Y-88497228D01*
X102190634Y-88575249D01*
X102271074Y-88591249D01*
X102332795Y-88740256D01*
X102349327Y-88764998D01*
X99202586Y-88764998D01*
X97915699Y-87478112D01*
X97891896Y-87449108D01*
X97776171Y-87354135D01*
X97644142Y-87283563D01*
X97500934Y-87240122D01*
X97445984Y-87185172D01*
X97276466Y-87071904D01*
X97088108Y-86993883D01*
X96888149Y-86954109D01*
X96684271Y-86954109D01*
X96484312Y-86993883D01*
X96295954Y-87071904D01*
X96126436Y-87185172D01*
X95982273Y-87329335D01*
X95869005Y-87498853D01*
X95790984Y-87687211D01*
X95751210Y-87887170D01*
X95751210Y-88091048D01*
X95790984Y-88291007D01*
X95869005Y-88479365D01*
X95982273Y-88648883D01*
X96126436Y-88793046D01*
X96295954Y-88906314D01*
X96484312Y-88984335D01*
X96684271Y-89024109D01*
X96888149Y-89024109D01*
X97088108Y-88984335D01*
X97218365Y-88930380D01*
X97540489Y-89252505D01*
X97351939Y-89215000D01*
X97148061Y-89215000D01*
X96948102Y-89254774D01*
X96759744Y-89332795D01*
X96590226Y-89446063D01*
X96446063Y-89590226D01*
X96332795Y-89759744D01*
X96254774Y-89948102D01*
X96215000Y-90148061D01*
X96215000Y-90351939D01*
X96254774Y-90551898D01*
X96332795Y-90740256D01*
X96446063Y-90909774D01*
X96539127Y-91002838D01*
X96483771Y-91085684D01*
X96405750Y-91274042D01*
X96365976Y-91474001D01*
X96365976Y-91677879D01*
X96405750Y-91877838D01*
X96483771Y-92066196D01*
X96597039Y-92235714D01*
X96741202Y-92379877D01*
X96910720Y-92493145D01*
X97099078Y-92571166D01*
X97299037Y-92610940D01*
X97361175Y-92610940D01*
X97730001Y-92979767D01*
X97730001Y-93862166D01*
X97689408Y-93763649D01*
X97687763Y-93760575D01*
X97494541Y-93750064D01*
X97039605Y-94205000D01*
X97053748Y-94219143D01*
X96954566Y-94318324D01*
X96965704Y-94295429D01*
X97047384Y-93983892D01*
X97056719Y-93828676D01*
X97314936Y-93570459D01*
X97304425Y-93377237D01*
X97134397Y-93306438D01*
X97000959Y-93279639D01*
X96917795Y-93038912D01*
X96824814Y-92864956D01*
X96560413Y-92769192D01*
X95604605Y-93725000D01*
X95618748Y-93739143D01*
X95439143Y-93918748D01*
X95425000Y-93904605D01*
X94469192Y-94860413D01*
X94564956Y-95124814D01*
X94854571Y-95265704D01*
X95166108Y-95347384D01*
X95487595Y-95366718D01*
X95806675Y-95322961D01*
X96111088Y-95217795D01*
X96285044Y-95124814D01*
X96378885Y-94865723D01*
X96382500Y-94862108D01*
X96407660Y-94887268D01*
X96415575Y-95032763D01*
X96585603Y-95103562D01*
X96766176Y-95139828D01*
X96950355Y-95140171D01*
X96976928Y-95134936D01*
X96976928Y-95800001D01*
X96993992Y-95973255D01*
X97044528Y-96139851D01*
X97126595Y-96293387D01*
X97237038Y-96427962D01*
X97371613Y-96538405D01*
X97525149Y-96620472D01*
X97691745Y-96671008D01*
X97864999Y-96688072D01*
X99115001Y-96688072D01*
X99288255Y-96671008D01*
X99454851Y-96620472D01*
X99608387Y-96538405D01*
X99742962Y-96427962D01*
X99760000Y-96407201D01*
X99777038Y-96427962D01*
X99911613Y-96538405D01*
X100065149Y-96620472D01*
X100231745Y-96671008D01*
X100404999Y-96688072D01*
X101655001Y-96688072D01*
X101828255Y-96671008D01*
X101994851Y-96620472D01*
X102148387Y-96538405D01*
X102282962Y-96427962D01*
X102393405Y-96293387D01*
X102475472Y-96139851D01*
X102526008Y-95973255D01*
X102543072Y-95800001D01*
X102543072Y-95139205D01*
X102546176Y-95139828D01*
X102730355Y-95140171D01*
X102911061Y-95104574D01*
X103081351Y-95034408D01*
X103084425Y-95032763D01*
X103092340Y-94887268D01*
X103117500Y-94862108D01*
X103121115Y-94865723D01*
X103214956Y-95124814D01*
X103504571Y-95265704D01*
X103816108Y-95347384D01*
X104137595Y-95366718D01*
X104456675Y-95322961D01*
X104761088Y-95217795D01*
X104935044Y-95124814D01*
X105030808Y-94860413D01*
X104075000Y-93904605D01*
X104060858Y-93918748D01*
X103881253Y-93739143D01*
X103895395Y-93725000D01*
X104254605Y-93725000D01*
X105210413Y-94680808D01*
X105474814Y-94585044D01*
X105615704Y-94295429D01*
X105673496Y-94075000D01*
X107561928Y-94075000D01*
X107574188Y-94199482D01*
X107610498Y-94319180D01*
X107669463Y-94429494D01*
X107748815Y-94526185D01*
X107845506Y-94605537D01*
X107955820Y-94664502D01*
X108075518Y-94700812D01*
X108200000Y-94713072D01*
X108764250Y-94710000D01*
X108923000Y-94551250D01*
X108923000Y-93277000D01*
X107723750Y-93277000D01*
X107565000Y-93435750D01*
X107561928Y-94075000D01*
X105673496Y-94075000D01*
X105697384Y-93983892D01*
X105716718Y-93662405D01*
X105672961Y-93343325D01*
X105567795Y-93038912D01*
X105474814Y-92864956D01*
X105210413Y-92769192D01*
X104254605Y-93725000D01*
X103895395Y-93725000D01*
X103881253Y-93710858D01*
X104060858Y-93531253D01*
X104075000Y-93545395D01*
X105030808Y-92589587D01*
X104935044Y-92325186D01*
X104729101Y-92225000D01*
X107561928Y-92225000D01*
X107565000Y-92864250D01*
X107723750Y-93023000D01*
X108923000Y-93023000D01*
X108923000Y-91748750D01*
X109177000Y-91748750D01*
X109177000Y-93023000D01*
X109197000Y-93023000D01*
X109197000Y-93277000D01*
X109177000Y-93277000D01*
X109177000Y-94551250D01*
X109335750Y-94710000D01*
X109900000Y-94713072D01*
X110024482Y-94700812D01*
X110099055Y-94678190D01*
X110053992Y-94826745D01*
X110036928Y-94999999D01*
X110036928Y-95800001D01*
X110053992Y-95973255D01*
X110104528Y-96139851D01*
X110186595Y-96293387D01*
X110297038Y-96427962D01*
X110431613Y-96538405D01*
X110585149Y-96620472D01*
X110751745Y-96671008D01*
X110924999Y-96688072D01*
X112175001Y-96688072D01*
X112348255Y-96671008D01*
X112514851Y-96620472D01*
X112668387Y-96538405D01*
X112800000Y-96430393D01*
X112931613Y-96538405D01*
X113085149Y-96620472D01*
X113251745Y-96671008D01*
X113424999Y-96688072D01*
X114675001Y-96688072D01*
X114848255Y-96671008D01*
X115014851Y-96620472D01*
X115168387Y-96538405D01*
X115300000Y-96430393D01*
X115431613Y-96538405D01*
X115585149Y-96620472D01*
X115751745Y-96671008D01*
X115924999Y-96688072D01*
X117175001Y-96688072D01*
X117348255Y-96671008D01*
X117514851Y-96620472D01*
X117668387Y-96538405D01*
X117800000Y-96430393D01*
X117931613Y-96538405D01*
X118085149Y-96620472D01*
X118251745Y-96671008D01*
X118424999Y-96688072D01*
X119675001Y-96688072D01*
X119848255Y-96671008D01*
X120014851Y-96620472D01*
X120168387Y-96538405D01*
X120300000Y-96430393D01*
X120431613Y-96538405D01*
X120585149Y-96620472D01*
X120751745Y-96671008D01*
X120924999Y-96688072D01*
X122175001Y-96688072D01*
X122348255Y-96671008D01*
X122514851Y-96620472D01*
X122668387Y-96538405D01*
X122800000Y-96430393D01*
X122931613Y-96538405D01*
X123085149Y-96620472D01*
X123251745Y-96671008D01*
X123424999Y-96688072D01*
X124675001Y-96688072D01*
X124848255Y-96671008D01*
X125014851Y-96620472D01*
X125168387Y-96538405D01*
X125300000Y-96430393D01*
X125431613Y-96538405D01*
X125585149Y-96620472D01*
X125751745Y-96671008D01*
X125924999Y-96688072D01*
X127175001Y-96688072D01*
X127348255Y-96671008D01*
X127514851Y-96620472D01*
X127668387Y-96538405D01*
X127802962Y-96427962D01*
X127913405Y-96293387D01*
X127995472Y-96139851D01*
X128046008Y-95973255D01*
X128063072Y-95800001D01*
X128063072Y-94999999D01*
X128046008Y-94826745D01*
X127995472Y-94660149D01*
X127913405Y-94506613D01*
X127802962Y-94372038D01*
X127668387Y-94261595D01*
X127634996Y-94243747D01*
X127790706Y-94054013D01*
X127928599Y-93796033D01*
X128013513Y-93516110D01*
X128035000Y-93297949D01*
X128035000Y-93002050D01*
X128013513Y-92783889D01*
X127928599Y-92503966D01*
X127790706Y-92245986D01*
X127605134Y-92019866D01*
X127379013Y-91834294D01*
X127121033Y-91696401D01*
X126841110Y-91611487D01*
X126550000Y-91582815D01*
X126258889Y-91611487D01*
X125978966Y-91696401D01*
X125720986Y-91834294D01*
X125494866Y-92019866D01*
X125309294Y-92245987D01*
X125300000Y-92263374D01*
X125290706Y-92245986D01*
X125105134Y-92019866D01*
X124879013Y-91834294D01*
X124621033Y-91696401D01*
X124341110Y-91611487D01*
X124050000Y-91582815D01*
X123758889Y-91611487D01*
X123478966Y-91696401D01*
X123220986Y-91834294D01*
X122994866Y-92019866D01*
X122809294Y-92245987D01*
X122800000Y-92263374D01*
X122790706Y-92245986D01*
X122605134Y-92019866D01*
X122379013Y-91834294D01*
X122121033Y-91696401D01*
X121841110Y-91611487D01*
X121550000Y-91582815D01*
X121258889Y-91611487D01*
X120978966Y-91696401D01*
X120720986Y-91834294D01*
X120494866Y-92019866D01*
X120309294Y-92245987D01*
X120300000Y-92263374D01*
X120290706Y-92245986D01*
X120105134Y-92019866D01*
X119879013Y-91834294D01*
X119621033Y-91696401D01*
X119341110Y-91611487D01*
X119050000Y-91582815D01*
X118758889Y-91611487D01*
X118478966Y-91696401D01*
X118220986Y-91834294D01*
X117994866Y-92019866D01*
X117809294Y-92245987D01*
X117800000Y-92263374D01*
X117790706Y-92245986D01*
X117605134Y-92019866D01*
X117379013Y-91834294D01*
X117121033Y-91696401D01*
X116841110Y-91611487D01*
X116550000Y-91582815D01*
X116258889Y-91611487D01*
X115978966Y-91696401D01*
X115720986Y-91834294D01*
X115494866Y-92019866D01*
X115309294Y-92245987D01*
X115300000Y-92263374D01*
X115290706Y-92245986D01*
X115105134Y-92019866D01*
X114879013Y-91834294D01*
X114621033Y-91696401D01*
X114341110Y-91611487D01*
X114050000Y-91582815D01*
X113758889Y-91611487D01*
X113478966Y-91696401D01*
X113220986Y-91834294D01*
X112994866Y-92019866D01*
X112809294Y-92245987D01*
X112800000Y-92263374D01*
X112790706Y-92245986D01*
X112605134Y-92019866D01*
X112379013Y-91834294D01*
X112121033Y-91696401D01*
X111841110Y-91611487D01*
X111550000Y-91582815D01*
X111258889Y-91611487D01*
X110978966Y-91696401D01*
X110720986Y-91834294D01*
X110500055Y-92015608D01*
X110489502Y-91980820D01*
X110430537Y-91870506D01*
X110351185Y-91773815D01*
X110254494Y-91694463D01*
X110144180Y-91635498D01*
X110024482Y-91599188D01*
X109900000Y-91586928D01*
X109335750Y-91590000D01*
X109177000Y-91748750D01*
X108923000Y-91748750D01*
X108764250Y-91590000D01*
X108200000Y-91586928D01*
X108075518Y-91599188D01*
X107955820Y-91635498D01*
X107845506Y-91694463D01*
X107748815Y-91773815D01*
X107669463Y-91870506D01*
X107610498Y-91980820D01*
X107574188Y-92100518D01*
X107561928Y-92225000D01*
X104729101Y-92225000D01*
X104645429Y-92184296D01*
X104333892Y-92102616D01*
X104012405Y-92083282D01*
X103693325Y-92127039D01*
X103388912Y-92232205D01*
X103251879Y-92305450D01*
X103267853Y-92266886D01*
X103307627Y-92066927D01*
X103307627Y-91863049D01*
X103267853Y-91663090D01*
X103189832Y-91474732D01*
X103076564Y-91305214D01*
X102932401Y-91161051D01*
X102859853Y-91112576D01*
X102866940Y-91076949D01*
X102866940Y-91010000D01*
X105796289Y-91010000D01*
X105840226Y-91053937D01*
X106009744Y-91167205D01*
X106198102Y-91245226D01*
X106398061Y-91285000D01*
X106601939Y-91285000D01*
X106801898Y-91245226D01*
X106990256Y-91167205D01*
X107159774Y-91053937D01*
X107276785Y-90936926D01*
X107399020Y-90974005D01*
X107510673Y-90985002D01*
X107510682Y-90985002D01*
X107548005Y-90988678D01*
X107585328Y-90985002D01*
X121437680Y-90985002D01*
X121475002Y-90988678D01*
X121512324Y-90985002D01*
X121512335Y-90985002D01*
X121623988Y-90974005D01*
X121767249Y-90930548D01*
X121899278Y-90859976D01*
X122015003Y-90765003D01*
X122038806Y-90735999D01*
X123039804Y-89735002D01*
X124130547Y-89735002D01*
X124167869Y-89738678D01*
X124205191Y-89735002D01*
X124205202Y-89735002D01*
X124316855Y-89724005D01*
X124460116Y-89680548D01*
X124592145Y-89609976D01*
X124707870Y-89515003D01*
X124731672Y-89486000D01*
X125233385Y-88984287D01*
X125262383Y-88960490D01*
X125357356Y-88844765D01*
X125427928Y-88712736D01*
X125471385Y-88569475D01*
X125482382Y-88457822D01*
X125482382Y-88457812D01*
X125486058Y-88420489D01*
X125482382Y-88383166D01*
X125482382Y-77759707D01*
X125486058Y-77722382D01*
X125482382Y-77685057D01*
X125482382Y-77685049D01*
X125471385Y-77573396D01*
X125427928Y-77430135D01*
X125357356Y-77298106D01*
X125262383Y-77182381D01*
X125233385Y-77158583D01*
X122285000Y-74210199D01*
X122285000Y-74148061D01*
X122256400Y-74004276D01*
X122301898Y-73995226D01*
X122490256Y-73917205D01*
X122659774Y-73803937D01*
X122803937Y-73659774D01*
X122917205Y-73490256D01*
X122927666Y-73465000D01*
X128210000Y-73465000D01*
X128210000Y-87035000D01*
X132030000Y-87035000D01*
X132030000Y-73465000D01*
X128210000Y-73465000D01*
X122927666Y-73465000D01*
X122995226Y-73301898D01*
X123035000Y-73101939D01*
X123035000Y-72898061D01*
X122995226Y-72698102D01*
X122917205Y-72509744D01*
X122803937Y-72340226D01*
X122659774Y-72196063D01*
X122490256Y-72082795D01*
X122301898Y-72004774D01*
X122101939Y-71965000D01*
X122039802Y-71965000D01*
X121563804Y-71489002D01*
X121540001Y-71459999D01*
X121424276Y-71365026D01*
X121292247Y-71294454D01*
X121148986Y-71250997D01*
X121037333Y-71240000D01*
X121037322Y-71240000D01*
X121000000Y-71236324D01*
X120962678Y-71240000D01*
X120537325Y-71240000D01*
X120500000Y-71236324D01*
X120462675Y-71240000D01*
X120462667Y-71240000D01*
X120351014Y-71250997D01*
X120207753Y-71294454D01*
X120075724Y-71365026D01*
X119959999Y-71459999D01*
X119936196Y-71489003D01*
X119685199Y-71740000D01*
X100505000Y-71740000D01*
X100505000Y-71503740D01*
X100447932Y-71216842D01*
X100335990Y-70946589D01*
X100173475Y-70703368D01*
X99966632Y-70496525D01*
X99723411Y-70334010D01*
X99453158Y-70222068D01*
X99166260Y-70165000D01*
X98873740Y-70165000D01*
X98586842Y-70222068D01*
X98316589Y-70334010D01*
X98073368Y-70496525D01*
X97866525Y-70703368D01*
X97750000Y-70877760D01*
X97633475Y-70703368D01*
X97426632Y-70496525D01*
X97183411Y-70334010D01*
X96913158Y-70222068D01*
X96626260Y-70165000D01*
X96333740Y-70165000D01*
X96046842Y-70222068D01*
X95776589Y-70334010D01*
X95533368Y-70496525D01*
X95326525Y-70703368D01*
X95210689Y-70876729D01*
X94968397Y-70801208D01*
X94119605Y-71650000D01*
X94968397Y-72498792D01*
X95210689Y-72423271D01*
X95326525Y-72596632D01*
X95533368Y-72803475D01*
X95776589Y-72965990D01*
X96046842Y-73077932D01*
X96333740Y-73135000D01*
X96626260Y-73135000D01*
X96846408Y-73091210D01*
X97266201Y-73511003D01*
X97289999Y-73540001D01*
X97405724Y-73634974D01*
X97537753Y-73705546D01*
X97681014Y-73749003D01*
X97792667Y-73760000D01*
X97792676Y-73760000D01*
X97829999Y-73763676D01*
X97867322Y-73760000D01*
X108715000Y-73760000D01*
X108715000Y-73851939D01*
X108754774Y-74051898D01*
X108832795Y-74240256D01*
X108946063Y-74409774D01*
X109090226Y-74553937D01*
X109259744Y-74667205D01*
X109448102Y-74745226D01*
X109648061Y-74785000D01*
X109851939Y-74785000D01*
X110051898Y-74745226D01*
X110240256Y-74667205D01*
X110409774Y-74553937D01*
X110453711Y-74510000D01*
X118740001Y-74510000D01*
X118740000Y-76212677D01*
X118736324Y-76250000D01*
X118740000Y-76287322D01*
X118740000Y-76287332D01*
X118750997Y-76398985D01*
X118794454Y-76542246D01*
X118865026Y-76674276D01*
X118904871Y-76722826D01*
X118959999Y-76790001D01*
X118989002Y-76813803D01*
X119186200Y-77011002D01*
X119209999Y-77040001D01*
X119325724Y-77134974D01*
X119457753Y-77205546D01*
X119601014Y-77249003D01*
X119712667Y-77260000D01*
X119712676Y-77260000D01*
X119749999Y-77263676D01*
X119787322Y-77260000D01*
X121685199Y-77260000D01*
X122990001Y-78564803D01*
X122990000Y-84435198D01*
X122835221Y-84589978D01*
X119484823Y-84589978D01*
X119789802Y-84285000D01*
X119851939Y-84285000D01*
X120051898Y-84245226D01*
X120240256Y-84167205D01*
X120409774Y-84053937D01*
X120553937Y-83909774D01*
X120667205Y-83740256D01*
X120745226Y-83551898D01*
X120785000Y-83351939D01*
X120785000Y-83148061D01*
X120745226Y-82948102D01*
X120667205Y-82759744D01*
X120553937Y-82590226D01*
X120409774Y-82446063D01*
X120240256Y-82332795D01*
X120051898Y-82254774D01*
X119851939Y-82215000D01*
X119648061Y-82215000D01*
X119448102Y-82254774D01*
X119259744Y-82332795D01*
X119090226Y-82446063D01*
X118946063Y-82590226D01*
X118832795Y-82759744D01*
X118754774Y-82948102D01*
X118715000Y-83148061D01*
X118715000Y-83210198D01*
X117935199Y-83990000D01*
X111452953Y-83990000D01*
X110085881Y-82622931D01*
X110062079Y-82593928D01*
X109946354Y-82498955D01*
X109814325Y-82428383D01*
X109671064Y-82384926D01*
X109559411Y-82373929D01*
X109559400Y-82373929D01*
X109522078Y-82370253D01*
X109484755Y-82373929D01*
X109330025Y-82373929D01*
X109345230Y-82337221D01*
X109385004Y-82137262D01*
X109385004Y-81933384D01*
X109345230Y-81733425D01*
X109267209Y-81545067D01*
X109153941Y-81375549D01*
X109009778Y-81231386D01*
X108840260Y-81118118D01*
X108651902Y-81040097D01*
X108451943Y-81000323D01*
X108248065Y-81000323D01*
X108048106Y-81040097D01*
X107859748Y-81118118D01*
X107705331Y-81221296D01*
X107054034Y-80569999D01*
X110152679Y-80569999D01*
X110190001Y-80573675D01*
X110227323Y-80569999D01*
X110227334Y-80569999D01*
X110338987Y-80559002D01*
X110482248Y-80515545D01*
X110614277Y-80444973D01*
X110730002Y-80350000D01*
X110753804Y-80320997D01*
X110789801Y-80285000D01*
X110851939Y-80285000D01*
X111051898Y-80245226D01*
X111240256Y-80167205D01*
X111409774Y-80053937D01*
X111553937Y-79909774D01*
X111667205Y-79740256D01*
X111745226Y-79551898D01*
X111785000Y-79351939D01*
X111785000Y-79148061D01*
X111745226Y-78948102D01*
X111667205Y-78759744D01*
X111553937Y-78590226D01*
X111409774Y-78446063D01*
X111240256Y-78332795D01*
X111051898Y-78254774D01*
X110851939Y-78215000D01*
X110648061Y-78215000D01*
X110448102Y-78254774D01*
X110259744Y-78332795D01*
X110090226Y-78446063D01*
X109946063Y-78590226D01*
X109832795Y-78759744D01*
X109754774Y-78948102D01*
X109734506Y-79049999D01*
X106170445Y-79049999D01*
X105559403Y-78438958D01*
X105535601Y-78409955D01*
X105419876Y-78314982D01*
X105287847Y-78244410D01*
X105144586Y-78200953D01*
X105032933Y-78189956D01*
X105032922Y-78189956D01*
X104995600Y-78186280D01*
X104958278Y-78189956D01*
X93771467Y-78189956D01*
X93653475Y-78013368D01*
X93446632Y-77806525D01*
X93273271Y-77690689D01*
X93348792Y-77448397D01*
X92500000Y-76599605D01*
X91651208Y-77448397D01*
X91726729Y-77690689D01*
X91553368Y-77806525D01*
X91346525Y-78013368D01*
X91184010Y-78256589D01*
X91072068Y-78526842D01*
X91015000Y-78813740D01*
X91015000Y-79106260D01*
X91072068Y-79393158D01*
X91184010Y-79663411D01*
X91346525Y-79906632D01*
X91553368Y-80113475D01*
X91727760Y-80230000D01*
X91553368Y-80346525D01*
X91346525Y-80553368D01*
X91184010Y-80796589D01*
X91072068Y-81066842D01*
X91015000Y-81353740D01*
X91015000Y-81646260D01*
X91072068Y-81933158D01*
X91184010Y-82203411D01*
X91346525Y-82446632D01*
X91553368Y-82653475D01*
X91727760Y-82770000D01*
X91553368Y-82886525D01*
X91346525Y-83093368D01*
X91184010Y-83336589D01*
X91072068Y-83606842D01*
X91015000Y-83893740D01*
X91015000Y-84186260D01*
X91072068Y-84473158D01*
X91184010Y-84743411D01*
X91346525Y-84986632D01*
X91553368Y-85193475D01*
X91727760Y-85310000D01*
X91553368Y-85426525D01*
X91346525Y-85633368D01*
X91184010Y-85876589D01*
X91072068Y-86146842D01*
X91015000Y-86433740D01*
X91015000Y-86726260D01*
X91072068Y-87013158D01*
X91184010Y-87283411D01*
X91346525Y-87526632D01*
X91553368Y-87733475D01*
X91727760Y-87850000D01*
X91553368Y-87966525D01*
X91346525Y-88173368D01*
X91184010Y-88416589D01*
X91072068Y-88686842D01*
X91015000Y-88973740D01*
X91015000Y-89266260D01*
X91072068Y-89553158D01*
X91184010Y-89823411D01*
X91346525Y-90066632D01*
X91420455Y-90140562D01*
X91233088Y-90177832D01*
X90935537Y-90301082D01*
X90667748Y-90480013D01*
X90660000Y-90487761D01*
X90660000Y-76488531D01*
X91009389Y-76488531D01*
X91051401Y-76778019D01*
X91149081Y-77053747D01*
X91222528Y-77191157D01*
X91471603Y-77268792D01*
X92320395Y-76420000D01*
X92679605Y-76420000D01*
X93528397Y-77268792D01*
X93777472Y-77191157D01*
X93903371Y-76927117D01*
X93975339Y-76643589D01*
X93990611Y-76351469D01*
X93948599Y-76061981D01*
X93850919Y-75786253D01*
X93777472Y-75648843D01*
X93528397Y-75571208D01*
X92679605Y-76420000D01*
X92320395Y-76420000D01*
X91471603Y-75571208D01*
X91222528Y-75648843D01*
X91096629Y-75912883D01*
X91024661Y-76196411D01*
X91009389Y-76488531D01*
X90660000Y-76488531D01*
X90660000Y-72941542D01*
X90696589Y-72965990D01*
X90966842Y-73077932D01*
X91216719Y-73127636D01*
X91184010Y-73176589D01*
X91072068Y-73446842D01*
X91015000Y-73733740D01*
X91015000Y-74026260D01*
X91072068Y-74313158D01*
X91184010Y-74583411D01*
X91346525Y-74826632D01*
X91553368Y-75033475D01*
X91726729Y-75149311D01*
X91651208Y-75391603D01*
X92500000Y-76240395D01*
X93348792Y-75391603D01*
X93273271Y-75149311D01*
X93446632Y-75033475D01*
X93653475Y-74826632D01*
X93815990Y-74583411D01*
X93927932Y-74313158D01*
X93985000Y-74026260D01*
X93985000Y-73733740D01*
X93927932Y-73446842D01*
X93815990Y-73176589D01*
X93784111Y-73128878D01*
X94008531Y-73140611D01*
X94298019Y-73098599D01*
X94573747Y-73000919D01*
X94711157Y-72927472D01*
X94788792Y-72678397D01*
X93940000Y-71829605D01*
X93925858Y-71843748D01*
X93746253Y-71664143D01*
X93760395Y-71650000D01*
X92911603Y-70801208D01*
X92669311Y-70876729D01*
X92553475Y-70703368D01*
X92471710Y-70621603D01*
X93091208Y-70621603D01*
X93940000Y-71470395D01*
X94788792Y-70621603D01*
X94711157Y-70372528D01*
X94447117Y-70246629D01*
X94163589Y-70174661D01*
X93871469Y-70159389D01*
X93581981Y-70201401D01*
X93306253Y-70299081D01*
X93168843Y-70372528D01*
X93091208Y-70621603D01*
X92471710Y-70621603D01*
X92346632Y-70496525D01*
X92103411Y-70334010D01*
X91833158Y-70222068D01*
X91546260Y-70165000D01*
X91253740Y-70165000D01*
X90966842Y-70222068D01*
X90696589Y-70334010D01*
X90660000Y-70358458D01*
X90660000Y-67980931D01*
X90752627Y-68121118D01*
X91297557Y-68411649D01*
X91888696Y-68590287D01*
X92503328Y-68650168D01*
X93117831Y-68588990D01*
X93708592Y-68409103D01*
X94247373Y-68121118D01*
X94523543Y-67703148D01*
X92500000Y-65679605D01*
X92485858Y-65693748D01*
X92306253Y-65514143D01*
X92320395Y-65500000D01*
X92306253Y-65485858D01*
X92485858Y-65306253D01*
X92500000Y-65320395D01*
X92514143Y-65306253D01*
X92693748Y-65485858D01*
X92679605Y-65500000D01*
X94703148Y-67523543D01*
X95121118Y-67247373D01*
X95411649Y-66702443D01*
X95590287Y-66111304D01*
X95650168Y-65496672D01*
X95588990Y-64882169D01*
X95409103Y-64291408D01*
X95121118Y-63752627D01*
X94980931Y-63660000D01*
X100590000Y-63660000D01*
X100590001Y-68717571D01*
%TA.AperFunction,Conductor*%
D21*
G36*
X100590001Y-68717571D02*
G01*
X100586807Y-68750000D01*
X100599550Y-68879383D01*
X100637290Y-69003793D01*
X100698575Y-69118450D01*
X100781052Y-69218948D01*
X100881550Y-69301425D01*
X100996207Y-69362710D01*
X101120617Y-69400450D01*
X101217581Y-69410000D01*
X101250000Y-69413193D01*
X101282419Y-69410000D01*
X129217581Y-69410000D01*
X129250000Y-69413193D01*
X129282419Y-69410000D01*
X129379383Y-69400450D01*
X129503793Y-69362710D01*
X129618450Y-69301425D01*
X129718948Y-69218948D01*
X129801425Y-69118450D01*
X129862710Y-69003793D01*
X129900450Y-68879383D01*
X129913193Y-68750000D01*
X129910000Y-68717581D01*
X129910000Y-67769608D01*
X129976458Y-67703150D01*
X130252627Y-68121118D01*
X130797557Y-68411649D01*
X131388696Y-68590287D01*
X132003328Y-68650168D01*
X132617831Y-68588990D01*
X133208592Y-68409103D01*
X133747373Y-68121118D01*
X133840000Y-67980931D01*
X133840001Y-95019070D01*
X133747373Y-94878882D01*
X133202443Y-94588351D01*
X132611304Y-94409713D01*
X131996672Y-94349832D01*
X131382169Y-94411010D01*
X130791408Y-94590897D01*
X130252627Y-94878882D01*
X129976457Y-95296852D01*
X132000000Y-97320395D01*
X132014143Y-97306253D01*
X132193748Y-97485858D01*
X132179605Y-97500000D01*
X132193748Y-97514143D01*
X132014143Y-97693748D01*
X132000000Y-97679605D01*
X131985858Y-97693748D01*
X131806253Y-97514143D01*
X131820395Y-97500000D01*
X129796852Y-95476457D01*
X129378882Y-95752627D01*
X129088351Y-96297557D01*
X128909713Y-96888696D01*
X128849832Y-97503328D01*
X128911010Y-98117831D01*
X129090897Y-98708592D01*
X129378882Y-99247373D01*
X129519069Y-99340000D01*
X127941941Y-99340000D01*
X127995472Y-99239851D01*
X128046008Y-99073255D01*
X128063072Y-98900001D01*
X128063072Y-98099999D01*
X128046008Y-97926745D01*
X127995472Y-97760149D01*
X127913405Y-97606613D01*
X127802962Y-97472038D01*
X127668387Y-97361595D01*
X127514851Y-97279528D01*
X127348255Y-97228992D01*
X127175001Y-97211928D01*
X125924999Y-97211928D01*
X125751745Y-97228992D01*
X125585149Y-97279528D01*
X125431613Y-97361595D01*
X125300000Y-97469607D01*
X125168387Y-97361595D01*
X125014851Y-97279528D01*
X124848255Y-97228992D01*
X124675001Y-97211928D01*
X123424999Y-97211928D01*
X123251745Y-97228992D01*
X123085149Y-97279528D01*
X122931613Y-97361595D01*
X122800000Y-97469607D01*
X122668387Y-97361595D01*
X122514851Y-97279528D01*
X122348255Y-97228992D01*
X122175001Y-97211928D01*
X120924999Y-97211928D01*
X120751745Y-97228992D01*
X120585149Y-97279528D01*
X120431613Y-97361595D01*
X120300000Y-97469607D01*
X120168387Y-97361595D01*
X120014851Y-97279528D01*
X119848255Y-97228992D01*
X119675001Y-97211928D01*
X118424999Y-97211928D01*
X118251745Y-97228992D01*
X118085149Y-97279528D01*
X117931613Y-97361595D01*
X117800000Y-97469607D01*
X117668387Y-97361595D01*
X117514851Y-97279528D01*
X117348255Y-97228992D01*
X117175001Y-97211928D01*
X115924999Y-97211928D01*
X115751745Y-97228992D01*
X115585149Y-97279528D01*
X115431613Y-97361595D01*
X115300000Y-97469607D01*
X115168387Y-97361595D01*
X115014851Y-97279528D01*
X114848255Y-97228992D01*
X114675001Y-97211928D01*
X113424999Y-97211928D01*
X113251745Y-97228992D01*
X113085149Y-97279528D01*
X112931613Y-97361595D01*
X112800000Y-97469607D01*
X112668387Y-97361595D01*
X112514851Y-97279528D01*
X112348255Y-97228992D01*
X112175001Y-97211928D01*
X110924999Y-97211928D01*
X110751745Y-97228992D01*
X110585149Y-97279528D01*
X110431613Y-97361595D01*
X110297038Y-97472038D01*
X110274624Y-97499349D01*
X110101939Y-97465000D01*
X109898061Y-97465000D01*
X109698102Y-97504774D01*
X109509744Y-97582795D01*
X109340226Y-97696063D01*
X109196063Y-97840226D01*
X109082795Y-98009744D01*
X109004774Y-98198102D01*
X108965000Y-98398061D01*
X108965000Y-98601939D01*
X109004774Y-98801898D01*
X109082795Y-98990256D01*
X109196063Y-99159774D01*
X109340226Y-99303937D01*
X109394198Y-99340000D01*
X104471406Y-99340000D01*
X104708747Y-99255919D01*
X104846157Y-99182472D01*
X104923792Y-98933397D01*
X104075000Y-98084605D01*
X103226208Y-98933397D01*
X103303843Y-99182472D01*
X103567883Y-99308371D01*
X103692490Y-99340000D01*
X102510937Y-99340000D01*
X102530812Y-99274482D01*
X102543072Y-99150000D01*
X102540000Y-98785750D01*
X102381250Y-98627000D01*
X101157000Y-98627000D01*
X101157000Y-98647000D01*
X100903000Y-98647000D01*
X100903000Y-98627000D01*
X98617000Y-98627000D01*
X98617000Y-98647000D01*
X98363000Y-98647000D01*
X98363000Y-98627000D01*
X97138750Y-98627000D01*
X96980000Y-98785750D01*
X96976928Y-99150000D01*
X96989188Y-99274482D01*
X97009063Y-99340000D01*
X95821406Y-99340000D01*
X96058747Y-99255919D01*
X96196157Y-99182472D01*
X96273792Y-98933397D01*
X95558126Y-98217731D01*
X95590287Y-98111304D01*
X95609873Y-97910268D01*
X96453397Y-98753792D01*
X96702472Y-98676157D01*
X96828371Y-98412117D01*
X96900339Y-98128589D01*
X96914903Y-97850000D01*
X96976928Y-97850000D01*
X96980000Y-98214250D01*
X97138750Y-98373000D01*
X98363000Y-98373000D01*
X98363000Y-97373750D01*
X98617000Y-97373750D01*
X98617000Y-98373000D01*
X100903000Y-98373000D01*
X100903000Y-97373750D01*
X101157000Y-97373750D01*
X101157000Y-98373000D01*
X102381250Y-98373000D01*
X102540000Y-98214250D01*
X102542030Y-97973531D01*
X102584389Y-97973531D01*
X102626401Y-98263019D01*
X102724081Y-98538747D01*
X102797528Y-98676157D01*
X103046603Y-98753792D01*
X103895395Y-97905000D01*
X104254605Y-97905000D01*
X105103397Y-98753792D01*
X105352472Y-98676157D01*
X105478371Y-98412117D01*
X105550339Y-98128589D01*
X105565611Y-97836469D01*
X105523599Y-97546981D01*
X105425919Y-97271253D01*
X105352472Y-97133843D01*
X105103397Y-97056208D01*
X104254605Y-97905000D01*
X103895395Y-97905000D01*
X103046603Y-97056208D01*
X102797528Y-97133843D01*
X102671629Y-97397883D01*
X102599661Y-97681411D01*
X102584389Y-97973531D01*
X102542030Y-97973531D01*
X102543072Y-97850000D01*
X102530812Y-97725518D01*
X102494502Y-97605820D01*
X102435537Y-97495506D01*
X102356185Y-97398815D01*
X102259494Y-97319463D01*
X102149180Y-97260498D01*
X102029482Y-97224188D01*
X101905000Y-97211928D01*
X101315750Y-97215000D01*
X101157000Y-97373750D01*
X100903000Y-97373750D01*
X100744250Y-97215000D01*
X100155000Y-97211928D01*
X100030518Y-97224188D01*
X99910820Y-97260498D01*
X99800506Y-97319463D01*
X99760000Y-97352705D01*
X99719494Y-97319463D01*
X99609180Y-97260498D01*
X99489482Y-97224188D01*
X99365000Y-97211928D01*
X98775750Y-97215000D01*
X98617000Y-97373750D01*
X98363000Y-97373750D01*
X98204250Y-97215000D01*
X97615000Y-97211928D01*
X97490518Y-97224188D01*
X97370820Y-97260498D01*
X97260506Y-97319463D01*
X97163815Y-97398815D01*
X97084463Y-97495506D01*
X97025498Y-97605820D01*
X96989188Y-97725518D01*
X96976928Y-97850000D01*
X96914903Y-97850000D01*
X96915611Y-97836469D01*
X96873599Y-97546981D01*
X96775919Y-97271253D01*
X96702472Y-97133843D01*
X96453397Y-97056208D01*
X95611010Y-97898595D01*
X95649784Y-97500611D01*
X96273792Y-96876603D01*
X103226208Y-96876603D01*
X104075000Y-97725395D01*
X104923792Y-96876603D01*
X104846157Y-96627528D01*
X104582117Y-96501629D01*
X104298589Y-96429661D01*
X104006469Y-96414389D01*
X103716981Y-96456401D01*
X103441253Y-96554081D01*
X103303843Y-96627528D01*
X103226208Y-96876603D01*
X96273792Y-96876603D01*
X96196157Y-96627528D01*
X95932117Y-96501629D01*
X95648589Y-96429661D01*
X95448008Y-96419175D01*
X95409103Y-96291408D01*
X95121118Y-95752627D01*
X94703148Y-95476457D01*
X92679605Y-97500000D01*
X92693748Y-97514143D01*
X92514143Y-97693748D01*
X92500000Y-97679605D01*
X92485858Y-97693748D01*
X92306253Y-97514143D01*
X92320395Y-97500000D01*
X92306253Y-97485858D01*
X92485858Y-97306253D01*
X92500000Y-97320395D01*
X94523543Y-95296852D01*
X94247373Y-94878882D01*
X93702443Y-94588351D01*
X93111304Y-94409713D01*
X92496672Y-94349832D01*
X91882169Y-94411010D01*
X91291408Y-94590897D01*
X90752627Y-94878882D01*
X90660000Y-95019069D01*
X90660000Y-93012239D01*
X90667748Y-93019987D01*
X90935537Y-93198918D01*
X91233088Y-93322168D01*
X91548967Y-93385000D01*
X91871033Y-93385000D01*
X92186912Y-93322168D01*
X92484463Y-93198918D01*
X92694809Y-93058370D01*
X92719463Y-93104494D01*
X92798815Y-93201185D01*
X92895506Y-93280537D01*
X93005820Y-93339502D01*
X93125518Y-93375812D01*
X93250000Y-93388072D01*
X93823723Y-93385604D01*
X93802616Y-93466108D01*
X93783282Y-93787595D01*
X93827039Y-94106675D01*
X93932205Y-94411088D01*
X94025186Y-94585044D01*
X94289587Y-94680808D01*
X95245395Y-93725000D01*
X94906992Y-93386597D01*
X95250000Y-93388072D01*
X95266092Y-93386487D01*
X95425000Y-93545395D01*
X96380808Y-92589587D01*
X96285044Y-92325186D01*
X95995429Y-92184296D01*
X95885515Y-92155478D01*
X95885000Y-92035750D01*
X95726250Y-91877000D01*
X94377000Y-91877000D01*
X94377000Y-91897000D01*
X94123000Y-91897000D01*
X94123000Y-91877000D01*
X94103000Y-91877000D01*
X94103000Y-91623000D01*
X94123000Y-91623000D01*
X94123000Y-90273750D01*
X94377000Y-90273750D01*
X94377000Y-91623000D01*
X95726250Y-91623000D01*
X95885000Y-91464250D01*
X95888072Y-90750000D01*
X95875812Y-90625518D01*
X95839502Y-90505820D01*
X95780537Y-90395506D01*
X95701185Y-90298815D01*
X95604494Y-90219463D01*
X95494180Y-90160498D01*
X95374482Y-90124188D01*
X95250000Y-90111928D01*
X94535750Y-90115000D01*
X94377000Y-90273750D01*
X94123000Y-90273750D01*
X93964250Y-90115000D01*
X93606645Y-90113462D01*
X93653475Y-90066632D01*
X93815990Y-89823411D01*
X93927932Y-89553158D01*
X93985000Y-89266260D01*
X93985000Y-88973740D01*
X93941209Y-88753592D01*
X95246503Y-87448299D01*
X95275500Y-87424502D01*
X95333249Y-87354135D01*
X95370473Y-87308778D01*
X95441045Y-87176748D01*
X95451040Y-87143799D01*
X95484502Y-87033487D01*
X95495499Y-86921834D01*
X95495499Y-86921824D01*
X95499175Y-86884502D01*
X95495499Y-86847179D01*
X95495499Y-82079302D01*
X96064802Y-81510000D01*
X103935199Y-81510000D01*
X104352661Y-81927463D01*
X104352662Y-84050009D01*
X104348985Y-84087341D01*
X104352662Y-84124674D01*
X104363659Y-84236327D01*
X104369020Y-84254000D01*
X104407115Y-84379587D01*
X104420580Y-84404779D01*
X104298794Y-84282993D01*
X104275001Y-84254001D01*
X104246008Y-84230207D01*
X104246003Y-84230202D01*
X104159277Y-84159027D01*
X104045000Y-84097944D01*
X104045000Y-84083740D01*
X103987932Y-83796842D01*
X103875990Y-83526589D01*
X103713475Y-83283368D01*
X103506632Y-83076525D01*
X103263411Y-82914010D01*
X102993158Y-82802068D01*
X102706260Y-82745000D01*
X102413740Y-82745000D01*
X102126842Y-82802068D01*
X101856589Y-82914010D01*
X101613368Y-83076525D01*
X101406525Y-83283368D01*
X101394861Y-83300824D01*
X101371502Y-83223820D01*
X101312537Y-83113506D01*
X101233185Y-83016815D01*
X101136494Y-82937463D01*
X101026180Y-82878498D01*
X100906482Y-82842188D01*
X100782000Y-82829928D01*
X100305750Y-82833000D01*
X100147000Y-82991750D01*
X100147000Y-84103000D01*
X100167000Y-84103000D01*
X100167000Y-84357000D01*
X100147000Y-84357000D01*
X100147000Y-84377000D01*
X99893000Y-84377000D01*
X99893000Y-84357000D01*
X99873000Y-84357000D01*
X99873000Y-84103000D01*
X99893000Y-84103000D01*
X99893000Y-82991750D01*
X99734250Y-82833000D01*
X99258000Y-82829928D01*
X99133518Y-82842188D01*
X99013820Y-82878498D01*
X98903506Y-82937463D01*
X98806815Y-83016815D01*
X98727463Y-83113506D01*
X98668498Y-83223820D01*
X98645139Y-83300824D01*
X98633475Y-83283368D01*
X98426632Y-83076525D01*
X98183411Y-82914010D01*
X97913158Y-82802068D01*
X97626260Y-82745000D01*
X97333740Y-82745000D01*
X97046842Y-82802068D01*
X96776589Y-82914010D01*
X96533368Y-83076525D01*
X96326525Y-83283368D01*
X96164010Y-83526589D01*
X96052068Y-83796842D01*
X95995000Y-84083740D01*
X95995000Y-84376260D01*
X96052068Y-84663158D01*
X96164010Y-84933411D01*
X96326525Y-85176632D01*
X96533368Y-85383475D01*
X96776589Y-85545990D01*
X97046842Y-85657932D01*
X97333740Y-85715000D01*
X97626260Y-85715000D01*
X97715000Y-85697348D01*
X97715000Y-85851939D01*
X97754774Y-86051898D01*
X97832795Y-86240256D01*
X97946063Y-86409774D01*
X98090226Y-86553937D01*
X98259744Y-86667205D01*
X98448102Y-86745226D01*
X98648061Y-86785000D01*
X98851939Y-86785000D01*
X99051898Y-86745226D01*
X99240256Y-86667205D01*
X99409774Y-86553937D01*
X99553937Y-86409774D01*
X99667205Y-86240256D01*
X99698377Y-86165001D01*
X101768485Y-86165001D01*
X101754774Y-86198102D01*
X101715000Y-86398061D01*
X101715000Y-86601939D01*
X101754774Y-86801898D01*
X101770055Y-86838789D01*
X101688595Y-86920249D01*
X101575327Y-87089767D01*
X101497306Y-87278125D01*
X101457532Y-87478084D01*
X101457532Y-87681962D01*
X101497306Y-87881921D01*
X101575327Y-88070279D01*
X101688595Y-88239797D01*
X101832758Y-88383960D01*
X102002276Y-88497228D01*
X102190634Y-88575249D01*
X102271074Y-88591249D01*
X102332795Y-88740256D01*
X102349327Y-88764998D01*
X99202586Y-88764998D01*
X97915699Y-87478112D01*
X97891896Y-87449108D01*
X97776171Y-87354135D01*
X97644142Y-87283563D01*
X97500934Y-87240122D01*
X97445984Y-87185172D01*
X97276466Y-87071904D01*
X97088108Y-86993883D01*
X96888149Y-86954109D01*
X96684271Y-86954109D01*
X96484312Y-86993883D01*
X96295954Y-87071904D01*
X96126436Y-87185172D01*
X95982273Y-87329335D01*
X95869005Y-87498853D01*
X95790984Y-87687211D01*
X95751210Y-87887170D01*
X95751210Y-88091048D01*
X95790984Y-88291007D01*
X95869005Y-88479365D01*
X95982273Y-88648883D01*
X96126436Y-88793046D01*
X96295954Y-88906314D01*
X96484312Y-88984335D01*
X96684271Y-89024109D01*
X96888149Y-89024109D01*
X97088108Y-88984335D01*
X97218365Y-88930380D01*
X97540489Y-89252505D01*
X97351939Y-89215000D01*
X97148061Y-89215000D01*
X96948102Y-89254774D01*
X96759744Y-89332795D01*
X96590226Y-89446063D01*
X96446063Y-89590226D01*
X96332795Y-89759744D01*
X96254774Y-89948102D01*
X96215000Y-90148061D01*
X96215000Y-90351939D01*
X96254774Y-90551898D01*
X96332795Y-90740256D01*
X96446063Y-90909774D01*
X96539127Y-91002838D01*
X96483771Y-91085684D01*
X96405750Y-91274042D01*
X96365976Y-91474001D01*
X96365976Y-91677879D01*
X96405750Y-91877838D01*
X96483771Y-92066196D01*
X96597039Y-92235714D01*
X96741202Y-92379877D01*
X96910720Y-92493145D01*
X97099078Y-92571166D01*
X97299037Y-92610940D01*
X97361175Y-92610940D01*
X97730001Y-92979767D01*
X97730001Y-93862166D01*
X97689408Y-93763649D01*
X97687763Y-93760575D01*
X97494541Y-93750064D01*
X97039605Y-94205000D01*
X97053748Y-94219143D01*
X96954566Y-94318324D01*
X96965704Y-94295429D01*
X97047384Y-93983892D01*
X97056719Y-93828676D01*
X97314936Y-93570459D01*
X97304425Y-93377237D01*
X97134397Y-93306438D01*
X97000959Y-93279639D01*
X96917795Y-93038912D01*
X96824814Y-92864956D01*
X96560413Y-92769192D01*
X95604605Y-93725000D01*
X95618748Y-93739143D01*
X95439143Y-93918748D01*
X95425000Y-93904605D01*
X94469192Y-94860413D01*
X94564956Y-95124814D01*
X94854571Y-95265704D01*
X95166108Y-95347384D01*
X95487595Y-95366718D01*
X95806675Y-95322961D01*
X96111088Y-95217795D01*
X96285044Y-95124814D01*
X96378885Y-94865723D01*
X96382500Y-94862108D01*
X96407660Y-94887268D01*
X96415575Y-95032763D01*
X96585603Y-95103562D01*
X96766176Y-95139828D01*
X96950355Y-95140171D01*
X96976928Y-95134936D01*
X96976928Y-95800001D01*
X96993992Y-95973255D01*
X97044528Y-96139851D01*
X97126595Y-96293387D01*
X97237038Y-96427962D01*
X97371613Y-96538405D01*
X97525149Y-96620472D01*
X97691745Y-96671008D01*
X97864999Y-96688072D01*
X99115001Y-96688072D01*
X99288255Y-96671008D01*
X99454851Y-96620472D01*
X99608387Y-96538405D01*
X99742962Y-96427962D01*
X99760000Y-96407201D01*
X99777038Y-96427962D01*
X99911613Y-96538405D01*
X100065149Y-96620472D01*
X100231745Y-96671008D01*
X100404999Y-96688072D01*
X101655001Y-96688072D01*
X101828255Y-96671008D01*
X101994851Y-96620472D01*
X102148387Y-96538405D01*
X102282962Y-96427962D01*
X102393405Y-96293387D01*
X102475472Y-96139851D01*
X102526008Y-95973255D01*
X102543072Y-95800001D01*
X102543072Y-95139205D01*
X102546176Y-95139828D01*
X102730355Y-95140171D01*
X102911061Y-95104574D01*
X103081351Y-95034408D01*
X103084425Y-95032763D01*
X103092340Y-94887268D01*
X103117500Y-94862108D01*
X103121115Y-94865723D01*
X103214956Y-95124814D01*
X103504571Y-95265704D01*
X103816108Y-95347384D01*
X104137595Y-95366718D01*
X104456675Y-95322961D01*
X104761088Y-95217795D01*
X104935044Y-95124814D01*
X105030808Y-94860413D01*
X104075000Y-93904605D01*
X104060858Y-93918748D01*
X103881253Y-93739143D01*
X103895395Y-93725000D01*
X104254605Y-93725000D01*
X105210413Y-94680808D01*
X105474814Y-94585044D01*
X105615704Y-94295429D01*
X105673496Y-94075000D01*
X107561928Y-94075000D01*
X107574188Y-94199482D01*
X107610498Y-94319180D01*
X107669463Y-94429494D01*
X107748815Y-94526185D01*
X107845506Y-94605537D01*
X107955820Y-94664502D01*
X108075518Y-94700812D01*
X108200000Y-94713072D01*
X108764250Y-94710000D01*
X108923000Y-94551250D01*
X108923000Y-93277000D01*
X107723750Y-93277000D01*
X107565000Y-93435750D01*
X107561928Y-94075000D01*
X105673496Y-94075000D01*
X105697384Y-93983892D01*
X105716718Y-93662405D01*
X105672961Y-93343325D01*
X105567795Y-93038912D01*
X105474814Y-92864956D01*
X105210413Y-92769192D01*
X104254605Y-93725000D01*
X103895395Y-93725000D01*
X103881253Y-93710858D01*
X104060858Y-93531253D01*
X104075000Y-93545395D01*
X105030808Y-92589587D01*
X104935044Y-92325186D01*
X104729101Y-92225000D01*
X107561928Y-92225000D01*
X107565000Y-92864250D01*
X107723750Y-93023000D01*
X108923000Y-93023000D01*
X108923000Y-91748750D01*
X109177000Y-91748750D01*
X109177000Y-93023000D01*
X109197000Y-93023000D01*
X109197000Y-93277000D01*
X109177000Y-93277000D01*
X109177000Y-94551250D01*
X109335750Y-94710000D01*
X109900000Y-94713072D01*
X110024482Y-94700812D01*
X110099055Y-94678190D01*
X110053992Y-94826745D01*
X110036928Y-94999999D01*
X110036928Y-95800001D01*
X110053992Y-95973255D01*
X110104528Y-96139851D01*
X110186595Y-96293387D01*
X110297038Y-96427962D01*
X110431613Y-96538405D01*
X110585149Y-96620472D01*
X110751745Y-96671008D01*
X110924999Y-96688072D01*
X112175001Y-96688072D01*
X112348255Y-96671008D01*
X112514851Y-96620472D01*
X112668387Y-96538405D01*
X112800000Y-96430393D01*
X112931613Y-96538405D01*
X113085149Y-96620472D01*
X113251745Y-96671008D01*
X113424999Y-96688072D01*
X114675001Y-96688072D01*
X114848255Y-96671008D01*
X115014851Y-96620472D01*
X115168387Y-96538405D01*
X115300000Y-96430393D01*
X115431613Y-96538405D01*
X115585149Y-96620472D01*
X115751745Y-96671008D01*
X115924999Y-96688072D01*
X117175001Y-96688072D01*
X117348255Y-96671008D01*
X117514851Y-96620472D01*
X117668387Y-96538405D01*
X117800000Y-96430393D01*
X117931613Y-96538405D01*
X118085149Y-96620472D01*
X118251745Y-96671008D01*
X118424999Y-96688072D01*
X119675001Y-96688072D01*
X119848255Y-96671008D01*
X120014851Y-96620472D01*
X120168387Y-96538405D01*
X120300000Y-96430393D01*
X120431613Y-96538405D01*
X120585149Y-96620472D01*
X120751745Y-96671008D01*
X120924999Y-96688072D01*
X122175001Y-96688072D01*
X122348255Y-96671008D01*
X122514851Y-96620472D01*
X122668387Y-96538405D01*
X122800000Y-96430393D01*
X122931613Y-96538405D01*
X123085149Y-96620472D01*
X123251745Y-96671008D01*
X123424999Y-96688072D01*
X124675001Y-96688072D01*
X124848255Y-96671008D01*
X125014851Y-96620472D01*
X125168387Y-96538405D01*
X125300000Y-96430393D01*
X125431613Y-96538405D01*
X125585149Y-96620472D01*
X125751745Y-96671008D01*
X125924999Y-96688072D01*
X127175001Y-96688072D01*
X127348255Y-96671008D01*
X127514851Y-96620472D01*
X127668387Y-96538405D01*
X127802962Y-96427962D01*
X127913405Y-96293387D01*
X127995472Y-96139851D01*
X128046008Y-95973255D01*
X128063072Y-95800001D01*
X128063072Y-94999999D01*
X128046008Y-94826745D01*
X127995472Y-94660149D01*
X127913405Y-94506613D01*
X127802962Y-94372038D01*
X127668387Y-94261595D01*
X127634996Y-94243747D01*
X127790706Y-94054013D01*
X127928599Y-93796033D01*
X128013513Y-93516110D01*
X128035000Y-93297949D01*
X128035000Y-93002050D01*
X128013513Y-92783889D01*
X127928599Y-92503966D01*
X127790706Y-92245986D01*
X127605134Y-92019866D01*
X127379013Y-91834294D01*
X127121033Y-91696401D01*
X126841110Y-91611487D01*
X126550000Y-91582815D01*
X126258889Y-91611487D01*
X125978966Y-91696401D01*
X125720986Y-91834294D01*
X125494866Y-92019866D01*
X125309294Y-92245987D01*
X125300000Y-92263374D01*
X125290706Y-92245986D01*
X125105134Y-92019866D01*
X124879013Y-91834294D01*
X124621033Y-91696401D01*
X124341110Y-91611487D01*
X124050000Y-91582815D01*
X123758889Y-91611487D01*
X123478966Y-91696401D01*
X123220986Y-91834294D01*
X122994866Y-92019866D01*
X122809294Y-92245987D01*
X122800000Y-92263374D01*
X122790706Y-92245986D01*
X122605134Y-92019866D01*
X122379013Y-91834294D01*
X122121033Y-91696401D01*
X121841110Y-91611487D01*
X121550000Y-91582815D01*
X121258889Y-91611487D01*
X120978966Y-91696401D01*
X120720986Y-91834294D01*
X120494866Y-92019866D01*
X120309294Y-92245987D01*
X120300000Y-92263374D01*
X120290706Y-92245986D01*
X120105134Y-92019866D01*
X119879013Y-91834294D01*
X119621033Y-91696401D01*
X119341110Y-91611487D01*
X119050000Y-91582815D01*
X118758889Y-91611487D01*
X118478966Y-91696401D01*
X118220986Y-91834294D01*
X117994866Y-92019866D01*
X117809294Y-92245987D01*
X117800000Y-92263374D01*
X117790706Y-92245986D01*
X117605134Y-92019866D01*
X117379013Y-91834294D01*
X117121033Y-91696401D01*
X116841110Y-91611487D01*
X116550000Y-91582815D01*
X116258889Y-91611487D01*
X115978966Y-91696401D01*
X115720986Y-91834294D01*
X115494866Y-92019866D01*
X115309294Y-92245987D01*
X115300000Y-92263374D01*
X115290706Y-92245986D01*
X115105134Y-92019866D01*
X114879013Y-91834294D01*
X114621033Y-91696401D01*
X114341110Y-91611487D01*
X114050000Y-91582815D01*
X113758889Y-91611487D01*
X113478966Y-91696401D01*
X113220986Y-91834294D01*
X112994866Y-92019866D01*
X112809294Y-92245987D01*
X112800000Y-92263374D01*
X112790706Y-92245986D01*
X112605134Y-92019866D01*
X112379013Y-91834294D01*
X112121033Y-91696401D01*
X111841110Y-91611487D01*
X111550000Y-91582815D01*
X111258889Y-91611487D01*
X110978966Y-91696401D01*
X110720986Y-91834294D01*
X110500055Y-92015608D01*
X110489502Y-91980820D01*
X110430537Y-91870506D01*
X110351185Y-91773815D01*
X110254494Y-91694463D01*
X110144180Y-91635498D01*
X110024482Y-91599188D01*
X109900000Y-91586928D01*
X109335750Y-91590000D01*
X109177000Y-91748750D01*
X108923000Y-91748750D01*
X108764250Y-91590000D01*
X108200000Y-91586928D01*
X108075518Y-91599188D01*
X107955820Y-91635498D01*
X107845506Y-91694463D01*
X107748815Y-91773815D01*
X107669463Y-91870506D01*
X107610498Y-91980820D01*
X107574188Y-92100518D01*
X107561928Y-92225000D01*
X104729101Y-92225000D01*
X104645429Y-92184296D01*
X104333892Y-92102616D01*
X104012405Y-92083282D01*
X103693325Y-92127039D01*
X103388912Y-92232205D01*
X103251879Y-92305450D01*
X103267853Y-92266886D01*
X103307627Y-92066927D01*
X103307627Y-91863049D01*
X103267853Y-91663090D01*
X103189832Y-91474732D01*
X103076564Y-91305214D01*
X102932401Y-91161051D01*
X102859853Y-91112576D01*
X102866940Y-91076949D01*
X102866940Y-91010000D01*
X105796289Y-91010000D01*
X105840226Y-91053937D01*
X106009744Y-91167205D01*
X106198102Y-91245226D01*
X106398061Y-91285000D01*
X106601939Y-91285000D01*
X106801898Y-91245226D01*
X106990256Y-91167205D01*
X107159774Y-91053937D01*
X107276785Y-90936926D01*
X107399020Y-90974005D01*
X107510673Y-90985002D01*
X107510682Y-90985002D01*
X107548005Y-90988678D01*
X107585328Y-90985002D01*
X121437680Y-90985002D01*
X121475002Y-90988678D01*
X121512324Y-90985002D01*
X121512335Y-90985002D01*
X121623988Y-90974005D01*
X121767249Y-90930548D01*
X121899278Y-90859976D01*
X122015003Y-90765003D01*
X122038806Y-90735999D01*
X123039804Y-89735002D01*
X124130547Y-89735002D01*
X124167869Y-89738678D01*
X124205191Y-89735002D01*
X124205202Y-89735002D01*
X124316855Y-89724005D01*
X124460116Y-89680548D01*
X124592145Y-89609976D01*
X124707870Y-89515003D01*
X124731672Y-89486000D01*
X125233385Y-88984287D01*
X125262383Y-88960490D01*
X125357356Y-88844765D01*
X125427928Y-88712736D01*
X125471385Y-88569475D01*
X125482382Y-88457822D01*
X125482382Y-88457812D01*
X125486058Y-88420489D01*
X125482382Y-88383166D01*
X125482382Y-77759707D01*
X125486058Y-77722382D01*
X125482382Y-77685057D01*
X125482382Y-77685049D01*
X125471385Y-77573396D01*
X125427928Y-77430135D01*
X125357356Y-77298106D01*
X125262383Y-77182381D01*
X125233385Y-77158583D01*
X122285000Y-74210199D01*
X122285000Y-74148061D01*
X122256400Y-74004276D01*
X122301898Y-73995226D01*
X122490256Y-73917205D01*
X122659774Y-73803937D01*
X122803937Y-73659774D01*
X122917205Y-73490256D01*
X122927666Y-73465000D01*
X128210000Y-73465000D01*
X128210000Y-87035000D01*
X132030000Y-87035000D01*
X132030000Y-73465000D01*
X128210000Y-73465000D01*
X122927666Y-73465000D01*
X122995226Y-73301898D01*
X123035000Y-73101939D01*
X123035000Y-72898061D01*
X122995226Y-72698102D01*
X122917205Y-72509744D01*
X122803937Y-72340226D01*
X122659774Y-72196063D01*
X122490256Y-72082795D01*
X122301898Y-72004774D01*
X122101939Y-71965000D01*
X122039802Y-71965000D01*
X121563804Y-71489002D01*
X121540001Y-71459999D01*
X121424276Y-71365026D01*
X121292247Y-71294454D01*
X121148986Y-71250997D01*
X121037333Y-71240000D01*
X121037322Y-71240000D01*
X121000000Y-71236324D01*
X120962678Y-71240000D01*
X120537325Y-71240000D01*
X120500000Y-71236324D01*
X120462675Y-71240000D01*
X120462667Y-71240000D01*
X120351014Y-71250997D01*
X120207753Y-71294454D01*
X120075724Y-71365026D01*
X119959999Y-71459999D01*
X119936196Y-71489003D01*
X119685199Y-71740000D01*
X100505000Y-71740000D01*
X100505000Y-71503740D01*
X100447932Y-71216842D01*
X100335990Y-70946589D01*
X100173475Y-70703368D01*
X99966632Y-70496525D01*
X99723411Y-70334010D01*
X99453158Y-70222068D01*
X99166260Y-70165000D01*
X98873740Y-70165000D01*
X98586842Y-70222068D01*
X98316589Y-70334010D01*
X98073368Y-70496525D01*
X97866525Y-70703368D01*
X97750000Y-70877760D01*
X97633475Y-70703368D01*
X97426632Y-70496525D01*
X97183411Y-70334010D01*
X96913158Y-70222068D01*
X96626260Y-70165000D01*
X96333740Y-70165000D01*
X96046842Y-70222068D01*
X95776589Y-70334010D01*
X95533368Y-70496525D01*
X95326525Y-70703368D01*
X95210689Y-70876729D01*
X94968397Y-70801208D01*
X94119605Y-71650000D01*
X94968397Y-72498792D01*
X95210689Y-72423271D01*
X95326525Y-72596632D01*
X95533368Y-72803475D01*
X95776589Y-72965990D01*
X96046842Y-73077932D01*
X96333740Y-73135000D01*
X96626260Y-73135000D01*
X96846408Y-73091210D01*
X97266201Y-73511003D01*
X97289999Y-73540001D01*
X97405724Y-73634974D01*
X97537753Y-73705546D01*
X97681014Y-73749003D01*
X97792667Y-73760000D01*
X97792676Y-73760000D01*
X97829999Y-73763676D01*
X97867322Y-73760000D01*
X108715000Y-73760000D01*
X108715000Y-73851939D01*
X108754774Y-74051898D01*
X108832795Y-74240256D01*
X108946063Y-74409774D01*
X109090226Y-74553937D01*
X109259744Y-74667205D01*
X109448102Y-74745226D01*
X109648061Y-74785000D01*
X109851939Y-74785000D01*
X110051898Y-74745226D01*
X110240256Y-74667205D01*
X110409774Y-74553937D01*
X110453711Y-74510000D01*
X118740001Y-74510000D01*
X118740000Y-76212677D01*
X118736324Y-76250000D01*
X118740000Y-76287322D01*
X118740000Y-76287332D01*
X118750997Y-76398985D01*
X118794454Y-76542246D01*
X118865026Y-76674276D01*
X118904871Y-76722826D01*
X118959999Y-76790001D01*
X118989002Y-76813803D01*
X119186200Y-77011002D01*
X119209999Y-77040001D01*
X119325724Y-77134974D01*
X119457753Y-77205546D01*
X119601014Y-77249003D01*
X119712667Y-77260000D01*
X119712676Y-77260000D01*
X119749999Y-77263676D01*
X119787322Y-77260000D01*
X121685199Y-77260000D01*
X122990001Y-78564803D01*
X122990000Y-84435198D01*
X122835221Y-84589978D01*
X119484823Y-84589978D01*
X119789802Y-84285000D01*
X119851939Y-84285000D01*
X120051898Y-84245226D01*
X120240256Y-84167205D01*
X120409774Y-84053937D01*
X120553937Y-83909774D01*
X120667205Y-83740256D01*
X120745226Y-83551898D01*
X120785000Y-83351939D01*
X120785000Y-83148061D01*
X120745226Y-82948102D01*
X120667205Y-82759744D01*
X120553937Y-82590226D01*
X120409774Y-82446063D01*
X120240256Y-82332795D01*
X120051898Y-82254774D01*
X119851939Y-82215000D01*
X119648061Y-82215000D01*
X119448102Y-82254774D01*
X119259744Y-82332795D01*
X119090226Y-82446063D01*
X118946063Y-82590226D01*
X118832795Y-82759744D01*
X118754774Y-82948102D01*
X118715000Y-83148061D01*
X118715000Y-83210198D01*
X117935199Y-83990000D01*
X111452953Y-83990000D01*
X110085881Y-82622931D01*
X110062079Y-82593928D01*
X109946354Y-82498955D01*
X109814325Y-82428383D01*
X109671064Y-82384926D01*
X109559411Y-82373929D01*
X109559400Y-82373929D01*
X109522078Y-82370253D01*
X109484755Y-82373929D01*
X109330025Y-82373929D01*
X109345230Y-82337221D01*
X109385004Y-82137262D01*
X109385004Y-81933384D01*
X109345230Y-81733425D01*
X109267209Y-81545067D01*
X109153941Y-81375549D01*
X109009778Y-81231386D01*
X108840260Y-81118118D01*
X108651902Y-81040097D01*
X108451943Y-81000323D01*
X108248065Y-81000323D01*
X108048106Y-81040097D01*
X107859748Y-81118118D01*
X107705331Y-81221296D01*
X107054034Y-80569999D01*
X110152679Y-80569999D01*
X110190001Y-80573675D01*
X110227323Y-80569999D01*
X110227334Y-80569999D01*
X110338987Y-80559002D01*
X110482248Y-80515545D01*
X110614277Y-80444973D01*
X110730002Y-80350000D01*
X110753804Y-80320997D01*
X110789801Y-80285000D01*
X110851939Y-80285000D01*
X111051898Y-80245226D01*
X111240256Y-80167205D01*
X111409774Y-80053937D01*
X111553937Y-79909774D01*
X111667205Y-79740256D01*
X111745226Y-79551898D01*
X111785000Y-79351939D01*
X111785000Y-79148061D01*
X111745226Y-78948102D01*
X111667205Y-78759744D01*
X111553937Y-78590226D01*
X111409774Y-78446063D01*
X111240256Y-78332795D01*
X111051898Y-78254774D01*
X110851939Y-78215000D01*
X110648061Y-78215000D01*
X110448102Y-78254774D01*
X110259744Y-78332795D01*
X110090226Y-78446063D01*
X109946063Y-78590226D01*
X109832795Y-78759744D01*
X109754774Y-78948102D01*
X109734506Y-79049999D01*
X106170445Y-79049999D01*
X105559403Y-78438958D01*
X105535601Y-78409955D01*
X105419876Y-78314982D01*
X105287847Y-78244410D01*
X105144586Y-78200953D01*
X105032933Y-78189956D01*
X105032922Y-78189956D01*
X104995600Y-78186280D01*
X104958278Y-78189956D01*
X93771467Y-78189956D01*
X93653475Y-78013368D01*
X93446632Y-77806525D01*
X93273271Y-77690689D01*
X93348792Y-77448397D01*
X92500000Y-76599605D01*
X91651208Y-77448397D01*
X91726729Y-77690689D01*
X91553368Y-77806525D01*
X91346525Y-78013368D01*
X91184010Y-78256589D01*
X91072068Y-78526842D01*
X91015000Y-78813740D01*
X91015000Y-79106260D01*
X91072068Y-79393158D01*
X91184010Y-79663411D01*
X91346525Y-79906632D01*
X91553368Y-80113475D01*
X91727760Y-80230000D01*
X91553368Y-80346525D01*
X91346525Y-80553368D01*
X91184010Y-80796589D01*
X91072068Y-81066842D01*
X91015000Y-81353740D01*
X91015000Y-81646260D01*
X91072068Y-81933158D01*
X91184010Y-82203411D01*
X91346525Y-82446632D01*
X91553368Y-82653475D01*
X91727760Y-82770000D01*
X91553368Y-82886525D01*
X91346525Y-83093368D01*
X91184010Y-83336589D01*
X91072068Y-83606842D01*
X91015000Y-83893740D01*
X91015000Y-84186260D01*
X91072068Y-84473158D01*
X91184010Y-84743411D01*
X91346525Y-84986632D01*
X91553368Y-85193475D01*
X91727760Y-85310000D01*
X91553368Y-85426525D01*
X91346525Y-85633368D01*
X91184010Y-85876589D01*
X91072068Y-86146842D01*
X91015000Y-86433740D01*
X91015000Y-86726260D01*
X91072068Y-87013158D01*
X91184010Y-87283411D01*
X91346525Y-87526632D01*
X91553368Y-87733475D01*
X91727760Y-87850000D01*
X91553368Y-87966525D01*
X91346525Y-88173368D01*
X91184010Y-88416589D01*
X91072068Y-88686842D01*
X91015000Y-88973740D01*
X91015000Y-89266260D01*
X91072068Y-89553158D01*
X91184010Y-89823411D01*
X91346525Y-90066632D01*
X91420455Y-90140562D01*
X91233088Y-90177832D01*
X90935537Y-90301082D01*
X90667748Y-90480013D01*
X90660000Y-90487761D01*
X90660000Y-76488531D01*
X91009389Y-76488531D01*
X91051401Y-76778019D01*
X91149081Y-77053747D01*
X91222528Y-77191157D01*
X91471603Y-77268792D01*
X92320395Y-76420000D01*
X92679605Y-76420000D01*
X93528397Y-77268792D01*
X93777472Y-77191157D01*
X93903371Y-76927117D01*
X93975339Y-76643589D01*
X93990611Y-76351469D01*
X93948599Y-76061981D01*
X93850919Y-75786253D01*
X93777472Y-75648843D01*
X93528397Y-75571208D01*
X92679605Y-76420000D01*
X92320395Y-76420000D01*
X91471603Y-75571208D01*
X91222528Y-75648843D01*
X91096629Y-75912883D01*
X91024661Y-76196411D01*
X91009389Y-76488531D01*
X90660000Y-76488531D01*
X90660000Y-72941542D01*
X90696589Y-72965990D01*
X90966842Y-73077932D01*
X91216719Y-73127636D01*
X91184010Y-73176589D01*
X91072068Y-73446842D01*
X91015000Y-73733740D01*
X91015000Y-74026260D01*
X91072068Y-74313158D01*
X91184010Y-74583411D01*
X91346525Y-74826632D01*
X91553368Y-75033475D01*
X91726729Y-75149311D01*
X91651208Y-75391603D01*
X92500000Y-76240395D01*
X93348792Y-75391603D01*
X93273271Y-75149311D01*
X93446632Y-75033475D01*
X93653475Y-74826632D01*
X93815990Y-74583411D01*
X93927932Y-74313158D01*
X93985000Y-74026260D01*
X93985000Y-73733740D01*
X93927932Y-73446842D01*
X93815990Y-73176589D01*
X93784111Y-73128878D01*
X94008531Y-73140611D01*
X94298019Y-73098599D01*
X94573747Y-73000919D01*
X94711157Y-72927472D01*
X94788792Y-72678397D01*
X93940000Y-71829605D01*
X93925858Y-71843748D01*
X93746253Y-71664143D01*
X93760395Y-71650000D01*
X92911603Y-70801208D01*
X92669311Y-70876729D01*
X92553475Y-70703368D01*
X92471710Y-70621603D01*
X93091208Y-70621603D01*
X93940000Y-71470395D01*
X94788792Y-70621603D01*
X94711157Y-70372528D01*
X94447117Y-70246629D01*
X94163589Y-70174661D01*
X93871469Y-70159389D01*
X93581981Y-70201401D01*
X93306253Y-70299081D01*
X93168843Y-70372528D01*
X93091208Y-70621603D01*
X92471710Y-70621603D01*
X92346632Y-70496525D01*
X92103411Y-70334010D01*
X91833158Y-70222068D01*
X91546260Y-70165000D01*
X91253740Y-70165000D01*
X90966842Y-70222068D01*
X90696589Y-70334010D01*
X90660000Y-70358458D01*
X90660000Y-67980931D01*
X90752627Y-68121118D01*
X91297557Y-68411649D01*
X91888696Y-68590287D01*
X92503328Y-68650168D01*
X93117831Y-68588990D01*
X93708592Y-68409103D01*
X94247373Y-68121118D01*
X94523543Y-67703148D01*
X92500000Y-65679605D01*
X92485858Y-65693748D01*
X92306253Y-65514143D01*
X92320395Y-65500000D01*
X92306253Y-65485858D01*
X92485858Y-65306253D01*
X92500000Y-65320395D01*
X92514143Y-65306253D01*
X92693748Y-65485858D01*
X92679605Y-65500000D01*
X94703148Y-67523543D01*
X95121118Y-67247373D01*
X95411649Y-66702443D01*
X95590287Y-66111304D01*
X95650168Y-65496672D01*
X95588990Y-64882169D01*
X95409103Y-64291408D01*
X95121118Y-63752627D01*
X94980931Y-63660000D01*
X100590000Y-63660000D01*
X100590001Y-68717571D01*
G37*
%TD.AperFunction*%
D20*
X102534296Y-93154571D02*
X102501596Y-93279294D01*
X102368939Y-93305426D01*
X102198649Y-93375592D01*
X102195575Y-93377237D01*
X102185064Y-93570459D01*
X102438222Y-93823617D01*
X102477039Y-94106675D01*
X102552651Y-94325541D01*
X102446253Y-94219143D01*
X102460395Y-94205000D01*
X102005459Y-93750064D01*
X101812237Y-93760575D01*
X101790000Y-93813978D01*
X101790000Y-93522416D01*
X102312429Y-92999988D01*
X102374566Y-92999988D01*
X102574525Y-92960214D01*
X102642554Y-92932035D01*
X102534296Y-93154571D01*
%TA.AperFunction,Conductor*%
D21*
G36*
X102534296Y-93154571D02*
G01*
X102501596Y-93279294D01*
X102368939Y-93305426D01*
X102198649Y-93375592D01*
X102195575Y-93377237D01*
X102185064Y-93570459D01*
X102438222Y-93823617D01*
X102477039Y-94106675D01*
X102552651Y-94325541D01*
X102446253Y-94219143D01*
X102460395Y-94205000D01*
X102005459Y-93750064D01*
X101812237Y-93760575D01*
X101790000Y-93813978D01*
X101790000Y-93522416D01*
X102312429Y-92999988D01*
X102374566Y-92999988D01*
X102574525Y-92960214D01*
X102642554Y-92932035D01*
X102534296Y-93154571D01*
G37*
%TD.AperFunction*%
D20*
X132193748Y-65485858D02*
X132179605Y-65500000D01*
X132193748Y-65514143D01*
X132014143Y-65693748D01*
X132000000Y-65679605D01*
X131985858Y-65693748D01*
X131806253Y-65514143D01*
X131820395Y-65500000D01*
X131806253Y-65485858D01*
X131985858Y-65306253D01*
X132000000Y-65320395D01*
X132014143Y-65306253D01*
X132193748Y-65485858D01*
%TA.AperFunction,Conductor*%
D21*
G36*
X132193748Y-65485858D02*
G01*
X132179605Y-65500000D01*
X132193748Y-65514143D01*
X132014143Y-65693748D01*
X132000000Y-65679605D01*
X131985858Y-65693748D01*
X131806253Y-65514143D01*
X131820395Y-65500000D01*
X131806253Y-65485858D01*
X131985858Y-65306253D01*
X132000000Y-65320395D01*
X132014143Y-65306253D01*
X132193748Y-65485858D01*
G37*
%TD.AperFunction*%
%TD*%
M02*
