%TF.GenerationSoftware,KiCad,Pcbnew,(6.0.2-0)*%
%TF.CreationDate,2022-03-09T14:02:06+00:00*%
%TF.ProjectId,EnvMon2,456e764d-6f6e-4322-9e6b-696361645f70,4*%
%TF.SameCoordinates,Original*%
%TF.FileFunction,Soldermask,Top*%
%TF.FilePolarity,Negative*%
%FSLAX46Y46*%
G04 Gerber Fmt 4.6, Leading zero omitted, Abs format (unit mm)*
G04 Created by KiCad (PCBNEW (6.0.2-0)) date 2022-03-09 14:02:06*
%MOMM*%
%LPD*%
G01*
G04 APERTURE LIST*
G04 Aperture macros list*
%AMRoundRect*
0 Rectangle with rounded corners*
0 $1 Rounding radius*
0 $2 $3 $4 $5 $6 $7 $8 $9 X,Y pos of 4 corners*
0 Add a 4 corners polygon primitive as box body*
4,1,4,$2,$3,$4,$5,$6,$7,$8,$9,$2,$3,0*
0 Add four circle primitives for the rounded corners*
1,1,$1+$1,$2,$3*
1,1,$1+$1,$4,$5*
1,1,$1+$1,$6,$7*
1,1,$1+$1,$8,$9*
0 Add four rect primitives between the rounded corners*
20,1,$1+$1,$2,$3,$4,$5,0*
20,1,$1+$1,$4,$5,$6,$7,0*
20,1,$1+$1,$6,$7,$8,$9,0*
20,1,$1+$1,$8,$9,$2,$3,0*%
%AMOutline5P*
0 Free polygon, 5 corners , with rotation*
0 The origin of the aperture is its center*
0 number of corners: always 5*
0 $1 to $10 corner X, Y*
0 $11 Rotation angle, in degrees counterclockwise*
0 create outline with 5 corners*
4,1,5,$1,$2,$3,$4,$5,$6,$7,$8,$9,$10,$1,$2,$11*%
%AMOutline6P*
0 Free polygon, 6 corners , with rotation*
0 The origin of the aperture is its center*
0 number of corners: always 6*
0 $1 to $12 corner X, Y*
0 $13 Rotation angle, in degrees counterclockwise*
0 create outline with 6 corners*
4,1,6,$1,$2,$3,$4,$5,$6,$7,$8,$9,$10,$11,$12,$1,$2,$13*%
%AMOutline7P*
0 Free polygon, 7 corners , with rotation*
0 The origin of the aperture is its center*
0 number of corners: always 7*
0 $1 to $14 corner X, Y*
0 $15 Rotation angle, in degrees counterclockwise*
0 create outline with 7 corners*
4,1,7,$1,$2,$3,$4,$5,$6,$7,$8,$9,$10,$11,$12,$13,$14,$1,$2,$15*%
%AMOutline8P*
0 Free polygon, 8 corners , with rotation*
0 The origin of the aperture is its center*
0 number of corners: always 8*
0 $1 to $16 corner X, Y*
0 $17 Rotation angle, in degrees counterclockwise*
0 create outline with 8 corners*
4,1,8,$1,$2,$3,$4,$5,$6,$7,$8,$9,$10,$11,$12,$13,$14,$15,$16,$1,$2,$17*%
G04 Aperture macros list end*
%ADD10C,0.450000*%
%ADD11RoundRect,0.200000X-0.200000X-0.275000X0.200000X-0.275000X0.200000X0.275000X-0.200000X0.275000X0*%
%ADD12RoundRect,0.100000X0.750000X0.400000X-0.750000X0.400000X-0.750000X-0.400000X0.750000X-0.400000X0*%
%ADD13RoundRect,0.100000X-0.400000X0.750000X-0.400000X-0.750000X0.400000X-0.750000X0.400000X0.750000X0*%
%ADD14RoundRect,0.100000X-0.750000X-0.400000X0.750000X-0.400000X0.750000X0.400000X-0.750000X0.400000X0*%
%ADD15RoundRect,0.100000X0.400000X-0.750000X0.400000X0.750000X-0.400000X0.750000X-0.400000X-0.750000X0*%
%ADD16RoundRect,0.100000X1.200000X1.200000X-1.200000X1.200000X-1.200000X-1.200000X1.200000X-1.200000X0*%
%ADD17RoundRect,0.250000X-0.600000X-0.675000X0.600000X-0.675000X0.600000X0.675000X-0.600000X0.675000X0*%
%ADD18O,1.700000X1.850000*%
%ADD19R,0.600000X1.140000*%
%ADD20RoundRect,0.075000X-0.075000X-0.495000X0.075000X-0.495000X0.075000X0.495000X-0.075000X0.495000X0*%
%ADD21C,1.250000*%
%ADD22C,1.500000*%
%ADD23R,5.000000X5.490000*%
%ADD24C,0.870000*%
%ADD25RoundRect,0.200000X0.275000X-0.200000X0.275000X0.200000X-0.275000X0.200000X-0.275000X-0.200000X0*%
%ADD26R,1.100000X0.600000*%
%ADD27RoundRect,0.249375X0.625625X-0.463125X0.625625X0.463125X-0.625625X0.463125X-0.625625X-0.463125X0*%
%ADD28RoundRect,0.225000X0.225000X0.250000X-0.225000X0.250000X-0.225000X-0.250000X0.225000X-0.250000X0*%
%ADD29R,3.700000X1.425000*%
%ADD30RoundRect,0.250000X-0.250000X-0.475000X0.250000X-0.475000X0.250000X0.475000X-0.250000X0.475000X0*%
%ADD31RoundRect,0.200000X0.200000X0.275000X-0.200000X0.275000X-0.200000X-0.275000X0.200000X-0.275000X0*%
%ADD32C,3.000000*%
%ADD33C,1.700000*%
%ADD34R,0.850000X0.500000*%
%ADD35RoundRect,0.200000X-0.275000X0.200000X-0.275000X-0.200000X0.275000X-0.200000X0.275000X0.200000X0*%
%ADD36R,0.800000X0.400000*%
%ADD37R,0.400000X0.800000*%
%ADD38R,1.450000X1.450000*%
%ADD39Outline5P,-0.725000X0.130500X-0.130500X0.725000X0.725000X0.725000X0.725000X-0.725000X-0.725000X-0.725000X0.000000*%
%ADD40R,0.700000X0.700000*%
%ADD41RoundRect,0.062500X-0.287500X-0.062500X0.287500X-0.062500X0.287500X0.062500X-0.287500X0.062500X0*%
%ADD42RoundRect,0.062500X-0.062500X-0.287500X0.062500X-0.287500X0.062500X0.287500X-0.062500X0.287500X0*%
%ADD43Outline5P,-1.000000X0.750000X-0.750000X1.000000X1.000000X1.000000X1.000000X-1.000000X-1.000000X-1.000000X0.000000*%
%ADD44RoundRect,0.250000X0.625000X-0.375000X0.625000X0.375000X-0.625000X0.375000X-0.625000X-0.375000X0*%
G04 APERTURE END LIST*
D10*
%TO.C,Logo2*%
X118050000Y-85125000D02*
X116250000Y-87125000D01*
X116250000Y-87125000D02*
X114750000Y-87125000D01*
X116250000Y-85025000D02*
X116250000Y-89225000D01*
X116250000Y-87125000D02*
X118050000Y-89225000D01*
X116250000Y-85025000D02*
X113250000Y-89225000D01*
X114750000Y-89225000D02*
G75*
G03*
X116250000Y-89225000I750000J0D01*
G01*
%TD*%
D11*
%TO.C,R1*%
X130600000Y-86750000D03*
X132250000Y-86750000D03*
%TD*%
D12*
%TO.C,U2*%
X96000000Y-71000000D03*
X96000000Y-69750000D03*
X96000000Y-68500000D03*
X96000000Y-67250000D03*
X96000000Y-66000000D03*
D13*
X94500000Y-64500000D03*
X93250000Y-64500000D03*
X92000000Y-64500000D03*
X90750000Y-64500000D03*
X89500000Y-64500000D03*
D14*
X88000000Y-66000000D03*
X88000000Y-67250000D03*
X88000000Y-68500000D03*
X88000000Y-69750000D03*
X88000000Y-71000000D03*
D15*
X89500000Y-72500000D03*
X90750000Y-72500000D03*
X92000000Y-72500000D03*
X93250000Y-72500000D03*
X94500000Y-72500000D03*
D16*
X90800000Y-69700000D03*
X93200000Y-69700000D03*
X93200000Y-67300000D03*
X90800000Y-67300000D03*
%TD*%
D17*
%TO.C,J3*%
X107750000Y-93400000D03*
D18*
X110250000Y-93400000D03*
X112750000Y-93400000D03*
%TD*%
D19*
%TO.C,J1*%
X119050000Y-93140000D03*
X119850000Y-93140000D03*
D20*
X121000000Y-93140000D03*
X122000000Y-93140000D03*
X122500000Y-93140000D03*
X123500000Y-93140000D03*
D19*
X125450000Y-93140000D03*
X124650000Y-93140000D03*
D20*
X124000000Y-93140000D03*
X123000000Y-93140000D03*
X121500000Y-93140000D03*
X120500000Y-93140000D03*
D21*
X126570000Y-97890000D03*
D22*
X126570000Y-93720000D03*
D21*
X117930000Y-97890000D03*
D23*
X122250000Y-97255000D03*
D24*
X119360000Y-94210000D03*
X125140000Y-94210000D03*
D22*
X117930000Y-93720000D03*
%TD*%
D11*
%TO.C,R2*%
X130600000Y-88000000D03*
X132250000Y-88000000D03*
%TD*%
D25*
%TO.C,R10*%
X127050000Y-89550000D03*
X127050000Y-87900000D03*
%TD*%
D26*
%TO.C,U1*%
X133550000Y-81750000D03*
X130850000Y-81750000D03*
D27*
X135370000Y-81902500D03*
D28*
X131675000Y-84800000D03*
D29*
X132250000Y-80300000D03*
D28*
X133225000Y-84800000D03*
D26*
X133550000Y-83650000D03*
X133550000Y-82700000D03*
D30*
X134800000Y-83550000D03*
D26*
X130850000Y-82700000D03*
D27*
X135370000Y-78937500D03*
D30*
X136700000Y-83550000D03*
X136700000Y-77300000D03*
D29*
X132250000Y-77300000D03*
D30*
X134800000Y-77300000D03*
D26*
X130850000Y-83650000D03*
%TD*%
D31*
%TO.C,R7*%
X137825000Y-68600000D03*
X136175000Y-68600000D03*
%TD*%
D11*
%TO.C,R4*%
X123775000Y-91800000D03*
X125425000Y-91800000D03*
%TD*%
D32*
%TO.C,M1*%
X102500000Y-97500000D03*
X142000000Y-65500000D03*
X142000000Y-97500000D03*
X102500000Y-65500000D03*
D33*
X102500000Y-73880000D03*
X102500000Y-76420000D03*
X102500000Y-78960000D03*
X102500000Y-81500000D03*
X102500000Y-84040000D03*
X102500000Y-86580000D03*
X102500000Y-89120000D03*
%TD*%
D25*
%TO.C,R6*%
X121600000Y-90025000D03*
X121600000Y-88375000D03*
%TD*%
D31*
%TO.C,R8*%
X137825000Y-66200000D03*
X136175000Y-66200000D03*
%TD*%
D25*
%TO.C,R5*%
X122800000Y-90025000D03*
X122800000Y-88375000D03*
%TD*%
D34*
%TO.C,D3*%
X136125000Y-64100000D03*
X137875000Y-64100000D03*
X137875000Y-65100000D03*
X136125000Y-65100000D03*
%TD*%
D31*
%TO.C,R3*%
X120625000Y-91800000D03*
X118975000Y-91800000D03*
%TD*%
D35*
%TO.C,R11*%
X125850000Y-87900000D03*
X125850000Y-89550000D03*
%TD*%
%TO.C,R12*%
X115000000Y-71500000D03*
X115000000Y-73150000D03*
%TD*%
D17*
%TO.C,J2*%
X134150000Y-93400000D03*
D18*
X136650000Y-93400000D03*
%TD*%
D36*
%TO.C,U4*%
X116350000Y-69993250D03*
X116350000Y-70793250D03*
X116350000Y-71593250D03*
X116350000Y-72393250D03*
X116350000Y-73193250D03*
X116350000Y-73993250D03*
X116350000Y-74793250D03*
X116350000Y-75593250D03*
X116350000Y-76393250D03*
X116350000Y-77193250D03*
X116350000Y-77993250D03*
D37*
X117450000Y-78893250D03*
X118250000Y-78893250D03*
X119050000Y-78893250D03*
X119850000Y-78893250D03*
X120650000Y-78893250D03*
X121450000Y-78893250D03*
X122250000Y-78893250D03*
X123050000Y-78893250D03*
X123850000Y-78893250D03*
X124650000Y-78893250D03*
X125450000Y-78893250D03*
X126250000Y-78893250D03*
X127050000Y-78893250D03*
D36*
X128150000Y-77993250D03*
X128150000Y-77193250D03*
X128150000Y-76393250D03*
X128150000Y-75593250D03*
X128150000Y-74793250D03*
X128150000Y-73993250D03*
X128150000Y-73193250D03*
X128150000Y-72393250D03*
X128150000Y-71593250D03*
X128150000Y-70793250D03*
X128150000Y-69993250D03*
D37*
X127050000Y-69093250D03*
X126250000Y-69093250D03*
X125450000Y-69093250D03*
X124650000Y-69093250D03*
X123850000Y-69093250D03*
X123050000Y-69093250D03*
X122250000Y-69093250D03*
X121450000Y-69093250D03*
X120650000Y-69093250D03*
X119850000Y-69093250D03*
X119050000Y-69093250D03*
X118250000Y-69093250D03*
X117450000Y-69093250D03*
D38*
X122250000Y-75968250D03*
D39*
X120275000Y-72018250D03*
D38*
X122250000Y-73993250D03*
X122250000Y-72018250D03*
X120275000Y-73993250D03*
X124225000Y-73993250D03*
X120275000Y-75968250D03*
X124225000Y-75968250D03*
X124225000Y-72018250D03*
D40*
X128200000Y-69043250D03*
X128200000Y-78943250D03*
X116300000Y-78943250D03*
X116300000Y-69043250D03*
%TD*%
D35*
%TO.C,C4*%
X128250000Y-87950000D03*
X128250000Y-89500000D03*
%TD*%
D11*
%TO.C,R13*%
X110575000Y-91000000D03*
X112225000Y-91000000D03*
%TD*%
D31*
%TO.C,R9*%
X137825000Y-67400000D03*
X136175000Y-67400000D03*
%TD*%
D41*
%TO.C,U3*%
X120150000Y-84250000D03*
X120150000Y-84750000D03*
X120150000Y-85250000D03*
X120150000Y-85750000D03*
X120150000Y-86250000D03*
D42*
X121050000Y-87150000D03*
X121550000Y-87150000D03*
X122050000Y-87150000D03*
X122550000Y-87150000D03*
X123050000Y-87150000D03*
D41*
X123950000Y-86250000D03*
X123950000Y-85750000D03*
X123950000Y-85250000D03*
X123950000Y-84750000D03*
X123950000Y-84250000D03*
D42*
X123050000Y-83350000D03*
X122550000Y-83350000D03*
X122050000Y-83350000D03*
X121550000Y-83350000D03*
X121050000Y-83350000D03*
D43*
X122050000Y-85250000D03*
%TD*%
D44*
%TO.C,D2*%
X130000000Y-95650000D03*
X130000000Y-92850000D03*
%TD*%
M02*
