%TF.GenerationSoftware,KiCad,Pcbnew,(6.0.2-0)*%
%TF.CreationDate,2022-03-20T16:29:31+00:00*%
%TF.ProjectId,EnvMon,456e764d-6f6e-42e6-9b69-6361645f7063,4*%
%TF.SameCoordinates,Original*%
%TF.FileFunction,Soldermask,Bot*%
%TF.FilePolarity,Negative*%
%FSLAX46Y46*%
G04 Gerber Fmt 4.6, Leading zero omitted, Abs format (unit mm)*
G04 Created by KiCad (PCBNEW (6.0.2-0)) date 2022-03-20 16:29:31*
%MOMM*%
%LPD*%
G01*
G04 APERTURE LIST*
G04 Aperture macros list*
%AMRoundRect*
0 Rectangle with rounded corners*
0 $1 Rounding radius*
0 $2 $3 $4 $5 $6 $7 $8 $9 X,Y pos of 4 corners*
0 Add a 4 corners polygon primitive as box body*
4,1,4,$2,$3,$4,$5,$6,$7,$8,$9,$2,$3,0*
0 Add four circle primitives for the rounded corners*
1,1,$1+$1,$2,$3*
1,1,$1+$1,$4,$5*
1,1,$1+$1,$6,$7*
1,1,$1+$1,$8,$9*
0 Add four rect primitives between the rounded corners*
20,1,$1+$1,$2,$3,$4,$5,0*
20,1,$1+$1,$4,$5,$6,$7,0*
20,1,$1+$1,$6,$7,$8,$9,0*
20,1,$1+$1,$8,$9,$2,$3,0*%
G04 Aperture macros list end*
%ADD10C,0.450000*%
%ADD11R,2.000000X2.000000*%
%ADD12C,2.000000*%
%ADD13C,0.870000*%
%ADD14C,1.250000*%
%ADD15C,1.500000*%
%ADD16RoundRect,0.250000X-0.600000X-0.675000X0.600000X-0.675000X0.600000X0.675000X-0.600000X0.675000X0*%
%ADD17O,1.700000X1.850000*%
%ADD18C,1.700000*%
%ADD19RoundRect,0.250000X-0.625000X0.400000X-0.625000X-0.400000X0.625000X-0.400000X0.625000X0.400000X0*%
%ADD20C,5.400000*%
G04 APERTURE END LIST*
D10*
%TO.C,Logo2*%
X127700000Y-72900000D02*
X131900000Y-69900000D01*
X127800000Y-74700000D02*
X129800000Y-72900000D01*
X129800000Y-72900000D02*
X129800000Y-71400000D01*
X127700000Y-72900000D02*
X131900000Y-72900000D01*
X129800000Y-72900000D02*
X131900000Y-74700000D01*
X131900000Y-72900000D02*
G75*
G03*
X131900000Y-71400000I0J750000D01*
G01*
%TD*%
D11*
%TO.C,J2*%
X106025000Y-98552000D03*
D12*
X106025000Y-96012000D03*
%TD*%
D13*
%TO.C,J1*%
X102640000Y-94205000D03*
D14*
X104070000Y-97885000D03*
D15*
X95430000Y-93715000D03*
X104070000Y-93715000D03*
D13*
X96860000Y-94205000D03*
D14*
X95430000Y-97885000D03*
%TD*%
D16*
%TO.C,J3*%
X109050000Y-93150000D03*
D17*
X111550000Y-93150000D03*
X114050000Y-93150000D03*
X116550000Y-93150000D03*
X119050000Y-93150000D03*
X121550000Y-93150000D03*
X124050000Y-93150000D03*
X126550000Y-93150000D03*
%TD*%
D12*
%TO.C,M2*%
X132000000Y-65500000D03*
X92500000Y-65500000D03*
X132000000Y-97500000D03*
X92500000Y-97500000D03*
D18*
X92500000Y-73880000D03*
X92500000Y-76420000D03*
X92500000Y-78960000D03*
X92500000Y-81500000D03*
X92500000Y-84040000D03*
X92500000Y-86580000D03*
X92500000Y-89120000D03*
%TD*%
D12*
%TO.C,M1*%
X129200000Y-88200000D03*
X129200000Y-79700000D03*
D18*
X96600000Y-70800000D03*
X99140000Y-70800000D03*
X101680000Y-70800000D03*
X104220000Y-70800000D03*
%TD*%
D19*
%TO.C,R8*%
X111550000Y-95400000D03*
X111550000Y-98500000D03*
%TD*%
%TO.C,R9*%
X114050000Y-95400000D03*
X114050000Y-98500000D03*
%TD*%
%TO.C,R10*%
X116550000Y-95400000D03*
X116550000Y-98500000D03*
%TD*%
%TO.C,R11*%
X119050000Y-95400000D03*
X119050000Y-98500000D03*
%TD*%
%TO.C,R12*%
X121550000Y-95400000D03*
X121550000Y-98500000D03*
%TD*%
%TO.C,R13*%
X124050000Y-95400000D03*
X124050000Y-98500000D03*
%TD*%
%TO.C,R14*%
X126550000Y-95400000D03*
X126550000Y-98500000D03*
%TD*%
D20*
%TO.C,Logo1*%
X128600000Y-83800000D03*
%TD*%
M02*
