%TF.GenerationSoftware,KiCad,Pcbnew,(5.1.9-0-10_14)*%
%TF.CreationDate,2021-08-04T18:12:55+01:00*%
%TF.ProjectId,EnvMon,456e764d-6f6e-42e6-9b69-6361645f7063,4*%
%TF.SameCoordinates,Original*%
%TF.FileFunction,Copper,L2,Bot*%
%TF.FilePolarity,Positive*%
%FSLAX46Y46*%
G04 Gerber Fmt 4.6, Leading zero omitted, Abs format (unit mm)*
G04 Created by KiCad (PCBNEW (5.1.9-0-10_14)) date 2021-08-04 18:12:55*
%MOMM*%
%LPD*%
G01*
G04 APERTURE LIST*
%TA.AperFunction,NonConductor*%
%ADD10C,0.080000*%
%TD*%
%TA.AperFunction,NonConductor*%
%ADD11C,0.300000*%
%TD*%
%TA.AperFunction,EtchedComponent*%
%ADD12C,0.250000*%
%TD*%
%TA.AperFunction,ComponentPad*%
%ADD13C,5.000000*%
%TD*%
%TA.AperFunction,ComponentPad*%
%ADD14C,1.700000*%
%TD*%
%TA.AperFunction,ComponentPad*%
%ADD15O,1.700000X1.850000*%
%TD*%
%TA.AperFunction,ComponentPad*%
%ADD16C,0.350000*%
%TD*%
%TA.AperFunction,SMDPad,CuDef*%
%ADD17C,0.100000*%
%TD*%
%TA.AperFunction,ComponentPad*%
%ADD18C,2.000000*%
%TD*%
%TA.AperFunction,ComponentPad*%
%ADD19R,2.000000X2.000000*%
%TD*%
%TA.AperFunction,SMDPad,CuDef*%
%ADD20C,2.000000*%
%TD*%
%TA.AperFunction,ComponentPad*%
%ADD21C,1.250000*%
%TD*%
%TA.AperFunction,ComponentPad*%
%ADD22C,1.500000*%
%TD*%
%TA.AperFunction,ComponentPad*%
%ADD23C,0.600000*%
%TD*%
%TA.AperFunction,ViaPad*%
%ADD24C,0.800000*%
%TD*%
%TA.AperFunction,Conductor*%
%ADD25C,0.250000*%
%TD*%
%TA.AperFunction,Conductor*%
%ADD26C,0.500000*%
%TD*%
%TA.AperFunction,Conductor*%
%ADD27C,0.254000*%
%TD*%
%TA.AperFunction,Conductor*%
%ADD28C,0.100000*%
%TD*%
G04 APERTURE END LIST*
D10*
X117428571Y-69773809D02*
X117404761Y-69750000D01*
X117357142Y-69726190D01*
X117238095Y-69726190D01*
X117190476Y-69750000D01*
X117166666Y-69773809D01*
X117142857Y-69821428D01*
X117142857Y-69869047D01*
X117166666Y-69940476D01*
X117452380Y-70226190D01*
X117142857Y-70226190D01*
X116833333Y-69726190D02*
X116785714Y-69726190D01*
X116738095Y-69750000D01*
X116714285Y-69773809D01*
X116690476Y-69821428D01*
X116666666Y-69916666D01*
X116666666Y-70035714D01*
X116690476Y-70130952D01*
X116714285Y-70178571D01*
X116738095Y-70202380D01*
X116785714Y-70226190D01*
X116833333Y-70226190D01*
X116880952Y-70202380D01*
X116904761Y-70178571D01*
X116928571Y-70130952D01*
X116952380Y-70035714D01*
X116952380Y-69916666D01*
X116928571Y-69821428D01*
X116904761Y-69773809D01*
X116880952Y-69750000D01*
X116833333Y-69726190D01*
X116476190Y-69773809D02*
X116452380Y-69750000D01*
X116404761Y-69726190D01*
X116285714Y-69726190D01*
X116238095Y-69750000D01*
X116214285Y-69773809D01*
X116190476Y-69821428D01*
X116190476Y-69869047D01*
X116214285Y-69940476D01*
X116500000Y-70226190D01*
X116190476Y-70226190D01*
X115714285Y-70226190D02*
X116000000Y-70226190D01*
X115857142Y-70226190D02*
X115857142Y-69726190D01*
X115904761Y-69797619D01*
X115952380Y-69845238D01*
X116000000Y-69869047D01*
X115500000Y-70035714D02*
X115119047Y-70035714D01*
X114785714Y-69726190D02*
X114738095Y-69726190D01*
X114690476Y-69750000D01*
X114666666Y-69773809D01*
X114642857Y-69821428D01*
X114619047Y-69916666D01*
X114619047Y-70035714D01*
X114642857Y-70130952D01*
X114666666Y-70178571D01*
X114690476Y-70202380D01*
X114738095Y-70226190D01*
X114785714Y-70226190D01*
X114833333Y-70202380D01*
X114857142Y-70178571D01*
X114880952Y-70130952D01*
X114904761Y-70035714D01*
X114904761Y-69916666D01*
X114880952Y-69821428D01*
X114857142Y-69773809D01*
X114833333Y-69750000D01*
X114785714Y-69726190D01*
X114452380Y-69726190D02*
X114119047Y-69726190D01*
X114333333Y-70226190D01*
X113928571Y-70035714D02*
X113547619Y-70035714D01*
X113333333Y-69773809D02*
X113309523Y-69750000D01*
X113261904Y-69726190D01*
X113142857Y-69726190D01*
X113095238Y-69750000D01*
X113071428Y-69773809D01*
X113047619Y-69821428D01*
X113047619Y-69869047D01*
X113071428Y-69940476D01*
X113357142Y-70226190D01*
X113047619Y-70226190D01*
X112738095Y-69726190D02*
X112690476Y-69726190D01*
X112642857Y-69750000D01*
X112619047Y-69773809D01*
X112595238Y-69821428D01*
X112571428Y-69916666D01*
X112571428Y-70035714D01*
X112595238Y-70130952D01*
X112619047Y-70178571D01*
X112642857Y-70202380D01*
X112690476Y-70226190D01*
X112738095Y-70226190D01*
X112785714Y-70202380D01*
X112809523Y-70178571D01*
X112833333Y-70130952D01*
X112857142Y-70035714D01*
X112857142Y-69916666D01*
X112833333Y-69821428D01*
X112809523Y-69773809D01*
X112785714Y-69750000D01*
X112738095Y-69726190D01*
D11*
X131878571Y-78014285D02*
X132878571Y-78300000D01*
X132164285Y-78585714D01*
X132878571Y-78871428D01*
X131878571Y-79157142D01*
X131878571Y-79585714D02*
X132878571Y-79871428D01*
X132164285Y-80157142D01*
X132878571Y-80442857D01*
X131878571Y-80728571D01*
X131878571Y-81157142D02*
X132878571Y-81442857D01*
X132164285Y-81728571D01*
X132878571Y-82014285D01*
X131878571Y-82300000D01*
X132735714Y-82871428D02*
X132807142Y-82942857D01*
X132878571Y-82871428D01*
X132807142Y-82800000D01*
X132735714Y-82871428D01*
X132878571Y-82871428D01*
X132878571Y-83585714D02*
X131878571Y-83585714D01*
X132021428Y-83585714D02*
X131950000Y-83657142D01*
X131878571Y-83800000D01*
X131878571Y-84014285D01*
X131950000Y-84157142D01*
X132092857Y-84228571D01*
X132878571Y-84228571D01*
X132092857Y-84228571D02*
X131950000Y-84300000D01*
X131878571Y-84442857D01*
X131878571Y-84657142D01*
X131950000Y-84800000D01*
X132092857Y-84871428D01*
X132878571Y-84871428D01*
X132807142Y-86157142D02*
X132878571Y-86014285D01*
X132878571Y-85728571D01*
X132807142Y-85585714D01*
X132664285Y-85514285D01*
X132092857Y-85514285D01*
X131950000Y-85585714D01*
X131878571Y-85728571D01*
X131878571Y-86014285D01*
X131950000Y-86157142D01*
X132092857Y-86228571D01*
X132235714Y-86228571D01*
X132378571Y-85514285D01*
X132735714Y-86871428D02*
X132807142Y-86942857D01*
X132878571Y-86871428D01*
X132807142Y-86800000D01*
X132735714Y-86871428D01*
X132878571Y-86871428D01*
X131878571Y-88228571D02*
X132878571Y-88228571D01*
X131878571Y-87585714D02*
X132664285Y-87585714D01*
X132807142Y-87657142D01*
X132878571Y-87800000D01*
X132878571Y-88014285D01*
X132807142Y-88157142D01*
X132735714Y-88228571D01*
X132878571Y-88942857D02*
X131378571Y-88942857D01*
X132307142Y-89085714D02*
X132878571Y-89514285D01*
X131878571Y-89514285D02*
X132450000Y-88942857D01*
D12*
%TO.C,Logo2*%
X129800000Y-72900000D02*
X131900000Y-74700000D01*
X127800000Y-74700000D02*
X129800000Y-72900000D01*
X127700000Y-72900000D02*
X131900000Y-69900000D01*
X127700000Y-72900000D02*
X131900000Y-72900000D01*
X129800000Y-72900000D02*
X129800000Y-71400000D01*
X131900000Y-72900000D02*
G75*
G03*
X131900000Y-71400000I0J750000D01*
G01*
%TD*%
D13*
%TO.P,M2,S*%
%TO.N,GND*%
X92500000Y-65500000D03*
X92500000Y-97500000D03*
X132000000Y-97500000D03*
X132000000Y-65500000D03*
D14*
%TO.P,M2,7*%
%TO.N,OLED-RST*%
X92500000Y-89120000D03*
%TO.P,M2,6*%
%TO.N,OLED-DC*%
X92500000Y-86580000D03*
%TO.P,M2,5*%
%TO.N,OLED-CS0*%
X92500000Y-84040000D03*
%TO.P,M2,4*%
%TO.N,OLED-SCLK*%
X92500000Y-81500000D03*
%TO.P,M2,3*%
%TO.N,OLED-MOSI*%
X92500000Y-78960000D03*
%TO.P,M2,2*%
%TO.N,GND*%
X92500000Y-76420000D03*
%TO.P,M2,1*%
%TO.N,+3V3*%
X92500000Y-73880000D03*
%TD*%
D15*
%TO.P,J3,8*%
%TO.N,IO7*%
X126550000Y-93150000D03*
%TO.P,J3,7*%
%TO.N,IO6*%
X124050000Y-93150000D03*
%TO.P,J3,6*%
%TO.N,IO5*%
X121550000Y-93150000D03*
%TO.P,J3,5*%
%TO.N,IO4*%
X119050000Y-93150000D03*
%TO.P,J3,4*%
%TO.N,IO3*%
X116550000Y-93150000D03*
%TO.P,J3,3*%
%TO.N,IO2*%
X114050000Y-93150000D03*
%TO.P,J3,2*%
%TO.N,IO1*%
X111550000Y-93150000D03*
%TO.P,J3,1*%
%TO.N,GND*%
%TA.AperFunction,ComponentPad*%
G36*
G01*
X108200000Y-93825000D02*
X108200000Y-92475000D01*
G75*
G02*
X108450000Y-92225000I250000J0D01*
G01*
X109650000Y-92225000D01*
G75*
G02*
X109900000Y-92475000I0J-250000D01*
G01*
X109900000Y-93825000D01*
G75*
G02*
X109650000Y-94075000I-250000J0D01*
G01*
X108450000Y-94075000D01*
G75*
G02*
X108200000Y-93825000I0J250000D01*
G01*
G37*
%TD.AperFunction*%
%TD*%
D16*
%TO.P,U1,21*%
%TO.N,GND*%
X99975000Y-88125000D03*
%TD*%
%TA.AperFunction,SMDPad,CuDef*%
D17*
%TO.P,Logo1,1*%
%TO.N,N/C*%
G36*
X128698918Y-83814673D02*
G01*
X128697003Y-83824298D01*
X128696989Y-83824344D01*
X128696989Y-83922669D01*
X128672941Y-84166826D01*
X128625078Y-84407450D01*
X128553860Y-84642225D01*
X128459973Y-84868888D01*
X128344322Y-85085257D01*
X128208019Y-85289248D01*
X128052378Y-85478897D01*
X127878897Y-85652378D01*
X127689248Y-85808019D01*
X127485257Y-85944322D01*
X127268888Y-86059973D01*
X127042225Y-86153860D01*
X126807450Y-86225078D01*
X126566826Y-86272941D01*
X126322669Y-86296989D01*
X126077331Y-86296989D01*
X125833174Y-86272941D01*
X125592550Y-86225078D01*
X125357775Y-86153860D01*
X125131112Y-86059973D01*
X124914743Y-85944322D01*
X124710752Y-85808019D01*
X124521103Y-85652378D01*
X124347622Y-85478897D01*
X124191981Y-85289248D01*
X124055678Y-85085257D01*
X123940027Y-84868888D01*
X123846140Y-84642225D01*
X123774922Y-84407450D01*
X123727059Y-84166826D01*
X123703011Y-83922669D01*
X123703011Y-83677331D01*
X123727059Y-83433174D01*
X123774922Y-83192550D01*
X123846140Y-82957775D01*
X123940027Y-82731112D01*
X124055678Y-82514743D01*
X124191981Y-82310752D01*
X124347622Y-82121103D01*
X124521103Y-81947622D01*
X124710752Y-81791981D01*
X124914743Y-81655678D01*
X125131112Y-81540027D01*
X125357775Y-81446140D01*
X125592550Y-81374922D01*
X125833174Y-81327059D01*
X126077331Y-81303011D01*
X126236801Y-81303011D01*
X126236801Y-81850903D01*
X126163199Y-81850903D01*
X126089952Y-81858118D01*
X126017765Y-81872477D01*
X125947333Y-81893842D01*
X125879334Y-81922008D01*
X125814423Y-81956704D01*
X125753226Y-81997594D01*
X125696331Y-82044287D01*
X125644287Y-82096331D01*
X125597594Y-82153226D01*
X125556704Y-82214423D01*
X125522008Y-82279334D01*
X125493842Y-82347333D01*
X125472477Y-82417765D01*
X125458118Y-82489952D01*
X125450903Y-82563199D01*
X125450903Y-82636801D01*
X125458118Y-82710048D01*
X125472477Y-82782235D01*
X125493842Y-82852667D01*
X125522008Y-82920666D01*
X125556704Y-82985577D01*
X125597594Y-83046774D01*
X125644287Y-83103669D01*
X125696331Y-83155713D01*
X125753226Y-83202406D01*
X125814423Y-83243296D01*
X125879334Y-83277992D01*
X125947333Y-83306158D01*
X126017765Y-83327523D01*
X126089952Y-83341882D01*
X126163199Y-83349097D01*
X126236801Y-83349097D01*
X126310048Y-83341882D01*
X126382235Y-83327523D01*
X126452667Y-83306158D01*
X126520666Y-83277992D01*
X126585577Y-83243296D01*
X126646774Y-83202406D01*
X126703669Y-83155713D01*
X126755713Y-83103669D01*
X126802406Y-83046774D01*
X126843296Y-82985577D01*
X126877992Y-82920666D01*
X126906158Y-82852667D01*
X126927523Y-82782235D01*
X126941882Y-82710048D01*
X126949097Y-82636801D01*
X126949097Y-82563199D01*
X126941882Y-82489952D01*
X126927523Y-82417765D01*
X126906158Y-82347333D01*
X126877992Y-82279334D01*
X126843296Y-82214423D01*
X126802406Y-82153226D01*
X126755713Y-82096331D01*
X126703669Y-82044287D01*
X126646774Y-81997594D01*
X126585577Y-81956704D01*
X126520666Y-81922008D01*
X126452667Y-81893842D01*
X126382235Y-81872477D01*
X126310048Y-81858118D01*
X126236801Y-81850903D01*
X126236801Y-81303011D01*
X126322669Y-81303011D01*
X126521499Y-81322594D01*
X126521499Y-81523320D01*
X126579001Y-81540763D01*
X126680999Y-81583012D01*
X126778366Y-81635055D01*
X126870162Y-81696392D01*
X126955504Y-81766430D01*
X127033570Y-81844496D01*
X127103608Y-81929838D01*
X127164945Y-82021634D01*
X127216988Y-82119001D01*
X127259237Y-82220999D01*
X127291285Y-82326647D01*
X127312824Y-82434928D01*
X127323645Y-82544799D01*
X127323645Y-82655201D01*
X127312824Y-82765072D01*
X127291285Y-82873353D01*
X127259237Y-82979001D01*
X127216988Y-83080999D01*
X127164945Y-83178366D01*
X127103608Y-83270162D01*
X127038087Y-83350000D01*
X127125000Y-83350000D01*
X127300000Y-83725000D01*
X125100000Y-83725000D01*
X125100000Y-83350000D01*
X125361913Y-83350000D01*
X125296392Y-83270162D01*
X125235055Y-83178366D01*
X125183012Y-83080999D01*
X125140763Y-82979001D01*
X125108715Y-82873353D01*
X125087176Y-82765072D01*
X125076355Y-82655201D01*
X125076355Y-82544799D01*
X125087176Y-82434928D01*
X125108715Y-82326647D01*
X125140763Y-82220999D01*
X125183012Y-82119001D01*
X125235055Y-82021634D01*
X125296392Y-81929838D01*
X125366430Y-81844496D01*
X125444496Y-81766430D01*
X125529838Y-81696392D01*
X125621634Y-81635055D01*
X125719001Y-81583012D01*
X125820999Y-81540763D01*
X125878501Y-81523320D01*
X125862520Y-81524894D01*
X125641146Y-81568928D01*
X125425153Y-81634449D01*
X125216623Y-81720825D01*
X125017564Y-81827224D01*
X124829892Y-81952623D01*
X124655414Y-82095812D01*
X124495812Y-82255414D01*
X124352623Y-82429892D01*
X124227224Y-82617564D01*
X124120825Y-82816623D01*
X124034449Y-83025153D01*
X123968928Y-83241146D01*
X123924894Y-83462520D01*
X123902770Y-83687144D01*
X123902770Y-83912856D01*
X123924894Y-84137480D01*
X123968928Y-84358854D01*
X124034449Y-84574847D01*
X124120825Y-84783377D01*
X124227224Y-84982436D01*
X124352623Y-85170108D01*
X124495812Y-85344586D01*
X124655414Y-85504188D01*
X124829892Y-85647377D01*
X125017564Y-85772776D01*
X125216623Y-85879175D01*
X125425153Y-85965551D01*
X125641146Y-86031072D01*
X125862520Y-86075106D01*
X125878501Y-86076680D01*
X125820999Y-86059237D01*
X125719001Y-86016988D01*
X125621634Y-85964945D01*
X125529838Y-85903608D01*
X125444496Y-85833570D01*
X125366430Y-85755504D01*
X125296392Y-85670162D01*
X125235055Y-85578366D01*
X125183012Y-85480999D01*
X125140763Y-85379001D01*
X125108715Y-85273353D01*
X125087176Y-85165072D01*
X125076355Y-85055201D01*
X125076355Y-84944799D01*
X125087176Y-84834928D01*
X125108715Y-84726647D01*
X125140763Y-84620999D01*
X125183012Y-84519001D01*
X125235055Y-84421634D01*
X125296392Y-84329838D01*
X125361913Y-84250000D01*
X125100000Y-84250000D01*
X125100000Y-83875000D01*
X126236801Y-83875000D01*
X126236801Y-84250903D01*
X126163199Y-84250903D01*
X126089952Y-84258118D01*
X126017765Y-84272477D01*
X125947333Y-84293842D01*
X125879334Y-84322008D01*
X125814423Y-84356704D01*
X125753226Y-84397594D01*
X125696331Y-84444287D01*
X125644287Y-84496331D01*
X125597594Y-84553226D01*
X125556704Y-84614423D01*
X125522008Y-84679334D01*
X125493842Y-84747333D01*
X125472477Y-84817765D01*
X125458118Y-84889952D01*
X125450903Y-84963199D01*
X125450903Y-85036801D01*
X125458118Y-85110048D01*
X125472477Y-85182235D01*
X125493842Y-85252667D01*
X125522008Y-85320666D01*
X125556704Y-85385577D01*
X125597594Y-85446774D01*
X125644287Y-85503669D01*
X125696331Y-85555713D01*
X125753226Y-85602406D01*
X125814423Y-85643296D01*
X125879334Y-85677992D01*
X125947333Y-85706158D01*
X126017765Y-85727523D01*
X126089952Y-85741882D01*
X126163199Y-85749097D01*
X126236801Y-85749097D01*
X126310048Y-85741882D01*
X126382235Y-85727523D01*
X126452667Y-85706158D01*
X126520666Y-85677992D01*
X126585577Y-85643296D01*
X126646774Y-85602406D01*
X126703669Y-85555713D01*
X126755713Y-85503669D01*
X126802406Y-85446774D01*
X126843296Y-85385577D01*
X126877992Y-85320666D01*
X126906158Y-85252667D01*
X126927523Y-85182235D01*
X126941882Y-85110048D01*
X126949097Y-85036801D01*
X126949097Y-84963199D01*
X126941882Y-84889952D01*
X126927523Y-84817765D01*
X126906158Y-84747333D01*
X126877992Y-84679334D01*
X126843296Y-84614423D01*
X126802406Y-84553226D01*
X126755713Y-84496331D01*
X126703669Y-84444287D01*
X126646774Y-84397594D01*
X126585577Y-84356704D01*
X126520666Y-84322008D01*
X126452667Y-84293842D01*
X126382235Y-84272477D01*
X126310048Y-84258118D01*
X126236801Y-84250903D01*
X126236801Y-83875000D01*
X127300000Y-83875000D01*
X127125000Y-84250000D01*
X127038087Y-84250000D01*
X127103608Y-84329838D01*
X127164945Y-84421634D01*
X127216988Y-84519001D01*
X127259237Y-84620999D01*
X127291285Y-84726647D01*
X127312824Y-84834928D01*
X127323645Y-84944799D01*
X127323645Y-85055201D01*
X127312824Y-85165072D01*
X127291285Y-85273353D01*
X127259237Y-85379001D01*
X127216988Y-85480999D01*
X127164945Y-85578366D01*
X127103608Y-85670162D01*
X127033570Y-85755504D01*
X126955504Y-85833570D01*
X126870162Y-85903608D01*
X126778366Y-85964945D01*
X126680999Y-86016988D01*
X126579001Y-86059237D01*
X126521499Y-86076680D01*
X126537480Y-86075106D01*
X126758854Y-86031072D01*
X126974847Y-85965551D01*
X127183377Y-85879175D01*
X127382436Y-85772776D01*
X127570108Y-85647377D01*
X127744586Y-85504188D01*
X127904188Y-85344586D01*
X128047377Y-85170108D01*
X128172776Y-84982436D01*
X128279175Y-84783377D01*
X128365551Y-84574847D01*
X128431072Y-84358854D01*
X128475106Y-84137480D01*
X128497230Y-83912856D01*
X128497230Y-83687144D01*
X128475106Y-83462520D01*
X128431072Y-83241146D01*
X128365551Y-83025153D01*
X128279175Y-82816623D01*
X128172776Y-82617564D01*
X128047377Y-82429892D01*
X127904188Y-82255414D01*
X127744586Y-82095812D01*
X127570108Y-81952623D01*
X127382436Y-81827224D01*
X127183377Y-81720825D01*
X126974847Y-81634449D01*
X126758854Y-81568928D01*
X126537480Y-81524894D01*
X126521499Y-81523320D01*
X126521499Y-81322594D01*
X126566826Y-81327059D01*
X126807450Y-81374922D01*
X127042225Y-81446140D01*
X127268888Y-81540027D01*
X127485257Y-81655678D01*
X127689248Y-81791981D01*
X127878897Y-81947622D01*
X128052378Y-82121103D01*
X128208019Y-82310752D01*
X128344322Y-82514743D01*
X128459973Y-82731112D01*
X128553860Y-82957775D01*
X128625078Y-83192550D01*
X128672941Y-83433174D01*
X128696989Y-83677331D01*
X128696989Y-83775656D01*
X128697003Y-83775702D01*
X128698918Y-83785327D01*
X128699880Y-83795093D01*
X128699880Y-83804907D01*
X128698918Y-83814673D01*
G37*
%TD.AperFunction*%
%TD*%
D18*
%TO.P,J2,2*%
%TO.N,Net-(J1-PadA4)*%
X108740000Y-96000000D03*
D19*
%TO.P,J2,1*%
%TO.N,GND*%
X106200000Y-96000000D03*
%TD*%
D20*
%TO.P,M1,~*%
%TO.N,N/C*%
X129200000Y-79700000D03*
X129200000Y-88200000D03*
D14*
%TO.P,M1,4*%
%TO.N,CO2-SDA*%
X104220000Y-70800000D03*
%TO.P,M1,3*%
%TO.N,CO2-SCL*%
X101680000Y-70800000D03*
%TO.P,M1,2*%
%TO.N,GND*%
X99140000Y-70800000D03*
%TO.P,M1,1*%
%TO.N,+3V3*%
X96600000Y-70800000D03*
%TD*%
%TO.P,R12,2*%
%TO.N,+3V3*%
%TA.AperFunction,SMDPad,CuDef*%
G36*
G01*
X125924999Y-97850000D02*
X127175001Y-97850000D01*
G75*
G02*
X127425000Y-98099999I0J-249999D01*
G01*
X127425000Y-98900001D01*
G75*
G02*
X127175001Y-99150000I-249999J0D01*
G01*
X125924999Y-99150000D01*
G75*
G02*
X125675000Y-98900001I0J249999D01*
G01*
X125675000Y-98099999D01*
G75*
G02*
X125924999Y-97850000I249999J0D01*
G01*
G37*
%TD.AperFunction*%
%TO.P,R12,1*%
%TO.N,IO7*%
%TA.AperFunction,SMDPad,CuDef*%
G36*
G01*
X125924999Y-94750000D02*
X127175001Y-94750000D01*
G75*
G02*
X127425000Y-94999999I0J-249999D01*
G01*
X127425000Y-95800001D01*
G75*
G02*
X127175001Y-96050000I-249999J0D01*
G01*
X125924999Y-96050000D01*
G75*
G02*
X125675000Y-95800001I0J249999D01*
G01*
X125675000Y-94999999D01*
G75*
G02*
X125924999Y-94750000I249999J0D01*
G01*
G37*
%TD.AperFunction*%
%TD*%
%TO.P,R11,2*%
%TO.N,+3V3*%
%TA.AperFunction,SMDPad,CuDef*%
G36*
G01*
X123424999Y-97850000D02*
X124675001Y-97850000D01*
G75*
G02*
X124925000Y-98099999I0J-249999D01*
G01*
X124925000Y-98900001D01*
G75*
G02*
X124675001Y-99150000I-249999J0D01*
G01*
X123424999Y-99150000D01*
G75*
G02*
X123175000Y-98900001I0J249999D01*
G01*
X123175000Y-98099999D01*
G75*
G02*
X123424999Y-97850000I249999J0D01*
G01*
G37*
%TD.AperFunction*%
%TO.P,R11,1*%
%TO.N,IO6*%
%TA.AperFunction,SMDPad,CuDef*%
G36*
G01*
X123424999Y-94750000D02*
X124675001Y-94750000D01*
G75*
G02*
X124925000Y-94999999I0J-249999D01*
G01*
X124925000Y-95800001D01*
G75*
G02*
X124675001Y-96050000I-249999J0D01*
G01*
X123424999Y-96050000D01*
G75*
G02*
X123175000Y-95800001I0J249999D01*
G01*
X123175000Y-94999999D01*
G75*
G02*
X123424999Y-94750000I249999J0D01*
G01*
G37*
%TD.AperFunction*%
%TD*%
%TO.P,R10,2*%
%TO.N,+3V3*%
%TA.AperFunction,SMDPad,CuDef*%
G36*
G01*
X120924999Y-97850000D02*
X122175001Y-97850000D01*
G75*
G02*
X122425000Y-98099999I0J-249999D01*
G01*
X122425000Y-98900001D01*
G75*
G02*
X122175001Y-99150000I-249999J0D01*
G01*
X120924999Y-99150000D01*
G75*
G02*
X120675000Y-98900001I0J249999D01*
G01*
X120675000Y-98099999D01*
G75*
G02*
X120924999Y-97850000I249999J0D01*
G01*
G37*
%TD.AperFunction*%
%TO.P,R10,1*%
%TO.N,IO5*%
%TA.AperFunction,SMDPad,CuDef*%
G36*
G01*
X120924999Y-94750000D02*
X122175001Y-94750000D01*
G75*
G02*
X122425000Y-94999999I0J-249999D01*
G01*
X122425000Y-95800001D01*
G75*
G02*
X122175001Y-96050000I-249999J0D01*
G01*
X120924999Y-96050000D01*
G75*
G02*
X120675000Y-95800001I0J249999D01*
G01*
X120675000Y-94999999D01*
G75*
G02*
X120924999Y-94750000I249999J0D01*
G01*
G37*
%TD.AperFunction*%
%TD*%
%TO.P,R9,2*%
%TO.N,+3V3*%
%TA.AperFunction,SMDPad,CuDef*%
G36*
G01*
X118424999Y-97850000D02*
X119675001Y-97850000D01*
G75*
G02*
X119925000Y-98099999I0J-249999D01*
G01*
X119925000Y-98900001D01*
G75*
G02*
X119675001Y-99150000I-249999J0D01*
G01*
X118424999Y-99150000D01*
G75*
G02*
X118175000Y-98900001I0J249999D01*
G01*
X118175000Y-98099999D01*
G75*
G02*
X118424999Y-97850000I249999J0D01*
G01*
G37*
%TD.AperFunction*%
%TO.P,R9,1*%
%TO.N,IO4*%
%TA.AperFunction,SMDPad,CuDef*%
G36*
G01*
X118424999Y-94750000D02*
X119675001Y-94750000D01*
G75*
G02*
X119925000Y-94999999I0J-249999D01*
G01*
X119925000Y-95800001D01*
G75*
G02*
X119675001Y-96050000I-249999J0D01*
G01*
X118424999Y-96050000D01*
G75*
G02*
X118175000Y-95800001I0J249999D01*
G01*
X118175000Y-94999999D01*
G75*
G02*
X118424999Y-94750000I249999J0D01*
G01*
G37*
%TD.AperFunction*%
%TD*%
%TO.P,R8,2*%
%TO.N,+3V3*%
%TA.AperFunction,SMDPad,CuDef*%
G36*
G01*
X115924999Y-97850000D02*
X117175001Y-97850000D01*
G75*
G02*
X117425000Y-98099999I0J-249999D01*
G01*
X117425000Y-98900001D01*
G75*
G02*
X117175001Y-99150000I-249999J0D01*
G01*
X115924999Y-99150000D01*
G75*
G02*
X115675000Y-98900001I0J249999D01*
G01*
X115675000Y-98099999D01*
G75*
G02*
X115924999Y-97850000I249999J0D01*
G01*
G37*
%TD.AperFunction*%
%TO.P,R8,1*%
%TO.N,IO3*%
%TA.AperFunction,SMDPad,CuDef*%
G36*
G01*
X115924999Y-94750000D02*
X117175001Y-94750000D01*
G75*
G02*
X117425000Y-94999999I0J-249999D01*
G01*
X117425000Y-95800001D01*
G75*
G02*
X117175001Y-96050000I-249999J0D01*
G01*
X115924999Y-96050000D01*
G75*
G02*
X115675000Y-95800001I0J249999D01*
G01*
X115675000Y-94999999D01*
G75*
G02*
X115924999Y-94750000I249999J0D01*
G01*
G37*
%TD.AperFunction*%
%TD*%
%TO.P,R7,2*%
%TO.N,+3V3*%
%TA.AperFunction,SMDPad,CuDef*%
G36*
G01*
X113424999Y-97850000D02*
X114675001Y-97850000D01*
G75*
G02*
X114925000Y-98099999I0J-249999D01*
G01*
X114925000Y-98900001D01*
G75*
G02*
X114675001Y-99150000I-249999J0D01*
G01*
X113424999Y-99150000D01*
G75*
G02*
X113175000Y-98900001I0J249999D01*
G01*
X113175000Y-98099999D01*
G75*
G02*
X113424999Y-97850000I249999J0D01*
G01*
G37*
%TD.AperFunction*%
%TO.P,R7,1*%
%TO.N,IO2*%
%TA.AperFunction,SMDPad,CuDef*%
G36*
G01*
X113424999Y-94750000D02*
X114675001Y-94750000D01*
G75*
G02*
X114925000Y-94999999I0J-249999D01*
G01*
X114925000Y-95800001D01*
G75*
G02*
X114675001Y-96050000I-249999J0D01*
G01*
X113424999Y-96050000D01*
G75*
G02*
X113175000Y-95800001I0J249999D01*
G01*
X113175000Y-94999999D01*
G75*
G02*
X113424999Y-94750000I249999J0D01*
G01*
G37*
%TD.AperFunction*%
%TD*%
%TO.P,R6,2*%
%TO.N,+3V3*%
%TA.AperFunction,SMDPad,CuDef*%
G36*
G01*
X110924999Y-97850000D02*
X112175001Y-97850000D01*
G75*
G02*
X112425000Y-98099999I0J-249999D01*
G01*
X112425000Y-98900001D01*
G75*
G02*
X112175001Y-99150000I-249999J0D01*
G01*
X110924999Y-99150000D01*
G75*
G02*
X110675000Y-98900001I0J249999D01*
G01*
X110675000Y-98099999D01*
G75*
G02*
X110924999Y-97850000I249999J0D01*
G01*
G37*
%TD.AperFunction*%
%TO.P,R6,1*%
%TO.N,IO1*%
%TA.AperFunction,SMDPad,CuDef*%
G36*
G01*
X110924999Y-94750000D02*
X112175001Y-94750000D01*
G75*
G02*
X112425000Y-94999999I0J-249999D01*
G01*
X112425000Y-95800001D01*
G75*
G02*
X112175001Y-96050000I-249999J0D01*
G01*
X110924999Y-96050000D01*
G75*
G02*
X110675000Y-95800001I0J249999D01*
G01*
X110675000Y-94999999D01*
G75*
G02*
X110924999Y-94750000I249999J0D01*
G01*
G37*
%TD.AperFunction*%
%TD*%
D21*
%TO.P,J1,S1*%
%TO.N,GND*%
X104070000Y-97885000D03*
X95430000Y-97885000D03*
D22*
X104070000Y-93715000D03*
X95430000Y-93715000D03*
D23*
X102640000Y-94205000D03*
X96860000Y-94205000D03*
%TD*%
D24*
%TO.N,Net-(J1-PadA7)*%
X100243639Y-91243639D03*
X98243721Y-91250081D03*
%TO.N,Net-(J1-PadA6)*%
X101249945Y-91262653D03*
X99243649Y-91237138D03*
%TO.N,Net-(J1-PadA5)*%
X91800000Y-90500000D03*
X97243710Y-91250000D03*
%TO.N,Net-(J1-PadB5)*%
X102262611Y-91250000D03*
X93300000Y-90500000D03*
%TO.N,GND*%
X99575000Y-81700000D03*
X96000000Y-73600000D03*
X104249974Y-81723400D03*
%TO.N,+3V3*%
X96450010Y-86665976D03*
X105153408Y-73817094D03*
X103821105Y-88455704D03*
X104250000Y-91000000D03*
%TO.N,OLED-RST*%
X119003892Y-81521428D03*
%TO.N,OLED-DC*%
X120300000Y-77500000D03*
%TO.N,OLED-CS0*%
X120461390Y-81053482D03*
%TO.N,OLED-SCLK*%
X120011379Y-79673314D03*
%TO.N,OLED-MOSI*%
X118250022Y-79018618D03*
%TO.N,IO6*%
X107800000Y-91200000D03*
%TO.N,IO5*%
X110384222Y-91371245D03*
%TO.N,IO4*%
X106645627Y-91463228D03*
%TO.N,Net-(U1-Pad19)*%
X98757497Y-84825027D03*
X109001768Y-73300092D03*
%TO.N,Net-(U1-Pad18)*%
X103676016Y-86981767D03*
X124349991Y-88845089D03*
%TO.N,Net-(U1-Pad17)*%
X120650155Y-75574979D03*
X103674990Y-85861051D03*
%TO.N,Net-(U1-Pad1)*%
X121339855Y-74475010D03*
X96530839Y-87772125D03*
%TO.N,R*%
X97400000Y-68900000D03*
X110443109Y-71617790D03*
X108367377Y-84529106D03*
X108800485Y-85974106D03*
%TO.N,G*%
X97400000Y-66500000D03*
X111227906Y-70998018D03*
%TO.N,B*%
X97400000Y-67700000D03*
X108900000Y-71100000D03*
%TD*%
D25*
%TO.N,Net-(J1-PadA7)*%
X100243639Y-91243639D02*
X100243639Y-91856361D01*
X98527955Y-92100000D02*
X98243721Y-91815766D01*
X100000000Y-92100000D02*
X98527955Y-92100000D01*
X98243721Y-91815766D02*
X98243721Y-91250081D01*
X100243639Y-91856361D02*
X100000000Y-92100000D01*
%TO.N,Net-(J1-PadA6)*%
X101249945Y-91262653D02*
X101249945Y-90696968D01*
X101071615Y-90518638D02*
X99396464Y-90518638D01*
X101249945Y-90696968D02*
X101071615Y-90518638D01*
X99243649Y-90671453D02*
X99243649Y-91237138D01*
X99396464Y-90518638D02*
X99243649Y-90671453D01*
%TO.N,Net-(J1-PadA5)*%
X91800000Y-90500000D02*
X92550000Y-91250000D01*
X92550000Y-91250000D02*
X97243710Y-91250000D01*
%TO.N,Net-(J1-PadB5)*%
X94500000Y-90000000D02*
X101578296Y-90000000D01*
X102262611Y-90684315D02*
X102262611Y-91250000D01*
X101578296Y-90000000D02*
X102262611Y-90684315D01*
X93800000Y-90000000D02*
X93300000Y-90500000D01*
X94500000Y-90000000D02*
X93800000Y-90000000D01*
%TO.N,GND*%
X103595000Y-94205000D02*
X104075000Y-93725000D01*
X102640000Y-94205000D02*
X103595000Y-94205000D01*
X95905000Y-94205000D02*
X95425000Y-93725000D01*
X96860000Y-94205000D02*
X95905000Y-94205000D01*
D26*
X99975000Y-88125000D02*
X99975000Y-87375000D01*
X99975000Y-87375000D02*
X99400000Y-86800000D01*
X99400000Y-86800000D02*
X98800000Y-86800000D01*
X98800000Y-86800000D02*
X96900000Y-84900000D01*
X96900000Y-84375000D02*
X99575000Y-81700000D01*
X96900000Y-84900000D02*
X96900000Y-84375000D01*
D25*
%TO.N,+3V3*%
X111550000Y-98500000D02*
X114050000Y-98500000D01*
X114050000Y-98500000D02*
X116550000Y-98500000D01*
X116550000Y-98500000D02*
X119050000Y-98500000D01*
X119050000Y-98500000D02*
X121550000Y-98500000D01*
X121550000Y-98500000D02*
X124050000Y-98500000D01*
X124050000Y-98500000D02*
X126550000Y-98500000D01*
X96600000Y-70800000D02*
X99617094Y-73817094D01*
X99617094Y-73817094D02*
X105153408Y-73817094D01*
X98584034Y-88800000D02*
X103476809Y-88800000D01*
X103476809Y-88800000D02*
X103821105Y-88455704D01*
X96450010Y-86665976D02*
X98584034Y-88800000D01*
X109376001Y-94674999D02*
X108388872Y-94674999D01*
X110065001Y-97015001D02*
X110065001Y-95363999D01*
X111550000Y-98500000D02*
X110065001Y-97015001D01*
X108388872Y-94674999D02*
X105306583Y-91592710D01*
X110065001Y-95363999D02*
X109376001Y-94674999D01*
X104713873Y-91000000D02*
X105306583Y-91592710D01*
X104250000Y-91000000D02*
X104713873Y-91000000D01*
%TO.N,OLED-RST*%
X93935000Y-87685000D02*
X92500000Y-89120000D01*
X93935000Y-81315000D02*
X93935000Y-87685000D01*
X94850000Y-80400000D02*
X93935000Y-81315000D01*
X117882464Y-80400000D02*
X94850000Y-80400000D01*
X119003892Y-81521428D02*
X117882464Y-80400000D01*
%TO.N,OLED-DC*%
X116000000Y-77500000D02*
X114900044Y-78599956D01*
X93399999Y-75149999D02*
X91360003Y-75149999D01*
X114900044Y-78599956D02*
X96849956Y-78599956D01*
X90755001Y-75755001D02*
X90755001Y-84835001D01*
X90755001Y-84835001D02*
X92500000Y-86580000D01*
X96849956Y-78599956D02*
X93399999Y-75149999D01*
X120300000Y-77500000D02*
X116000000Y-77500000D01*
X91360003Y-75149999D02*
X90755001Y-75755001D01*
%TO.N,OLED-CS0*%
X92500000Y-84040000D02*
X91324999Y-82864999D01*
X91324999Y-78395999D02*
X92125997Y-77595001D01*
X92125997Y-77595001D02*
X93345001Y-77595001D01*
X115950033Y-79049967D02*
X116786501Y-78213499D01*
X116786501Y-78213499D02*
X119977089Y-78213499D01*
X119977089Y-78213499D02*
X120736389Y-78972799D01*
X120736389Y-78972799D02*
X120736389Y-80778483D01*
X120736389Y-80778483D02*
X120461390Y-81053482D01*
X91324999Y-82864999D02*
X91324999Y-78395999D01*
X93345001Y-77595001D02*
X94799967Y-79049967D01*
X94799967Y-79049967D02*
X115950033Y-79049967D01*
%TO.N,OLED-SCLK*%
X92500000Y-81500000D02*
X94050011Y-79949989D01*
X94050011Y-79949989D02*
X119734704Y-79949989D01*
X119734704Y-79949989D02*
X120011379Y-79673314D01*
%TO.N,OLED-MOSI*%
X92500000Y-78960000D02*
X92510044Y-78949956D01*
X93039978Y-79499978D02*
X117768662Y-79499978D01*
X92500000Y-78960000D02*
X93039978Y-79499978D01*
X117768662Y-79499978D02*
X118250022Y-79018618D01*
%TO.N,IO7*%
X126550000Y-95400000D02*
X126550000Y-93150000D01*
%TO.N,IO6*%
X124050000Y-95400000D02*
X124050000Y-93150000D01*
X123875000Y-91800000D02*
X124050000Y-91975000D01*
X120749979Y-91449979D02*
X121100000Y-91800000D01*
X117949979Y-91449979D02*
X120749979Y-91449979D01*
X124050000Y-91975000D02*
X124050000Y-93150000D01*
X117421235Y-90921235D02*
X117949979Y-91449979D01*
X121100000Y-91800000D02*
X123875000Y-91800000D01*
X111007749Y-90921235D02*
X117421235Y-90921235D01*
X110732757Y-90646243D02*
X111007749Y-90921235D01*
X109400000Y-91200000D02*
X109953757Y-90646243D01*
X107800000Y-91200000D02*
X109400000Y-91200000D01*
X109953757Y-90646243D02*
X110732757Y-90646243D01*
%TO.N,IO5*%
X121550000Y-95400000D02*
X121550000Y-93150000D01*
X120299990Y-91899990D02*
X121550000Y-93150000D01*
X117673116Y-91899990D02*
X120299990Y-91899990D01*
X117144371Y-91371245D02*
X117673116Y-91899990D01*
X110384222Y-91371245D02*
X117144371Y-91371245D01*
%TO.N,IO4*%
X119050000Y-95400000D02*
X119050000Y-93150000D01*
X108148001Y-91925001D02*
X107107400Y-91925001D01*
X110738284Y-92225001D02*
X110213191Y-92225001D01*
X118286715Y-93150000D02*
X117036705Y-91899990D01*
X119050000Y-93150000D02*
X118286715Y-93150000D01*
X117036705Y-91899990D02*
X111063295Y-91899990D01*
X111063295Y-91899990D02*
X110738284Y-92225001D01*
X110213191Y-92225001D02*
X109888180Y-91899990D01*
X109888180Y-91899990D02*
X108173012Y-91899990D01*
X108173012Y-91899990D02*
X108148001Y-91925001D01*
X107107400Y-91925001D02*
X106645627Y-91463228D01*
%TO.N,IO3*%
X116550000Y-95400000D02*
X116550000Y-93150000D01*
%TO.N,IO2*%
X114050000Y-95400000D02*
X114050000Y-93150000D01*
%TO.N,IO1*%
X111550000Y-95400000D02*
X111550000Y-93150000D01*
%TO.N,Net-(U1-Pad19)*%
X109001768Y-73492695D02*
X113659018Y-78149945D01*
X109001768Y-73300092D02*
X109001768Y-73492695D01*
X113659018Y-78149945D02*
X114250055Y-78149945D01*
X98932922Y-85000452D02*
X98757497Y-84825027D01*
X114250055Y-78149945D02*
X116100011Y-76299989D01*
X121186400Y-76299989D02*
X121186400Y-87513600D01*
X121050033Y-87649967D02*
X106549967Y-87649967D01*
X121186400Y-87513600D02*
X121050033Y-87649967D01*
X116100011Y-76299989D02*
X121186400Y-76299989D01*
X106549967Y-87649967D02*
X103900452Y-85000452D01*
X103900452Y-85000452D02*
X98932922Y-85000452D01*
%TO.N,Net-(U1-Pad18)*%
X103676016Y-86981767D02*
X105244238Y-88549989D01*
X105244238Y-88549989D02*
X124054891Y-88549989D01*
X124054891Y-88549989D02*
X124349991Y-88845089D01*
%TO.N,Net-(U1-Pad17)*%
X121215840Y-75574979D02*
X121720430Y-76079569D01*
X121400022Y-88099978D02*
X105913917Y-88099978D01*
X120650155Y-75574979D02*
X121215840Y-75574979D01*
X105913917Y-88099978D02*
X103674990Y-85861051D01*
X121720430Y-76079569D02*
X121720430Y-87779570D01*
X121720430Y-87779570D02*
X121400022Y-88099978D01*
%TO.N,Net-(U1-Pad1)*%
X103599978Y-89300022D02*
X103599978Y-89299978D01*
X103599978Y-89300022D02*
X103799978Y-89300022D01*
X103799978Y-89300022D02*
X104000022Y-89300022D01*
X98058736Y-89300022D02*
X96930838Y-88172124D01*
X96930838Y-88172124D02*
X96530839Y-87772125D01*
X104000022Y-89300022D02*
X98058736Y-89300022D01*
X122232422Y-87532422D02*
X122232422Y-75367578D01*
X122663498Y-87963498D02*
X122232422Y-87532422D01*
X124002772Y-89570090D02*
X124802914Y-89570090D01*
X123432682Y-89000000D02*
X124002772Y-89570090D01*
X124802914Y-89570090D02*
X125325002Y-89048002D01*
X124936502Y-87963498D02*
X122663498Y-87963498D01*
X125325002Y-89048002D02*
X125325002Y-88351998D01*
X104300044Y-89000000D02*
X123432682Y-89000000D01*
X122232422Y-75367578D02*
X121339855Y-74475010D01*
X125325002Y-88351998D02*
X124936502Y-87963498D01*
X104000022Y-89300022D02*
X104300044Y-89000000D01*
%TO.N,R*%
X108800485Y-84962214D02*
X108800485Y-85974106D01*
X108367377Y-84529106D02*
X108800485Y-84962214D01*
X99651009Y-73050011D02*
X108178847Y-73050011D01*
X97400000Y-68900000D02*
X97964999Y-69464999D01*
X97964999Y-69464999D02*
X97964999Y-71364001D01*
X108178847Y-73050011D02*
X109611068Y-71617790D01*
X97964999Y-71364001D02*
X99651009Y-73050011D01*
X109611068Y-71617790D02*
X110443109Y-71617790D01*
%TO.N,G*%
X109854887Y-69624999D02*
X110827907Y-70598019D01*
X97400000Y-66500000D02*
X100524999Y-69624999D01*
X100524999Y-69624999D02*
X109854887Y-69624999D01*
X110827907Y-70598019D02*
X111227906Y-70998018D01*
%TO.N,B*%
X108900000Y-71100000D02*
X107574988Y-72425012D01*
X107574988Y-72425012D02*
X101225012Y-72425012D01*
X97779002Y-67700000D02*
X97400000Y-67700000D01*
X100315001Y-70235999D02*
X97779002Y-67700000D01*
X100315001Y-71515001D02*
X100315001Y-70235999D01*
X101225012Y-72425012D02*
X100315001Y-71515001D01*
%TD*%
D27*
%TO.N,GND*%
X91058791Y-86213592D02*
X91015000Y-86433740D01*
X91015000Y-86726260D01*
X91072068Y-87013158D01*
X91184010Y-87283411D01*
X91346525Y-87526632D01*
X91553368Y-87733475D01*
X91727760Y-87850000D01*
X91553368Y-87966525D01*
X91346525Y-88173368D01*
X91184010Y-88416589D01*
X91072068Y-88686842D01*
X91015000Y-88973740D01*
X91015000Y-89266260D01*
X91072068Y-89553158D01*
X91133887Y-89702402D01*
X90996063Y-89840226D01*
X90882795Y-90009744D01*
X90804774Y-90198102D01*
X90765000Y-90398061D01*
X90765000Y-90601939D01*
X90804774Y-90801898D01*
X90882795Y-90990256D01*
X90996063Y-91159774D01*
X91140226Y-91303937D01*
X91309744Y-91417205D01*
X91498102Y-91495226D01*
X91698061Y-91535000D01*
X91760198Y-91535000D01*
X91986201Y-91761002D01*
X92009999Y-91790001D01*
X92125724Y-91884974D01*
X92257753Y-91955546D01*
X92401014Y-91999003D01*
X92512667Y-92010000D01*
X92512676Y-92010000D01*
X92549999Y-92013676D01*
X92587322Y-92010000D01*
X96539999Y-92010000D01*
X96583936Y-92053937D01*
X96753454Y-92167205D01*
X96941812Y-92245226D01*
X97141771Y-92285000D01*
X97345649Y-92285000D01*
X97545608Y-92245226D01*
X97599570Y-92222874D01*
X97608747Y-92240042D01*
X97645710Y-92285081D01*
X97703720Y-92355767D01*
X97732724Y-92379570D01*
X97964151Y-92610997D01*
X97987954Y-92640001D01*
X98103679Y-92734974D01*
X98235708Y-92805546D01*
X98378966Y-92849002D01*
X98378969Y-92849003D01*
X98527955Y-92863677D01*
X98565288Y-92860000D01*
X99962678Y-92860000D01*
X100000000Y-92863676D01*
X100037322Y-92860000D01*
X100037333Y-92860000D01*
X100148986Y-92849003D01*
X100292247Y-92805546D01*
X100381184Y-92758007D01*
X103292612Y-92758007D01*
X104070000Y-93535395D01*
X104847388Y-92758007D01*
X104781863Y-92519140D01*
X104534884Y-92403240D01*
X104270040Y-92337750D01*
X103997508Y-92325188D01*
X103727762Y-92366035D01*
X103471168Y-92458723D01*
X103358137Y-92519140D01*
X103292612Y-92758007D01*
X100381184Y-92758007D01*
X100424276Y-92734974D01*
X100540001Y-92640001D01*
X100563804Y-92610997D01*
X100754636Y-92420165D01*
X100783640Y-92396362D01*
X100878613Y-92280637D01*
X100901159Y-92238457D01*
X100948047Y-92257879D01*
X101148006Y-92297653D01*
X101351884Y-92297653D01*
X101551843Y-92257879D01*
X101740201Y-92179858D01*
X101765746Y-92162789D01*
X101772355Y-92167205D01*
X101960713Y-92245226D01*
X102160672Y-92285000D01*
X102364550Y-92285000D01*
X102564509Y-92245226D01*
X102752867Y-92167205D01*
X102922385Y-92053937D01*
X103066548Y-91909774D01*
X103179816Y-91740256D01*
X103257837Y-91551898D01*
X103290438Y-91387999D01*
X103332795Y-91490256D01*
X103446063Y-91659774D01*
X103590226Y-91803937D01*
X103759744Y-91917205D01*
X103948102Y-91995226D01*
X104148061Y-92035000D01*
X104351939Y-92035000D01*
X104551898Y-91995226D01*
X104610163Y-91971092D01*
X104795580Y-92156509D01*
X104795585Y-92156513D01*
X107001852Y-94362780D01*
X106485750Y-94365000D01*
X106327000Y-94523750D01*
X106327000Y-95873000D01*
X106347000Y-95873000D01*
X106347000Y-96127000D01*
X106327000Y-96127000D01*
X106327000Y-97476250D01*
X106485750Y-97635000D01*
X107200000Y-97638072D01*
X107324482Y-97625812D01*
X107444180Y-97589502D01*
X107554494Y-97530537D01*
X107651185Y-97451185D01*
X107730537Y-97354494D01*
X107755191Y-97308370D01*
X107965537Y-97448918D01*
X108263088Y-97572168D01*
X108578967Y-97635000D01*
X108901033Y-97635000D01*
X109216912Y-97572168D01*
X109457353Y-97472574D01*
X109525000Y-97555002D01*
X109554004Y-97578805D01*
X110040359Y-98065161D01*
X110036928Y-98099999D01*
X110036928Y-98900001D01*
X110053992Y-99073255D01*
X110104528Y-99239851D01*
X110158059Y-99340000D01*
X94980931Y-99340000D01*
X95121118Y-99247373D01*
X95187690Y-99122507D01*
X95259418Y-99139553D01*
X95507447Y-99148726D01*
X95752499Y-99109335D01*
X95985158Y-99022893D01*
X96067694Y-98978777D01*
X96118043Y-98752648D01*
X103381957Y-98752648D01*
X103432306Y-98978777D01*
X103657944Y-99082168D01*
X103899418Y-99139553D01*
X104147447Y-99148726D01*
X104392499Y-99109335D01*
X104625158Y-99022893D01*
X104707694Y-98978777D01*
X104758043Y-98752648D01*
X104070000Y-98064605D01*
X103381957Y-98752648D01*
X96118043Y-98752648D01*
X95563927Y-98198532D01*
X95590287Y-98111304D01*
X95612092Y-97887487D01*
X96297648Y-98573043D01*
X96523777Y-98522694D01*
X96627168Y-98297056D01*
X96684553Y-98055582D01*
X96687997Y-97962447D01*
X102806274Y-97962447D01*
X102845665Y-98207499D01*
X102932107Y-98440158D01*
X102976223Y-98522694D01*
X103202352Y-98573043D01*
X103890395Y-97885000D01*
X103202352Y-97196957D01*
X102976223Y-97247306D01*
X102872832Y-97472944D01*
X102815447Y-97714418D01*
X102806274Y-97962447D01*
X96687997Y-97962447D01*
X96693726Y-97807553D01*
X96654335Y-97562501D01*
X96567893Y-97329842D01*
X96523777Y-97247306D01*
X96297648Y-97196957D01*
X95612630Y-97881975D01*
X95650168Y-97496672D01*
X95649132Y-97486263D01*
X96118043Y-97017352D01*
X103381957Y-97017352D01*
X104070000Y-97705395D01*
X104084143Y-97691253D01*
X104263748Y-97870858D01*
X104249605Y-97885000D01*
X104937648Y-98573043D01*
X105163777Y-98522694D01*
X105267168Y-98297056D01*
X105324553Y-98055582D01*
X105333726Y-97807553D01*
X105306409Y-97637614D01*
X105914250Y-97635000D01*
X106073000Y-97476250D01*
X106073000Y-96127000D01*
X104723750Y-96127000D01*
X104565000Y-96285750D01*
X104563111Y-96724973D01*
X104482056Y-96687832D01*
X104240582Y-96630447D01*
X103992553Y-96621274D01*
X103747501Y-96660665D01*
X103514842Y-96747107D01*
X103432306Y-96791223D01*
X103381957Y-97017352D01*
X96118043Y-97017352D01*
X96067694Y-96791223D01*
X95842056Y-96687832D01*
X95600582Y-96630447D01*
X95511335Y-96627146D01*
X95409103Y-96291408D01*
X95121118Y-95752627D01*
X94703148Y-95476457D01*
X92679605Y-97500000D01*
X92693748Y-97514143D01*
X92514143Y-97693748D01*
X92500000Y-97679605D01*
X92485858Y-97693748D01*
X92306253Y-97514143D01*
X92320395Y-97500000D01*
X92306253Y-97485858D01*
X92485858Y-97306253D01*
X92500000Y-97320395D01*
X94523543Y-95296852D01*
X94247373Y-94878882D01*
X93859325Y-94671993D01*
X94652612Y-94671993D01*
X94718137Y-94910860D01*
X94965116Y-95026760D01*
X95229960Y-95092250D01*
X95502492Y-95104812D01*
X95772238Y-95063965D01*
X96028832Y-94971277D01*
X96141863Y-94910860D01*
X96207388Y-94671993D01*
X103292612Y-94671993D01*
X103358137Y-94910860D01*
X103605116Y-95026760D01*
X103869960Y-95092250D01*
X104142492Y-95104812D01*
X104412238Y-95063965D01*
X104561970Y-95009878D01*
X104565000Y-95714250D01*
X104723750Y-95873000D01*
X106073000Y-95873000D01*
X106073000Y-94523750D01*
X105914250Y-94365000D01*
X105296138Y-94362341D01*
X105381760Y-94179884D01*
X105447250Y-93915040D01*
X105459812Y-93642508D01*
X105418965Y-93372762D01*
X105326277Y-93116168D01*
X105265860Y-93003137D01*
X105026993Y-92937612D01*
X104249605Y-93715000D01*
X104263748Y-93729143D01*
X104084143Y-93908748D01*
X104070000Y-93894605D01*
X103292612Y-94671993D01*
X96207388Y-94671993D01*
X95430000Y-93894605D01*
X94652612Y-94671993D01*
X93859325Y-94671993D01*
X93702443Y-94588351D01*
X93111304Y-94409713D01*
X92496672Y-94349832D01*
X91882169Y-94411010D01*
X91291408Y-94590897D01*
X90752627Y-94878882D01*
X90660000Y-95019069D01*
X90660000Y-93787492D01*
X94040188Y-93787492D01*
X94081035Y-94057238D01*
X94173723Y-94313832D01*
X94234140Y-94426863D01*
X94473007Y-94492388D01*
X95250395Y-93715000D01*
X95609605Y-93715000D01*
X96386993Y-94492388D01*
X96625860Y-94426863D01*
X96741760Y-94179884D01*
X96807250Y-93915040D01*
X96813129Y-93787492D01*
X102680188Y-93787492D01*
X102721035Y-94057238D01*
X102813723Y-94313832D01*
X102874140Y-94426863D01*
X103113007Y-94492388D01*
X103890395Y-93715000D01*
X103113007Y-92937612D01*
X102874140Y-93003137D01*
X102758240Y-93250116D01*
X102692750Y-93514960D01*
X102680188Y-93787492D01*
X96813129Y-93787492D01*
X96819812Y-93642508D01*
X96778965Y-93372762D01*
X96686277Y-93116168D01*
X96625860Y-93003137D01*
X96386993Y-92937612D01*
X95609605Y-93715000D01*
X95250395Y-93715000D01*
X94473007Y-92937612D01*
X94234140Y-93003137D01*
X94118240Y-93250116D01*
X94052750Y-93514960D01*
X94040188Y-93787492D01*
X90660000Y-93787492D01*
X90660000Y-92758007D01*
X94652612Y-92758007D01*
X95430000Y-93535395D01*
X96207388Y-92758007D01*
X96141863Y-92519140D01*
X95894884Y-92403240D01*
X95630040Y-92337750D01*
X95357508Y-92325188D01*
X95087762Y-92366035D01*
X94831168Y-92458723D01*
X94718137Y-92519140D01*
X94652612Y-92758007D01*
X90660000Y-92758007D01*
X90660000Y-85814801D01*
X91058791Y-86213592D01*
%TA.AperFunction,Conductor*%
D28*
G36*
X91058791Y-86213592D02*
G01*
X91015000Y-86433740D01*
X91015000Y-86726260D01*
X91072068Y-87013158D01*
X91184010Y-87283411D01*
X91346525Y-87526632D01*
X91553368Y-87733475D01*
X91727760Y-87850000D01*
X91553368Y-87966525D01*
X91346525Y-88173368D01*
X91184010Y-88416589D01*
X91072068Y-88686842D01*
X91015000Y-88973740D01*
X91015000Y-89266260D01*
X91072068Y-89553158D01*
X91133887Y-89702402D01*
X90996063Y-89840226D01*
X90882795Y-90009744D01*
X90804774Y-90198102D01*
X90765000Y-90398061D01*
X90765000Y-90601939D01*
X90804774Y-90801898D01*
X90882795Y-90990256D01*
X90996063Y-91159774D01*
X91140226Y-91303937D01*
X91309744Y-91417205D01*
X91498102Y-91495226D01*
X91698061Y-91535000D01*
X91760198Y-91535000D01*
X91986201Y-91761002D01*
X92009999Y-91790001D01*
X92125724Y-91884974D01*
X92257753Y-91955546D01*
X92401014Y-91999003D01*
X92512667Y-92010000D01*
X92512676Y-92010000D01*
X92549999Y-92013676D01*
X92587322Y-92010000D01*
X96539999Y-92010000D01*
X96583936Y-92053937D01*
X96753454Y-92167205D01*
X96941812Y-92245226D01*
X97141771Y-92285000D01*
X97345649Y-92285000D01*
X97545608Y-92245226D01*
X97599570Y-92222874D01*
X97608747Y-92240042D01*
X97645710Y-92285081D01*
X97703720Y-92355767D01*
X97732724Y-92379570D01*
X97964151Y-92610997D01*
X97987954Y-92640001D01*
X98103679Y-92734974D01*
X98235708Y-92805546D01*
X98378966Y-92849002D01*
X98378969Y-92849003D01*
X98527955Y-92863677D01*
X98565288Y-92860000D01*
X99962678Y-92860000D01*
X100000000Y-92863676D01*
X100037322Y-92860000D01*
X100037333Y-92860000D01*
X100148986Y-92849003D01*
X100292247Y-92805546D01*
X100381184Y-92758007D01*
X103292612Y-92758007D01*
X104070000Y-93535395D01*
X104847388Y-92758007D01*
X104781863Y-92519140D01*
X104534884Y-92403240D01*
X104270040Y-92337750D01*
X103997508Y-92325188D01*
X103727762Y-92366035D01*
X103471168Y-92458723D01*
X103358137Y-92519140D01*
X103292612Y-92758007D01*
X100381184Y-92758007D01*
X100424276Y-92734974D01*
X100540001Y-92640001D01*
X100563804Y-92610997D01*
X100754636Y-92420165D01*
X100783640Y-92396362D01*
X100878613Y-92280637D01*
X100901159Y-92238457D01*
X100948047Y-92257879D01*
X101148006Y-92297653D01*
X101351884Y-92297653D01*
X101551843Y-92257879D01*
X101740201Y-92179858D01*
X101765746Y-92162789D01*
X101772355Y-92167205D01*
X101960713Y-92245226D01*
X102160672Y-92285000D01*
X102364550Y-92285000D01*
X102564509Y-92245226D01*
X102752867Y-92167205D01*
X102922385Y-92053937D01*
X103066548Y-91909774D01*
X103179816Y-91740256D01*
X103257837Y-91551898D01*
X103290438Y-91387999D01*
X103332795Y-91490256D01*
X103446063Y-91659774D01*
X103590226Y-91803937D01*
X103759744Y-91917205D01*
X103948102Y-91995226D01*
X104148061Y-92035000D01*
X104351939Y-92035000D01*
X104551898Y-91995226D01*
X104610163Y-91971092D01*
X104795580Y-92156509D01*
X104795585Y-92156513D01*
X107001852Y-94362780D01*
X106485750Y-94365000D01*
X106327000Y-94523750D01*
X106327000Y-95873000D01*
X106347000Y-95873000D01*
X106347000Y-96127000D01*
X106327000Y-96127000D01*
X106327000Y-97476250D01*
X106485750Y-97635000D01*
X107200000Y-97638072D01*
X107324482Y-97625812D01*
X107444180Y-97589502D01*
X107554494Y-97530537D01*
X107651185Y-97451185D01*
X107730537Y-97354494D01*
X107755191Y-97308370D01*
X107965537Y-97448918D01*
X108263088Y-97572168D01*
X108578967Y-97635000D01*
X108901033Y-97635000D01*
X109216912Y-97572168D01*
X109457353Y-97472574D01*
X109525000Y-97555002D01*
X109554004Y-97578805D01*
X110040359Y-98065161D01*
X110036928Y-98099999D01*
X110036928Y-98900001D01*
X110053992Y-99073255D01*
X110104528Y-99239851D01*
X110158059Y-99340000D01*
X94980931Y-99340000D01*
X95121118Y-99247373D01*
X95187690Y-99122507D01*
X95259418Y-99139553D01*
X95507447Y-99148726D01*
X95752499Y-99109335D01*
X95985158Y-99022893D01*
X96067694Y-98978777D01*
X96118043Y-98752648D01*
X103381957Y-98752648D01*
X103432306Y-98978777D01*
X103657944Y-99082168D01*
X103899418Y-99139553D01*
X104147447Y-99148726D01*
X104392499Y-99109335D01*
X104625158Y-99022893D01*
X104707694Y-98978777D01*
X104758043Y-98752648D01*
X104070000Y-98064605D01*
X103381957Y-98752648D01*
X96118043Y-98752648D01*
X95563927Y-98198532D01*
X95590287Y-98111304D01*
X95612092Y-97887487D01*
X96297648Y-98573043D01*
X96523777Y-98522694D01*
X96627168Y-98297056D01*
X96684553Y-98055582D01*
X96687997Y-97962447D01*
X102806274Y-97962447D01*
X102845665Y-98207499D01*
X102932107Y-98440158D01*
X102976223Y-98522694D01*
X103202352Y-98573043D01*
X103890395Y-97885000D01*
X103202352Y-97196957D01*
X102976223Y-97247306D01*
X102872832Y-97472944D01*
X102815447Y-97714418D01*
X102806274Y-97962447D01*
X96687997Y-97962447D01*
X96693726Y-97807553D01*
X96654335Y-97562501D01*
X96567893Y-97329842D01*
X96523777Y-97247306D01*
X96297648Y-97196957D01*
X95612630Y-97881975D01*
X95650168Y-97496672D01*
X95649132Y-97486263D01*
X96118043Y-97017352D01*
X103381957Y-97017352D01*
X104070000Y-97705395D01*
X104084143Y-97691253D01*
X104263748Y-97870858D01*
X104249605Y-97885000D01*
X104937648Y-98573043D01*
X105163777Y-98522694D01*
X105267168Y-98297056D01*
X105324553Y-98055582D01*
X105333726Y-97807553D01*
X105306409Y-97637614D01*
X105914250Y-97635000D01*
X106073000Y-97476250D01*
X106073000Y-96127000D01*
X104723750Y-96127000D01*
X104565000Y-96285750D01*
X104563111Y-96724973D01*
X104482056Y-96687832D01*
X104240582Y-96630447D01*
X103992553Y-96621274D01*
X103747501Y-96660665D01*
X103514842Y-96747107D01*
X103432306Y-96791223D01*
X103381957Y-97017352D01*
X96118043Y-97017352D01*
X96067694Y-96791223D01*
X95842056Y-96687832D01*
X95600582Y-96630447D01*
X95511335Y-96627146D01*
X95409103Y-96291408D01*
X95121118Y-95752627D01*
X94703148Y-95476457D01*
X92679605Y-97500000D01*
X92693748Y-97514143D01*
X92514143Y-97693748D01*
X92500000Y-97679605D01*
X92485858Y-97693748D01*
X92306253Y-97514143D01*
X92320395Y-97500000D01*
X92306253Y-97485858D01*
X92485858Y-97306253D01*
X92500000Y-97320395D01*
X94523543Y-95296852D01*
X94247373Y-94878882D01*
X93859325Y-94671993D01*
X94652612Y-94671993D01*
X94718137Y-94910860D01*
X94965116Y-95026760D01*
X95229960Y-95092250D01*
X95502492Y-95104812D01*
X95772238Y-95063965D01*
X96028832Y-94971277D01*
X96141863Y-94910860D01*
X96207388Y-94671993D01*
X103292612Y-94671993D01*
X103358137Y-94910860D01*
X103605116Y-95026760D01*
X103869960Y-95092250D01*
X104142492Y-95104812D01*
X104412238Y-95063965D01*
X104561970Y-95009878D01*
X104565000Y-95714250D01*
X104723750Y-95873000D01*
X106073000Y-95873000D01*
X106073000Y-94523750D01*
X105914250Y-94365000D01*
X105296138Y-94362341D01*
X105381760Y-94179884D01*
X105447250Y-93915040D01*
X105459812Y-93642508D01*
X105418965Y-93372762D01*
X105326277Y-93116168D01*
X105265860Y-93003137D01*
X105026993Y-92937612D01*
X104249605Y-93715000D01*
X104263748Y-93729143D01*
X104084143Y-93908748D01*
X104070000Y-93894605D01*
X103292612Y-94671993D01*
X96207388Y-94671993D01*
X95430000Y-93894605D01*
X94652612Y-94671993D01*
X93859325Y-94671993D01*
X93702443Y-94588351D01*
X93111304Y-94409713D01*
X92496672Y-94349832D01*
X91882169Y-94411010D01*
X91291408Y-94590897D01*
X90752627Y-94878882D01*
X90660000Y-95019069D01*
X90660000Y-93787492D01*
X94040188Y-93787492D01*
X94081035Y-94057238D01*
X94173723Y-94313832D01*
X94234140Y-94426863D01*
X94473007Y-94492388D01*
X95250395Y-93715000D01*
X95609605Y-93715000D01*
X96386993Y-94492388D01*
X96625860Y-94426863D01*
X96741760Y-94179884D01*
X96807250Y-93915040D01*
X96813129Y-93787492D01*
X102680188Y-93787492D01*
X102721035Y-94057238D01*
X102813723Y-94313832D01*
X102874140Y-94426863D01*
X103113007Y-94492388D01*
X103890395Y-93715000D01*
X103113007Y-92937612D01*
X102874140Y-93003137D01*
X102758240Y-93250116D01*
X102692750Y-93514960D01*
X102680188Y-93787492D01*
X96813129Y-93787492D01*
X96819812Y-93642508D01*
X96778965Y-93372762D01*
X96686277Y-93116168D01*
X96625860Y-93003137D01*
X96386993Y-92937612D01*
X95609605Y-93715000D01*
X95250395Y-93715000D01*
X94473007Y-92937612D01*
X94234140Y-93003137D01*
X94118240Y-93250116D01*
X94052750Y-93514960D01*
X94040188Y-93787492D01*
X90660000Y-93787492D01*
X90660000Y-92758007D01*
X94652612Y-92758007D01*
X95430000Y-93535395D01*
X96207388Y-92758007D01*
X96141863Y-92519140D01*
X95894884Y-92403240D01*
X95630040Y-92337750D01*
X95357508Y-92325188D01*
X95087762Y-92366035D01*
X94831168Y-92458723D01*
X94718137Y-92519140D01*
X94652612Y-92758007D01*
X90660000Y-92758007D01*
X90660000Y-85814801D01*
X91058791Y-86213592D01*
G37*
%TD.AperFunction*%
D27*
X130252627Y-68121118D02*
X130797557Y-68411649D01*
X131388696Y-68590287D01*
X132003328Y-68650168D01*
X132617831Y-68588990D01*
X133208592Y-68409103D01*
X133747373Y-68121118D01*
X133840000Y-67980931D01*
X133840000Y-77015000D01*
X130410000Y-77015000D01*
X130410000Y-78597761D01*
X130242252Y-78430013D01*
X129974463Y-78251082D01*
X129676912Y-78127832D01*
X129361033Y-78065000D01*
X129038967Y-78065000D01*
X128723088Y-78127832D01*
X128425537Y-78251082D01*
X128157748Y-78430013D01*
X127930013Y-78657748D01*
X127751082Y-78925537D01*
X127627832Y-79223088D01*
X127565000Y-79538967D01*
X127565000Y-79861033D01*
X127627832Y-80176912D01*
X127751082Y-80474463D01*
X127930013Y-80742252D01*
X128157748Y-80969987D01*
X128425537Y-81148918D01*
X128723088Y-81272168D01*
X129038967Y-81335000D01*
X129361033Y-81335000D01*
X129676912Y-81272168D01*
X129974463Y-81148918D01*
X130242252Y-80969987D01*
X130410000Y-80802239D01*
X130410000Y-87097761D01*
X130242252Y-86930013D01*
X129974463Y-86751082D01*
X129676912Y-86627832D01*
X129361033Y-86565000D01*
X129038967Y-86565000D01*
X128723088Y-86627832D01*
X128425537Y-86751082D01*
X128157748Y-86930013D01*
X127930013Y-87157748D01*
X127751082Y-87425537D01*
X127627832Y-87723088D01*
X127565000Y-88038967D01*
X127565000Y-88361033D01*
X127627832Y-88676912D01*
X127751082Y-88974463D01*
X127930013Y-89242252D01*
X128157748Y-89469987D01*
X128425537Y-89648918D01*
X128723088Y-89772168D01*
X129038967Y-89835000D01*
X129361033Y-89835000D01*
X129676912Y-89772168D01*
X129974463Y-89648918D01*
X130242252Y-89469987D01*
X130410000Y-89302239D01*
X130410000Y-90585000D01*
X133840001Y-90585000D01*
X133840001Y-95019070D01*
X133747373Y-94878882D01*
X133202443Y-94588351D01*
X132611304Y-94409713D01*
X131996672Y-94349832D01*
X131382169Y-94411010D01*
X130791408Y-94590897D01*
X130252627Y-94878882D01*
X129976457Y-95296852D01*
X132000000Y-97320395D01*
X132014143Y-97306253D01*
X132193748Y-97485858D01*
X132179605Y-97500000D01*
X132193748Y-97514143D01*
X132014143Y-97693748D01*
X132000000Y-97679605D01*
X131985858Y-97693748D01*
X131806253Y-97514143D01*
X131820395Y-97500000D01*
X129796852Y-95476457D01*
X129378882Y-95752627D01*
X129088351Y-96297557D01*
X128909713Y-96888696D01*
X128849832Y-97503328D01*
X128911010Y-98117831D01*
X129090897Y-98708592D01*
X129378882Y-99247373D01*
X129519069Y-99340000D01*
X127941941Y-99340000D01*
X127995472Y-99239851D01*
X128046008Y-99073255D01*
X128063072Y-98900001D01*
X128063072Y-98099999D01*
X128046008Y-97926745D01*
X127995472Y-97760149D01*
X127913405Y-97606613D01*
X127802962Y-97472038D01*
X127668387Y-97361595D01*
X127514851Y-97279528D01*
X127348255Y-97228992D01*
X127175001Y-97211928D01*
X125924999Y-97211928D01*
X125751745Y-97228992D01*
X125585149Y-97279528D01*
X125431613Y-97361595D01*
X125300000Y-97469607D01*
X125168387Y-97361595D01*
X125014851Y-97279528D01*
X124848255Y-97228992D01*
X124675001Y-97211928D01*
X123424999Y-97211928D01*
X123251745Y-97228992D01*
X123085149Y-97279528D01*
X122931613Y-97361595D01*
X122800000Y-97469607D01*
X122668387Y-97361595D01*
X122514851Y-97279528D01*
X122348255Y-97228992D01*
X122175001Y-97211928D01*
X120924999Y-97211928D01*
X120751745Y-97228992D01*
X120585149Y-97279528D01*
X120431613Y-97361595D01*
X120300000Y-97469607D01*
X120168387Y-97361595D01*
X120014851Y-97279528D01*
X119848255Y-97228992D01*
X119675001Y-97211928D01*
X118424999Y-97211928D01*
X118251745Y-97228992D01*
X118085149Y-97279528D01*
X117931613Y-97361595D01*
X117800000Y-97469607D01*
X117668387Y-97361595D01*
X117514851Y-97279528D01*
X117348255Y-97228992D01*
X117175001Y-97211928D01*
X115924999Y-97211928D01*
X115751745Y-97228992D01*
X115585149Y-97279528D01*
X115431613Y-97361595D01*
X115300000Y-97469607D01*
X115168387Y-97361595D01*
X115014851Y-97279528D01*
X114848255Y-97228992D01*
X114675001Y-97211928D01*
X113424999Y-97211928D01*
X113251745Y-97228992D01*
X113085149Y-97279528D01*
X112931613Y-97361595D01*
X112800000Y-97469607D01*
X112668387Y-97361595D01*
X112514851Y-97279528D01*
X112348255Y-97228992D01*
X112175001Y-97211928D01*
X111336729Y-97211928D01*
X110825001Y-96700200D01*
X110825001Y-96678223D01*
X110924999Y-96688072D01*
X112175001Y-96688072D01*
X112348255Y-96671008D01*
X112514851Y-96620472D01*
X112668387Y-96538405D01*
X112800000Y-96430393D01*
X112931613Y-96538405D01*
X113085149Y-96620472D01*
X113251745Y-96671008D01*
X113424999Y-96688072D01*
X114675001Y-96688072D01*
X114848255Y-96671008D01*
X115014851Y-96620472D01*
X115168387Y-96538405D01*
X115300000Y-96430393D01*
X115431613Y-96538405D01*
X115585149Y-96620472D01*
X115751745Y-96671008D01*
X115924999Y-96688072D01*
X117175001Y-96688072D01*
X117348255Y-96671008D01*
X117514851Y-96620472D01*
X117668387Y-96538405D01*
X117800000Y-96430393D01*
X117931613Y-96538405D01*
X118085149Y-96620472D01*
X118251745Y-96671008D01*
X118424999Y-96688072D01*
X119675001Y-96688072D01*
X119848255Y-96671008D01*
X120014851Y-96620472D01*
X120168387Y-96538405D01*
X120300000Y-96430393D01*
X120431613Y-96538405D01*
X120585149Y-96620472D01*
X120751745Y-96671008D01*
X120924999Y-96688072D01*
X122175001Y-96688072D01*
X122348255Y-96671008D01*
X122514851Y-96620472D01*
X122668387Y-96538405D01*
X122800000Y-96430393D01*
X122931613Y-96538405D01*
X123085149Y-96620472D01*
X123251745Y-96671008D01*
X123424999Y-96688072D01*
X124675001Y-96688072D01*
X124848255Y-96671008D01*
X125014851Y-96620472D01*
X125168387Y-96538405D01*
X125300000Y-96430393D01*
X125431613Y-96538405D01*
X125585149Y-96620472D01*
X125751745Y-96671008D01*
X125924999Y-96688072D01*
X127175001Y-96688072D01*
X127348255Y-96671008D01*
X127514851Y-96620472D01*
X127668387Y-96538405D01*
X127802962Y-96427962D01*
X127913405Y-96293387D01*
X127995472Y-96139851D01*
X128046008Y-95973255D01*
X128063072Y-95800001D01*
X128063072Y-94999999D01*
X128046008Y-94826745D01*
X127995472Y-94660149D01*
X127913405Y-94506613D01*
X127802962Y-94372038D01*
X127668387Y-94261595D01*
X127634996Y-94243747D01*
X127790706Y-94054013D01*
X127928599Y-93796033D01*
X128013513Y-93516110D01*
X128035000Y-93297949D01*
X128035000Y-93002050D01*
X128013513Y-92783889D01*
X127928599Y-92503966D01*
X127790706Y-92245986D01*
X127605134Y-92019866D01*
X127379013Y-91834294D01*
X127121033Y-91696401D01*
X126841110Y-91611487D01*
X126550000Y-91582815D01*
X126258889Y-91611487D01*
X125978966Y-91696401D01*
X125720986Y-91834294D01*
X125494866Y-92019866D01*
X125309294Y-92245987D01*
X125300000Y-92263374D01*
X125290706Y-92245986D01*
X125105134Y-92019866D01*
X124879013Y-91834294D01*
X124786518Y-91784854D01*
X124755546Y-91682753D01*
X124684974Y-91550724D01*
X124590001Y-91434999D01*
X124561003Y-91411201D01*
X124438803Y-91289001D01*
X124415001Y-91259999D01*
X124299276Y-91165026D01*
X124167247Y-91094454D01*
X124023986Y-91050997D01*
X123912333Y-91040000D01*
X123912322Y-91040000D01*
X123875000Y-91036324D01*
X123837678Y-91040000D01*
X121414801Y-91040000D01*
X121313782Y-90938981D01*
X121289980Y-90909978D01*
X121174255Y-90815005D01*
X121042226Y-90744433D01*
X120898965Y-90700976D01*
X120787312Y-90689979D01*
X120787301Y-90689979D01*
X120749979Y-90686303D01*
X120712657Y-90689979D01*
X118264781Y-90689979D01*
X117985038Y-90410237D01*
X117961236Y-90381234D01*
X117845511Y-90286261D01*
X117713482Y-90215689D01*
X117570221Y-90172232D01*
X117458568Y-90161235D01*
X117458557Y-90161235D01*
X117421235Y-90157559D01*
X117383913Y-90161235D01*
X111322550Y-90161235D01*
X111296560Y-90135245D01*
X111272758Y-90106242D01*
X111157033Y-90011269D01*
X111025004Y-89940697D01*
X110881743Y-89897240D01*
X110770090Y-89886243D01*
X110770079Y-89886243D01*
X110732757Y-89882567D01*
X110695435Y-89886243D01*
X109991082Y-89886243D01*
X109953757Y-89882567D01*
X109916432Y-89886243D01*
X109916424Y-89886243D01*
X109804771Y-89897240D01*
X109661510Y-89940697D01*
X109529481Y-90011269D01*
X109413756Y-90106242D01*
X109389957Y-90135241D01*
X109085199Y-90440000D01*
X108503711Y-90440000D01*
X108459774Y-90396063D01*
X108290256Y-90282795D01*
X108101898Y-90204774D01*
X107901939Y-90165000D01*
X107698061Y-90165000D01*
X107498102Y-90204774D01*
X107309744Y-90282795D01*
X107140226Y-90396063D01*
X107032916Y-90503373D01*
X106947525Y-90468002D01*
X106747566Y-90428228D01*
X106543688Y-90428228D01*
X106343729Y-90468002D01*
X106155371Y-90546023D01*
X105985853Y-90659291D01*
X105841690Y-90803454D01*
X105741730Y-90953055D01*
X105277676Y-90489002D01*
X105253874Y-90459999D01*
X105138149Y-90365026D01*
X105010513Y-90296802D01*
X104909774Y-90196063D01*
X104740256Y-90082795D01*
X104551898Y-90004774D01*
X104363765Y-89967352D01*
X104424298Y-89934996D01*
X104540023Y-89840023D01*
X104563826Y-89811019D01*
X104614845Y-89760000D01*
X123117881Y-89760000D01*
X123438972Y-90081092D01*
X123462771Y-90110091D01*
X123491769Y-90133889D01*
X123578495Y-90205064D01*
X123671647Y-90254855D01*
X123710525Y-90275636D01*
X123853786Y-90319093D01*
X123965439Y-90330090D01*
X123965449Y-90330090D01*
X124002771Y-90333766D01*
X124040094Y-90330090D01*
X124765592Y-90330090D01*
X124802914Y-90333766D01*
X124840236Y-90330090D01*
X124840247Y-90330090D01*
X124951900Y-90319093D01*
X125095161Y-90275636D01*
X125227190Y-90205064D01*
X125342915Y-90110091D01*
X125366717Y-90081088D01*
X125836005Y-89611800D01*
X125865003Y-89588003D01*
X125895671Y-89550634D01*
X125959976Y-89472279D01*
X126030548Y-89340249D01*
X126039727Y-89309989D01*
X126074005Y-89196988D01*
X126085002Y-89085335D01*
X126085002Y-89085325D01*
X126088678Y-89048002D01*
X126085002Y-89010679D01*
X126085002Y-88389321D01*
X126088678Y-88351998D01*
X126085002Y-88314675D01*
X126085002Y-88314665D01*
X126074005Y-88203012D01*
X126030548Y-88059751D01*
X125959976Y-87927722D01*
X125865003Y-87811997D01*
X125835999Y-87788194D01*
X125500306Y-87452501D01*
X125476503Y-87423497D01*
X125360778Y-87328524D01*
X125228749Y-87257952D01*
X125085488Y-87214495D01*
X124973835Y-87203498D01*
X124973824Y-87203498D01*
X124936502Y-87199822D01*
X124899180Y-87203498D01*
X122992422Y-87203498D01*
X122992422Y-83740323D01*
X123063540Y-83740323D01*
X123073808Y-84060510D01*
X123081659Y-84141894D01*
X123132787Y-84458138D01*
X123150981Y-84537851D01*
X123242130Y-84844962D01*
X123270368Y-84921694D01*
X123300310Y-84989332D01*
X123400041Y-85214627D01*
X123437859Y-85287117D01*
X123603926Y-85561063D01*
X123650705Y-85628124D01*
X123850441Y-85878584D01*
X123905409Y-85939110D01*
X124135533Y-86161973D01*
X124197792Y-86214975D01*
X124454526Y-86406580D01*
X124523050Y-86451184D01*
X124802178Y-86608386D01*
X124875843Y-86643862D01*
X125172781Y-86764079D01*
X125250378Y-86789843D01*
X125560252Y-86871102D01*
X125640509Y-86886732D01*
X125958230Y-86927697D01*
X126039824Y-86932935D01*
X126360176Y-86932935D01*
X126441770Y-86927697D01*
X126759491Y-86886732D01*
X126839748Y-86871102D01*
X127149622Y-86789843D01*
X127227219Y-86764079D01*
X127524157Y-86643862D01*
X127597822Y-86608386D01*
X127876950Y-86451184D01*
X127945474Y-86406580D01*
X128202208Y-86214975D01*
X128264467Y-86161973D01*
X128494591Y-85939110D01*
X128549559Y-85878584D01*
X128749295Y-85628124D01*
X128796074Y-85561063D01*
X128962141Y-85287117D01*
X128999959Y-85214627D01*
X129129632Y-84921694D01*
X129157870Y-84844962D01*
X129249019Y-84537851D01*
X129267213Y-84458138D01*
X129318341Y-84141894D01*
X129326192Y-84060509D01*
X129332610Y-83860367D01*
X129337590Y-83809802D01*
X129337590Y-83790198D01*
X129335531Y-83769292D01*
X129336460Y-83740325D01*
X129333839Y-83658600D01*
X129303077Y-83339729D01*
X129290029Y-83259017D01*
X129218745Y-82946698D01*
X129195480Y-82868313D01*
X129084842Y-82567674D01*
X129051746Y-82492909D01*
X128903571Y-82208886D01*
X128861187Y-82138969D01*
X128677909Y-81876225D01*
X128626928Y-81812297D01*
X128411555Y-81575149D01*
X128352823Y-81518270D01*
X128108893Y-81310609D01*
X128043367Y-81261706D01*
X127774885Y-81086943D01*
X127703643Y-81046820D01*
X127415017Y-80907825D01*
X127339229Y-80877142D01*
X127035197Y-80776197D01*
X126956110Y-80755458D01*
X126656569Y-80697122D01*
X126656561Y-80697120D01*
X126641659Y-80694218D01*
X126560576Y-80683764D01*
X126314396Y-80667958D01*
X126314388Y-80667958D01*
X126240875Y-80663239D01*
X126159119Y-80663239D01*
X125839426Y-80683764D01*
X125758334Y-80694220D01*
X125443891Y-80755458D01*
X125364803Y-80776197D01*
X125060771Y-80877142D01*
X124984983Y-80907825D01*
X124696357Y-81046820D01*
X124625115Y-81086943D01*
X124356633Y-81261706D01*
X124291107Y-81310609D01*
X124047177Y-81518270D01*
X123988445Y-81575149D01*
X123773072Y-81812297D01*
X123722091Y-81876225D01*
X123538813Y-82138969D01*
X123496429Y-82208886D01*
X123348254Y-82492909D01*
X123315158Y-82567674D01*
X123307187Y-82589332D01*
X123204520Y-82868313D01*
X123181255Y-82946698D01*
X123109971Y-83259017D01*
X123096923Y-83339729D01*
X123066161Y-83658600D01*
X123063540Y-83740323D01*
X122992422Y-83740323D01*
X122992422Y-75404901D01*
X122996098Y-75367578D01*
X122992422Y-75330255D01*
X122992422Y-75330245D01*
X122981425Y-75218592D01*
X122937968Y-75075331D01*
X122867396Y-74943302D01*
X122772423Y-74827577D01*
X122743425Y-74803779D01*
X122374855Y-74435209D01*
X122374855Y-74373071D01*
X122335081Y-74173112D01*
X122257060Y-73984754D01*
X122143792Y-73815236D01*
X121999629Y-73671073D01*
X121830111Y-73557805D01*
X121641753Y-73479784D01*
X121441794Y-73440010D01*
X121237916Y-73440010D01*
X121037957Y-73479784D01*
X120849599Y-73557805D01*
X120680081Y-73671073D01*
X120535918Y-73815236D01*
X120422650Y-73984754D01*
X120344629Y-74173112D01*
X120304855Y-74373071D01*
X120304855Y-74576949D01*
X120308674Y-74596149D01*
X120159899Y-74657774D01*
X119990381Y-74771042D01*
X119846218Y-74915205D01*
X119732950Y-75084723D01*
X119654929Y-75273081D01*
X119615155Y-75473040D01*
X119615155Y-75539989D01*
X116137334Y-75539989D01*
X116100011Y-75536313D01*
X116062688Y-75539989D01*
X116062678Y-75539989D01*
X115951025Y-75550986D01*
X115807764Y-75594443D01*
X115675735Y-75665015D01*
X115560010Y-75759988D01*
X115536212Y-75788986D01*
X113954537Y-77370662D01*
X110028329Y-73444455D01*
X110036768Y-73402031D01*
X110036768Y-73198153D01*
X109996994Y-72998194D01*
X109956321Y-72900000D01*
X126936323Y-72900000D01*
X126937495Y-72911898D01*
X126936695Y-72923823D01*
X126944822Y-72986290D01*
X126950997Y-73048986D01*
X126954467Y-73060424D01*
X126956009Y-73072279D01*
X126976164Y-73131951D01*
X126994454Y-73192247D01*
X127000092Y-73202794D01*
X127003915Y-73214114D01*
X127035321Y-73268702D01*
X127065026Y-73324276D01*
X127072611Y-73333518D01*
X127078571Y-73343878D01*
X127120029Y-73391298D01*
X127159999Y-73440001D01*
X127169241Y-73447586D01*
X127177108Y-73456584D01*
X127227028Y-73495010D01*
X127275724Y-73534974D01*
X127286265Y-73540608D01*
X127295739Y-73547901D01*
X127352178Y-73575840D01*
X127407753Y-73605546D01*
X127419201Y-73609019D01*
X127429906Y-73614318D01*
X127490700Y-73630707D01*
X127551014Y-73649003D01*
X127562913Y-73650175D01*
X127574453Y-73653286D01*
X127637298Y-73657501D01*
X127662667Y-73660000D01*
X127674550Y-73660000D01*
X127723823Y-73663305D01*
X127749227Y-73660000D01*
X127819472Y-73660000D01*
X127263838Y-74160071D01*
X127188203Y-74242937D01*
X127110790Y-74371075D01*
X127059863Y-74511854D01*
X127037379Y-74659863D01*
X127044202Y-74809413D01*
X127080069Y-74954759D01*
X127143605Y-75090316D01*
X127232364Y-75210872D01*
X127342937Y-75311797D01*
X127471075Y-75389210D01*
X127611854Y-75440137D01*
X127759863Y-75462621D01*
X127909413Y-75455798D01*
X128054759Y-75419931D01*
X128190316Y-75356395D01*
X128280663Y-75289878D01*
X129812234Y-73911465D01*
X131433743Y-75301330D01*
X131525673Y-75365644D01*
X131662726Y-75425882D01*
X131808898Y-75458223D01*
X131958571Y-75461427D01*
X132105992Y-75435369D01*
X132245498Y-75381053D01*
X132371726Y-75300563D01*
X132479826Y-75196994D01*
X132565644Y-75074325D01*
X132625882Y-74937272D01*
X132658223Y-74791101D01*
X132661427Y-74641428D01*
X132635369Y-74494006D01*
X132581053Y-74354501D01*
X132500563Y-74228273D01*
X132422946Y-74147260D01*
X131854476Y-73660000D01*
X131937333Y-73660000D01*
X131974899Y-73656300D01*
X131984634Y-73656300D01*
X131995187Y-73655191D01*
X132140649Y-73638875D01*
X132208008Y-73624557D01*
X132275599Y-73611174D01*
X132285735Y-73608036D01*
X132425258Y-73563777D01*
X132488590Y-73536633D01*
X132552257Y-73510391D01*
X132561591Y-73505344D01*
X132689860Y-73434827D01*
X132746700Y-73395907D01*
X132804064Y-73357796D01*
X132812240Y-73351032D01*
X132924370Y-73256945D01*
X132972571Y-73207725D01*
X133021449Y-73159186D01*
X133028156Y-73150962D01*
X133119874Y-73036886D01*
X133157603Y-72979229D01*
X133196105Y-72922149D01*
X133201086Y-72912779D01*
X133201091Y-72912772D01*
X133201096Y-72912761D01*
X133268901Y-72783062D01*
X133294696Y-72719219D01*
X133321401Y-72655690D01*
X133324464Y-72645542D01*
X133324466Y-72645537D01*
X133324467Y-72645532D01*
X133365794Y-72505113D01*
X133378700Y-72437456D01*
X133392551Y-72369981D01*
X133393587Y-72359420D01*
X133406854Y-72213649D01*
X133406373Y-72144764D01*
X133406854Y-72075879D01*
X133405818Y-72065319D01*
X133390517Y-71919746D01*
X133376667Y-71852278D01*
X133363760Y-71784614D01*
X133360693Y-71774455D01*
X133317409Y-71634626D01*
X133290716Y-71571126D01*
X133264912Y-71507258D01*
X133259930Y-71497889D01*
X133190311Y-71369131D01*
X133151770Y-71311991D01*
X133114075Y-71254387D01*
X133107373Y-71246169D01*
X133107369Y-71246163D01*
X133107364Y-71246158D01*
X133014067Y-71133380D01*
X132965174Y-71084828D01*
X132916994Y-71035628D01*
X132908818Y-71028864D01*
X132795387Y-70936351D01*
X132737964Y-70898200D01*
X132681178Y-70859317D01*
X132671847Y-70854271D01*
X132671839Y-70854267D01*
X132542603Y-70785551D01*
X132478921Y-70759303D01*
X132415600Y-70732164D01*
X132405463Y-70729026D01*
X132265336Y-70686720D01*
X132197750Y-70673338D01*
X132141593Y-70661401D01*
X132372120Y-70496739D01*
X132456583Y-70422893D01*
X132547901Y-70304262D01*
X132614318Y-70170095D01*
X132653285Y-70025548D01*
X132663304Y-69876177D01*
X132643991Y-69727721D01*
X132596085Y-69585886D01*
X132521429Y-69456122D01*
X132422892Y-69343417D01*
X132304261Y-69252099D01*
X132170094Y-69185682D01*
X132025547Y-69146714D01*
X131876176Y-69136696D01*
X131727720Y-69156009D01*
X131585885Y-69203915D01*
X131488637Y-69259864D01*
X129398315Y-70752951D01*
X129375725Y-70765026D01*
X129337556Y-70796351D01*
X127298318Y-72252949D01*
X127275724Y-72265026D01*
X127237547Y-72296357D01*
X127227880Y-72303262D01*
X127208695Y-72320035D01*
X127159999Y-72359999D01*
X127152415Y-72369241D01*
X127143416Y-72377108D01*
X127104990Y-72427028D01*
X127065026Y-72475724D01*
X127059392Y-72486265D01*
X127052099Y-72495739D01*
X127024160Y-72552178D01*
X126994454Y-72607753D01*
X126990981Y-72619201D01*
X126985682Y-72629906D01*
X126969293Y-72690700D01*
X126950997Y-72751014D01*
X126949825Y-72762913D01*
X126946714Y-72774453D01*
X126942499Y-72837298D01*
X126936323Y-72900000D01*
X109956321Y-72900000D01*
X109918973Y-72809836D01*
X109805705Y-72640318D01*
X109734523Y-72569136D01*
X109842440Y-72461220D01*
X109952853Y-72534995D01*
X110141211Y-72613016D01*
X110341170Y-72652790D01*
X110545048Y-72652790D01*
X110745007Y-72613016D01*
X110933365Y-72534995D01*
X111102883Y-72421727D01*
X111247046Y-72277564D01*
X111360314Y-72108046D01*
X111396918Y-72019676D01*
X111529804Y-71993244D01*
X111718162Y-71915223D01*
X111887680Y-71801955D01*
X112031843Y-71657792D01*
X112145111Y-71488274D01*
X112223132Y-71299916D01*
X112262906Y-71099957D01*
X112262906Y-71085000D01*
X118198810Y-71085000D01*
X118198810Y-69760000D01*
X129217581Y-69760000D01*
X129250000Y-69763193D01*
X129282419Y-69760000D01*
X129379383Y-69750450D01*
X129503793Y-69712710D01*
X129618450Y-69651425D01*
X129718948Y-69568948D01*
X129801425Y-69468450D01*
X129862710Y-69353793D01*
X129900450Y-69229383D01*
X129913193Y-69100000D01*
X129910000Y-69067581D01*
X129910000Y-67769608D01*
X129976458Y-67703150D01*
X130252627Y-68121118D01*
%TA.AperFunction,Conductor*%
D28*
G36*
X130252627Y-68121118D02*
G01*
X130797557Y-68411649D01*
X131388696Y-68590287D01*
X132003328Y-68650168D01*
X132617831Y-68588990D01*
X133208592Y-68409103D01*
X133747373Y-68121118D01*
X133840000Y-67980931D01*
X133840000Y-77015000D01*
X130410000Y-77015000D01*
X130410000Y-78597761D01*
X130242252Y-78430013D01*
X129974463Y-78251082D01*
X129676912Y-78127832D01*
X129361033Y-78065000D01*
X129038967Y-78065000D01*
X128723088Y-78127832D01*
X128425537Y-78251082D01*
X128157748Y-78430013D01*
X127930013Y-78657748D01*
X127751082Y-78925537D01*
X127627832Y-79223088D01*
X127565000Y-79538967D01*
X127565000Y-79861033D01*
X127627832Y-80176912D01*
X127751082Y-80474463D01*
X127930013Y-80742252D01*
X128157748Y-80969987D01*
X128425537Y-81148918D01*
X128723088Y-81272168D01*
X129038967Y-81335000D01*
X129361033Y-81335000D01*
X129676912Y-81272168D01*
X129974463Y-81148918D01*
X130242252Y-80969987D01*
X130410000Y-80802239D01*
X130410000Y-87097761D01*
X130242252Y-86930013D01*
X129974463Y-86751082D01*
X129676912Y-86627832D01*
X129361033Y-86565000D01*
X129038967Y-86565000D01*
X128723088Y-86627832D01*
X128425537Y-86751082D01*
X128157748Y-86930013D01*
X127930013Y-87157748D01*
X127751082Y-87425537D01*
X127627832Y-87723088D01*
X127565000Y-88038967D01*
X127565000Y-88361033D01*
X127627832Y-88676912D01*
X127751082Y-88974463D01*
X127930013Y-89242252D01*
X128157748Y-89469987D01*
X128425537Y-89648918D01*
X128723088Y-89772168D01*
X129038967Y-89835000D01*
X129361033Y-89835000D01*
X129676912Y-89772168D01*
X129974463Y-89648918D01*
X130242252Y-89469987D01*
X130410000Y-89302239D01*
X130410000Y-90585000D01*
X133840001Y-90585000D01*
X133840001Y-95019070D01*
X133747373Y-94878882D01*
X133202443Y-94588351D01*
X132611304Y-94409713D01*
X131996672Y-94349832D01*
X131382169Y-94411010D01*
X130791408Y-94590897D01*
X130252627Y-94878882D01*
X129976457Y-95296852D01*
X132000000Y-97320395D01*
X132014143Y-97306253D01*
X132193748Y-97485858D01*
X132179605Y-97500000D01*
X132193748Y-97514143D01*
X132014143Y-97693748D01*
X132000000Y-97679605D01*
X131985858Y-97693748D01*
X131806253Y-97514143D01*
X131820395Y-97500000D01*
X129796852Y-95476457D01*
X129378882Y-95752627D01*
X129088351Y-96297557D01*
X128909713Y-96888696D01*
X128849832Y-97503328D01*
X128911010Y-98117831D01*
X129090897Y-98708592D01*
X129378882Y-99247373D01*
X129519069Y-99340000D01*
X127941941Y-99340000D01*
X127995472Y-99239851D01*
X128046008Y-99073255D01*
X128063072Y-98900001D01*
X128063072Y-98099999D01*
X128046008Y-97926745D01*
X127995472Y-97760149D01*
X127913405Y-97606613D01*
X127802962Y-97472038D01*
X127668387Y-97361595D01*
X127514851Y-97279528D01*
X127348255Y-97228992D01*
X127175001Y-97211928D01*
X125924999Y-97211928D01*
X125751745Y-97228992D01*
X125585149Y-97279528D01*
X125431613Y-97361595D01*
X125300000Y-97469607D01*
X125168387Y-97361595D01*
X125014851Y-97279528D01*
X124848255Y-97228992D01*
X124675001Y-97211928D01*
X123424999Y-97211928D01*
X123251745Y-97228992D01*
X123085149Y-97279528D01*
X122931613Y-97361595D01*
X122800000Y-97469607D01*
X122668387Y-97361595D01*
X122514851Y-97279528D01*
X122348255Y-97228992D01*
X122175001Y-97211928D01*
X120924999Y-97211928D01*
X120751745Y-97228992D01*
X120585149Y-97279528D01*
X120431613Y-97361595D01*
X120300000Y-97469607D01*
X120168387Y-97361595D01*
X120014851Y-97279528D01*
X119848255Y-97228992D01*
X119675001Y-97211928D01*
X118424999Y-97211928D01*
X118251745Y-97228992D01*
X118085149Y-97279528D01*
X117931613Y-97361595D01*
X117800000Y-97469607D01*
X117668387Y-97361595D01*
X117514851Y-97279528D01*
X117348255Y-97228992D01*
X117175001Y-97211928D01*
X115924999Y-97211928D01*
X115751745Y-97228992D01*
X115585149Y-97279528D01*
X115431613Y-97361595D01*
X115300000Y-97469607D01*
X115168387Y-97361595D01*
X115014851Y-97279528D01*
X114848255Y-97228992D01*
X114675001Y-97211928D01*
X113424999Y-97211928D01*
X113251745Y-97228992D01*
X113085149Y-97279528D01*
X112931613Y-97361595D01*
X112800000Y-97469607D01*
X112668387Y-97361595D01*
X112514851Y-97279528D01*
X112348255Y-97228992D01*
X112175001Y-97211928D01*
X111336729Y-97211928D01*
X110825001Y-96700200D01*
X110825001Y-96678223D01*
X110924999Y-96688072D01*
X112175001Y-96688072D01*
X112348255Y-96671008D01*
X112514851Y-96620472D01*
X112668387Y-96538405D01*
X112800000Y-96430393D01*
X112931613Y-96538405D01*
X113085149Y-96620472D01*
X113251745Y-96671008D01*
X113424999Y-96688072D01*
X114675001Y-96688072D01*
X114848255Y-96671008D01*
X115014851Y-96620472D01*
X115168387Y-96538405D01*
X115300000Y-96430393D01*
X115431613Y-96538405D01*
X115585149Y-96620472D01*
X115751745Y-96671008D01*
X115924999Y-96688072D01*
X117175001Y-96688072D01*
X117348255Y-96671008D01*
X117514851Y-96620472D01*
X117668387Y-96538405D01*
X117800000Y-96430393D01*
X117931613Y-96538405D01*
X118085149Y-96620472D01*
X118251745Y-96671008D01*
X118424999Y-96688072D01*
X119675001Y-96688072D01*
X119848255Y-96671008D01*
X120014851Y-96620472D01*
X120168387Y-96538405D01*
X120300000Y-96430393D01*
X120431613Y-96538405D01*
X120585149Y-96620472D01*
X120751745Y-96671008D01*
X120924999Y-96688072D01*
X122175001Y-96688072D01*
X122348255Y-96671008D01*
X122514851Y-96620472D01*
X122668387Y-96538405D01*
X122800000Y-96430393D01*
X122931613Y-96538405D01*
X123085149Y-96620472D01*
X123251745Y-96671008D01*
X123424999Y-96688072D01*
X124675001Y-96688072D01*
X124848255Y-96671008D01*
X125014851Y-96620472D01*
X125168387Y-96538405D01*
X125300000Y-96430393D01*
X125431613Y-96538405D01*
X125585149Y-96620472D01*
X125751745Y-96671008D01*
X125924999Y-96688072D01*
X127175001Y-96688072D01*
X127348255Y-96671008D01*
X127514851Y-96620472D01*
X127668387Y-96538405D01*
X127802962Y-96427962D01*
X127913405Y-96293387D01*
X127995472Y-96139851D01*
X128046008Y-95973255D01*
X128063072Y-95800001D01*
X128063072Y-94999999D01*
X128046008Y-94826745D01*
X127995472Y-94660149D01*
X127913405Y-94506613D01*
X127802962Y-94372038D01*
X127668387Y-94261595D01*
X127634996Y-94243747D01*
X127790706Y-94054013D01*
X127928599Y-93796033D01*
X128013513Y-93516110D01*
X128035000Y-93297949D01*
X128035000Y-93002050D01*
X128013513Y-92783889D01*
X127928599Y-92503966D01*
X127790706Y-92245986D01*
X127605134Y-92019866D01*
X127379013Y-91834294D01*
X127121033Y-91696401D01*
X126841110Y-91611487D01*
X126550000Y-91582815D01*
X126258889Y-91611487D01*
X125978966Y-91696401D01*
X125720986Y-91834294D01*
X125494866Y-92019866D01*
X125309294Y-92245987D01*
X125300000Y-92263374D01*
X125290706Y-92245986D01*
X125105134Y-92019866D01*
X124879013Y-91834294D01*
X124786518Y-91784854D01*
X124755546Y-91682753D01*
X124684974Y-91550724D01*
X124590001Y-91434999D01*
X124561003Y-91411201D01*
X124438803Y-91289001D01*
X124415001Y-91259999D01*
X124299276Y-91165026D01*
X124167247Y-91094454D01*
X124023986Y-91050997D01*
X123912333Y-91040000D01*
X123912322Y-91040000D01*
X123875000Y-91036324D01*
X123837678Y-91040000D01*
X121414801Y-91040000D01*
X121313782Y-90938981D01*
X121289980Y-90909978D01*
X121174255Y-90815005D01*
X121042226Y-90744433D01*
X120898965Y-90700976D01*
X120787312Y-90689979D01*
X120787301Y-90689979D01*
X120749979Y-90686303D01*
X120712657Y-90689979D01*
X118264781Y-90689979D01*
X117985038Y-90410237D01*
X117961236Y-90381234D01*
X117845511Y-90286261D01*
X117713482Y-90215689D01*
X117570221Y-90172232D01*
X117458568Y-90161235D01*
X117458557Y-90161235D01*
X117421235Y-90157559D01*
X117383913Y-90161235D01*
X111322550Y-90161235D01*
X111296560Y-90135245D01*
X111272758Y-90106242D01*
X111157033Y-90011269D01*
X111025004Y-89940697D01*
X110881743Y-89897240D01*
X110770090Y-89886243D01*
X110770079Y-89886243D01*
X110732757Y-89882567D01*
X110695435Y-89886243D01*
X109991082Y-89886243D01*
X109953757Y-89882567D01*
X109916432Y-89886243D01*
X109916424Y-89886243D01*
X109804771Y-89897240D01*
X109661510Y-89940697D01*
X109529481Y-90011269D01*
X109413756Y-90106242D01*
X109389957Y-90135241D01*
X109085199Y-90440000D01*
X108503711Y-90440000D01*
X108459774Y-90396063D01*
X108290256Y-90282795D01*
X108101898Y-90204774D01*
X107901939Y-90165000D01*
X107698061Y-90165000D01*
X107498102Y-90204774D01*
X107309744Y-90282795D01*
X107140226Y-90396063D01*
X107032916Y-90503373D01*
X106947525Y-90468002D01*
X106747566Y-90428228D01*
X106543688Y-90428228D01*
X106343729Y-90468002D01*
X106155371Y-90546023D01*
X105985853Y-90659291D01*
X105841690Y-90803454D01*
X105741730Y-90953055D01*
X105277676Y-90489002D01*
X105253874Y-90459999D01*
X105138149Y-90365026D01*
X105010513Y-90296802D01*
X104909774Y-90196063D01*
X104740256Y-90082795D01*
X104551898Y-90004774D01*
X104363765Y-89967352D01*
X104424298Y-89934996D01*
X104540023Y-89840023D01*
X104563826Y-89811019D01*
X104614845Y-89760000D01*
X123117881Y-89760000D01*
X123438972Y-90081092D01*
X123462771Y-90110091D01*
X123491769Y-90133889D01*
X123578495Y-90205064D01*
X123671647Y-90254855D01*
X123710525Y-90275636D01*
X123853786Y-90319093D01*
X123965439Y-90330090D01*
X123965449Y-90330090D01*
X124002771Y-90333766D01*
X124040094Y-90330090D01*
X124765592Y-90330090D01*
X124802914Y-90333766D01*
X124840236Y-90330090D01*
X124840247Y-90330090D01*
X124951900Y-90319093D01*
X125095161Y-90275636D01*
X125227190Y-90205064D01*
X125342915Y-90110091D01*
X125366717Y-90081088D01*
X125836005Y-89611800D01*
X125865003Y-89588003D01*
X125895671Y-89550634D01*
X125959976Y-89472279D01*
X126030548Y-89340249D01*
X126039727Y-89309989D01*
X126074005Y-89196988D01*
X126085002Y-89085335D01*
X126085002Y-89085325D01*
X126088678Y-89048002D01*
X126085002Y-89010679D01*
X126085002Y-88389321D01*
X126088678Y-88351998D01*
X126085002Y-88314675D01*
X126085002Y-88314665D01*
X126074005Y-88203012D01*
X126030548Y-88059751D01*
X125959976Y-87927722D01*
X125865003Y-87811997D01*
X125835999Y-87788194D01*
X125500306Y-87452501D01*
X125476503Y-87423497D01*
X125360778Y-87328524D01*
X125228749Y-87257952D01*
X125085488Y-87214495D01*
X124973835Y-87203498D01*
X124973824Y-87203498D01*
X124936502Y-87199822D01*
X124899180Y-87203498D01*
X122992422Y-87203498D01*
X122992422Y-83740323D01*
X123063540Y-83740323D01*
X123073808Y-84060510D01*
X123081659Y-84141894D01*
X123132787Y-84458138D01*
X123150981Y-84537851D01*
X123242130Y-84844962D01*
X123270368Y-84921694D01*
X123300310Y-84989332D01*
X123400041Y-85214627D01*
X123437859Y-85287117D01*
X123603926Y-85561063D01*
X123650705Y-85628124D01*
X123850441Y-85878584D01*
X123905409Y-85939110D01*
X124135533Y-86161973D01*
X124197792Y-86214975D01*
X124454526Y-86406580D01*
X124523050Y-86451184D01*
X124802178Y-86608386D01*
X124875843Y-86643862D01*
X125172781Y-86764079D01*
X125250378Y-86789843D01*
X125560252Y-86871102D01*
X125640509Y-86886732D01*
X125958230Y-86927697D01*
X126039824Y-86932935D01*
X126360176Y-86932935D01*
X126441770Y-86927697D01*
X126759491Y-86886732D01*
X126839748Y-86871102D01*
X127149622Y-86789843D01*
X127227219Y-86764079D01*
X127524157Y-86643862D01*
X127597822Y-86608386D01*
X127876950Y-86451184D01*
X127945474Y-86406580D01*
X128202208Y-86214975D01*
X128264467Y-86161973D01*
X128494591Y-85939110D01*
X128549559Y-85878584D01*
X128749295Y-85628124D01*
X128796074Y-85561063D01*
X128962141Y-85287117D01*
X128999959Y-85214627D01*
X129129632Y-84921694D01*
X129157870Y-84844962D01*
X129249019Y-84537851D01*
X129267213Y-84458138D01*
X129318341Y-84141894D01*
X129326192Y-84060509D01*
X129332610Y-83860367D01*
X129337590Y-83809802D01*
X129337590Y-83790198D01*
X129335531Y-83769292D01*
X129336460Y-83740325D01*
X129333839Y-83658600D01*
X129303077Y-83339729D01*
X129290029Y-83259017D01*
X129218745Y-82946698D01*
X129195480Y-82868313D01*
X129084842Y-82567674D01*
X129051746Y-82492909D01*
X128903571Y-82208886D01*
X128861187Y-82138969D01*
X128677909Y-81876225D01*
X128626928Y-81812297D01*
X128411555Y-81575149D01*
X128352823Y-81518270D01*
X128108893Y-81310609D01*
X128043367Y-81261706D01*
X127774885Y-81086943D01*
X127703643Y-81046820D01*
X127415017Y-80907825D01*
X127339229Y-80877142D01*
X127035197Y-80776197D01*
X126956110Y-80755458D01*
X126656569Y-80697122D01*
X126656561Y-80697120D01*
X126641659Y-80694218D01*
X126560576Y-80683764D01*
X126314396Y-80667958D01*
X126314388Y-80667958D01*
X126240875Y-80663239D01*
X126159119Y-80663239D01*
X125839426Y-80683764D01*
X125758334Y-80694220D01*
X125443891Y-80755458D01*
X125364803Y-80776197D01*
X125060771Y-80877142D01*
X124984983Y-80907825D01*
X124696357Y-81046820D01*
X124625115Y-81086943D01*
X124356633Y-81261706D01*
X124291107Y-81310609D01*
X124047177Y-81518270D01*
X123988445Y-81575149D01*
X123773072Y-81812297D01*
X123722091Y-81876225D01*
X123538813Y-82138969D01*
X123496429Y-82208886D01*
X123348254Y-82492909D01*
X123315158Y-82567674D01*
X123307187Y-82589332D01*
X123204520Y-82868313D01*
X123181255Y-82946698D01*
X123109971Y-83259017D01*
X123096923Y-83339729D01*
X123066161Y-83658600D01*
X123063540Y-83740323D01*
X122992422Y-83740323D01*
X122992422Y-75404901D01*
X122996098Y-75367578D01*
X122992422Y-75330255D01*
X122992422Y-75330245D01*
X122981425Y-75218592D01*
X122937968Y-75075331D01*
X122867396Y-74943302D01*
X122772423Y-74827577D01*
X122743425Y-74803779D01*
X122374855Y-74435209D01*
X122374855Y-74373071D01*
X122335081Y-74173112D01*
X122257060Y-73984754D01*
X122143792Y-73815236D01*
X121999629Y-73671073D01*
X121830111Y-73557805D01*
X121641753Y-73479784D01*
X121441794Y-73440010D01*
X121237916Y-73440010D01*
X121037957Y-73479784D01*
X120849599Y-73557805D01*
X120680081Y-73671073D01*
X120535918Y-73815236D01*
X120422650Y-73984754D01*
X120344629Y-74173112D01*
X120304855Y-74373071D01*
X120304855Y-74576949D01*
X120308674Y-74596149D01*
X120159899Y-74657774D01*
X119990381Y-74771042D01*
X119846218Y-74915205D01*
X119732950Y-75084723D01*
X119654929Y-75273081D01*
X119615155Y-75473040D01*
X119615155Y-75539989D01*
X116137334Y-75539989D01*
X116100011Y-75536313D01*
X116062688Y-75539989D01*
X116062678Y-75539989D01*
X115951025Y-75550986D01*
X115807764Y-75594443D01*
X115675735Y-75665015D01*
X115560010Y-75759988D01*
X115536212Y-75788986D01*
X113954537Y-77370662D01*
X110028329Y-73444455D01*
X110036768Y-73402031D01*
X110036768Y-73198153D01*
X109996994Y-72998194D01*
X109956321Y-72900000D01*
X126936323Y-72900000D01*
X126937495Y-72911898D01*
X126936695Y-72923823D01*
X126944822Y-72986290D01*
X126950997Y-73048986D01*
X126954467Y-73060424D01*
X126956009Y-73072279D01*
X126976164Y-73131951D01*
X126994454Y-73192247D01*
X127000092Y-73202794D01*
X127003915Y-73214114D01*
X127035321Y-73268702D01*
X127065026Y-73324276D01*
X127072611Y-73333518D01*
X127078571Y-73343878D01*
X127120029Y-73391298D01*
X127159999Y-73440001D01*
X127169241Y-73447586D01*
X127177108Y-73456584D01*
X127227028Y-73495010D01*
X127275724Y-73534974D01*
X127286265Y-73540608D01*
X127295739Y-73547901D01*
X127352178Y-73575840D01*
X127407753Y-73605546D01*
X127419201Y-73609019D01*
X127429906Y-73614318D01*
X127490700Y-73630707D01*
X127551014Y-73649003D01*
X127562913Y-73650175D01*
X127574453Y-73653286D01*
X127637298Y-73657501D01*
X127662667Y-73660000D01*
X127674550Y-73660000D01*
X127723823Y-73663305D01*
X127749227Y-73660000D01*
X127819472Y-73660000D01*
X127263838Y-74160071D01*
X127188203Y-74242937D01*
X127110790Y-74371075D01*
X127059863Y-74511854D01*
X127037379Y-74659863D01*
X127044202Y-74809413D01*
X127080069Y-74954759D01*
X127143605Y-75090316D01*
X127232364Y-75210872D01*
X127342937Y-75311797D01*
X127471075Y-75389210D01*
X127611854Y-75440137D01*
X127759863Y-75462621D01*
X127909413Y-75455798D01*
X128054759Y-75419931D01*
X128190316Y-75356395D01*
X128280663Y-75289878D01*
X129812234Y-73911465D01*
X131433743Y-75301330D01*
X131525673Y-75365644D01*
X131662726Y-75425882D01*
X131808898Y-75458223D01*
X131958571Y-75461427D01*
X132105992Y-75435369D01*
X132245498Y-75381053D01*
X132371726Y-75300563D01*
X132479826Y-75196994D01*
X132565644Y-75074325D01*
X132625882Y-74937272D01*
X132658223Y-74791101D01*
X132661427Y-74641428D01*
X132635369Y-74494006D01*
X132581053Y-74354501D01*
X132500563Y-74228273D01*
X132422946Y-74147260D01*
X131854476Y-73660000D01*
X131937333Y-73660000D01*
X131974899Y-73656300D01*
X131984634Y-73656300D01*
X131995187Y-73655191D01*
X132140649Y-73638875D01*
X132208008Y-73624557D01*
X132275599Y-73611174D01*
X132285735Y-73608036D01*
X132425258Y-73563777D01*
X132488590Y-73536633D01*
X132552257Y-73510391D01*
X132561591Y-73505344D01*
X132689860Y-73434827D01*
X132746700Y-73395907D01*
X132804064Y-73357796D01*
X132812240Y-73351032D01*
X132924370Y-73256945D01*
X132972571Y-73207725D01*
X133021449Y-73159186D01*
X133028156Y-73150962D01*
X133119874Y-73036886D01*
X133157603Y-72979229D01*
X133196105Y-72922149D01*
X133201086Y-72912779D01*
X133201091Y-72912772D01*
X133201096Y-72912761D01*
X133268901Y-72783062D01*
X133294696Y-72719219D01*
X133321401Y-72655690D01*
X133324464Y-72645542D01*
X133324466Y-72645537D01*
X133324467Y-72645532D01*
X133365794Y-72505113D01*
X133378700Y-72437456D01*
X133392551Y-72369981D01*
X133393587Y-72359420D01*
X133406854Y-72213649D01*
X133406373Y-72144764D01*
X133406854Y-72075879D01*
X133405818Y-72065319D01*
X133390517Y-71919746D01*
X133376667Y-71852278D01*
X133363760Y-71784614D01*
X133360693Y-71774455D01*
X133317409Y-71634626D01*
X133290716Y-71571126D01*
X133264912Y-71507258D01*
X133259930Y-71497889D01*
X133190311Y-71369131D01*
X133151770Y-71311991D01*
X133114075Y-71254387D01*
X133107373Y-71246169D01*
X133107369Y-71246163D01*
X133107364Y-71246158D01*
X133014067Y-71133380D01*
X132965174Y-71084828D01*
X132916994Y-71035628D01*
X132908818Y-71028864D01*
X132795387Y-70936351D01*
X132737964Y-70898200D01*
X132681178Y-70859317D01*
X132671847Y-70854271D01*
X132671839Y-70854267D01*
X132542603Y-70785551D01*
X132478921Y-70759303D01*
X132415600Y-70732164D01*
X132405463Y-70729026D01*
X132265336Y-70686720D01*
X132197750Y-70673338D01*
X132141593Y-70661401D01*
X132372120Y-70496739D01*
X132456583Y-70422893D01*
X132547901Y-70304262D01*
X132614318Y-70170095D01*
X132653285Y-70025548D01*
X132663304Y-69876177D01*
X132643991Y-69727721D01*
X132596085Y-69585886D01*
X132521429Y-69456122D01*
X132422892Y-69343417D01*
X132304261Y-69252099D01*
X132170094Y-69185682D01*
X132025547Y-69146714D01*
X131876176Y-69136696D01*
X131727720Y-69156009D01*
X131585885Y-69203915D01*
X131488637Y-69259864D01*
X129398315Y-70752951D01*
X129375725Y-70765026D01*
X129337556Y-70796351D01*
X127298318Y-72252949D01*
X127275724Y-72265026D01*
X127237547Y-72296357D01*
X127227880Y-72303262D01*
X127208695Y-72320035D01*
X127159999Y-72359999D01*
X127152415Y-72369241D01*
X127143416Y-72377108D01*
X127104990Y-72427028D01*
X127065026Y-72475724D01*
X127059392Y-72486265D01*
X127052099Y-72495739D01*
X127024160Y-72552178D01*
X126994454Y-72607753D01*
X126990981Y-72619201D01*
X126985682Y-72629906D01*
X126969293Y-72690700D01*
X126950997Y-72751014D01*
X126949825Y-72762913D01*
X126946714Y-72774453D01*
X126942499Y-72837298D01*
X126936323Y-72900000D01*
X109956321Y-72900000D01*
X109918973Y-72809836D01*
X109805705Y-72640318D01*
X109734523Y-72569136D01*
X109842440Y-72461220D01*
X109952853Y-72534995D01*
X110141211Y-72613016D01*
X110341170Y-72652790D01*
X110545048Y-72652790D01*
X110745007Y-72613016D01*
X110933365Y-72534995D01*
X111102883Y-72421727D01*
X111247046Y-72277564D01*
X111360314Y-72108046D01*
X111396918Y-72019676D01*
X111529804Y-71993244D01*
X111718162Y-71915223D01*
X111887680Y-71801955D01*
X112031843Y-71657792D01*
X112145111Y-71488274D01*
X112223132Y-71299916D01*
X112262906Y-71099957D01*
X112262906Y-71085000D01*
X118198810Y-71085000D01*
X118198810Y-69760000D01*
X129217581Y-69760000D01*
X129250000Y-69763193D01*
X129282419Y-69760000D01*
X129379383Y-69750450D01*
X129503793Y-69712710D01*
X129618450Y-69651425D01*
X129718948Y-69568948D01*
X129801425Y-69468450D01*
X129862710Y-69353793D01*
X129900450Y-69229383D01*
X129913193Y-69100000D01*
X129910000Y-69067581D01*
X129910000Y-67769608D01*
X129976458Y-67703150D01*
X130252627Y-68121118D01*
G37*
%TD.AperFunction*%
D27*
X109177000Y-93023000D02*
X109197000Y-93023000D01*
X109197000Y-93277000D01*
X109177000Y-93277000D01*
X109177000Y-93297000D01*
X108923000Y-93297000D01*
X108923000Y-93277000D01*
X108903000Y-93277000D01*
X108903000Y-93023000D01*
X108923000Y-93023000D01*
X108923000Y-93003000D01*
X109177000Y-93003000D01*
X109177000Y-93023000D01*
%TA.AperFunction,Conductor*%
D28*
G36*
X109177000Y-93023000D02*
G01*
X109197000Y-93023000D01*
X109197000Y-93277000D01*
X109177000Y-93277000D01*
X109177000Y-93297000D01*
X108923000Y-93297000D01*
X108923000Y-93277000D01*
X108903000Y-93277000D01*
X108903000Y-93023000D01*
X108923000Y-93023000D01*
X108923000Y-93003000D01*
X109177000Y-93003000D01*
X109177000Y-93023000D01*
G37*
%TD.AperFunction*%
D27*
X117968892Y-81561230D02*
X117968892Y-81623367D01*
X118008666Y-81823326D01*
X118086687Y-82011684D01*
X118199955Y-82181202D01*
X118344118Y-82325365D01*
X118513636Y-82438633D01*
X118701994Y-82516654D01*
X118901953Y-82556428D01*
X119105831Y-82556428D01*
X119305790Y-82516654D01*
X119494148Y-82438633D01*
X119663666Y-82325365D01*
X119807829Y-82181202D01*
X119921097Y-82011684D01*
X119945244Y-81953388D01*
X119971134Y-81970687D01*
X120159492Y-82048708D01*
X120359451Y-82088482D01*
X120426401Y-82088482D01*
X120426401Y-86889967D01*
X109292752Y-86889967D01*
X109460259Y-86778043D01*
X109604422Y-86633880D01*
X109717690Y-86464362D01*
X109795711Y-86276004D01*
X109835485Y-86076045D01*
X109835485Y-85872167D01*
X109795711Y-85672208D01*
X109717690Y-85483850D01*
X109604422Y-85314332D01*
X109560485Y-85270395D01*
X109560485Y-84999536D01*
X109564161Y-84962213D01*
X109560485Y-84924890D01*
X109560485Y-84924881D01*
X109549488Y-84813228D01*
X109506031Y-84669967D01*
X109435459Y-84537938D01*
X109402377Y-84497627D01*
X109402377Y-84427167D01*
X109362603Y-84227208D01*
X109284582Y-84038850D01*
X109171314Y-83869332D01*
X109027151Y-83725169D01*
X108857633Y-83611901D01*
X108669275Y-83533880D01*
X108469316Y-83494106D01*
X108265438Y-83494106D01*
X108065479Y-83533880D01*
X107877121Y-83611901D01*
X107707603Y-83725169D01*
X107563440Y-83869332D01*
X107450172Y-84038850D01*
X107372151Y-84227208D01*
X107332377Y-84427167D01*
X107332377Y-84631045D01*
X107372151Y-84831004D01*
X107450172Y-85019362D01*
X107563440Y-85188880D01*
X107707603Y-85333043D01*
X107877121Y-85446311D01*
X107901590Y-85456447D01*
X107883280Y-85483850D01*
X107805259Y-85672208D01*
X107765485Y-85872167D01*
X107765485Y-86076045D01*
X107805259Y-86276004D01*
X107883280Y-86464362D01*
X107996548Y-86633880D01*
X108140711Y-86778043D01*
X108308218Y-86889967D01*
X106864769Y-86889967D01*
X104464256Y-84489455D01*
X104440453Y-84460451D01*
X104324728Y-84365478D01*
X104192699Y-84294906D01*
X104049438Y-84251449D01*
X103937785Y-84240452D01*
X103937774Y-84240452D01*
X103900452Y-84236776D01*
X103863130Y-84240452D01*
X99611680Y-84240452D01*
X99561434Y-84165253D01*
X99417271Y-84021090D01*
X99247753Y-83907822D01*
X99059395Y-83829801D01*
X98859436Y-83790027D01*
X98655558Y-83790027D01*
X98455599Y-83829801D01*
X98267241Y-83907822D01*
X98097723Y-84021090D01*
X97953560Y-84165253D01*
X97840292Y-84334771D01*
X97762271Y-84523129D01*
X97722497Y-84723088D01*
X97722497Y-84926966D01*
X97762271Y-85126925D01*
X97840292Y-85315283D01*
X97953560Y-85484801D01*
X98097723Y-85628964D01*
X98267241Y-85742232D01*
X98455599Y-85820253D01*
X98655558Y-85860027D01*
X98859436Y-85860027D01*
X99059395Y-85820253D01*
X99203766Y-85760452D01*
X102639990Y-85760452D01*
X102639990Y-85962990D01*
X102679764Y-86162949D01*
X102757785Y-86351307D01*
X102805139Y-86422177D01*
X102758811Y-86491511D01*
X102680790Y-86679869D01*
X102641016Y-86879828D01*
X102641016Y-87083706D01*
X102680790Y-87283665D01*
X102758811Y-87472023D01*
X102872079Y-87641541D01*
X103016242Y-87785704D01*
X103022927Y-87790171D01*
X103017168Y-87795930D01*
X102903900Y-87965448D01*
X102873019Y-88040000D01*
X98898836Y-88040000D01*
X97485010Y-86626175D01*
X97485010Y-86564037D01*
X97445236Y-86364078D01*
X97367215Y-86175720D01*
X97253947Y-86006202D01*
X97109784Y-85862039D01*
X96940266Y-85748771D01*
X96751908Y-85670750D01*
X96551949Y-85630976D01*
X96348071Y-85630976D01*
X96148112Y-85670750D01*
X95959754Y-85748771D01*
X95790236Y-85862039D01*
X95646073Y-86006202D01*
X95532805Y-86175720D01*
X95454784Y-86364078D01*
X95415010Y-86564037D01*
X95415010Y-86767915D01*
X95454784Y-86967874D01*
X95532805Y-87156232D01*
X95615193Y-87279535D01*
X95613634Y-87281869D01*
X95535613Y-87470227D01*
X95495839Y-87670186D01*
X95495839Y-87874064D01*
X95535613Y-88074023D01*
X95613634Y-88262381D01*
X95726902Y-88431899D01*
X95871065Y-88576062D01*
X96040583Y-88689330D01*
X96228941Y-88767351D01*
X96428900Y-88807125D01*
X96491038Y-88807125D01*
X96923913Y-89240000D01*
X93985000Y-89240000D01*
X93985000Y-88973740D01*
X93941210Y-88753593D01*
X94446008Y-88248795D01*
X94475001Y-88225001D01*
X94498795Y-88196008D01*
X94498799Y-88196004D01*
X94569973Y-88109277D01*
X94569974Y-88109276D01*
X94640546Y-87977247D01*
X94684003Y-87833986D01*
X94695000Y-87722333D01*
X94695000Y-87722324D01*
X94698676Y-87685001D01*
X94695000Y-87647678D01*
X94695000Y-81629802D01*
X95164802Y-81160000D01*
X117567663Y-81160000D01*
X117968892Y-81561230D01*
%TA.AperFunction,Conductor*%
D28*
G36*
X117968892Y-81561230D02*
G01*
X117968892Y-81623367D01*
X118008666Y-81823326D01*
X118086687Y-82011684D01*
X118199955Y-82181202D01*
X118344118Y-82325365D01*
X118513636Y-82438633D01*
X118701994Y-82516654D01*
X118901953Y-82556428D01*
X119105831Y-82556428D01*
X119305790Y-82516654D01*
X119494148Y-82438633D01*
X119663666Y-82325365D01*
X119807829Y-82181202D01*
X119921097Y-82011684D01*
X119945244Y-81953388D01*
X119971134Y-81970687D01*
X120159492Y-82048708D01*
X120359451Y-82088482D01*
X120426401Y-82088482D01*
X120426401Y-86889967D01*
X109292752Y-86889967D01*
X109460259Y-86778043D01*
X109604422Y-86633880D01*
X109717690Y-86464362D01*
X109795711Y-86276004D01*
X109835485Y-86076045D01*
X109835485Y-85872167D01*
X109795711Y-85672208D01*
X109717690Y-85483850D01*
X109604422Y-85314332D01*
X109560485Y-85270395D01*
X109560485Y-84999536D01*
X109564161Y-84962213D01*
X109560485Y-84924890D01*
X109560485Y-84924881D01*
X109549488Y-84813228D01*
X109506031Y-84669967D01*
X109435459Y-84537938D01*
X109402377Y-84497627D01*
X109402377Y-84427167D01*
X109362603Y-84227208D01*
X109284582Y-84038850D01*
X109171314Y-83869332D01*
X109027151Y-83725169D01*
X108857633Y-83611901D01*
X108669275Y-83533880D01*
X108469316Y-83494106D01*
X108265438Y-83494106D01*
X108065479Y-83533880D01*
X107877121Y-83611901D01*
X107707603Y-83725169D01*
X107563440Y-83869332D01*
X107450172Y-84038850D01*
X107372151Y-84227208D01*
X107332377Y-84427167D01*
X107332377Y-84631045D01*
X107372151Y-84831004D01*
X107450172Y-85019362D01*
X107563440Y-85188880D01*
X107707603Y-85333043D01*
X107877121Y-85446311D01*
X107901590Y-85456447D01*
X107883280Y-85483850D01*
X107805259Y-85672208D01*
X107765485Y-85872167D01*
X107765485Y-86076045D01*
X107805259Y-86276004D01*
X107883280Y-86464362D01*
X107996548Y-86633880D01*
X108140711Y-86778043D01*
X108308218Y-86889967D01*
X106864769Y-86889967D01*
X104464256Y-84489455D01*
X104440453Y-84460451D01*
X104324728Y-84365478D01*
X104192699Y-84294906D01*
X104049438Y-84251449D01*
X103937785Y-84240452D01*
X103937774Y-84240452D01*
X103900452Y-84236776D01*
X103863130Y-84240452D01*
X99611680Y-84240452D01*
X99561434Y-84165253D01*
X99417271Y-84021090D01*
X99247753Y-83907822D01*
X99059395Y-83829801D01*
X98859436Y-83790027D01*
X98655558Y-83790027D01*
X98455599Y-83829801D01*
X98267241Y-83907822D01*
X98097723Y-84021090D01*
X97953560Y-84165253D01*
X97840292Y-84334771D01*
X97762271Y-84523129D01*
X97722497Y-84723088D01*
X97722497Y-84926966D01*
X97762271Y-85126925D01*
X97840292Y-85315283D01*
X97953560Y-85484801D01*
X98097723Y-85628964D01*
X98267241Y-85742232D01*
X98455599Y-85820253D01*
X98655558Y-85860027D01*
X98859436Y-85860027D01*
X99059395Y-85820253D01*
X99203766Y-85760452D01*
X102639990Y-85760452D01*
X102639990Y-85962990D01*
X102679764Y-86162949D01*
X102757785Y-86351307D01*
X102805139Y-86422177D01*
X102758811Y-86491511D01*
X102680790Y-86679869D01*
X102641016Y-86879828D01*
X102641016Y-87083706D01*
X102680790Y-87283665D01*
X102758811Y-87472023D01*
X102872079Y-87641541D01*
X103016242Y-87785704D01*
X103022927Y-87790171D01*
X103017168Y-87795930D01*
X102903900Y-87965448D01*
X102873019Y-88040000D01*
X98898836Y-88040000D01*
X97485010Y-86626175D01*
X97485010Y-86564037D01*
X97445236Y-86364078D01*
X97367215Y-86175720D01*
X97253947Y-86006202D01*
X97109784Y-85862039D01*
X96940266Y-85748771D01*
X96751908Y-85670750D01*
X96551949Y-85630976D01*
X96348071Y-85630976D01*
X96148112Y-85670750D01*
X95959754Y-85748771D01*
X95790236Y-85862039D01*
X95646073Y-86006202D01*
X95532805Y-86175720D01*
X95454784Y-86364078D01*
X95415010Y-86564037D01*
X95415010Y-86767915D01*
X95454784Y-86967874D01*
X95532805Y-87156232D01*
X95615193Y-87279535D01*
X95613634Y-87281869D01*
X95535613Y-87470227D01*
X95495839Y-87670186D01*
X95495839Y-87874064D01*
X95535613Y-88074023D01*
X95613634Y-88262381D01*
X95726902Y-88431899D01*
X95871065Y-88576062D01*
X96040583Y-88689330D01*
X96228941Y-88767351D01*
X96428900Y-88807125D01*
X96491038Y-88807125D01*
X96923913Y-89240000D01*
X93985000Y-89240000D01*
X93985000Y-88973740D01*
X93941210Y-88753593D01*
X94446008Y-88248795D01*
X94475001Y-88225001D01*
X94498795Y-88196008D01*
X94498799Y-88196004D01*
X94569973Y-88109277D01*
X94569974Y-88109276D01*
X94640546Y-87977247D01*
X94684003Y-87833986D01*
X94695000Y-87722333D01*
X94695000Y-87722324D01*
X94698676Y-87685001D01*
X94695000Y-87647678D01*
X94695000Y-81629802D01*
X95164802Y-81160000D01*
X117567663Y-81160000D01*
X117968892Y-81561230D01*
G37*
%TD.AperFunction*%
D27*
X100590001Y-68615199D02*
X98435000Y-66460199D01*
X98435000Y-66398061D01*
X98395226Y-66198102D01*
X98317205Y-66009744D01*
X98203937Y-65840226D01*
X98059774Y-65696063D01*
X97890256Y-65582795D01*
X97701898Y-65504774D01*
X97501939Y-65465000D01*
X97298061Y-65465000D01*
X97098102Y-65504774D01*
X96909744Y-65582795D01*
X96740226Y-65696063D01*
X96596063Y-65840226D01*
X96482795Y-66009744D01*
X96404774Y-66198102D01*
X96365000Y-66398061D01*
X96365000Y-66601939D01*
X96404774Y-66801898D01*
X96482795Y-66990256D01*
X96556123Y-67100000D01*
X96482795Y-67209744D01*
X96404774Y-67398102D01*
X96365000Y-67598061D01*
X96365000Y-67801939D01*
X96404774Y-68001898D01*
X96482795Y-68190256D01*
X96556123Y-68300000D01*
X96482795Y-68409744D01*
X96404774Y-68598102D01*
X96365000Y-68798061D01*
X96365000Y-69001939D01*
X96404774Y-69201898D01*
X96451784Y-69315389D01*
X96166842Y-69372068D01*
X95896589Y-69484010D01*
X95653368Y-69646525D01*
X95446525Y-69853368D01*
X95284010Y-70096589D01*
X95172068Y-70366842D01*
X95115000Y-70653740D01*
X95115000Y-70946260D01*
X95172068Y-71233158D01*
X95284010Y-71503411D01*
X95446525Y-71746632D01*
X95653368Y-71953475D01*
X95896589Y-72115990D01*
X96166842Y-72227932D01*
X96453740Y-72285000D01*
X96746260Y-72285000D01*
X96966408Y-72241209D01*
X99053295Y-74328097D01*
X99077093Y-74357095D01*
X99192818Y-74452068D01*
X99324847Y-74522640D01*
X99468108Y-74566097D01*
X99579761Y-74577094D01*
X99579770Y-74577094D01*
X99617093Y-74580770D01*
X99654416Y-74577094D01*
X104449697Y-74577094D01*
X104493634Y-74621031D01*
X104663152Y-74734299D01*
X104851510Y-74812320D01*
X105051469Y-74852094D01*
X105255347Y-74852094D01*
X105455306Y-74812320D01*
X105643664Y-74734299D01*
X105813182Y-74621031D01*
X105957345Y-74476868D01*
X106070613Y-74307350D01*
X106148634Y-74118992D01*
X106188408Y-73919033D01*
X106188408Y-73810011D01*
X108097701Y-73810011D01*
X108197831Y-73959866D01*
X108341994Y-74104029D01*
X108511512Y-74217297D01*
X108699870Y-74295318D01*
X108736969Y-74302697D01*
X112274227Y-77839956D01*
X97164758Y-77839956D01*
X93963803Y-74639002D01*
X93940000Y-74609998D01*
X93839232Y-74527300D01*
X93927932Y-74313158D01*
X93985000Y-74026260D01*
X93985000Y-73733740D01*
X93927932Y-73446842D01*
X93815990Y-73176589D01*
X93653475Y-72933368D01*
X93446632Y-72726525D01*
X93203411Y-72564010D01*
X92933158Y-72452068D01*
X92646260Y-72395000D01*
X92353740Y-72395000D01*
X92066842Y-72452068D01*
X91796589Y-72564010D01*
X91553368Y-72726525D01*
X91346525Y-72933368D01*
X91184010Y-73176589D01*
X91072068Y-73446842D01*
X91015000Y-73733740D01*
X91015000Y-74026260D01*
X91072068Y-74313158D01*
X91119900Y-74428636D01*
X91067756Y-74444453D01*
X90935726Y-74515025D01*
X90860272Y-74576949D01*
X90820002Y-74609998D01*
X90796203Y-74638997D01*
X90660000Y-74775200D01*
X90660000Y-67980931D01*
X90752627Y-68121118D01*
X91297557Y-68411649D01*
X91888696Y-68590287D01*
X92503328Y-68650168D01*
X93117831Y-68588990D01*
X93708592Y-68409103D01*
X94247373Y-68121118D01*
X94523543Y-67703148D01*
X92500000Y-65679605D01*
X92485858Y-65693748D01*
X92306253Y-65514143D01*
X92320395Y-65500000D01*
X92306253Y-65485858D01*
X92485858Y-65306253D01*
X92500000Y-65320395D01*
X92514143Y-65306253D01*
X92693748Y-65485858D01*
X92679605Y-65500000D01*
X94703148Y-67523543D01*
X95121118Y-67247373D01*
X95411649Y-66702443D01*
X95590287Y-66111304D01*
X95650168Y-65496672D01*
X95588990Y-64882169D01*
X95409103Y-64291408D01*
X95121118Y-63752627D01*
X94980931Y-63660000D01*
X100590000Y-63660000D01*
X100590001Y-68615199D01*
%TA.AperFunction,Conductor*%
D28*
G36*
X100590001Y-68615199D02*
G01*
X98435000Y-66460199D01*
X98435000Y-66398061D01*
X98395226Y-66198102D01*
X98317205Y-66009744D01*
X98203937Y-65840226D01*
X98059774Y-65696063D01*
X97890256Y-65582795D01*
X97701898Y-65504774D01*
X97501939Y-65465000D01*
X97298061Y-65465000D01*
X97098102Y-65504774D01*
X96909744Y-65582795D01*
X96740226Y-65696063D01*
X96596063Y-65840226D01*
X96482795Y-66009744D01*
X96404774Y-66198102D01*
X96365000Y-66398061D01*
X96365000Y-66601939D01*
X96404774Y-66801898D01*
X96482795Y-66990256D01*
X96556123Y-67100000D01*
X96482795Y-67209744D01*
X96404774Y-67398102D01*
X96365000Y-67598061D01*
X96365000Y-67801939D01*
X96404774Y-68001898D01*
X96482795Y-68190256D01*
X96556123Y-68300000D01*
X96482795Y-68409744D01*
X96404774Y-68598102D01*
X96365000Y-68798061D01*
X96365000Y-69001939D01*
X96404774Y-69201898D01*
X96451784Y-69315389D01*
X96166842Y-69372068D01*
X95896589Y-69484010D01*
X95653368Y-69646525D01*
X95446525Y-69853368D01*
X95284010Y-70096589D01*
X95172068Y-70366842D01*
X95115000Y-70653740D01*
X95115000Y-70946260D01*
X95172068Y-71233158D01*
X95284010Y-71503411D01*
X95446525Y-71746632D01*
X95653368Y-71953475D01*
X95896589Y-72115990D01*
X96166842Y-72227932D01*
X96453740Y-72285000D01*
X96746260Y-72285000D01*
X96966408Y-72241209D01*
X99053295Y-74328097D01*
X99077093Y-74357095D01*
X99192818Y-74452068D01*
X99324847Y-74522640D01*
X99468108Y-74566097D01*
X99579761Y-74577094D01*
X99579770Y-74577094D01*
X99617093Y-74580770D01*
X99654416Y-74577094D01*
X104449697Y-74577094D01*
X104493634Y-74621031D01*
X104663152Y-74734299D01*
X104851510Y-74812320D01*
X105051469Y-74852094D01*
X105255347Y-74852094D01*
X105455306Y-74812320D01*
X105643664Y-74734299D01*
X105813182Y-74621031D01*
X105957345Y-74476868D01*
X106070613Y-74307350D01*
X106148634Y-74118992D01*
X106188408Y-73919033D01*
X106188408Y-73810011D01*
X108097701Y-73810011D01*
X108197831Y-73959866D01*
X108341994Y-74104029D01*
X108511512Y-74217297D01*
X108699870Y-74295318D01*
X108736969Y-74302697D01*
X112274227Y-77839956D01*
X97164758Y-77839956D01*
X93963803Y-74639002D01*
X93940000Y-74609998D01*
X93839232Y-74527300D01*
X93927932Y-74313158D01*
X93985000Y-74026260D01*
X93985000Y-73733740D01*
X93927932Y-73446842D01*
X93815990Y-73176589D01*
X93653475Y-72933368D01*
X93446632Y-72726525D01*
X93203411Y-72564010D01*
X92933158Y-72452068D01*
X92646260Y-72395000D01*
X92353740Y-72395000D01*
X92066842Y-72452068D01*
X91796589Y-72564010D01*
X91553368Y-72726525D01*
X91346525Y-72933368D01*
X91184010Y-73176589D01*
X91072068Y-73446842D01*
X91015000Y-73733740D01*
X91015000Y-74026260D01*
X91072068Y-74313158D01*
X91119900Y-74428636D01*
X91067756Y-74444453D01*
X90935726Y-74515025D01*
X90860272Y-74576949D01*
X90820002Y-74609998D01*
X90796203Y-74638997D01*
X90660000Y-74775200D01*
X90660000Y-67980931D01*
X90752627Y-68121118D01*
X91297557Y-68411649D01*
X91888696Y-68590287D01*
X92503328Y-68650168D01*
X93117831Y-68588990D01*
X93708592Y-68409103D01*
X94247373Y-68121118D01*
X94523543Y-67703148D01*
X92500000Y-65679605D01*
X92485858Y-65693748D01*
X92306253Y-65514143D01*
X92320395Y-65500000D01*
X92306253Y-65485858D01*
X92485858Y-65306253D01*
X92500000Y-65320395D01*
X92514143Y-65306253D01*
X92693748Y-65485858D01*
X92679605Y-65500000D01*
X94703148Y-67523543D01*
X95121118Y-67247373D01*
X95411649Y-66702443D01*
X95590287Y-66111304D01*
X95650168Y-65496672D01*
X95588990Y-64882169D01*
X95409103Y-64291408D01*
X95121118Y-63752627D01*
X94980931Y-63660000D01*
X100590000Y-63660000D01*
X100590001Y-68615199D01*
G37*
%TD.AperFunction*%
D27*
X92693748Y-76405858D02*
X92679605Y-76420000D01*
X92693748Y-76434143D01*
X92514143Y-76613748D01*
X92500000Y-76599605D01*
X92485858Y-76613748D01*
X92306253Y-76434143D01*
X92320395Y-76420000D01*
X92306253Y-76405858D01*
X92485858Y-76226253D01*
X92500000Y-76240395D01*
X92514143Y-76226253D01*
X92693748Y-76405858D01*
%TA.AperFunction,Conductor*%
D28*
G36*
X92693748Y-76405858D02*
G01*
X92679605Y-76420000D01*
X92693748Y-76434143D01*
X92514143Y-76613748D01*
X92500000Y-76599605D01*
X92485858Y-76613748D01*
X92306253Y-76434143D01*
X92320395Y-76420000D01*
X92306253Y-76405858D01*
X92485858Y-76226253D01*
X92500000Y-76240395D01*
X92514143Y-76226253D01*
X92693748Y-76405858D01*
G37*
%TD.AperFunction*%
D27*
X99333748Y-70785858D02*
X99319605Y-70800000D01*
X99333748Y-70814143D01*
X99154143Y-70993748D01*
X99140000Y-70979605D01*
X99125858Y-70993748D01*
X98946253Y-70814143D01*
X98960395Y-70800000D01*
X98946253Y-70785858D01*
X99125858Y-70606253D01*
X99140000Y-70620395D01*
X99154143Y-70606253D01*
X99333748Y-70785858D01*
%TA.AperFunction,Conductor*%
D28*
G36*
X99333748Y-70785858D02*
G01*
X99319605Y-70800000D01*
X99333748Y-70814143D01*
X99154143Y-70993748D01*
X99140000Y-70979605D01*
X99125858Y-70993748D01*
X98946253Y-70814143D01*
X98960395Y-70800000D01*
X98946253Y-70785858D01*
X99125858Y-70606253D01*
X99140000Y-70620395D01*
X99154143Y-70606253D01*
X99333748Y-70785858D01*
G37*
%TD.AperFunction*%
D27*
X132193748Y-65485858D02*
X132179605Y-65500000D01*
X132193748Y-65514143D01*
X132014143Y-65693748D01*
X132000000Y-65679605D01*
X131985858Y-65693748D01*
X131806253Y-65514143D01*
X131820395Y-65500000D01*
X131806253Y-65485858D01*
X131985858Y-65306253D01*
X132000000Y-65320395D01*
X132014143Y-65306253D01*
X132193748Y-65485858D01*
%TA.AperFunction,Conductor*%
D28*
G36*
X132193748Y-65485858D02*
G01*
X132179605Y-65500000D01*
X132193748Y-65514143D01*
X132014143Y-65693748D01*
X132000000Y-65679605D01*
X131985858Y-65693748D01*
X131806253Y-65514143D01*
X131820395Y-65500000D01*
X131806253Y-65485858D01*
X131985858Y-65306253D01*
X132000000Y-65320395D01*
X132014143Y-65306253D01*
X132193748Y-65485858D01*
G37*
%TD.AperFunction*%
%TD*%
M02*
