%TF.GenerationSoftware,KiCad,Pcbnew,(5.1.9-0-10_14)*%
%TF.CreationDate,2021-03-09T10:31:21+00:00*%
%TF.ProjectId,OLED,4f4c4544-2e6b-4696-9361-645f70636258,rev?*%
%TF.SameCoordinates,Original*%
%TF.FileFunction,Copper,L2,Bot*%
%TF.FilePolarity,Positive*%
%FSLAX46Y46*%
G04 Gerber Fmt 4.6, Leading zero omitted, Abs format (unit mm)*
G04 Created by KiCad (PCBNEW (5.1.9-0-10_14)) date 2021-03-09 10:31:21*
%MOMM*%
%LPD*%
G01*
G04 APERTURE LIST*
%TA.AperFunction,NonConductor*%
%ADD10C,0.300000*%
%TD*%
%TA.AperFunction,EtchedComponent*%
%ADD11C,0.200000*%
%TD*%
%TA.AperFunction,ComponentPad*%
%ADD12C,2.000000*%
%TD*%
%TA.AperFunction,ComponentPad*%
%ADD13R,2.000000X2.000000*%
%TD*%
%TA.AperFunction,ComponentPad*%
%ADD14C,5.000000*%
%TD*%
%TA.AperFunction,ComponentPad*%
%ADD15C,1.700000*%
%TD*%
%TA.AperFunction,ComponentPad*%
%ADD16R,1.524000X1.524000*%
%TD*%
%TA.AperFunction,ComponentPad*%
%ADD17O,1.700000X1.850000*%
%TD*%
%TA.AperFunction,ComponentPad*%
%ADD18C,0.600000*%
%TD*%
%TA.AperFunction,ViaPad*%
%ADD19C,0.800000*%
%TD*%
%TA.AperFunction,Conductor*%
%ADD20C,0.250000*%
%TD*%
%TA.AperFunction,Conductor*%
%ADD21C,0.254000*%
%TD*%
%TA.AperFunction,Conductor*%
%ADD22C,0.100000*%
%TD*%
G04 APERTURE END LIST*
D10*
X129678571Y-74464285D02*
X130678571Y-74750000D01*
X129964285Y-75035714D01*
X130678571Y-75321428D01*
X129678571Y-75607142D01*
X129678571Y-76035714D02*
X130678571Y-76321428D01*
X129964285Y-76607142D01*
X130678571Y-76892857D01*
X129678571Y-77178571D01*
X129678571Y-77607142D02*
X130678571Y-77892857D01*
X129964285Y-78178571D01*
X130678571Y-78464285D01*
X129678571Y-78750000D01*
X130535714Y-79321428D02*
X130607142Y-79392857D01*
X130678571Y-79321428D01*
X130607142Y-79250000D01*
X130535714Y-79321428D01*
X130678571Y-79321428D01*
X130678571Y-80035714D02*
X129678571Y-80035714D01*
X129821428Y-80035714D02*
X129750000Y-80107142D01*
X129678571Y-80250000D01*
X129678571Y-80464285D01*
X129750000Y-80607142D01*
X129892857Y-80678571D01*
X130678571Y-80678571D01*
X129892857Y-80678571D02*
X129750000Y-80750000D01*
X129678571Y-80892857D01*
X129678571Y-81107142D01*
X129750000Y-81250000D01*
X129892857Y-81321428D01*
X130678571Y-81321428D01*
X130607142Y-82607142D02*
X130678571Y-82464285D01*
X130678571Y-82178571D01*
X130607142Y-82035714D01*
X130464285Y-81964285D01*
X129892857Y-81964285D01*
X129750000Y-82035714D01*
X129678571Y-82178571D01*
X129678571Y-82464285D01*
X129750000Y-82607142D01*
X129892857Y-82678571D01*
X130035714Y-82678571D01*
X130178571Y-81964285D01*
X130535714Y-83321428D02*
X130607142Y-83392857D01*
X130678571Y-83321428D01*
X130607142Y-83250000D01*
X130535714Y-83321428D01*
X130678571Y-83321428D01*
X129678571Y-84678571D02*
X130678571Y-84678571D01*
X129678571Y-84035714D02*
X130464285Y-84035714D01*
X130607142Y-84107142D01*
X130678571Y-84250000D01*
X130678571Y-84464285D01*
X130607142Y-84607142D01*
X130535714Y-84678571D01*
X130678571Y-85392857D02*
X129178571Y-85392857D01*
X130107142Y-85535714D02*
X130678571Y-85964285D01*
X129678571Y-85964285D02*
X130250000Y-85392857D01*
D11*
%TO.C,REF\u002A\u002A*%
X127314120Y-89232350D02*
X130255300Y-93350000D01*
X130255300Y-89232350D02*
X130039938Y-88712421D01*
X130255300Y-93350000D02*
X130255300Y-89232350D01*
X129520006Y-88497060D02*
X129000074Y-88712421D01*
X130039938Y-88712421D02*
X129520006Y-88497060D01*
X129000074Y-88712421D02*
X128784712Y-89232350D01*
X130255290Y-91291180D02*
X132020000Y-89232350D01*
X130255300Y-91291000D02*
X128784700Y-91291000D01*
X132020000Y-93350000D02*
X130255290Y-91291180D01*
%TD*%
D12*
%TO.P,J2,2*%
%TO.N,Net-(J1-PadA4)*%
X91710000Y-91750000D03*
D13*
%TO.P,J2,1*%
%TO.N,GND*%
X94250000Y-91750000D03*
%TD*%
D14*
%TO.P,M2,S*%
%TO.N,GND*%
X92500000Y-65500000D03*
X92500000Y-97500000D03*
X132000000Y-97500000D03*
X132000000Y-65500000D03*
D15*
%TO.P,M2,7*%
%TO.N,OLED-RST*%
X92500000Y-89120000D03*
%TO.P,M2,6*%
%TO.N,OLED-DC*%
X92500000Y-86580000D03*
%TO.P,M2,5*%
%TO.N,OLED-CS0*%
X92500000Y-84040000D03*
%TO.P,M2,4*%
%TO.N,OLED-SCLK*%
X92500000Y-81500000D03*
%TO.P,M2,3*%
%TO.N,OLED-MOSI*%
X92500000Y-78960000D03*
%TO.P,M2,2*%
%TO.N,GND*%
X92500000Y-76420000D03*
%TO.P,M2,1*%
%TO.N,+3V3*%
X92500000Y-73880000D03*
%TD*%
%TO.P,R9,2*%
%TO.N,+3V3*%
%TA.AperFunction,SMDPad,CuDef*%
G36*
G01*
X125925000Y-97850000D02*
X127175000Y-97850000D01*
G75*
G02*
X127425000Y-98100000I0J-250000D01*
G01*
X127425000Y-98900000D01*
G75*
G02*
X127175000Y-99150000I-250000J0D01*
G01*
X125925000Y-99150000D01*
G75*
G02*
X125675000Y-98900000I0J250000D01*
G01*
X125675000Y-98100000D01*
G75*
G02*
X125925000Y-97850000I250000J0D01*
G01*
G37*
%TD.AperFunction*%
%TO.P,R9,1*%
%TO.N,IO7*%
%TA.AperFunction,SMDPad,CuDef*%
G36*
G01*
X125925000Y-94750000D02*
X127175000Y-94750000D01*
G75*
G02*
X127425000Y-95000000I0J-250000D01*
G01*
X127425000Y-95800000D01*
G75*
G02*
X127175000Y-96050000I-250000J0D01*
G01*
X125925000Y-96050000D01*
G75*
G02*
X125675000Y-95800000I0J250000D01*
G01*
X125675000Y-95000000D01*
G75*
G02*
X125925000Y-94750000I250000J0D01*
G01*
G37*
%TD.AperFunction*%
%TD*%
%TO.P,R8,2*%
%TO.N,+3V3*%
%TA.AperFunction,SMDPad,CuDef*%
G36*
G01*
X123425000Y-97850000D02*
X124675000Y-97850000D01*
G75*
G02*
X124925000Y-98100000I0J-250000D01*
G01*
X124925000Y-98900000D01*
G75*
G02*
X124675000Y-99150000I-250000J0D01*
G01*
X123425000Y-99150000D01*
G75*
G02*
X123175000Y-98900000I0J250000D01*
G01*
X123175000Y-98100000D01*
G75*
G02*
X123425000Y-97850000I250000J0D01*
G01*
G37*
%TD.AperFunction*%
%TO.P,R8,1*%
%TO.N,IO6*%
%TA.AperFunction,SMDPad,CuDef*%
G36*
G01*
X123425000Y-94750000D02*
X124675000Y-94750000D01*
G75*
G02*
X124925000Y-95000000I0J-250000D01*
G01*
X124925000Y-95800000D01*
G75*
G02*
X124675000Y-96050000I-250000J0D01*
G01*
X123425000Y-96050000D01*
G75*
G02*
X123175000Y-95800000I0J250000D01*
G01*
X123175000Y-95000000D01*
G75*
G02*
X123425000Y-94750000I250000J0D01*
G01*
G37*
%TD.AperFunction*%
%TD*%
%TO.P,R7,2*%
%TO.N,+3V3*%
%TA.AperFunction,SMDPad,CuDef*%
G36*
G01*
X120925000Y-97850000D02*
X122175000Y-97850000D01*
G75*
G02*
X122425000Y-98100000I0J-250000D01*
G01*
X122425000Y-98900000D01*
G75*
G02*
X122175000Y-99150000I-250000J0D01*
G01*
X120925000Y-99150000D01*
G75*
G02*
X120675000Y-98900000I0J250000D01*
G01*
X120675000Y-98100000D01*
G75*
G02*
X120925000Y-97850000I250000J0D01*
G01*
G37*
%TD.AperFunction*%
%TO.P,R7,1*%
%TO.N,IO5*%
%TA.AperFunction,SMDPad,CuDef*%
G36*
G01*
X120925000Y-94750000D02*
X122175000Y-94750000D01*
G75*
G02*
X122425000Y-95000000I0J-250000D01*
G01*
X122425000Y-95800000D01*
G75*
G02*
X122175000Y-96050000I-250000J0D01*
G01*
X120925000Y-96050000D01*
G75*
G02*
X120675000Y-95800000I0J250000D01*
G01*
X120675000Y-95000000D01*
G75*
G02*
X120925000Y-94750000I250000J0D01*
G01*
G37*
%TD.AperFunction*%
%TD*%
%TO.P,R6,2*%
%TO.N,+3V3*%
%TA.AperFunction,SMDPad,CuDef*%
G36*
G01*
X118425000Y-97850000D02*
X119675000Y-97850000D01*
G75*
G02*
X119925000Y-98100000I0J-250000D01*
G01*
X119925000Y-98900000D01*
G75*
G02*
X119675000Y-99150000I-250000J0D01*
G01*
X118425000Y-99150000D01*
G75*
G02*
X118175000Y-98900000I0J250000D01*
G01*
X118175000Y-98100000D01*
G75*
G02*
X118425000Y-97850000I250000J0D01*
G01*
G37*
%TD.AperFunction*%
%TO.P,R6,1*%
%TO.N,IO4*%
%TA.AperFunction,SMDPad,CuDef*%
G36*
G01*
X118425000Y-94750000D02*
X119675000Y-94750000D01*
G75*
G02*
X119925000Y-95000000I0J-250000D01*
G01*
X119925000Y-95800000D01*
G75*
G02*
X119675000Y-96050000I-250000J0D01*
G01*
X118425000Y-96050000D01*
G75*
G02*
X118175000Y-95800000I0J250000D01*
G01*
X118175000Y-95000000D01*
G75*
G02*
X118425000Y-94750000I250000J0D01*
G01*
G37*
%TD.AperFunction*%
%TD*%
%TO.P,R5,2*%
%TO.N,+3V3*%
%TA.AperFunction,SMDPad,CuDef*%
G36*
G01*
X115925000Y-97850000D02*
X117175000Y-97850000D01*
G75*
G02*
X117425000Y-98100000I0J-250000D01*
G01*
X117425000Y-98900000D01*
G75*
G02*
X117175000Y-99150000I-250000J0D01*
G01*
X115925000Y-99150000D01*
G75*
G02*
X115675000Y-98900000I0J250000D01*
G01*
X115675000Y-98100000D01*
G75*
G02*
X115925000Y-97850000I250000J0D01*
G01*
G37*
%TD.AperFunction*%
%TO.P,R5,1*%
%TO.N,IO3*%
%TA.AperFunction,SMDPad,CuDef*%
G36*
G01*
X115925000Y-94750000D02*
X117175000Y-94750000D01*
G75*
G02*
X117425000Y-95000000I0J-250000D01*
G01*
X117425000Y-95800000D01*
G75*
G02*
X117175000Y-96050000I-250000J0D01*
G01*
X115925000Y-96050000D01*
G75*
G02*
X115675000Y-95800000I0J250000D01*
G01*
X115675000Y-95000000D01*
G75*
G02*
X115925000Y-94750000I250000J0D01*
G01*
G37*
%TD.AperFunction*%
%TD*%
%TO.P,R4,2*%
%TO.N,+3V3*%
%TA.AperFunction,SMDPad,CuDef*%
G36*
G01*
X113425000Y-97850000D02*
X114675000Y-97850000D01*
G75*
G02*
X114925000Y-98100000I0J-250000D01*
G01*
X114925000Y-98900000D01*
G75*
G02*
X114675000Y-99150000I-250000J0D01*
G01*
X113425000Y-99150000D01*
G75*
G02*
X113175000Y-98900000I0J250000D01*
G01*
X113175000Y-98100000D01*
G75*
G02*
X113425000Y-97850000I250000J0D01*
G01*
G37*
%TD.AperFunction*%
%TO.P,R4,1*%
%TO.N,IO2*%
%TA.AperFunction,SMDPad,CuDef*%
G36*
G01*
X113425000Y-94750000D02*
X114675000Y-94750000D01*
G75*
G02*
X114925000Y-95000000I0J-250000D01*
G01*
X114925000Y-95800000D01*
G75*
G02*
X114675000Y-96050000I-250000J0D01*
G01*
X113425000Y-96050000D01*
G75*
G02*
X113175000Y-95800000I0J250000D01*
G01*
X113175000Y-95000000D01*
G75*
G02*
X113425000Y-94750000I250000J0D01*
G01*
G37*
%TD.AperFunction*%
%TD*%
%TO.P,R3,2*%
%TO.N,+3V3*%
%TA.AperFunction,SMDPad,CuDef*%
G36*
G01*
X110925000Y-97850000D02*
X112175000Y-97850000D01*
G75*
G02*
X112425000Y-98100000I0J-250000D01*
G01*
X112425000Y-98900000D01*
G75*
G02*
X112175000Y-99150000I-250000J0D01*
G01*
X110925000Y-99150000D01*
G75*
G02*
X110675000Y-98900000I0J250000D01*
G01*
X110675000Y-98100000D01*
G75*
G02*
X110925000Y-97850000I250000J0D01*
G01*
G37*
%TD.AperFunction*%
%TO.P,R3,1*%
%TO.N,IO1*%
%TA.AperFunction,SMDPad,CuDef*%
G36*
G01*
X110925000Y-94750000D02*
X112175000Y-94750000D01*
G75*
G02*
X112425000Y-95000000I0J-250000D01*
G01*
X112425000Y-95800000D01*
G75*
G02*
X112175000Y-96050000I-250000J0D01*
G01*
X110925000Y-96050000D01*
G75*
G02*
X110675000Y-95800000I0J250000D01*
G01*
X110675000Y-95000000D01*
G75*
G02*
X110925000Y-94750000I250000J0D01*
G01*
G37*
%TD.AperFunction*%
%TD*%
%TO.P,M3,4*%
%TO.N,CO2-SDA*%
X99020000Y-71650000D03*
%TO.P,M3,3*%
%TO.N,CO2-SCL*%
X96480000Y-71650000D03*
%TO.P,M3,2*%
%TO.N,GND*%
X93940000Y-71650000D03*
%TO.P,M3,1*%
%TO.N,+3V3*%
X91400000Y-71650000D03*
%TD*%
%TO.P,R2,2*%
%TO.N,GND*%
%TA.AperFunction,SMDPad,CuDef*%
G36*
G01*
X97865000Y-97950000D02*
X99115000Y-97950000D01*
G75*
G02*
X99365000Y-98200000I0J-250000D01*
G01*
X99365000Y-99000000D01*
G75*
G02*
X99115000Y-99250000I-250000J0D01*
G01*
X97865000Y-99250000D01*
G75*
G02*
X97615000Y-99000000I0J250000D01*
G01*
X97615000Y-98200000D01*
G75*
G02*
X97865000Y-97950000I250000J0D01*
G01*
G37*
%TD.AperFunction*%
%TO.P,R2,1*%
%TO.N,Net-(J1-PadA5)*%
%TA.AperFunction,SMDPad,CuDef*%
G36*
G01*
X97865000Y-94850000D02*
X99115000Y-94850000D01*
G75*
G02*
X99365000Y-95100000I0J-250000D01*
G01*
X99365000Y-95900000D01*
G75*
G02*
X99115000Y-96150000I-250000J0D01*
G01*
X97865000Y-96150000D01*
G75*
G02*
X97615000Y-95900000I0J250000D01*
G01*
X97615000Y-95100000D01*
G75*
G02*
X97865000Y-94850000I250000J0D01*
G01*
G37*
%TD.AperFunction*%
%TD*%
%TO.P,R1,2*%
%TO.N,GND*%
%TA.AperFunction,SMDPad,CuDef*%
G36*
G01*
X100405000Y-97950000D02*
X101655000Y-97950000D01*
G75*
G02*
X101905000Y-98200000I0J-250000D01*
G01*
X101905000Y-99000000D01*
G75*
G02*
X101655000Y-99250000I-250000J0D01*
G01*
X100405000Y-99250000D01*
G75*
G02*
X100155000Y-99000000I0J250000D01*
G01*
X100155000Y-98200000D01*
G75*
G02*
X100405000Y-97950000I250000J0D01*
G01*
G37*
%TD.AperFunction*%
%TO.P,R1,1*%
%TO.N,Net-(J1-PadB5)*%
%TA.AperFunction,SMDPad,CuDef*%
G36*
G01*
X100405000Y-94850000D02*
X101655000Y-94850000D01*
G75*
G02*
X101905000Y-95100000I0J-250000D01*
G01*
X101905000Y-95900000D01*
G75*
G02*
X101655000Y-96150000I-250000J0D01*
G01*
X100405000Y-96150000D01*
G75*
G02*
X100155000Y-95900000I0J250000D01*
G01*
X100155000Y-95100000D01*
G75*
G02*
X100405000Y-94850000I250000J0D01*
G01*
G37*
%TD.AperFunction*%
%TD*%
%TO.P,M1,4*%
%TO.N,+3V3*%
X102560000Y-84230000D03*
D16*
%TO.P,M1,3*%
%TO.N,GND*%
X100020000Y-84230000D03*
D15*
%TO.P,M1,2*%
%TO.N,Net-(J1-PadA4)*%
X97480000Y-84230000D03*
%TD*%
D17*
%TO.P,J3,8*%
%TO.N,IO7*%
X126550000Y-93150000D03*
%TO.P,J3,7*%
%TO.N,IO6*%
X124050000Y-93150000D03*
%TO.P,J3,6*%
%TO.N,IO5*%
X121550000Y-93150000D03*
%TO.P,J3,5*%
%TO.N,IO4*%
X119050000Y-93150000D03*
%TO.P,J3,4*%
%TO.N,IO3*%
X116550000Y-93150000D03*
%TO.P,J3,3*%
%TO.N,IO2*%
X114050000Y-93150000D03*
%TO.P,J3,2*%
%TO.N,IO1*%
X111550000Y-93150000D03*
%TO.P,J3,1*%
%TO.N,GND*%
%TA.AperFunction,ComponentPad*%
G36*
G01*
X108200000Y-93825000D02*
X108200000Y-92475000D01*
G75*
G02*
X108450000Y-92225000I250000J0D01*
G01*
X109650000Y-92225000D01*
G75*
G02*
X109900000Y-92475000I0J-250000D01*
G01*
X109900000Y-93825000D01*
G75*
G02*
X109650000Y-94075000I-250000J0D01*
G01*
X108450000Y-94075000D01*
G75*
G02*
X108200000Y-93825000I0J250000D01*
G01*
G37*
%TD.AperFunction*%
%TD*%
D15*
%TO.P,J1,S1*%
%TO.N,GND*%
X104075000Y-97905000D03*
X95425000Y-97905000D03*
D12*
X104075000Y-93725000D03*
X95425000Y-93725000D03*
D18*
X102640000Y-94205000D03*
X96860000Y-94205000D03*
%TD*%
D19*
%TO.N,Net-(J1-PadA7)*%
X101831940Y-90631165D03*
X98398044Y-91499259D03*
%TO.N,Net-(J1-PadA6)*%
X100950065Y-91899960D03*
X99396733Y-91447838D03*
%TO.N,Net-(J1-PadA5)*%
X97400976Y-91575940D03*
%TO.N,Net-(J1-PadB5)*%
X102272627Y-91964988D03*
%TO.N,Net-(U1-Pad16)*%
X98750000Y-85750000D03*
X109750000Y-74975010D03*
%TO.N,Net-(U1-Pad15)*%
X120524990Y-75750000D03*
X102547218Y-86130011D03*
%TO.N,Net-(U1-Pad14)*%
X123634841Y-88134841D03*
X101500000Y-86500000D03*
%TO.N,Net-(U1-Pad2)*%
X121250000Y-74250000D03*
X96786210Y-87989109D03*
%TO.N,GND*%
X97200843Y-88935633D03*
%TO.N,+3V3*%
X110000000Y-98500000D03*
%TO.N,OLED-RST*%
X105500000Y-84500000D03*
%TO.N,OLED-DC*%
X105975010Y-83262660D03*
%TO.N,OLED-CS0*%
X119750000Y-83250000D03*
%TO.N,OLED-SCLK*%
X108792885Y-81542885D03*
%TO.N,OLED-MOSI*%
X110750000Y-79250000D03*
%TO.N,CO2-SDA*%
X105250000Y-76750000D03*
%TO.N,CO2-SCL*%
X105500000Y-78250000D03*
%TD*%
D20*
%TO.N,Net-(J1-PadA7)*%
X98568245Y-90631165D02*
X98398044Y-90801366D01*
X101831940Y-90631165D02*
X98568245Y-90631165D01*
X98398044Y-90801366D02*
X98398044Y-91499259D01*
%TO.N,Net-(J1-PadA6)*%
X100950065Y-91899960D02*
X99848855Y-91899960D01*
X99848855Y-91899960D02*
X99396733Y-91447838D01*
%TO.N,Net-(J1-PadA5)*%
X98490000Y-95500000D02*
X98490000Y-92664964D01*
X98490000Y-92664964D02*
X97400976Y-91575940D01*
%TO.N,Net-(J1-PadB5)*%
X101030000Y-95500000D02*
X101030000Y-93207615D01*
X101030000Y-93207615D02*
X102272627Y-91964988D01*
%TO.N,Net-(U1-Pad16)*%
X99094999Y-85405001D02*
X118668003Y-85405001D01*
X110315685Y-74975010D02*
X109750000Y-74975010D01*
X98750000Y-85750000D02*
X99094999Y-85405001D01*
X120725002Y-82401998D02*
X113298014Y-74975010D01*
X113298014Y-74975010D02*
X110315685Y-74975010D01*
X118668003Y-85405001D02*
X120725002Y-83348002D01*
X120725002Y-83348002D02*
X120725002Y-82401998D01*
%TO.N,Net-(U1-Pad15)*%
X121175013Y-83534402D02*
X118854403Y-85855012D01*
X121175013Y-76400023D02*
X121175013Y-83534402D01*
X120524990Y-75750000D02*
X121175013Y-76400023D01*
X118854403Y-85855012D02*
X102822217Y-85855012D01*
X102822217Y-85855012D02*
X102547218Y-86130011D01*
%TO.N,Net-(U1-Pad14)*%
X110000000Y-86500000D02*
X110750000Y-86500000D01*
X110000000Y-86500000D02*
X122000000Y-86500000D01*
X122000000Y-86500000D02*
X123634841Y-88134841D01*
X101899999Y-86899999D02*
X109600001Y-86899999D01*
X109600001Y-86899999D02*
X110000000Y-86500000D01*
X101500000Y-86500000D02*
X101899999Y-86899999D01*
%TO.N,Net-(U1-Pad2)*%
X122000000Y-85750000D02*
X122000000Y-75000000D01*
X123524998Y-87274998D02*
X122000000Y-85750000D01*
X122000000Y-75000000D02*
X121250000Y-74250000D01*
X124024998Y-87274998D02*
X123524998Y-87274998D01*
X124475002Y-87725002D02*
X124024998Y-87274998D01*
X124475002Y-88598002D02*
X124475002Y-87725002D01*
X124098002Y-88975002D02*
X124475002Y-88598002D01*
X98337788Y-88975002D02*
X124098002Y-88975002D01*
X97351895Y-87989109D02*
X98337788Y-88975002D01*
X96786210Y-87989109D02*
X97351895Y-87989109D01*
%TO.N,GND*%
X94250000Y-91750000D02*
X94250000Y-90500000D01*
X95814367Y-88935633D02*
X97200843Y-88935633D01*
X94250000Y-90500000D02*
X95814367Y-88935633D01*
%TO.N,+3V3*%
X110000000Y-98500000D02*
X111550000Y-98500000D01*
X111550000Y-98500000D02*
X114050000Y-98500000D01*
X114050000Y-98500000D02*
X116550000Y-98500000D01*
X116550000Y-98500000D02*
X119050000Y-98500000D01*
X119050000Y-98500000D02*
X121550000Y-98500000D01*
X121550000Y-98500000D02*
X124050000Y-98500000D01*
X124050000Y-98500000D02*
X126550000Y-98500000D01*
%TO.N,OLED-RST*%
X105250000Y-84250000D02*
X105500000Y-84500000D01*
X104250000Y-80750000D02*
X105250000Y-81750000D01*
X95750000Y-80750000D02*
X104250000Y-80750000D01*
X94735499Y-85235499D02*
X94735499Y-81764501D01*
X93675001Y-86295997D02*
X94735499Y-85235499D01*
X94735499Y-81764501D02*
X95750000Y-80750000D01*
X105250000Y-81750000D02*
X105250000Y-84250000D01*
X93675001Y-87944999D02*
X93675001Y-86295997D01*
X92500000Y-89120000D02*
X93675001Y-87944999D01*
%TO.N,OLED-DC*%
X105975010Y-81838599D02*
X105975010Y-83262660D01*
X92500000Y-86580000D02*
X94285488Y-84794512D01*
X104436400Y-80299989D02*
X105975010Y-81838599D01*
X95563600Y-80299989D02*
X104436400Y-80299989D01*
X94285488Y-84794512D02*
X94285488Y-81578101D01*
X94285488Y-81578101D02*
X95563600Y-80299989D01*
%TO.N,OLED-CS0*%
X93835477Y-81391701D02*
X95377200Y-79849978D01*
X92500000Y-84040000D02*
X93835477Y-82704523D01*
X93835477Y-82704523D02*
X93835477Y-81391701D01*
X95377200Y-79849978D02*
X104622800Y-79849978D01*
X104622800Y-79849978D02*
X106761411Y-81988589D01*
X106761411Y-81988589D02*
X106761411Y-84261411D01*
X106761411Y-84261411D02*
X107250000Y-84750000D01*
X118250000Y-84750000D02*
X119750000Y-83250000D01*
X107250000Y-84750000D02*
X118250000Y-84750000D01*
%TO.N,OLED-SCLK*%
X94600033Y-79399967D02*
X104809200Y-79399967D01*
X92500000Y-81500000D02*
X94600033Y-79399967D01*
X106952118Y-81542885D02*
X108792885Y-81542885D01*
X104809200Y-79399967D02*
X106952118Y-81542885D01*
%TO.N,OLED-MOSI*%
X92500000Y-78960000D02*
X92510044Y-78949956D01*
X92510044Y-78949956D02*
X104995600Y-78949956D01*
X104995600Y-78949956D02*
X105855643Y-79809999D01*
X105855643Y-79809999D02*
X110190001Y-79809999D01*
X110190001Y-79809999D02*
X110350001Y-79649999D01*
X110350001Y-79649999D02*
X110750000Y-79250000D01*
%TO.N,CO2-SDA*%
X99020000Y-71650000D02*
X99020000Y-73520000D01*
X102250000Y-76750000D02*
X104250000Y-76750000D01*
X99020000Y-73520000D02*
X102250000Y-76750000D01*
X104250000Y-76750000D02*
X105250000Y-76750000D01*
%TO.N,CO2-SCL*%
X103080000Y-78250000D02*
X105500000Y-78250000D01*
X96480000Y-71650000D02*
X103080000Y-78250000D01*
%TO.N,IO7*%
X126550000Y-95400000D02*
X126550000Y-93150000D01*
%TO.N,IO6*%
X124050000Y-95400000D02*
X124050000Y-93150000D01*
%TO.N,IO5*%
X121550000Y-95400000D02*
X121550000Y-93150000D01*
%TO.N,IO4*%
X119050000Y-95400000D02*
X119050000Y-93150000D01*
%TO.N,IO3*%
X116550000Y-95400000D02*
X116550000Y-93150000D01*
%TO.N,IO2*%
X114050000Y-95400000D02*
X114050000Y-93150000D01*
%TO.N,IO1*%
X111550000Y-95400000D02*
X111550000Y-93150000D01*
%TD*%
D21*
%TO.N,GND*%
X100590001Y-68717571D02*
X100586807Y-68750000D01*
X100599550Y-68879383D01*
X100637290Y-69003793D01*
X100698575Y-69118450D01*
X100781052Y-69218948D01*
X100881550Y-69301425D01*
X100996207Y-69362710D01*
X101120617Y-69400450D01*
X101217581Y-69410000D01*
X101250000Y-69413193D01*
X101282419Y-69410000D01*
X129217581Y-69410000D01*
X129250000Y-69413193D01*
X129282419Y-69410000D01*
X129379383Y-69400450D01*
X129503793Y-69362710D01*
X129618450Y-69301425D01*
X129718948Y-69218948D01*
X129801425Y-69118450D01*
X129862710Y-69003793D01*
X129900450Y-68879383D01*
X129913193Y-68750000D01*
X129910000Y-68717581D01*
X129910000Y-67769608D01*
X129976458Y-67703150D01*
X130252627Y-68121118D01*
X130797557Y-68411649D01*
X131388696Y-68590287D01*
X132003328Y-68650168D01*
X132617831Y-68588990D01*
X133208592Y-68409103D01*
X133747373Y-68121118D01*
X133840000Y-67980931D01*
X133840001Y-95019070D01*
X133747373Y-94878882D01*
X133202443Y-94588351D01*
X132611304Y-94409713D01*
X131996672Y-94349832D01*
X131382169Y-94411010D01*
X130791408Y-94590897D01*
X130252627Y-94878882D01*
X129976457Y-95296852D01*
X132000000Y-97320395D01*
X132014143Y-97306253D01*
X132193748Y-97485858D01*
X132179605Y-97500000D01*
X132193748Y-97514143D01*
X132014143Y-97693748D01*
X132000000Y-97679605D01*
X131985858Y-97693748D01*
X131806253Y-97514143D01*
X131820395Y-97500000D01*
X129796852Y-95476457D01*
X129378882Y-95752627D01*
X129088351Y-96297557D01*
X128909713Y-96888696D01*
X128849832Y-97503328D01*
X128911010Y-98117831D01*
X129090897Y-98708592D01*
X129378882Y-99247373D01*
X129519069Y-99340000D01*
X127941941Y-99340000D01*
X127995472Y-99239850D01*
X128046008Y-99073254D01*
X128063072Y-98900000D01*
X128063072Y-98100000D01*
X128046008Y-97926746D01*
X127995472Y-97760150D01*
X127913405Y-97606614D01*
X127802962Y-97472038D01*
X127668386Y-97361595D01*
X127514850Y-97279528D01*
X127348254Y-97228992D01*
X127175000Y-97211928D01*
X125925000Y-97211928D01*
X125751746Y-97228992D01*
X125585150Y-97279528D01*
X125431614Y-97361595D01*
X125300000Y-97469607D01*
X125168386Y-97361595D01*
X125014850Y-97279528D01*
X124848254Y-97228992D01*
X124675000Y-97211928D01*
X123425000Y-97211928D01*
X123251746Y-97228992D01*
X123085150Y-97279528D01*
X122931614Y-97361595D01*
X122800000Y-97469607D01*
X122668386Y-97361595D01*
X122514850Y-97279528D01*
X122348254Y-97228992D01*
X122175000Y-97211928D01*
X120925000Y-97211928D01*
X120751746Y-97228992D01*
X120585150Y-97279528D01*
X120431614Y-97361595D01*
X120300000Y-97469607D01*
X120168386Y-97361595D01*
X120014850Y-97279528D01*
X119848254Y-97228992D01*
X119675000Y-97211928D01*
X118425000Y-97211928D01*
X118251746Y-97228992D01*
X118085150Y-97279528D01*
X117931614Y-97361595D01*
X117800000Y-97469607D01*
X117668386Y-97361595D01*
X117514850Y-97279528D01*
X117348254Y-97228992D01*
X117175000Y-97211928D01*
X115925000Y-97211928D01*
X115751746Y-97228992D01*
X115585150Y-97279528D01*
X115431614Y-97361595D01*
X115300000Y-97469607D01*
X115168386Y-97361595D01*
X115014850Y-97279528D01*
X114848254Y-97228992D01*
X114675000Y-97211928D01*
X113425000Y-97211928D01*
X113251746Y-97228992D01*
X113085150Y-97279528D01*
X112931614Y-97361595D01*
X112800000Y-97469607D01*
X112668386Y-97361595D01*
X112514850Y-97279528D01*
X112348254Y-97228992D01*
X112175000Y-97211928D01*
X110925000Y-97211928D01*
X110751746Y-97228992D01*
X110585150Y-97279528D01*
X110431614Y-97361595D01*
X110297038Y-97472038D01*
X110274625Y-97499349D01*
X110101939Y-97465000D01*
X109898061Y-97465000D01*
X109698102Y-97504774D01*
X109509744Y-97582795D01*
X109340226Y-97696063D01*
X109196063Y-97840226D01*
X109082795Y-98009744D01*
X109004774Y-98198102D01*
X108965000Y-98398061D01*
X108965000Y-98601939D01*
X109004774Y-98801898D01*
X109082795Y-98990256D01*
X109196063Y-99159774D01*
X109340226Y-99303937D01*
X109394198Y-99340000D01*
X104471406Y-99340000D01*
X104708747Y-99255919D01*
X104846157Y-99182472D01*
X104923792Y-98933397D01*
X104075000Y-98084605D01*
X103226208Y-98933397D01*
X103303843Y-99182472D01*
X103567883Y-99308371D01*
X103692490Y-99340000D01*
X102534208Y-99340000D01*
X102543072Y-99250000D01*
X102540000Y-98885750D01*
X102381250Y-98727000D01*
X101157000Y-98727000D01*
X101157000Y-98747000D01*
X100903000Y-98747000D01*
X100903000Y-98727000D01*
X98617000Y-98727000D01*
X98617000Y-98747000D01*
X98363000Y-98747000D01*
X98363000Y-98727000D01*
X97138750Y-98727000D01*
X96980000Y-98885750D01*
X96976928Y-99250000D01*
X96985792Y-99340000D01*
X95821406Y-99340000D01*
X96058747Y-99255919D01*
X96196157Y-99182472D01*
X96273792Y-98933397D01*
X95558126Y-98217731D01*
X95590287Y-98111304D01*
X95609873Y-97910268D01*
X96453397Y-98753792D01*
X96702472Y-98676157D01*
X96828371Y-98412117D01*
X96900339Y-98128589D01*
X96909675Y-97950000D01*
X96976928Y-97950000D01*
X96980000Y-98314250D01*
X97138750Y-98473000D01*
X98363000Y-98473000D01*
X98363000Y-97473750D01*
X98617000Y-97473750D01*
X98617000Y-98473000D01*
X100903000Y-98473000D01*
X100903000Y-97473750D01*
X101157000Y-97473750D01*
X101157000Y-98473000D01*
X102381250Y-98473000D01*
X102540000Y-98314250D01*
X102542873Y-97973531D01*
X102584389Y-97973531D01*
X102626401Y-98263019D01*
X102724081Y-98538747D01*
X102797528Y-98676157D01*
X103046603Y-98753792D01*
X103895395Y-97905000D01*
X104254605Y-97905000D01*
X105103397Y-98753792D01*
X105352472Y-98676157D01*
X105478371Y-98412117D01*
X105550339Y-98128589D01*
X105565611Y-97836469D01*
X105523599Y-97546981D01*
X105425919Y-97271253D01*
X105352472Y-97133843D01*
X105103397Y-97056208D01*
X104254605Y-97905000D01*
X103895395Y-97905000D01*
X103046603Y-97056208D01*
X102797528Y-97133843D01*
X102671629Y-97397883D01*
X102599661Y-97681411D01*
X102584389Y-97973531D01*
X102542873Y-97973531D01*
X102543072Y-97950000D01*
X102530812Y-97825518D01*
X102494502Y-97705820D01*
X102435537Y-97595506D01*
X102356185Y-97498815D01*
X102259494Y-97419463D01*
X102149180Y-97360498D01*
X102029482Y-97324188D01*
X101905000Y-97311928D01*
X101315750Y-97315000D01*
X101157000Y-97473750D01*
X100903000Y-97473750D01*
X100744250Y-97315000D01*
X100155000Y-97311928D01*
X100030518Y-97324188D01*
X99910820Y-97360498D01*
X99800506Y-97419463D01*
X99760000Y-97452705D01*
X99719494Y-97419463D01*
X99609180Y-97360498D01*
X99489482Y-97324188D01*
X99365000Y-97311928D01*
X98775750Y-97315000D01*
X98617000Y-97473750D01*
X98363000Y-97473750D01*
X98204250Y-97315000D01*
X97615000Y-97311928D01*
X97490518Y-97324188D01*
X97370820Y-97360498D01*
X97260506Y-97419463D01*
X97163815Y-97498815D01*
X97084463Y-97595506D01*
X97025498Y-97705820D01*
X96989188Y-97825518D01*
X96976928Y-97950000D01*
X96909675Y-97950000D01*
X96915611Y-97836469D01*
X96873599Y-97546981D01*
X96775919Y-97271253D01*
X96702472Y-97133843D01*
X96453397Y-97056208D01*
X95611010Y-97898595D01*
X95649784Y-97500611D01*
X96273792Y-96876603D01*
X103226208Y-96876603D01*
X104075000Y-97725395D01*
X104923792Y-96876603D01*
X104846157Y-96627528D01*
X104582117Y-96501629D01*
X104298589Y-96429661D01*
X104006469Y-96414389D01*
X103716981Y-96456401D01*
X103441253Y-96554081D01*
X103303843Y-96627528D01*
X103226208Y-96876603D01*
X96273792Y-96876603D01*
X96196157Y-96627528D01*
X95932117Y-96501629D01*
X95648589Y-96429661D01*
X95448008Y-96419175D01*
X95409103Y-96291408D01*
X95121118Y-95752627D01*
X94703148Y-95476457D01*
X92679605Y-97500000D01*
X92693748Y-97514143D01*
X92514143Y-97693748D01*
X92500000Y-97679605D01*
X92485858Y-97693748D01*
X92306253Y-97514143D01*
X92320395Y-97500000D01*
X92306253Y-97485858D01*
X92485858Y-97306253D01*
X92500000Y-97320395D01*
X94523543Y-95296852D01*
X94247373Y-94878882D01*
X93702443Y-94588351D01*
X93111304Y-94409713D01*
X92496672Y-94349832D01*
X91882169Y-94411010D01*
X91291408Y-94590897D01*
X90752627Y-94878882D01*
X90660000Y-95019069D01*
X90660000Y-93012239D01*
X90667748Y-93019987D01*
X90935537Y-93198918D01*
X91233088Y-93322168D01*
X91548967Y-93385000D01*
X91871033Y-93385000D01*
X92186912Y-93322168D01*
X92484463Y-93198918D01*
X92694809Y-93058370D01*
X92719463Y-93104494D01*
X92798815Y-93201185D01*
X92895506Y-93280537D01*
X93005820Y-93339502D01*
X93125518Y-93375812D01*
X93250000Y-93388072D01*
X93823723Y-93385604D01*
X93802616Y-93466108D01*
X93783282Y-93787595D01*
X93827039Y-94106675D01*
X93932205Y-94411088D01*
X94025186Y-94585044D01*
X94289587Y-94680808D01*
X95245395Y-93725000D01*
X94906992Y-93386597D01*
X95250000Y-93388072D01*
X95266092Y-93386487D01*
X95425000Y-93545395D01*
X96380808Y-92589587D01*
X96285044Y-92325186D01*
X95995429Y-92184296D01*
X95885515Y-92155478D01*
X95885000Y-92035750D01*
X95726250Y-91877000D01*
X94377000Y-91877000D01*
X94377000Y-91897000D01*
X94123000Y-91897000D01*
X94123000Y-91877000D01*
X94103000Y-91877000D01*
X94103000Y-91623000D01*
X94123000Y-91623000D01*
X94123000Y-90273750D01*
X94377000Y-90273750D01*
X94377000Y-91623000D01*
X95726250Y-91623000D01*
X95885000Y-91464250D01*
X95888072Y-90750000D01*
X95875812Y-90625518D01*
X95839502Y-90505820D01*
X95780537Y-90395506D01*
X95701185Y-90298815D01*
X95604494Y-90219463D01*
X95494180Y-90160498D01*
X95374482Y-90124188D01*
X95250000Y-90111928D01*
X94535750Y-90115000D01*
X94377000Y-90273750D01*
X94123000Y-90273750D01*
X93964250Y-90115000D01*
X93606645Y-90113462D01*
X93653475Y-90066632D01*
X93815990Y-89823411D01*
X93927932Y-89553158D01*
X93985000Y-89266260D01*
X93985000Y-88973740D01*
X93941210Y-88753592D01*
X94186005Y-88508797D01*
X94215002Y-88485000D01*
X94309975Y-88369275D01*
X94380547Y-88237246D01*
X94424004Y-88093985D01*
X94435001Y-87982332D01*
X94435001Y-87982323D01*
X94438677Y-87945000D01*
X94435001Y-87907677D01*
X94435001Y-86610798D01*
X95246503Y-85799297D01*
X95275500Y-85775500D01*
X95370473Y-85659775D01*
X95441045Y-85527746D01*
X95484502Y-85384485D01*
X95495499Y-85272832D01*
X95495499Y-85272824D01*
X95499175Y-85235499D01*
X95495499Y-85198174D01*
X95495499Y-82079302D01*
X96064802Y-81510000D01*
X103935199Y-81510000D01*
X104490000Y-82064802D01*
X104490001Y-84212668D01*
X104486324Y-84250000D01*
X104489015Y-84277326D01*
X104465000Y-84398061D01*
X104465000Y-84601939D01*
X104473565Y-84645001D01*
X103991544Y-84645001D01*
X104045000Y-84376260D01*
X104045000Y-84083740D01*
X103987932Y-83796842D01*
X103875990Y-83526589D01*
X103713475Y-83283368D01*
X103506632Y-83076525D01*
X103263411Y-82914010D01*
X102993158Y-82802068D01*
X102706260Y-82745000D01*
X102413740Y-82745000D01*
X102126842Y-82802068D01*
X101856589Y-82914010D01*
X101613368Y-83076525D01*
X101406525Y-83283368D01*
X101394861Y-83300824D01*
X101371502Y-83223820D01*
X101312537Y-83113506D01*
X101233185Y-83016815D01*
X101136494Y-82937463D01*
X101026180Y-82878498D01*
X100906482Y-82842188D01*
X100782000Y-82829928D01*
X100305750Y-82833000D01*
X100147000Y-82991750D01*
X100147000Y-84103000D01*
X100167000Y-84103000D01*
X100167000Y-84357000D01*
X100147000Y-84357000D01*
X100147000Y-84377000D01*
X99893000Y-84377000D01*
X99893000Y-84357000D01*
X99873000Y-84357000D01*
X99873000Y-84103000D01*
X99893000Y-84103000D01*
X99893000Y-82991750D01*
X99734250Y-82833000D01*
X99258000Y-82829928D01*
X99133518Y-82842188D01*
X99013820Y-82878498D01*
X98903506Y-82937463D01*
X98806815Y-83016815D01*
X98727463Y-83113506D01*
X98668498Y-83223820D01*
X98645139Y-83300824D01*
X98633475Y-83283368D01*
X98426632Y-83076525D01*
X98183411Y-82914010D01*
X97913158Y-82802068D01*
X97626260Y-82745000D01*
X97333740Y-82745000D01*
X97046842Y-82802068D01*
X96776589Y-82914010D01*
X96533368Y-83076525D01*
X96326525Y-83283368D01*
X96164010Y-83526589D01*
X96052068Y-83796842D01*
X95995000Y-84083740D01*
X95995000Y-84376260D01*
X96052068Y-84663158D01*
X96164010Y-84933411D01*
X96326525Y-85176632D01*
X96533368Y-85383475D01*
X96776589Y-85545990D01*
X97046842Y-85657932D01*
X97333740Y-85715000D01*
X97626260Y-85715000D01*
X97715000Y-85697348D01*
X97715000Y-85851939D01*
X97754774Y-86051898D01*
X97832795Y-86240256D01*
X97946063Y-86409774D01*
X98090226Y-86553937D01*
X98259744Y-86667205D01*
X98448102Y-86745226D01*
X98648061Y-86785000D01*
X98851939Y-86785000D01*
X99051898Y-86745226D01*
X99240256Y-86667205D01*
X99409774Y-86553937D01*
X99553937Y-86409774D01*
X99667205Y-86240256D01*
X99698377Y-86165001D01*
X100518485Y-86165001D01*
X100504774Y-86198102D01*
X100465000Y-86398061D01*
X100465000Y-86601939D01*
X100504774Y-86801898D01*
X100582795Y-86990256D01*
X100696063Y-87159774D01*
X100840226Y-87303937D01*
X101009744Y-87417205D01*
X101198102Y-87495226D01*
X101398061Y-87535000D01*
X101475774Y-87535000D01*
X101607752Y-87605545D01*
X101751013Y-87649002D01*
X101862666Y-87659999D01*
X101862676Y-87659999D01*
X101899998Y-87663675D01*
X101937321Y-87659999D01*
X109562679Y-87659999D01*
X109600001Y-87663675D01*
X109637323Y-87659999D01*
X109637334Y-87659999D01*
X109748987Y-87649002D01*
X109892248Y-87605545D01*
X110024277Y-87534973D01*
X110140002Y-87440000D01*
X110163805Y-87410996D01*
X110314801Y-87260000D01*
X121685199Y-87260000D01*
X122599841Y-88174643D01*
X122599841Y-88215002D01*
X98652590Y-88215002D01*
X97915699Y-87478111D01*
X97891896Y-87449108D01*
X97776171Y-87354135D01*
X97644142Y-87283563D01*
X97500934Y-87240122D01*
X97445984Y-87185172D01*
X97276466Y-87071904D01*
X97088108Y-86993883D01*
X96888149Y-86954109D01*
X96684271Y-86954109D01*
X96484312Y-86993883D01*
X96295954Y-87071904D01*
X96126436Y-87185172D01*
X95982273Y-87329335D01*
X95869005Y-87498853D01*
X95790984Y-87687211D01*
X95751210Y-87887170D01*
X95751210Y-88091048D01*
X95790984Y-88291007D01*
X95869005Y-88479365D01*
X95982273Y-88648883D01*
X96126436Y-88793046D01*
X96295954Y-88906314D01*
X96484312Y-88984335D01*
X96684271Y-89024109D01*
X96888149Y-89024109D01*
X97088108Y-88984335D01*
X97218365Y-88930380D01*
X97773989Y-89486005D01*
X97797787Y-89515003D01*
X97913512Y-89609976D01*
X98045541Y-89680548D01*
X98188802Y-89724005D01*
X98300455Y-89735002D01*
X98300464Y-89735002D01*
X98337787Y-89738678D01*
X98375110Y-89735002D01*
X101310192Y-89735002D01*
X101172166Y-89827228D01*
X101128229Y-89871165D01*
X98605578Y-89871165D01*
X98568245Y-89867488D01*
X98530912Y-89871165D01*
X98419259Y-89882162D01*
X98275998Y-89925619D01*
X98143969Y-89996191D01*
X98028244Y-90091164D01*
X98004441Y-90120168D01*
X97887047Y-90237562D01*
X97858043Y-90261365D01*
X97802915Y-90328540D01*
X97763070Y-90377090D01*
X97716477Y-90464259D01*
X97692498Y-90509120D01*
X97672607Y-90574694D01*
X97502915Y-90540940D01*
X97299037Y-90540940D01*
X97099078Y-90580714D01*
X96910720Y-90658735D01*
X96741202Y-90772003D01*
X96597039Y-90916166D01*
X96483771Y-91085684D01*
X96405750Y-91274042D01*
X96365976Y-91474001D01*
X96365976Y-91677879D01*
X96405750Y-91877838D01*
X96483771Y-92066196D01*
X96597039Y-92235714D01*
X96741202Y-92379877D01*
X96910720Y-92493145D01*
X97099078Y-92571166D01*
X97299037Y-92610940D01*
X97361175Y-92610940D01*
X97730001Y-92979767D01*
X97730001Y-93862166D01*
X97689408Y-93763649D01*
X97687763Y-93760575D01*
X97494541Y-93750064D01*
X97039605Y-94205000D01*
X97053748Y-94219143D01*
X96954566Y-94318324D01*
X96965704Y-94295429D01*
X97047384Y-93983892D01*
X97056719Y-93828676D01*
X97314936Y-93570459D01*
X97304425Y-93377237D01*
X97134397Y-93306438D01*
X97000959Y-93279639D01*
X96917795Y-93038912D01*
X96824814Y-92864956D01*
X96560413Y-92769192D01*
X95604605Y-93725000D01*
X95618748Y-93739143D01*
X95439143Y-93918748D01*
X95425000Y-93904605D01*
X94469192Y-94860413D01*
X94564956Y-95124814D01*
X94854571Y-95265704D01*
X95166108Y-95347384D01*
X95487595Y-95366718D01*
X95806675Y-95322961D01*
X96111088Y-95217795D01*
X96285044Y-95124814D01*
X96378885Y-94865723D01*
X96382500Y-94862108D01*
X96407660Y-94887268D01*
X96415575Y-95032763D01*
X96585603Y-95103562D01*
X96766176Y-95139828D01*
X96950355Y-95140171D01*
X96976928Y-95134936D01*
X96976928Y-95900000D01*
X96993992Y-96073254D01*
X97044528Y-96239850D01*
X97126595Y-96393386D01*
X97237038Y-96527962D01*
X97371614Y-96638405D01*
X97525150Y-96720472D01*
X97691746Y-96771008D01*
X97865000Y-96788072D01*
X99115000Y-96788072D01*
X99288254Y-96771008D01*
X99454850Y-96720472D01*
X99608386Y-96638405D01*
X99742962Y-96527962D01*
X99760000Y-96507201D01*
X99777038Y-96527962D01*
X99911614Y-96638405D01*
X100065150Y-96720472D01*
X100231746Y-96771008D01*
X100405000Y-96788072D01*
X101655000Y-96788072D01*
X101828254Y-96771008D01*
X101994850Y-96720472D01*
X102148386Y-96638405D01*
X102282962Y-96527962D01*
X102393405Y-96393386D01*
X102475472Y-96239850D01*
X102526008Y-96073254D01*
X102543072Y-95900000D01*
X102543072Y-95139205D01*
X102546176Y-95139828D01*
X102730355Y-95140171D01*
X102911061Y-95104574D01*
X103081351Y-95034408D01*
X103084425Y-95032763D01*
X103092340Y-94887268D01*
X103117500Y-94862108D01*
X103121115Y-94865723D01*
X103214956Y-95124814D01*
X103504571Y-95265704D01*
X103816108Y-95347384D01*
X104137595Y-95366718D01*
X104456675Y-95322961D01*
X104761088Y-95217795D01*
X104935044Y-95124814D01*
X105030808Y-94860413D01*
X104075000Y-93904605D01*
X104060858Y-93918748D01*
X103881253Y-93739143D01*
X103895395Y-93725000D01*
X104254605Y-93725000D01*
X105210413Y-94680808D01*
X105474814Y-94585044D01*
X105615704Y-94295429D01*
X105673496Y-94075000D01*
X107561928Y-94075000D01*
X107574188Y-94199482D01*
X107610498Y-94319180D01*
X107669463Y-94429494D01*
X107748815Y-94526185D01*
X107845506Y-94605537D01*
X107955820Y-94664502D01*
X108075518Y-94700812D01*
X108200000Y-94713072D01*
X108764250Y-94710000D01*
X108923000Y-94551250D01*
X108923000Y-93277000D01*
X107723750Y-93277000D01*
X107565000Y-93435750D01*
X107561928Y-94075000D01*
X105673496Y-94075000D01*
X105697384Y-93983892D01*
X105716718Y-93662405D01*
X105672961Y-93343325D01*
X105567795Y-93038912D01*
X105474814Y-92864956D01*
X105210413Y-92769192D01*
X104254605Y-93725000D01*
X103895395Y-93725000D01*
X103881253Y-93710858D01*
X104060858Y-93531253D01*
X104075000Y-93545395D01*
X105030808Y-92589587D01*
X104935044Y-92325186D01*
X104729101Y-92225000D01*
X107561928Y-92225000D01*
X107565000Y-92864250D01*
X107723750Y-93023000D01*
X108923000Y-93023000D01*
X108923000Y-91748750D01*
X109177000Y-91748750D01*
X109177000Y-93023000D01*
X109197000Y-93023000D01*
X109197000Y-93277000D01*
X109177000Y-93277000D01*
X109177000Y-94551250D01*
X109335750Y-94710000D01*
X109900000Y-94713072D01*
X110024482Y-94700812D01*
X110099056Y-94678190D01*
X110053992Y-94826746D01*
X110036928Y-95000000D01*
X110036928Y-95800000D01*
X110053992Y-95973254D01*
X110104528Y-96139850D01*
X110186595Y-96293386D01*
X110297038Y-96427962D01*
X110431614Y-96538405D01*
X110585150Y-96620472D01*
X110751746Y-96671008D01*
X110925000Y-96688072D01*
X112175000Y-96688072D01*
X112348254Y-96671008D01*
X112514850Y-96620472D01*
X112668386Y-96538405D01*
X112800000Y-96430393D01*
X112931614Y-96538405D01*
X113085150Y-96620472D01*
X113251746Y-96671008D01*
X113425000Y-96688072D01*
X114675000Y-96688072D01*
X114848254Y-96671008D01*
X115014850Y-96620472D01*
X115168386Y-96538405D01*
X115300000Y-96430393D01*
X115431614Y-96538405D01*
X115585150Y-96620472D01*
X115751746Y-96671008D01*
X115925000Y-96688072D01*
X117175000Y-96688072D01*
X117348254Y-96671008D01*
X117514850Y-96620472D01*
X117668386Y-96538405D01*
X117800000Y-96430393D01*
X117931614Y-96538405D01*
X118085150Y-96620472D01*
X118251746Y-96671008D01*
X118425000Y-96688072D01*
X119675000Y-96688072D01*
X119848254Y-96671008D01*
X120014850Y-96620472D01*
X120168386Y-96538405D01*
X120300000Y-96430393D01*
X120431614Y-96538405D01*
X120585150Y-96620472D01*
X120751746Y-96671008D01*
X120925000Y-96688072D01*
X122175000Y-96688072D01*
X122348254Y-96671008D01*
X122514850Y-96620472D01*
X122668386Y-96538405D01*
X122800000Y-96430393D01*
X122931614Y-96538405D01*
X123085150Y-96620472D01*
X123251746Y-96671008D01*
X123425000Y-96688072D01*
X124675000Y-96688072D01*
X124848254Y-96671008D01*
X125014850Y-96620472D01*
X125168386Y-96538405D01*
X125300000Y-96430393D01*
X125431614Y-96538405D01*
X125585150Y-96620472D01*
X125751746Y-96671008D01*
X125925000Y-96688072D01*
X127175000Y-96688072D01*
X127348254Y-96671008D01*
X127514850Y-96620472D01*
X127668386Y-96538405D01*
X127802962Y-96427962D01*
X127913405Y-96293386D01*
X127995472Y-96139850D01*
X128046008Y-95973254D01*
X128063072Y-95800000D01*
X128063072Y-95000000D01*
X128046008Y-94826746D01*
X127995472Y-94660150D01*
X127913405Y-94506614D01*
X127802962Y-94372038D01*
X127668386Y-94261595D01*
X127634996Y-94243747D01*
X127790706Y-94054013D01*
X127928599Y-93796033D01*
X128013513Y-93516110D01*
X128035000Y-93297949D01*
X128035000Y-93002050D01*
X128013513Y-92783889D01*
X127928599Y-92503966D01*
X127790706Y-92245986D01*
X127605134Y-92019866D01*
X127379013Y-91834294D01*
X127121033Y-91696401D01*
X126841110Y-91611487D01*
X126550000Y-91582815D01*
X126258889Y-91611487D01*
X125978966Y-91696401D01*
X125720986Y-91834294D01*
X125494866Y-92019866D01*
X125309294Y-92245987D01*
X125300000Y-92263374D01*
X125290706Y-92245986D01*
X125105134Y-92019866D01*
X124879013Y-91834294D01*
X124621033Y-91696401D01*
X124341110Y-91611487D01*
X124050000Y-91582815D01*
X123758889Y-91611487D01*
X123478966Y-91696401D01*
X123220986Y-91834294D01*
X122994866Y-92019866D01*
X122809294Y-92245987D01*
X122800000Y-92263374D01*
X122790706Y-92245986D01*
X122605134Y-92019866D01*
X122379013Y-91834294D01*
X122121033Y-91696401D01*
X121841110Y-91611487D01*
X121550000Y-91582815D01*
X121258889Y-91611487D01*
X120978966Y-91696401D01*
X120720986Y-91834294D01*
X120494866Y-92019866D01*
X120309294Y-92245987D01*
X120300000Y-92263374D01*
X120290706Y-92245986D01*
X120105134Y-92019866D01*
X119879013Y-91834294D01*
X119621033Y-91696401D01*
X119341110Y-91611487D01*
X119050000Y-91582815D01*
X118758889Y-91611487D01*
X118478966Y-91696401D01*
X118220986Y-91834294D01*
X117994866Y-92019866D01*
X117809294Y-92245987D01*
X117800000Y-92263374D01*
X117790706Y-92245986D01*
X117605134Y-92019866D01*
X117379013Y-91834294D01*
X117121033Y-91696401D01*
X116841110Y-91611487D01*
X116550000Y-91582815D01*
X116258889Y-91611487D01*
X115978966Y-91696401D01*
X115720986Y-91834294D01*
X115494866Y-92019866D01*
X115309294Y-92245987D01*
X115300000Y-92263374D01*
X115290706Y-92245986D01*
X115105134Y-92019866D01*
X114879013Y-91834294D01*
X114621033Y-91696401D01*
X114341110Y-91611487D01*
X114050000Y-91582815D01*
X113758889Y-91611487D01*
X113478966Y-91696401D01*
X113220986Y-91834294D01*
X112994866Y-92019866D01*
X112809294Y-92245987D01*
X112800000Y-92263374D01*
X112790706Y-92245986D01*
X112605134Y-92019866D01*
X112379013Y-91834294D01*
X112121033Y-91696401D01*
X111841110Y-91611487D01*
X111550000Y-91582815D01*
X111258889Y-91611487D01*
X110978966Y-91696401D01*
X110720986Y-91834294D01*
X110500055Y-92015608D01*
X110489502Y-91980820D01*
X110430537Y-91870506D01*
X110351185Y-91773815D01*
X110254494Y-91694463D01*
X110144180Y-91635498D01*
X110024482Y-91599188D01*
X109900000Y-91586928D01*
X109335750Y-91590000D01*
X109177000Y-91748750D01*
X108923000Y-91748750D01*
X108764250Y-91590000D01*
X108200000Y-91586928D01*
X108075518Y-91599188D01*
X107955820Y-91635498D01*
X107845506Y-91694463D01*
X107748815Y-91773815D01*
X107669463Y-91870506D01*
X107610498Y-91980820D01*
X107574188Y-92100518D01*
X107561928Y-92225000D01*
X104729101Y-92225000D01*
X104645429Y-92184296D01*
X104333892Y-92102616D01*
X104012405Y-92083282D01*
X103693325Y-92127039D01*
X103388912Y-92232205D01*
X103251879Y-92305450D01*
X103267853Y-92266886D01*
X103307627Y-92066927D01*
X103307627Y-91863049D01*
X103267853Y-91663090D01*
X103189832Y-91474732D01*
X103076564Y-91305214D01*
X102932401Y-91161051D01*
X102776013Y-91056556D01*
X102827166Y-90933063D01*
X102866940Y-90733104D01*
X102866940Y-90529226D01*
X102827166Y-90329267D01*
X102749145Y-90140909D01*
X102635877Y-89971391D01*
X102491714Y-89827228D01*
X102353688Y-89735002D01*
X124060680Y-89735002D01*
X124098002Y-89738678D01*
X124135324Y-89735002D01*
X124135335Y-89735002D01*
X124246988Y-89724005D01*
X124390249Y-89680548D01*
X124522278Y-89609976D01*
X124638003Y-89515003D01*
X124661806Y-89485999D01*
X124892416Y-89255389D01*
X126575924Y-89255389D01*
X126594603Y-89398962D01*
X126640933Y-89536131D01*
X126695041Y-89630180D01*
X128159274Y-91680106D01*
X128170613Y-91701320D01*
X128200030Y-91737165D01*
X129629536Y-93738474D01*
X129641213Y-93760319D01*
X129671506Y-93797231D01*
X129678191Y-93806590D01*
X129694432Y-93825166D01*
X129733062Y-93872237D01*
X129741994Y-93879568D01*
X129749607Y-93888275D01*
X129797896Y-93925445D01*
X129844980Y-93964087D01*
X129855175Y-93969536D01*
X129864336Y-93976588D01*
X129918941Y-94003620D01*
X129972667Y-94032337D01*
X129983728Y-94035692D01*
X129994090Y-94040822D01*
X130052917Y-94056681D01*
X130111215Y-94074365D01*
X130122721Y-94075498D01*
X130133882Y-94078507D01*
X130194659Y-94082583D01*
X130255300Y-94088556D01*
X130266808Y-94087423D01*
X130278339Y-94088196D01*
X130338736Y-94080338D01*
X130399384Y-94074365D01*
X130410450Y-94071008D01*
X130421912Y-94069517D01*
X130479622Y-94050025D01*
X130537932Y-94032337D01*
X130548130Y-94026886D01*
X130559082Y-94023187D01*
X130611883Y-93992809D01*
X130665619Y-93964087D01*
X130674557Y-93956752D01*
X130684577Y-93950987D01*
X130730443Y-93910887D01*
X130777537Y-93872238D01*
X130784871Y-93863302D01*
X130793575Y-93855692D01*
X130830733Y-93807419D01*
X130869387Y-93760320D01*
X130874838Y-93750122D01*
X130881888Y-93740963D01*
X130908913Y-93686372D01*
X130937637Y-93632633D01*
X130940993Y-93621570D01*
X130946122Y-93611209D01*
X130961978Y-93552391D01*
X130979665Y-93494085D01*
X130980798Y-93482577D01*
X130983807Y-93471417D01*
X130987883Y-93410643D01*
X130990300Y-93386105D01*
X130990300Y-93374610D01*
X130993496Y-93326960D01*
X130990300Y-93302394D01*
X130990300Y-93278079D01*
X131485444Y-93855745D01*
X131563791Y-93930809D01*
X131685867Y-94008650D01*
X131820784Y-94061181D01*
X131963356Y-94086380D01*
X132108106Y-94083282D01*
X132249469Y-94052003D01*
X132382014Y-93993747D01*
X132500647Y-93910752D01*
X132600809Y-93806208D01*
X132678650Y-93684132D01*
X132731181Y-93549215D01*
X132756380Y-93406643D01*
X132753282Y-93261894D01*
X132722003Y-93120530D01*
X132663747Y-92987985D01*
X132601549Y-92899080D01*
X131223342Y-91291179D01*
X132601550Y-89683269D01*
X132663748Y-89594363D01*
X132722003Y-89461819D01*
X132753282Y-89320455D01*
X132756380Y-89175706D01*
X132731180Y-89033134D01*
X132678649Y-88898217D01*
X132600807Y-88776141D01*
X132500645Y-88671597D01*
X132382012Y-88588602D01*
X132249467Y-88530347D01*
X132108103Y-88499068D01*
X131963354Y-88495970D01*
X131820782Y-88521170D01*
X131685865Y-88573701D01*
X131563789Y-88651543D01*
X131485442Y-88726606D01*
X130990300Y-89304273D01*
X130990300Y-89268454D01*
X130993856Y-89232349D01*
X130986956Y-89162295D01*
X130979665Y-89088265D01*
X130937637Y-88949717D01*
X130920535Y-88917721D01*
X130732807Y-88464508D01*
X130722274Y-88429786D01*
X130654024Y-88302100D01*
X130562174Y-88190182D01*
X130450256Y-88098333D01*
X130354565Y-88047186D01*
X130354562Y-88047185D01*
X130322570Y-88030085D01*
X130287856Y-88019554D01*
X129834637Y-87831826D01*
X129802641Y-87814724D01*
X129767921Y-87804192D01*
X129767919Y-87804191D01*
X129707950Y-87786000D01*
X129664093Y-87772696D01*
X129664092Y-87772696D01*
X129664089Y-87772695D01*
X129576772Y-87764095D01*
X129520008Y-87758504D01*
X129520004Y-87758504D01*
X129463240Y-87764095D01*
X129375923Y-87772695D01*
X129375920Y-87772696D01*
X129375919Y-87772696D01*
X129360968Y-87777231D01*
X129272092Y-87804191D01*
X129272081Y-87804196D01*
X129237371Y-87814725D01*
X129205386Y-87831821D01*
X128752158Y-88019554D01*
X128717442Y-88030085D01*
X128589755Y-88098334D01*
X128477836Y-88190183D01*
X128439214Y-88237245D01*
X128385989Y-88302100D01*
X128385988Y-88302102D01*
X128350084Y-88369274D01*
X128317739Y-88429786D01*
X128307208Y-88464501D01*
X128091844Y-88984434D01*
X128076474Y-89035104D01*
X127891228Y-88775760D01*
X127819812Y-88694075D01*
X127705083Y-88605762D01*
X127575329Y-88541529D01*
X127435537Y-88503843D01*
X127291081Y-88494154D01*
X127147508Y-88512833D01*
X127010339Y-88559163D01*
X126884843Y-88631363D01*
X126775845Y-88726658D01*
X126687532Y-88841387D01*
X126623299Y-88971141D01*
X126585613Y-89110933D01*
X126575924Y-89255389D01*
X124892416Y-89255389D01*
X124986000Y-89161805D01*
X125015003Y-89138003D01*
X125109976Y-89022278D01*
X125180548Y-88890249D01*
X125224005Y-88746988D01*
X125235002Y-88635335D01*
X125235002Y-88635334D01*
X125238679Y-88598002D01*
X125235002Y-88560669D01*
X125235002Y-87762327D01*
X125238678Y-87725002D01*
X125235002Y-87687677D01*
X125235002Y-87687669D01*
X125224005Y-87576016D01*
X125180548Y-87432755D01*
X125109976Y-87300726D01*
X125015003Y-87185001D01*
X124985999Y-87161198D01*
X124588802Y-86764001D01*
X124564999Y-86734997D01*
X124449274Y-86640024D01*
X124317245Y-86569452D01*
X124173984Y-86525995D01*
X124062331Y-86514998D01*
X124062320Y-86514998D01*
X124024998Y-86511322D01*
X123987676Y-86514998D01*
X123839800Y-86514998D01*
X122760000Y-85435199D01*
X122760000Y-75037322D01*
X122763676Y-74999999D01*
X122760000Y-74962676D01*
X122760000Y-74962667D01*
X122749003Y-74851014D01*
X122705546Y-74707753D01*
X122634974Y-74575724D01*
X122540001Y-74459999D01*
X122511002Y-74436201D01*
X122285000Y-74210198D01*
X122285000Y-74148061D01*
X122245226Y-73948102D01*
X122167205Y-73759744D01*
X122053937Y-73590226D01*
X121928711Y-73465000D01*
X128210000Y-73465000D01*
X128210000Y-87035000D01*
X132030000Y-87035000D01*
X132030000Y-73465000D01*
X128210000Y-73465000D01*
X121928711Y-73465000D01*
X121909774Y-73446063D01*
X121740256Y-73332795D01*
X121551898Y-73254774D01*
X121351939Y-73215000D01*
X121148061Y-73215000D01*
X120948102Y-73254774D01*
X120759744Y-73332795D01*
X120590226Y-73446063D01*
X120446063Y-73590226D01*
X120332795Y-73759744D01*
X120254774Y-73948102D01*
X120215000Y-74148061D01*
X120215000Y-74351939D01*
X120254774Y-74551898D01*
X120330000Y-74733509D01*
X120223092Y-74754774D01*
X120034734Y-74832795D01*
X119865216Y-74946063D01*
X119721053Y-75090226D01*
X119607785Y-75259744D01*
X119529764Y-75448102D01*
X119489990Y-75648061D01*
X119489990Y-75851939D01*
X119529764Y-76051898D01*
X119607785Y-76240256D01*
X119721053Y-76409774D01*
X119865216Y-76553937D01*
X120034734Y-76667205D01*
X120223092Y-76745226D01*
X120415013Y-76783401D01*
X120415014Y-81017208D01*
X113861818Y-74464013D01*
X113838015Y-74435009D01*
X113722290Y-74340036D01*
X113590261Y-74269464D01*
X113447000Y-74226007D01*
X113335347Y-74215010D01*
X113335336Y-74215010D01*
X113298014Y-74211334D01*
X113260692Y-74215010D01*
X110453711Y-74215010D01*
X110409774Y-74171073D01*
X110240256Y-74057805D01*
X110051898Y-73979784D01*
X109851939Y-73940010D01*
X109648061Y-73940010D01*
X109448102Y-73979784D01*
X109259744Y-74057805D01*
X109090226Y-74171073D01*
X108946063Y-74315236D01*
X108832795Y-74484754D01*
X108754774Y-74673112D01*
X108715000Y-74873071D01*
X108715000Y-75076949D01*
X108754774Y-75276908D01*
X108832795Y-75465266D01*
X108946063Y-75634784D01*
X109090226Y-75778947D01*
X109259744Y-75892215D01*
X109448102Y-75970236D01*
X109648061Y-76010010D01*
X109851939Y-76010010D01*
X110051898Y-75970236D01*
X110240256Y-75892215D01*
X110409774Y-75778947D01*
X110453711Y-75735010D01*
X112983213Y-75735010D01*
X119493872Y-82245670D01*
X119448102Y-82254774D01*
X119259744Y-82332795D01*
X119090226Y-82446063D01*
X118946063Y-82590226D01*
X118832795Y-82759744D01*
X118754774Y-82948102D01*
X118715000Y-83148061D01*
X118715000Y-83210198D01*
X117935199Y-83990000D01*
X107564801Y-83990000D01*
X107521411Y-83946610D01*
X107521411Y-82302885D01*
X108089174Y-82302885D01*
X108133111Y-82346822D01*
X108302629Y-82460090D01*
X108490987Y-82538111D01*
X108690946Y-82577885D01*
X108894824Y-82577885D01*
X109094783Y-82538111D01*
X109283141Y-82460090D01*
X109452659Y-82346822D01*
X109596822Y-82202659D01*
X109710090Y-82033141D01*
X109788111Y-81844783D01*
X109827885Y-81644824D01*
X109827885Y-81440946D01*
X109788111Y-81240987D01*
X109710090Y-81052629D01*
X109596822Y-80883111D01*
X109452659Y-80738948D01*
X109283141Y-80625680D01*
X109148716Y-80569999D01*
X110152679Y-80569999D01*
X110190001Y-80573675D01*
X110227323Y-80569999D01*
X110227334Y-80569999D01*
X110338987Y-80559002D01*
X110482248Y-80515545D01*
X110614277Y-80444973D01*
X110730002Y-80350000D01*
X110753805Y-80320996D01*
X110789801Y-80285000D01*
X110851939Y-80285000D01*
X111051898Y-80245226D01*
X111240256Y-80167205D01*
X111409774Y-80053937D01*
X111553937Y-79909774D01*
X111667205Y-79740256D01*
X111745226Y-79551898D01*
X111785000Y-79351939D01*
X111785000Y-79148061D01*
X111745226Y-78948102D01*
X111667205Y-78759744D01*
X111553937Y-78590226D01*
X111409774Y-78446063D01*
X111240256Y-78332795D01*
X111051898Y-78254774D01*
X110851939Y-78215000D01*
X110648061Y-78215000D01*
X110448102Y-78254774D01*
X110259744Y-78332795D01*
X110090226Y-78446063D01*
X109946063Y-78590226D01*
X109832795Y-78759744D01*
X109754774Y-78948102D01*
X109734506Y-79049999D01*
X106170445Y-79049999D01*
X106167079Y-79046632D01*
X106303937Y-78909774D01*
X106417205Y-78740256D01*
X106495226Y-78551898D01*
X106535000Y-78351939D01*
X106535000Y-78148061D01*
X106495226Y-77948102D01*
X106417205Y-77759744D01*
X106303937Y-77590226D01*
X106159774Y-77446063D01*
X106069841Y-77385972D01*
X106167205Y-77240256D01*
X106245226Y-77051898D01*
X106285000Y-76851939D01*
X106285000Y-76648061D01*
X106245226Y-76448102D01*
X106167205Y-76259744D01*
X106053937Y-76090226D01*
X105909774Y-75946063D01*
X105740256Y-75832795D01*
X105551898Y-75754774D01*
X105351939Y-75715000D01*
X105148061Y-75715000D01*
X104948102Y-75754774D01*
X104759744Y-75832795D01*
X104590226Y-75946063D01*
X104546289Y-75990000D01*
X102564802Y-75990000D01*
X99780000Y-73205199D01*
X99780000Y-72928178D01*
X99966632Y-72803475D01*
X100173475Y-72596632D01*
X100335990Y-72353411D01*
X100447932Y-72083158D01*
X100505000Y-71796260D01*
X100505000Y-71503740D01*
X100447932Y-71216842D01*
X100335990Y-70946589D01*
X100173475Y-70703368D01*
X99966632Y-70496525D01*
X99723411Y-70334010D01*
X99453158Y-70222068D01*
X99166260Y-70165000D01*
X98873740Y-70165000D01*
X98586842Y-70222068D01*
X98316589Y-70334010D01*
X98073368Y-70496525D01*
X97866525Y-70703368D01*
X97750000Y-70877760D01*
X97633475Y-70703368D01*
X97426632Y-70496525D01*
X97183411Y-70334010D01*
X96913158Y-70222068D01*
X96626260Y-70165000D01*
X96333740Y-70165000D01*
X96046842Y-70222068D01*
X95776589Y-70334010D01*
X95533368Y-70496525D01*
X95326525Y-70703368D01*
X95210689Y-70876729D01*
X94968397Y-70801208D01*
X94119605Y-71650000D01*
X94968397Y-72498792D01*
X95210689Y-72423271D01*
X95326525Y-72596632D01*
X95533368Y-72803475D01*
X95776589Y-72965990D01*
X96046842Y-73077932D01*
X96333740Y-73135000D01*
X96626260Y-73135000D01*
X96846408Y-73091209D01*
X101945154Y-78189956D01*
X93771467Y-78189956D01*
X93653475Y-78013368D01*
X93446632Y-77806525D01*
X93273271Y-77690689D01*
X93348792Y-77448397D01*
X92500000Y-76599605D01*
X91651208Y-77448397D01*
X91726729Y-77690689D01*
X91553368Y-77806525D01*
X91346525Y-78013368D01*
X91184010Y-78256589D01*
X91072068Y-78526842D01*
X91015000Y-78813740D01*
X91015000Y-79106260D01*
X91072068Y-79393158D01*
X91184010Y-79663411D01*
X91346525Y-79906632D01*
X91553368Y-80113475D01*
X91727760Y-80230000D01*
X91553368Y-80346525D01*
X91346525Y-80553368D01*
X91184010Y-80796589D01*
X91072068Y-81066842D01*
X91015000Y-81353740D01*
X91015000Y-81646260D01*
X91072068Y-81933158D01*
X91184010Y-82203411D01*
X91346525Y-82446632D01*
X91553368Y-82653475D01*
X91727760Y-82770000D01*
X91553368Y-82886525D01*
X91346525Y-83093368D01*
X91184010Y-83336589D01*
X91072068Y-83606842D01*
X91015000Y-83893740D01*
X91015000Y-84186260D01*
X91072068Y-84473158D01*
X91184010Y-84743411D01*
X91346525Y-84986632D01*
X91553368Y-85193475D01*
X91727760Y-85310000D01*
X91553368Y-85426525D01*
X91346525Y-85633368D01*
X91184010Y-85876589D01*
X91072068Y-86146842D01*
X91015000Y-86433740D01*
X91015000Y-86726260D01*
X91072068Y-87013158D01*
X91184010Y-87283411D01*
X91346525Y-87526632D01*
X91553368Y-87733475D01*
X91727760Y-87850000D01*
X91553368Y-87966525D01*
X91346525Y-88173368D01*
X91184010Y-88416589D01*
X91072068Y-88686842D01*
X91015000Y-88973740D01*
X91015000Y-89266260D01*
X91072068Y-89553158D01*
X91184010Y-89823411D01*
X91346525Y-90066632D01*
X91420455Y-90140562D01*
X91233088Y-90177832D01*
X90935537Y-90301082D01*
X90667748Y-90480013D01*
X90660000Y-90487761D01*
X90660000Y-76488531D01*
X91009389Y-76488531D01*
X91051401Y-76778019D01*
X91149081Y-77053747D01*
X91222528Y-77191157D01*
X91471603Y-77268792D01*
X92320395Y-76420000D01*
X92679605Y-76420000D01*
X93528397Y-77268792D01*
X93777472Y-77191157D01*
X93903371Y-76927117D01*
X93975339Y-76643589D01*
X93990611Y-76351469D01*
X93948599Y-76061981D01*
X93850919Y-75786253D01*
X93777472Y-75648843D01*
X93528397Y-75571208D01*
X92679605Y-76420000D01*
X92320395Y-76420000D01*
X91471603Y-75571208D01*
X91222528Y-75648843D01*
X91096629Y-75912883D01*
X91024661Y-76196411D01*
X91009389Y-76488531D01*
X90660000Y-76488531D01*
X90660000Y-72941542D01*
X90696589Y-72965990D01*
X90966842Y-73077932D01*
X91216719Y-73127636D01*
X91184010Y-73176589D01*
X91072068Y-73446842D01*
X91015000Y-73733740D01*
X91015000Y-74026260D01*
X91072068Y-74313158D01*
X91184010Y-74583411D01*
X91346525Y-74826632D01*
X91553368Y-75033475D01*
X91726729Y-75149311D01*
X91651208Y-75391603D01*
X92500000Y-76240395D01*
X93348792Y-75391603D01*
X93273271Y-75149311D01*
X93446632Y-75033475D01*
X93653475Y-74826632D01*
X93815990Y-74583411D01*
X93927932Y-74313158D01*
X93985000Y-74026260D01*
X93985000Y-73733740D01*
X93927932Y-73446842D01*
X93815990Y-73176589D01*
X93784111Y-73128878D01*
X94008531Y-73140611D01*
X94298019Y-73098599D01*
X94573747Y-73000919D01*
X94711157Y-72927472D01*
X94788792Y-72678397D01*
X93940000Y-71829605D01*
X93925858Y-71843748D01*
X93746253Y-71664143D01*
X93760395Y-71650000D01*
X92911603Y-70801208D01*
X92669311Y-70876729D01*
X92553475Y-70703368D01*
X92471710Y-70621603D01*
X93091208Y-70621603D01*
X93940000Y-71470395D01*
X94788792Y-70621603D01*
X94711157Y-70372528D01*
X94447117Y-70246629D01*
X94163589Y-70174661D01*
X93871469Y-70159389D01*
X93581981Y-70201401D01*
X93306253Y-70299081D01*
X93168843Y-70372528D01*
X93091208Y-70621603D01*
X92471710Y-70621603D01*
X92346632Y-70496525D01*
X92103411Y-70334010D01*
X91833158Y-70222068D01*
X91546260Y-70165000D01*
X91253740Y-70165000D01*
X90966842Y-70222068D01*
X90696589Y-70334010D01*
X90660000Y-70358458D01*
X90660000Y-67980931D01*
X90752627Y-68121118D01*
X91297557Y-68411649D01*
X91888696Y-68590287D01*
X92503328Y-68650168D01*
X93117831Y-68588990D01*
X93708592Y-68409103D01*
X94247373Y-68121118D01*
X94523543Y-67703148D01*
X92500000Y-65679605D01*
X92485858Y-65693748D01*
X92306253Y-65514143D01*
X92320395Y-65500000D01*
X92306253Y-65485858D01*
X92485858Y-65306253D01*
X92500000Y-65320395D01*
X92514143Y-65306253D01*
X92693748Y-65485858D01*
X92679605Y-65500000D01*
X94703148Y-67523543D01*
X95121118Y-67247373D01*
X95411649Y-66702443D01*
X95590287Y-66111304D01*
X95650168Y-65496672D01*
X95588990Y-64882169D01*
X95409103Y-64291408D01*
X95121118Y-63752627D01*
X94980931Y-63660000D01*
X100590000Y-63660000D01*
X100590001Y-68717571D01*
%TA.AperFunction,Conductor*%
D22*
G36*
X100590001Y-68717571D02*
G01*
X100586807Y-68750000D01*
X100599550Y-68879383D01*
X100637290Y-69003793D01*
X100698575Y-69118450D01*
X100781052Y-69218948D01*
X100881550Y-69301425D01*
X100996207Y-69362710D01*
X101120617Y-69400450D01*
X101217581Y-69410000D01*
X101250000Y-69413193D01*
X101282419Y-69410000D01*
X129217581Y-69410000D01*
X129250000Y-69413193D01*
X129282419Y-69410000D01*
X129379383Y-69400450D01*
X129503793Y-69362710D01*
X129618450Y-69301425D01*
X129718948Y-69218948D01*
X129801425Y-69118450D01*
X129862710Y-69003793D01*
X129900450Y-68879383D01*
X129913193Y-68750000D01*
X129910000Y-68717581D01*
X129910000Y-67769608D01*
X129976458Y-67703150D01*
X130252627Y-68121118D01*
X130797557Y-68411649D01*
X131388696Y-68590287D01*
X132003328Y-68650168D01*
X132617831Y-68588990D01*
X133208592Y-68409103D01*
X133747373Y-68121118D01*
X133840000Y-67980931D01*
X133840001Y-95019070D01*
X133747373Y-94878882D01*
X133202443Y-94588351D01*
X132611304Y-94409713D01*
X131996672Y-94349832D01*
X131382169Y-94411010D01*
X130791408Y-94590897D01*
X130252627Y-94878882D01*
X129976457Y-95296852D01*
X132000000Y-97320395D01*
X132014143Y-97306253D01*
X132193748Y-97485858D01*
X132179605Y-97500000D01*
X132193748Y-97514143D01*
X132014143Y-97693748D01*
X132000000Y-97679605D01*
X131985858Y-97693748D01*
X131806253Y-97514143D01*
X131820395Y-97500000D01*
X129796852Y-95476457D01*
X129378882Y-95752627D01*
X129088351Y-96297557D01*
X128909713Y-96888696D01*
X128849832Y-97503328D01*
X128911010Y-98117831D01*
X129090897Y-98708592D01*
X129378882Y-99247373D01*
X129519069Y-99340000D01*
X127941941Y-99340000D01*
X127995472Y-99239850D01*
X128046008Y-99073254D01*
X128063072Y-98900000D01*
X128063072Y-98100000D01*
X128046008Y-97926746D01*
X127995472Y-97760150D01*
X127913405Y-97606614D01*
X127802962Y-97472038D01*
X127668386Y-97361595D01*
X127514850Y-97279528D01*
X127348254Y-97228992D01*
X127175000Y-97211928D01*
X125925000Y-97211928D01*
X125751746Y-97228992D01*
X125585150Y-97279528D01*
X125431614Y-97361595D01*
X125300000Y-97469607D01*
X125168386Y-97361595D01*
X125014850Y-97279528D01*
X124848254Y-97228992D01*
X124675000Y-97211928D01*
X123425000Y-97211928D01*
X123251746Y-97228992D01*
X123085150Y-97279528D01*
X122931614Y-97361595D01*
X122800000Y-97469607D01*
X122668386Y-97361595D01*
X122514850Y-97279528D01*
X122348254Y-97228992D01*
X122175000Y-97211928D01*
X120925000Y-97211928D01*
X120751746Y-97228992D01*
X120585150Y-97279528D01*
X120431614Y-97361595D01*
X120300000Y-97469607D01*
X120168386Y-97361595D01*
X120014850Y-97279528D01*
X119848254Y-97228992D01*
X119675000Y-97211928D01*
X118425000Y-97211928D01*
X118251746Y-97228992D01*
X118085150Y-97279528D01*
X117931614Y-97361595D01*
X117800000Y-97469607D01*
X117668386Y-97361595D01*
X117514850Y-97279528D01*
X117348254Y-97228992D01*
X117175000Y-97211928D01*
X115925000Y-97211928D01*
X115751746Y-97228992D01*
X115585150Y-97279528D01*
X115431614Y-97361595D01*
X115300000Y-97469607D01*
X115168386Y-97361595D01*
X115014850Y-97279528D01*
X114848254Y-97228992D01*
X114675000Y-97211928D01*
X113425000Y-97211928D01*
X113251746Y-97228992D01*
X113085150Y-97279528D01*
X112931614Y-97361595D01*
X112800000Y-97469607D01*
X112668386Y-97361595D01*
X112514850Y-97279528D01*
X112348254Y-97228992D01*
X112175000Y-97211928D01*
X110925000Y-97211928D01*
X110751746Y-97228992D01*
X110585150Y-97279528D01*
X110431614Y-97361595D01*
X110297038Y-97472038D01*
X110274625Y-97499349D01*
X110101939Y-97465000D01*
X109898061Y-97465000D01*
X109698102Y-97504774D01*
X109509744Y-97582795D01*
X109340226Y-97696063D01*
X109196063Y-97840226D01*
X109082795Y-98009744D01*
X109004774Y-98198102D01*
X108965000Y-98398061D01*
X108965000Y-98601939D01*
X109004774Y-98801898D01*
X109082795Y-98990256D01*
X109196063Y-99159774D01*
X109340226Y-99303937D01*
X109394198Y-99340000D01*
X104471406Y-99340000D01*
X104708747Y-99255919D01*
X104846157Y-99182472D01*
X104923792Y-98933397D01*
X104075000Y-98084605D01*
X103226208Y-98933397D01*
X103303843Y-99182472D01*
X103567883Y-99308371D01*
X103692490Y-99340000D01*
X102534208Y-99340000D01*
X102543072Y-99250000D01*
X102540000Y-98885750D01*
X102381250Y-98727000D01*
X101157000Y-98727000D01*
X101157000Y-98747000D01*
X100903000Y-98747000D01*
X100903000Y-98727000D01*
X98617000Y-98727000D01*
X98617000Y-98747000D01*
X98363000Y-98747000D01*
X98363000Y-98727000D01*
X97138750Y-98727000D01*
X96980000Y-98885750D01*
X96976928Y-99250000D01*
X96985792Y-99340000D01*
X95821406Y-99340000D01*
X96058747Y-99255919D01*
X96196157Y-99182472D01*
X96273792Y-98933397D01*
X95558126Y-98217731D01*
X95590287Y-98111304D01*
X95609873Y-97910268D01*
X96453397Y-98753792D01*
X96702472Y-98676157D01*
X96828371Y-98412117D01*
X96900339Y-98128589D01*
X96909675Y-97950000D01*
X96976928Y-97950000D01*
X96980000Y-98314250D01*
X97138750Y-98473000D01*
X98363000Y-98473000D01*
X98363000Y-97473750D01*
X98617000Y-97473750D01*
X98617000Y-98473000D01*
X100903000Y-98473000D01*
X100903000Y-97473750D01*
X101157000Y-97473750D01*
X101157000Y-98473000D01*
X102381250Y-98473000D01*
X102540000Y-98314250D01*
X102542873Y-97973531D01*
X102584389Y-97973531D01*
X102626401Y-98263019D01*
X102724081Y-98538747D01*
X102797528Y-98676157D01*
X103046603Y-98753792D01*
X103895395Y-97905000D01*
X104254605Y-97905000D01*
X105103397Y-98753792D01*
X105352472Y-98676157D01*
X105478371Y-98412117D01*
X105550339Y-98128589D01*
X105565611Y-97836469D01*
X105523599Y-97546981D01*
X105425919Y-97271253D01*
X105352472Y-97133843D01*
X105103397Y-97056208D01*
X104254605Y-97905000D01*
X103895395Y-97905000D01*
X103046603Y-97056208D01*
X102797528Y-97133843D01*
X102671629Y-97397883D01*
X102599661Y-97681411D01*
X102584389Y-97973531D01*
X102542873Y-97973531D01*
X102543072Y-97950000D01*
X102530812Y-97825518D01*
X102494502Y-97705820D01*
X102435537Y-97595506D01*
X102356185Y-97498815D01*
X102259494Y-97419463D01*
X102149180Y-97360498D01*
X102029482Y-97324188D01*
X101905000Y-97311928D01*
X101315750Y-97315000D01*
X101157000Y-97473750D01*
X100903000Y-97473750D01*
X100744250Y-97315000D01*
X100155000Y-97311928D01*
X100030518Y-97324188D01*
X99910820Y-97360498D01*
X99800506Y-97419463D01*
X99760000Y-97452705D01*
X99719494Y-97419463D01*
X99609180Y-97360498D01*
X99489482Y-97324188D01*
X99365000Y-97311928D01*
X98775750Y-97315000D01*
X98617000Y-97473750D01*
X98363000Y-97473750D01*
X98204250Y-97315000D01*
X97615000Y-97311928D01*
X97490518Y-97324188D01*
X97370820Y-97360498D01*
X97260506Y-97419463D01*
X97163815Y-97498815D01*
X97084463Y-97595506D01*
X97025498Y-97705820D01*
X96989188Y-97825518D01*
X96976928Y-97950000D01*
X96909675Y-97950000D01*
X96915611Y-97836469D01*
X96873599Y-97546981D01*
X96775919Y-97271253D01*
X96702472Y-97133843D01*
X96453397Y-97056208D01*
X95611010Y-97898595D01*
X95649784Y-97500611D01*
X96273792Y-96876603D01*
X103226208Y-96876603D01*
X104075000Y-97725395D01*
X104923792Y-96876603D01*
X104846157Y-96627528D01*
X104582117Y-96501629D01*
X104298589Y-96429661D01*
X104006469Y-96414389D01*
X103716981Y-96456401D01*
X103441253Y-96554081D01*
X103303843Y-96627528D01*
X103226208Y-96876603D01*
X96273792Y-96876603D01*
X96196157Y-96627528D01*
X95932117Y-96501629D01*
X95648589Y-96429661D01*
X95448008Y-96419175D01*
X95409103Y-96291408D01*
X95121118Y-95752627D01*
X94703148Y-95476457D01*
X92679605Y-97500000D01*
X92693748Y-97514143D01*
X92514143Y-97693748D01*
X92500000Y-97679605D01*
X92485858Y-97693748D01*
X92306253Y-97514143D01*
X92320395Y-97500000D01*
X92306253Y-97485858D01*
X92485858Y-97306253D01*
X92500000Y-97320395D01*
X94523543Y-95296852D01*
X94247373Y-94878882D01*
X93702443Y-94588351D01*
X93111304Y-94409713D01*
X92496672Y-94349832D01*
X91882169Y-94411010D01*
X91291408Y-94590897D01*
X90752627Y-94878882D01*
X90660000Y-95019069D01*
X90660000Y-93012239D01*
X90667748Y-93019987D01*
X90935537Y-93198918D01*
X91233088Y-93322168D01*
X91548967Y-93385000D01*
X91871033Y-93385000D01*
X92186912Y-93322168D01*
X92484463Y-93198918D01*
X92694809Y-93058370D01*
X92719463Y-93104494D01*
X92798815Y-93201185D01*
X92895506Y-93280537D01*
X93005820Y-93339502D01*
X93125518Y-93375812D01*
X93250000Y-93388072D01*
X93823723Y-93385604D01*
X93802616Y-93466108D01*
X93783282Y-93787595D01*
X93827039Y-94106675D01*
X93932205Y-94411088D01*
X94025186Y-94585044D01*
X94289587Y-94680808D01*
X95245395Y-93725000D01*
X94906992Y-93386597D01*
X95250000Y-93388072D01*
X95266092Y-93386487D01*
X95425000Y-93545395D01*
X96380808Y-92589587D01*
X96285044Y-92325186D01*
X95995429Y-92184296D01*
X95885515Y-92155478D01*
X95885000Y-92035750D01*
X95726250Y-91877000D01*
X94377000Y-91877000D01*
X94377000Y-91897000D01*
X94123000Y-91897000D01*
X94123000Y-91877000D01*
X94103000Y-91877000D01*
X94103000Y-91623000D01*
X94123000Y-91623000D01*
X94123000Y-90273750D01*
X94377000Y-90273750D01*
X94377000Y-91623000D01*
X95726250Y-91623000D01*
X95885000Y-91464250D01*
X95888072Y-90750000D01*
X95875812Y-90625518D01*
X95839502Y-90505820D01*
X95780537Y-90395506D01*
X95701185Y-90298815D01*
X95604494Y-90219463D01*
X95494180Y-90160498D01*
X95374482Y-90124188D01*
X95250000Y-90111928D01*
X94535750Y-90115000D01*
X94377000Y-90273750D01*
X94123000Y-90273750D01*
X93964250Y-90115000D01*
X93606645Y-90113462D01*
X93653475Y-90066632D01*
X93815990Y-89823411D01*
X93927932Y-89553158D01*
X93985000Y-89266260D01*
X93985000Y-88973740D01*
X93941210Y-88753592D01*
X94186005Y-88508797D01*
X94215002Y-88485000D01*
X94309975Y-88369275D01*
X94380547Y-88237246D01*
X94424004Y-88093985D01*
X94435001Y-87982332D01*
X94435001Y-87982323D01*
X94438677Y-87945000D01*
X94435001Y-87907677D01*
X94435001Y-86610798D01*
X95246503Y-85799297D01*
X95275500Y-85775500D01*
X95370473Y-85659775D01*
X95441045Y-85527746D01*
X95484502Y-85384485D01*
X95495499Y-85272832D01*
X95495499Y-85272824D01*
X95499175Y-85235499D01*
X95495499Y-85198174D01*
X95495499Y-82079302D01*
X96064802Y-81510000D01*
X103935199Y-81510000D01*
X104490000Y-82064802D01*
X104490001Y-84212668D01*
X104486324Y-84250000D01*
X104489015Y-84277326D01*
X104465000Y-84398061D01*
X104465000Y-84601939D01*
X104473565Y-84645001D01*
X103991544Y-84645001D01*
X104045000Y-84376260D01*
X104045000Y-84083740D01*
X103987932Y-83796842D01*
X103875990Y-83526589D01*
X103713475Y-83283368D01*
X103506632Y-83076525D01*
X103263411Y-82914010D01*
X102993158Y-82802068D01*
X102706260Y-82745000D01*
X102413740Y-82745000D01*
X102126842Y-82802068D01*
X101856589Y-82914010D01*
X101613368Y-83076525D01*
X101406525Y-83283368D01*
X101394861Y-83300824D01*
X101371502Y-83223820D01*
X101312537Y-83113506D01*
X101233185Y-83016815D01*
X101136494Y-82937463D01*
X101026180Y-82878498D01*
X100906482Y-82842188D01*
X100782000Y-82829928D01*
X100305750Y-82833000D01*
X100147000Y-82991750D01*
X100147000Y-84103000D01*
X100167000Y-84103000D01*
X100167000Y-84357000D01*
X100147000Y-84357000D01*
X100147000Y-84377000D01*
X99893000Y-84377000D01*
X99893000Y-84357000D01*
X99873000Y-84357000D01*
X99873000Y-84103000D01*
X99893000Y-84103000D01*
X99893000Y-82991750D01*
X99734250Y-82833000D01*
X99258000Y-82829928D01*
X99133518Y-82842188D01*
X99013820Y-82878498D01*
X98903506Y-82937463D01*
X98806815Y-83016815D01*
X98727463Y-83113506D01*
X98668498Y-83223820D01*
X98645139Y-83300824D01*
X98633475Y-83283368D01*
X98426632Y-83076525D01*
X98183411Y-82914010D01*
X97913158Y-82802068D01*
X97626260Y-82745000D01*
X97333740Y-82745000D01*
X97046842Y-82802068D01*
X96776589Y-82914010D01*
X96533368Y-83076525D01*
X96326525Y-83283368D01*
X96164010Y-83526589D01*
X96052068Y-83796842D01*
X95995000Y-84083740D01*
X95995000Y-84376260D01*
X96052068Y-84663158D01*
X96164010Y-84933411D01*
X96326525Y-85176632D01*
X96533368Y-85383475D01*
X96776589Y-85545990D01*
X97046842Y-85657932D01*
X97333740Y-85715000D01*
X97626260Y-85715000D01*
X97715000Y-85697348D01*
X97715000Y-85851939D01*
X97754774Y-86051898D01*
X97832795Y-86240256D01*
X97946063Y-86409774D01*
X98090226Y-86553937D01*
X98259744Y-86667205D01*
X98448102Y-86745226D01*
X98648061Y-86785000D01*
X98851939Y-86785000D01*
X99051898Y-86745226D01*
X99240256Y-86667205D01*
X99409774Y-86553937D01*
X99553937Y-86409774D01*
X99667205Y-86240256D01*
X99698377Y-86165001D01*
X100518485Y-86165001D01*
X100504774Y-86198102D01*
X100465000Y-86398061D01*
X100465000Y-86601939D01*
X100504774Y-86801898D01*
X100582795Y-86990256D01*
X100696063Y-87159774D01*
X100840226Y-87303937D01*
X101009744Y-87417205D01*
X101198102Y-87495226D01*
X101398061Y-87535000D01*
X101475774Y-87535000D01*
X101607752Y-87605545D01*
X101751013Y-87649002D01*
X101862666Y-87659999D01*
X101862676Y-87659999D01*
X101899998Y-87663675D01*
X101937321Y-87659999D01*
X109562679Y-87659999D01*
X109600001Y-87663675D01*
X109637323Y-87659999D01*
X109637334Y-87659999D01*
X109748987Y-87649002D01*
X109892248Y-87605545D01*
X110024277Y-87534973D01*
X110140002Y-87440000D01*
X110163805Y-87410996D01*
X110314801Y-87260000D01*
X121685199Y-87260000D01*
X122599841Y-88174643D01*
X122599841Y-88215002D01*
X98652590Y-88215002D01*
X97915699Y-87478111D01*
X97891896Y-87449108D01*
X97776171Y-87354135D01*
X97644142Y-87283563D01*
X97500934Y-87240122D01*
X97445984Y-87185172D01*
X97276466Y-87071904D01*
X97088108Y-86993883D01*
X96888149Y-86954109D01*
X96684271Y-86954109D01*
X96484312Y-86993883D01*
X96295954Y-87071904D01*
X96126436Y-87185172D01*
X95982273Y-87329335D01*
X95869005Y-87498853D01*
X95790984Y-87687211D01*
X95751210Y-87887170D01*
X95751210Y-88091048D01*
X95790984Y-88291007D01*
X95869005Y-88479365D01*
X95982273Y-88648883D01*
X96126436Y-88793046D01*
X96295954Y-88906314D01*
X96484312Y-88984335D01*
X96684271Y-89024109D01*
X96888149Y-89024109D01*
X97088108Y-88984335D01*
X97218365Y-88930380D01*
X97773989Y-89486005D01*
X97797787Y-89515003D01*
X97913512Y-89609976D01*
X98045541Y-89680548D01*
X98188802Y-89724005D01*
X98300455Y-89735002D01*
X98300464Y-89735002D01*
X98337787Y-89738678D01*
X98375110Y-89735002D01*
X101310192Y-89735002D01*
X101172166Y-89827228D01*
X101128229Y-89871165D01*
X98605578Y-89871165D01*
X98568245Y-89867488D01*
X98530912Y-89871165D01*
X98419259Y-89882162D01*
X98275998Y-89925619D01*
X98143969Y-89996191D01*
X98028244Y-90091164D01*
X98004441Y-90120168D01*
X97887047Y-90237562D01*
X97858043Y-90261365D01*
X97802915Y-90328540D01*
X97763070Y-90377090D01*
X97716477Y-90464259D01*
X97692498Y-90509120D01*
X97672607Y-90574694D01*
X97502915Y-90540940D01*
X97299037Y-90540940D01*
X97099078Y-90580714D01*
X96910720Y-90658735D01*
X96741202Y-90772003D01*
X96597039Y-90916166D01*
X96483771Y-91085684D01*
X96405750Y-91274042D01*
X96365976Y-91474001D01*
X96365976Y-91677879D01*
X96405750Y-91877838D01*
X96483771Y-92066196D01*
X96597039Y-92235714D01*
X96741202Y-92379877D01*
X96910720Y-92493145D01*
X97099078Y-92571166D01*
X97299037Y-92610940D01*
X97361175Y-92610940D01*
X97730001Y-92979767D01*
X97730001Y-93862166D01*
X97689408Y-93763649D01*
X97687763Y-93760575D01*
X97494541Y-93750064D01*
X97039605Y-94205000D01*
X97053748Y-94219143D01*
X96954566Y-94318324D01*
X96965704Y-94295429D01*
X97047384Y-93983892D01*
X97056719Y-93828676D01*
X97314936Y-93570459D01*
X97304425Y-93377237D01*
X97134397Y-93306438D01*
X97000959Y-93279639D01*
X96917795Y-93038912D01*
X96824814Y-92864956D01*
X96560413Y-92769192D01*
X95604605Y-93725000D01*
X95618748Y-93739143D01*
X95439143Y-93918748D01*
X95425000Y-93904605D01*
X94469192Y-94860413D01*
X94564956Y-95124814D01*
X94854571Y-95265704D01*
X95166108Y-95347384D01*
X95487595Y-95366718D01*
X95806675Y-95322961D01*
X96111088Y-95217795D01*
X96285044Y-95124814D01*
X96378885Y-94865723D01*
X96382500Y-94862108D01*
X96407660Y-94887268D01*
X96415575Y-95032763D01*
X96585603Y-95103562D01*
X96766176Y-95139828D01*
X96950355Y-95140171D01*
X96976928Y-95134936D01*
X96976928Y-95900000D01*
X96993992Y-96073254D01*
X97044528Y-96239850D01*
X97126595Y-96393386D01*
X97237038Y-96527962D01*
X97371614Y-96638405D01*
X97525150Y-96720472D01*
X97691746Y-96771008D01*
X97865000Y-96788072D01*
X99115000Y-96788072D01*
X99288254Y-96771008D01*
X99454850Y-96720472D01*
X99608386Y-96638405D01*
X99742962Y-96527962D01*
X99760000Y-96507201D01*
X99777038Y-96527962D01*
X99911614Y-96638405D01*
X100065150Y-96720472D01*
X100231746Y-96771008D01*
X100405000Y-96788072D01*
X101655000Y-96788072D01*
X101828254Y-96771008D01*
X101994850Y-96720472D01*
X102148386Y-96638405D01*
X102282962Y-96527962D01*
X102393405Y-96393386D01*
X102475472Y-96239850D01*
X102526008Y-96073254D01*
X102543072Y-95900000D01*
X102543072Y-95139205D01*
X102546176Y-95139828D01*
X102730355Y-95140171D01*
X102911061Y-95104574D01*
X103081351Y-95034408D01*
X103084425Y-95032763D01*
X103092340Y-94887268D01*
X103117500Y-94862108D01*
X103121115Y-94865723D01*
X103214956Y-95124814D01*
X103504571Y-95265704D01*
X103816108Y-95347384D01*
X104137595Y-95366718D01*
X104456675Y-95322961D01*
X104761088Y-95217795D01*
X104935044Y-95124814D01*
X105030808Y-94860413D01*
X104075000Y-93904605D01*
X104060858Y-93918748D01*
X103881253Y-93739143D01*
X103895395Y-93725000D01*
X104254605Y-93725000D01*
X105210413Y-94680808D01*
X105474814Y-94585044D01*
X105615704Y-94295429D01*
X105673496Y-94075000D01*
X107561928Y-94075000D01*
X107574188Y-94199482D01*
X107610498Y-94319180D01*
X107669463Y-94429494D01*
X107748815Y-94526185D01*
X107845506Y-94605537D01*
X107955820Y-94664502D01*
X108075518Y-94700812D01*
X108200000Y-94713072D01*
X108764250Y-94710000D01*
X108923000Y-94551250D01*
X108923000Y-93277000D01*
X107723750Y-93277000D01*
X107565000Y-93435750D01*
X107561928Y-94075000D01*
X105673496Y-94075000D01*
X105697384Y-93983892D01*
X105716718Y-93662405D01*
X105672961Y-93343325D01*
X105567795Y-93038912D01*
X105474814Y-92864956D01*
X105210413Y-92769192D01*
X104254605Y-93725000D01*
X103895395Y-93725000D01*
X103881253Y-93710858D01*
X104060858Y-93531253D01*
X104075000Y-93545395D01*
X105030808Y-92589587D01*
X104935044Y-92325186D01*
X104729101Y-92225000D01*
X107561928Y-92225000D01*
X107565000Y-92864250D01*
X107723750Y-93023000D01*
X108923000Y-93023000D01*
X108923000Y-91748750D01*
X109177000Y-91748750D01*
X109177000Y-93023000D01*
X109197000Y-93023000D01*
X109197000Y-93277000D01*
X109177000Y-93277000D01*
X109177000Y-94551250D01*
X109335750Y-94710000D01*
X109900000Y-94713072D01*
X110024482Y-94700812D01*
X110099056Y-94678190D01*
X110053992Y-94826746D01*
X110036928Y-95000000D01*
X110036928Y-95800000D01*
X110053992Y-95973254D01*
X110104528Y-96139850D01*
X110186595Y-96293386D01*
X110297038Y-96427962D01*
X110431614Y-96538405D01*
X110585150Y-96620472D01*
X110751746Y-96671008D01*
X110925000Y-96688072D01*
X112175000Y-96688072D01*
X112348254Y-96671008D01*
X112514850Y-96620472D01*
X112668386Y-96538405D01*
X112800000Y-96430393D01*
X112931614Y-96538405D01*
X113085150Y-96620472D01*
X113251746Y-96671008D01*
X113425000Y-96688072D01*
X114675000Y-96688072D01*
X114848254Y-96671008D01*
X115014850Y-96620472D01*
X115168386Y-96538405D01*
X115300000Y-96430393D01*
X115431614Y-96538405D01*
X115585150Y-96620472D01*
X115751746Y-96671008D01*
X115925000Y-96688072D01*
X117175000Y-96688072D01*
X117348254Y-96671008D01*
X117514850Y-96620472D01*
X117668386Y-96538405D01*
X117800000Y-96430393D01*
X117931614Y-96538405D01*
X118085150Y-96620472D01*
X118251746Y-96671008D01*
X118425000Y-96688072D01*
X119675000Y-96688072D01*
X119848254Y-96671008D01*
X120014850Y-96620472D01*
X120168386Y-96538405D01*
X120300000Y-96430393D01*
X120431614Y-96538405D01*
X120585150Y-96620472D01*
X120751746Y-96671008D01*
X120925000Y-96688072D01*
X122175000Y-96688072D01*
X122348254Y-96671008D01*
X122514850Y-96620472D01*
X122668386Y-96538405D01*
X122800000Y-96430393D01*
X122931614Y-96538405D01*
X123085150Y-96620472D01*
X123251746Y-96671008D01*
X123425000Y-96688072D01*
X124675000Y-96688072D01*
X124848254Y-96671008D01*
X125014850Y-96620472D01*
X125168386Y-96538405D01*
X125300000Y-96430393D01*
X125431614Y-96538405D01*
X125585150Y-96620472D01*
X125751746Y-96671008D01*
X125925000Y-96688072D01*
X127175000Y-96688072D01*
X127348254Y-96671008D01*
X127514850Y-96620472D01*
X127668386Y-96538405D01*
X127802962Y-96427962D01*
X127913405Y-96293386D01*
X127995472Y-96139850D01*
X128046008Y-95973254D01*
X128063072Y-95800000D01*
X128063072Y-95000000D01*
X128046008Y-94826746D01*
X127995472Y-94660150D01*
X127913405Y-94506614D01*
X127802962Y-94372038D01*
X127668386Y-94261595D01*
X127634996Y-94243747D01*
X127790706Y-94054013D01*
X127928599Y-93796033D01*
X128013513Y-93516110D01*
X128035000Y-93297949D01*
X128035000Y-93002050D01*
X128013513Y-92783889D01*
X127928599Y-92503966D01*
X127790706Y-92245986D01*
X127605134Y-92019866D01*
X127379013Y-91834294D01*
X127121033Y-91696401D01*
X126841110Y-91611487D01*
X126550000Y-91582815D01*
X126258889Y-91611487D01*
X125978966Y-91696401D01*
X125720986Y-91834294D01*
X125494866Y-92019866D01*
X125309294Y-92245987D01*
X125300000Y-92263374D01*
X125290706Y-92245986D01*
X125105134Y-92019866D01*
X124879013Y-91834294D01*
X124621033Y-91696401D01*
X124341110Y-91611487D01*
X124050000Y-91582815D01*
X123758889Y-91611487D01*
X123478966Y-91696401D01*
X123220986Y-91834294D01*
X122994866Y-92019866D01*
X122809294Y-92245987D01*
X122800000Y-92263374D01*
X122790706Y-92245986D01*
X122605134Y-92019866D01*
X122379013Y-91834294D01*
X122121033Y-91696401D01*
X121841110Y-91611487D01*
X121550000Y-91582815D01*
X121258889Y-91611487D01*
X120978966Y-91696401D01*
X120720986Y-91834294D01*
X120494866Y-92019866D01*
X120309294Y-92245987D01*
X120300000Y-92263374D01*
X120290706Y-92245986D01*
X120105134Y-92019866D01*
X119879013Y-91834294D01*
X119621033Y-91696401D01*
X119341110Y-91611487D01*
X119050000Y-91582815D01*
X118758889Y-91611487D01*
X118478966Y-91696401D01*
X118220986Y-91834294D01*
X117994866Y-92019866D01*
X117809294Y-92245987D01*
X117800000Y-92263374D01*
X117790706Y-92245986D01*
X117605134Y-92019866D01*
X117379013Y-91834294D01*
X117121033Y-91696401D01*
X116841110Y-91611487D01*
X116550000Y-91582815D01*
X116258889Y-91611487D01*
X115978966Y-91696401D01*
X115720986Y-91834294D01*
X115494866Y-92019866D01*
X115309294Y-92245987D01*
X115300000Y-92263374D01*
X115290706Y-92245986D01*
X115105134Y-92019866D01*
X114879013Y-91834294D01*
X114621033Y-91696401D01*
X114341110Y-91611487D01*
X114050000Y-91582815D01*
X113758889Y-91611487D01*
X113478966Y-91696401D01*
X113220986Y-91834294D01*
X112994866Y-92019866D01*
X112809294Y-92245987D01*
X112800000Y-92263374D01*
X112790706Y-92245986D01*
X112605134Y-92019866D01*
X112379013Y-91834294D01*
X112121033Y-91696401D01*
X111841110Y-91611487D01*
X111550000Y-91582815D01*
X111258889Y-91611487D01*
X110978966Y-91696401D01*
X110720986Y-91834294D01*
X110500055Y-92015608D01*
X110489502Y-91980820D01*
X110430537Y-91870506D01*
X110351185Y-91773815D01*
X110254494Y-91694463D01*
X110144180Y-91635498D01*
X110024482Y-91599188D01*
X109900000Y-91586928D01*
X109335750Y-91590000D01*
X109177000Y-91748750D01*
X108923000Y-91748750D01*
X108764250Y-91590000D01*
X108200000Y-91586928D01*
X108075518Y-91599188D01*
X107955820Y-91635498D01*
X107845506Y-91694463D01*
X107748815Y-91773815D01*
X107669463Y-91870506D01*
X107610498Y-91980820D01*
X107574188Y-92100518D01*
X107561928Y-92225000D01*
X104729101Y-92225000D01*
X104645429Y-92184296D01*
X104333892Y-92102616D01*
X104012405Y-92083282D01*
X103693325Y-92127039D01*
X103388912Y-92232205D01*
X103251879Y-92305450D01*
X103267853Y-92266886D01*
X103307627Y-92066927D01*
X103307627Y-91863049D01*
X103267853Y-91663090D01*
X103189832Y-91474732D01*
X103076564Y-91305214D01*
X102932401Y-91161051D01*
X102776013Y-91056556D01*
X102827166Y-90933063D01*
X102866940Y-90733104D01*
X102866940Y-90529226D01*
X102827166Y-90329267D01*
X102749145Y-90140909D01*
X102635877Y-89971391D01*
X102491714Y-89827228D01*
X102353688Y-89735002D01*
X124060680Y-89735002D01*
X124098002Y-89738678D01*
X124135324Y-89735002D01*
X124135335Y-89735002D01*
X124246988Y-89724005D01*
X124390249Y-89680548D01*
X124522278Y-89609976D01*
X124638003Y-89515003D01*
X124661806Y-89485999D01*
X124892416Y-89255389D01*
X126575924Y-89255389D01*
X126594603Y-89398962D01*
X126640933Y-89536131D01*
X126695041Y-89630180D01*
X128159274Y-91680106D01*
X128170613Y-91701320D01*
X128200030Y-91737165D01*
X129629536Y-93738474D01*
X129641213Y-93760319D01*
X129671506Y-93797231D01*
X129678191Y-93806590D01*
X129694432Y-93825166D01*
X129733062Y-93872237D01*
X129741994Y-93879568D01*
X129749607Y-93888275D01*
X129797896Y-93925445D01*
X129844980Y-93964087D01*
X129855175Y-93969536D01*
X129864336Y-93976588D01*
X129918941Y-94003620D01*
X129972667Y-94032337D01*
X129983728Y-94035692D01*
X129994090Y-94040822D01*
X130052917Y-94056681D01*
X130111215Y-94074365D01*
X130122721Y-94075498D01*
X130133882Y-94078507D01*
X130194659Y-94082583D01*
X130255300Y-94088556D01*
X130266808Y-94087423D01*
X130278339Y-94088196D01*
X130338736Y-94080338D01*
X130399384Y-94074365D01*
X130410450Y-94071008D01*
X130421912Y-94069517D01*
X130479622Y-94050025D01*
X130537932Y-94032337D01*
X130548130Y-94026886D01*
X130559082Y-94023187D01*
X130611883Y-93992809D01*
X130665619Y-93964087D01*
X130674557Y-93956752D01*
X130684577Y-93950987D01*
X130730443Y-93910887D01*
X130777537Y-93872238D01*
X130784871Y-93863302D01*
X130793575Y-93855692D01*
X130830733Y-93807419D01*
X130869387Y-93760320D01*
X130874838Y-93750122D01*
X130881888Y-93740963D01*
X130908913Y-93686372D01*
X130937637Y-93632633D01*
X130940993Y-93621570D01*
X130946122Y-93611209D01*
X130961978Y-93552391D01*
X130979665Y-93494085D01*
X130980798Y-93482577D01*
X130983807Y-93471417D01*
X130987883Y-93410643D01*
X130990300Y-93386105D01*
X130990300Y-93374610D01*
X130993496Y-93326960D01*
X130990300Y-93302394D01*
X130990300Y-93278079D01*
X131485444Y-93855745D01*
X131563791Y-93930809D01*
X131685867Y-94008650D01*
X131820784Y-94061181D01*
X131963356Y-94086380D01*
X132108106Y-94083282D01*
X132249469Y-94052003D01*
X132382014Y-93993747D01*
X132500647Y-93910752D01*
X132600809Y-93806208D01*
X132678650Y-93684132D01*
X132731181Y-93549215D01*
X132756380Y-93406643D01*
X132753282Y-93261894D01*
X132722003Y-93120530D01*
X132663747Y-92987985D01*
X132601549Y-92899080D01*
X131223342Y-91291179D01*
X132601550Y-89683269D01*
X132663748Y-89594363D01*
X132722003Y-89461819D01*
X132753282Y-89320455D01*
X132756380Y-89175706D01*
X132731180Y-89033134D01*
X132678649Y-88898217D01*
X132600807Y-88776141D01*
X132500645Y-88671597D01*
X132382012Y-88588602D01*
X132249467Y-88530347D01*
X132108103Y-88499068D01*
X131963354Y-88495970D01*
X131820782Y-88521170D01*
X131685865Y-88573701D01*
X131563789Y-88651543D01*
X131485442Y-88726606D01*
X130990300Y-89304273D01*
X130990300Y-89268454D01*
X130993856Y-89232349D01*
X130986956Y-89162295D01*
X130979665Y-89088265D01*
X130937637Y-88949717D01*
X130920535Y-88917721D01*
X130732807Y-88464508D01*
X130722274Y-88429786D01*
X130654024Y-88302100D01*
X130562174Y-88190182D01*
X130450256Y-88098333D01*
X130354565Y-88047186D01*
X130354562Y-88047185D01*
X130322570Y-88030085D01*
X130287856Y-88019554D01*
X129834637Y-87831826D01*
X129802641Y-87814724D01*
X129767921Y-87804192D01*
X129767919Y-87804191D01*
X129707950Y-87786000D01*
X129664093Y-87772696D01*
X129664092Y-87772696D01*
X129664089Y-87772695D01*
X129576772Y-87764095D01*
X129520008Y-87758504D01*
X129520004Y-87758504D01*
X129463240Y-87764095D01*
X129375923Y-87772695D01*
X129375920Y-87772696D01*
X129375919Y-87772696D01*
X129360968Y-87777231D01*
X129272092Y-87804191D01*
X129272081Y-87804196D01*
X129237371Y-87814725D01*
X129205386Y-87831821D01*
X128752158Y-88019554D01*
X128717442Y-88030085D01*
X128589755Y-88098334D01*
X128477836Y-88190183D01*
X128439214Y-88237245D01*
X128385989Y-88302100D01*
X128385988Y-88302102D01*
X128350084Y-88369274D01*
X128317739Y-88429786D01*
X128307208Y-88464501D01*
X128091844Y-88984434D01*
X128076474Y-89035104D01*
X127891228Y-88775760D01*
X127819812Y-88694075D01*
X127705083Y-88605762D01*
X127575329Y-88541529D01*
X127435537Y-88503843D01*
X127291081Y-88494154D01*
X127147508Y-88512833D01*
X127010339Y-88559163D01*
X126884843Y-88631363D01*
X126775845Y-88726658D01*
X126687532Y-88841387D01*
X126623299Y-88971141D01*
X126585613Y-89110933D01*
X126575924Y-89255389D01*
X124892416Y-89255389D01*
X124986000Y-89161805D01*
X125015003Y-89138003D01*
X125109976Y-89022278D01*
X125180548Y-88890249D01*
X125224005Y-88746988D01*
X125235002Y-88635335D01*
X125235002Y-88635334D01*
X125238679Y-88598002D01*
X125235002Y-88560669D01*
X125235002Y-87762327D01*
X125238678Y-87725002D01*
X125235002Y-87687677D01*
X125235002Y-87687669D01*
X125224005Y-87576016D01*
X125180548Y-87432755D01*
X125109976Y-87300726D01*
X125015003Y-87185001D01*
X124985999Y-87161198D01*
X124588802Y-86764001D01*
X124564999Y-86734997D01*
X124449274Y-86640024D01*
X124317245Y-86569452D01*
X124173984Y-86525995D01*
X124062331Y-86514998D01*
X124062320Y-86514998D01*
X124024998Y-86511322D01*
X123987676Y-86514998D01*
X123839800Y-86514998D01*
X122760000Y-85435199D01*
X122760000Y-75037322D01*
X122763676Y-74999999D01*
X122760000Y-74962676D01*
X122760000Y-74962667D01*
X122749003Y-74851014D01*
X122705546Y-74707753D01*
X122634974Y-74575724D01*
X122540001Y-74459999D01*
X122511002Y-74436201D01*
X122285000Y-74210198D01*
X122285000Y-74148061D01*
X122245226Y-73948102D01*
X122167205Y-73759744D01*
X122053937Y-73590226D01*
X121928711Y-73465000D01*
X128210000Y-73465000D01*
X128210000Y-87035000D01*
X132030000Y-87035000D01*
X132030000Y-73465000D01*
X128210000Y-73465000D01*
X121928711Y-73465000D01*
X121909774Y-73446063D01*
X121740256Y-73332795D01*
X121551898Y-73254774D01*
X121351939Y-73215000D01*
X121148061Y-73215000D01*
X120948102Y-73254774D01*
X120759744Y-73332795D01*
X120590226Y-73446063D01*
X120446063Y-73590226D01*
X120332795Y-73759744D01*
X120254774Y-73948102D01*
X120215000Y-74148061D01*
X120215000Y-74351939D01*
X120254774Y-74551898D01*
X120330000Y-74733509D01*
X120223092Y-74754774D01*
X120034734Y-74832795D01*
X119865216Y-74946063D01*
X119721053Y-75090226D01*
X119607785Y-75259744D01*
X119529764Y-75448102D01*
X119489990Y-75648061D01*
X119489990Y-75851939D01*
X119529764Y-76051898D01*
X119607785Y-76240256D01*
X119721053Y-76409774D01*
X119865216Y-76553937D01*
X120034734Y-76667205D01*
X120223092Y-76745226D01*
X120415013Y-76783401D01*
X120415014Y-81017208D01*
X113861818Y-74464013D01*
X113838015Y-74435009D01*
X113722290Y-74340036D01*
X113590261Y-74269464D01*
X113447000Y-74226007D01*
X113335347Y-74215010D01*
X113335336Y-74215010D01*
X113298014Y-74211334D01*
X113260692Y-74215010D01*
X110453711Y-74215010D01*
X110409774Y-74171073D01*
X110240256Y-74057805D01*
X110051898Y-73979784D01*
X109851939Y-73940010D01*
X109648061Y-73940010D01*
X109448102Y-73979784D01*
X109259744Y-74057805D01*
X109090226Y-74171073D01*
X108946063Y-74315236D01*
X108832795Y-74484754D01*
X108754774Y-74673112D01*
X108715000Y-74873071D01*
X108715000Y-75076949D01*
X108754774Y-75276908D01*
X108832795Y-75465266D01*
X108946063Y-75634784D01*
X109090226Y-75778947D01*
X109259744Y-75892215D01*
X109448102Y-75970236D01*
X109648061Y-76010010D01*
X109851939Y-76010010D01*
X110051898Y-75970236D01*
X110240256Y-75892215D01*
X110409774Y-75778947D01*
X110453711Y-75735010D01*
X112983213Y-75735010D01*
X119493872Y-82245670D01*
X119448102Y-82254774D01*
X119259744Y-82332795D01*
X119090226Y-82446063D01*
X118946063Y-82590226D01*
X118832795Y-82759744D01*
X118754774Y-82948102D01*
X118715000Y-83148061D01*
X118715000Y-83210198D01*
X117935199Y-83990000D01*
X107564801Y-83990000D01*
X107521411Y-83946610D01*
X107521411Y-82302885D01*
X108089174Y-82302885D01*
X108133111Y-82346822D01*
X108302629Y-82460090D01*
X108490987Y-82538111D01*
X108690946Y-82577885D01*
X108894824Y-82577885D01*
X109094783Y-82538111D01*
X109283141Y-82460090D01*
X109452659Y-82346822D01*
X109596822Y-82202659D01*
X109710090Y-82033141D01*
X109788111Y-81844783D01*
X109827885Y-81644824D01*
X109827885Y-81440946D01*
X109788111Y-81240987D01*
X109710090Y-81052629D01*
X109596822Y-80883111D01*
X109452659Y-80738948D01*
X109283141Y-80625680D01*
X109148716Y-80569999D01*
X110152679Y-80569999D01*
X110190001Y-80573675D01*
X110227323Y-80569999D01*
X110227334Y-80569999D01*
X110338987Y-80559002D01*
X110482248Y-80515545D01*
X110614277Y-80444973D01*
X110730002Y-80350000D01*
X110753805Y-80320996D01*
X110789801Y-80285000D01*
X110851939Y-80285000D01*
X111051898Y-80245226D01*
X111240256Y-80167205D01*
X111409774Y-80053937D01*
X111553937Y-79909774D01*
X111667205Y-79740256D01*
X111745226Y-79551898D01*
X111785000Y-79351939D01*
X111785000Y-79148061D01*
X111745226Y-78948102D01*
X111667205Y-78759744D01*
X111553937Y-78590226D01*
X111409774Y-78446063D01*
X111240256Y-78332795D01*
X111051898Y-78254774D01*
X110851939Y-78215000D01*
X110648061Y-78215000D01*
X110448102Y-78254774D01*
X110259744Y-78332795D01*
X110090226Y-78446063D01*
X109946063Y-78590226D01*
X109832795Y-78759744D01*
X109754774Y-78948102D01*
X109734506Y-79049999D01*
X106170445Y-79049999D01*
X106167079Y-79046632D01*
X106303937Y-78909774D01*
X106417205Y-78740256D01*
X106495226Y-78551898D01*
X106535000Y-78351939D01*
X106535000Y-78148061D01*
X106495226Y-77948102D01*
X106417205Y-77759744D01*
X106303937Y-77590226D01*
X106159774Y-77446063D01*
X106069841Y-77385972D01*
X106167205Y-77240256D01*
X106245226Y-77051898D01*
X106285000Y-76851939D01*
X106285000Y-76648061D01*
X106245226Y-76448102D01*
X106167205Y-76259744D01*
X106053937Y-76090226D01*
X105909774Y-75946063D01*
X105740256Y-75832795D01*
X105551898Y-75754774D01*
X105351939Y-75715000D01*
X105148061Y-75715000D01*
X104948102Y-75754774D01*
X104759744Y-75832795D01*
X104590226Y-75946063D01*
X104546289Y-75990000D01*
X102564802Y-75990000D01*
X99780000Y-73205199D01*
X99780000Y-72928178D01*
X99966632Y-72803475D01*
X100173475Y-72596632D01*
X100335990Y-72353411D01*
X100447932Y-72083158D01*
X100505000Y-71796260D01*
X100505000Y-71503740D01*
X100447932Y-71216842D01*
X100335990Y-70946589D01*
X100173475Y-70703368D01*
X99966632Y-70496525D01*
X99723411Y-70334010D01*
X99453158Y-70222068D01*
X99166260Y-70165000D01*
X98873740Y-70165000D01*
X98586842Y-70222068D01*
X98316589Y-70334010D01*
X98073368Y-70496525D01*
X97866525Y-70703368D01*
X97750000Y-70877760D01*
X97633475Y-70703368D01*
X97426632Y-70496525D01*
X97183411Y-70334010D01*
X96913158Y-70222068D01*
X96626260Y-70165000D01*
X96333740Y-70165000D01*
X96046842Y-70222068D01*
X95776589Y-70334010D01*
X95533368Y-70496525D01*
X95326525Y-70703368D01*
X95210689Y-70876729D01*
X94968397Y-70801208D01*
X94119605Y-71650000D01*
X94968397Y-72498792D01*
X95210689Y-72423271D01*
X95326525Y-72596632D01*
X95533368Y-72803475D01*
X95776589Y-72965990D01*
X96046842Y-73077932D01*
X96333740Y-73135000D01*
X96626260Y-73135000D01*
X96846408Y-73091209D01*
X101945154Y-78189956D01*
X93771467Y-78189956D01*
X93653475Y-78013368D01*
X93446632Y-77806525D01*
X93273271Y-77690689D01*
X93348792Y-77448397D01*
X92500000Y-76599605D01*
X91651208Y-77448397D01*
X91726729Y-77690689D01*
X91553368Y-77806525D01*
X91346525Y-78013368D01*
X91184010Y-78256589D01*
X91072068Y-78526842D01*
X91015000Y-78813740D01*
X91015000Y-79106260D01*
X91072068Y-79393158D01*
X91184010Y-79663411D01*
X91346525Y-79906632D01*
X91553368Y-80113475D01*
X91727760Y-80230000D01*
X91553368Y-80346525D01*
X91346525Y-80553368D01*
X91184010Y-80796589D01*
X91072068Y-81066842D01*
X91015000Y-81353740D01*
X91015000Y-81646260D01*
X91072068Y-81933158D01*
X91184010Y-82203411D01*
X91346525Y-82446632D01*
X91553368Y-82653475D01*
X91727760Y-82770000D01*
X91553368Y-82886525D01*
X91346525Y-83093368D01*
X91184010Y-83336589D01*
X91072068Y-83606842D01*
X91015000Y-83893740D01*
X91015000Y-84186260D01*
X91072068Y-84473158D01*
X91184010Y-84743411D01*
X91346525Y-84986632D01*
X91553368Y-85193475D01*
X91727760Y-85310000D01*
X91553368Y-85426525D01*
X91346525Y-85633368D01*
X91184010Y-85876589D01*
X91072068Y-86146842D01*
X91015000Y-86433740D01*
X91015000Y-86726260D01*
X91072068Y-87013158D01*
X91184010Y-87283411D01*
X91346525Y-87526632D01*
X91553368Y-87733475D01*
X91727760Y-87850000D01*
X91553368Y-87966525D01*
X91346525Y-88173368D01*
X91184010Y-88416589D01*
X91072068Y-88686842D01*
X91015000Y-88973740D01*
X91015000Y-89266260D01*
X91072068Y-89553158D01*
X91184010Y-89823411D01*
X91346525Y-90066632D01*
X91420455Y-90140562D01*
X91233088Y-90177832D01*
X90935537Y-90301082D01*
X90667748Y-90480013D01*
X90660000Y-90487761D01*
X90660000Y-76488531D01*
X91009389Y-76488531D01*
X91051401Y-76778019D01*
X91149081Y-77053747D01*
X91222528Y-77191157D01*
X91471603Y-77268792D01*
X92320395Y-76420000D01*
X92679605Y-76420000D01*
X93528397Y-77268792D01*
X93777472Y-77191157D01*
X93903371Y-76927117D01*
X93975339Y-76643589D01*
X93990611Y-76351469D01*
X93948599Y-76061981D01*
X93850919Y-75786253D01*
X93777472Y-75648843D01*
X93528397Y-75571208D01*
X92679605Y-76420000D01*
X92320395Y-76420000D01*
X91471603Y-75571208D01*
X91222528Y-75648843D01*
X91096629Y-75912883D01*
X91024661Y-76196411D01*
X91009389Y-76488531D01*
X90660000Y-76488531D01*
X90660000Y-72941542D01*
X90696589Y-72965990D01*
X90966842Y-73077932D01*
X91216719Y-73127636D01*
X91184010Y-73176589D01*
X91072068Y-73446842D01*
X91015000Y-73733740D01*
X91015000Y-74026260D01*
X91072068Y-74313158D01*
X91184010Y-74583411D01*
X91346525Y-74826632D01*
X91553368Y-75033475D01*
X91726729Y-75149311D01*
X91651208Y-75391603D01*
X92500000Y-76240395D01*
X93348792Y-75391603D01*
X93273271Y-75149311D01*
X93446632Y-75033475D01*
X93653475Y-74826632D01*
X93815990Y-74583411D01*
X93927932Y-74313158D01*
X93985000Y-74026260D01*
X93985000Y-73733740D01*
X93927932Y-73446842D01*
X93815990Y-73176589D01*
X93784111Y-73128878D01*
X94008531Y-73140611D01*
X94298019Y-73098599D01*
X94573747Y-73000919D01*
X94711157Y-72927472D01*
X94788792Y-72678397D01*
X93940000Y-71829605D01*
X93925858Y-71843748D01*
X93746253Y-71664143D01*
X93760395Y-71650000D01*
X92911603Y-70801208D01*
X92669311Y-70876729D01*
X92553475Y-70703368D01*
X92471710Y-70621603D01*
X93091208Y-70621603D01*
X93940000Y-71470395D01*
X94788792Y-70621603D01*
X94711157Y-70372528D01*
X94447117Y-70246629D01*
X94163589Y-70174661D01*
X93871469Y-70159389D01*
X93581981Y-70201401D01*
X93306253Y-70299081D01*
X93168843Y-70372528D01*
X93091208Y-70621603D01*
X92471710Y-70621603D01*
X92346632Y-70496525D01*
X92103411Y-70334010D01*
X91833158Y-70222068D01*
X91546260Y-70165000D01*
X91253740Y-70165000D01*
X90966842Y-70222068D01*
X90696589Y-70334010D01*
X90660000Y-70358458D01*
X90660000Y-67980931D01*
X90752627Y-68121118D01*
X91297557Y-68411649D01*
X91888696Y-68590287D01*
X92503328Y-68650168D01*
X93117831Y-68588990D01*
X93708592Y-68409103D01*
X94247373Y-68121118D01*
X94523543Y-67703148D01*
X92500000Y-65679605D01*
X92485858Y-65693748D01*
X92306253Y-65514143D01*
X92320395Y-65500000D01*
X92306253Y-65485858D01*
X92485858Y-65306253D01*
X92500000Y-65320395D01*
X92514143Y-65306253D01*
X92693748Y-65485858D01*
X92679605Y-65500000D01*
X94703148Y-67523543D01*
X95121118Y-67247373D01*
X95411649Y-66702443D01*
X95590287Y-66111304D01*
X95650168Y-65496672D01*
X95588990Y-64882169D01*
X95409103Y-64291408D01*
X95121118Y-63752627D01*
X94980931Y-63660000D01*
X100590000Y-63660000D01*
X100590001Y-68717571D01*
G37*
%TD.AperFunction*%
D21*
X102534296Y-93154571D02*
X102501596Y-93279294D01*
X102368939Y-93305426D01*
X102198649Y-93375592D01*
X102195575Y-93377237D01*
X102185064Y-93570459D01*
X102438222Y-93823617D01*
X102477039Y-94106675D01*
X102552651Y-94325541D01*
X102446253Y-94219143D01*
X102460395Y-94205000D01*
X102005459Y-93750064D01*
X101812237Y-93760575D01*
X101790000Y-93813978D01*
X101790000Y-93522416D01*
X102312429Y-92999988D01*
X102374566Y-92999988D01*
X102574525Y-92960214D01*
X102642554Y-92932035D01*
X102534296Y-93154571D01*
%TA.AperFunction,Conductor*%
D22*
G36*
X102534296Y-93154571D02*
G01*
X102501596Y-93279294D01*
X102368939Y-93305426D01*
X102198649Y-93375592D01*
X102195575Y-93377237D01*
X102185064Y-93570459D01*
X102438222Y-93823617D01*
X102477039Y-94106675D01*
X102552651Y-94325541D01*
X102446253Y-94219143D01*
X102460395Y-94205000D01*
X102005459Y-93750064D01*
X101812237Y-93760575D01*
X101790000Y-93813978D01*
X101790000Y-93522416D01*
X102312429Y-92999988D01*
X102374566Y-92999988D01*
X102574525Y-92960214D01*
X102642554Y-92932035D01*
X102534296Y-93154571D01*
G37*
%TD.AperFunction*%
D21*
X132193748Y-65485858D02*
X132179605Y-65500000D01*
X132193748Y-65514143D01*
X132014143Y-65693748D01*
X132000000Y-65679605D01*
X131985858Y-65693748D01*
X131806253Y-65514143D01*
X131820395Y-65500000D01*
X131806253Y-65485858D01*
X131985858Y-65306253D01*
X132000000Y-65320395D01*
X132014143Y-65306253D01*
X132193748Y-65485858D01*
%TA.AperFunction,Conductor*%
D22*
G36*
X132193748Y-65485858D02*
G01*
X132179605Y-65500000D01*
X132193748Y-65514143D01*
X132014143Y-65693748D01*
X132000000Y-65679605D01*
X131985858Y-65693748D01*
X131806253Y-65514143D01*
X131820395Y-65500000D01*
X131806253Y-65485858D01*
X131985858Y-65306253D01*
X132000000Y-65320395D01*
X132014143Y-65306253D01*
X132193748Y-65485858D01*
G37*
%TD.AperFunction*%
%TD*%
M02*
