%TF.GenerationSoftware,KiCad,Pcbnew,(5.1.9-0-10_14)*%
%TF.CreationDate,2021-03-09T10:31:21+00:00*%
%TF.ProjectId,OLED,4f4c4544-2e6b-4696-9361-645f70636258,rev?*%
%TF.SameCoordinates,Original*%
%TF.FileFunction,Soldermask,Top*%
%TF.FilePolarity,Negative*%
%FSLAX46Y46*%
G04 Gerber Fmt 4.6, Leading zero omitted, Abs format (unit mm)*
G04 Created by KiCad (PCBNEW (5.1.9-0-10_14)) date 2021-03-09 10:31:21*
%MOMM*%
%LPD*%
G01*
G04 APERTURE LIST*
%ADD10C,2.000000*%
%ADD11R,2.000000X2.000000*%
%ADD12C,5.000000*%
%ADD13C,1.700000*%
%ADD14R,2.000000X0.900000*%
%ADD15R,0.900000X2.000000*%
%ADD16R,5.000000X5.000000*%
%ADD17R,2.100000X2.100000*%
%ADD18R,1.524000X1.524000*%
%ADD19O,1.700000X1.850000*%
%ADD20R,0.600000X1.140000*%
%ADD21R,0.300000X1.140000*%
%ADD22C,0.600000*%
G04 APERTURE END LIST*
D10*
%TO.C,J2*%
X91710000Y-91750000D03*
D11*
X94250000Y-91750000D03*
%TD*%
D12*
%TO.C,M2*%
X92500000Y-65500000D03*
X92500000Y-97500000D03*
X132000000Y-97500000D03*
X132000000Y-65500000D03*
D13*
X92500000Y-89120000D03*
X92500000Y-86580000D03*
X92500000Y-84040000D03*
X92500000Y-81500000D03*
X92500000Y-78960000D03*
X92500000Y-76420000D03*
X92500000Y-73880000D03*
%TD*%
%TO.C,M3*%
X99020000Y-71650000D03*
X96480000Y-71650000D03*
X93940000Y-71650000D03*
X91400000Y-71650000D03*
%TD*%
D14*
%TO.C,U2*%
X123750000Y-70500000D03*
X123750000Y-71770000D03*
X123750000Y-73040000D03*
X123750000Y-74310000D03*
X123750000Y-75580000D03*
X123750000Y-76850000D03*
X123750000Y-78120000D03*
X123750000Y-79390000D03*
X123750000Y-80660000D03*
X123750000Y-81930000D03*
X123750000Y-83200000D03*
X123750000Y-84470000D03*
X123750000Y-85740000D03*
X123750000Y-87010000D03*
D15*
X120965000Y-88010000D03*
X119695000Y-88010000D03*
X118425000Y-88010000D03*
X117155000Y-88010000D03*
X115885000Y-88010000D03*
X114615000Y-88010000D03*
X113345000Y-88010000D03*
X112075000Y-88010000D03*
X110805000Y-88010000D03*
X109535000Y-88010000D03*
D14*
X106750000Y-87010000D03*
X106750000Y-85740000D03*
X106750000Y-84470000D03*
X106750000Y-83200000D03*
X106750000Y-81930000D03*
X106750000Y-80660000D03*
X106750000Y-79390000D03*
X106750000Y-78120000D03*
X106750000Y-76850000D03*
X106750000Y-75580000D03*
X106750000Y-74310000D03*
X106750000Y-73040000D03*
X106750000Y-71770000D03*
X106750000Y-70500000D03*
D16*
X114250000Y-78000000D03*
%TD*%
D17*
%TO.C,U1*%
X99725000Y-88475000D03*
G36*
G01*
X98600000Y-86875000D02*
X98600000Y-86175000D01*
G75*
G02*
X98675000Y-86100000I75000J0D01*
G01*
X98825000Y-86100000D01*
G75*
G02*
X98900000Y-86175000I0J-75000D01*
G01*
X98900000Y-86875000D01*
G75*
G02*
X98825000Y-86950000I-75000J0D01*
G01*
X98675000Y-86950000D01*
G75*
G02*
X98600000Y-86875000I0J75000D01*
G01*
G37*
G36*
G01*
X99250000Y-86875000D02*
X99250000Y-86175000D01*
G75*
G02*
X99325000Y-86100000I75000J0D01*
G01*
X99475000Y-86100000D01*
G75*
G02*
X99550000Y-86175000I0J-75000D01*
G01*
X99550000Y-86875000D01*
G75*
G02*
X99475000Y-86950000I-75000J0D01*
G01*
X99325000Y-86950000D01*
G75*
G02*
X99250000Y-86875000I0J75000D01*
G01*
G37*
G36*
G01*
X99900000Y-86875000D02*
X99900000Y-86175000D01*
G75*
G02*
X99975000Y-86100000I75000J0D01*
G01*
X100125000Y-86100000D01*
G75*
G02*
X100200000Y-86175000I0J-75000D01*
G01*
X100200000Y-86875000D01*
G75*
G02*
X100125000Y-86950000I-75000J0D01*
G01*
X99975000Y-86950000D01*
G75*
G02*
X99900000Y-86875000I0J75000D01*
G01*
G37*
G36*
G01*
X100550000Y-86875000D02*
X100550000Y-86175000D01*
G75*
G02*
X100625000Y-86100000I75000J0D01*
G01*
X100775000Y-86100000D01*
G75*
G02*
X100850000Y-86175000I0J-75000D01*
G01*
X100850000Y-86875000D01*
G75*
G02*
X100775000Y-86950000I-75000J0D01*
G01*
X100625000Y-86950000D01*
G75*
G02*
X100550000Y-86875000I0J75000D01*
G01*
G37*
G36*
G01*
X101250000Y-87575000D02*
X101250000Y-87425000D01*
G75*
G02*
X101325000Y-87350000I75000J0D01*
G01*
X102025000Y-87350000D01*
G75*
G02*
X102100000Y-87425000I0J-75000D01*
G01*
X102100000Y-87575000D01*
G75*
G02*
X102025000Y-87650000I-75000J0D01*
G01*
X101325000Y-87650000D01*
G75*
G02*
X101250000Y-87575000I0J75000D01*
G01*
G37*
G36*
G01*
X101250000Y-88225000D02*
X101250000Y-88075000D01*
G75*
G02*
X101325000Y-88000000I75000J0D01*
G01*
X102025000Y-88000000D01*
G75*
G02*
X102100000Y-88075000I0J-75000D01*
G01*
X102100000Y-88225000D01*
G75*
G02*
X102025000Y-88300000I-75000J0D01*
G01*
X101325000Y-88300000D01*
G75*
G02*
X101250000Y-88225000I0J75000D01*
G01*
G37*
G36*
G01*
X101250000Y-88875000D02*
X101250000Y-88725000D01*
G75*
G02*
X101325000Y-88650000I75000J0D01*
G01*
X102025000Y-88650000D01*
G75*
G02*
X102100000Y-88725000I0J-75000D01*
G01*
X102100000Y-88875000D01*
G75*
G02*
X102025000Y-88950000I-75000J0D01*
G01*
X101325000Y-88950000D01*
G75*
G02*
X101250000Y-88875000I0J75000D01*
G01*
G37*
G36*
G01*
X101250000Y-89525000D02*
X101250000Y-89375000D01*
G75*
G02*
X101325000Y-89300000I75000J0D01*
G01*
X102025000Y-89300000D01*
G75*
G02*
X102100000Y-89375000I0J-75000D01*
G01*
X102100000Y-89525000D01*
G75*
G02*
X102025000Y-89600000I-75000J0D01*
G01*
X101325000Y-89600000D01*
G75*
G02*
X101250000Y-89525000I0J75000D01*
G01*
G37*
G36*
G01*
X100550000Y-90775000D02*
X100550000Y-90075000D01*
G75*
G02*
X100625000Y-90000000I75000J0D01*
G01*
X100775000Y-90000000D01*
G75*
G02*
X100850000Y-90075000I0J-75000D01*
G01*
X100850000Y-90775000D01*
G75*
G02*
X100775000Y-90850000I-75000J0D01*
G01*
X100625000Y-90850000D01*
G75*
G02*
X100550000Y-90775000I0J75000D01*
G01*
G37*
G36*
G01*
X99900000Y-90775000D02*
X99900000Y-90075000D01*
G75*
G02*
X99975000Y-90000000I75000J0D01*
G01*
X100125000Y-90000000D01*
G75*
G02*
X100200000Y-90075000I0J-75000D01*
G01*
X100200000Y-90775000D01*
G75*
G02*
X100125000Y-90850000I-75000J0D01*
G01*
X99975000Y-90850000D01*
G75*
G02*
X99900000Y-90775000I0J75000D01*
G01*
G37*
G36*
G01*
X99250000Y-90775000D02*
X99250000Y-90075000D01*
G75*
G02*
X99325000Y-90000000I75000J0D01*
G01*
X99475000Y-90000000D01*
G75*
G02*
X99550000Y-90075000I0J-75000D01*
G01*
X99550000Y-90775000D01*
G75*
G02*
X99475000Y-90850000I-75000J0D01*
G01*
X99325000Y-90850000D01*
G75*
G02*
X99250000Y-90775000I0J75000D01*
G01*
G37*
G36*
G01*
X98600000Y-90775000D02*
X98600000Y-90075000D01*
G75*
G02*
X98675000Y-90000000I75000J0D01*
G01*
X98825000Y-90000000D01*
G75*
G02*
X98900000Y-90075000I0J-75000D01*
G01*
X98900000Y-90775000D01*
G75*
G02*
X98825000Y-90850000I-75000J0D01*
G01*
X98675000Y-90850000D01*
G75*
G02*
X98600000Y-90775000I0J75000D01*
G01*
G37*
G36*
G01*
X97350000Y-89525000D02*
X97350000Y-89375000D01*
G75*
G02*
X97425000Y-89300000I75000J0D01*
G01*
X98125000Y-89300000D01*
G75*
G02*
X98200000Y-89375000I0J-75000D01*
G01*
X98200000Y-89525000D01*
G75*
G02*
X98125000Y-89600000I-75000J0D01*
G01*
X97425000Y-89600000D01*
G75*
G02*
X97350000Y-89525000I0J75000D01*
G01*
G37*
G36*
G01*
X97350000Y-88875000D02*
X97350000Y-88725000D01*
G75*
G02*
X97425000Y-88650000I75000J0D01*
G01*
X98125000Y-88650000D01*
G75*
G02*
X98200000Y-88725000I0J-75000D01*
G01*
X98200000Y-88875000D01*
G75*
G02*
X98125000Y-88950000I-75000J0D01*
G01*
X97425000Y-88950000D01*
G75*
G02*
X97350000Y-88875000I0J75000D01*
G01*
G37*
G36*
G01*
X97350000Y-88225000D02*
X97350000Y-88075000D01*
G75*
G02*
X97425000Y-88000000I75000J0D01*
G01*
X98125000Y-88000000D01*
G75*
G02*
X98200000Y-88075000I0J-75000D01*
G01*
X98200000Y-88225000D01*
G75*
G02*
X98125000Y-88300000I-75000J0D01*
G01*
X97425000Y-88300000D01*
G75*
G02*
X97350000Y-88225000I0J75000D01*
G01*
G37*
G36*
G01*
X97350000Y-87575000D02*
X97350000Y-87425000D01*
G75*
G02*
X97425000Y-87350000I75000J0D01*
G01*
X98125000Y-87350000D01*
G75*
G02*
X98200000Y-87425000I0J-75000D01*
G01*
X98200000Y-87575000D01*
G75*
G02*
X98125000Y-87650000I-75000J0D01*
G01*
X97425000Y-87650000D01*
G75*
G02*
X97350000Y-87575000I0J75000D01*
G01*
G37*
%TD*%
D13*
%TO.C,M1*%
X94940000Y-84230000D03*
X102560000Y-84230000D03*
D18*
X100020000Y-84230000D03*
D13*
X97480000Y-84230000D03*
%TD*%
D19*
%TO.C,J3*%
X126550000Y-93150000D03*
X124050000Y-93150000D03*
X121550000Y-93150000D03*
X119050000Y-93150000D03*
X116550000Y-93150000D03*
X114050000Y-93150000D03*
X111550000Y-93150000D03*
G36*
G01*
X108200000Y-93825000D02*
X108200000Y-92475000D01*
G75*
G02*
X108450000Y-92225000I250000J0D01*
G01*
X109650000Y-92225000D01*
G75*
G02*
X109900000Y-92475000I0J-250000D01*
G01*
X109900000Y-93825000D01*
G75*
G02*
X109650000Y-94075000I-250000J0D01*
G01*
X108450000Y-94075000D01*
G75*
G02*
X108200000Y-93825000I0J250000D01*
G01*
G37*
%TD*%
D20*
%TO.C,J1*%
X102950000Y-93135000D03*
X97350000Y-93135000D03*
X96550000Y-93135000D03*
X102150000Y-93135000D03*
D13*
X104075000Y-97905000D03*
X95425000Y-97905000D03*
D10*
X104075000Y-93725000D03*
X95425000Y-93725000D03*
D21*
X100000000Y-93135000D03*
X99500000Y-93135000D03*
X100500000Y-93135000D03*
X99000000Y-93135000D03*
X101000000Y-93135000D03*
X98500000Y-93135000D03*
X101500000Y-93135000D03*
X98000000Y-93135000D03*
D20*
X102150000Y-93135000D03*
X97350000Y-93135000D03*
X102950000Y-93135000D03*
D22*
X102640000Y-94205000D03*
X96860000Y-94205000D03*
D20*
X96550000Y-93135000D03*
%TD*%
M02*
