%TF.GenerationSoftware,KiCad,Pcbnew,(5.1.9-0-10_14)*%
%TF.CreationDate,2021-03-09T10:31:21+00:00*%
%TF.ProjectId,OLED,4f4c4544-2e6b-4696-9361-645f70636258,rev?*%
%TF.SameCoordinates,Original*%
%TF.FileFunction,Copper,L1,Top*%
%TF.FilePolarity,Positive*%
%FSLAX46Y46*%
G04 Gerber Fmt 4.6, Leading zero omitted, Abs format (unit mm)*
G04 Created by KiCad (PCBNEW (5.1.9-0-10_14)) date 2021-03-09 10:31:21*
%MOMM*%
%LPD*%
G01*
G04 APERTURE LIST*
%TA.AperFunction,NonConductor*%
%ADD10C,0.300000*%
%TD*%
%TA.AperFunction,EtchedComponent*%
%ADD11C,0.200000*%
%TD*%
%TA.AperFunction,ComponentPad*%
%ADD12C,2.000000*%
%TD*%
%TA.AperFunction,ComponentPad*%
%ADD13R,2.000000X2.000000*%
%TD*%
%TA.AperFunction,ComponentPad*%
%ADD14C,5.000000*%
%TD*%
%TA.AperFunction,ComponentPad*%
%ADD15C,1.700000*%
%TD*%
%TA.AperFunction,SMDPad,CuDef*%
%ADD16R,2.000000X0.900000*%
%TD*%
%TA.AperFunction,SMDPad,CuDef*%
%ADD17R,0.900000X2.000000*%
%TD*%
%TA.AperFunction,SMDPad,CuDef*%
%ADD18R,5.000000X5.000000*%
%TD*%
%TA.AperFunction,SMDPad,CuDef*%
%ADD19R,2.100000X2.100000*%
%TD*%
%TA.AperFunction,SMDPad,CuDef*%
%ADD20C,1.700000*%
%TD*%
%TA.AperFunction,ComponentPad*%
%ADD21R,1.524000X1.524000*%
%TD*%
%TA.AperFunction,ComponentPad*%
%ADD22O,1.700000X1.850000*%
%TD*%
%TA.AperFunction,SMDPad,CuDef*%
%ADD23R,8.340000X5.490000*%
%TD*%
%TA.AperFunction,SMDPad,CuDef*%
%ADD24R,0.600000X1.140000*%
%TD*%
%TA.AperFunction,SMDPad,CuDef*%
%ADD25R,0.300000X1.140000*%
%TD*%
%TA.AperFunction,ComponentPad*%
%ADD26C,0.600000*%
%TD*%
%TA.AperFunction,ViaPad*%
%ADD27C,0.800000*%
%TD*%
%TA.AperFunction,Conductor*%
%ADD28C,0.250000*%
%TD*%
%TA.AperFunction,Conductor*%
%ADD29C,0.254000*%
%TD*%
%TA.AperFunction,Conductor*%
%ADD30C,0.100000*%
%TD*%
G04 APERTURE END LIST*
D10*
X129428571Y-86035714D02*
X130428571Y-85750000D01*
X129714285Y-85464285D01*
X130428571Y-85178571D01*
X129428571Y-84892857D01*
X129428571Y-84464285D02*
X130428571Y-84178571D01*
X129714285Y-83892857D01*
X130428571Y-83607142D01*
X129428571Y-83321428D01*
X129428571Y-82892857D02*
X130428571Y-82607142D01*
X129714285Y-82321428D01*
X130428571Y-82035714D01*
X129428571Y-81750000D01*
X130285714Y-81178571D02*
X130357142Y-81107142D01*
X130428571Y-81178571D01*
X130357142Y-81250000D01*
X130285714Y-81178571D01*
X130428571Y-81178571D01*
X130428571Y-80464285D02*
X129428571Y-80464285D01*
X129571428Y-80464285D02*
X129500000Y-80392857D01*
X129428571Y-80250000D01*
X129428571Y-80035714D01*
X129500000Y-79892857D01*
X129642857Y-79821428D01*
X130428571Y-79821428D01*
X129642857Y-79821428D02*
X129500000Y-79750000D01*
X129428571Y-79607142D01*
X129428571Y-79392857D01*
X129500000Y-79250000D01*
X129642857Y-79178571D01*
X130428571Y-79178571D01*
X130357142Y-77892857D02*
X130428571Y-78035714D01*
X130428571Y-78321428D01*
X130357142Y-78464285D01*
X130214285Y-78535714D01*
X129642857Y-78535714D01*
X129500000Y-78464285D01*
X129428571Y-78321428D01*
X129428571Y-78035714D01*
X129500000Y-77892857D01*
X129642857Y-77821428D01*
X129785714Y-77821428D01*
X129928571Y-78535714D01*
X130285714Y-77178571D02*
X130357142Y-77107142D01*
X130428571Y-77178571D01*
X130357142Y-77250000D01*
X130285714Y-77178571D01*
X130428571Y-77178571D01*
X129428571Y-75821428D02*
X130428571Y-75821428D01*
X129428571Y-76464285D02*
X130214285Y-76464285D01*
X130357142Y-76392857D01*
X130428571Y-76250000D01*
X130428571Y-76035714D01*
X130357142Y-75892857D01*
X130285714Y-75821428D01*
X130428571Y-75107142D02*
X128928571Y-75107142D01*
X129857142Y-74964285D02*
X130428571Y-74535714D01*
X129428571Y-74535714D02*
X130000000Y-75107142D01*
D11*
%TO.C,REF\u002A\u002A*%
X132517650Y-92935880D02*
X128400000Y-89994700D01*
X132517650Y-89994700D02*
X133037579Y-90210062D01*
X128400000Y-89994700D02*
X132517650Y-89994700D01*
X133252940Y-90729994D02*
X133037579Y-91249926D01*
X133037579Y-90210062D02*
X133252940Y-90729994D01*
X133037579Y-91249926D02*
X132517650Y-91465288D01*
X130458820Y-89994710D02*
X132517650Y-88230000D01*
X130459000Y-89994700D02*
X130459000Y-91465300D01*
X128400000Y-88230000D02*
X130458820Y-89994710D01*
%TD*%
D12*
%TO.P,J2,2*%
%TO.N,Net-(J1-PadA4)*%
X91710000Y-91750000D03*
D13*
%TO.P,J2,1*%
%TO.N,GND*%
X94250000Y-91750000D03*
%TD*%
D14*
%TO.P,M2,S*%
%TO.N,GND*%
X92500000Y-65500000D03*
X92500000Y-97500000D03*
X132000000Y-97500000D03*
X132000000Y-65500000D03*
D15*
%TO.P,M2,7*%
%TO.N,OLED-RST*%
X92500000Y-89120000D03*
%TO.P,M2,6*%
%TO.N,OLED-DC*%
X92500000Y-86580000D03*
%TO.P,M2,5*%
%TO.N,OLED-CS0*%
X92500000Y-84040000D03*
%TO.P,M2,4*%
%TO.N,OLED-SCLK*%
X92500000Y-81500000D03*
%TO.P,M2,3*%
%TO.N,OLED-MOSI*%
X92500000Y-78960000D03*
%TO.P,M2,2*%
%TO.N,GND*%
X92500000Y-76420000D03*
%TO.P,M2,1*%
%TO.N,+3V3*%
X92500000Y-73880000D03*
%TD*%
%TO.P,M3,4*%
%TO.N,CO2-SDA*%
X99020000Y-71650000D03*
%TO.P,M3,3*%
%TO.N,CO2-SCL*%
X96480000Y-71650000D03*
%TO.P,M3,2*%
%TO.N,GND*%
X93940000Y-71650000D03*
%TO.P,M3,1*%
%TO.N,+3V3*%
X91400000Y-71650000D03*
%TD*%
D16*
%TO.P,U2,38*%
%TO.N,GND*%
X123750000Y-70500000D03*
%TO.P,U2,37*%
%TO.N,Net-(U2-Pad37)*%
X123750000Y-71770000D03*
%TO.P,U2,36*%
%TO.N,Net-(U2-Pad36)*%
X123750000Y-73040000D03*
%TO.P,U2,35*%
%TO.N,Net-(U1-Pad2)*%
X123750000Y-74310000D03*
%TO.P,U2,34*%
%TO.N,Net-(U1-Pad15)*%
X123750000Y-75580000D03*
%TO.P,U2,33*%
%TO.N,IO7*%
X123750000Y-76850000D03*
%TO.P,U2,32*%
%TO.N,Net-(U2-Pad32)*%
X123750000Y-78120000D03*
%TO.P,U2,31*%
%TO.N,IO6*%
X123750000Y-79390000D03*
%TO.P,U2,30*%
%TO.N,IO5*%
X123750000Y-80660000D03*
%TO.P,U2,29*%
%TO.N,IO4*%
X123750000Y-81930000D03*
%TO.P,U2,28*%
%TO.N,IO3*%
X123750000Y-83200000D03*
%TO.P,U2,27*%
%TO.N,IO2*%
X123750000Y-84470000D03*
%TO.P,U2,26*%
%TO.N,IO1*%
X123750000Y-85740000D03*
%TO.P,U2,25*%
%TO.N,Net-(U1-Pad14)*%
X123750000Y-87010000D03*
D17*
%TO.P,U2,24*%
%TO.N,Net-(U2-Pad24)*%
X120965000Y-88010000D03*
%TO.P,U2,23*%
%TO.N,OLED-CS0*%
X119695000Y-88010000D03*
%TO.P,U2,22*%
%TO.N,Net-(U2-Pad22)*%
X118425000Y-88010000D03*
%TO.P,U2,21*%
%TO.N,Net-(U2-Pad21)*%
X117155000Y-88010000D03*
%TO.P,U2,20*%
%TO.N,Net-(U2-Pad20)*%
X115885000Y-88010000D03*
%TO.P,U2,19*%
%TO.N,Net-(U2-Pad19)*%
X114615000Y-88010000D03*
%TO.P,U2,18*%
%TO.N,Net-(U2-Pad18)*%
X113345000Y-88010000D03*
%TO.P,U2,17*%
%TO.N,Net-(U2-Pad17)*%
X112075000Y-88010000D03*
%TO.P,U2,16*%
%TO.N,OLED-MOSI*%
X110805000Y-88010000D03*
%TO.P,U2,15*%
%TO.N,GND*%
X109535000Y-88010000D03*
D16*
%TO.P,U2,14*%
%TO.N,Net-(U2-Pad14)*%
X106750000Y-87010000D03*
%TO.P,U2,13*%
%TO.N,OLED-SCLK*%
X106750000Y-85740000D03*
%TO.P,U2,12*%
%TO.N,OLED-RST*%
X106750000Y-84470000D03*
%TO.P,U2,11*%
%TO.N,OLED-DC*%
X106750000Y-83200000D03*
%TO.P,U2,10*%
%TO.N,Net-(U2-Pad10)*%
X106750000Y-81930000D03*
%TO.P,U2,9*%
%TO.N,Net-(U2-Pad9)*%
X106750000Y-80660000D03*
%TO.P,U2,8*%
%TO.N,Net-(U2-Pad8)*%
X106750000Y-79390000D03*
%TO.P,U2,7*%
%TO.N,CO2-SCL*%
X106750000Y-78120000D03*
%TO.P,U2,6*%
%TO.N,CO2-SDA*%
X106750000Y-76850000D03*
%TO.P,U2,5*%
%TO.N,Net-(U2-Pad5)*%
X106750000Y-75580000D03*
%TO.P,U2,4*%
%TO.N,Net-(U2-Pad4)*%
X106750000Y-74310000D03*
%TO.P,U2,3*%
%TO.N,Net-(U1-Pad16)*%
X106750000Y-73040000D03*
%TO.P,U2,2*%
%TO.N,+3V3*%
X106750000Y-71770000D03*
%TO.P,U2,1*%
%TO.N,GND*%
X106750000Y-70500000D03*
D18*
%TO.P,U2,39*%
X114250000Y-78000000D03*
%TD*%
D19*
%TO.P,U1,17*%
%TO.N,GND*%
X99725000Y-88475000D03*
%TO.P,U1,16*%
%TO.N,Net-(U1-Pad16)*%
%TA.AperFunction,SMDPad,CuDef*%
G36*
G01*
X98600000Y-86875000D02*
X98600000Y-86175000D01*
G75*
G02*
X98675000Y-86100000I75000J0D01*
G01*
X98825000Y-86100000D01*
G75*
G02*
X98900000Y-86175000I0J-75000D01*
G01*
X98900000Y-86875000D01*
G75*
G02*
X98825000Y-86950000I-75000J0D01*
G01*
X98675000Y-86950000D01*
G75*
G02*
X98600000Y-86875000I0J75000D01*
G01*
G37*
%TD.AperFunction*%
%TO.P,U1,15*%
%TO.N,Net-(U1-Pad15)*%
%TA.AperFunction,SMDPad,CuDef*%
G36*
G01*
X99250000Y-86875000D02*
X99250000Y-86175000D01*
G75*
G02*
X99325000Y-86100000I75000J0D01*
G01*
X99475000Y-86100000D01*
G75*
G02*
X99550000Y-86175000I0J-75000D01*
G01*
X99550000Y-86875000D01*
G75*
G02*
X99475000Y-86950000I-75000J0D01*
G01*
X99325000Y-86950000D01*
G75*
G02*
X99250000Y-86875000I0J75000D01*
G01*
G37*
%TD.AperFunction*%
%TO.P,U1,14*%
%TO.N,Net-(U1-Pad14)*%
%TA.AperFunction,SMDPad,CuDef*%
G36*
G01*
X99900000Y-86875000D02*
X99900000Y-86175000D01*
G75*
G02*
X99975000Y-86100000I75000J0D01*
G01*
X100125000Y-86100000D01*
G75*
G02*
X100200000Y-86175000I0J-75000D01*
G01*
X100200000Y-86875000D01*
G75*
G02*
X100125000Y-86950000I-75000J0D01*
G01*
X99975000Y-86950000D01*
G75*
G02*
X99900000Y-86875000I0J75000D01*
G01*
G37*
%TD.AperFunction*%
%TO.P,U1,13*%
%TO.N,GND*%
%TA.AperFunction,SMDPad,CuDef*%
G36*
G01*
X100550000Y-86875000D02*
X100550000Y-86175000D01*
G75*
G02*
X100625000Y-86100000I75000J0D01*
G01*
X100775000Y-86100000D01*
G75*
G02*
X100850000Y-86175000I0J-75000D01*
G01*
X100850000Y-86875000D01*
G75*
G02*
X100775000Y-86950000I-75000J0D01*
G01*
X100625000Y-86950000D01*
G75*
G02*
X100550000Y-86875000I0J75000D01*
G01*
G37*
%TD.AperFunction*%
%TO.P,U1,12*%
%TO.N,Net-(U1-Pad12)*%
%TA.AperFunction,SMDPad,CuDef*%
G36*
G01*
X101250000Y-87575000D02*
X101250000Y-87425000D01*
G75*
G02*
X101325000Y-87350000I75000J0D01*
G01*
X102025000Y-87350000D01*
G75*
G02*
X102100000Y-87425000I0J-75000D01*
G01*
X102100000Y-87575000D01*
G75*
G02*
X102025000Y-87650000I-75000J0D01*
G01*
X101325000Y-87650000D01*
G75*
G02*
X101250000Y-87575000I0J75000D01*
G01*
G37*
%TD.AperFunction*%
%TO.P,U1,11*%
%TO.N,Net-(U1-Pad11)*%
%TA.AperFunction,SMDPad,CuDef*%
G36*
G01*
X101250000Y-88225000D02*
X101250000Y-88075000D01*
G75*
G02*
X101325000Y-88000000I75000J0D01*
G01*
X102025000Y-88000000D01*
G75*
G02*
X102100000Y-88075000I0J-75000D01*
G01*
X102100000Y-88225000D01*
G75*
G02*
X102025000Y-88300000I-75000J0D01*
G01*
X101325000Y-88300000D01*
G75*
G02*
X101250000Y-88225000I0J75000D01*
G01*
G37*
%TD.AperFunction*%
%TO.P,U1,10*%
%TO.N,+3V3*%
%TA.AperFunction,SMDPad,CuDef*%
G36*
G01*
X101250000Y-88875000D02*
X101250000Y-88725000D01*
G75*
G02*
X101325000Y-88650000I75000J0D01*
G01*
X102025000Y-88650000D01*
G75*
G02*
X102100000Y-88725000I0J-75000D01*
G01*
X102100000Y-88875000D01*
G75*
G02*
X102025000Y-88950000I-75000J0D01*
G01*
X101325000Y-88950000D01*
G75*
G02*
X101250000Y-88875000I0J75000D01*
G01*
G37*
%TD.AperFunction*%
%TO.P,U1,9*%
%TA.AperFunction,SMDPad,CuDef*%
G36*
G01*
X101250000Y-89525000D02*
X101250000Y-89375000D01*
G75*
G02*
X101325000Y-89300000I75000J0D01*
G01*
X102025000Y-89300000D01*
G75*
G02*
X102100000Y-89375000I0J-75000D01*
G01*
X102100000Y-89525000D01*
G75*
G02*
X102025000Y-89600000I-75000J0D01*
G01*
X101325000Y-89600000D01*
G75*
G02*
X101250000Y-89525000I0J75000D01*
G01*
G37*
%TD.AperFunction*%
%TO.P,U1,8*%
%TA.AperFunction,SMDPad,CuDef*%
G36*
G01*
X100550000Y-90775000D02*
X100550000Y-90075000D01*
G75*
G02*
X100625000Y-90000000I75000J0D01*
G01*
X100775000Y-90000000D01*
G75*
G02*
X100850000Y-90075000I0J-75000D01*
G01*
X100850000Y-90775000D01*
G75*
G02*
X100775000Y-90850000I-75000J0D01*
G01*
X100625000Y-90850000D01*
G75*
G02*
X100550000Y-90775000I0J75000D01*
G01*
G37*
%TD.AperFunction*%
%TO.P,U1,7*%
%TO.N,Net-(J1-PadA7)*%
%TA.AperFunction,SMDPad,CuDef*%
G36*
G01*
X99900000Y-90775000D02*
X99900000Y-90075000D01*
G75*
G02*
X99975000Y-90000000I75000J0D01*
G01*
X100125000Y-90000000D01*
G75*
G02*
X100200000Y-90075000I0J-75000D01*
G01*
X100200000Y-90775000D01*
G75*
G02*
X100125000Y-90850000I-75000J0D01*
G01*
X99975000Y-90850000D01*
G75*
G02*
X99900000Y-90775000I0J75000D01*
G01*
G37*
%TD.AperFunction*%
%TO.P,U1,6*%
%TO.N,Net-(J1-PadA6)*%
%TA.AperFunction,SMDPad,CuDef*%
G36*
G01*
X99250000Y-90775000D02*
X99250000Y-90075000D01*
G75*
G02*
X99325000Y-90000000I75000J0D01*
G01*
X99475000Y-90000000D01*
G75*
G02*
X99550000Y-90075000I0J-75000D01*
G01*
X99550000Y-90775000D01*
G75*
G02*
X99475000Y-90850000I-75000J0D01*
G01*
X99325000Y-90850000D01*
G75*
G02*
X99250000Y-90775000I0J75000D01*
G01*
G37*
%TD.AperFunction*%
%TO.P,U1,5*%
%TO.N,Net-(U1-Pad5)*%
%TA.AperFunction,SMDPad,CuDef*%
G36*
G01*
X98600000Y-90775000D02*
X98600000Y-90075000D01*
G75*
G02*
X98675000Y-90000000I75000J0D01*
G01*
X98825000Y-90000000D01*
G75*
G02*
X98900000Y-90075000I0J-75000D01*
G01*
X98900000Y-90775000D01*
G75*
G02*
X98825000Y-90850000I-75000J0D01*
G01*
X98675000Y-90850000D01*
G75*
G02*
X98600000Y-90775000I0J75000D01*
G01*
G37*
%TD.AperFunction*%
%TO.P,U1,4*%
%TO.N,GND*%
%TA.AperFunction,SMDPad,CuDef*%
G36*
G01*
X97350000Y-89525000D02*
X97350000Y-89375000D01*
G75*
G02*
X97425000Y-89300000I75000J0D01*
G01*
X98125000Y-89300000D01*
G75*
G02*
X98200000Y-89375000I0J-75000D01*
G01*
X98200000Y-89525000D01*
G75*
G02*
X98125000Y-89600000I-75000J0D01*
G01*
X97425000Y-89600000D01*
G75*
G02*
X97350000Y-89525000I0J75000D01*
G01*
G37*
%TD.AperFunction*%
%TO.P,U1,3*%
%TA.AperFunction,SMDPad,CuDef*%
G36*
G01*
X97350000Y-88875000D02*
X97350000Y-88725000D01*
G75*
G02*
X97425000Y-88650000I75000J0D01*
G01*
X98125000Y-88650000D01*
G75*
G02*
X98200000Y-88725000I0J-75000D01*
G01*
X98200000Y-88875000D01*
G75*
G02*
X98125000Y-88950000I-75000J0D01*
G01*
X97425000Y-88950000D01*
G75*
G02*
X97350000Y-88875000I0J75000D01*
G01*
G37*
%TD.AperFunction*%
%TO.P,U1,2*%
%TO.N,Net-(U1-Pad2)*%
%TA.AperFunction,SMDPad,CuDef*%
G36*
G01*
X97350000Y-88225000D02*
X97350000Y-88075000D01*
G75*
G02*
X97425000Y-88000000I75000J0D01*
G01*
X98125000Y-88000000D01*
G75*
G02*
X98200000Y-88075000I0J-75000D01*
G01*
X98200000Y-88225000D01*
G75*
G02*
X98125000Y-88300000I-75000J0D01*
G01*
X97425000Y-88300000D01*
G75*
G02*
X97350000Y-88225000I0J75000D01*
G01*
G37*
%TD.AperFunction*%
%TO.P,U1,1*%
%TO.N,+3V3*%
%TA.AperFunction,SMDPad,CuDef*%
G36*
G01*
X97350000Y-87575000D02*
X97350000Y-87425000D01*
G75*
G02*
X97425000Y-87350000I75000J0D01*
G01*
X98125000Y-87350000D01*
G75*
G02*
X98200000Y-87425000I0J-75000D01*
G01*
X98200000Y-87575000D01*
G75*
G02*
X98125000Y-87650000I-75000J0D01*
G01*
X97425000Y-87650000D01*
G75*
G02*
X97350000Y-87575000I0J75000D01*
G01*
G37*
%TD.AperFunction*%
%TD*%
D20*
%TO.P,M1,1*%
%TO.N,Net-(M1-Pad1)*%
X94940000Y-84230000D03*
D15*
%TO.P,M1,4*%
%TO.N,+3V3*%
X102560000Y-84230000D03*
D21*
%TO.P,M1,3*%
%TO.N,GND*%
X100020000Y-84230000D03*
D15*
%TO.P,M1,2*%
%TO.N,Net-(J1-PadA4)*%
X97480000Y-84230000D03*
%TD*%
D22*
%TO.P,J3,8*%
%TO.N,IO7*%
X126550000Y-93150000D03*
%TO.P,J3,7*%
%TO.N,IO6*%
X124050000Y-93150000D03*
%TO.P,J3,6*%
%TO.N,IO5*%
X121550000Y-93150000D03*
%TO.P,J3,5*%
%TO.N,IO4*%
X119050000Y-93150000D03*
%TO.P,J3,4*%
%TO.N,IO3*%
X116550000Y-93150000D03*
%TO.P,J3,3*%
%TO.N,IO2*%
X114050000Y-93150000D03*
%TO.P,J3,2*%
%TO.N,IO1*%
X111550000Y-93150000D03*
%TO.P,J3,1*%
%TO.N,GND*%
%TA.AperFunction,ComponentPad*%
G36*
G01*
X108200000Y-93825000D02*
X108200000Y-92475000D01*
G75*
G02*
X108450000Y-92225000I250000J0D01*
G01*
X109650000Y-92225000D01*
G75*
G02*
X109900000Y-92475000I0J-250000D01*
G01*
X109900000Y-93825000D01*
G75*
G02*
X109650000Y-94075000I-250000J0D01*
G01*
X108450000Y-94075000D01*
G75*
G02*
X108200000Y-93825000I0J250000D01*
G01*
G37*
%TD.AperFunction*%
%TD*%
D23*
%TO.P,J1,S1*%
%TO.N,GND*%
X99750000Y-97250000D03*
D24*
%TO.P,J1,A12*%
X102950000Y-93135000D03*
%TO.P,J1,A4*%
%TO.N,Net-(J1-PadA4)*%
X97350000Y-93135000D03*
%TO.P,J1,B12*%
%TO.N,GND*%
X96550000Y-93135000D03*
%TO.P,J1,B4*%
%TO.N,Net-(J1-PadA4)*%
X102150000Y-93135000D03*
D15*
%TO.P,J1,S1*%
%TO.N,GND*%
X104075000Y-97905000D03*
X95425000Y-97905000D03*
D12*
X104075000Y-93725000D03*
X95425000Y-93725000D03*
D25*
%TO.P,J1,A7*%
%TO.N,Net-(J1-PadA7)*%
X100000000Y-93135000D03*
%TO.P,J1,A6*%
%TO.N,Net-(J1-PadA6)*%
X99500000Y-93135000D03*
%TO.P,J1,B6*%
X100500000Y-93135000D03*
%TO.P,J1,B7*%
%TO.N,Net-(J1-PadA7)*%
X99000000Y-93135000D03*
%TO.P,J1,A8*%
%TO.N,Net-(J1-PadA8)*%
X101000000Y-93135000D03*
%TO.P,J1,A5*%
%TO.N,Net-(J1-PadA5)*%
X98500000Y-93135000D03*
%TO.P,J1,B5*%
%TO.N,Net-(J1-PadB5)*%
X101500000Y-93135000D03*
%TO.P,J1,B8*%
%TO.N,Net-(J1-PadB8)*%
X98000000Y-93135000D03*
D24*
%TO.P,J1,A9*%
%TO.N,Net-(J1-PadA4)*%
X102150000Y-93135000D03*
%TO.P,J1,B9*%
X97350000Y-93135000D03*
%TO.P,J1,B1*%
%TO.N,GND*%
X102950000Y-93135000D03*
D26*
%TO.P,J1,S1*%
X102640000Y-94205000D03*
X96860000Y-94205000D03*
D24*
%TO.P,J1,A1*%
X96550000Y-93135000D03*
%TD*%
D27*
%TO.N,Net-(J1-PadA7)*%
X101831940Y-90631165D03*
X98398044Y-91499259D03*
%TO.N,Net-(J1-PadA6)*%
X100950065Y-91899960D03*
X99396733Y-91447838D03*
%TO.N,Net-(J1-PadA5)*%
X97400976Y-91575940D03*
%TO.N,Net-(J1-PadB5)*%
X102272627Y-91964988D03*
%TO.N,Net-(U1-Pad16)*%
X98750000Y-85750000D03*
X109750000Y-74975010D03*
%TO.N,Net-(U1-Pad15)*%
X120524990Y-75750000D03*
X102547218Y-86130011D03*
%TO.N,Net-(U1-Pad14)*%
X123634841Y-88134841D03*
X101500000Y-86500000D03*
%TO.N,Net-(U1-Pad2)*%
X121250000Y-74250000D03*
X96786210Y-87989109D03*
%TO.N,GND*%
X97200843Y-88935633D03*
%TO.N,+3V3*%
X110000000Y-98500000D03*
%TO.N,OLED-RST*%
X105500000Y-84500000D03*
%TO.N,OLED-DC*%
X105975010Y-83262660D03*
%TO.N,OLED-CS0*%
X119750000Y-83250000D03*
%TO.N,OLED-SCLK*%
X108792885Y-81542885D03*
%TO.N,OLED-MOSI*%
X110750000Y-79250000D03*
%TO.N,CO2-SDA*%
X105250000Y-76750000D03*
%TO.N,CO2-SCL*%
X105500000Y-78250000D03*
%TD*%
D28*
%TO.N,Net-(J1-PadA4)*%
X102150000Y-93790002D02*
X102150000Y-93135000D01*
X97589999Y-94030001D02*
X101910001Y-94030001D01*
X101910001Y-94030001D02*
X102150000Y-93790002D01*
X97350000Y-93790002D02*
X97589999Y-94030001D01*
X97350000Y-93135000D02*
X97350000Y-93790002D01*
X94000000Y-86819002D02*
X94000000Y-86000000D01*
X93064001Y-87755001D02*
X94000000Y-86819002D01*
X90710001Y-89170997D02*
X92125997Y-87755001D01*
X90710001Y-90750001D02*
X90710001Y-89170997D01*
X94000000Y-86000000D02*
X94245355Y-85754645D01*
X92125997Y-87755001D02*
X93064001Y-87755001D01*
X91710000Y-91750000D02*
X90710001Y-90750001D01*
X95154357Y-85754645D02*
X96679002Y-84230000D01*
X94245355Y-85754645D02*
X94995355Y-85754645D01*
X96679002Y-84230000D02*
X97480000Y-84230000D01*
X94995355Y-85754645D02*
X95154357Y-85754645D01*
X97210000Y-87000000D02*
X96500000Y-87000000D01*
X96500000Y-87000000D02*
X96449338Y-87050662D01*
X97480000Y-86730000D02*
X97210000Y-87000000D01*
X97480000Y-84230000D02*
X97480000Y-86730000D01*
X96500000Y-87000000D02*
X96500000Y-87250000D01*
X96165939Y-88441842D02*
X96165939Y-91584061D01*
X96500000Y-87250000D02*
X96250000Y-87500000D01*
X97110001Y-92239999D02*
X97350000Y-92479998D01*
X96821876Y-92239999D02*
X97110001Y-92239999D01*
X96449338Y-87050662D02*
X96061208Y-87438792D01*
X96061208Y-87438792D02*
X96061208Y-88337111D01*
X97350000Y-92479998D02*
X97350000Y-93135000D01*
X96165939Y-91584061D02*
X96821876Y-92239999D01*
X96061208Y-88337111D02*
X96165939Y-88441842D01*
%TO.N,Net-(J1-PadA7)*%
X100050000Y-90425000D02*
X100200000Y-90575000D01*
X100200000Y-90575000D02*
X100200000Y-91200000D01*
X101831940Y-90631165D02*
X101484537Y-90631165D01*
X101484537Y-90631165D02*
X100940692Y-91175010D01*
X100940692Y-91175010D02*
X100224990Y-91175010D01*
X100224990Y-91175010D02*
X100200000Y-91200000D01*
X100200000Y-91700238D02*
X100000000Y-91900238D01*
X100200000Y-91200000D02*
X100200000Y-91700238D01*
X99000000Y-92101215D02*
X98398044Y-91499259D01*
X100000000Y-91900238D02*
X100000000Y-93135000D01*
X99000000Y-93135000D02*
X99000000Y-92101215D01*
%TO.N,Net-(J1-PadA6)*%
X100500000Y-92350025D02*
X100950065Y-91899960D01*
X100500000Y-93135000D02*
X100500000Y-92350025D01*
X99500000Y-93135000D02*
X99500000Y-91551105D01*
X99400000Y-91444571D02*
X99396733Y-91447838D01*
X99390956Y-91453615D02*
X99396733Y-91447838D01*
X99296385Y-91453615D02*
X99390956Y-91453615D01*
X99500000Y-91551105D02*
X99396733Y-91447838D01*
X99400000Y-90425000D02*
X99400000Y-91444571D01*
%TO.N,Net-(J1-PadA5)*%
X98424999Y-92239999D02*
X98065035Y-92239999D01*
X98500000Y-92315000D02*
X98424999Y-92239999D01*
X98065035Y-92239999D02*
X97400976Y-91575940D01*
X98500000Y-93135000D02*
X98500000Y-92315000D01*
%TO.N,Net-(J1-PadB5)*%
X101500000Y-92423029D02*
X101958041Y-91964988D01*
X101958041Y-91964988D02*
X102272627Y-91964988D01*
X101500000Y-93135000D02*
X101500000Y-92423029D01*
%TO.N,Net-(U1-Pad16)*%
X98750000Y-86525000D02*
X98750000Y-85750000D01*
X106750000Y-73040000D02*
X107814990Y-73040000D01*
X107814990Y-73040000D02*
X109750000Y-74975010D01*
%TO.N,Net-(U1-Pad15)*%
X120694990Y-75580000D02*
X120524990Y-75750000D01*
X123750000Y-75580000D02*
X120694990Y-75580000D01*
X100175021Y-85324979D02*
X101742186Y-85324979D01*
X101742186Y-85324979D02*
X102547218Y-86130011D01*
X99400000Y-86525000D02*
X99400000Y-86100000D01*
X99400000Y-86100000D02*
X100175021Y-85324979D01*
%TO.N,Net-(U1-Pad14)*%
X123750000Y-88019682D02*
X123634841Y-88134841D01*
X123750000Y-87010000D02*
X123750000Y-88019682D01*
X101500000Y-86334298D02*
X101500000Y-86500000D01*
X100050000Y-86100000D02*
X100375010Y-85774990D01*
X100375010Y-85774990D02*
X100940692Y-85774990D01*
X100050000Y-86525000D02*
X100050000Y-86100000D01*
X100940692Y-85774990D02*
X101500000Y-86334298D01*
%TO.N,Net-(U1-Pad2)*%
X123690000Y-74250000D02*
X123750000Y-74310000D01*
X121250000Y-74250000D02*
X123690000Y-74250000D01*
X97775000Y-88150000D02*
X96947101Y-88150000D01*
X96947101Y-88150000D02*
X96786210Y-87989109D01*
%TO.N,GND*%
X100700000Y-87500000D02*
X99725000Y-88475000D01*
X100700000Y-86525000D02*
X100700000Y-87500000D01*
X99400000Y-88800000D02*
X99725000Y-88475000D01*
X97775000Y-88800000D02*
X99400000Y-88800000D01*
X98750000Y-89450000D02*
X99725000Y-88475000D01*
X97775000Y-89450000D02*
X98750000Y-89450000D01*
X98950000Y-97250000D02*
X95425000Y-93725000D01*
X99750000Y-97250000D02*
X98950000Y-97250000D01*
X96080000Y-97250000D02*
X95425000Y-97905000D01*
X99750000Y-97250000D02*
X96080000Y-97250000D01*
X100550000Y-97250000D02*
X104075000Y-93725000D01*
X99750000Y-97250000D02*
X100550000Y-97250000D01*
X99750000Y-97250000D02*
X103250000Y-97250000D01*
X103905000Y-97905000D02*
X104075000Y-97905000D01*
X103250000Y-97250000D02*
X103905000Y-97905000D01*
X99750000Y-97095000D02*
X102640000Y-94205000D01*
X99750000Y-97095000D02*
X96860000Y-94205000D01*
X99750000Y-97250000D02*
X99750000Y-97095000D01*
X103485000Y-93135000D02*
X104075000Y-93725000D01*
X102950000Y-93135000D02*
X103485000Y-93135000D01*
X96015000Y-93135000D02*
X95425000Y-93725000D01*
X96550000Y-93135000D02*
X96015000Y-93135000D01*
X92905000Y-97905000D02*
X92500000Y-97500000D01*
X95425000Y-97905000D02*
X92905000Y-97905000D01*
X95425000Y-92925000D02*
X94250000Y-91750000D01*
X95425000Y-93725000D02*
X95425000Y-92925000D01*
X97336476Y-88800000D02*
X97200843Y-88935633D01*
X97775000Y-88800000D02*
X97336476Y-88800000D01*
X130535533Y-70500000D02*
X123750000Y-70500000D01*
X132000000Y-69035533D02*
X130535533Y-70500000D01*
X132000000Y-65500000D02*
X132000000Y-69035533D01*
%TO.N,+3V3*%
X101675000Y-89450000D02*
X100700000Y-90425000D01*
X101675000Y-88800000D02*
X101675000Y-89450000D01*
X110000000Y-97350000D02*
X110000000Y-98500000D01*
X102100000Y-89450000D02*
X110000000Y-97350000D01*
X101675000Y-89450000D02*
X102100000Y-89450000D01*
X102560000Y-75194998D02*
X105984998Y-71770000D01*
X105984998Y-71770000D02*
X106750000Y-71770000D01*
X92500000Y-72750000D02*
X92500000Y-73880000D01*
X91400000Y-71650000D02*
X92500000Y-72750000D01*
X101245002Y-73880000D02*
X102560000Y-75194998D01*
X92500000Y-73880000D02*
X101245002Y-73880000D01*
X101710001Y-83380001D02*
X101710001Y-82795349D01*
X101710001Y-82795349D02*
X102560000Y-81945350D01*
X102560000Y-81945350D02*
X102560000Y-75194998D01*
X102560000Y-84230000D02*
X101710001Y-83380001D01*
X103409999Y-85079999D02*
X102560000Y-84230000D01*
X103409999Y-87490001D02*
X103409999Y-85079999D01*
X102100000Y-88800000D02*
X103409999Y-87490001D01*
X101675000Y-88800000D02*
X102100000Y-88800000D01*
X97775000Y-87500000D02*
X97950009Y-87324991D01*
X98932999Y-83207999D02*
X98997999Y-83142999D01*
X101472999Y-83142999D02*
X102560000Y-84230000D01*
X97950009Y-87324991D02*
X97950009Y-85498993D01*
X97950009Y-85498993D02*
X98932999Y-84516003D01*
X98932999Y-84516003D02*
X98932999Y-83207999D01*
X98997999Y-83142999D02*
X101472999Y-83142999D01*
%TO.N,OLED-RST*%
X106720000Y-84500000D02*
X106750000Y-84470000D01*
X105500000Y-84500000D02*
X106720000Y-84500000D01*
%TO.N,OLED-DC*%
X106687340Y-83262660D02*
X105975010Y-83262660D01*
X106750000Y-83200000D02*
X106687340Y-83262660D01*
%TO.N,OLED-CS0*%
X119750000Y-87955000D02*
X119695000Y-88010000D01*
X119750000Y-83250000D02*
X119750000Y-87955000D01*
%TO.N,OLED-SCLK*%
X108524999Y-81810771D02*
X108792885Y-81542885D01*
X108524999Y-85215001D02*
X108524999Y-81810771D01*
X106750000Y-85740000D02*
X108000000Y-85740000D01*
X108000000Y-85740000D02*
X108524999Y-85215001D01*
%TO.N,OLED-MOSI*%
X110750000Y-79250000D02*
X110750000Y-87955000D01*
X110750000Y-87955000D02*
X110805000Y-88010000D01*
%TO.N,CO2-SDA*%
X106650000Y-76750000D02*
X106750000Y-76850000D01*
X105250000Y-76750000D02*
X106650000Y-76750000D01*
%TO.N,CO2-SCL*%
X106620000Y-78250000D02*
X106750000Y-78120000D01*
X105500000Y-78250000D02*
X106620000Y-78250000D01*
%TO.N,IO7*%
X124750000Y-91350000D02*
X126550000Y-93150000D01*
X126875045Y-88511365D02*
X124750000Y-90636410D01*
X124750000Y-90636410D02*
X124750000Y-91350000D01*
X126875045Y-84284399D02*
X126875045Y-88511365D01*
X126457501Y-83866855D02*
X126875045Y-84284399D01*
X123750000Y-76850000D02*
X124515002Y-76850000D01*
X125332501Y-77667499D02*
X125332501Y-78832501D01*
X124515002Y-76850000D02*
X125332501Y-77667499D01*
X125332501Y-78832501D02*
X126457501Y-79957501D01*
X126457501Y-79957501D02*
X126457501Y-83866855D01*
%TO.N,IO6*%
X126007490Y-84053255D02*
X126425032Y-84470796D01*
X125000000Y-79390000D02*
X126007490Y-80397490D01*
X124050000Y-91200000D02*
X124050000Y-93150000D01*
X126007490Y-80397490D02*
X126007490Y-84053255D01*
X123750000Y-79390000D02*
X125000000Y-79390000D01*
X126425032Y-87925032D02*
X126425030Y-88324970D01*
X126425032Y-84470796D02*
X126425032Y-87925032D01*
X124050000Y-90700000D02*
X124050000Y-91200000D01*
X126425030Y-88324970D02*
X124050000Y-90700000D01*
%TO.N,IO5*%
X125000000Y-80660000D02*
X125557479Y-81217479D01*
X123750000Y-80660000D02*
X125000000Y-80660000D01*
X125557479Y-81217479D02*
X125557479Y-84239655D01*
X121550000Y-92563590D02*
X121550000Y-93150000D01*
X125557479Y-84239655D02*
X125975021Y-84657197D01*
X125975021Y-84657197D02*
X125975021Y-88138569D01*
X125975021Y-88138569D02*
X121550000Y-92563590D01*
%TO.N,IO4*%
X123278260Y-89685022D02*
X123746389Y-89685023D01*
X125107468Y-82037468D02*
X125000000Y-81930000D01*
X123746389Y-89685023D02*
X125525010Y-87906402D01*
X119813282Y-93150000D02*
X123278260Y-89685022D01*
X125525010Y-87906402D02*
X125525010Y-84843596D01*
X125107468Y-84426055D02*
X125107468Y-82037468D01*
X119050000Y-93150000D02*
X119813282Y-93150000D01*
X125525010Y-84843596D02*
X125107468Y-84426055D01*
X125000000Y-81930000D02*
X123750000Y-81930000D01*
%TO.N,IO3*%
X122500000Y-83200000D02*
X123750000Y-83200000D01*
X121740001Y-89270001D02*
X121740001Y-83959999D01*
X121675001Y-89335001D02*
X121740001Y-89270001D01*
X121740001Y-83959999D02*
X122500000Y-83200000D01*
X121675001Y-89335001D02*
X121675001Y-89379052D01*
X111963317Y-90999968D02*
X110374990Y-92588295D01*
X115299990Y-94400010D02*
X116550000Y-93150000D01*
X121675001Y-89379052D02*
X120054084Y-90999968D01*
X111063295Y-94400010D02*
X115299990Y-94400010D01*
X120054084Y-90999968D02*
X111963317Y-90999968D01*
X110374990Y-92588295D02*
X110374990Y-93711705D01*
X110374990Y-93711705D02*
X111063295Y-94400010D01*
%TO.N,IO2*%
X125075001Y-87720001D02*
X125075001Y-85029999D01*
X120426884Y-91899990D02*
X123091860Y-89235012D01*
X125075001Y-85029999D02*
X124515002Y-84470000D01*
X123091860Y-89235012D02*
X123559989Y-89235012D01*
X114050000Y-93150000D02*
X115300010Y-91899990D01*
X115300010Y-91899990D02*
X120426884Y-91899990D01*
X123559989Y-89235012D02*
X125075001Y-87720001D01*
X124515002Y-84470000D02*
X123750000Y-84470000D01*
%TO.N,IO1*%
X122424999Y-85815001D02*
X122500000Y-85740000D01*
X111550000Y-93150000D02*
X113250021Y-91449979D01*
X113250021Y-91449979D02*
X120240484Y-91449979D01*
X122500000Y-85740000D02*
X123750000Y-85740000D01*
X122424999Y-89265463D02*
X122424999Y-85815001D01*
X120240484Y-91449979D02*
X122424999Y-89265463D01*
%TD*%
D29*
%TO.N,GND*%
X104268748Y-93710858D02*
X104254605Y-93725000D01*
X105210413Y-94680808D01*
X105474814Y-94585044D01*
X105615704Y-94295429D01*
X105668657Y-94093459D01*
X109240000Y-97664802D01*
X109240000Y-97796289D01*
X109196063Y-97840226D01*
X109082795Y-98009744D01*
X109004774Y-98198102D01*
X108965000Y-98398061D01*
X108965000Y-98601939D01*
X109004774Y-98801898D01*
X109082795Y-98990256D01*
X109196063Y-99159774D01*
X109340226Y-99303937D01*
X109394198Y-99340000D01*
X104557254Y-99340000D01*
X104557216Y-99309601D01*
X104708747Y-99255919D01*
X104846157Y-99182472D01*
X104923792Y-98933397D01*
X104556287Y-98565892D01*
X104555838Y-98206233D01*
X105103397Y-98753792D01*
X105352472Y-98676157D01*
X105478371Y-98412117D01*
X105550339Y-98128589D01*
X105565611Y-97836469D01*
X105523599Y-97546981D01*
X105425919Y-97271253D01*
X105352472Y-97133843D01*
X105103397Y-97056208D01*
X104555086Y-97604519D01*
X104555000Y-97535750D01*
X104409823Y-97390573D01*
X104923792Y-96876603D01*
X104846157Y-96627528D01*
X104582117Y-96501629D01*
X104555586Y-96494895D01*
X104557094Y-95288269D01*
X104761088Y-95217795D01*
X104935044Y-95124814D01*
X105030808Y-94860413D01*
X104543591Y-94373196D01*
X104509502Y-94260820D01*
X104450537Y-94150506D01*
X104371185Y-94053815D01*
X104274494Y-93974463D01*
X104164180Y-93915498D01*
X104044482Y-93879188D01*
X104018765Y-93876655D01*
X103884399Y-93742289D01*
X103885087Y-93735308D01*
X103895395Y-93725000D01*
X103886935Y-93716540D01*
X103888072Y-93705000D01*
X103888062Y-93704048D01*
X104060858Y-93531253D01*
X104075000Y-93545395D01*
X104089143Y-93531253D01*
X104268748Y-93710858D01*
%TA.AperFunction,Conductor*%
D30*
G36*
X104268748Y-93710858D02*
G01*
X104254605Y-93725000D01*
X105210413Y-94680808D01*
X105474814Y-94585044D01*
X105615704Y-94295429D01*
X105668657Y-94093459D01*
X109240000Y-97664802D01*
X109240000Y-97796289D01*
X109196063Y-97840226D01*
X109082795Y-98009744D01*
X109004774Y-98198102D01*
X108965000Y-98398061D01*
X108965000Y-98601939D01*
X109004774Y-98801898D01*
X109082795Y-98990256D01*
X109196063Y-99159774D01*
X109340226Y-99303937D01*
X109394198Y-99340000D01*
X104557254Y-99340000D01*
X104557216Y-99309601D01*
X104708747Y-99255919D01*
X104846157Y-99182472D01*
X104923792Y-98933397D01*
X104556287Y-98565892D01*
X104555838Y-98206233D01*
X105103397Y-98753792D01*
X105352472Y-98676157D01*
X105478371Y-98412117D01*
X105550339Y-98128589D01*
X105565611Y-97836469D01*
X105523599Y-97546981D01*
X105425919Y-97271253D01*
X105352472Y-97133843D01*
X105103397Y-97056208D01*
X104555086Y-97604519D01*
X104555000Y-97535750D01*
X104409823Y-97390573D01*
X104923792Y-96876603D01*
X104846157Y-96627528D01*
X104582117Y-96501629D01*
X104555586Y-96494895D01*
X104557094Y-95288269D01*
X104761088Y-95217795D01*
X104935044Y-95124814D01*
X105030808Y-94860413D01*
X104543591Y-94373196D01*
X104509502Y-94260820D01*
X104450537Y-94150506D01*
X104371185Y-94053815D01*
X104274494Y-93974463D01*
X104164180Y-93915498D01*
X104044482Y-93879188D01*
X104018765Y-93876655D01*
X103884399Y-93742289D01*
X103885087Y-93735308D01*
X103895395Y-93725000D01*
X103886935Y-93716540D01*
X103888072Y-93705000D01*
X103888062Y-93704048D01*
X104060858Y-93531253D01*
X104075000Y-93545395D01*
X104089143Y-93531253D01*
X104268748Y-93710858D01*
G37*
%TD.AperFunction*%
D29*
X100590001Y-68717571D02*
X100586807Y-68750000D01*
X100599550Y-68879383D01*
X100637290Y-69003793D01*
X100698575Y-69118450D01*
X100781052Y-69218948D01*
X100881550Y-69301425D01*
X100996207Y-69362710D01*
X101120617Y-69400450D01*
X101217581Y-69410000D01*
X101250000Y-69413193D01*
X101282419Y-69410000D01*
X129217581Y-69410000D01*
X129250000Y-69413193D01*
X129282419Y-69410000D01*
X129379383Y-69400450D01*
X129503793Y-69362710D01*
X129618450Y-69301425D01*
X129718948Y-69218948D01*
X129801425Y-69118450D01*
X129862710Y-69003793D01*
X129900450Y-68879383D01*
X129913193Y-68750000D01*
X129910000Y-68717581D01*
X129910000Y-67769608D01*
X129976458Y-67703150D01*
X130252627Y-68121118D01*
X130797557Y-68411649D01*
X131388696Y-68590287D01*
X132003328Y-68650168D01*
X132617831Y-68588990D01*
X133208592Y-68409103D01*
X133747373Y-68121118D01*
X133840000Y-67980931D01*
X133840001Y-90226635D01*
X133730446Y-89962146D01*
X133719915Y-89927430D01*
X133651666Y-89799743D01*
X133559817Y-89687824D01*
X133452195Y-89599502D01*
X133447900Y-89595977D01*
X133390738Y-89565423D01*
X133352208Y-89544828D01*
X133352206Y-89544827D01*
X133320214Y-89527727D01*
X133285499Y-89517196D01*
X132832282Y-89329467D01*
X132800283Y-89312363D01*
X132661735Y-89270335D01*
X132553755Y-89259700D01*
X132553752Y-89259700D01*
X132517650Y-89256144D01*
X132481545Y-89259700D01*
X132445727Y-89259700D01*
X133023394Y-88764558D01*
X133098457Y-88686211D01*
X133176299Y-88564135D01*
X133228830Y-88429218D01*
X133254030Y-88286646D01*
X133250932Y-88141897D01*
X133219653Y-88000533D01*
X133161398Y-87867988D01*
X133078403Y-87749355D01*
X132973859Y-87649193D01*
X132851783Y-87571351D01*
X132716866Y-87518820D01*
X132574294Y-87493620D01*
X132429545Y-87496718D01*
X132288181Y-87527997D01*
X132155637Y-87586252D01*
X132066731Y-87648450D01*
X130458821Y-89026658D01*
X128850919Y-87648451D01*
X128762014Y-87586253D01*
X128629469Y-87527997D01*
X128488105Y-87496718D01*
X128343357Y-87493620D01*
X128200785Y-87518819D01*
X128065868Y-87571350D01*
X127943792Y-87649192D01*
X127839248Y-87749354D01*
X127756253Y-87867986D01*
X127697997Y-88000531D01*
X127666718Y-88141895D01*
X127663620Y-88286643D01*
X127688819Y-88429215D01*
X127741350Y-88564132D01*
X127819192Y-88686208D01*
X127894255Y-88764555D01*
X128471922Y-89259700D01*
X128447605Y-89259700D01*
X128423039Y-89256504D01*
X128375389Y-89259700D01*
X128363895Y-89259700D01*
X128339357Y-89262117D01*
X128278583Y-89266193D01*
X128267423Y-89269202D01*
X128255915Y-89270335D01*
X128197592Y-89288027D01*
X128138791Y-89303879D01*
X128128435Y-89309006D01*
X128117367Y-89312363D01*
X128063618Y-89341093D01*
X128009037Y-89368112D01*
X127999878Y-89375162D01*
X127989680Y-89380613D01*
X127942572Y-89419273D01*
X127894308Y-89456425D01*
X127886701Y-89465126D01*
X127877762Y-89472462D01*
X127839100Y-89519572D01*
X127799013Y-89565423D01*
X127793250Y-89575439D01*
X127785913Y-89584380D01*
X127757179Y-89638138D01*
X127726813Y-89690919D01*
X127723116Y-89701866D01*
X127717663Y-89712067D01*
X127699971Y-89770391D01*
X127680483Y-89828088D01*
X127678992Y-89839549D01*
X127675635Y-89850615D01*
X127669661Y-89911266D01*
X127661804Y-89971661D01*
X127662577Y-89983192D01*
X127661444Y-89994700D01*
X127667417Y-90055343D01*
X127671493Y-90116117D01*
X127674502Y-90127277D01*
X127675635Y-90138785D01*
X127693327Y-90197108D01*
X127709179Y-90255909D01*
X127714306Y-90266265D01*
X127717663Y-90277333D01*
X127746393Y-90331082D01*
X127773412Y-90385663D01*
X127780462Y-90394822D01*
X127785913Y-90405020D01*
X127824573Y-90452128D01*
X127861725Y-90500392D01*
X127870426Y-90507999D01*
X127877762Y-90516938D01*
X127924868Y-90555597D01*
X127943410Y-90571808D01*
X127952752Y-90578481D01*
X127989680Y-90608787D01*
X128011535Y-90620469D01*
X130012842Y-92049974D01*
X130048681Y-92079387D01*
X130069891Y-92090724D01*
X132119819Y-93554959D01*
X132213868Y-93609067D01*
X132351037Y-93655397D01*
X132494610Y-93674076D01*
X132639067Y-93664387D01*
X132778859Y-93626702D01*
X132908613Y-93562468D01*
X133023342Y-93474155D01*
X133118637Y-93365157D01*
X133190837Y-93239662D01*
X133237167Y-93102492D01*
X133255846Y-92958919D01*
X133246157Y-92814462D01*
X133208472Y-92674670D01*
X133144238Y-92544916D01*
X133055925Y-92430187D01*
X132974240Y-92358771D01*
X132714897Y-92173526D01*
X132765566Y-92158156D01*
X133285499Y-91942792D01*
X133320214Y-91932261D01*
X133380125Y-91900238D01*
X133435749Y-91870506D01*
X133447900Y-91864011D01*
X133487323Y-91831657D01*
X133559817Y-91772164D01*
X133651666Y-91660245D01*
X133719915Y-91532558D01*
X133730446Y-91497842D01*
X133840001Y-91233353D01*
X133840001Y-95019070D01*
X133747373Y-94878882D01*
X133202443Y-94588351D01*
X132611304Y-94409713D01*
X131996672Y-94349832D01*
X131382169Y-94411010D01*
X130791408Y-94590897D01*
X130252627Y-94878882D01*
X129976457Y-95296852D01*
X132000000Y-97320395D01*
X132014143Y-97306253D01*
X132193748Y-97485858D01*
X132179605Y-97500000D01*
X132193748Y-97514143D01*
X132014143Y-97693748D01*
X132000000Y-97679605D01*
X131985858Y-97693748D01*
X131806253Y-97514143D01*
X131820395Y-97500000D01*
X129796852Y-95476457D01*
X129378882Y-95752627D01*
X129088351Y-96297557D01*
X128909713Y-96888696D01*
X128849832Y-97503328D01*
X128911010Y-98117831D01*
X129090897Y-98708592D01*
X129378882Y-99247373D01*
X129519069Y-99340000D01*
X110605802Y-99340000D01*
X110659774Y-99303937D01*
X110803937Y-99159774D01*
X110917205Y-98990256D01*
X110995226Y-98801898D01*
X111035000Y-98601939D01*
X111035000Y-98398061D01*
X110995226Y-98198102D01*
X110917205Y-98009744D01*
X110803937Y-97840226D01*
X110760000Y-97796289D01*
X110760000Y-97387322D01*
X110763676Y-97349999D01*
X110760000Y-97312676D01*
X110760000Y-97312667D01*
X110749003Y-97201014D01*
X110705546Y-97057753D01*
X110634975Y-96925725D01*
X110634974Y-96925723D01*
X110563799Y-96838997D01*
X110540001Y-96809999D01*
X110511004Y-96786202D01*
X108436586Y-94711784D01*
X108764250Y-94710000D01*
X108923000Y-94551250D01*
X108923000Y-93277000D01*
X107723750Y-93277000D01*
X107565000Y-93435750D01*
X107563066Y-93838264D01*
X105949802Y-92225000D01*
X107561928Y-92225000D01*
X107565000Y-92864250D01*
X107723750Y-93023000D01*
X108923000Y-93023000D01*
X108923000Y-91748750D01*
X109177000Y-91748750D01*
X109177000Y-93023000D01*
X109197000Y-93023000D01*
X109197000Y-93277000D01*
X109177000Y-93277000D01*
X109177000Y-94551250D01*
X109335750Y-94710000D01*
X109900000Y-94713072D01*
X110024482Y-94700812D01*
X110144180Y-94664502D01*
X110215085Y-94626602D01*
X110499496Y-94911012D01*
X110523294Y-94940011D01*
X110639019Y-95034984D01*
X110771048Y-95105556D01*
X110914309Y-95149013D01*
X111025962Y-95160010D01*
X111025971Y-95160010D01*
X111063294Y-95163686D01*
X111100617Y-95160010D01*
X115262668Y-95160010D01*
X115299990Y-95163686D01*
X115337312Y-95160010D01*
X115337323Y-95160010D01*
X115448976Y-95149013D01*
X115592237Y-95105556D01*
X115724266Y-95034984D01*
X115839991Y-94940011D01*
X115863794Y-94911007D01*
X116126460Y-94648341D01*
X116258890Y-94688513D01*
X116550000Y-94717185D01*
X116841111Y-94688513D01*
X117121034Y-94603599D01*
X117379014Y-94465706D01*
X117605134Y-94280134D01*
X117790706Y-94054013D01*
X117800000Y-94036626D01*
X117809294Y-94054014D01*
X117994866Y-94280134D01*
X118220987Y-94465706D01*
X118478967Y-94603599D01*
X118758890Y-94688513D01*
X119050000Y-94717185D01*
X119341111Y-94688513D01*
X119621034Y-94603599D01*
X119879014Y-94465706D01*
X120105134Y-94280134D01*
X120290706Y-94054013D01*
X120300000Y-94036626D01*
X120309294Y-94054014D01*
X120494866Y-94280134D01*
X120720987Y-94465706D01*
X120978967Y-94603599D01*
X121258890Y-94688513D01*
X121550000Y-94717185D01*
X121841111Y-94688513D01*
X122121034Y-94603599D01*
X122379014Y-94465706D01*
X122605134Y-94280134D01*
X122790706Y-94054013D01*
X122800000Y-94036626D01*
X122809294Y-94054014D01*
X122994866Y-94280134D01*
X123220987Y-94465706D01*
X123478967Y-94603599D01*
X123758890Y-94688513D01*
X124050000Y-94717185D01*
X124341111Y-94688513D01*
X124621034Y-94603599D01*
X124879014Y-94465706D01*
X125105134Y-94280134D01*
X125290706Y-94054013D01*
X125300000Y-94036626D01*
X125309294Y-94054014D01*
X125494866Y-94280134D01*
X125720987Y-94465706D01*
X125978967Y-94603599D01*
X126258890Y-94688513D01*
X126550000Y-94717185D01*
X126841111Y-94688513D01*
X127121034Y-94603599D01*
X127379014Y-94465706D01*
X127605134Y-94280134D01*
X127790706Y-94054013D01*
X127928599Y-93796033D01*
X128013513Y-93516110D01*
X128035000Y-93297949D01*
X128035000Y-93002050D01*
X128013513Y-92783889D01*
X127928599Y-92503966D01*
X127790706Y-92245986D01*
X127605134Y-92019866D01*
X127379013Y-91834294D01*
X127121033Y-91696401D01*
X126841110Y-91611487D01*
X126550000Y-91582815D01*
X126258889Y-91611487D01*
X126126461Y-91651659D01*
X125510000Y-91035199D01*
X125510000Y-90951211D01*
X127386053Y-89075160D01*
X127415046Y-89051366D01*
X127438840Y-89022373D01*
X127438844Y-89022369D01*
X127504172Y-88942765D01*
X127510019Y-88935641D01*
X127580591Y-88803612D01*
X127624048Y-88660351D01*
X127635045Y-88548698D01*
X127635045Y-88548689D01*
X127638721Y-88511366D01*
X127635045Y-88474043D01*
X127635045Y-84321721D01*
X127638721Y-84284398D01*
X127635045Y-84247075D01*
X127635045Y-84247066D01*
X127624048Y-84135413D01*
X127580591Y-83992152D01*
X127510019Y-83860123D01*
X127415046Y-83744398D01*
X127386048Y-83720600D01*
X127217501Y-83552053D01*
X127217501Y-79994823D01*
X127221177Y-79957500D01*
X127217501Y-79920177D01*
X127217501Y-79920168D01*
X127206504Y-79808515D01*
X127163047Y-79665254D01*
X127092475Y-79533225D01*
X126997502Y-79417500D01*
X126968505Y-79393703D01*
X126092501Y-78517700D01*
X126092501Y-77704821D01*
X126096177Y-77667498D01*
X126092501Y-77630175D01*
X126092501Y-77630166D01*
X126081504Y-77518513D01*
X126038047Y-77375252D01*
X125967475Y-77243223D01*
X125872502Y-77127498D01*
X125843505Y-77103701D01*
X125388072Y-76648269D01*
X125388072Y-76400000D01*
X125375812Y-76275518D01*
X125357454Y-76215000D01*
X125375812Y-76154482D01*
X125388072Y-76030000D01*
X125388072Y-75130000D01*
X125375812Y-75005518D01*
X125357454Y-74945000D01*
X125375812Y-74884482D01*
X125388072Y-74760000D01*
X125388072Y-73860000D01*
X125375812Y-73735518D01*
X125357454Y-73675000D01*
X125375812Y-73614482D01*
X125388072Y-73490000D01*
X125388072Y-73465000D01*
X127960000Y-73465000D01*
X127960000Y-87035000D01*
X131780000Y-87035000D01*
X131780000Y-73465000D01*
X127960000Y-73465000D01*
X125388072Y-73465000D01*
X125388072Y-72590000D01*
X125375812Y-72465518D01*
X125357454Y-72405000D01*
X125375812Y-72344482D01*
X125388072Y-72220000D01*
X125388072Y-71320000D01*
X125375812Y-71195518D01*
X125357454Y-71135000D01*
X125375812Y-71074482D01*
X125388072Y-70950000D01*
X125385000Y-70785750D01*
X125226250Y-70627000D01*
X123877000Y-70627000D01*
X123877000Y-70647000D01*
X123623000Y-70647000D01*
X123623000Y-70627000D01*
X122273750Y-70627000D01*
X122115000Y-70785750D01*
X122111928Y-70950000D01*
X122124188Y-71074482D01*
X122142546Y-71135000D01*
X122124188Y-71195518D01*
X122111928Y-71320000D01*
X122111928Y-72220000D01*
X122124188Y-72344482D01*
X122142546Y-72405000D01*
X122124188Y-72465518D01*
X122111928Y-72590000D01*
X122111928Y-73490000D01*
X121953711Y-73490000D01*
X121909774Y-73446063D01*
X121740256Y-73332795D01*
X121551898Y-73254774D01*
X121351939Y-73215000D01*
X121148061Y-73215000D01*
X120948102Y-73254774D01*
X120759744Y-73332795D01*
X120590226Y-73446063D01*
X120446063Y-73590226D01*
X120332795Y-73759744D01*
X120254774Y-73948102D01*
X120215000Y-74148061D01*
X120215000Y-74351939D01*
X120254774Y-74551898D01*
X120330000Y-74733509D01*
X120223092Y-74754774D01*
X120034734Y-74832795D01*
X119865216Y-74946063D01*
X119721053Y-75090226D01*
X119607785Y-75259744D01*
X119529764Y-75448102D01*
X119489990Y-75648061D01*
X119489990Y-75851939D01*
X119529764Y-76051898D01*
X119607785Y-76240256D01*
X119721053Y-76409774D01*
X119865216Y-76553937D01*
X120034734Y-76667205D01*
X120223092Y-76745226D01*
X120423051Y-76785000D01*
X120626929Y-76785000D01*
X120826888Y-76745226D01*
X121015246Y-76667205D01*
X121184764Y-76553937D01*
X121328927Y-76409774D01*
X121375548Y-76340000D01*
X122117837Y-76340000D01*
X122111928Y-76400000D01*
X122111928Y-77300000D01*
X122124188Y-77424482D01*
X122142546Y-77485000D01*
X122124188Y-77545518D01*
X122111928Y-77670000D01*
X122111928Y-78570000D01*
X122124188Y-78694482D01*
X122142546Y-78755000D01*
X122124188Y-78815518D01*
X122111928Y-78940000D01*
X122111928Y-79840000D01*
X122124188Y-79964482D01*
X122142546Y-80025000D01*
X122124188Y-80085518D01*
X122111928Y-80210000D01*
X122111928Y-81110000D01*
X122124188Y-81234482D01*
X122142546Y-81295000D01*
X122124188Y-81355518D01*
X122111928Y-81480000D01*
X122111928Y-82380000D01*
X122124188Y-82504482D01*
X122133230Y-82534288D01*
X122075723Y-82565026D01*
X121995336Y-82630999D01*
X121959999Y-82659999D01*
X121936201Y-82688998D01*
X121228999Y-83396200D01*
X121200001Y-83419998D01*
X121176203Y-83448996D01*
X121176202Y-83448997D01*
X121105027Y-83535723D01*
X121034455Y-83667753D01*
X121011206Y-83744398D01*
X120990999Y-83811013D01*
X120981939Y-83902999D01*
X120976325Y-83959999D01*
X120980002Y-83997331D01*
X120980002Y-86371928D01*
X120515000Y-86371928D01*
X120510000Y-86372420D01*
X120510000Y-83953711D01*
X120553937Y-83909774D01*
X120667205Y-83740256D01*
X120745226Y-83551898D01*
X120785000Y-83351939D01*
X120785000Y-83148061D01*
X120745226Y-82948102D01*
X120667205Y-82759744D01*
X120553937Y-82590226D01*
X120409774Y-82446063D01*
X120240256Y-82332795D01*
X120051898Y-82254774D01*
X119851939Y-82215000D01*
X119648061Y-82215000D01*
X119448102Y-82254774D01*
X119259744Y-82332795D01*
X119090226Y-82446063D01*
X118946063Y-82590226D01*
X118832795Y-82759744D01*
X118754774Y-82948102D01*
X118715000Y-83148061D01*
X118715000Y-83351939D01*
X118754774Y-83551898D01*
X118832795Y-83740256D01*
X118946063Y-83909774D01*
X118990000Y-83953711D01*
X118990001Y-86383254D01*
X118875000Y-86371928D01*
X117975000Y-86371928D01*
X117850518Y-86384188D01*
X117790000Y-86402546D01*
X117729482Y-86384188D01*
X117605000Y-86371928D01*
X116705000Y-86371928D01*
X116580518Y-86384188D01*
X116520000Y-86402546D01*
X116459482Y-86384188D01*
X116335000Y-86371928D01*
X115435000Y-86371928D01*
X115310518Y-86384188D01*
X115250000Y-86402546D01*
X115189482Y-86384188D01*
X115065000Y-86371928D01*
X114165000Y-86371928D01*
X114040518Y-86384188D01*
X113980000Y-86402546D01*
X113919482Y-86384188D01*
X113795000Y-86371928D01*
X112895000Y-86371928D01*
X112770518Y-86384188D01*
X112710000Y-86402546D01*
X112649482Y-86384188D01*
X112525000Y-86371928D01*
X111625000Y-86371928D01*
X111510000Y-86383254D01*
X111510000Y-81090770D01*
X111625518Y-81125812D01*
X111750000Y-81138072D01*
X113964250Y-81135000D01*
X114123000Y-80976250D01*
X114123000Y-78127000D01*
X114377000Y-78127000D01*
X114377000Y-80976250D01*
X114535750Y-81135000D01*
X116750000Y-81138072D01*
X116874482Y-81125812D01*
X116994180Y-81089502D01*
X117104494Y-81030537D01*
X117201185Y-80951185D01*
X117280537Y-80854494D01*
X117339502Y-80744180D01*
X117375812Y-80624482D01*
X117388072Y-80500000D01*
X117385000Y-78285750D01*
X117226250Y-78127000D01*
X114377000Y-78127000D01*
X114123000Y-78127000D01*
X111273750Y-78127000D01*
X111118421Y-78282329D01*
X111051898Y-78254774D01*
X110851939Y-78215000D01*
X110648061Y-78215000D01*
X110448102Y-78254774D01*
X110259744Y-78332795D01*
X110090226Y-78446063D01*
X109946063Y-78590226D01*
X109832795Y-78759744D01*
X109754774Y-78948102D01*
X109715000Y-79148061D01*
X109715000Y-79351939D01*
X109754774Y-79551898D01*
X109832795Y-79740256D01*
X109946063Y-79909774D01*
X109990000Y-79953711D01*
X109990001Y-86372421D01*
X109985000Y-86371928D01*
X109820750Y-86375000D01*
X109662000Y-86533750D01*
X109662000Y-87883000D01*
X109682000Y-87883000D01*
X109682000Y-88137000D01*
X109662000Y-88137000D01*
X109662000Y-89486250D01*
X109820750Y-89645000D01*
X109985000Y-89648072D01*
X110109482Y-89635812D01*
X110170000Y-89617454D01*
X110230518Y-89635812D01*
X110355000Y-89648072D01*
X111255000Y-89648072D01*
X111379482Y-89635812D01*
X111440000Y-89617454D01*
X111500518Y-89635812D01*
X111625000Y-89648072D01*
X112525000Y-89648072D01*
X112649482Y-89635812D01*
X112710000Y-89617454D01*
X112770518Y-89635812D01*
X112895000Y-89648072D01*
X113795000Y-89648072D01*
X113919482Y-89635812D01*
X113980000Y-89617454D01*
X114040518Y-89635812D01*
X114165000Y-89648072D01*
X115065000Y-89648072D01*
X115189482Y-89635812D01*
X115250000Y-89617454D01*
X115310518Y-89635812D01*
X115435000Y-89648072D01*
X116335000Y-89648072D01*
X116459482Y-89635812D01*
X116520000Y-89617454D01*
X116580518Y-89635812D01*
X116705000Y-89648072D01*
X117605000Y-89648072D01*
X117729482Y-89635812D01*
X117790000Y-89617454D01*
X117850518Y-89635812D01*
X117975000Y-89648072D01*
X118875000Y-89648072D01*
X118999482Y-89635812D01*
X119060000Y-89617454D01*
X119120518Y-89635812D01*
X119245000Y-89648072D01*
X120145000Y-89648072D01*
X120269482Y-89635812D01*
X120330000Y-89617454D01*
X120354396Y-89624855D01*
X119739283Y-90239968D01*
X112000650Y-90239968D01*
X111963317Y-90236291D01*
X111925984Y-90239968D01*
X111814331Y-90250965D01*
X111671070Y-90294422D01*
X111539041Y-90364994D01*
X111423316Y-90459967D01*
X111399518Y-90488965D01*
X110215085Y-91673398D01*
X110144180Y-91635498D01*
X110024482Y-91599188D01*
X109900000Y-91586928D01*
X109335750Y-91590000D01*
X109177000Y-91748750D01*
X108923000Y-91748750D01*
X108764250Y-91590000D01*
X108200000Y-91586928D01*
X108075518Y-91599188D01*
X107955820Y-91635498D01*
X107845506Y-91694463D01*
X107748815Y-91773815D01*
X107669463Y-91870506D01*
X107610498Y-91980820D01*
X107574188Y-92100518D01*
X107561928Y-92225000D01*
X105949802Y-92225000D01*
X102849801Y-89125000D01*
X102964801Y-89010000D01*
X108446928Y-89010000D01*
X108459188Y-89134482D01*
X108495498Y-89254180D01*
X108554463Y-89364494D01*
X108633815Y-89461185D01*
X108730506Y-89540537D01*
X108840820Y-89599502D01*
X108960518Y-89635812D01*
X109085000Y-89648072D01*
X109249250Y-89645000D01*
X109408000Y-89486250D01*
X109408000Y-88137000D01*
X108608750Y-88137000D01*
X108450000Y-88295750D01*
X108446928Y-89010000D01*
X102964801Y-89010000D01*
X103921003Y-88053799D01*
X103950000Y-88030002D01*
X104044973Y-87914277D01*
X104115545Y-87782248D01*
X104159002Y-87638987D01*
X104169999Y-87527334D01*
X104169999Y-87527325D01*
X104173675Y-87490002D01*
X104169999Y-87452679D01*
X104169999Y-85117321D01*
X104173675Y-85079998D01*
X104169999Y-85042675D01*
X104169999Y-85042666D01*
X104159002Y-84931013D01*
X104115545Y-84787752D01*
X104095717Y-84750657D01*
X104044973Y-84655722D01*
X104000251Y-84601228D01*
X104045000Y-84376260D01*
X104045000Y-84083740D01*
X103987932Y-83796842D01*
X103875990Y-83526589D01*
X103713475Y-83283368D01*
X103506632Y-83076525D01*
X103263411Y-82914010D01*
X102993158Y-82802068D01*
X102813767Y-82766385D01*
X103071004Y-82509148D01*
X103100001Y-82485351D01*
X103139310Y-82437453D01*
X103194974Y-82369627D01*
X103265546Y-82237597D01*
X103271047Y-82219463D01*
X103309003Y-82094336D01*
X103320000Y-81982683D01*
X103320000Y-81982674D01*
X103323676Y-81945351D01*
X103320000Y-81908028D01*
X103320000Y-75509799D01*
X105137210Y-73692589D01*
X105124188Y-73735518D01*
X105111928Y-73860000D01*
X105111928Y-74760000D01*
X105124188Y-74884482D01*
X105142546Y-74945000D01*
X105124188Y-75005518D01*
X105111928Y-75130000D01*
X105111928Y-75722187D01*
X104948102Y-75754774D01*
X104759744Y-75832795D01*
X104590226Y-75946063D01*
X104446063Y-76090226D01*
X104332795Y-76259744D01*
X104254774Y-76448102D01*
X104215000Y-76648061D01*
X104215000Y-76851939D01*
X104254774Y-77051898D01*
X104332795Y-77240256D01*
X104446063Y-77409774D01*
X104590226Y-77553937D01*
X104680159Y-77614028D01*
X104582795Y-77759744D01*
X104504774Y-77948102D01*
X104465000Y-78148061D01*
X104465000Y-78351939D01*
X104504774Y-78551898D01*
X104582795Y-78740256D01*
X104696063Y-78909774D01*
X104840226Y-79053937D01*
X105009744Y-79167205D01*
X105111928Y-79209531D01*
X105111928Y-79840000D01*
X105124188Y-79964482D01*
X105142546Y-80025000D01*
X105124188Y-80085518D01*
X105111928Y-80210000D01*
X105111928Y-81110000D01*
X105124188Y-81234482D01*
X105142546Y-81295000D01*
X105124188Y-81355518D01*
X105111928Y-81480000D01*
X105111928Y-82380000D01*
X105124188Y-82504482D01*
X105142546Y-82565000D01*
X105124188Y-82625518D01*
X105118697Y-82681273D01*
X105057805Y-82772404D01*
X104979784Y-82960762D01*
X104940010Y-83160721D01*
X104940010Y-83364599D01*
X104979784Y-83564558D01*
X104992195Y-83594521D01*
X104840226Y-83696063D01*
X104696063Y-83840226D01*
X104582795Y-84009744D01*
X104504774Y-84198102D01*
X104465000Y-84398061D01*
X104465000Y-84601939D01*
X104504774Y-84801898D01*
X104582795Y-84990256D01*
X104696063Y-85159774D01*
X104840226Y-85303937D01*
X105009744Y-85417205D01*
X105111928Y-85459531D01*
X105111928Y-86190000D01*
X105124188Y-86314482D01*
X105142546Y-86375000D01*
X105124188Y-86435518D01*
X105111928Y-86560000D01*
X105111928Y-87460000D01*
X105124188Y-87584482D01*
X105160498Y-87704180D01*
X105219463Y-87814494D01*
X105298815Y-87911185D01*
X105395506Y-87990537D01*
X105505820Y-88049502D01*
X105625518Y-88085812D01*
X105750000Y-88098072D01*
X107750000Y-88098072D01*
X107874482Y-88085812D01*
X107994180Y-88049502D01*
X108104494Y-87990537D01*
X108201185Y-87911185D01*
X108280537Y-87814494D01*
X108339502Y-87704180D01*
X108375812Y-87584482D01*
X108388072Y-87460000D01*
X108388072Y-87010000D01*
X108446928Y-87010000D01*
X108450000Y-87724250D01*
X108608750Y-87883000D01*
X109408000Y-87883000D01*
X109408000Y-86533750D01*
X109249250Y-86375000D01*
X109085000Y-86371928D01*
X108960518Y-86384188D01*
X108840820Y-86420498D01*
X108730506Y-86479463D01*
X108633815Y-86558815D01*
X108554463Y-86655506D01*
X108495498Y-86765820D01*
X108459188Y-86885518D01*
X108446928Y-87010000D01*
X108388072Y-87010000D01*
X108388072Y-86560000D01*
X108375812Y-86435518D01*
X108366770Y-86405712D01*
X108424276Y-86374974D01*
X108540001Y-86280001D01*
X108563804Y-86250997D01*
X109036002Y-85778799D01*
X109065000Y-85755002D01*
X109159973Y-85639277D01*
X109230545Y-85507248D01*
X109274002Y-85363987D01*
X109284999Y-85252334D01*
X109284999Y-85252326D01*
X109288675Y-85215001D01*
X109284999Y-85177676D01*
X109284999Y-82458849D01*
X109452659Y-82346822D01*
X109596822Y-82202659D01*
X109710090Y-82033141D01*
X109788111Y-81844783D01*
X109827885Y-81644824D01*
X109827885Y-81440946D01*
X109788111Y-81240987D01*
X109710090Y-81052629D01*
X109596822Y-80883111D01*
X109452659Y-80738948D01*
X109283141Y-80625680D01*
X109094783Y-80547659D01*
X108894824Y-80507885D01*
X108690946Y-80507885D01*
X108490987Y-80547659D01*
X108388072Y-80590288D01*
X108388072Y-80210000D01*
X108375812Y-80085518D01*
X108357454Y-80025000D01*
X108375812Y-79964482D01*
X108388072Y-79840000D01*
X108388072Y-78940000D01*
X108375812Y-78815518D01*
X108357454Y-78755000D01*
X108375812Y-78694482D01*
X108388072Y-78570000D01*
X108388072Y-77670000D01*
X108375812Y-77545518D01*
X108357454Y-77485000D01*
X108375812Y-77424482D01*
X108388072Y-77300000D01*
X108388072Y-76400000D01*
X108375812Y-76275518D01*
X108357454Y-76215000D01*
X108375812Y-76154482D01*
X108388072Y-76030000D01*
X108388072Y-75130000D01*
X108375812Y-75005518D01*
X108357454Y-74945000D01*
X108375812Y-74884482D01*
X108388072Y-74760000D01*
X108388072Y-74687884D01*
X108715000Y-75014812D01*
X108715000Y-75076949D01*
X108754774Y-75276908D01*
X108832795Y-75465266D01*
X108946063Y-75634784D01*
X109090226Y-75778947D01*
X109259744Y-75892215D01*
X109448102Y-75970236D01*
X109648061Y-76010010D01*
X109851939Y-76010010D01*
X110051898Y-75970236D01*
X110240256Y-75892215D01*
X110409774Y-75778947D01*
X110553937Y-75634784D01*
X110643996Y-75500000D01*
X111111928Y-75500000D01*
X111115000Y-77714250D01*
X111273750Y-77873000D01*
X114123000Y-77873000D01*
X114123000Y-75023750D01*
X114377000Y-75023750D01*
X114377000Y-77873000D01*
X117226250Y-77873000D01*
X117385000Y-77714250D01*
X117388072Y-75500000D01*
X117375812Y-75375518D01*
X117339502Y-75255820D01*
X117280537Y-75145506D01*
X117201185Y-75048815D01*
X117104494Y-74969463D01*
X116994180Y-74910498D01*
X116874482Y-74874188D01*
X116750000Y-74861928D01*
X114535750Y-74865000D01*
X114377000Y-75023750D01*
X114123000Y-75023750D01*
X113964250Y-74865000D01*
X111750000Y-74861928D01*
X111625518Y-74874188D01*
X111505820Y-74910498D01*
X111395506Y-74969463D01*
X111298815Y-75048815D01*
X111219463Y-75145506D01*
X111160498Y-75255820D01*
X111124188Y-75375518D01*
X111111928Y-75500000D01*
X110643996Y-75500000D01*
X110667205Y-75465266D01*
X110745226Y-75276908D01*
X110785000Y-75076949D01*
X110785000Y-74873071D01*
X110745226Y-74673112D01*
X110667205Y-74484754D01*
X110553937Y-74315236D01*
X110409774Y-74171073D01*
X110240256Y-74057805D01*
X110051898Y-73979784D01*
X109851939Y-73940010D01*
X109789802Y-73940010D01*
X108382422Y-72532631D01*
X108375812Y-72465518D01*
X108357454Y-72405000D01*
X108375812Y-72344482D01*
X108388072Y-72220000D01*
X108388072Y-71320000D01*
X108375812Y-71195518D01*
X108357454Y-71135000D01*
X108375812Y-71074482D01*
X108388072Y-70950000D01*
X108385000Y-70785750D01*
X108226250Y-70627000D01*
X106877000Y-70627000D01*
X106877000Y-70647000D01*
X106623000Y-70647000D01*
X106623000Y-70627000D01*
X105273750Y-70627000D01*
X105115000Y-70785750D01*
X105111928Y-70950000D01*
X105124188Y-71074482D01*
X105142546Y-71135000D01*
X105124188Y-71195518D01*
X105111928Y-71320000D01*
X105111928Y-71568268D01*
X102560000Y-74120197D01*
X101808806Y-73369003D01*
X101785003Y-73339999D01*
X101669278Y-73245026D01*
X101537249Y-73174454D01*
X101393988Y-73130997D01*
X101282335Y-73120000D01*
X101282324Y-73120000D01*
X101245002Y-73116324D01*
X101207680Y-73120000D01*
X99241670Y-73120000D01*
X99453158Y-73077932D01*
X99723411Y-72965990D01*
X99966632Y-72803475D01*
X100173475Y-72596632D01*
X100335990Y-72353411D01*
X100447932Y-72083158D01*
X100505000Y-71796260D01*
X100505000Y-71503740D01*
X100447932Y-71216842D01*
X100335990Y-70946589D01*
X100173475Y-70703368D01*
X99966632Y-70496525D01*
X99723411Y-70334010D01*
X99453158Y-70222068D01*
X99166260Y-70165000D01*
X98873740Y-70165000D01*
X98586842Y-70222068D01*
X98316589Y-70334010D01*
X98073368Y-70496525D01*
X97866525Y-70703368D01*
X97750000Y-70877760D01*
X97633475Y-70703368D01*
X97426632Y-70496525D01*
X97183411Y-70334010D01*
X96913158Y-70222068D01*
X96626260Y-70165000D01*
X96333740Y-70165000D01*
X96046842Y-70222068D01*
X95776589Y-70334010D01*
X95533368Y-70496525D01*
X95326525Y-70703368D01*
X95210689Y-70876729D01*
X94968397Y-70801208D01*
X94119605Y-71650000D01*
X94968397Y-72498792D01*
X95210689Y-72423271D01*
X95326525Y-72596632D01*
X95533368Y-72803475D01*
X95776589Y-72965990D01*
X96046842Y-73077932D01*
X96258330Y-73120000D01*
X94150553Y-73120000D01*
X94298019Y-73098599D01*
X94573747Y-73000919D01*
X94711157Y-72927472D01*
X94788792Y-72678397D01*
X93940000Y-71829605D01*
X93925858Y-71843748D01*
X93746253Y-71664143D01*
X93760395Y-71650000D01*
X92911603Y-70801208D01*
X92669311Y-70876729D01*
X92553475Y-70703368D01*
X92471710Y-70621603D01*
X93091208Y-70621603D01*
X93940000Y-71470395D01*
X94788792Y-70621603D01*
X94711157Y-70372528D01*
X94447117Y-70246629D01*
X94163589Y-70174661D01*
X93871469Y-70159389D01*
X93581981Y-70201401D01*
X93306253Y-70299081D01*
X93168843Y-70372528D01*
X93091208Y-70621603D01*
X92471710Y-70621603D01*
X92346632Y-70496525D01*
X92103411Y-70334010D01*
X91833158Y-70222068D01*
X91546260Y-70165000D01*
X91253740Y-70165000D01*
X90966842Y-70222068D01*
X90696589Y-70334010D01*
X90660000Y-70358458D01*
X90660000Y-70050000D01*
X105111928Y-70050000D01*
X105115000Y-70214250D01*
X105273750Y-70373000D01*
X106623000Y-70373000D01*
X106623000Y-69573750D01*
X106877000Y-69573750D01*
X106877000Y-70373000D01*
X108226250Y-70373000D01*
X108385000Y-70214250D01*
X108388072Y-70050000D01*
X122111928Y-70050000D01*
X122115000Y-70214250D01*
X122273750Y-70373000D01*
X123623000Y-70373000D01*
X123623000Y-69573750D01*
X123877000Y-69573750D01*
X123877000Y-70373000D01*
X125226250Y-70373000D01*
X125385000Y-70214250D01*
X125388072Y-70050000D01*
X125375812Y-69925518D01*
X125339502Y-69805820D01*
X125280537Y-69695506D01*
X125201185Y-69598815D01*
X125104494Y-69519463D01*
X124994180Y-69460498D01*
X124874482Y-69424188D01*
X124750000Y-69411928D01*
X124035750Y-69415000D01*
X123877000Y-69573750D01*
X123623000Y-69573750D01*
X123464250Y-69415000D01*
X122750000Y-69411928D01*
X122625518Y-69424188D01*
X122505820Y-69460498D01*
X122395506Y-69519463D01*
X122298815Y-69598815D01*
X122219463Y-69695506D01*
X122160498Y-69805820D01*
X122124188Y-69925518D01*
X122111928Y-70050000D01*
X108388072Y-70050000D01*
X108375812Y-69925518D01*
X108339502Y-69805820D01*
X108280537Y-69695506D01*
X108201185Y-69598815D01*
X108104494Y-69519463D01*
X107994180Y-69460498D01*
X107874482Y-69424188D01*
X107750000Y-69411928D01*
X107035750Y-69415000D01*
X106877000Y-69573750D01*
X106623000Y-69573750D01*
X106464250Y-69415000D01*
X105750000Y-69411928D01*
X105625518Y-69424188D01*
X105505820Y-69460498D01*
X105395506Y-69519463D01*
X105298815Y-69598815D01*
X105219463Y-69695506D01*
X105160498Y-69805820D01*
X105124188Y-69925518D01*
X105111928Y-70050000D01*
X90660000Y-70050000D01*
X90660000Y-67980931D01*
X90752627Y-68121118D01*
X91297557Y-68411649D01*
X91888696Y-68590287D01*
X92503328Y-68650168D01*
X93117831Y-68588990D01*
X93708592Y-68409103D01*
X94247373Y-68121118D01*
X94523543Y-67703148D01*
X92500000Y-65679605D01*
X92485858Y-65693748D01*
X92306253Y-65514143D01*
X92320395Y-65500000D01*
X92306253Y-65485858D01*
X92485858Y-65306253D01*
X92500000Y-65320395D01*
X92514143Y-65306253D01*
X92693748Y-65485858D01*
X92679605Y-65500000D01*
X94703148Y-67523543D01*
X95121118Y-67247373D01*
X95411649Y-66702443D01*
X95590287Y-66111304D01*
X95650168Y-65496672D01*
X95588990Y-64882169D01*
X95409103Y-64291408D01*
X95121118Y-63752627D01*
X94980931Y-63660000D01*
X100590000Y-63660000D01*
X100590001Y-68717571D01*
%TA.AperFunction,Conductor*%
D30*
G36*
X100590001Y-68717571D02*
G01*
X100586807Y-68750000D01*
X100599550Y-68879383D01*
X100637290Y-69003793D01*
X100698575Y-69118450D01*
X100781052Y-69218948D01*
X100881550Y-69301425D01*
X100996207Y-69362710D01*
X101120617Y-69400450D01*
X101217581Y-69410000D01*
X101250000Y-69413193D01*
X101282419Y-69410000D01*
X129217581Y-69410000D01*
X129250000Y-69413193D01*
X129282419Y-69410000D01*
X129379383Y-69400450D01*
X129503793Y-69362710D01*
X129618450Y-69301425D01*
X129718948Y-69218948D01*
X129801425Y-69118450D01*
X129862710Y-69003793D01*
X129900450Y-68879383D01*
X129913193Y-68750000D01*
X129910000Y-68717581D01*
X129910000Y-67769608D01*
X129976458Y-67703150D01*
X130252627Y-68121118D01*
X130797557Y-68411649D01*
X131388696Y-68590287D01*
X132003328Y-68650168D01*
X132617831Y-68588990D01*
X133208592Y-68409103D01*
X133747373Y-68121118D01*
X133840000Y-67980931D01*
X133840001Y-90226635D01*
X133730446Y-89962146D01*
X133719915Y-89927430D01*
X133651666Y-89799743D01*
X133559817Y-89687824D01*
X133452195Y-89599502D01*
X133447900Y-89595977D01*
X133390738Y-89565423D01*
X133352208Y-89544828D01*
X133352206Y-89544827D01*
X133320214Y-89527727D01*
X133285499Y-89517196D01*
X132832282Y-89329467D01*
X132800283Y-89312363D01*
X132661735Y-89270335D01*
X132553755Y-89259700D01*
X132553752Y-89259700D01*
X132517650Y-89256144D01*
X132481545Y-89259700D01*
X132445727Y-89259700D01*
X133023394Y-88764558D01*
X133098457Y-88686211D01*
X133176299Y-88564135D01*
X133228830Y-88429218D01*
X133254030Y-88286646D01*
X133250932Y-88141897D01*
X133219653Y-88000533D01*
X133161398Y-87867988D01*
X133078403Y-87749355D01*
X132973859Y-87649193D01*
X132851783Y-87571351D01*
X132716866Y-87518820D01*
X132574294Y-87493620D01*
X132429545Y-87496718D01*
X132288181Y-87527997D01*
X132155637Y-87586252D01*
X132066731Y-87648450D01*
X130458821Y-89026658D01*
X128850919Y-87648451D01*
X128762014Y-87586253D01*
X128629469Y-87527997D01*
X128488105Y-87496718D01*
X128343357Y-87493620D01*
X128200785Y-87518819D01*
X128065868Y-87571350D01*
X127943792Y-87649192D01*
X127839248Y-87749354D01*
X127756253Y-87867986D01*
X127697997Y-88000531D01*
X127666718Y-88141895D01*
X127663620Y-88286643D01*
X127688819Y-88429215D01*
X127741350Y-88564132D01*
X127819192Y-88686208D01*
X127894255Y-88764555D01*
X128471922Y-89259700D01*
X128447605Y-89259700D01*
X128423039Y-89256504D01*
X128375389Y-89259700D01*
X128363895Y-89259700D01*
X128339357Y-89262117D01*
X128278583Y-89266193D01*
X128267423Y-89269202D01*
X128255915Y-89270335D01*
X128197592Y-89288027D01*
X128138791Y-89303879D01*
X128128435Y-89309006D01*
X128117367Y-89312363D01*
X128063618Y-89341093D01*
X128009037Y-89368112D01*
X127999878Y-89375162D01*
X127989680Y-89380613D01*
X127942572Y-89419273D01*
X127894308Y-89456425D01*
X127886701Y-89465126D01*
X127877762Y-89472462D01*
X127839100Y-89519572D01*
X127799013Y-89565423D01*
X127793250Y-89575439D01*
X127785913Y-89584380D01*
X127757179Y-89638138D01*
X127726813Y-89690919D01*
X127723116Y-89701866D01*
X127717663Y-89712067D01*
X127699971Y-89770391D01*
X127680483Y-89828088D01*
X127678992Y-89839549D01*
X127675635Y-89850615D01*
X127669661Y-89911266D01*
X127661804Y-89971661D01*
X127662577Y-89983192D01*
X127661444Y-89994700D01*
X127667417Y-90055343D01*
X127671493Y-90116117D01*
X127674502Y-90127277D01*
X127675635Y-90138785D01*
X127693327Y-90197108D01*
X127709179Y-90255909D01*
X127714306Y-90266265D01*
X127717663Y-90277333D01*
X127746393Y-90331082D01*
X127773412Y-90385663D01*
X127780462Y-90394822D01*
X127785913Y-90405020D01*
X127824573Y-90452128D01*
X127861725Y-90500392D01*
X127870426Y-90507999D01*
X127877762Y-90516938D01*
X127924868Y-90555597D01*
X127943410Y-90571808D01*
X127952752Y-90578481D01*
X127989680Y-90608787D01*
X128011535Y-90620469D01*
X130012842Y-92049974D01*
X130048681Y-92079387D01*
X130069891Y-92090724D01*
X132119819Y-93554959D01*
X132213868Y-93609067D01*
X132351037Y-93655397D01*
X132494610Y-93674076D01*
X132639067Y-93664387D01*
X132778859Y-93626702D01*
X132908613Y-93562468D01*
X133023342Y-93474155D01*
X133118637Y-93365157D01*
X133190837Y-93239662D01*
X133237167Y-93102492D01*
X133255846Y-92958919D01*
X133246157Y-92814462D01*
X133208472Y-92674670D01*
X133144238Y-92544916D01*
X133055925Y-92430187D01*
X132974240Y-92358771D01*
X132714897Y-92173526D01*
X132765566Y-92158156D01*
X133285499Y-91942792D01*
X133320214Y-91932261D01*
X133380125Y-91900238D01*
X133435749Y-91870506D01*
X133447900Y-91864011D01*
X133487323Y-91831657D01*
X133559817Y-91772164D01*
X133651666Y-91660245D01*
X133719915Y-91532558D01*
X133730446Y-91497842D01*
X133840001Y-91233353D01*
X133840001Y-95019070D01*
X133747373Y-94878882D01*
X133202443Y-94588351D01*
X132611304Y-94409713D01*
X131996672Y-94349832D01*
X131382169Y-94411010D01*
X130791408Y-94590897D01*
X130252627Y-94878882D01*
X129976457Y-95296852D01*
X132000000Y-97320395D01*
X132014143Y-97306253D01*
X132193748Y-97485858D01*
X132179605Y-97500000D01*
X132193748Y-97514143D01*
X132014143Y-97693748D01*
X132000000Y-97679605D01*
X131985858Y-97693748D01*
X131806253Y-97514143D01*
X131820395Y-97500000D01*
X129796852Y-95476457D01*
X129378882Y-95752627D01*
X129088351Y-96297557D01*
X128909713Y-96888696D01*
X128849832Y-97503328D01*
X128911010Y-98117831D01*
X129090897Y-98708592D01*
X129378882Y-99247373D01*
X129519069Y-99340000D01*
X110605802Y-99340000D01*
X110659774Y-99303937D01*
X110803937Y-99159774D01*
X110917205Y-98990256D01*
X110995226Y-98801898D01*
X111035000Y-98601939D01*
X111035000Y-98398061D01*
X110995226Y-98198102D01*
X110917205Y-98009744D01*
X110803937Y-97840226D01*
X110760000Y-97796289D01*
X110760000Y-97387322D01*
X110763676Y-97349999D01*
X110760000Y-97312676D01*
X110760000Y-97312667D01*
X110749003Y-97201014D01*
X110705546Y-97057753D01*
X110634975Y-96925725D01*
X110634974Y-96925723D01*
X110563799Y-96838997D01*
X110540001Y-96809999D01*
X110511004Y-96786202D01*
X108436586Y-94711784D01*
X108764250Y-94710000D01*
X108923000Y-94551250D01*
X108923000Y-93277000D01*
X107723750Y-93277000D01*
X107565000Y-93435750D01*
X107563066Y-93838264D01*
X105949802Y-92225000D01*
X107561928Y-92225000D01*
X107565000Y-92864250D01*
X107723750Y-93023000D01*
X108923000Y-93023000D01*
X108923000Y-91748750D01*
X109177000Y-91748750D01*
X109177000Y-93023000D01*
X109197000Y-93023000D01*
X109197000Y-93277000D01*
X109177000Y-93277000D01*
X109177000Y-94551250D01*
X109335750Y-94710000D01*
X109900000Y-94713072D01*
X110024482Y-94700812D01*
X110144180Y-94664502D01*
X110215085Y-94626602D01*
X110499496Y-94911012D01*
X110523294Y-94940011D01*
X110639019Y-95034984D01*
X110771048Y-95105556D01*
X110914309Y-95149013D01*
X111025962Y-95160010D01*
X111025971Y-95160010D01*
X111063294Y-95163686D01*
X111100617Y-95160010D01*
X115262668Y-95160010D01*
X115299990Y-95163686D01*
X115337312Y-95160010D01*
X115337323Y-95160010D01*
X115448976Y-95149013D01*
X115592237Y-95105556D01*
X115724266Y-95034984D01*
X115839991Y-94940011D01*
X115863794Y-94911007D01*
X116126460Y-94648341D01*
X116258890Y-94688513D01*
X116550000Y-94717185D01*
X116841111Y-94688513D01*
X117121034Y-94603599D01*
X117379014Y-94465706D01*
X117605134Y-94280134D01*
X117790706Y-94054013D01*
X117800000Y-94036626D01*
X117809294Y-94054014D01*
X117994866Y-94280134D01*
X118220987Y-94465706D01*
X118478967Y-94603599D01*
X118758890Y-94688513D01*
X119050000Y-94717185D01*
X119341111Y-94688513D01*
X119621034Y-94603599D01*
X119879014Y-94465706D01*
X120105134Y-94280134D01*
X120290706Y-94054013D01*
X120300000Y-94036626D01*
X120309294Y-94054014D01*
X120494866Y-94280134D01*
X120720987Y-94465706D01*
X120978967Y-94603599D01*
X121258890Y-94688513D01*
X121550000Y-94717185D01*
X121841111Y-94688513D01*
X122121034Y-94603599D01*
X122379014Y-94465706D01*
X122605134Y-94280134D01*
X122790706Y-94054013D01*
X122800000Y-94036626D01*
X122809294Y-94054014D01*
X122994866Y-94280134D01*
X123220987Y-94465706D01*
X123478967Y-94603599D01*
X123758890Y-94688513D01*
X124050000Y-94717185D01*
X124341111Y-94688513D01*
X124621034Y-94603599D01*
X124879014Y-94465706D01*
X125105134Y-94280134D01*
X125290706Y-94054013D01*
X125300000Y-94036626D01*
X125309294Y-94054014D01*
X125494866Y-94280134D01*
X125720987Y-94465706D01*
X125978967Y-94603599D01*
X126258890Y-94688513D01*
X126550000Y-94717185D01*
X126841111Y-94688513D01*
X127121034Y-94603599D01*
X127379014Y-94465706D01*
X127605134Y-94280134D01*
X127790706Y-94054013D01*
X127928599Y-93796033D01*
X128013513Y-93516110D01*
X128035000Y-93297949D01*
X128035000Y-93002050D01*
X128013513Y-92783889D01*
X127928599Y-92503966D01*
X127790706Y-92245986D01*
X127605134Y-92019866D01*
X127379013Y-91834294D01*
X127121033Y-91696401D01*
X126841110Y-91611487D01*
X126550000Y-91582815D01*
X126258889Y-91611487D01*
X126126461Y-91651659D01*
X125510000Y-91035199D01*
X125510000Y-90951211D01*
X127386053Y-89075160D01*
X127415046Y-89051366D01*
X127438840Y-89022373D01*
X127438844Y-89022369D01*
X127504172Y-88942765D01*
X127510019Y-88935641D01*
X127580591Y-88803612D01*
X127624048Y-88660351D01*
X127635045Y-88548698D01*
X127635045Y-88548689D01*
X127638721Y-88511366D01*
X127635045Y-88474043D01*
X127635045Y-84321721D01*
X127638721Y-84284398D01*
X127635045Y-84247075D01*
X127635045Y-84247066D01*
X127624048Y-84135413D01*
X127580591Y-83992152D01*
X127510019Y-83860123D01*
X127415046Y-83744398D01*
X127386048Y-83720600D01*
X127217501Y-83552053D01*
X127217501Y-79994823D01*
X127221177Y-79957500D01*
X127217501Y-79920177D01*
X127217501Y-79920168D01*
X127206504Y-79808515D01*
X127163047Y-79665254D01*
X127092475Y-79533225D01*
X126997502Y-79417500D01*
X126968505Y-79393703D01*
X126092501Y-78517700D01*
X126092501Y-77704821D01*
X126096177Y-77667498D01*
X126092501Y-77630175D01*
X126092501Y-77630166D01*
X126081504Y-77518513D01*
X126038047Y-77375252D01*
X125967475Y-77243223D01*
X125872502Y-77127498D01*
X125843505Y-77103701D01*
X125388072Y-76648269D01*
X125388072Y-76400000D01*
X125375812Y-76275518D01*
X125357454Y-76215000D01*
X125375812Y-76154482D01*
X125388072Y-76030000D01*
X125388072Y-75130000D01*
X125375812Y-75005518D01*
X125357454Y-74945000D01*
X125375812Y-74884482D01*
X125388072Y-74760000D01*
X125388072Y-73860000D01*
X125375812Y-73735518D01*
X125357454Y-73675000D01*
X125375812Y-73614482D01*
X125388072Y-73490000D01*
X125388072Y-73465000D01*
X127960000Y-73465000D01*
X127960000Y-87035000D01*
X131780000Y-87035000D01*
X131780000Y-73465000D01*
X127960000Y-73465000D01*
X125388072Y-73465000D01*
X125388072Y-72590000D01*
X125375812Y-72465518D01*
X125357454Y-72405000D01*
X125375812Y-72344482D01*
X125388072Y-72220000D01*
X125388072Y-71320000D01*
X125375812Y-71195518D01*
X125357454Y-71135000D01*
X125375812Y-71074482D01*
X125388072Y-70950000D01*
X125385000Y-70785750D01*
X125226250Y-70627000D01*
X123877000Y-70627000D01*
X123877000Y-70647000D01*
X123623000Y-70647000D01*
X123623000Y-70627000D01*
X122273750Y-70627000D01*
X122115000Y-70785750D01*
X122111928Y-70950000D01*
X122124188Y-71074482D01*
X122142546Y-71135000D01*
X122124188Y-71195518D01*
X122111928Y-71320000D01*
X122111928Y-72220000D01*
X122124188Y-72344482D01*
X122142546Y-72405000D01*
X122124188Y-72465518D01*
X122111928Y-72590000D01*
X122111928Y-73490000D01*
X121953711Y-73490000D01*
X121909774Y-73446063D01*
X121740256Y-73332795D01*
X121551898Y-73254774D01*
X121351939Y-73215000D01*
X121148061Y-73215000D01*
X120948102Y-73254774D01*
X120759744Y-73332795D01*
X120590226Y-73446063D01*
X120446063Y-73590226D01*
X120332795Y-73759744D01*
X120254774Y-73948102D01*
X120215000Y-74148061D01*
X120215000Y-74351939D01*
X120254774Y-74551898D01*
X120330000Y-74733509D01*
X120223092Y-74754774D01*
X120034734Y-74832795D01*
X119865216Y-74946063D01*
X119721053Y-75090226D01*
X119607785Y-75259744D01*
X119529764Y-75448102D01*
X119489990Y-75648061D01*
X119489990Y-75851939D01*
X119529764Y-76051898D01*
X119607785Y-76240256D01*
X119721053Y-76409774D01*
X119865216Y-76553937D01*
X120034734Y-76667205D01*
X120223092Y-76745226D01*
X120423051Y-76785000D01*
X120626929Y-76785000D01*
X120826888Y-76745226D01*
X121015246Y-76667205D01*
X121184764Y-76553937D01*
X121328927Y-76409774D01*
X121375548Y-76340000D01*
X122117837Y-76340000D01*
X122111928Y-76400000D01*
X122111928Y-77300000D01*
X122124188Y-77424482D01*
X122142546Y-77485000D01*
X122124188Y-77545518D01*
X122111928Y-77670000D01*
X122111928Y-78570000D01*
X122124188Y-78694482D01*
X122142546Y-78755000D01*
X122124188Y-78815518D01*
X122111928Y-78940000D01*
X122111928Y-79840000D01*
X122124188Y-79964482D01*
X122142546Y-80025000D01*
X122124188Y-80085518D01*
X122111928Y-80210000D01*
X122111928Y-81110000D01*
X122124188Y-81234482D01*
X122142546Y-81295000D01*
X122124188Y-81355518D01*
X122111928Y-81480000D01*
X122111928Y-82380000D01*
X122124188Y-82504482D01*
X122133230Y-82534288D01*
X122075723Y-82565026D01*
X121995336Y-82630999D01*
X121959999Y-82659999D01*
X121936201Y-82688998D01*
X121228999Y-83396200D01*
X121200001Y-83419998D01*
X121176203Y-83448996D01*
X121176202Y-83448997D01*
X121105027Y-83535723D01*
X121034455Y-83667753D01*
X121011206Y-83744398D01*
X120990999Y-83811013D01*
X120981939Y-83902999D01*
X120976325Y-83959999D01*
X120980002Y-83997331D01*
X120980002Y-86371928D01*
X120515000Y-86371928D01*
X120510000Y-86372420D01*
X120510000Y-83953711D01*
X120553937Y-83909774D01*
X120667205Y-83740256D01*
X120745226Y-83551898D01*
X120785000Y-83351939D01*
X120785000Y-83148061D01*
X120745226Y-82948102D01*
X120667205Y-82759744D01*
X120553937Y-82590226D01*
X120409774Y-82446063D01*
X120240256Y-82332795D01*
X120051898Y-82254774D01*
X119851939Y-82215000D01*
X119648061Y-82215000D01*
X119448102Y-82254774D01*
X119259744Y-82332795D01*
X119090226Y-82446063D01*
X118946063Y-82590226D01*
X118832795Y-82759744D01*
X118754774Y-82948102D01*
X118715000Y-83148061D01*
X118715000Y-83351939D01*
X118754774Y-83551898D01*
X118832795Y-83740256D01*
X118946063Y-83909774D01*
X118990000Y-83953711D01*
X118990001Y-86383254D01*
X118875000Y-86371928D01*
X117975000Y-86371928D01*
X117850518Y-86384188D01*
X117790000Y-86402546D01*
X117729482Y-86384188D01*
X117605000Y-86371928D01*
X116705000Y-86371928D01*
X116580518Y-86384188D01*
X116520000Y-86402546D01*
X116459482Y-86384188D01*
X116335000Y-86371928D01*
X115435000Y-86371928D01*
X115310518Y-86384188D01*
X115250000Y-86402546D01*
X115189482Y-86384188D01*
X115065000Y-86371928D01*
X114165000Y-86371928D01*
X114040518Y-86384188D01*
X113980000Y-86402546D01*
X113919482Y-86384188D01*
X113795000Y-86371928D01*
X112895000Y-86371928D01*
X112770518Y-86384188D01*
X112710000Y-86402546D01*
X112649482Y-86384188D01*
X112525000Y-86371928D01*
X111625000Y-86371928D01*
X111510000Y-86383254D01*
X111510000Y-81090770D01*
X111625518Y-81125812D01*
X111750000Y-81138072D01*
X113964250Y-81135000D01*
X114123000Y-80976250D01*
X114123000Y-78127000D01*
X114377000Y-78127000D01*
X114377000Y-80976250D01*
X114535750Y-81135000D01*
X116750000Y-81138072D01*
X116874482Y-81125812D01*
X116994180Y-81089502D01*
X117104494Y-81030537D01*
X117201185Y-80951185D01*
X117280537Y-80854494D01*
X117339502Y-80744180D01*
X117375812Y-80624482D01*
X117388072Y-80500000D01*
X117385000Y-78285750D01*
X117226250Y-78127000D01*
X114377000Y-78127000D01*
X114123000Y-78127000D01*
X111273750Y-78127000D01*
X111118421Y-78282329D01*
X111051898Y-78254774D01*
X110851939Y-78215000D01*
X110648061Y-78215000D01*
X110448102Y-78254774D01*
X110259744Y-78332795D01*
X110090226Y-78446063D01*
X109946063Y-78590226D01*
X109832795Y-78759744D01*
X109754774Y-78948102D01*
X109715000Y-79148061D01*
X109715000Y-79351939D01*
X109754774Y-79551898D01*
X109832795Y-79740256D01*
X109946063Y-79909774D01*
X109990000Y-79953711D01*
X109990001Y-86372421D01*
X109985000Y-86371928D01*
X109820750Y-86375000D01*
X109662000Y-86533750D01*
X109662000Y-87883000D01*
X109682000Y-87883000D01*
X109682000Y-88137000D01*
X109662000Y-88137000D01*
X109662000Y-89486250D01*
X109820750Y-89645000D01*
X109985000Y-89648072D01*
X110109482Y-89635812D01*
X110170000Y-89617454D01*
X110230518Y-89635812D01*
X110355000Y-89648072D01*
X111255000Y-89648072D01*
X111379482Y-89635812D01*
X111440000Y-89617454D01*
X111500518Y-89635812D01*
X111625000Y-89648072D01*
X112525000Y-89648072D01*
X112649482Y-89635812D01*
X112710000Y-89617454D01*
X112770518Y-89635812D01*
X112895000Y-89648072D01*
X113795000Y-89648072D01*
X113919482Y-89635812D01*
X113980000Y-89617454D01*
X114040518Y-89635812D01*
X114165000Y-89648072D01*
X115065000Y-89648072D01*
X115189482Y-89635812D01*
X115250000Y-89617454D01*
X115310518Y-89635812D01*
X115435000Y-89648072D01*
X116335000Y-89648072D01*
X116459482Y-89635812D01*
X116520000Y-89617454D01*
X116580518Y-89635812D01*
X116705000Y-89648072D01*
X117605000Y-89648072D01*
X117729482Y-89635812D01*
X117790000Y-89617454D01*
X117850518Y-89635812D01*
X117975000Y-89648072D01*
X118875000Y-89648072D01*
X118999482Y-89635812D01*
X119060000Y-89617454D01*
X119120518Y-89635812D01*
X119245000Y-89648072D01*
X120145000Y-89648072D01*
X120269482Y-89635812D01*
X120330000Y-89617454D01*
X120354396Y-89624855D01*
X119739283Y-90239968D01*
X112000650Y-90239968D01*
X111963317Y-90236291D01*
X111925984Y-90239968D01*
X111814331Y-90250965D01*
X111671070Y-90294422D01*
X111539041Y-90364994D01*
X111423316Y-90459967D01*
X111399518Y-90488965D01*
X110215085Y-91673398D01*
X110144180Y-91635498D01*
X110024482Y-91599188D01*
X109900000Y-91586928D01*
X109335750Y-91590000D01*
X109177000Y-91748750D01*
X108923000Y-91748750D01*
X108764250Y-91590000D01*
X108200000Y-91586928D01*
X108075518Y-91599188D01*
X107955820Y-91635498D01*
X107845506Y-91694463D01*
X107748815Y-91773815D01*
X107669463Y-91870506D01*
X107610498Y-91980820D01*
X107574188Y-92100518D01*
X107561928Y-92225000D01*
X105949802Y-92225000D01*
X102849801Y-89125000D01*
X102964801Y-89010000D01*
X108446928Y-89010000D01*
X108459188Y-89134482D01*
X108495498Y-89254180D01*
X108554463Y-89364494D01*
X108633815Y-89461185D01*
X108730506Y-89540537D01*
X108840820Y-89599502D01*
X108960518Y-89635812D01*
X109085000Y-89648072D01*
X109249250Y-89645000D01*
X109408000Y-89486250D01*
X109408000Y-88137000D01*
X108608750Y-88137000D01*
X108450000Y-88295750D01*
X108446928Y-89010000D01*
X102964801Y-89010000D01*
X103921003Y-88053799D01*
X103950000Y-88030002D01*
X104044973Y-87914277D01*
X104115545Y-87782248D01*
X104159002Y-87638987D01*
X104169999Y-87527334D01*
X104169999Y-87527325D01*
X104173675Y-87490002D01*
X104169999Y-87452679D01*
X104169999Y-85117321D01*
X104173675Y-85079998D01*
X104169999Y-85042675D01*
X104169999Y-85042666D01*
X104159002Y-84931013D01*
X104115545Y-84787752D01*
X104095717Y-84750657D01*
X104044973Y-84655722D01*
X104000251Y-84601228D01*
X104045000Y-84376260D01*
X104045000Y-84083740D01*
X103987932Y-83796842D01*
X103875990Y-83526589D01*
X103713475Y-83283368D01*
X103506632Y-83076525D01*
X103263411Y-82914010D01*
X102993158Y-82802068D01*
X102813767Y-82766385D01*
X103071004Y-82509148D01*
X103100001Y-82485351D01*
X103139310Y-82437453D01*
X103194974Y-82369627D01*
X103265546Y-82237597D01*
X103271047Y-82219463D01*
X103309003Y-82094336D01*
X103320000Y-81982683D01*
X103320000Y-81982674D01*
X103323676Y-81945351D01*
X103320000Y-81908028D01*
X103320000Y-75509799D01*
X105137210Y-73692589D01*
X105124188Y-73735518D01*
X105111928Y-73860000D01*
X105111928Y-74760000D01*
X105124188Y-74884482D01*
X105142546Y-74945000D01*
X105124188Y-75005518D01*
X105111928Y-75130000D01*
X105111928Y-75722187D01*
X104948102Y-75754774D01*
X104759744Y-75832795D01*
X104590226Y-75946063D01*
X104446063Y-76090226D01*
X104332795Y-76259744D01*
X104254774Y-76448102D01*
X104215000Y-76648061D01*
X104215000Y-76851939D01*
X104254774Y-77051898D01*
X104332795Y-77240256D01*
X104446063Y-77409774D01*
X104590226Y-77553937D01*
X104680159Y-77614028D01*
X104582795Y-77759744D01*
X104504774Y-77948102D01*
X104465000Y-78148061D01*
X104465000Y-78351939D01*
X104504774Y-78551898D01*
X104582795Y-78740256D01*
X104696063Y-78909774D01*
X104840226Y-79053937D01*
X105009744Y-79167205D01*
X105111928Y-79209531D01*
X105111928Y-79840000D01*
X105124188Y-79964482D01*
X105142546Y-80025000D01*
X105124188Y-80085518D01*
X105111928Y-80210000D01*
X105111928Y-81110000D01*
X105124188Y-81234482D01*
X105142546Y-81295000D01*
X105124188Y-81355518D01*
X105111928Y-81480000D01*
X105111928Y-82380000D01*
X105124188Y-82504482D01*
X105142546Y-82565000D01*
X105124188Y-82625518D01*
X105118697Y-82681273D01*
X105057805Y-82772404D01*
X104979784Y-82960762D01*
X104940010Y-83160721D01*
X104940010Y-83364599D01*
X104979784Y-83564558D01*
X104992195Y-83594521D01*
X104840226Y-83696063D01*
X104696063Y-83840226D01*
X104582795Y-84009744D01*
X104504774Y-84198102D01*
X104465000Y-84398061D01*
X104465000Y-84601939D01*
X104504774Y-84801898D01*
X104582795Y-84990256D01*
X104696063Y-85159774D01*
X104840226Y-85303937D01*
X105009744Y-85417205D01*
X105111928Y-85459531D01*
X105111928Y-86190000D01*
X105124188Y-86314482D01*
X105142546Y-86375000D01*
X105124188Y-86435518D01*
X105111928Y-86560000D01*
X105111928Y-87460000D01*
X105124188Y-87584482D01*
X105160498Y-87704180D01*
X105219463Y-87814494D01*
X105298815Y-87911185D01*
X105395506Y-87990537D01*
X105505820Y-88049502D01*
X105625518Y-88085812D01*
X105750000Y-88098072D01*
X107750000Y-88098072D01*
X107874482Y-88085812D01*
X107994180Y-88049502D01*
X108104494Y-87990537D01*
X108201185Y-87911185D01*
X108280537Y-87814494D01*
X108339502Y-87704180D01*
X108375812Y-87584482D01*
X108388072Y-87460000D01*
X108388072Y-87010000D01*
X108446928Y-87010000D01*
X108450000Y-87724250D01*
X108608750Y-87883000D01*
X109408000Y-87883000D01*
X109408000Y-86533750D01*
X109249250Y-86375000D01*
X109085000Y-86371928D01*
X108960518Y-86384188D01*
X108840820Y-86420498D01*
X108730506Y-86479463D01*
X108633815Y-86558815D01*
X108554463Y-86655506D01*
X108495498Y-86765820D01*
X108459188Y-86885518D01*
X108446928Y-87010000D01*
X108388072Y-87010000D01*
X108388072Y-86560000D01*
X108375812Y-86435518D01*
X108366770Y-86405712D01*
X108424276Y-86374974D01*
X108540001Y-86280001D01*
X108563804Y-86250997D01*
X109036002Y-85778799D01*
X109065000Y-85755002D01*
X109159973Y-85639277D01*
X109230545Y-85507248D01*
X109274002Y-85363987D01*
X109284999Y-85252334D01*
X109284999Y-85252326D01*
X109288675Y-85215001D01*
X109284999Y-85177676D01*
X109284999Y-82458849D01*
X109452659Y-82346822D01*
X109596822Y-82202659D01*
X109710090Y-82033141D01*
X109788111Y-81844783D01*
X109827885Y-81644824D01*
X109827885Y-81440946D01*
X109788111Y-81240987D01*
X109710090Y-81052629D01*
X109596822Y-80883111D01*
X109452659Y-80738948D01*
X109283141Y-80625680D01*
X109094783Y-80547659D01*
X108894824Y-80507885D01*
X108690946Y-80507885D01*
X108490987Y-80547659D01*
X108388072Y-80590288D01*
X108388072Y-80210000D01*
X108375812Y-80085518D01*
X108357454Y-80025000D01*
X108375812Y-79964482D01*
X108388072Y-79840000D01*
X108388072Y-78940000D01*
X108375812Y-78815518D01*
X108357454Y-78755000D01*
X108375812Y-78694482D01*
X108388072Y-78570000D01*
X108388072Y-77670000D01*
X108375812Y-77545518D01*
X108357454Y-77485000D01*
X108375812Y-77424482D01*
X108388072Y-77300000D01*
X108388072Y-76400000D01*
X108375812Y-76275518D01*
X108357454Y-76215000D01*
X108375812Y-76154482D01*
X108388072Y-76030000D01*
X108388072Y-75130000D01*
X108375812Y-75005518D01*
X108357454Y-74945000D01*
X108375812Y-74884482D01*
X108388072Y-74760000D01*
X108388072Y-74687884D01*
X108715000Y-75014812D01*
X108715000Y-75076949D01*
X108754774Y-75276908D01*
X108832795Y-75465266D01*
X108946063Y-75634784D01*
X109090226Y-75778947D01*
X109259744Y-75892215D01*
X109448102Y-75970236D01*
X109648061Y-76010010D01*
X109851939Y-76010010D01*
X110051898Y-75970236D01*
X110240256Y-75892215D01*
X110409774Y-75778947D01*
X110553937Y-75634784D01*
X110643996Y-75500000D01*
X111111928Y-75500000D01*
X111115000Y-77714250D01*
X111273750Y-77873000D01*
X114123000Y-77873000D01*
X114123000Y-75023750D01*
X114377000Y-75023750D01*
X114377000Y-77873000D01*
X117226250Y-77873000D01*
X117385000Y-77714250D01*
X117388072Y-75500000D01*
X117375812Y-75375518D01*
X117339502Y-75255820D01*
X117280537Y-75145506D01*
X117201185Y-75048815D01*
X117104494Y-74969463D01*
X116994180Y-74910498D01*
X116874482Y-74874188D01*
X116750000Y-74861928D01*
X114535750Y-74865000D01*
X114377000Y-75023750D01*
X114123000Y-75023750D01*
X113964250Y-74865000D01*
X111750000Y-74861928D01*
X111625518Y-74874188D01*
X111505820Y-74910498D01*
X111395506Y-74969463D01*
X111298815Y-75048815D01*
X111219463Y-75145506D01*
X111160498Y-75255820D01*
X111124188Y-75375518D01*
X111111928Y-75500000D01*
X110643996Y-75500000D01*
X110667205Y-75465266D01*
X110745226Y-75276908D01*
X110785000Y-75076949D01*
X110785000Y-74873071D01*
X110745226Y-74673112D01*
X110667205Y-74484754D01*
X110553937Y-74315236D01*
X110409774Y-74171073D01*
X110240256Y-74057805D01*
X110051898Y-73979784D01*
X109851939Y-73940010D01*
X109789802Y-73940010D01*
X108382422Y-72532631D01*
X108375812Y-72465518D01*
X108357454Y-72405000D01*
X108375812Y-72344482D01*
X108388072Y-72220000D01*
X108388072Y-71320000D01*
X108375812Y-71195518D01*
X108357454Y-71135000D01*
X108375812Y-71074482D01*
X108388072Y-70950000D01*
X108385000Y-70785750D01*
X108226250Y-70627000D01*
X106877000Y-70627000D01*
X106877000Y-70647000D01*
X106623000Y-70647000D01*
X106623000Y-70627000D01*
X105273750Y-70627000D01*
X105115000Y-70785750D01*
X105111928Y-70950000D01*
X105124188Y-71074482D01*
X105142546Y-71135000D01*
X105124188Y-71195518D01*
X105111928Y-71320000D01*
X105111928Y-71568268D01*
X102560000Y-74120197D01*
X101808806Y-73369003D01*
X101785003Y-73339999D01*
X101669278Y-73245026D01*
X101537249Y-73174454D01*
X101393988Y-73130997D01*
X101282335Y-73120000D01*
X101282324Y-73120000D01*
X101245002Y-73116324D01*
X101207680Y-73120000D01*
X99241670Y-73120000D01*
X99453158Y-73077932D01*
X99723411Y-72965990D01*
X99966632Y-72803475D01*
X100173475Y-72596632D01*
X100335990Y-72353411D01*
X100447932Y-72083158D01*
X100505000Y-71796260D01*
X100505000Y-71503740D01*
X100447932Y-71216842D01*
X100335990Y-70946589D01*
X100173475Y-70703368D01*
X99966632Y-70496525D01*
X99723411Y-70334010D01*
X99453158Y-70222068D01*
X99166260Y-70165000D01*
X98873740Y-70165000D01*
X98586842Y-70222068D01*
X98316589Y-70334010D01*
X98073368Y-70496525D01*
X97866525Y-70703368D01*
X97750000Y-70877760D01*
X97633475Y-70703368D01*
X97426632Y-70496525D01*
X97183411Y-70334010D01*
X96913158Y-70222068D01*
X96626260Y-70165000D01*
X96333740Y-70165000D01*
X96046842Y-70222068D01*
X95776589Y-70334010D01*
X95533368Y-70496525D01*
X95326525Y-70703368D01*
X95210689Y-70876729D01*
X94968397Y-70801208D01*
X94119605Y-71650000D01*
X94968397Y-72498792D01*
X95210689Y-72423271D01*
X95326525Y-72596632D01*
X95533368Y-72803475D01*
X95776589Y-72965990D01*
X96046842Y-73077932D01*
X96258330Y-73120000D01*
X94150553Y-73120000D01*
X94298019Y-73098599D01*
X94573747Y-73000919D01*
X94711157Y-72927472D01*
X94788792Y-72678397D01*
X93940000Y-71829605D01*
X93925858Y-71843748D01*
X93746253Y-71664143D01*
X93760395Y-71650000D01*
X92911603Y-70801208D01*
X92669311Y-70876729D01*
X92553475Y-70703368D01*
X92471710Y-70621603D01*
X93091208Y-70621603D01*
X93940000Y-71470395D01*
X94788792Y-70621603D01*
X94711157Y-70372528D01*
X94447117Y-70246629D01*
X94163589Y-70174661D01*
X93871469Y-70159389D01*
X93581981Y-70201401D01*
X93306253Y-70299081D01*
X93168843Y-70372528D01*
X93091208Y-70621603D01*
X92471710Y-70621603D01*
X92346632Y-70496525D01*
X92103411Y-70334010D01*
X91833158Y-70222068D01*
X91546260Y-70165000D01*
X91253740Y-70165000D01*
X90966842Y-70222068D01*
X90696589Y-70334010D01*
X90660000Y-70358458D01*
X90660000Y-70050000D01*
X105111928Y-70050000D01*
X105115000Y-70214250D01*
X105273750Y-70373000D01*
X106623000Y-70373000D01*
X106623000Y-69573750D01*
X106877000Y-69573750D01*
X106877000Y-70373000D01*
X108226250Y-70373000D01*
X108385000Y-70214250D01*
X108388072Y-70050000D01*
X122111928Y-70050000D01*
X122115000Y-70214250D01*
X122273750Y-70373000D01*
X123623000Y-70373000D01*
X123623000Y-69573750D01*
X123877000Y-69573750D01*
X123877000Y-70373000D01*
X125226250Y-70373000D01*
X125385000Y-70214250D01*
X125388072Y-70050000D01*
X125375812Y-69925518D01*
X125339502Y-69805820D01*
X125280537Y-69695506D01*
X125201185Y-69598815D01*
X125104494Y-69519463D01*
X124994180Y-69460498D01*
X124874482Y-69424188D01*
X124750000Y-69411928D01*
X124035750Y-69415000D01*
X123877000Y-69573750D01*
X123623000Y-69573750D01*
X123464250Y-69415000D01*
X122750000Y-69411928D01*
X122625518Y-69424188D01*
X122505820Y-69460498D01*
X122395506Y-69519463D01*
X122298815Y-69598815D01*
X122219463Y-69695506D01*
X122160498Y-69805820D01*
X122124188Y-69925518D01*
X122111928Y-70050000D01*
X108388072Y-70050000D01*
X108375812Y-69925518D01*
X108339502Y-69805820D01*
X108280537Y-69695506D01*
X108201185Y-69598815D01*
X108104494Y-69519463D01*
X107994180Y-69460498D01*
X107874482Y-69424188D01*
X107750000Y-69411928D01*
X107035750Y-69415000D01*
X106877000Y-69573750D01*
X106623000Y-69573750D01*
X106464250Y-69415000D01*
X105750000Y-69411928D01*
X105625518Y-69424188D01*
X105505820Y-69460498D01*
X105395506Y-69519463D01*
X105298815Y-69598815D01*
X105219463Y-69695506D01*
X105160498Y-69805820D01*
X105124188Y-69925518D01*
X105111928Y-70050000D01*
X90660000Y-70050000D01*
X90660000Y-67980931D01*
X90752627Y-68121118D01*
X91297557Y-68411649D01*
X91888696Y-68590287D01*
X92503328Y-68650168D01*
X93117831Y-68588990D01*
X93708592Y-68409103D01*
X94247373Y-68121118D01*
X94523543Y-67703148D01*
X92500000Y-65679605D01*
X92485858Y-65693748D01*
X92306253Y-65514143D01*
X92320395Y-65500000D01*
X92306253Y-65485858D01*
X92485858Y-65306253D01*
X92500000Y-65320395D01*
X92514143Y-65306253D01*
X92693748Y-65485858D01*
X92679605Y-65500000D01*
X94703148Y-67523543D01*
X95121118Y-67247373D01*
X95411649Y-66702443D01*
X95590287Y-66111304D01*
X95650168Y-65496672D01*
X95588990Y-64882169D01*
X95409103Y-64291408D01*
X95121118Y-63752627D01*
X94980931Y-63660000D01*
X100590000Y-63660000D01*
X100590001Y-68717571D01*
G37*
%TD.AperFunction*%
D29*
X90667748Y-93019987D02*
X90935537Y-93198918D01*
X91233088Y-93322168D01*
X91548967Y-93385000D01*
X91871033Y-93385000D01*
X92186912Y-93322168D01*
X92484463Y-93198918D01*
X92694809Y-93058370D01*
X92719463Y-93104494D01*
X92798815Y-93201185D01*
X92895506Y-93280537D01*
X93005820Y-93339502D01*
X93125518Y-93375812D01*
X93250000Y-93388072D01*
X93823723Y-93385604D01*
X93802616Y-93466108D01*
X93783282Y-93787595D01*
X93827039Y-94106675D01*
X93932205Y-94411088D01*
X94025186Y-94585044D01*
X94289587Y-94680808D01*
X95245395Y-93725000D01*
X94906992Y-93386597D01*
X95250000Y-93388072D01*
X95266092Y-93386487D01*
X95425000Y-93545395D01*
X95439143Y-93531253D01*
X95611938Y-93704048D01*
X95611928Y-93705000D01*
X95613065Y-93716540D01*
X95604605Y-93725000D01*
X95614913Y-93735308D01*
X95615601Y-93742289D01*
X95481235Y-93876655D01*
X95455518Y-93879188D01*
X95335820Y-93915498D01*
X95225506Y-93974463D01*
X95128815Y-94053815D01*
X95049463Y-94150506D01*
X94990498Y-94260820D01*
X94956409Y-94373196D01*
X94469192Y-94860413D01*
X94564956Y-95124814D01*
X94854571Y-95265704D01*
X94942907Y-95288864D01*
X94943340Y-95635162D01*
X94703148Y-95476457D01*
X92679605Y-97500000D01*
X92693748Y-97514143D01*
X92514143Y-97693748D01*
X92500000Y-97679605D01*
X92485858Y-97693748D01*
X92306253Y-97514143D01*
X92320395Y-97500000D01*
X92306253Y-97485858D01*
X92485858Y-97306253D01*
X92500000Y-97320395D01*
X94523543Y-95296852D01*
X94247373Y-94878882D01*
X93702443Y-94588351D01*
X93111304Y-94409713D01*
X92496672Y-94349832D01*
X91882169Y-94411010D01*
X91291408Y-94590897D01*
X90752627Y-94878882D01*
X90660000Y-95019069D01*
X90660000Y-93012239D01*
X90667748Y-93019987D01*
%TA.AperFunction,Conductor*%
D30*
G36*
X90667748Y-93019987D02*
G01*
X90935537Y-93198918D01*
X91233088Y-93322168D01*
X91548967Y-93385000D01*
X91871033Y-93385000D01*
X92186912Y-93322168D01*
X92484463Y-93198918D01*
X92694809Y-93058370D01*
X92719463Y-93104494D01*
X92798815Y-93201185D01*
X92895506Y-93280537D01*
X93005820Y-93339502D01*
X93125518Y-93375812D01*
X93250000Y-93388072D01*
X93823723Y-93385604D01*
X93802616Y-93466108D01*
X93783282Y-93787595D01*
X93827039Y-94106675D01*
X93932205Y-94411088D01*
X94025186Y-94585044D01*
X94289587Y-94680808D01*
X95245395Y-93725000D01*
X94906992Y-93386597D01*
X95250000Y-93388072D01*
X95266092Y-93386487D01*
X95425000Y-93545395D01*
X95439143Y-93531253D01*
X95611938Y-93704048D01*
X95611928Y-93705000D01*
X95613065Y-93716540D01*
X95604605Y-93725000D01*
X95614913Y-93735308D01*
X95615601Y-93742289D01*
X95481235Y-93876655D01*
X95455518Y-93879188D01*
X95335820Y-93915498D01*
X95225506Y-93974463D01*
X95128815Y-94053815D01*
X95049463Y-94150506D01*
X94990498Y-94260820D01*
X94956409Y-94373196D01*
X94469192Y-94860413D01*
X94564956Y-95124814D01*
X94854571Y-95265704D01*
X94942907Y-95288864D01*
X94943340Y-95635162D01*
X94703148Y-95476457D01*
X92679605Y-97500000D01*
X92693748Y-97514143D01*
X92514143Y-97693748D01*
X92500000Y-97679605D01*
X92485858Y-97693748D01*
X92306253Y-97514143D01*
X92320395Y-97500000D01*
X92306253Y-97485858D01*
X92485858Y-97306253D01*
X92500000Y-97320395D01*
X94523543Y-95296852D01*
X94247373Y-94878882D01*
X93702443Y-94588351D01*
X93111304Y-94409713D01*
X92496672Y-94349832D01*
X91882169Y-94411010D01*
X91291408Y-94590897D01*
X90752627Y-94878882D01*
X90660000Y-95019069D01*
X90660000Y-93012239D01*
X90667748Y-93019987D01*
G37*
%TD.AperFunction*%
D29*
X99877000Y-97123000D02*
X102832315Y-97123000D01*
X102797528Y-97133843D01*
X102681586Y-97377000D01*
X99877000Y-97377000D01*
X99877000Y-97397000D01*
X99623000Y-97397000D01*
X99623000Y-97377000D01*
X99603000Y-97377000D01*
X99603000Y-97123000D01*
X99623000Y-97123000D01*
X99623000Y-97103000D01*
X99877000Y-97103000D01*
X99877000Y-97123000D01*
%TA.AperFunction,Conductor*%
D30*
G36*
X99877000Y-97123000D02*
G01*
X102832315Y-97123000D01*
X102797528Y-97133843D01*
X102681586Y-97377000D01*
X99877000Y-97377000D01*
X99877000Y-97397000D01*
X99623000Y-97397000D01*
X99623000Y-97377000D01*
X99603000Y-97377000D01*
X99603000Y-97123000D01*
X99623000Y-97123000D01*
X99623000Y-97103000D01*
X99877000Y-97103000D01*
X99877000Y-97123000D01*
G37*
%TD.AperFunction*%
D29*
X96720001Y-85508179D02*
X96720001Y-86240000D01*
X96537333Y-86240000D01*
X96500000Y-86236323D01*
X96462667Y-86240000D01*
X96351014Y-86250997D01*
X96207753Y-86294454D01*
X96075724Y-86365026D01*
X95959999Y-86459999D01*
X95936197Y-86489002D01*
X95550211Y-86874988D01*
X95521207Y-86898791D01*
X95475809Y-86954109D01*
X95426234Y-87014516D01*
X95380627Y-87099841D01*
X95355662Y-87146546D01*
X95312205Y-87289807D01*
X95301208Y-87401460D01*
X95301208Y-87401470D01*
X95297532Y-87438792D01*
X95301208Y-87476114D01*
X95301208Y-88299789D01*
X95297532Y-88337111D01*
X95301208Y-88374433D01*
X95301208Y-88374444D01*
X95312206Y-88486097D01*
X95319871Y-88511366D01*
X95355662Y-88629357D01*
X95405939Y-88723418D01*
X95405940Y-90133731D01*
X95374482Y-90124188D01*
X95250000Y-90111928D01*
X94535750Y-90115000D01*
X94377000Y-90273750D01*
X94377000Y-91623000D01*
X94397000Y-91623000D01*
X94397000Y-91877000D01*
X94377000Y-91877000D01*
X94377000Y-91897000D01*
X94123000Y-91897000D01*
X94123000Y-91877000D01*
X94103000Y-91877000D01*
X94103000Y-91623000D01*
X94123000Y-91623000D01*
X94123000Y-90273750D01*
X93964250Y-90115000D01*
X93606645Y-90113462D01*
X93653475Y-90066632D01*
X93815990Y-89823411D01*
X93927932Y-89553158D01*
X93985000Y-89266260D01*
X93985000Y-88973740D01*
X93927932Y-88686842D01*
X93815990Y-88416589D01*
X93680295Y-88213508D01*
X94511009Y-87382796D01*
X94540001Y-87359003D01*
X94563795Y-87330010D01*
X94563799Y-87330006D01*
X94624528Y-87256006D01*
X94634974Y-87243278D01*
X94705546Y-87111249D01*
X94749003Y-86967988D01*
X94760000Y-86856335D01*
X94760000Y-86856326D01*
X94763676Y-86819003D01*
X94760000Y-86781680D01*
X94760000Y-86514645D01*
X95117035Y-86514645D01*
X95154357Y-86518321D01*
X95191679Y-86514645D01*
X95191690Y-86514645D01*
X95303343Y-86503648D01*
X95446604Y-86460191D01*
X95578633Y-86389619D01*
X95694358Y-86294646D01*
X95718161Y-86265642D01*
X96573508Y-85410296D01*
X96720001Y-85508179D01*
%TA.AperFunction,Conductor*%
D30*
G36*
X96720001Y-85508179D02*
G01*
X96720001Y-86240000D01*
X96537333Y-86240000D01*
X96500000Y-86236323D01*
X96462667Y-86240000D01*
X96351014Y-86250997D01*
X96207753Y-86294454D01*
X96075724Y-86365026D01*
X95959999Y-86459999D01*
X95936197Y-86489002D01*
X95550211Y-86874988D01*
X95521207Y-86898791D01*
X95475809Y-86954109D01*
X95426234Y-87014516D01*
X95380627Y-87099841D01*
X95355662Y-87146546D01*
X95312205Y-87289807D01*
X95301208Y-87401460D01*
X95301208Y-87401470D01*
X95297532Y-87438792D01*
X95301208Y-87476114D01*
X95301208Y-88299789D01*
X95297532Y-88337111D01*
X95301208Y-88374433D01*
X95301208Y-88374444D01*
X95312206Y-88486097D01*
X95319871Y-88511366D01*
X95355662Y-88629357D01*
X95405939Y-88723418D01*
X95405940Y-90133731D01*
X95374482Y-90124188D01*
X95250000Y-90111928D01*
X94535750Y-90115000D01*
X94377000Y-90273750D01*
X94377000Y-91623000D01*
X94397000Y-91623000D01*
X94397000Y-91877000D01*
X94377000Y-91877000D01*
X94377000Y-91897000D01*
X94123000Y-91897000D01*
X94123000Y-91877000D01*
X94103000Y-91877000D01*
X94103000Y-91623000D01*
X94123000Y-91623000D01*
X94123000Y-90273750D01*
X93964250Y-90115000D01*
X93606645Y-90113462D01*
X93653475Y-90066632D01*
X93815990Y-89823411D01*
X93927932Y-89553158D01*
X93985000Y-89266260D01*
X93985000Y-88973740D01*
X93927932Y-88686842D01*
X93815990Y-88416589D01*
X93680295Y-88213508D01*
X94511009Y-87382796D01*
X94540001Y-87359003D01*
X94563795Y-87330010D01*
X94563799Y-87330006D01*
X94624528Y-87256006D01*
X94634974Y-87243278D01*
X94705546Y-87111249D01*
X94749003Y-86967988D01*
X94760000Y-86856335D01*
X94760000Y-86856326D01*
X94763676Y-86819003D01*
X94760000Y-86781680D01*
X94760000Y-86514645D01*
X95117035Y-86514645D01*
X95154357Y-86518321D01*
X95191679Y-86514645D01*
X95191690Y-86514645D01*
X95303343Y-86503648D01*
X95446604Y-86460191D01*
X95578633Y-86389619D01*
X95694358Y-86294646D01*
X95718161Y-86265642D01*
X96573508Y-85410296D01*
X96720001Y-85508179D01*
G37*
%TD.AperFunction*%
D29*
X97902000Y-89427000D02*
X97902750Y-89427000D01*
X97922000Y-89446250D01*
X97922000Y-89473000D01*
X97902000Y-89473000D01*
X97902000Y-90076250D01*
X97961928Y-90136178D01*
X97961928Y-90559628D01*
X97907788Y-90582054D01*
X97830608Y-90633624D01*
X97702874Y-90580714D01*
X97502915Y-90540940D01*
X97299037Y-90540940D01*
X97099078Y-90580714D01*
X96925939Y-90652431D01*
X96925939Y-90074376D01*
X97006928Y-90137994D01*
X97118477Y-90194586D01*
X97238924Y-90228330D01*
X97363639Y-90237926D01*
X97489250Y-90235000D01*
X97648000Y-90076250D01*
X97648000Y-89473000D01*
X97628000Y-89473000D01*
X97628000Y-89446250D01*
X97647250Y-89427000D01*
X97648000Y-89427000D01*
X97648000Y-89303000D01*
X97902000Y-89303000D01*
X97902000Y-89427000D01*
%TA.AperFunction,Conductor*%
D30*
G36*
X97902000Y-89427000D02*
G01*
X97902750Y-89427000D01*
X97922000Y-89446250D01*
X97922000Y-89473000D01*
X97902000Y-89473000D01*
X97902000Y-90076250D01*
X97961928Y-90136178D01*
X97961928Y-90559628D01*
X97907788Y-90582054D01*
X97830608Y-90633624D01*
X97702874Y-90580714D01*
X97502915Y-90540940D01*
X97299037Y-90540940D01*
X97099078Y-90580714D01*
X96925939Y-90652431D01*
X96925939Y-90074376D01*
X97006928Y-90137994D01*
X97118477Y-90194586D01*
X97238924Y-90228330D01*
X97363639Y-90237926D01*
X97489250Y-90235000D01*
X97648000Y-90076250D01*
X97648000Y-89473000D01*
X97628000Y-89473000D01*
X97628000Y-89446250D01*
X97647250Y-89427000D01*
X97648000Y-89427000D01*
X97648000Y-89303000D01*
X97902000Y-89303000D01*
X97902000Y-89427000D01*
G37*
%TD.AperFunction*%
D29*
X99852000Y-88348000D02*
X99872000Y-88348000D01*
X99872000Y-88602000D01*
X99852000Y-88602000D01*
X99852000Y-88622000D01*
X99598000Y-88622000D01*
X99598000Y-88602000D01*
X99578000Y-88602000D01*
X99578000Y-88348000D01*
X99598000Y-88348000D01*
X99598000Y-88328000D01*
X99852000Y-88328000D01*
X99852000Y-88348000D01*
%TA.AperFunction,Conductor*%
D30*
G36*
X99852000Y-88348000D02*
G01*
X99872000Y-88348000D01*
X99872000Y-88602000D01*
X99852000Y-88602000D01*
X99852000Y-88622000D01*
X99598000Y-88622000D01*
X99598000Y-88602000D01*
X99578000Y-88602000D01*
X99578000Y-88348000D01*
X99598000Y-88348000D01*
X99598000Y-88328000D01*
X99852000Y-88328000D01*
X99852000Y-88348000D01*
G37*
%TD.AperFunction*%
D29*
X90696589Y-72965990D02*
X90966842Y-73077932D01*
X91216719Y-73127636D01*
X91184010Y-73176589D01*
X91072068Y-73446842D01*
X91015000Y-73733740D01*
X91015000Y-74026260D01*
X91072068Y-74313158D01*
X91184010Y-74583411D01*
X91346525Y-74826632D01*
X91553368Y-75033475D01*
X91726729Y-75149311D01*
X91651208Y-75391603D01*
X92500000Y-76240395D01*
X93348792Y-75391603D01*
X93273271Y-75149311D01*
X93446632Y-75033475D01*
X93653475Y-74826632D01*
X93778178Y-74640000D01*
X100930201Y-74640000D01*
X101800001Y-75509801D01*
X101800000Y-81630548D01*
X101198999Y-82231550D01*
X101170001Y-82255348D01*
X101146203Y-82284346D01*
X101146202Y-82284347D01*
X101075027Y-82371073D01*
X101068652Y-82382999D01*
X99035322Y-82382999D01*
X98997999Y-82379323D01*
X98960677Y-82382999D01*
X98960666Y-82382999D01*
X98849013Y-82393996D01*
X98705752Y-82437453D01*
X98573723Y-82508025D01*
X98457998Y-82602998D01*
X98434195Y-82632002D01*
X98421997Y-82644200D01*
X98392999Y-82667998D01*
X98369201Y-82696996D01*
X98369200Y-82696997D01*
X98298025Y-82783723D01*
X98227453Y-82915753D01*
X98220470Y-82938772D01*
X98183411Y-82914010D01*
X97913158Y-82802068D01*
X97626260Y-82745000D01*
X97333740Y-82745000D01*
X97046842Y-82802068D01*
X96776589Y-82914010D01*
X96533368Y-83076525D01*
X96326525Y-83283368D01*
X96210000Y-83457760D01*
X96093475Y-83283368D01*
X95886632Y-83076525D01*
X95643411Y-82914010D01*
X95373158Y-82802068D01*
X95086260Y-82745000D01*
X94793740Y-82745000D01*
X94506842Y-82802068D01*
X94236589Y-82914010D01*
X93993368Y-83076525D01*
X93786525Y-83283368D01*
X93783477Y-83287930D01*
X93653475Y-83093368D01*
X93446632Y-82886525D01*
X93272240Y-82770000D01*
X93446632Y-82653475D01*
X93653475Y-82446632D01*
X93815990Y-82203411D01*
X93927932Y-81933158D01*
X93985000Y-81646260D01*
X93985000Y-81353740D01*
X93927932Y-81066842D01*
X93815990Y-80796589D01*
X93653475Y-80553368D01*
X93446632Y-80346525D01*
X93272240Y-80230000D01*
X93446632Y-80113475D01*
X93653475Y-79906632D01*
X93815990Y-79663411D01*
X93927932Y-79393158D01*
X93985000Y-79106260D01*
X93985000Y-78813740D01*
X93927932Y-78526842D01*
X93815990Y-78256589D01*
X93653475Y-78013368D01*
X93446632Y-77806525D01*
X93273271Y-77690689D01*
X93348792Y-77448397D01*
X92500000Y-76599605D01*
X91651208Y-77448397D01*
X91726729Y-77690689D01*
X91553368Y-77806525D01*
X91346525Y-78013368D01*
X91184010Y-78256589D01*
X91072068Y-78526842D01*
X91015000Y-78813740D01*
X91015000Y-79106260D01*
X91072068Y-79393158D01*
X91184010Y-79663411D01*
X91346525Y-79906632D01*
X91553368Y-80113475D01*
X91727760Y-80230000D01*
X91553368Y-80346525D01*
X91346525Y-80553368D01*
X91184010Y-80796589D01*
X91072068Y-81066842D01*
X91015000Y-81353740D01*
X91015000Y-81646260D01*
X91072068Y-81933158D01*
X91184010Y-82203411D01*
X91346525Y-82446632D01*
X91553368Y-82653475D01*
X91727760Y-82770000D01*
X91553368Y-82886525D01*
X91346525Y-83093368D01*
X91184010Y-83336589D01*
X91072068Y-83606842D01*
X91015000Y-83893740D01*
X91015000Y-84186260D01*
X91072068Y-84473158D01*
X91184010Y-84743411D01*
X91346525Y-84986632D01*
X91553368Y-85193475D01*
X91727760Y-85310000D01*
X91553368Y-85426525D01*
X91346525Y-85633368D01*
X91184010Y-85876589D01*
X91072068Y-86146842D01*
X91015000Y-86433740D01*
X91015000Y-86726260D01*
X91072068Y-87013158D01*
X91184010Y-87283411D01*
X91319704Y-87486492D01*
X90660000Y-88146197D01*
X90660000Y-76488531D01*
X91009389Y-76488531D01*
X91051401Y-76778019D01*
X91149081Y-77053747D01*
X91222528Y-77191157D01*
X91471603Y-77268792D01*
X92320395Y-76420000D01*
X92679605Y-76420000D01*
X93528397Y-77268792D01*
X93777472Y-77191157D01*
X93903371Y-76927117D01*
X93975339Y-76643589D01*
X93990611Y-76351469D01*
X93948599Y-76061981D01*
X93850919Y-75786253D01*
X93777472Y-75648843D01*
X93528397Y-75571208D01*
X92679605Y-76420000D01*
X92320395Y-76420000D01*
X91471603Y-75571208D01*
X91222528Y-75648843D01*
X91096629Y-75912883D01*
X91024661Y-76196411D01*
X91009389Y-76488531D01*
X90660000Y-76488531D01*
X90660000Y-72941542D01*
X90696589Y-72965990D01*
%TA.AperFunction,Conductor*%
D30*
G36*
X90696589Y-72965990D02*
G01*
X90966842Y-73077932D01*
X91216719Y-73127636D01*
X91184010Y-73176589D01*
X91072068Y-73446842D01*
X91015000Y-73733740D01*
X91015000Y-74026260D01*
X91072068Y-74313158D01*
X91184010Y-74583411D01*
X91346525Y-74826632D01*
X91553368Y-75033475D01*
X91726729Y-75149311D01*
X91651208Y-75391603D01*
X92500000Y-76240395D01*
X93348792Y-75391603D01*
X93273271Y-75149311D01*
X93446632Y-75033475D01*
X93653475Y-74826632D01*
X93778178Y-74640000D01*
X100930201Y-74640000D01*
X101800001Y-75509801D01*
X101800000Y-81630548D01*
X101198999Y-82231550D01*
X101170001Y-82255348D01*
X101146203Y-82284346D01*
X101146202Y-82284347D01*
X101075027Y-82371073D01*
X101068652Y-82382999D01*
X99035322Y-82382999D01*
X98997999Y-82379323D01*
X98960677Y-82382999D01*
X98960666Y-82382999D01*
X98849013Y-82393996D01*
X98705752Y-82437453D01*
X98573723Y-82508025D01*
X98457998Y-82602998D01*
X98434195Y-82632002D01*
X98421997Y-82644200D01*
X98392999Y-82667998D01*
X98369201Y-82696996D01*
X98369200Y-82696997D01*
X98298025Y-82783723D01*
X98227453Y-82915753D01*
X98220470Y-82938772D01*
X98183411Y-82914010D01*
X97913158Y-82802068D01*
X97626260Y-82745000D01*
X97333740Y-82745000D01*
X97046842Y-82802068D01*
X96776589Y-82914010D01*
X96533368Y-83076525D01*
X96326525Y-83283368D01*
X96210000Y-83457760D01*
X96093475Y-83283368D01*
X95886632Y-83076525D01*
X95643411Y-82914010D01*
X95373158Y-82802068D01*
X95086260Y-82745000D01*
X94793740Y-82745000D01*
X94506842Y-82802068D01*
X94236589Y-82914010D01*
X93993368Y-83076525D01*
X93786525Y-83283368D01*
X93783477Y-83287930D01*
X93653475Y-83093368D01*
X93446632Y-82886525D01*
X93272240Y-82770000D01*
X93446632Y-82653475D01*
X93653475Y-82446632D01*
X93815990Y-82203411D01*
X93927932Y-81933158D01*
X93985000Y-81646260D01*
X93985000Y-81353740D01*
X93927932Y-81066842D01*
X93815990Y-80796589D01*
X93653475Y-80553368D01*
X93446632Y-80346525D01*
X93272240Y-80230000D01*
X93446632Y-80113475D01*
X93653475Y-79906632D01*
X93815990Y-79663411D01*
X93927932Y-79393158D01*
X93985000Y-79106260D01*
X93985000Y-78813740D01*
X93927932Y-78526842D01*
X93815990Y-78256589D01*
X93653475Y-78013368D01*
X93446632Y-77806525D01*
X93273271Y-77690689D01*
X93348792Y-77448397D01*
X92500000Y-76599605D01*
X91651208Y-77448397D01*
X91726729Y-77690689D01*
X91553368Y-77806525D01*
X91346525Y-78013368D01*
X91184010Y-78256589D01*
X91072068Y-78526842D01*
X91015000Y-78813740D01*
X91015000Y-79106260D01*
X91072068Y-79393158D01*
X91184010Y-79663411D01*
X91346525Y-79906632D01*
X91553368Y-80113475D01*
X91727760Y-80230000D01*
X91553368Y-80346525D01*
X91346525Y-80553368D01*
X91184010Y-80796589D01*
X91072068Y-81066842D01*
X91015000Y-81353740D01*
X91015000Y-81646260D01*
X91072068Y-81933158D01*
X91184010Y-82203411D01*
X91346525Y-82446632D01*
X91553368Y-82653475D01*
X91727760Y-82770000D01*
X91553368Y-82886525D01*
X91346525Y-83093368D01*
X91184010Y-83336589D01*
X91072068Y-83606842D01*
X91015000Y-83893740D01*
X91015000Y-84186260D01*
X91072068Y-84473158D01*
X91184010Y-84743411D01*
X91346525Y-84986632D01*
X91553368Y-85193475D01*
X91727760Y-85310000D01*
X91553368Y-85426525D01*
X91346525Y-85633368D01*
X91184010Y-85876589D01*
X91072068Y-86146842D01*
X91015000Y-86433740D01*
X91015000Y-86726260D01*
X91072068Y-87013158D01*
X91184010Y-87283411D01*
X91319704Y-87486492D01*
X90660000Y-88146197D01*
X90660000Y-76488531D01*
X91009389Y-76488531D01*
X91051401Y-76778019D01*
X91149081Y-77053747D01*
X91222528Y-77191157D01*
X91471603Y-77268792D01*
X92320395Y-76420000D01*
X92679605Y-76420000D01*
X93528397Y-77268792D01*
X93777472Y-77191157D01*
X93903371Y-76927117D01*
X93975339Y-76643589D01*
X93990611Y-76351469D01*
X93948599Y-76061981D01*
X93850919Y-75786253D01*
X93777472Y-75648843D01*
X93528397Y-75571208D01*
X92679605Y-76420000D01*
X92320395Y-76420000D01*
X91471603Y-75571208D01*
X91222528Y-75648843D01*
X91096629Y-75912883D01*
X91024661Y-76196411D01*
X91009389Y-76488531D01*
X90660000Y-76488531D01*
X90660000Y-72941542D01*
X90696589Y-72965990D01*
G37*
%TD.AperFunction*%
D29*
X100147000Y-84103000D02*
X100167000Y-84103000D01*
X100167000Y-84357000D01*
X100147000Y-84357000D01*
X100147000Y-84377000D01*
X99893000Y-84377000D01*
X99893000Y-84357000D01*
X99873000Y-84357000D01*
X99873000Y-84103000D01*
X99893000Y-84103000D01*
X99893000Y-84083000D01*
X100147000Y-84083000D01*
X100147000Y-84103000D01*
%TA.AperFunction,Conductor*%
D30*
G36*
X100147000Y-84103000D02*
G01*
X100167000Y-84103000D01*
X100167000Y-84357000D01*
X100147000Y-84357000D01*
X100147000Y-84377000D01*
X99893000Y-84377000D01*
X99893000Y-84357000D01*
X99873000Y-84357000D01*
X99873000Y-84103000D01*
X99893000Y-84103000D01*
X99893000Y-84083000D01*
X100147000Y-84083000D01*
X100147000Y-84103000D01*
G37*
%TD.AperFunction*%
D29*
X132193748Y-65485858D02*
X132179605Y-65500000D01*
X132193748Y-65514143D01*
X132014143Y-65693748D01*
X132000000Y-65679605D01*
X131985858Y-65693748D01*
X131806253Y-65514143D01*
X131820395Y-65500000D01*
X131806253Y-65485858D01*
X131985858Y-65306253D01*
X132000000Y-65320395D01*
X132014143Y-65306253D01*
X132193748Y-65485858D01*
%TA.AperFunction,Conductor*%
D30*
G36*
X132193748Y-65485858D02*
G01*
X132179605Y-65500000D01*
X132193748Y-65514143D01*
X132014143Y-65693748D01*
X132000000Y-65679605D01*
X131985858Y-65693748D01*
X131806253Y-65514143D01*
X131820395Y-65500000D01*
X131806253Y-65485858D01*
X131985858Y-65306253D01*
X132000000Y-65320395D01*
X132014143Y-65306253D01*
X132193748Y-65485858D01*
G37*
%TD.AperFunction*%
%TD*%
M02*
