<?xml version="1.0" encoding="UTF-8" standalone="no"?>
<svg
   xmlns:dc="http://purl.org/dc/elements/1.1/"
   xmlns:cc="http://creativecommons.org/ns#"
   xmlns:rdf="http://www.w3.org/1999/02/22-rdf-syntax-ns#"
   xmlns:svg="http://www.w3.org/2000/svg"
   xmlns="http://www.w3.org/2000/svg"
   xmlns:sodipodi="http://sodipodi.sourceforge.net/DTD/sodipodi-0.dtd"
   xmlns:inkscape="http://www.inkscape.org/namespaces/inkscape"
   width="32"
   height="32"
   viewBox="0 0 8.4666665 8.4666669"
   version="1.1"
   id="svg8"
   inkscape:version="1.0 (4035a4f, 2020-05-01)"
   sodipodi:docname="modeF.svg">
  <defs
     id="defs2" />
  <sodipodi:namedview
     id="base"
     pagecolor="#ffffff"
     bordercolor="#666666"
     borderopacity="1.0"
     inkscape:pageopacity="0.0"
     inkscape:pageshadow="2"
     inkscape:zoom="31.5"
     inkscape:cx="16"
     inkscape:cy="16"
     inkscape:document-units="mm"
     inkscape:current-layer="layer1"
     inkscape:document-rotation="0"
     showgrid="true"
     units="px"
     inkscape:window-width="1955"
     inkscape:window-height="1174"
     inkscape:window-x="397"
     inkscape:window-y="188"
     inkscape:window-maximized="0">
    <inkscape:grid
       type="xygrid"
       id="grid833"
       originx="0"
       originy="0"
       dotted="true"
       empspacing="4" />
  </sodipodi:namedview>
  <metadata
     id="metadata5">
    <rdf:RDF>
      <cc:Work
         rdf:about="">
        <dc:format>image/svg+xml</dc:format>
        <dc:type
           rdf:resource="http://purl.org/dc/dcmitype/StillImage" />
        <dc:title />
      </cc:Work>
    </rdf:RDF>
  </metadata>
  <g
     inkscape:label="Layer 1"
     inkscape:groupmode="layer"
     id="layer1"
     transform="translate(0,-288.53332)">
    <path
       style="stroke-width:0.0954909"
       id="path1032"
       d="m 4.7184543,291.52938 c 0.1651994,0.0602 0.3170303,0.15087 0.4545373,0.27406 0.147056,0.13177 0.2759691,0.29793 0.3867384,0.50133 0.05252,0 0.1059952,10e-4 0.1585153,0.003 0.095491,0.004 0.1871623,0.0105 0.2769237,0.0201 0.37528,0.043 0.6588881,0.15851 0.9415416,0.27501 0.1804782,0.0735 0.360956,0.14801 0.5653067,0.19767 0.00191,0.001 0.00382,0.001 0.00668,0.002 0.068753,0.0162 0.1308226,0.0201 0.1852527,0.0143 0.097401,-0.0105 0.1747483,-0.0554 0.2339529,-0.12223 0.066844,-0.0754 0.1145892,-0.17952 0.1432365,-0.29507 0.031511,-0.127 0.038196,-0.26641 0.024827,-0.39819 -0.012415,-0.11841 -0.041061,-0.23777 -0.078303,-0.35523 -0.039151,-0.12127 -0.086896,-0.23873 -0.1394166,-0.35045 -0.047746,-0.10122 -0.1021754,-0.19862 -0.1613799,-0.29125 -0.059205,-0.0917 -0.1241382,-0.18143 -0.1957566,-0.27024 -0.2358629,-0.2922 -0.4841393,-0.49273 -0.733371,-0.60828 -0.2272685,-0.10504 -0.4564471,-0.13941 -0.6770315,-0.1079 -0.222494,0.0324 -0.4392585,0.13178 -0.6407446,0.29411 -0.2587807,0.20817 -0.4908237,0.51852 -0.6770313,0.92149 -0.031511,0.0678 -0.051565,0.13751 -0.063024,0.20722 -0.00573,0.0296 -0.00955,0.0592 -0.011459,0.0888 z m -1.7226577,0.78016 c 0.059204,-0.16616 0.1499208,-0.31799 0.2721493,-0.45549 0.1298678,-0.1461 0.2969771,-0.27502 0.5003729,-0.38674 0,-0.0535 0,-0.106 0.00191,-0.15947 0.00285,-0.0945 0.00955,-0.18717 0.020052,-0.27693 0.042016,-0.37814 0.1575604,-0.66079 0.2721496,-0.94249 0.074483,-0.18334 0.148966,-0.36669 0.1976662,-0.56531 0.01719,-0.0716 0.021961,-0.13559 0.015277,-0.19194 -0.010502,-0.0964 -0.05634,-0.17475 -0.1231836,-0.23395 -0.076393,-0.0678 -0.1795232,-0.11459 -0.2950671,-0.14228 -0.1270031,-0.0306 -0.26642,-0.0382 -0.3981976,-0.0229 -0.1193638,0.0134 -0.2387275,0.0411 -0.3552266,0.0793 -0.1193637,0.0382 -0.2368177,0.0869 -0.3494971,0.14037 -0.1012204,0.0478 -0.1976664,0.10218 -0.2912475,0.16234 -0.094536,0.0611 -0.1842977,0.12605 -0.2692847,0.19575 -0.2922025,0.23682 -0.4927336,0.48605 -0.6073228,0.73624 -0.1050401,0.22727 -0.138462,0.45645 -0.105995,0.67607 0.032467,0.2225 0.1327325,0.43926 0.2950672,0.6398 0.2091253,0.25782 0.520426,0.48986 0.923398,0.67607 0.067799,0.0315 0.1375071,0.0506 0.2072155,0.0621 0.030557,0.004 0.060159,0.007 0.089762,0.01 z m -0.00477,0.36382 c -0.047745,-0.003 -0.095491,-0.008 -0.1432365,-0.0153 -0.1012205,-0.0162 -0.202441,-0.0449 -0.3007967,-0.0907 -0.4545372,-0.20913 -0.8097638,-0.4765 -1.0532659,-0.7773 -0.2043507,-0.25305 -0.3313537,-0.52902 -0.3733698,-0.81645 -0.042971,-0.28933 9.564e-4,-0.58822 0.1355972,-0.88138 0.1375071,-0.29889 0.3714601,-0.593 0.7085433,-0.86514 0.097401,-0.0793 0.1986213,-0.15279 0.3027065,-0.21964 0.1050401,-0.0678 0.2158097,-0.12986 0.3323087,-0.18525 0.1241384,-0.0582 0.255916,-0.11268 0.393423,-0.15756 0.1394169,-0.0449 0.2836083,-0.0793 0.4268448,-0.0945 0.1718838,-0.0191 0.3542716,-0.01 0.5232908,0.0315 0.1709289,0.042 0.3294438,0.11555 0.4516724,0.22441 0.1317776,0.1165 0.2215391,0.27119 0.242547,0.46599 0.010502,0.0965 0.00382,0.20245 -0.023874,0.31703 -0.05634,0.23014 -0.1346425,0.42303 -0.212945,0.61688 -0.1050402,0.25878 -0.2110351,0.51947 -0.2473218,0.84509 -0.00955,0.0859 -0.015277,0.16807 -0.018143,0.24828 -0.00191,0.0554 -0.00285,0.11077 -0.00191,0.16615 0.053475,-0.007 0.1088598,-0.0105 0.1642448,-0.0105 0.020052,0 0.040106,0.001 0.060159,0.001 0.00285,-0.0315 0.00668,-0.064 0.012415,-0.0955 0.016234,-0.10026 0.045836,-0.20148 0.091671,-0.29984 0.2110351,-0.45454 0.4784102,-0.80976 0.7801617,-1.05231 0.2530512,-0.2034 0.5290203,-0.32944 0.8174029,-0.37146 0.2893379,-0.042 0.58727,0.002 0.8804275,0.13751 0.2988865,0.13846 0.592044,0.37337 0.8651485,0.71141 0.077348,0.0955 0.1499206,0.19575 0.2186741,0.3027 0.067799,0.10599 0.129868,0.21677 0.1842977,0.33231 0.059204,0.12509 0.1136343,0.25687 0.1566054,0.39247 0.044881,0.13941 0.078302,0.28361 0.093581,0.4278 0.018143,0.17188 0.00859,0.35427 -0.032468,0.52329 -0.042016,0.16997 -0.1155442,0.32753 -0.2253586,0.45072 -0.1174541,0.13177 -0.2721495,0.22058 -0.4669512,0.24159 -0.094536,0.0105 -0.1976662,0.004 -0.3084359,-0.0229 -0.00285,-10e-4 -0.00573,-10e-4 -0.00859,-0.002 -0.2244035,-0.0554 -0.4201602,-0.13464 -0.6149618,-0.21485 -0.2578258,-0.10504 -0.5166066,-0.21103 -0.8460508,-0.24923 -0.085942,-0.01 -0.1680639,-0.0162 -0.2482764,-0.0191 -0.034377,-0.001 -0.069708,-0.002 -0.1040852,-0.002 0.00382,0.0392 0.00477,0.0783 0.00477,0.11745 0,0.0334 -9.383e-4,0.0668 -0.00382,0.10027 0.060159,0.005 0.1212736,0.0124 0.1814328,0.0258 0.099311,0.021 0.1986212,0.0544 0.296022,0.10505 0.4449885,0.23013 0.7878012,0.51373 1.0169796,0.82599 0.1919367,0.26069 0.3055713,0.54334 0.3342186,0.83268 0.029602,0.29125 -0.027693,0.58727 -0.1757037,0.87375 -0.1518305,0.29315 -0.3991523,0.5758 -0.7486494,0.83268 -0.1002657,0.0735 -0.2033961,0.14228 -0.3113009,0.2053 -0.1088598,0.063 -0.222494,0.12032 -0.3409027,0.16998 -0.1279581,0.0535 -0.2626002,0.10217 -0.4001073,0.13941 -0.140372,0.0382 -0.2845635,0.0649 -0.4316195,0.0745 -0.1718838,0.0114 -0.3542716,-0.007 -0.5213809,-0.0563 -0.1690193,-0.0497 -0.3227597,-0.12987 -0.4402135,-0.24446 -0.1260481,-0.12318 -0.2091255,-0.2817 -0.2215394,-0.47745 -0.00573,-0.0964 0.00573,-0.20245 0.039152,-0.31513 0.066844,-0.22727 0.1537405,-0.41634 0.241592,-0.60636 0.1174541,-0.25401 0.2349079,-0.50897 0.286473,-0.83364 0.012415,-0.0783 0.021965,-0.16138 0.028649,-0.24732 0.00285,-0.0353 0.00477,-0.0688 0.00668,-0.10218 -0.0487,0.006 -0.097401,0.009 -0.148011,0.009 -0.061114,0 -0.1212736,-0.004 -0.1804778,-0.0124 -0.00191,0.0191 -0.00477,0.0382 -0.00764,0.0563 -0.015277,0.10122 -0.042016,0.20244 -0.086897,0.30175 -0.202441,0.4574 -0.4650411,0.81644 -0.7629731,1.06472 -0.2492315,0.20817 -0.5242456,0.33804 -0.8107186,0.38483 -0.2893378,0.0468 -0.5882246,0.008 -0.882337,-0.12223 -0.3007966,-0.13368 -0.5977737,-0.36382 -0.8766074,-0.69708 -0.081167,-0.0974 -0.1556503,-0.19671 -0.2234489,-0.29889 -0.066844,-0.10313 -0.1298678,-0.21199 -0.1881173,-0.32944 -0.061114,-0.1251 -0.1184089,-0.25687 -0.1632897,-0.39056 -0.046791,-0.13942 -0.083077,-0.28266 -0.1012204,-0.42589 -0.021008,-0.17093 -0.014324,-0.35332 0.024828,-0.52329 0.039151,-0.17093 0.1107695,-0.3304 0.2177195,-0.45454 0.1155441,-0.13369 0.2683297,-0.22536 0.4631314,-0.25018 0.095491,-0.0124 0.201486,-0.007 0.3170301,0.0201 0.2301333,0.0525 0.4249349,0.12892 0.6197366,0.20435 0.2606904,0.10218 0.5223358,0.2034 0.8489151,0.23587 0.084032,0.009 0.1671092,0.0134 0.2492315,0.0143 0.077348,0.002 0.1566052,0 0.2377726,-0.004 -0.00191,-0.0277 -0.00287,-0.0563 -0.00287,-0.084 0,-0.0372 9.564e-4,-0.0745 0.00382,-0.11173 z m 1.973799,-0.55671 c -0.1709289,-0.17093 -0.4077467,-0.27693 -0.668437,-0.27693 -0.2606906,0 -0.497508,0.106 -0.6684369,0.27693 -0.170929,0.17093 -0.276924,0.40774 -0.276924,0.66843 0,0.26069 0.105995,0.49751 0.276924,0.66844 0.1709289,0.17093 0.4077463,0.27693 0.6684369,0.27693 0.2606903,0 0.4975081,-0.106 0.668437,-0.27693 0.1709288,-0.17093 0.276924,-0.40775 0.276924,-0.66844 0,-0.26069 -0.1059952,-0.4975 -0.276924,-0.66843 z m -1.2070062,1.88021 c -0.1661544,-0.0573 -0.3198949,-0.14514 -0.4593118,-0.26641 -0.148966,-0.12892 -0.2807436,-0.29316 -0.3953328,-0.49465 -0.05252,0.001 -0.1050401,0.001 -0.1594699,0 -0.092626,-0.002 -0.1852526,-0.007 -0.2759691,-0.0162 -0.3790993,-0.0372 -0.6636625,-0.14801 -0.9463158,-0.25878 -0.1833428,-0.0716 -0.3676404,-0.14324 -0.5672166,-0.18907 -0.071618,-0.0162 -0.1355972,-0.0201 -0.1928918,-0.0124 -0.097401,0.0124 -0.1737937,0.0582 -0.2320432,0.12605 -0.065889,0.0764 -0.1117245,0.18048 -0.1384619,0.29602 -0.028647,0.12701 -0.034377,0.26642 -0.017188,0.39916 0.015278,0.1184 0.044881,0.23777 0.084032,0.35331 0.041061,0.12223 0.091671,0.23873 0.1451463,0.34759 0.0487,0.0993 0.1040852,0.1948 0.1661544,0.28838 0.063024,0.0945 0.1298677,0.18335 0.1995761,0.26738 0.2396825,0.28743 0.4917787,0.48414 0.743875,0.59586 0.2301333,0.10218 0.4593117,0.13274 0.6789411,0.0974 0.2215391,-0.0363 0.4373487,-0.13941 0.6359701,-0.30461 0.254006,-0.21199 0.4812747,-0.52616 0.6617526,-0.93295 0.030558,-0.0678 0.0487,-0.13846 0.059205,-0.20817 0.00477,-0.0277 0.00764,-0.0582 0.00955,-0.0879 z m 1.8630296,-0.74387 c -0.066844,0.16329 -0.1642448,0.31034 -0.2941124,0.44212 -0.1375071,0.14038 -0.3093909,0.26165 -0.5175614,0.36382 -0.00191,0.0554 -0.00477,0.10791 -0.00955,0.15852 -0.00668,0.0888 -0.018143,0.18048 -0.03342,0.27597 -0.06016,0.37623 -0.1881172,0.65316 -0.3151203,0.92913 -0.083077,0.17952 -0.1651994,0.35809 -0.223449,0.5548 -0.021009,0.0707 -0.027693,0.13464 -0.024827,0.19193 0.00668,0.0974 0.047746,0.17666 0.1117246,0.23873 0.072573,0.0707 0.1747484,0.12318 0.287428,0.15661 0.1250932,0.0363 0.2645098,0.0506 0.3972424,0.042 0.1174541,-0.008 0.2387278,-0.0306 0.3580915,-0.063 0.1231832,-0.0334 0.2425469,-0.0764 0.3552265,-0.12414 0.1040853,-0.043 0.2033957,-0.0926 0.297932,-0.14801 0.096446,-0.0554 0.1890722,-0.11745 0.2788336,-0.18334 0.3027066,-0.2225 0.5137416,-0.46218 0.6407447,-0.70568 0.1155442,-0.22249 0.15947,-0.44976 0.1375071,-0.6713 -0.021961,-0.22345 -0.1126793,-0.44404 -0.2664197,-0.65316 -0.1967116,-0.26738 -0.4965537,-0.51279 -0.8909315,-0.71714 -0.065889,-0.0344 -0.1346421,-0.0573 -0.2043506,-0.0716 -0.025783,-0.009 -0.055385,-0.0134 -0.084987,-0.0162 z"
       sodipodi:nodetypes="cccccccccccccccccccccccsccccccccccccccccccccccccccccccccccccccsccccccccccccccccccccscccccccccccccccccccscccccccccccccccccccscssssssssscccccccccccccccccccccccccccccccccccccccccc" />
  </g>
</svg>
