<?xml version="1.0" encoding="UTF-8" standalone="no"?>
<svg
   sodipodi:docname="modeD.svg"
   inkscape:version="1.2.2 (b0a84865, 2022-12-01)"
   id="svg8"
   version="1.1"
   viewBox="0 0 8.4666665 8.4666669"
   height="32"
   width="32"
   xmlns:inkscape="http://www.inkscape.org/namespaces/inkscape"
   xmlns:sodipodi="http://sodipodi.sourceforge.net/DTD/sodipodi-0.dtd"
   xmlns="http://www.w3.org/2000/svg"
   xmlns:svg="http://www.w3.org/2000/svg"
   xmlns:rdf="http://www.w3.org/1999/02/22-rdf-syntax-ns#"
   xmlns:cc="http://creativecommons.org/ns#"
   xmlns:dc="http://purl.org/dc/elements/1.1/">
  <defs
     id="defs2" />
  <sodipodi:namedview
     inkscape:window-maximized="1"
     inkscape:window-y="25"
     inkscape:window-x="5120"
     inkscape:window-height="1387"
     inkscape:window-width="2560"
     units="px"
     showgrid="true"
     inkscape:document-rotation="0"
     inkscape:current-layer="layer1"
     inkscape:document-units="mm"
     inkscape:cy="16.015873"
     inkscape:cx="15.650794"
     inkscape:zoom="31.5"
     inkscape:pageshadow="2"
     inkscape:pageopacity="0.0"
     borderopacity="1.0"
     bordercolor="#666666"
     pagecolor="#ffffff"
     id="base"
     inkscape:showpageshadow="2"
     inkscape:pagecheckerboard="0"
     inkscape:deskcolor="#d1d1d1">
    <inkscape:grid
       empspacing="4"
       dotted="true"
       originy="0"
       originx="0"
       id="grid833"
       type="xygrid" />
  </sodipodi:namedview>
  <metadata
     id="metadata5">
    <rdf:RDF>
      <cc:Work
         rdf:about="">
        <dc:format>image/svg+xml</dc:format>
        <dc:type
           rdf:resource="http://purl.org/dc/dcmitype/StillImage" />
        <dc:title />
      </cc:Work>
    </rdf:RDF>
  </metadata>
  <g
     transform="translate(0,-288.53332)"
     id="layer1"
     inkscape:groupmode="layer"
     inkscape:label="Layer 1">
    <path
       style="fill:none;stroke:#000000;stroke-width:0.52916667;stroke-linecap:round;stroke-linejoin:round;stroke-opacity:1;stroke-dasharray:none"
       d="m 1.0583333,290.65839 c 0,0 1.4106767,-0.56277 2.141865,-0.56277 0.7727515,0 1.5371034,1.10033 2.1082673,1.10873 0.571164,0.008 2.0830687,-0.56276 2.0830687,-0.56276"
       id="path376"
       sodipodi:nodetypes="cscc" />
    <path
       style="fill:none;stroke:#000000;stroke-width:0.52916667;stroke-linecap:round;stroke-linejoin:round;stroke-opacity:1;stroke-dasharray:none"
       d="m 1.0090846,291.71668 c 0,0 1.4106767,-0.56277 2.141865,-0.56277 0.7727515,0 1.5371034,1.10033 2.1082673,1.10873 0.571164,0.008 2.0830687,-0.56276 2.0830687,-0.56276"
       id="path376-8"
       sodipodi:nodetypes="cscc" />
    <path
       style="fill:none;stroke:#000000;stroke-width:0.52916667;stroke-linecap:round;stroke-linejoin:round;stroke-opacity:1;stroke-dasharray:none"
       d="m 1.0085106,292.79183 c 0,0 1.4106767,-0.56277 2.141865,-0.56277 0.7727515,0 1.5371034,1.10033 2.1082673,1.10873 0.571164,0.008 2.0830687,-0.56276 2.0830687,-0.56276"
       id="path376-3"
       sodipodi:nodetypes="cscc" />
    <path
       style="fill:none;stroke:#000000;stroke-width:0.52916667;stroke-linecap:round;stroke-linejoin:round;stroke-opacity:1;stroke-dasharray:none"
       d="m 0.95926185,293.85012 c 0,0 1.41067675,-0.56277 2.14186505,-0.56277 0.7727515,0 1.5371034,1.10033 2.1082673,1.10873 0.571164,0.008 2.0830687,-0.56276 2.0830687,-0.56276"
       id="path376-8-9"
       sodipodi:nodetypes="cscc" />
    <path
       style="fill:none;stroke:#000000;stroke-width:0.52916667;stroke-linecap:round;stroke-linejoin:round;stroke-opacity:1;stroke-dasharray:none"
       d="m 0.98388628,294.94208 c 0,0 1.41067672,-0.56277 2.14186502,-0.56277 0.7727515,0 1.5371034,1.10033 2.1082673,1.10873 0.571164,0.008 2.0830687,-0.56276 2.0830687,-0.56276"
       id="path376-8-9-0"
       sodipodi:nodetypes="cscc" />
  </g>
</svg>
